<?xml version="1.0" encoding="UTF-8"?>
<svg xmlns="http://www.w3.org/2000/svg" xmlns:xlink="http://www.w3.org/1999/xlink" width="100px" height="100px" viewBox="0 0 100 100" version="1.1">
<g id="surface1">
<path style=" stroke:none;fill-rule:evenodd;fill:rgb(0%,0%,0%);fill-opacity:1;" d="M 82.75 7.171875 C 81.375 7.527344 77.210938 9.191406 73.5 10.875 C 62.992188 15.628906 57.40625 17.128906 47 17.980469 C 39.199219 18.617188 34.410156 19.789062 28.71875 22.460938 C 14.65625 29.046875 4.214844 40.890625 0.941406 53.964844 C -0.296875 58.898438 -0.179688 64.707031 1.242188 68.75 C 2.492188 72.316406 5.3125 76.34375 7.964844 78.367188 C 18.84375 86.65625 24.011719 89.625 31.28125 91.765625 C 36.488281 93.296875 43.984375 93.636719 48.5 92.542969 C 57.695312 90.3125 68.214844 82.253906 74.992188 72.25 C 78.472656 67.109375 80.714844 62.390625 84.804688 51.582031 C 89.132812 40.148438 91.171875 36.300781 95.066406 32.230469 C 99.777344 27.304688 100.871094 23.621094 99.246094 18.140625 C 98.148438 14.449219 94.824219 9.730469 92.257812 8.226562 C 89.644531 6.695312 86.117188 6.304688 82.75 7.171875 M 83.25 11.359375 C 82.699219 11.496094 79.371094 12.933594 75.851562 14.558594 C 65.296875 19.429688 53.410156 22.457031 44.703125 22.488281 C 38.089844 22.515625 27.300781 27.023438 20.152344 32.746094 C 13.03125 38.449219 8.011719 45.429688 5.675781 52.871094 C 4.5625 56.429688 4.410156 57.667969 4.585938 61.871094 C 4.769531 66.257812 4.960938 67.070312 6.488281 69.917969 C 12.46875 81.078125 29.425781 83.058594 45.425781 74.460938 C 52.480469 70.671875 56.652344 66.585938 68.855469 51.5 C 74.507812 44.515625 81.203125 37.84375 88.925781 31.511719 C 91.765625 29.179688 94.445312 26.59375 94.871094 25.761719 C 96.667969 22.289062 94.875 16.308594 90.984375 12.792969 C 89.257812 11.234375 88.6875 11.007812 86.625 11.058594 C 85.316406 11.089844 83.800781 11.226562 83.25 11.359375 M 40.96875 31.039062 C 33.613281 32.101562 26.050781 37.136719 21.496094 44.003906 C 16.914062 50.90625 17.277344 59.019531 22.371094 63.5 C 31.398438 71.449219 49.734375 65.003906 56.398438 51.539062 C 58.054688 48.195312 58.238281 47.429688 58.242188 43.789062 C 58.25 40.253906 58.074219 39.453125 56.839844 37.355469 C 53.875 32.308594 48.097656 30.011719 40.96875 31.039062 M 39.5 35.691406 C 30.855469 38.199219 23.398438 45.941406 22.652344 53.183594 C 21.492188 64.402344 37.125 66.164062 47.703125 56.003906 C 49.433594 54.34375 51.5 51.808594 52.292969 50.367188 C 53.527344 48.140625 53.742188 47.191406 53.746094 44 C 53.75 39.617188 52.746094 37.714844 49.636719 36.214844 C 47.28125 35.078125 42.464844 34.832031 39.5 35.691406 M 79.460938 45.878906 C 77.144531 48.28125 72.503906 53.644531 69.148438 57.789062 C 58.363281 71.125 53.53125 75.441406 44.800781 79.53125 C 39.464844 82.035156 33.871094 83.53125 28.28125 83.957031 L 23.75 84.300781 L 26.75 85.691406 C 33.535156 88.835938 41.574219 89.8125 47.769531 88.246094 C 57.6875 85.734375 68.542969 76.164062 74.679688 64.53125 C 76.746094 60.609375 84.167969 42.003906 83.808594 41.640625 C 83.734375 41.566406 81.777344 43.472656 79.460938 45.878906 "/>
</g>
</svg>
