<?xml version="1.0" encoding="UTF-8"?>
<svg xmlns="http://www.w3.org/2000/svg" xmlns:xlink="http://www.w3.org/1999/xlink" width="24px" height="24px" viewBox="0 0 24 24" version="1.1">
<g id="surface1">
<path style=" stroke:none;fill-rule:evenodd;fill:rgb(100%,100%,0%);fill-opacity:1;" d="M 10.363281 1.148438 C 10.445312 1.308594 10.769531 3.351562 10.839844 4.105469 L 10.890625 4.675781 L 9.808594 3.65625 C 9.214844 3.097656 8.679688 2.640625 8.621094 2.640625 C 8.566406 2.640625 8.644531 2.84375 8.804688 3.09375 C 9.121094 3.597656 9.792969 4.90625 9.960938 5.339844 C 10.046875 5.570312 9.902344 5.503906 9.144531 4.957031 C 8.308594 4.359375 7.320312 3.773438 7.320312 3.875 C 7.320312 3.898438 7.621094 4.292969 7.984375 4.75 C 8.714844 5.65625 9.816406 7.394531 9.574219 7.246094 C 9.488281 7.195312 9.175781 6.984375 8.878906 6.777344 C 8.164062 6.277344 7.441406 5.847656 7.441406 5.917969 C 7.441406 5.949219 7.636719 6.210938 7.875 6.5 C 8.789062 7.589844 9.914062 9.425781 10.308594 10.46875 C 10.421875 10.773438 10.394531 10.820312 9.882812 11.171875 L 9.335938 11.550781 L 9.957031 12.171875 L 10.378906 11.757812 C 10.613281 11.53125 10.78125 11.285156 10.753906 11.210938 C 10.722656 11.128906 10.84375 11.070312 11.058594 11.066406 C 11.332031 11.058594 11.386719 11.089844 11.292969 11.207031 C 11.199219 11.316406 11.285156 11.472656 11.617188 11.800781 L 12.070312 12.242188 L 12.535156 11.765625 C 12.925781 11.363281 12.972656 11.261719 12.84375 11.105469 C 12.671875 10.894531 12.839844 10.847656 13.042969 11.050781 C 13.136719 11.144531 13.195312 11.144531 13.253906 11.050781 C 13.296875 10.980469 13.390625 10.921875 13.460938 10.921875 C 13.539062 10.921875 13.527344 10.992188 13.433594 11.109375 C 13.300781 11.265625 13.347656 11.367188 13.753906 11.769531 L 14.230469 12.246094 L 14.777344 11.667969 L 14.289062 11.324219 C 13.917969 11.0625 13.804688 10.898438 13.800781 10.636719 C 13.796875 10.066406 14.492188 8.179688 15.234375 6.753906 C 15.671875 5.90625 15.859375 5.445312 15.730469 5.515625 C 15.617188 5.574219 15.140625 5.984375 14.664062 6.421875 C 14.1875 6.863281 13.800781 7.175781 13.800781 7.121094 C 13.804688 6.894531 14.285156 5.050781 14.515625 4.390625 C 14.648438 4 14.742188 3.660156 14.71875 3.636719 C 14.671875 3.589844 14.015625 4.378906 13.570312 5.015625 C 13.417969 5.234375 13.277344 5.398438 13.257812 5.378906 C 13.222656 5.339844 13.488281 3.265625 13.621094 2.519531 C 13.695312 2.113281 13.683594 2.125 13.277344 2.761719 C 13.042969 3.121094 12.734375 3.675781 12.585938 3.988281 C 12.4375 4.304688 12.28125 4.558594 12.234375 4.558594 C 12.183594 4.558594 12.109375 4.410156 12.066406 4.230469 C 11.9375 3.714844 10.945312 1.773438 10.605469 1.375 C 10.441406 1.179688 10.332031 1.078125 10.363281 1.148438 M 10.558594 11.941406 L 10.148438 12.363281 L 10.59375 12.808594 L 11.039062 13.257812 L 11.484375 12.808594 L 11.929688 12.363281 L 11.523438 11.941406 C 11.296875 11.710938 11.082031 11.519531 11.039062 11.519531 C 11 11.519531 10.78125 11.710938 10.558594 11.941406 M 12.597656 11.941406 L 12.1875 12.363281 L 13.148438 13.324219 L 13.617188 12.84375 L 14.085938 12.359375 L 13.679688 11.941406 C 13.457031 11.710938 13.214844 11.519531 13.140625 11.519531 C 13.066406 11.519531 12.824219 11.710938 12.597656 11.941406 M 8.769531 12.246094 L 8.394531 12.765625 L 8.636719 13.011719 L 8.882812 13.253906 L 9.328125 12.808594 L 9.773438 12.359375 L 9.144531 11.730469 L 8.769531 12.246094 M 14.578125 12.121094 C 14.363281 12.359375 14.367188 12.375 14.820312 12.839844 C 15.175781 13.203125 15.320312 13.28125 15.441406 13.183594 C 15.667969 12.996094 15.640625 12.851562 15.285156 12.335938 C 14.917969 11.808594 14.875 11.796875 14.578125 12.121094 M 11.605469 12.933594 L 11.160156 13.390625 L 11.640625 13.863281 L 12.125 14.332031 L 13.015625 13.441406 L 12.535156 12.957031 L 12.050781 12.476562 L 11.605469 12.933594 M 13.742188 12.957031 L 13.273438 13.4375 L 13.679688 13.859375 C 13.902344 14.089844 14.148438 14.28125 14.21875 14.28125 C 14.292969 14.28125 14.539062 14.089844 14.761719 13.859375 L 15.171875 13.433594 L 14.691406 12.957031 L 14.210938 12.476562 L 13.742188 12.957031 M 9.476562 13.023438 L 9.070312 13.445312 L 9.960938 14.335938 L 10.851562 13.445312 L 10.441406 13.023438 C 10.21875 12.789062 10 12.601562 9.960938 12.601562 C 9.917969 12.601562 9.703125 12.789062 9.476562 13.023438 M 8.03125 13.488281 C 7.691406 14.265625 7.78125 14.371094 8.316406 13.824219 C 8.765625 13.367188 8.765625 13.363281 8.523438 13.144531 C 8.285156 12.929688 8.277344 12.933594 8.03125 13.488281 M 15.535156 13.328125 C 15.460938 13.449219 16.070312 14.210938 16.167969 14.113281 C 16.234375 14.046875 15.808594 13.199219 15.703125 13.199219 C 15.65625 13.199219 15.578125 13.257812 15.535156 13.328125 M 8.457031 14.042969 L 7.988281 14.523438 L 8.433594 14.96875 L 8.878906 15.417969 L 9.84375 14.453125 L 9.386719 14.007812 L 8.929688 13.558594 L 8.457031 14.042969 M 10.527344 14.011719 L 10.078125 14.46875 L 10.5625 14.941406 L 11.042969 15.414062 L 11.488281 14.964844 L 11.9375 14.519531 L 11.453125 14.039062 L 10.972656 13.554688 L 10.527344 14.011719 M 12.6875 14.011719 L 12.238281 14.46875 L 12.722656 14.941406 L 13.203125 15.414062 L 13.648438 14.964844 L 14.097656 14.519531 L 13.613281 14.039062 L 13.132812 13.554688 L 12.6875 14.011719 M 14.820312 14.042969 L 14.347656 14.523438 L 15.242188 15.417969 L 15.722656 14.933594 L 16.203125 14.453125 L 15.746094 14.007812 L 15.289062 13.558594 L 14.820312 14.042969 M 7.632812 14.894531 C 7.382812 15.253906 7.378906 16.121094 7.628906 16.324219 C 7.785156 16.457031 7.886719 16.410156 8.289062 16.007812 L 8.765625 15.53125 L 7.828125 14.617188 L 7.632812 14.894531 M 9.503906 15.035156 C 9.292969 15.253906 9.121094 15.484375 9.121094 15.550781 C 9.121094 15.617188 9.308594 15.855469 9.539062 16.078125 L 9.960938 16.488281 L 10.378906 16.078125 C 10.609375 15.855469 10.800781 15.613281 10.800781 15.539062 C 10.800781 15.410156 10.070312 14.640625 9.949219 14.640625 C 9.914062 14.640625 9.714844 14.816406 9.503906 15.035156 M 11.605469 15.09375 L 11.160156 15.550781 L 11.640625 16.023438 L 12.125 16.492188 L 13.015625 15.601562 L 12.535156 15.117188 L 12.050781 14.636719 L 11.605469 15.09375 M 13.765625 15.09375 L 13.320312 15.550781 L 13.773438 15.996094 L 14.230469 16.441406 L 14.675781 15.984375 L 15.121094 15.53125 L 14.664062 15.085938 L 14.210938 14.640625 L 13.765625 15.09375 M 15.839844 15.179688 L 15.433594 15.601562 L 15.839844 16.019531 C 16.289062 16.484375 16.414062 16.527344 16.515625 16.257812 C 16.605469 16.027344 16.453125 14.761719 16.335938 14.761719 C 16.285156 14.761719 16.0625 14.949219 15.839844 15.179688 M 8.421875 16.117188 C 8.210938 16.332031 8.039062 16.566406 8.039062 16.632812 C 8.039062 16.699219 8.230469 16.9375 8.460938 17.160156 L 8.878906 17.566406 L 9.839844 16.628906 L 9.394531 16.175781 C 9.152344 15.925781 8.917969 15.71875 8.878906 15.71875 C 8.839844 15.71875 8.632812 15.898438 8.421875 16.117188 M 10.523438 16.175781 L 10.078125 16.628906 L 11.039062 17.566406 L 11.460938 17.160156 C 11.691406 16.9375 11.878906 16.691406 11.878906 16.621094 C 11.878906 16.492188 11.148438 15.71875 11.027344 15.71875 C 10.996094 15.71875 10.769531 15.925781 10.523438 16.175781 M 12.683594 16.175781 L 12.238281 16.628906 L 13.152344 17.519531 L 13.59375 17.066406 L 14.039062 16.609375 L 13.585938 16.164062 L 13.128906 15.71875 L 12.683594 16.175781 M 14.84375 16.175781 L 14.398438 16.628906 L 15.3125 17.519531 L 15.753906 17.066406 L 16.199219 16.609375 L 15.746094 16.164062 L 15.289062 15.71875 L 14.84375 16.175781 M 7.320312 16.632812 C 7.320312 16.902344 7.347656 16.925781 7.5 16.796875 C 7.640625 16.683594 7.648438 16.609375 7.546875 16.484375 C 7.355469 16.253906 7.320312 16.277344 7.320312 16.632812 M 7.515625 17.054688 C 7.304688 17.355469 7.382812 18.074219 7.65625 18.394531 C 7.832031 18.59375 7.867188 18.582031 8.300781 18.160156 L 8.761719 17.710938 L 8.316406 17.253906 C 8.070312 17.003906 7.832031 16.800781 7.78125 16.800781 C 7.734375 16.800781 7.613281 16.914062 7.515625 17.054688 M 9.503906 17.195312 C 9.292969 17.414062 9.121094 17.644531 9.121094 17.710938 C 9.121094 17.777344 9.308594 18.015625 9.539062 18.242188 L 9.960938 18.648438 L 10.921875 17.710938 L 10.476562 17.253906 C 10.230469 17.003906 10 16.800781 9.960938 16.800781 C 9.917969 16.800781 9.714844 16.976562 9.503906 17.195312 M 11.605469 17.253906 L 11.160156 17.710938 L 11.613281 18.15625 L 12.070312 18.601562 L 13.007812 17.640625 L 12.601562 17.21875 C 12.375 16.988281 12.160156 16.800781 12.121094 16.800781 C 12.082031 16.800781 11.847656 17.003906 11.605469 17.253906 M 13.765625 17.253906 L 13.320312 17.710938 L 13.773438 18.15625 L 14.230469 18.601562 L 15.121094 17.6875 L 14.664062 17.246094 L 14.210938 16.800781 L 13.765625 17.253906 M 15.839844 17.222656 L 15.429688 17.644531 L 16.421875 18.636719 L 16.5 18.222656 C 16.601562 17.675781 16.53125 16.890625 16.375 16.835938 C 16.304688 16.816406 16.066406 16.988281 15.839844 17.222656 M 8.398438 18.300781 L 7.992188 18.722656 L 8.460938 19.199219 L 8.929688 19.679688 L 9.386719 19.234375 L 9.839844 18.789062 L 9.394531 18.335938 C 9.152344 18.085938 8.917969 17.878906 8.878906 17.878906 C 8.839844 17.878906 8.625 18.070312 8.398438 18.300781 M 10.523438 18.335938 L 10.078125 18.789062 L 10.535156 19.234375 C 10.785156 19.480469 11.019531 19.679688 11.054688 19.679688 C 11.089844 19.679688 11.296875 19.460938 11.511719 19.191406 L 11.90625 18.699219 L 11.511719 18.289062 C 11.292969 18.0625 11.082031 17.878906 11.039062 17.878906 C 11 17.878906 10.769531 18.085938 10.523438 18.335938 M 12.683594 18.335938 L 12.238281 18.789062 L 13.152344 19.679688 L 13.621094 19.199219 L 14.085938 18.722656 L 13.679688 18.300781 C 13.457031 18.070312 13.242188 17.878906 13.199219 17.878906 C 13.160156 17.878906 12.929688 18.085938 12.683594 18.335938 M 14.757812 18.300781 L 14.351562 18.722656 L 14.820312 19.199219 L 15.289062 19.679688 L 15.746094 19.234375 L 16.199219 18.789062 L 15.757812 18.335938 C 15.511719 18.085938 15.277344 17.878906 15.238281 17.878906 C 15.199219 17.878906 14.984375 18.070312 14.757812 18.300781 M 7.683594 19.109375 C 7.6875 19.355469 8.140625 20.28125 8.253906 20.28125 C 8.316406 20.28125 8.453125 20.183594 8.558594 20.0625 C 8.746094 19.859375 8.726562 19.816406 8.304688 19.402344 C 7.824219 18.933594 7.679688 18.867188 7.683594 19.109375 M 9.476562 19.382812 L 9.070312 19.804688 L 9.960938 20.695312 L 10.851562 19.804688 L 10.441406 19.382812 C 10.21875 19.148438 10 18.960938 9.960938 18.960938 C 9.917969 18.960938 9.703125 19.148438 9.476562 19.382812 M 11.605469 19.414062 L 11.160156 19.871094 L 11.613281 20.316406 L 12.070312 20.761719 L 13.007812 19.800781 L 12.601562 19.378906 C 12.375 19.148438 12.160156 18.960938 12.121094 18.960938 C 12.082031 18.960938 11.847656 19.164062 11.605469 19.414062 M 13.675781 19.382812 L 13.269531 19.804688 L 13.746094 20.285156 L 14.226562 20.765625 L 14.699219 20.28125 L 15.167969 19.800781 L 14.761719 19.378906 C 14.535156 19.148438 14.292969 18.960938 14.21875 18.960938 C 14.148438 18.960938 13.902344 19.148438 13.675781 19.382812 M 15.84375 19.375 C 15.507812 19.726562 15.46875 19.820312 15.597656 19.976562 C 15.679688 20.078125 15.785156 20.160156 15.828125 20.160156 C 15.917969 20.160156 16.347656 19.066406 16.28125 19.003906 C 16.261719 18.980469 16.0625 19.148438 15.84375 19.375 M 8.539062 20.320312 L 8.277344 20.597656 L 8.648438 21.113281 L 9.023438 21.632812 L 9.398438 21.257812 L 9.769531 20.882812 L 9.363281 20.460938 C 9.136719 20.230469 8.917969 20.039062 8.878906 20.039062 C 8.835938 20.039062 8.683594 20.164062 8.539062 20.320312 M 10.558594 20.460938 L 10.148438 20.882812 L 10.59375 21.332031 L 11.039062 21.777344 L 11.484375 21.332031 L 11.929688 20.882812 L 11.523438 20.460938 C 11.296875 20.230469 11.082031 20.039062 11.039062 20.039062 C 11 20.039062 10.78125 20.230469 10.558594 20.460938 M 12.597656 20.460938 L 12.1875 20.886719 L 12.667969 21.363281 L 13.148438 21.84375 L 13.617188 21.363281 L 14.085938 20.878906 L 13.679688 20.460938 C 13.457031 20.230469 13.214844 20.039062 13.140625 20.039062 C 13.066406 20.039062 12.824219 20.230469 12.597656 20.460938 M 14.757812 20.460938 L 14.347656 20.882812 L 15.011719 21.539062 L 15.238281 21.238281 C 15.6875 20.65625 15.769531 20.425781 15.601562 20.222656 C 15.375 19.949219 15.210938 19.996094 14.757812 20.460938 M 13.742188 21.476562 C 13.285156 21.945312 13.28125 21.957031 13.496094 22.195312 C 13.800781 22.53125 13.972656 22.503906 14.46875 22.050781 L 14.894531 21.660156 L 14.550781 21.332031 L 14.207031 21 L 13.742188 21.476562 M 9.554688 21.464844 L 9.222656 21.808594 L 9.679688 22.183594 C 9.929688 22.390625 10.167969 22.558594 10.207031 22.558594 C 10.246094 22.558594 10.40625 22.425781 10.5625 22.257812 L 10.84375 21.957031 L 10.4375 21.539062 C 10.214844 21.308594 10 21.121094 9.957031 21.121094 C 9.917969 21.121094 9.734375 21.273438 9.554688 21.464844 M 11.542969 21.515625 L 11.160156 21.910156 L 11.640625 22.382812 L 12.125 22.851562 L 13.011719 21.964844 L 12.601562 21.542969 C 12.378906 21.308594 12.132812 21.121094 12.058594 21.121094 C 11.988281 21.121094 11.753906 21.296875 11.542969 21.515625 M 12.652344 22.574219 L 12.179688 23.066406 L 12.601562 22.980469 C 12.832031 22.929688 13.171875 22.832031 13.359375 22.753906 L 13.699219 22.621094 L 13.414062 22.351562 L 13.125 22.082031 L 12.652344 22.574219 M 10.621094 22.4375 C 10.414062 22.667969 10.417969 22.679688 10.753906 22.808594 C 10.945312 22.882812 11.289062 22.96875 11.519531 23.007812 L 11.941406 23.070312 L 11.527344 22.636719 C 11.050781 22.136719 10.921875 22.105469 10.621094 22.4375 "/>
</g>
</svg>
