<?xml version="1.0" encoding="UTF-8"?>
<svg xmlns="http://www.w3.org/2000/svg" xmlns:xlink="http://www.w3.org/1999/xlink" width="24px" height="24px" viewBox="0 0 24 24" version="1.1">
<g id="surface1">
<path style=" stroke:none;fill-rule:evenodd;fill:rgb(0%,0%,0%);fill-opacity:1;" d="M 19.859375 1.722656 C 19.53125 1.808594 18.53125 2.207031 17.640625 2.609375 C 15.117188 3.75 13.777344 4.109375 11.28125 4.316406 C 9.40625 4.46875 8.257812 4.75 6.890625 5.390625 C 3.519531 6.972656 1.011719 9.8125 0.226562 12.953125 C -0.0703125 14.136719 -0.0429688 15.53125 0.296875 16.5 C 0.597656 17.355469 1.273438 18.324219 1.910156 18.808594 C 4.523438 20.796875 5.761719 21.511719 7.507812 22.023438 C 8.757812 22.390625 10.554688 22.472656 11.640625 22.210938 C 13.847656 21.675781 16.371094 19.742188 17.996094 17.339844 C 18.832031 16.105469 19.371094 14.972656 20.351562 12.378906 C 21.390625 9.636719 21.882812 8.710938 22.816406 7.734375 C 23.945312 6.554688 24.210938 5.667969 23.820312 4.355469 C 23.554688 3.46875 22.757812 2.335938 22.140625 1.972656 C 21.515625 1.605469 20.667969 1.511719 19.859375 1.722656 M 19.980469 2.726562 C 19.847656 2.757812 19.050781 3.105469 18.203125 3.492188 C 15.671875 4.664062 12.816406 5.390625 10.730469 5.398438 C 9.140625 5.402344 6.550781 6.484375 4.835938 7.859375 C 3.128906 9.226562 1.921875 10.902344 1.363281 12.691406 C 1.09375 13.542969 1.058594 13.839844 1.101562 14.847656 C 1.144531 15.902344 1.191406 16.097656 1.558594 16.78125 C 2.992188 19.460938 7.0625 19.933594 10.902344 17.871094 C 12.59375 16.960938 13.597656 15.980469 16.523438 12.359375 C 17.882812 10.683594 19.488281 9.082031 21.34375 7.5625 C 22.023438 7.003906 22.667969 6.382812 22.769531 6.183594 C 23.199219 5.351562 22.769531 3.914062 21.835938 3.070312 C 21.421875 2.695312 21.285156 2.640625 20.789062 2.652344 C 20.476562 2.660156 20.113281 2.695312 19.980469 2.726562 M 9.832031 7.449219 C 8.066406 7.703125 6.253906 8.914062 5.160156 10.5625 C 4.058594 12.21875 4.148438 14.164062 5.367188 15.238281 C 7.535156 17.148438 11.9375 15.601562 13.535156 12.371094 C 13.933594 11.566406 13.976562 11.382812 13.976562 10.507812 C 13.980469 9.660156 13.9375 9.46875 13.640625 8.964844 C 12.929688 7.753906 11.542969 7.203125 9.832031 7.449219 M 9.480469 8.566406 C 7.40625 9.167969 5.617188 11.027344 5.4375 12.765625 C 5.160156 15.457031 8.910156 15.878906 11.449219 13.441406 C 11.863281 13.042969 12.359375 12.433594 12.550781 12.089844 C 12.847656 11.554688 12.898438 11.328125 12.898438 10.558594 C 12.898438 9.507812 12.660156 9.050781 11.914062 8.691406 C 11.347656 8.417969 10.191406 8.359375 9.480469 8.566406 M 19.070312 11.011719 C 18.515625 11.589844 17.402344 12.875 16.597656 13.871094 C 14.007812 17.070312 12.847656 18.105469 10.753906 19.089844 C 9.472656 19.6875 8.128906 20.046875 6.789062 20.148438 L 5.699219 20.230469 L 6.421875 20.566406 C 8.046875 21.320312 9.976562 21.554688 11.464844 21.179688 C 13.84375 20.578125 16.449219 18.28125 17.921875 15.488281 C 18.417969 14.546875 20.199219 10.082031 20.113281 9.992188 C 20.097656 9.976562 19.625 10.433594 19.070312 11.011719 "/>
</g>
</svg>
