<?xml version="1.0" encoding="UTF-8"?>
<svg xmlns="http://www.w3.org/2000/svg" xmlns:xlink="http://www.w3.org/1999/xlink" width="24px" height="24px" viewBox="0 0 24 24" version="1.1">
<g id="surface1">
<path style=" stroke:none;fill-rule:evenodd;fill:rgb(0%,50.196081%,0%);fill-opacity:1;" d="M 8.101562 4.542969 C 7.074219 5.011719 6.261719 6.3125 5.71875 8.355469 C 4.875 11.519531 5.078125 13.484375 6.390625 14.796875 C 7.074219 15.480469 8 15.832031 9.355469 15.925781 C 10.273438 15.984375 10.4375 16.035156 10.9375 16.398438 C 12.488281 17.523438 14.011719 17.773438 15.214844 17.105469 C 16.28125 16.515625 17.050781 15.175781 17.625 12.898438 C 17.929688 11.679688 18.238281 9.585938 18.238281 8.726562 C 18.238281 8.121094 18.207031 8.035156 17.816406 7.691406 C 17.285156 7.226562 16.660156 6.960938 16.09375 6.960938 C 15.601562 6.960938 14.503906 7.445312 13.476562 8.121094 C 13.09375 8.375 12.714844 8.621094 12.636719 8.671875 C 12.535156 8.738281 12.417969 8.519531 12.25 7.953125 C 11.707031 6.136719 10.792969 4.78125 9.886719 4.433594 C 9.414062 4.253906 8.625 4.304688 8.101562 4.542969 M 7.679688 5.941406 C 7.679688 6.039062 7.785156 6.121094 7.921875 6.121094 C 8.054688 6.121094 8.160156 6.039062 8.160156 5.941406 C 8.160156 5.839844 8.054688 5.761719 7.921875 5.761719 C 7.785156 5.761719 7.679688 5.839844 7.679688 5.941406 M 15.261719 7.800781 C 13.378906 8.6875 11.1875 10.660156 10.460938 12.113281 C 10.164062 12.710938 10.078125 13.03125 10.078125 13.582031 C 10.078125 14.464844 10.28125 14.953125 10.933594 15.660156 C 11.769531 16.566406 12.347656 16.839844 13.550781 16.894531 C 14.460938 16.933594 14.644531 16.90625 15.121094 16.652344 C 16.414062 15.957031 17.144531 14.089844 17.710938 10.019531 C 17.90625 8.613281 17.90625 8.519531 17.710938 8.21875 C 17.492188 7.886719 16.671875 7.445312 16.261719 7.441406 C 16.128906 7.441406 15.679688 7.601562 15.261719 7.800781 M 8.421875 7.867188 C 8.476562 8.128906 8.6875 8.144531 8.738281 7.890625 C 8.761719 7.757812 8.703125 7.679688 8.578125 7.679688 C 8.464844 7.679688 8.398438 7.757812 8.421875 7.867188 M 7.320312 8.160156 C 7.320312 8.226562 7.378906 8.28125 7.445312 8.28125 C 7.515625 8.28125 7.539062 8.226562 7.5 8.160156 C 7.460938 8.09375 7.402344 8.039062 7.371094 8.039062 C 7.34375 8.039062 7.320312 8.09375 7.320312 8.160156 M 7.097656 9.75 C 7.003906 9.84375 7.003906 9.925781 7.089844 10.035156 C 7.238281 10.214844 7.558594 10.121094 7.558594 9.898438 C 7.558594 9.6875 7.257812 9.589844 7.097656 9.75 M 12.507812 11.480469 C 10.628906 12.40625 11.125 15.253906 13.199219 15.453125 C 13.980469 15.527344 14.308594 15.429688 14.835938 14.96875 C 16.015625 13.933594 15.789062 12.1875 14.375 11.449219 C 13.945312 11.222656 12.996094 11.238281 12.507812 11.480469 "/>
</g>
</svg>
