<?xml version="1.0" encoding="UTF-8"?>
<svg xmlns="http://www.w3.org/2000/svg" xmlns:xlink="http://www.w3.org/1999/xlink" width="100px" height="100px" viewBox="0 0 100 100" version="1.1">
<g id="surface1">
<path style=" stroke:none;fill-rule:evenodd;fill:rgb(0%,50.196081%,0%);fill-opacity:1;" d="M 33.75 18.933594 C 29.480469 20.878906 26.085938 26.304688 23.820312 34.816406 C 20.308594 48.007812 21.164062 56.191406 26.632812 61.65625 C 29.476562 64.503906 33.339844 65.972656 38.976562 66.351562 C 42.804688 66.609375 43.492188 66.816406 45.570312 68.324219 C 52.035156 73.011719 58.378906 74.0625 63.402344 71.28125 C 67.84375 68.820312 71.042969 63.230469 73.429688 53.75 C 74.710938 48.671875 76 39.945312 76 36.363281 C 76 33.828125 75.855469 33.476562 74.230469 32.050781 C 72.019531 30.109375 69.414062 29 67.0625 29 C 65 29 60.441406 31.023438 56.160156 33.835938 C 54.558594 34.890625 52.980469 35.925781 52.648438 36.136719 C 52.230469 36.40625 51.742188 35.503906 51.035156 33.136719 C 48.773438 25.570312 44.976562 19.917969 41.191406 18.476562 C 39.230469 17.734375 35.945312 17.933594 33.75 18.933594 M 32 24.75 C 32 25.167969 32.445312 25.5 33 25.5 C 33.554688 25.5 34 25.167969 34 24.75 C 34 24.332031 33.554688 24 33 24 C 32.445312 24 32 24.332031 32 24.75 M 63.585938 32.496094 C 55.753906 36.203125 46.621094 44.414062 43.59375 50.46875 C 42.34375 52.96875 42 54.296875 42 56.597656 C 42 60.261719 42.839844 62.304688 45.558594 65.253906 C 49.039062 69.035156 51.449219 70.167969 56.464844 70.390625 C 60.25 70.5625 61.011719 70.441406 63 69.378906 C 68.398438 66.488281 71.441406 58.699219 73.796875 41.753906 C 74.613281 35.886719 74.613281 35.5 73.789062 34.242188 C 72.882812 32.855469 69.46875 31.03125 67.75 31.011719 C 67.199219 31.003906 65.324219 31.675781 63.585938 32.496094 M 35.089844 32.777344 C 35.316406 33.863281 36.203125 33.929688 36.40625 32.875 C 36.511719 32.328125 36.265625 32 35.75 32 C 35.269531 32 34.992188 32.324219 35.089844 32.777344 M 30.5 34 C 30.5 34.273438 30.738281 34.5 31.03125 34.5 C 31.320312 34.5 31.421875 34.273438 31.25 34 C 31.078125 33.726562 30.84375 33.5 30.71875 33.5 C 30.597656 33.5 30.5 33.726562 30.5 34 M 29.574219 40.628906 C 29.1875 41.011719 29.179688 41.367188 29.546875 41.808594 C 30.167969 42.554688 31.5 42.171875 31.5 41.25 C 31.5 40.363281 30.242188 39.957031 29.574219 40.628906 M 52.113281 47.832031 C 44.289062 51.683594 46.355469 63.554688 54.992188 64.386719 C 58.257812 64.699219 59.625 64.296875 61.816406 62.375 C 66.734375 58.058594 65.78125 50.777344 59.898438 47.707031 C 58.101562 46.765625 54.140625 46.828125 52.113281 47.832031 "/>
</g>
</svg>
