<?xml version="1.0" encoding="UTF-8"?>
<svg xmlns="http://www.w3.org/2000/svg" xmlns:xlink="http://www.w3.org/1999/xlink" width="24px" height="24px" viewBox="0 0 24 24" version="1.1">
<g id="surface1">
<path style=" stroke:none;fill-rule:evenodd;fill:rgb(100%,100%,0%);fill-opacity:1;" d="M 9.789062 0.464844 C 9.542969 0.933594 9.15625 2.363281 9.058594 3.152344 L 8.976562 3.796875 L 8.320312 3.15625 C 7.554688 2.410156 6.515625 1.679688 6.210938 1.679688 C 6.078125 1.679688 6 1.769531 6 1.933594 C 6 2.144531 6.484375 3.714844 6.789062 4.488281 C 6.878906 4.710938 6.871094 4.710938 6.5 4.492188 C 6.199219 4.316406 6.09375 4.300781 5.972656 4.417969 C 5.761719 4.632812 6.117188 5.914062 6.753906 7.21875 L 7.261719 8.257812 L 6.859375 8.472656 C 6.21875 8.816406 5.210938 9.996094 4.898438 10.765625 C 4.625 11.445312 4.621094 11.542969 4.640625 15.03125 C 4.667969 18.902344 4.734375 19.417969 5.371094 20.5 C 6.085938 21.722656 7.539062 22.75 8.972656 23.046875 C 9.914062 23.242188 11.191406 23.125 12.082031 22.765625 L 12.8125 22.46875 L 13.511719 23.171875 L 14.210938 23.878906 L 18.183594 23.878906 L 19.652344 22.410156 L 21.121094 20.9375 L 21.121094 16.976562 L 18.175781 14.039062 L 15.507812 14.039062 L 15.457031 12.628906 C 15.414062 11.515625 15.347656 11.097656 15.140625 10.628906 C 14.800781 9.867188 14.160156 9.09375 13.5 8.640625 L 12.976562 8.277344 L 13.5 7.167969 C 14.109375 5.871094 14.476562 4.589844 14.289062 4.402344 C 14.175781 4.289062 14.085938 4.3125 13.421875 4.652344 C 13.378906 4.675781 13.472656 4.375 13.628906 3.988281 C 13.980469 3.109375 14.296875 1.921875 14.210938 1.785156 C 14.023438 1.480469 13.226562 1.945312 12.007812 3.070312 L 11.292969 3.734375 L 11.214844 3.277344 C 10.917969 1.558594 10.425781 0.121094 10.128906 0.121094 C 10.039062 0.121094 9.886719 0.277344 9.789062 0.464844 M 9.917969 1.789062 C 9.808594 2.144531 9.667969 2.886719 9.597656 3.4375 C 9.476562 4.414062 9.480469 4.445312 9.792969 4.921875 L 10.113281 5.40625 L 10.398438 4.988281 C 10.738281 4.488281 10.761719 3.867188 10.492188 2.570312 C 10.191406 1.097656 10.140625 1.03125 9.917969 1.789062 M 6.953125 3.277344 C 7.359375 4.464844 8.042969 5.621094 8.886719 6.550781 L 9.332031 7.042969 L 9.578125 6.535156 L 9.820312 6.03125 L 9.328125 5.265625 C 8.855469 4.53125 7.0625 2.640625 6.839844 2.640625 C 6.78125 2.640625 6.832031 2.925781 6.953125 3.277344 M 12.429688 3.488281 C 11.925781 3.964844 11.273438 4.71875 10.976562 5.164062 C 10.417969 6.003906 9.839844 7.195312 9.839844 7.503906 C 9.839844 7.761719 10.523438 7.734375 10.664062 7.46875 C 10.726562 7.355469 11.105469 6.855469 11.511719 6.363281 C 12.460938 5.195312 13.632812 2.914062 13.402344 2.683594 C 13.367188 2.648438 12.929688 3.011719 12.429688 3.488281 M 6.65625 5.535156 C 6.699219 5.691406 6.96875 6.3125 7.253906 6.914062 L 7.773438 8.007812 L 8.332031 7.867188 C 8.640625 7.789062 8.898438 7.683594 8.902344 7.628906 C 8.921875 7.460938 7.996094 6.363281 7.441406 5.898438 C 6.652344 5.238281 6.558594 5.195312 6.65625 5.535156 M 12.347656 6.367188 C 11.761719 6.964844 11.28125 7.527344 11.28125 7.613281 C 11.28125 7.703125 11.472656 7.808594 11.707031 7.855469 C 11.945312 7.898438 12.207031 7.960938 12.292969 7.992188 C 12.394531 8.03125 12.621094 7.699219 12.941406 7.058594 C 13.425781 6.078125 13.675781 5.28125 13.5 5.28125 C 13.453125 5.28125 12.933594 5.769531 12.347656 6.367188 M 8.257812 8.46875 C 7.945312 8.566406 7.664062 8.6875 7.628906 8.742188 C 7.597656 8.796875 7.757812 9.023438 7.988281 9.246094 L 8.40625 9.652344 L 9.089844 8.964844 L 9.777344 8.28125 L 9.296875 8.289062 C 9.035156 8.292969 8.566406 8.375 8.257812 8.46875 M 11.160156 8.9375 L 11.808594 9.597656 L 12.207031 9.214844 C 12.421875 9.003906 12.558594 8.792969 12.511719 8.746094 C 12.371094 8.613281 11.152344 8.28125 10.8125 8.28125 C 10.527344 8.28125 10.550781 8.324219 11.160156 8.9375 M 9.417969 9.242188 L 8.703125 9.960938 L 9.394531 10.648438 L 10.082031 11.335938 L 11.523438 9.894531 L 10.132812 8.519531 L 9.417969 9.242188 M 6.367188 9.605469 C 6.03125 9.9375 5.761719 10.25 5.761719 10.300781 C 5.761719 10.351562 5.976562 10.601562 6.242188 10.859375 L 6.722656 11.332031 L 8.160156 9.910156 L 7.714844 9.453125 C 7.472656 9.203125 7.203125 9 7.121094 9 C 7.039062 9 6.699219 9.273438 6.367188 9.605469 M 12.558594 9.460938 L 12.121094 9.910156 L 12.839844 10.621094 L 13.558594 11.328125 L 13.980469 10.921875 C 14.210938 10.695312 14.398438 10.476562 14.398438 10.433594 C 14.398438 10.304688 13.433594 9.246094 13.207031 9.125 C 13.042969 9.035156 12.902344 9.109375 12.558594 9.460938 M 7.738281 10.921875 L 7.023438 11.640625 L 8.398438 13.015625 L 9.121094 12.296875 L 9.84375 11.574219 L 8.453125 10.199219 L 7.738281 10.921875 M 11.101562 10.917969 L 10.386719 11.640625 L 11.039062 12.300781 C 11.398438 12.664062 11.75 12.960938 11.820312 12.960938 C 11.890625 12.960938 12.242188 12.664062 12.601562 12.296875 L 13.253906 11.636719 L 11.816406 10.199219 L 11.101562 10.917969 M 5.402344 11.09375 C 5.332031 11.28125 5.242188 11.765625 5.203125 12.167969 L 5.132812 12.898438 L 5.773438 12.269531 L 6.417969 11.640625 L 5.972656 11.199219 L 5.53125 10.753906 L 5.402344 11.09375 M 14.1875 11.191406 L 13.800781 11.589844 L 14.339844 12.121094 L 14.878906 12.648438 L 14.871094 12.113281 C 14.867188 11.820312 14.796875 11.402344 14.71875 11.1875 L 14.574219 10.789062 L 14.1875 11.191406 M 9.421875 12.597656 L 8.707031 13.320312 L 9.421875 14.042969 L 10.136719 14.761719 L 11.578125 13.320312 L 10.136719 11.878906 L 9.421875 12.597656 M 12.78125 12.597656 L 12.066406 13.320312 L 12.78125 14.042969 L 13.496094 14.761719 L 14.9375 13.320312 L 13.496094 11.878906 L 12.78125 12.597656 M 5.964844 12.695312 L 5.28125 13.386719 L 5.972656 14.074219 L 6.667969 14.761719 L 7.378906 14.039062 L 8.09375 13.320312 L 7.441406 12.660156 C 7.082031 12.296875 6.757812 12 6.71875 12 C 6.683594 12 6.34375 12.3125 5.964844 12.695312 M 11.101562 14.277344 L 10.386719 15 L 11.101562 15.722656 L 11.816406 16.441406 L 13.257812 15 L 11.816406 13.558594 L 11.101562 14.277344 M 7.644531 14.375 L 6.960938 15.066406 L 7.679688 15.78125 L 8.398438 16.492188 L 9.121094 15.78125 L 9.839844 15.066406 L 9.152344 14.375 C 8.777344 13.992188 8.4375 13.679688 8.398438 13.679688 C 8.363281 13.679688 8.023438 13.992188 7.644531 14.375 M 5.160156 15.089844 L 5.160156 16.257812 L 5.785156 15.628906 L 6.414062 15.003906 L 5.882812 14.460938 C 5.589844 14.164062 5.308594 13.921875 5.253906 13.921875 C 5.203125 13.921875 5.160156 14.445312 5.160156 15.089844 M 13.109375 15.871094 L 11.878906 17.105469 L 11.878906 20.824219 L 13.113281 22.050781 L 14.34375 23.28125 L 18.054688 23.28125 L 19.289062 22.050781 L 20.519531 20.824219 L 20.519531 17.214844 L 19.226562 15.929688 L 17.9375 14.640625 L 14.335938 14.640625 L 13.109375 15.871094 M 5.964844 16.054688 L 5.28125 16.746094 L 6 17.460938 L 6.71875 18.171875 L 7.378906 17.519531 C 7.742188 17.160156 8.039062 16.8125 8.039062 16.738281 C 8.039062 16.617188 6.832031 15.359375 6.710938 15.359375 C 6.679688 15.359375 6.34375 15.671875 5.964844 16.054688 M 9.324219 16.054688 L 8.640625 16.746094 L 9.359375 17.460938 L 10.078125 18.171875 L 10.800781 17.460938 L 11.519531 16.746094 L 10.832031 16.054688 C 10.457031 15.671875 10.117188 15.359375 10.078125 15.359375 C 10.042969 15.359375 9.703125 15.671875 9.324219 16.054688 M 7.621094 17.761719 L 6.90625 18.480469 L 7.558594 19.140625 C 7.917969 19.503906 8.269531 19.800781 8.339844 19.800781 C 8.5 19.800781 9.71875 18.574219 9.71875 18.410156 C 9.71875 18.292969 8.507812 17.039062 8.390625 17.039062 C 8.359375 17.039062 8.011719 17.363281 7.621094 17.761719 M 15.671875 17.28125 C 15.199219 17.429688 14.671875 17.957031 14.511719 18.449219 C 14.121094 19.632812 15.277344 20.9375 16.511719 20.707031 C 17.398438 20.539062 18.125 19.472656 17.925781 18.632812 C 17.835938 18.242188 17.359375 17.570312 17.0625 17.414062 C 16.722656 17.230469 16.042969 17.164062 15.671875 17.28125 M 5.214844 18 C 5.308594 18.933594 5.398438 19.320312 5.507812 19.320312 C 5.554688 19.320312 5.777344 19.128906 6.003906 18.898438 L 6.410156 18.476562 L 5.773438 17.847656 L 5.132812 17.21875 L 5.214844 18 M 10.765625 17.976562 L 10.320312 18.429688 L 11.28125 19.367188 L 11.28125 18.445312 C 11.28125 17.9375 11.265625 17.519531 11.246094 17.519531 C 11.226562 17.519531 11.007812 17.726562 10.765625 17.976562 M 15.613281 17.925781 C 14.527344 18.527344 15.015625 20.160156 16.277344 20.160156 C 16.46875 20.160156 16.742188 20 17.007812 19.738281 C 17.382812 19.363281 17.421875 19.261719 17.359375 18.867188 C 17.222656 18.007812 16.332031 17.527344 15.613281 17.925781 M 6.128906 19.25 L 5.605469 19.785156 L 5.984375 20.375 C 6.191406 20.699219 6.472656 21.066406 6.605469 21.1875 C 6.847656 21.402344 6.863281 21.394531 7.472656 20.785156 L 8.097656 20.160156 L 6.652344 18.714844 L 6.128906 19.25 M 9.300781 19.441406 L 8.585938 20.160156 L 9.238281 20.820312 C 9.597656 21.183594 9.949219 21.480469 10.019531 21.480469 C 10.246094 21.480469 11.28125 20.339844 11.28125 20.089844 C 11.28125 19.886719 10.25 18.71875 10.070312 18.71875 C 10.039062 18.71875 9.691406 19.042969 9.300781 19.441406 M 7.765625 20.972656 C 7.457031 21.289062 7.199219 21.589844 7.199219 21.640625 C 7.199219 21.773438 8.65625 22.441406 8.949219 22.441406 C 9.085938 22.441406 9.328125 22.304688 9.484375 22.136719 L 9.769531 21.832031 L 8.335938 20.398438 L 7.765625 20.972656 M 10.761719 21.457031 L 10.316406 21.914062 L 10.59375 22.175781 C 10.75 22.320312 10.996094 22.441406 11.140625 22.441406 C 11.476562 22.441406 12.238281 22.125 12.238281 21.992188 C 12.238281 21.882812 11.375 21 11.269531 21 C 11.234375 21 11.007812 21.207031 10.761719 21.457031 M 9.839844 22.378906 C 9.710938 22.535156 9.746094 22.558594 10.078125 22.558594 C 10.414062 22.558594 10.449219 22.535156 10.320312 22.378906 C 10.238281 22.28125 10.128906 22.199219 10.078125 22.199219 C 10.03125 22.199219 9.921875 22.28125 9.839844 22.378906 "/>
</g>
</svg>
