<?xml version="1.0" encoding="UTF-8"?>
<svg xmlns="http://www.w3.org/2000/svg" xmlns:xlink="http://www.w3.org/1999/xlink" width="100px" height="100px" viewBox="0 0 100 100" version="1.1">
<g id="surface1">
<path style=" stroke:none;fill-rule:evenodd;fill:rgb(0%,0%,0%);fill-opacity:1;" d="M 43.1875 4.785156 C 43.515625 5.457031 44.875 13.964844 45.160156 17.113281 L 45.375 19.476562 L 40.871094 15.238281 C 38.398438 12.90625 36.171875 11 35.929688 11 C 35.6875 11 36.027344 11.851562 36.683594 12.894531 C 38.007812 14.992188 40.808594 20.4375 41.5 22.25 C 41.863281 23.210938 41.261719 22.925781 38.097656 20.65625 C 34.617188 18.15625 30.5 15.714844 30.5 16.152344 C 30.5 16.246094 31.75 17.878906 33.277344 19.785156 C 36.308594 23.570312 40.90625 30.804688 39.886719 30.1875 C 39.535156 29.976562 38.238281 29.097656 37 28.234375 C 34.023438 26.15625 31 24.359375 31 24.660156 C 31 24.796875 31.816406 25.882812 32.816406 27.078125 C 36.617188 31.621094 41.304688 39.269531 42.949219 43.613281 C 43.433594 44.886719 43.316406 45.078125 41.179688 46.546875 L 38.894531 48.121094 L 40.1875 49.417969 L 41.484375 50.710938 L 43.253906 48.996094 C 44.226562 48.054688 44.925781 47.027344 44.804688 46.714844 C 44.675781 46.378906 45.1875 46.132812 46.078125 46.109375 C 47.222656 46.074219 47.445312 46.210938 47.046875 46.695312 C 46.660156 47.15625 47.019531 47.804688 48.410156 49.160156 L 50.292969 51.003906 L 52.226562 49.023438 C 53.859375 47.351562 54.058594 46.925781 53.519531 46.273438 C 52.796875 45.402344 53.503906 45.203125 54.34375 46.042969 C 54.734375 46.433594 54.980469 46.433594 55.222656 46.042969 C 55.40625 45.746094 55.796875 45.5 56.089844 45.5 C 56.417969 45.5 56.371094 45.800781 55.972656 46.28125 C 55.421875 46.945312 55.621094 47.355469 57.3125 49.046875 L 59.296875 51.03125 L 60.433594 49.824219 L 61.566406 48.613281 L 59.542969 47.183594 C 57.996094 46.085938 57.519531 45.414062 57.511719 44.324219 C 57.492188 41.945312 60.390625 34.082031 63.472656 28.136719 C 65.304688 24.609375 66.074219 22.691406 65.542969 22.976562 C 65.078125 23.226562 63.078125 24.929688 61.097656 26.761719 C 59.121094 28.59375 57.5 29.902344 57.503906 29.671875 C 57.511719 28.726562 59.515625 21.050781 60.472656 18.292969 C 61.039062 16.667969 61.421875 15.253906 61.320312 15.15625 C 61.125 14.960938 58.398438 18.242188 56.542969 20.902344 C 55.910156 21.8125 55.328125 22.488281 55.25 22.402344 C 55.101562 22.246094 56.199219 13.597656 56.761719 10.5 C 57.066406 8.8125 57.015625 8.847656 55.316406 11.5 C 54.347656 13.011719 53.054688 15.320312 52.441406 16.625 C 51.828125 17.929688 51.167969 19 50.96875 19 C 50.769531 19 50.457031 18.382812 50.269531 17.625 C 49.742188 15.484375 45.605469 7.386719 44.195312 5.734375 C 43.496094 4.917969 43.042969 4.492188 43.1875 4.785156 M 43.992188 49.757812 L 42.285156 51.519531 L 44.144531 53.375 L 46 55.234375 L 47.855469 53.375 L 49.714844 51.519531 L 48.007812 49.757812 C 47.070312 48.792969 46.167969 48 46 48 C 45.832031 48 44.929688 48.792969 43.992188 49.757812 M 52.492188 49.761719 L 50.785156 51.519531 L 52.78125 53.519531 L 54.78125 55.515625 L 56.742188 53.511719 L 58.699219 51.503906 L 57 49.75 C 56.066406 48.789062 55.054688 48 54.75 48 C 54.445312 48 53.429688 48.792969 52.492188 49.761719 M 36.535156 51.03125 L 34.96875 53.191406 L 37.003906 55.226562 L 38.867188 53.367188 L 40.730469 51.503906 L 38.097656 48.871094 L 36.535156 51.03125 M 60.738281 50.511719 C 59.839844 51.503906 59.863281 51.566406 61.75 53.5 C 63.226562 55.015625 63.832031 55.347656 64.339844 54.925781 C 65.28125 54.144531 65.171875 53.550781 63.683594 51.402344 C 62.160156 49.203125 61.972656 49.148438 60.738281 50.511719 M 48.359375 53.890625 L 46.496094 55.792969 L 48.507812 57.757812 L 50.515625 59.71875 L 54.234375 56 L 50.21875 51.984375 L 48.359375 53.890625 M 57.257812 53.988281 L 55.300781 55.996094 L 57 57.75 C 57.933594 58.710938 58.945312 59.5 59.25 59.5 C 59.554688 59.5 60.570312 58.707031 61.507812 57.738281 L 63.214844 55.980469 L 61.21875 53.980469 L 59.21875 51.984375 L 57.257812 53.988281 M 39.492188 54.257812 L 37.785156 56.019531 L 39.644531 57.875 L 41.5 59.734375 L 43.355469 57.875 L 45.214844 56.019531 L 43.507812 54.257812 C 42.570312 53.292969 41.667969 52.5 41.5 52.5 C 41.332031 52.5 40.429688 53.292969 39.492188 54.257812 M 33.46875 56.199219 C 32.039062 59.433594 32.421875 59.886719 34.644531 57.609375 C 36.519531 55.6875 36.523438 55.675781 35.519531 54.765625 C 34.527344 53.867188 34.492188 53.890625 33.46875 56.199219 M 64.726562 55.539062 C 64.414062 56.046875 66.960938 59.207031 67.359375 58.804688 C 67.644531 58.523438 65.863281 55 65.4375 55 C 65.230469 55 64.910156 55.242188 64.726562 55.539062 M 35.242188 58.507812 L 33.28125 60.515625 L 37 64.234375 L 41.015625 60.21875 L 39.109375 58.359375 L 37.207031 56.496094 L 35.242188 58.507812 M 43.859375 58.390625 L 41.996094 60.292969 L 44.007812 62.257812 L 46.015625 64.21875 L 49.734375 60.5 L 45.71875 56.484375 L 43.859375 58.390625 M 52.859375 58.390625 L 50.996094 60.292969 L 53.007812 62.257812 L 55.015625 64.21875 L 58.734375 60.5 L 54.71875 56.484375 L 52.859375 58.390625 M 61.742188 58.507812 L 59.78125 60.515625 L 63.5 64.234375 L 67.515625 60.21875 L 65.609375 58.359375 L 63.707031 56.496094 L 61.742188 58.507812 M 31.808594 62.066406 C 30.761719 63.5625 30.746094 67.167969 31.78125 68.027344 C 32.445312 68.578125 32.855469 68.378906 34.539062 66.695312 L 36.515625 64.71875 L 32.617188 60.914062 L 31.808594 62.066406 M 39.597656 62.648438 C 38.71875 63.554688 38 64.523438 38 64.800781 C 38 65.078125 38.789062 66.066406 39.75 67 L 41.5 68.695312 L 43.25 67 C 44.210938 66.066406 45 65.054688 45 64.75 C 45 64.210938 41.957031 61 41.449219 61 C 41.308594 61 40.476562 61.742188 39.597656 62.648438 M 48.359375 62.890625 L 46.496094 64.792969 L 48.507812 66.757812 L 50.515625 68.71875 L 54.234375 65 L 50.21875 60.984375 L 48.359375 62.890625 M 57.351562 62.894531 L 55.496094 64.792969 L 59.292969 68.503906 L 63.003906 64.707031 L 59.207031 60.996094 L 57.351562 62.894531 M 66 63.25 L 64.304688 65 L 66 66.75 C 67.875 68.683594 68.390625 68.867188 68.824219 67.742188 C 69.191406 66.777344 68.550781 61.5 68.0625 61.5 C 67.859375 61.5 66.933594 62.289062 66 63.25 M 35.097656 67.148438 C 34.21875 68.054688 33.5 69.023438 33.5 69.300781 C 33.5 69.578125 34.289062 70.566406 35.25 71.5 L 37.003906 73.199219 L 41.003906 69.292969 L 39.148438 67.398438 C 38.132812 66.355469 37.160156 65.5 36.996094 65.5 C 36.832031 65.5 35.976562 66.242188 35.097656 67.148438 M 43.851562 67.398438 L 41.996094 69.292969 L 45.996094 73.199219 L 47.75 71.5 C 48.710938 70.566406 49.5 69.554688 49.5 69.25 C 49.5 68.714844 46.460938 65.5 45.953125 65.5 C 45.816406 65.5 44.867188 66.355469 43.851562 67.398438 M 52.851562 67.394531 L 50.996094 69.292969 L 54.792969 73.003906 L 58.503906 69.207031 L 54.707031 65.496094 L 52.851562 67.394531 M 61.851562 67.394531 L 59.996094 69.292969 L 63.792969 73.003906 L 67.503906 69.207031 L 63.707031 65.496094 L 61.851562 67.394531 M 30.5 69.3125 C 30.5 70.425781 30.613281 70.527344 31.257812 69.996094 C 31.832031 69.515625 31.875 69.203125 31.445312 68.683594 C 30.648438 67.722656 30.5 67.820312 30.5 69.3125 M 31.320312 71.054688 C 30.4375 72.308594 30.753906 75.3125 31.90625 76.636719 C 32.636719 77.476562 32.785156 77.425781 34.589844 75.660156 L 36.503906 73.792969 L 34.648438 71.898438 C 33.632812 70.855469 32.628906 70 32.425781 70 C 32.222656 70 31.722656 70.472656 31.320312 71.054688 M 39.597656 71.648438 C 38.71875 72.554688 38 73.523438 38 73.800781 C 38 74.078125 38.789062 75.066406 39.75 76 L 41.503906 77.699219 L 45.503906 73.792969 L 43.648438 71.898438 C 42.632812 70.855469 41.660156 70 41.496094 70 C 41.332031 70 40.476562 70.742188 39.597656 71.648438 M 48.351562 71.898438 L 46.496094 73.792969 L 50.292969 77.503906 L 54.199219 73.503906 L 52.5 71.75 C 51.566406 70.789062 50.667969 70 50.503906 70 C 50.339844 70 49.367188 70.855469 48.351562 71.898438 M 57.351562 71.894531 L 55.496094 73.792969 L 59.292969 77.503906 L 63.003906 73.707031 L 59.207031 69.996094 L 57.351562 71.894531 M 65.996094 71.753906 L 64.285156 73.519531 L 68.425781 77.660156 L 68.75 75.933594 C 69.175781 73.648438 68.882812 70.371094 68.230469 70.15625 C 67.945312 70.0625 66.9375 70.78125 65.996094 71.753906 M 35 76.25 L 33.300781 78.003906 L 37.207031 82.003906 L 41.003906 78.292969 L 39.148438 76.398438 C 38.132812 75.355469 37.160156 74.5 36.996094 74.5 C 36.832031 74.5 35.933594 75.289062 35 76.25 M 43.851562 76.398438 L 41.996094 78.292969 L 43.894531 80.148438 C 44.9375 81.167969 45.914062 82 46.0625 82 C 46.210938 82 47.070312 81.082031 47.972656 79.957031 L 49.613281 77.914062 L 47.960938 76.207031 C 47.050781 75.269531 46.167969 74.5 46.003906 74.5 C 45.839844 74.5 44.867188 75.355469 43.851562 76.398438 M 52.851562 76.398438 L 50.996094 78.292969 L 54.792969 82.003906 L 58.699219 78.003906 L 57 76.25 C 56.066406 75.289062 55.167969 74.5 55.003906 74.5 C 54.839844 74.5 53.867188 75.355469 52.851562 76.398438 M 61.5 76.25 L 59.800781 78.003906 L 63.707031 82.003906 L 67.503906 78.292969 L 65.648438 76.398438 C 64.632812 75.355469 63.660156 74.5 63.496094 74.5 C 63.332031 74.5 62.433594 75.289062 61.5 76.25 M 32.011719 79.625 C 32.027344 80.648438 33.914062 84.5 34.398438 84.5 C 34.644531 84.5 35.214844 84.09375 35.664062 83.59375 C 36.433594 82.742188 36.367188 82.574219 34.597656 80.84375 C 32.597656 78.890625 31.992188 78.609375 32.011719 79.625 M 39.492188 80.757812 L 37.785156 82.519531 L 39.644531 84.375 L 41.5 86.234375 L 43.355469 84.375 L 45.214844 82.519531 L 43.507812 80.757812 C 42.570312 79.792969 41.667969 79 41.5 79 C 41.332031 79 40.429688 79.792969 39.492188 80.757812 M 48.351562 80.898438 L 46.496094 82.792969 L 50.292969 86.503906 L 54.199219 82.503906 L 52.5 80.75 C 51.566406 79.789062 50.667969 79 50.503906 79 C 50.339844 79 49.367188 79.855469 48.351562 80.898438 M 56.992188 80.761719 L 55.285156 82.519531 L 57.28125 84.519531 L 59.28125 86.515625 L 61.242188 84.511719 L 63.199219 82.503906 L 61.5 80.75 C 60.566406 79.789062 59.554688 79 59.25 79 C 58.945312 79 57.929688 79.792969 56.992188 80.761719 M 66.011719 80.738281 C 64.609375 82.1875 64.445312 82.582031 64.984375 83.230469 C 65.335938 83.652344 65.773438 84 65.953125 84 C 66.320312 84 68.109375 79.441406 67.847656 79.179688 C 67.753906 79.089844 66.929688 79.789062 66.011719 80.738281 M 35.578125 84.664062 L 34.484375 85.828125 L 36.042969 87.980469 L 37.601562 90.128906 L 40.714844 87.015625 L 39.007812 85.257812 C 38.070312 84.292969 37.160156 83.5 36.988281 83.5 C 36.816406 83.5 36.183594 84.023438 35.578125 84.664062 M 43.992188 85.257812 L 42.285156 87.019531 L 44.144531 88.875 L 46 90.734375 L 47.855469 88.875 L 49.714844 87.019531 L 48.007812 85.257812 C 47.070312 84.292969 46.167969 83.5 46 83.5 C 45.832031 83.5 44.929688 84.292969 43.992188 85.257812 M 52.492188 85.261719 L 50.785156 87.019531 L 52.78125 89.019531 L 54.78125 91.015625 L 56.742188 89.011719 L 58.699219 87.003906 L 57 85.25 C 56.066406 84.289062 55.054688 83.5 54.75 83.5 C 54.445312 83.5 53.429688 84.292969 52.492188 85.261719 M 61.492188 85.257812 L 59.789062 87.015625 L 61.164062 88.382812 L 62.542969 89.75 L 63.5 88.5 C 65.363281 86.0625 65.707031 85.101562 65.015625 84.265625 C 64.066406 83.121094 63.375 83.316406 61.492188 85.257812 M 57.261719 89.488281 C 55.363281 91.433594 55.339844 91.496094 56.238281 92.488281 C 57.496094 93.875 58.226562 93.765625 60.289062 91.875 L 62.0625 90.246094 L 60.632812 88.875 L 59.199219 87.503906 L 57.261719 89.488281 M 39.8125 89.4375 L 38.433594 90.871094 L 40.332031 92.4375 C 41.375 93.296875 42.363281 94 42.527344 94 C 42.691406 94 43.355469 93.433594 44.003906 92.746094 L 45.183594 91.488281 L 43.496094 89.746094 C 42.566406 88.785156 41.664062 88 41.496094 88 C 41.324219 88 40.566406 88.648438 39.8125 89.4375 M 48.097656 89.648438 L 46.5 91.296875 L 50.515625 95.21875 L 52.363281 93.367188 L 54.214844 91.519531 L 52.507812 89.757812 C 51.570312 88.792969 50.554688 88 50.25 88 C 49.945312 88 48.976562 88.742188 48.097656 89.648438 M 52.722656 94.058594 L 50.75 96.105469 L 52.5 95.742188 C 53.460938 95.546875 54.886719 95.128906 55.664062 94.816406 L 57.078125 94.246094 L 55.886719 93.128906 L 54.695312 92.007812 L 52.722656 94.058594 M 44.261719 93.488281 C 43.394531 94.445312 43.410156 94.492188 44.808594 95.03125 C 45.601562 95.335938 47.039062 95.710938 48 95.859375 L 49.75 96.132812 L 48.027344 94.316406 C 46.050781 92.234375 45.503906 92.113281 44.261719 93.488281 "/>
</g>
</svg>
