<?xml version="1.0" encoding="UTF-8"?>
<svg xmlns="http://www.w3.org/2000/svg" xmlns:xlink="http://www.w3.org/1999/xlink" width="100px" height="100px" viewBox="0 0 100 100" version="1.1">
<g id="surface1">
<path style=" stroke:none;fill-rule:evenodd;fill:rgb(100%,100%,0%);fill-opacity:1;" d="M 40.78125 1.9375 C 39.769531 3.894531 38.152344 9.851562 37.742188 13.132812 L 37.40625 15.824219 L 34.675781 13.15625 C 31.484375 10.039062 27.140625 7 25.882812 7 C 25.320312 7 25 7.378906 25 8.050781 C 25 8.9375 27.019531 15.472656 28.289062 18.703125 C 28.660156 19.636719 28.632812 19.636719 27.089844 18.722656 C 25.835938 17.984375 25.382812 17.917969 24.890625 18.40625 C 24.003906 19.296875 25.488281 24.640625 28.140625 30.082031 L 30.25 34.414062 L 28.585938 35.304688 C 25.914062 36.742188 21.710938 41.65625 20.417969 44.859375 C 19.277344 47.683594 19.253906 48.089844 19.34375 62.636719 C 19.445312 78.765625 19.726562 80.902344 22.371094 85.414062 C 25.359375 90.511719 31.40625 94.785156 37.390625 96.03125 C 41.300781 96.84375 46.636719 96.359375 50.34375 94.851562 L 53.394531 93.613281 L 56.304688 96.554688 L 59.21875 99.5 L 75.765625 99.5 L 88 87.234375 L 88 70.734375 L 75.734375 58.5 L 64.625 58.5 L 64.402344 52.625 C 64.230469 47.984375 63.953125 46.234375 63.082031 44.289062 C 61.664062 41.117188 59.007812 37.898438 56.25 36 L 54.066406 34.496094 L 56.246094 29.875 C 58.796875 24.460938 60.324219 19.125 59.546875 18.34375 C 59.066406 17.867188 58.695312 17.972656 55.921875 19.382812 C 55.742188 19.476562 56.128906 18.234375 56.78125 16.621094 C 58.257812 12.960938 59.566406 8.011719 59.210938 7.433594 C 58.425781 6.164062 55.105469 8.101562 50.039062 12.796875 L 47.054688 15.554688 L 46.730469 13.652344 C 45.5 6.488281 43.4375 0.5 42.203125 0.5 C 41.828125 0.5 41.191406 1.148438 40.78125 1.9375 M 41.316406 7.449219 C 40.871094 8.933594 40.277344 12.023438 39.992188 14.316406 C 39.484375 18.398438 39.5 18.523438 40.808594 20.5 L 42.144531 22.519531 L 43.324219 20.785156 C 44.738281 18.703125 44.839844 16.109375 43.722656 10.703125 C 42.457031 4.570312 42.257812 4.300781 41.316406 7.449219 M 28.964844 13.648438 C 30.671875 18.605469 33.515625 23.425781 37.023438 27.296875 L 38.875 29.34375 L 39.902344 27.234375 L 40.925781 25.128906 L 38.875 21.9375 C 36.90625 18.878906 29.433594 11 28.503906 11 C 28.257812 11 28.464844 12.191406 28.964844 13.648438 M 51.78125 14.535156 C 49.691406 16.519531 46.96875 19.667969 45.734375 21.523438 C 43.410156 25.019531 41 29.976562 41 31.265625 C 41 32.34375 43.84375 32.226562 44.433594 31.125 C 44.695312 30.644531 46.277344 28.566406 47.957031 26.507812 C 51.921875 21.648438 56.808594 12.144531 55.84375 11.175781 C 55.703125 11.035156 53.875 12.546875 51.78125 14.535156 M 27.730469 23.0625 C 27.917969 23.714844 29.042969 26.300781 30.234375 28.8125 L 32.394531 33.371094 L 34.722656 32.78125 C 36 32.457031 37.070312 32.011719 37.09375 31.789062 C 37.175781 31.082031 33.324219 26.519531 31 24.570312 C 27.71875 21.820312 27.324219 21.640625 27.730469 23.0625 M 51.445312 26.53125 C 49 29.019531 47 31.359375 47 31.722656 C 47 32.089844 47.800781 32.539062 48.785156 32.722656 C 49.765625 32.90625 50.863281 33.171875 51.21875 33.308594 C 51.636719 33.46875 52.59375 32.082031 53.921875 29.402344 C 55.9375 25.332031 56.988281 22 56.257812 22 C 56.054688 22 53.886719 24.039062 51.445312 26.53125 M 34.398438 35.292969 C 33.105469 35.691406 31.933594 36.203125 31.792969 36.429688 C 31.652344 36.65625 32.324219 37.601562 33.28125 38.53125 L 35.023438 40.21875 L 37.878906 37.359375 L 40.738281 34.5 L 38.746094 34.535156 C 37.648438 34.554688 35.691406 34.894531 34.398438 35.292969 M 46.496094 37.246094 L 49.210938 39.992188 L 50.855469 38.398438 C 51.761719 37.519531 52.332031 36.640625 52.125 36.445312 C 51.542969 35.894531 46.46875 34.5 45.050781 34.5 C 43.871094 34.5 43.96875 34.6875 46.496094 37.246094 M 39.246094 38.503906 L 36.269531 41.511719 L 39.136719 44.375 L 42 47.238281 L 45.003906 44.234375 L 48.011719 41.230469 L 45.117188 38.363281 L 42.21875 35.5 L 39.246094 38.503906 M 26.523438 40.023438 C 25.136719 41.410156 24 42.714844 24 42.921875 C 24 43.128906 24.902344 44.175781 26.003906 45.253906 L 28.007812 47.210938 L 31 44.25 L 33.996094 41.285156 L 32.144531 39.394531 C 31.128906 38.351562 30.015625 37.5 29.671875 37.5 C 29.328125 37.5 27.910156 38.636719 26.523438 40.023438 M 52.332031 39.417969 L 50.503906 41.285156 L 56.488281 47.207031 L 58.242188 45.503906 C 59.210938 44.570312 60 43.65625 60 43.472656 C 60 42.9375 55.976562 38.523438 55.027344 38.015625 C 54.34375 37.648438 53.757812 37.957031 52.332031 39.417969 M 32.246094 45.503906 L 29.269531 48.511719 L 32.136719 51.375 L 35 54.238281 L 38.003906 51.234375 L 41.011719 48.230469 L 38.117188 45.363281 L 35.21875 42.5 L 32.246094 45.503906 M 46.257812 45.492188 L 43.28125 48.5 L 46 51.25 C 47.492188 52.761719 48.957031 54 49.25 54 C 49.542969 54 51.007812 52.761719 52.507812 51.242188 L 55.226562 48.488281 L 52.226562 45.488281 L 49.230469 42.488281 L 46.257812 45.492188 M 22.507812 46.230469 C 22.210938 47.007812 21.835938 49.019531 21.675781 50.699219 L 21.382812 53.75 L 24.058594 51.125 L 26.734375 48.503906 L 24.890625 46.65625 L 23.046875 44.8125 L 22.507812 46.230469 M 59.117188 46.628906 L 57.503906 48.292969 L 59.75 50.5 L 62 52.707031 L 61.960938 50.480469 C 61.941406 49.253906 61.65625 47.511719 61.328125 46.605469 L 60.734375 44.960938 L 59.117188 46.628906 M 39.253906 52.496094 L 36.28125 55.5 L 39.253906 58.503906 L 42.230469 61.511719 L 45.234375 58.503906 L 48.238281 55.5 L 45.234375 52.496094 L 42.230469 49.488281 L 39.253906 52.496094 M 53.253906 52.496094 L 50.28125 55.5 L 53.253906 58.503906 L 56.230469 61.511719 L 59.234375 58.503906 L 62.238281 55.5 L 59.234375 52.496094 L 56.230469 49.488281 L 53.253906 52.496094 M 24.859375 52.890625 L 22 55.78125 L 27.78125 61.5 L 33.71875 55.5 L 31 52.75 C 29.507812 51.238281 28.15625 50 28 50 C 27.847656 50 26.429688 51.300781 24.859375 52.890625 M 46.253906 59.496094 L 43.28125 62.5 L 46.253906 65.503906 L 49.230469 68.511719 L 52.234375 65.503906 L 55.238281 62.5 L 52.234375 59.496094 L 49.230469 56.488281 L 46.253906 59.496094 M 31.859375 59.890625 L 29 62.78125 L 35 68.71875 L 41 62.78125 L 38.140625 59.890625 C 36.570312 58.300781 35.15625 57 35 57 C 34.84375 57 33.429688 58.300781 31.859375 59.890625 M 21.5 62.867188 L 21.5 67.738281 L 26.722656 62.515625 L 24.507812 60.257812 C 23.289062 59.015625 22.113281 58 21.894531 58 C 21.679688 58 21.5 60.191406 21.5 62.867188 M 54.617188 66.132812 L 49.5 71.265625 L 49.5 86.769531 L 54.632812 91.882812 L 59.765625 97 L 75.234375 97 L 80.367188 91.882812 L 85.5 86.769531 L 85.5 71.734375 L 74.734375 61 L 59.730469 61 L 54.617188 66.132812 M 24.859375 66.890625 L 22 69.78125 L 28 75.71875 L 30.75 73 C 32.261719 71.507812 33.5 70.042969 33.5 69.75 C 33.5 69.230469 28.46875 64 27.96875 64 C 27.832031 64 26.429688 65.300781 24.859375 66.890625 M 38.859375 66.890625 L 36 69.78125 L 42 75.71875 L 48 69.78125 L 45.140625 66.890625 C 43.570312 65.300781 42.15625 64 42 64 C 41.84375 64 40.429688 65.300781 38.859375 66.890625 M 31.75 74 L 28.78125 77 L 31.5 79.75 C 32.992188 81.261719 34.457031 82.5 34.75 82.5 C 35.421875 82.5 40.5 77.394531 40.5 76.71875 C 40.5 76.21875 35.449219 71 34.96875 71 C 34.832031 71 33.382812 72.347656 31.75 74 M 65.300781 72.003906 C 63.328125 72.617188 61.140625 74.8125 60.460938 76.863281 C 58.832031 81.800781 63.648438 87.238281 68.792969 86.273438 C 72.488281 85.582031 75.527344 81.140625 74.699219 77.644531 C 74.3125 76.011719 72.332031 73.214844 71.09375 72.550781 C 69.675781 71.792969 66.847656 71.523438 65.300781 72.003906 M 21.726562 75 C 22.128906 78.890625 22.488281 80.5 22.957031 80.5 C 23.148438 80.5 24.070312 79.707031 25.011719 78.738281 L 26.71875 76.976562 L 21.390625 71.75 L 21.726562 75 M 44.851562 74.898438 L 42.996094 76.792969 L 45 78.75 L 47 80.703125 L 47 76.851562 C 47 74.734375 46.933594 73 46.851562 73 C 46.769531 73 45.867188 73.855469 44.851562 74.898438 M 65.054688 74.699219 C 60.539062 77.199219 62.5625 84 67.824219 84 C 68.617188 84 69.765625 83.332031 70.863281 82.238281 C 72.425781 80.671875 72.59375 80.261719 72.332031 78.613281 C 71.761719 75.03125 68.054688 73.035156 65.054688 74.699219 M 25.539062 80.210938 L 23.355469 82.4375 L 24.933594 84.894531 C 25.800781 86.25 26.96875 87.769531 27.527344 88.273438 C 28.527344 89.179688 28.589844 89.148438 31.140625 86.597656 L 33.738281 84 L 27.722656 77.984375 L 25.539062 80.210938 M 38.75 81 L 35.78125 84 L 38.5 86.75 C 39.992188 88.261719 41.457031 89.5 41.75 89.5 C 42.695312 89.5 47 84.753906 47 83.714844 C 47 82.867188 42.714844 78 41.96875 78 C 41.832031 78 40.382812 79.347656 38.75 81 M 32.363281 87.386719 C 31.0625 88.703125 30 89.953125 30 90.164062 C 30 90.71875 36.074219 93.5 37.289062 93.5 C 37.859375 93.5 38.863281 92.929688 39.515625 92.234375 L 40.707031 90.964844 L 37.714844 87.976562 L 34.726562 84.984375 L 32.363281 87.386719 M 44.84375 89.40625 L 42.984375 91.308594 L 44.148438 92.40625 C 44.789062 93.007812 45.8125 93.5 46.421875 93.5 C 47.8125 93.5 51 92.195312 51 91.628906 C 51 91.183594 47.390625 87.5 46.957031 87.5 C 46.816406 87.5 45.867188 88.355469 44.84375 89.40625 M 41 93.25 C 40.46875 93.890625 40.613281 94 42 94 C 43.386719 94 43.53125 93.890625 43 93.25 C 42.65625 92.835938 42.207031 92.5 42 92.5 C 41.792969 92.5 41.34375 92.835938 41 93.25 "/>
</g>
</svg>
