<?xml version="1.0" encoding="UTF-8"?>
<svg xmlns="http://www.w3.org/2000/svg" xmlns:xlink="http://www.w3.org/1999/xlink" width="100px" height="100px" viewBox="0 0 100 100" version="1.1">
<g id="surface1">
<path style=" stroke:none;fill-rule:evenodd;fill:rgb(0%,0%,0%);fill-opacity:1;" d="M 43.082031 2.21875 C 41.765625 3.648438 41 4.949219 41 5.761719 C 41 6.542969 42.238281 8.773438 44.15625 11.445312 C 45.890625 13.863281 47.605469 16.550781 47.964844 17.417969 C 48.53125 18.78125 48.875 19 50.433594 19.007812 C 51.433594 19.011719 52.792969 19.160156 53.453125 19.335938 C 54.601562 19.644531 54.640625 19.574219 54.351562 17.773438 C 53.644531 13.421875 47.449219 0.378906 45.957031 0.105469 C 45.523438 0.0234375 44.226562 0.976562 43.082031 2.21875 M 39.5 20.070312 C 19.703125 23.339844 8.113281 53.25 17.210938 77.589844 C 21.699219 89.589844 30.121094 97.621094 39.921875 99.246094 L 42.097656 99.605469 L 39.710938 96.675781 C 28.117188 82.460938 26.085938 50.746094 35.515625 31.175781 C 37.511719 27.03125 41.335938 22.292969 43.707031 21.023438 C 44.65625 20.515625 44.84375 20.210938 44.382812 19.917969 C 43.644531 19.449219 43.183594 19.460938 39.5 20.070312 M 59.730469 23.636719 C 67.375 31.285156 71.523438 46.339844 70.839844 63.957031 C 70.253906 79.03125 66.40625 90.949219 59.96875 97.632812 L 57.554688 100.132812 L 59.910156 99.855469 C 70.464844 98.601562 80.238281 88.550781 84.207031 74.855469 C 89.882812 55.261719 83.226562 32.730469 69.125 23.828125 C 66.324219 22.0625 61.488281 20.5 58.8125 20.5 L 56.59375 20.5 L 59.730469 23.636719 M 48.179688 21.476562 C 40.90625 23.207031 34.753906 34.277344 32.472656 49.75 C 31.601562 55.628906 31.742188 67.332031 32.753906 73.25 C 36.019531 92.410156 45.046875 103.25 54.253906 99.070312 C 58.621094 97.082031 63.484375 89.957031 65.902344 82 C 68.734375 72.671875 69.578125 57.34375 67.800781 47.574219 C 64.601562 29.992188 56.679688 19.457031 48.179688 21.476562 M 23.808594 22.554688 C 20.710938 23.285156 16.195312 25.941406 13.429688 28.664062 C 8.949219 33.074219 5.949219 38.570312 3.910156 46.101562 C 2.28125 52.117188 2.28125 64.382812 3.910156 70.398438 C 6.796875 81.054688 12.160156 88.511719 19.632812 92.25 C 24.128906 94.496094 25.0625 94.53125 23.292969 92.375 C 15.511719 82.894531 11.988281 72.648438 11.988281 59.5 C 11.988281 45.058594 16.550781 33.214844 25.246094 25.078125 C 28.324219 22.199219 28.445312 22.003906 27.144531 22.050781 C 26.378906 22.078125 24.875 22.304688 23.808594 22.554688 M 73.863281 24.484375 C 79.714844 29.148438 84.46875 37.375 87.070312 47.351562 C 88.714844 53.667969 88.738281 66.21875 87.117188 72.652344 C 85.140625 80.488281 81.316406 88.214844 77.351562 92.375 C 75.367188 94.457031 76.34375 94.503906 80.296875 92.511719 C 86.390625 89.4375 91.417969 83.414062 94.449219 75.558594 C 99.410156 62.6875 98.066406 45.902344 91.1875 34.882812 C 86.871094 27.960938 78.777344 22.5 72.84375 22.5 C 71.382812 22.5 71.390625 22.515625 73.863281 24.484375 "/>
</g>
</svg>
