<?xml version="1.0" encoding="UTF-8"?>
<svg xmlns="http://www.w3.org/2000/svg" xmlns:xlink="http://www.w3.org/1999/xlink" width="24px" height="24px" viewBox="0 0 24 24" version="1.1">
<g id="surface1">
<path style=" stroke:none;fill-rule:evenodd;fill:rgb(100%,64.705884%,0%);fill-opacity:1;" d="M 12.195312 3.84375 L 11.398438 4.683594 L 11.394531 5.550781 C 11.394531 6.203125 11.363281 6.367188 11.269531 6.210938 C 11.203125 6.09375 10.925781 5.882812 10.652344 5.746094 C 10.066406 5.445312 9.320312 5.476562 8.582031 5.828125 L 8.101562 6.054688 L 8.890625 6.183594 C 10.25 6.40625 11.398438 7.015625 11.398438 7.511719 L 11.398438 7.789062 L 10.828125 7.4375 C 9.496094 6.617188 7.773438 6.523438 6.394531 7.203125 C 4.617188 8.078125 3.796875 10.109375 4.082031 12.917969 C 4.390625 15.964844 5.691406 19.1875 5.519531 16.488281 C 5.488281 15.96875 5.460938 14.648438 5.460938 13.558594 C 5.460938 11.613281 5.464844 11.566406 5.8125 10.859375 C 6.265625 9.9375 7.300781 8.902344 8.21875 8.457031 C 8.980469 8.085938 8.929688 8.089844 11.941406 8.167969 C 12.203125 8.175781 12.855469 8.140625 13.390625 8.097656 C 15.46875 7.914062 17.25 8.953125 18.207031 10.90625 C 18.53125 11.558594 18.539062 11.640625 18.539062 13.558594 C 18.539062 14.648438 18.511719 15.964844 18.480469 16.488281 C 18.3125 19.15625 19.605469 15.984375 19.914062 12.972656 C 20.203125 10.128906 19.386719 8.082031 17.605469 7.203125 C 16.226562 6.523438 14.503906 6.617188 13.171875 7.4375 C 12.65625 7.757812 12.601562 7.769531 12.601562 7.5625 C 12.601562 7.0625 14.292969 6.25 15.359375 6.238281 C 15.976562 6.234375 16.003906 6.21875 15.78125 6.050781 C 15.648438 5.949219 15.257812 5.789062 14.917969 5.6875 C 14.167969 5.472656 13.53125 5.597656 12.964844 6.074219 L 12.601562 6.382812 L 12.601562 5.816406 C 12.601562 5.296875 12.65625 5.191406 13.261719 4.539062 C 13.917969 3.828125 14.066406 3.433594 13.777344 3.144531 C 13.429688 2.796875 13.007812 2.980469 12.195312 3.84375 M 9.449219 8.640625 C 8.082031 8.878906 6.734375 9.96875 6.222656 11.246094 C 5.976562 11.867188 5.949219 12.132812 5.953125 13.738281 C 5.960938 15.824219 6.335938 18.398438 6.71875 19.019531 C 7.113281 19.660156 7.839844 19.851562 8.523438 19.496094 C 9.191406 19.152344 9.238281 18.898438 9.238281 15.75 C 9.238281 12.589844 9.324219 12.007812 9.972656 10.792969 C 10.175781 10.414062 10.605469 9.808594 10.929688 9.441406 L 11.523438 8.78125 L 11.191406 8.714844 C 10.441406 8.566406 9.988281 8.546875 9.449219 8.640625 M 13.558594 8.585938 C 13.460938 8.609375 13.175781 8.65625 12.925781 8.699219 L 12.472656 8.773438 L 13.066406 9.4375 C 13.394531 9.804688 13.824219 10.414062 14.027344 10.792969 C 14.675781 12.007812 14.761719 12.589844 14.761719 15.75 C 14.761719 18.898438 14.808594 19.152344 15.476562 19.496094 C 16.160156 19.851562 16.886719 19.660156 17.28125 19.019531 C 17.910156 18.003906 18.3125 12.617188 17.847656 11.429688 C 17.375 10.214844 16.339844 9.183594 15.238281 8.832031 C 14.65625 8.648438 13.851562 8.53125 13.558594 8.585938 M 11.492188 9.644531 C 10.789062 10.484375 10.328125 11.285156 10.074219 12.101562 C 9.867188 12.78125 9.839844 13.222656 9.839844 16.085938 C 9.839844 18.066406 9.890625 19.433594 9.96875 19.640625 C 10.125 20.054688 10.628906 20.601562 11.0625 20.832031 C 11.484375 21.050781 12.519531 21.046875 12.949219 20.824219 C 13.4375 20.570312 14.015625 19.863281 14.101562 19.414062 C 14.140625 19.195312 14.15625 17.507812 14.136719 15.660156 L 14.101562 12.300781 L 13.667969 11.398438 C 13.269531 10.566406 12.222656 9.121094 12.019531 9.121094 C 11.96875 9.121094 11.734375 9.355469 11.492188 9.644531 "/>
</g>
</svg>
