<?xml version="1.0" encoding="UTF-8"?>
<svg xmlns="http://www.w3.org/2000/svg" xmlns:xlink="http://www.w3.org/1999/xlink" width="100px" height="100px" viewBox="0 0 100 100" version="1.1">
<g id="surface1">
<path style=" stroke:none;fill-rule:evenodd;fill:rgb(100%,64.705884%,0%);fill-opacity:1;" d="M 50.808594 16.007812 L 47.5 19.519531 L 47.484375 23.132812 C 47.472656 25.84375 47.339844 26.53125 46.957031 25.871094 C 46.675781 25.386719 45.519531 24.519531 44.386719 23.941406 C 41.941406 22.695312 38.832031 22.816406 35.753906 24.28125 L 33.757812 25.226562 L 37.039062 25.765625 C 42.703125 26.695312 47.5 29.230469 47.5 31.296875 L 47.5 32.457031 L 45.125 30.992188 C 39.574219 27.566406 32.386719 27.1875 26.636719 30.015625 C 19.234375 33.664062 15.816406 42.113281 17.007812 53.832031 C 18.300781 66.519531 23.710938 79.953125 23 68.703125 C 22.863281 66.527344 22.75 61.039062 22.75 56.5 C 22.75 48.390625 22.773438 48.199219 24.214844 45.25 C 26.097656 41.398438 30.417969 37.085938 34.25 35.230469 C 37.414062 33.695312 37.210938 33.714844 49.75 34.03125 C 50.851562 34.0625 53.570312 33.925781 55.792969 33.734375 C 64.453125 32.980469 71.871094 37.304688 75.867188 45.4375 C 77.207031 48.164062 77.25 48.503906 77.25 56.5 C 77.25 61.039062 77.136719 66.527344 77 68.699219 C 76.296875 79.816406 81.683594 66.597656 82.972656 54.046875 C 84.1875 42.195312 80.777344 33.667969 73.363281 30.015625 C 67.613281 27.1875 60.425781 27.566406 54.875 30.992188 C 52.730469 32.316406 52.5 32.367188 52.5 31.511719 C 52.5 29.425781 59.554688 26.039062 64 25.996094 C 66.566406 25.96875 66.683594 25.917969 65.75 25.210938 C 65.199219 24.796875 63.582031 24.117188 62.152344 23.699219 C 59.039062 22.796875 56.382812 23.320312 54.023438 25.308594 L 52.5 26.589844 L 52.5 24.238281 C 52.5 22.078125 52.726562 21.636719 55.25 18.914062 C 57.996094 15.945312 58.605469 14.304688 57.398438 13.101562 C 55.949219 11.648438 54.191406 12.425781 50.808594 16.007812 M 39.367188 36.003906 C 33.671875 36.996094 28.050781 41.535156 25.933594 46.851562 C 24.902344 49.441406 24.785156 50.546875 24.808594 57.25 C 24.84375 65.941406 26.398438 76.65625 28 79.25 C 29.644531 81.910156 32.671875 82.710938 35.515625 81.242188 C 38.296875 79.804688 38.5 78.746094 38.5 65.628906 C 38.5 52.453125 38.859375 50.03125 41.554688 44.96875 C 42.394531 43.394531 44.191406 40.863281 45.546875 39.34375 L 48.007812 36.582031 L 46.628906 36.308594 C 43.503906 35.6875 41.625 35.609375 39.367188 36.003906 M 56.5 35.78125 C 56.085938 35.867188 54.898438 36.074219 53.859375 36.242188 L 51.964844 36.550781 L 54.441406 39.328125 C 55.804688 40.859375 57.605469 43.394531 58.445312 44.96875 C 61.140625 50.03125 61.5 52.453125 61.5 65.628906 C 61.5 78.746094 61.703125 79.804688 64.484375 81.242188 C 67.328125 82.710938 70.355469 81.910156 72 79.25 C 74.621094 75.007812 76.304688 52.5625 74.371094 47.621094 C 72.394531 42.558594 68.082031 38.269531 63.5 36.804688 C 61.070312 36.03125 57.707031 35.539062 56.5 35.78125 M 47.886719 40.179688 C 44.957031 43.6875 43.035156 47.023438 41.980469 50.425781 C 41.109375 53.25 41 55.097656 41 67.019531 C 41 75.28125 41.203125 80.976562 41.53125 81.84375 C 42.183594 83.566406 44.289062 85.847656 46.101562 86.792969 C 47.851562 87.710938 52.164062 87.699219 53.949219 86.777344 C 55.996094 85.71875 58.40625 82.765625 58.757812 80.886719 C 58.925781 79.984375 58.992188 72.949219 58.90625 65.25 L 58.75 51.25 L 56.949219 47.5 C 55.285156 44.027344 50.925781 38 50.078125 38 C 49.878906 38 48.890625 38.980469 47.886719 40.179688 "/>
</g>
</svg>
