<?xml version="1.0" encoding="UTF-8"?>
<svg xmlns="http://www.w3.org/2000/svg" xmlns:xlink="http://www.w3.org/1999/xlink" width="24px" height="24px" viewBox="0 0 24 24" version="1.1">
<g id="surface1">
<path style=" stroke:none;fill-rule:evenodd;fill:rgb(100%,64.705884%,0%);fill-opacity:1;" d="M 10.339844 0.53125 C 10.023438 0.875 9.839844 1.1875 9.839844 1.382812 C 9.839844 1.570312 10.136719 2.105469 10.597656 2.746094 C 11.015625 3.328125 11.425781 3.972656 11.511719 4.179688 C 11.648438 4.507812 11.730469 4.558594 12.105469 4.5625 C 12.34375 4.5625 12.671875 4.597656 12.828125 4.640625 C 13.105469 4.714844 13.113281 4.699219 13.042969 4.265625 C 12.875 3.222656 11.386719 0.0898438 11.03125 0.0234375 C 10.925781 0.00390625 10.613281 0.234375 10.339844 0.53125 M 9.480469 4.816406 C 4.726562 5.601562 1.945312 12.78125 4.128906 18.621094 C 5.207031 21.503906 7.230469 23.429688 9.582031 23.820312 L 10.101562 23.90625 L 9.53125 23.203125 C 6.746094 19.789062 6.261719 12.179688 8.523438 7.484375 C 9.003906 6.488281 9.921875 5.351562 10.488281 5.046875 C 10.71875 4.921875 10.761719 4.851562 10.652344 4.78125 C 10.472656 4.667969 10.363281 4.671875 9.480469 4.816406 M 14.335938 5.671875 C 16.171875 7.507812 17.164062 11.121094 17 15.347656 C 16.859375 18.96875 15.9375 21.828125 14.390625 23.429688 L 13.8125 24.03125 L 14.378906 23.964844 C 16.910156 23.664062 19.257812 21.253906 20.210938 17.964844 C 21.570312 13.261719 19.972656 7.855469 16.589844 5.71875 C 15.917969 5.292969 14.757812 4.921875 14.113281 4.921875 L 13.582031 4.921875 L 14.335938 5.671875 M 11.5625 5.15625 C 9.816406 5.570312 8.339844 8.226562 7.792969 11.941406 C 7.585938 13.351562 7.617188 16.160156 7.859375 17.578125 C 8.644531 22.179688 10.8125 24.78125 13.019531 23.777344 C 14.070312 23.300781 15.234375 21.589844 15.816406 19.679688 C 16.496094 17.441406 16.699219 13.761719 16.273438 11.417969 C 15.503906 7.199219 13.601562 4.667969 11.5625 5.15625 M 5.714844 5.414062 C 4.96875 5.589844 3.886719 6.226562 3.222656 6.878906 C 2.148438 7.9375 1.429688 9.257812 0.9375 11.066406 C 0.546875 12.507812 0.546875 15.453125 0.9375 16.894531 C 1.628906 19.453125 2.917969 21.242188 4.710938 22.140625 C 5.789062 22.679688 6.015625 22.6875 5.589844 22.171875 C 3.722656 19.894531 2.878906 17.433594 2.878906 14.28125 C 2.878906 10.8125 3.972656 7.972656 6.058594 6.019531 C 6.796875 5.328125 6.828125 5.28125 6.515625 5.292969 C 6.332031 5.296875 5.96875 5.351562 5.714844 5.414062 M 17.726562 5.875 C 19.132812 6.996094 20.273438 8.96875 20.898438 11.363281 C 21.292969 12.878906 21.296875 15.890625 20.90625 17.4375 C 20.433594 19.316406 19.515625 21.171875 18.566406 22.171875 C 18.089844 22.671875 18.320312 22.679688 19.269531 22.203125 C 20.734375 21.464844 21.941406 20.019531 22.667969 18.132812 C 23.859375 15.046875 23.535156 11.015625 21.886719 8.371094 C 20.847656 6.710938 18.90625 5.398438 17.484375 5.398438 C 17.132812 5.398438 17.132812 5.402344 17.726562 5.875 "/>
</g>
</svg>
