<?xml version="1.0" encoding="UTF-8"?>
<svg xmlns="http://www.w3.org/2000/svg" xmlns:xlink="http://www.w3.org/1999/xlink" width="24px" height="24px" viewBox="0 0 24 24" version="1.1">
<g id="surface1">
<path style=" stroke:none;fill-rule:evenodd;fill:rgb(0%,50.196081%,0%);fill-opacity:1;" d="M 11.25 0.910156 C 11.210938 0.949219 11.207031 1.265625 11.246094 1.609375 C 11.335938 2.476562 11.183594 2.710938 10.417969 2.875 C 9.617188 3.046875 9.035156 3.492188 8.738281 4.164062 C 8.523438 4.652344 8.503906 4.96875 8.515625 8.097656 C 8.523438 11.300781 8.503906 11.648438 8.160156 14 C 7.289062 19.929688 7.585938 21.796875 9.570312 22.789062 C 10.730469 23.371094 13.269531 23.371094 14.429688 22.789062 C 16.40625 21.796875 16.707031 19.929688 15.84375 14.039062 C 15.503906 11.75 15.480469 11.339844 15.476562 8.101562 C 15.476562 4.960938 15.453125 4.570312 15.25 4.125 C 14.960938 3.488281 14.367188 3.042969 13.582031 2.875 C 12.824219 2.710938 12.683594 2.5 12.738281 1.582031 C 12.773438 1.03125 12.742188 0.898438 12.585938 0.867188 C 12.433594 0.835938 12.375 0.972656 12.3125 1.535156 C 12.183594 2.679688 12.46875 3.105469 13.53125 3.339844 C 14.230469 3.496094 14.5625 3.738281 14.828125 4.28125 C 15.027344 4.699219 15.046875 5.035156 15.015625 8.039062 C 14.988281 11.195312 15.003906 11.453125 15.363281 13.921875 C 16.003906 18.328125 15.976562 20.519531 15.269531 21.535156 C 14.957031 21.980469 14.246094 22.433594 13.558594 22.625 L 13.261719 22.710938 L 13.515625 22.425781 C 14.296875 21.554688 14.378906 20.695312 14.050781 16.660156 C 13.914062 14.964844 13.800781 13.546875 13.800781 13.511719 C 13.800781 13.472656 13.6875 13.441406 13.550781 13.441406 C 13.324219 13.441406 13.308594 13.492188 13.371094 14.070312 C 13.507812 15.304688 13.800781 19.355469 13.800781 20.023438 C 13.796875 21.347656 13.417969 22.105469 12.523438 22.582031 L 12 22.859375 L 11.476562 22.582031 C 10.570312 22.101562 10.199219 21.34375 10.203125 19.980469 C 10.203125 19.585938 10.335938 17.585938 10.5 15.539062 C 10.722656 12.746094 10.796875 10.945312 10.796875 8.316406 C 10.800781 4.539062 10.832031 4.3125 11.417969 4.011719 C 11.835938 3.792969 12.164062 3.792969 12.582031 4.011719 C 13.144531 4.300781 13.199219 4.601562 13.199219 7.324219 C 13.199219 9.355469 13.230469 9.839844 13.363281 9.839844 C 13.550781 9.839844 13.679688 8.339844 13.679688 6.121094 C 13.679688 5.042969 13.632812 4.648438 13.46875 4.328125 C 13.152344 3.710938 12.6875 3.421875 12 3.421875 C 11.316406 3.421875 10.847656 3.710938 10.535156 4.324219 C 10.351562 4.679688 10.328125 5.136719 10.339844 8.214844 C 10.351562 11.03125 10.292969 12.480469 10.027344 15.78125 C 9.621094 20.828125 9.667969 21.527344 10.484375 22.417969 L 10.738281 22.699219 L 10.378906 22.617188 C 9.769531 22.472656 9.007812 21.96875 8.703125 21.503906 C 8.539062 21.257812 8.347656 20.765625 8.269531 20.402344 C 8.058594 19.414062 8.203125 16.875 8.636719 13.921875 C 9 11.441406 9.011719 11.207031 8.980469 8.039062 C 8.953125 5.023438 8.96875 4.699219 9.171875 4.28125 C 9.4375 3.738281 9.769531 3.496094 10.46875 3.339844 C 11.527344 3.105469 11.800781 2.703125 11.679688 1.558594 C 11.613281 0.90625 11.46875 0.691406 11.25 0.910156 "/>
</g>
</svg>
