<?xml version="1.0" encoding="UTF-8"?>
<svg xmlns="http://www.w3.org/2000/svg" xmlns:xlink="http://www.w3.org/1999/xlink" width="100px" height="100px" viewBox="0 0 100 100" version="1.1">
<g id="surface1">
<path style=" stroke:none;fill-rule:evenodd;fill:rgb(0%,50.196081%,0%);fill-opacity:1;" d="M 46.875 3.792969 C 46.714844 3.953125 46.703125 5.265625 46.851562 6.710938 C 47.226562 10.324219 46.59375 11.289062 43.40625 11.972656 C 40.074219 12.6875 37.640625 14.558594 36.40625 17.347656 C 35.507812 19.378906 35.433594 20.695312 35.476562 33.738281 C 35.519531 47.085938 35.433594 48.53125 33.996094 58.335938 C 30.367188 83.046875 31.613281 90.8125 39.875 94.957031 C 44.714844 97.382812 55.285156 97.382812 60.125 94.957031 C 68.363281 90.828125 69.621094 83.035156 66.007812 58.5 C 64.605469 48.960938 64.5 47.25 64.488281 33.75 C 64.480469 20.671875 64.386719 19.046875 63.542969 17.191406 C 62.335938 14.535156 59.859375 12.671875 56.59375 11.972656 C 53.429688 11.292969 52.851562 10.414062 53.082031 6.585938 C 53.21875 4.300781 53.097656 3.734375 52.441406 3.609375 C 51.800781 3.484375 51.566406 4.058594 51.300781 6.402344 C 50.761719 11.160156 51.960938 12.933594 56.386719 13.921875 C 59.296875 14.570312 60.683594 15.578125 61.777344 17.835938 C 62.621094 19.578125 62.691406 20.976562 62.570312 33.5 C 62.445312 46.648438 62.511719 47.722656 64.007812 58 C 66.679688 76.363281 66.566406 85.507812 63.621094 89.722656 C 62.320312 91.582031 59.359375 93.472656 56.5 94.273438 L 55.25 94.625 L 56.316406 93.4375 C 59.574219 89.8125 59.90625 86.230469 58.542969 69.414062 C 57.96875 62.359375 57.5 56.453125 57.5 56.289062 C 57.5 56.132812 57.035156 56 56.464844 56 C 55.511719 56 55.449219 56.210938 55.71875 58.625 C 56.289062 63.773438 57.5 80.652344 57.496094 83.425781 C 57.492188 88.941406 55.910156 92.113281 52.179688 94.09375 L 50 95.25 L 47.820312 94.09375 C 44.046875 92.089844 42.503906 88.9375 42.507812 83.25 C 42.511719 81.601562 43.066406 73.273438 43.746094 64.75 C 44.675781 53.109375 44.988281 45.613281 44.992188 34.648438 C 45 18.914062 45.136719 17.972656 47.574219 16.710938 C 49.316406 15.808594 50.683594 15.808594 52.425781 16.710938 C 54.765625 17.921875 55 19.175781 55 30.523438 C 55 38.980469 55.128906 41 55.675781 41 C 56.460938 41 56.992188 34.753906 56.996094 25.5 C 56.996094 21.011719 56.808594 19.375 56.125 18.035156 C 54.808594 15.457031 52.855469 14.25 50 14.25 C 47.152344 14.25 45.191406 15.457031 43.890625 18.007812 C 43.128906 19.5 43.035156 21.398438 43.085938 34.222656 C 43.132812 45.972656 42.882812 52.003906 41.777344 65.75 C 40.085938 86.78125 40.285156 89.703125 43.683594 93.414062 L 44.75 94.582031 L 43.25 94.230469 C 40.710938 93.640625 37.539062 91.535156 36.257812 89.597656 C 35.585938 88.582031 34.777344 86.515625 34.453125 85.011719 C 33.574219 80.898438 34.175781 70.316406 35.980469 58 C 37.496094 47.679688 37.554688 46.703125 37.421875 33.5 C 37.296875 20.9375 37.367188 19.585938 38.21875 17.835938 C 39.320312 15.578125 40.707031 14.570312 43.613281 13.921875 C 48.035156 12.933594 49.167969 11.265625 48.671875 6.492188 C 48.386719 3.769531 47.789062 2.875 46.875 3.792969 "/>
</g>
</svg>
