<?xml version="1.0" encoding="UTF-8"?>
<svg xmlns="http://www.w3.org/2000/svg" xmlns:xlink="http://www.w3.org/1999/xlink" width="24px" height="24px" viewBox="0 0 24 24" version="1.1">
<g id="surface1">
<path style=" stroke:none;fill-rule:evenodd;fill:rgb(100%,0%,0%);fill-opacity:1;" d="M 9.855469 3.652344 C 9.566406 3.746094 9.160156 3.984375 8.953125 4.179688 C 8.75 4.375 8.390625 4.574219 8.160156 4.621094 C 7.179688 4.824219 6.414062 5.464844 6.113281 6.332031 C 6.019531 6.597656 5.882812 6.726562 5.632812 6.78125 C 5.441406 6.824219 5.179688 6.988281 5.054688 7.148438 C 4.859375 7.394531 4.722656 7.441406 4.160156 7.441406 C 3.402344 7.441406 3 7.5625 2.679688 7.898438 C 2.558594 8.023438 2.261719 8.164062 2.015625 8.207031 C 1.566406 8.289062 1.050781 8.765625 0.898438 9.238281 C 0.859375 9.371094 0.75 9.480469 0.65625 9.480469 C 0.40625 9.480469 0 9.96875 0 10.265625 C 0 10.410156 0.113281 10.667969 0.25 10.84375 C 0.492188 11.152344 0.527344 11.160156 1.925781 11.160156 L 3.351562 11.160156 L 3.609375 11.757812 C 4.148438 13.007812 5.535156 13.824219 7.5 14.050781 C 8.359375 14.148438 8.910156 14.289062 9.433594 14.535156 C 9.839844 14.722656 10.222656 14.878906 10.289062 14.878906 C 10.351562 14.878906 10.441406 15.21875 10.484375 15.628906 C 10.527344 16.042969 10.644531 16.675781 10.738281 17.039062 C 11.101562 18.382812 10.875 19.382812 10.113281 19.832031 C 9.867188 19.976562 9.722656 20.148438 9.746094 20.265625 C 9.777344 20.4375 10.046875 20.460938 11.9375 20.460938 L 14.09375 20.460938 L 14.210938 20.128906 C 14.320312 19.820312 14.238281 19.179688 13.976562 18.289062 C 13.917969 18.085938 13.976562 18.003906 14.28125 17.878906 C 14.492188 17.792969 14.859375 17.585938 15.101562 17.421875 C 15.386719 17.226562 15.867188 17.066406 16.46875 16.96875 C 18.191406 16.691406 19.488281 15.820312 19.988281 14.605469 L 20.21875 14.039062 L 21.757812 14.039062 C 23.609375 14.039062 23.992188 13.898438 24 13.21875 C 24 12.839844 23.378906 12.277344 22.757812 12.097656 C 22.484375 12.015625 22.1875 11.851562 22.101562 11.734375 C 21.863281 11.40625 21.285156 11.152344 20.695312 11.117188 C 20.34375 11.097656 20.070312 10.996094 19.882812 10.820312 C 19.289062 10.265625 17.792969 10.136719 16.976562 10.574219 C 16.714844 10.710938 16.339844 10.90625 16.140625 11 C 15.351562 11.382812 15.179688 11.515625 14.972656 11.898438 C 14.859375 12.113281 14.625 12.363281 14.457031 12.453125 C 14.109375 12.636719 13.890625 13.09375 14 13.410156 C 14.167969 13.878906 14.425781 14.039062 15.019531 14.039062 C 15.339844 14.039062 15.601562 14.09375 15.601562 14.164062 C 15.601562 14.445312 14.992188 15.449219 14.570312 15.871094 C 14.148438 16.292969 13.285156 16.6875 13.128906 16.527344 C 12.972656 16.371094 12.84375 15.476562 12.84375 14.484375 C 12.839844 13.582031 13.15625 11.605469 13.621094 9.628906 L 13.683594 9.359375 L 16.375 9.359375 C 17.988281 9.359375 19.199219 9.308594 19.402344 9.230469 C 20.011719 9 20.28125 8.648438 20.28125 8.082031 C 20.28125 7.652344 20.210938 7.496094 19.859375 7.144531 C 19.363281 6.652344 18.984375 6.4375 18.238281 6.242188 C 17.878906 6.144531 17.585938 5.960938 17.359375 5.683594 C 16.855469 5.078125 16.164062 4.769531 15.210938 4.730469 C 14.480469 4.695312 14.367188 4.65625 14.007812 4.292969 C 13.785156 4.074219 13.394531 3.824219 13.132812 3.738281 C 12.40625 3.496094 10.480469 3.449219 9.855469 3.652344 M 9.714844 9.792969 C 9.933594 10.039062 10.066406 10.300781 10.027344 10.402344 C 9.992188 10.5 9.960938 10.628906 9.960938 10.6875 C 9.960938 10.871094 9.269531 11.160156 8.824219 11.160156 C 8.589844 11.160156 8.398438 11.207031 8.398438 11.265625 C 8.398438 11.554688 9.246094 12.585938 9.769531 12.933594 C 10.402344 13.359375 10.554688 13.316406 10.558594 12.71875 C 10.558594 12.554688 10.695312 11.851562 10.859375 11.160156 C 11.023438 10.46875 11.1875 9.777344 11.222656 9.628906 C 11.28125 9.367188 11.257812 9.359375 10.308594 9.359375 L 9.335938 9.359375 L 9.714844 9.792969 M 5.160156 11.402344 C 5.382812 11.816406 6.953125 12.648438 7.144531 12.457031 C 7.171875 12.429688 7.101562 12.125 6.992188 11.785156 L 6.792969 11.160156 L 5.914062 11.160156 C 5.066406 11.160156 5.035156 11.167969 5.160156 11.402344 M 17.085938 14.707031 L 16.828125 15.367188 L 17.085938 15.289062 C 17.695312 15.105469 18.480469 14.457031 18.480469 14.132812 C 18.480469 14.082031 18.222656 14.039062 17.910156 14.042969 L 17.339844 14.042969 L 17.085938 14.707031 "/>
</g>
</svg>
