<?xml version="1.0" encoding="UTF-8"?>
<svg xmlns="http://www.w3.org/2000/svg" xmlns:xlink="http://www.w3.org/1999/xlink" width="24px" height="24px" viewBox="0 0 24 24" version="1.1">
<g id="surface1">
<path style=" stroke:none;fill-rule:evenodd;fill:rgb(100%,0%,0%);fill-opacity:1;" d="M 2.105469 1.140625 C 1.996094 1.402344 1.820312 1.925781 1.714844 2.300781 C 1.484375 3.128906 1.628906 3.625 2.175781 3.867188 C 2.539062 4.027344 2.574219 4.09375 2.710938 4.855469 L 2.796875 5.332031 L 2.484375 5.128906 C 2.109375 4.882812 1.277344 4.683594 0.96875 4.761719 C 0.773438 4.8125 0.757812 4.875 0.859375 5.160156 C 1.109375 5.878906 2.125 6.597656 2.894531 6.597656 C 3.03125 6.601562 3.113281 6.753906 3.171875 7.109375 C 3.214844 7.390625 3.28125 7.746094 3.320312 7.902344 L 3.390625 8.179688 L 2.902344 7.929688 C 2.460938 7.707031 1.320312 7.570312 1.320312 7.746094 C 1.320312 7.78125 1.425781 8.019531 1.558594 8.273438 C 1.847656 8.84375 2.386719 9.242188 3.109375 9.425781 C 3.652344 9.566406 3.65625 9.566406 3.800781 10.273438 C 3.882812 10.660156 3.953125 11.023438 3.953125 11.074219 C 3.957031 11.125 3.800781 11.046875 3.605469 10.902344 C 3.199219 10.601562 1.921875 10.425781 1.921875 10.671875 C 1.921875 11.328125 3.121094 12.359375 3.886719 12.359375 C 4.195312 12.359375 4.238281 12.4375 4.378906 13.199219 C 4.421875 13.429688 4.484375 13.707031 4.511719 13.816406 C 4.558594 13.976562 4.46875 13.960938 4.003906 13.726562 C 3.410156 13.425781 2.519531 13.335938 2.519531 13.578125 C 2.519531 14.152344 3.664062 15.238281 4.277344 15.242188 C 4.679688 15.246094 4.820312 15.4375 4.976562 16.183594 L 5.128906 16.921875 L 4.734375 16.675781 C 4.515625 16.542969 4.0625 16.398438 3.726562 16.359375 C 3.183594 16.292969 3.121094 16.3125 3.121094 16.515625 C 3.121094 17.140625 4.058594 17.96875 5 18.171875 C 5.34375 18.246094 5.398438 18.316406 5.511719 18.855469 C 5.714844 19.792969 5.699219 19.828125 5.242188 19.554688 C 5.023438 19.425781 4.589844 19.285156 4.28125 19.246094 C 3.773438 19.175781 3.71875 19.191406 3.71875 19.40625 C 3.71875 20.035156 4.683594 20.917969 5.523438 21.058594 C 5.96875 21.136719 6.003906 21.171875 6.078125 21.617188 C 6.117188 21.878906 6.246094 22.210938 6.363281 22.351562 C 6.546875 22.578125 6.597656 22.589844 6.777344 22.445312 C 6.941406 22.304688 6.964844 22.152344 6.898438 21.578125 C 6.84375 21.128906 6.859375 20.878906 6.9375 20.878906 C 7.1875 20.878906 7.839844 20.214844 8.054688 19.746094 C 8.332031 19.132812 8.351562 18.480469 8.09375 18.480469 C 7.777344 18.480469 7.253906 18.808594 6.871094 19.246094 L 6.503906 19.660156 L 6.355469 18.867188 C 6.238281 18.253906 6.238281 18.0625 6.347656 18.023438 C 6.65625 17.921875 7.222656 17.347656 7.445312 16.910156 C 7.734375 16.339844 7.761719 15.601562 7.492188 15.601562 C 7.179688 15.601562 6.652344 15.929688 6.269531 16.363281 L 5.902344 16.78125 L 5.753906 15.984375 C 5.617188 15.261719 5.621094 15.179688 5.816406 15.066406 C 6.632812 14.578125 7.078125 13.878906 7.078125 13.082031 L 7.078125 12.597656 L 6.628906 12.785156 C 6.382812 12.886719 5.984375 13.160156 5.746094 13.394531 L 5.3125 13.816406 L 5.164062 13.058594 C 5.03125 12.375 5.035156 12.292969 5.222656 12.179688 C 6.050781 11.699219 6.480469 11.019531 6.480469 10.199219 C 6.480469 9.789062 6.445312 9.707031 6.289062 9.765625 C 6.1875 9.808594 6.046875 9.839844 5.984375 9.839844 C 5.921875 9.839844 5.609375 10.082031 5.296875 10.378906 L 4.722656 10.914062 L 4.578125 10.167969 C 4.453125 9.507812 4.460938 9.40625 4.636719 9.300781 C 5.464844 8.796875 5.878906 8.136719 5.878906 7.332031 C 5.878906 7.0625 5.851562 6.839844 5.816406 6.839844 C 5.550781 6.839844 4.910156 7.242188 4.585938 7.609375 C 4.164062 8.089844 4.167969 8.089844 3.972656 7.140625 C 3.863281 6.617188 3.875 6.523438 4.054688 6.421875 C 4.5625 6.121094 5.132812 5.398438 5.261719 4.882812 C 5.398438 4.335938 5.351562 3.960938 5.140625 3.960938 C 4.890625 3.960938 4.335938 4.332031 3.984375 4.730469 C 3.585938 5.1875 3.585938 5.1875 3.421875 4.355469 C 3.363281 4.066406 3.40625 3.886719 3.609375 3.613281 C 4.105469 2.941406 3.972656 2.554688 2.78125 1.199219 L 2.308594 0.660156 L 2.105469 1.140625 M 20.886719 1.578125 C 20.488281 2.054688 20.152344 2.554688 20.144531 2.691406 C 20.117188 3.183594 20.1875 3.425781 20.421875 3.679688 C 20.609375 3.882812 20.644531 4.03125 20.582031 4.339844 C 20.410156 5.191406 20.417969 5.1875 20.015625 4.730469 C 19.582031 4.238281 19.015625 3.914062 18.757812 4.011719 C 18.617188 4.066406 18.597656 4.191406 18.664062 4.589844 C 18.800781 5.425781 19.144531 5.910156 19.960938 6.421875 C 20.121094 6.523438 20.132812 6.632812 20.027344 7.140625 C 19.832031 8.089844 19.835938 8.089844 19.414062 7.609375 C 19.089844 7.242188 18.449219 6.839844 18.183594 6.839844 C 18.148438 6.839844 18.121094 7.0625 18.121094 7.332031 C 18.121094 8.136719 18.535156 8.796875 19.363281 9.300781 C 19.539062 9.40625 19.546875 9.507812 19.421875 10.167969 L 19.277344 10.914062 L 18.703125 10.378906 C 18.390625 10.082031 18.078125 9.839844 18.015625 9.839844 C 17.953125 9.839844 17.8125 9.808594 17.710938 9.765625 C 17.554688 9.707031 17.519531 9.789062 17.519531 10.199219 C 17.519531 11.019531 17.949219 11.699219 18.777344 12.179688 C 18.964844 12.292969 18.96875 12.375 18.835938 13.058594 L 18.6875 13.816406 L 18.253906 13.394531 C 18.015625 13.160156 17.617188 12.886719 17.371094 12.785156 L 16.921875 12.597656 L 16.921875 13.082031 C 16.921875 13.878906 17.367188 14.578125 18.183594 15.066406 C 18.378906 15.179688 18.382812 15.261719 18.246094 15.984375 L 18.097656 16.78125 L 17.730469 16.363281 C 17.347656 15.929688 16.820312 15.601562 16.507812 15.601562 C 16.246094 15.601562 16.269531 16.253906 16.550781 16.875 C 16.730469 17.269531 17.128906 17.671875 17.746094 18.078125 C 17.769531 18.097656 17.722656 18.457031 17.644531 18.886719 L 17.496094 19.660156 L 17.128906 19.246094 C 16.746094 18.808594 16.222656 18.480469 15.90625 18.480469 C 15.648438 18.480469 15.667969 19.132812 15.945312 19.746094 C 16.160156 20.21875 16.8125 20.878906 17.0625 20.878906 C 17.144531 20.878906 17.160156 21.113281 17.105469 21.546875 C 16.945312 22.816406 17.742188 22.945312 17.929688 21.679688 C 18.007812 21.175781 18.035156 21.144531 18.464844 21.078125 C 18.714844 21.035156 19.101562 20.878906 19.328125 20.730469 C 19.804688 20.40625 20.304688 19.710938 20.25 19.445312 C 20.195312 19.179688 19.289062 19.242188 18.769531 19.550781 C 18.300781 19.828125 18.285156 19.792969 18.488281 18.859375 C 18.597656 18.335938 18.65625 18.257812 18.976562 18.195312 C 19.902344 18.007812 20.878906 17.152344 20.878906 16.523438 C 20.878906 16.308594 20.824219 16.292969 20.273438 16.359375 C 19.9375 16.398438 19.476562 16.546875 19.25 16.683594 C 18.988281 16.847656 18.859375 16.882812 18.894531 16.78125 C 18.921875 16.691406 19.007812 16.308594 19.082031 15.929688 C 19.210938 15.273438 19.234375 15.238281 19.574219 15.238281 C 19.769531 15.238281 20.078125 15.164062 20.257812 15.070312 C 20.792969 14.789062 21.480469 13.945312 21.480469 13.566406 C 21.480469 13.335938 20.574219 13.433594 19.996094 13.726562 C 19.53125 13.960938 19.441406 13.976562 19.488281 13.816406 C 19.515625 13.707031 19.578125 13.429688 19.621094 13.199219 C 19.761719 12.4375 19.804688 12.359375 20.113281 12.359375 C 20.539062 12.359375 21.277344 11.953125 21.644531 11.515625 C 21.816406 11.308594 21.960938 11.097656 21.960938 11.039062 C 21.960938 10.984375 21.992188 10.855469 22.03125 10.75 C 22.140625 10.464844 21.171875 10.5 20.582031 10.796875 C 20.328125 10.929688 20.105469 11.023438 20.089844 11.007812 C 20.074219 10.992188 20.125 10.660156 20.203125 10.273438 C 20.34375 9.566406 20.347656 9.566406 20.890625 9.425781 C 21.613281 9.242188 22.152344 8.84375 22.441406 8.273438 C 22.574219 8.019531 22.679688 7.78125 22.679688 7.746094 C 22.679688 7.570312 21.539062 7.707031 21.097656 7.929688 L 20.609375 8.179688 L 20.679688 7.902344 C 20.71875 7.746094 20.785156 7.390625 20.828125 7.109375 C 20.894531 6.695312 20.960938 6.597656 21.164062 6.597656 C 21.839844 6.589844 22.890625 5.820312 23.144531 5.140625 C 23.246094 4.871094 23.230469 4.816406 23.035156 4.765625 C 22.730469 4.683594 21.851562 4.886719 21.496094 5.121094 L 21.207031 5.304688 L 21.289062 4.84375 C 21.417969 4.125 21.484375 3.960938 21.644531 3.960938 C 21.878906 3.960938 22.308594 3.503906 22.394531 3.167969 C 22.46875 2.863281 21.910156 0.898438 21.714844 0.777344 C 21.660156 0.742188 21.289062 1.105469 20.886719 1.578125 M 11.734375 1.105469 C 11.28125 1.792969 10.921875 2.667969 10.921875 3.066406 C 10.921875 3.398438 11.007812 3.585938 11.28125 3.839844 C 11.59375 4.132812 11.640625 4.261719 11.640625 4.8125 L 11.640625 5.445312 L 11.308594 5.136719 C 10.890625 4.746094 10.59375 4.59375 10.140625 4.542969 C 9.796875 4.5 9.78125 4.519531 9.8125 4.921875 C 9.867188 5.558594 10.339844 6.175781 11.027344 6.496094 L 11.628906 6.78125 L 11.636719 7.613281 L 11.640625 8.445312 L 11.308594 8.136719 C 10.890625 7.746094 10.59375 7.59375 10.140625 7.542969 C 9.796875 7.5 9.78125 7.519531 9.8125 7.921875 C 9.867188 8.558594 10.339844 9.175781 11.027344 9.496094 L 11.628906 9.78125 L 11.636719 10.613281 L 11.640625 11.445312 L 11.308594 11.136719 C 10.890625 10.746094 10.59375 10.59375 10.140625 10.542969 C 9.796875 10.5 9.78125 10.519531 9.8125 10.921875 C 9.867188 11.558594 10.339844 12.175781 11.027344 12.496094 L 11.628906 12.78125 L 11.636719 13.613281 L 11.640625 14.445312 L 11.308594 14.136719 C 10.890625 13.746094 10.59375 13.59375 10.140625 13.542969 C 9.796875 13.5 9.78125 13.519531 9.8125 13.921875 C 9.867188 14.558594 10.339844 15.175781 11.027344 15.496094 L 11.628906 15.78125 L 11.636719 16.613281 L 11.640625 17.445312 L 11.308594 17.136719 C 10.890625 16.746094 10.59375 16.59375 10.140625 16.542969 C 9.796875 16.5 9.78125 16.519531 9.8125 16.921875 C 9.867188 17.558594 10.339844 18.175781 11.027344 18.496094 L 11.628906 18.78125 L 11.636719 19.613281 L 11.640625 20.445312 L 11.308594 20.136719 C 10.90625 19.761719 10.625 19.617188 10.097656 19.515625 L 9.695312 19.441406 L 9.773438 19.890625 C 9.902344 20.601562 10.355469 21.179688 11.027344 21.496094 L 11.628906 21.78125 L 11.636719 22.457031 C 11.640625 23.15625 11.785156 23.355469 12.179688 23.203125 C 12.3125 23.152344 12.359375 22.945312 12.359375 22.4375 C 12.359375 21.742188 12.363281 21.738281 12.785156 21.597656 C 13.347656 21.414062 13.964844 20.757812 14.144531 20.160156 C 14.296875 19.648438 14.25 19.421875 14.007812 19.496094 C 13.925781 19.519531 13.710938 19.570312 13.53125 19.613281 C 13.351562 19.652344 13.015625 19.851562 12.78125 20.054688 L 12.359375 20.425781 L 12.359375 18.738281 L 12.785156 18.597656 C 13.347656 18.414062 13.964844 17.757812 14.144531 17.160156 C 14.296875 16.648438 14.25 16.421875 14.007812 16.496094 C 13.925781 16.519531 13.710938 16.570312 13.53125 16.613281 C 13.351562 16.652344 13.015625 16.851562 12.78125 17.054688 L 12.359375 17.425781 L 12.359375 15.738281 L 12.785156 15.597656 C 13.347656 15.414062 13.964844 14.757812 14.144531 14.160156 C 14.296875 13.648438 14.25 13.421875 14.007812 13.496094 C 13.925781 13.519531 13.710938 13.570312 13.53125 13.613281 C 13.351562 13.652344 13.015625 13.851562 12.78125 14.054688 L 12.359375 14.425781 L 12.359375 12.738281 L 12.785156 12.597656 C 13.347656 12.414062 13.964844 11.757812 14.144531 11.160156 C 14.296875 10.648438 14.25 10.421875 14.007812 10.496094 C 13.925781 10.519531 13.710938 10.570312 13.53125 10.613281 C 13.351562 10.652344 13.015625 10.851562 12.78125 11.054688 L 12.359375 11.425781 L 12.359375 9.738281 L 12.785156 9.597656 C 13.347656 9.414062 13.964844 8.757812 14.144531 8.160156 C 14.296875 7.648438 14.25 7.421875 14.007812 7.496094 C 13.925781 7.519531 13.710938 7.570312 13.53125 7.613281 C 13.351562 7.652344 13.015625 7.851562 12.78125 8.054688 L 12.359375 8.425781 L 12.359375 6.738281 L 12.785156 6.597656 C 13.347656 6.414062 13.964844 5.757812 14.144531 5.160156 C 14.296875 4.648438 14.25 4.421875 14.007812 4.496094 C 13.925781 4.519531 13.710938 4.570312 13.53125 4.613281 C 13.351562 4.652344 13.015625 4.851562 12.78125 5.054688 L 12.359375 5.425781 L 12.359375 4.800781 C 12.359375 4.261719 12.410156 4.128906 12.71875 3.839844 C 13.230469 3.363281 13.203125 2.816406 12.625 1.75 C 12.375 1.292969 12.113281 0.898438 12.042969 0.875 C 11.972656 0.851562 11.832031 0.953125 11.734375 1.105469 "/>
</g>
</svg>
