<?xml version="1.0" encoding="UTF-8"?>
<svg xmlns="http://www.w3.org/2000/svg" xmlns:xlink="http://www.w3.org/1999/xlink" width="100px" height="100px" viewBox="0 0 100 100" version="1.1">
<g id="surface1">
<path style=" stroke:none;fill-rule:evenodd;fill:rgb(100%,0%,0%);fill-opacity:1;" d="M 8.777344 4.75 C 8.316406 5.851562 7.582031 8.03125 7.148438 9.59375 C 6.183594 13.039062 6.789062 15.101562 9.058594 16.105469 C 10.585938 16.78125 10.734375 17.050781 11.300781 20.230469 L 11.652344 22.214844 L 10.359375 21.367188 C 8.792969 20.339844 5.324219 19.507812 4.03125 19.847656 C 3.230469 20.054688 3.160156 20.308594 3.574219 21.496094 C 4.617188 24.488281 8.855469 27.484375 12.0625 27.496094 C 12.628906 27.5 12.972656 28.140625 13.210938 29.625 C 13.394531 30.792969 13.679688 32.277344 13.839844 32.917969 L 14.128906 34.085938 L 12.085938 33.042969 C 10.253906 32.109375 5.5 31.550781 5.5 32.269531 C 5.5 32.417969 5.945312 33.410156 6.488281 34.476562 C 7.695312 36.84375 9.945312 38.511719 12.960938 39.277344 C 15.222656 39.851562 15.234375 39.867188 15.84375 42.804688 C 16.179688 44.425781 16.464844 45.925781 16.476562 46.140625 C 16.488281 46.355469 15.832031 46.035156 15.015625 45.433594 C 13.324219 44.179688 8 43.445312 8 44.464844 C 8 47.195312 13.011719 51.5 16.191406 51.5 C 17.472656 51.5 17.660156 51.816406 18.25 55 C 18.429688 55.960938 18.675781 57.117188 18.800781 57.566406 C 18.988281 58.238281 18.621094 58.171875 16.679688 57.191406 C 14.210938 55.941406 10.5 55.574219 10.5 56.582031 C 10.5 58.96875 15.273438 63.488281 17.816406 63.507812 C 19.492188 63.523438 20.085938 64.320312 20.738281 67.4375 L 21.378906 70.503906 L 19.722656 69.484375 C 18.8125 68.921875 16.929688 68.324219 15.535156 68.160156 C 13.269531 67.890625 13 67.960938 13 68.816406 C 13 71.421875 16.917969 74.875 20.839844 75.722656 C 22.265625 76.027344 22.488281 76.324219 22.964844 78.558594 C 23.804688 82.46875 23.75 82.613281 21.839844 81.484375 C 20.925781 80.945312 19.125 80.359375 17.839844 80.183594 C 15.730469 79.894531 15.5 79.960938 15.5 80.859375 C 15.5 83.472656 19.519531 87.160156 23.011719 87.753906 C 24.867188 88.066406 25.023438 88.222656 25.320312 90.074219 C 25.496094 91.164062 26.03125 92.542969 26.511719 93.136719 C 27.277344 94.082031 27.492188 94.128906 28.230469 93.515625 C 28.929688 92.9375 29.015625 92.300781 28.738281 89.90625 C 28.523438 88.042969 28.585938 87 28.914062 87 C 29.949219 87 32.667969 84.230469 33.558594 82.269531 C 34.71875 79.71875 34.804688 77 33.726562 77 C 32.410156 77 30.21875 78.367188 28.625 80.183594 L 27.097656 81.921875 L 26.472656 78.613281 C 25.992188 76.066406 25.988281 75.253906 26.441406 75.101562 C 27.730469 74.671875 30.09375 72.277344 31.023438 70.457031 C 32.230469 68.089844 32.34375 65 31.226562 65 C 29.910156 65 27.71875 66.367188 26.125 68.183594 L 24.597656 69.921875 L 23.972656 66.609375 C 23.402344 63.585938 23.425781 63.25 24.226562 62.773438 C 27.636719 60.746094 29.5 57.828125 29.5 54.511719 L 29.5 52.488281 L 27.625 53.265625 C 26.59375 53.699219 24.9375 54.839844 23.945312 55.804688 L 22.140625 57.5625 L 21.523438 54.414062 C 20.960938 51.558594 20.984375 51.214844 21.769531 50.757812 C 25.214844 48.742188 27 45.921875 27 42.496094 C 27 40.785156 26.851562 40.449219 26.210938 40.695312 C 25.773438 40.863281 25.203125 41 24.9375 41 C 24.671875 41 23.378906 42.007812 22.066406 43.238281 L 19.671875 45.476562 L 19.082031 42.363281 C 18.5625 39.613281 18.589844 39.191406 19.3125 38.75 C 22.765625 36.648438 24.5 33.902344 24.5 30.550781 C 24.5 29.421875 24.378906 28.5 24.234375 28.5 C 23.125 28.5 20.457031 30.167969 19.109375 31.699219 C 17.355469 33.703125 17.367188 33.710938 16.550781 29.75 C 16.101562 27.578125 16.148438 27.183594 16.890625 26.75 C 19.015625 25.511719 21.382812 22.5 21.925781 20.34375 C 22.5 18.058594 22.296875 16.5 21.421875 16.5 C 20.382812 16.5 18.0625 18.046875 16.601562 19.710938 C 14.9375 21.605469 14.949219 21.613281 14.253906 18.152344 C 14.007812 16.9375 14.199219 16.191406 15.042969 15.050781 C 17.105469 12.261719 16.550781 10.640625 11.59375 5 L 9.617188 2.75 L 8.777344 4.75 M 87.03125 6.582031 C 85.363281 8.566406 83.972656 10.648438 83.941406 11.21875 C 83.828125 13.269531 84.109375 14.269531 85.09375 15.335938 C 85.871094 16.171875 86.023438 16.792969 85.761719 18.085938 C 85.046875 21.625 85.066406 21.613281 83.398438 19.710938 C 81.597656 17.660156 79.230469 16.304688 78.160156 16.714844 C 77.578125 16.9375 77.488281 17.46875 77.765625 19.125 C 78.34375 22.613281 79.773438 24.628906 83.164062 26.75 C 83.84375 27.175781 83.886719 27.628906 83.449219 29.75 C 82.632812 33.710938 82.644531 33.703125 80.890625 31.699219 C 79.542969 30.167969 76.875 28.5 75.765625 28.5 C 75.621094 28.5 75.5 29.421875 75.5 30.550781 C 75.5 33.902344 77.234375 36.648438 80.6875 38.75 C 81.410156 39.191406 81.4375 39.613281 80.917969 42.363281 L 80.328125 45.476562 L 77.933594 43.238281 C 76.621094 42.007812 75.328125 41 75.0625 41 C 74.796875 41 74.226562 40.863281 73.789062 40.695312 C 73.148438 40.449219 73 40.785156 73 42.496094 C 73 45.921875 74.785156 48.742188 78.230469 50.757812 C 79.015625 51.214844 79.039062 51.558594 78.476562 54.414062 L 77.859375 57.5625 L 76.054688 55.804688 C 75.0625 54.839844 73.40625 53.699219 72.375 53.265625 L 70.5 52.488281 L 70.5 54.511719 C 70.5 57.828125 72.363281 60.746094 75.773438 62.773438 C 76.574219 63.25 76.597656 63.585938 76.027344 66.609375 L 75.402344 69.921875 L 73.875 68.183594 C 72.28125 66.367188 70.089844 65 68.773438 65 C 67.6875 65 67.78125 67.722656 68.957031 70.308594 C 69.707031 71.960938 71.367188 73.636719 73.9375 75.332031 C 74.039062 75.398438 73.847656 76.910156 73.511719 78.6875 L 72.902344 81.921875 L 71.375 80.183594 C 69.78125 78.367188 67.589844 77 66.273438 77 C 65.195312 77 65.28125 79.71875 66.441406 82.269531 C 67.332031 84.238281 70.050781 87 71.097656 87 C 71.433594 87 71.496094 87.96875 71.269531 89.777344 C 70.605469 95.074219 73.917969 95.613281 74.710938 90.335938 C 75.027344 88.238281 75.144531 88.105469 76.9375 87.816406 C 77.976562 87.652344 79.59375 87 80.527344 86.371094 C 82.519531 85.027344 84.605469 82.132812 84.375 81.023438 C 84.144531 79.914062 80.378906 80.179688 78.210938 81.457031 C 76.25 82.613281 76.195312 82.472656 77.03125 78.582031 C 77.496094 76.398438 77.734375 76.078125 79.070312 75.8125 C 82.921875 75.039062 87 71.464844 87 68.855469 C 87 67.953125 86.761719 67.890625 84.464844 68.160156 C 83.070312 68.324219 81.160156 68.9375 80.214844 69.523438 C 79.117188 70.199219 78.578125 70.34375 78.71875 69.914062 C 78.84375 69.550781 79.195312 67.957031 79.507812 66.375 C 80.042969 63.644531 80.144531 63.5 81.558594 63.5 C 82.378906 63.5 83.65625 63.183594 84.398438 62.792969 C 86.632812 61.628906 89.5 58.105469 89.5 56.53125 C 89.5 55.574219 85.71875 55.972656 83.320312 57.191406 C 81.378906 58.171875 81.011719 58.238281 81.199219 57.566406 C 81.324219 57.117188 81.570312 55.960938 81.75 55 C 82.339844 51.816406 82.527344 51.5 83.804688 51.5 C 85.574219 51.5 88.65625 49.800781 90.1875 47.984375 C 90.910156 47.125 91.5 46.234375 91.5 46.003906 C 91.5 45.769531 91.636719 45.226562 91.804688 44.789062 C 92.257812 43.609375 88.214844 43.742188 85.765625 44.992188 C 84.695312 45.539062 83.765625 45.933594 83.703125 45.867188 C 83.640625 45.804688 83.851562 44.425781 84.179688 42.804688 C 84.769531 39.859375 84.773438 39.855469 87.039062 39.277344 C 90.054688 38.511719 92.304688 36.84375 93.511719 34.476562 C 94.054688 33.410156 94.5 32.417969 94.5 32.269531 C 94.5 31.550781 89.746094 32.109375 87.914062 33.042969 L 85.871094 34.085938 L 86.160156 32.917969 C 86.320312 32.277344 86.605469 30.792969 86.789062 29.625 C 87.0625 27.902344 87.328125 27.496094 88.1875 27.488281 C 91 27.460938 95.371094 24.246094 96.4375 21.425781 C 96.859375 20.304688 96.789062 20.0625 95.980469 19.851562 C 94.710938 19.515625 91.046875 20.363281 89.558594 21.332031 L 88.367188 22.109375 L 88.710938 20.179688 C 89.242188 17.183594 89.519531 16.5 90.191406 16.5 C 91.164062 16.5 92.953125 14.605469 93.304688 13.203125 C 93.625 11.929688 91.296875 3.742188 90.46875 3.230469 C 90.246094 3.09375 88.699219 4.601562 87.03125 6.582031 M 48.890625 4.605469 C 47.011719 7.476562 45.5 11.125 45.5 12.78125 C 45.5 14.15625 45.867188 14.941406 47 16 C 48.300781 17.214844 48.5 17.753906 48.5 20.042969 L 48.5 22.6875 L 47.125 21.40625 C 45.382812 19.78125 44.140625 19.148438 42.25 18.925781 C 40.8125 18.757812 40.757812 18.824219 40.894531 20.5 C 41.109375 23.167969 43.082031 25.726562 45.953125 27.074219 L 48.460938 28.25 L 48.5 35.1875 L 47.125 33.90625 C 45.382812 32.28125 44.140625 31.648438 42.25 31.425781 C 40.8125 31.257812 40.757812 31.324219 40.894531 33 C 41.109375 35.667969 43.082031 38.226562 45.953125 39.574219 L 48.460938 40.75 L 48.5 47.6875 L 47.125 46.40625 C 45.382812 44.78125 44.140625 44.148438 42.25 43.925781 C 40.8125 43.757812 40.757812 43.824219 40.894531 45.5 C 41.109375 48.167969 43.082031 50.726562 45.953125 52.074219 L 48.460938 53.25 L 48.5 60.1875 L 47.125 58.90625 C 45.382812 57.28125 44.140625 56.648438 42.25 56.425781 C 40.8125 56.257812 40.757812 56.324219 40.894531 58 C 41.109375 60.667969 43.082031 63.226562 45.953125 64.574219 L 48.460938 65.75 L 48.5 72.6875 L 47.125 71.40625 C 45.382812 69.78125 44.140625 69.148438 42.25 68.925781 C 40.8125 68.757812 40.757812 68.824219 40.894531 70.5 C 41.109375 73.167969 43.082031 75.726562 45.953125 77.074219 L 48.460938 78.25 L 48.5 85.1875 L 47.125 83.90625 C 45.449219 82.34375 44.269531 81.738281 42.070312 81.320312 L 40.390625 81.003906 L 40.726562 82.875 C 41.265625 85.847656 43.144531 88.257812 45.953125 89.574219 L 48.460938 90.75 L 48.480469 93.570312 C 48.5 96.476562 49.109375 97.308594 50.75 96.679688 C 51.296875 96.46875 51.5 95.609375 51.5 93.484375 C 51.5 90.597656 51.511719 90.574219 53.269531 89.992188 C 55.617188 89.21875 58.195312 86.496094 58.941406 83.996094 C 59.578125 81.875 59.375 80.917969 58.359375 81.230469 C 58.023438 81.332031 57.136719 81.550781 56.382812 81.714844 C 55.632812 81.878906 54.226562 82.710938 53.257812 83.558594 L 51.5 85.101562 L 51.5 78.078125 L 53.269531 77.492188 C 55.617188 76.71875 58.195312 73.996094 58.941406 71.496094 C 59.578125 69.375 59.375 68.417969 58.359375 68.730469 C 58.023438 68.832031 57.136719 69.050781 56.382812 69.214844 C 55.632812 69.378906 54.226562 70.210938 53.257812 71.058594 L 51.5 72.601562 L 51.5 65.578125 L 53.269531 64.992188 C 55.617188 64.21875 58.195312 61.496094 58.941406 58.996094 C 59.578125 56.875 59.375 55.917969 58.359375 56.230469 C 58.023438 56.332031 57.136719 56.550781 56.382812 56.714844 C 55.632812 56.878906 54.226562 57.710938 53.257812 58.558594 L 51.5 60.101562 L 51.5 53.078125 L 53.269531 52.492188 C 55.617188 51.71875 58.195312 48.996094 58.941406 46.496094 C 59.578125 44.375 59.375 43.417969 58.359375 43.730469 C 58.023438 43.832031 57.136719 44.050781 56.382812 44.214844 C 55.632812 44.378906 54.226562 45.210938 53.257812 46.058594 L 51.5 47.601562 L 51.5 40.578125 L 53.269531 39.992188 C 55.617188 39.21875 58.195312 36.496094 58.941406 33.996094 C 59.578125 31.875 59.375 30.917969 58.359375 31.230469 C 58.023438 31.332031 57.136719 31.550781 56.382812 31.714844 C 55.632812 31.878906 54.226562 32.710938 53.257812 33.558594 L 51.5 35.101562 L 51.5 28.078125 L 53.269531 27.492188 C 55.617188 26.71875 58.195312 23.996094 58.941406 21.496094 C 59.578125 19.375 59.375 18.417969 58.359375 18.730469 C 58.023438 18.832031 57.136719 19.050781 56.382812 19.214844 C 55.632812 19.378906 54.226562 20.210938 53.257812 21.058594 L 51.5 22.601562 L 51.5 20.003906 C 51.5 17.757812 51.703125 17.210938 53 16 C 55.125 14.015625 55.019531 11.734375 52.597656 7.285156 C 51.5625 5.378906 50.472656 3.742188 50.175781 3.640625 C 49.882812 3.542969 49.300781 3.976562 48.890625 4.605469 "/>
</g>
</svg>
