<?xml version="1.0" encoding="UTF-8"?>
<svg xmlns="http://www.w3.org/2000/svg" xmlns:xlink="http://www.w3.org/1999/xlink" width="100px" height="100px" viewBox="0 0 100 100" version="1.1">
<g id="surface1">
<path style=" stroke:none;fill-rule:evenodd;fill:rgb(0%,0%,0%);fill-opacity:1;" d="M 41.058594 15.21875 C 39.851562 15.613281 38.164062 16.601562 37.308594 17.414062 C 36.449219 18.230469 34.960938 19.058594 34 19.257812 C 29.921875 20.105469 26.722656 22.777344 25.464844 26.386719 C 25.078125 27.496094 24.507812 28.027344 23.46875 28.257812 C 22.667969 28.433594 21.582031 29.121094 21.058594 29.789062 C 20.253906 30.808594 19.671875 31 17.335938 31 C 14.175781 31 12.5 31.519531 11.171875 32.902344 C 10.664062 33.433594 9.421875 34.015625 8.40625 34.199219 C 6.523438 34.539062 4.378906 36.523438 3.75 38.496094 C 3.574219 39.050781 3.117188 39.5 2.734375 39.5 C 1.699219 39.5 0 41.53125 0 42.777344 C 0 43.375 0.464844 44.457031 1.035156 45.183594 C 2.050781 46.472656 2.191406 46.5 8.023438 46.5 L 13.972656 46.5 L 15.046875 48.996094 C 17.285156 54.203125 23.0625 57.609375 31.25 58.546875 C 34.828125 58.960938 37.121094 59.53125 39.3125 60.5625 C 40.996094 61.351562 42.59375 62 42.867188 62 C 43.140625 62 43.507812 63.40625 43.6875 65.125 C 43.867188 66.84375 44.34375 69.488281 44.75 71 C 46.253906 76.601562 45.320312 80.753906 42.136719 82.632812 C 41.121094 83.234375 40.511719 83.949219 40.609375 84.4375 C 40.746094 85.152344 41.859375 85.25 49.746094 85.25 L 58.726562 85.25 L 59.214844 83.863281 C 59.664062 82.582031 59.324219 79.917969 58.230469 76.203125 C 57.984375 75.363281 58.242188 75.023438 59.511719 74.496094 C 60.386719 74.132812 61.921875 73.273438 62.925781 72.585938 C 64.109375 71.777344 66.105469 71.117188 68.613281 70.710938 C 75.800781 69.546875 81.199219 65.921875 83.28125 60.859375 L 84.25 58.503906 L 90.65625 58.503906 C 98.375 58.5 99.972656 57.914062 99.992188 55.074219 C 100.003906 53.503906 97.417969 51.160156 94.828125 50.402344 C 93.683594 50.066406 92.453125 49.386719 92.09375 48.894531 C 91.09375 47.519531 88.691406 46.464844 86.238281 46.320312 C 84.765625 46.234375 83.621094 45.820312 82.839844 45.085938 C 80.375 42.769531 74.136719 42.238281 70.730469 44.054688 C 69.640625 44.636719 68.074219 45.4375 67.25 45.839844 C 63.964844 47.429688 63.242188 47.984375 62.394531 49.570312 C 61.90625 50.476562 60.933594 51.519531 60.230469 51.886719 C 58.785156 52.644531 57.875 54.558594 58.339844 55.871094 C 59.035156 57.828125 60.113281 58.5 62.578125 58.5 C 63.910156 58.5 65 58.730469 65 59.015625 C 65 60.183594 62.472656 64.375 60.710938 66.132812 C 58.945312 67.890625 55.359375 69.523438 54.703125 68.871094 C 54.046875 68.210938 53.523438 64.484375 53.511719 60.355469 C 53.5 56.585938 54.820312 48.359375 56.753906 40.125 L 57.019531 39 L 68.226562 39 C 74.953125 39 79.996094 38.785156 80.84375 38.464844 C 83.378906 37.503906 84.5 36.039062 84.5 33.679688 C 84.5 31.890625 84.207031 31.238281 82.742188 29.777344 C 80.6875 27.71875 79.097656 26.832031 76 26.003906 C 74.496094 25.601562 73.277344 24.835938 72.328125 23.6875 C 70.230469 21.160156 67.347656 19.875 63.386719 19.703125 C 60.332031 19.570312 59.867188 19.402344 58.359375 17.890625 C 57.441406 16.976562 55.804688 15.933594 54.722656 15.574219 C 51.699219 14.574219 43.675781 14.367188 41.058594 15.21875 M 40.480469 40.804688 C 41.382812 41.832031 41.945312 42.925781 41.78125 43.34375 C 41.628906 43.75 41.5 44.28125 41.5 44.527344 C 41.5 45.300781 38.625 46.5 36.773438 46.5 C 35.796875 46.5 35 46.699219 35 46.945312 C 35 48.140625 38.53125 52.4375 40.710938 53.894531 C 43.347656 55.65625 43.976562 55.484375 43.992188 53 C 43.996094 52.3125 44.5625 49.386719 45.25 46.5 C 45.9375 43.613281 46.617188 40.742188 46.757812 40.125 C 47.011719 39.03125 46.914062 39 42.957031 39 L 38.898438 39 L 40.480469 40.804688 M 21.503906 47.507812 C 22.425781 49.226562 28.964844 52.703125 29.769531 51.898438 C 29.878906 51.785156 29.597656 50.527344 29.140625 49.097656 L 28.308594 46.5 L 24.636719 46.5 C 21.109375 46.5 20.988281 46.539062 21.503906 47.507812 M 71.183594 61.273438 L 70.117188 64.03125 L 71.183594 63.707031 C 73.730469 62.9375 77 60.230469 77 58.886719 C 77 58.675781 75.929688 58.503906 74.625 58.507812 L 72.25 58.515625 L 71.183594 61.273438 "/>
</g>
</svg>
