<?xml version="1.0" encoding="UTF-8"?>
<svg xmlns="http://www.w3.org/2000/svg" xmlns:xlink="http://www.w3.org/1999/xlink" width="100px" height="100px" viewBox="0 0 100 100" version="1.1">
<g id="surface1">
<path style=" stroke:none;fill-rule:evenodd;fill:rgb(100%,100%,0%);fill-opacity:1;" d="M 27.273438 5.171875 C 26.390625 5.816406 26.40625 5.945312 27.6875 8.296875 C 28.421875 9.648438 31.210938 13.347656 33.886719 16.519531 C 39.847656 23.589844 43.351562 28.308594 45.558594 32.25 C 46.609375 34.132812 47.296875 34.9375 47.398438 34.414062 C 47.714844 32.757812 43.234375 25.289062 37.945312 18.652344 C 36.175781 16.433594 33.773438 12.539062 32.378906 9.625 C 29.835938 4.320312 29.199219 3.765625 27.273438 5.171875 M 45.277344 7.113281 C 44.1875 8.667969 44.25 8.863281 46.542969 11.355469 C 49.476562 14.535156 50.632812 17.46875 50.902344 22.382812 C 51.097656 25.984375 51.222656 26.4375 51.875 25.898438 C 52.863281 25.078125 52.464844 16.730469 51.285156 13.5 C 50.171875 10.457031 47.433594 6 46.671875 6 C 46.335938 6 45.707031 6.5 45.277344 7.113281 M 65.820312 13.375 C 58.785156 19.574219 52.9375 27.039062 50.417969 33.039062 C 48.886719 36.683594 48.164062 41.148438 48.753906 43.335938 C 49.078125 44.542969 49.230469 44.191406 49.800781 40.929688 C 50.730469 35.632812 52.191406 32.011719 54.785156 28.5625 C 57.46875 24.988281 64.710938 18.023438 68.902344 14.976562 C 71.960938 12.757812 72.539062 11.738281 71.398438 10.601562 C 70.386719 9.585938 69.78125 9.886719 65.820312 13.375 M 15.941406 16.300781 C 14.035156 16.886719 14.574219 29.636719 16.699219 34.28125 C 17.359375 35.71875 18.714844 37.515625 19.808594 38.398438 C 29.933594 46.554688 42.507812 56.160156 42.75 55.917969 C 42.847656 55.820312 42.277344 54.257812 41.476562 52.445312 C 38.742188 46.238281 37.804688 40.167969 38.957031 36.148438 C 39.316406 34.890625 39.117188 33.589844 38.011719 30.039062 C 35.585938 22.234375 33.074219 19.253906 27.261719 17.28125 C 24.808594 16.445312 17.515625 15.816406 15.941406 16.300781 M 73.871094 16.535156 C 72.839844 16.78125 70.917969 17.53125 69.597656 18.199219 C 64.871094 20.59375 54.753906 33 57.527344 33 C 58.566406 33 59.5 36.480469 59.496094 40.359375 C 59.492188 44.929688 59.023438 46.878906 56.660156 52.164062 C 55.699219 54.316406 55.03125 56.195312 55.179688 56.34375 C 55.433594 56.601562 58.285156 54.492188 68.25 46.667969 C 70.726562 44.726562 74.550781 41.917969 76.75 40.429688 C 80.347656 37.996094 80.925781 37.378906 82.5 34.25 L 84.25 30.777344 L 84.25 16.25 L 80 16.164062 C 77.664062 16.121094 74.90625 16.285156 73.871094 16.535156 M 41.296875 36.082031 C 39.714844 38.34375 40.738281 46.09375 43.296875 51.183594 C 43.992188 52.574219 44.996094 55.507812 45.519531 57.699219 C 47.3125 65.210938 49.195312 64.390625 47.542969 56.816406 C 46.726562 53.082031 46.679688 52.1875 47.226562 50.835938 C 47.769531 49.496094 47.71875 48.355469 46.90625 43.5 C 46.34375 40.109375 45.578125 37.238281 45.050781 36.5 C 43.84375 34.824219 42.300781 34.652344 41.296875 36.082031 M 53.578125 36.261719 C 52.996094 37.003906 52.351562 39.023438 52.015625 41.136719 C 51.703125 43.125 51.25 45.753906 51.011719 46.980469 C 50.699219 48.578125 50.765625 49.671875 51.246094 50.820312 C 51.828125 52.210938 51.789062 53.011719 50.957031 56.816406 C 49.253906 64.617188 51.109375 65.15625 53.019531 57.414062 C 53.640625 54.914062 54.683594 51.90625 55.339844 50.730469 C 56.691406 48.308594 57.976562 42.855469 57.992188 39.488281 C 58.007812 35.449219 55.601562 33.691406 53.578125 36.261719 M 10.5 44.527344 C 7.308594 44.984375 0.363281 46.46875 0.0742188 46.757812 C -0.730469 47.5625 1.816406 51.824219 6.359375 57.277344 C 8.574219 59.941406 10.019531 61.136719 12.550781 62.410156 C 15.492188 63.886719 16.308594 64.070312 20.050781 64.082031 C 22.359375 64.089844 27.148438 63.710938 30.691406 63.246094 C 35.128906 62.660156 38.164062 62.515625 40.441406 62.78125 L 43.75 63.167969 L 38.503906 63.8125 C 31.375 64.691406 28.835938 65.347656 24.871094 67.328125 C 23.011719 68.257812 20.253906 69.480469 18.75 70.042969 C 14.0625 71.796875 13.214844 74.574219 16.308594 78 C 17.347656 79.148438 19.691406 80.78125 21.789062 81.816406 C 24.929688 83.371094 25.816406 83.597656 27.953125 83.390625 C 32.167969 82.988281 39.304688 77.835938 45.808594 70.5 C 47.390625 68.710938 48.949219 67.25 49.261719 67.25 C 49.578125 67.25 51.109375 68.710938 52.664062 70.5 C 59.277344 78.113281 66.988281 83.5 71.261719 83.5 C 74.070312 83.5 79.855469 80.585938 82.199219 77.988281 C 85.515625 74.320312 84.316406 71.660156 78.375 69.496094 C 76.65625 68.871094 74.125 67.730469 72.75 66.964844 C 69.960938 65.40625 64.523438 64.179688 57.75 63.585938 L 53.25 63.1875 L 56.664062 62.78125 C 59.242188 62.476562 62.214844 62.652344 68.789062 63.503906 C 84.742188 65.574219 87.964844 64.558594 95.582031 55.070312 C 98.730469 51.144531 100.503906 48.101562 100.492188 46.644531 C 100.488281 46.101562 100.339844 45.964844 100.117188 46.292969 C 99.855469 46.679688 98.675781 46.644531 96 46.167969 C 87.992188 44.734375 84.503906 44.449219 81.59375 44.976562 C 78.011719 45.628906 70.195312 49.398438 61.582031 54.621094 C 55.21875 58.484375 54.859375 58.785156 53.757812 61.277344 C 52.296875 64.585938 50.269531 65.5 47.164062 64.257812 C 45.523438 63.601562 45.054688 63.066406 44.230469 60.910156 C 43.113281 57.988281 42.128906 57.15625 33.871094 52.175781 C 22.5625 45.355469 17.136719 43.578125 10.5 44.527344 M 0.078125 47.5 C 0.078125 48.1875 0.191406 48.46875 0.332031 48.125 C 0.46875 47.78125 0.46875 47.21875 0.332031 46.875 C 0.191406 46.53125 0.078125 46.8125 0.078125 47.5 M 47.613281 71.632812 L 46.03125 73.265625 L 46.75 94.726562 L 48.171875 95.226562 C 49.316406 95.628906 49.714844 95.5625 50.199219 94.902344 C 50.574219 94.390625 51.027344 90.0625 51.394531 83.480469 C 51.976562 73.105469 51.964844 72.855469 50.960938 71.441406 C 50.394531 70.648438 49.765625 70 49.5625 70 C 49.363281 70 48.484375 70.734375 47.613281 71.632812 "/>
</g>
</svg>
