<?xml version="1.0" encoding="UTF-8"?>
<svg xmlns="http://www.w3.org/2000/svg" xmlns:xlink="http://www.w3.org/1999/xlink" width="24px" height="24px" viewBox="0 0 24 24" version="1.1">
<g id="surface1">
<path style=" stroke:none;fill-rule:evenodd;fill:rgb(100%,100%,0%);fill-opacity:1;" d="M 6.546875 1.242188 C 6.332031 1.394531 6.335938 1.425781 6.644531 1.992188 C 6.820312 2.316406 7.492188 3.203125 8.132812 3.964844 C 9.5625 5.660156 10.40625 6.792969 10.933594 7.738281 C 11.1875 8.191406 11.351562 8.386719 11.375 8.257812 C 11.453125 7.863281 10.375 6.070312 9.105469 4.476562 C 8.683594 3.945312 8.105469 3.007812 7.769531 2.308594 C 7.160156 1.035156 7.007812 0.902344 6.546875 1.242188 M 10.867188 1.707031 C 10.605469 2.078125 10.621094 2.128906 11.171875 2.726562 C 11.875 3.488281 12.152344 4.191406 12.214844 5.371094 C 12.261719 6.234375 12.292969 6.34375 12.449219 6.214844 C 12.6875 6.019531 12.59375 4.015625 12.308594 3.238281 C 12.042969 2.507812 11.382812 1.441406 11.203125 1.441406 C 11.121094 1.441406 10.96875 1.558594 10.867188 1.707031 M 15.796875 3.210938 C 14.109375 4.699219 12.703125 6.488281 12.101562 7.929688 C 11.730469 8.804688 11.558594 9.875 11.699219 10.402344 C 11.777344 10.691406 11.816406 10.605469 11.953125 9.824219 C 12.175781 8.550781 12.527344 7.683594 13.148438 6.855469 C 13.792969 5.996094 15.53125 4.324219 16.535156 3.59375 C 17.269531 3.0625 17.410156 2.816406 17.136719 2.542969 C 16.890625 2.300781 16.746094 2.371094 15.796875 3.210938 M 3.824219 3.910156 C 3.367188 4.050781 3.496094 7.113281 4.007812 8.226562 C 4.164062 8.570312 4.492188 9.003906 4.753906 9.214844 C 7.183594 11.171875 10.203125 13.476562 10.257812 13.421875 C 10.285156 13.398438 10.144531 13.019531 9.953125 12.585938 C 9.296875 11.097656 9.074219 9.640625 9.351562 8.675781 C 9.4375 8.375 9.386719 8.0625 9.121094 7.210938 C 8.539062 5.335938 7.9375 4.621094 6.542969 4.148438 C 5.953125 3.945312 4.203125 3.796875 3.824219 3.910156 M 17.730469 3.96875 C 17.480469 4.027344 17.019531 4.207031 16.703125 4.367188 C 15.570312 4.941406 13.140625 7.921875 13.804688 7.921875 C 14.054688 7.921875 14.28125 8.753906 14.277344 9.6875 C 14.277344 10.78125 14.164062 11.25 13.597656 12.519531 C 13.367188 13.035156 13.207031 13.488281 13.242188 13.523438 C 13.304688 13.585938 13.988281 13.078125 16.378906 11.199219 C 16.972656 10.734375 17.890625 10.058594 18.421875 9.703125 C 19.285156 9.121094 19.421875 8.96875 19.800781 8.21875 L 20.21875 7.386719 L 20.21875 3.898438 L 19.199219 3.878906 C 18.640625 3.867188 17.976562 3.910156 17.730469 3.96875 M 9.910156 8.660156 C 9.53125 9.203125 9.777344 11.0625 10.390625 12.285156 C 10.558594 12.617188 10.796875 13.320312 10.925781 13.847656 C 11.355469 15.652344 11.808594 15.453125 11.410156 13.636719 C 11.214844 12.738281 11.203125 12.523438 11.335938 12.199219 C 11.464844 11.878906 11.453125 11.605469 11.257812 10.441406 C 11.121094 9.625 10.9375 8.9375 10.8125 8.761719 C 10.523438 8.359375 10.152344 8.316406 9.910156 8.660156 M 12.859375 8.703125 C 12.71875 8.878906 12.5625 9.367188 12.484375 9.871094 C 12.410156 10.351562 12.300781 10.980469 12.242188 11.277344 C 12.167969 11.660156 12.183594 11.921875 12.300781 12.195312 C 12.4375 12.53125 12.429688 12.722656 12.230469 13.636719 C 11.820312 15.507812 12.265625 15.636719 12.726562 13.78125 C 12.875 13.179688 13.125 12.457031 13.28125 12.175781 C 13.605469 11.59375 13.914062 10.285156 13.917969 9.476562 C 13.921875 8.507812 13.34375 8.085938 12.859375 8.703125 M 2.519531 10.6875 C 1.753906 10.796875 0.0859375 11.152344 0.0195312 11.222656 C -0.175781 11.414062 0.4375 12.4375 1.527344 13.746094 C 2.058594 14.386719 2.40625 14.671875 3.011719 14.976562 C 3.71875 15.332031 3.914062 15.375 4.8125 15.378906 C 5.367188 15.382812 6.515625 15.289062 7.367188 15.179688 C 8.429688 15.039062 9.160156 15.003906 9.707031 15.066406 L 10.5 15.160156 L 9.242188 15.316406 C 7.53125 15.527344 6.921875 15.683594 5.96875 16.160156 C 5.523438 16.382812 4.859375 16.675781 4.5 16.808594 C 3.375 17.230469 3.171875 17.898438 3.914062 18.71875 C 4.164062 18.996094 4.726562 19.386719 5.230469 19.636719 C 5.984375 20.007812 6.195312 20.0625 6.710938 20.015625 C 7.71875 19.917969 9.433594 18.679688 10.992188 16.921875 C 11.375 16.492188 11.746094 16.140625 11.824219 16.140625 C 11.898438 16.140625 12.265625 16.492188 12.640625 16.921875 C 14.226562 18.746094 16.078125 20.039062 17.101562 20.039062 C 17.777344 20.039062 19.164062 19.339844 19.726562 18.71875 C 20.523438 17.835938 20.234375 17.199219 18.808594 16.679688 C 18.398438 16.527344 17.789062 16.253906 17.460938 16.070312 C 16.789062 15.695312 15.484375 15.402344 13.859375 15.261719 L 12.78125 15.164062 L 13.597656 15.066406 C 14.21875 14.992188 14.929688 15.035156 16.507812 15.242188 C 20.339844 15.738281 21.113281 15.496094 22.941406 13.214844 C 23.695312 12.273438 24.121094 11.542969 24.117188 11.195312 C 24.117188 11.066406 24.082031 11.03125 24.027344 11.109375 C 23.964844 11.203125 23.683594 11.195312 23.039062 11.078125 C 21.117188 10.738281 20.28125 10.667969 19.582031 10.792969 C 18.722656 10.953125 16.847656 11.855469 14.78125 13.109375 C 13.253906 14.035156 13.167969 14.109375 12.902344 14.707031 C 12.550781 15.5 12.066406 15.71875 11.320312 15.421875 C 10.925781 15.265625 10.8125 15.136719 10.617188 14.617188 C 10.347656 13.917969 10.109375 13.71875 8.128906 12.523438 C 5.414062 10.886719 4.113281 10.457031 2.519531 10.6875 M 0.0195312 11.398438 C 0.0195312 11.566406 0.046875 11.632812 0.078125 11.550781 C 0.113281 11.46875 0.113281 11.332031 0.078125 11.25 C 0.046875 11.167969 0.0195312 11.234375 0.0195312 11.398438 M 11.425781 17.191406 L 11.046875 17.582031 L 11.132812 20.160156 L 11.21875 22.734375 L 11.5625 22.855469 C 11.835938 22.949219 11.933594 22.933594 12.046875 22.777344 C 12.136719 22.652344 12.246094 21.613281 12.335938 20.035156 C 12.472656 17.546875 12.472656 17.484375 12.230469 17.144531 C 12.09375 16.957031 11.945312 16.800781 11.894531 16.800781 C 11.847656 16.800781 11.636719 16.976562 11.425781 17.191406 "/>
</g>
</svg>
