<?xml version="1.0" encoding="UTF-8"?>
<svg xmlns="http://www.w3.org/2000/svg" xmlns:xlink="http://www.w3.org/1999/xlink" width="24px" height="24px" viewBox="0 0 24 24" version="1.1">
<g id="surface1">
<path style=" stroke:none;fill-rule:evenodd;fill:rgb(0%,50.196081%,0%);fill-opacity:1;" d="M 12.667969 1.148438 C 12.566406 1.253906 12.476562 1.429688 12.476562 1.539062 C 12.464844 2.074219 12.027344 6.371094 11.980469 6.417969 C 11.949219 6.449219 11.828125 5.761719 11.710938 4.886719 C 11.59375 4.015625 11.441406 3.234375 11.371094 3.148438 C 11.195312 2.929688 10.707031 2.96875 10.578125 3.210938 C 10.507812 3.34375 10.539062 3.953125 10.675781 4.921875 C 10.882812 6.394531 10.851562 6.667969 10.503906 6.558594 C 10.441406 6.539062 10.0625 5.429688 9.664062 4.09375 C 9.179688 2.46875 8.867188 1.621094 8.730469 1.546875 C 8.425781 1.375 8.039062 1.625 8.039062 1.992188 C 8.039062 2.15625 8.335938 3.273438 8.695312 4.46875 C 9.058594 5.667969 9.339844 6.65625 9.328125 6.671875 C 9.3125 6.683594 8.867188 6.808594 8.339844 6.953125 C 6.824219 7.363281 5.6875 7.972656 4.855469 8.808594 C 3.828125 9.839844 3.546875 10.476562 3.542969 11.761719 C 3.539062 12.652344 3.585938 12.875 3.910156 13.558594 C 4.597656 15.011719 6.066406 16.097656 8.355469 16.851562 C 9.597656 17.257812 10.125 17.710938 10.316406 18.539062 C 10.394531 18.871094 10.679688 19.546875 10.953125 20.039062 C 11.242188 20.566406 11.582031 21.4375 11.765625 22.132812 C 12.214844 23.847656 12.621094 23.984375 13.195312 22.609375 C 13.4375 22.027344 13.496094 21.671875 13.515625 20.613281 C 13.539062 19.347656 13.675781 18.648438 13.996094 18.183594 C 14.296875 17.75 15.128906 17.175781 15.757812 16.972656 C 18.863281 15.957031 20.699219 13.808594 20.480469 11.449219 C 20.308594 9.605469 18.890625 8.074219 16.589844 7.25 C 16.078125 7.066406 15.644531 6.910156 15.628906 6.898438 C 15.609375 6.886719 15.929688 5.996094 16.335938 4.917969 C 17.117188 2.839844 17.136719 2.617188 16.539062 2.542969 C 16.375 2.523438 16.183594 2.578125 16.121094 2.664062 C 16.054688 2.75 15.6875 3.65625 15.3125 4.679688 C 14.933594 5.703125 14.574219 6.589844 14.515625 6.648438 C 14.242188 6.929688 14.304688 6.328125 14.636719 5.527344 C 15.078125 4.460938 15.085938 4.234375 14.703125 4.058594 C 14.273438 3.863281 14.125 4.039062 13.601562 5.363281 C 13.351562 5.992188 13.132812 6.457031 13.113281 6.398438 C 13.09375 6.335938 13.179688 5.183594 13.304688 3.832031 C 13.511719 1.613281 13.515625 1.359375 13.347656 1.171875 C 13.117188 0.910156 12.914062 0.902344 12.667969 1.148438 M 9.460938 7.742188 C 7.125 8.183594 5.300781 9.300781 4.742188 10.632812 C 4.464844 11.300781 4.507812 12.425781 4.84375 13.140625 C 5.375 14.273438 6.742188 15.265625 8.546875 15.820312 C 9.542969 16.128906 9.957031 16.339844 10.503906 16.820312 C 10.996094 17.253906 11.191406 17.59375 11.382812 18.382812 C 11.457031 18.691406 11.726562 19.328125 11.984375 19.800781 L 12.449219 20.65625 L 12.503906 19.691406 C 12.613281 17.800781 13.503906 16.738281 15.667969 15.902344 C 18.296875 14.890625 19.441406 13.632812 19.4375 11.769531 C 19.4375 10.015625 17.921875 8.609375 15.28125 7.90625 C 14.035156 7.574219 10.828125 7.480469 9.460938 7.742188 "/>
</g>
</svg>
