<?xml version="1.0" encoding="UTF-8"?>
<svg xmlns="http://www.w3.org/2000/svg" xmlns:xlink="http://www.w3.org/1999/xlink" width="100px" height="100px" viewBox="0 0 100 100" version="1.1">
<g id="surface1">
<path style=" stroke:none;fill-rule:evenodd;fill:rgb(0%,50.196081%,0%);fill-opacity:1;" d="M 52.785156 4.785156 C 52.351562 5.21875 51.992188 5.949219 51.980469 6.410156 C 51.933594 8.652344 50.117188 26.550781 49.917969 26.75 C 49.792969 26.875 49.285156 24 48.792969 20.363281 C 48.300781 16.726562 47.667969 13.46875 47.386719 13.125 C 46.640625 12.210938 44.609375 12.363281 44.074219 13.375 C 43.773438 13.941406 43.921875 16.464844 44.484375 20.5 C 45.339844 26.636719 45.21875 27.789062 43.773438 27.332031 C 43.507812 27.25 41.929688 22.621094 40.265625 17.050781 C 38.242188 10.285156 36.949219 6.761719 36.375 6.441406 C 35.101562 5.726562 33.5 6.761719 33.5 8.296875 C 33.5 8.988281 34.730469 13.640625 36.234375 18.628906 C 37.738281 23.617188 38.917969 27.742188 38.859375 27.792969 C 38.800781 27.84375 36.949219 28.375 34.75 28.972656 C 28.4375 30.6875 23.691406 33.210938 20.226562 36.703125 C 15.953125 41.007812 14.777344 43.652344 14.761719 49 C 14.75 52.726562 14.941406 53.652344 16.292969 56.5 C 19.164062 62.554688 25.277344 67.078125 34.816406 70.210938 C 39.996094 71.910156 42.183594 73.792969 42.984375 77.25 C 43.304688 78.625 44.496094 81.4375 45.636719 83.5 C 46.84375 85.691406 48.25 89.316406 49.015625 92.21875 C 50.898438 99.371094 52.59375 99.933594 54.980469 94.203125 C 55.992188 91.773438 56.226562 90.300781 56.308594 85.894531 C 56.40625 80.621094 56.988281 77.703125 58.320312 75.761719 C 59.566406 73.957031 63.035156 71.570312 65.660156 70.710938 C 78.59375 66.488281 86.253906 57.53125 85.335938 47.699219 C 84.621094 40.019531 78.710938 33.644531 69.128906 30.214844 C 66.996094 29.449219 65.191406 28.789062 65.117188 28.742188 C 65.046875 28.695312 66.371094 24.984375 68.0625 20.492188 C 71.324219 11.839844 71.40625 10.902344 68.90625 10.597656 C 68.222656 10.515625 67.4375 10.742188 67.164062 11.097656 C 66.886719 11.457031 65.371094 15.238281 63.796875 19.5 C 62.21875 23.761719 60.726562 27.457031 60.480469 27.707031 C 59.339844 28.878906 59.609375 26.371094 60.984375 23.035156 C 62.820312 18.582031 62.863281 17.644531 61.265625 16.914062 C 59.472656 16.097656 58.859375 16.828125 56.675781 22.339844 C 55.636719 24.964844 54.71875 26.90625 54.632812 26.652344 C 54.550781 26.402344 54.914062 21.59375 55.4375 15.972656 C 56.304688 6.726562 56.320312 5.667969 55.621094 4.875 C 54.660156 3.792969 53.804688 3.765625 52.785156 4.785156 M 39.417969 32.253906 C 29.679688 34.09375 22.078125 38.75 19.761719 44.300781 C 18.597656 47.082031 18.785156 51.773438 20.179688 54.75 C 22.398438 59.476562 28.09375 63.601562 35.609375 65.921875 C 39.769531 67.203125 41.488281 68.082031 43.769531 70.082031 C 45.824219 71.886719 46.625 73.316406 47.425781 76.589844 C 47.742188 77.878906 48.867188 80.539062 49.933594 82.5 L 51.867188 86.066406 L 52.101562 82.039062 C 52.554688 74.171875 56.261719 69.738281 65.289062 66.257812 C 76.234375 62.039062 81.007812 56.804688 80.996094 49.035156 C 80.984375 41.730469 74.679688 35.875 63.671875 32.9375 C 58.484375 31.550781 45.117188 31.175781 39.417969 32.253906 "/>
</g>
</svg>
