<?xml version="1.0" encoding="UTF-8"?>
<svg xmlns="http://www.w3.org/2000/svg" xmlns:xlink="http://www.w3.org/1999/xlink" width="100px" height="100px" viewBox="0 0 100 100" version="1.1">
<g id="surface1">
<path style=" stroke:none;fill-rule:evenodd;fill:rgb(0%,50.196081%,0%);fill-opacity:1;" d="M 62.660156 18.820312 C 60 19.761719 56.566406 22.78125 54.507812 25.984375 C 51.003906 31.445312 49.082031 40.511719 48.023438 56.570312 C 47.335938 67 46.308594 71.632812 44.4375 72.789062 C 43.71875 73.234375 44.191406 69.726562 45.519531 64.75 C 47.800781 56.21875 49.046875 41.671875 48.015625 35.589844 C 46.335938 25.660156 38.878906 18.195312 31.625 19.191406 C 27.023438 19.820312 24.496094 22.636719 23.445312 28.308594 C 22.445312 33.722656 24.597656 44.714844 28.730469 55.28125 C 31.351562 61.980469 32.621094 64.550781 36.867188 71.722656 C 38.652344 74.734375 40.167969 77.660156 40.238281 78.222656 C 40.421875 79.675781 41.574219 82 42.113281 82 C 42.359375 82 43.167969 81.269531 43.90625 80.378906 C 44.644531 79.488281 47.949219 75.765625 51.25 72.109375 C 59.972656 62.441406 61.664062 60.355469 65.757812 54.25 C 69.929688 48.019531 74.582031 38.703125 75.726562 34.269531 C 76.621094 30.820312 76.738281 25.691406 75.964844 23.65625 C 74.1875 18.964844 68.300781 16.820312 62.660156 18.820312 M 63.75 20.113281 C 59.261719 21.714844 55.335938 26.304688 53.203125 32.449219 C 51.460938 37.46875 50.269531 45.707031 49.507812 58 C 48.871094 68.308594 48.171875 70.804688 44.734375 75.066406 C 42.242188 78.148438 41.335938 79.847656 42.417969 79.417969 C 42.648438 79.324219 44.1875 77.675781 45.839844 75.75 C 47.492188 73.824219 50.921875 70 53.46875 67.25 C 61.523438 58.542969 66.320312 51.640625 70.742188 42.386719 C 76.410156 30.527344 76.488281 23.449219 70.980469 20.625 C 68.636719 19.421875 66.175781 19.25 63.75 20.113281 M 30.320312 20.988281 C 26.71875 22.132812 25.027344 25.453125 25.011719 31.421875 C 24.992188 38.535156 27.632812 48.988281 31.984375 59.027344 C 33.640625 62.84375 40.417969 75.050781 41.515625 76.199219 C 42.023438 76.726562 42.335938 75.414062 42.703125 71.179688 C 42.851562 69.488281 43.425781 66.453125 43.980469 64.429688 C 46.195312 56.359375 47.496094 41.910156 46.527344 36.171875 C 45.859375 32.210938 43.886719 27.617188 41.773438 25.113281 C 38.925781 21.742188 33.785156 19.886719 30.320312 20.988281 M 65.734375 28.726562 C 65.007812 29.679688 63.675781 31.835938 62.777344 33.523438 L 61.136719 36.589844 L 60.027344 34.796875 C 59.417969 33.808594 58.75 33 58.542969 33 C 57.546875 33 57.636719 33.84375 58.863281 36.023438 L 60.199219 38.40625 L 58.023438 43.5 L 55.847656 48.597656 L 54.71875 45.921875 C 54.097656 44.453125 53.285156 43.25 52.917969 43.25 C 52.085938 43.25 52.222656 43.976562 53.769531 47.75 L 55 50.75 L 52.28125 58 C 50.589844 62.515625 49.742188 65.429688 50.03125 65.726562 C 50.757812 66.464844 51.121094 65.769531 53.738281 58.683594 L 56.160156 52.117188 L 58.957031 50.988281 C 62.261719 49.648438 62.882812 49.179688 62.222656 48.523438 C 61.921875 48.222656 60.941406 48.410156 59.550781 49.035156 C 58.339844 49.574219 57.296875 49.957031 57.230469 49.882812 C 57.164062 49.808594 58.074219 47.5 59.25 44.75 L 61.390625 39.75 L 64.53125 39.5 C 68.703125 39.167969 69.253906 38 65.238281 38 C 62.734375 38 62.433594 37.894531 62.726562 37.125 C 63.394531 35.371094 66.449219 30.222656 67.460938 29.144531 C 68.03125 28.539062 68.5 27.808594 68.5 27.519531 C 68.5 26.417969 66.992188 27.074219 65.734375 28.726562 M 31.5 27.769531 C 31.5 27.917969 31.976562 28.976562 32.5625 30.121094 C 33.636719 32.226562 35.5 37.285156 35.5 38.097656 C 35.5 38.339844 34.660156 37.964844 33.632812 37.269531 C 31.507812 35.824219 31 35.710938 31 36.6875 C 31 37.066406 32.210938 38.210938 33.6875 39.230469 L 36.378906 41.082031 L 37.234375 46.664062 C 37.703125 49.738281 38.191406 52.585938 38.320312 53 C 38.449219 53.414062 37.578125 52.792969 36.382812 51.625 C 34.234375 49.519531 33 48.957031 33 50.082031 C 33 50.402344 34.3125 52.035156 35.914062 53.707031 L 38.832031 56.75 L 39.449219 64.25 C 40.039062 71.417969 40.582031 73.671875 41.285156 71.839844 C 41.460938 71.386719 41.265625 67.390625 40.851562 62.960938 L 40.105469 54.90625 L 42.050781 51.527344 C 44.113281 47.957031 44.390625 47 43.375 47 C 43.03125 47 42.085938 48.183594 41.269531 49.625 L 39.789062 52.25 L 38.917969 47.042969 C 38.4375 44.179688 37.945312 41.574219 37.820312 41.253906 C 37.695312 40.929688 38.710938 39.359375 40.074219 37.761719 C 41.90625 35.617188 42.40625 34.710938 41.992188 34.300781 C 41.574219 33.894531 40.886719 34.386719 39.386719 36.15625 L 37.34375 38.558594 L 36.257812 35.15625 C 34.824219 30.675781 33.160156 27.5 32.238281 27.5 C 31.832031 27.5 31.5 27.621094 31.5 27.769531 "/>
</g>
</svg>
