<?xml version="1.0" encoding="UTF-8"?>
<svg xmlns="http://www.w3.org/2000/svg" xmlns:xlink="http://www.w3.org/1999/xlink" width="24px" height="24px" viewBox="0 0 24 24" version="1.1">
<g id="surface1">
<path style=" stroke:none;fill-rule:evenodd;fill:rgb(0%,50.196081%,0%);fill-opacity:1;" d="M 15.039062 4.515625 C 14.398438 4.742188 13.574219 5.46875 13.082031 6.238281 C 12.242188 7.546875 11.78125 9.722656 11.523438 13.578125 C 11.359375 16.082031 11.113281 17.191406 10.664062 17.46875 C 10.492188 17.574219 10.605469 16.734375 10.925781 15.539062 C 11.472656 13.492188 11.769531 10 11.523438 8.542969 C 11.121094 6.160156 9.332031 4.367188 7.589844 4.605469 C 6.484375 4.757812 5.878906 5.433594 5.628906 6.792969 C 5.386719 8.09375 5.902344 10.730469 6.894531 13.265625 C 7.523438 14.875 7.828125 15.492188 8.847656 17.214844 C 9.277344 17.9375 9.640625 18.636719 9.65625 18.773438 C 9.699219 19.121094 9.976562 19.679688 10.105469 19.679688 C 10.167969 19.679688 10.359375 19.503906 10.539062 19.292969 C 10.714844 19.078125 11.507812 18.183594 12.300781 17.304688 C 14.394531 14.984375 14.800781 14.484375 15.78125 13.019531 C 16.785156 11.523438 17.898438 9.289062 18.175781 8.226562 C 18.390625 7.398438 18.417969 6.164062 18.230469 5.679688 C 17.804688 4.550781 16.390625 4.039062 15.039062 4.515625 M 15.300781 4.828125 C 14.222656 5.210938 13.28125 6.3125 12.769531 7.789062 C 12.351562 8.992188 12.0625 10.96875 11.882812 13.921875 C 11.730469 16.394531 11.5625 16.992188 10.734375 18.015625 C 10.136719 18.753906 9.921875 19.164062 10.179688 19.058594 C 10.234375 19.039062 10.605469 18.640625 11 18.179688 C 11.398438 17.71875 12.222656 16.800781 12.832031 16.140625 C 14.765625 14.050781 15.917969 12.394531 16.976562 10.171875 C 18.339844 7.328125 18.355469 5.628906 17.035156 4.949219 C 16.472656 4.660156 15.882812 4.621094 15.300781 4.828125 M 7.277344 5.039062 C 6.410156 5.3125 6.007812 6.109375 6.003906 7.542969 C 6 9.25 6.632812 11.757812 7.675781 14.167969 C 8.074219 15.082031 9.699219 18.011719 9.964844 18.289062 C 10.085938 18.414062 10.160156 18.097656 10.25 17.082031 C 10.285156 16.675781 10.421875 15.949219 10.554688 15.464844 C 11.085938 13.527344 11.398438 10.058594 11.167969 8.679688 C 11.007812 7.730469 10.53125 6.628906 10.027344 6.027344 C 9.34375 5.21875 8.109375 4.773438 7.277344 5.039062 M 15.777344 6.894531 C 15.601562 7.121094 15.28125 7.640625 15.066406 8.046875 L 14.671875 8.78125 L 14.40625 8.351562 C 14.261719 8.113281 14.101562 7.921875 14.050781 7.921875 C 13.8125 7.921875 13.832031 8.121094 14.125 8.644531 L 14.449219 9.21875 L 13.402344 11.664062 L 13.132812 11.023438 C 12.984375 10.667969 12.789062 10.378906 12.699219 10.378906 C 12.5 10.378906 12.535156 10.554688 12.90625 11.460938 L 13.199219 12.179688 L 12.546875 13.921875 C 12.140625 15.003906 11.9375 15.703125 12.007812 15.773438 C 12.183594 15.949219 12.269531 15.785156 12.898438 14.085938 L 13.480469 12.507812 L 14.148438 12.238281 C 14.941406 11.914062 15.089844 11.804688 14.933594 11.644531 C 14.863281 11.574219 14.625 11.617188 14.292969 11.769531 C 14 11.898438 13.75 11.988281 13.734375 11.972656 C 13.71875 11.953125 13.9375 11.398438 14.21875 10.738281 L 14.734375 9.539062 L 15.488281 9.480469 C 16.488281 9.398438 16.621094 9.121094 15.65625 9.121094 C 15.054688 9.121094 14.984375 9.09375 15.054688 8.910156 C 15.214844 8.488281 15.949219 7.253906 16.191406 6.996094 C 16.328125 6.847656 16.441406 6.671875 16.441406 6.605469 C 16.441406 6.339844 16.078125 6.5 15.777344 6.894531 M 7.558594 6.664062 C 7.558594 6.699219 7.675781 6.953125 7.816406 7.230469 C 8.074219 7.734375 8.519531 8.949219 8.519531 9.144531 C 8.519531 9.199219 8.320312 9.113281 8.070312 8.945312 C 7.5625 8.597656 7.441406 8.570312 7.441406 8.804688 C 7.441406 8.894531 7.730469 9.171875 8.085938 9.414062 L 8.730469 9.859375 L 8.9375 11.199219 C 9.046875 11.9375 9.167969 12.621094 9.199219 12.71875 C 9.226562 12.820312 9.019531 12.671875 8.730469 12.390625 C 8.214844 11.886719 7.921875 11.75 7.921875 12.019531 C 7.921875 12.097656 8.234375 12.488281 8.621094 12.890625 L 9.320312 13.621094 L 9.46875 15.421875 C 9.609375 17.140625 9.738281 17.679688 9.910156 17.242188 C 9.949219 17.132812 9.902344 16.171875 9.804688 15.109375 L 9.625 13.179688 L 10.09375 12.367188 C 10.585938 11.507812 10.652344 11.28125 10.410156 11.28125 C 10.328125 11.28125 10.101562 11.5625 9.90625 11.910156 L 9.550781 12.539062 L 9.339844 11.289062 C 9.226562 10.605469 9.105469 9.976562 9.078125 9.902344 C 9.046875 9.824219 9.289062 9.445312 9.617188 9.0625 C 10.058594 8.546875 10.175781 8.332031 10.078125 8.234375 C 9.976562 8.136719 9.8125 8.253906 9.453125 8.675781 L 8.964844 9.253906 L 8.703125 8.4375 C 8.359375 7.363281 7.957031 6.601562 7.738281 6.601562 C 7.640625 6.601562 7.558594 6.628906 7.558594 6.664062 "/>
</g>
</svg>
