<?xml version="1.0" encoding="UTF-8"?>
<svg xmlns="http://www.w3.org/2000/svg" xmlns:xlink="http://www.w3.org/1999/xlink" width="100px" height="100px" viewBox="0 0 100 100" version="1.1">
<g id="surface1">
<path style=" stroke:none;fill-rule:evenodd;fill:rgb(0%,0%,0%);fill-opacity:1;" d="M 34.75 0.929688 C 31.4375 2.976562 30.058594 5.878906 30.023438 10.875 L 30 14 L 22.871094 14 C 18.949219 14 14.976562 14.21875 14.042969 14.488281 C 11.941406 15.089844 10.199219 16.671875 8.953125 19.105469 C 8.0625 20.839844 8 22.289062 8 41.175781 C 8 59.148438 8.085938 61.425781 8.789062 61.695312 C 9.226562 61.863281 12.039062 62 15.039062 62 L 20.5 62 L 20.5 66.5 L 16.351562 66.5 C 13.789062 66.5 11.96875 66.730469 11.601562 67.101562 C 10.710938 67.992188 10.78125 82.515625 11.683594 84.640625 C 12.5 86.550781 14.230469 88.238281 16.109375 88.949219 C 17.449219 89.457031 17.464844 89.523438 17.609375 94.605469 L 17.75 99.75 L 24.441406 99.890625 C 33.484375 100.078125 33.5 100.066406 33.5 93.738281 L 33.5 89 L 69.964844 89 L 70.109375 94.375 L 70.25 99.75 L 77.109375 99.890625 C 85.953125 100.066406 85.996094 100.035156 86.003906 93.375 L 86.011719 88.75 L 87.984375 87.921875 C 91.503906 86.441406 91.996094 84.96875 91.996094 75.902344 C 92 66.480469 92.011719 66.5 86.136719 66.5 L 82.5 66.5 L 82.5 62 L 86.136719 62 C 88.621094 62 90.128906 61.753906 90.886719 61.222656 L 92 60.445312 L 92 21.339844 L 90.738281 19.183594 C 89.957031 17.851562 88.570312 16.496094 87.113281 15.636719 C 84.90625 14.34375 84.308594 14.238281 78.125 14.074219 L 71.5 13.902344 L 71.488281 10.824219 C 71.472656 5.84375 69.414062 2.457031 65.382812 0.773438 C 63.867188 0.140625 61.074219 0 49.890625 0.00390625 C 37.484375 0.00390625 36.113281 0.0859375 34.75 0.929688 M 36.699219 5.382812 C 35.460938 6.210938 35 8.175781 35 12.640625 C 35 19.238281 35.402344 19 24.171875 19 C 15.414062 19 15.144531 19.03125 14.085938 20.15625 C 13.011719 21.300781 13 21.527344 13 39.15625 L 13 57 L 87 57 L 87 39.71875 C 87 28.820312 86.808594 22.078125 86.484375 21.472656 C 85.390625 19.425781 83.484375 19 75.375 19 C 70.070312 19 67.515625 18.816406 67.101562 18.398438 C 66.714844 18.015625 66.5 16.035156 66.5 12.863281 C 66.5 8.070312 66.457031 7.878906 65.039062 6.460938 L 63.578125 5 L 50.414062 5.007812 C 43.171875 5.011719 37.003906 5.179688 36.699219 5.382812 M 16.601562 26.101562 C 15.828125 26.871094 15.828125 28.628906 16.601562 29.398438 C 16.953125 29.753906 18.65625 30 20.75 30 C 24.503906 30 25.5 29.527344 25.5 27.75 C 25.5 25.972656 24.503906 25.5 20.75 25.5 C 18.65625 25.5 16.953125 25.746094 16.601562 26.101562 M 32.601562 26.101562 C 31.828125 26.871094 31.828125 28.628906 32.601562 29.398438 C 33.265625 30.066406 45.847656 30.257812 46.785156 29.617188 C 47.761719 28.949219 47.933594 27.628906 47.183594 26.558594 C 46.492188 25.570312 45.996094 25.5 39.820312 25.5 C 35.339844 25.5 33.007812 25.695312 32.601562 26.101562 M 54.601562 26.101562 C 53.828125 26.871094 53.828125 28.628906 54.601562 29.398438 C 55.433594 30.234375 68.566406 30.234375 69.398438 29.398438 C 69.730469 29.070312 70 28.328125 70 27.75 C 70 27.171875 69.730469 26.429688 69.398438 26.101562 C 68.566406 25.265625 55.433594 25.265625 54.601562 26.101562 M 74.976562 26.542969 C 74.554688 27.332031 74.542969 27.949219 74.9375 28.8125 C 75.441406 29.917969 75.753906 30 79.503906 30 C 83.21875 30 83.566406 29.914062 83.96875 28.875 C 84.257812 28.132812 84.1875 27.410156 83.769531 26.75 C 83.238281 25.917969 82.492188 25.726562 79.34375 25.605469 C 75.894531 25.472656 75.503906 25.554688 74.976562 26.542969 M 16.601562 37.101562 C 15.714844 37.984375 15.871094 39.726562 16.914062 40.671875 C 18.121094 41.765625 22.855469 41.796875 24.386719 40.722656 C 25.597656 39.875 25.855469 38.054688 24.898438 37.101562 C 24.101562 36.304688 17.398438 36.304688 16.601562 37.101562 M 32.601562 37.101562 C 31.648438 38.050781 31.871094 40.394531 32.96875 40.984375 C 34.386719 41.742188 45.617188 41.652344 46.585938 40.875 C 47.78125 39.910156 47.996094 38.71875 47.183594 37.558594 C 46.492188 36.570312 45.996094 36.5 39.820312 36.5 C 35.339844 36.5 33.007812 36.695312 32.601562 37.101562 M 54.785156 37.285156 C 53.675781 38.394531 53.808594 39.808594 55.113281 40.722656 C 55.960938 41.316406 57.578125 41.5 62 41.5 C 68.15625 41.5 70 40.925781 70 39.007812 C 70 36.875 68.804688 36.5 62 36.5 C 56.824219 36.5 55.417969 36.652344 54.785156 37.285156 M 75.328125 37.414062 C 74.246094 38.609375 74.285156 39.285156 75.5 40.5 C 76.277344 41.277344 77.167969 41.5 79.5 41.5 C 81.832031 41.5 82.722656 41.277344 83.5 40.5 C 84.703125 39.296875 84.722656 39.042969 83.722656 37.613281 C 83.046875 36.648438 82.488281 36.5 79.550781 36.5 C 76.894531 36.5 75.972656 36.699219 75.328125 37.414062 M 16.785156 48.285156 C 15.78125 49.289062 15.78125 50.710938 16.785156 51.714844 C 17.878906 52.808594 23.621094 52.808594 24.714844 51.714844 C 25.71875 50.710938 25.71875 49.289062 24.714844 48.285156 C 24.164062 47.734375 22.972656 47.5 20.75 47.5 C 18.527344 47.5 17.335938 47.734375 16.785156 48.285156 M 32.875 48.039062 C 31.664062 48.746094 31.722656 51.316406 32.96875 51.984375 C 33.5 52.265625 36.757812 52.5 40.207031 52.5 C 46.34375 52.5 46.496094 52.472656 47.296875 51.25 C 48.054688 50.09375 48.054688 49.90625 47.296875 48.75 C 46.492188 47.523438 46.355469 47.5 40.113281 47.515625 C 36.613281 47.523438 33.355469 47.757812 32.875 48.039062 M 54.828125 48.414062 C 53.753906 49.601562 53.78125 50.644531 54.914062 51.671875 C 55.664062 52.347656 56.964844 52.5 62.085938 52.5 C 67.515625 52.5 68.453125 52.378906 69.171875 51.585938 C 70.246094 50.398438 70.21875 49.355469 69.085938 48.328125 C 68.335938 47.652344 67.035156 47.5 61.914062 47.5 C 56.484375 47.5 55.546875 47.621094 54.828125 48.414062 M 75.328125 48.414062 C 73.214844 50.75 75.066406 52.5 79.652344 52.5 C 82.648438 52.5 83.058594 52.375 83.796875 51.25 C 84.554688 50.09375 84.554688 49.90625 83.796875 48.75 C 83.054688 47.617188 82.652344 47.5 79.566406 47.5 C 76.898438 47.5 75.976562 47.699219 75.328125 48.414062 M 25.5 64.25 L 25.5 66.5 L 77.5 66.5 L 77.5 62 L 25.5 62 L 25.5 64.25 M 16 77.398438 C 16 83.90625 16.234375 84.5 18.8125 84.5 C 21.484375 84.5 22.5 86.3125 22.5 91.066406 L 22.5 95 L 28.5 95 L 28.5 90.101562 C 28.5 86.957031 28.714844 84.984375 29.101562 84.601562 C 29.546875 84.152344 35.097656 84 50.988281 84 C 69.449219 84 72.425781 84.101562 73.386719 84.777344 C 74.402344 85.488281 74.5 85.964844 74.5 90.277344 L 74.5 95 L 81 95 L 81 90.101562 C 81 84.742188 81.320312 84 83.632812 84 C 86.773438 84 87 83.546875 87 77.234375 L 87 71.5 L 16 71.5 L 16 77.398438 "/>
</g>
</svg>
