<?xml version="1.0" encoding="UTF-8"?>
<svg xmlns="http://www.w3.org/2000/svg" xmlns:xlink="http://www.w3.org/1999/xlink" width="24px" height="24px" viewBox="0 0 24 24" version="1.1">
<g id="surface1">
<path style=" stroke:none;fill-rule:evenodd;fill:rgb(0%,0%,0%);fill-opacity:1;" d="M 8.339844 0.222656 C 7.542969 0.714844 7.214844 1.410156 7.207031 2.609375 L 7.199219 3.359375 L 5.488281 3.359375 C 4.546875 3.359375 3.59375 3.414062 3.371094 3.476562 C 2.867188 3.621094 2.449219 4 2.148438 4.585938 C 1.933594 5 1.921875 5.347656 1.921875 9.882812 C 1.921875 14.195312 1.941406 14.742188 2.109375 14.808594 C 2.214844 14.847656 2.890625 14.878906 3.609375 14.878906 L 4.921875 14.878906 L 4.921875 15.960938 L 3.925781 15.960938 C 3.308594 15.960938 2.871094 16.015625 2.785156 16.105469 C 2.570312 16.316406 2.585938 19.804688 2.804688 20.3125 C 3 20.773438 3.414062 21.175781 3.867188 21.347656 C 4.1875 21.46875 4.191406 21.484375 4.226562 22.707031 L 4.261719 23.941406 L 5.867188 23.972656 C 8.035156 24.019531 8.039062 24.015625 8.039062 22.496094 L 8.039062 21.359375 L 16.792969 21.359375 L 16.824219 22.648438 L 16.859375 23.941406 L 18.507812 23.972656 C 20.628906 24.015625 20.640625 24.007812 20.640625 22.410156 L 20.640625 21.300781 L 21.117188 21.101562 C 21.960938 20.746094 22.078125 20.394531 22.078125 18.21875 C 22.082031 15.957031 22.082031 15.960938 20.671875 15.960938 L 19.800781 15.960938 L 19.800781 14.878906 L 20.671875 14.878906 C 21.269531 14.878906 21.632812 14.820312 21.8125 14.691406 L 22.078125 14.507812 L 22.078125 5.121094 L 21.777344 4.605469 C 21.589844 4.285156 21.257812 3.957031 20.90625 3.753906 C 20.378906 3.441406 20.234375 3.417969 18.75 3.378906 L 17.160156 3.335938 L 17.15625 2.597656 C 17.152344 1.402344 16.660156 0.589844 15.691406 0.1875 C 15.328125 0.0351562 14.65625 0 11.972656 0 C 8.996094 0 8.667969 0.0195312 8.339844 0.222656 M 8.808594 1.292969 C 8.511719 1.492188 8.398438 1.960938 8.398438 3.035156 C 8.398438 4.617188 8.496094 4.558594 5.800781 4.558594 C 3.699219 4.558594 3.636719 4.566406 3.382812 4.835938 C 3.125 5.113281 3.121094 5.167969 3.121094 9.398438 L 3.121094 13.679688 L 20.878906 13.679688 L 20.878906 9.53125 C 20.878906 6.917969 20.835938 5.300781 20.757812 5.152344 C 20.492188 4.660156 20.035156 4.558594 18.089844 4.558594 C 16.816406 4.558594 16.203125 4.515625 16.105469 4.414062 C 16.011719 4.324219 15.960938 3.847656 15.960938 3.085938 C 15.960938 1.9375 15.949219 1.890625 15.609375 1.550781 L 15.257812 1.199219 L 12.097656 1.203125 C 10.363281 1.203125 8.878906 1.242188 8.808594 1.292969 M 3.984375 6.265625 C 3.800781 6.449219 3.800781 6.871094 3.984375 7.054688 C 4.070312 7.140625 4.476562 7.199219 4.980469 7.199219 C 5.878906 7.199219 6.121094 7.085938 6.121094 6.660156 C 6.121094 6.234375 5.878906 6.121094 4.980469 6.121094 C 4.476562 6.121094 4.070312 6.179688 3.984375 6.265625 M 7.824219 6.265625 C 7.640625 6.449219 7.640625 6.871094 7.824219 7.054688 C 7.984375 7.214844 11.003906 7.261719 11.230469 7.109375 C 11.464844 6.949219 11.503906 6.632812 11.324219 6.375 C 11.160156 6.136719 11.039062 6.121094 9.558594 6.121094 C 8.480469 6.121094 7.921875 6.167969 7.824219 6.265625 M 13.105469 6.265625 C 12.917969 6.449219 12.917969 6.871094 13.105469 7.054688 C 13.304688 7.257812 16.457031 7.257812 16.65625 7.054688 C 16.734375 6.976562 16.800781 6.796875 16.800781 6.660156 C 16.800781 6.519531 16.734375 6.34375 16.65625 6.265625 C 16.457031 6.0625 13.304688 6.0625 13.105469 6.265625 M 17.996094 6.371094 C 17.894531 6.558594 17.890625 6.707031 17.984375 6.914062 C 18.105469 7.179688 18.179688 7.199219 19.082031 7.199219 C 19.972656 7.199219 20.054688 7.179688 20.152344 6.929688 C 20.222656 6.75 20.207031 6.578125 20.105469 6.421875 C 19.976562 6.21875 19.796875 6.175781 19.042969 6.144531 C 18.214844 6.113281 18.121094 6.132812 17.996094 6.371094 M 3.984375 8.902344 C 3.773438 9.117188 3.808594 9.535156 4.058594 9.761719 C 4.347656 10.023438 5.484375 10.03125 5.851562 9.773438 C 6.144531 9.570312 6.207031 9.132812 5.976562 8.902344 C 5.785156 8.710938 4.175781 8.710938 3.984375 8.902344 M 7.824219 8.902344 C 7.597656 9.132812 7.648438 9.695312 7.910156 9.835938 C 8.253906 10.019531 10.949219 9.996094 11.179688 9.808594 C 11.46875 9.578125 11.519531 9.292969 11.324219 9.015625 C 11.160156 8.777344 11.039062 8.761719 9.558594 8.761719 C 8.480469 8.761719 7.921875 8.804688 7.824219 8.902344 M 13.148438 8.949219 C 12.882812 9.214844 12.914062 9.554688 13.226562 9.773438 C 13.429688 9.917969 13.820312 9.960938 14.878906 9.960938 C 16.359375 9.960938 16.800781 9.820312 16.800781 9.363281 C 16.800781 8.851562 16.511719 8.761719 14.878906 8.761719 C 13.636719 8.761719 13.300781 8.796875 13.148438 8.949219 M 18.078125 8.980469 C 17.820312 9.265625 17.828125 9.429688 18.121094 9.71875 C 18.308594 9.90625 18.519531 9.960938 19.078125 9.960938 C 19.640625 9.960938 19.851562 9.90625 20.039062 9.71875 C 20.328125 9.429688 20.332031 9.371094 20.09375 9.027344 C 19.929688 8.796875 19.796875 8.761719 19.089844 8.761719 C 18.453125 8.761719 18.234375 8.808594 18.078125 8.980469 M 4.027344 11.589844 C 3.789062 11.828125 3.789062 12.171875 4.027344 12.410156 C 4.292969 12.675781 5.667969 12.675781 5.929688 12.410156 C 6.171875 12.171875 6.171875 11.828125 5.929688 11.589844 C 5.800781 11.457031 5.511719 11.398438 4.980469 11.398438 C 4.445312 11.398438 4.160156 11.457031 4.027344 11.589844 M 7.890625 11.53125 C 7.597656 11.699219 7.613281 12.316406 7.910156 12.476562 C 8.039062 12.542969 8.820312 12.601562 9.648438 12.601562 C 11.121094 12.601562 11.160156 12.59375 11.351562 12.300781 C 11.53125 12.023438 11.53125 11.976562 11.351562 11.699219 C 11.15625 11.40625 11.125 11.398438 9.628906 11.402344 C 8.789062 11.40625 8.003906 11.460938 7.890625 11.53125 M 13.160156 11.621094 C 12.902344 11.90625 12.90625 12.15625 13.179688 12.402344 C 13.359375 12.5625 13.671875 12.601562 14.902344 12.601562 C 16.203125 12.601562 16.429688 12.570312 16.601562 12.378906 C 16.859375 12.09375 16.851562 11.84375 16.582031 11.597656 C 16.402344 11.4375 16.089844 11.398438 14.859375 11.398438 C 13.554688 11.398438 13.332031 11.429688 13.160156 11.621094 M 18.078125 11.621094 C 17.570312 12.179688 18.015625 12.601562 19.117188 12.601562 C 19.835938 12.601562 19.933594 12.570312 20.109375 12.300781 C 20.292969 12.023438 20.292969 11.976562 20.109375 11.699219 C 19.933594 11.429688 19.835938 11.398438 19.097656 11.398438 C 18.457031 11.398438 18.234375 11.449219 18.078125 11.621094 M 6.121094 15.421875 L 6.121094 15.960938 L 18.601562 15.960938 L 18.601562 14.878906 L 6.121094 14.878906 L 6.121094 15.421875 M 3.839844 18.574219 C 3.839844 20.136719 3.898438 20.28125 4.515625 20.28125 C 5.15625 20.28125 5.398438 20.714844 5.398438 21.855469 L 5.398438 22.800781 L 6.839844 22.800781 L 6.839844 21.625 C 6.839844 20.871094 6.890625 20.394531 6.984375 20.304688 C 7.089844 20.195312 8.421875 20.160156 12.238281 20.160156 C 16.667969 20.160156 17.382812 20.183594 17.613281 20.347656 C 17.855469 20.515625 17.878906 20.632812 17.878906 21.667969 L 17.878906 22.800781 L 19.441406 22.800781 L 19.441406 21.625 C 19.441406 20.339844 19.515625 20.160156 20.070312 20.160156 C 20.824219 20.160156 20.878906 20.050781 20.878906 18.535156 L 20.878906 17.160156 L 3.839844 17.160156 L 3.839844 18.574219 "/>
</g>
</svg>
