<?xml version="1.0" encoding="UTF-8"?>
<svg xmlns="http://www.w3.org/2000/svg" xmlns:xlink="http://www.w3.org/1999/xlink" width="100px" height="100px" viewBox="0 0 100 100" version="1.1">
<g id="surface1">
<path style=" stroke:none;fill-rule:evenodd;fill:rgb(50.196081%,0%,50.196081%);fill-opacity:1;" d="M 46.875 24.492188 C 45.921875 25.242188 45.644531 25.875 45.742188 27.09375 C 45.90625 29.175781 46.75 29.417969 48.414062 27.863281 C 49.148438 27.179688 50.410156 26.28125 51.21875 25.871094 L 52.6875 25.121094 L 51.117188 24.3125 C 49.085938 23.257812 48.402344 23.289062 46.875 24.492188 M 39.652344 27.429688 C 34.921875 31.386719 34.742188 31.667969 35.441406 34 C 35.957031 35.722656 36.238281 36 37.460938 36 C 38.554688 36 39.015625 35.667969 39.480469 34.546875 C 39.8125 33.746094 41.078125 32.054688 42.292969 30.789062 C 44.421875 28.5625 44.839844 27.46875 44.195312 25.789062 C 43.703125 24.503906 42.71875 24.859375 39.652344 27.429688 M 56.832031 25.832031 C 56.222656 26.441406 56.488281 27.414062 57.875 29.703125 C 58.914062 31.414062 59.558594 31.972656 60.511719 31.984375 C 62.292969 32.007812 63.625 33.078125 65.492188 35.984375 C 66.378906 37.367188 67.175781 38.5 67.265625 38.5 C 67.574219 38.5 66.625 35.691406 65.738281 33.972656 C 64.699219 31.960938 58.609375 25.5 57.75 25.5 C 57.429688 25.5 57.015625 25.648438 56.832031 25.832031 M 49.371094 28.375 C 48.058594 29.746094 48.058594 29.753906 49.007812 31 C 49.53125 31.6875 50.453125 33.5625 51.054688 35.164062 C 51.996094 37.671875 52.296875 38.039062 53.199219 37.796875 C 53.777344 37.640625 54.390625 37.511719 54.566406 37.507812 C 54.738281 37.503906 55.152344 36.839844 55.484375 36.035156 C 55.820312 35.230469 56.511719 34.191406 57.027344 33.726562 C 57.867188 32.964844 57.890625 32.738281 57.265625 31.527344 C 54.992188 27.128906 51.785156 25.851562 49.371094 28.375 M 43.554688 31.761719 C 42.480469 32.730469 41.242188 34.28125 40.804688 35.203125 C 40.042969 36.808594 40.0625 36.984375 41.199219 39.066406 C 41.859375 40.269531 42.519531 41.699219 42.667969 42.25 C 42.816406 42.800781 43.191406 44.214844 43.496094 45.394531 L 44.050781 47.539062 L 45.984375 44.644531 C 47.046875 43.054688 48.5 41.203125 49.207031 40.539062 C 49.917969 39.871094 50.5 38.921875 50.5 38.429688 C 50.5 36.015625 47.226562 30 45.914062 30 C 45.6875 30 44.625 30.792969 43.554688 31.761719 M 32.113281 33.132812 C 31.527344 33.753906 30.570312 35.34375 29.984375 36.667969 C 28.855469 39.222656 28.058594 44.507812 28.804688 44.488281 C 29.050781 44.480469 29.683594 43.53125 30.214844 42.382812 C 30.746094 41.234375 32.109375 39.363281 33.246094 38.226562 L 35.308594 36.164062 L 34.425781 34.082031 C 33.9375 32.9375 33.457031 32 33.359375 32 C 33.257812 32 32.695312 32.507812 32.113281 33.132812 M 58.886719 33.984375 C 58.199219 34.523438 57.347656 35.65625 57 36.503906 C 56.460938 37.804688 56.488281 38.28125 57.1875 39.644531 C 57.640625 40.527344 58.746094 43.050781 59.644531 45.25 C 60.925781 48.382812 61.523438 49.285156 62.394531 49.410156 C 63.113281 49.515625 63.617188 49.25 63.820312 48.660156 C 63.996094 48.160156 64.808594 46.308594 65.632812 44.546875 L 67.125 41.347656 L 66.078125 39.191406 C 64.875 36.71875 61.683594 33 60.757812 33 C 60.414062 33 59.574219 33.441406 58.886719 33.984375 M 34.953125 37.855469 C 33.09375 39.898438 32.074219 41.683594 30.714844 45.300781 C 29.363281 48.886719 29.085938 53.742188 30.144531 55.191406 C 30.71875 55.976562 30.867188 55.789062 31.453125 53.5 C 32.171875 50.6875 35.171875 47 36.738281 47 C 37.921875 47 40.8125 48.8125 41.738281 50.136719 C 42.144531 50.714844 42.601562 51.0625 42.757812 50.910156 C 43.355469 50.3125 41.332031 42.59375 39.832031 39.75 C 37.976562 36.234375 36.835938 35.789062 34.953125 37.855469 M 50.269531 41.164062 C 48.835938 42.675781 46.820312 45.679688 45.59375 48.121094 C 43.691406 51.90625 43.515625 52.535156 44.089844 53.457031 C 44.449219 54.03125 45.078125 54.5 45.496094 54.503906 C 45.910156 54.503906 46.898438 55.023438 47.691406 55.660156 L 49.132812 56.8125 L 51.324219 54.472656 C 52.652344 53.050781 54.695312 51.601562 56.507812 50.785156 C 58.152344 50.046875 59.5 49.265625 59.5 49.050781 C 59.5 48.285156 57.609375 43.175781 56.582031 41.164062 C 55.609375 39.253906 54.695312 38.5 53.351562 38.5 C 53.042969 38.5 51.652344 39.699219 50.269531 41.164062 M 68.871094 42.375 C 68.148438 43.132812 66.953125 45.070312 66.214844 46.679688 C 64.988281 49.359375 64.929688 49.773438 65.507812 51.527344 C 65.886719 52.671875 66.015625 54.367188 65.832031 55.726562 L 65.519531 58.007812 L 67.632812 57.679688 C 68.796875 57.496094 69.917969 57.101562 70.128906 56.800781 C 71.160156 55.292969 72 50.882812 72 46.949219 C 72 40.601562 71.402344 39.726562 68.871094 42.375 M 24.535156 45.933594 C 23.695312 47.503906 23.90625 51.023438 25.035156 54.371094 C 26.222656 57.886719 26.558594 58.246094 29.125 58.707031 C 31.359375 59.109375 31.59375 58.414062 29.785156 56.738281 C 28.390625 55.445312 27.285156 51.925781 27.722656 50.179688 C 28.035156 48.925781 27.078125 46.601562 25.816406 45.554688 C 25.203125 45.046875 24.972656 45.113281 24.535156 45.933594 M 34.808594 50.128906 C 33.074219 52.402344 32.5 54.15625 32.507812 57.15625 L 32.511719 59.75 L 36.007812 62.34375 L 39.5 64.9375 L 39.5 62.710938 C 39.5 60.449219 41.011719 56.527344 42.292969 55.464844 C 42.683594 55.140625 42.992188 54.625 42.980469 54.3125 C 42.929688 52.90625 38.140625 48.511719 36.652344 48.503906 C 36.320312 48.5 35.492188 49.230469 34.808594 50.128906 M 73.242188 51.125 C 73.050781 52.292969 72.460938 54.570312 71.921875 56.183594 C 70.539062 60.347656 70.816406 61.097656 73.003906 59.144531 C 74.707031 57.621094 74.753906 57.472656 74.925781 53.289062 C 75.074219 49.714844 74.976562 49 74.34375 49 C 73.84375 49 73.472656 49.710938 73.242188 51.125 M 59.421875 51.195312 C 55.183594 52.710938 50.5 56.410156 50.5 58.242188 C 50.5 58.609375 51.175781 60.335938 52 62.078125 C 52.824219 63.824219 53.5 65.53125 53.5 65.875 C 53.5 66.929688 53.953125 66.609375 56.800781 63.535156 C 58.308594 61.902344 60.523438 60.09375 61.71875 59.515625 C 64.082031 58.371094 64.484375 57.570312 64.492188 53.976562 C 64.503906 50.5 63.265625 49.824219 59.421875 51.195312 M 43.347656 56.894531 C 40.949219 59.542969 40.261719 65.601562 41.945312 69.25 C 43.449219 72.507812 44.765625 73.375 48.800781 73.769531 L 52.351562 74.113281 L 52.65625 72.59375 C 53.410156 68.816406 50.746094 60.976562 47.539062 57.539062 C 45.910156 55.796875 44.53125 55.585938 43.347656 56.894531 M 64.496094 58.96875 C 61.246094 59.957031 58.488281 62.234375 55.375 66.5 C 53.808594 68.648438 53.5 73.503906 54.933594 73.496094 C 57.527344 73.480469 65.828125 67.941406 67.894531 64.84375 C 69.363281 62.648438 69.914062 59.570312 68.949219 58.957031 C 68.121094 58.433594 66.238281 58.4375 64.496094 58.96875 M 25.5 60.011719 C 25.5 61.890625 30.707031 67.699219 34.261719 69.785156 C 36.214844 70.929688 42 73.15625 42 72.765625 C 42 72.664062 41.398438 71.386719 40.667969 69.925781 C 38.929688 66.46875 35.300781 62.976562 31.433594 61.046875 C 28.382812 59.519531 25.5 59.015625 25.5 60.011719 M 56.5 73.59375 C 54.359375 74.378906 52.640625 74.589844 48.75 74.539062 C 46 74.5 43.019531 74.339844 42.125 74.179688 C 40.851562 73.953125 40.5 74.058594 40.5 74.679688 C 40.5 76.277344 43.152344 77 49.023438 77 C 55.324219 77 57.253906 76.398438 58.675781 73.992188 C 59.160156 73.171875 59.488281 72.519531 59.402344 72.542969 C 59.320312 72.566406 58.011719 73.039062 56.5 73.59375 "/>
</g>
</svg>
