<?xml version="1.0" encoding="UTF-8"?>
<svg xmlns="http://www.w3.org/2000/svg" xmlns:xlink="http://www.w3.org/1999/xlink" width="24px" height="24px" viewBox="0 0 24 24" version="1.1">
<g id="surface1">
<path style=" stroke:none;fill-rule:evenodd;fill:rgb(50.196081%,0%,50.196081%);fill-opacity:1;" d="M 11.25 5.878906 C 11.019531 6.058594 10.953125 6.210938 10.976562 6.503906 C 11.015625 7.003906 11.21875 7.0625 11.621094 6.6875 C 11.796875 6.523438 12.097656 6.308594 12.292969 6.210938 L 12.644531 6.03125 L 12.269531 5.835938 C 11.78125 5.582031 11.617188 5.589844 11.25 5.878906 M 9.515625 6.582031 C 8.382812 7.53125 8.339844 7.601562 8.507812 8.160156 C 8.628906 8.574219 8.695312 8.640625 8.992188 8.640625 C 9.253906 8.640625 9.363281 8.558594 9.476562 8.292969 C 9.554688 8.097656 9.859375 7.691406 10.148438 7.390625 C 10.660156 6.855469 10.761719 6.59375 10.605469 6.191406 C 10.488281 5.882812 10.253906 5.964844 9.515625 6.582031 M 13.640625 6.199219 C 13.492188 6.347656 13.558594 6.578125 13.890625 7.128906 C 14.140625 7.539062 14.292969 7.671875 14.523438 7.675781 C 14.949219 7.679688 15.269531 7.9375 15.71875 8.636719 C 15.929688 8.96875 16.121094 9.238281 16.144531 9.238281 C 16.21875 9.238281 15.988281 8.566406 15.777344 8.152344 C 15.527344 7.671875 14.066406 6.121094 13.859375 6.121094 C 13.78125 6.121094 13.683594 6.15625 13.640625 6.199219 M 11.847656 6.808594 C 11.535156 7.140625 11.535156 7.140625 11.761719 7.441406 C 11.886719 7.605469 12.109375 8.054688 12.253906 8.4375 C 12.480469 9.039062 12.550781 9.128906 12.769531 9.070312 C 12.90625 9.035156 13.054688 9.003906 13.09375 9 C 13.136719 9 13.238281 8.84375 13.316406 8.648438 C 13.394531 8.457031 13.5625 8.207031 13.6875 8.09375 C 13.886719 7.910156 13.894531 7.855469 13.742188 7.566406 C 13.199219 6.511719 12.429688 6.203125 11.847656 6.808594 M 10.453125 7.621094 C 10.195312 7.855469 9.898438 8.226562 9.792969 8.449219 C 9.609375 8.835938 9.613281 8.875 9.886719 9.375 C 10.046875 9.664062 10.203125 10.007812 10.242188 10.140625 C 10.277344 10.273438 10.367188 10.613281 10.4375 10.894531 L 10.570312 11.410156 L 11.035156 10.714844 C 11.292969 10.332031 11.640625 9.890625 11.808594 9.730469 C 11.980469 9.570312 12.121094 9.339844 12.121094 9.222656 C 12.121094 8.644531 11.335938 7.199219 11.019531 7.199219 C 10.964844 7.199219 10.710938 7.390625 10.453125 7.621094 M 7.707031 7.953125 C 7.566406 8.101562 7.335938 8.484375 7.195312 8.800781 C 6.925781 9.414062 6.734375 10.683594 6.914062 10.675781 C 6.972656 10.675781 7.125 10.449219 7.25 10.171875 C 7.378906 9.894531 7.707031 9.445312 7.980469 9.175781 L 8.472656 8.679688 L 8.261719 8.179688 C 8.144531 7.90625 8.03125 7.679688 8.003906 7.679688 C 7.980469 7.679688 7.847656 7.800781 7.707031 7.953125 M 14.132812 8.15625 C 13.96875 8.285156 13.765625 8.558594 13.679688 8.761719 C 13.550781 9.074219 13.558594 9.1875 13.726562 9.515625 C 13.832031 9.726562 14.097656 10.332031 14.316406 10.859375 C 14.621094 11.613281 14.765625 11.828125 14.972656 11.859375 C 15.148438 11.882812 15.269531 11.820312 15.316406 11.679688 C 15.359375 11.558594 15.554688 11.113281 15.75 10.691406 L 16.109375 9.921875 L 15.859375 9.40625 C 15.570312 8.8125 14.804688 7.921875 14.582031 7.921875 C 14.5 7.921875 14.296875 8.027344 14.132812 8.15625 M 8.390625 9.085938 C 7.941406 9.574219 7.699219 10.003906 7.371094 10.871094 C 7.046875 11.730469 6.980469 12.898438 7.234375 13.246094 C 7.371094 13.433594 7.40625 13.390625 7.546875 12.839844 C 7.722656 12.164062 8.441406 11.28125 8.816406 11.28125 C 9.101562 11.28125 9.796875 11.714844 10.015625 12.03125 C 10.113281 12.171875 10.222656 12.253906 10.261719 12.21875 C 10.40625 12.074219 9.917969 10.222656 9.558594 9.539062 C 9.113281 8.695312 8.839844 8.589844 8.390625 9.085938 M 12.0625 9.878906 C 11.722656 10.242188 11.238281 10.964844 10.941406 11.550781 C 10.484375 12.457031 10.445312 12.609375 10.582031 12.828125 C 10.667969 12.96875 10.820312 13.082031 10.917969 13.082031 C 11.019531 13.082031 11.253906 13.207031 11.445312 13.359375 L 11.792969 13.636719 L 12.316406 13.074219 C 12.636719 12.730469 13.125 12.382812 13.5625 12.1875 C 13.957031 12.011719 14.28125 11.824219 14.28125 11.773438 C 14.28125 11.589844 13.828125 10.363281 13.578125 9.878906 C 13.347656 9.421875 13.125 9.238281 12.804688 9.238281 C 12.730469 9.238281 12.398438 9.527344 12.0625 9.878906 M 16.527344 10.171875 C 16.355469 10.351562 16.070312 10.816406 15.890625 11.203125 C 15.597656 11.847656 15.582031 11.945312 15.722656 12.367188 C 15.8125 12.640625 15.84375 13.046875 15.800781 13.375 L 15.722656 13.921875 L 16.230469 13.84375 C 16.511719 13.800781 16.78125 13.703125 16.832031 13.632812 C 17.078125 13.269531 17.28125 12.210938 17.28125 11.269531 C 17.28125 9.742188 17.136719 9.535156 16.527344 10.171875 M 5.886719 11.023438 C 5.6875 11.402344 5.738281 12.246094 6.007812 13.050781 C 6.292969 13.894531 6.375 13.980469 6.988281 14.089844 C 7.527344 14.1875 7.582031 14.019531 7.148438 13.617188 C 6.8125 13.308594 6.546875 12.460938 6.652344 12.042969 C 6.730469 11.742188 6.5 11.183594 6.195312 10.933594 C 6.050781 10.8125 5.992188 10.828125 5.886719 11.023438 M 8.355469 12.03125 C 7.9375 12.578125 7.800781 12.996094 7.800781 13.71875 L 7.804688 14.339844 L 8.640625 14.960938 L 9.480469 15.585938 L 9.480469 15.050781 C 9.480469 14.507812 9.84375 13.566406 10.148438 13.3125 C 10.242188 13.234375 10.316406 13.109375 10.316406 13.035156 C 10.304688 12.699219 9.152344 11.644531 8.796875 11.640625 C 8.71875 11.640625 8.519531 11.816406 8.355469 12.03125 M 17.578125 12.269531 C 17.53125 12.550781 17.390625 13.097656 17.261719 13.484375 C 16.929688 14.484375 16.996094 14.664062 17.519531 14.195312 C 17.929688 13.828125 17.941406 13.792969 17.980469 12.789062 C 18.019531 11.929688 17.996094 11.761719 17.84375 11.761719 C 17.722656 11.761719 17.632812 11.929688 17.578125 12.269531 M 14.261719 12.289062 C 13.246094 12.652344 12.121094 13.539062 12.121094 13.976562 C 12.121094 14.066406 12.28125 14.480469 12.480469 14.898438 C 12.679688 15.316406 12.839844 15.726562 12.839844 15.808594 C 12.839844 16.0625 12.949219 15.984375 13.632812 15.246094 C 13.996094 14.855469 14.527344 14.421875 14.8125 14.285156 C 15.378906 14.007812 15.476562 13.816406 15.476562 12.953125 C 15.480469 12.121094 15.183594 11.957031 14.261719 12.289062 M 10.402344 13.65625 C 9.828125 14.289062 9.664062 15.746094 10.066406 16.621094 C 10.425781 17.402344 10.746094 17.609375 11.710938 17.703125 L 12.566406 17.789062 L 12.636719 17.421875 C 12.820312 16.515625 12.179688 14.632812 11.410156 13.808594 C 11.019531 13.390625 10.6875 13.339844 10.402344 13.65625 M 15.480469 14.152344 C 14.699219 14.390625 14.035156 14.9375 13.289062 15.960938 C 12.914062 16.476562 12.839844 17.640625 13.183594 17.640625 C 13.808594 17.636719 15.796875 16.304688 16.296875 15.5625 C 16.648438 15.035156 16.777344 14.296875 16.546875 14.148438 C 16.347656 14.023438 15.898438 14.023438 15.480469 14.152344 M 6.121094 14.402344 C 6.121094 14.855469 7.371094 16.246094 8.222656 16.746094 C 8.691406 17.023438 10.078125 17.558594 10.078125 17.464844 C 10.078125 17.4375 9.9375 17.132812 9.761719 16.78125 C 9.34375 15.953125 8.472656 15.113281 7.542969 14.652344 C 6.8125 14.285156 6.121094 14.164062 6.121094 14.402344 M 13.558594 17.664062 C 13.046875 17.851562 12.632812 17.902344 11.699219 17.890625 C 11.039062 17.878906 10.324219 17.84375 10.109375 17.804688 C 9.804688 17.75 9.71875 17.773438 9.71875 17.921875 C 9.71875 18.308594 10.355469 18.480469 11.765625 18.480469 C 13.277344 18.480469 13.742188 18.335938 14.082031 17.757812 C 14.199219 17.5625 14.277344 17.40625 14.257812 17.410156 C 14.238281 17.417969 13.921875 17.53125 13.558594 17.664062 "/>
</g>
</svg>
