<?xml version="1.0" encoding="UTF-8"?>
<svg xmlns="http://www.w3.org/2000/svg" xmlns:xlink="http://www.w3.org/1999/xlink" width="24px" height="24px" viewBox="0 0 24 24" version="1.1">
<g id="surface1">
<path style=" stroke:none;fill-rule:evenodd;fill:rgb(0%,0%,0%);fill-opacity:1;" d="M 3.300781 0.765625 C 3.082031 0.925781 3.082031 0.953125 3.398438 1.648438 C 3.574219 2.046875 3.71875 2.550781 3.714844 2.773438 L 3.714844 3.179688 L 3.359375 2.792969 C 3.167969 2.578125 2.921875 2.105469 2.816406 1.742188 C 2.703125 1.363281 2.554688 1.078125 2.460938 1.078125 C 2.171875 1.078125 1.921875 1.222656 1.921875 1.386719 C 1.921875 1.726562 2.316406 2.714844 2.609375 3.101562 C 2.871094 3.449219 2.878906 3.488281 2.671875 3.378906 C 2.3125 3.183594 1.695312 2.4375 1.605469 2.085938 C 1.539062 1.816406 1.484375 1.785156 1.164062 1.847656 C 0.960938 1.890625 0.777344 1.945312 0.75 1.972656 C 0.636719 2.082031 1.199219 3.113281 1.585938 3.5 C 2.074219 3.988281 2.644531 4.28125 3.320312 4.386719 C 3.792969 4.464844 3.8125 4.484375 4.1875 5.40625 C 5.527344 8.679688 8.429688 11.171875 11.925781 12.058594 L 13.019531 12.335938 L 13.011719 14.179688 C 13 16.800781 12.535156 18.953125 11.542969 21 L 11.105469 21.898438 L 11.023438 20.851562 C 10.941406 19.839844 10.625 18.886719 10.183594 18.335938 C 10.03125 18.144531 10.003906 18.144531 9.75 18.355469 L 9.480469 18.578125 L 9.867188 19.398438 C 10.195312 20.097656 10.253906 20.355469 10.253906 21.140625 C 10.257812 21.648438 10.222656 22.097656 10.179688 22.140625 C 10.039062 22.277344 8.398438 21.359375 7.9375 20.882812 C 7.683594 20.625 7.308594 20.085938 7.09375 19.691406 C 6.730469 19.003906 6.695312 18.976562 6.414062 19.105469 C 6.253906 19.179688 6.121094 19.285156 6.121094 19.34375 C 6.121094 19.664062 6.945312 20.996094 7.445312 21.484375 C 8.035156 22.058594 10.210938 23.28125 10.644531 23.28125 C 11.023438 23.28125 12.273438 22.816406 13.265625 22.308594 C 14.296875 21.78125 15.347656 21.0625 16.234375 20.277344 L 16.8125 19.769531 L 16.546875 19.488281 L 16.285156 19.207031 L 15.613281 19.785156 C 14.75 20.527344 13.699219 21.234375 12.753906 21.707031 C 12.34375 21.910156 11.976562 22.078125 11.941406 22.078125 C 11.90625 22.078125 12.058594 21.714844 12.28125 21.269531 C 13.289062 19.253906 13.917969 16.261719 13.917969 13.472656 C 13.921875 12.203125 13.765625 12.347656 15.398438 12.113281 C 17.800781 11.773438 19.933594 10.457031 21.199219 8.539062 C 21.445312 8.167969 21.878906 7.652344 22.167969 7.394531 C 22.820312 6.816406 23.179688 6.125 23.203125 5.410156 C 23.21875 4.875 23.210938 4.859375 22.863281 4.859375 C 22.523438 4.859375 22.5 4.894531 22.417969 5.445312 C 22.289062 6.355469 22.066406 6.449219 22.105469 5.578125 L 22.140625 4.859375 L 21.421875 4.859375 L 21.359375 5.71875 C 21.328125 6.195312 21.261719 6.617188 21.21875 6.660156 C 21.089844 6.789062 20.742188 6.015625 20.65625 5.410156 C 20.59375 4.957031 20.53125 4.851562 20.304688 4.820312 C 20.082031 4.789062 20.144531 4.726562 20.660156 4.460938 C 21.4375 4.0625 21.957031 3.429688 22.046875 2.773438 C 22.109375 2.289062 22.105469 2.28125 21.746094 2.28125 C 21.433594 2.28125 21.367188 2.335938 21.300781 2.644531 C 21.21875 3.003906 20.703125 3.71875 20.527344 3.71875 C 20.472656 3.71875 20.558594 3.46875 20.714844 3.160156 C 20.925781 2.746094 21 2.398438 21 1.839844 C 21 1.082031 21 1.078125 20.65625 1.078125 C 20.320312 1.078125 20.3125 1.097656 20.25 1.859375 C 20.203125 2.453125 20.101562 2.773438 19.832031 3.1875 C 19.515625 3.671875 19.460938 3.710938 19.316406 3.535156 C 19.226562 3.429688 19.066406 2.925781 18.960938 2.421875 C 18.800781 1.683594 18.71875 1.492188 18.53125 1.46875 C 18.039062 1.402344 17.980469 1.574219 18.175781 2.503906 C 18.277344 2.980469 18.445312 3.539062 18.550781 3.742188 L 18.746094 4.113281 L 18.257812 4.050781 C 17.988281 4.015625 17.613281 3.871094 17.421875 3.734375 C 17.085938 3.496094 17.0625 3.496094 16.875 3.703125 C 16.769531 3.820312 16.679688 3.980469 16.679688 4.054688 C 16.679688 4.292969 17.714844 4.804688 18.347656 4.882812 C 18.683594 4.921875 18.960938 4.964844 18.960938 4.976562 C 18.960938 4.992188 18.859375 5.296875 18.734375 5.65625 C 18.15625 7.335938 17.460938 8.28125 15.785156 9.644531 C 15.089844 10.214844 14.519531 10.628906 14.519531 10.570312 C 14.519531 10.507812 14.808594 9.738281 15.160156 8.859375 C 15.929688 6.953125 16.035156 6.53125 16.144531 5.03125 C 16.222656 3.941406 16.242188 3.875 16.574219 3.652344 C 17.277344 3.179688 18 1.839844 18 1 C 18 0.769531 17.9375 0.71875 17.640625 0.71875 C 17.347656 0.71875 17.273438 0.78125 17.214844 1.050781 C 17.117188 1.503906 16.785156 2.421875 16.734375 2.375 C 16.710938 2.351562 16.742188 2.117188 16.804688 1.855469 C 16.863281 1.59375 16.914062 1.230469 16.917969 1.050781 C 16.917969 0.753906 16.878906 0.71875 16.5 0.71875 C 16.089844 0.71875 16.078125 0.730469 16.078125 1.199219 C 16.078125 1.460938 15.992188 1.894531 15.886719 2.160156 L 15.691406 2.644531 L 15.347656 2.191406 C 15.160156 1.945312 14.921875 1.488281 14.816406 1.179688 C 14.628906 0.628906 14.617188 0.621094 14.273438 0.742188 C 14.078125 0.808594 13.921875 0.933594 13.921875 1.015625 C 13.921875 1.101562 14.105469 1.542969 14.332031 1.996094 L 14.746094 2.820312 L 14.273438 2.316406 C 13.984375 2.007812 13.746094 1.597656 13.65625 1.261719 C 13.515625 0.746094 13.484375 0.710938 13.144531 0.746094 C 12.820312 0.777344 12.785156 0.820312 12.816406 1.128906 C 12.914062 2.015625 13.875 3.230469 14.910156 3.777344 C 15.355469 4.011719 15.359375 4.023438 15.359375 4.746094 C 15.359375 5.148438 15.300781 5.796875 15.230469 6.1875 C 15.085938 6.972656 13.476562 11.160156 13.320312 11.160156 C 13.199219 11.160156 12.511719 10.226562 12.085938 9.480469 C 11.636719 8.699219 11.066406 6.90625 10.972656 5.980469 L 10.890625 5.183594 L 11.574219 4.859375 C 12.339844 4.496094 12.71875 4.007812 12.71875 3.390625 C 12.71875 3.039062 12.683594 3 12.375 3 C 12.089844 3 12.019531 3.0625 11.960938 3.34375 C 11.894531 3.675781 11.597656 4.078125 11.421875 4.078125 C 11.375 4.078125 11.339844 3.597656 11.339844 3.011719 C 11.339844 2.421875 11.304688 1.90625 11.265625 1.863281 C 11.222656 1.824219 11.046875 1.824219 10.875 1.867188 C 10.570312 1.941406 10.558594 1.976562 10.558594 2.824219 C 10.558594 4.3125 10.25 4.019531 10.171875 2.460938 C 10.140625 1.867188 10.132812 1.859375 9.75 1.859375 C 9.457031 1.863281 9.359375 1.808594 9.359375 1.652344 C 9.359375 1.5 9.265625 1.441406 9.015625 1.441406 C 8.707031 1.441406 8.652344 1.496094 8.535156 1.972656 C 8.332031 2.777344 8.203125 2.71875 8.257812 1.84375 L 8.308594 1.0625 L 7.90625 1.101562 L 7.5 1.140625 L 7.433594 2.007812 C 7.394531 2.484375 7.328125 2.910156 7.285156 2.953125 C 7.054688 3.1875 6.367188 2.039062 6.363281 1.410156 C 6.359375 1.121094 6.3125 1.078125 5.984375 1.078125 L 5.609375 1.078125 L 5.664062 1.734375 C 5.699219 2.171875 5.824219 2.542969 6.039062 2.871094 C 6.386719 3.394531 6.316406 3.46875 5.757812 3.179688 C 5.414062 3 5.402344 3.007812 5.21875 3.363281 L 5.03125 3.726562 L 5.546875 3.960938 C 5.828125 4.089844 6.308594 4.195312 6.617188 4.199219 L 7.171875 4.199219 L 7.375 5.011719 C 7.824219 6.8125 8.960938 8.742188 10.421875 10.183594 C 11.398438 11.148438 11.332031 11.183594 9.898438 10.472656 C 7.652344 9.359375 5.789062 7.34375 4.863281 5.023438 L 4.546875 4.230469 L 4.972656 3.425781 C 5.339844 2.734375 5.398438 2.507812 5.398438 1.820312 C 5.394531 0.890625 5.300781 0.683594 4.90625 0.738281 C 4.636719 0.777344 4.621094 0.820312 4.660156 1.464844 C 4.679688 1.839844 4.644531 2.242188 4.574219 2.363281 C 4.453125 2.566406 4.445312 2.566406 4.445312 2.339844 C 4.4375 2.039062 3.765625 0.601562 3.628906 0.601562 C 3.570312 0.601562 3.425781 0.675781 3.300781 0.765625 M 9.132812 2.59375 C 9.042969 2.847656 8.734375 3.28125 8.449219 3.550781 L 7.925781 4.042969 L 8.167969 4.933594 C 8.300781 5.421875 8.625 6.253906 8.886719 6.785156 C 9.382812 7.792969 10.695312 9.546875 11.207031 9.882812 C 11.5 10.074219 11.5 10.0625 11.09375 9.207031 C 10.660156 8.285156 10.203125 6.6875 10.199219 6.070312 C 10.195312 5.5625 10.09375 5.449219 9.546875 5.347656 C 9.09375 5.265625 8.28125 4.621094 8.28125 4.34375 C 8.28125 4.277344 8.429688 4.171875 8.613281 4.109375 C 8.894531 4.007812 8.972656 4.035156 9.15625 4.277344 C 9.273438 4.433594 9.472656 4.558594 9.601562 4.558594 C 9.820312 4.558594 9.820312 4.535156 9.648438 4.050781 C 9.546875 3.769531 9.425781 3.222656 9.382812 2.832031 L 9.300781 2.125 L 9.132812 2.59375 M 19.464844 5.914062 C 18.921875 7.664062 17.945312 8.925781 15.839844 10.609375 L 14.820312 11.421875 L 15.421875 11.335938 C 16.875 11.132812 18.28125 10.464844 19.386719 9.453125 C 20.097656 8.800781 20.820312 7.851562 20.671875 7.757812 C 20.621094 7.726562 20.324219 7.664062 20.011719 7.617188 C 19.433594 7.53125 19.386719 7.472656 19.515625 6.996094 C 19.570312 6.777344 19.644531 6.742188 19.921875 6.796875 L 20.257812 6.867188 L 20.09375 6.34375 C 20.003906 6.054688 19.886719 5.640625 19.835938 5.417969 C 19.742188 5.027344 19.734375 5.035156 19.464844 5.914062 "/>
</g>
</svg>
