<?xml version="1.0" encoding="UTF-8"?>
<svg xmlns="http://www.w3.org/2000/svg" xmlns:xlink="http://www.w3.org/1999/xlink" width="100px" height="100px" viewBox="0 0 100 100" version="1.1">
<g id="surface1">
<path style=" stroke:none;fill-rule:evenodd;fill:rgb(0%,0%,0%);fill-opacity:1;" d="M 75.375 0.285156 C 75.167969 0.496094 74.996094 2.371094 74.992188 4.457031 C 74.972656 12.671875 72.109375 20.121094 66.136719 27.5 C 62.246094 32.308594 54.917969 38.664062 49.4375 41.984375 C 46.253906 43.914062 45.371094 44.21875 43 44.21875 C 41.488281 44.21875 38.800781 43.808594 37.03125 43.308594 C 34.585938 42.613281 32.601562 42.441406 28.78125 42.585938 C 24.4375 42.75 23.300781 42.988281 20.476562 44.316406 C 14.941406 46.914062 11.710938 50.433594 9.515625 56.25 C 8.273438 59.542969 7.945312 66.183594 8.914062 68.5 C 9.347656 69.539062 9.441406 69.160156 9.46875 66.230469 C 9.570312 54.972656 15.941406 47.226562 26.5 45.53125 C 29.976562 44.972656 34.847656 44.816406 34.386719 45.28125 C 34.234375 45.433594 32.5625 45.777344 30.679688 46.039062 C 20.292969 47.488281 14.464844 52.148438 12.308594 60.730469 C 11.488281 64.003906 11.3125 69.222656 11.949219 71.5 C 12.273438 72.660156 12.492188 72.460938 14.976562 68.75 C 22.242188 57.90625 25.679688 54.496094 32.554688 51.296875 C 37.328125 49.078125 39.460938 48.535156 36.25 50.359375 C 27.929688 55.082031 20.070312 63.117188 15.945312 71.125 L 14.980469 73 L 16.042969 73 C 17.871094 73 23.074219 71.480469 25.566406 70.21875 C 29.972656 67.984375 34.496094 63.996094 39.148438 58.25 C 41.671875 55.128906 41.195312 56.570312 38.222656 61.042969 C 34.015625 67.367188 26.929688 72.523438 20.023438 74.277344 C 18.222656 74.734375 16.414062 75.226562 16 75.371094 C 14.65625 75.847656 17.527344 76.398438 21.640625 76.449219 C 30.503906 76.5625 38.289062 71.605469 42.160156 63.378906 C 42.84375 61.933594 43.875 58.503906 44.453125 55.757812 C 45.078125 52.796875 45.960938 50.125 46.628906 49.191406 C 47.246094 48.324219 50.675781 45.308594 54.25 42.488281 C 68.695312 31.097656 74.96875 22.597656 79.792969 7.875 C 81.5625 2.472656 81.652344 1.9375 80.910156 1.195312 C 80.039062 0.324219 75.992188 -0.339844 75.375 0.285156 M 39.125 5.832031 C 38.367188 6.136719 38.300781 9.191406 39.015625 10.53125 C 39.347656 11.152344 40.0625 11.5 41.007812 11.5 C 46.136719 11.5 55.015625 18.101562 60.113281 25.703125 C 61.234375 27.378906 62.246094 28.859375 62.363281 28.992188 C 62.476562 29.125 62.988281 28.679688 63.496094 28.003906 L 64.425781 26.773438 L 62.128906 24.011719 C 56.179688 16.859375 49.347656 10.640625 43.6875 7.234375 C 40.820312 5.507812 40.3125 5.351562 39.125 5.832031 M 66.902344 33.761719 C 66.402344 34.867188 66.621094 35.625 68.664062 39.867188 L 71.003906 44.710938 L 69.058594 46.730469 C 66.675781 49.207031 66.109375 50.277344 65.511719 53.445312 C 64.484375 58.847656 67.136719 66.828125 71.078125 70.199219 C 76.984375 75.257812 83.839844 75.761719 87.753906 71.429688 C 90.53125 68.355469 91.554688 65.632812 91.554688 61.320312 C 91.554688 55.957031 89.578125 51.515625 85.378906 47.441406 C 82.734375 44.871094 80.234375 43.597656 76.914062 43.121094 L 74.292969 42.742188 L 71.269531 37.632812 C 69.609375 34.824219 68.078125 32.519531 67.863281 32.511719 C 67.652344 32.507812 67.21875 33.066406 66.902344 33.761719 M 50.382812 63.257812 C 44.511719 65.414062 38.859375 71.871094 37.148438 78.375 C 33.457031 92.429688 46.261719 104.589844 58.015625 98.191406 C 64.320312 94.761719 66.980469 87.773438 65.949219 77.347656 C 65.246094 70.234375 62.859375 65.46875 59.027344 63.511719 C 56.722656 62.335938 53.171875 62.230469 50.382812 63.257812 M 47.917969 71.003906 C 44.222656 71.65625 41.609375 74.445312 40.238281 79.195312 C 38.476562 85.292969 41.191406 93.238281 45.949219 95.910156 C 50.097656 98.242188 57.277344 96.691406 60.226562 92.828125 C 63.933594 87.964844 63.816406 79.171875 59.980469 74.804688 C 57.480469 71.957031 52.105469 70.265625 47.917969 71.003906 M 45.851562 76.816406 C 45.238281 77.425781 45.472656 80.269531 46.214844 81.28125 C 47.277344 82.71875 48.097656 81.585938 47.90625 78.945312 C 47.757812 76.855469 46.800781 75.867188 45.851562 76.816406 M 54.546875 77.191406 C 53.890625 77.984375 54.757812 78.5 56.738281 78.5 C 57.851562 78.5 58.746094 77.410156 58.132812 76.800781 C 57.566406 76.234375 55.121094 76.5 54.546875 77.191406 M 56 77.5 C 56 77.773438 56.226562 78 56.5 78 C 56.773438 78 57 77.773438 57 77.5 C 57 77.226562 56.773438 77 56.5 77 C 56.226562 77 56 77.226562 56 77.5 M 46.597656 78.75 C 46.609375 79.574219 46.71875 79.851562 46.847656 79.367188 C 46.972656 78.878906 46.964844 78.203125 46.828125 77.867188 C 46.691406 77.527344 46.585938 77.925781 46.597656 78.75 M 53 84.523438 C 53 85.738281 55.269531 88.160156 56.140625 87.871094 C 57.324219 87.480469 57.085938 85.640625 55.710938 84.558594 C 54.011719 83.222656 53 83.207031 53 84.523438 M 54 84.863281 C 54 85.492188 55.429688 86.738281 55.765625 86.402344 C 55.898438 86.269531 55.554688 85.753906 55.003906 85.253906 C 54.453125 84.753906 54 84.578125 54 84.863281 M 43.453125 87.304688 C 42.886719 87.988281 42.929688 88.214844 43.738281 88.804688 C 45.402344 90.019531 48 89.53125 48 88 C 48 86.40625 44.628906 85.890625 43.453125 87.304688 M 44.25 88 C 44.421875 88.273438 45.109375 88.5 45.78125 88.5 C 46.449219 88.5 47 88.273438 47 88 C 47 87.726562 46.3125 87.5 45.46875 87.5 C 44.578125 87.5 44.070312 87.707031 44.25 88 M 49.832031 91.832031 C 48.574219 93.09375 51.015625 94.765625 53.285156 94.195312 C 54.664062 93.851562 54.941406 92.277344 53.710938 91.804688 C 52.652344 91.398438 50.25 91.417969 49.832031 91.832031 M 50.75 92.5 C 50.566406 92.796875 51.117188 92.996094 52.09375 92.992188 C 53.347656 92.988281 53.566406 92.867188 53 92.5 C 52.027344 91.871094 51.136719 91.871094 50.75 92.5 "/>
</g>
</svg>
