<?xml version="1.0" encoding="UTF-8"?>
<svg xmlns="http://www.w3.org/2000/svg" xmlns:xlink="http://www.w3.org/1999/xlink" width="100px" height="100px" viewBox="0 0 100 100" version="1.1">
<g id="surface1">
<path style=" stroke:none;fill-rule:evenodd;fill:rgb(0%,0%,0%);fill-opacity:1;" d="M 13.75 3.1875 C 12.835938 3.855469 12.847656 3.96875 14.152344 6.875 C 14.894531 8.527344 15.492188 10.632812 15.484375 11.5625 L 15.46875 13.25 L 14.003906 11.636719 C 13.195312 10.75 12.171875 8.78125 11.730469 7.261719 C 11.269531 5.675781 10.640625 4.5 10.253906 4.5 C 9.042969 4.5 8 5.09375 8 5.785156 C 8 7.199219 9.652344 11.316406 10.867188 12.925781 C 11.957031 14.375 11.992188 14.53125 11.132812 14.070312 C 9.632812 13.265625 7.058594 10.152344 6.691406 8.691406 C 6.40625 7.5625 6.175781 7.441406 4.84375 7.707031 C 4.007812 7.875 3.230469 8.101562 3.121094 8.214844 C 2.652344 8.683594 5.003906 12.96875 6.609375 14.578125 C 8.644531 16.613281 11.023438 17.832031 13.828125 18.28125 C 15.800781 18.597656 15.878906 18.6875 17.453125 22.53125 C 23.023438 36.160156 35.117188 46.554688 49.695312 50.25 L 54.25 51.40625 L 54.210938 59.078125 C 54.160156 70.003906 52.230469 78.96875 48.09375 87.5 L 46.273438 91.25 L 45.929688 86.886719 C 45.597656 82.664062 44.273438 78.691406 42.433594 76.398438 C 41.792969 75.601562 41.679688 75.605469 40.628906 76.476562 L 39.507812 77.402344 L 41.117188 80.828125 C 42.488281 83.746094 42.726562 84.816406 42.730469 88.089844 C 42.734375 90.203125 42.59375 92.074219 42.417969 92.246094 C 41.835938 92.828125 35 89 33.070312 87.011719 C 32.023438 85.933594 30.445312 83.699219 29.566406 82.046875 C 28.039062 79.1875 27.902344 79.066406 26.730469 79.597656 C 26.054688 79.90625 25.5 80.355469 25.5 80.59375 C 25.5 81.933594 28.933594 87.488281 31.015625 89.515625 C 33.476562 91.914062 42.546875 97 44.359375 97 C 45.933594 97 51.140625 95.070312 55.277344 92.953125 C 59.566406 90.761719 63.949219 87.765625 67.652344 84.492188 L 70.050781 82.371094 L 68.953125 81.199219 L 67.851562 80.027344 L 65.050781 82.4375 C 61.464844 85.523438 57.082031 88.46875 53.140625 90.441406 C 51.429688 91.300781 49.90625 92 49.757812 92 C 49.609375 92 50.246094 90.480469 51.171875 88.625 C 55.367188 80.230469 57.984375 67.757812 57.996094 56.132812 C 58 50.851562 57.359375 51.441406 64.164062 50.476562 C 74.164062 49.054688 83.0625 43.570312 88.324219 35.585938 C 89.347656 34.027344 91.167969 31.878906 92.367188 30.8125 C 95.082031 28.398438 96.578125 25.523438 96.675781 22.546875 C 96.746094 20.3125 96.707031 20.25 95.257812 20.25 C 93.847656 20.25 93.742188 20.390625 93.414062 22.695312 C 92.871094 26.476562 91.941406 26.867188 92.109375 23.238281 L 92.25 20.25 L 89.25 20.25 L 89 23.835938 C 88.863281 25.804688 88.597656 27.570312 88.410156 27.757812 C 87.875 28.289062 86.425781 25.070312 86.066406 22.546875 C 85.800781 20.660156 85.539062 20.222656 84.605469 20.089844 C 83.671875 19.953125 83.933594 19.6875 86.085938 18.589844 C 89.324219 16.929688 91.488281 14.292969 91.855469 11.558594 C 92.128906 9.535156 92.105469 9.5 90.605469 9.5 C 89.3125 9.5 89.027344 9.730469 88.746094 11.011719 C 88.417969 12.507812 86.269531 15.5 85.523438 15.5 C 85.308594 15.5 85.667969 14.449219 86.316406 13.164062 C 87.191406 11.441406 87.5 10 87.5 7.664062 C 87.5 4.515625 87.492188 4.5 86.070312 4.5 C 84.667969 4.5 84.632812 4.566406 84.375 7.753906 C 84.175781 10.21875 83.757812 11.554688 82.636719 13.277344 C 81.320312 15.300781 81.089844 15.460938 80.488281 14.734375 C 80.117188 14.289062 79.445312 12.195312 78.996094 10.085938 C 78.34375 7.011719 77.992188 6.222656 77.214844 6.121094 C 75.164062 5.851562 74.921875 6.5625 75.734375 10.429688 C 76.152344 12.414062 76.855469 14.738281 77.296875 15.59375 L 78.101562 17.144531 L 76.074219 16.875 C 74.960938 16.722656 73.390625 16.132812 72.589844 15.5625 C 71.1875 14.566406 71.101562 14.558594 70.316406 15.425781 C 69.867188 15.921875 69.5 16.582031 69.5 16.894531 C 69.5 17.886719 73.8125 20.023438 76.449219 20.335938 C 77.851562 20.503906 79 20.683594 79 20.742188 C 79 20.796875 78.578125 22.070312 78.0625 23.570312 C 75.652344 30.574219 72.753906 34.5 65.777344 40.191406 C 62.875 42.5625 60.5 44.292969 60.5 44.039062 C 60.5 43.785156 61.703125 40.578125 63.175781 36.914062 C 66.367188 28.964844 66.8125 27.21875 67.261719 20.96875 C 67.589844 16.417969 67.675781 16.140625 69.054688 15.21875 C 71.996094 13.253906 75 7.667969 75 4.171875 C 75 3.203125 74.738281 3 73.507812 3 C 72.289062 3 71.964844 3.25 71.726562 4.375 C 71.320312 6.269531 69.929688 10.097656 69.722656 9.890625 C 69.632812 9.796875 69.761719 8.828125 70.015625 7.734375 C 70.269531 6.644531 70.480469 5.132812 70.488281 4.375 C 70.5 3.132812 70.328125 3 68.75 3 C 67.042969 3 67 3.050781 67 4.988281 C 67 6.085938 66.636719 7.890625 66.191406 9 L 65.382812 11.019531 L 63.957031 9.136719 C 63.171875 8.097656 62.171875 6.199219 61.734375 4.910156 C 60.960938 2.621094 60.914062 2.582031 59.472656 3.085938 C 58.664062 3.367188 58 3.886719 58 4.238281 C 58 4.589844 58.777344 6.425781 59.722656 8.316406 L 61.445312 11.75 L 59.476562 9.648438 C 58.269531 8.359375 57.273438 6.660156 56.894531 5.25 C 56.320312 3.105469 56.179688 2.964844 54.765625 3.101562 C 53.417969 3.234375 53.265625 3.410156 53.40625 4.703125 C 53.800781 8.390625 57.808594 13.464844 62.125 15.738281 C 63.976562 16.714844 64 16.761719 64 19.773438 C 64 21.445312 63.753906 24.152344 63.453125 25.78125 C 62.851562 29.054688 56.152344 46.5 55.496094 46.5 C 55 46.5 52.136719 42.605469 50.351562 39.5 C 48.484375 36.246094 46.105469 28.78125 45.710938 24.921875 L 45.371094 21.589844 L 48.226562 20.238281 C 51.414062 18.730469 52.996094 16.707031 52.996094 14.125 C 53 12.667969 52.851562 12.5 51.5625 12.5 C 50.378906 12.5 50.074219 12.753906 49.835938 13.941406 C 49.5625 15.308594 48.320312 17 47.585938 17 C 47.398438 17 47.246094 14.992188 47.246094 12.542969 C 47.25 10.089844 47.109375 7.941406 46.933594 7.769531 C 46.761719 7.59375 46.027344 7.597656 45.308594 7.78125 C 44.046875 8.097656 44 8.238281 44 11.773438 C 44 17.972656 42.703125 16.753906 42.375 10.25 C 42.253906 7.789062 42.226562 7.75 40.625 7.753906 C 39.40625 7.757812 39 7.539062 39 6.878906 C 39 6.242188 38.601562 6 37.558594 6 C 36.273438 6 36.058594 6.238281 35.558594 8.21875 C 34.714844 11.574219 34.183594 11.324219 34.414062 7.679688 L 34.621094 4.425781 L 32.933594 4.589844 L 31.25 4.75 L 30.96875 8.363281 C 30.8125 10.351562 30.539062 12.128906 30.355469 12.3125 C 29.390625 13.277344 26.53125 8.496094 26.511719 5.875 C 26.5 4.671875 26.304688 4.5 24.9375 4.5 L 23.375 4.5 L 23.601562 7.21875 C 23.753906 9.054688 24.265625 10.601562 25.171875 11.96875 C 26.605469 14.140625 26.320312 14.449219 23.992188 13.246094 C 22.566406 12.507812 22.511719 12.527344 21.746094 14.011719 L 20.957031 15.53125 L 23.105469 16.503906 C 24.285156 17.039062 26.292969 17.484375 27.5625 17.488281 L 29.878906 17.5 L 30.726562 20.875 C 32.609375 28.386719 37.34375 36.421875 43.425781 42.433594 C 47.488281 46.449219 47.222656 46.59375 41.25 43.632812 C 31.882812 38.992188 24.121094 30.597656 20.265625 20.9375 L 18.941406 17.621094 L 20.722656 14.269531 C 22.25 11.386719 22.5 10.449219 22.492188 7.582031 C 22.484375 3.714844 22.089844 2.847656 20.445312 3.082031 C 19.320312 3.238281 19.261719 3.421875 19.414062 6.097656 C 19.507812 7.664062 19.34375 9.351562 19.054688 9.847656 C 18.5625 10.695312 18.53125 10.6875 18.515625 9.75 C 18.496094 8.488281 15.6875 2.5 15.117188 2.5 C 14.882812 2.5 14.265625 2.808594 13.75 3.1875 M 38.0625 10.800781 C 37.683594 11.871094 36.394531 13.671875 35.199219 14.800781 L 33.023438 16.851562 L 34.035156 20.550781 C 34.59375 22.585938 35.9375 26.058594 37.023438 28.269531 C 39.09375 32.476562 44.566406 39.773438 46.699219 41.171875 C 47.921875 41.972656 47.914062 41.921875 46.230469 38.367188 C 44.410156 34.527344 42.503906 27.863281 42.492188 25.296875 C 42.480469 23.171875 42.058594 22.699219 39.785156 22.28125 C 37.894531 21.933594 34.5 19.25 34.5 18.097656 C 34.5 17.824219 35.121094 17.382812 35.882812 17.117188 C 37.058594 16.707031 37.394531 16.808594 38.15625 17.816406 C 38.644531 18.46875 39.476562 19 40 19 C 40.910156 19 40.917969 18.898438 40.195312 16.875 C 39.777344 15.707031 39.28125 13.421875 39.089844 11.800781 L 38.75 8.847656 L 38.0625 10.800781 M 81.09375 24.640625 C 78.839844 31.925781 74.773438 37.199219 66 44.203125 L 61.75 47.59375 L 64.25 47.238281 C 70.320312 46.382812 76.164062 43.605469 80.777344 39.386719 C 83.746094 36.671875 86.75 32.714844 86.128906 32.328125 C 85.921875 32.203125 84.679688 31.9375 83.375 31.742188 C 80.972656 31.382812 80.777344 31.136719 81.308594 29.148438 C 81.550781 28.246094 81.859375 28.097656 83.011719 28.328125 L 84.414062 28.609375 L 83.726562 26.429688 C 83.347656 25.230469 82.859375 23.5 82.644531 22.578125 C 82.257812 20.945312 82.226562 20.988281 81.09375 24.640625 "/>
</g>
</svg>
