<?xml version="1.0" encoding="UTF-8"?>
<svg xmlns="http://www.w3.org/2000/svg" xmlns:xlink="http://www.w3.org/1999/xlink" width="24px" height="24px" viewBox="0 0 24 24" version="1.1">
<g id="surface1">
<path style=" stroke:none;fill-rule:evenodd;fill:rgb(0%,0%,0%);fill-opacity:1;" d="M 18.089844 0.0703125 C 18.039062 0.117188 18 0.570312 17.996094 1.070312 C 17.992188 3.042969 17.304688 4.828125 15.871094 6.601562 C 14.9375 7.753906 13.179688 9.28125 11.867188 10.078125 C 11.101562 10.539062 10.890625 10.613281 10.320312 10.613281 C 9.957031 10.613281 9.3125 10.515625 8.886719 10.394531 C 8.300781 10.226562 7.824219 10.183594 6.90625 10.21875 C 5.867188 10.261719 5.59375 10.316406 4.914062 10.636719 C 3.585938 11.257812 2.808594 12.105469 2.285156 13.5 C 1.984375 14.289062 1.90625 15.882812 2.140625 16.441406 C 2.242188 16.691406 2.265625 16.597656 2.273438 15.894531 C 2.296875 13.191406 3.824219 11.335938 6.359375 10.925781 C 7.195312 10.792969 8.363281 10.757812 8.253906 10.867188 C 8.214844 10.902344 7.816406 10.984375 7.363281 11.050781 C 4.871094 11.398438 3.472656 12.515625 2.953125 14.574219 C 2.757812 15.359375 2.714844 16.613281 2.867188 17.160156 C 2.945312 17.4375 3 17.390625 3.59375 16.5 C 5.339844 13.898438 6.164062 13.078125 7.8125 12.3125 C 8.960938 11.777344 9.46875 11.648438 8.699219 12.085938 C 6.703125 13.21875 4.816406 15.148438 3.828125 17.070312 L 3.59375 17.519531 L 3.851562 17.519531 C 4.289062 17.519531 5.539062 17.15625 6.136719 16.851562 C 7.191406 16.316406 8.28125 15.359375 9.394531 13.980469 C 10 13.230469 9.886719 13.578125 9.171875 14.648438 C 8.164062 16.167969 6.464844 17.40625 4.804688 17.824219 C 4.375 17.9375 3.9375 18.054688 3.839844 18.089844 C 3.515625 18.203125 4.207031 18.335938 5.195312 18.347656 C 7.320312 18.375 9.1875 17.183594 10.117188 15.210938 C 10.28125 14.863281 10.53125 14.039062 10.667969 13.382812 C 10.820312 12.671875 11.03125 12.03125 11.191406 11.804688 C 11.339844 11.597656 12.160156 10.875 13.019531 10.195312 C 16.488281 7.464844 17.992188 5.421875 19.148438 1.890625 C 19.574219 0.59375 19.597656 0.464844 19.417969 0.285156 C 19.210938 0.078125 18.238281 -0.0820312 18.089844 0.0703125 M 9.390625 1.398438 C 9.207031 1.472656 9.191406 2.207031 9.363281 2.527344 C 9.445312 2.675781 9.617188 2.761719 9.84375 2.761719 C 11.074219 2.761719 13.203125 4.34375 14.425781 6.167969 C 14.695312 6.570312 14.941406 6.925781 14.964844 6.957031 C 14.992188 6.992188 15.117188 6.882812 15.238281 6.722656 L 15.460938 6.425781 L 14.910156 5.761719 C 13.484375 4.046875 11.84375 2.554688 10.484375 1.734375 C 9.796875 1.320312 9.675781 1.285156 9.390625 1.398438 M 16.058594 8.101562 C 15.9375 8.367188 15.988281 8.550781 16.480469 9.566406 L 17.039062 10.730469 L 16.574219 11.214844 C 16.003906 11.808594 15.867188 12.066406 15.722656 12.828125 C 15.476562 14.125 16.113281 16.039062 17.058594 16.847656 C 18.476562 18.0625 20.121094 18.183594 21.0625 17.144531 C 21.726562 16.40625 21.972656 15.75 21.972656 14.714844 C 21.972656 13.429688 21.5 12.363281 20.492188 11.386719 C 19.855469 10.769531 19.257812 10.464844 18.460938 10.347656 L 17.828125 10.257812 L 17.105469 9.03125 C 16.707031 8.359375 16.339844 7.804688 16.289062 7.804688 C 16.238281 7.800781 16.132812 7.9375 16.058594 8.101562 M 12.089844 15.183594 C 10.683594 15.699219 9.324219 17.25 8.914062 18.808594 C 8.03125 22.183594 11.101562 25.101562 13.925781 23.566406 C 15.4375 22.742188 16.074219 21.066406 15.828125 18.5625 C 15.660156 16.855469 15.085938 15.710938 14.167969 15.242188 C 13.613281 14.960938 12.761719 14.9375 12.089844 15.183594 M 11.5 17.042969 C 10.613281 17.199219 9.988281 17.867188 9.65625 19.007812 C 9.234375 20.46875 9.886719 22.378906 11.027344 23.019531 C 12.023438 23.578125 13.746094 23.207031 14.453125 22.277344 C 15.34375 21.113281 15.316406 19 14.394531 17.953125 C 13.796875 17.269531 12.503906 16.863281 11.5 17.042969 M 11.003906 18.4375 C 10.855469 18.582031 10.914062 19.265625 11.09375 19.507812 C 11.347656 19.851562 11.542969 19.582031 11.496094 18.949219 C 11.460938 18.445312 11.230469 18.207031 11.003906 18.4375 M 13.089844 18.527344 C 12.933594 18.714844 13.140625 18.839844 13.617188 18.839844 C 13.882812 18.839844 14.097656 18.578125 13.953125 18.433594 C 13.816406 18.296875 13.230469 18.359375 13.089844 18.527344 M 13.441406 18.601562 C 13.441406 18.664062 13.492188 18.71875 13.558594 18.71875 C 13.625 18.71875 13.679688 18.664062 13.679688 18.601562 C 13.679688 18.535156 13.625 18.480469 13.558594 18.480469 C 13.492188 18.480469 13.441406 18.535156 13.441406 18.601562 M 11.183594 18.898438 C 11.1875 19.097656 11.210938 19.164062 11.242188 19.046875 C 11.273438 18.929688 11.273438 18.769531 11.238281 18.6875 C 11.207031 18.605469 11.179688 18.703125 11.183594 18.898438 M 12.71875 20.285156 C 12.71875 20.578125 13.265625 21.160156 13.472656 21.089844 C 13.757812 20.996094 13.699219 20.554688 13.371094 20.292969 C 12.960938 19.972656 12.71875 19.96875 12.71875 20.285156 M 12.960938 20.367188 C 12.960938 20.519531 13.304688 20.816406 13.382812 20.738281 C 13.414062 20.703125 13.332031 20.582031 13.199219 20.460938 C 13.070312 20.339844 12.960938 20.296875 12.960938 20.367188 M 10.429688 20.953125 C 10.292969 21.117188 10.304688 21.171875 10.496094 21.3125 C 10.894531 21.605469 11.519531 21.488281 11.519531 21.121094 C 11.519531 20.738281 10.710938 20.613281 10.429688 20.953125 M 10.621094 21.121094 C 10.660156 21.1875 10.824219 21.238281 10.988281 21.238281 C 11.148438 21.238281 11.28125 21.1875 11.28125 21.121094 C 11.28125 21.054688 11.113281 21 10.914062 21 C 10.699219 21 10.578125 21.050781 10.621094 21.121094 M 11.960938 22.039062 C 11.65625 22.34375 12.242188 22.742188 12.789062 22.605469 C 13.117188 22.523438 13.1875 22.144531 12.890625 22.03125 C 12.636719 21.9375 12.058594 21.941406 11.960938 22.039062 M 12.179688 22.199219 C 12.136719 22.269531 12.269531 22.320312 12.503906 22.316406 C 12.804688 22.316406 12.855469 22.289062 12.71875 22.199219 C 12.488281 22.050781 12.273438 22.050781 12.179688 22.199219 "/>
</g>
</svg>
