<?xml version="1.0" encoding="UTF-8"?>
<svg xmlns="http://www.w3.org/2000/svg" xmlns:xlink="http://www.w3.org/1999/xlink" width="100px" height="100px" viewBox="0 0 100 100" version="1.1">
<g id="surface1">
<path style=" stroke:none;fill-rule:evenodd;fill:rgb(0%,50.196081%,0%);fill-opacity:1;" d="M 60.496094 0.753906 C 59.980469 1.375 60.105469 1.847656 61.195312 3.421875 C 62.605469 5.457031 63.5 7.980469 63.5 9.929688 C 63.5 10.925781 63.242188 10.734375 61.875 8.710938 C 60.015625 5.964844 59.429688 5.640625 58.328125 6.746094 C 57.609375 7.464844 57.6875 7.808594 59.226562 10.640625 C 60.707031 13.363281 62.5 18.296875 62.5 19.644531 C 62.5 19.898438 61.457031 18.949219 60.179688 17.527344 C 58.554688 15.71875 57.546875 14.992188 56.808594 15.097656 C 55.023438 15.355469 55.3125 16.875 57.671875 19.570312 C 58.90625 20.980469 60.539062 23.285156 61.300781 24.691406 L 62.683594 27.25 L 59.847656 24.664062 C 56.539062 21.652344 53.800781 20.484375 52.679688 21.605469 C 51.636719 22.648438 52.285156 23.75 54.546875 24.769531 C 56.746094 25.761719 59.496094 28.550781 60.777344 31.09375 L 61.613281 32.75 L 59.613281 30.828125 C 57.511719 28.808594 55.898438 28.546875 55.585938 30.175781 C 55.488281 30.679688 55.890625 31.601562 56.480469 32.230469 L 57.550781 33.371094 L 56.527344 33.636719 C 55.023438 34.03125 55.257812 35.757812 56.980469 36.984375 C 57.792969 37.566406 58.972656 38.761719 59.597656 39.644531 L 60.734375 41.25 L 58.742188 39.703125 C 55.449219 37.140625 54.183594 36.460938 53.320312 36.792969 C 51.964844 37.3125 52.316406 39.378906 53.902344 40.199219 C 55.667969 41.113281 59.148438 44.859375 60.277344 47.066406 C 61.128906 48.730469 61.125 48.742188 60.152344 47.875 C 59.089844 46.925781 57.726562 46.726562 57.277344 47.457031 C 57.113281 47.722656 56.410156 47.691406 55.570312 47.375 C 53.785156 46.699219 52.5 47.164062 52.5 48.480469 C 52.5 49.195312 53.175781 49.8125 54.765625 50.558594 C 57.195312 51.703125 59.664062 54.320312 60.457031 56.59375 C 60.847656 57.707031 60.296875 57.316406 57.792969 54.699219 C 54.488281 51.246094 52.902344 50.691406 52.589844 52.882812 C 52.480469 53.648438 52.925781 54.421875 53.980469 55.3125 C 57.828125 58.546875 63.15625 67.867188 62.902344 70.914062 L 62.75 72.75 L 57.035156 65.25 C 50.757812 57.011719 50.179688 55.71875 49.667969 48.75 C 49.445312 45.703125 49.5625 44.300781 50.167969 42.863281 C 51.109375 40.613281 50.808594 39.5 49.253906 39.5 C 47.972656 39.5 46.5 41.996094 46.5 44.171875 C 46.5 44.871094 46.238281 45.601562 45.921875 45.800781 C 45.492188 46.066406 45.429688 45.230469 45.675781 42.566406 C 45.957031 39.542969 45.882812 38.925781 45.214844 38.667969 C 44.113281 38.246094 43.121094 39.390625 42.308594 42.019531 L 41.617188 44.25 L 41.875 40.5 C 42.015625 38.4375 42.441406 35.992188 42.816406 35.0625 C 43.734375 32.800781 43.675781 31.675781 42.625 31.273438 C 41.167969 30.710938 39.675781 33.03125 38.972656 36.949219 C 38.238281 41.070312 37.5 41.144531 37.5 37.09375 C 37.5 34.992188 37.878906 33.449219 38.949219 31.183594 C 39.746094 29.5 40.648438 27.96875 40.949219 27.78125 C 41.796875 27.257812 41.601562 25.144531 40.671875 24.789062 C 40.164062 24.59375 39.386719 24.902344 38.664062 25.582031 C 37.160156 26.992188 34.5 32.285156 34.5 33.859375 C 34.5 34.53125 34.28125 34.921875 34 34.75 C 33.230469 34.273438 33.40625 29.691406 34.273438 27.617188 C 34.699219 26.597656 35.507812 25.273438 36.070312 24.675781 C 37.308594 23.355469 37.121094 21.804688 35.695312 21.601562 C 35.003906 21.5 34.117188 22.050781 33.101562 23.210938 L 31.558594 24.96875 L 31.402344 23.113281 C 31.226562 20.984375 29.765625 20.277344 28.65625 21.789062 C 28.085938 22.574219 28 22.585938 28 21.878906 C 28 21.429688 28.21875 20.488281 28.484375 19.785156 C 29.207031 17.886719 28.628906 16.867188 26.960938 17.113281 C 25.847656 17.277344 25.507812 17.09375 25.285156 16.214844 C 24.925781 14.789062 23.527344 14.257812 22.59375 15.195312 C 21.988281 15.796875 21.960938 16.320312 22.429688 18.183594 C 23.25 21.441406 23.207031 21.507812 20.964844 20.425781 C 18.261719 19.121094 16.25 19.335938 16.25 20.929688 C 16.25 21.890625 16.71875 22.285156 18.769531 23.050781 C 20.199219 23.585938 22.144531 24.867188 23.269531 26.023438 L 25.25 28.050781 L 22.855469 26.992188 C 19.929688 25.703125 18.308594 25.832031 18.089844 27.375 C 17.96875 28.222656 18.277344 28.628906 19.339844 29.023438 C 22.546875 30.222656 29.890625 34.78125 29.398438 35.265625 C 29.316406 35.347656 27.710938 35.066406 25.832031 34.644531 C 22.691406 33.9375 22.34375 33.941406 21.589844 34.695312 C 20.230469 36.054688 21.410156 37.097656 25.179688 37.859375 C 27.03125 38.234375 29.71875 39.054688 31.148438 39.683594 L 33.75 40.828125 L 29.5 40.617188 C 24.425781 40.367188 22.355469 40.96875 22.589844 42.625 C 22.742188 43.695312 22.96875 43.75 27.25 43.757812 C 30.71875 43.765625 32.265625 44.003906 34 44.796875 L 36.25 45.824219 L 33.132812 45.601562 C 30.574219 45.421875 29.957031 45.527344 29.699219 46.195312 C 29.246094 47.378906 30.398438 48.5 32.066406 48.5 C 33.347656 48.5 33.445312 48.601562 32.925781 49.433594 C 32.039062 50.851562 32.738281 52 34.484375 52 C 36.585938 52 36.382812 52.730469 34.125 53.285156 C 32.582031 53.667969 32.25 53.972656 32.25 55 C 32.25 56.179688 32.417969 56.257812 35.25 56.375 C 40.457031 56.589844 41.4375 56.875 41.121094 58.089844 C 40.941406 58.777344 41.160156 59.382812 41.75 59.8125 C 42.722656 60.523438 42.820312 60.441406 39.75 61.378906 C 38.621094 61.71875 38.25 62.132812 38.25 63.042969 C 38.25 64.234375 38.308594 64.25 43 64.25 C 47.183594 64.25 48.078125 64.414062 50.5 65.625 C 52.011719 66.382812 54.039062 67.667969 55 68.480469 L 56.75 69.957031 L 53 68.78125 C 50.9375 68.136719 47.863281 67.453125 46.167969 67.261719 C 43.386719 66.945312 43.027344 67.011719 42.542969 67.921875 C 41.722656 69.449219 42.929688 70.296875 46.445312 70.664062 C 49.15625 70.949219 54.714844 72.546875 55.410156 73.242188 C 55.554688 73.390625 55.242188 73.832031 54.714844 74.226562 C 53.3125 75.265625 54.277344 76.507812 57.125 77.339844 C 60.277344 78.257812 60.59375 79 57.832031 79 C 56.316406 79 55.515625 79.238281 55.320312 79.75 C 54.757812 81.214844 55.554688 81.890625 58.226562 82.226562 C 62.707031 82.785156 62.714844 82.796875 63 91.53125 C 63.210938 97.914062 63.382812 99.230469 64.082031 99.667969 C 64.6875 100.046875 65.132812 100.011719 65.707031 99.535156 C 66.359375 98.996094 66.5 97.679688 66.5 92.1875 C 66.5 88.511719 66.632812 85.5 66.796875 85.5 C 67.808594 85.5 70.527344 88.246094 73.808594 92.574219 C 76.796875 96.523438 77.804688 97.527344 78.660156 97.40625 C 79.253906 97.320312 79.816406 96.859375 79.90625 96.378906 C 80.003906 95.867188 77.53125 92.171875 73.882812 87.378906 C 70.480469 82.910156 67.53125 78.976562 67.332031 78.648438 C 66.75 77.679688 68.25 74.746094 69.945312 73.539062 C 71.675781 72.308594 71.890625 71.445312 70.710938 70.464844 C 70.082031 69.945312 69.71875 69.9375 68.949219 70.417969 C 68.003906 71.007812 68 70.972656 68.765625 69.136719 C 69.765625 66.734375 70.65625 65.382812 72.796875 63.015625 C 73.890625 61.800781 74.402344 60.824219 74.203125 60.308594 C 73.761719 59.15625 72.023438 59.308594 70.589844 60.625 C 69.425781 61.691406 69.390625 61.699219 69.90625 60.710938 C 70.203125 60.136719 70.796875 59.378906 71.222656 59.023438 C 72.195312 58.214844 72.214844 57.300781 71.28125 56.523438 C 70.214844 55.640625 70.8125 54.699219 73.484375 53.058594 C 75.414062 51.871094 75.9375 51.242188 76.210938 49.785156 C 76.660156 47.386719 76.230469 46.832031 74.175781 47.164062 C 73.242188 47.316406 72.597656 47.246094 72.742188 47.011719 C 72.890625 46.773438 72.644531 46.214844 72.199219 45.769531 C 71.449219 45.023438 71.289062 45.023438 70.136719 45.777344 L 68.882812 46.597656 L 70.21875 44.175781 C 71.875 41.160156 72.808594 40.039062 74.875 38.578125 C 75.769531 37.949219 76.5 36.988281 76.5 36.449219 C 76.5 33.816406 72.414062 35.3125 69.847656 38.890625 C 68.984375 40.09375 68.199219 40.84375 68.105469 40.5625 C 67.785156 39.601562 69.898438 35.589844 71.160156 34.761719 C 71.851562 34.308594 72.539062 33.621094 72.6875 33.234375 C 73.097656 32.160156 71.578125 30.910156 70.324219 31.292969 C 69.375 31.582031 69.417969 31.441406 70.695312 30.082031 C 71.492188 29.238281 72.910156 28.179688 73.851562 27.734375 C 75.902344 26.761719 76.414062 25.703125 75.351562 24.636719 C 74.667969 23.953125 74.351562 23.941406 72.90625 24.53125 C 71.996094 24.90625 70.179688 26.207031 68.875 27.425781 C 66.46875 29.664062 65.921875 29.558594 67.207031 27.101562 C 68.605469 24.417969 71.984375 22 75.332031 21.28125 C 76.996094 20.921875 77.664062 20.007812 77.179688 18.75 C 76.578125 17.175781 71.570312 18.480469 68.375 21.042969 C 65.847656 23.070312 66 21.972656 68.632812 19.183594 C 70.117188 17.613281 71.601562 16.640625 73.507812 15.996094 C 75.777344 15.230469 76.25 14.867188 76.25 13.910156 C 76.25 13.007812 75.933594 12.714844 74.839844 12.589844 C 74.0625 12.5 72.769531 12.65625 71.964844 12.9375 C 70.171875 13.5625 70.085938 13.039062 71.75 11.59375 C 72.4375 10.996094 73 10.308594 73 10.066406 C 73 9.195312 71.484375 8.386719 70.378906 8.660156 C 69.417969 8.898438 69.492188 8.734375 70.875 7.558594 C 72.703125 6.003906 72.984375 4.53125 71.519531 4.152344 C 70.746094 3.949219 70.5625 3.511719 70.644531 2.074219 C 70.734375 0.511719 70.582031 0.226562 69.597656 0.0859375 C 68.632812 -0.0507812 68.273438 0.332031 67.375 2.460938 C 66.210938 5.210938 65.742188 5.550781 65.25 3.996094 C 64.804688 2.597656 62.542969 0 61.765625 0 C 61.414062 0 60.839844 0.339844 60.496094 0.753906 "/>
</g>
</svg>
