<?xml version="1.0" encoding="UTF-8"?>
<svg xmlns="http://www.w3.org/2000/svg" xmlns:xlink="http://www.w3.org/1999/xlink" width="24px" height="24px" viewBox="0 0 24 24" version="1.1">
<g id="surface1">
<path style=" stroke:none;fill-rule:evenodd;fill:rgb(0%,0%,0%);fill-opacity:1;" d="M 14.519531 0.179688 C 14.394531 0.328125 14.425781 0.445312 14.6875 0.820312 C 15.027344 1.308594 15.238281 1.914062 15.238281 2.382812 C 15.238281 2.621094 15.179688 2.574219 14.851562 2.089844 C 14.402344 1.429688 14.261719 1.355469 14 1.617188 C 13.824219 1.792969 13.84375 1.875 14.214844 2.554688 C 14.570312 3.207031 15 4.390625 15 4.714844 C 15 4.777344 14.75 4.546875 14.441406 4.207031 C 14.054688 3.773438 13.8125 3.597656 13.632812 3.625 C 13.207031 3.683594 13.273438 4.050781 13.839844 4.695312 C 14.136719 5.035156 14.527344 5.589844 14.710938 5.925781 L 15.042969 6.539062 L 14.363281 5.917969 C 13.570312 5.195312 12.914062 4.917969 12.644531 5.183594 C 12.394531 5.4375 12.546875 5.699219 13.089844 5.945312 C 13.621094 6.183594 14.277344 6.851562 14.585938 7.460938 L 14.789062 7.859375 L 14.308594 7.398438 C 13.804688 6.914062 13.414062 6.851562 13.339844 7.242188 C 13.316406 7.363281 13.414062 7.585938 13.554688 7.734375 L 13.8125 8.007812 L 13.566406 8.074219 C 13.207031 8.167969 13.261719 8.582031 13.675781 8.875 C 13.871094 9.015625 14.152344 9.304688 14.304688 9.515625 L 14.574219 9.898438 L 14.097656 9.527344 C 13.308594 8.914062 13.003906 8.75 12.796875 8.832031 C 12.472656 8.953125 12.554688 9.449219 12.9375 9.648438 C 13.359375 9.867188 14.195312 10.765625 14.464844 11.296875 C 14.671875 11.695312 14.671875 11.699219 14.4375 11.488281 C 14.179688 11.261719 13.855469 11.214844 13.746094 11.390625 C 13.707031 11.453125 13.539062 11.445312 13.335938 11.371094 C 12.910156 11.207031 12.601562 11.320312 12.601562 11.636719 C 12.601562 11.804688 12.761719 11.953125 13.144531 12.132812 C 13.726562 12.410156 14.320312 13.035156 14.511719 13.582031 C 14.601562 13.851562 14.472656 13.753906 13.871094 13.128906 C 13.078125 12.300781 12.695312 12.167969 12.621094 12.691406 C 12.59375 12.875 12.703125 13.0625 12.957031 13.273438 C 13.878906 14.050781 15.15625 16.289062 15.097656 17.019531 L 15.058594 17.460938 L 13.6875 15.660156 C 12.183594 13.683594 12.042969 13.371094 11.921875 11.699219 C 11.867188 10.96875 11.894531 10.632812 12.039062 10.285156 C 12.265625 9.746094 12.195312 9.480469 11.820312 9.480469 C 11.511719 9.480469 11.160156 10.078125 11.160156 10.601562 C 11.160156 10.769531 11.097656 10.945312 11.019531 10.992188 C 10.917969 11.054688 10.902344 10.855469 10.960938 10.214844 C 11.03125 9.488281 11.011719 9.339844 10.851562 9.28125 C 10.585938 9.179688 10.347656 9.453125 10.152344 10.085938 L 9.988281 10.621094 L 10.050781 9.71875 C 10.082031 9.226562 10.183594 8.636719 10.277344 8.414062 C 10.496094 7.871094 10.484375 7.601562 10.230469 7.503906 C 9.878906 7.371094 9.523438 7.925781 9.355469 8.867188 C 9.175781 9.855469 9 9.875 9 8.902344 C 9 8.398438 9.089844 8.027344 9.347656 7.484375 C 9.539062 7.078125 9.753906 6.710938 9.828125 6.667969 C 10.03125 6.542969 9.984375 6.035156 9.761719 5.949219 C 9.640625 5.902344 9.453125 5.976562 9.277344 6.140625 C 8.917969 6.476562 8.28125 7.75 8.28125 8.125 C 8.28125 8.289062 8.226562 8.382812 8.160156 8.339844 C 7.976562 8.226562 8.019531 7.125 8.226562 6.628906 C 8.328125 6.382812 8.523438 6.066406 8.65625 5.921875 C 8.953125 5.605469 8.910156 5.234375 8.566406 5.183594 C 8.402344 5.160156 8.1875 5.292969 7.945312 5.570312 L 7.574219 5.992188 L 7.535156 5.546875 C 7.496094 5.035156 7.144531 4.867188 6.878906 5.230469 C 6.742188 5.417969 6.71875 5.421875 6.71875 5.25 C 6.71875 5.144531 6.773438 4.917969 6.835938 4.75 C 7.011719 4.292969 6.871094 4.046875 6.46875 4.105469 C 6.203125 4.144531 6.121094 4.101562 6.070312 3.890625 C 5.984375 3.550781 5.648438 3.421875 5.421875 3.644531 C 5.277344 3.789062 5.269531 3.917969 5.382812 4.363281 C 5.582031 5.144531 5.570312 5.164062 5.03125 4.902344 C 4.382812 4.589844 3.898438 4.640625 3.898438 5.023438 C 3.898438 5.253906 4.011719 5.347656 4.503906 5.53125 C 4.847656 5.660156 5.316406 5.96875 5.585938 6.246094 L 6.058594 6.734375 L 5.484375 6.480469 C 4.78125 6.167969 4.394531 6.199219 4.339844 6.570312 C 4.3125 6.773438 4.386719 6.871094 4.640625 6.964844 C 5.410156 7.253906 7.175781 8.347656 7.054688 8.464844 C 7.035156 8.484375 6.652344 8.414062 6.199219 8.3125 C 5.445312 8.144531 5.363281 8.144531 5.179688 8.328125 C 4.855469 8.652344 5.140625 8.902344 6.042969 9.085938 C 6.488281 9.175781 7.132812 9.375 7.476562 9.523438 L 8.101562 9.796875 L 7.078125 9.75 C 5.863281 9.6875 5.363281 9.832031 5.421875 10.230469 C 5.457031 10.488281 5.511719 10.5 6.539062 10.5 C 7.371094 10.503906 7.742188 10.558594 8.160156 10.75 L 8.699219 10.996094 L 7.953125 10.945312 C 7.339844 10.902344 7.191406 10.925781 7.128906 11.085938 C 7.019531 11.371094 7.296875 11.640625 7.695312 11.640625 C 8.003906 11.640625 8.027344 11.664062 7.902344 11.863281 C 7.691406 12.203125 7.855469 12.480469 8.277344 12.480469 C 8.78125 12.480469 8.730469 12.65625 8.191406 12.789062 C 7.820312 12.878906 7.738281 12.953125 7.738281 13.199219 C 7.738281 13.484375 7.78125 13.5 8.460938 13.53125 C 9.710938 13.582031 9.945312 13.648438 9.871094 13.941406 C 9.824219 14.105469 9.878906 14.25 10.019531 14.355469 C 10.253906 14.523438 10.277344 14.507812 9.539062 14.730469 C 9.269531 14.8125 9.179688 14.914062 9.179688 15.128906 C 9.179688 15.417969 9.195312 15.421875 10.320312 15.421875 C 11.324219 15.421875 11.539062 15.460938 12.121094 15.75 C 12.484375 15.933594 12.96875 16.238281 13.199219 16.433594 L 13.621094 16.789062 L 12.71875 16.507812 C 12.226562 16.351562 11.488281 16.1875 11.078125 16.140625 C 10.414062 16.066406 10.328125 16.082031 10.210938 16.300781 C 10.015625 16.667969 10.304688 16.871094 11.148438 16.960938 C 11.796875 17.027344 13.132812 17.410156 13.296875 17.578125 C 13.332031 17.613281 13.257812 17.71875 13.132812 17.8125 C 12.796875 18.0625 13.027344 18.363281 13.710938 18.5625 C 14.464844 18.78125 14.542969 18.960938 13.878906 18.960938 C 13.515625 18.960938 13.324219 19.015625 13.277344 19.140625 C 13.140625 19.492188 13.332031 19.652344 13.972656 19.734375 C 15.050781 19.867188 15.050781 19.871094 15.121094 21.96875 C 15.171875 23.5 15.210938 23.816406 15.378906 23.921875 C 15.523438 24.011719 15.632812 24.003906 15.769531 23.886719 C 15.925781 23.757812 15.960938 23.445312 15.960938 22.125 C 15.960938 21.242188 15.992188 20.519531 16.03125 20.519531 C 16.273438 20.519531 16.925781 21.179688 17.714844 22.21875 C 18.429688 23.164062 18.671875 23.40625 18.878906 23.378906 C 19.019531 23.355469 19.15625 23.246094 19.175781 23.132812 C 19.199219 23.007812 18.609375 22.121094 17.730469 20.972656 C 16.914062 19.898438 16.207031 18.953125 16.160156 18.875 C 16.019531 18.644531 16.378906 17.9375 16.785156 17.648438 C 17.203125 17.355469 17.253906 17.148438 16.96875 16.910156 C 16.820312 16.789062 16.730469 16.785156 16.546875 16.898438 C 16.320312 17.042969 16.320312 17.035156 16.503906 16.59375 C 16.742188 16.015625 16.957031 15.691406 17.472656 15.125 C 17.734375 14.832031 17.855469 14.597656 17.808594 14.472656 C 17.703125 14.199219 17.285156 14.234375 16.941406 14.550781 C 16.664062 14.804688 16.652344 14.808594 16.777344 14.570312 C 16.847656 14.433594 16.992188 14.25 17.09375 14.164062 C 17.328125 13.972656 17.332031 13.753906 17.105469 13.566406 C 16.851562 13.355469 16.996094 13.128906 17.636719 12.734375 C 18.097656 12.449219 18.226562 12.296875 18.289062 11.949219 C 18.398438 11.371094 18.296875 11.238281 17.800781 11.320312 C 17.578125 11.355469 17.421875 11.339844 17.457031 11.28125 C 17.492188 11.226562 17.433594 11.089844 17.328125 10.984375 C 17.148438 10.804688 17.109375 10.804688 16.832031 10.988281 L 16.53125 11.183594 L 16.851562 10.601562 C 17.25 9.878906 17.472656 9.609375 17.96875 9.257812 C 18.183594 9.109375 18.359375 8.878906 18.359375 8.75 C 18.359375 8.117188 17.378906 8.476562 16.761719 9.332031 C 16.554688 9.621094 16.367188 9.804688 16.34375 9.734375 C 16.269531 9.503906 16.777344 8.542969 17.078125 8.34375 C 17.246094 8.234375 17.410156 8.070312 17.445312 7.976562 C 17.542969 7.71875 17.179688 7.417969 16.878906 7.511719 C 16.648438 7.578125 16.660156 7.546875 16.96875 7.21875 C 17.15625 7.015625 17.5 6.761719 17.722656 6.65625 C 18.214844 6.421875 18.339844 6.167969 18.085938 5.914062 C 17.921875 5.75 17.84375 5.746094 17.496094 5.886719 C 17.277344 5.976562 16.84375 6.289062 16.53125 6.582031 C 15.953125 7.121094 15.820312 7.09375 16.128906 6.503906 C 16.464844 5.859375 17.277344 5.28125 18.078125 5.105469 C 18.480469 5.019531 18.640625 4.800781 18.523438 4.5 C 18.378906 4.121094 17.175781 4.433594 16.410156 5.050781 C 15.804688 5.539062 15.839844 5.273438 16.472656 4.605469 C 16.828125 4.226562 17.183594 3.992188 17.640625 3.839844 C 18.1875 3.65625 18.300781 3.570312 18.300781 3.339844 C 18.300781 3.121094 18.222656 3.050781 17.960938 3.019531 C 17.773438 3 17.464844 3.039062 17.269531 3.105469 C 16.839844 3.253906 16.820312 3.128906 17.21875 2.78125 C 17.386719 2.640625 17.519531 2.472656 17.519531 2.414062 C 17.519531 2.207031 17.15625 2.011719 16.890625 2.078125 C 16.660156 2.136719 16.679688 2.097656 17.011719 1.8125 C 17.449219 1.441406 17.515625 1.089844 17.164062 0.996094 C 16.980469 0.949219 16.933594 0.84375 16.953125 0.496094 C 16.976562 0.125 16.941406 0.0546875 16.703125 0.0195312 C 16.472656 -0.0117188 16.386719 0.078125 16.167969 0.589844 C 15.890625 1.25 15.777344 1.332031 15.660156 0.960938 C 15.554688 0.625 15.011719 0 14.824219 0 C 14.738281 0 14.601562 0.0820312 14.519531 0.179688 "/>
</g>
</svg>
