<?xml version="1.0" encoding="UTF-8"?>
<svg xmlns="http://www.w3.org/2000/svg" xmlns:xlink="http://www.w3.org/1999/xlink" width="24px" height="24px" viewBox="0 0 24 24" version="1.1">
<g id="surface1">
<path style=" stroke:none;fill-rule:evenodd;fill:rgb(0%,0%,0%);fill-opacity:1;" d="M 10.300781 0.113281 C 6.820312 0.753906 4.070312 2.820312 2.5625 5.941406 C 1.820312 7.480469 1.542969 8.640625 1.527344 10.320312 C 1.507812 12.542969 1.996094 14.632812 3.0625 16.859375 C 5.152344 21.234375 8.613281 23.996094 12 23.996094 C 15.621094 23.996094 19.378906 20.757812 21.316406 15.96875 C 22.910156 12.027344 22.898438 8.761719 21.289062 5.640625 C 19.980469 3.101562 17.574219 1.15625 14.761719 0.359375 C 13.753906 0.0742188 11.265625 -0.0625 10.300781 0.113281 M 5.21875 8.390625 C 3.679688 8.761719 3.550781 10.335938 4.941406 11.765625 C 6.570312 13.449219 9.246094 13.964844 10.179688 12.777344 C 11.21875 11.457031 9.167969 8.941406 6.625 8.414062 C 5.921875 8.265625 5.75 8.265625 5.21875 8.390625 M 17.171875 8.464844 C 15.324219 8.980469 13.785156 10.410156 13.613281 11.769531 C 13.34375 13.894531 16.738281 14.023438 18.917969 11.976562 C 19.601562 11.335938 20.15625 10.382812 20.160156 9.859375 C 20.160156 9.417969 19.828125 8.828125 19.453125 8.609375 C 18.957031 8.3125 17.9375 8.25 17.171875 8.464844 "/>
</g>
</svg>
