<?xml version="1.0" encoding="UTF-8"?>
<svg xmlns="http://www.w3.org/2000/svg" xmlns:xlink="http://www.w3.org/1999/xlink" width="100px" height="100px" viewBox="0 0 100 100" version="1.1">
<g id="surface1">
<path style=" stroke:none;fill-rule:evenodd;fill:rgb(0%,0%,0%);fill-opacity:1;" d="M 42.914062 0.476562 C 28.417969 3.132812 16.964844 11.753906 10.683594 24.75 C 7.582031 31.160156 6.4375 36 6.367188 43 C 6.277344 52.257812 8.320312 60.972656 12.757812 70.25 C 21.472656 88.476562 35.886719 99.984375 50 99.984375 C 65.089844 99.984375 80.75 86.488281 88.816406 66.53125 C 95.453125 50.105469 95.417969 36.507812 88.707031 23.5 C 83.246094 12.925781 73.21875 4.8125 61.5 1.492188 C 57.308594 0.304688 46.941406 -0.261719 42.914062 0.476562 M 21.75 34.964844 C 15.339844 36.511719 14.796875 43.0625 20.582031 49.023438 C 27.382812 56.035156 38.527344 58.1875 42.414062 53.242188 C 46.742188 47.742188 38.203125 37.253906 27.601562 35.050781 C 24.675781 34.441406 23.953125 34.433594 21.75 34.964844 M 71.550781 35.261719 C 63.855469 37.410156 57.441406 43.371094 56.726562 49.039062 C 55.605469 57.886719 69.746094 58.4375 78.824219 49.898438 C 81.664062 47.230469 83.984375 43.269531 83.996094 41.074219 C 84.003906 39.238281 82.621094 36.789062 81.0625 35.867188 C 78.992188 34.644531 74.742188 34.375 71.550781 35.261719 "/>
</g>
</svg>
