<?xml version="1.0" encoding="UTF-8"?>
<svg xmlns="http://www.w3.org/2000/svg" xmlns:xlink="http://www.w3.org/1999/xlink" width="24px" height="24px" viewBox="0 0 24 24" version="1.1">
<g id="surface1">
<path style=" stroke:none;fill-rule:evenodd;fill:rgb(0%,50.196081%,0%);fill-opacity:1;" d="M 10.816406 5.101562 C 10.53125 5.265625 10.164062 5.398438 10.003906 5.398438 C 9.261719 5.398438 8.457031 6.042969 8.316406 6.746094 C 8.28125 6.929688 8.207031 7.078125 8.15625 7.078125 C 8.105469 7.078125 7.898438 7.234375 7.699219 7.421875 C 7.429688 7.675781 7.164062 7.785156 6.695312 7.839844 C 5.546875 7.976562 4.566406 8.96875 4.5625 10.003906 C 4.558594 10.351562 4.488281 10.523438 4.257812 10.703125 C 3.664062 11.171875 3.410156 12.144531 3.730469 12.738281 C 3.839844 12.941406 3.808594 13.039062 3.558594 13.300781 C 3.15625 13.722656 3 14.167969 3 14.894531 C 3 16.308594 4.289062 17.4375 5.679688 17.230469 C 6.128906 17.164062 6.214844 17.191406 6.53125 17.527344 C 7.082031 18.117188 8.035156 18.707031 8.832031 18.953125 C 9.445312 19.144531 9.953125 19.183594 11.953125 19.183594 C 15.117188 19.191406 15.917969 18.964844 17.292969 17.675781 C 17.8125 17.191406 17.886719 17.15625 18.332031 17.230469 C 19.695312 17.449219 21 16.304688 21 14.894531 C 21 14.167969 20.84375 13.722656 20.441406 13.300781 C 20.191406 13.039062 20.160156 12.941406 20.269531 12.738281 C 20.589844 12.144531 20.335938 11.171875 19.742188 10.703125 C 19.511719 10.523438 19.441406 10.351562 19.4375 10.003906 C 19.433594 8.96875 18.453125 7.976562 17.304688 7.839844 C 16.835938 7.785156 16.570312 7.675781 16.300781 7.421875 C 16.101562 7.234375 15.894531 7.078125 15.84375 7.078125 C 15.792969 7.078125 15.71875 6.929688 15.683594 6.746094 C 15.542969 6.042969 14.738281 5.398438 13.996094 5.398438 C 13.835938 5.398438 13.46875 5.265625 13.183594 5.101562 C 12.800781 4.882812 12.484375 4.804688 12 4.804688 C 11.515625 4.804688 11.199219 4.882812 10.816406 5.101562 M 11.21875 5.660156 C 11.089844 5.734375 10.878906 5.878906 10.757812 5.988281 C 10.625 6.101562 10.316406 6.179688 9.992188 6.183594 C 9.367188 6.1875 9 6.519531 9 7.089844 C 9 7.324219 8.914062 7.476562 8.730469 7.570312 C 8.046875 7.925781 8.039062 7.996094 8.628906 8.609375 C 8.949219 8.945312 9.417969 9.277344 9.773438 9.421875 C 10.421875 9.679688 10.921875 10.261719 10.921875 10.761719 C 10.921875 10.964844 11.015625 11.078125 11.25 11.164062 C 11.429688 11.226562 11.675781 11.335938 11.789062 11.402344 C 11.929688 11.480469 12.070312 11.480469 12.210938 11.402344 C 12.324219 11.335938 12.570312 11.226562 12.75 11.164062 C 12.984375 11.078125 13.078125 10.964844 13.078125 10.761719 C 13.078125 10.261719 13.578125 9.679688 14.226562 9.421875 C 14.582031 9.277344 15.050781 8.945312 15.371094 8.609375 C 15.960938 7.996094 15.953125 7.925781 15.269531 7.570312 C 15.105469 7.484375 15 7.320312 15 7.144531 C 15 6.988281 14.964844 6.773438 14.925781 6.664062 C 14.8125 6.367188 14.1875 6.09375 13.808594 6.175781 C 13.582031 6.226562 13.429688 6.191406 13.316406 6.058594 C 12.910156 5.566406 11.777344 5.351562 11.21875 5.660156 M 6.140625 8.722656 C 5.582031 8.996094 5.351562 9.410156 5.28125 10.25 C 5.230469 10.871094 5.175781 10.996094 4.921875 11.121094 C 4.757812 11.203125 4.554688 11.363281 4.472656 11.476562 C 4.265625 11.757812 4.28125 12.382812 4.496094 12.667969 C 4.765625 13.023438 4.71875 13.199219 4.253906 13.605469 C 2.898438 14.789062 4.171875 17.050781 5.851562 16.445312 C 6.261719 16.296875 6.277344 16.304688 6.882812 16.890625 C 7.222656 17.214844 7.671875 17.601562 7.886719 17.746094 C 8.34375 18.058594 9.515625 18.480469 9.933594 18.480469 C 10.222656 18.480469 10.214844 18.464844 9.753906 17.964844 C 9.492188 17.679688 9.042969 17.050781 8.757812 16.566406 C 8.269531 15.746094 8.175781 15.660156 7.394531 15.285156 C 6.488281 14.851562 6.300781 14.675781 6.5 14.433594 C 6.671875 14.230469 6.894531 14.238281 7.335938 14.46875 C 7.539062 14.574219 7.722656 14.636719 7.75 14.609375 C 7.777344 14.582031 7.683594 14.226562 7.546875 13.820312 C 7.308594 13.105469 7.265625 13.058594 6.46875 12.59375 C 5.882812 12.253906 5.640625 12.039062 5.640625 11.871094 C 5.640625 11.464844 5.957031 11.480469 6.742188 11.921875 L 7.492188 12.347656 L 7.921875 11.605469 C 8.214844 11.097656 8.425781 10.859375 8.585938 10.859375 C 8.964844 10.859375 8.925781 11.234375 8.460938 12.066406 C 7.992188 12.90625 7.980469 13.128906 8.363281 14.039062 L 8.539062 14.460938 L 8.832031 13.890625 C 9.128906 13.308594 9.34375 13.191406 9.585938 13.484375 C 9.691406 13.609375 9.625 13.855469 9.3125 14.546875 L 8.898438 15.449219 L 9.394531 16.273438 C 10.15625 17.542969 11.460938 18.75 11.226562 17.96875 C 10.996094 17.183594 10.707031 15.574219 10.765625 15.363281 C 10.800781 15.226562 10.957031 15.085938 11.113281 15.046875 C 11.449219 14.960938 11.457031 14.921875 11.21875 14.359375 C 10.976562 13.773438 10.992188 12.980469 11.261719 12.453125 L 11.488281 12.015625 L 11.171875 11.894531 C 11 11.824219 10.726562 11.753906 10.558594 11.734375 C 10.3125 11.707031 10.253906 11.628906 10.226562 11.28125 C 10.210938 11.050781 10.167969 10.738281 10.136719 10.59375 C 10.0625 10.265625 9.472656 9.9375 9.039062 9.984375 C 8.777344 10.015625 8.667969 9.929688 8.410156 9.492188 C 7.886719 8.609375 6.992188 8.304688 6.140625 8.722656 M 16.316406 8.742188 C 16.089844 8.867188 15.761719 9.203125 15.589844 9.492188 C 15.332031 9.929688 15.222656 10.015625 14.960938 9.984375 C 14.527344 9.9375 13.9375 10.265625 13.863281 10.59375 C 13.832031 10.738281 13.789062 11.046875 13.773438 11.277344 C 13.742188 11.65625 13.699219 11.703125 13.320312 11.765625 C 12.371094 11.921875 11.757812 12.570312 11.761719 13.417969 C 11.761719 14.121094 12.074219 14.652344 12.644531 14.925781 C 12.882812 15.039062 13.128906 15.222656 13.1875 15.339844 C 13.308594 15.5625 13.121094 16.75 12.800781 17.785156 L 12.625 18.351562 L 12.960938 18.179688 C 13.429688 17.9375 14.210938 16.996094 14.667969 16.117188 L 15.054688 15.378906 L 14.667969 14.507812 C 14.375 13.851562 14.316406 13.601562 14.414062 13.480469 C 14.65625 13.191406 14.871094 13.308594 15.167969 13.890625 C 15.457031 14.453125 15.460938 14.457031 15.578125 14.152344 C 16.027344 12.992188 16.027344 12.902344 15.550781 12.105469 C 15.078125 11.308594 15.027344 10.859375 15.414062 10.859375 C 15.574219 10.859375 15.78125 11.09375 16.078125 11.605469 L 16.507812 12.347656 L 17.257812 11.921875 C 18.042969 11.480469 18.359375 11.464844 18.359375 11.871094 C 18.359375 12.039062 18.117188 12.253906 17.53125 12.59375 C 16.734375 13.058594 16.691406 13.105469 16.453125 13.820312 C 16.316406 14.226562 16.222656 14.582031 16.25 14.609375 C 16.277344 14.636719 16.460938 14.574219 16.664062 14.46875 C 17.105469 14.238281 17.328125 14.230469 17.5 14.433594 C 17.699219 14.675781 17.511719 14.851562 16.605469 15.285156 C 15.832031 15.65625 15.726562 15.753906 15.273438 16.515625 C 15.003906 16.96875 14.558594 17.597656 14.28125 17.910156 C 13.789062 18.46875 13.785156 18.480469 14.085938 18.480469 C 14.472656 18.480469 15.667969 18.039062 16.140625 17.722656 C 16.339844 17.59375 16.777344 17.214844 17.117188 16.890625 C 17.722656 16.304688 17.738281 16.296875 18.148438 16.445312 C 19.371094 16.886719 20.609375 15.707031 20.257812 14.429688 C 20.1875 14.183594 19.949219 13.808594 19.726562 13.597656 C 19.28125 13.175781 19.242188 13.015625 19.503906 12.667969 C 19.71875 12.382812 19.734375 11.757812 19.527344 11.476562 C 19.445312 11.363281 19.242188 11.203125 19.078125 11.121094 C 18.824219 10.996094 18.769531 10.871094 18.71875 10.257812 C 18.648438 9.425781 18.386719 8.976562 17.824219 8.710938 C 17.296875 8.460938 16.828125 8.46875 16.316406 8.742188 M 11.617188 15.628906 C 11.445312 15.765625 11.449219 15.871094 11.664062 16.769531 C 11.792969 17.3125 11.945312 17.761719 12 17.761719 C 12.054688 17.761719 12.207031 17.3125 12.335938 16.769531 C 12.550781 15.871094 12.554688 15.765625 12.382812 15.628906 C 12.28125 15.546875 12.105469 15.480469 12 15.480469 C 11.894531 15.480469 11.71875 15.546875 11.617188 15.628906 "/>
</g>
</svg>
