<?xml version="1.0" encoding="UTF-8"?>
<svg xmlns="http://www.w3.org/2000/svg" xmlns:xlink="http://www.w3.org/1999/xlink" width="24px" height="24px" viewBox="0 0 24 24" version="1.1">
<g id="surface1">
<path style=" stroke:none;fill-rule:evenodd;fill:rgb(0%,0%,0%);fill-opacity:1;" d="M 18.238281 1.800781 C 17.691406 2.347656 18.082031 3.445312 18.992188 3.914062 C 19.425781 4.140625 19.554688 4.011719 19.558594 3.34375 C 19.5625 2.640625 19.429688 2.183594 19.132812 1.863281 C 18.792969 1.496094 18.558594 1.480469 18.238281 1.800781 M 9.929688 3.347656 C 9.53125 3.820312 9.292969 4.691406 9.472656 5.027344 C 9.671875 5.398438 9.890625 5.339844 10.367188 4.78125 C 10.8125 4.261719 11 3.683594 10.863281 3.25 C 10.746094 2.882812 10.277344 2.929688 9.929688 3.347656 M 20.316406 3.269531 C 19.925781 3.695312 19.640625 4.328125 19.777344 4.464844 C 20.089844 4.777344 21.238281 4.089844 21.238281 3.59375 C 21.238281 2.964844 20.75 2.792969 20.316406 3.269531 M 7.960938 3.910156 C 7.699219 4.167969 7.660156 4.292969 7.714844 4.695312 C 7.789062 5.238281 8.269531 5.9375 8.640625 6.035156 C 8.96875 6.121094 9.121094 5.742188 9.121094 4.847656 C 9.121094 4.308594 9.066406 4.136719 8.824219 3.894531 C 8.453125 3.523438 8.34375 3.527344 7.960938 3.910156 M 17.785156 4.265625 C 17.464844 4.492188 17.421875 5.164062 17.707031 5.453125 C 17.941406 5.683594 18.828125 5.703125 19.132812 5.480469 C 19.398438 5.285156 19.332031 4.878906 18.953125 4.398438 C 18.664062 4.03125 18.199219 3.980469 17.785156 4.265625 M 19.859375 5.539062 C 19.484375 5.746094 18.960938 6.269531 18.960938 6.4375 C 18.960938 6.636719 19.761719 6.851562 20.152344 6.761719 C 20.554688 6.664062 20.761719 6.492188 20.890625 6.148438 C 21.121094 5.542969 20.507812 5.183594 19.859375 5.539062 M 6.847656 5.753906 C 6.296875 6.304688 6.644531 7.179688 7.5625 7.558594 C 8.160156 7.808594 8.324219 7.65625 8.226562 6.929688 C 8.070312 5.722656 7.425781 5.175781 6.847656 5.753906 M 9.160156 6.0625 C 8.542969 6.707031 8.453125 7.152344 8.96875 7.027344 C 9.753906 6.835938 10.550781 6.378906 10.625 6.074219 C 10.734375 5.652344 10.613281 5.519531 10.113281 5.519531 C 9.753906 5.519531 9.585938 5.613281 9.160156 6.0625 M 17.0625 6.625 C 16.84375 6.84375 16.890625 7.496094 17.140625 7.722656 C 17.359375 7.917969 18.152344 7.992188 18.53125 7.847656 C 18.824219 7.734375 18.765625 7.113281 18.425781 6.773438 C 18.101562 6.449219 17.324219 6.363281 17.0625 6.625 M 8.742188 7.375 C 8.074219 7.828125 7.960938 8.28125 8.511719 8.28125 C 8.707031 8.28125 8.898438 8.335938 8.941406 8.398438 C 8.980469 8.464844 8.910156 8.519531 8.78125 8.519531 C 8.46875 8.519531 7.492188 9.394531 7.605469 9.578125 C 7.65625 9.660156 7.988281 9.71875 8.414062 9.71875 C 9.015625 9.71875 9.179688 9.671875 9.425781 9.425781 C 9.78125 9.070312 9.789062 8.949219 9.480469 8.640625 C 9.261719 8.421875 9.257812 8.398438 9.453125 8.398438 C 10.039062 8.398438 10.441406 7.609375 10.054688 7.222656 C 9.820312 6.988281 9.207031 7.058594 8.742188 7.375 M 5.949219 7.507812 C 5.601562 7.855469 5.765625 8.792969 6.269531 9.328125 C 6.53125 9.609375 7.238281 9.707031 7.378906 9.480469 C 7.484375 9.3125 7.203125 7.914062 7.003906 7.589844 C 6.800781 7.269531 6.234375 7.222656 5.949219 7.507812 M 19.121094 7.792969 C 18.574219 8.039062 18.171875 8.53125 18.28125 8.820312 C 18.363281 9.03125 19.359375 9.070312 19.855469 8.882812 C 20.3125 8.707031 20.484375 8.25 20.234375 7.863281 C 19.996094 7.503906 19.789062 7.488281 19.121094 7.792969 M 16.347656 7.988281 C 16.035156 8.207031 16.003906 8.621094 16.257812 9.117188 C 16.597656 9.769531 17.316406 10.050781 17.644531 9.65625 C 17.859375 9.394531 17.597656 8.582031 17.160156 8.140625 C 16.765625 7.746094 16.707031 7.734375 16.347656 7.988281 M 18.421875 9.386719 C 17.890625 9.570312 17.761719 9.710938 17.761719 10.085938 C 17.761719 10.363281 17.832031 10.445312 18.191406 10.5625 C 19.007812 10.832031 19.800781 10.464844 19.800781 9.820312 C 19.800781 9.296875 19.199219 9.109375 18.421875 9.386719 M 15.21875 9.570312 C 14.9375 9.894531 14.867188 10.195312 15.007812 10.457031 C 15.171875 10.761719 15.824219 11.160156 16.171875 11.160156 C 16.410156 11.160156 16.441406 11.101562 16.441406 10.613281 C 16.441406 10.066406 16.28125 9.621094 16.03125 9.453125 C 15.800781 9.296875 15.402344 9.355469 15.21875 9.570312 M 5.480469 9.820312 C 5.097656 10.238281 5.316406 10.839844 6.113281 11.558594 C 6.78125 12.160156 6.960938 12.140625 6.960938 11.457031 C 6.960938 10.136719 6.074219 9.160156 5.480469 9.820312 M 7.628906 10.378906 C 7.136719 10.871094 7.078125 11.242188 7.46875 11.386719 C 8.109375 11.625 9.035156 11.003906 8.976562 10.382812 C 8.945312 10.058594 8.890625 10.015625 8.5 9.984375 C 8.132812 9.953125 7.992188 10.015625 7.628906 10.378906 M 14.109375 10.867188 C 13.875 11.101562 13.867188 11.667969 14.089844 12.101562 C 14.28125 12.46875 14.789062 12.789062 14.988281 12.667969 C 15.167969 12.554688 15.160156 11.007812 14.976562 10.824219 C 14.773438 10.621094 14.332031 10.644531 14.109375 10.867188 M 17.21875 10.847656 C 16.8125 11.023438 16.078125 11.675781 16.078125 11.855469 C 16.078125 12.035156 16.414062 12.128906 17.296875 12.203125 C 18.054688 12.269531 18.101562 12.257812 18.296875 11.960938 C 18.515625 11.625 18.464844 11.25 18.148438 10.890625 C 17.929688 10.640625 17.710938 10.632812 17.21875 10.847656 M 3.375 11.378906 C 2.816406 12.160156 2.75 13.5625 3.226562 14.492188 C 3.355469 14.75 3.796875 15.355469 4.199219 15.839844 C 4.605469 16.324219 5.042969 16.925781 5.171875 17.179688 C 5.347656 17.527344 5.476562 17.640625 5.703125 17.640625 C 5.867188 17.640625 6.007812 17.574219 6.015625 17.488281 C 6.070312 16.867188 5.753906 16.257812 4.761719 15.089844 C 3.789062 13.945312 3.539062 13.335938 3.640625 12.355469 C 3.683594 11.957031 3.75 11.5 3.792969 11.335938 C 3.890625 10.9375 3.675781 10.957031 3.375 11.378906 M 4.804688 11.390625 C 4.734375 11.519531 4.679688 11.824219 4.679688 12.066406 C 4.679688 12.851562 5.96875 13.851562 6.203125 13.246094 C 6.300781 12.988281 5.9375 11.867188 5.628906 11.472656 C 5.335938 11.101562 4.976562 11.066406 4.804688 11.390625 M 12.484375 11.753906 C 12.265625 12.15625 12.335938 12.777344 12.628906 13.050781 C 12.953125 13.351562 13.4375 13.484375 13.667969 13.332031 C 13.898438 13.183594 13.78125 12.070312 13.5 11.757812 C 13.21875 11.449219 12.648438 11.445312 12.484375 11.753906 M 7.457031 12.097656 C 7.066406 12.644531 7.023438 13.023438 7.308594 13.308594 C 7.449219 13.449219 7.660156 13.558594 7.78125 13.558594 C 8.269531 13.558594 8.691406 12.683594 8.488281 12.089844 C 8.332031 11.625 7.789062 11.628906 7.457031 12.097656 M 15.777344 12.609375 C 15.574219 12.664062 15.253906 12.875 15.066406 13.074219 C 14.734375 13.421875 14.726562 13.445312 14.929688 13.667969 C 15.214844 13.980469 15.640625 14.070312 16.179688 13.925781 C 16.761719 13.769531 17.007812 13.570312 17.101562 13.1875 C 17.246094 12.589844 16.683594 12.34375 15.777344 12.609375 M 6.441406 12.921875 C 6.394531 12.964844 6.359375 13.949219 6.359375 15.109375 C 6.363281 19.089844 7.050781 21.859375 8.152344 22.316406 C 8.359375 22.402344 8.554688 22.445312 8.589844 22.410156 C 8.625 22.375 8.382812 21.539062 8.050781 20.554688 C 7.355469 18.488281 7.101562 17.128906 7 14.941406 C 6.914062 13.089844 6.773438 12.585938 6.441406 12.921875 M 13.914062 13.574219 C 13.835938 13.714844 13.746094 14.148438 13.710938 14.535156 C 13.636719 15.347656 13.773438 15.601562 14.292969 15.601562 C 15.234375 15.601562 15.207031 13.9375 14.257812 13.425781 C 14.101562 13.34375 14.015625 13.378906 13.914062 13.574219 M 13.050781 13.804688 C 12.671875 13.914062 12.539062 13.992188 9.683594 15.757812 C 7.65625 17.011719 7.214844 17.375 7.382812 17.640625 C 7.507812 17.847656 7.761719 17.773438 8.785156 17.246094 C 10.257812 16.488281 12.339844 15.09375 13 14.417969 C 13.601562 13.808594 13.617188 13.648438 13.050781 13.804688 M 16.800781 16.320312 C 16.570312 16.457031 15.921875 16.792969 15.359375 17.070312 L 14.339844 17.570312 L 11.726562 17.65625 C 9.808594 17.71875 8.953125 17.796875 8.519531 17.941406 C 8.191406 18.050781 7.894531 18.183594 7.859375 18.242188 C 7.824219 18.300781 8.265625 18.347656 8.847656 18.34375 C 9.425781 18.339844 10.332031 18.425781 10.859375 18.53125 C 12.679688 18.890625 14.253906 18.726562 16.035156 17.988281 C 17.128906 17.535156 17.921875 16.851562 17.859375 16.414062 C 17.804688 16.042969 17.339844 16.003906 16.800781 16.320312 M 4.808594 19.050781 C 4.242188 19.628906 3.570312 20.410156 3.320312 20.792969 C 2.796875 21.585938 2.621094 22.273438 2.914062 22.386719 C 3.25 22.515625 3.554688 22.226562 4.011719 21.359375 C 4.269531 20.871094 4.835938 20.105469 5.347656 19.558594 C 5.839844 19.035156 6.238281 18.554688 6.238281 18.492188 C 6.238281 18.269531 6.089844 18 5.96875 18 C 5.898438 18 5.375 18.472656 4.808594 19.050781 "/>
</g>
</svg>
