<?xml version="1.0" encoding="UTF-8"?>
<svg xmlns="http://www.w3.org/2000/svg" xmlns:xlink="http://www.w3.org/1999/xlink" width="100px" height="100px" viewBox="0 0 100 100" version="1.1">
<g id="surface1">
<path style=" stroke:none;fill-rule:evenodd;fill:rgb(0%,0%,0%);fill-opacity:1;" d="M 76 7.5 C 73.71875 9.78125 75.339844 14.359375 79.125 16.316406 C 80.945312 17.257812 81.480469 16.71875 81.492188 13.9375 C 81.503906 11.003906 80.957031 9.097656 79.714844 7.757812 C 78.304688 6.238281 77.328125 6.171875 76 7.5 M 41.375 13.941406 C 39.710938 15.921875 38.722656 19.546875 39.46875 20.941406 C 40.300781 22.496094 41.210938 22.25 43.203125 19.917969 C 45.054688 17.757812 45.835938 15.339844 45.265625 13.542969 C 44.777344 12.015625 42.828125 12.214844 41.375 13.941406 M 84.644531 13.625 C 83.027344 15.394531 81.839844 18.039062 82.40625 18.609375 C 83.703125 19.902344 88.5 17.042969 88.5 14.972656 C 88.5 12.34375 86.464844 11.632812 84.644531 13.625 M 33.167969 16.289062 C 32.085938 17.367188 31.921875 17.894531 32.144531 19.554688 C 32.449219 21.828125 34.460938 24.742188 36.003906 25.144531 C 37.363281 25.5 38 23.917969 38 20.195312 C 38 17.953125 37.777344 17.230469 36.773438 16.226562 C 35.230469 14.683594 34.761719 14.691406 33.167969 16.289062 M 74.113281 17.777344 C 72.777344 18.714844 72.589844 21.519531 73.785156 22.714844 C 74.757812 23.6875 78.457031 23.757812 79.726562 22.828125 C 80.828125 22.023438 80.546875 20.328125 78.972656 18.332031 C 77.769531 16.800781 75.824219 16.578125 74.113281 17.777344 M 82.75 23.082031 C 81.183594 23.945312 79 26.121094 79 26.820312 C 79 27.652344 82.335938 28.554688 83.96875 28.167969 C 85.644531 27.769531 86.503906 27.058594 87.050781 25.613281 C 88.007812 23.097656 85.449219 21.59375 82.75 23.082031 M 28.53125 23.96875 C 26.234375 26.265625 27.679688 29.917969 31.503906 31.503906 C 34.007812 32.539062 34.679688 31.902344 34.28125 28.867188 C 33.621094 23.839844 30.941406 21.558594 28.53125 23.96875 M 38.164062 25.257812 C 35.59375 27.941406 35.226562 29.796875 37.375 29.273438 C 40.644531 28.476562 43.964844 26.570312 44.277344 25.316406 C 44.722656 23.546875 44.214844 23 42.136719 23 C 40.644531 23 39.949219 23.398438 38.164062 25.257812 M 71.101562 27.601562 C 70.1875 28.511719 70.375 31.234375 71.414062 32.171875 C 72.328125 32.996094 75.640625 33.296875 77.210938 32.695312 C 78.441406 32.222656 78.191406 29.644531 76.773438 28.226562 C 75.421875 26.875 72.183594 26.515625 71.101562 27.601562 M 36.429688 30.726562 C 33.640625 32.617188 33.164062 34.5 35.46875 34.5 C 36.28125 34.5 37.078125 34.726562 37.25 35 C 37.421875 35.273438 37.125 35.5 36.59375 35.5 C 35.28125 35.5 31.222656 39.148438 31.695312 39.910156 C 31.910156 40.257812 33.285156 40.5 35.050781 40.5 C 37.5625 40.5 38.242188 40.300781 39.273438 39.273438 C 40.761719 37.785156 40.792969 37.292969 39.5 36 C 38.582031 35.082031 38.574219 35 39.386719 35 C 41.824219 35 43.511719 31.710938 41.898438 30.101562 C 40.921875 29.121094 38.359375 29.414062 36.429688 30.726562 M 24.785156 31.285156 C 23.332031 32.738281 24.019531 36.632812 26.121094 38.875 C 27.21875 40.046875 30.164062 40.449219 30.746094 39.503906 C 31.179688 38.808594 30.015625 32.976562 29.175781 31.625 C 28.34375 30.285156 25.96875 30.101562 24.785156 31.285156 M 79.664062 32.46875 C 77.390625 33.5 75.722656 35.550781 76.179688 36.746094 C 76.519531 37.628906 80.65625 37.796875 82.722656 37.011719 C 84.640625 36.28125 85.355469 34.367188 84.308594 32.769531 C 83.320312 31.261719 82.449219 31.203125 79.664062 32.46875 M 68.113281 33.277344 C 66.8125 34.1875 66.679688 35.925781 67.746094 37.996094 C 69.152344 40.710938 72.152344 41.875 73.511719 40.234375 C 74.414062 39.148438 73.328125 35.75 71.492188 33.917969 C 69.851562 32.277344 69.609375 32.230469 68.113281 33.277344 M 76.75 39.105469 C 74.546875 39.882812 74 40.460938 74 42.023438 C 74 43.1875 74.304688 43.523438 75.796875 44.015625 C 79.191406 45.136719 82.5 43.605469 82.5 40.910156 C 82.5 38.746094 80.003906 37.960938 76.75 39.105469 M 63.402344 39.875 C 62.246094 41.222656 61.953125 42.476562 62.535156 43.5625 C 63.222656 44.847656 65.9375 46.496094 67.375 46.496094 C 68.378906 46.5 68.5 46.253906 68.5 44.21875 C 68.5 41.941406 67.84375 40.082031 66.800781 39.382812 C 65.828125 38.734375 64.175781 38.972656 63.402344 39.875 M 22.828125 40.914062 C 21.242188 42.664062 22.15625 45.167969 25.46875 48.164062 C 28.246094 50.671875 29 50.582031 29 47.734375 C 29 42.234375 25.316406 38.164062 22.828125 40.914062 M 31.792969 43.238281 C 29.734375 45.300781 29.488281 46.84375 31.121094 47.445312 C 33.785156 48.433594 37.652344 45.855469 37.398438 43.265625 C 37.265625 41.914062 37.050781 41.734375 35.417969 41.597656 C 33.882812 41.46875 33.300781 41.730469 31.792969 43.238281 M 58.785156 45.285156 C 57.808594 46.261719 57.773438 48.609375 58.707031 50.417969 C 59.503906 51.957031 61.621094 53.292969 62.453125 52.78125 C 63.203125 52.316406 63.160156 45.859375 62.398438 45.101562 C 61.558594 44.257812 59.71875 44.351562 58.785156 45.285156 M 71.75 45.195312 C 70.058594 45.9375 67 48.640625 67 49.398438 C 67 50.140625 68.390625 50.542969 72.070312 50.855469 C 75.230469 51.121094 75.429688 51.074219 76.234375 49.84375 C 77.152344 48.441406 76.9375 46.882812 75.613281 45.375 C 74.707031 44.34375 73.792969 44.300781 71.75 45.195312 M 14.0625 47.410156 C 11.742188 50.671875 11.460938 56.503906 13.4375 60.378906 C 13.984375 61.453125 15.8125 63.980469 17.5 66 C 19.1875 68.019531 21.007812 70.53125 21.542969 71.585938 C 22.28125 73.027344 22.828125 73.5 23.761719 73.5 C 24.441406 73.5 25.027344 73.21875 25.058594 72.875 C 25.296875 70.277344 23.96875 67.734375 19.839844 62.875 C 15.792969 58.113281 14.746094 55.558594 15.171875 51.480469 C 15.347656 49.828125 15.628906 47.917969 15.796875 47.238281 C 16.21875 45.566406 15.3125 45.65625 14.0625 47.410156 M 20.015625 47.46875 C 19.734375 48 19.5 49.261719 19.5 50.277344 C 19.5 53.550781 24.871094 57.71875 25.839844 55.195312 C 26.253906 54.121094 24.742188 49.445312 23.457031 47.808594 C 22.242188 46.261719 20.742188 46.113281 20.015625 47.46875 M 52.015625 48.96875 C 51.113281 50.65625 51.402344 53.234375 52.625 54.375 C 53.96875 55.632812 55.984375 56.183594 56.945312 55.558594 C 57.917969 54.925781 57.425781 50.296875 56.246094 48.996094 C 55.078125 47.703125 52.703125 47.6875 52.015625 48.96875 M 31.066406 50.40625 C 29.445312 52.679688 29.257812 54.257812 30.457031 55.457031 C 31.03125 56.03125 31.914062 56.5 32.421875 56.5 C 34.460938 56.5 36.214844 52.851562 35.371094 50.375 C 34.710938 48.445312 32.453125 48.460938 31.066406 50.40625 M 65.730469 52.53125 C 64.894531 52.773438 63.5625 53.652344 62.769531 54.476562 C 61.390625 55.921875 61.367188 56.023438 62.203125 56.945312 C 63.386719 58.257812 65.171875 58.628906 67.410156 58.023438 C 69.847656 57.367188 70.875 56.546875 71.257812 54.945312 C 71.859375 52.457031 69.511719 51.433594 65.730469 52.53125 M 26.832031 53.832031 C 26.648438 54.015625 26.5 58.121094 26.503906 62.957031 C 26.507812 79.546875 29.378906 91.085938 33.96875 92.988281 C 34.828125 93.34375 35.652344 93.515625 35.796875 93.367188 C 35.945312 93.222656 34.929688 89.746094 33.546875 85.644531 C 30.644531 77.03125 29.582031 71.367188 29.160156 62.25 C 28.800781 54.546875 28.222656 52.445312 26.832031 53.832031 M 57.96875 56.558594 C 57.652344 57.152344 57.273438 58.949219 57.128906 60.558594 C 56.820312 63.945312 57.398438 65 59.550781 65 C 63.480469 65 63.367188 58.070312 59.402344 55.949219 C 58.75 55.597656 58.402344 55.746094 57.96875 56.558594 M 54.382812 57.527344 C 52.800781 57.96875 52.242188 58.292969 40.347656 65.652344 C 31.902344 70.882812 30.0625 72.386719 30.757812 73.511719 C 31.28125 74.359375 32.34375 74.058594 36.605469 71.867188 C 42.742188 68.703125 51.414062 62.886719 54.171875 60.082031 C 56.679688 57.535156 56.734375 56.867188 54.382812 57.527344 M 70 68 C 69.039062 68.566406 66.335938 69.972656 64 71.121094 L 59.75 73.214844 L 48.859375 73.570312 C 40.875 73.832031 37.3125 74.148438 35.492188 74.753906 C 34.128906 75.207031 32.890625 75.773438 32.742188 76.011719 C 32.59375 76.253906 34.449219 76.441406 36.863281 76.433594 C 39.273438 76.421875 43.050781 76.773438 45.25 77.207031 C 52.824219 78.707031 59.390625 78.019531 66.820312 74.949219 C 71.367188 73.070312 74.671875 70.21875 74.414062 68.398438 C 74.191406 66.847656 72.253906 66.675781 70 68 M 20.035156 79.375 C 17.671875 81.78125 14.878906 85.046875 13.835938 86.632812 C 11.65625 89.9375 10.929688 92.8125 12.148438 93.28125 C 13.535156 93.8125 14.820312 92.609375 16.714844 89.003906 C 17.785156 86.964844 20.148438 83.78125 22.285156 81.492188 C 24.328125 79.308594 26 77.3125 26 77.050781 C 26 76.117188 25.382812 75 24.863281 75 C 24.574219 75 22.402344 76.96875 20.035156 79.375 "/>
</g>
</svg>
