<?xml version="1.0" encoding="UTF-8"?>
<svg xmlns="http://www.w3.org/2000/svg" xmlns:xlink="http://www.w3.org/1999/xlink" width="100px" height="100px" viewBox="0 0 100 100" version="1.1">
<g id="surface1">
<path style=" stroke:none;fill-rule:evenodd;fill:rgb(0%,50.196081%,0%);fill-opacity:1;" d="M 45.074219 21.257812 C 43.878906 21.941406 42.351562 22.5 41.683594 22.5 C 38.589844 22.5 35.238281 25.175781 34.652344 28.113281 C 34.5 28.875 34.203125 29.5 33.992188 29.5 C 33.777344 29.5 32.917969 30.140625 32.078125 30.925781 C 30.953125 31.976562 29.851562 32.4375 27.902344 32.667969 C 23.117188 33.234375 19.027344 37.378906 19.007812 41.679688 C 19.003906 43.136719 18.695312 43.847656 17.738281 44.597656 C 15.265625 46.542969 14.21875 50.601562 15.546875 53.082031 C 15.996094 53.921875 15.867188 54.332031 14.828125 55.425781 C 13.152344 57.183594 12.5 59.039062 12.5 62.050781 C 12.5 67.960938 17.875 72.652344 23.664062 71.792969 C 25.542969 71.511719 25.894531 71.636719 27.207031 73.035156 C 29.507812 75.480469 33.480469 77.941406 36.804688 78.972656 C 39.359375 79.769531 41.46875 79.925781 49.804688 79.9375 C 62.984375 79.957031 66.320312 79.015625 72.058594 73.644531 C 74.222656 71.621094 74.527344 71.492188 76.390625 71.789062 C 82.066406 72.699219 87.5 67.933594 87.5 62.050781 C 87.5 59.039062 86.847656 57.183594 85.171875 55.425781 C 84.132812 54.332031 84.003906 53.921875 84.453125 53.082031 C 85.78125 50.601562 84.734375 46.542969 82.261719 44.597656 C 81.304688 43.847656 80.996094 43.136719 80.992188 41.679688 C 80.972656 37.378906 76.882812 33.234375 72.097656 32.667969 C 70.148438 32.4375 69.046875 31.976562 67.921875 30.925781 C 67.082031 30.140625 66.222656 29.5 66.007812 29.5 C 65.796875 29.5 65.5 28.875 65.347656 28.113281 C 64.761719 25.175781 61.410156 22.5 58.316406 22.5 C 57.648438 22.5 56.121094 21.941406 54.925781 21.257812 C 53.332031 20.34375 52.011719 20.011719 50 20.011719 C 47.988281 20.011719 46.667969 20.34375 45.074219 21.257812 M 46.75 23.585938 C 46.199219 23.890625 45.332031 24.503906 44.824219 24.945312 C 44.273438 25.421875 42.976562 25.753906 41.640625 25.765625 C 39.027344 25.78125 37.5 27.171875 37.5 29.539062 C 37.5 30.511719 37.144531 31.148438 36.375 31.546875 C 33.523438 33.023438 33.496094 33.316406 35.945312 35.875 C 37.289062 37.277344 39.242188 38.660156 40.714844 39.25 C 43.421875 40.332031 45.5 42.761719 45.5 44.835938 C 45.5 45.679688 45.898438 46.164062 46.875 46.511719 C 47.632812 46.78125 48.644531 47.226562 49.125 47.503906 C 49.714844 47.84375 50.285156 47.84375 50.875 47.503906 C 51.355469 47.226562 52.367188 46.78125 53.125 46.511719 C 54.101562 46.164062 54.5 45.679688 54.5 44.835938 C 54.5 42.761719 56.578125 40.332031 59.285156 39.25 C 60.757812 38.660156 62.710938 37.277344 64.054688 35.875 C 66.503906 33.316406 66.476562 33.023438 63.625 31.546875 C 62.9375 31.191406 62.5 30.503906 62.5 29.773438 C 62.5 29.117188 62.359375 28.21875 62.191406 27.773438 C 61.710938 26.527344 59.121094 25.394531 57.542969 25.742188 C 56.59375 25.949219 55.949219 25.792969 55.492188 25.238281 C 53.789062 23.1875 49.074219 22.296875 46.75 23.585938 M 25.582031 36.34375 C 23.257812 37.488281 22.289062 39.207031 22 42.714844 C 21.785156 45.296875 21.574219 45.8125 20.507812 46.34375 C 19.824219 46.679688 18.980469 47.347656 18.632812 47.824219 C 17.78125 48.992188 17.832031 51.585938 18.734375 52.78125 C 19.851562 54.257812 19.660156 55.003906 17.71875 56.695312 C 12.070312 61.621094 17.386719 71.050781 24.386719 68.519531 C 26.085938 67.90625 26.152344 67.933594 28.679688 70.371094 C 30.09375 71.734375 31.972656 73.339844 32.855469 73.945312 C 34.769531 75.25 39.65625 77 41.390625 77 C 42.589844 77 42.566406 76.933594 40.644531 74.847656 C 39.554688 73.667969 37.683594 71.050781 36.484375 69.035156 C 34.453125 65.617188 34.074219 65.257812 30.816406 63.695312 C 27.042969 61.886719 26.261719 61.140625 27.089844 60.140625 C 27.792969 59.292969 28.726562 59.332031 30.570312 60.285156 C 31.40625 60.71875 32.183594 60.984375 32.292969 60.875 C 32.402344 60.761719 32.023438 59.28125 31.449219 57.582031 C 30.445312 54.613281 30.265625 54.40625 26.953125 52.472656 C 24.515625 51.050781 23.5 50.164062 23.5 49.460938 C 23.5 47.777344 24.816406 47.839844 28.085938 49.679688 L 31.21875 51.449219 L 33.011719 48.347656 C 34.234375 46.238281 35.113281 45.25 35.769531 45.25 C 37.347656 45.25 37.1875 46.816406 35.253906 50.277344 C 33.300781 53.769531 33.253906 54.695312 34.847656 58.5 L 35.578125 60.25 L 36.800781 57.875 C 38.042969 55.449219 38.9375 54.96875 39.941406 56.179688 C 40.375 56.703125 40.109375 57.738281 38.796875 60.613281 L 37.085938 64.371094 L 39.144531 67.808594 C 42.3125 73.101562 47.75 78.128906 46.78125 74.875 C 45.808594 71.597656 44.621094 64.902344 44.851562 64.011719 C 45 63.449219 45.65625 62.855469 46.308594 62.691406 C 47.710938 62.339844 47.734375 62.183594 46.75 59.828125 C 45.730469 57.390625 45.804688 54.089844 46.929688 51.886719 L 47.859375 50.0625 L 46.554688 49.554688 C 45.835938 49.277344 44.6875 48.980469 44 48.898438 C 42.964844 48.777344 42.726562 48.449219 42.613281 47 C 42.539062 46.039062 42.367188 44.746094 42.234375 44.132812 C 41.933594 42.777344 39.464844 41.414062 37.660156 41.609375 C 36.570312 41.726562 36.121094 41.371094 35.046875 39.558594 C 32.863281 35.867188 29.128906 34.597656 25.582031 36.34375 M 67.992188 36.433594 C 67.035156 36.945312 65.667969 38.351562 64.953125 39.558594 C 63.878906 41.371094 63.429688 41.726562 62.339844 41.609375 C 60.535156 41.414062 58.066406 42.777344 57.765625 44.132812 C 57.632812 44.746094 57.460938 46.035156 57.386719 46.996094 C 57.261719 48.5625 57.074219 48.765625 55.5 49.027344 C 51.542969 49.679688 49 52.375 49.003906 55.914062 C 49.003906 58.84375 50.300781 61.054688 52.683594 62.183594 C 53.675781 62.65625 54.699219 63.433594 54.953125 63.914062 C 55.453125 64.84375 54.664062 69.800781 53.335938 74.109375 L 52.605469 76.46875 L 54.003906 75.75 C 55.960938 74.734375 59.210938 70.808594 61.113281 67.160156 L 62.722656 64.070312 L 61.117188 60.453125 C 59.902344 57.71875 59.644531 56.675781 60.066406 56.167969 C 61.0625 54.96875 61.960938 55.457031 63.195312 57.875 C 64.402344 60.226562 64.417969 60.238281 64.90625 58.96875 C 66.78125 54.128906 66.777344 53.765625 64.796875 50.445312 C 62.816406 47.121094 62.609375 45.25 64.222656 45.25 C 64.890625 45.25 65.761719 46.226562 66.988281 48.347656 L 68.78125 51.449219 L 71.914062 49.679688 C 75.183594 47.839844 76.5 47.777344 76.5 49.460938 C 76.5 50.164062 75.484375 51.050781 73.046875 52.472656 C 69.734375 54.40625 69.554688 54.613281 68.550781 57.582031 C 67.976562 59.28125 67.597656 60.761719 67.707031 60.875 C 67.816406 60.984375 68.59375 60.71875 69.429688 60.285156 C 71.273438 59.332031 72.207031 59.292969 72.910156 60.140625 C 73.738281 61.140625 72.957031 61.886719 69.183594 63.695312 C 65.972656 65.234375 65.527344 65.644531 63.644531 68.808594 C 62.519531 70.703125 60.660156 73.320312 59.507812 74.625 C 57.453125 76.957031 57.4375 77 58.6875 77 C 60.304688 77 65.289062 75.167969 67.25 73.851562 C 68.074219 73.300781 69.90625 71.734375 71.320312 70.371094 C 73.847656 67.933594 73.914062 67.90625 75.613281 68.519531 C 80.710938 70.363281 85.871094 65.441406 84.402344 60.132812 C 84.121094 59.101562 83.125 57.542969 82.195312 56.664062 C 80.332031 54.90625 80.167969 54.230469 81.265625 52.78125 C 82.167969 51.585938 82.21875 48.992188 81.367188 47.824219 C 81.019531 47.347656 80.175781 46.679688 79.492188 46.34375 C 78.429688 45.816406 78.210938 45.289062 77.992188 42.738281 C 77.695312 39.269531 76.617188 37.40625 74.269531 36.292969 C 72.066406 35.246094 70.125 35.292969 67.992188 36.433594 M 48.402344 65.125 C 47.683594 65.691406 47.699219 66.128906 48.59375 69.875 C 49.136719 72.144531 49.769531 74 50 74 C 50.230469 74 50.863281 72.144531 51.40625 69.875 C 52.300781 66.128906 52.316406 65.691406 51.597656 65.125 C 51.164062 64.78125 50.445312 64.5 50 64.5 C 49.554688 64.5 48.835938 64.78125 48.402344 65.125 "/>
</g>
</svg>
