<?xml version="1.0" encoding="UTF-8"?>
<svg xmlns="http://www.w3.org/2000/svg" xmlns:xlink="http://www.w3.org/1999/xlink" width="24px" height="24px" viewBox="0 0 24 24" version="1.1">
<g id="surface1">
<path style=" stroke:none;fill-rule:evenodd;fill:rgb(0%,0%,0%);fill-opacity:1;" d="M 10.515625 3.421875 C 8.8125 3.855469 7.320312 5.058594 6.539062 6.636719 C 6.105469 7.519531 6.078125 7.542969 5.195312 7.980469 C 2.664062 9.230469 1.296875 12.148438 1.984375 14.824219 C 2.285156 15.996094 2.746094 16.800781 3.609375 17.671875 C 5.410156 19.480469 8.101562 20.019531 10.304688 19.015625 C 11.253906 18.582031 11.28125 18.59375 11.28125 19.507812 C 11.28125 20.378906 11.417969 20.761719 11.738281 20.761719 C 12.125 20.761719 12.238281 20.496094 12.238281 19.609375 C 12.238281 18.828125 12.265625 18.742188 12.496094 18.679688 C 12.652344 18.640625 13 18.738281 13.367188 18.925781 C 15.671875 20.097656 18.511719 19.644531 20.339844 17.820312 C 22.273438 15.886719 22.722656 13.152344 21.507812 10.679688 C 21.027344 9.703125 19.808594 8.527344 18.738281 8.011719 C 17.878906 7.597656 17.84375 7.5625 17.449219 6.75 C 16.441406 4.667969 14.535156 3.402344 12.238281 3.292969 C 11.578125 3.261719 10.972656 3.308594 10.515625 3.421875 M 10.410156 4.425781 C 8.777344 4.964844 7.488281 6.257812 7.027344 7.820312 C 6.890625 8.277344 6.828125 8.332031 6.152344 8.578125 C 4.746094 9.085938 3.644531 10.144531 3.09375 11.519531 C 2.878906 12.050781 2.828125 12.425781 2.824219 13.441406 C 2.820312 14.613281 2.847656 14.757812 3.203125 15.511719 C 4.308594 17.84375 6.773438 19.042969 9.179688 18.414062 C 9.570312 18.3125 9.90625 18.214844 9.921875 18.199219 C 9.941406 18.179688 9.613281 17.8125 9.191406 17.382812 C 8.675781 16.855469 8.292969 16.3125 8.003906 15.710938 C 7.585938 14.832031 7.214844 13.503906 7.351562 13.367188 C 7.445312 13.273438 9.292969 14.160156 9.960938 14.621094 L 10.5 14.992188 L 10.582031 14.546875 C 10.625 14.300781 10.722656 13.75 10.800781 13.320312 C 10.953125 12.453125 11.535156 10.894531 11.726562 10.832031 C 11.859375 10.785156 12.722656 12.390625 12.957031 13.121094 C 13.039062 13.375 13.167969 13.980469 13.242188 14.464844 L 13.378906 15.34375 L 14.101562 14.871094 C 14.773438 14.425781 16.179688 13.8125 16.96875 13.613281 C 17.300781 13.527344 17.3125 13.539062 17.234375 13.871094 C 17.191406 14.0625 16.914062 14.707031 16.625 15.300781 C 16.058594 16.449219 15.320312 17.316406 14.417969 17.890625 L 13.894531 18.226562 L 14.585938 18.425781 C 15.628906 18.730469 17.242188 18.628906 18.171875 18.199219 C 19.132812 17.757812 19.863281 17.136719 20.402344 16.300781 C 22.242188 13.453125 20.890625 9.617188 17.679688 8.578125 C 17.089844 8.390625 17.050781 8.347656 16.859375 7.757812 C 16.425781 6.410156 15.410156 5.273438 14.078125 4.652344 C 13.046875 4.167969 11.480469 4.070312 10.410156 4.425781 "/>
</g>
</svg>
