<?xml version="1.0" encoding="UTF-8"?>
<svg xmlns="http://www.w3.org/2000/svg" xmlns:xlink="http://www.w3.org/1999/xlink" width="100px" height="100px" viewBox="0 0 100 100" version="1.1">
<g id="surface1">
<path style=" stroke:none;fill-rule:evenodd;fill:rgb(0%,50.196081%,0%);fill-opacity:1;" d="M 43.816406 14.257812 C 36.710938 16.058594 30.496094 21.085938 27.253906 27.644531 C 25.429688 31.332031 25.332031 31.429688 21.644531 33.253906 C 11.097656 38.464844 5.398438 50.609375 8.265625 61.769531 C 9.519531 66.652344 11.433594 70.007812 15.035156 73.625 C 22.539062 81.164062 33.75 83.414062 42.933594 79.222656 C 46.894531 77.417969 47 77.472656 47 81.28125 C 47 84.914062 47.582031 86.5 48.917969 86.5 C 50.523438 86.5 51 85.40625 51 81.707031 C 51 78.457031 51.101562 78.089844 52.070312 77.835938 C 52.714844 77.667969 54.167969 78.078125 55.695312 78.851562 C 65.300781 83.734375 77.132812 81.859375 84.746094 74.25 C 92.8125 66.191406 94.679688 54.800781 89.617188 44.5 C 87.617188 40.433594 82.53125 35.535156 78.070312 33.382812 C 74.492188 31.65625 74.347656 31.511719 72.707031 28.117188 C 68.511719 19.449219 60.554688 14.171875 51 13.71875 C 48.25 13.585938 45.714844 13.777344 43.816406 14.257812 M 43.382812 18.4375 C 36.570312 20.691406 31.199219 26.078125 29.277344 32.585938 C 28.71875 34.488281 28.449219 34.71875 25.632812 35.738281 C 19.78125 37.859375 15.1875 42.277344 12.886719 48 C 11.996094 50.214844 11.777344 51.769531 11.765625 56 C 11.75 60.886719 11.859375 61.484375 13.351562 64.628906 C 17.953125 74.34375 28.230469 79.339844 38.25 76.730469 C 39.875 76.304688 41.269531 75.898438 41.34375 75.824219 C 41.417969 75.75 40.046875 74.222656 38.300781 72.433594 C 36.148438 70.226562 34.550781 67.976562 33.355469 65.460938 C 31.613281 61.792969 30.066406 56.265625 30.628906 55.703125 C 31.023438 55.308594 38.714844 59 41.5 60.921875 L 43.75 62.472656 L 44.085938 60.609375 C 44.269531 59.585938 44.679688 57.289062 45 55.5 C 45.644531 51.886719 48.058594 45.398438 48.855469 45.132812 C 49.417969 44.945312 53.015625 51.625 53.992188 54.671875 C 54.332031 55.730469 54.867188 58.246094 55.179688 60.265625 L 55.75 63.933594 L 58.75 61.957031 C 61.550781 60.109375 67.410156 57.542969 70.707031 56.714844 C 72.089844 56.371094 72.132812 56.410156 71.8125 57.800781 C 71.628906 58.597656 70.480469 61.273438 69.261719 63.75 C 66.902344 68.542969 63.835938 72.148438 60.074219 74.550781 L 57.894531 75.941406 L 60.769531 76.777344 C 65.121094 78.042969 71.84375 77.621094 75.714844 75.835938 C 79.714844 73.996094 82.761719 71.402344 85.007812 67.925781 C 92.679688 56.058594 87.042969 40.070312 73.667969 35.746094 C 71.210938 34.953125 71.046875 34.789062 70.253906 32.332031 C 68.433594 26.703125 64.203125 21.976562 58.660156 19.386719 C 54.355469 17.371094 47.828125 16.964844 43.382812 18.4375 "/>
</g>
</svg>
