<?xml version="1.0" encoding="UTF-8"?>
<svg xmlns="http://www.w3.org/2000/svg" xmlns:xlink="http://www.w3.org/1999/xlink" width="24px" height="24px" viewBox="0 0 24 24" version="1.1">
<g id="surface1">
<path style=" stroke:none;fill-rule:evenodd;fill:rgb(0%,50.196081%,0%);fill-opacity:1;" d="M 9.503906 4.601562 C 8.269531 5.21875 8.265625 5.222656 8.335938 5.601562 C 8.40625 5.96875 8.378906 6 7.652344 6.386719 C 7.238281 6.609375 6.914062 6.855469 6.929688 6.933594 C 6.945312 7.011719 7.664062 8.519531 8.527344 10.289062 C 9.488281 12.253906 10.1875 13.84375 10.328125 14.390625 C 10.527344 15.160156 10.558594 15.710938 10.558594 18.480469 C 10.558594 21.429688 10.578125 21.699219 10.78125 21.882812 C 10.898438 21.992188 11.070312 22.078125 11.160156 22.078125 C 11.265625 22.078125 11.234375 22.175781 11.058594 22.359375 C 10.691406 22.75 10.878906 22.855469 11.304688 22.496094 C 11.734375 22.136719 11.851562 22.125 11.902344 22.445312 C 11.953125 22.761719 12.167969 22.761719 12.21875 22.445312 C 12.265625 22.132812 12.292969 22.136719 12.769531 22.5 C 13.234375 22.855469 13.433594 22.757812 13.058594 22.359375 C 12.84375 22.128906 12.832031 22.078125 12.992188 22.078125 C 13.097656 22.078125 13.269531 21.960938 13.375 21.8125 C 13.53125 21.589844 13.558594 21.046875 13.5625 18.363281 C 13.5625 15.96875 13.609375 14.992188 13.742188 14.421875 C 13.847656 13.96875 14.59375 12.292969 15.601562 10.234375 C 16.523438 8.34375 17.265625 6.789062 17.25 6.773438 C 17.234375 6.761719 16.875 6.574219 16.457031 6.363281 C 15.890625 6.082031 15.726562 5.945312 15.824219 5.847656 C 16.164062 5.507812 15.960938 5.28125 14.761719 4.679688 C 14.101562 4.351562 13.507812 4.078125 13.441406 4.078125 C 13.375 4.078125 13.0625 4.59375 12.753906 5.21875 C 12.441406 5.847656 12.15625 6.359375 12.117188 6.359375 C 12.078125 6.359375 11.808594 5.871094 11.515625 5.269531 C 11.222656 4.671875 10.925781 4.136719 10.859375 4.082031 C 10.792969 4.03125 10.195312 4.257812 9.503906 4.601562 M 10.503906 4.671875 C 10.464844 4.738281 10.574219 5.070312 10.746094 5.410156 C 10.957031 5.832031 11.019531 6.070312 10.9375 6.152344 C 10.851562 6.234375 10.707031 6.058594 10.480469 5.597656 C 10.300781 5.226562 10.105469 4.921875 10.050781 4.921875 C 9.816406 4.921875 8.757812 5.539062 8.820312 5.640625 C 8.859375 5.707031 9.007812 5.695312 9.183594 5.617188 C 9.347656 5.542969 9.5 5.503906 9.527344 5.53125 C 9.550781 5.558594 10.140625 6.714844 10.832031 8.101562 L 12.09375 10.621094 L 12.492188 9.808594 L 12.894531 8.996094 L 11.816406 6.828125 C 11.222656 5.636719 10.703125 4.636719 10.660156 4.609375 C 10.613281 4.578125 10.542969 4.609375 10.503906 4.671875 M 12.988281 5.773438 L 12.402344 7.019531 L 12.699219 7.679688 C 12.859375 8.042969 13.027344 8.378906 13.070312 8.429688 C 13.113281 8.476562 13.472656 7.867188 13.863281 7.070312 L 14.578125 5.625 L 14.960938 5.695312 C 15.578125 5.8125 15.535156 5.554688 14.886719 5.222656 C 14.558594 5.058594 14.242188 4.921875 14.1875 4.921875 C 14.128906 4.921875 13.992188 5.117188 13.875 5.359375 C 13.734375 5.65625 13.628906 5.757812 13.542969 5.671875 C 13.457031 5.585938 13.480469 5.425781 13.621094 5.160156 C 13.757812 4.890625 13.78125 4.734375 13.695312 4.648438 C 13.609375 4.5625 13.390625 4.910156 12.988281 5.773438 M 8.5625 6.457031 L 7.941406 6.78125 L 8.40625 7.679688 C 8.882812 8.613281 8.964844 8.878906 8.761719 8.878906 C 8.695312 8.878906 8.425781 8.449219 8.160156 7.921875 C 7.894531 7.390625 7.625 6.960938 7.558594 6.960938 C 7.492188 6.960938 7.441406 6.984375 7.441406 7.011719 C 7.441406 7.042969 8.167969 8.535156 9.058594 10.328125 C 9.949219 12.125 10.683594 13.679688 10.6875 13.785156 C 10.6875 13.890625 10.839844 13.546875 11.023438 13.019531 C 11.207031 12.492188 11.46875 11.84375 11.605469 11.582031 L 11.851562 11.105469 L 10.605469 8.613281 C 9.921875 7.242188 9.320312 6.121094 9.269531 6.125 C 9.21875 6.128906 8.902344 6.277344 8.5625 6.457031 M 13.324219 9.089844 C 10.988281 13.8125 11.007812 13.730469 11.0625 18.421875 L 11.101562 21.660156 L 12.050781 21.695312 C 12.726562 21.722656 13.027344 21.6875 13.097656 21.574219 C 13.152344 21.488281 13.195312 19.960938 13.199219 18.175781 C 13.199219 15.671875 13.242188 14.765625 13.382812 14.214844 C 13.484375 13.820312 14.265625 12.078125 15.121094 10.339844 C 15.980469 8.601562 16.679688 7.128906 16.679688 7.070312 C 16.679688 6.726562 16.382812 7.078125 15.960938 7.921875 C 15.695312 8.449219 15.425781 8.878906 15.359375 8.878906 C 15.160156 8.878906 15.222656 8.671875 15.710938 7.699219 L 16.183594 6.761719 L 15.527344 6.441406 C 15.167969 6.265625 14.855469 6.121094 14.832031 6.121094 C 14.808594 6.121094 14.128906 7.457031 13.324219 9.089844 "/>
</g>
</svg>
