<?xml version="1.0" encoding="UTF-8"?>
<svg xmlns="http://www.w3.org/2000/svg" xmlns:xlink="http://www.w3.org/1999/xlink" width="100px" height="100px" viewBox="0 0 100 100" version="1.1">
<g id="surface1">
<path style=" stroke:none;fill-rule:evenodd;fill:rgb(0%,50.196081%,0%);fill-opacity:1;" d="M 39.59375 19.179688 C 34.449219 21.742188 34.441406 21.753906 34.734375 23.339844 C 35.019531 24.867188 34.914062 24.992188 31.890625 26.609375 C 30.164062 27.53125 28.804688 28.554688 28.871094 28.886719 C 28.9375 29.214844 31.9375 35.503906 35.535156 42.867188 C 39.539062 51.058594 42.449219 57.6875 43.039062 59.953125 C 43.871094 63.160156 44 65.457031 44 77.003906 C 44 89.292969 44.070312 90.410156 44.914062 91.171875 C 45.417969 91.628906 46.132812 92 46.5 92 C 46.945312 92 46.800781 92.394531 46.082031 93.160156 C 44.550781 94.792969 45.332031 95.230469 47.109375 93.734375 C 48.894531 92.234375 49.382812 92.191406 49.589844 93.519531 C 49.796875 94.839844 50.703125 94.839844 50.910156 93.519531 C 51.113281 92.226562 51.222656 92.238281 53.203125 93.746094 C 55.140625 95.226562 55.976562 94.824219 54.417969 93.160156 C 53.523438 92.207031 53.46875 92 54.132812 92 C 54.578125 92 55.292969 91.5 55.722656 90.886719 C 56.378906 89.953125 56.5 87.699219 56.507812 76.511719 C 56.511719 66.539062 56.699219 62.46875 57.257812 60.09375 C 57.703125 58.203125 60.804688 51.214844 65.003906 42.636719 C 68.851562 34.773438 71.945312 28.289062 71.875 28.226562 C 71.808594 28.167969 70.316406 27.398438 68.5625 26.519531 C 66.207031 25.339844 65.523438 24.777344 65.9375 24.363281 C 67.355469 22.945312 66.5 22.007812 61.507812 19.503906 C 58.765625 18.128906 56.289062 17 56.007812 17 C 55.722656 17 54.429688 19.136719 53.132812 21.75 C 51.835938 24.363281 50.648438 26.5 50.488281 26.5 C 50.332031 26.5 49.203125 24.457031 47.980469 21.960938 C 46.757812 19.460938 45.527344 17.238281 45.253906 17.015625 C 44.972656 16.789062 42.480469 17.742188 39.59375 19.179688 M 43.765625 19.472656 C 43.601562 19.742188 44.050781 21.125 44.773438 22.542969 C 45.660156 24.296875 45.914062 25.285156 45.570312 25.632812 C 45.222656 25.976562 44.617188 25.238281 43.675781 23.320312 C 42.914062 21.769531 42.105469 20.5 41.878906 20.5 C 40.898438 20.5 36.488281 23.078125 36.75 23.5 C 36.921875 23.777344 37.535156 23.734375 38.269531 23.398438 C 38.949219 23.089844 39.589844 22.929688 39.695312 23.042969 C 39.800781 23.15625 42.25 27.976562 45.136719 33.75 L 50.382812 44.25 L 52.050781 40.867188 L 53.722656 37.488281 L 49.234375 28.449219 C 46.769531 23.480469 44.597656 19.320312 44.410156 19.199219 C 44.222656 19.082031 43.933594 19.203125 43.765625 19.472656 M 54.113281 24.050781 L 51.679688 29.25 L 52.90625 32 C 53.582031 33.511719 54.28125 34.914062 54.460938 35.121094 C 54.640625 35.324219 56.128906 32.777344 57.769531 29.460938 L 60.75 23.433594 L 62.335938 23.734375 C 64.902344 24.214844 64.738281 23.136719 62.035156 21.769531 C 60.660156 21.070312 59.34375 20.5 59.109375 20.5 C 58.875 20.5 58.292969 21.320312 57.816406 22.324219 C 57.21875 23.574219 56.785156 23.984375 56.429688 23.628906 C 56.078125 23.277344 56.175781 22.609375 56.75 21.5 C 57.328125 20.382812 57.425781 19.722656 57.066406 19.367188 C 56.707031 19.007812 55.796875 20.457031 54.113281 24.050781 M 35.671875 26.898438 L 33.09375 28.25 L 35.023438 32 C 37.019531 35.882812 37.351562 37 36.503906 37 C 36.234375 37 35.105469 35.199219 34 33 C 32.894531 30.800781 31.765625 29 31.496094 29 C 31.222656 29 31 29.097656 31 29.222656 C 31 29.34375 34.039062 35.558594 37.75 43.035156 C 41.460938 50.511719 44.511719 56.996094 44.523438 57.441406 C 44.539062 57.886719 45.171875 56.449219 45.933594 54.25 C 46.691406 52.050781 47.78125 49.355469 48.351562 48.261719 L 49.390625 46.269531 L 44.191406 35.886719 C 41.335938 30.171875 38.828125 25.511719 38.621094 25.523438 C 38.417969 25.535156 37.089844 26.15625 35.671875 26.898438 M 55.511719 37.875 C 45.78125 57.546875 45.863281 57.210938 46.09375 76.75 L 46.25 90.25 L 50.207031 90.398438 C 53.035156 90.503906 54.28125 90.359375 54.574219 89.898438 C 54.800781 89.542969 54.988281 83.164062 54.992188 75.730469 C 55 65.292969 55.171875 61.53125 55.761719 59.230469 C 56.179688 57.589844 59.441406 50.324219 63.011719 43.078125 C 66.578125 35.832031 69.5 29.703125 69.5 29.453125 C 69.5 28.03125 68.261719 29.496094 66.5 33 C 65.394531 35.199219 64.265625 37 63.996094 37 C 63.164062 37 63.421875 36.132812 65.460938 32.074219 L 67.425781 28.171875 L 64.703125 26.835938 C 63.203125 26.101562 61.898438 25.5 61.804688 25.5 C 61.710938 25.5 58.878906 31.070312 55.511719 37.875 "/>
</g>
</svg>
