<?xml version="1.0" encoding="UTF-8"?>
<svg xmlns="http://www.w3.org/2000/svg" xmlns:xlink="http://www.w3.org/1999/xlink" width="100px" height="100px" viewBox="0 0 100 100" version="1.1">
<g id="surface1">
<path style=" stroke:none;fill-rule:evenodd;fill:rgb(0%,50.196081%,0%);fill-opacity:1;" d="M 48.832031 2.238281 C 48.425781 2.648438 47.9375 3.882812 47.75 4.988281 C 47.566406 6.09375 47.128906 7 46.785156 7 C 46.441406 7 44.660156 9.128906 42.832031 11.726562 C 32.429688 26.5 21.355469 37.894531 10.734375 44.746094 C 3.847656 49.191406 0.609375 54.457031 0.125 62.011719 C -0.160156 66.488281 0.742188 70.527344 3.054688 75.113281 C 5.171875 79.304688 10.726562 84.816406 14.949219 86.90625 C 16.707031 87.78125 19.292969 89.578125 20.699219 90.902344 C 29.636719 99.347656 43.207031 100.691406 51.617188 93.960938 C 53.363281 92.5625 53.558594 92.515625 54.644531 93.226562 C 56.703125 94.574219 61.660156 96.027344 65.25 96.328125 C 71.617188 96.867188 77.175781 94.800781 82.238281 90.019531 C 83.894531 88.457031 86.496094 86.582031 88.015625 85.855469 C 96.078125 82.003906 99.835938 75.363281 100.234375 64.265625 C 100.347656 61.160156 100.28125 59.734375 100.085938 61 L 99.734375 63.25 L 99.378906 61.25 C 98.84375 58.242188 95.90625 52.558594 93.480469 49.824219 C 92.292969 48.488281 89.175781 45.789062 86.546875 43.824219 C 77.371094 36.957031 72.898438 31.972656 66.992188 22.027344 C 61.453125 12.695312 60 9.378906 60 6.039062 C 60 3.523438 59.824219 2.933594 58.886719 2.277344 C 57.363281 1.207031 49.890625 1.179688 48.832031 2.238281 M 51.71875 7.375 C 47.234375 27.917969 37.46875 46.441406 26.484375 55.25 C 20.566406 59.996094 19.503906 61.117188 18.035156 64.179688 C 15.359375 69.765625 15.5625 74.824219 18.734375 81.289062 C 22.738281 89.453125 31.484375 94.5625 40.199219 93.835938 C 44.546875 93.46875 48.191406 91.738281 50.992188 88.703125 C 55.078125 84.269531 56.40625 78.359375 54.820312 71.667969 C 52.96875 63.863281 50.695312 35.746094 51.164062 26.5 C 51.414062 21.621094 53.222656 11.824219 54.789062 6.875 C 55.011719 6.171875 54.765625 6 53.542969 6 C 52.285156 6 51.964844 6.242188 51.71875 7.375 M 42.753906 19.15625 C 34.964844 30.050781 22.703125 42.136719 13.257812 48.230469 C 7.519531 51.933594 5.453125 54.902344 4.488281 60.828125 C 3.566406 66.480469 5.988281 73.429688 10.554688 78.261719 C 11.984375 79.773438 13.226562 80.941406 13.308594 80.855469 C 13.394531 80.773438 13.121094 79.589844 12.703125 78.226562 C 11.667969 74.867188 11.652344 68.898438 12.667969 65.4375 C 13.910156 61.199219 16.882812 57.140625 20.988281 54.078125 C 29.9375 47.402344 36.398438 38.304688 41.855469 24.683594 C 43.34375 20.972656 44.492188 17.742188 44.40625 17.5 C 44.320312 17.261719 43.578125 18.007812 42.753906 19.15625 M 55.96875 22.375 C 54.640625 28.6875 57.144531 63.878906 59.492188 71.996094 C 60.703125 76.175781 59.738281 83.46875 57.453125 87.414062 C 56.921875 88.328125 56.613281 89.277344 56.765625 89.523438 C 57.351562 90.472656 63.691406 92 67.035156 92 C 72.105469 92 75.578125 90.558594 79.085938 86.996094 C 83.519531 82.496094 84.933594 76.792969 83.234375 70.265625 C 82.253906 66.507812 80.484375 63.269531 77.878906 60.46875 C 70.671875 52.722656 60.261719 32.800781 57.972656 22.375 C 57.625 20.792969 57.167969 19.5 56.957031 19.5 C 56.742188 19.5 56.300781 20.792969 55.96875 22.375 M 63.089844 24.5 C 63.234375 24.914062 63.867188 26.808594 64.496094 28.714844 C 65.976562 33.199219 71.492188 44.074219 75.042969 49.507812 C 76.574219 51.851562 79.121094 55.21875 80.710938 56.996094 C 82.296875 58.777344 84.132812 61.152344 84.792969 62.28125 C 87.632812 67.125 89.003906 74.011719 88.074219 78.75 C 87.804688 80.125 87.640625 81.308594 87.714844 81.378906 C 87.785156 81.453125 88.84375 80.632812 90.066406 79.558594 C 96.058594 74.285156 97.320312 65.476562 93.265625 57.210938 C 91.375 53.355469 88.472656 50.335938 82.976562 46.5 C 77.695312 42.816406 70.566406 35.355469 66.496094 29.25 C 64.480469 26.226562 62.945312 24.085938 63.089844 24.5 M 0.171875 63.25 C 0.171875 65.449219 0.261719 66.289062 0.367188 65.113281 C 0.472656 63.9375 0.472656 62.136719 0.363281 61.113281 C 0.257812 60.089844 0.167969 61.050781 0.171875 63.25 "/>
</g>
</svg>
