<?xml version="1.0" encoding="UTF-8"?>
<svg xmlns="http://www.w3.org/2000/svg" xmlns:xlink="http://www.w3.org/1999/xlink" width="24px" height="24px" viewBox="0 0 24 24" version="1.1">
<g id="surface1">
<path style=" stroke:none;fill-rule:evenodd;fill:rgb(0%,0%,0%);fill-opacity:1;" d="M 11.71875 0.539062 C 11.621094 0.636719 11.503906 0.933594 11.460938 1.199219 C 11.414062 1.464844 11.3125 1.679688 11.230469 1.679688 C 11.144531 1.679688 10.71875 2.191406 10.28125 2.816406 C 7.785156 6.359375 5.125 9.09375 2.574219 10.738281 C 0.921875 11.804688 0.148438 13.070312 0.03125 14.882812 C -0.0390625 15.957031 0.179688 16.925781 0.734375 18.027344 C 1.242188 19.035156 2.574219 20.355469 3.585938 20.859375 C 4.007812 21.066406 4.628906 21.5 4.96875 21.816406 C 7.113281 23.84375 10.371094 24.164062 12.386719 22.550781 C 12.808594 22.214844 12.855469 22.203125 13.113281 22.375 C 13.609375 22.699219 14.796875 23.046875 15.660156 23.117188 C 17.1875 23.246094 18.523438 22.753906 19.738281 21.605469 C 20.136719 21.230469 20.757812 20.78125 21.125 20.605469 C 23.058594 19.679688 23.960938 18.085938 24.054688 15.421875 C 24.082031 14.679688 24.066406 14.335938 24.019531 14.640625 L 23.9375 15.179688 L 23.851562 14.699219 C 23.722656 13.976562 23.019531 12.613281 22.433594 11.957031 C 22.152344 11.636719 21.402344 10.988281 20.773438 10.519531 C 18.570312 8.871094 17.496094 7.671875 16.078125 5.285156 C 14.75 3.046875 14.398438 2.25 14.398438 1.449219 C 14.398438 0.847656 14.359375 0.703125 14.132812 0.546875 C 13.765625 0.289062 11.972656 0.285156 11.71875 0.539062 M 12.414062 1.769531 C 11.335938 6.699219 8.992188 11.144531 6.355469 13.261719 C 4.9375 14.398438 4.679688 14.667969 4.328125 15.402344 C 3.6875 16.742188 3.734375 17.957031 4.496094 19.507812 C 5.457031 21.46875 7.554688 22.695312 9.648438 22.519531 C 10.691406 22.433594 11.566406 22.015625 12.238281 21.289062 C 13.21875 20.226562 13.535156 18.804688 13.15625 17.199219 C 12.710938 15.328125 12.167969 8.578125 12.28125 6.359375 C 12.339844 5.1875 12.773438 2.835938 13.148438 1.648438 C 13.203125 1.480469 13.144531 1.441406 12.851562 1.441406 C 12.546875 1.441406 12.472656 1.496094 12.414062 1.769531 M 10.261719 4.597656 C 8.390625 7.210938 5.449219 10.113281 3.183594 11.574219 C 1.804688 12.464844 1.308594 13.175781 1.078125 14.597656 C 0.855469 15.953125 1.4375 17.625 2.53125 18.78125 C 2.875 19.144531 3.175781 19.425781 3.195312 19.40625 C 3.214844 19.386719 3.148438 19.101562 3.046875 18.773438 C 2.800781 17.96875 2.796875 16.535156 3.039062 15.707031 C 3.339844 14.6875 4.050781 13.714844 5.035156 12.980469 C 7.183594 11.378906 8.734375 9.191406 10.046875 5.925781 C 10.402344 5.035156 10.679688 4.257812 10.65625 4.199219 C 10.636719 4.144531 10.457031 4.320312 10.261719 4.597656 M 13.433594 5.371094 C 13.113281 6.886719 13.714844 15.332031 14.277344 17.277344 C 14.570312 18.28125 14.335938 20.03125 13.789062 20.980469 C 13.660156 21.199219 13.585938 21.425781 13.625 21.484375 C 13.765625 21.714844 15.285156 22.078125 16.089844 22.078125 C 17.304688 22.078125 18.136719 21.734375 18.980469 20.878906 C 20.042969 19.800781 20.382812 18.429688 19.976562 16.863281 C 19.742188 15.960938 19.316406 15.183594 18.691406 14.511719 C 16.960938 12.652344 14.460938 7.871094 13.914062 5.371094 C 13.828125 4.992188 13.71875 4.679688 13.667969 4.679688 C 13.617188 4.679688 13.511719 4.992188 13.433594 5.371094 M 15.140625 5.878906 C 15.175781 5.980469 15.328125 6.433594 15.480469 6.890625 C 15.835938 7.96875 17.160156 10.578125 18.011719 11.882812 C 18.378906 12.445312 18.988281 13.253906 19.371094 13.679688 C 19.75 14.105469 20.191406 14.675781 20.351562 14.945312 C 21.03125 16.109375 21.359375 17.761719 21.136719 18.898438 C 21.074219 19.230469 21.035156 19.515625 21.050781 19.53125 C 21.070312 19.546875 21.324219 19.351562 21.617188 19.09375 C 23.054688 17.828125 23.355469 15.714844 22.382812 13.730469 C 21.929688 12.804688 21.234375 12.082031 19.914062 11.160156 C 18.648438 10.277344 16.9375 8.484375 15.960938 7.019531 C 15.476562 6.292969 15.105469 5.78125 15.140625 5.878906 M 0.0429688 15.179688 C 0.0429688 15.707031 0.0625 15.910156 0.0898438 15.625 C 0.113281 15.34375 0.113281 14.914062 0.0859375 14.667969 C 0.0625 14.421875 0.0390625 14.652344 0.0429688 15.179688 "/>
</g>
</svg>
