<?xml version="1.0" encoding="UTF-8"?>
<svg xmlns="http://www.w3.org/2000/svg" xmlns:xlink="http://www.w3.org/1999/xlink" width="24px" height="24px" viewBox="0 0 24 24" version="1.1">
<g id="surface1">
<path style=" stroke:none;fill-rule:evenodd;fill:rgb(0%,0%,0%);fill-opacity:1;" d="M 17.339844 6.070312 C 13.265625 7.65625 9.648438 10.15625 8.582031 12.121094 C 8.085938 13.035156 8.070312 14.085938 8.550781 14.898438 C 8.925781 15.542969 9.796875 16.332031 10.507812 16.679688 C 11.222656 17.03125 12.265625 17.003906 13.046875 16.613281 C 13.808594 16.234375 15.097656 14.898438 15.945312 13.613281 C 17.046875 11.9375 19.441406 6.964844 19.441406 6.347656 C 19.441406 6.035156 19.019531 5.640625 18.691406 5.644531 C 18.542969 5.648438 17.933594 5.839844 17.339844 6.070312 M 13.378906 9.035156 C 10.820312 10.460938 9.714844 11.324219 9.214844 12.292969 C 8.742188 13.210938 9.125 14.757812 9.96875 15.339844 C 10.757812 15.882812 12.160156 15.488281 13.617188 14.3125 C 14.960938 13.230469 16.9375 10.65625 16.644531 10.367188 C 16.597656 10.316406 16.140625 10.691406 15.628906 11.191406 C 14.585938 12.21875 13.882812 12.792969 12.667969 13.605469 C 11.039062 14.691406 11.21875 14.375 14.132812 11.035156 C 16.402344 8.441406 16.914062 7.746094 16.109375 8.367188 C 15.21875 9.054688 13.058594 10.457031 12.992188 10.390625 C 12.894531 10.292969 13.449219 9.71875 14.371094 8.96875 C 15.058594 8.410156 15.265625 8.15625 15.03125 8.164062 C 14.980469 8.164062 14.238281 8.554688 13.378906 9.035156 "/>
</g>
</svg>
