<?xml version="1.0" encoding="UTF-8"?>
<svg xmlns="http://www.w3.org/2000/svg" xmlns:xlink="http://www.w3.org/1999/xlink" width="100px" height="100px" viewBox="0 0 100 100" version="1.1">
<g id="surface1">
<path style=" stroke:none;fill-rule:evenodd;fill:rgb(0%,0%,0%);fill-opacity:1;" d="M 72.25 25.289062 C 55.273438 31.902344 40.203125 42.3125 35.757812 50.5 C 33.683594 54.320312 33.632812 58.699219 35.621094 62.082031 C 37.195312 64.757812 40.820312 68.054688 43.78125 69.503906 C 46.765625 70.964844 51.101562 70.851562 54.363281 69.226562 C 57.53125 67.644531 62.902344 62.078125 66.433594 56.71875 C 71.023438 49.746094 81 29.019531 81 26.457031 C 81 25.148438 79.242188 23.496094 77.875 23.519531 C 77.257812 23.527344 74.726562 24.324219 72.25 25.289062 M 55.75 37.640625 C 45.085938 43.585938 40.484375 47.191406 38.398438 51.222656 C 36.417969 55.054688 38.015625 61.496094 41.542969 63.921875 C 44.828125 66.179688 50.660156 64.535156 56.738281 59.636719 C 62.335938 55.121094 70.566406 44.398438 69.359375 43.191406 C 69.15625 42.992188 67.25 44.539062 65.121094 46.636719 C 60.769531 50.917969 57.839844 53.304688 52.78125 56.683594 C 45.992188 61.21875 46.75 59.890625 58.894531 45.988281 C 68.335938 35.175781 70.476562 32.28125 67.117188 34.871094 C 63.40625 37.730469 54.40625 43.574219 54.132812 43.300781 C 53.71875 42.886719 56.035156 40.492188 59.875 37.371094 C 62.738281 35.039062 63.601562 33.984375 62.625 34.007812 C 62.417969 34.015625 59.324219 35.648438 55.75 37.640625 "/>
</g>
</svg>
