<?xml version="1.0" encoding="UTF-8"?>
<svg xmlns="http://www.w3.org/2000/svg" xmlns:xlink="http://www.w3.org/1999/xlink" width="100px" height="100px" viewBox="0 0 100 100" version="1.1">
<g id="surface1">
<path style=" stroke:none;fill-rule:evenodd;fill:rgb(0%,0%,0%);fill-opacity:1;" d="M 55.792969 10.625 C 55.695312 10.96875 55.378906 13.613281 55.085938 16.5 C 54.515625 22.09375 52.179688 30.625 51.289062 30.371094 C 50.992188 30.289062 49.921875 28.558594 48.914062 26.527344 C 47.902344 24.496094 46.722656 22.636719 46.292969 22.394531 C 45.113281 21.734375 43.5 22.820312 43.5 24.28125 C 43.5 25.800781 46.09375 31.074219 48.089844 33.605469 C 49.46875 35.355469 49.511719 35.539062 48.820312 36.855469 L 48.089844 38.25 L 45.777344 33.503906 C 44.507812 30.890625 42.785156 26.546875 41.953125 23.847656 C 40.496094 19.128906 40.386719 18.945312 39.097656 19.09375 C 37.0625 19.332031 36.425781 21.277344 36.125 28.195312 C 35.824219 35.160156 36.640625 40.335938 38.996094 46.40625 L 40.417969 50.0625 L 38.832031 49.722656 C 36.726562 49.269531 36.753906 49.292969 35.722656 47.132812 C 34.34375 44.234375 34.011719 41.566406 34.570312 37.851562 C 34.964844 35.25 34.9375 34.277344 34.460938 33.703125 C 33.539062 32.589844 31.851562 33.058594 31.101562 34.628906 C 30.082031 36.761719 29.832031 42.375 30.621094 45.296875 C 31.28125 47.726562 31.265625 47.863281 30.28125 48.296875 C 29.367188 48.699219 29.234375 49.261719 29.101562 53.25 C 28.960938 57.484375 29.023438 57.808594 30.160156 58.75 C 31.289062 59.6875 31.449219 60.5 32.722656 71.75 C 34.28125 85.539062 34.242188 85.449219 39.359375 86.539062 C 43.09375 87.335938 56.90625 87.335938 60.640625 86.539062 C 65.761719 85.449219 65.71875 85.539062 67.277344 71.75 C 68.519531 60.738281 68.730469 59.644531 69.835938 58.449219 C 70.945312 57.257812 71.03125 56.804688 70.898438 52.949219 C 70.761719 49.117188 70.648438 48.707031 69.601562 48.25 C 68.574219 47.800781 68.496094 47.546875 68.851562 45.75 C 69.5 42.488281 69.214844 30.519531 68.433594 28.050781 C 67.148438 24 64.988281 23.980469 63.648438 28.007812 C 62.390625 31.792969 62 31.488281 61.992188 26.726562 C 61.988281 21.871094 60.605469 14.117188 59.292969 11.585938 C 58.703125 10.445312 58.121094 10 57.222656 10 C 56.53125 10 55.890625 10.28125 55.792969 10.625 M 56.347656 29.375 C 55.578125 31.78125 54.058594 35.539062 52.972656 37.722656 C 51.886719 39.910156 51 41.933594 51.003906 42.222656 C 51.011719 43.148438 55.617188 48.582031 56.035156 48.15625 C 56.71875 47.46875 58.050781 34.007812 57.898438 29.375 L 57.75 25 L 56.347656 29.375 M 40.246094 34.25 C 40.683594 38.402344 42.304688 44.222656 43.941406 47.5 L 45.3125 50.25 L 48.40625 50.398438 C 50.109375 50.480469 51.5 50.40625 51.5 50.234375 C 51.5 50.058594 50.738281 48.980469 49.808594 47.835938 C 47.449219 44.925781 44.683594 40.492188 42.117188 35.5 L 39.933594 31.25 L 40.246094 34.25 M 63.355469 36.21875 C 61.945312 37.910156 61.496094 38.898438 61.480469 40.34375 C 61.46875 41.394531 61.175781 43.882812 60.824219 45.875 L 60.1875 49.5 L 61.824219 49.5 C 63.363281 49.5 63.507812 49.34375 64.265625 46.875 C 64.996094 44.492188 65.945312 34 65.425781 34 C 65.308594 34 64.375 35 63.355469 36.21875 M 33 54.390625 C 33 55.839844 33.113281 55.914062 36.125 56.46875 C 37.84375 56.78125 43.074219 57.175781 47.75 57.335938 C 52.425781 57.5 56.53125 57.855469 56.875 58.128906 C 57.722656 58.796875 57.660156 59.765625 56.714844 60.714844 C 56.078125 61.351562 54.679688 61.496094 49.339844 61.484375 C 45.714844 61.472656 41.179688 61.265625 39.257812 61.015625 C 37.335938 60.769531 35.726562 60.609375 35.675781 60.660156 C 35.511719 60.832031 38.035156 81.699219 38.246094 81.914062 C 39.617188 83.285156 60.375 83.292969 61.746094 81.921875 C 61.875 81.792969 62.617188 76.125 63.402344 69.328125 C 64.699219 58.054688 64.917969 56.902344 65.910156 56.207031 C 66.546875 55.761719 67 54.910156 67 54.164062 C 67 52.996094 66.863281 52.914062 65.375 53.191406 C 56.429688 54.867188 40.84375 54.859375 34.140625 53.179688 C 33.140625 52.925781 33 53.078125 33 54.390625 M 59.121094 57.578125 C 57.605469 59.09375 58.972656 61.1875 61.292969 60.910156 C 63.023438 60.707031 63.957031 59.339844 63.195312 58.125 C 62.53125 57.0625 59.980469 56.71875 59.121094 57.578125 "/>
</g>
</svg>
