<?xml version="1.0" encoding="UTF-8"?>
<svg xmlns="http://www.w3.org/2000/svg" xmlns:xlink="http://www.w3.org/1999/xlink" width="24px" height="24px" viewBox="0 0 24 24" version="1.1">
<g id="surface1">
<path style=" stroke:none;fill-rule:evenodd;fill:rgb(0%,50.196081%,0%);fill-opacity:1;" d="M 13.390625 2.550781 C 13.367188 2.632812 13.289062 3.265625 13.21875 3.960938 C 13.082031 5.300781 12.523438 7.351562 12.308594 7.289062 C 12.238281 7.269531 11.980469 6.855469 11.738281 6.367188 C 11.496094 5.878906 11.214844 5.433594 11.109375 5.375 C 10.828125 5.214844 10.441406 5.476562 10.441406 5.828125 C 10.441406 6.191406 11.0625 7.457031 11.542969 8.066406 C 11.871094 8.484375 11.882812 8.53125 11.71875 8.84375 L 11.542969 9.179688 L 10.988281 8.039062 C 10.683594 7.414062 10.269531 6.371094 10.070312 5.722656 C 9.71875 4.589844 9.691406 4.546875 9.382812 4.582031 C 8.894531 4.640625 8.742188 5.105469 8.671875 6.765625 C 8.597656 8.4375 8.792969 9.679688 9.359375 11.136719 L 9.699219 12.015625 L 9.320312 11.933594 C 8.8125 11.824219 8.820312 11.832031 8.574219 11.3125 C 8.242188 10.617188 8.164062 9.976562 8.296875 9.085938 C 8.390625 8.460938 8.386719 8.226562 8.269531 8.089844 C 8.050781 7.820312 7.644531 7.933594 7.464844 8.3125 C 7.21875 8.824219 7.160156 10.167969 7.347656 10.871094 C 7.507812 11.453125 7.503906 11.488281 7.265625 11.589844 C 7.046875 11.6875 7.015625 11.824219 6.984375 12.78125 C 6.949219 13.796875 6.964844 13.875 7.238281 14.101562 C 7.507812 14.324219 7.546875 14.519531 7.851562 17.21875 C 8.226562 20.53125 8.21875 20.507812 9.445312 20.769531 C 10.34375 20.960938 13.65625 20.960938 14.554688 20.769531 C 15.78125 20.507812 15.773438 20.53125 16.144531 17.21875 C 16.445312 14.578125 16.496094 14.3125 16.761719 14.027344 C 17.027344 13.742188 17.046875 13.632812 17.015625 12.707031 C 16.984375 11.789062 16.957031 11.6875 16.703125 11.578125 C 16.457031 11.472656 16.4375 11.410156 16.523438 10.980469 C 16.679688 10.199219 16.613281 7.324219 16.421875 6.730469 C 16.117188 5.761719 15.597656 5.753906 15.277344 6.722656 C 14.972656 7.628906 14.878906 7.558594 14.878906 6.414062 C 14.875 5.25 14.546875 3.386719 14.230469 2.78125 C 14.089844 2.507812 13.949219 2.398438 13.734375 2.398438 C 13.566406 2.398438 13.414062 2.46875 13.390625 2.550781 M 13.523438 7.050781 C 13.339844 7.628906 12.972656 8.527344 12.714844 9.054688 C 12.453125 9.578125 12.242188 10.0625 12.242188 10.132812 C 12.242188 10.355469 13.347656 11.660156 13.449219 11.558594 C 13.613281 11.390625 13.933594 8.160156 13.894531 7.050781 L 13.859375 6 L 13.523438 7.050781 M 9.660156 8.21875 C 9.765625 9.214844 10.152344 10.613281 10.546875 11.398438 L 10.875 12.058594 L 11.617188 12.097656 C 12.027344 12.117188 12.359375 12.097656 12.359375 12.054688 C 12.359375 12.015625 12.175781 11.753906 11.953125 11.480469 C 11.386719 10.78125 10.722656 9.71875 10.109375 8.519531 L 9.585938 7.5 L 9.660156 8.21875 M 15.207031 8.691406 C 14.867188 9.097656 14.757812 9.335938 14.753906 9.683594 C 14.753906 9.933594 14.683594 10.53125 14.597656 11.011719 L 14.445312 11.878906 L 14.835938 11.878906 C 15.207031 11.878906 15.242188 11.84375 15.425781 11.25 C 15.597656 10.679688 15.828125 8.160156 15.703125 8.160156 C 15.675781 8.160156 15.449219 8.398438 15.207031 8.691406 M 7.921875 13.054688 C 7.921875 13.402344 7.945312 13.417969 8.671875 13.550781 C 9.082031 13.628906 10.339844 13.722656 11.460938 13.761719 C 12.582031 13.800781 13.566406 13.886719 13.648438 13.949219 C 13.851562 14.113281 13.839844 14.34375 13.613281 14.570312 C 13.457031 14.722656 13.121094 14.757812 11.839844 14.757812 C 10.972656 14.753906 9.882812 14.703125 9.421875 14.644531 C 8.960938 14.585938 8.574219 14.546875 8.5625 14.558594 C 8.523438 14.597656 9.128906 19.609375 9.179688 19.660156 C 9.507812 19.988281 14.488281 19.988281 14.820312 19.660156 C 14.851562 19.628906 15.027344 18.269531 15.214844 16.636719 C 15.527344 13.933594 15.582031 13.65625 15.820312 13.488281 C 15.972656 13.382812 16.078125 13.179688 16.078125 13 C 16.078125 12.71875 16.046875 12.699219 15.691406 12.765625 C 13.542969 13.167969 9.800781 13.167969 8.195312 12.761719 C 7.953125 12.703125 7.921875 12.738281 7.921875 13.054688 M 14.1875 13.820312 C 13.824219 14.183594 14.152344 14.683594 14.710938 14.617188 C 15.125 14.570312 15.351562 14.242188 15.167969 13.949219 C 15.007812 13.695312 14.394531 13.613281 14.1875 13.820312 "/>
</g>
</svg>
