<?xml version="1.0" encoding="UTF-8"?>
<svg xmlns="http://www.w3.org/2000/svg" xmlns:xlink="http://www.w3.org/1999/xlink" width="24px" height="24px" viewBox="0 0 24 24" version="1.1">
<g id="surface1">
<path style=" stroke:none;fill-rule:evenodd;fill:rgb(100%,100%,0%);fill-opacity:1;" d="M 12.199219 1.589844 C 12.085938 1.675781 11.921875 1.980469 11.835938 2.265625 C 11.683594 2.789062 11.679688 2.792969 10.816406 3.011719 C 9.203125 3.421875 7.84375 4.34375 7.015625 5.597656 C 6.246094 6.753906 6.160156 7.230469 5.9375 11.414062 C 5.832031 13.484375 5.683594 15.472656 5.617188 15.832031 C 5.503906 16.4375 5.40625 16.574219 4.246094 17.761719 C 3.125 18.914062 3 19.085938 3 19.480469 L 3 19.921875 L 22.441406 19.921875 L 22.441406 19.480469 C 22.441406 19.085938 22.316406 18.914062 21.191406 17.761719 C 20.035156 16.574219 19.9375 16.4375 19.824219 15.832031 C 19.753906 15.472656 19.609375 13.484375 19.5 11.414062 C 19.28125 7.226562 19.191406 6.753906 18.421875 5.589844 C 17.613281 4.371094 16.023438 3.320312 14.453125 2.964844 C 13.78125 2.808594 13.757812 2.792969 13.605469 2.273438 C 13.519531 1.980469 13.355469 1.675781 13.242188 1.589844 C 12.976562 1.398438 12.464844 1.398438 12.199219 1.589844 M 10.546875 20.851562 C 10.4375 21.597656 11.109375 22.605469 11.917969 22.914062 C 12.6875 23.203125 13.609375 23.019531 14.199219 22.460938 C 14.644531 22.042969 14.878906 21.578125 14.878906 21.125 L 14.878906 20.761719 L 12.71875 20.761719 C 11.53125 20.761719 10.554688 20.800781 10.546875 20.851562 "/>
</g>
</svg>
