<?xml version="1.0" encoding="UTF-8"?>
<svg xmlns="http://www.w3.org/2000/svg" xmlns:xlink="http://www.w3.org/1999/xlink" width="100px" height="100px" viewBox="0 0 100 100" version="1.1">
<g id="surface1">
<path style=" stroke:none;fill-rule:evenodd;fill:rgb(100%,100%,0%);fill-opacity:1;" d="M 50.828125 6.632812 C 50.351562 6.976562 49.675781 8.246094 49.320312 9.449219 C 48.675781 11.628906 48.664062 11.636719 45.0625 12.550781 C 38.351562 14.253906 32.683594 18.105469 29.226562 23.316406 C 26.03125 28.132812 25.664062 30.121094 24.746094 47.554688 C 24.292969 56.1875 23.6875 64.472656 23.40625 65.964844 C 22.925781 68.492188 22.527344 69.054688 17.695312 74.007812 C 13.015625 78.808594 12.5 79.519531 12.5 81.167969 L 12.5 83 L 93.5 83 L 93.5 81.167969 C 93.5 79.519531 92.984375 78.808594 88.304688 74.007812 C 83.472656 69.054688 83.074219 68.492188 82.59375 65.964844 C 82.3125 64.472656 81.707031 56.1875 81.253906 47.554688 C 80.335938 30.105469 79.972656 28.136719 76.757812 23.296875 C 73.386719 18.21875 66.765625 13.832031 60.226562 12.347656 C 57.414062 11.707031 57.328125 11.636719 56.691406 9.476562 C 56.328125 8.257812 55.648438 6.976562 55.171875 6.632812 C 54.066406 5.820312 51.933594 5.820312 50.828125 6.632812 M 43.945312 86.875 C 43.484375 89.988281 46.28125 94.191406 49.65625 95.46875 C 52.863281 96.679688 56.707031 95.921875 59.167969 93.59375 C 61.023438 91.839844 62 89.917969 62 88.023438 L 62 86.5 L 53 86.5 C 48.050781 86.5 43.976562 86.667969 43.945312 86.875 "/>
</g>
</svg>
