<?xml version="1.0" encoding="UTF-8"?>
<svg xmlns="http://www.w3.org/2000/svg" xmlns:xlink="http://www.w3.org/1999/xlink" width="100px" height="100px" viewBox="0 0 100 100" version="1.1">
<g id="surface1">
<path style=" stroke:none;fill-rule:evenodd;fill:rgb(0%,0%,0%);fill-opacity:1;" d="M 78.75 12.574219 C 74.277344 15.007812 72.230469 17.375 67.589844 25.5 L 64.589844 30.75 L 59.6875 33.257812 C 56.015625 35.140625 54.378906 36.300781 53.15625 37.90625 C 49.460938 42.75 48.28125 52.355469 50.765625 57.34375 C 52.441406 60.710938 55.160156 62.597656 58.746094 62.894531 C 64.257812 63.351562 69.246094 59.3125 72.3125 51.910156 C 74.367188 46.957031 75.863281 45.332031 79.148438 44.484375 C 83.265625 43.425781 84.300781 42.976562 86.15625 41.449219 C 88.050781 39.886719 90.050781 36.515625 90.722656 33.75 C 91.449219 30.753906 92.484375 23.703125 92.480469 21.75 C 92.476562 17.878906 90.050781 14.304688 86.382812 12.773438 C 84.253906 11.882812 80.214844 11.777344 78.75 12.574219 M 79.5 13.648438 C 76.765625 14.5 72.617188 19.167969 69.15625 25.292969 C 67.457031 28.300781 65.542969 31.25 64.90625 31.84375 C 64.269531 32.4375 62.0625 33.6875 60 34.625 C 53.515625 37.574219 50.875 42.0625 50.8125 50.25 C 50.785156 53.988281 50.96875 55.109375 51.898438 56.875 C 54.390625 61.59375 59.777344 63.019531 64.382812 60.171875 C 67.429688 58.285156 69.558594 55.429688 71.277344 50.910156 C 73.058594 46.226562 74.921875 44.328125 78.785156 43.257812 C 83.597656 41.921875 84.4375 41.476562 86.449219 39.1875 C 88.472656 36.890625 89.425781 34.199219 90.5 27.75 C 91.660156 20.785156 91.085938 17.921875 88.003906 15.328125 C 86.519531 14.082031 83.546875 12.953125 82 13.054688 C 81.585938 13.082031 80.460938 13.347656 79.5 13.648438 M 81 18.859375 C 79.667969 19.660156 78.140625 20.167969 77.25 20.109375 C 75.851562 20.015625 75.828125 20.042969 76.894531 20.496094 L 78.042969 20.984375 L 76.925781 22.496094 C 75.949219 23.8125 75.574219 23.972656 74.027344 23.746094 C 72.347656 23.5 72.316406 23.515625 73.5 24.089844 C 74.1875 24.421875 74.8125 24.734375 74.890625 24.78125 C 75.113281 24.914062 69.464844 34.636719 68.558594 35.6875 C 67.800781 36.566406 60.339844 40.5 59.433594 40.5 C 59.203125 40.5 58.878906 39.9375 58.707031 39.25 C 58.53125 38.5625 58.191406 38 57.945312 38 C 57.335938 38 57.382812 38.320312 58.226562 39.953125 C 58.917969 41.289062 58.878906 41.429688 57.457031 42.789062 C 55.972656 44.214844 55.964844 44.214844 55.675781 43.109375 C 55.515625 42.5 55.183594 42 54.941406 42 C 54.339844 42 54.410156 42.527344 55.222656 43.988281 C 55.804688 45.046875 55.800781 45.433594 55.191406 46.613281 C 54.796875 47.375 54.691406 48 54.953125 48 C 55.21875 48 55.574219 47.550781 55.75 47 C 56.148438 45.738281 56.609375 45.738281 57.75 47 C 58.246094 47.550781 58.898438 48 59.199219 48 C 59.496094 48 59.125 47.429688 58.371094 46.730469 C 56.683594 45.167969 56.65625 44.496094 58.214844 43.035156 L 59.429688 41.894531 L 60.816406 43.179688 C 61.578125 43.886719 62.324219 44.339844 62.476562 44.1875 C 62.625 44.035156 62.132812 43.414062 61.375 42.8125 C 60.617188 42.207031 60 41.582031 60 41.425781 C 60 41.265625 61.40625 40.515625 63.125 39.753906 C 67.910156 37.636719 69.214844 36.402344 72.226562 31.117188 C 73.75 28.441406 75.207031 25.929688 75.460938 25.535156 C 75.839844 24.945312 76.230469 25.058594 77.710938 26.183594 C 79.894531 27.851562 80.117188 27.25 77.972656 25.484375 L 76.433594 24.21875 L 77.503906 22.859375 C 78.832031 21.167969 79.515625 21.15625 81.460938 22.792969 C 82.308594 23.507812 83 23.851562 83 23.558594 C 83 23.269531 82.324219 22.53125 81.5 21.921875 C 80.675781 21.3125 80 20.679688 80 20.515625 C 80 19.972656 82.859375 18.515625 84.820312 18.054688 L 86.75 17.601562 L 85 17.554688 C 83.921875 17.527344 82.386719 18.027344 81 18.859375 M 14.820312 41.199219 C 10.832031 42.6875 8.355469 46.1875 8.355469 50.335938 C 8.355469 55.207031 11.625 59.902344 18.109375 64.339844 C 21.445312 66.625 22.042969 67.800781 22.46875 72.929688 C 23.109375 80.683594 25.457031 83.277344 35.4375 87.273438 C 40.640625 89.355469 41.578125 89.578125 44.371094 89.402344 C 47.808594 89.183594 49.203125 88.410156 51.699219 85.324219 C 52.941406 83.789062 53.242188 82.902344 53.40625 80.28125 C 53.714844 75.472656 51.847656 72.339844 44.671875 65.601562 C 41.578125 62.699219 38.816406 59.742188 38.535156 59.035156 C 38.257812 58.328125 37.699219 56.136719 37.300781 54.167969 C 36.890625 52.152344 35.988281 49.707031 35.238281 48.570312 C 31.550781 42.996094 20.597656 39.042969 14.820312 41.199219 M 13.667969 43.257812 C 11.46875 44.574219 9.496094 47.78125 9.503906 50.03125 C 9.511719 54.277344 12.398438 58.683594 17.496094 62.246094 C 22.621094 65.832031 23.046875 66.511719 23.550781 71.972656 C 23.78125 74.484375 24.34375 77.324219 24.800781 78.285156 C 26.433594 81.726562 30.625 84.300781 39.992188 87.621094 C 48.332031 90.574219 55.164062 82.796875 51.074219 75.011719 C 49.496094 72.007812 48.175781 70.5 42.804688 65.5625 C 40.300781 63.257812 37.960938 60.835938 37.605469 60.179688 C 37.25 59.519531 36.589844 57.152344 36.144531 54.917969 C 35.160156 50.007812 33.453125 47.5 29.480469 45.109375 C 23.878906 41.742188 17.453125 40.988281 13.667969 43.257812 M 24.84375 47.945312 L 25.9375 48.859375 L 24.429688 49.972656 C 23.601562 50.585938 23.035156 51.199219 23.171875 51.339844 C 23.308594 51.476562 24.105469 51.082031 24.941406 50.464844 C 26.582031 49.25 27.445312 49.53125 28.570312 51.636719 C 29.003906 52.4375 28.808594 52.84375 27.421875 54.03125 C 25.523438 55.652344 25.910156 56.035156 27.882812 54.484375 C 28.589844 53.929688 29.347656 53.648438 29.566406 53.867188 C 29.785156 54.085938 30.308594 55.90625 30.730469 57.910156 C 31.152344 59.917969 31.78125 62.082031 32.125 62.722656 C 32.46875 63.363281 34.773438 65.726562 37.25 67.976562 C 39.726562 70.226562 41.820312 72.261719 41.90625 72.496094 C 41.988281 72.734375 41.371094 73.433594 40.53125 74.058594 C 39.6875 74.679688 39 75.398438 39 75.652344 C 39 75.910156 39.824219 75.492188 40.828125 74.722656 L 42.65625 73.328125 L 43.828125 74.789062 C 45.3125 76.644531 45.300781 76.746094 43.5 78.078125 C 42.675781 78.6875 42 79.398438 42 79.652344 C 42 79.910156 42.777344 79.527344 43.726562 78.800781 L 45.457031 77.484375 L 46.066406 78.617188 C 46.402344 79.238281 46.691406 80.820312 46.714844 82.125 C 46.734375 83.429688 46.917969 84.5 47.125 84.5 C 47.792969 84.5 47.523438 80.175781 46.738281 78.300781 C 46.164062 76.921875 46.109375 76.230469 46.519531 75.460938 C 46.820312 74.902344 46.953125 74.175781 46.816406 73.847656 C 46.675781 73.511719 46.417969 73.742188 46.226562 74.375 C 45.773438 75.859375 45.40625 75.796875 44.078125 73.996094 C 43.210938 72.824219 43.078125 72.285156 43.484375 71.53125 C 43.765625 71 43.984375 70.269531 43.964844 69.90625 C 43.949219 69.546875 43.6875 69.757812 43.390625 70.375 C 43.089844 70.992188 42.691406 71.5 42.503906 71.5 C 41.90625 71.5 33.273438 63.433594 32.679688 62.316406 C 32.367188 61.730469 31.746094 59.464844 31.300781 57.285156 C 30.441406 53.101562 30.601562 52.527344 32.625 52.507812 C 33.105469 52.503906 33.5 52.296875 33.5 52.050781 C 33.5 51.800781 32.742188 51.777344 31.765625 51.996094 C 30.191406 52.351562 29.917969 52.238281 28.789062 50.757812 L 27.550781 49.128906 L 29.148438 48.574219 C 30.75 48.015625 30.75 48.015625 28.710938 48.25 C 27.382812 48.402344 26.335938 48.230469 25.710938 47.757812 C 24.316406 46.703125 23.550781 46.867188 24.84375 47.945312 "/>
</g>
</svg>
