<?xml version="1.0" encoding="UTF-8"?>
<svg xmlns="http://www.w3.org/2000/svg" xmlns:xlink="http://www.w3.org/1999/xlink" width="24px" height="24px" viewBox="0 0 24 24" version="1.1">
<g id="surface1">
<path style=" stroke:none;fill-rule:evenodd;fill:rgb(64.705884%,16.470589%,16.470589%);fill-opacity:1;" d="M 18.898438 3.019531 C 17.824219 3.601562 17.335938 4.171875 16.222656 6.121094 L 15.5 7.378906 L 14.324219 7.980469 C 13.445312 8.433594 13.050781 8.710938 12.757812 9.097656 C 11.871094 10.261719 11.585938 12.566406 12.183594 13.761719 C 12.585938 14.570312 13.238281 15.023438 14.097656 15.09375 C 15.421875 15.203125 16.617188 14.234375 17.355469 12.457031 C 17.847656 11.269531 18.207031 10.878906 18.996094 10.675781 C 19.984375 10.421875 20.230469 10.3125 20.675781 9.949219 C 21.132812 9.574219 21.613281 8.761719 21.773438 8.101562 C 21.949219 7.378906 22.195312 5.6875 22.195312 5.21875 C 22.195312 4.289062 21.613281 3.433594 20.730469 3.066406 C 20.222656 2.851562 19.25 2.828125 18.898438 3.019531 M 19.078125 3.277344 C 18.421875 3.480469 17.429688 4.601562 16.597656 6.070312 C 16.191406 6.792969 15.730469 7.5 15.578125 7.640625 C 15.425781 7.785156 14.894531 8.085938 14.398438 8.308594 C 12.84375 9.019531 12.210938 10.09375 12.195312 12.058594 C 12.1875 12.957031 12.230469 13.226562 12.457031 13.648438 C 13.054688 14.78125 14.347656 15.125 15.453125 14.441406 C 16.183594 13.988281 16.695312 13.300781 17.105469 12.21875 C 17.535156 11.09375 17.980469 10.640625 18.910156 10.382812 C 20.0625 10.0625 20.265625 9.953125 20.746094 9.40625 C 21.234375 8.855469 21.460938 8.207031 21.71875 6.660156 C 22 4.988281 21.859375 4.300781 21.121094 3.679688 C 20.765625 3.378906 20.050781 3.109375 19.679688 3.132812 C 19.582031 3.140625 19.3125 3.203125 19.078125 3.277344 M 19.441406 4.527344 C 19.121094 4.71875 18.753906 4.839844 18.539062 4.828125 C 18.203125 4.804688 18.199219 4.808594 18.453125 4.917969 L 18.730469 5.035156 L 18.460938 5.398438 C 18.226562 5.714844 18.136719 5.753906 17.765625 5.699219 C 17.363281 5.640625 17.355469 5.644531 17.640625 5.78125 C 17.804688 5.863281 17.957031 5.9375 17.972656 5.949219 C 18.027344 5.980469 16.671875 8.3125 16.453125 8.566406 C 16.273438 8.777344 14.480469 9.71875 14.265625 9.71875 C 14.210938 9.71875 14.128906 9.585938 14.089844 9.421875 C 14.046875 9.253906 13.964844 9.121094 13.90625 9.121094 C 13.761719 9.121094 13.773438 9.195312 13.972656 9.589844 C 14.140625 9.910156 14.128906 9.941406 13.789062 10.269531 C 13.433594 10.613281 13.429688 10.613281 13.363281 10.347656 C 13.324219 10.199219 13.246094 10.078125 13.1875 10.078125 C 13.042969 10.078125 13.058594 10.207031 13.253906 10.558594 C 13.394531 10.8125 13.390625 10.902344 13.246094 11.1875 C 13.152344 11.371094 13.125 11.519531 13.1875 11.519531 C 13.253906 11.519531 13.339844 11.410156 13.378906 11.28125 C 13.476562 10.976562 13.585938 10.976562 13.859375 11.28125 C 13.980469 11.410156 14.136719 11.519531 14.207031 11.519531 C 14.277344 11.519531 14.191406 11.382812 14.007812 11.214844 C 13.605469 10.839844 13.597656 10.679688 13.972656 10.328125 L 14.261719 10.054688 L 14.59375 10.363281 C 14.777344 10.53125 14.957031 10.640625 14.996094 10.605469 C 15.03125 10.570312 14.910156 10.417969 14.730469 10.273438 C 14.546875 10.128906 14.398438 9.980469 14.398438 9.941406 C 14.398438 9.902344 14.738281 9.722656 15.148438 9.542969 C 16.296875 9.035156 16.613281 8.738281 17.335938 7.46875 C 17.699219 6.824219 18.050781 6.222656 18.109375 6.128906 C 18.203125 5.988281 18.296875 6.015625 18.652344 6.285156 C 19.175781 6.683594 19.226562 6.539062 18.714844 6.117188 L 18.34375 5.8125 L 18.601562 5.488281 C 18.921875 5.082031 19.082031 5.078125 19.550781 5.46875 C 19.753906 5.640625 19.921875 5.722656 19.921875 5.652344 C 19.921875 5.585938 19.757812 5.40625 19.558594 5.261719 C 19.363281 5.113281 19.199219 4.960938 19.199219 4.921875 C 19.199219 4.792969 19.886719 4.445312 20.355469 4.332031 L 20.820312 4.222656 L 20.398438 4.214844 C 20.140625 4.207031 19.773438 4.328125 19.441406 4.527344 M 3.554688 9.886719 C 2.601562 10.246094 2.003906 11.085938 2.003906 12.082031 C 2.003906 13.25 2.789062 14.375 4.347656 15.441406 C 5.148438 15.992188 5.289062 16.273438 5.390625 17.503906 C 5.546875 19.363281 6.109375 19.988281 8.503906 20.945312 C 9.753906 21.445312 9.980469 21.5 10.648438 21.457031 C 11.472656 21.402344 11.808594 21.21875 12.40625 20.476562 C 12.707031 20.109375 12.777344 19.894531 12.816406 19.265625 C 12.890625 18.113281 12.445312 17.359375 10.722656 15.746094 C 9.980469 15.046875 9.316406 14.339844 9.25 14.167969 C 9.179688 14 9.046875 13.472656 8.953125 13 C 8.855469 12.515625 8.636719 11.929688 8.457031 11.65625 C 7.570312 10.320312 4.941406 9.371094 3.554688 9.886719 M 3.28125 10.382812 C 2.753906 10.699219 2.28125 11.46875 2.28125 12.007812 C 2.28125 13.027344 2.976562 14.082031 4.199219 14.9375 C 5.429688 15.800781 5.53125 15.960938 5.652344 17.273438 C 5.707031 17.875 5.84375 18.558594 5.953125 18.789062 C 6.34375 19.613281 7.351562 20.234375 9.597656 21.027344 C 11.597656 21.738281 13.238281 19.871094 12.257812 18.003906 C 11.878906 17.28125 11.5625 16.917969 10.273438 15.734375 C 9.671875 15.183594 9.109375 14.601562 9.023438 14.441406 C 8.941406 14.285156 8.78125 13.714844 8.675781 13.179688 C 8.4375 12 8.027344 11.398438 7.074219 10.828125 C 5.730469 10.019531 4.1875 9.835938 3.28125 10.382812 M 5.960938 11.507812 L 6.226562 11.726562 L 5.863281 11.992188 C 5.664062 12.140625 5.527344 12.289062 5.5625 12.320312 C 5.59375 12.355469 5.785156 12.261719 5.984375 12.113281 C 6.378906 11.820312 6.585938 11.886719 6.855469 12.390625 C 6.960938 12.585938 6.914062 12.683594 6.582031 12.96875 C 6.125 13.355469 6.21875 13.449219 6.691406 13.078125 C 6.863281 12.941406 7.042969 12.875 7.097656 12.929688 C 7.148438 12.980469 7.273438 13.417969 7.375 13.898438 C 7.476562 14.378906 7.628906 14.898438 7.710938 15.054688 C 7.792969 15.207031 8.347656 15.773438 8.941406 16.316406 C 9.535156 16.855469 10.035156 17.34375 10.058594 17.398438 C 10.078125 17.457031 9.929688 17.625 9.726562 17.773438 C 9.523438 17.921875 9.359375 18.09375 9.359375 18.15625 C 9.359375 18.21875 9.558594 18.117188 9.800781 17.933594 L 10.238281 17.597656 L 10.519531 17.949219 C 10.875 18.394531 10.871094 18.417969 10.441406 18.738281 C 10.242188 18.886719 10.078125 19.054688 10.078125 19.117188 C 10.078125 19.179688 10.265625 19.085938 10.496094 18.914062 L 10.910156 18.597656 L 11.054688 18.867188 C 11.136719 19.019531 11.207031 19.394531 11.210938 19.710938 C 11.214844 20.023438 11.261719 20.28125 11.308594 20.28125 C 11.46875 20.28125 11.40625 19.242188 11.21875 18.792969 C 11.078125 18.460938 11.066406 18.296875 11.164062 18.109375 C 11.238281 17.976562 11.269531 17.800781 11.234375 17.722656 C 11.203125 17.644531 11.140625 17.699219 11.09375 17.851562 C 10.984375 18.207031 10.898438 18.191406 10.578125 17.757812 C 10.371094 17.476562 10.339844 17.347656 10.4375 17.167969 C 10.503906 17.039062 10.554688 16.863281 10.550781 16.777344 C 10.546875 16.691406 10.484375 16.742188 10.414062 16.890625 C 10.34375 17.039062 10.246094 17.160156 10.199219 17.160156 C 10.058594 17.160156 7.984375 15.222656 7.84375 14.957031 C 7.769531 14.816406 7.621094 14.273438 7.511719 13.75 C 7.304688 12.746094 7.34375 12.605469 7.828125 12.601562 C 7.945312 12.601562 8.039062 12.550781 8.039062 12.492188 C 8.039062 12.433594 7.859375 12.425781 7.625 12.480469 C 7.246094 12.5625 7.179688 12.539062 6.910156 12.183594 L 6.613281 11.792969 L 6.996094 11.65625 C 7.378906 11.523438 7.378906 11.523438 6.890625 11.582031 C 6.570312 11.617188 6.320312 11.574219 6.171875 11.460938 C 5.835938 11.207031 5.652344 11.25 5.960938 11.507812 "/>
</g>
</svg>
