<?xml version="1.0" encoding="UTF-8"?>
<svg xmlns="http://www.w3.org/2000/svg" xmlns:xlink="http://www.w3.org/1999/xlink" width="100px" height="100px" viewBox="0 0 100 100" version="1.1">
<g id="surface1">
<path style=" stroke:none;fill-rule:evenodd;fill:rgb(50.196081%,50.196081%,50.196081%);fill-opacity:1;" d="M 28.996094 3.457031 C 25.238281 4.632812 21.710938 7.796875 20.039062 11.5 C 19.050781 13.683594 19.023438 14.667969 19.011719 44.824219 C 19 74.546875 19.042969 76.035156 20.003906 79.148438 C 22.5625 87.425781 29.566406 93.96875 38.316406 96.246094 C 42.320312 97.289062 57.65625 97.296875 61.648438 96.253906 C 71.082031 93.796875 78.550781 86.160156 80.484375 77 C 80.894531 75.039062 81.015625 65.441406 80.90625 43.5 C 80.761719 14.886719 80.6875 12.621094 79.835938 10.910156 C 78.617188 8.464844 75.925781 5.75 73.347656 4.371094 C 71.28125 3.265625 70.941406 3.25 50.75 3.15625 C 39.476562 3.105469 29.6875 3.242188 28.996094 3.457031 M 26.199219 19.382812 C 24.683594 20.394531 24.5 22.148438 24.5 35.488281 L 24.5 49.046875 L 26.953125 51.5 L 50.226562 51.5 C 72.832031 51.5 73.527344 51.472656 74.5 50.5 C 75.453125 49.546875 75.5 48.832031 75.5 35.25 C 75.5 21.667969 75.453125 20.953125 74.5 20 C 73.527344 19.027344 72.839844 19 50.125 19.007812 C 37.269531 19.011719 26.503906 19.179688 26.199219 19.382812 M 27.613281 59.777344 C 25.253906 61.429688 26.691406 65.5 29.628906 65.5 C 31.394531 65.5 32.5 64.261719 32.5 62.292969 C 32.5 59.4375 29.960938 58.132812 27.613281 59.777344 M 37.828125 59.914062 C 36.652344 61.214844 36.738281 64.324219 37.96875 64.984375 C 40.742188 66.46875 43.414062 64.53125 42.753906 61.515625 C 42.214844 59.0625 39.421875 58.152344 37.828125 59.914062 M 48.113281 59.777344 C 45.753906 61.429688 47.191406 65.5 50.128906 65.5 C 51.894531 65.5 53 64.261719 53 62.292969 C 53 59.4375 50.460938 58.132812 48.113281 59.777344 M 58.285156 59.785156 C 57.128906 60.941406 57.246094 64.328125 58.46875 64.984375 C 60.925781 66.296875 63.5 64.84375 63.5 62.136719 C 63.5 59.625 60.015625 58.054688 58.285156 59.785156 M 68.328125 59.914062 C 66.4375 62.003906 67.878906 65.5 70.628906 65.5 C 72.394531 65.5 73.5 64.261719 73.5 62.292969 C 73.5 59.382812 70.183594 57.859375 68.328125 59.914062 M 32.328125 68.414062 C 31.203125 69.65625 31.285156 71.785156 32.5 73 C 34.550781 75.050781 37.5 73.621094 37.5 70.570312 C 37.5 69.542969 37.230469 68.429688 36.898438 68.101562 C 35.988281 67.1875 33.265625 67.375 32.328125 68.414062 M 42.515625 68.46875 C 40.589844 72.066406 44.242188 75.757812 47 73 C 48.195312 71.804688 48.304688 69.378906 47.214844 68.285156 C 46.078125 67.148438 43.164062 67.261719 42.515625 68.46875 M 52.828125 68.414062 C 51.703125 69.65625 51.785156 71.785156 53 73 C 55.050781 75.050781 58 73.621094 58 70.570312 C 58 69.542969 57.730469 68.429688 57.398438 68.101562 C 56.488281 67.1875 53.765625 67.375 52.828125 68.414062 M 63.015625 68.46875 C 61.089844 72.066406 64.742188 75.757812 67.5 73 C 68.695312 71.804688 68.804688 69.378906 67.714844 68.285156 C 66.578125 67.148438 63.664062 67.261719 63.015625 68.46875 M 27.921875 76.195312 C 26.957031 76.675781 26.75 77.171875 26.75 79 C 26.75 80.828125 26.957031 81.324219 27.921875 81.804688 C 29.609375 82.644531 31.65625 81.949219 32.222656 80.339844 C 33.277344 77.34375 30.664062 74.828125 27.921875 76.195312 M 38.425781 76.195312 C 36.738281 77.035156 36.132812 79.117188 37.136719 80.644531 C 38.648438 82.953125 41.773438 82.539062 42.699219 79.902344 C 43.605469 77.332031 40.882812 74.96875 38.425781 76.195312 M 49.003906 75.988281 C 46.363281 76.636719 46.421875 81.324219 49.078125 82.035156 C 51.222656 82.605469 52.722656 81.546875 52.90625 79.328125 C 53.140625 76.511719 51.742188 75.316406 49.003906 75.988281 M 58.9375 76.1875 C 57.953125 76.675781 57.75 77.160156 57.75 79 C 57.75 80.84375 57.953125 81.320312 58.949219 81.816406 C 61.300781 82.992188 64.003906 80.570312 63.328125 77.890625 C 62.910156 76.226562 60.632812 75.34375 58.9375 76.1875 M 69.503906 75.988281 C 66.863281 76.636719 66.921875 81.324219 69.578125 82.035156 C 71.722656 82.605469 73.222656 81.546875 73.40625 79.328125 C 73.640625 76.511719 72.242188 75.316406 69.503906 75.988281 "/>
</g>
</svg>
