<?xml version="1.0" encoding="UTF-8"?>
<svg xmlns="http://www.w3.org/2000/svg" xmlns:xlink="http://www.w3.org/1999/xlink" width="24px" height="24px" viewBox="0 0 24 24" version="1.1">
<g id="surface1">
<path style=" stroke:none;fill-rule:evenodd;fill:rgb(50.196081%,50.196081%,50.196081%);fill-opacity:1;" d="M 6.960938 0.828125 C 6.058594 1.113281 5.210938 1.871094 4.808594 2.761719 C 4.574219 3.285156 4.566406 3.519531 4.5625 10.757812 C 4.558594 17.890625 4.570312 18.25 4.800781 18.996094 C 5.414062 20.980469 7.097656 22.550781 9.195312 23.097656 C 10.15625 23.347656 13.835938 23.351562 14.796875 23.101562 C 17.058594 22.511719 18.851562 20.679688 19.316406 18.480469 C 19.414062 18.007812 19.445312 15.707031 19.417969 10.441406 C 19.382812 3.574219 19.363281 3.027344 19.160156 2.617188 C 18.867188 2.03125 18.222656 1.378906 17.601562 1.050781 C 17.109375 0.785156 17.027344 0.78125 12.179688 0.757812 C 9.472656 0.746094 7.125 0.777344 6.960938 0.828125 M 6.289062 4.652344 C 5.925781 4.894531 5.878906 5.316406 5.878906 8.519531 L 5.878906 11.769531 L 6.46875 12.359375 L 12.054688 12.359375 C 17.480469 12.359375 17.648438 12.351562 17.878906 12.121094 C 18.109375 11.890625 18.121094 11.71875 18.121094 8.460938 C 18.121094 5.199219 18.109375 5.027344 17.878906 4.800781 C 17.648438 4.566406 17.480469 4.558594 12.03125 4.5625 C 8.945312 4.5625 6.359375 4.601562 6.289062 4.652344 M 6.625 14.347656 C 6.0625 14.742188 6.40625 15.71875 7.109375 15.71875 C 7.535156 15.71875 7.800781 15.421875 7.800781 14.949219 C 7.800781 14.265625 7.191406 13.953125 6.625 14.347656 M 9.078125 14.378906 C 8.796875 14.691406 8.816406 15.4375 9.113281 15.597656 C 9.777344 15.953125 10.417969 15.488281 10.261719 14.765625 C 10.132812 14.175781 9.460938 13.957031 9.078125 14.378906 M 11.546875 14.347656 C 10.980469 14.742188 11.324219 15.71875 12.03125 15.71875 C 12.453125 15.71875 12.71875 15.421875 12.71875 14.949219 C 12.71875 14.265625 12.109375 13.953125 11.546875 14.347656 M 13.988281 14.347656 C 13.710938 14.625 13.738281 15.4375 14.03125 15.597656 C 14.621094 15.910156 15.238281 15.5625 15.238281 14.914062 C 15.238281 14.308594 14.402344 13.933594 13.988281 14.347656 M 16.398438 14.378906 C 15.945312 14.882812 16.289062 15.71875 16.949219 15.71875 C 17.375 15.71875 17.640625 15.421875 17.640625 14.949219 C 17.640625 14.253906 16.84375 13.886719 16.398438 14.378906 M 7.757812 16.417969 C 7.488281 16.71875 7.507812 17.226562 7.800781 17.519531 C 8.292969 18.011719 9 17.667969 9 16.9375 C 9 16.691406 8.933594 16.421875 8.855469 16.34375 C 8.636719 16.125 7.984375 16.171875 7.757812 16.417969 M 10.203125 16.433594 C 9.742188 17.296875 10.617188 18.183594 11.28125 17.519531 C 11.566406 17.234375 11.59375 16.652344 11.332031 16.386719 C 11.058594 16.117188 10.359375 16.144531 10.203125 16.433594 M 12.679688 16.417969 C 12.410156 16.71875 12.429688 17.226562 12.71875 17.519531 C 13.210938 18.011719 13.921875 17.667969 13.921875 16.9375 C 13.921875 16.691406 13.855469 16.421875 13.777344 16.34375 C 13.558594 16.125 12.902344 16.171875 12.679688 16.417969 M 15.125 16.433594 C 14.660156 17.296875 15.539062 18.183594 16.199219 17.519531 C 16.488281 17.234375 16.511719 16.652344 16.25 16.386719 C 15.980469 16.117188 15.277344 16.144531 15.125 16.433594 M 6.699219 18.285156 C 6.46875 18.402344 6.421875 18.519531 6.421875 18.960938 C 6.421875 19.398438 6.46875 19.519531 6.699219 19.632812 C 7.105469 19.835938 7.597656 19.667969 7.734375 19.28125 C 7.984375 18.5625 7.359375 17.957031 6.699219 18.285156 M 9.222656 18.285156 C 8.816406 18.488281 8.671875 18.988281 8.914062 19.355469 C 9.277344 19.910156 10.027344 19.808594 10.246094 19.175781 C 10.464844 18.558594 9.8125 17.992188 9.222656 18.285156 M 11.761719 18.238281 C 11.128906 18.390625 11.140625 19.515625 11.777344 19.6875 C 12.292969 19.824219 12.652344 19.570312 12.699219 19.039062 C 12.753906 18.363281 12.417969 18.074219 11.761719 18.238281 M 14.144531 18.285156 C 13.910156 18.402344 13.859375 18.519531 13.859375 18.960938 C 13.859375 19.402344 13.910156 19.515625 14.148438 19.636719 C 14.710938 19.917969 15.359375 19.335938 15.199219 18.695312 C 15.097656 18.292969 14.550781 18.082031 14.144531 18.285156 M 16.679688 18.238281 C 16.046875 18.390625 16.0625 19.515625 16.699219 19.6875 C 17.214844 19.824219 17.574219 19.570312 17.617188 19.039062 C 17.671875 18.363281 17.339844 18.074219 16.679688 18.238281 "/>
</g>
</svg>
