<?xml version="1.0" encoding="UTF-8"?>
<svg xmlns="http://www.w3.org/2000/svg" xmlns:xlink="http://www.w3.org/1999/xlink" width="24px" height="24px" viewBox="0 0 24 24" version="1.1">
<g id="surface1">
<path style=" stroke:none;fill-rule:evenodd;fill:rgb(0%,0%,0%);fill-opacity:1;" d="M 11.367188 2.644531 C 10.6875 4.269531 10.523438 5.113281 10.597656 6.601562 C 10.636719 7.410156 10.753906 8.160156 10.921875 8.699219 C 11.21875 9.636719 11.683594 10.617188 11.894531 10.75 C 12.285156 10.992188 13.136719 8.839844 13.339844 7.09375 C 13.453125 6.140625 13.445312 5.746094 13.292969 4.859375 C 13.082031 3.609375 12.277344 1.5625 12 1.5625 C 11.886719 1.5625 11.652344 1.964844 11.367188 2.644531 M 11.644531 3.253906 C 10.867188 5.066406 10.871094 7.082031 11.660156 9.269531 C 11.796875 9.648438 11.949219 9.960938 12.003906 9.960938 C 12.152344 9.960938 12.707031 8.289062 12.835938 7.441406 C 13 6.378906 12.988281 5.609375 12.785156 4.664062 C 12.605469 3.816406 12.148438 2.640625 12 2.640625 C 11.949219 2.640625 11.789062 2.917969 11.644531 3.253906 M 11.699219 4.53125 C 11.652344 4.644531 11.585938 5.253906 11.550781 5.878906 C 11.480469 7.234375 11.648438 8.039062 12 8.039062 C 12.3125 8.039062 12.480469 7.394531 12.480469 6.179688 C 12.480469 4.980469 12.3125 4.320312 12.007812 4.320312 C 11.886719 4.320312 11.746094 4.414062 11.699219 4.53125 M 4.585938 4.585938 C 4.433594 4.734375 5.175781 6.550781 5.789062 7.527344 C 6.5 8.660156 7.859375 9.859375 9.164062 10.507812 C 9.765625 10.804688 10.472656 11.082031 10.730469 11.121094 L 11.199219 11.199219 L 11.121094 10.730469 C 11.082031 10.472656 10.804688 9.765625 10.507812 9.164062 C 9.859375 7.859375 8.660156 6.5 7.527344 5.789062 C 6.550781 5.175781 4.734375 4.433594 4.585938 4.585938 M 18.089844 4.980469 C 16.738281 5.558594 16.113281 5.953125 15.261719 6.769531 C 14.144531 7.835938 13.335938 9.121094 12.894531 10.523438 C 12.761719 10.949219 12.761719 11.046875 12.910156 11.167969 C 13.136719 11.359375 14.265625 10.960938 15.421875 10.285156 C 16.496094 9.65625 17.945312 8.199219 18.449219 7.246094 C 18.976562 6.25 19.5625 4.785156 19.488281 4.660156 C 19.382812 4.492188 19.058594 4.566406 18.089844 4.980469 M 5.339844 5.550781 C 5.664062 6.683594 6.6875 8.144531 7.816406 9.078125 C 8.503906 9.648438 10.386719 10.652344 10.519531 10.519531 C 10.5625 10.476562 10.378906 9.996094 10.109375 9.449219 C 9.261719 7.75 8.007812 6.492188 6.402344 5.738281 C 5.863281 5.488281 5.386719 5.28125 5.34375 5.28125 C 5.300781 5.28125 5.296875 5.402344 5.339844 5.550781 M 17.867188 5.628906 C 16.785156 6.085938 16.128906 6.5625 15.191406 7.574219 C 14.417969 8.40625 13.296875 10.335938 13.476562 10.515625 C 13.59375 10.632812 14.667969 10.15625 15.449219 9.640625 C 16.796875 8.75 17.933594 7.386719 18.484375 5.992188 C 18.617188 5.648438 18.710938 5.351562 18.691406 5.332031 C 18.671875 5.3125 18.300781 5.445312 17.867188 5.628906 M 6.480469 6.691406 C 6.480469 6.988281 6.757812 7.378906 7.546875 8.199219 C 8.535156 9.226562 9.238281 9.539062 9.238281 8.945312 C 9.238281 8.757812 8.996094 8.390625 8.550781 7.90625 C 7.417969 6.679688 6.480469 6.132812 6.480469 6.691406 M 16.738281 6.707031 C 16.203125 7.042969 14.910156 8.410156 14.769531 8.792969 C 14.667969 9.066406 14.679688 9.140625 14.828125 9.199219 C 15.222656 9.351562 16.179688 8.632812 17.058594 7.519531 C 17.777344 6.617188 17.597656 6.167969 16.738281 6.707031 M 5.21875 10.628906 C 5.089844 10.65625 4.683594 10.742188 4.320312 10.816406 C 3.957031 10.886719 3.253906 11.125 2.761719 11.34375 C 2.265625 11.558594 1.765625 11.769531 1.648438 11.804688 C 1.210938 11.945312 1.472656 12.207031 2.488281 12.640625 C 4.019531 13.292969 4.695312 13.441406 6.121094 13.445312 C 7.546875 13.449219 8.804688 13.179688 9.929688 12.636719 C 10.929688 12.148438 10.917969 11.90625 9.875 11.429688 C 9.425781 11.222656 8.726562 10.972656 8.320312 10.867188 C 7.566406 10.675781 5.65625 10.527344 5.21875 10.628906 M 16.382812 10.679688 C 14.960938 10.9375 13.261719 11.65625 13.261719 12 C 13.261719 12.265625 13.921875 12.648438 15.019531 13.015625 C 16.433594 13.488281 18.382812 13.574219 19.742188 13.226562 C 20.835938 12.945312 22.59375 12.164062 22.535156 11.984375 C 22.488281 11.851562 21.472656 11.394531 20.21875 10.949219 C 19.28125 10.617188 17.449219 10.488281 16.382812 10.679688 M 4.914062 11.160156 C 4.191406 11.273438 3.054688 11.664062 2.707031 11.921875 C 2.507812 12.066406 2.558594 12.109375 3.257812 12.390625 C 4.984375 13.082031 6.933594 13.136719 8.699219 12.542969 C 10.035156 12.09375 10.074219 12.066406 9.636719 11.839844 C 8.554688 11.28125 6.253906 10.949219 4.914062 11.160156 M 16.71875 11.160156 C 15.914062 11.277344 14.527344 11.699219 14.230469 11.917969 C 14.015625 12.074219 14.046875 12.105469 14.710938 12.355469 C 16.839844 13.15625 19.0625 13.144531 20.878906 12.324219 L 21.539062 12.027344 L 20.820312 11.699219 C 19.613281 11.152344 18.121094 10.957031 16.71875 11.160156 M 11.667969 11.285156 C 11.03125 11.539062 11.09375 12.589844 11.757812 12.820312 C 12.722656 13.15625 13.335938 11.71875 12.410156 11.296875 C 12.0625 11.140625 12.03125 11.136719 11.667969 11.285156 M 4.679688 11.671875 C 4.121094 11.871094 4.144531 12.140625 4.738281 12.339844 C 5.449219 12.574219 7.605469 12.484375 7.882812 12.207031 C 8.082031 12.011719 8.082031 11.988281 7.882812 11.792969 C 7.714844 11.625 7.421875 11.578125 6.386719 11.550781 C 5.585938 11.53125 4.941406 11.578125 4.679688 11.671875 M 16.480469 11.605469 C 16.335938 11.632812 16.152344 11.734375 16.070312 11.832031 C 15.949219 11.976562 15.960938 12.050781 16.121094 12.214844 C 16.394531 12.484375 18.5625 12.570312 19.261719 12.339844 C 19.855469 12.140625 19.878906 11.867188 19.320312 11.675781 C 18.921875 11.542969 17.046875 11.492188 16.480469 11.605469 M 9.957031 13.117188 C 8.289062 13.804688 6.699219 15.0625 5.8125 16.398438 C 5.308594 17.15625 4.402344 19.332031 4.535156 19.464844 C 4.675781 19.605469 6.855469 18.679688 7.636719 18.148438 C 8.949219 17.253906 10.070312 15.867188 10.761719 14.285156 C 11.417969 12.777344 11.277344 12.574219 9.957031 13.117188 M 12.820312 12.898438 C 12.6875 13.03125 13.066406 14.160156 13.523438 15 C 14.601562 16.980469 16.085938 18.292969 18.144531 19.082031 C 18.492188 19.21875 18.90625 19.390625 19.058594 19.46875 C 19.523438 19.707031 19.5625 19.390625 19.179688 18.453125 C 18.515625 16.816406 18.097656 16.167969 17.039062 15.105469 C 16.1875 14.253906 15.808594 13.976562 14.875 13.511719 C 13.773438 12.96875 12.984375 12.734375 12.820312 12.898438 M 11.347656 14.191406 C 11.125 14.667969 10.859375 15.449219 10.753906 15.921875 C 10.519531 16.972656 10.503906 18.773438 10.726562 19.710938 C 10.964844 20.722656 11.785156 22.566406 11.984375 22.53125 C 12.210938 22.488281 13.054688 20.453125 13.277344 19.410156 C 13.617188 17.8125 13.355469 15.820312 12.578125 14.128906 C 12.074219 13.03125 11.871094 13.042969 11.347656 14.191406 M 9.535156 13.84375 C 7.789062 14.6875 6.558594 15.871094 5.742188 17.496094 C 5.199219 18.574219 5.167969 18.769531 5.550781 18.65625 C 6.746094 18.296875 8.148438 17.335938 9.003906 16.285156 C 9.511719 15.664062 10.558594 13.800781 10.558594 13.519531 C 10.558594 13.378906 10.390625 13.429688 9.535156 13.84375 M 13.441406 13.554688 C 13.441406 13.804688 13.96875 14.859375 14.472656 15.617188 C 15.191406 16.699219 16.285156 17.667969 17.441406 18.246094 C 18.710938 18.882812 18.777344 18.871094 18.46875 18.089844 C 18.050781 17.023438 17.640625 16.414062 16.691406 15.480469 C 16.105469 14.898438 15.476562 14.417969 14.933594 14.136719 C 13.890625 13.589844 13.441406 13.414062 13.441406 13.554688 M 11.726562 14.574219 C 11.1875 15.703125 10.925781 17.71875 11.148438 19.003906 C 11.292969 19.84375 11.847656 21.480469 11.988281 21.480469 C 12.148438 21.480469 12.71875 19.796875 12.851562 18.9375 C 12.992188 18.03125 12.929688 16.742188 12.703125 15.902344 C 12.5 15.140625 12.109375 14.160156 12.011719 14.160156 C 11.964844 14.160156 11.835938 14.347656 11.726562 14.574219 M 8.460938 14.980469 C 7.960938 15.289062 6.53125 16.828125 6.449219 17.148438 C 6.292969 17.75 6.972656 17.59375 7.8125 16.835938 C 9.296875 15.5 9.753906 14.1875 8.460938 14.980469 M 14.761719 14.980469 C 14.761719 15.6875 17.113281 17.847656 17.480469 17.480469 C 17.644531 17.316406 17.355469 16.769531 16.769531 16.128906 C 15.699219 14.957031 14.761719 14.421875 14.761719 14.980469 M 11.695312 16.375 C 11.480469 16.882812 11.472656 18.714844 11.675781 19.320312 C 12.019531 20.328125 12.460938 19.507812 12.472656 17.847656 C 12.480469 16.789062 12.273438 15.960938 12 15.960938 C 11.925781 15.960938 11.789062 16.148438 11.695312 16.375 "/>
</g>
</svg>
