<?xml version="1.0" encoding="UTF-8"?>
<svg xmlns="http://www.w3.org/2000/svg" xmlns:xlink="http://www.w3.org/1999/xlink" width="100px" height="100px" viewBox="0 0 100 100" version="1.1">
<g id="surface1">
<path style=" stroke:none;fill-rule:evenodd;fill:rgb(0%,0%,0%);fill-opacity:1;" d="M 47.363281 11.019531 C 44.535156 17.789062 43.847656 21.304688 44.152344 27.5 C 44.316406 30.878906 44.800781 33.996094 45.511719 36.25 C 46.742188 40.15625 48.679688 44.242188 49.558594 44.785156 C 51.1875 45.792969 54.738281 36.832031 55.589844 29.558594 C 56.054688 25.589844 56.019531 23.949219 55.390625 20.246094 C 54.507812 15.039062 51.160156 6.511719 50 6.511719 C 49.527344 6.511719 48.550781 8.183594 47.363281 11.019531 M 48.523438 13.558594 C 45.273438 21.113281 45.292969 29.511719 48.585938 38.625 C 49.15625 40.207031 49.796875 41.5 50.011719 41.5 C 50.636719 41.5 52.945312 34.535156 53.488281 31 C 54.171875 26.582031 54.113281 23.371094 53.277344 19.429688 C 52.53125 15.894531 50.625 11 50 11 C 49.792969 11 49.128906 12.152344 48.523438 13.558594 M 48.746094 18.875 C 48.546875 19.355469 48.269531 21.886719 48.132812 24.5 C 47.839844 30.136719 48.535156 33.5 49.996094 33.5 C 51.300781 33.5 51.996094 30.808594 51.996094 25.75 C 51.996094 20.753906 51.296875 18 50.03125 18 C 49.523438 18 48.945312 18.394531 48.746094 18.875 M 19.101562 19.101562 C 18.476562 19.726562 21.574219 27.289062 24.121094 31.355469 C 27.078125 36.078125 32.742188 41.082031 38.183594 43.773438 C 40.695312 45.015625 43.628906 46.175781 44.703125 46.34375 L 46.65625 46.65625 L 46.34375 44.703125 C 46.175781 43.628906 45.015625 40.695312 43.773438 38.183594 C 41.082031 32.742188 36.078125 27.078125 31.355469 24.121094 C 27.289062 21.574219 19.726562 18.476562 19.101562 19.101562 M 75.378906 20.75 C 69.746094 23.152344 67.144531 24.800781 63.585938 28.203125 C 58.9375 32.65625 55.5625 38.007812 53.726562 43.84375 C 53.164062 45.621094 53.175781 46.023438 53.789062 46.53125 C 54.742188 47.324219 59.4375 45.675781 64.25 42.855469 C 68.730469 40.234375 74.773438 34.167969 76.875 30.191406 C 79.0625 26.046875 81.515625 19.929688 81.199219 19.417969 C 80.765625 18.714844 79.417969 19.023438 75.378906 20.75 M 22.253906 23.125 C 23.59375 27.847656 27.859375 33.925781 32.570312 37.828125 C 35.433594 40.199219 43.28125 44.382812 43.832031 43.832031 C 44.015625 43.652344 43.242188 41.644531 42.113281 39.375 C 38.597656 32.296875 33.363281 27.050781 26.675781 23.914062 C 24.4375 22.859375 22.453125 22 22.265625 22 C 22.082031 22 22.078125 22.507812 22.253906 23.125 M 74.453125 23.449219 C 69.933594 25.355469 67.203125 27.339844 63.304688 31.550781 C 60.082031 35.03125 55.402344 43.066406 56.15625 43.824219 C 56.636719 44.304688 61.109375 42.3125 64.371094 40.164062 C 69.992188 36.464844 74.722656 30.777344 77.011719 24.96875 C 77.574219 23.539062 77.96875 22.300781 77.882812 22.21875 C 77.800781 22.132812 76.257812 22.6875 74.453125 23.449219 M 27 27.886719 C 27 29.109375 28.15625 30.742188 31.449219 34.164062 C 35.566406 38.445312 38.5 39.742188 38.5 37.277344 C 38.5 36.484375 37.492188 34.964844 35.625 32.945312 C 30.90625 27.839844 27 25.546875 27 27.886719 M 69.75 27.945312 C 67.511719 29.351562 62.128906 35.050781 61.53125 36.644531 C 61.109375 37.769531 61.160156 38.09375 61.789062 38.332031 C 63.429688 38.964844 67.410156 35.964844 71.082031 31.328125 C 74.066406 27.566406 73.328125 25.695312 69.75 27.945312 M 21.75 44.28125 C 21.199219 44.40625 19.511719 44.757812 18 45.0625 C 16.488281 45.363281 13.5625 46.355469 11.5 47.261719 C 9.4375 48.167969 7.355469 49.035156 6.875 49.1875 C 5.050781 49.773438 6.144531 50.855469 10.375 52.664062 C 16.742188 55.382812 19.5625 56.011719 25.5 56.019531 C 31.445312 56.03125 36.683594 54.917969 41.367188 52.648438 C 45.542969 50.621094 45.5 49.605469 41.148438 47.617188 C 39.28125 46.765625 36.363281 45.714844 34.667969 45.28125 C 31.527344 44.480469 23.558594 43.863281 21.75 44.28125 M 68.257812 44.5 C 62.34375 45.566406 55.25 48.566406 55.25 49.996094 C 55.25 51.109375 58.015625 52.707031 62.578125 54.230469 C 68.46875 56.199219 76.589844 56.558594 82.261719 55.105469 C 86.824219 53.9375 94.144531 50.683594 93.898438 49.941406 C 93.710938 49.378906 89.476562 47.484375 84.25 45.628906 C 80.335938 44.238281 72.699219 43.699219 68.257812 44.5 M 20.476562 46.5 C 17.457031 46.976562 12.730469 48.605469 11.277344 49.667969 C 10.445312 50.277344 10.660156 50.457031 13.566406 51.621094 C 20.773438 54.503906 28.890625 54.738281 36.246094 52.265625 C 41.816406 50.398438 41.980469 50.273438 40.148438 49.324219 C 35.644531 46.996094 26.054688 45.621094 20.476562 46.5 M 69.65625 46.503906 C 66.3125 46.992188 60.523438 48.753906 59.289062 49.660156 C 58.394531 50.3125 58.535156 50.441406 61.289062 51.476562 C 70.160156 54.816406 79.425781 54.773438 87 51.359375 L 89.75 50.117188 L 86.75 48.753906 C 81.726562 46.464844 75.511719 45.648438 69.65625 46.503906 M 48.617188 47.019531 C 45.96875 48.082031 46.21875 52.457031 48.984375 53.421875 C 53.003906 54.820312 55.566406 48.828125 51.703125 47.070312 C 50.257812 46.410156 50.132812 46.410156 48.617188 47.019531 M 19.5 48.625 C 17.171875 49.457031 17.273438 50.585938 19.75 51.414062 C 22.699219 52.398438 31.695312 52.019531 32.851562 50.863281 C 33.667969 50.046875 33.667969 49.953125 32.847656 49.132812 C 32.152344 48.4375 30.917969 48.238281 26.613281 48.132812 C 23.265625 48.050781 20.59375 48.238281 19.5 48.625 M 68.660156 48.347656 C 68.0625 48.464844 67.292969 48.894531 66.953125 49.304688 C 66.453125 49.90625 66.496094 50.210938 67.171875 50.886719 C 68.304688 52.019531 77.34375 52.382812 80.25 51.414062 C 82.726562 50.585938 82.832031 49.449219 80.5 48.652344 C 78.847656 48.089844 71.023438 47.886719 68.660156 48.347656 M 41.492188 54.660156 C 34.539062 57.519531 27.914062 62.761719 24.222656 68.324219 C 22.125 71.480469 18.347656 80.550781 18.898438 81.101562 C 19.484375 81.683594 28.570312 77.828125 31.816406 75.621094 C 37.285156 71.898438 41.960938 66.117188 44.84375 59.515625 C 47.582031 53.246094 46.992188 52.394531 41.492188 54.660156 M 53.414062 53.75 C 52.871094 54.296875 54.449219 59.003906 56.347656 62.5 C 60.835938 70.753906 67.023438 76.222656 75.601562 79.511719 C 77.058594 80.070312 78.769531 80.792969 79.40625 81.117188 C 81.351562 82.105469 81.511719 80.800781 79.921875 76.894531 C 77.148438 70.074219 75.414062 67.367188 70.996094 62.945312 C 67.445312 59.394531 65.867188 58.230469 61.972656 56.304688 C 57.394531 54.039062 54.105469 53.054688 53.414062 53.75 M 47.273438 59.125 C 46.359375 61.117188 45.25 64.371094 44.804688 66.347656 C 43.828125 70.71875 43.773438 78.21875 44.691406 82.128906 C 45.683594 86.339844 49.109375 94.03125 49.925781 93.878906 C 50.878906 93.699219 54.398438 85.222656 55.324219 80.878906 C 56.746094 74.222656 55.640625 65.917969 52.402344 58.875 C 50.300781 54.304688 49.464844 54.34375 47.273438 59.125 M 39.734375 57.679688 C 32.453125 61.191406 27.328125 66.121094 23.925781 72.898438 C 21.667969 77.390625 21.535156 78.207031 23.125 77.730469 C 28.113281 76.234375 33.945312 72.234375 37.523438 67.851562 C 39.640625 65.261719 44 57.507812 44 56.339844 C 44 55.742188 43.296875 55.964844 39.734375 57.679688 M 56 56.472656 C 56 57.511719 58.203125 61.921875 60.296875 65.070312 C 63.296875 69.582031 67.847656 73.609375 72.671875 76.027344 C 77.964844 78.675781 78.234375 78.636719 76.957031 75.375 C 75.21875 70.925781 73.496094 68.398438 69.546875 64.496094 C 67.109375 62.085938 64.488281 60.078125 62.226562 58.898438 C 57.878906 56.621094 56 55.890625 56 56.472656 M 48.863281 60.722656 C 46.617188 65.4375 45.519531 73.828125 46.453125 79.183594 C 47.0625 82.6875 49.371094 89.5 49.949219 89.5 C 50.609375 89.5 52.992188 82.496094 53.550781 78.910156 C 54.136719 75.128906 53.875 69.757812 52.933594 66.257812 C 52.078125 63.082031 50.460938 59 50.054688 59 C 49.851562 59 49.316406 59.777344 48.863281 60.722656 M 35.25 62.425781 C 33.171875 63.699219 27.21875 70.117188 26.867188 71.457031 C 26.214844 73.957031 29.050781 73.300781 32.554688 70.148438 C 38.734375 64.585938 40.640625 59.113281 35.25 62.425781 M 61.5 62.425781 C 61.5 65.371094 71.296875 74.367188 72.832031 72.832031 C 73.511719 72.15625 72.316406 69.878906 69.875 67.207031 C 65.414062 62.320312 61.5 60.085938 61.5 62.425781 M 48.722656 68.234375 C 47.839844 70.351562 47.796875 77.984375 48.652344 80.5 C 50.082031 84.695312 51.925781 81.28125 51.972656 74.359375 C 52 69.945312 51.136719 66.5 50 66.5 C 49.695312 66.5 49.121094 67.28125 48.722656 68.234375 "/>
</g>
</svg>
