<?xml version="1.0" encoding="UTF-8"?>
<svg xmlns="http://www.w3.org/2000/svg" xmlns:xlink="http://www.w3.org/1999/xlink" width="24px" height="24px" viewBox="0 0 24 24" version="1.1">
<g id="surface1">
<path style=" stroke:none;fill-rule:evenodd;fill:rgb(0%,0%,0%);fill-opacity:1;" d="M 7.863281 7.53125 L 7.554688 7.980469 L 8.234375 8.015625 C 8.996094 8.058594 9.0625 8.019531 9.175781 7.46875 L 9.257812 7.078125 L 8.714844 7.078125 C 8.21875 7.078125 8.140625 7.121094 7.863281 7.53125 M 9.914062 7.367188 C 9.875 7.527344 9.808594 7.742188 9.769531 7.847656 C 9.703125 8.015625 9.828125 8.039062 10.667969 8.039062 L 11.640625 8.039062 L 11.640625 7.078125 L 10.8125 7.078125 C 10.039062 7.078125 9.980469 7.097656 9.914062 7.367188 M 12.359375 7.558594 L 12.359375 8.039062 L 13.332031 8.039062 C 14.171875 8.039062 14.296875 8.015625 14.230469 7.847656 C 14.191406 7.742188 14.125 7.527344 14.085938 7.367188 C 14.019531 7.097656 13.960938 7.078125 13.1875 7.078125 L 12.359375 7.078125 L 12.359375 7.558594 M 14.824219 7.46875 C 14.9375 8.019531 15.003906 8.058594 15.765625 8.015625 L 16.445312 7.980469 L 16.136719 7.53125 C 15.859375 7.121094 15.78125 7.078125 15.285156 7.078125 L 14.742188 7.078125 L 14.824219 7.46875 M 6.550781 9.203125 C 6.445312 9.511719 6.359375 9.78125 6.359375 9.800781 C 6.359375 9.824219 8.898438 9.839844 12 9.839844 C 15.101562 9.839844 17.640625 9.824219 17.640625 9.800781 C 17.640625 9.78125 17.554688 9.511719 17.449219 9.203125 L 17.257812 8.640625 L 6.742188 8.640625 L 6.550781 9.203125 M 6.34375 11.070312 C 6.117188 11.941406 6.136719 15.132812 6.367188 15.78125 L 6.539062 16.261719 L 7.5 16.292969 L 8.460938 16.328125 L 8.460938 10.441406 L 6.503906 10.441406 L 6.34375 11.070312 M 9.160156 10.890625 C 9.109375 11.136719 9.070312 12.257812 9.070312 13.378906 C 9.070312 14.503906 9.109375 15.621094 9.160156 15.871094 L 9.25 16.320312 L 11.640625 16.320312 L 11.640625 10.441406 L 9.25 10.441406 L 9.160156 10.890625 M 12.359375 13.378906 L 12.359375 16.320312 L 14.746094 16.320312 L 14.839844 15.75 C 14.957031 15.039062 14.953125 11.496094 14.835938 10.890625 L 14.75 10.441406 L 12.359375 10.441406 L 12.359375 13.378906 M 15.539062 13.382812 L 15.539062 16.328125 L 16.5 16.292969 L 17.460938 16.261719 L 17.628906 15.78125 C 17.859375 15.125 17.878906 11.929688 17.65625 11.070312 L 17.496094 10.441406 L 15.539062 10.441406 L 15.539062 13.382812 M 9.839844 12.898438 C 9.757812 13 9.691406 13.214844 9.691406 13.378906 C 9.691406 13.789062 9.925781 14.039062 10.316406 14.039062 C 10.921875 14.039062 11.265625 13.320312 10.851562 12.910156 C 10.613281 12.667969 10.035156 12.664062 9.839844 12.898438 M 6.359375 16.917969 C 6.359375 16.980469 6.445312 17.253906 6.554688 17.519531 L 6.746094 18 L 17.25 18 L 17.378906 17.671875 C 17.445312 17.488281 17.539062 17.21875 17.578125 17.070312 L 17.65625 16.800781 L 12.007812 16.800781 C 8.402344 16.800781 6.359375 16.84375 6.359375 16.917969 M 7.558594 18.691406 C 7.558594 18.742188 7.695312 18.984375 7.863281 19.230469 C 8.140625 19.636719 8.21875 19.679688 8.703125 19.679688 C 9.296875 19.679688 9.289062 19.6875 9.113281 19.050781 L 8.988281 18.601562 L 8.273438 18.601562 C 7.882812 18.601562 7.558594 18.640625 7.558594 18.691406 M 9.71875 18.675781 C 9.71875 18.71875 9.78125 18.960938 9.859375 19.214844 L 9.996094 19.679688 L 11.640625 19.679688 L 11.640625 18.601562 L 10.679688 18.601562 C 10.152344 18.601562 9.71875 18.632812 9.71875 18.675781 M 12.359375 19.140625 L 12.359375 19.679688 L 14.003906 19.679688 L 14.140625 19.214844 C 14.21875 18.960938 14.28125 18.71875 14.28125 18.675781 C 14.28125 18.632812 13.847656 18.601562 13.320312 18.601562 L 12.359375 18.601562 L 12.359375 19.140625 M 14.890625 18.976562 C 14.671875 19.613281 14.710938 19.679688 15.296875 19.679688 C 15.78125 19.679688 15.859375 19.636719 16.136719 19.230469 C 16.304688 18.984375 16.441406 18.742188 16.441406 18.691406 C 16.441406 18.640625 16.121094 18.601562 15.730469 18.601562 C 15.046875 18.601562 15.019531 18.613281 14.890625 18.976562 "/>
</g>
</svg>
