<?xml version="1.0" encoding="UTF-8"?>
<svg xmlns="http://www.w3.org/2000/svg" xmlns:xlink="http://www.w3.org/1999/xlink" width="100px" height="100px" viewBox="0 0 100 100" version="1.1">
<g id="surface1">
<path style=" stroke:none;fill-rule:evenodd;fill:rgb(0%,0%,0%);fill-opacity:1;" d="M 32.757812 31.375 L 31.480469 33.25 L 34.3125 33.402344 C 37.488281 33.574219 37.753906 33.417969 38.238281 31.125 L 38.578125 29.5 L 36.308594 29.5 C 34.242188 29.5 33.917969 29.671875 32.757812 31.375 M 41.304688 30.703125 C 41.140625 31.367188 40.867188 32.265625 40.699219 32.703125 C 40.433594 33.390625 40.945312 33.5 44.445312 33.5 L 48.5 33.5 L 48.5 29.5 L 45.054688 29.5 C 41.832031 29.5 41.589844 29.578125 41.304688 30.703125 M 51.5 31.5 L 51.5 33.5 L 55.554688 33.5 C 59.054688 33.5 59.566406 33.390625 59.300781 32.703125 C 59.132812 32.265625 58.859375 31.367188 58.695312 30.703125 C 58.410156 29.578125 58.167969 29.5 54.945312 29.5 L 51.5 29.5 L 51.5 31.5 M 61.761719 31.125 C 62.246094 33.417969 62.511719 33.574219 65.6875 33.402344 L 68.519531 33.25 L 67.242188 31.375 C 66.082031 29.671875 65.757812 29.5 63.691406 29.5 L 61.421875 29.5 L 61.761719 31.125 M 27.296875 38.339844 C 26.859375 39.625 26.5 40.75 26.5 40.839844 C 26.5 40.925781 37.074219 41 50 41 C 62.925781 41 73.5 40.925781 73.5 40.839844 C 73.5 40.75 73.140625 39.625 72.703125 38.339844 L 71.90625 36 L 28.09375 36 L 27.296875 38.339844 M 26.425781 46.125 C 25.492188 49.753906 25.566406 63.050781 26.535156 65.75 L 27.25 67.75 L 31.25 67.894531 L 35.25 68.035156 L 35.25 43.5 L 27.097656 43.5 L 26.425781 46.125 M 38.167969 45.375 C 37.957031 46.40625 37.789062 51.074219 37.789062 55.75 C 37.789062 60.425781 37.957031 65.09375 38.167969 66.125 L 38.546875 68 L 48.5 68 L 48.5 43.5 L 38.546875 43.5 L 38.167969 45.375 M 51.5 55.75 L 51.5 68 L 61.4375 68 L 61.828125 65.625 C 62.320312 62.65625 62.3125 47.902344 61.820312 45.375 L 61.453125 43.5 L 51.5 43.5 L 51.5 55.75 M 64.75 55.769531 L 64.75 68.035156 L 68.75 67.894531 L 72.75 67.75 L 73.453125 65.75 C 74.414062 63.027344 74.496094 49.710938 73.574219 46.125 L 72.902344 43.5 L 64.75 43.5 L 64.75 55.769531 M 41 53.75 C 40.65625 54.164062 40.375 55.0625 40.375 55.75 C 40.375 57.460938 41.359375 58.5 42.984375 58.5 C 45.515625 58.5 46.933594 55.503906 45.214844 53.785156 C 44.21875 52.789062 41.8125 52.769531 41 53.75 M 26.5 70.488281 C 26.5 70.757812 26.863281 71.882812 27.304688 72.988281 L 28.109375 75 L 71.878906 75 L 72.40625 73.625 C 72.695312 72.867188 73.074219 71.742188 73.25 71.125 L 73.566406 70 L 50.035156 70 C 35.003906 70 26.5 70.175781 26.5 70.488281 M 31.5 77.882812 C 31.5 78.09375 32.070312 79.109375 32.769531 80.132812 C 33.914062 81.820312 34.25 82 36.269531 82 C 38.730469 82 38.710938 82.03125 37.972656 79.375 L 37.453125 77.5 L 34.476562 77.5 C 32.839844 77.5 31.5 77.671875 31.5 77.882812 M 40.5 77.816406 C 40.5 77.992188 40.761719 79.003906 41.078125 80.066406 L 41.660156 82 L 48.5 82 L 48.5 77.5 L 44.5 77.5 C 42.300781 77.5 40.5 77.640625 40.5 77.816406 M 51.5 79.75 L 51.5 82 L 58.339844 82 L 58.921875 80.066406 C 59.238281 79.003906 59.5 77.992188 59.5 77.816406 C 59.5 77.640625 57.699219 77.5 55.5 77.5 L 51.5 77.5 L 51.5 79.75 M 62.050781 79.074219 C 61.128906 81.71875 61.289062 82 63.730469 82 C 65.75 82 66.085938 81.820312 67.230469 80.132812 C 67.929688 79.109375 68.5 78.09375 68.5 77.882812 C 68.5 77.671875 67.171875 77.5 65.550781 77.5 C 62.6875 77.5 62.582031 77.546875 62.050781 79.074219 "/>
</g>
</svg>
