<?xml version="1.0" encoding="UTF-8"?>
<svg xmlns="http://www.w3.org/2000/svg" xmlns:xlink="http://www.w3.org/1999/xlink" width="24px" height="24px" viewBox="0 0 24 24" version="1.1">
<g id="surface1">
<path style=" stroke:none;fill-rule:evenodd;fill:rgb(0%,0%,0%);fill-opacity:1;" d="M 6.839844 1.113281 C 6.300781 1.398438 5.878906 2.003906 5.878906 2.496094 C 5.878906 2.648438 6.074219 3.171875 6.308594 3.65625 C 6.6875 4.429688 6.726562 4.601562 6.652344 5.097656 L 6.570312 5.660156 L 6.140625 5.582031 C 5.503906 5.460938 4.949219 5.140625 4.089844 4.394531 C 2.984375 3.429688 2.308594 3.359375 1.488281 4.113281 C 1.023438 4.539062 0.984375 4.765625 1.140625 6.0625 C 1.21875 6.703125 1.183594 6.921875 0.839844 7.921875 C 0.492188 8.929688 0.457031 9.160156 0.511719 9.957031 C 0.644531 11.804688 1.601562 13.792969 3.265625 15.675781 C 6.792969 19.667969 7.238281 20.078125 8.804688 20.835938 C 9.230469 21.039062 9.660156 21.363281 9.886719 21.648438 C 10.960938 23.011719 11.652344 23.347656 12.589844 22.960938 C 13.59375 22.542969 13.863281 21.492188 13.339844 20.023438 L 13.101562 19.34375 L 13.34375 18.28125 C 13.597656 17.152344 13.585938 15.5625 13.3125 14.597656 C 13.242188 14.34375 13.199219 14.121094 13.222656 14.101562 C 13.242188 14.082031 13.800781 14.417969 14.460938 14.847656 C 16.011719 15.855469 16.667969 16.144531 17.960938 16.386719 C 19.023438 16.585938 19.308594 16.707031 20.515625 17.46875 C 21.667969 18.195312 22.796875 17.972656 23.34375 16.910156 C 23.695312 16.230469 23.511719 15.46875 22.714844 14.308594 C 22.308594 13.722656 22.273438 13.59375 22.1875 12.449219 C 22.136719 11.757812 21.992188 10.917969 21.855469 10.53125 C 20.757812 7.402344 17.425781 3.707031 14.441406 2.308594 C 13.796875 2.007812 13.585938 1.976562 11.878906 1.921875 L 10.019531 1.859375 L 8.929688 1.347656 C 8.328125 1.070312 7.730469 0.839844 7.597656 0.839844 C 7.464844 0.839844 7.125 0.960938 6.839844 1.113281 M 6.738281 1.503906 C 6.222656 1.933594 6.046875 2.53125 6.289062 3 C 6.394531 3.199219 6.570312 3.53125 6.679688 3.742188 C 6.867188 4.097656 6.886719 4.105469 6.972656 3.875 C 7.082031 3.574219 7.320312 3.402344 7.316406 3.621094 C 7.316406 3.710938 7.242188 3.996094 7.152344 4.261719 C 7.066406 4.523438 6.957031 4.96875 6.914062 5.246094 C 6.84375 5.726562 6.855469 5.757812 7.167969 5.835938 C 9.042969 6.285156 11.230469 8.902344 12.605469 12.332031 L 13.148438 13.695312 L 14.164062 14.34375 C 16.039062 15.539062 16.417969 15.726562 17.421875 15.964844 C 17.96875 16.09375 18.652344 16.253906 18.9375 16.320312 C 19.222656 16.386719 19.804688 16.683594 20.234375 16.976562 C 21.355469 17.742188 22.148438 17.832031 22.765625 17.253906 C 23.445312 16.621094 23.371094 15.75 22.539062 14.570312 C 22.058594 13.886719 22.035156 13.816406 21.953125 12.660156 C 21.902344 11.96875 21.75 11.128906 21.601562 10.679688 C 20.59375 7.679688 17.554688 4.203125 14.667969 2.738281 L 13.652344 2.222656 L 11.777344 2.160156 C 9.910156 2.101562 9.894531 2.097656 8.957031 1.648438 C 7.816406 1.105469 7.253906 1.066406 6.738281 1.503906 M 2.085938 4.011719 C 1.367188 4.324219 1.171875 4.921875 1.453125 5.9375 C 1.578125 6.378906 1.597656 6.394531 1.75 6.183594 C 1.84375 6.058594 1.957031 5.996094 2.003906 6.042969 C 2.050781 6.09375 2.023438 6.222656 1.941406 6.335938 C 1.5625 6.859375 0.949219 8.289062 0.832031 8.933594 C 0.625 10.058594 0.898438 11.414062 1.628906 12.871094 C 2.097656 13.808594 2.660156 14.589844 3.734375 15.796875 C 7.269531 19.765625 7.375 19.859375 8.898438 20.570312 C 9.511719 20.855469 10.058594 21.335938 10.5625 22.023438 C 10.914062 22.507812 11.421875 22.800781 11.902344 22.800781 C 13.214844 22.800781 13.652344 21.761719 13.058594 20.070312 L 12.796875 19.320312 L 13.027344 18.390625 C 13.472656 16.601562 13.21875 14.542969 12.277344 12.238281 C 11.210938 9.640625 9.339844 7.132812 7.933594 6.429688 C 7.628906 6.277344 6.976562 6.058594 6.480469 5.941406 C 5.320312 5.664062 4.824219 5.410156 4.007812 4.667969 C 3.082031 3.832031 2.757812 3.71875 2.085938 4.011719 M 10.816406 4.144531 C 10.609375 4.320312 10.441406 4.511719 10.441406 4.570312 C 10.441406 4.628906 10.542969 4.578125 10.667969 4.453125 C 10.789062 4.328125 10.992188 4.171875 11.117188 4.101562 C 11.238281 4.035156 11.304688 3.945312 11.265625 3.902344 C 11.222656 3.863281 11.019531 3.972656 10.816406 4.144531 M 13.511719 4.8125 C 13.039062 5.183594 13.214844 5.222656 13.742188 4.867188 C 13.992188 4.699219 14.113281 4.558594 14.011719 4.558594 C 13.914062 4.558594 13.6875 4.675781 13.511719 4.8125 M 16.5 6.074219 C 16.238281 6.167969 15.941406 6.328125 15.839844 6.429688 C 15.710938 6.558594 15.816406 6.542969 16.214844 6.367188 C 16.519531 6.234375 17.058594 6.074219 17.414062 6.015625 L 18.058594 5.90625 L 17.519531 5.902344 C 17.222656 5.898438 16.765625 5.976562 16.5 6.074219 M 10.625 6.761719 C 10.3125 7.296875 10.226562 7.632812 10.441406 7.5 C 10.507812 7.460938 10.558594 7.339844 10.558594 7.234375 C 10.558594 7.128906 10.699219 6.863281 10.867188 6.640625 C 11.035156 6.421875 11.117188 6.238281 11.050781 6.238281 C 10.984375 6.238281 10.792969 6.472656 10.625 6.761719 M 4.949219 7.585938 C 4.800781 7.65625 4.679688 7.769531 4.679688 7.832031 C 4.679688 7.898438 4.757812 7.886719 4.851562 7.804688 C 4.945312 7.726562 5.175781 7.617188 5.363281 7.5625 C 5.597656 7.492188 5.625 7.460938 5.460938 7.457031 C 5.328125 7.457031 5.097656 7.515625 4.949219 7.585938 M 1.890625 8.671875 C 1.511719 9.25 1.1875 9.988281 1.230469 10.179688 C 1.253906 10.300781 1.335938 10.191406 1.433594 9.898438 C 1.519531 9.636719 1.746094 9.191406 1.933594 8.910156 C 2.117188 8.628906 2.226562 8.398438 2.167969 8.398438 C 2.113281 8.398438 1.988281 8.523438 1.890625 8.671875 M 12.539062 8.804688 C 12.203125 9.320312 12.011719 10.199219 12.238281 10.199219 C 12.304688 10.199219 12.359375 10.019531 12.359375 9.796875 C 12.359375 9.566406 12.488281 9.207031 12.65625 8.957031 C 12.820312 8.714844 12.902344 8.519531 12.839844 8.519531 C 12.777344 8.519531 12.640625 8.648438 12.539062 8.804688 M 18.898438 8.636719 C 18.492188 8.730469 18 9.011719 18 9.152344 C 18 9.203125 18.140625 9.152344 18.308594 9.042969 C 18.480469 8.929688 18.820312 8.804688 19.058594 8.765625 C 19.300781 8.726562 19.445312 8.664062 19.378906 8.625 C 19.3125 8.589844 19.097656 8.59375 18.898438 8.636719 M 15.910156 9.007812 C 15.667969 9.21875 15.496094 9.417969 15.527344 9.445312 C 15.554688 9.476562 15.6875 9.394531 15.816406 9.261719 C 15.945312 9.132812 16.152344 8.972656 16.277344 8.902344 C 16.398438 8.835938 16.464844 8.742188 16.421875 8.703125 C 16.378906 8.660156 16.148438 8.796875 15.910156 9.007812 M 7.253906 8.949219 C 7.023438 9.136719 7.023438 9.136719 7.261719 9.054688 C 7.390625 9.007812 7.660156 8.929688 7.859375 8.878906 L 8.21875 8.785156 L 7.851562 8.773438 C 7.652344 8.765625 7.382812 8.84375 7.253906 8.949219 M 3.574219 10.289062 C 3.25 10.636719 2.984375 11.257812 3.226562 11.109375 C 3.300781 11.0625 3.359375 10.953125 3.359375 10.863281 C 3.359375 10.773438 3.527344 10.53125 3.730469 10.328125 C 3.933594 10.125 4.050781 9.960938 3.992188 9.960938 C 3.933594 9.960938 3.746094 10.109375 3.574219 10.289062 M 9.140625 10.898438 C 9.039062 10.964844 9.28125 11 9.800781 10.992188 C 10.25 10.984375 10.753906 11.027344 10.921875 11.082031 C 11.167969 11.167969 11.195312 11.160156 11.066406 11.027344 C 10.890625 10.839844 9.375 10.738281 9.140625 10.898438 M 14.796875 11.070312 C 14.4375 11.460938 14.277344 11.816406 14.289062 12.203125 C 14.296875 12.496094 14.316406 12.476562 14.453125 12.039062 C 14.539062 11.765625 14.726562 11.375 14.871094 11.171875 C 15.183594 10.734375 15.144531 10.6875 14.796875 11.070312 M 18.730469 11.46875 C 18.527344 11.640625 18.359375 11.839844 18.359375 11.914062 C 18.359375 11.984375 18.425781 11.960938 18.511719 11.851562 C 18.59375 11.746094 18.847656 11.546875 19.078125 11.410156 C 19.328125 11.265625 19.417969 11.160156 19.300781 11.160156 C 19.1875 11.160156 18.933594 11.300781 18.730469 11.46875 M 4.949219 13.59375 C 4.585938 13.96875 4.253906 14.617188 4.371094 14.730469 C 4.402344 14.761719 4.507812 14.589844 4.605469 14.351562 C 4.707031 14.113281 4.933594 13.785156 5.113281 13.617188 C 5.292969 13.453125 5.410156 13.292969 5.378906 13.261719 C 5.347656 13.230469 5.15625 13.378906 4.949219 13.59375 M 16.375 13.734375 C 16.171875 14.222656 16.152344 14.519531 16.320312 14.519531 C 16.386719 14.519531 16.441406 14.371094 16.441406 14.1875 C 16.441406 14.003906 16.523438 13.734375 16.625 13.585938 C 16.742188 13.425781 16.761719 13.320312 16.679688 13.320312 C 16.609375 13.320312 16.46875 13.507812 16.375 13.734375 M 10.800781 13.527344 C 10.214844 13.632812 10.339844 13.738281 11.046875 13.738281 C 11.4375 13.738281 11.757812 13.699219 11.757812 13.648438 C 11.761719 13.601562 11.683594 13.558594 11.589844 13.558594 C 11.496094 13.558594 11.347656 13.539062 11.261719 13.515625 C 11.171875 13.492188 10.964844 13.496094 10.800781 13.527344 M 7.722656 14.03125 C 7.347656 14.261719 6.960938 14.714844 6.960938 14.929688 C 6.960938 14.992188 7.152344 14.816406 7.390625 14.542969 C 7.625 14.265625 7.894531 14.039062 7.988281 14.039062 C 8.082031 14.039062 8.160156 13.984375 8.160156 13.921875 C 8.160156 13.761719 8.164062 13.761719 7.722656 14.03125 M 20.6875 14.808594 C 20.375 15.121094 20.28125 15.3125 20.292969 15.617188 L 20.304688 16.019531 L 20.402344 15.601562 C 20.460938 15.34375 20.675781 15.027344 20.949219 14.789062 C 21.199219 14.574219 21.332031 14.398438 21.246094 14.398438 C 21.164062 14.398438 20.914062 14.582031 20.6875 14.808594 M 10.457031 15 C 10.238281 15.050781 9.996094 15.160156 9.917969 15.246094 C 9.808594 15.363281 9.832031 15.375 10.019531 15.300781 C 10.152344 15.25 10.410156 15.179688 10.589844 15.148438 C 10.773438 15.117188 10.921875 15.042969 10.921875 14.988281 C 10.921875 14.929688 10.90625 14.886719 10.890625 14.890625 C 10.875 14.898438 10.679688 14.945312 10.457031 15 M 12.238281 16.214844 C 12.402344 16.277344 12.628906 16.417969 12.746094 16.523438 C 12.863281 16.632812 12.960938 16.660156 12.960938 16.585938 C 12.960938 16.394531 12.46875 16.078125 12.183594 16.085938 C 11.972656 16.09375 11.980469 16.109375 12.238281 16.214844 M 9.992188 17.191406 C 9.777344 17.339844 9.601562 17.503906 9.601562 17.558594 C 9.601562 17.613281 9.757812 17.542969 9.949219 17.40625 C 10.140625 17.273438 10.351562 17.160156 10.421875 17.160156 C 10.488281 17.160156 10.578125 17.105469 10.621094 17.039062 C 10.753906 16.824219 10.386719 16.914062 9.992188 17.191406 M 7.902344 17.550781 C 7.683594 17.722656 7.320312 18.25 7.320312 18.386719 C 7.320312 18.4375 7.375 18.480469 7.441406 18.480469 C 7.507812 18.480469 7.558594 18.402344 7.558594 18.308594 C 7.558594 18.214844 7.699219 17.972656 7.871094 17.769531 C 8.199219 17.378906 8.210938 17.300781 7.902344 17.550781 M 11.761719 17.878906 C 11.609375 17.976562 11.621094 17.996094 11.820312 17.996094 C 11.953125 17.996094 12.140625 17.945312 12.238281 17.878906 C 12.390625 17.785156 12.378906 17.765625 12.179688 17.765625 C 12.046875 17.765625 11.859375 17.816406 11.761719 17.878906 M 11.398438 19.519531 C 10.929688 19.671875 10.644531 19.878906 10.488281 20.179688 C 10.230469 20.679688 10.285156 20.726562 10.59375 20.269531 C 10.753906 20.027344 11.023438 19.8125 11.253906 19.746094 C 11.464844 19.683594 11.640625 19.585938 11.640625 19.535156 C 11.640625 19.484375 11.625 19.445312 11.609375 19.449219 C 11.59375 19.453125 11.5 19.484375 11.398438 19.519531 M 11.574219 21.414062 C 11.277344 21.710938 11.179688 22.078125 11.398438 22.078125 C 11.464844 22.078125 11.519531 21.972656 11.519531 21.839844 C 11.519531 21.695312 11.675781 21.5 11.910156 21.359375 C 12.179688 21.195312 12.234375 21.121094 12.085938 21.121094 C 11.964844 21.121094 11.738281 21.253906 11.574219 21.414062 "/>
</g>
</svg>
