<?xml version="1.0" encoding="UTF-8"?>
<svg xmlns="http://www.w3.org/2000/svg" xmlns:xlink="http://www.w3.org/1999/xlink" width="100px" height="100px" viewBox="0 0 100 100" version="1.1">
<g id="surface1">
<path style=" stroke:none;fill-rule:evenodd;fill:rgb(0%,0%,0%);fill-opacity:1;" d="M 28.507812 4.636719 C 26.25 5.832031 24.5 8.347656 24.5 10.398438 C 24.5 11.039062 25.304688 13.210938 26.289062 15.230469 C 27.863281 18.457031 28.035156 19.175781 27.726562 21.242188 L 27.375 23.585938 L 25.585938 23.253906 C 22.9375 22.753906 20.625 21.414062 17.046875 18.300781 C 12.441406 14.296875 9.625 13.996094 6.199219 17.140625 C 4.265625 18.914062 4.097656 19.859375 4.753906 25.265625 C 5.074219 27.921875 4.925781 28.847656 3.496094 33.011719 C 2.054688 37.203125 1.902344 38.160156 2.140625 41.492188 C 2.683594 49.179688 6.679688 57.476562 13.601562 65.308594 C 28.308594 81.945312 30.152344 83.65625 36.691406 86.808594 C 38.46875 87.664062 40.253906 89.011719 41.191406 90.203125 C 45.671875 95.886719 48.554688 97.285156 52.457031 95.667969 C 56.640625 93.933594 57.761719 89.554688 55.589844 83.421875 L 54.585938 80.597656 L 55.59375 76.171875 C 56.664062 71.460938 56.609375 64.847656 55.472656 60.828125 C 55.171875 59.769531 55 58.839844 55.089844 58.757812 C 55.175781 58.675781 57.5 60.070312 60.25 61.859375 C 66.71875 66.070312 69.449219 67.269531 74.835938 68.28125 C 79.273438 69.113281 80.449219 69.609375 85.476562 72.78125 C 90.285156 75.8125 94.980469 74.890625 97.269531 70.464844 C 98.734375 67.625 97.96875 64.457031 94.640625 59.621094 C 92.953125 57.171875 92.804688 56.648438 92.449219 51.871094 C 92.234375 48.988281 91.628906 45.492188 91.058594 43.871094 C 86.496094 30.839844 72.609375 15.4375 60.175781 9.621094 C 57.492188 8.367188 56.613281 8.234375 49.5 8 L 41.75 7.746094 L 37.203125 5.621094 C 34.703125 4.457031 32.207031 3.5 31.65625 3.5 C 31.109375 3.5 29.691406 4.011719 28.507812 4.636719 M 28.070312 6.265625 C 25.933594 8.0625 25.191406 10.554688 26.210938 12.496094 C 26.644531 13.324219 27.375 14.714844 27.832031 15.589844 C 28.605469 17.074219 28.6875 17.109375 29.046875 16.140625 C 29.507812 14.894531 30.503906 14.175781 30.492188 15.09375 C 30.488281 15.457031 30.179688 16.648438 29.808594 17.75 C 29.4375 18.851562 28.988281 20.703125 28.8125 21.863281 C 28.507812 23.867188 28.566406 23.996094 29.871094 24.3125 C 37.671875 26.191406 46.789062 37.089844 52.515625 51.390625 L 54.785156 57.0625 L 59.019531 59.761719 C 66.828125 64.738281 68.402344 65.523438 72.585938 66.511719 C 74.875 67.054688 77.71875 67.726562 78.90625 68.003906 C 80.09375 68.285156 82.527344 69.515625 84.316406 70.742188 C 88.976562 73.933594 92.285156 74.292969 94.859375 71.890625 C 97.683594 69.253906 97.378906 65.621094 93.921875 60.714844 C 91.910156 57.863281 91.816406 57.5625 91.464844 52.75 C 91.253906 49.875 90.632812 46.367188 90.003906 44.5 C 85.808594 32.007812 73.152344 17.507812 61.117188 11.402344 L 56.882812 9.257812 L 49.066406 9.003906 C 41.289062 8.75 41.230469 8.742188 37.324219 6.875 C 32.5625 4.601562 30.230469 4.449219 28.070312 6.265625 M 8.6875 16.71875 C 5.699219 18.019531 4.882812 20.503906 6.054688 24.734375 C 6.570312 26.578125 6.652344 26.652344 7.296875 25.769531 C 7.679688 25.25 8.152344 24.984375 8.351562 25.183594 C 8.550781 25.386719 8.4375 25.929688 8.09375 26.398438 C 6.507812 28.578125 3.957031 34.539062 3.460938 37.21875 C 2.597656 41.902344 3.742188 47.550781 6.785156 53.632812 C 8.742188 57.535156 11.082031 60.785156 15.566406 65.824219 C 30.289062 82.351562 30.722656 82.753906 37.082031 85.714844 C 39.628906 86.898438 41.917969 88.898438 44.011719 91.765625 C 45.480469 93.777344 47.589844 95 49.59375 95 C 55.058594 95 56.890625 90.679688 54.414062 83.628906 L 53.316406 80.503906 L 54.277344 76.628906 C 56.128906 69.171875 55.082031 60.589844 51.15625 51 C 46.71875 40.160156 38.914062 29.722656 33.0625 26.796875 C 31.789062 26.160156 29.0625 25.242188 27 24.75 C 22.175781 23.601562 20.109375 22.542969 16.703125 19.457031 C 12.84375 15.960938 11.492188 15.5 8.6875 16.71875 M 45.0625 17.273438 C 44.203125 17.996094 43.5 18.792969 43.5 19.042969 C 43.5 19.296875 43.925781 19.074219 44.445312 18.554688 C 44.960938 18.039062 45.804688 17.378906 46.316406 17.09375 C 46.824219 16.808594 47.101562 16.4375 46.933594 16.265625 C 46.765625 16.097656 45.921875 16.550781 45.0625 17.273438 M 56.289062 20.058594 C 54.328125 21.601562 55.0625 21.765625 57.261719 20.273438 C 58.292969 19.574219 58.800781 19 58.386719 19 C 57.972656 19 57.03125 19.476562 56.289062 20.058594 M 68.75 25.300781 C 67.652344 25.703125 66.414062 26.375 66 26.789062 C 65.464844 27.332031 65.90625 27.257812 67.558594 26.527344 C 68.832031 25.96875 71.082031 25.308594 72.558594 25.0625 L 75.25 24.617188 L 73 24.59375 C 71.761719 24.582031 69.851562 24.898438 68.75 25.300781 M 44.269531 28.167969 C 42.964844 30.398438 42.613281 31.796875 43.5 31.25 C 43.773438 31.078125 44 30.582031 44 30.140625 C 44 29.703125 44.574219 28.59375 45.277344 27.671875 C 45.976562 26.753906 46.324219 26 46.046875 26 C 45.769531 26 44.96875 26.976562 44.269531 28.167969 M 20.625 31.609375 C 20.007812 31.910156 19.5 32.371094 19.5 32.636719 C 19.5 32.90625 19.824219 32.855469 20.21875 32.527344 C 20.613281 32.199219 21.570312 31.742188 22.34375 31.507812 C 23.316406 31.214844 23.441406 31.082031 22.75 31.078125 C 22.199219 31.070312 21.242188 31.3125 20.625 31.609375 M 7.878906 36.125 C 6.296875 38.550781 4.949219 41.617188 5.121094 42.414062 C 5.230469 42.917969 5.566406 42.457031 5.96875 41.25 C 6.332031 40.148438 7.269531 38.292969 8.050781 37.125 C 8.828125 35.957031 9.273438 35 9.039062 35 C 8.804688 35 8.285156 35.507812 7.878906 36.125 M 52.242188 36.6875 C 50.839844 38.832031 50.054688 42.5 51 42.5 C 51.273438 42.5 51.5 41.742188 51.5 40.820312 C 51.5 39.859375 52.027344 38.363281 52.734375 37.320312 C 53.414062 36.320312 53.757812 35.5 53.496094 35.5 C 53.234375 35.5 52.671875 36.035156 52.242188 36.6875 M 78.75 35.992188 C 77.054688 36.371094 75 37.542969 75 38.132812 C 75 38.347656 75.582031 38.140625 76.292969 37.675781 C 77.003906 37.210938 78.410156 36.691406 79.417969 36.527344 C 80.425781 36.359375 81.023438 36.097656 80.75 35.941406 C 80.476562 35.785156 79.574219 35.808594 78.75 35.992188 M 66.285156 37.535156 C 65.285156 38.414062 64.566406 39.234375 64.691406 39.359375 C 64.816406 39.480469 65.359375 39.140625 65.902344 38.597656 C 66.445312 38.054688 67.304688 37.378906 67.816406 37.09375 C 68.324219 36.808594 68.597656 36.433594 68.421875 36.257812 C 68.25 36.082031 67.285156 36.65625 66.285156 37.535156 M 30.21875 37.289062 C 29.261719 38.070312 29.265625 38.078125 30.25 37.730469 C 30.800781 37.535156 31.925781 37.203125 32.75 36.988281 L 34.25 36.601562 L 32.71875 36.550781 C 31.878906 36.523438 30.753906 36.855469 30.21875 37.289062 M 14.898438 42.875 C 13.539062 44.328125 12.441406 46.902344 13.445312 46.28125 C 13.75 46.09375 14 45.632812 14 45.257812 C 14 44.882812 14.691406 43.882812 15.539062 43.039062 C 16.382812 42.191406 16.875 41.5 16.632812 41.5 C 16.386719 41.5 15.609375 42.117188 14.898438 42.875 M 38.085938 45.40625 C 37.664062 45.691406 38.671875 45.835938 40.835938 45.804688 C 42.714844 45.773438 44.8125 45.945312 45.5 46.179688 C 46.53125 46.539062 46.640625 46.496094 46.117188 45.945312 C 45.371094 45.164062 39.070312 44.742188 38.085938 45.40625 M 61.648438 46.125 C 60.160156 47.757812 59.496094 49.242188 59.535156 50.84375 C 59.5625 52.074219 59.648438 51.988281 60.21875 50.171875 C 60.574219 49.027344 61.363281 47.394531 61.96875 46.546875 C 63.257812 44.730469 63.105469 44.527344 61.648438 46.125 M 78.039062 47.792969 C 77.191406 48.507812 76.5 49.335938 76.5 49.640625 C 76.5 49.941406 76.78125 49.828125 77.125 49.390625 C 77.46875 48.949219 78.539062 48.117188 79.5 47.546875 C 80.527344 46.933594 80.90625 46.503906 80.414062 46.503906 C 79.953125 46.5 78.882812 47.082031 78.039062 47.792969 M 20.621094 56.632812 C 19.105469 58.203125 17.734375 60.898438 18.207031 61.375 C 18.335938 61.503906 18.78125 60.796875 19.195312 59.804688 C 19.609375 58.8125 20.558594 57.433594 21.304688 56.746094 C 22.046875 56.054688 22.550781 55.382812 22.417969 55.253906 C 22.289062 55.121094 21.480469 55.742188 20.621094 56.632812 M 68.222656 57.234375 C 67.378906 59.257812 67.292969 60.5 68 60.5 C 68.273438 60.5 68.5 59.875 68.5 59.113281 C 68.5 58.347656 68.851562 57.222656 69.277344 56.613281 C 69.753906 55.933594 69.839844 55.5 69.503906 55.5 C 69.199219 55.5 68.621094 56.28125 68.222656 57.234375 M 45 56.363281 C 42.566406 56.796875 43.089844 57.25 46.023438 57.25 C 47.660156 57.25 48.996094 57.082031 49 56.875 C 49 56.667969 48.679688 56.5 48.289062 56.5 C 47.902344 56.5 47.28125 56.417969 46.914062 56.320312 C 46.550781 56.222656 45.6875 56.242188 45 56.363281 M 32.183594 58.460938 C 30.609375 59.417969 29 61.308594 29 62.203125 C 29 62.464844 29.804688 61.738281 30.789062 60.589844 C 31.773438 59.441406 32.898438 58.5 33.289062 58.5 C 33.679688 58.5 34 58.273438 34 58 C 34 57.347656 34.007812 57.34375 32.183594 58.460938 M 86.199219 61.699219 C 84.902344 62.996094 84.511719 63.796875 84.550781 65.074219 L 84.601562 66.75 L 85.011719 65 C 85.261719 63.929688 86.144531 62.621094 87.292969 61.625 C 88.324219 60.730469 88.882812 60 88.535156 60 C 88.183594 60 87.136719 60.765625 86.199219 61.699219 M 43.578125 62.496094 C 42.660156 62.714844 41.648438 63.175781 41.328125 63.519531 C 40.875 64.011719 40.964844 64.0625 41.75 63.753906 C 42.300781 63.535156 43.367188 63.253906 44.125 63.121094 C 44.882812 62.992188 45.5 62.6875 45.5 62.445312 C 45.5 62.199219 45.445312 62.023438 45.375 62.050781 C 45.304688 62.078125 44.496094 62.28125 43.578125 62.496094 M 50.988281 67.558594 C 51.671875 67.828125 52.628906 68.414062 53.113281 68.855469 C 53.605469 69.296875 54 69.410156 54 69.105469 C 54 68.308594 51.949219 66.996094 50.761719 67.03125 C 49.882812 67.058594 49.910156 67.128906 50.988281 67.558594 M 41.625 71.625 C 40.742188 72.242188 40.011719 72.933594 40.007812 73.160156 C 40.003906 73.382812 40.652344 73.101562 41.453125 72.535156 C 42.25 71.964844 43.136719 71.5 43.421875 71.5 C 43.707031 71.5 44.078125 71.273438 44.25 71 C 44.800781 70.109375 43.277344 70.472656 41.625 71.625 M 32.917969 73.125 C 32.023438 73.851562 30.5 76.042969 30.5 76.613281 C 30.5 76.824219 30.726562 77 31 77 C 31.273438 77 31.5 76.679688 31.5 76.289062 C 31.5 75.898438 32.082031 74.882812 32.792969 74.039062 C 34.160156 72.417969 34.203125 72.085938 32.917969 73.125 M 49 74.5 C 48.378906 74.902344 48.421875 74.984375 49.25 74.984375 C 49.800781 74.984375 50.585938 74.765625 51 74.5 C 51.621094 74.097656 51.578125 74.015625 50.75 74.015625 C 50.199219 74.015625 49.414062 74.234375 49 74.5 M 47.5 81.324219 C 45.535156 81.972656 44.355469 82.832031 43.707031 84.082031 C 42.632812 86.160156 42.863281 86.355469 44.136719 84.449219 C 44.800781 83.453125 45.9375 82.550781 46.886719 82.273438 C 47.773438 82.007812 48.5 81.613281 48.5 81.398438 C 48.5 81.179688 48.445312 81.019531 48.375 81.039062 C 48.304688 81.0625 47.914062 81.191406 47.5 81.324219 M 48.226562 89.226562 C 46.984375 90.46875 46.582031 92 47.5 92 C 47.773438 92 48 91.546875 48 90.992188 C 48 90.390625 48.65625 89.585938 49.625 88.996094 C 50.746094 88.308594 50.972656 88.003906 50.351562 88.003906 C 49.859375 88 48.902344 88.550781 48.226562 89.226562 "/>
</g>
</svg>
