<?xml version="1.0" encoding="UTF-8"?>
<svg xmlns="http://www.w3.org/2000/svg" xmlns:xlink="http://www.w3.org/1999/xlink" width="100px" height="100px" viewBox="0 0 100 100" version="1.1">
<g id="surface1">
<path style=" stroke:none;fill-rule:evenodd;fill:rgb(0%,0%,0%);fill-opacity:1;" d="M 56.691406 7.125 C 56.871094 7.6875 56.707031 8 56.234375 8 C 55.832031 8 55.5 8.335938 55.5 8.75 C 55.5 9.164062 55.164062 9.5 54.75 9.5 C 54.335938 9.5 54 9.726562 54 10 C 54 10.273438 53.664062 10.5 53.25 10.5 C 52.835938 10.5 52.492188 10.78125 52.484375 11.125 C 52.472656 11.46875 52.035156 11.234375 51.511719 10.605469 C 50.601562 9.515625 50.511719 9.5 49.554688 10.320312 C 49.003906 10.792969 48.683594 11.390625 48.84375 11.652344 C 49.007812 11.914062 48.867188 12.039062 48.53125 11.925781 C 48.199219 11.816406 47.960938 11.527344 48.007812 11.28125 C 48.050781 11.039062 47.730469 10.640625 47.296875 10.394531 C 46.859375 10.152344 46.5 9.625 46.5 9.226562 C 46.5 8.828125 46.050781 8.5 45.5 8.5 C 44.949219 8.5 44.496094 8.78125 44.492188 9.125 C 44.484375 9.625 44.40625 9.625 44.085938 9.125 C 43.785156 8.652344 43.425781 8.742188 42.605469 9.507812 L 41.519531 10.519531 L 40.890625 9.511719 C 40.148438 8.324219 39.5 8.195312 39.5 9.234375 C 39.5 9.636719 39.21875 9.863281 38.875 9.734375 C 38.53125 9.605469 37.996094 10.050781 37.683594 10.726562 C 37.257812 11.644531 37.257812 12.007812 37.683594 12.160156 C 38.660156 12.511719 37.566406 13.167969 36 13.167969 C 35.175781 13.167969 34.5 13.390625 34.5 13.660156 C 34.5 13.933594 34.050781 13.746094 33.5 13.25 C 32.601562 12.4375 32.5 12.429688 32.5 13.171875 C 32.5 13.628906 32.136719 14 31.695312 14 C 31.203125 14 31 14.277344 31.167969 14.71875 C 31.320312 15.113281 31.175781 15.5625 30.847656 15.71875 C 30.398438 15.929688 30.410156 16.074219 30.894531 16.296875 C 31.390625 16.527344 31.40625 16.761719 30.960938 17.296875 C 30.488281 17.867188 30.597656 18 31.535156 18 C 32.664062 18 32.667969 18.019531 31.71875 18.78125 C 31.101562 19.28125 30.957031 19.652344 31.320312 19.804688 C 31.636719 19.9375 31.769531 20.523438 31.617188 21.101562 C 31.429688 21.820312 31.527344 22.042969 31.921875 21.796875 C 32.238281 21.601562 32.5 21.671875 32.5 21.957031 C 32.5 22.269531 33.117188 22.351562 34.058594 22.164062 C 35.460938 21.882812 35.582031 21.953125 35.285156 22.886719 C 35.050781 23.632812 35.207031 23.984375 35.855469 24.152344 C 36.683594 24.367188 36.6875 24.386719 35.875 24.441406 C 35.394531 24.472656 35 24.835938 35 25.25 C 35 25.664062 34.71875 26.007812 34.375 26.015625 C 34.023438 26.023438 34.175781 26.351562 34.71875 26.765625 C 35.253906 27.167969 35.421875 27.5 35.09375 27.5 C 34.769531 27.5 34.5 27.726562 34.5 28 C 34.5 28.273438 34.875 28.5 35.332031 28.5 C 35.792969 28.5 36.03125 28.636719 35.867188 28.800781 C 35.382812 29.285156 30.800781 27.578125 28.980469 26.234375 C 28.058594 25.554688 27.53125 25 27.804688 25 C 28.078125 25 28.300781 24.210938 28.300781 23.25 C 28.300781 22.289062 28.175781 21.5 28.023438 21.5 C 27.867188 21.5 27.824219 20.453125 27.925781 19.175781 C 28.097656 17.019531 28.035156 16.875 27.054688 17.128906 C 26.476562 17.28125 26 17.21875 26 16.988281 C 26 16.761719 25.269531 16.207031 24.375 15.761719 C 22.789062 14.96875 22.726562 14.980469 21.730469 16.226562 C 21.171875 16.925781 20.441406 17.5 20.105469 17.5 C 19.773438 17.5 19.5 17.6875 19.5 17.917969 C 19.5 18.152344 18.894531 18.617188 18.152344 18.953125 C 17.113281 19.425781 16.960938 19.667969 17.492188 19.996094 C 18.082031 20.359375 18.082031 20.550781 17.5 21.25 C 16.9375 21.929688 16.929688 22.148438 17.472656 22.480469 C 17.832031 22.707031 17.972656 23.136719 17.785156 23.445312 C 17.589844 23.761719 17.777344 24 18.21875 24 C 18.648438 24 19 24.332031 19 24.734375 C 19 25.203125 19.289062 25.359375 19.808594 25.160156 C 20.503906 24.890625 20.53125 25.003906 20.015625 25.96875 C 19.175781 27.539062 19.789062 27.871094 21.160156 26.585938 C 22.519531 25.308594 23 25.222656 23 26.25 C 23 27.355469 24.050781 27.160156 24.355469 26 C 24.710938 24.640625 25.136719 24.726562 27.695312 26.679688 C 28.90625 27.605469 31.042969 28.773438 32.449219 29.28125 C 34.75 30.109375 35.957031 31.5 34.371094 31.5 C 34.023438 31.5 33.460938 31.949219 33.117188 32.5 C 32.703125 33.160156 32.675781 33.5 33.03125 33.5 C 33.351562 33.5 33.429688 33.929688 33.226562 34.574219 C 32.933594 35.496094 33.042969 35.605469 33.988281 35.359375 C 35.015625 35.089844 35.035156 35.132812 34.296875 35.949219 C 33.382812 36.957031 33.234375 37.722656 34.050781 37.21875 C 34.4375 36.980469 34.429688 37.195312 34.03125 37.941406 C 33.574219 38.792969 33.605469 39 34.191406 39 C 34.589844 39 35.003906 39.257812 35.105469 39.570312 C 35.25 39.996094 35.582031 39.992188 36.40625 39.550781 C 37.316406 39.0625 37.566406 39.09375 37.8125 39.726562 C 38.203125 40.75 38.824219 40.703125 40.054688 39.554688 C 40.613281 39.035156 41.480469 38.71875 41.984375 38.851562 C 42.605469 39.011719 43.011719 38.75 43.234375 38.046875 C 43.417969 37.46875 43.875 37 44.25 37 C 44.625 37 45.078125 36.546875 45.253906 35.992188 C 45.429688 35.4375 45.769531 35.109375 46.011719 35.257812 C 46.261719 35.410156 46.320312 48.988281 46.144531 66.765625 L 45.839844 98 L 51.535156 98 L 51.265625 78.625 C 51.117188 67.96875 50.878906 53.851562 50.742188 47.25 C 50.597656 40.25 50.675781 35.53125 50.933594 35.925781 C 51.269531 36.445312 51.613281 36.476562 52.402344 36.050781 C 53.816406 35.296875 54.5 35.359375 54.5 36.25 C 54.5 36.664062 54.84375 37 55.265625 37 C 55.6875 37 56.160156 36.664062 56.320312 36.25 C 56.476562 35.835938 56.902344 35.5 57.261719 35.5 C 57.621094 35.5 58.011719 35.21875 58.128906 34.875 C 58.292969 34.378906 58.5 34.386719 59.125 34.898438 C 59.617188 35.304688 60.027344 35.363281 60.214844 35.054688 C 60.410156 34.742188 61.207031 34.847656 62.363281 35.328125 C 63.660156 35.871094 65.398438 36.046875 68.222656 35.925781 C 71.539062 35.78125 72.246094 35.882812 72.257812 36.5 C 72.265625 36.914062 72.640625 37.1875 73.097656 37.113281 C 73.566406 37.03125 74.0625 37.410156 74.246094 37.988281 C 74.421875 38.542969 74.800781 39 75.085938 39 C 75.371094 39 75.476562 38.664062 75.320312 38.25 C 75.066406 37.585938 75.382812 37.425781 76.769531 37.519531 C 77.34375 37.554688 78.546875 35.984375 78.277344 35.546875 C 78.121094 35.292969 78.265625 34.996094 78.597656 34.882812 C 79 34.75 78.796875 34.121094 77.976562 32.96875 C 77.304688 32.023438 76.808594 31.195312 76.878906 31.125 C 77.445312 30.546875 76.636719 30.148438 74.742188 30.078125 C 72.773438 30.003906 72.410156 30.152344 71.910156 31.246094 C 71.597656 31.933594 71.136719 32.5 70.890625 32.5 C 70.644531 32.5 70.570312 32.710938 70.726562 32.964844 C 70.886719 33.222656 70.785156 33.574219 70.5 33.75 C 70.214844 33.925781 70.113281 34.277344 70.273438 34.535156 C 70.664062 35.167969 65.21875 35.125 62.875 34.472656 C 61.042969 33.964844 60.285156 33 61.71875 33 C 63.160156 33 63.035156 31.960938 61.539062 31.4375 C 59.96875 30.890625 59.605469 30.300781 60.5 29.75 C 60.773438 29.578125 61 29.003906 61 28.46875 C 61 27.746094 61.351562 27.496094 62.375 27.488281 C 63.132812 27.484375 64.730469 27.03125 65.929688 26.488281 C 68.667969 25.246094 69.5 25.242188 69.5 26.46875 C 69.5 27.785156 70.332031 28.210938 70.902344 27.191406 C 71.304688 26.46875 71.519531 26.566406 72.511719 27.910156 C 73.730469 29.558594 74.859375 29.601562 73.984375 27.96875 C 73.550781 27.15625 73.628906 27 74.484375 27 C 75.042969 27 75.5 26.761719 75.5 26.46875 C 75.5 26.179688 75.683594 26.054688 75.910156 26.195312 C 76.625 26.636719 77.941406 24.628906 77.65625 23.539062 C 77.5 22.945312 77.621094 22.5 77.941406 22.5 C 78.882812 22.5 78.558594 21.585938 77.5 21.25 C 76.949219 21.074219 76.5 20.609375 76.5 20.214844 C 76.5 19.824219 76.277344 19.5 76.007812 19.5 C 75.734375 19.5 75.171875 18.683594 74.757812 17.6875 C 74.128906 16.1875 73.875 15.980469 73.269531 16.484375 C 72.867188 16.816406 71.527344 17.105469 70.292969 17.125 C 68.242188 17.15625 68.015625 17.28125 67.734375 18.570312 C 67.5625 19.347656 67.460938 20.128906 67.503906 20.3125 C 67.550781 20.492188 67.351562 20.78125 67.066406 20.957031 C 66.785156 21.132812 66.460938 22.160156 66.351562 23.234375 C 66.085938 25.824219 64.699219 26.519531 62.183594 25.320312 C 60.769531 24.644531 60.519531 24.328125 60.96875 23.789062 C 61.28125 23.414062 61.484375 22.914062 61.417969 22.675781 C 61.179688 21.796875 62.09375 20 62.785156 20 C 63.859375 20 63.644531 19.113281 62.480469 18.742188 C 61.714844 18.5 61.542969 18.15625 61.789062 17.371094 C 62.28125 15.828125 63.105469 15.121094 64.109375 15.382812 C 64.910156 15.59375 65.246094 15.054688 65.058594 13.875 C 65.027344 13.667969 65.449219 13.5 66 13.5 C 67.398438 13.5 67.246094 12.773438 65.699219 12.066406 C 64.648438 11.589844 64.511719 11.339844 64.992188 10.761719 C 65.457031 10.199219 65.390625 9.722656 64.695312 8.539062 C 63.753906 6.949219 62.703125 6.261719 62.277344 6.957031 C 62.136719 7.183594 61.332031 7.289062 60.492188 7.191406 C 59.480469 7.074219 58.867188 7.265625 58.679688 7.75 C 58.453125 8.34375 58.203125 8.265625 57.40625 7.367188 C 56.652344 6.515625 56.480469 6.457031 56.691406 7.125 M 47.25 13 C 47.078125 13.273438 47.304688 13.5 47.75 13.5 C 48.195312 13.5 48.421875 13.273438 48.25 13 C 48.078125 12.726562 47.855469 12.5 47.75 12.5 C 47.644531 12.5 47.421875 12.726562 47.25 13 "/>
</g>
</svg>
