<?xml version="1.0" encoding="UTF-8"?>
<svg xmlns="http://www.w3.org/2000/svg" xmlns:xlink="http://www.w3.org/1999/xlink" width="24px" height="24px" viewBox="0 0 24 24" version="1.1">
<g id="surface1">
<path style=" stroke:none;fill-rule:evenodd;fill:rgb(0%,0%,0%);fill-opacity:1;" d="M 13.605469 1.710938 C 13.648438 1.84375 13.609375 1.921875 13.496094 1.921875 C 13.398438 1.921875 13.320312 2 13.320312 2.101562 C 13.320312 2.199219 13.238281 2.28125 13.140625 2.28125 C 13.039062 2.28125 12.960938 2.335938 12.960938 2.398438 C 12.960938 2.464844 12.878906 2.519531 12.78125 2.519531 C 12.679688 2.519531 12.597656 2.585938 12.597656 2.671875 C 12.59375 2.753906 12.488281 2.695312 12.363281 2.546875 C 12.144531 2.285156 12.121094 2.28125 11.894531 2.476562 C 11.761719 2.589844 11.683594 2.734375 11.722656 2.796875 C 11.761719 2.859375 11.726562 2.890625 11.648438 2.863281 C 11.566406 2.835938 11.511719 2.765625 11.523438 2.707031 C 11.53125 2.648438 11.457031 2.554688 11.351562 2.496094 C 11.246094 2.4375 11.160156 2.308594 11.160156 2.214844 C 11.160156 2.117188 11.050781 2.039062 10.921875 2.039062 C 10.789062 2.039062 10.679688 2.109375 10.679688 2.191406 C 10.675781 2.308594 10.65625 2.308594 10.582031 2.191406 C 10.507812 2.074219 10.421875 2.097656 10.226562 2.28125 L 9.964844 2.523438 L 9.8125 2.28125 C 9.636719 1.996094 9.480469 1.96875 9.480469 2.214844 C 9.480469 2.3125 9.414062 2.367188 9.328125 2.335938 C 9.246094 2.304688 9.117188 2.414062 9.042969 2.574219 C 8.941406 2.792969 8.941406 2.882812 9.042969 2.917969 C 9.277344 3.003906 9.015625 3.160156 8.640625 3.160156 C 8.441406 3.160156 8.28125 3.214844 8.28125 3.277344 C 8.28125 3.34375 8.171875 3.300781 8.039062 3.179688 C 7.824219 2.984375 7.800781 2.984375 7.800781 3.160156 C 7.800781 3.269531 7.714844 3.359375 7.605469 3.359375 C 7.488281 3.359375 7.441406 3.425781 7.480469 3.53125 C 7.515625 3.628906 7.480469 3.734375 7.402344 3.773438 C 7.296875 3.824219 7.296875 3.859375 7.414062 3.910156 C 7.535156 3.964844 7.539062 4.023438 7.429688 4.152344 C 7.316406 4.289062 7.34375 4.320312 7.566406 4.320312 C 7.839844 4.320312 7.839844 4.324219 7.613281 4.507812 C 7.464844 4.628906 7.429688 4.714844 7.515625 4.753906 C 7.59375 4.785156 7.625 4.925781 7.589844 5.066406 C 7.542969 5.238281 7.566406 5.289062 7.660156 5.230469 C 7.738281 5.183594 7.800781 5.203125 7.800781 5.269531 C 7.800781 5.34375 7.949219 5.363281 8.171875 5.320312 C 8.511719 5.25 8.539062 5.269531 8.46875 5.492188 C 8.410156 5.671875 8.449219 5.757812 8.605469 5.796875 C 8.804688 5.847656 8.804688 5.851562 8.609375 5.867188 C 8.496094 5.875 8.398438 5.960938 8.398438 6.058594 C 8.398438 6.160156 8.332031 6.242188 8.25 6.242188 C 8.164062 6.246094 8.203125 6.324219 8.332031 6.425781 C 8.460938 6.519531 8.5 6.601562 8.421875 6.601562 C 8.34375 6.601562 8.28125 6.652344 8.28125 6.71875 C 8.28125 6.785156 8.371094 6.839844 8.480469 6.839844 C 8.589844 6.839844 8.648438 6.871094 8.609375 6.914062 C 8.492188 7.027344 7.394531 6.621094 6.957031 6.296875 C 6.734375 6.132812 6.605469 6 6.671875 6 C 6.738281 6 6.792969 5.8125 6.792969 5.578125 C 6.792969 5.347656 6.761719 5.160156 6.726562 5.160156 C 6.6875 5.160156 6.679688 4.910156 6.703125 4.601562 C 6.742188 4.085938 6.730469 4.050781 6.492188 4.109375 C 6.355469 4.148438 6.238281 4.132812 6.238281 4.078125 C 6.238281 4.023438 6.066406 3.890625 5.851562 3.78125 C 5.46875 3.59375 5.453125 3.59375 5.214844 3.894531 C 5.082031 4.0625 4.90625 4.199219 4.824219 4.199219 C 4.746094 4.199219 4.679688 4.246094 4.679688 4.300781 C 4.679688 4.355469 4.535156 4.46875 4.355469 4.550781 C 4.109375 4.664062 4.070312 4.71875 4.199219 4.800781 C 4.339844 4.886719 4.339844 4.933594 4.199219 5.101562 C 4.066406 5.261719 4.0625 5.316406 4.191406 5.394531 C 4.28125 5.449219 4.3125 5.554688 4.269531 5.625 C 4.222656 5.703125 4.265625 5.761719 4.371094 5.761719 C 4.476562 5.761719 4.558594 5.839844 4.558594 5.9375 C 4.558594 6.050781 4.628906 6.085938 4.753906 6.039062 C 4.921875 5.972656 4.929688 6 4.804688 6.230469 C 4.601562 6.609375 4.75 6.691406 5.078125 6.378906 C 5.40625 6.074219 5.519531 6.054688 5.519531 6.300781 C 5.519531 6.566406 5.773438 6.519531 5.84375 6.238281 C 5.929688 5.914062 6.03125 5.933594 6.644531 6.402344 C 6.9375 6.625 7.449219 6.90625 7.789062 7.027344 C 8.339844 7.226562 8.628906 7.558594 8.25 7.558594 C 8.164062 7.558594 8.03125 7.667969 7.949219 7.800781 C 7.847656 7.957031 7.84375 8.039062 7.925781 8.039062 C 8.003906 8.039062 8.023438 8.144531 7.972656 8.296875 C 7.902344 8.519531 7.929688 8.546875 8.15625 8.484375 C 8.402344 8.421875 8.410156 8.433594 8.230469 8.628906 C 8.011719 8.871094 7.976562 9.054688 8.171875 8.933594 C 8.265625 8.875 8.261719 8.925781 8.167969 9.105469 C 8.058594 9.3125 8.066406 9.359375 8.207031 9.359375 C 8.300781 9.359375 8.402344 9.421875 8.425781 9.496094 C 8.460938 9.597656 8.539062 9.597656 8.738281 9.492188 C 8.957031 9.375 9.015625 9.382812 9.074219 9.535156 C 9.167969 9.78125 9.316406 9.769531 9.613281 9.492188 C 9.746094 9.367188 9.957031 9.292969 10.078125 9.324219 C 10.226562 9.363281 10.324219 9.300781 10.375 9.132812 C 10.421875 8.992188 10.53125 8.878906 10.621094 8.878906 C 10.710938 8.878906 10.820312 8.769531 10.859375 8.636719 C 10.902344 8.503906 10.984375 8.425781 11.042969 8.460938 C 11.101562 8.5 11.117188 11.757812 11.074219 16.023438 L 11 23.519531 L 12.367188 23.519531 L 12.304688 18.871094 C 12.269531 16.3125 12.210938 12.925781 12.179688 11.339844 C 12.144531 9.660156 12.164062 8.527344 12.222656 8.621094 C 12.304688 8.746094 12.386719 8.753906 12.578125 8.652344 C 12.914062 8.472656 13.078125 8.488281 13.078125 8.699219 C 13.078125 8.800781 13.164062 8.878906 13.265625 8.878906 C 13.363281 8.878906 13.480469 8.800781 13.515625 8.699219 C 13.554688 8.601562 13.65625 8.519531 13.742188 8.519531 C 13.828125 8.519531 13.921875 8.453125 13.949219 8.371094 C 13.992188 8.25 14.039062 8.253906 14.191406 8.375 C 14.308594 8.472656 14.40625 8.488281 14.453125 8.414062 C 14.496094 8.339844 14.691406 8.363281 14.96875 8.480469 C 15.277344 8.609375 15.695312 8.652344 16.375 8.621094 C 17.167969 8.585938 17.339844 8.613281 17.34375 8.761719 C 17.34375 8.859375 17.433594 8.925781 17.542969 8.90625 C 17.65625 8.886719 17.773438 8.980469 17.820312 9.117188 C 17.863281 9.25 17.953125 9.359375 18.019531 9.359375 C 18.089844 9.359375 18.113281 9.277344 18.078125 9.179688 C 18.015625 9.019531 18.09375 8.980469 18.425781 9.003906 C 18.5625 9.011719 18.851562 8.636719 18.785156 8.53125 C 18.75 8.46875 18.785156 8.398438 18.863281 8.371094 C 18.960938 8.339844 18.910156 8.1875 18.714844 7.910156 C 18.554688 7.683594 18.433594 7.488281 18.449219 7.46875 C 18.585938 7.332031 18.394531 7.234375 17.9375 7.21875 C 17.464844 7.199219 17.378906 7.238281 17.257812 7.5 C 17.183594 7.664062 17.074219 7.800781 17.011719 7.800781 C 16.953125 7.800781 16.9375 7.851562 16.976562 7.910156 C 17.011719 7.972656 16.988281 8.058594 16.921875 8.101562 C 16.851562 8.140625 16.828125 8.226562 16.863281 8.289062 C 16.960938 8.441406 15.652344 8.429688 15.089844 8.273438 C 14.648438 8.152344 14.46875 7.921875 14.8125 7.921875 C 15.15625 7.921875 15.128906 7.671875 14.769531 7.546875 C 14.390625 7.414062 14.304688 7.273438 14.519531 7.140625 C 14.585938 7.097656 14.640625 6.960938 14.640625 6.832031 C 14.640625 6.660156 14.722656 6.597656 14.96875 6.597656 C 15.152344 6.597656 15.535156 6.488281 15.824219 6.355469 C 16.480469 6.058594 16.679688 6.058594 16.679688 6.351562 C 16.679688 6.667969 16.878906 6.769531 17.015625 6.527344 C 17.113281 6.351562 17.164062 6.375 17.402344 6.699219 C 17.695312 7.09375 17.964844 7.105469 17.757812 6.710938 C 17.652344 6.519531 17.671875 6.480469 17.875 6.480469 C 18.011719 6.480469 18.121094 6.421875 18.121094 6.351562 C 18.121094 6.28125 18.164062 6.253906 18.21875 6.285156 C 18.390625 6.390625 18.707031 5.910156 18.636719 5.648438 C 18.601562 5.507812 18.628906 5.398438 18.707031 5.398438 C 18.933594 5.398438 18.855469 5.179688 18.601562 5.101562 C 18.46875 5.058594 18.359375 4.945312 18.359375 4.851562 C 18.359375 4.757812 18.308594 4.679688 18.242188 4.679688 C 18.175781 4.679688 18.042969 4.484375 17.941406 4.246094 C 17.789062 3.882812 17.730469 3.835938 17.585938 3.957031 C 17.488281 4.035156 17.167969 4.105469 16.871094 4.109375 C 16.378906 4.117188 16.324219 4.148438 16.257812 4.457031 C 16.214844 4.644531 16.191406 4.832031 16.203125 4.875 C 16.210938 4.917969 16.164062 4.988281 16.097656 5.03125 C 16.027344 5.070312 15.949219 5.316406 15.925781 5.578125 C 15.859375 6.199219 15.527344 6.363281 14.925781 6.078125 C 14.585938 5.914062 14.523438 5.839844 14.632812 5.710938 C 14.707031 5.617188 14.753906 5.5 14.742188 5.441406 C 14.683594 5.230469 14.902344 4.800781 15.066406 4.800781 C 15.328125 4.800781 15.273438 4.585938 14.996094 4.5 C 14.8125 4.441406 14.769531 4.359375 14.828125 4.167969 C 14.949219 3.800781 15.144531 3.628906 15.386719 3.691406 C 15.578125 3.742188 15.660156 3.613281 15.613281 3.328125 C 15.605469 3.28125 15.707031 3.238281 15.839844 3.238281 C 16.175781 3.238281 16.140625 3.066406 15.769531 2.894531 C 15.515625 2.78125 15.484375 2.722656 15.597656 2.582031 C 15.710938 2.449219 15.695312 2.332031 15.527344 2.050781 C 15.300781 1.667969 15.050781 1.503906 14.945312 1.667969 C 14.914062 1.722656 14.71875 1.75 14.519531 1.726562 C 14.277344 1.699219 14.128906 1.742188 14.082031 1.859375 C 14.027344 2.003906 13.96875 1.984375 13.777344 1.769531 C 13.597656 1.5625 13.554688 1.550781 13.605469 1.710938 M 11.339844 3.121094 C 11.300781 3.1875 11.351562 3.238281 11.460938 3.238281 C 11.566406 3.238281 11.621094 3.1875 11.578125 3.121094 C 11.539062 3.054688 11.484375 3 11.460938 3 C 11.433594 3 11.378906 3.054688 11.339844 3.121094 "/>
</g>
</svg>
