<?xml version="1.0" encoding="UTF-8"?>
<svg xmlns="http://www.w3.org/2000/svg" xmlns:xlink="http://www.w3.org/1999/xlink" width="100px" height="100px" viewBox="0 0 100 100" version="1.1">
<g id="surface1">
<path style=" stroke:none;fill-rule:evenodd;fill:rgb(0%,0%,0%);fill-opacity:1;" d="M 48.824219 5.378906 C 48.695312 5.585938 48.203125 7.554688 47.726562 9.753906 C 46.667969 14.652344 46.515625 24.808594 47.425781 29.828125 L 48.074219 33.40625 L 50.410156 33.613281 C 51.699219 33.730469 52.839844 33.753906 52.953125 33.667969 C 53.0625 33.582031 53.449219 31.992188 53.808594 30.132812 C 54.992188 24.015625 54.589844 13.042969 52.957031 6.875 C 52.507812 5.171875 52.304688 5 50.761719 5 C 49.824219 5 48.953125 5.171875 48.824219 5.378906 M 27.875 10.785156 C 27.117188 11.195312 26.5 11.710938 26.5 11.929688 C 26.5 12.148438 27.039062 13.914062 27.699219 15.855469 C 29.925781 22.390625 34.292969 30.054688 38.367188 34.566406 C 40.046875 36.425781 40.132812 36.457031 41.523438 35.738281 C 42.308594 35.332031 43.3125 35 43.757812 35 C 44.691406 35 44.625 34.6875 42.453125 28.996094 C 41.664062 26.929688 39.910156 23.441406 38.554688 21.246094 C 36.078125 17.226562 30.679688 10.445312 29.75 10.183594 C 29.476562 10.105469 28.632812 10.378906 27.875 10.785156 M 68.902344 13.394531 C 64.339844 18.199219 60.382812 24.710938 57.707031 31.816406 L 56.546875 34.898438 L 58.035156 35.515625 C 58.855469 35.851562 59.746094 36.496094 60.015625 36.941406 C 60.441406 37.640625 60.71875 37.511719 62.050781 36 C 64.714844 32.980469 68.523438 27.382812 70.292969 23.890625 C 71.894531 20.734375 74.5 13.707031 74.5 12.550781 C 74.5 12.261719 73.851562 11.691406 73.058594 11.28125 C 71.628906 10.539062 71.597656 10.554688 68.902344 13.394531 M 11.28125 26.941406 C 10.539062 28.371094 10.554688 28.402344 13.394531 31.097656 C 18.199219 35.660156 24.710938 39.617188 31.816406 42.292969 L 34.898438 43.453125 L 35.515625 41.964844 C 35.851562 41.144531 36.496094 40.253906 36.941406 39.984375 C 37.640625 39.558594 37.511719 39.28125 36 37.949219 C 32.980469 35.285156 27.382812 31.476562 23.890625 29.707031 C 20.734375 28.105469 13.707031 25.5 12.550781 25.5 C 12.261719 25.5 11.691406 26.148438 11.28125 26.941406 M 83.949219 27.726562 C 77.503906 29.984375 69.84375 34.386719 65.433594 38.367188 C 63.574219 40.046875 63.542969 40.132812 64.261719 41.523438 C 64.667969 42.308594 65 43.3125 65 43.757812 C 65 44.703125 65.433594 44.605469 71 42.417969 C 75.824219 40.523438 80.546875 37.71875 85.160156 34.007812 C 90.191406 29.960938 90.234375 29.898438 89.269531 28.035156 C 88.335938 26.234375 88.242188 26.226562 83.949219 27.726562 M 48 38.476562 C 47.585938 38.757812 46.636719 38.988281 45.890625 38.992188 C 43.824219 39.003906 39.503906 43.398438 38.871094 46.128906 C 37.664062 51.34375 38.546875 55.128906 41.710938 58.289062 C 46.3125 62.890625 53.6875 62.890625 58.289062 58.289062 C 61.445312 55.132812 62.335938 51.335938 61.132812 46.160156 C 60.464844 43.277344 56.695312 39.523438 53.839844 38.890625 C 50.0625 38.054688 48.761719 37.960938 48 38.476562 M 13.5 45.832031 C 12.8125 45.941406 10.617188 46.375 8.625 46.800781 L 5 47.566406 L 5 49.449219 C 5 51.304688 5.03125 51.335938 7.625 51.9375 C 13.464844 53.296875 20.261719 53.726562 25.871094 53.09375 C 33.578125 52.226562 33.371094 52.320312 33.605469 49.578125 C 33.714844 48.296875 33.589844 47.101562 33.328125 46.925781 C 31.785156 45.871094 18.058594 45.113281 13.5 45.832031 M 73.25 46.808594 C 72.425781 46.933594 70.589844 47.265625 69.171875 47.542969 L 66.597656 48.050781 L 66.394531 50.402344 C 66.285156 51.691406 66.417969 52.902344 66.691406 53.085938 C 66.960938 53.273438 69.105469 53.695312 71.457031 54.03125 C 76.726562 54.777344 86.414062 54.402344 91.375 53.257812 L 95 52.421875 L 95 48.652344 L 91.125 47.78125 C 87.378906 46.941406 76.355469 46.339844 73.25 46.808594 M 29.929688 57.175781 C 24.710938 59.164062 19.78125 62.03125 14.894531 65.925781 C 9.867188 69.929688 9.757812 70.082031 10.730469 71.964844 C 11.167969 72.808594 11.707031 73.5 11.925781 73.5 C 12.144531 73.5 13.882812 72.96875 15.789062 72.320312 C 22.28125 70.109375 30.121094 65.644531 34.566406 61.632812 C 36.425781 59.953125 36.457031 59.867188 35.738281 58.476562 C 35.332031 57.691406 35 56.699219 35 56.273438 C 35 55.257812 34.953125 55.265625 29.929688 57.175781 M 64.484375 58.035156 C 64.148438 58.855469 63.503906 59.746094 63.058594 60.015625 C 62.359375 60.441406 62.488281 60.71875 64 62.050781 C 67.019531 64.714844 72.617188 68.523438 76.109375 70.292969 C 79.265625 71.894531 86.292969 74.5 87.449219 74.5 C 87.738281 74.5 88.308594 73.851562 88.71875 73.058594 C 89.460938 71.628906 89.445312 71.597656 86.605469 68.902344 C 81.800781 64.339844 75.289062 60.382812 68.183594 57.707031 L 65.101562 56.546875 L 64.484375 58.035156 M 36.628906 65.625 C 33.21875 69.957031 31.394531 72.734375 29.570312 76.351562 C 28.078125 79.316406 25.5 86.34375 25.5 87.449219 C 25.5 87.738281 26.15625 88.3125 26.957031 88.726562 C 28.410156 89.480469 28.414062 89.476562 31.207031 86.457031 C 35.917969 81.371094 39.632812 75.25 42.285156 68.207031 L 43.433594 65.152344 L 41.71875 64.335938 C 40.773438 63.882812 40 63.289062 40 63.007812 C 40 61.859375 38.953125 62.671875 36.628906 65.625 M 58.5 64.265625 C 57.8125 64.652344 56.855469 64.972656 56.375 64.984375 C 55.894531 64.992188 55.5 65.105469 55.5 65.234375 C 55.5 66.175781 58.796875 74.183594 60.257812 76.796875 C 62.238281 80.339844 67.191406 87.089844 69.148438 88.914062 C 70.34375 90.03125 70.464844 90.042969 71.949219 89.277344 C 72.800781 88.835938 73.5 88.292969 73.5 88.074219 C 73.5 87.03125 70.941406 80.351562 69.257812 77 C 67.085938 72.679688 63.140625 66.796875 61.132812 64.882812 C 59.863281 63.675781 59.648438 63.628906 58.5 64.265625 M 46.789062 66.9375 C 45.25 72.214844 45.21875 84.890625 46.734375 91.375 L 47.578125 95 L 49.460938 95 C 51.324219 95 51.347656 94.972656 51.917969 92.375 C 52.855469 88.09375 53.480469 82.96875 53.488281 79.5 C 53.492188 76.546875 52.335938 67.132812 51.921875 66.78125 C 51.828125 66.699219 50.6875 66.519531 49.386719 66.378906 C 47.496094 66.175781 46.980469 66.289062 46.789062 66.9375 "/>
</g>
</svg>
