<?xml version="1.0" encoding="UTF-8"?>
<svg xmlns="http://www.w3.org/2000/svg" xmlns:xlink="http://www.w3.org/1999/xlink" width="24px" height="24px" viewBox="0 0 24 24" version="1.1">
<g id="surface1">
<path style=" stroke:none;fill-rule:evenodd;fill:rgb(0%,0%,0%);fill-opacity:1;" d="M 11.71875 1.289062 C 11.6875 1.339844 11.570312 1.8125 11.453125 2.339844 C 11.199219 3.515625 11.164062 5.953125 11.382812 7.160156 L 11.539062 8.015625 L 12.097656 8.066406 C 12.40625 8.09375 12.683594 8.101562 12.707031 8.082031 C 12.734375 8.058594 12.828125 7.675781 12.914062 7.230469 C 13.199219 5.765625 13.101562 3.128906 12.710938 1.648438 C 12.601562 1.242188 12.554688 1.199219 12.183594 1.199219 C 11.957031 1.199219 11.75 1.242188 11.71875 1.289062 M 6.691406 2.589844 C 6.507812 2.6875 6.359375 2.808594 6.359375 2.863281 C 6.359375 2.914062 6.488281 3.339844 6.648438 3.804688 C 7.183594 5.375 8.230469 7.210938 9.207031 8.296875 C 9.613281 8.742188 9.632812 8.75 9.964844 8.578125 C 10.152344 8.480469 10.394531 8.398438 10.503906 8.398438 C 10.726562 8.398438 10.710938 8.324219 10.1875 6.957031 C 10 6.464844 9.578125 5.625 9.253906 5.097656 C 8.660156 4.132812 7.363281 2.507812 7.140625 2.445312 C 7.074219 2.425781 6.871094 2.492188 6.691406 2.589844 M 16.535156 3.214844 C 15.441406 4.367188 14.492188 5.929688 13.847656 7.636719 L 13.570312 8.375 L 13.929688 8.523438 C 14.125 8.605469 14.339844 8.757812 14.402344 8.867188 C 14.503906 9.035156 14.574219 9.003906 14.890625 8.640625 C 15.53125 7.914062 16.445312 6.570312 16.871094 5.734375 C 17.253906 4.976562 17.878906 3.289062 17.878906 3.011719 C 17.878906 2.941406 17.722656 2.804688 17.535156 2.707031 C 17.191406 2.53125 17.183594 2.535156 16.535156 3.214844 M 2.707031 6.464844 C 2.53125 6.808594 2.535156 6.816406 3.214844 7.464844 C 4.367188 8.558594 5.929688 9.507812 7.636719 10.152344 L 8.375 10.429688 L 8.523438 10.070312 C 8.605469 9.875 8.757812 9.660156 8.867188 9.597656 C 9.035156 9.496094 9.003906 9.425781 8.640625 9.109375 C 7.914062 8.46875 6.570312 7.554688 5.734375 7.128906 C 4.976562 6.746094 3.289062 6.121094 3.011719 6.121094 C 2.941406 6.121094 2.804688 6.277344 2.707031 6.464844 M 20.148438 6.65625 C 18.601562 7.195312 16.761719 8.253906 15.703125 9.207031 C 15.257812 9.613281 15.25 9.632812 15.421875 9.964844 C 15.519531 10.152344 15.601562 10.394531 15.601562 10.503906 C 15.601562 10.730469 15.703125 10.707031 17.039062 10.179688 C 18.199219 9.726562 19.332031 9.050781 20.4375 8.160156 C 21.644531 7.191406 21.65625 7.175781 21.425781 6.730469 C 21.199219 6.296875 21.179688 6.292969 20.148438 6.65625 M 11.519531 9.234375 C 11.421875 9.300781 11.191406 9.355469 11.015625 9.359375 C 10.519531 9.359375 9.480469 10.414062 9.328125 11.070312 C 9.039062 12.324219 9.25 13.230469 10.011719 13.988281 C 11.117188 15.09375 12.882812 15.09375 13.988281 13.988281 C 14.746094 13.230469 14.960938 12.320312 14.671875 11.078125 C 14.511719 10.386719 13.605469 9.484375 12.921875 9.332031 C 12.015625 9.132812 11.703125 9.109375 11.519531 9.234375 M 3.238281 11 C 3.074219 11.027344 2.546875 11.128906 2.070312 11.230469 L 1.199219 11.417969 L 1.199219 11.867188 C 1.199219 12.3125 1.207031 12.320312 1.828125 12.464844 C 3.230469 12.792969 4.863281 12.894531 6.207031 12.742188 C 8.058594 12.535156 8.007812 12.558594 8.066406 11.898438 C 8.089844 11.589844 8.0625 11.304688 8 11.261719 C 7.628906 11.007812 4.332031 10.828125 3.238281 11 M 17.578125 11.234375 C 17.382812 11.265625 16.941406 11.34375 16.601562 11.410156 L 15.984375 11.53125 L 15.933594 12.097656 C 15.910156 12.40625 15.941406 12.695312 16.003906 12.742188 C 16.070312 12.785156 16.585938 12.886719 17.148438 12.96875 C 18.414062 13.148438 20.738281 13.054688 21.929688 12.78125 L 22.800781 12.582031 L 22.800781 11.675781 L 21.871094 11.46875 C 20.972656 11.265625 18.324219 11.121094 17.578125 11.234375 M 7.183594 13.722656 C 5.929688 14.199219 4.746094 14.886719 3.574219 15.820312 C 2.367188 16.78125 2.34375 16.820312 2.574219 17.269531 C 2.679688 17.472656 2.808594 17.640625 2.863281 17.640625 C 2.914062 17.640625 3.332031 17.511719 3.789062 17.355469 C 5.347656 16.828125 7.230469 15.753906 8.296875 14.792969 C 8.742188 14.386719 8.75 14.367188 8.578125 14.035156 C 8.480469 13.847656 8.398438 13.609375 8.398438 13.507812 C 8.398438 13.261719 8.390625 13.261719 7.183594 13.722656 M 15.476562 13.929688 C 15.394531 14.125 15.242188 14.339844 15.132812 14.402344 C 14.964844 14.503906 14.996094 14.574219 15.359375 14.890625 C 16.085938 15.53125 17.429688 16.445312 18.265625 16.871094 C 19.023438 17.253906 20.710938 17.878906 20.988281 17.878906 C 21.058594 17.878906 21.195312 17.722656 21.292969 17.535156 C 21.46875 17.191406 21.464844 17.183594 20.785156 16.535156 C 19.632812 15.441406 18.070312 14.492188 16.363281 13.847656 L 15.625 13.570312 L 15.476562 13.929688 M 8.789062 15.75 C 7.972656 16.789062 7.535156 17.457031 7.097656 18.324219 C 6.738281 19.035156 6.121094 20.722656 6.121094 20.988281 C 6.121094 21.058594 6.277344 21.195312 6.46875 21.292969 C 6.816406 21.476562 6.820312 21.472656 7.488281 20.75 C 8.621094 19.527344 9.511719 18.058594 10.148438 16.371094 L 10.425781 15.636719 L 10.011719 15.441406 C 9.785156 15.332031 9.601562 15.1875 9.601562 15.121094 C 9.601562 14.847656 9.347656 15.042969 8.789062 15.75 M 14.039062 15.425781 C 13.875 15.515625 13.644531 15.59375 13.53125 15.597656 C 13.414062 15.597656 13.320312 15.625 13.320312 15.65625 C 13.320312 15.882812 14.109375 17.804688 14.460938 18.429688 C 14.9375 19.28125 16.125 20.902344 16.597656 21.339844 C 16.882812 21.605469 16.910156 21.609375 17.269531 21.425781 C 17.472656 21.320312 17.640625 21.191406 17.640625 21.136719 C 17.640625 20.886719 17.027344 19.285156 16.621094 18.480469 C 16.101562 17.441406 15.152344 16.03125 14.671875 15.574219 C 14.367188 15.28125 14.316406 15.269531 14.039062 15.425781 M 11.230469 16.066406 C 10.859375 17.332031 10.851562 20.375 11.214844 21.929688 L 11.417969 22.800781 L 11.871094 22.800781 C 12.316406 22.800781 12.324219 22.792969 12.460938 22.171875 C 12.683594 21.144531 12.835938 19.914062 12.835938 19.078125 C 12.839844 18.371094 12.558594 16.113281 12.460938 16.027344 C 12.4375 16.007812 12.164062 15.964844 11.851562 15.929688 C 11.398438 15.882812 11.273438 15.910156 11.230469 16.066406 "/>
</g>
</svg>
