<?xml version="1.0" encoding="UTF-8"?>
<svg xmlns="http://www.w3.org/2000/svg" xmlns:xlink="http://www.w3.org/1999/xlink" width="24px" height="24px" viewBox="0 0 24 24" version="1.1">
<g id="surface1">
<path style=" stroke:none;fill-rule:evenodd;fill:rgb(0%,0%,0%);fill-opacity:1;" d="M 13.105469 1.828125 C 12.980469 1.984375 12.921875 2.226562 12.945312 2.488281 C 12.953125 2.566406 13.09375 2.722656 13.261719 2.832031 C 13.539062 3.011719 13.582031 3.011719 13.859375 2.832031 C 14.203125 2.605469 14.257812 2.152344 13.972656 1.867188 C 13.746094 1.640625 13.277344 1.621094 13.105469 1.828125 M 10.105469 2.183594 C 9.808594 2.480469 10.097656 2.957031 10.484375 2.808594 C 10.734375 2.714844 10.738281 2.207031 10.488281 2.113281 C 10.25 2.019531 10.273438 2.015625 10.105469 2.183594 M 7.800781 2.878906 C 7.105469 3.574219 8.042969 4.582031 8.851562 4.011719 C 9.191406 3.777344 9.214844 3.125 8.902344 2.839844 C 8.601562 2.570312 8.089844 2.589844 7.800781 2.878906 M 16.34375 3.144531 C 16.148438 3.339844 16.164062 3.78125 16.375 3.957031 C 16.609375 4.148438 16.914062 4.074219 17.113281 3.773438 C 17.425781 3.304688 16.742188 2.746094 16.34375 3.144531 M 11.183594 3.382812 C 10.867188 3.703125 11.148438 4.441406 11.589844 4.441406 C 11.769531 4.441406 12.238281 4.027344 12.238281 3.867188 C 12.238281 3.816406 12.15625 3.652344 12.054688 3.507812 C 11.851562 3.214844 11.414062 3.15625 11.183594 3.382812 M 5.910156 3.621094 C 5.585938 3.941406 5.914062 4.402344 6.359375 4.257812 C 6.550781 4.199219 6.605469 4.097656 6.578125 3.859375 C 6.535156 3.503906 6.160156 3.367188 5.910156 3.621094 M 13.804688 4.3125 C 13.644531 4.613281 13.644531 4.628906 13.867188 4.851562 C 14.296875 5.277344 14.921875 4.847656 14.640625 4.320312 C 14.472656 4.011719 13.96875 4.003906 13.804688 4.3125 M 9.558594 4.523438 C 9.414062 4.667969 9.480469 4.921875 9.660156 4.921875 C 9.757812 4.921875 9.839844 4.84375 9.839844 4.746094 C 9.839844 4.546875 9.667969 4.410156 9.558594 4.523438 M 18.078125 5.019531 C 17.832031 5.292969 17.820312 5.921875 18.058594 6.121094 C 18.503906 6.488281 19.320312 6.125 19.320312 5.5625 C 19.320312 4.933594 18.484375 4.570312 18.078125 5.019531 M 16.125 5.089844 C 16.007812 5.402344 16.175781 5.660156 16.46875 5.617188 C 16.667969 5.589844 16.738281 5.5 16.738281 5.28125 C 16.738281 5.058594 16.667969 4.96875 16.46875 4.941406 C 16.308594 4.917969 16.171875 4.980469 16.125 5.089844 M 6.796875 5.222656 C 6.476562 5.542969 6.4375 5.886719 6.6875 6.222656 C 7.027344 6.679688 7.578125 6.707031 7.90625 6.289062 C 8.222656 5.886719 8.222656 5.753906 7.910156 5.355469 C 7.628906 4.996094 7.085938 4.929688 6.796875 5.222656 M 10.410156 5.410156 C 10.132812 5.570312 10.140625 6.078125 10.421875 6.230469 C 10.582031 6.316406 10.714844 6.296875 10.902344 6.167969 C 11.207031 5.953125 11.230469 5.726562 10.972656 5.46875 C 10.753906 5.25 10.695312 5.242188 10.410156 5.410156 M 12.398438 5.46875 C 12.304688 5.714844 12.644531 6.054688 12.890625 5.960938 C 12.996094 5.921875 13.078125 5.75 13.078125 5.582031 C 13.078125 5.339844 13.019531 5.28125 12.777344 5.28125 C 12.609375 5.28125 12.441406 5.363281 12.398438 5.46875 M 4.75 5.90625 C 4.589844 6.128906 4.585938 6.207031 4.726562 6.414062 C 5.039062 6.882812 5.640625 6.734375 5.640625 6.1875 C 5.640625 5.632812 5.066406 5.453125 4.75 5.90625 M 8.722656 5.714844 C 8.582031 5.859375 8.628906 6.210938 8.800781 6.277344 C 9.042969 6.367188 9.269531 6.179688 9.21875 5.925781 C 9.175781 5.695312 8.871094 5.566406 8.722656 5.714844 M 14.199219 6.308594 C 14.160156 6.410156 14.1875 6.554688 14.257812 6.625 C 14.441406 6.8125 14.761719 6.648438 14.761719 6.363281 C 14.761719 6.066406 14.308594 6.023438 14.199219 6.308594 M 2.078125 6.371094 C 1.867188 6.433594 1.578125 6.628906 1.433594 6.8125 C 1.207031 7.097656 1.183594 7.238281 1.246094 7.921875 C 1.460938 10.269531 2.59375 12.589844 4.523438 14.640625 C 5.34375 15.511719 7.058594 16.929688 7.460938 17.066406 C 7.5625 17.105469 7.21875 17.5625 6.5 18.339844 C 5.246094 19.707031 5.234375 19.753906 6 20.445312 C 8.28125 22.507812 13.707031 22.859375 16.945312 21.160156 C 18.0625 20.570312 18.886719 19.632812 18.496094 19.390625 C 18.4375 19.355469 17.949219 18.84375 17.414062 18.253906 L 16.4375 17.183594 L 17.242188 16.609375 C 20.371094 14.375 22.433594 11.128906 22.746094 7.949219 C 22.816406 7.234375 22.792969 7.101562 22.566406 6.8125 C 22.421875 6.632812 22.097656 6.429688 21.84375 6.359375 C 21.378906 6.234375 21.375 6.238281 20.738281 6.914062 C 19.191406 8.554688 16.929688 9.589844 14.058594 9.972656 C 12.410156 10.191406 9.5625 10.046875 8.109375 9.671875 C 6.003906 9.125 3.859375 7.863281 3 6.664062 C 2.675781 6.214844 2.652344 6.207031 2.078125 6.371094 M 15.714844 6.460938 C 15.386719 6.726562 15.34375 7.355469 15.632812 7.644531 C 15.925781 7.9375 16.554688 7.894531 16.820312 7.566406 C 17.117188 7.195312 17.097656 6.886719 16.746094 6.535156 C 16.394531 6.183594 16.082031 6.160156 15.714844 6.460938 M 12.863281 6.984375 C 12.679688 7.167969 12.679688 7.710938 12.863281 7.894531 C 12.941406 7.976562 13.148438 8.039062 13.320312 8.039062 C 13.492188 8.039062 13.695312 7.976562 13.777344 7.894531 C 13.855469 7.816406 13.921875 7.613281 13.921875 7.441406 C 13.921875 7.042969 13.714844 6.839844 13.320312 6.839844 C 13.148438 6.839844 12.941406 6.90625 12.863281 6.984375 M 6.480469 7.558594 C 6.285156 7.925781 6.53125 8.304688 6.9375 8.257812 C 7.191406 8.226562 7.269531 8.148438 7.300781 7.875 C 7.363281 7.328125 6.730469 7.089844 6.480469 7.558594 M 18.175781 7.5625 C 18.132812 7.640625 18.148438 7.757812 18.21875 7.828125 C 18.378906 7.988281 18.753906 7.847656 18.691406 7.648438 C 18.625 7.449219 18.285156 7.390625 18.175781 7.5625 M 8.035156 7.808594 C 7.933594 8 7.945312 8.121094 8.09375 8.347656 C 8.304688 8.671875 8.421875 8.699219 8.769531 8.515625 C 9.027344 8.378906 9.078125 7.925781 8.855469 7.703125 C 8.628906 7.476562 8.183594 7.535156 8.035156 7.808594 M 10.109375 7.769531 C 10.027344 7.796875 9.902344 7.925781 9.835938 8.050781 C 9.648438 8.398438 9.890625 8.761719 10.316406 8.761719 C 10.558594 8.761719 10.6875 8.6875 10.738281 8.519531 C 10.894531 8.03125 10.550781 7.621094 10.109375 7.769531 M 12.234375 8.765625 C 12.117188 8.988281 12.136719 9.070312 12.351562 9.28125 C 12.679688 9.609375 13.019531 9.429688 13.019531 8.925781 C 13.019531 8.640625 12.964844 8.574219 12.699219 8.542969 C 12.464844 8.515625 12.335938 8.578125 12.234375 8.765625 M 15.039062 8.828125 C 15 8.929688 15.027344 9.074219 15.097656 9.144531 C 15.28125 9.332031 15.601562 9.167969 15.601562 8.882812 C 15.601562 8.585938 15.148438 8.542969 15.039062 8.828125 "/>
</g>
</svg>
