<?xml version="1.0" encoding="UTF-8"?>
<svg xmlns="http://www.w3.org/2000/svg" xmlns:xlink="http://www.w3.org/1999/xlink" width="100px" height="100px" viewBox="0 0 100 100" version="1.1">
<g id="surface1">
<path style=" stroke:none;fill-rule:evenodd;fill:rgb(0%,0%,0%);fill-opacity:1;" d="M 54.609375 7.625 C 54.082031 8.265625 53.835938 9.277344 53.941406 10.363281 C 53.972656 10.699219 54.5625 11.34375 55.25 11.796875 C 56.40625 12.554688 56.59375 12.554688 57.75 11.796875 C 59.1875 10.855469 59.40625 8.976562 58.214844 7.785156 C 57.273438 6.84375 55.324219 6.757812 54.609375 7.625 M 42.101562 9.101562 C 40.867188 10.332031 42.082031 12.320312 43.6875 11.703125 C 44.730469 11.304688 44.746094 9.203125 43.710938 8.804688 C 42.703125 8.417969 42.800781 8.398438 42.101562 9.101562 M 32.5 12 C 29.609375 14.890625 33.507812 19.089844 36.886719 16.722656 C 38.289062 15.742188 38.398438 13.015625 37.085938 11.828125 C 35.84375 10.703125 33.714844 10.785156 32.5 12 M 68.101562 13.101562 C 67.277344 13.921875 67.34375 15.75 68.226562 16.480469 C 69.199219 17.289062 70.480469 16.976562 71.308594 15.726562 C 72.601562 13.777344 69.753906 11.445312 68.101562 13.101562 M 46.601562 14.101562 C 45.273438 15.425781 46.449219 18.5 48.285156 18.5 C 49.039062 18.5 51 16.773438 51 16.113281 C 51 15.898438 50.648438 15.222656 50.222656 14.613281 C 49.375 13.402344 47.554688 13.144531 46.601562 14.101562 M 24.617188 15.082031 C 23.28125 16.421875 24.636719 18.339844 26.503906 17.75 C 27.289062 17.5 27.519531 17.074219 27.402344 16.082031 C 27.234375 14.597656 25.664062 14.035156 24.617188 15.082031 M 57.515625 17.96875 C 56.847656 19.21875 56.855469 19.285156 57.785156 20.214844 C 59.5625 21.992188 62.175781 20.195312 61 18 C 60.308594 16.710938 58.199219 16.691406 57.515625 17.96875 M 39.820312 18.847656 C 39.222656 19.445312 39.496094 20.5 40.25 20.5 C 40.664062 20.5 41 20.175781 41 19.78125 C 41 18.945312 40.285156 18.378906 39.820312 18.847656 M 75.328125 20.914062 C 74.296875 22.054688 74.25 24.671875 75.25 25.5 C 77.09375 27.03125 80.5 25.519531 80.5 23.171875 C 80.5 20.554688 77.023438 19.039062 75.328125 20.914062 M 67.195312 21.214844 C 66.695312 22.511719 67.394531 23.585938 68.621094 23.410156 C 69.449219 23.292969 69.75 22.917969 69.75 22 C 69.75 21.082031 69.449219 20.707031 68.621094 20.589844 C 67.945312 20.492188 67.375 20.742188 67.195312 21.214844 M 28.320312 21.753906 C 26.980469 23.09375 26.824219 24.527344 27.871094 25.933594 C 29.277344 27.828125 31.570312 27.953125 32.941406 26.210938 C 34.261719 24.535156 34.265625 23.96875 32.964844 22.316406 C 31.785156 20.816406 29.527344 20.542969 28.320312 21.753906 M 43.375 22.539062 C 42.222656 23.210938 42.253906 25.332031 43.421875 25.957031 C 44.085938 26.3125 44.648438 26.242188 45.421875 25.699219 C 46.699219 24.804688 46.792969 23.863281 45.714844 22.785156 C 44.804688 21.875 44.558594 21.847656 43.375 22.539062 M 51.664062 22.789062 C 51.273438 23.808594 52.691406 25.226562 53.710938 24.835938 C 54.144531 24.667969 54.5 23.960938 54.5 23.265625 C 54.5 22.246094 54.253906 22 53.234375 22 C 52.539062 22 51.832031 22.355469 51.664062 22.789062 M 19.785156 24.601562 C 19.128906 25.539062 19.113281 25.855469 19.691406 26.726562 C 20.988281 28.683594 23.5 28.066406 23.5 25.789062 C 23.5 23.476562 21.109375 22.714844 19.785156 24.601562 M 36.351562 23.816406 C 35.757812 24.40625 35.960938 25.878906 36.671875 26.148438 C 37.679688 26.535156 38.621094 25.753906 38.417969 24.695312 C 38.234375 23.734375 36.972656 23.195312 36.351562 23.816406 M 59.167969 26.285156 C 59.003906 26.714844 59.105469 27.308594 59.398438 27.601562 C 60.175781 28.378906 61.5 27.695312 61.5 26.515625 C 61.5 25.28125 59.625 25.097656 59.167969 26.285156 M 8.65625 26.550781 C 7.78125 26.804688 6.574219 27.628906 5.976562 28.382812 C 5.027344 29.578125 4.929688 30.152344 5.191406 33 C 6.089844 42.78125 10.808594 52.460938 18.84375 61.003906 C 22.261719 64.632812 29.40625 70.539062 31.082031 71.117188 C 31.507812 71.265625 30.070312 73.175781 27.089844 76.414062 C 21.851562 82.105469 21.804688 82.304688 25.007812 85.195312 C 34.511719 93.78125 57.105469 95.253906 70.597656 88.164062 C 75.261719 85.714844 78.695312 81.796875 77.0625 80.789062 C 76.820312 80.640625 74.792969 78.511719 72.554688 76.058594 L 68.484375 71.601562 L 71.84375 69.203125 C 84.878906 59.898438 93.472656 46.371094 94.769531 33.117188 C 95.0625 30.136719 94.976562 29.59375 94.023438 28.386719 C 93.429688 27.636719 92.074219 26.789062 91.011719 26.503906 C 89.078125 25.984375 89.066406 25.988281 86.410156 28.800781 C 79.960938 35.640625 70.535156 39.957031 58.578125 41.554688 C 51.710938 42.46875 39.839844 41.871094 33.785156 40.300781 C 25.019531 38.027344 16.074219 32.761719 12.5 27.773438 C 11.152344 25.890625 11.050781 25.859375 8.65625 26.550781 M 65.472656 26.921875 C 64.109375 28.027344 63.933594 30.648438 65.144531 31.855469 C 66.351562 33.066406 68.972656 32.890625 70.078125 31.527344 C 71.328125 29.984375 71.238281 28.691406 69.773438 27.226562 C 68.308594 25.761719 67.015625 25.671875 65.472656 26.921875 M 53.601562 29.101562 C 52.828125 29.875 52.828125 32.125 53.601562 32.898438 C 53.929688 33.230469 54.785156 33.5 55.5 33.5 C 56.214844 33.5 57.070312 33.230469 57.398438 32.898438 C 57.730469 32.570312 58 31.714844 58 31 C 58 29.347656 57.152344 28.5 55.5 28.5 C 54.785156 28.5 53.929688 28.769531 53.601562 29.101562 M 27 31.5 C 26.179688 33.027344 27.214844 34.601562 28.910156 34.40625 C 29.972656 34.28125 30.285156 33.949219 30.414062 32.804688 C 30.671875 30.539062 28.050781 29.535156 27 31.5 M 75.738281 31.515625 C 75.546875 31.828125 75.621094 32.324219 75.910156 32.609375 C 76.582031 33.28125 78.148438 32.695312 77.875 31.875 C 77.597656 31.039062 76.183594 30.800781 75.738281 31.515625 M 33.480469 32.535156 C 33.050781 33.335938 33.105469 33.835938 33.726562 34.785156 C 34.605469 36.128906 35.097656 36.25 36.53125 35.484375 C 37.613281 34.902344 37.820312 33.019531 36.898438 32.101562 C 35.957031 31.15625 34.09375 31.394531 33.480469 32.535156 M 42.121094 32.375 C 41.773438 32.492188 41.257812 33.015625 40.976562 33.542969 C 40.195312 35 41.214844 36.5 42.984375 36.5 C 43.992188 36.5 44.527344 36.195312 44.75 35.5 C 45.398438 33.464844 43.960938 31.757812 42.121094 32.375 M 50.984375 36.53125 C 50.492188 37.445312 50.570312 37.789062 51.457031 38.679688 C 52.824219 40.046875 54.25 39.289062 54.25 37.195312 C 54.25 36 54.019531 35.722656 52.910156 35.59375 C 51.945312 35.484375 51.402344 35.746094 50.984375 36.53125 M 62.667969 36.785156 C 62.503906 37.214844 62.605469 37.808594 62.898438 38.101562 C 63.675781 38.878906 65 38.195312 65 37.015625 C 65 35.78125 63.125 35.597656 62.667969 36.785156 "/>
</g>
</svg>
