<?xml version="1.0" encoding="UTF-8"?>
<svg xmlns="http://www.w3.org/2000/svg" xmlns:xlink="http://www.w3.org/1999/xlink" width="100px" height="100px" viewBox="0 0 100 100" version="1.1">
<g id="surface1">
<path style=" stroke:none;fill-rule:evenodd;fill:rgb(0%,0%,0%);fill-opacity:1;" d="M 47.75 5.859375 C 44.511719 6.644531 41.195312 11.628906 39.503906 18.242188 C 38.492188 22.195312 37.21875 34.546875 37.695312 35.789062 C 38.128906 36.914062 39.769531 36.617188 40.484375 35.28125 C 41.238281 33.871094 43.519531 32.78125 44.839844 33.199219 C 46.082031 33.59375 46.960938 35.121094 47.449219 37.746094 C 47.828125 39.773438 47.746094 40.054688 46.429688 41.316406 C 45.644531 42.070312 45 42.984375 45 43.34375 C 45 43.703125 44.914062 44 44.808594 44 C 44.703125 44 39.601562 38.941406 33.472656 32.753906 C 27.339844 26.570312 22.207031 21.628906 22.058594 21.773438 C 21.914062 21.917969 26.957031 27.203125 33.269531 33.519531 C 39.941406 40.195312 44.382812 45 43.886719 45 C 43.417969 45 42.242188 45.695312 41.273438 46.546875 C 39.722656 47.910156 39.28125 48.050781 37.523438 47.753906 C 32.335938 46.878906 31.472656 43.226562 35.75 40.261719 C 36.535156 39.714844 36.621094 39.433594 36.144531 38.953125 C 35.671875 38.472656 34.082031 38.460938 28.808594 38.90625 C 14.503906 40.105469 7.457031 43.09375 5.976562 48.585938 C 4.902344 52.570312 6.867188 55.648438 12.132812 58.222656 C 14.121094 59.195312 17.394531 60.332031 19.402344 60.746094 C 23.816406 61.65625 34.753906 62.703125 35.769531 62.3125 C 36.910156 61.875 36.625 60.238281 35.28125 59.515625 C 33.871094 58.761719 32.78125 56.480469 33.199219 55.160156 C 33.59375 53.917969 35.121094 53.039062 37.746094 52.550781 C 39.773438 52.171875 40.054688 52.253906 41.316406 53.570312 C 42.070312 54.355469 42.984375 55 43.34375 55 C 43.703125 55 44 55.078125 44 55.171875 C 44 55.265625 38.941406 60.371094 32.757812 66.511719 C 26.574219 72.65625 21.632812 77.800781 21.777344 77.945312 C 21.921875 78.085938 27.203125 73.042969 33.519531 66.730469 C 40.746094 59.507812 45 55.59375 45 56.167969 C 45 56.667969 45.695312 57.773438 46.542969 58.621094 C 47.957031 60.03125 48.058594 60.359375 47.753906 62.394531 C 47.378906 64.90625 45.652344 67 43.957031 67 C 43.359375 67 42.125 66.210938 41.21875 65.25 C 38.558594 62.433594 38.34375 62.769531 38.742188 69.125 C 39.8125 86.136719 43.527344 94 50.5 93.996094 C 55.199219 93.992188 58.488281 89.835938 60.496094 81.378906 C 61.335938 77.839844 62.480469 68.234375 62.496094 64.625 C 62.503906 62.945312 60.457031 63.136719 59.125 64.9375 C 56.707031 68.210938 53.917969 67.175781 52.71875 62.558594 C 52.070312 60.058594 52.082031 59.992188 53.449219 58.628906 C 54.210938 57.863281 54.960938 56.90625 55.113281 56.496094 C 55.304688 55.976562 58.828125 59.171875 66.675781 66.976562 C 72.882812 73.152344 78.09375 78.074219 78.253906 77.914062 C 78.410156 77.753906 73.308594 72.535156 66.910156 66.3125 C 60.375 59.957031 55.648438 55 56.121094 55 C 56.585938 55 57.757812 54.304688 58.726562 53.453125 C 60.277344 52.089844 60.71875 51.949219 62.476562 52.246094 C 67.664062 53.121094 68.527344 56.773438 64.25 59.738281 C 63.480469 60.273438 63.386719 60.570312 63.839844 61.03125 C 64.292969 61.492188 65.988281 61.503906 71.183594 61.078125 C 82.238281 60.175781 87.738281 58.585938 91.453125 55.230469 C 94.773438 52.234375 95.21875 48.5625 92.675781 45.148438 C 91.085938 43.007812 85.273438 40.242188 80.25 39.234375 C 76.273438 38.433594 64.589844 37.445312 63.875 37.847656 C 63.082031 38.292969 63.550781 39.992188 64.625 40.5625 C 66.21875 41.414062 66.964844 42.535156 66.984375 44.113281 C 67.003906 45.703125 65.773438 46.648438 62.597656 47.484375 C 60.539062 48.027344 60.363281 47.984375 58.703125 46.527344 C 57.746094 45.6875 56.695312 45 56.363281 45 C 56.03125 45 60.929688 39.824219 67.25 33.5 C 73.570312 27.175781 78.519531 22 78.25 22 C 77.980469 22 72.636719 27.117188 66.378906 33.371094 C 59.757812 39.988281 55 44.386719 55 43.886719 C 55 43.417969 54.304688 42.242188 53.453125 41.273438 C 52.089844 39.722656 51.949219 39.28125 52.246094 37.523438 C 53.121094 32.335938 56.773438 31.472656 59.738281 35.75 C 60.273438 36.519531 60.570312 36.613281 61.03125 36.160156 C 61.492188 35.707031 61.503906 34.011719 61.078125 28.816406 C 60.488281 21.59375 59.425781 16.074219 57.96875 12.679688 C 56.683594 9.683594 53.742188 6.613281 51.574219 6.011719 C 49.65625 5.480469 49.359375 5.46875 47.75 5.859375 M 18.539062 18.292969 C 16.71875 19.828125 16.507812 21.699219 18.0625 22.535156 C 18.925781 22.996094 19.371094 22.917969 20.4375 22.125 C 21.160156 21.585938 21.96875 20.53125 22.238281 19.777344 C 22.640625 18.648438 22.554688 18.277344 21.769531 17.703125 C 20.484375 16.765625 20.320312 16.792969 18.539062 18.292969 M 77.464844 18.0625 C 77.003906 18.925781 77.082031 19.371094 77.875 20.4375 C 78.414062 21.160156 79.46875 21.96875 80.222656 22.238281 C 81.351562 22.640625 81.722656 22.554688 82.296875 21.769531 C 83.234375 20.484375 83.207031 20.320312 81.707031 18.539062 C 80.171875 16.71875 78.300781 16.507812 77.464844 18.0625 M 78.960938 78.460938 C 78.15625 79.265625 77.5 80.382812 77.5 80.945312 C 77.5 82.09375 79.199219 83.226562 80.136719 82.699219 C 82.882812 81.148438 83.851562 78.492188 82.03125 77.515625 C 80.683594 76.796875 80.601562 76.820312 78.960938 78.460938 M 17.496094 78.511719 C 16.910156 79.601562 17.097656 80.136719 18.660156 81.875 C 19.917969 83.269531 21.789062 83.332031 22.5 82 C 23.136719 80.808594 22.542969 79.4375 20.886719 78.277344 C 19.375 77.21875 18.140625 77.300781 17.496094 78.511719 "/>
</g>
</svg>
