<?xml version="1.0" encoding="UTF-8"?>
<svg xmlns="http://www.w3.org/2000/svg" xmlns:xlink="http://www.w3.org/1999/xlink" width="24px" height="24px" viewBox="0 0 24 24" version="1.1">
<g id="surface1">
<path style=" stroke:none;fill-rule:evenodd;fill:rgb(0%,0%,0%);fill-opacity:1;" d="M 11.460938 1.40625 C 10.683594 1.59375 9.886719 2.789062 9.480469 4.378906 C 9.238281 5.328125 8.933594 8.292969 9.046875 8.589844 C 9.152344 8.859375 9.542969 8.789062 9.714844 8.46875 C 9.898438 8.128906 10.445312 7.867188 10.761719 7.96875 C 11.058594 8.0625 11.269531 8.429688 11.386719 9.058594 C 11.480469 9.546875 11.460938 9.613281 11.144531 9.914062 C 10.953125 10.097656 10.800781 10.316406 10.800781 10.402344 C 10.800781 10.488281 10.777344 10.558594 10.753906 10.558594 C 10.730469 10.558594 9.503906 9.34375 8.03125 7.859375 C 6.5625 6.375 5.328125 5.191406 5.292969 5.226562 C 5.257812 5.261719 6.46875 6.527344 7.984375 8.042969 C 9.585938 9.648438 10.652344 10.800781 10.535156 10.800781 C 10.421875 10.800781 10.136719 10.96875 9.90625 11.171875 C 9.53125 11.5 9.425781 11.53125 9.003906 11.460938 C 7.761719 11.25 7.554688 10.375 8.578125 9.664062 C 8.769531 9.53125 8.789062 9.464844 8.675781 9.347656 C 8.5625 9.234375 8.179688 9.230469 6.914062 9.335938 C 3.480469 9.625 1.789062 10.34375 1.433594 11.660156 C 1.175781 12.617188 1.648438 13.355469 2.910156 13.972656 C 3.390625 14.207031 4.175781 14.480469 4.65625 14.578125 C 5.714844 14.796875 8.339844 15.046875 8.585938 14.953125 C 8.859375 14.851562 8.789062 14.457031 8.46875 14.285156 C 8.128906 14.101562 7.867188 13.554688 7.96875 13.238281 C 8.0625 12.941406 8.429688 12.730469 9.058594 12.613281 C 9.546875 12.519531 9.613281 12.539062 9.914062 12.855469 C 10.097656 13.046875 10.316406 13.199219 10.402344 13.199219 C 10.488281 13.199219 10.558594 13.21875 10.558594 13.242188 C 10.558594 13.265625 9.347656 14.488281 7.863281 15.964844 C 6.378906 17.4375 5.191406 18.671875 5.226562 18.707031 C 5.261719 18.742188 6.527344 17.53125 8.042969 16.015625 C 9.777344 14.28125 10.800781 13.34375 10.800781 13.480469 C 10.800781 13.601562 10.96875 13.867188 11.171875 14.070312 C 11.507812 14.40625 11.535156 14.484375 11.460938 14.976562 C 11.371094 15.578125 10.957031 16.078125 10.550781 16.078125 C 10.40625 16.078125 10.109375 15.890625 9.890625 15.660156 C 9.253906 14.984375 9.203125 15.066406 9.296875 16.589844 C 9.554688 20.671875 10.445312 22.558594 12.121094 22.558594 C 13.246094 22.558594 14.039062 21.5625 14.519531 19.53125 C 14.71875 18.683594 14.996094 16.375 15 15.511719 C 15 15.105469 14.507812 15.152344 14.191406 15.585938 C 13.609375 16.371094 12.941406 16.121094 12.652344 15.015625 C 12.496094 14.414062 12.5 14.398438 12.828125 14.070312 C 13.011719 13.886719 13.191406 13.65625 13.226562 13.558594 C 13.273438 13.433594 14.117188 14.199219 16.003906 16.074219 C 17.492188 17.554688 18.742188 18.738281 18.78125 18.699219 C 18.820312 18.660156 17.59375 17.40625 16.058594 15.914062 C 14.488281 14.390625 13.355469 13.199219 13.46875 13.199219 C 13.582031 13.199219 13.863281 13.03125 14.09375 12.828125 C 14.46875 12.5 14.574219 12.46875 14.996094 12.539062 C 16.238281 12.75 16.445312 13.625 15.421875 14.335938 C 15.234375 14.464844 15.210938 14.535156 15.320312 14.648438 C 15.429688 14.757812 15.835938 14.761719 17.085938 14.660156 C 19.738281 14.441406 21.058594 14.0625 21.949219 13.253906 C 22.746094 12.535156 22.851562 11.65625 22.242188 10.835938 C 21.859375 10.324219 20.464844 9.660156 19.261719 9.414062 C 18.304688 9.222656 15.503906 8.988281 15.328125 9.082031 C 15.140625 9.191406 15.253906 9.597656 15.511719 9.734375 C 15.890625 9.9375 16.070312 10.207031 16.074219 10.585938 C 16.082031 10.96875 15.785156 11.195312 15.023438 11.398438 C 14.53125 11.527344 14.488281 11.515625 14.089844 11.167969 C 13.859375 10.964844 13.605469 10.800781 13.527344 10.800781 C 13.445312 10.800781 14.625 9.558594 16.140625 8.039062 C 17.65625 6.523438 18.84375 5.28125 18.78125 5.28125 C 18.714844 5.28125 17.433594 6.507812 15.929688 8.007812 C 14.34375 9.597656 13.199219 10.652344 13.199219 10.535156 C 13.199219 10.421875 13.03125 10.136719 12.828125 9.90625 C 12.5 9.53125 12.46875 9.425781 12.539062 9.003906 C 12.75 7.761719 13.625 7.554688 14.335938 8.578125 C 14.464844 8.765625 14.535156 8.789062 14.648438 8.679688 C 14.757812 8.570312 14.761719 8.164062 14.660156 6.914062 C 14.515625 5.183594 14.261719 3.855469 13.914062 3.042969 C 13.605469 2.324219 12.898438 1.585938 12.378906 1.441406 C 11.917969 1.316406 11.847656 1.3125 11.460938 1.40625 M 4.449219 4.390625 C 4.011719 4.757812 3.960938 5.207031 4.335938 5.40625 C 4.542969 5.519531 4.648438 5.5 4.90625 5.308594 C 5.078125 5.179688 5.273438 4.925781 5.335938 4.746094 C 5.433594 4.476562 5.414062 4.386719 5.222656 4.25 C 4.917969 4.023438 4.878906 4.03125 4.449219 4.390625 M 18.59375 4.335938 C 18.480469 4.542969 18.5 4.648438 18.691406 4.90625 C 18.820312 5.078125 19.074219 5.273438 19.253906 5.335938 C 19.523438 5.433594 19.613281 5.414062 19.75 5.222656 C 19.976562 4.917969 19.96875 4.878906 19.609375 4.449219 C 19.242188 4.011719 18.792969 3.960938 18.59375 4.335938 M 18.949219 18.832031 C 18.757812 19.023438 18.601562 19.292969 18.601562 19.425781 C 18.601562 19.703125 19.007812 19.972656 19.234375 19.847656 C 19.890625 19.476562 20.125 18.839844 19.6875 18.605469 C 19.363281 18.429688 19.34375 18.4375 18.949219 18.832031 M 4.199219 18.84375 C 4.058594 19.105469 4.101562 19.234375 4.480469 19.648438 C 4.78125 19.984375 5.230469 20 5.398438 19.679688 C 5.554688 19.394531 5.410156 19.066406 5.011719 18.785156 C 4.648438 18.53125 4.355469 18.550781 4.199219 18.84375 "/>
</g>
</svg>
