<?xml version="1.0" encoding="UTF-8"?>
<svg xmlns="http://www.w3.org/2000/svg" xmlns:xlink="http://www.w3.org/1999/xlink" width="100px" height="100px" viewBox="0 0 100 100" version="1.1">
<g id="surface1">
<path style=" stroke:none;fill-rule:evenodd;fill:rgb(0%,0%,0%);fill-opacity:1;" d="M 61.125 0.625 C 60.851562 0.96875 58.449219 5.058594 55.789062 9.714844 C 50.78125 18.484375 50.226562 20.25 52.496094 20.25 C 53.574219 20.25 54.324219 19.246094 58.09375 12.75 C 60.492188 8.625 62.546875 5.023438 62.664062 4.75 C 63.007812 3.953125 68.132812 9.242188 69.988281 12.304688 C 70.917969 13.839844 72.285156 16.816406 73.027344 18.921875 C 74.433594 22.910156 75.613281 23.921875 76.964844 22.292969 C 77.476562 21.671875 77.347656 20.796875 76.257812 17.519531 C 74.527344 12.324219 71.042969 7.039062 66.769531 3.125 C 63.367188 0.0117188 62.070312 -0.5625 61.125 0.625 M 38.230469 1.914062 C 36.003906 2.953125 34.011719 5.054688 33.054688 7.367188 C 32.710938 8.195312 31.914062 9.105469 31.277344 9.398438 C 27.382812 11.171875 24.304688 16.316406 23.71875 22.019531 C 23.449219 24.640625 23.535156 25.40625 24.15625 25.921875 C 24.683594 26.359375 24.84375 27.074219 24.664062 28.195312 C 24.289062 30.488281 26.042969 32.410156 29.242188 33.222656 L 31.699219 33.847656 L 32.613281 38.128906 L 33.527344 42.414062 L 31.324219 45.582031 C 25.957031 53.300781 22.148438 64.121094 20.265625 77 C 19.234375 84.035156 17.53125 91.941406 16.6875 93.601562 C 15.5625 95.808594 15.808594 97.851562 17.324219 98.84375 C 19.027344 99.960938 27.296875 100.410156 29.484375 99.507812 C 32.136719 98.410156 31.960938 96.316406 29.011719 93.835938 C 28.179688 93.136719 27.5 92.363281 27.5 92.121094 C 27.5 91.757812 33.632812 77.886719 35.96875 72.96875 C 36.375 72.105469 37.957031 71 40.796875 69.59375 C 43.117188 68.441406 45.089844 67.5 45.179688 67.5 C 45.269531 67.5 45.625 68.457031 45.972656 69.625 C 46.898438 72.730469 50.839844 80.902344 54.636719 87.578125 C 57.464844 92.554688 57.910156 93.660156 57.671875 95.136719 C 57.082031 98.773438 59.238281 99.992188 66.261719 99.996094 C 70.710938 100 72.5 99.234375 72.5 97.332031 C 72.5 95.804688 71.335938 94.28125 68.851562 92.5625 L 66.75 91.109375 L 64.558594 82.429688 C 61.996094 72.265625 56.035156 53.585938 53.953125 49.179688 C 53.15625 47.492188 51.464844 44.957031 50.203125 43.550781 L 47.902344 40.992188 L 49.082031 36.078125 L 52.914062 35.78125 C 55.023438 35.617188 59.5625 35.226562 63 34.917969 C 66.4375 34.609375 69.585938 34.390625 70 34.429688 C 70.414062 34.46875 71.789062 34.636719 73.054688 34.796875 C 75.136719 35.0625 75.539062 34.933594 77.15625 33.515625 C 78.144531 32.648438 79.089844 31.503906 79.261719 30.96875 C 79.476562 30.28125 80.027344 29.996094 81.160156 29.992188 C 83.300781 29.980469 84.121094 29.375 83.917969 27.945312 C 83.777344 26.945312 83.421875 26.722656 81.75 26.589844 C 80.457031 26.488281 79.285156 25.992188 78.433594 25.179688 C 76.6875 23.515625 73.835938 23.648438 73.585938 25.402344 C 73.460938 26.304688 73.761719 26.6875 74.960938 27.136719 C 76.773438 27.820312 76.867188 28.398438 75.464844 30.183594 C 74.394531 31.542969 72.605469 31.90625 71.65625 30.957031 C 71.265625 30.566406 70.082031 30.570312 67.433594 30.964844 C 63.683594 31.523438 51.382812 32.476562 51.089844 32.230469 C 51 32.15625 51.570312 31.378906 52.351562 30.503906 L 53.773438 28.914062 L 62.457031 28.582031 C 69.785156 28.300781 71.226562 28.121094 71.667969 27.417969 C 72.050781 26.804688 72 26.351562 71.476562 25.71875 C 70.828125 24.941406 69.898438 24.882812 62.023438 25.136719 L 53.292969 25.421875 L 51.664062 23.992188 C 50.773438 23.207031 48.992188 21.953125 47.714844 21.203125 C 45.519531 19.914062 45.253906 19.875 42.996094 20.453125 C 41.683594 20.789062 39.828125 20.917969 38.875 20.742188 L 37.140625 20.414062 L 38.644531 17.582031 C 40.453125 14.179688 41.835938 12.554688 43.457031 11.925781 C 44.871094 11.382812 45.480469 12.027344 45.492188 14.070312 C 45.5 15.410156 44.730469 16 42.976562 16 C 41.738281 16 40.933594 17.507812 41.566406 18.636719 C 42.640625 20.554688 47.433594 19.078125 48.5 16.5 C 49.011719 15.261719 49.050781 14.289062 48.664062 12.402344 C 48.328125 10.753906 48.324219 9.308594 48.65625 8.066406 C 49.953125 3.210938 43.542969 -0.574219 38.230469 1.914062 M 39.097656 5.335938 C 37.484375 6.132812 36 8.214844 36 9.6875 C 36 10.09375 34.710938 11.285156 33.136719 12.335938 C 31.5625 13.390625 29.773438 14.996094 29.164062 15.90625 C 28.070312 17.546875 26.660156 22.828125 27.183594 23.347656 C 27.730469 23.894531 30.027344 22.945312 31.6875 21.488281 C 32.625 20.664062 34.300781 18.246094 35.410156 16.121094 C 37.804688 11.519531 39.496094 9.785156 42.796875 8.53125 C 45.859375 7.371094 46.203125 6.242188 43.804688 5.242188 C 41.59375 4.316406 41.148438 4.328125 39.097656 5.335938 M 35.617188 24.941406 C 34.867188 27.613281 35.285156 35.148438 36.402344 39.117188 L 37.492188 42.988281 L 35.035156 46.367188 C 30.835938 52.152344 27.316406 60.308594 25.308594 68.910156 C 24.632812 71.804688 24.640625 72.023438 25.414062 71.785156 C 25.875 71.644531 27.824219 71.050781 29.75 70.464844 C 34.828125 68.921875 41.753906 65.46875 45.554688 62.582031 C 49.089844 59.898438 52.5 56.246094 52.5 55.148438 C 52.5 53.425781 49.332031 47.761719 46.96875 45.261719 C 44.371094 42.515625 44.367188 42.515625 44.707031 39.964844 C 45.148438 36.636719 46.636719 32.71875 48.5625 29.8125 C 50.335938 27.136719 50.195312 26.738281 46.789062 24.753906 C 44.960938 23.6875 44.535156 23.621094 42.664062 24.125 C 41.167969 24.527344 39.925781 24.535156 38.28125 24.160156 C 36.046875 23.648438 35.976562 23.667969 35.617188 24.941406 M 29.917969 26.566406 C 28.199219 27.195312 27.675781 28.527344 28.820312 29.363281 C 30.496094 30.589844 31.378906 30.152344 31.585938 28 C 31.691406 26.898438 31.65625 26.019531 31.511719 26.039062 C 31.367188 26.0625 30.652344 26.296875 29.917969 26.566406 M 74.632812 35.917969 C 74.320312 36.109375 73.519531 37.78125 72.847656 39.628906 C 72.175781 41.476562 70.878906 44.226562 69.964844 45.738281 C 68.128906 48.765625 63.003906 54.039062 62.664062 53.25 C 62.546875 52.976562 60.492188 49.375 58.09375 45.25 C 54.324219 38.753906 53.574219 37.75 52.496094 37.75 C 50.195312 37.75 50.777344 39.523438 56.101562 48.789062 C 59.863281 55.339844 61.527344 57.789062 62.277344 57.898438 C 63.738281 58.105469 69.417969 52.757812 72.226562 48.53125 C 74.5 45.113281 77 39.339844 77 37.507812 C 77 36.40625 75.484375 35.390625 74.632812 35.917969 M 50.9375 62.523438 L 48.121094 65.300781 L 49.484375 69.023438 C 51.121094 73.492188 54.476562 80.25 58.808594 87.820312 C 62.117188 93.597656 62.394531 94.402344 61.417969 95.382812 C 60.550781 96.25 61.820312 96.582031 65.304688 96.402344 L 68.25 96.25 L 66.027344 94.902344 L 63.800781 93.554688 L 61.148438 83.25 C 58.527344 73.066406 54.699219 60.484375 54.074219 60 C 53.894531 59.863281 52.484375 61 50.9375 62.523438 M 27.644531 74.664062 L 24.042969 75.632812 L 23.71875 77.941406 C 23.144531 82.078125 20.546875 93.980469 19.996094 95.011719 C 19.285156 96.335938 20.007812 96.597656 23.804688 96.402344 L 26.75 96.25 L 25.125 95.265625 C 24.078125 94.632812 23.5 93.890625 23.5 93.179688 C 23.5 92.570312 25.328125 87.996094 27.5625 83.015625 C 29.796875 78.03125 31.539062 73.898438 31.4375 73.828125 C 31.335938 73.753906 29.628906 74.132812 27.644531 74.664062 "/>
</g>
</svg>
