<?xml version="1.0" encoding="UTF-8"?>
<svg xmlns="http://www.w3.org/2000/svg" xmlns:xlink="http://www.w3.org/1999/xlink" width="24px" height="24px" viewBox="0 0 24 24" version="1.1">
<g id="surface1">
<path style=" stroke:none;fill-rule:evenodd;fill:rgb(0%,0%,0%);fill-opacity:1;" d="M 14.671875 0.148438 C 14.605469 0.234375 14.027344 1.214844 13.390625 2.332031 C 12.1875 4.4375 12.054688 4.859375 12.597656 4.859375 C 12.859375 4.859375 13.039062 4.617188 13.941406 3.058594 C 14.519531 2.070312 15.011719 1.207031 15.039062 1.140625 C 15.121094 0.949219 16.351562 2.21875 16.796875 2.953125 C 17.019531 3.320312 17.347656 4.035156 17.527344 4.542969 C 17.863281 5.5 18.148438 5.742188 18.472656 5.351562 C 18.59375 5.203125 18.5625 4.992188 18.300781 4.203125 C 17.886719 2.957031 17.050781 1.691406 16.023438 0.75 C 15.207031 0.00390625 14.898438 -0.136719 14.671875 0.148438 M 9.175781 0.460938 C 8.640625 0.707031 8.164062 1.210938 7.933594 1.769531 C 7.851562 1.964844 7.660156 2.1875 7.507812 2.253906 C 6.570312 2.679688 5.832031 3.914062 5.691406 5.285156 C 5.628906 5.914062 5.648438 6.097656 5.796875 6.222656 C 5.925781 6.328125 5.960938 6.5 5.917969 6.765625 C 5.828125 7.316406 6.25 7.777344 7.019531 7.972656 L 7.609375 8.125 L 8.046875 10.179688 L 7.519531 10.941406 C 6.230469 12.792969 5.316406 15.390625 4.863281 18.480469 C 4.617188 20.167969 4.207031 22.066406 4.003906 22.464844 C 3.734375 22.996094 3.792969 23.484375 4.15625 23.722656 C 4.566406 23.992188 6.550781 24.097656 7.078125 23.882812 C 7.710938 23.617188 7.671875 23.117188 6.960938 22.519531 C 6.761719 22.351562 6.601562 22.167969 6.601562 22.109375 C 6.601562 22.023438 8.070312 18.691406 8.632812 17.511719 C 8.730469 17.304688 9.109375 17.039062 9.789062 16.703125 C 10.347656 16.425781 10.820312 16.199219 10.84375 16.199219 C 10.863281 16.199219 10.949219 16.429688 11.035156 16.710938 C 11.253906 17.457031 12.203125 19.417969 13.113281 21.019531 C 13.792969 22.214844 13.898438 22.480469 13.839844 22.832031 C 13.699219 23.707031 14.21875 24 15.902344 24 C 16.96875 24 17.398438 23.816406 17.398438 23.359375 C 17.398438 22.992188 17.121094 22.628906 16.523438 22.214844 L 16.019531 21.867188 L 15.496094 19.78125 C 14.878906 17.34375 13.449219 12.859375 12.949219 11.804688 C 12.757812 11.398438 12.351562 10.789062 12.046875 10.453125 L 11.496094 9.839844 L 11.636719 9.25 L 11.78125 8.660156 L 12.699219 8.585938 C 13.207031 8.546875 14.296875 8.453125 15.121094 8.378906 C 15.945312 8.304688 16.699219 8.253906 16.800781 8.261719 C 16.898438 8.273438 17.230469 8.3125 17.535156 8.351562 C 18.03125 8.414062 18.128906 8.382812 18.519531 8.042969 C 18.753906 7.835938 18.980469 7.5625 19.023438 7.433594 C 19.074219 7.265625 19.207031 7.199219 19.476562 7.199219 C 19.992188 7.195312 20.1875 7.050781 20.140625 6.707031 C 20.105469 6.46875 20.019531 6.414062 19.621094 6.382812 C 19.308594 6.355469 19.027344 6.238281 18.824219 6.042969 C 18.40625 5.644531 17.71875 5.675781 17.660156 6.097656 C 17.628906 6.3125 17.703125 6.40625 17.992188 6.511719 C 18.425781 6.675781 18.449219 6.816406 18.109375 7.242188 C 17.855469 7.570312 17.425781 7.65625 17.199219 7.429688 C 17.105469 7.335938 16.820312 7.335938 16.183594 7.429688 C 15.285156 7.566406 12.332031 7.792969 12.261719 7.734375 C 12.242188 7.71875 12.375 7.53125 12.5625 7.320312 L 12.90625 6.9375 L 14.988281 6.859375 C 16.75 6.792969 17.09375 6.75 17.199219 6.582031 C 17.292969 6.433594 17.28125 6.324219 17.152344 6.171875 C 17 5.984375 16.777344 5.972656 14.886719 6.035156 L 12.789062 6.101562 L 12.398438 5.757812 C 12.183594 5.570312 11.757812 5.269531 11.453125 5.089844 C 10.925781 4.78125 10.859375 4.769531 10.320312 4.910156 C 10.003906 4.988281 9.558594 5.019531 9.328125 4.976562 L 8.914062 4.898438 L 9.273438 4.21875 C 9.707031 3.402344 10.039062 3.011719 10.429688 2.863281 C 10.769531 2.730469 10.914062 2.886719 10.917969 3.378906 C 10.921875 3.699219 10.734375 3.839844 10.3125 3.839844 C 10.015625 3.839844 9.824219 4.203125 9.976562 4.472656 C 10.234375 4.933594 11.382812 4.578125 11.640625 3.960938 C 11.761719 3.664062 11.773438 3.429688 11.679688 2.976562 C 11.597656 2.582031 11.597656 2.234375 11.675781 1.9375 C 11.988281 0.769531 10.449219 -0.136719 9.175781 0.460938 M 9.382812 1.28125 C 8.996094 1.472656 8.640625 1.972656 8.640625 2.324219 C 8.640625 2.421875 8.332031 2.707031 7.953125 2.960938 C 7.574219 3.214844 7.144531 3.597656 7 3.816406 C 6.738281 4.210938 6.398438 5.480469 6.523438 5.605469 C 6.65625 5.734375 7.207031 5.507812 7.605469 5.15625 C 7.832031 4.960938 8.230469 4.378906 8.5 3.867188 C 9.074219 2.765625 9.480469 2.347656 10.269531 2.046875 C 11.003906 1.769531 11.089844 1.5 10.511719 1.257812 C 9.984375 1.035156 9.875 1.039062 9.382812 1.28125 M 8.546875 5.984375 C 8.367188 6.628906 8.46875 8.433594 8.738281 9.386719 L 9 10.316406 L 8.410156 11.128906 C 7.402344 12.515625 6.554688 14.472656 6.074219 16.539062 C 5.914062 17.234375 5.914062 17.285156 6.097656 17.230469 C 6.210938 17.195312 6.679688 17.050781 7.140625 16.910156 C 8.359375 16.542969 10.019531 15.710938 10.933594 15.019531 C 11.78125 14.375 12.601562 13.5 12.601562 13.234375 C 12.601562 12.820312 11.839844 11.460938 11.273438 10.863281 C 10.648438 10.203125 10.648438 10.203125 10.730469 9.589844 C 10.835938 8.792969 11.191406 7.851562 11.65625 7.15625 C 12.082031 6.511719 12.046875 6.417969 11.230469 5.941406 C 10.789062 5.683594 10.6875 5.667969 10.238281 5.789062 C 9.878906 5.886719 9.582031 5.890625 9.1875 5.796875 C 8.652344 5.675781 8.632812 5.679688 8.546875 5.984375 M 7.179688 6.375 C 6.769531 6.527344 6.640625 6.847656 6.917969 7.046875 C 7.320312 7.339844 7.53125 7.238281 7.582031 6.71875 C 7.605469 6.457031 7.597656 6.246094 7.5625 6.25 C 7.527344 6.253906 7.355469 6.3125 7.179688 6.375 M 17.910156 8.621094 C 17.835938 8.667969 17.644531 9.066406 17.484375 9.511719 C 17.324219 9.953125 17.011719 10.613281 16.792969 10.976562 C 16.351562 11.703125 15.121094 12.96875 15.039062 12.78125 C 15.011719 12.714844 14.519531 11.851562 13.941406 10.859375 C 13.039062 9.300781 12.859375 9.058594 12.597656 9.058594 C 12.046875 9.058594 12.1875 9.484375 13.464844 11.710938 C 14.367188 13.28125 14.765625 13.871094 14.945312 13.894531 C 15.296875 13.945312 16.660156 12.660156 17.335938 11.648438 C 17.878906 10.828125 18.480469 9.441406 18.480469 9 C 18.480469 8.738281 18.117188 8.492188 17.910156 8.621094 M 12.226562 15.007812 L 11.550781 15.671875 L 11.875 16.566406 C 12.269531 17.636719 13.074219 19.261719 14.113281 21.078125 C 14.90625 22.464844 14.976562 22.65625 14.738281 22.890625 C 14.53125 23.101562 14.835938 23.179688 15.671875 23.136719 L 16.378906 23.101562 L 15.847656 22.777344 L 15.3125 22.453125 L 14.675781 19.980469 C 14.046875 17.535156 13.128906 14.515625 12.976562 14.398438 C 12.933594 14.367188 12.597656 14.640625 12.226562 15.007812 M 6.636719 17.917969 L 5.769531 18.152344 L 5.691406 18.707031 C 5.554688 19.699219 4.929688 22.554688 4.796875 22.800781 C 4.628906 23.121094 4.800781 23.183594 5.714844 23.136719 L 6.421875 23.101562 L 6.03125 22.863281 C 5.777344 22.710938 5.640625 22.535156 5.640625 22.363281 C 5.640625 22.21875 6.078125 21.121094 6.613281 19.921875 C 7.152344 18.726562 7.570312 17.734375 7.542969 17.71875 C 7.519531 17.703125 7.109375 17.792969 6.636719 17.917969 "/>
</g>
</svg>
