<?xml version="1.0" encoding="UTF-8"?>
<svg xmlns="http://www.w3.org/2000/svg" xmlns:xlink="http://www.w3.org/1999/xlink" width="100px" height="100px" viewBox="0 0 100 100" version="1.1">
<g id="surface1">
<path style=" stroke:none;fill-rule:evenodd;fill:rgb(0%,0%,0%);fill-opacity:1;" d="M 43.878906 6.539062 C 41.828125 9.226562 41.410156 10.839844 41.164062 17 C 41.039062 20.164062 40.902344 23.679688 40.855469 24.816406 C 40.785156 26.539062 40.675781 26.746094 40.179688 26.070312 C 39.679688 25.382812 39.53125 25.5625 39.195312 27.257812 C 38.980469 28.351562 38.855469 29.605469 38.917969 30.035156 C 39.152344 31.628906 35.703125 50.824219 34.902344 52.382812 C 34.585938 53.003906 34.332031 54.351562 34.339844 55.382812 C 34.355469 57.25 33.683594 63.179688 33.199219 65.457031 C 32.945312 66.640625 32.917969 66.632812 31.875 64.957031 C 31.289062 64.019531 30.757812 62.941406 30.691406 62.5625 C 30.625 62.1875 30.296875 61.214844 29.960938 60.40625 C 29.515625 59.332031 29.238281 59.109375 28.933594 59.589844 C 28.648438 60.039062 28.511719 59.8125 28.507812 58.886719 C 28.5 57.257812 26.496094 52.941406 25.914062 53.300781 C 25.691406 53.441406 25.535156 53.035156 25.570312 52.402344 C 25.660156 50.714844 24.085938 47.386719 23.398438 47.8125 C 23.027344 48.042969 22.9375 47.882812 23.144531 47.34375 C 23.34375 46.824219 23.066406 46.25 22.367188 45.761719 C 20.765625 44.640625 20.117188 44.820312 19.753906 46.492188 C 19.480469 47.71875 19.671875 48.210938 20.835938 49.273438 C 22.003906 50.335938 22.054688 50.464844 21.125 50.011719 C 19.785156 49.359375 19.695312 49.828125 20.835938 51.511719 C 22.027344 53.285156 22.019531 53.277344 22.40625 52.648438 C 22.636719 52.28125 22.964844 52.503906 23.328125 53.277344 C 23.847656 54.375 23.8125 54.433594 22.949219 53.972656 C 22.179688 53.5625 22 53.636719 22 54.371094 C 22 54.871094 22.371094 55.804688 22.820312 56.449219 C 23.542969 57.480469 23.699219 57.523438 24.097656 56.8125 C 24.34375 56.363281 24.820312 56.003906 25.148438 56.007812 C 25.59375 56.011719 25.597656 56.113281 25.175781 56.382812 C 23.933594 57.179688 24.414062 61.195312 25.695312 60.703125 C 26.050781 60.566406 26.613281 60.785156 26.949219 61.1875 C 27.460938 61.804688 27.378906 61.875 26.445312 61.628906 C 25.617188 61.414062 25.40625 61.519531 25.621094 62.042969 C 28.289062 68.570312 29.707031 71.386719 30.226562 71.1875 C 30.566406 71.058594 31.113281 71.285156 31.449219 71.6875 C 31.957031 72.300781 31.886719 72.375 31.027344 72.152344 C 29.828125 71.839844 29.761719 72.273438 30.75 74 C 31.144531 74.6875 31.472656 75.996094 31.484375 76.90625 C 31.492188 77.980469 31.691406 78.441406 32.050781 78.21875 C 32.355469 78.03125 32.25 78.417969 31.816406 79.078125 C 30.765625 80.683594 29.101562 93.300781 29.84375 94.042969 C 30.136719 94.339844 31.300781 94.703125 32.425781 94.851562 C 34.304688 95.105469 34.519531 95.015625 34.988281 93.78125 C 35.269531 93.039062 35.511719 90.929688 35.523438 89.09375 L 35.546875 85.75 L 36.78125 88.125 C 38.0625 90.582031 38.570312 90.828125 40.6875 90.023438 C 43.347656 89.011719 43.261719 88.085938 39.828125 80.855469 L 36.644531 74.15625 L 37.324219 68.246094 C 37.695312 64.996094 37.871094 62.207031 37.714844 62.050781 C 37.558594 61.894531 37.003906 62.324219 36.476562 63.007812 C 35.953125 63.691406 35.515625 64.058594 35.511719 63.824219 C 35.503906 63.59375 36.132812 62.804688 36.90625 62.074219 C 38.214844 60.84375 38.429688 60.046875 39.953125 50.839844 C 40.855469 45.390625 41.453125 40.328125 41.28125 39.589844 C 41.078125 38.714844 41.125 38.484375 41.421875 38.925781 C 41.730469 39.386719 41.980469 38.726562 42.21875 36.835938 C 42.40625 35.316406 42.886719 33.800781 43.28125 33.472656 C 43.675781 33.144531 44 32.203125 44 31.378906 C 44 30.097656 43.890625 29.96875 43.246094 30.503906 C 42.578125 31.058594 42.574219 30.972656 43.222656 29.722656 C 43.621094 28.949219 44.101562 27.066406 44.285156 25.535156 C 44.46875 24.003906 44.957031 22.367188 45.367188 21.894531 C 45.875 21.316406 46.003906 20.589844 45.769531 19.644531 C 45.433594 18.304688 45.390625 18.289062 44.710938 19.222656 C 43.878906 20.355469 43.765625 19.871094 44.523438 18.453125 C 44.8125 17.914062 45.234375 17.585938 45.457031 17.722656 C 45.683594 17.863281 46.125 16.691406 46.441406 15.117188 C 46.777344 13.449219 46.824219 12.191406 46.558594 12.101562 C 46.292969 12.015625 46.308594 11.394531 46.601562 10.601562 C 46.980469 9.558594 46.878906 8.742188 46.140625 7.035156 L 45.183594 4.824219 L 43.878906 6.539062 M 44.328125 6.722656 C 44.144531 7.210938 44.289062 7.355469 44.777344 7.171875 C 45.566406 6.867188 45.773438 6 45.054688 6 C 44.808594 6 44.480469 6.324219 44.328125 6.722656 M 42.84375 9.375 C 42.722656 9.582031 42.804688 10.199219 43.027344 10.75 C 43.378906 11.621094 43.433594 11.574219 43.464844 10.375 C 43.5 9.019531 43.265625 8.644531 42.84375 9.375 M 45.007812 9.34375 C 45.011719 9.566406 45.234375 10.085938 45.5 10.5 C 45.917969 11.148438 45.984375 11.132812 45.992188 10.40625 C 45.996094 9.941406 45.773438 9.421875 45.5 9.25 C 45.226562 9.078125 45.003906 9.121094 45.007812 9.34375 M 43.5 12.53125 C 43.5 12.820312 43.726562 12.921875 44 12.75 C 44.273438 12.578125 44.5 12.34375 44.5 12.21875 C 44.5 12.097656 44.273438 12 44 12 C 43.726562 12 43.5 12.238281 43.5 12.53125 M 42.003906 14.511719 C 42.304688 15.066406 42.386719 15.777344 42.195312 16.085938 C 41.980469 16.433594 42.070312 16.515625 42.421875 16.296875 C 42.738281 16.101562 43 16.21875 43 16.554688 C 43 16.890625 43.128906 17.039062 43.285156 16.878906 C 43.589844 16.578125 42.160156 13.5 41.71875 13.5 C 41.578125 13.5 41.707031 13.953125 42.003906 14.511719 M 43.203125 21.617188 C 42.617188 22.300781 42.558594 22.496094 43.046875 22.121094 C 43.484375 21.785156 43.988281 21.65625 44.171875 21.835938 C 44.351562 22.019531 44.5 21.792969 44.5 21.332031 C 44.5 20.246094 44.34375 20.28125 43.203125 21.617188 M 50.09375 28.480469 C 48.949219 30.027344 48.691406 30.75 49.445312 30.285156 C 49.691406 30.132812 50.042969 30.816406 50.226562 31.804688 C 50.652344 34.070312 50.25 34.613281 49.792969 32.390625 L 49.453125 30.75 L 48.226562 32.152344 C 46.738281 33.851562 46.636719 35.769531 47.988281 36.492188 C 48.53125 36.785156 49.238281 37.523438 49.554688 38.136719 C 50.117188 39.214844 50.09375 39.210938 48.816406 38.039062 L 47.5 36.824219 L 47.5 38.34375 C 47.5 39.179688 47.949219 40.4375 48.5 41.136719 C 49.050781 41.835938 49.480469 42.820312 49.460938 43.328125 C 49.433594 43.964844 49.265625 43.824219 48.917969 42.875 C 48.105469 40.644531 47.5 41.292969 47.519531 44.375 L 47.539062 47.25 L 48.949219 45.605469 L 50.359375 43.957031 L 51.089844 45.105469 C 52.449219 47.234375 52.578125 47.757812 51.402344 46.386719 L 50.230469 45.023438 L 48.867188 46.734375 C 47.667969 48.238281 47.5 48.878906 47.5 52.003906 C 47.5 53.957031 47.671875 55.453125 47.886719 55.320312 C 48.097656 55.191406 48.871094 56.214844 49.609375 57.597656 C 50.675781 59.59375 50.753906 59.929688 49.988281 59.238281 C 49.457031 58.761719 48.882812 57.917969 48.707031 57.367188 C 47.953125 54.988281 47.515625 58.171875 47.507812 66.105469 C 47.5 73.296875 47.640625 74.816406 48.5 77 C 49.75 80.171875 49.75 80.785156 48.5 78.5 L 47.542969 76.75 L 47.519531 85.292969 L 47.5 93.839844 L 48.773438 94.417969 C 50.167969 95.054688 52.589844 95.164062 54.421875 94.671875 C 55.554688 94.367188 55.582031 94.246094 55.265625 90.554688 C 55.089844 88.460938 54.761719 83.527344 54.542969 79.585938 C 54.183594 73.164062 54.03125 72.308594 53.046875 71.335938 C 52.109375 70.410156 51.882812 70.359375 51.507812 71 C 50.199219 73.238281 49.585938 73.515625 50.558594 71.429688 L 51.644531 69.113281 L 52.832031 70.429688 L 54.023438 71.75 L 53.695312 62.25 C 53.515625 57.023438 53.269531 52.636719 53.144531 52.5 C 53.019531 52.363281 52.597656 52.6875 52.210938 53.222656 C 51.292969 54.472656 51.320312 53.621094 52.25 52 C 53.117188 50.480469 53.300781 40.742188 52.46875 40.230469 C 52.175781 40.050781 51.46875 40.316406 50.894531 40.824219 C 49.875 41.734375 49.863281 41.730469 50.398438 40.710938 C 50.699219 40.136719 51.296875 39.378906 51.722656 39.023438 C 52.363281 38.492188 52.507812 38.5 52.535156 39.0625 C 52.554688 39.441406 52.886719 38.886719 53.273438 37.832031 C 54.570312 34.292969 53.042969 28.511719 51.214844 30.03125 C 50.726562 30.433594 50.640625 30.316406 50.847656 29.527344 C 50.996094 28.964844 51.316406 28.5 51.558594 28.5 C 51.800781 28.5 52 28.164062 52 27.75 C 52 26.585938 51.292969 26.859375 50.09375 28.480469 M 51.050781 34.074219 C 50.253906 36.351562 50.410156 37.046875 51.269531 35.066406 C 51.886719 33.652344 52.121094 33.480469 52.75 34 C 53.640625 34.738281 53.765625 33.96875 52.898438 33.101562 C 51.984375 32.183594 51.644531 32.359375 51.050781 34.074219 M 38.9375 36.875 C 38.320312 37.660156 38.335938 37.683594 39.085938 37.097656 C 39.789062 36.546875 40 36.585938 40.445312 37.347656 C 41.023438 38.34375 41.171875 38.023438 40.695312 36.789062 C 40.304688 35.765625 39.785156 35.789062 38.9375 36.875 M 57.492188 45.875 C 57.488281 46.355469 57.363281 47.210938 57.210938 47.773438 C 57.011719 48.519531 57.28125 48.984375 58.21875 49.484375 C 58.921875 49.859375 59.5 50.390625 59.5 50.660156 C 59.5 50.933594 59.050781 50.746094 58.5 50.25 C 57.902344 49.707031 57.5 49.582031 57.5 49.941406 C 57.5 50.945312 59.074219 53.003906 60.445312 53.789062 C 61.578125 54.4375 61.601562 54.496094 60.625 54.234375 C 59.117188 53.828125 59.140625 54.988281 60.675781 56.835938 C 61.320312 57.613281 62 58.867188 62.183594 59.625 C 62.40625 60.53125 62.847656 61 63.480469 61 C 64.007812 61 64.601562 61.261719 64.800781 61.585938 C 65.046875 61.976562 64.890625 62.066406 64.332031 61.851562 C 63.835938 61.660156 63.496094 61.777344 63.492188 62.140625 C 63.476562 63.414062 67.164062 71.5 67.761719 71.5 C 68.109375 71.5 68.921875 71.972656 69.570312 72.554688 L 70.75 73.609375 L 69.375 72.792969 C 68.085938 72.027344 68.003906 72.03125 68.03125 72.863281 C 68.046875 73.351562 69.675781 77.460938 71.65625 82 C 75.15625 90.035156 75.292969 90.253906 76.84375 90.40625 C 78.492188 90.5625 80.515625 89.15625 80.484375 87.875 C 80.476562 87.53125 77.835938 81.960938 74.609375 75.5 C 68.472656 63.195312 67.484375 61.914062 66.566406 65.09375 C 66.304688 66.003906 66.070312 66.367188 66.046875 65.898438 C 65.972656 64.53125 67.121094 62.441406 67.800781 62.699219 C 68.289062 62.886719 68.277344 62.589844 67.761719 61.363281 C 67.398438 60.492188 66.851562 59.699219 66.550781 59.601562 C 66.246094 59.5 66 58.992188 66 58.472656 C 66 57.953125 65.496094 56.488281 64.878906 55.21875 C 63.835938 53.074219 63.730469 52.992188 63.386719 54.078125 C 63.113281 54.941406 63.074219 54.816406 63.246094 53.617188 C 63.378906 52.675781 63.121094 51.199219 62.628906 50.117188 C 61.507812 47.652344 61.523438 47.667969 60.933594 48.515625 C 60.546875 49.074219 60.476562 48.914062 60.644531 47.855469 C 60.828125 46.714844 60.609375 46.324219 59.460938 45.730469 C 57.664062 44.800781 57.5 44.8125 57.492188 45.875 M 20.5 46.28125 C 20.5 46.707031 20.726562 46.917969 21.007812 46.746094 C 21.289062 46.570312 21.386719 46.222656 21.226562 45.964844 C 20.800781 45.273438 20.5 45.402344 20.5 46.28125 M 58.066406 47.375 C 58.128906 48.597656 58.160156 48.621094 58.355469 47.597656 C 58.546875 46.597656 58.691406 46.53125 59.414062 47.097656 C 60.164062 47.683594 60.179688 47.660156 59.5625 46.875 C 58.570312 45.605469 57.988281 45.800781 58.066406 47.375 M 23 50.941406 C 23 51.390625 24.503906 52.164062 24.800781 51.867188 C 24.882812 51.78125 24.515625 51.4375 23.976562 51.101562 C 23.441406 50.765625 23 50.695312 23 50.941406 M 60.539062 51.875 C 60.5625 52.402344 60.679688 52.5 60.832031 52.121094 C 60.972656 51.777344 61.324219 51.640625 61.621094 51.824219 C 61.9375 52.019531 62.007812 51.917969 61.796875 51.578125 C 61.257812 50.703125 60.496094 50.886719 60.539062 51.875 M 35.5 53.5 C 35.792969 54.050781 36.148438 54.5 36.285156 54.5 C 36.421875 54.5 36.292969 54.050781 36 53.5 C 35.707031 52.949219 35.351562 52.5 35.214844 52.5 C 35.078125 52.5 35.207031 52.949219 35.5 53.5 M 62 56.761719 C 62 57.167969 62.300781 57.351562 62.710938 57.195312 C 63.101562 57.046875 63.917969 57.1875 64.523438 57.511719 C 65.125 57.835938 65.480469 57.875 65.3125 57.597656 C 65.140625 57.324219 64.328125 56.863281 63.5 56.574219 C 62.292969 56.152344 62 56.191406 62 56.761719 M 26 56.695312 C 26 56.804688 26.347656 57.027344 26.777344 57.191406 C 27.222656 57.363281 27.421875 57.277344 27.246094 56.996094 C 26.953125 56.519531 26 56.292969 26 56.695312 M 28.984375 63.296875 C 28.699219 64.042969 28.570312 64.898438 28.695312 65.199219 C 28.820312 65.503906 28.9375 65.371094 28.960938 64.910156 C 28.980469 64.449219 29.339844 63.730469 29.753906 63.316406 C 30.222656 62.847656 30.316406 62.445312 30.003906 62.253906 C 29.726562 62.078125 29.265625 62.550781 28.984375 63.296875 "/>
</g>
</svg>
