<?xml version="1.0" encoding="UTF-8"?>
<svg xmlns="http://www.w3.org/2000/svg" xmlns:xlink="http://www.w3.org/1999/xlink" width="24px" height="24px" viewBox="0 0 24 24" version="1.1">
<g id="surface1">
<path style=" stroke:none;fill-rule:evenodd;fill:rgb(0%,0%,0%);fill-opacity:1;" d="M 10.53125 1.570312 C 10.039062 2.214844 9.9375 2.601562 9.878906 4.078125 C 9.851562 4.839844 9.816406 5.683594 9.804688 5.957031 C 9.789062 6.367188 9.761719 6.417969 9.644531 6.257812 C 9.523438 6.09375 9.488281 6.132812 9.40625 6.542969 C 9.355469 6.804688 9.324219 7.105469 9.339844 7.207031 C 9.394531 7.589844 8.570312 12.199219 8.378906 12.570312 C 8.300781 12.722656 8.238281 13.042969 8.242188 13.292969 C 8.246094 13.738281 8.082031 15.164062 7.96875 15.710938 C 7.90625 15.996094 7.902344 15.992188 7.648438 15.589844 C 7.507812 15.363281 7.382812 15.105469 7.367188 15.015625 C 7.351562 14.925781 7.269531 14.691406 7.191406 14.496094 C 7.082031 14.238281 7.015625 14.1875 6.945312 14.300781 C 6.875 14.410156 6.84375 14.355469 6.84375 14.132812 C 6.839844 13.742188 6.359375 12.707031 6.21875 12.792969 C 6.164062 12.824219 6.128906 12.730469 6.136719 12.578125 C 6.160156 12.171875 5.78125 11.371094 5.617188 11.476562 C 5.527344 11.53125 5.503906 11.492188 5.554688 11.363281 C 5.601562 11.238281 5.535156 11.101562 5.367188 10.984375 C 4.984375 10.714844 4.828125 10.757812 4.742188 11.15625 C 4.675781 11.453125 4.722656 11.570312 5 11.824219 C 5.28125 12.082031 5.292969 12.113281 5.070312 12.003906 C 4.75 11.847656 4.726562 11.957031 5 12.363281 C 5.285156 12.789062 5.285156 12.785156 5.378906 12.636719 C 5.433594 12.546875 5.511719 12.601562 5.597656 12.785156 C 5.722656 13.050781 5.714844 13.066406 5.507812 12.953125 C 5.324219 12.855469 5.28125 12.871094 5.28125 13.050781 C 5.28125 13.167969 5.367188 13.394531 5.476562 13.546875 C 5.648438 13.796875 5.6875 13.804688 5.78125 13.632812 C 5.84375 13.527344 5.957031 13.441406 6.035156 13.441406 C 6.140625 13.441406 6.144531 13.464844 6.042969 13.53125 C 5.742188 13.722656 5.859375 14.6875 6.167969 14.570312 C 6.253906 14.535156 6.386719 14.589844 6.46875 14.683594 C 6.589844 14.832031 6.570312 14.851562 6.347656 14.792969 C 6.148438 14.738281 6.097656 14.765625 6.148438 14.890625 C 6.789062 16.457031 7.128906 17.132812 7.253906 17.085938 C 7.335938 17.054688 7.46875 17.109375 7.546875 17.207031 C 7.667969 17.351562 7.652344 17.371094 7.445312 17.316406 C 7.160156 17.242188 7.144531 17.34375 7.378906 17.761719 C 7.472656 17.925781 7.554688 18.238281 7.554688 18.457031 C 7.558594 18.714844 7.605469 18.824219 7.691406 18.773438 C 7.765625 18.726562 7.738281 18.820312 7.636719 18.980469 C 7.382812 19.363281 6.984375 22.390625 7.164062 22.570312 C 7.234375 22.640625 7.511719 22.730469 7.78125 22.765625 C 8.234375 22.824219 8.285156 22.804688 8.398438 22.507812 C 8.464844 22.328125 8.523438 21.824219 8.527344 21.382812 L 8.53125 20.578125 L 8.828125 21.148438 C 9.136719 21.738281 9.257812 21.800781 9.765625 21.605469 C 10.402344 21.363281 10.382812 21.140625 9.558594 19.40625 L 8.792969 17.796875 L 8.957031 16.378906 C 9.046875 15.597656 9.089844 14.929688 9.050781 14.890625 C 9.015625 14.855469 8.878906 14.957031 8.753906 15.121094 C 8.628906 15.285156 8.523438 15.375 8.523438 15.316406 C 8.519531 15.261719 8.671875 15.074219 8.859375 14.898438 C 9.171875 14.601562 9.222656 14.410156 9.589844 12.203125 C 9.804688 10.894531 9.949219 9.679688 9.90625 9.503906 C 9.859375 9.292969 9.871094 9.234375 9.941406 9.34375 C 10.015625 9.453125 10.074219 9.292969 10.132812 8.839844 C 10.179688 8.476562 10.292969 8.113281 10.386719 8.035156 C 10.480469 7.953125 10.558594 7.730469 10.558594 7.53125 C 10.558594 7.222656 10.535156 7.191406 10.378906 7.320312 C 10.21875 7.453125 10.21875 7.433594 10.375 7.132812 C 10.46875 6.949219 10.585938 6.496094 10.628906 6.128906 C 10.671875 5.761719 10.789062 5.367188 10.886719 5.253906 C 11.011719 5.117188 11.042969 4.941406 10.984375 4.714844 C 10.902344 4.394531 10.894531 4.390625 10.730469 4.613281 C 10.53125 4.886719 10.503906 4.769531 10.6875 4.429688 C 10.753906 4.300781 10.855469 4.21875 10.910156 4.253906 C 10.964844 4.289062 11.070312 4.003906 11.144531 3.628906 C 11.226562 3.226562 11.238281 2.925781 11.175781 2.90625 C 11.109375 2.882812 11.113281 2.734375 11.183594 2.542969 C 11.277344 2.292969 11.25 2.097656 11.074219 1.6875 L 10.84375 1.15625 L 10.53125 1.570312 M 10.640625 1.613281 C 10.59375 1.730469 10.628906 1.765625 10.746094 1.722656 C 10.9375 1.648438 10.984375 1.441406 10.8125 1.441406 C 10.753906 1.441406 10.675781 1.519531 10.640625 1.613281 M 10.28125 2.25 C 10.253906 2.300781 10.273438 2.449219 10.328125 2.578125 C 10.410156 2.789062 10.425781 2.777344 10.429688 2.488281 C 10.441406 2.164062 10.382812 2.074219 10.28125 2.25 M 10.800781 2.242188 C 10.804688 2.296875 10.855469 2.421875 10.921875 2.519531 C 11.019531 2.675781 11.035156 2.671875 11.039062 2.496094 C 11.039062 2.386719 10.984375 2.261719 10.921875 2.21875 C 10.855469 2.179688 10.800781 2.191406 10.800781 2.242188 M 10.441406 3.007812 C 10.441406 3.078125 10.492188 3.101562 10.558594 3.058594 C 10.625 3.019531 10.679688 2.960938 10.679688 2.933594 C 10.679688 2.902344 10.625 2.878906 10.558594 2.878906 C 10.492188 2.878906 10.441406 2.9375 10.441406 3.007812 M 10.082031 3.484375 C 10.152344 3.617188 10.171875 3.785156 10.128906 3.859375 C 10.074219 3.945312 10.097656 3.964844 10.179688 3.910156 C 10.257812 3.863281 10.320312 3.890625 10.320312 3.972656 C 10.320312 4.054688 10.351562 4.089844 10.390625 4.050781 C 10.460938 3.980469 10.117188 3.238281 10.011719 3.238281 C 9.980469 3.238281 10.011719 3.347656 10.082031 3.484375 M 10.367188 5.1875 C 10.230469 5.351562 10.214844 5.398438 10.332031 5.308594 C 10.4375 5.226562 10.558594 5.199219 10.601562 5.242188 C 10.644531 5.285156 10.679688 5.230469 10.679688 5.121094 C 10.679688 4.859375 10.640625 4.867188 10.367188 5.1875 M 12.023438 6.835938 C 11.746094 7.207031 11.683594 7.378906 11.867188 7.269531 C 11.925781 7.230469 12.011719 7.394531 12.054688 7.632812 C 12.15625 8.175781 12.058594 8.308594 11.949219 7.773438 L 11.867188 7.378906 L 11.574219 7.714844 C 11.21875 8.125 11.191406 8.585938 11.515625 8.757812 C 11.648438 8.828125 11.816406 9.003906 11.894531 9.152344 C 12.027344 9.410156 12.023438 9.410156 11.714844 9.128906 L 11.398438 8.839844 L 11.398438 9.203125 C 11.398438 9.402344 11.507812 9.703125 11.640625 9.871094 C 11.773438 10.039062 11.875 10.277344 11.871094 10.398438 C 11.863281 10.550781 11.824219 10.519531 11.742188 10.289062 C 11.546875 9.753906 11.398438 9.910156 11.40625 10.648438 L 11.410156 11.339844 L 11.746094 10.945312 L 12.085938 10.550781 L 12.261719 10.824219 C 12.589844 11.335938 12.617188 11.460938 12.335938 11.132812 L 12.054688 10.804688 L 11.726562 11.214844 C 11.441406 11.578125 11.398438 11.730469 11.398438 12.480469 C 11.398438 12.949219 11.441406 13.308594 11.492188 13.277344 C 11.542969 13.246094 11.730469 13.492188 11.90625 13.824219 C 12.164062 14.300781 12.179688 14.382812 11.996094 14.21875 C 11.871094 14.101562 11.730469 13.898438 11.691406 13.769531 C 11.507812 13.195312 11.402344 13.960938 11.402344 15.867188 C 11.398438 17.589844 11.433594 17.957031 11.640625 18.480469 C 11.941406 19.242188 11.941406 19.386719 11.640625 18.839844 L 11.410156 18.421875 L 11.40625 20.46875 L 11.398438 22.519531 L 11.707031 22.660156 C 12.039062 22.8125 12.621094 22.839844 13.0625 22.722656 C 13.332031 22.648438 13.339844 22.617188 13.265625 21.734375 C 13.222656 21.230469 13.144531 20.046875 13.089844 19.101562 C 13.003906 17.558594 12.96875 17.355469 12.730469 17.121094 C 12.507812 16.898438 12.453125 16.886719 12.363281 17.039062 C 12.046875 17.578125 11.902344 17.644531 12.132812 17.144531 L 12.394531 16.585938 L 12.964844 17.21875 L 12.886719 14.941406 C 12.84375 13.6875 12.785156 12.632812 12.753906 12.601562 C 12.726562 12.566406 12.625 12.644531 12.53125 12.773438 C 12.308594 13.074219 12.316406 12.871094 12.539062 12.480469 C 12.75 12.117188 12.792969 9.777344 12.59375 9.65625 C 12.523438 9.613281 12.351562 9.675781 12.214844 9.796875 C 11.96875 10.015625 11.96875 10.015625 12.097656 9.769531 C 12.167969 9.632812 12.3125 9.449219 12.414062 9.367188 C 12.566406 9.238281 12.601562 9.238281 12.609375 9.375 C 12.613281 9.464844 12.691406 9.332031 12.785156 9.078125 C 13.097656 8.230469 12.730469 6.84375 12.292969 7.207031 C 12.175781 7.304688 12.152344 7.277344 12.203125 7.085938 C 12.238281 6.949219 12.316406 6.839844 12.375 6.839844 C 12.433594 6.839844 12.480469 6.757812 12.480469 6.660156 C 12.480469 6.382812 12.308594 6.445312 12.023438 6.835938 M 12.25 8.179688 C 12.0625 8.722656 12.097656 8.890625 12.304688 8.414062 C 12.453125 8.074219 12.507812 8.035156 12.660156 8.160156 C 12.875 8.335938 12.902344 8.152344 12.695312 7.945312 C 12.476562 7.722656 12.394531 7.765625 12.25 8.179688 M 9.34375 8.851562 C 9.195312 9.039062 9.199219 9.042969 9.378906 8.902344 C 9.550781 8.769531 9.601562 8.78125 9.707031 8.964844 C 9.847656 9.203125 9.878906 9.125 9.765625 8.828125 C 9.671875 8.582031 9.550781 8.589844 9.34375 8.851562 M 13.796875 11.011719 C 13.796875 11.125 13.765625 11.332031 13.730469 11.464844 C 13.683594 11.644531 13.746094 11.753906 13.972656 11.875 C 14.140625 11.964844 14.28125 12.09375 14.28125 12.160156 C 14.28125 12.222656 14.171875 12.179688 14.039062 12.058594 C 13.894531 11.929688 13.800781 11.898438 13.800781 11.984375 C 13.800781 12.226562 14.179688 12.722656 14.507812 12.910156 C 14.777344 13.066406 14.785156 13.078125 14.550781 13.015625 C 14.1875 12.917969 14.195312 13.195312 14.5625 13.640625 C 14.714844 13.828125 14.878906 14.128906 14.925781 14.308594 C 14.976562 14.527344 15.082031 14.640625 15.234375 14.640625 C 15.363281 14.640625 15.503906 14.703125 15.550781 14.78125 C 15.609375 14.875 15.574219 14.894531 15.441406 14.84375 C 15.320312 14.796875 15.238281 14.828125 15.238281 14.914062 C 15.234375 15.21875 16.121094 17.160156 16.261719 17.160156 C 16.347656 17.160156 16.539062 17.273438 16.695312 17.414062 L 16.980469 17.667969 L 16.648438 17.46875 C 16.339844 17.285156 16.320312 17.289062 16.328125 17.488281 C 16.332031 17.605469 16.722656 18.589844 17.195312 19.679688 C 18.039062 21.609375 18.070312 21.660156 18.441406 21.695312 C 18.835938 21.734375 19.324219 21.398438 19.316406 21.089844 C 19.316406 21.007812 18.679688 19.671875 17.90625 18.121094 C 16.433594 15.167969 16.195312 14.859375 15.976562 15.621094 C 15.914062 15.839844 15.855469 15.929688 15.851562 15.816406 C 15.832031 15.488281 16.109375 14.984375 16.273438 15.046875 C 16.390625 15.09375 16.386719 15.019531 16.261719 14.726562 C 16.175781 14.519531 16.042969 14.328125 15.972656 14.304688 C 15.898438 14.28125 15.839844 14.15625 15.839844 14.03125 C 15.839844 13.910156 15.71875 13.558594 15.570312 13.253906 C 15.320312 12.738281 15.296875 12.71875 15.210938 12.980469 C 15.148438 13.1875 15.136719 13.15625 15.179688 12.867188 C 15.210938 12.640625 15.148438 12.289062 15.03125 12.027344 C 14.761719 11.4375 14.765625 11.441406 14.625 11.644531 C 14.53125 11.777344 14.515625 11.738281 14.554688 11.484375 C 14.597656 11.210938 14.546875 11.117188 14.269531 10.976562 C 13.839844 10.753906 13.800781 10.753906 13.796875 11.011719 M 4.921875 11.105469 C 4.921875 11.210938 4.976562 11.261719 5.042969 11.21875 C 5.109375 11.175781 5.132812 11.09375 5.09375 11.03125 C 4.992188 10.867188 4.921875 10.894531 4.921875 11.105469 M 13.9375 11.371094 C 13.949219 11.664062 13.957031 11.667969 14.003906 11.421875 C 14.050781 11.183594 14.085938 11.167969 14.257812 11.304688 C 14.4375 11.445312 14.441406 11.4375 14.296875 11.25 C 14.054688 10.945312 13.917969 10.992188 13.9375 11.371094 M 5.519531 12.226562 C 5.519531 12.332031 5.878906 12.519531 5.953125 12.449219 C 5.972656 12.425781 5.882812 12.34375 5.753906 12.265625 C 5.625 12.183594 5.519531 12.167969 5.519531 12.226562 M 14.53125 12.449219 C 14.535156 12.578125 14.5625 12.601562 14.601562 12.507812 C 14.632812 12.425781 14.71875 12.394531 14.789062 12.4375 C 14.863281 12.484375 14.882812 12.460938 14.832031 12.378906 C 14.703125 12.167969 14.519531 12.210938 14.53125 12.449219 M 8.519531 12.839844 C 8.589844 12.972656 8.675781 13.078125 8.707031 13.078125 C 8.742188 13.078125 8.710938 12.972656 8.640625 12.839844 C 8.570312 12.707031 8.484375 12.601562 8.453125 12.601562 C 8.417969 12.601562 8.449219 12.707031 8.519531 12.839844 M 14.878906 13.621094 C 14.878906 13.71875 14.953125 13.765625 15.050781 13.726562 C 15.144531 13.691406 15.339844 13.726562 15.484375 13.804688 C 15.628906 13.878906 15.714844 13.890625 15.675781 13.824219 C 15.632812 13.757812 15.4375 13.648438 15.242188 13.578125 C 14.949219 13.476562 14.878906 13.484375 14.878906 13.621094 M 6.238281 13.605469 C 6.238281 13.632812 6.324219 13.6875 6.425781 13.726562 C 6.53125 13.765625 6.582031 13.746094 6.539062 13.679688 C 6.46875 13.566406 6.238281 13.511719 6.238281 13.605469 M 6.957031 15.191406 C 6.886719 15.371094 6.855469 15.574219 6.886719 15.648438 C 6.917969 15.722656 6.945312 15.6875 6.949219 15.578125 C 6.957031 15.46875 7.042969 15.296875 7.140625 15.195312 C 7.253906 15.082031 7.277344 14.988281 7.199219 14.941406 C 7.132812 14.898438 7.023438 15.011719 6.957031 15.191406 "/>
</g>
</svg>
