<?xml version="1.0" encoding="UTF-8"?>
<svg xmlns="http://www.w3.org/2000/svg" xmlns:xlink="http://www.w3.org/1999/xlink" width="24px" height="24px" viewBox="0 0 24 24" version="1.1">
<g id="surface1">
<path style=" stroke:none;fill-rule:evenodd;fill:rgb(0%,0%,0%);fill-opacity:1;" d="M 10.714844 3.902344 C 9.972656 4.664062 9.132812 5.914062 9.035156 6.390625 C 8.992188 6.601562 8.878906 6.742188 8.714844 6.773438 C 8.574219 6.800781 7.957031 6.910156 7.34375 7.015625 C 4.835938 7.445312 3.179688 8.335938 1.273438 10.289062 C -0.0234375 11.613281 -0.195312 11.996094 0.175781 12.710938 C 0.363281 13.078125 3.515625 15.71875 3.765625 15.71875 C 4.058594 15.71875 5.054688 14.964844 5.460938 14.433594 C 6.179688 13.492188 6.40625 12.726562 6.414062 11.195312 C 6.417969 9.925781 6.429688 9.875 6.582031 10.296875 C 6.671875 10.539062 6.773438 11.230469 6.808594 11.828125 C 6.902344 13.484375 6.476562 14.742188 5.441406 15.847656 L 4.902344 16.421875 L 5.359375 16.554688 C 5.613281 16.628906 6.144531 16.71875 6.539062 16.757812 L 7.261719 16.828125 L 8.128906 17.9375 C 8.972656 19.019531 9.597656 20.125 9.597656 20.550781 C 9.601562 20.875 9.796875 20.800781 10.144531 20.34375 C 10.535156 19.832031 10.800781 18.980469 10.800781 18.230469 C 10.800781 17.675781 10.785156 17.65625 10.351562 17.511719 C 9.804688 17.335938 9.554688 17.15625 9.6875 17.023438 C 9.742188 16.972656 10.566406 16.867188 11.523438 16.792969 C 12.476562 16.71875 13.484375 16.617188 13.757812 16.566406 C 14.25 16.476562 14.261719 16.484375 14.699219 17.054688 C 14.941406 17.371094 15.335938 17.804688 15.574219 18.015625 C 16.019531 18.40625 17.246094 19.03125 17.355469 18.925781 C 17.386719 18.890625 17.351562 18.523438 17.277344 18.101562 C 17.199219 17.683594 17.132812 16.921875 17.128906 16.410156 C 17.117188 15.527344 17.105469 15.480469 16.847656 15.480469 C 16.421875 15.480469 15.960938 15.261719 15.960938 15.0625 C 15.960938 14.785156 16.902344 14.160156 17.316406 14.160156 C 17.542969 14.160156 18.304688 14.503906 19.328125 15.0625 C 21.242188 16.113281 22.695312 16.679688 23.476562 16.679688 L 24.027344 16.679688 L 23.613281 16.171875 C 22.007812 14.199219 21.691406 13.519531 21.703125 12.09375 C 21.714844 10.96875 22.109375 9.855469 22.953125 8.546875 C 23.273438 8.054688 23.449219 7.679688 23.359375 7.679688 C 22.835938 7.679688 19.683594 9.539062 18.480469 10.554688 L 18.058594 10.910156 L 17.160156 10.726562 C 16.027344 10.492188 15.667969 10.324219 15.625 10.003906 C 15.578125 9.6875 16.222656 9.121094 16.632812 9.121094 L 16.925781 9.121094 L 16.679688 8.644531 C 16.003906 7.3125 12.191406 3.238281 11.625 3.238281 C 11.453125 3.238281 11.117188 3.484375 10.714844 3.902344 M 2.453125 10.613281 C 1.8125 11.257812 2.300781 12.359375 3.226562 12.359375 C 3.582031 12.359375 4.070312 11.875 4.152344 11.433594 C 4.214844 11.113281 4.167969 10.988281 3.863281 10.683594 C 3.402344 10.222656 2.871094 10.195312 2.453125 10.613281 "/>
</g>
</svg>
