<?xml version="1.0" encoding="UTF-8"?>
<svg xmlns="http://www.w3.org/2000/svg" xmlns:xlink="http://www.w3.org/1999/xlink" width="100px" height="100px" viewBox="0 0 100 100" version="1.1">
<g id="surface1">
<path style=" stroke:none;fill-rule:evenodd;fill:rgb(0%,0%,0%);fill-opacity:1;" d="M 44.640625 16.253906 C 41.550781 19.441406 38.054688 24.632812 37.652344 26.632812 C 37.472656 27.511719 36.988281 28.089844 36.3125 28.222656 C 35.726562 28.339844 33.15625 28.792969 30.601562 29.230469 C 20.140625 31.023438 13.25 34.738281 5.308594 42.871094 C -0.0898438 48.394531 -0.8125 49.980469 0.726562 52.957031 C 1.519531 54.488281 14.65625 65.5 15.691406 65.5 C 16.917969 65.5 21.070312 62.351562 22.757812 60.136719 C 25.75 56.21875 26.6875 53.023438 26.722656 46.648438 C 26.75 41.351562 26.785156 41.148438 27.421875 42.898438 C 27.792969 43.917969 28.214844 46.789062 28.363281 49.28125 C 28.765625 56.1875 26.988281 61.417969 22.667969 66.039062 L 20.425781 68.433594 L 22.339844 68.980469 C 23.390625 69.28125 25.601562 69.660156 27.25 69.824219 L 30.25 70.121094 L 33.867188 74.746094 C 37.390625 79.25 39.984375 83.855469 39.996094 85.625 C 40.003906 86.976562 40.820312 86.667969 42.265625 84.773438 C 43.902344 82.628906 45 79.089844 45 75.960938 C 45 73.648438 44.945312 73.558594 43.125 72.972656 C 40.851562 72.242188 39.820312 71.480469 40.363281 70.9375 C 40.585938 70.714844 44.023438 70.28125 48.007812 69.972656 C 51.992188 69.660156 56.183594 69.238281 57.328125 69.027344 C 59.378906 68.652344 59.429688 68.679688 61.246094 71.058594 C 62.257812 72.386719 63.902344 74.1875 64.894531 75.058594 C 66.746094 76.683594 71.863281 79.300781 72.3125 78.851562 C 72.449219 78.714844 72.304688 77.175781 71.988281 75.425781 C 71.667969 73.679688 71.390625 70.507812 71.367188 68.375 C 71.328125 64.695312 71.269531 64.5 70.195312 64.5 C 68.421875 64.5 66.5 63.597656 66.5 62.765625 C 66.5 61.609375 70.421875 59 72.15625 59 C 73.089844 59 76.269531 60.429688 80.527344 62.765625 C 88.511719 67.144531 94.5625 69.5 97.824219 69.5 L 100.121094 69.5 L 98.386719 67.375 C 91.699219 59.167969 90.375 56.339844 90.433594 50.382812 C 90.484375 45.699219 92.117188 41.0625 95.640625 35.613281 C 96.972656 33.554688 97.703125 32 97.339844 32 C 95.15625 32 82.019531 39.738281 77 43.984375 L 75.25 45.464844 L 71.5 44.691406 C 66.785156 43.71875 65.289062 43.019531 65.097656 41.6875 C 64.90625 40.355469 67.59375 38 69.296875 38 L 70.519531 38 L 69.503906 36.011719 C 66.679688 30.46875 50.796875 13.5 48.4375 13.5 C 47.722656 13.5 46.328125 14.511719 44.640625 16.253906 M 10.226562 44.226562 C 7.554688 46.898438 9.585938 51.5 13.4375 51.5 C 14.925781 51.5 16.957031 49.476562 17.308594 47.644531 C 17.566406 46.304688 17.367188 45.789062 16.097656 44.519531 C 14.171875 42.59375 11.96875 42.484375 10.226562 44.226562 "/>
</g>
</svg>
