<?xml version="1.0" encoding="UTF-8"?>
<svg xmlns="http://www.w3.org/2000/svg" xmlns:xlink="http://www.w3.org/1999/xlink" width="24px" height="24px" viewBox="0 0 24 24" version="1.1">
<g id="surface1">
<path style=" stroke:none;fill-rule:evenodd;fill:rgb(0%,0%,0%);fill-opacity:1;" d="M 11.328125 1.070312 C 10.660156 1.371094 10.289062 1.925781 10.222656 2.707031 L 10.171875 3.335938 L 9.667969 3.414062 C 8.902344 3.527344 7.800781 4.109375 7.234375 4.695312 C 6.171875 5.800781 5.964844 6.710938 5.804688 10.921875 C 5.667969 14.664062 5.898438 15.296875 8.769531 19.082031 C 9.347656 19.839844 10.347656 21.078125 10.992188 21.832031 L 12.164062 23.207031 L 12.691406 22.613281 C 13.800781 21.371094 16.1875 18.328125 16.96875 17.160156 C 18.023438 15.582031 18.324219 14.898438 18.492188 13.734375 C 18.734375 12.027344 18.425781 7.222656 18 6.089844 C 17.519531 4.800781 16.246094 3.742188 14.851562 3.464844 L 14.160156 3.328125 L 14.15625 2.835938 C 14.15625 2.132812 13.734375 1.457031 13.089844 1.117188 C 12.457031 0.785156 11.984375 0.769531 11.328125 1.070312 M 8.484375 7.324219 C 8.171875 7.570312 8.160156 7.617188 8.160156 8.769531 C 8.160156 10.558594 7.875 10.441406 12.160156 10.441406 L 15.679688 10.441406 L 15.9375 10.164062 C 16.167969 9.917969 16.199219 9.75 16.199219 8.796875 C 16.199219 7.902344 16.160156 7.65625 15.972656 7.421875 L 15.742188 7.140625 L 12.273438 7.105469 C 8.898438 7.070312 8.796875 7.078125 8.484375 7.324219 M 9.65625 8.402344 C 9.339844 8.753906 9.535156 9.285156 10 9.339844 C 10.433594 9.390625 10.679688 9.175781 10.679688 8.75 C 10.679688 8.183594 10.046875 7.96875 9.65625 8.402344 M 13.898438 8.308594 C 13.613281 8.542969 13.5625 8.828125 13.753906 9.105469 C 13.964844 9.40625 14.425781 9.4375 14.691406 9.171875 C 14.929688 8.933594 14.929688 8.761719 14.691406 8.425781 C 14.484375 8.128906 14.179688 8.085938 13.898438 8.308594 "/>
</g>
</svg>
