<?xml version="1.0" encoding="UTF-8"?>
<svg xmlns="http://www.w3.org/2000/svg" xmlns:xlink="http://www.w3.org/1999/xlink" width="100px" height="100px" viewBox="0 0 100 100" version="1.1">
<g id="surface1">
<path style=" stroke:none;fill-rule:evenodd;fill:rgb(0%,0%,0%);fill-opacity:1;" d="M 47.199219 4.453125 C 44.425781 5.714844 42.871094 8.019531 42.601562 11.28125 L 42.382812 13.902344 L 40.28125 14.21875 C 37.101562 14.695312 32.5 17.125 30.152344 19.566406 C 25.714844 24.179688 24.847656 27.957031 24.195312 45.5 C 23.613281 61.09375 24.570312 63.730469 36.542969 79.503906 C 38.945312 82.667969 43.109375 87.832031 45.792969 90.972656 L 50.679688 96.6875 L 52.886719 94.21875 C 57.503906 89.054688 67.449219 76.367188 70.699219 71.5 C 75.09375 64.925781 76.359375 62.078125 77.046875 57.222656 C 78.054688 50.121094 76.769531 30.09375 75 25.367188 C 72.992188 20.003906 67.699219 15.59375 61.875 14.441406 L 59 13.871094 L 58.992188 11.808594 C 58.980469 8.894531 57.226562 6.078125 54.546875 4.664062 C 51.898438 3.265625 49.9375 3.210938 47.199219 4.453125 M 35.34375 30.515625 C 34.046875 31.535156 34 31.746094 34 36.535156 C 34 44 32.808594 43.5 50.664062 43.5 L 65.324219 43.5 L 66.414062 42.34375 C 67.363281 41.328125 67.5 40.617188 67.5 36.648438 C 67.5 32.925781 67.328125 31.898438 66.546875 30.929688 L 65.589844 29.75 L 51.140625 29.605469 C 37.070312 29.460938 36.652344 29.484375 35.34375 30.515625 M 40.238281 35.015625 C 38.917969 36.46875 39.734375 38.6875 41.664062 38.910156 C 43.476562 39.121094 44.5 38.234375 44.5 36.457031 C 44.5 34.101562 41.867188 33.210938 40.238281 35.015625 M 57.914062 34.625 C 56.71875 35.589844 56.503906 36.78125 57.316406 37.941406 C 58.191406 39.191406 60.105469 39.324219 61.214844 38.214844 C 62.203125 37.226562 62.203125 36.515625 61.222656 35.113281 C 60.351562 33.871094 59.082031 33.683594 57.914062 34.625 "/>
</g>
</svg>
