<?xml version="1.0" encoding="UTF-8"?>
<svg xmlns="http://www.w3.org/2000/svg" xmlns:xlink="http://www.w3.org/1999/xlink" width="24px" height="24px" viewBox="0 0 24 24" version="1.1">
<g id="surface1">
<path style=" stroke:none;fill-rule:evenodd;fill:rgb(0%,0%,0%);fill-opacity:1;" d="M 4.136719 1.691406 C 4.074219 1.886719 4.121094 2.007812 4.300781 2.148438 C 4.777344 2.515625 5.25 4.894531 4.890625 5.117188 C 4.617188 5.289062 1.667969 5.171875 1.277344 4.976562 C 0.816406 4.746094 0.480469 4.851562 0.480469 5.21875 C 0.480469 5.523438 0.628906 5.597656 1.320312 5.628906 C 1.855469 5.652344 3.527344 6.050781 4.089844 6.285156 C 4.628906 6.511719 4.757812 6.667969 4.859375 7.21875 C 4.921875 7.550781 5.195312 7.914062 6.039062 8.777344 C 7.261719 10.027344 8.023438 11.308594 8.53125 12.960938 C 8.847656 13.988281 9.078125 14.300781 9.777344 14.640625 C 10.265625 14.875 10.316406 14.875 11.992188 14.691406 C 12.933594 14.589844 13.78125 14.53125 13.871094 14.566406 C 14.089844 14.652344 14.371094 14.214844 14.644531 13.351562 L 14.867188 12.660156 L 14.875 13.324219 C 14.878906 13.785156 14.796875 14.152344 14.609375 14.523438 L 14.339844 15.058594 L 12.242188 15.140625 C 9.914062 15.226562 9.753906 15.195312 9.183594 14.492188 L 8.863281 14.101562 L 8.945312 14.519531 C 9.085938 15.242188 9.617188 16.835938 9.902344 17.402344 C 10.410156 18.410156 11.253906 19.398438 12.089844 19.960938 C 13.585938 20.972656 14.949219 21.253906 18.226562 21.226562 C 19.386719 21.21875 20.503906 21.253906 20.699219 21.304688 C 21.289062 21.453125 21.972656 21.839844 22.324219 22.222656 C 22.976562 22.9375 23.457031 22.371094 23.457031 20.878906 C 23.457031 20.15625 23.394531 19.847656 23.140625 19.300781 C 22.757812 18.480469 22.035156 17.671875 21.230469 17.152344 C 20.511719 16.691406 19.015625 16.199219 18.324219 16.199219 C 17.535156 16.199219 16.953125 15.984375 16.496094 15.527344 C 15.820312 14.851562 14.878906 12.78125 14.878906 11.96875 C 14.878906 11.515625 14.089844 10.007812 13.316406 8.980469 C 11.863281 7.046875 8.609375 4.558594 7.53125 4.558594 C 7.070312 4.558594 6.253906 4.898438 5.84375 5.257812 C 5.671875 5.40625 5.644531 5.410156 5.699219 5.273438 C 5.761719 5.117188 6.273438 4.695312 6.714844 4.4375 C 6.855469 4.355469 6.753906 4.191406 6.230469 3.636719 C 5.335938 2.695312 4.949219 2.160156 4.902344 1.800781 C 4.84375 1.382812 4.261719 1.300781 4.136719 1.691406 M 2.910156 6.871094 C 2.59375 7.03125 2.398438 7.210938 2.398438 7.34375 C 2.398438 7.585938 2.8125 7.648438 2.949219 7.425781 C 3.003906 7.335938 3.269531 7.3125 3.738281 7.363281 C 4.410156 7.433594 4.441406 7.425781 4.441406 7.164062 C 4.441406 6.554688 3.789062 6.429688 2.910156 6.871094 M 11.527344 7.925781 C 12.476562 9.046875 12.648438 9.316406 13.378906 10.789062 C 13.742188 11.523438 14.085938 12.121094 14.144531 12.121094 C 14.367188 12.121094 14.402344 11.515625 14.207031 11.128906 C 13.542969 9.828125 12.101562 8.027344 11.238281 7.410156 C 10.953125 7.207031 11.019531 7.324219 11.527344 7.925781 M 7.828125 8.382812 C 8.652344 9.308594 9.453125 10.5625 9.902344 11.628906 C 10.710938 13.546875 11.054688 14.039062 11.578125 14.039062 C 11.816406 14.039062 11.878906 13.980469 11.878906 13.753906 C 11.878906 12.882812 9.484375 9.605469 7.867188 8.25 L 7.261719 7.746094 L 7.828125 8.382812 "/>
</g>
</svg>
