<?xml version="1.0" encoding="UTF-8"?>
<svg xmlns="http://www.w3.org/2000/svg" xmlns:xlink="http://www.w3.org/1999/xlink" width="100px" height="100px" viewBox="0 0 100 100" version="1.1">
<g id="surface1">
<path style=" stroke:none;fill-rule:evenodd;fill:rgb(0%,0%,0%);fill-opacity:1;" d="M 17.234375 7.050781 C 16.976562 7.855469 17.164062 8.375 17.914062 8.953125 C 19.902344 10.488281 21.875 20.402344 20.375 21.328125 C 19.234375 22.03125 6.953125 21.550781 5.316406 20.734375 C 3.40625 19.78125 2 20.210938 2 21.75 C 2 23.019531 2.625 23.324219 5.5 23.449219 C 7.730469 23.550781 14.703125 25.203125 17.039062 26.1875 C 19.28125 27.132812 19.824219 27.789062 20.25 30.070312 C 20.511719 31.46875 21.652344 32.976562 25.171875 36.574219 C 30.257812 41.777344 33.433594 47.113281 35.546875 54 C 36.863281 58.289062 37.824219 59.582031 40.746094 60.996094 C 42.777344 61.980469 42.992188 61.988281 49.964844 61.21875 C 53.890625 60.785156 57.417969 60.554688 57.800781 60.699219 C 58.714844 61.050781 59.875 59.226562 61.023438 55.636719 L 61.945312 52.75 L 61.972656 55.519531 C 61.992188 57.4375 61.65625 58.972656 60.875 60.519531 L 59.75 62.75 L 51.015625 63.082031 C 41.3125 63.449219 40.632812 63.304688 38.257812 60.386719 L 36.929688 58.75 L 37.273438 60.5 C 37.863281 63.507812 40.066406 70.148438 41.257812 72.507812 C 43.382812 76.714844 46.898438 80.824219 50.378906 83.175781 C 56.609375 87.378906 62.28125 88.550781 75.941406 88.453125 C 80.785156 88.417969 85.425781 88.558594 86.25 88.765625 C 88.703125 89.382812 91.550781 90.992188 93.011719 92.59375 C 95.738281 95.578125 97.734375 93.214844 97.742188 87 C 97.742188 83.984375 97.484375 82.695312 96.417969 80.414062 C 94.824219 77.007812 91.816406 73.628906 88.457031 71.472656 C 85.460938 69.550781 79.222656 67.5 76.355469 67.496094 C 73.066406 67.492188 70.632812 66.601562 68.738281 64.703125 C 65.917969 61.882812 62 53.261719 62 49.871094 C 62 47.988281 58.714844 41.699219 55.488281 37.414062 C 49.433594 29.363281 35.863281 19 31.382812 19 C 29.464844 19 26.054688 20.410156 24.351562 21.90625 C 23.640625 22.535156 23.515625 22.546875 23.746094 21.972656 C 24.011719 21.316406 26.132812 19.570312 27.980469 18.488281 C 28.558594 18.148438 28.136719 17.457031 25.960938 15.15625 C 22.242188 11.226562 20.625 8.992188 20.421875 7.5 C 20.183594 5.765625 17.75 5.421875 17.234375 7.050781 M 12.125 28.628906 C 10.804688 29.292969 10 30.039062 10 30.597656 C 10 31.605469 11.71875 31.859375 12.289062 30.9375 C 12.519531 30.5625 13.625 30.476562 15.570312 30.679688 C 18.378906 30.972656 18.5 30.9375 18.5 29.84375 C 18.5 27.308594 15.78125 26.792969 12.125 28.628906 M 48.027344 33.015625 C 51.988281 37.695312 52.710938 38.8125 55.75 44.960938 C 57.261719 48.007812 58.695312 50.5 58.941406 50.5 C 59.863281 50.5 60.015625 47.980469 59.191406 46.371094 C 56.425781 40.953125 50.429688 33.441406 46.828125 30.878906 C 45.640625 30.03125 45.914062 30.523438 48.027344 33.015625 M 32.617188 34.929688 C 36.050781 38.789062 39.382812 44.003906 41.261719 48.457031 C 44.632812 56.453125 46.058594 58.5 48.25 58.5 C 49.234375 58.5 49.5 58.246094 49.5 57.300781 C 49.5 53.6875 39.527344 40.015625 32.777344 34.378906 L 30.25 32.269531 L 32.617188 34.929688 "/>
</g>
</svg>
