<?xml version="1.0" encoding="UTF-8"?>
<svg xmlns="http://www.w3.org/2000/svg" xmlns:xlink="http://www.w3.org/1999/xlink" width="24px" height="24px" viewBox="0 0 24 24" version="1.1">
<g id="surface1">
<path style=" stroke:none;fill-rule:nonzero;fill:rgb(0%,0%,0%);fill-opacity:1;" d="M 3.4375 19.113281 C 3.023438 18.871094 3.261719 17.816406 3.726562 17.703125 C 5.488281 17.269531 9.742188 16.296875 11.875 14.261719 C 13.613281 12.601562 14.074219 9.972656 14.988281 7.746094 C 15.113281 7.441406 15.308594 7.136719 15.3125 6.804688 C 15.320312 6.019531 14.667969 5.34375 14.589844 4.5625 C 14.535156 4.03125 14.167969 3.761719 14.769531 2.96875 C 15.429688 2.097656 15.757812 2.988281 16.035156 3.402344 C 16.207031 3.65625 16.109375 4.003906 16.144531 4.308594 C 16.171875 4.535156 16.15625 4.773438 16.21875 4.996094 C 16.363281 5.519531 16.632812 6.007812 16.90625 6.480469 C 17.324219 7.207031 18.25 7.710938 18.351562 8.542969 C 18.714844 11.464844 17.164062 14.597656 15.203125 16.796875 C 13.394531 18.828125 9.898438 20.5 7.964844 20.5625 C 6.386719 20.613281 4.851562 19.9375 3.4375 19.113281 Z M 3.4375 19.113281 "/>
</g>
</svg>
