<?xml version="1.0" encoding="UTF-8"?>
<svg xmlns="http://www.w3.org/2000/svg" xmlns:xlink="http://www.w3.org/1999/xlink" width="100px" height="100px" viewBox="0 0 100 100" version="1.1">
<g id="surface1">
<path style=" stroke:none;fill-rule:nonzero;fill:rgb(0%,0%,0%);fill-opacity:1;" d="M 14.328125 79.636719 C 12.601562 78.628906 13.589844 74.234375 15.535156 73.753906 C 22.867188 71.953125 40.589844 67.90625 49.472656 59.425781 C 56.726562 52.5 58.636719 41.554688 62.445312 32.277344 C 62.96875 30.996094 63.785156 29.738281 63.800781 28.355469 C 63.835938 25.082031 61.109375 22.261719 60.785156 19.003906 C 60.5625 16.789062 59.03125 15.671875 61.539062 12.367188 C 64.289062 8.742188 65.664062 12.460938 66.816406 14.179688 C 67.523438 15.230469 67.128906 16.691406 67.269531 17.949219 C 67.378906 18.902344 67.316406 19.886719 67.570312 20.816406 C 68.175781 23.003906 69.304688 25.03125 70.4375 27 C 72.1875 30.03125 76.039062 32.121094 76.46875 35.597656 C 77.984375 47.769531 71.511719 60.824219 63.347656 69.984375 C 55.808594 78.445312 41.246094 85.414062 33.183594 85.671875 C 26.605469 85.882812 20.214844 83.078125 14.328125 79.636719 Z M 14.328125 79.636719 "/>
</g>
</svg>
