<?xml version="1.0" encoding="UTF-8"?>
<svg xmlns="http://www.w3.org/2000/svg" xmlns:xlink="http://www.w3.org/1999/xlink" width="24px" height="24px" viewBox="0 0 24 24" version="1.1">
<g id="surface1">
<path style=" stroke:none;fill-rule:evenodd;fill:rgb(0%,0%,0%);fill-opacity:1;" d="M 4.101562 1.238281 L 3.839844 1.515625 L 3.839844 22.039062 L 4.117188 22.300781 L 4.394531 22.558594 L 19.636719 22.558594 L 20.160156 22.003906 L 20.160156 7.679688 L 17.039062 7.679688 C 14.078125 7.679688 13.90625 7.667969 13.679688 7.441406 C 13.453125 7.210938 13.441406 7.039062 13.441406 4.078125 L 13.441406 0.960938 L 4.363281 0.960938 L 4.101562 1.238281 M 14.398438 3.675781 C 14.398438 5.882812 14.433594 6.480469 14.566406 6.585938 C 14.679688 6.683594 15.542969 6.714844 17.445312 6.691406 L 20.164062 6.660156 L 14.398438 0.902344 L 14.398438 3.675781 M 15.921875 10.777344 C 15.738281 10.980469 15.765625 11.035156 16.421875 11.679688 C 17.089844 12.34375 17.121094 12.359375 17.316406 12.144531 C 17.628906 11.800781 17.5625 11.488281 17.066406 11.003906 C 16.5625 10.515625 16.21875 10.445312 15.921875 10.777344 M 13.285156 13.414062 L 11.277344 15.425781 L 11.972656 16.113281 L 12.664062 16.796875 L 14.671875 14.785156 L 16.683594 12.773438 L 15.988281 12.089844 L 15.296875 11.402344 L 13.285156 13.414062 M 10.515625 16.824219 C 10.339844 17.296875 10.242188 17.730469 10.296875 17.785156 C 10.382812 17.871094 11.949219 17.371094 12.113281 17.207031 C 12.171875 17.148438 11.03125 15.960938 10.910156 15.960938 C 10.871094 15.960938 10.691406 16.347656 10.515625 16.824219 M 6.238281 18.71875 L 6.238281 19.199219 L 9.601562 19.199219 L 9.601562 18.238281 L 6.238281 18.238281 L 6.238281 18.71875 "/>
</g>
</svg>
