<?xml version="1.0" encoding="UTF-8"?>
<svg xmlns="http://www.w3.org/2000/svg" xmlns:xlink="http://www.w3.org/1999/xlink" width="100px" height="100px" viewBox="0 0 100 100" version="1.1">
<g id="surface1">
<path style=" stroke:none;fill-rule:evenodd;fill:rgb(0%,0%,0%);fill-opacity:1;" d="M 17.085938 5.15625 L 16 6.316406 L 16 91.824219 L 17.15625 92.914062 L 18.316406 94 L 81.824219 94 L 82.914062 92.84375 L 84 91.683594 L 84 32 L 71 32 C 58.667969 32 57.949219 31.949219 57 31 C 56.050781 30.050781 56 29.332031 56 17 L 56 4 L 18.175781 4 L 17.085938 5.15625 M 60 15.316406 C 60 24.519531 60.140625 26.992188 60.6875 27.449219 C 61.167969 27.847656 64.765625 27.980469 72.691406 27.882812 L 84.007812 27.75 L 60 3.757812 L 60 15.316406 M 66.339844 44.902344 C 65.570312 45.75 65.699219 45.976562 68.417969 48.667969 C 71.207031 51.429688 71.34375 51.5 72.15625 50.601562 C 73.457031 49.164062 73.171875 47.871094 71.105469 45.851562 C 69.015625 43.8125 67.582031 43.527344 66.339844 44.902344 M 55.359375 55.890625 L 46.988281 64.269531 L 49.878906 67.132812 L 52.769531 69.992188 L 61.140625 61.609375 L 69.511719 53.230469 L 66.621094 50.367188 L 63.730469 47.507812 L 55.359375 55.890625 M 43.816406 70.09375 C 43.085938 72.074219 42.675781 73.878906 42.90625 74.105469 C 43.253906 74.457031 49.789062 72.371094 50.46875 71.695312 C 50.71875 71.445312 45.957031 66.5 45.464844 66.5 C 45.289062 66.5 44.546875 68.117188 43.816406 70.09375 M 26 78 L 26 80 L 40 80 L 40 76 L 26 76 L 26 78 "/>
</g>
</svg>
