<?xml version="1.0" encoding="UTF-8"?>
<svg xmlns="http://www.w3.org/2000/svg" xmlns:xlink="http://www.w3.org/1999/xlink" width="100px" height="100px" viewBox="0 0 100 100" version="1.1">
<g id="surface1">
<path style=" stroke:none;fill-rule:evenodd;fill:rgb(0%,0%,0%);fill-opacity:1;" d="M 76.539062 17.054688 C 73.015625 19.40625 70.074219 22.628906 67.359375 27.109375 C 64.871094 31.21875 64 34.332031 64 39.105469 C 64 44.070312 62.261719 48.832031 57.921875 55.75 C 55.089844 60.269531 54.828125 60.941406 54.148438 65.429688 C 52.632812 75.398438 54.691406 80.238281 61.535156 82.816406 C 64.414062 83.898438 73.878906 84.050781 76.75 83.058594 C 79.769531 82.015625 86.15625 75.230469 87.5 71.640625 C 89.554688 66.148438 91 59.496094 90.992188 55.570312 C 90.988281 51.417969 90.578125 49.695312 87.542969 41 C 86.046875 36.714844 85.40625 33.910156 85.03125 30 C 84.257812 21.925781 82.070312 15 80.296875 15 C 79.921875 15 78.230469 15.925781 76.539062 17.054688 M 76.949219 20.214844 C 72.964844 23.140625 67.5 30.828125 67.5 33.511719 C 67.5 34.863281 69.710938 36.816406 73.351562 38.679688 C 75.449219 39.753906 75.703125 39.726562 77.316406 38.234375 C 78.519531 37.117188 78.769531 37.054688 79.417969 37.703125 C 80.066406 38.351562 80.054688 38.59375 79.316406 39.71875 C 78.632812 40.761719 78.085938 40.996094 76.363281 40.988281 C 73.941406 40.976562 70.953125 39.746094 68.6875 37.835938 L 67.121094 36.515625 L 66.8125 38.070312 C 66.640625 38.925781 66.5 40.359375 66.5 41.261719 C 66.5 44.96875 63.515625 52.347656 59.503906 58.554688 C 56.953125 62.503906 56.363281 64.6875 56.394531 70.132812 C 56.410156 73.496094 56.636719 74.890625 57.363281 76.132812 C 59.386719 79.597656 65.890625 81.515625 72.203125 80.507812 C 76.644531 79.796875 77.769531 79.171875 81.121094 75.550781 C 84.574219 71.820312 86.207031 68.539062 87.484375 62.75 C 89.015625 55.820312 88.847656 53.421875 86.296875 45.820312 C 85.085938 42.207031 83.726562 36.886719 83.273438 34 C 82.824219 31.113281 82.242188 27.398438 81.988281 25.75 C 81.511719 22.703125 80.09375 18.488281 79.550781 18.511719 C 79.382812 18.519531 78.214844 19.285156 76.949219 20.214844 M 16.542969 20.875 C 15.597656 21.648438 15.417969 22.53125 15.003906 28.363281 C 14.664062 33.203125 14.199219 35.957031 13.269531 38.644531 C 12.140625 41.917969 12.003906 43.078125 12.03125 49.332031 C 12.058594 55.855469 11.953125 56.675781 10.53125 60.992188 C 9.484375 64.160156 9 66.617188 9 68.738281 C 9 71.492188 9.21875 72.183594 10.910156 74.796875 C 13.144531 78.246094 15.480469 80.417969 18.550781 81.902344 C 21.820312 83.476562 26.832031 84.65625 30.5 84.707031 C 34.5 84.761719 38.210938 83.117188 41.339844 79.898438 C 43.304688 77.882812 43.46875 77.488281 44.007812 73.511719 C 44.320312 71.179688 44.433594 68.308594 44.257812 67.128906 C 43.832031 64.289062 40.554688 57.863281 37.949219 54.75 C 34.609375 50.765625 33.847656 48.578125 33.496094 41.972656 L 33.183594 36.191406 L 30.484375 31.472656 C 27.160156 25.65625 24.511719 22.703125 21.25 21.179688 C 18.246094 19.773438 17.914062 19.753906 16.542969 20.875 M 18.46875 23.125 C 18.449219 23.195312 18.238281 26.0625 18 29.5 C 17.691406 33.949219 17.25 36.542969 16.46875 38.5 C 15.523438 40.875 15.363281 42.335938 15.277344 49.25 C 15.183594 56.722656 15.074219 57.574219 13.589844 62.1875 C 12.714844 64.902344 12 67.714844 12.003906 68.4375 C 12.011719 72.34375 14.644531 76.386719 18.707031 78.734375 C 21.230469 80.191406 27.054688 82 29.210938 82 C 32.347656 82 35.945312 80.535156 38.265625 78.3125 C 40.195312 76.464844 40.5 75.894531 40.5 74.136719 L 40.5 72.101562 L 38.230469 72.683594 C 36.683594 73.078125 35.769531 73.644531 35.355469 74.464844 C 34.546875 76.078125 33.613281 76.3125 33.414062 74.953125 C 33.207031 73.550781 32.445312 73.175781 28.785156 72.664062 C 23.40625 71.910156 25.109375 71.25 32.425781 71.25 C 40.789062 71.25 41.210938 71.050781 40.894531 67.242188 C 40.632812 64.074219 39.191406 61.058594 36.238281 57.5 C 34.984375 55.988281 33.160156 53.148438 32.1875 51.191406 C 30.625 48.054688 30.367188 46.992188 30.023438 42.191406 C 29.792969 38.984375 29.28125 35.953125 28.78125 34.808594 C 26.496094 29.585938 21.179688 23 19.25 23 C 18.835938 23 18.484375 23.054688 18.46875 23.125 M 71.921875 29.21875 C 71.328125 30.523438 71.632812 32 72.496094 32 C 73.054688 32 74 29.933594 74 28.71875 C 74 27.546875 72.523438 27.902344 71.921875 29.21875 M 21.503906 37.125 C 21.503906 37.46875 21.742188 38.609375 22.035156 39.660156 C 22.472656 41.238281 22.691406 41.464844 23.28125 40.972656 C 24.15625 40.25 24.226562 37.925781 23.398438 37.101562 C 22.617188 36.316406 21.5 36.332031 21.503906 37.125 M 21.558594 45.953125 C 20.375 46.703125 23.691406 47.121094 25.957031 46.511719 C 27.082031 46.210938 28 45.859375 28 45.730469 C 28 45.308594 22.261719 45.507812 21.558594 45.953125 M 65.5 49.945312 C 65.5 50.855469 69.253906 53.523438 71.957031 54.535156 C 77.042969 56.4375 76.523438 55.296875 70.96875 52.359375 C 67.960938 50.765625 65.5 49.679688 65.5 49.945312 M 19.59375 51.605469 C 18.757812 52.441406 18.855469 53.214844 19.917969 54.175781 C 20.78125 54.957031 20.867188 54.933594 21.386719 53.800781 C 21.832031 52.820312 21.773438 52.449219 21.058594 51.804688 C 20.386719 51.195312 20.050781 51.148438 19.59375 51.605469 M 83.214844 53.660156 C 82.609375 55.242188 82.765625 57.25 83.492188 57.25 C 84.429688 57.25 85.609375 54.863281 85.199219 53.800781 C 84.828125 52.832031 83.566406 52.742188 83.214844 53.660156 M 68.640625 57.125 C 67.773438 58.242188 67.53125 59.460938 68.101562 59.8125 C 68.730469 60.199219 70.5 58.265625 70.5 57.195312 C 70.5 56.328125 69.289062 56.285156 68.640625 57.125 M 29.25 60.019531 C 25.675781 60.511719 22.523438 60.976562 22.25 61.050781 C 21.976562 61.121094 23.546875 61.3125 25.746094 61.464844 C 29.238281 61.714844 29.761719 61.875 29.898438 62.75 C 30.234375 64.84375 30.464844 65.152344 31.226562 64.519531 C 31.617188 64.195312 32.011719 63.34375 32.09375 62.628906 C 32.210938 61.65625 32.679688 61.1875 33.96875 60.757812 C 34.914062 60.441406 35.777344 59.914062 35.886719 59.589844 C 35.996094 59.265625 36.007812 59.027344 35.917969 59.058594 C 35.824219 59.09375 32.824219 59.523438 29.25 60.019531 M 58 63.164062 C 58 63.597656 58.984375 64.773438 60.183594 65.777344 C 62.269531 67.519531 62.351562 67.6875 61.949219 69.425781 C 61.3125 72.164062 61.402344 73.5 62.230469 73.5 C 62.652344 73.5 63.21875 72.628906 63.578125 71.441406 L 64.195312 69.378906 L 67.847656 69.710938 C 70.257812 69.929688 71.5 69.863281 71.5 69.519531 C 71.5 69.234375 71.105469 69 70.625 68.996094 C 68.078125 68.988281 64.671875 67.273438 59.125 63.203125 C 58.117188 62.464844 58 62.460938 58 63.164062 M 73.769531 69.667969 C 72.160156 72.417969 72.109375 73.625 73.613281 73.410156 C 75.363281 73.160156 77.140625 67.5 75.46875 67.5 C 75.234375 67.5 74.46875 68.476562 73.769531 69.667969 M 18.085938 69.375 C 17.835938 69.855469 17.734375 70.53125 17.859375 70.875 C 18.207031 71.84375 19.90625 71.613281 20.488281 70.519531 C 20.910156 69.734375 20.820312 69.441406 20.039062 69.019531 C 18.746094 68.328125 18.609375 68.351562 18.085938 69.375 "/>
</g>
</svg>
