<?xml version="1.0" encoding="UTF-8"?>
<svg xmlns="http://www.w3.org/2000/svg" xmlns:xlink="http://www.w3.org/1999/xlink" width="100px" height="100px" viewBox="0 0 100 100" version="1.1">
<g id="surface1">
<path style=" stroke:none;fill-rule:evenodd;fill:rgb(0%,0%,0%);fill-opacity:1;" d="M 33.25 20.820312 C 22.386719 23.039062 15.925781 26.308594 10.601562 32.28125 C -1.121094 45.433594 3.199219 64.25 19.929688 72.925781 C 26.523438 76.34375 30.238281 77.230469 38 77.242188 C 41.710938 77.246094 45.761719 77.199219 47 77.136719 C 48.238281 77.074219 52.738281 77.101562 57 77.199219 C 63.277344 77.339844 65.339844 77.574219 67.859375 78.4375 C 73.164062 80.25 79.335938 79.59375 84.304688 76.6875 C 87.15625 75.019531 91.625 70.203125 93.195312 67.109375 C 99.203125 55.253906 95.105469 40.007812 84.234375 33.738281 C 82.867188 32.949219 80.648438 31.328125 79.304688 30.136719 C 76.183594 27.371094 71.699219 24.890625 67.25 23.46875 C 64.550781 22.609375 62.261719 22.3125 57.25 22.1875 C 53.675781 22.09375 48.988281 21.679688 46.832031 21.261719 C 43.25 20.566406 35.695312 20.320312 33.25 20.820312 M 31.183594 24.210938 C 18.453125 27.121094 9.265625 35.371094 7.363281 45.59375 C 6.292969 51.34375 8.609375 58.714844 13.050781 63.714844 C 19.695312 71.1875 32.511719 75.496094 43.5 73.953125 C 48.671875 73.226562 48.40625 73.226562 52.910156 73.976562 C 55.652344 74.433594 57.578125 74.453125 60.570312 74.050781 C 64.140625 73.570312 64.761719 73.613281 66.40625 74.449219 C 75.152344 78.890625 85.84375 74.847656 90.472656 65.347656 C 94.671875 56.738281 93.246094 46.402344 86.945312 39.75 C 85.640625 38.375 83.714844 36.800781 82.664062 36.25 C 81.609375 35.699219 79.25 34 77.417969 32.476562 C 70.894531 27.042969 64.605469 24.921875 55.332031 25.015625 C 52.261719 25.050781 48.960938 24.820312 48 24.507812 C 45.171875 23.589844 34.714844 23.40625 31.183594 24.210938 M 35.179688 31.25 C 34.738281 32.40625 35.636719 33.105469 37.3125 32.914062 C 38.363281 32.792969 38.75 32.480469 38.75 31.75 C 38.75 30.425781 35.664062 29.992188 35.179688 31.25 M 27.21875 31.75 C 26.261719 32.492188 26.261719 32.507812 27.21875 33.25 C 27.753906 33.664062 28.441406 34 28.75 34 C 29.058594 34 29.746094 33.664062 30.28125 33.25 C 31.238281 32.507812 31.238281 32.492188 30.28125 31.75 C 29.746094 31.335938 29.058594 31 28.75 31 C 28.441406 31 27.753906 31.335938 27.21875 31.75 M 57.105469 34.058594 C 55.859375 34.519531 55.722656 35.023438 56.601562 35.898438 C 57.421875 36.722656 59.25 36.652344 59.980469 35.773438 C 61.109375 34.414062 59.207031 33.28125 57.105469 34.058594 M 76.574219 40.65625 C 75.753906 41.648438 77.011719 42.621094 78.84375 42.410156 C 80.929688 42.171875 80.816406 40.304688 78.707031 40.097656 C 77.820312 40.011719 76.914062 40.25 76.574219 40.65625 M 66.605469 41.558594 C 65.359375 42.019531 65.222656 42.523438 66.101562 43.398438 C 66.921875 44.222656 68.75 44.152344 69.480469 43.273438 C 70.609375 41.914062 68.707031 40.78125 66.605469 41.558594 M 23.984375 46.769531 C 23.148438 47.777344 23.953125 48.625 25.75 48.625 C 26.476562 48.625 27.320312 48.382812 27.617188 48.082031 C 28.378906 47.324219 27.191406 46 25.75 46 C 25.128906 46 24.335938 46.347656 23.984375 46.769531 M 14.074219 52.15625 C 13.253906 53.148438 14.511719 54.121094 16.34375 53.910156 C 18.429688 53.671875 18.316406 51.804688 16.207031 51.597656 C 15.320312 51.511719 14.414062 51.75 14.074219 52.15625 M 82.875 53.039062 C 80.953125 54.160156 82.703125 55.980469 85 55.25 C 86.269531 54.847656 86.289062 53.691406 85.03125 53.015625 C 83.882812 52.402344 83.972656 52.402344 82.875 53.039062 M 58.613281 56.089844 C 57.808594 56.890625 58.761719 58 60.25 58 C 61.53125 58 62.746094 56.804688 62.261719 56.023438 C 61.828125 55.316406 59.339844 55.359375 58.613281 56.089844 M 19.113281 60.589844 C 18.242188 61.457031 19.3125 62.5 21.078125 62.5 C 22.691406 62.5 23.582031 61.175781 22.449219 60.457031 C 21.460938 59.832031 19.804688 59.898438 19.113281 60.589844 M 70.113281 64.089844 C 68.800781 65.398438 71.6875 66.65625 73.449219 65.542969 C 73.832031 65.300781 74.007812 64.742188 73.839844 64.300781 C 73.476562 63.359375 70.984375 63.21875 70.113281 64.089844 M 35.550781 66.457031 C 34.390625 67.195312 35.316406 68.5 37 68.5 C 37.941406 68.5 38.648438 68.191406 38.839844 67.699219 C 39.164062 66.851562 38.25 66.015625 37 66.015625 C 36.585938 66.015625 35.9375 66.214844 35.550781 66.457031 "/>
</g>
</svg>
