<?xml version="1.0" encoding="UTF-8"?>
<svg xmlns="http://www.w3.org/2000/svg" xmlns:xlink="http://www.w3.org/1999/xlink" width="24px" height="24px" viewBox="0 0 24 24" version="1.1">
<g id="surface1">
<path style=" stroke:none;fill-rule:evenodd;fill:rgb(0%,0%,0%);fill-opacity:1;" d="M 7.980469 4.996094 C 5.371094 5.53125 3.820312 6.3125 2.542969 7.746094 C -0.269531 10.902344 0.769531 15.421875 4.785156 17.503906 C 6.367188 18.324219 7.257812 18.535156 9.121094 18.539062 C 10.011719 18.539062 10.984375 18.527344 11.28125 18.511719 C 11.578125 18.496094 12.65625 18.503906 13.679688 18.527344 C 15.1875 18.5625 15.683594 18.617188 16.285156 18.824219 C 17.558594 19.261719 19.039062 19.101562 20.234375 18.40625 C 20.917969 18.003906 21.992188 16.847656 22.367188 16.105469 C 23.808594 13.261719 22.824219 9.601562 20.214844 8.097656 C 19.886719 7.90625 19.355469 7.519531 19.03125 7.234375 C 18.285156 6.570312 17.207031 5.972656 16.140625 5.632812 C 15.492188 5.425781 14.941406 5.355469 13.738281 5.324219 C 12.882812 5.304688 11.757812 5.203125 11.238281 5.101562 C 10.378906 4.9375 8.566406 4.878906 7.980469 4.996094 M 7.484375 5.8125 C 4.429688 6.507812 2.222656 8.488281 1.765625 10.941406 C 1.511719 12.324219 2.066406 14.09375 3.132812 15.292969 C 4.726562 17.085938 7.800781 18.117188 10.441406 17.75 C 11.679688 17.574219 11.617188 17.574219 12.699219 17.753906 C 13.355469 17.863281 13.820312 17.867188 14.535156 17.773438 C 15.394531 17.65625 15.542969 17.667969 15.9375 17.867188 C 18.035156 18.933594 20.601562 17.964844 21.714844 15.683594 C 22.722656 13.617188 22.378906 11.136719 20.867188 9.539062 C 20.554688 9.210938 20.089844 8.832031 19.839844 8.699219 C 19.585938 8.566406 19.019531 8.160156 18.582031 7.792969 C 17.015625 6.492188 15.503906 5.980469 13.28125 6.003906 C 12.542969 6.011719 11.75 5.957031 11.519531 5.882812 C 10.839844 5.660156 8.332031 5.617188 7.484375 5.8125 M 8.441406 7.5 C 8.335938 7.777344 8.550781 7.945312 8.957031 7.898438 C 9.207031 7.871094 9.300781 7.796875 9.300781 7.621094 C 9.300781 7.300781 8.558594 7.199219 8.441406 7.5 M 6.53125 7.621094 C 6.300781 7.796875 6.300781 7.800781 6.53125 7.980469 C 6.660156 8.078125 6.828125 8.160156 6.898438 8.160156 C 6.972656 8.160156 7.140625 8.078125 7.265625 7.980469 C 7.496094 7.800781 7.496094 7.796875 7.265625 7.621094 C 7.140625 7.519531 6.972656 7.441406 6.898438 7.441406 C 6.828125 7.441406 6.660156 7.519531 6.53125 7.621094 M 13.707031 8.175781 C 13.40625 8.285156 13.375 8.40625 13.585938 8.617188 C 13.78125 8.8125 14.21875 8.796875 14.394531 8.585938 C 14.667969 8.257812 14.210938 7.988281 13.707031 8.175781 M 18.378906 9.757812 C 18.179688 9.996094 18.484375 10.230469 18.921875 10.179688 C 19.421875 10.121094 19.394531 9.671875 18.890625 9.625 C 18.675781 9.601562 18.460938 9.660156 18.378906 9.757812 M 15.984375 9.972656 C 15.6875 10.085938 15.652344 10.207031 15.863281 10.414062 C 16.0625 10.613281 16.5 10.597656 16.675781 10.386719 C 16.945312 10.058594 16.488281 9.789062 15.984375 9.972656 M 5.753906 11.226562 C 5.554688 11.464844 5.75 11.671875 6.179688 11.671875 C 6.355469 11.671875 6.554688 11.613281 6.628906 11.539062 C 6.8125 11.355469 6.527344 11.039062 6.179688 11.039062 C 6.03125 11.039062 5.839844 11.125 5.753906 11.226562 M 3.378906 12.519531 C 3.179688 12.757812 3.484375 12.988281 3.921875 12.9375 C 4.421875 12.882812 4.394531 12.433594 3.890625 12.382812 C 3.675781 12.363281 3.460938 12.421875 3.378906 12.519531 M 19.890625 12.730469 C 19.429688 13 19.847656 13.433594 20.398438 13.261719 C 20.703125 13.164062 20.710938 12.886719 20.40625 12.722656 C 20.132812 12.578125 20.152344 12.574219 19.890625 12.730469 M 14.066406 13.460938 C 13.875 13.652344 14.101562 13.921875 14.460938 13.921875 C 14.765625 13.921875 15.058594 13.632812 14.941406 13.445312 C 14.839844 13.277344 14.242188 13.285156 14.066406 13.460938 M 4.585938 14.542969 C 4.378906 14.75 4.636719 15 5.058594 15 C 5.445312 15 5.660156 14.683594 5.386719 14.507812 C 5.148438 14.359375 4.753906 14.375 4.585938 14.542969 M 16.828125 15.382812 C 16.511719 15.695312 17.203125 15.996094 17.628906 15.730469 C 17.71875 15.671875 17.761719 15.539062 17.722656 15.433594 C 17.632812 15.207031 17.035156 15.171875 16.828125 15.382812 M 8.53125 15.949219 C 8.253906 16.125 8.476562 16.441406 8.878906 16.441406 C 9.105469 16.441406 9.277344 16.367188 9.320312 16.246094 C 9.398438 16.042969 9.179688 15.84375 8.878906 15.84375 C 8.78125 15.84375 8.625 15.890625 8.53125 15.949219 "/>
</g>
</svg>
