<?xml version="1.0" encoding="UTF-8"?>
<svg xmlns="http://www.w3.org/2000/svg" xmlns:xlink="http://www.w3.org/1999/xlink" width="24px" height="24px" viewBox="0 0 24 24" version="1.1">
<g id="surface1">
<path style=" stroke:none;fill-rule:evenodd;fill:rgb(0%,0%,0%);fill-opacity:1;" d="M 18.371094 4.09375 C 17.523438 4.65625 16.816406 5.429688 16.167969 6.507812 C 15.570312 7.492188 15.359375 8.238281 15.359375 9.386719 C 15.359375 10.578125 14.941406 11.71875 13.902344 13.378906 C 13.222656 14.464844 13.160156 14.625 12.996094 15.703125 C 12.632812 18.09375 13.125 19.257812 14.769531 19.875 C 15.460938 20.136719 17.730469 20.171875 18.421875 19.933594 C 19.144531 19.683594 20.675781 18.054688 21 17.195312 C 21.492188 15.875 21.839844 14.277344 21.839844 13.335938 C 21.835938 12.339844 21.738281 11.925781 21.011719 9.839844 C 20.652344 8.8125 20.496094 8.136719 20.40625 7.199219 C 20.222656 5.261719 19.695312 3.601562 19.269531 3.601562 C 19.179688 3.601562 18.773438 3.820312 18.371094 4.09375 M 18.46875 4.851562 C 17.511719 5.554688 16.199219 7.398438 16.199219 8.042969 C 16.199219 8.367188 16.730469 8.835938 17.605469 9.285156 C 18.109375 9.542969 18.167969 9.535156 18.554688 9.175781 C 18.84375 8.910156 18.90625 8.894531 19.058594 9.050781 C 19.214844 9.203125 19.214844 9.261719 19.035156 9.53125 C 18.871094 9.78125 18.742188 9.839844 18.328125 9.835938 C 17.746094 9.835938 17.027344 9.539062 16.484375 9.082031 L 16.109375 8.761719 L 16.035156 9.136719 C 15.992188 9.34375 15.960938 9.6875 15.960938 9.902344 C 15.960938 10.792969 15.242188 12.5625 14.28125 14.054688 C 13.667969 15 13.527344 15.523438 13.535156 16.832031 C 13.539062 17.640625 13.59375 17.972656 13.765625 18.273438 C 14.253906 19.101562 15.8125 19.5625 17.328125 19.320312 C 18.394531 19.152344 18.664062 19 19.46875 18.132812 C 20.296875 17.238281 20.691406 16.449219 20.996094 15.058594 C 21.363281 13.398438 21.324219 12.820312 20.710938 10.996094 C 20.421875 10.128906 20.09375 8.851562 19.984375 8.160156 C 19.878906 7.46875 19.738281 6.574219 19.675781 6.179688 C 19.5625 5.449219 19.222656 4.4375 19.089844 4.441406 C 19.050781 4.445312 18.769531 4.628906 18.46875 4.851562 M 3.96875 5.011719 C 3.742188 5.195312 3.699219 5.40625 3.601562 6.808594 C 3.519531 7.96875 3.40625 8.628906 3.183594 9.273438 C 2.914062 10.0625 2.882812 10.339844 2.886719 11.839844 C 2.894531 13.40625 2.867188 13.601562 2.527344 14.636719 C 2.277344 15.398438 2.160156 15.988281 2.160156 16.496094 C 2.160156 17.15625 2.210938 17.324219 2.617188 17.953125 C 3.15625 18.777344 3.714844 19.300781 4.453125 19.65625 C 5.238281 20.035156 6.4375 20.316406 7.320312 20.328125 C 8.28125 20.34375 9.171875 19.949219 9.921875 19.175781 C 10.394531 18.691406 10.433594 18.597656 10.5625 17.640625 C 10.636719 17.082031 10.664062 16.394531 10.621094 16.109375 C 10.519531 15.429688 9.734375 13.886719 9.109375 13.140625 C 8.304688 12.183594 8.125 11.660156 8.039062 10.074219 L 7.964844 8.6875 L 7.316406 7.554688 C 6.519531 6.15625 5.882812 5.449219 5.101562 5.082031 C 4.378906 4.746094 4.300781 4.742188 3.96875 5.011719 M 4.433594 5.550781 C 4.429688 5.566406 4.378906 6.253906 4.320312 7.078125 C 4.246094 8.148438 4.140625 8.769531 3.953125 9.238281 C 3.726562 9.808594 3.6875 10.160156 3.667969 11.820312 C 3.644531 13.613281 3.617188 13.816406 3.261719 14.925781 C 3.050781 15.578125 2.878906 16.25 2.878906 16.425781 C 2.882812 17.363281 3.515625 18.332031 4.488281 18.894531 C 5.09375 19.246094 6.492188 19.679688 7.011719 19.679688 C 7.765625 19.679688 8.628906 19.328125 9.183594 18.792969 C 9.648438 18.351562 9.71875 18.214844 9.71875 17.792969 L 9.71875 17.304688 L 9.175781 17.445312 C 8.804688 17.539062 8.585938 17.675781 8.484375 17.871094 C 8.289062 18.257812 8.066406 18.316406 8.019531 17.988281 C 7.96875 17.652344 7.785156 17.5625 6.910156 17.4375 C 5.617188 17.257812 6.027344 17.101562 7.78125 17.101562 C 9.789062 17.101562 9.890625 17.050781 9.816406 16.136719 C 9.75 15.378906 9.40625 14.652344 8.699219 13.800781 C 8.394531 13.4375 7.957031 12.753906 7.726562 12.285156 C 7.351562 11.53125 7.289062 11.277344 7.207031 10.125 C 7.148438 9.355469 7.027344 8.628906 6.90625 8.355469 C 6.359375 7.101562 5.082031 5.519531 4.621094 5.519531 C 4.519531 5.519531 4.4375 5.535156 4.433594 5.550781 M 17.261719 7.011719 C 17.117188 7.324219 17.191406 7.679688 17.398438 7.679688 C 17.53125 7.679688 17.761719 7.183594 17.761719 6.890625 C 17.761719 6.609375 17.40625 6.695312 17.261719 7.011719 M 5.160156 8.910156 C 5.160156 8.992188 5.21875 9.265625 5.289062 9.519531 C 5.394531 9.898438 5.445312 9.953125 5.589844 9.832031 C 5.796875 9.660156 5.8125 9.101562 5.617188 8.902344 C 5.429688 8.714844 5.160156 8.71875 5.160156 8.910156 M 5.175781 11.027344 C 4.890625 11.207031 5.683594 11.308594 6.230469 11.164062 C 6.5 11.089844 6.71875 11.003906 6.71875 10.976562 C 6.71875 10.875 5.34375 10.921875 5.175781 11.027344 M 15.71875 11.988281 C 15.71875 12.207031 16.621094 12.84375 17.269531 13.089844 C 18.492188 13.546875 18.367188 13.269531 17.03125 12.566406 C 16.308594 12.183594 15.71875 11.921875 15.71875 11.988281 M 4.703125 12.386719 C 4.5 12.585938 4.523438 12.769531 4.78125 13.003906 C 4.988281 13.191406 5.007812 13.183594 5.132812 12.914062 C 5.238281 12.675781 5.226562 12.585938 5.054688 12.433594 C 4.894531 12.285156 4.8125 12.277344 4.703125 12.386719 M 19.972656 12.878906 C 19.824219 13.257812 19.863281 13.738281 20.039062 13.738281 C 20.261719 13.738281 20.546875 13.167969 20.449219 12.910156 C 20.359375 12.679688 20.054688 12.660156 19.972656 12.878906 M 16.472656 13.710938 C 16.265625 13.976562 16.207031 14.269531 16.34375 14.355469 C 16.496094 14.449219 16.921875 13.984375 16.921875 13.726562 C 16.921875 13.519531 16.628906 13.507812 16.472656 13.710938 M 7.019531 14.40625 C 6.160156 14.523438 5.40625 14.632812 5.339844 14.652344 C 5.273438 14.667969 5.652344 14.714844 6.179688 14.753906 C 7.015625 14.8125 7.140625 14.851562 7.175781 15.058594 C 7.253906 15.5625 7.3125 15.636719 7.496094 15.484375 C 7.589844 15.40625 7.683594 15.203125 7.703125 15.03125 C 7.730469 14.796875 7.84375 14.683594 8.152344 14.582031 C 8.378906 14.503906 8.585938 14.378906 8.613281 14.300781 C 8.640625 14.222656 8.640625 14.167969 8.621094 14.175781 C 8.597656 14.183594 7.878906 14.285156 7.019531 14.40625 M 13.921875 15.160156 C 13.921875 15.261719 14.15625 15.546875 14.445312 15.785156 C 14.945312 16.203125 14.964844 16.246094 14.867188 16.664062 C 14.714844 17.320312 14.738281 17.640625 14.933594 17.640625 C 15.035156 17.640625 15.171875 17.429688 15.257812 17.144531 L 15.40625 16.652344 L 16.285156 16.730469 C 16.863281 16.78125 17.160156 16.765625 17.160156 16.683594 C 17.160156 16.617188 17.066406 16.558594 16.949219 16.558594 C 16.339844 16.558594 15.523438 16.144531 14.191406 15.167969 C 13.949219 14.992188 13.921875 14.992188 13.921875 15.160156 M 17.703125 16.71875 C 17.320312 17.378906 17.304688 17.671875 17.667969 17.617188 C 18.085938 17.558594 18.511719 16.199219 18.113281 16.199219 C 18.054688 16.199219 17.871094 16.433594 17.703125 16.71875 M 4.339844 16.648438 C 4.28125 16.765625 4.257812 16.925781 4.285156 17.011719 C 4.371094 17.242188 4.777344 17.1875 4.917969 16.925781 C 5.019531 16.734375 4.996094 16.664062 4.808594 16.566406 C 4.5 16.398438 4.464844 16.40625 4.339844 16.648438 "/>
</g>
</svg>
