<?xml version="1.0" encoding="UTF-8"?>
<svg xmlns="http://www.w3.org/2000/svg" xmlns:xlink="http://www.w3.org/1999/xlink" width="24px" height="24px" viewBox="0 0 24 24" version="1.1">
<g id="surface1">
<path style=" stroke:none;fill-rule:evenodd;fill:rgb(0%,0%,0%);fill-opacity:1;" d="M 11.820312 4.339844 C 10.945312 5.457031 10.71875 5.914062 10.566406 6.855469 C 10.378906 8.015625 10.402344 8.226562 10.742188 8.449219 C 11.015625 8.628906 11.09375 8.632812 11.574219 8.46875 C 12.046875 8.308594 12.171875 8.308594 12.726562 8.472656 L 13.351562 8.65625 L 13.753906 8.265625 C 14.214844 7.816406 14.246094 7.585938 13.976562 6.535156 C 13.777344 5.761719 12.890625 3.789062 12.648438 3.589844 C 12.539062 3.5 12.324219 3.699219 11.820312 4.339844 M 4.5 4.4375 C 4.285156 4.859375 4.351562 5.261719 4.75 5.894531 C 5.023438 6.328125 5.027344 6.328125 6.023438 6.386719 C 7.125 6.453125 7.808594 6.652344 9.039062 7.269531 C 9.492188 7.496094 9.882812 7.679688 9.910156 7.679688 C 9.9375 7.679688 9.960938 7.53125 9.960938 7.351562 C 9.960938 7.070312 9.855469 6.964844 9.296875 6.675781 C 8.933594 6.484375 8.015625 5.882812 7.257812 5.335938 C 5.378906 3.980469 4.828125 3.804688 4.5 4.4375 M 3.148438 6.726562 C 2.800781 6.863281 2.597656 7.371094 2.765625 7.6875 C 2.9375 8.007812 3.632812 8.339844 4.714844 8.617188 L 5.632812 8.855469 L 5.441406 8.480469 C 5.335938 8.277344 5.214844 7.835938 5.171875 7.507812 L 5.101562 6.902344 L 4.5 6.816406 C 4.171875 6.769531 3.792969 6.707031 3.660156 6.675781 C 3.527344 6.644531 3.296875 6.667969 3.148438 6.726562 M 5.714844 6.9375 C 5.5625 7.183594 5.894531 8.226562 6.320312 8.851562 C 6.824219 9.589844 7.601562 10.191406 8.660156 10.664062 C 9.910156 11.222656 9.90625 11.226562 10.066406 10.503906 C 10.144531 10.164062 10.3125 9.683594 10.445312 9.441406 L 10.679688 9 L 10.109375 8.589844 C 9.175781 7.910156 8.363281 7.453125 7.664062 7.207031 C 6.820312 6.910156 5.816406 6.773438 5.714844 6.9375 M 15.898438 7.164062 C 15.703125 7.269531 15.109375 7.707031 14.578125 8.140625 C 14.050781 8.574219 13.601562 8.941406 13.578125 8.957031 C 13.554688 8.972656 13.613281 9.21875 13.710938 9.503906 C 14.175781 10.851562 14.246094 11.527344 13.980469 12.042969 C 13.746094 12.488281 13.75 12.492188 14.097656 12.363281 C 14.574219 12.179688 17.066406 9.625 17.808594 8.554688 C 18.183594 8.011719 18.542969 7.535156 18.605469 7.496094 C 19.304688 7.066406 16.6875 6.742188 15.898438 7.164062 M 0.175781 7.6875 C -0.00390625 7.976562 0.25 8.40625 0.710938 8.589844 C 0.96875 8.691406 1.203125 8.878906 1.238281 9.007812 C 1.308594 9.285156 1.304688 9.289062 0.761719 9.058594 C 0.523438 8.960938 0.257812 8.878906 0.164062 8.878906 C -0.0429688 8.878906 -0.0585938 9.527344 0.148438 9.683594 C 0.359375 9.84375 2.203125 10.605469 3 10.863281 C 3.363281 10.980469 4.066406 11.253906 4.5625 11.46875 C 5.699219 11.96875 6.601562 12.105469 7.003906 11.84375 C 7.160156 11.738281 7.609375 11.550781 7.996094 11.425781 L 8.699219 11.195312 L 8.277344 10.980469 C 8.046875 10.863281 7.480469 10.519531 7.019531 10.21875 C 6.445312 9.847656 5.761719 9.542969 4.863281 9.265625 C 3.417969 8.824219 1.710938 8.148438 1.125 7.789062 C 0.710938 7.535156 0.296875 7.492188 0.175781 7.6875 M 11.15625 9.242188 C 10.8125 9.613281 10.601562 10.214844 10.738281 10.4375 C 10.859375 10.636719 11.117188 10.582031 11.59375 10.257812 C 12.074219 9.933594 12.328125 9.949219 12.828125 10.335938 C 13.394531 10.777344 13.683594 10.519531 13.441406 9.785156 C 13.25 9.203125 12.757812 8.878906 12.058594 8.878906 C 11.585938 8.878906 11.441406 8.9375 11.15625 9.242188 M 11.808594 10.609375 C 11.769531 10.703125 11.757812 10.933594 11.78125 11.121094 C 11.8125 11.386719 11.882812 11.460938 12.105469 11.460938 C 12.507812 11.460938 12.683594 11.140625 12.507812 10.75 C 12.351562 10.414062 11.917969 10.324219 11.808594 10.609375 M 10.519531 10.878906 C 10.386719 11.015625 10.429688 11.625 10.605469 12.039062 C 11.277344 13.652344 13.527344 13.296875 13.765625 11.539062 C 13.855469 10.859375 13.640625 10.816406 13.007812 11.398438 C 12.285156 12.0625 11.855469 12.042969 11.367188 11.308594 C 11.054688 10.84375 10.722656 10.675781 10.519531 10.878906 M 16.164062 11.132812 C 15.769531 11.546875 15.757812 11.640625 16.113281 11.640625 C 16.40625 11.640625 17.488281 12.300781 18.042969 12.820312 C 18.230469 12.996094 18.535156 13.359375 18.722656 13.628906 C 19.09375 14.164062 19.398438 14.292969 20.820312 14.527344 C 21.972656 14.714844 22.574219 14.546875 23.242188 13.851562 C 24.070312 12.996094 24.226562 11.957031 23.578125 11.660156 C 23.0625 11.425781 22.601562 11.492188 22.175781 11.859375 C 21.957031 12.046875 21.648438 12.234375 21.484375 12.277344 C 21.007812 12.394531 19.484375 12.023438 18.058594 11.4375 C 17.335938 11.140625 16.683594 10.871094 16.617188 10.84375 C 16.546875 10.816406 16.34375 10.945312 16.164062 11.132812 M 8.488281 11.804688 C 7.566406 12.117188 7.027344 12.558594 6.710938 13.265625 C 6.488281 13.753906 6.15625 15.4375 6.257812 15.539062 C 6.289062 15.570312 6.988281 15.464844 7.808594 15.304688 C 8.628906 15.144531 9.945312 14.925781 10.738281 14.816406 C 12.242188 14.609375 12.480469 14.535156 12.941406 14.113281 C 13.195312 13.882812 13.558594 13.3125 13.558594 13.144531 C 13.558594 13.105469 13.347656 13.183594 13.085938 13.316406 C 12.523438 13.605469 11.765625 13.628906 11.28125 13.378906 C 10.871094 13.167969 10.402344 12.585938 10.140625 11.964844 C 9.917969 11.421875 9.671875 11.398438 8.488281 11.804688 M 15.308594 12.261719 C 15.191406 12.453125 14.859375 12.730469 14.570312 12.871094 C 14.277344 13.011719 14.039062 13.199219 14.039062 13.289062 C 14.039062 13.378906 13.933594 13.675781 13.800781 13.949219 C 13.667969 14.222656 13.558594 14.484375 13.558594 14.53125 C 13.558594 14.578125 13.789062 14.726562 14.070312 14.855469 C 14.429688 15.023438 15 15.125 16.019531 15.191406 C 17.777344 15.3125 18.921875 15.316406 19.035156 15.203125 C 19.183594 15.058594 18.808594 14.507812 17.902344 13.542969 C 16.996094 12.582031 16.464844 12.179688 15.863281 12.007812 C 15.558594 11.917969 15.492188 11.949219 15.308594 12.261719 M 12.179688 14.980469 C 11.980469 15.027344 11.84375 15.117188 11.875 15.179688 C 11.902344 15.246094 12.414062 15.644531 13.011719 16.070312 C 13.609375 16.492188 14.417969 17.109375 14.804688 17.4375 C 16.5 18.890625 17.28125 18.816406 17.28125 17.199219 C 17.28125 16.566406 17.242188 16.425781 17.011719 16.265625 C 16.617188 15.988281 16.117188 16.027344 15.9375 16.351562 C 15.789062 16.617188 15.789062 16.617188 15.726562 16.265625 C 15.667969 15.953125 15.574219 15.882812 14.941406 15.6875 C 14.542969 15.566406 13.949219 15.355469 13.621094 15.21875 C 12.882812 14.917969 12.640625 14.878906 12.179688 14.980469 M 19.078125 15.742188 C 18.847656 15.808594 18.351562 15.839844 17.972656 15.8125 L 17.285156 15.765625 L 18.003906 16.511719 C 18.417969 16.945312 18.71875 17.367188 18.71875 17.511719 C 18.71875 17.652344 18.53125 18.140625 18.300781 18.601562 C 18.070312 19.058594 17.878906 19.53125 17.878906 19.648438 C 17.878906 19.914062 18.777344 20.519531 19.171875 20.519531 C 19.523438 20.519531 20.035156 19.972656 20.503906 19.089844 C 21.046875 18.0625 21.1875 17.488281 21 17.042969 C 20.859375 16.699219 19.75 15.585938 19.578125 15.609375 C 19.535156 15.617188 19.3125 15.675781 19.078125 15.742188 "/>
</g>
</svg>
