<?xml version="1.0" encoding="UTF-8"?>
<svg xmlns="http://www.w3.org/2000/svg" xmlns:xlink="http://www.w3.org/1999/xlink" width="100px" height="100px" viewBox="0 0 100 100" version="1.1">
<g id="surface1">
<path style=" stroke:none;fill-rule:evenodd;fill:rgb(0%,0%,0%);fill-opacity:1;" d="M 49.25 18.085938 C 45.609375 22.738281 44.660156 24.644531 44.023438 28.566406 C 43.238281 33.398438 43.335938 34.277344 44.757812 35.210938 C 45.898438 35.957031 46.222656 35.964844 48.226562 35.285156 C 50.195312 34.613281 50.714844 34.617188 53.027344 35.304688 L 55.625 36.074219 L 57.3125 34.441406 C 59.234375 32.574219 59.359375 31.609375 58.234375 27.230469 C 57.40625 24.003906 53.707031 15.792969 52.707031 14.964844 C 52.253906 14.589844 51.347656 15.40625 49.25 18.085938 M 18.753906 18.496094 C 17.847656 20.242188 18.136719 21.917969 19.796875 24.558594 C 20.925781 26.363281 20.949219 26.371094 25.089844 26.617188 C 29.683594 26.890625 32.542969 27.726562 37.664062 30.289062 C 39.542969 31.230469 41.175781 32 41.289062 32 C 41.40625 32 41.5 31.382812 41.5 30.625 C 41.496094 29.464844 41.066406 29.023438 38.742188 27.808594 C 37.226562 27.019531 33.402344 24.507812 30.242188 22.234375 C 22.40625 16.59375 20.121094 15.847656 18.753906 18.496094 M 13.117188 28.03125 C 11.664062 28.597656 10.816406 30.71875 11.515625 32.03125 C 12.234375 33.371094 15.136719 34.757812 19.648438 35.910156 L 23.46875 36.890625 L 22.667969 35.339844 C 22.226562 34.488281 21.726562 32.65625 21.558594 31.277344 L 21.25 28.761719 L 18.757812 28.40625 C 17.386719 28.210938 15.808594 27.945312 15.257812 27.820312 C 14.703125 27.691406 13.742188 27.785156 13.117188 28.03125 M 23.804688 28.910156 C 23.175781 29.925781 24.558594 34.28125 26.332031 36.878906 C 28.433594 39.960938 31.671875 42.46875 36.085938 44.441406 C 41.292969 46.769531 41.28125 46.769531 41.949219 43.773438 C 42.269531 42.34375 42.976562 40.347656 43.515625 39.339844 L 44.496094 37.507812 L 42.125 35.785156 C 38.238281 32.964844 34.851562 31.046875 31.941406 30.023438 C 28.421875 28.789062 24.234375 28.214844 23.804688 28.910156 M 66.25 29.84375 C 65.425781 30.285156 62.949219 32.121094 60.75 33.921875 C 58.550781 35.722656 56.671875 37.253906 56.570312 37.320312 C 56.472656 37.386719 56.726562 38.410156 57.136719 39.59375 C 59.070312 45.214844 59.367188 48.035156 58.246094 50.183594 C 57.277344 52.039062 57.285156 52.058594 58.734375 51.507812 C 60.726562 50.746094 71.105469 40.101562 74.199219 35.640625 C 75.765625 33.378906 77.261719 31.398438 77.523438 31.234375 C 80.433594 29.4375 69.527344 28.089844 66.25 29.84375 M 0.734375 32.027344 C -0.015625 33.238281 1.042969 35.023438 2.960938 35.792969 C 4.03125 36.222656 5.015625 37.003906 5.152344 37.535156 C 5.457031 38.695312 5.4375 38.695312 3.171875 37.75 C 2.183594 37.335938 1.066406 37 0.6875 37 C -0.1875 37 -0.238281 39.695312 0.625 40.355469 C 1.496094 41.019531 9.183594 44.195312 12.5 45.261719 C 14.011719 45.75 16.941406 46.886719 19.007812 47.789062 C 23.742188 49.863281 27.507812 50.4375 29.179688 49.339844 C 29.839844 48.910156 31.699219 48.128906 33.3125 47.605469 L 36.246094 46.652344 L 34.496094 45.757812 C 33.535156 45.265625 31.175781 43.835938 29.25 42.582031 C 26.863281 41.023438 24.007812 39.761719 20.257812 38.613281 C 14.242188 36.765625 7.132812 33.953125 4.691406 32.457031 C 2.96875 31.402344 1.238281 31.214844 0.734375 32.027344 M 46.488281 38.511719 C 45.046875 40.054688 44.167969 42.558594 44.742188 43.488281 C 45.25 44.3125 46.328125 44.085938 48.308594 42.742188 C 50.3125 41.382812 51.371094 41.449219 53.441406 43.070312 C 55.800781 44.910156 57.015625 43.828125 56.007812 40.777344 C 55.207031 38.34375 53.15625 37 50.25 37 C 48.28125 37 47.671875 37.246094 46.488281 38.511719 M 49.195312 44.207031 C 49.046875 44.597656 49 45.554688 49.085938 46.332031 C 49.214844 47.449219 49.503906 47.75 50.445312 47.75 C 52.113281 47.75 52.855469 46.425781 52.109375 44.789062 C 51.46875 43.386719 49.652344 43.023438 49.195312 44.207031 M 43.832031 45.332031 C 43.277344 45.890625 43.460938 48.433594 44.183594 50.164062 C 46.988281 56.882812 56.371094 55.398438 57.351562 48.085938 C 57.734375 45.242188 56.828125 45.070312 54.207031 47.488281 C 51.191406 50.269531 49.398438 50.171875 47.355469 47.125 C 46.054688 45.183594 44.683594 44.484375 43.832031 45.332031 M 67.355469 46.390625 C 65.703125 48.113281 65.664062 48.5 67.136719 48.5 C 68.363281 48.5 72.863281 51.253906 75.175781 53.417969 C 75.957031 54.148438 77.234375 55.664062 78.011719 56.785156 C 79.558594 59.015625 80.828125 59.558594 86.75 60.53125 C 91.546875 61.316406 94.0625 60.617188 96.847656 57.71875 C 100.285156 54.148438 100.941406 49.816406 98.238281 48.585938 C 96.097656 47.609375 94.164062 47.886719 92.390625 49.421875 C 91.488281 50.203125 90.195312 50.984375 89.515625 51.152344 C 87.535156 51.652344 81.1875 50.09375 75.25 47.65625 C 72.226562 46.410156 69.515625 45.300781 69.230469 45.183594 C 68.945312 45.070312 68.101562 45.609375 67.355469 46.390625 M 35.363281 49.179688 C 31.527344 50.488281 29.285156 52.332031 27.957031 55.273438 C 27.039062 57.308594 25.652344 64.316406 26.082031 64.75 C 26.210938 64.875 29.113281 64.433594 32.53125 63.769531 C 35.953125 63.101562 41.445312 62.1875 44.738281 61.734375 C 51 60.875 51.996094 60.558594 53.921875 58.8125 C 54.988281 57.847656 56.5 55.472656 56.5 54.765625 C 56.5 54.609375 55.609375 54.933594 54.519531 55.488281 C 52.175781 56.683594 49.019531 56.792969 47 55.75 C 45.292969 54.867188 43.339844 52.433594 42.257812 49.847656 C 41.316406 47.597656 40.300781 47.496094 35.363281 49.179688 M 63.78125 51.085938 C 63.300781 51.894531 61.917969 53.039062 60.703125 53.628906 C 59.492188 54.21875 58.5 55.003906 58.5 55.375 C 58.5 55.746094 58.050781 56.980469 57.5 58.117188 C 56.949219 59.257812 56.5 60.351562 56.5 60.550781 C 56.5 60.746094 57.457031 61.355469 58.625 61.902344 C 60.128906 62.605469 62.503906 63.011719 66.75 63.304688 C 74.078125 63.804688 78.84375 63.824219 79.316406 63.351562 C 79.929688 62.738281 78.367188 60.453125 74.59375 56.433594 C 70.824219 52.421875 68.597656 50.746094 66.09375 50.027344 C 64.820312 49.660156 64.546875 49.789062 63.78125 51.085938 M 50.75 62.421875 C 49.925781 62.609375 49.351562 62.984375 49.472656 63.253906 C 49.59375 63.527344 51.730469 65.191406 54.222656 66.953125 C 56.710938 68.714844 60.066406 71.28125 61.679688 72.660156 C 68.753906 78.707031 72 78.398438 72 71.667969 C 72 69.019531 71.835938 68.441406 70.886719 67.777344 C 69.238281 66.621094 67.15625 66.785156 66.414062 68.125 C 65.796875 69.242188 65.789062 69.242188 65.519531 67.773438 C 65.28125 66.472656 64.886719 66.183594 62.25 65.367188 C 60.597656 64.851562 58.125 63.976562 56.75 63.414062 C 53.679688 62.15625 52.671875 61.992188 50.75 62.421875 M 79.5 65.59375 C 78.539062 65.871094 76.460938 66.003906 74.886719 65.894531 L 72.023438 65.6875 L 75.011719 68.800781 C 76.738281 70.597656 78 72.359375 78 72.96875 C 78 73.550781 77.210938 75.589844 76.25 77.5 C 75.289062 79.410156 74.5 81.378906 74.5 81.875 C 74.5 82.976562 78.242188 85.5 79.878906 85.5 C 81.355469 85.5 83.484375 83.214844 85.425781 79.539062 C 87.691406 75.257812 88.273438 72.871094 87.503906 71.011719 C 86.914062 69.585938 82.296875 64.941406 81.570312 65.046875 C 81.394531 65.070312 80.460938 65.316406 79.5 65.59375 "/>
</g>
</svg>
