<?xml version="1.0" encoding="UTF-8"?>
<svg xmlns="http://www.w3.org/2000/svg" xmlns:xlink="http://www.w3.org/1999/xlink" width="100px" height="100px" viewBox="0 0 100 100" version="1.1">
<g id="surface1">
<path style=" stroke:none;fill-rule:evenodd;fill:rgb(0%,0%,0%);fill-opacity:1;" d="M 46.160156 5.125 C 44.664062 6.789062 44.492188 7.210938 43.960938 10.507812 C 43.035156 16.238281 45.148438 26.398438 48.226562 31.050781 C 48.933594 32.125 49.34375 32.996094 49.132812 32.996094 C 47.242188 32.972656 38.429688 30.167969 35.917969 28.792969 C 32.363281 26.84375 28.605469 25.828125 26.699219 26.308594 C 23.335938 27.152344 24.765625 32.484375 29.097656 35.25 C 30.402344 36.085938 31.457031 37.144531 31.472656 37.636719 C 31.566406 40.667969 34.488281 46.292969 39.125 52.355469 C 40.429688 54.066406 41.5 55.660156 41.5 55.90625 C 41.5 56.148438 41.0625 56.742188 40.527344 57.222656 C 39.992188 57.707031 39.148438 59.09375 38.652344 60.300781 C 38.152344 61.515625 37.414062 62.496094 37 62.5 C 34.699219 62.503906 24.953125 63.613281 23.25 64.0625 C 18.992188 65.183594 17.703125 68.320312 20.523438 70.691406 C 22.414062 72.285156 25.8125 73.316406 31.425781 74.007812 C 33.804688 74.300781 36.226562 74.644531 36.8125 74.765625 C 37.429688 74.894531 38.648438 74.464844 39.710938 73.742188 C 40.71875 73.058594 41.609375 72.5 41.683594 72.5 C 41.761719 72.5 40.609375 77.144531 39.117188 82.816406 C 36.441406 93.03125 36.421875 93.144531 37.382812 94.105469 C 37.917969 94.640625 39.269531 95.199219 40.390625 95.347656 C 42.75 95.664062 42.195312 96.925781 45.273438 84.25 C 46.273438 80.125 47.1875 76.445312 47.300781 76.070312 C 47.417969 75.695312 48.351562 77.03125 49.382812 79.039062 C 51.550781 83.28125 52.9375 84.492188 54.191406 83.238281 C 55.828125 81.597656 54.707031 74.390625 51.789062 67.789062 L 50.566406 65.019531 L 52.65625 64.464844 C 56.210938 63.519531 61.40625 60.484375 64.140625 57.757812 C 66.609375 55.292969 66.945312 55.125 70.398438 54.613281 C 74.640625 53.988281 77.476562 52.675781 78.074219 51.0625 C 78.695312 49.382812 76.375 47.28125 72.722656 46.222656 C 68.933594 45.121094 63.953125 45.476562 59.269531 47.183594 C 57.351562 47.882812 55.742188 48.40625 55.691406 48.351562 C 55.359375 47.996094 54.570312 39.054688 54.796875 38.210938 C 55.027344 37.34375 56.109375 36.910156 61.25 35.636719 C 73.660156 32.558594 80.964844 27.28125 82.242188 20.464844 C 82.902344 16.941406 79.566406 14.898438 76.101562 16.703125 C 75.359375 17.089844 73.132812 19.105469 71.15625 21.183594 C 67.796875 24.707031 61.597656 29.765625 61.164062 29.332031 C 61.058594 29.226562 61.203125 28.53125 61.484375 27.785156 C 62.667969 24.675781 61.660156 21.449219 59.734375 22.1875 C 59.078125 22.441406 57.40625 25.617188 55.101562 31 C 54.675781 32 54.558594 31.195312 54.53125 27 C 54.492188 21.40625 53.464844 13.386719 52.253906 9.203125 C 50.863281 4.402344 48.335938 2.710938 46.160156 5.125 M 47.023438 7.125 C 45.890625 8.902344 45.726562 16.714844 46.726562 21.214844 C 47.445312 24.441406 50.804688 32.386719 51.246094 31.90625 C 51.328125 31.820312 50.878906 29.460938 50.246094 26.664062 C 49.613281 23.863281 48.96875 19.589844 48.808594 17.164062 L 48.523438 12.75 L 49.507812 17.75 C 50.046875 20.5 50.941406 24.101562 51.492188 25.75 L 52.496094 28.75 L 52.238281 23.539062 C 51.832031 15.242188 49.65625 6 48.109375 6 C 47.90625 6 47.417969 6.507812 47.023438 7.125 M 73.039062 22.335938 C 70.691406 24.71875 67.449219 27.644531 65.832031 28.835938 C 64.214844 30.027344 63.035156 31 63.214844 31 C 64.246094 31 70.699219 27.121094 73.53125 24.800781 C 74.238281 24.222656 73.628906 24.914062 72.175781 26.335938 C 70.722656 27.757812 68.007812 29.839844 66.144531 30.957031 C 62.289062 33.269531 62.285156 33.363281 66.058594 32.066406 C 70.316406 30.601562 73.894531 28.617188 76.332031 26.371094 C 79.03125 23.882812 80 22.140625 80 19.773438 C 80 18.179688 79.863281 18 78.652344 18 C 77.621094 18 76.304688 19.015625 73.039062 22.335938 M 59.039062 26.5625 C 59.019531 26.738281 58.660156 27.691406 58.242188 28.6875 C 57.828125 29.683594 57.597656 30.5 57.730469 30.5 C 58.214844 30.5 59.554688 27.417969 59.320312 26.839844 C 59.1875 26.515625 59.0625 26.390625 59.039062 26.5625 M 27 29.234375 C 27 33.136719 35.601562 37.039062 44 36.941406 C 48.542969 36.890625 51.699219 36.132812 47.75 36.042969 C 44.484375 35.96875 39.8125 34.847656 36.308594 33.296875 C 34.761719 32.613281 33.5 31.96875 33.5 31.867188 C 33.5 31.761719 35.019531 32.175781 36.875 32.785156 C 38.730469 33.394531 41.375 34.023438 42.75 34.183594 L 45.25 34.476562 L 42.011719 33.527344 C 40.230469 33.007812 37.160156 31.75 35.1875 30.734375 C 31.003906 28.582031 27 27.847656 27 29.234375 M 33.78125 38.695312 C 34.613281 41.5625 37.152344 46.160156 39.957031 49.875 C 41.671875 52.144531 43.164062 54 43.273438 54 C 43.566406 54 40.539062 45.566406 39.414062 43.25 L 38.445312 41.25 L 39.464844 42.5 C 40.023438 43.1875 41.378906 45.4375 42.476562 47.5 C 43.570312 49.5625 44.476562 50.976562 44.484375 50.644531 C 44.515625 49.457031 42.46875 44.914062 40.535156 41.871094 C 38.710938 39.003906 38.394531 38.746094 36.023438 38.210938 C 33.546875 37.652344 33.484375 37.667969 33.78125 38.695312 M 46.5 39.082031 C 44.988281 39.339844 43.273438 39.460938 42.6875 39.355469 C 41.71875 39.179688 41.808594 39.515625 43.738281 43.207031 C 44.898438 45.429688 46.152344 48.429688 46.519531 49.875 C 46.886719 51.320312 47.371094 52.5 47.59375 52.5 C 47.816406 52.5 48 51.3125 48 49.863281 C 48 47.605469 49.148438 42.292969 50.269531 39.375 C 50.648438 38.394531 50.59375 38.390625 46.5 39.082031 M 52.332031 43.5 C 52.136719 44.1875 51.785156 46.4375 51.554688 48.5 L 51.128906 52.25 L 51.03125 49 C 50.894531 44.617188 50.078125 46.484375 50.046875 51.25 C 50.03125 53.683594 50.316406 55.398438 50.988281 56.875 C 52.742188 60.746094 53.511719 59.304688 53.445312 52.25 C 53.386719 46.238281 52.820312 41.777344 52.332031 43.5 M 62.835938 48.257812 C 57.597656 49.582031 57.777344 50.070312 63.375 49.714844 C 69.023438 49.359375 70.644531 50.136719 65.375 50.675781 C 63.65625 50.851562 61.011719 51.320312 59.5 51.714844 C 56.828125 52.414062 56.980469 52.433594 65 52.324219 C 75.675781 52.179688 78.402344 51.089844 73.804688 48.8125 C 71.328125 47.585938 66.476562 47.339844 62.835938 48.257812 M 55.773438 55.125 C 55.308594 56.632812 55.171875 58.5 55.527344 58.5 C 55.742188 58.5 56.628906 57.601562 57.5 56.5 L 59.085938 54.5 L 57.527344 54.5 C 56.667969 54.5 55.882812 54.78125 55.773438 55.125 M 59.25 56.542969 C 57.875 57.632812 55.886719 59.21875 54.835938 60.074219 C 53.179688 61.414062 52.753906 61.550781 51.710938 61.074219 C 50.609375 60.570312 50.5 60.632812 50.5 61.757812 L 50.5 62.992188 L 53.710938 61.78125 C 58.035156 60.15625 63.074219 56.832031 63.703125 55.191406 C 64.230469 53.8125 61.746094 54.566406 59.25 56.542969 M 44.164062 56.46875 C 43.292969 57.003906 41.992188 58.4375 41.273438 59.660156 C 39.363281 62.921875 37.703125 71.5 38.984375 71.5 C 39.246094 71.5 40.238281 70.820312 41.1875 69.988281 C 42.425781 68.902344 43.558594 66.921875 45.234375 62.933594 C 46.511719 59.886719 47.464844 57.300781 47.351562 57.183594 C 46.980469 56.8125 42.945312 61.519531 42.234375 63.152344 C 41.851562 64.03125 41.53125 64.414062 41.523438 64 C 41.503906 62.996094 43.753906 58.210938 44.445312 57.785156 C 44.957031 57.46875 46.207031 55.496094 45.890625 55.503906 C 45.8125 55.503906 45.035156 55.9375 44.164062 56.46875 M 26.5 65.5625 C 22.964844 66.132812 21 66.941406 21 67.816406 C 21 69.484375 26.507812 71.410156 33.625 72.238281 L 36.5 72.570312 L 36.5 70.570312 C 36.5 68.1875 36.574219 68.21875 29.75 67.6875 L 24.75 67.296875 L 27.75 66.953125 C 29.398438 66.761719 32.15625 66.585938 33.875 66.554688 C 36.296875 66.511719 37 66.332031 37 65.75 C 37 65.144531 36.261719 65.011719 33.125 65.058594 C 30.992188 65.089844 28.011719 65.316406 26.5 65.5625 M 49.195312 68.144531 C 50.238281 71.375 51.0625 74.605469 50.886719 74.78125 C 50.773438 74.894531 50.164062 73.742188 49.53125 72.21875 C 48.898438 70.695312 48.289062 69.542969 48.171875 69.660156 C 47.886719 69.945312 50.59375 77.277344 51.898438 79.75 L 52.957031 81.75 L 52.976562 79.882812 C 53 77.972656 50.445312 69.355469 49.453125 68 C 48.992188 67.367188 48.953125 67.390625 49.195312 68.144531 M 44.582031 70.273438 C 44.300781 71.359375 42.929688 76.609375 41.535156 81.933594 C 40.140625 87.261719 39 91.902344 39 92.25 C 39 92.597656 39.40625 92.988281 39.90625 93.121094 C 40.699219 93.328125 41.132812 92.054688 43.507812 82.554688 C 46.125 72.066406 46.347656 70.554688 45.496094 69.023438 C 45.207031 68.5 44.949219 68.851562 44.582031 70.273438 "/>
</g>
</svg>
