<?xml version="1.0" encoding="UTF-8"?>
<svg xmlns="http://www.w3.org/2000/svg" xmlns:xlink="http://www.w3.org/1999/xlink" width="24px" height="24px" viewBox="0 0 24 24" version="1.1">
<g id="surface1">
<path style=" stroke:none;fill-rule:evenodd;fill:rgb(0%,0%,0%);fill-opacity:1;" d="M 11.078125 1.230469 C 10.71875 1.628906 10.679688 1.730469 10.550781 2.523438 C 10.328125 3.898438 10.835938 6.335938 11.574219 7.453125 C 11.746094 7.710938 11.84375 7.917969 11.792969 7.917969 C 11.339844 7.914062 9.222656 7.242188 8.621094 6.910156 C 7.765625 6.441406 6.863281 6.199219 6.40625 6.3125 C 5.601562 6.515625 5.945312 7.796875 6.984375 8.460938 C 7.296875 8.660156 7.550781 8.914062 7.554688 9.03125 C 7.574219 9.761719 8.277344 11.109375 9.390625 12.566406 C 9.703125 12.976562 9.960938 13.359375 9.960938 13.417969 C 9.960938 13.476562 9.855469 13.617188 9.726562 13.734375 C 9.597656 13.851562 9.394531 14.183594 9.277344 14.472656 C 9.15625 14.761719 8.980469 15 8.878906 15 C 8.328125 15 5.988281 15.265625 5.578125 15.375 C 4.558594 15.644531 4.25 16.398438 4.925781 16.964844 C 5.378906 17.347656 6.195312 17.597656 7.542969 17.761719 C 8.113281 17.832031 8.695312 17.914062 8.835938 17.945312 C 8.984375 17.976562 9.277344 17.871094 9.53125 17.699219 C 9.773438 17.535156 9.984375 17.398438 10.003906 17.398438 C 10.023438 17.398438 9.746094 18.515625 9.386719 19.875 C 8.746094 22.328125 8.742188 22.355469 8.972656 22.585938 C 9.101562 22.714844 9.425781 22.847656 9.695312 22.882812 C 10.261719 22.960938 10.125 23.261719 10.863281 20.21875 C 11.105469 19.230469 11.324219 18.347656 11.351562 18.257812 C 11.378906 18.167969 11.605469 18.488281 11.851562 18.96875 C 12.371094 19.988281 12.707031 20.277344 13.007812 19.976562 C 13.398438 19.582031 13.128906 17.855469 12.429688 16.269531 L 12.136719 15.605469 L 12.636719 15.472656 C 13.492188 15.246094 14.738281 14.515625 15.394531 13.863281 C 15.984375 13.269531 16.066406 13.230469 16.894531 13.105469 C 17.914062 12.957031 18.59375 12.640625 18.738281 12.253906 C 18.886719 11.851562 18.332031 11.347656 17.453125 11.09375 C 16.542969 10.828125 15.347656 10.914062 14.222656 11.324219 C 13.765625 11.492188 13.378906 11.617188 13.367188 11.605469 C 13.285156 11.519531 13.097656 9.375 13.152344 9.171875 C 13.207031 8.960938 13.464844 8.859375 14.699219 8.554688 C 17.679688 7.8125 19.429688 6.546875 19.738281 4.910156 C 19.898438 4.066406 19.097656 3.574219 18.265625 4.007812 C 18.085938 4.101562 17.550781 4.585938 17.078125 5.082031 C 16.273438 5.929688 14.785156 7.144531 14.679688 7.039062 C 14.652344 7.015625 14.6875 6.847656 14.757812 6.667969 C 15.039062 5.921875 14.796875 5.148438 14.335938 5.324219 C 14.179688 5.386719 13.777344 6.148438 13.222656 7.441406 C 13.121094 7.679688 13.09375 7.488281 13.085938 6.480469 C 13.078125 5.136719 12.832031 3.210938 12.542969 2.207031 C 12.207031 1.054688 11.601562 0.652344 11.078125 1.230469 M 11.285156 1.710938 C 11.011719 2.136719 10.972656 4.011719 11.214844 5.09375 C 11.386719 5.867188 12.191406 7.773438 12.300781 7.65625 C 12.320312 7.636719 12.210938 7.070312 12.058594 6.398438 C 11.90625 5.726562 11.753906 4.703125 11.714844 4.117188 L 11.644531 3.058594 L 11.882812 4.261719 C 12.011719 4.921875 12.226562 5.785156 12.359375 6.179688 L 12.597656 6.898438 L 12.539062 5.648438 C 12.441406 3.65625 11.917969 1.441406 11.546875 1.441406 C 11.496094 1.441406 11.378906 1.5625 11.285156 1.710938 M 17.527344 5.359375 C 16.964844 5.933594 16.1875 6.636719 15.800781 6.921875 C 15.410156 7.207031 15.128906 7.441406 15.171875 7.441406 C 15.417969 7.441406 16.96875 6.507812 17.648438 5.953125 C 17.816406 5.8125 17.671875 5.980469 17.320312 6.320312 C 16.972656 6.664062 16.324219 7.160156 15.875 7.429688 C 14.949219 7.984375 14.949219 8.007812 15.855469 7.695312 C 16.875 7.34375 17.734375 6.867188 18.320312 6.328125 C 18.96875 5.730469 19.199219 5.3125 19.199219 4.746094 C 19.199219 4.363281 19.167969 4.320312 18.875 4.320312 C 18.628906 4.320312 18.3125 4.5625 17.527344 5.359375 M 14.167969 6.375 C 14.164062 6.417969 14.078125 6.644531 13.976562 6.886719 C 13.878906 7.125 13.824219 7.320312 13.855469 7.320312 C 13.972656 7.320312 14.292969 6.582031 14.238281 6.441406 C 14.203125 6.363281 14.175781 6.332031 14.167969 6.375 M 6.480469 7.015625 C 6.480469 7.953125 8.542969 8.890625 10.558594 8.867188 C 11.648438 8.855469 12.40625 8.671875 11.460938 8.648438 C 10.675781 8.632812 9.554688 8.363281 8.714844 7.992188 C 8.34375 7.828125 8.039062 7.671875 8.039062 7.648438 C 8.039062 7.621094 8.40625 7.722656 8.851562 7.867188 C 9.296875 8.015625 9.929688 8.164062 10.261719 8.203125 L 10.859375 8.273438 L 10.082031 8.046875 C 9.65625 7.921875 8.917969 7.621094 8.445312 7.375 C 7.441406 6.859375 6.480469 6.683594 6.480469 7.015625 M 8.109375 9.285156 C 8.308594 9.976562 8.917969 11.078125 9.589844 11.96875 C 10 12.515625 10.359375 12.960938 10.386719 12.960938 C 10.457031 12.960938 9.730469 10.9375 9.460938 10.378906 L 9.226562 9.898438 L 9.472656 10.199219 C 9.605469 10.363281 9.929688 10.90625 10.195312 11.398438 C 10.457031 11.894531 10.675781 12.234375 10.675781 12.15625 C 10.683594 11.871094 10.191406 10.777344 9.730469 10.050781 C 9.289062 9.359375 9.214844 9.296875 8.644531 9.171875 C 8.050781 9.035156 8.035156 9.039062 8.109375 9.285156 M 11.160156 9.378906 C 10.796875 9.441406 10.386719 9.472656 10.246094 9.445312 C 10.011719 9.402344 10.035156 9.484375 10.496094 10.371094 C 10.777344 10.902344 11.078125 11.625 11.164062 11.96875 C 11.253906 12.316406 11.371094 12.601562 11.421875 12.601562 C 11.476562 12.601562 11.519531 12.316406 11.519531 11.96875 C 11.519531 11.425781 11.796875 10.152344 12.066406 9.449219 C 12.15625 9.214844 12.144531 9.214844 11.160156 9.378906 M 12.558594 10.441406 C 12.511719 10.605469 12.429688 11.144531 12.371094 11.640625 L 12.269531 12.539062 L 12.246094 11.761719 C 12.214844 10.707031 12.019531 11.15625 12.011719 12.300781 C 12.007812 12.882812 12.074219 13.296875 12.238281 13.648438 C 12.660156 14.578125 12.84375 14.234375 12.828125 12.539062 C 12.8125 11.097656 12.675781 10.027344 12.558594 10.441406 M 15.082031 11.582031 C 13.824219 11.898438 13.867188 12.015625 15.210938 11.933594 C 16.566406 11.847656 16.953125 12.03125 15.691406 12.160156 C 15.277344 12.203125 14.644531 12.316406 14.28125 12.410156 C 13.636719 12.578125 13.675781 12.582031 15.601562 12.558594 C 18.164062 12.523438 18.816406 12.261719 17.714844 11.714844 C 17.117188 11.421875 15.953125 11.363281 15.082031 11.582031 M 13.386719 13.230469 C 13.273438 13.589844 13.242188 14.039062 13.328125 14.039062 C 13.378906 14.039062 13.589844 13.824219 13.800781 13.558594 L 14.179688 13.078125 L 13.804688 13.078125 C 13.601562 13.078125 13.410156 13.148438 13.386719 13.230469 M 14.21875 13.570312 C 13.890625 13.832031 13.414062 14.210938 13.160156 14.417969 C 12.761719 14.738281 12.660156 14.773438 12.410156 14.65625 C 12.144531 14.535156 12.121094 14.550781 12.121094 14.820312 L 12.121094 15.117188 L 12.890625 14.828125 C 13.929688 14.4375 15.136719 13.640625 15.289062 13.246094 C 15.414062 12.914062 14.820312 13.097656 14.21875 13.570312 M 10.597656 13.554688 C 10.390625 13.679688 10.078125 14.023438 9.90625 14.320312 C 9.449219 15.101562 9.050781 17.160156 9.355469 17.160156 C 9.417969 17.160156 9.65625 16.996094 9.882812 16.796875 C 10.183594 16.535156 10.453125 16.0625 10.855469 15.105469 C 11.164062 14.371094 11.390625 13.75 11.363281 13.722656 C 11.273438 13.636719 10.308594 14.765625 10.136719 15.15625 C 10.042969 15.367188 9.96875 15.460938 9.964844 15.359375 C 9.960938 15.121094 10.5 13.96875 10.667969 13.867188 C 10.789062 13.792969 11.089844 13.320312 11.015625 13.320312 C 10.996094 13.320312 10.808594 13.425781 10.597656 13.554688 M 6.359375 15.734375 C 5.511719 15.871094 5.039062 16.066406 5.039062 16.277344 C 5.039062 16.675781 6.363281 17.136719 8.070312 17.335938 L 8.761719 17.417969 L 8.761719 16.9375 C 8.761719 16.363281 8.777344 16.371094 7.140625 16.246094 L 5.941406 16.152344 L 6.660156 16.070312 C 7.054688 16.023438 7.71875 15.980469 8.128906 15.972656 C 8.710938 15.960938 8.878906 15.917969 8.878906 15.78125 C 8.878906 15.632812 8.703125 15.601562 7.949219 15.613281 C 7.4375 15.621094 6.722656 15.675781 6.359375 15.734375 M 11.808594 16.355469 C 12.058594 17.128906 12.253906 17.90625 12.210938 17.949219 C 12.183594 17.976562 12.039062 17.699219 11.886719 17.332031 C 11.734375 16.96875 11.589844 16.691406 11.5625 16.71875 C 11.492188 16.789062 12.144531 18.546875 12.457031 19.140625 L 12.710938 19.621094 L 12.714844 19.171875 C 12.71875 18.714844 12.105469 16.644531 11.867188 16.320312 C 11.757812 16.167969 11.75 16.175781 11.808594 16.355469 M 10.699219 16.863281 C 10.632812 17.125 10.304688 18.386719 9.96875 19.664062 C 9.632812 20.941406 9.359375 22.058594 9.359375 22.140625 C 9.359375 22.222656 9.457031 22.316406 9.578125 22.347656 C 9.769531 22.398438 9.871094 22.09375 10.441406 19.8125 C 11.070312 17.296875 11.125 16.933594 10.917969 16.566406 C 10.851562 16.441406 10.789062 16.523438 10.699219 16.863281 "/>
</g>
</svg>
