<?xml version="1.0" encoding="UTF-8"?>
<svg xmlns="http://www.w3.org/2000/svg" xmlns:xlink="http://www.w3.org/1999/xlink" width="24px" height="24px" viewBox="0 0 24 24" version="1.1">
<g id="surface1">
<path style=" stroke:none;fill-rule:evenodd;fill:rgb(0%,0%,0%);fill-opacity:1;" d="M 5.304688 2.375 C 5.171875 2.507812 5.027344 2.839844 4.980469 3.117188 C 4.878906 3.71875 4.8125 3.65625 6.785156 4.738281 C 7.578125 5.171875 8.378906 5.648438 8.5625 5.796875 C 8.859375 6.035156 8.882812 6.097656 8.769531 6.398438 C 8.578125 6.894531 8.617188 7.675781 8.851562 8.1875 L 9.058594 8.632812 L 9.601562 7.945312 C 10.207031 7.179688 11.136719 6.5 12.019531 6.183594 C 12.527344 6 12.585938 5.949219 12.453125 5.789062 C 12.160156 5.433594 11.296875 5.140625 10.628906 5.171875 L 9.988281 5.203125 L 8.925781 4.265625 C 7.703125 3.1875 6.410156 2.308594 5.898438 2.207031 C 5.640625 2.152344 5.480469 2.199219 5.304688 2.375 M 11.90625 6.679688 C 11.085938 7.015625 10.144531 7.789062 9.605469 8.574219 L 9.261719 9.074219 L 9.429688 9.894531 C 9.769531 11.511719 10.210938 12.214844 11.378906 13.003906 C 13.011719 14.113281 13.410156 14.671875 14.269531 17.070312 C 15.035156 19.207031 15.714844 20.488281 16.445312 21.171875 C 16.765625 21.472656 17.128906 21.71875 17.253906 21.71875 C 17.519531 21.71875 18.015625 21.214844 18.296875 20.65625 C 19.363281 18.542969 19.257812 15.28125 17.992188 11.328125 C 17.289062 9.144531 16.914062 8.570312 15.574219 7.660156 C 14.714844 7.078125 13.230469 6.359375 12.902344 6.367188 C 12.769531 6.367188 12.320312 6.511719 11.90625 6.679688 "/>
</g>
</svg>
