<?xml version="1.0" encoding="UTF-8"?>
<svg xmlns="http://www.w3.org/2000/svg" xmlns:xlink="http://www.w3.org/1999/xlink" width="100px" height="100px" viewBox="0 0 100 100" version="1.1">
<g id="surface1">
<path style=" stroke:none;fill-rule:evenodd;fill:rgb(0%,0%,0%);fill-opacity:1;" d="M 22.105469 9.894531 C 21.554688 10.445312 20.945312 11.832031 20.753906 12.980469 C 20.328125 15.488281 20.046875 15.234375 28.265625 19.738281 C 31.574219 21.554688 34.90625 23.539062 35.671875 24.148438 C 36.914062 25.140625 37.007812 25.410156 36.535156 26.660156 C 35.75 28.722656 35.90625 31.988281 36.886719 34.113281 L 37.75 35.976562 L 40.007812 33.113281 C 42.53125 29.914062 46.410156 27.089844 50.085938 25.765625 C 52.199219 25.007812 52.445312 24.785156 51.890625 24.113281 C 50.667969 22.632812 47.078125 21.425781 44.28125 21.554688 L 41.617188 21.675781 L 37.183594 17.765625 C 32.089844 13.273438 26.714844 9.617188 24.578125 9.191406 C 23.496094 8.972656 22.839844 9.160156 22.105469 9.894531 M 49.617188 27.832031 C 46.1875 29.234375 42.265625 32.457031 40.019531 35.71875 L 38.582031 37.808594 L 39.296875 41.222656 C 40.710938 47.96875 42.542969 50.894531 47.410156 54.191406 C 54.21875 58.800781 55.878906 61.128906 59.453125 71.121094 C 62.640625 80.027344 65.476562 85.375 68.519531 88.21875 C 69.859375 89.472656 71.375 90.5 71.886719 90.5 C 72.996094 90.5 75.058594 88.394531 76.234375 86.066406 C 80.679688 77.265625 80.234375 63.667969 74.960938 47.203125 C 72.042969 38.101562 70.46875 35.714844 64.886719 31.925781 C 61.308594 29.492188 55.125 26.492188 53.765625 26.523438 C 53.207031 26.539062 51.339844 27.125 49.617188 27.832031 "/>
</g>
</svg>
