<?xml version="1.0" encoding="UTF-8"?>
<svg xmlns="http://www.w3.org/2000/svg" xmlns:xlink="http://www.w3.org/1999/xlink" width="24px" height="24px" viewBox="0 0 24 24" version="1.1">
<g id="surface1">
<path style=" stroke:none;fill-rule:evenodd;fill:rgb(0%,0%,0%);fill-opacity:1;" d="M 10.90625 1.878906 C 10.792969 2.011719 10.734375 2.449219 10.722656 3.226562 C 10.699219 5.078125 10.324219 8.882812 10.128906 9.292969 C 10.03125 9.492188 9.804688 9.902344 9.625 10.199219 L 9.300781 10.738281 L 9.265625 15.679688 C 9.222656 21.308594 9.230469 21.367188 10.039062 21.589844 C 10.636719 21.757812 13.363281 21.757812 13.960938 21.589844 C 14.769531 21.367188 14.777344 21.308594 14.734375 15.679688 L 14.699219 10.738281 L 14.375 10.199219 C 14.195312 9.902344 13.96875 9.492188 13.871094 9.292969 C 13.675781 8.882812 13.300781 5.078125 13.277344 3.226562 C 13.253906 1.734375 13.210938 1.679688 12 1.679688 C 11.28125 1.679688 11.03125 1.726562 10.90625 1.878906 M 11.085938 2.128906 C 10.886719 2.332031 10.902344 2.339844 11.4375 2.375 C 11.746094 2.398438 12.253906 2.398438 12.5625 2.375 C 13.097656 2.339844 13.113281 2.332031 12.914062 2.128906 C 12.617188 1.835938 11.382812 1.835938 11.085938 2.128906 M 11.035156 2.789062 C 10.949219 5.421875 10.601562 8.917969 10.382812 9.382812 C 10.277344 9.601562 10.046875 10.023438 9.867188 10.320312 L 9.539062 10.859375 L 9.5 14.460938 C 9.449219 18.753906 9.546875 20.929688 9.800781 21.183594 C 10.058594 21.441406 13.941406 21.441406 14.199219 21.183594 C 14.429688 20.953125 14.5625 17.679688 14.5 13.800781 C 14.453125 10.734375 14.503906 11 13.671875 9.464844 C 13.488281 9.125 13.382812 8.457031 13.195312 6.40625 C 13.0625 4.960938 12.960938 3.617188 12.972656 3.421875 C 13.019531 2.621094 13.046875 2.640625 12 2.640625 C 11.316406 2.640625 11.039062 2.683594 11.035156 2.789062 M 11.28125 12.6875 C 10.558594 12.957031 9.96875 13.824219 9.960938 14.613281 C 9.960938 14.832031 10.066406 15.21875 10.195312 15.472656 C 10.839844 16.734375 12.414062 17.011719 13.390625 16.03125 C 14.683594 14.742188 13.804688 12.578125 12 12.609375 C 11.703125 12.613281 11.378906 12.648438 11.28125 12.6875 M 11.175781 13.046875 C 10.363281 13.445312 10.035156 14.414062 10.421875 15.285156 C 11.042969 16.6875 12.957031 16.691406 13.578125 15.289062 C 14.246094 13.773438 12.675781 12.304688 11.175781 13.046875 "/>
</g>
</svg>
