<?xml version="1.0" encoding="UTF-8"?>
<svg xmlns="http://www.w3.org/2000/svg" xmlns:xlink="http://www.w3.org/1999/xlink" width="100px" height="100px" viewBox="0 0 100 100" version="1.1">
<g id="surface1">
<path style=" stroke:none;fill-rule:evenodd;fill:rgb(0%,0%,0%);fill-opacity:1;" d="M 45.4375 7.828125 C 44.972656 8.386719 44.726562 10.203125 44.683594 13.453125 C 44.574219 21.15625 43.023438 37.003906 42.207031 38.714844 C 41.800781 39.558594 40.859375 41.261719 40.113281 42.5 L 38.75 44.75 L 38.597656 65.328125 C 38.429688 88.792969 38.457031 89.023438 41.835938 89.960938 C 44.316406 90.652344 55.683594 90.652344 58.164062 89.960938 C 61.542969 89.023438 61.570312 88.792969 61.402344 65.328125 L 61.25 44.75 L 59.886719 42.5 C 59.140625 41.261719 58.199219 39.558594 57.792969 38.714844 C 56.976562 37.003906 55.425781 21.15625 55.316406 13.453125 C 55.230469 7.226562 55.042969 7 50 7 C 47.003906 7 45.964844 7.1875 45.4375 7.828125 M 46.191406 8.875 C 45.351562 9.710938 45.421875 9.757812 47.65625 9.902344 C 48.945312 9.984375 51.054688 9.984375 52.34375 9.902344 C 54.578125 9.757812 54.648438 9.710938 53.808594 8.875 C 52.574219 7.648438 47.425781 7.648438 46.191406 8.875 M 45.980469 11.625 C 45.617188 22.585938 44.171875 37.15625 43.253906 39.097656 C 42.824219 40.007812 41.859375 41.761719 41.113281 43 L 39.75 45.25 L 39.574219 60.25 C 39.367188 78.140625 39.777344 87.203125 40.835938 88.265625 C 41.910156 89.339844 58.085938 89.34375 59.160156 88.269531 C 60.117188 87.3125 60.675781 73.660156 60.417969 57.5 C 60.214844 44.734375 60.425781 45.835938 56.960938 39.441406 C 56.195312 38.027344 55.761719 35.242188 54.972656 26.691406 C 54.421875 20.671875 54.007812 15.074219 54.058594 14.25 C 54.253906 10.917969 54.355469 11 50 11 C 47.144531 11 45.992188 11.179688 45.980469 11.625 M 47 52.859375 C 44 53.988281 41.53125 57.597656 41.511719 60.894531 C 41.503906 61.800781 41.945312 63.410156 42.484375 64.472656 C 45.164062 69.726562 51.722656 70.875 55.796875 66.804688 C 61.175781 61.425781 57.515625 52.40625 50.007812 52.539062 C 48.765625 52.5625 47.414062 52.707031 47 52.859375 M 46.558594 54.355469 C 43.171875 56.023438 41.816406 60.058594 43.421875 63.683594 C 46.003906 69.527344 53.988281 69.546875 56.570312 63.710938 C 59.363281 57.390625 52.820312 51.269531 46.558594 54.355469 "/>
</g>
</svg>
