<?xml version="1.0" encoding="UTF-8"?>
<svg xmlns="http://www.w3.org/2000/svg" xmlns:xlink="http://www.w3.org/1999/xlink" width="24px" height="24px" viewBox="0 0 24 24" version="1.1">
<g id="surface1">
<path style=" stroke:none;fill-rule:evenodd;fill:rgb(0%,0%,0%);fill-opacity:1;" d="M 11.761719 1.074219 C 11.453125 1.683594 11.195312 2.796875 11.089844 4 L 11.003906 4.9375 L 10.210938 4.164062 C 9.019531 3 7.535156 1.90625 7.367188 2.070312 C 7.15625 2.28125 8.71875 5.472656 9.882812 7.214844 L 10.65625 8.367188 L 10.039062 8.128906 C 9.066406 7.757812 7.539062 7.710938 6.507812 8.023438 C 4.640625 8.589844 3.128906 10.304688 2.925781 12.082031 C 2.835938 12.832031 3.140625 14.117188 3.605469 14.988281 C 4.601562 16.851562 6.871094 18.789062 10.035156 20.484375 C 11.574219 21.308594 11.632812 21.421875 10.988281 22.359375 C 10.511719 23.054688 10.476562 23.226562 10.746094 23.613281 C 10.953125 23.910156 11.1875 23.976562 11.085938 23.707031 C 10.992188 23.464844 11.421875 23.238281 12.578125 22.917969 C 13.234375 22.738281 13.695312 22.53125 13.925781 22.3125 C 14.25 22.011719 14.28125 21.914062 14.28125 21.199219 C 14.28125 20.304688 14.117188 20.488281 15.996094 19.277344 C 17.980469 18 19.53125 16.496094 20.355469 15.042969 C 20.847656 14.179688 21.179688 12.785156 21.074219 12.027344 C 20.832031 10.253906 19.335938 8.582031 17.492188 8.023438 C 16.375 7.683594 14.917969 7.75 13.828125 8.1875 C 13.417969 8.355469 13.078125 8.472656 13.078125 8.445312 C 13.078125 8.421875 13.375 8.035156 13.734375 7.589844 C 14.730469 6.359375 15.882812 4.355469 16.261719 3.1875 C 16.445312 2.621094 16.5625 2.125 16.523438 2.085938 C 16.332031 1.890625 15.199219 2.664062 14.128906 3.722656 L 12.960938 4.878906 L 12.960938 4.253906 C 12.960938 3 12.464844 0.875 12.125 0.664062 C 12.0625 0.625 11.898438 0.808594 11.761719 1.074219 "/>
</g>
</svg>
