<?xml version="1.0" encoding="UTF-8"?>
<svg xmlns="http://www.w3.org/2000/svg" xmlns:xlink="http://www.w3.org/1999/xlink" width="100px" height="100px" viewBox="0 0 100 100" version="1.1">
<g id="surface1">
<path style=" stroke:none;fill-rule:evenodd;fill:rgb(0%,0%,0%);fill-opacity:1;" d="M 49.015625 4.472656 C 47.714844 7.015625 46.648438 11.648438 46.203125 16.664062 L 45.855469 20.578125 L 42.550781 17.355469 C 37.582031 12.503906 31.386719 7.945312 30.703125 8.632812 C 29.824219 9.507812 36.324219 22.804688 41.179688 30.058594 L 44.398438 34.867188 L 41.824219 33.875 C 37.785156 32.320312 31.410156 32.125 27.117188 33.429688 C 19.34375 35.792969 13.039062 42.929688 12.183594 50.335938 C 11.824219 53.460938 13.078125 58.824219 15.019531 62.449219 C 19.179688 70.214844 28.628906 78.296875 41.808594 85.347656 C 48.230469 88.785156 48.472656 89.261719 45.789062 93.160156 C 43.792969 96.0625 43.652344 96.78125 44.777344 98.386719 C 45.644531 99.625 46.621094 99.898438 46.195312 98.785156 C 45.804688 97.773438 47.597656 96.820312 52.40625 95.492188 C 55.136719 94.738281 57.066406 93.871094 58.03125 92.972656 C 59.367188 91.722656 59.5 91.304688 59.5 88.324219 C 59.5 84.597656 58.816406 85.359375 66.652344 80.320312 C 74.914062 75.003906 81.378906 68.730469 84.816406 62.679688 C 86.859375 59.085938 88.242188 53.277344 87.808594 50.117188 C 86.796875 42.734375 80.5625 35.761719 72.882812 33.429688 C 68.222656 32.015625 62.160156 32.289062 57.625 34.121094 C 55.90625 34.816406 54.5 35.296875 54.5 35.191406 C 54.5 35.085938 55.730469 33.480469 57.234375 31.625 C 61.378906 26.503906 66.171875 18.148438 67.753906 13.285156 C 68.523438 10.921875 69.015625 8.851562 68.851562 8.683594 C 68.046875 7.882812 63.335938 11.105469 58.875 15.511719 L 54 20.328125 L 54 17.730469 C 54 12.507812 51.941406 3.640625 50.527344 2.765625 C 50.257812 2.601562 49.578125 3.367188 49.015625 4.472656 "/>
</g>
</svg>
