<?xml version="1.0" encoding="UTF-8"?>
<svg xmlns="http://www.w3.org/2000/svg" xmlns:xlink="http://www.w3.org/1999/xlink" width="24px" height="24px" viewBox="0 0 24 24" version="1.1">
<g id="surface1">
<path style=" stroke:none;fill-rule:evenodd;fill:rgb(0%,0%,0%);fill-opacity:1;" d="M 4.972656 3.421875 C 3.421875 3.839844 1.988281 4.804688 1.449219 5.800781 C 1.175781 6.304688 1.167969 6.355469 1.351562 6.632812 C 1.5625 6.953125 2.125 7.078125 3.363281 7.078125 C 3.882812 7.078125 4.074219 7.128906 4.125 7.269531 C 4.167969 7.371094 4.195312 8.167969 4.191406 9.039062 C 4.1875 10.144531 4.242188 10.800781 4.371094 11.21875 C 4.636719 12.074219 4.613281 12.226562 4.140625 12.683594 C 3.789062 13.023438 3.71875 13.175781 3.71875 13.601562 C 3.71875 14.179688 3.875 14.398438 4.214844 14.3125 C 4.371094 14.269531 4.425781 14.183594 4.378906 14.035156 C 4.324219 13.859375 4.363281 13.832031 4.585938 13.886719 C 4.8125 13.941406 4.832031 13.925781 4.710938 13.792969 C 4.464844 13.527344 4.539062 13.195312 4.929688 12.832031 L 5.296875 12.488281 L 6.039062 13.066406 C 6.445312 13.382812 7.035156 13.8125 7.351562 14.027344 C 7.664062 14.238281 7.921875 14.480469 7.921875 14.566406 C 7.921875 14.789062 8.777344 16.089844 9.476562 16.929688 C 10.105469 17.683594 10.28125 18.199219 10.136719 18.855469 C 10.007812 19.445312 9.832031 19.675781 9.300781 19.945312 C 8.765625 20.214844 8.398438 20.503906 8.398438 20.660156 C 8.398438 20.714844 8.765625 20.761719 9.214844 20.761719 C 10.402344 20.761719 10.746094 20.488281 11.164062 19.210938 C 11.414062 18.449219 11.425781 17.617188 11.210938 16.230469 C 11.148438 15.847656 11.15625 15.839844 11.613281 15.839844 C 12.34375 15.839844 13.300781 16.175781 14.339844 16.796875 C 15.855469 17.703125 16.273438 17.882812 17.753906 18.265625 C 18.890625 18.5625 19.46875 18.636719 20.96875 18.6875 C 22.292969 18.734375 22.800781 18.714844 22.800781 18.617188 C 22.800781 18.542969 22.722656 18.480469 22.625 18.480469 C 22.28125 18.480469 20.195312 17.726562 19.199219 17.238281 C 18.339844 16.820312 17.972656 16.539062 16.84375 15.421875 C 15.636719 14.230469 15.449219 13.988281 14.960938 12.960938 C 14.34375 11.671875 13.144531 10.085938 12.253906 9.382812 C 10.953125 8.355469 9.558594 7.96875 7.597656 8.097656 L 6.375 8.175781 L 6.1875 7.816406 C 6.085938 7.621094 5.945312 6.929688 5.875 6.28125 C 5.804688 5.632812 5.667969 4.953125 5.566406 4.773438 C 5.394531 4.453125 5.398438 4.4375 5.785156 4.195312 C 6.113281 3.988281 6.296875 3.960938 6.871094 4.019531 C 7.453125 4.082031 7.574219 4.058594 7.640625 3.886719 C 7.691406 3.753906 7.625 3.605469 7.445312 3.460938 C 7.113281 3.191406 5.898438 3.171875 4.972656 3.421875 M 3.503906 4.890625 C 3.523438 5.003906 3.621094 5.101562 3.71875 5.101562 C 3.816406 5.101562 3.914062 5.003906 3.9375 4.890625 C 3.964844 4.742188 3.902344 4.679688 3.71875 4.679688 C 3.539062 4.679688 3.472656 4.742188 3.503906 4.890625 "/>
</g>
</svg>
