<?xml version="1.0" encoding="UTF-8"?>
<svg xmlns="http://www.w3.org/2000/svg" xmlns:xlink="http://www.w3.org/1999/xlink" width="100px" height="100px" viewBox="0 0 100 100" version="1.1">
<g id="surface1">
<path style=" stroke:none;fill-rule:evenodd;fill:rgb(0%,0%,0%);fill-opacity:1;" d="M 20.714844 14.25 C 14.253906 15.992188 8.28125 20.027344 6.035156 24.167969 C 4.894531 26.269531 4.871094 26.476562 5.625 27.628906 C 6.507812 28.976562 8.855469 29.5 14.015625 29.5 C 16.171875 29.5 16.96875 29.699219 17.195312 30.285156 C 17.359375 30.71875 17.484375 34.035156 17.46875 37.660156 C 17.445312 42.277344 17.671875 45 18.214844 46.75 C 19.316406 50.304688 19.214844 50.941406 17.25 52.847656 C 15.789062 54.265625 15.5 54.902344 15.5 56.675781 C 15.5 59.082031 16.140625 60 17.554688 59.628906 C 18.222656 59.457031 18.4375 59.09375 18.242188 58.480469 C 18.011719 57.75 18.171875 57.632812 19.105469 57.859375 C 20.042969 58.085938 20.136719 58.015625 19.625 57.46875 C 18.59375 56.367188 18.910156 54.984375 20.535156 53.46875 L 22.066406 52.035156 L 25.160156 54.433594 C 26.859375 55.753906 29.320312 57.558594 30.625 58.441406 C 31.929688 59.324219 33 60.339844 33 60.695312 C 33 61.613281 36.578125 67.035156 39.492188 70.539062 C 42.101562 73.675781 42.835938 75.828125 42.234375 78.570312 C 41.695312 81.023438 40.964844 81.972656 38.75 83.101562 C 36.515625 84.234375 35 85.441406 35 86.078125 C 35 86.308594 36.523438 86.5 38.386719 86.5 C 43.34375 86.5 44.769531 85.367188 46.515625 80.039062 C 47.554688 76.871094 47.609375 73.410156 46.707031 67.625 C 46.460938 66.027344 46.488281 66 48.386719 66 C 51.429688 66 55.414062 67.398438 59.75 69.992188 C 66.066406 73.765625 67.8125 74.519531 73.96875 76.109375 C 78.714844 77.339844 81.113281 77.652344 87.375 77.871094 C 92.878906 78.058594 95 77.976562 95 77.566406 C 95 77.253906 94.675781 77 94.277344 77 C 92.84375 77 84.152344 73.855469 80 71.832031 C 76.410156 70.085938 74.882812 68.90625 70.175781 64.257812 C 65.148438 59.289062 64.378906 58.285156 62.332031 54 C 59.761719 48.625 54.777344 42.03125 51.050781 39.085938 C 45.644531 34.8125 39.828125 33.207031 31.652344 33.734375 L 26.558594 34.0625 L 25.789062 32.574219 C 25.367188 31.757812 24.777344 28.875 24.484375 26.167969 C 24.191406 23.464844 23.613281 20.632812 23.199219 19.882812 C 22.472656 18.554688 22.5 18.484375 24.101562 17.480469 C 25.46875 16.621094 26.242188 16.496094 28.632812 16.75 C 31.058594 17.003906 31.5625 16.917969 31.839844 16.199219 C 32.054688 15.636719 31.777344 15.027344 31.027344 14.421875 C 29.636719 13.292969 24.570312 13.210938 20.714844 14.25 M 14.59375 20.375 C 14.6875 20.855469 15.09375 21.25 15.5 21.25 C 15.90625 21.25 16.3125 20.855469 16.40625 20.375 C 16.523438 19.761719 16.253906 19.5 15.5 19.5 C 14.746094 19.5 14.476562 19.761719 14.59375 20.375 "/>
</g>
</svg>
