<?xml version="1.0" encoding="UTF-8"?>
<svg xmlns="http://www.w3.org/2000/svg" xmlns:xlink="http://www.w3.org/1999/xlink" width="100px" height="100px" viewBox="0 0 100 100" version="1.1">
<g id="surface1">
<path style=" stroke:none;fill-rule:nonzero;fill:rgb(0%,0%,0%);fill-opacity:1;" d="M 82.144531 49.046875 C 82.144531 31.296875 67.753906 16.902344 50 16.902344 C 32.246094 16.902344 17.855469 31.296875 17.855469 49.046875 C 17.855469 55.859375 19.980469 62.175781 23.597656 67.375 C 23.601562 67.378906 25.925781 76.691406 17.855469 81.191406 C 17.855469 81.191406 40.269531 86.195312 58.710938 79.980469 C 65.3125 78.128906 71.046875 74.222656 75.191406 68.996094 C 75.28125 68.890625 75.363281 68.773438 75.449219 68.664062 C 75.933594 68.035156 76.402344 67.394531 76.84375 66.730469 C 76.847656 66.722656 76.851562 66.714844 76.859375 66.710938 L 76.855469 66.710938 C 80.195312 61.644531 82.144531 55.574219 82.144531 49.046875 Z M 54.78125 72.371094 C 52.140625 72.371094 50 70.171875 50 67.460938 C 50 64.742188 52.140625 62.546875 54.78125 62.546875 C 57.421875 62.546875 59.558594 64.742188 59.558594 67.460938 C 59.5625 70.171875 57.421875 72.371094 54.78125 72.371094 Z M 71.925781 57.15625 C 71.925781 57.15625 67.648438 62.042969 64.316406 57.15625 C 60.644531 51.757812 71.558594 51.566406 61.042969 34.140625 C 61.042969 34.140625 59.300781 30.769531 60.980469 29.707031 C 60.980469 29.707031 60.972656 29.695312 60.972656 29.695312 C 60.972656 29.695312 64.957031 25.328125 71.273438 37.453125 C 71.277344 37.453125 71.273438 37.449219 71.273438 37.453125 C 74.070312 42.371094 75.433594 49.503906 71.925781 57.15625 Z M 71.925781 57.15625 "/>
</g>
</svg>
