<?xml version="1.0" encoding="UTF-8"?>
<svg xmlns="http://www.w3.org/2000/svg" xmlns:xlink="http://www.w3.org/1999/xlink" width="24px" height="24px" viewBox="0 0 24 24" version="1.1">
<g id="surface1">
<path style=" stroke:none;fill-rule:nonzero;fill:rgb(0%,0%,0%);fill-opacity:1;" d="M 19.714844 11.769531 C 19.714844 7.511719 16.261719 4.058594 12 4.058594 C 7.738281 4.058594 4.285156 7.511719 4.285156 11.769531 C 4.285156 13.40625 4.796875 14.921875 5.664062 16.171875 C 5.664062 16.171875 6.222656 18.40625 4.285156 19.484375 C 4.285156 19.484375 9.664062 20.6875 14.089844 19.195312 C 15.675781 18.75 17.050781 17.8125 18.046875 16.558594 C 18.066406 16.535156 18.085938 16.507812 18.109375 16.480469 C 18.222656 16.328125 18.335938 16.175781 18.441406 16.015625 C 18.441406 16.011719 18.445312 16.011719 18.445312 16.011719 C 19.246094 14.792969 19.714844 13.335938 19.714844 11.769531 Z M 13.148438 17.371094 C 12.511719 17.371094 12 16.839844 12 16.191406 C 12 15.539062 12.511719 15.011719 13.148438 15.011719 C 13.78125 15.011719 14.292969 15.539062 14.292969 16.191406 C 14.292969 16.839844 13.78125 17.371094 13.148438 17.371094 Z M 17.261719 13.71875 C 17.261719 13.71875 16.234375 14.890625 15.4375 13.71875 C 14.554688 12.421875 17.171875 12.375 14.652344 8.195312 C 14.652344 8.195312 14.234375 7.382812 14.636719 7.128906 C 14.636719 7.128906 14.632812 7.125 14.632812 7.125 C 14.632812 7.125 15.589844 6.078125 17.105469 8.988281 C 17.777344 10.167969 18.105469 11.882812 17.261719 13.71875 Z M 17.261719 13.71875 "/>
</g>
</svg>
