<?xml version="1.0" encoding="UTF-8"?>
<svg xmlns="http://www.w3.org/2000/svg" xmlns:xlink="http://www.w3.org/1999/xlink" width="100px" height="100px" viewBox="0 0 100 100" version="1.1">
<g id="surface1">
<path style=" stroke:none;fill-rule:evenodd;fill:rgb(0%,0%,0%);fill-opacity:1;" d="M 18.5 50 L 18.5 100 L 37.644531 100 C 58.6875 100 59.894531 99.867188 65.957031 96.917969 C 70.167969 94.867188 75.835938 89.316406 77.890625 85.222656 C 80.359375 80.320312 81.199219 76.804688 81.171875 71.5 C 81.128906 64.019531 78.671875 58.089844 73.34375 52.625 L 70.785156 50 L 73.34375 47.375 C 78.671875 41.910156 81.128906 35.980469 81.171875 28.5 C 81.199219 23.195312 80.359375 19.679688 77.890625 14.777344 C 75.835938 10.683594 70.167969 5.132812 65.957031 3.082031 C 59.894531 0.132812 58.6875 0 37.644531 0 L 18.5 0 L 18.5 50 M 31.5 27.992188 L 31.5 43.558594 L 44.625 43.40625 L 57.75 43.25 L 60.410156 41.777344 C 65.371094 39.027344 68.019531 34.847656 68.390625 29.191406 C 68.558594 26.644531 68.378906 24.894531 67.769531 23.058594 C 66.632812 19.628906 62.828125 15.496094 59.386719 13.945312 C 56.875 12.8125 56.15625 12.746094 44.125 12.589844 L 31.5 12.425781 L 31.5 27.992188 M 31.5 72.007812 L 31.5 87.574219 L 44.125 87.410156 C 56.15625 87.253906 56.875 87.1875 59.386719 86.054688 C 62.828125 84.503906 66.632812 80.371094 67.769531 76.941406 C 68.378906 75.105469 68.558594 73.355469 68.390625 70.808594 C 68.019531 65.152344 65.371094 60.972656 60.410156 58.222656 L 57.75 56.75 L 44.625 56.59375 L 31.5 56.441406 L 31.5 72.007812 "/>
</g>
</svg>
