<?xml version="1.0" encoding="UTF-8"?>
<svg xmlns="http://www.w3.org/2000/svg" xmlns:xlink="http://www.w3.org/1999/xlink" width="24px" height="24px" viewBox="0 0 24 24" version="1.1">
<g id="surface1">
<path style=" stroke:none;fill-rule:evenodd;fill:rgb(0%,0%,0%);fill-opacity:1;" d="M 4.441406 12 L 4.441406 24 L 9.035156 24 C 14.085938 24 14.375 23.96875 15.828125 23.261719 C 16.839844 22.769531 18.199219 21.4375 18.695312 20.453125 C 19.285156 19.277344 19.488281 18.433594 19.480469 17.160156 C 19.472656 15.363281 18.882812 13.941406 17.601562 12.628906 L 16.988281 12 L 17.601562 11.371094 C 18.882812 10.058594 19.472656 8.636719 19.480469 6.839844 C 19.488281 5.566406 19.285156 4.722656 18.695312 3.546875 C 18.199219 2.5625 16.839844 1.230469 15.828125 0.738281 C 14.375 0.03125 14.085938 0 9.035156 0 L 4.441406 0 L 4.441406 12 M 7.558594 6.71875 L 7.558594 10.453125 L 10.710938 10.417969 L 13.859375 10.378906 L 14.5 10.027344 C 15.6875 9.367188 16.324219 8.363281 16.414062 7.003906 C 16.453125 6.394531 16.410156 5.976562 16.265625 5.535156 C 15.992188 4.710938 15.078125 3.71875 14.253906 3.347656 C 13.648438 3.074219 13.476562 3.058594 10.589844 3.023438 L 7.558594 2.980469 L 7.558594 6.71875 M 7.558594 17.28125 L 7.558594 21.019531 L 10.589844 20.976562 C 13.476562 20.941406 13.648438 20.925781 14.253906 20.652344 C 15.078125 20.28125 15.992188 19.289062 16.265625 18.464844 C 16.410156 18.023438 16.453125 17.605469 16.414062 16.996094 C 16.324219 15.636719 15.6875 14.632812 14.5 13.972656 L 13.859375 13.621094 L 10.710938 13.582031 L 7.558594 13.546875 L 7.558594 17.28125 "/>
</g>
</svg>
