<?xml version="1.0" encoding="UTF-8"?>
<svg xmlns="http://www.w3.org/2000/svg" xmlns:xlink="http://www.w3.org/1999/xlink" width="24px" height="24px" viewBox="0 0 24 24" version="1.1">
<g id="surface1">
<path style=" stroke:none;fill-rule:evenodd;fill:rgb(0%,0%,0%);fill-opacity:1;" d="M 1.53125 6.1875 C 1.070312 6.4375 1.097656 6.71875 1.582031 6.71875 C 2.128906 6.71875 2.957031 7.15625 3.617188 7.796875 L 4.191406 8.347656 L 4.027344 8.824219 C 3.9375 9.085938 3.828125 9.785156 3.78125 10.378906 C 3.628906 12.375 4.140625 13.734375 5.589844 15.195312 C 7.003906 16.617188 9.035156 17.628906 11.359375 18.070312 C 12.765625 18.332031 15.246094 18.25 16.621094 17.890625 C 18.515625 17.390625 20.78125 16.046875 21.785156 14.824219 C 22.261719 14.242188 22.648438 13.417969 22.6875 12.898438 C 22.777344 11.734375 22.601562 11.65625 21.054688 12.183594 C 17.171875 13.507812 13.730469 13.105469 11.710938 11.085938 C 11.214844 10.589844 10.875 10.082031 10.425781 9.160156 C 9.601562 7.476562 9.042969 7.085938 7.394531 7.027344 C 6.988281 7.011719 6.539062 6.9375 6.398438 6.859375 C 6.019531 6.660156 5.847656 6.683594 5.367188 7.007812 L 4.941406 7.296875 L 4.601562 6.933594 C 3.84375 6.125 2.324219 5.757812 1.53125 6.1875 "/>
</g>
</svg>
