<?xml version="1.0" encoding="UTF-8"?>
<svg xmlns="http://www.w3.org/2000/svg" xmlns:xlink="http://www.w3.org/1999/xlink" width="100px" height="100px" viewBox="0 0 100 100" version="1.1">
<g id="surface1">
<path style=" stroke:none;fill-rule:evenodd;fill:rgb(0%,0%,0%);fill-opacity:1;" d="M 6.375 25.785156 C 4.464844 26.824219 4.578125 28 6.59375 28 C 8.871094 28 12.316406 29.820312 15.074219 32.480469 L 17.460938 34.777344 L 16.785156 36.761719 C 16.414062 37.855469 15.953125 40.773438 15.761719 43.25 C 15.121094 51.566406 17.246094 57.230469 23.285156 63.3125 C 29.179688 69.242188 37.640625 73.457031 47.335938 75.285156 C 53.1875 76.390625 63.527344 76.039062 69.25 74.539062 C 77.15625 72.464844 86.582031 66.867188 90.765625 61.761719 C 92.75 59.339844 94.367188 55.902344 94.535156 53.75 C 94.910156 48.890625 94.167969 48.5625 87.722656 50.765625 C 71.546875 56.285156 57.207031 54.597656 48.796875 46.1875 C 46.730469 44.121094 45.316406 42.007812 43.4375 38.171875 C 40.003906 31.160156 37.675781 29.515625 30.808594 29.273438 C 29.121094 29.210938 27.25 28.902344 26.652344 28.582031 C 25.089844 27.746094 24.359375 27.851562 22.367188 29.203125 L 20.597656 30.40625 L 19.171875 28.890625 C 16.011719 25.523438 9.6875 23.988281 6.375 25.785156 "/>
</g>
</svg>
