<?xml version="1.0" encoding="UTF-8"?>
<svg xmlns="http://www.w3.org/2000/svg" xmlns:xlink="http://www.w3.org/1999/xlink" width="100px" height="100px" viewBox="0 0 100 100" version="1.1">
<g id="surface1">
<path style=" stroke:none;fill-rule:evenodd;fill:rgb(0%,0%,0%);fill-opacity:1;" d="M 5 36 L 5 56 L 25 56 L 25 73 L 45 73 L 45 91 L 95 91 L 95 51 L 75 51 L 75 33 L 55 33 L 55 16 L 5 16 L 5 36 M 9 24.359375 L 9 27.722656 L 12.25 24.5 C 14.039062 22.726562 15.5 21.214844 15.5 21.140625 C 15.5 21.0625 14.039062 21 12.25 21 L 9 21 L 9 24.359375 M 14.347656 26.402344 L 8.960938 31.804688 L 9.105469 36.660156 L 9.25 41.511719 L 19.496094 31.257812 L 29.742188 21 L 19.734375 21 L 14.347656 26.402344 M 21.621094 33.628906 L 9 46.257812 L 9 51 L 13.757812 51 L 43.742188 21 L 34.242188 21 L 21.621094 33.628906 M 33.25 36 L 18.257812 51 L 27.757812 51 L 51 27.742188 L 51 24.371094 C 51 21.023438 50.988281 21 49.621094 21 C 48.480469 21 45.65625 23.589844 33.25 36 M 41.503906 41.742188 L 32.261719 51 L 41.769531 51 L 46.40625 46.34375 L 51.039062 41.691406 L 50.894531 37.089844 L 50.75 32.484375 L 41.503906 41.742188 M 48.5 48.75 L 46.292969 51 L 51 51 L 51 48.75 C 51 47.511719 50.933594 46.5 50.855469 46.5 C 50.773438 46.5 49.714844 47.511719 48.5 48.75 M 75 64.5 L 75 73 L 49 73 L 49 86 L 91 86 L 91 56 L 75 56 L 75 64.5 "/>
</g>
</svg>
