<?xml version="1.0" encoding="UTF-8"?>
<svg xmlns="http://www.w3.org/2000/svg" xmlns:xlink="http://www.w3.org/1999/xlink" width="24px" height="24px" viewBox="0 0 24 24" version="1.1">
<g id="surface1">
<path style=" stroke:none;fill-rule:evenodd;fill:rgb(0%,0%,0%);fill-opacity:1;" d="M 1.199219 8.640625 L 1.199219 13.441406 L 6 13.441406 L 6 17.519531 L 10.800781 17.519531 L 10.800781 21.839844 L 22.800781 21.839844 L 22.800781 12.238281 L 18 12.238281 L 18 7.921875 L 13.199219 7.921875 L 13.199219 3.839844 L 1.199219 3.839844 L 1.199219 8.640625 M 2.160156 5.847656 L 2.160156 6.652344 L 2.941406 5.878906 C 3.367188 5.453125 3.71875 5.09375 3.71875 5.074219 C 3.71875 5.054688 3.367188 5.039062 2.941406 5.039062 L 2.160156 5.039062 L 2.160156 5.847656 M 3.441406 6.335938 L 2.152344 7.632812 L 2.183594 8.796875 L 2.21875 9.964844 L 4.679688 7.5 L 7.136719 5.039062 L 4.734375 5.039062 L 3.441406 6.335938 M 5.1875 8.070312 L 2.160156 11.101562 L 2.160156 12.238281 L 3.300781 12.238281 L 10.5 5.039062 L 8.21875 5.039062 L 5.1875 8.070312 M 7.980469 8.640625 L 4.382812 12.238281 L 6.660156 12.238281 L 9.449219 9.449219 L 12.238281 6.65625 L 12.238281 5.847656 C 12.238281 5.046875 12.238281 5.039062 11.910156 5.039062 C 11.636719 5.039062 10.957031 5.660156 7.980469 8.640625 M 9.960938 10.019531 L 7.742188 12.238281 L 10.023438 12.238281 L 12.25 10.003906 L 12.214844 8.902344 L 12.179688 7.796875 L 9.960938 10.019531 M 11.640625 11.699219 L 11.109375 12.238281 L 12.238281 12.238281 L 12.238281 11.699219 C 12.238281 11.402344 12.222656 11.160156 12.203125 11.160156 C 12.1875 11.160156 11.929688 11.402344 11.640625 11.699219 M 18 15.480469 L 18 17.519531 L 11.761719 17.519531 L 11.761719 20.640625 L 21.839844 20.640625 L 21.839844 13.441406 L 18 13.441406 L 18 15.480469 "/>
</g>
</svg>
