<?xml version="1.0" encoding="UTF-8"?>
<svg xmlns="http://www.w3.org/2000/svg" xmlns:xlink="http://www.w3.org/1999/xlink" width="24px" height="24px" viewBox="0 0 24 24" version="1.1">
<g id="surface1">
<path style=" stroke:none;fill-rule:evenodd;fill:rgb(0%,0%,0%);fill-opacity:1;" d="M 11.3125 0.167969 C 10.320312 0.492188 9.324219 1.242188 8.914062 1.976562 C 8.816406 2.144531 8.761719 2.148438 8.390625 1.996094 C 7.589844 1.660156 6.5 1.53125 5.648438 1.675781 C 1.34375 2.398438 -0.363281 7.671875 2.710938 10.746094 C 3.261719 11.296875 3.386719 11.5 3.484375 12.03125 C 3.546875 12.375 3.71875 12.949219 3.859375 13.300781 L 4.117188 13.941406 L 3.796875 15.015625 C 3.113281 17.296875 1.882812 19.78125 0.566406 21.535156 C -0.03125 22.335938 -0.0351562 22.351562 0.117188 22.78125 C 0.304688 23.304688 0.9375 23.996094 1.230469 24 C 1.347656 24 1.5625 23.855469 1.710938 23.683594 C 2.738281 22.472656 5.191406 21.042969 7.054688 20.566406 C 8.414062 20.21875 10.394531 20.148438 11.613281 20.398438 C 12.300781 20.539062 13.046875 20.519531 13.921875 20.339844 C 14.175781 20.285156 14.285156 20.371094 14.667969 20.925781 C 15.199219 21.699219 16.300781 22.476562 17.253906 22.753906 C 17.722656 22.890625 18.230469 22.933594 19.007812 22.898438 C 20.441406 22.832031 21.371094 22.40625 22.363281 21.367188 C 23.96875 19.683594 24.296875 17.40625 23.230469 15.320312 L 22.8125 14.5 L 23.21875 13.878906 C 24.492188 11.933594 24.175781 9.488281 22.441406 7.882812 C 21.503906 7.011719 20.679688 6.691406 19.371094 6.6875 L 18.402344 6.683594 L 18.117188 6.148438 C 17.960938 5.855469 17.632812 5.453125 17.390625 5.257812 C 16.976562 4.925781 16.949219 4.859375 16.890625 4.070312 C 16.777344 2.480469 15.785156 1.066406 14.304688 0.386719 C 13.484375 0.0117188 12.101562 -0.0898438 11.3125 0.167969 M 11.964844 1.097656 C 10.933594 1.25 10.089844 1.902344 9.550781 2.96875 C 9.308594 3.449219 9.0625 3.464844 8.199219 3.054688 C 4.921875 1.503906 1.332031 4.644531 2.347656 8.167969 C 2.589844 9 3.238281 9.964844 3.847656 10.386719 C 4.332031 10.722656 4.375 10.808594 4.496094 11.769531 C 4.609375 12.625 5.167969 13.667969 5.867188 14.320312 C 6.582031 14.984375 7.28125 15.328125 8.234375 15.480469 C 9.09375 15.621094 9.238281 15.753906 9.238281 16.375 C 9.238281 17.136719 9.863281 18.296875 10.523438 18.765625 C 10.816406 18.972656 11.226562 19.203125 11.4375 19.28125 C 12.054688 19.507812 13.304688 19.46875 13.890625 19.203125 C 14.175781 19.074219 14.484375 19 14.578125 19.035156 C 14.671875 19.070312 14.910156 19.390625 15.109375 19.742188 C 16.128906 21.546875 17.980469 22.316406 19.898438 21.734375 C 22.621094 20.90625 23.691406 17.53125 21.960938 15.226562 C 21.695312 14.875 21.480469 14.542969 21.480469 14.492188 C 21.480469 14.441406 21.664062 14.199219 21.886719 13.949219 C 22.742188 13.003906 23.078125 11.917969 22.890625 10.699219 C 22.757812 9.8125 22.441406 9.25 21.710938 8.597656 C 20.738281 7.71875 19.914062 7.550781 18.152344 7.875 C 17.808594 7.9375 17.75 7.90625 17.632812 7.601562 C 17.234375 6.578125 16.960938 6.179688 16.421875 5.847656 L 15.863281 5.496094 L 15.871094 4.578125 C 15.878906 3.902344 15.816406 3.515625 15.636719 3.113281 C 14.976562 1.625 13.578125 0.855469 11.964844 1.097656 M 8.109375 5.707031 C 7.671875 6.144531 7.964844 6.492188 8.871094 6.617188 C 10.28125 6.808594 11.1875 7.5 11.621094 8.710938 C 11.855469 9.371094 12.136719 9.605469 12.449219 9.40625 C 12.796875 9.191406 12.769531 8.671875 12.363281 7.851562 C 11.808594 6.722656 10.792969 5.953125 9.453125 5.644531 C 8.714844 5.472656 8.324219 5.492188 8.109375 5.707031 M 9.628906 11 C 9.40625 11.089844 9.230469 11.476562 9.3125 11.691406 C 9.351562 11.796875 9.691406 11.96875 10.0625 12.074219 C 10.949219 12.332031 12.003906 12.867188 12.53125 13.328125 C 13.144531 13.867188 13.433594 14.40625 13.601562 15.324219 C 13.730469 16.023438 13.792969 16.144531 14.023438 16.179688 C 14.441406 16.238281 14.640625 15.992188 14.640625 15.410156 C 14.640625 13.671875 13.039062 11.933594 10.773438 11.21875 C 10.253906 11.054688 9.816406 10.925781 9.804688 10.929688 C 9.789062 10.933594 9.710938 10.964844 9.628906 11 M 16.675781 11.859375 C 16.289062 12.171875 16.453125 12.527344 17.136719 12.855469 C 17.445312 13.003906 18.007812 13.433594 18.382812 13.804688 C 19.460938 14.878906 19.65625 15.894531 19.117188 17.605469 C 18.929688 18.191406 18.929688 18.261719 19.105469 18.4375 C 19.234375 18.566406 19.402344 18.605469 19.605469 18.554688 C 19.859375 18.492188 19.953125 18.339844 20.15625 17.6875 C 20.476562 16.644531 20.476562 15.453125 20.152344 14.589844 C 19.761719 13.542969 18.503906 12.296875 17.347656 11.816406 C 16.980469 11.660156 16.914062 11.667969 16.675781 11.859375 M 4.820312 15.261719 C 4.761719 15.414062 4.5625 16 4.371094 16.558594 C 4.179688 17.121094 3.667969 18.285156 3.238281 19.148438 L 2.453125 20.714844 L 4.257812 19.089844 C 5.25 18.191406 6.347656 17.210938 6.695312 16.910156 L 7.332031 16.359375 L 6.777344 16.144531 C 6.472656 16.03125 6 15.761719 5.722656 15.550781 C 4.949219 14.964844 4.929688 14.957031 4.820312 15.261719 M 6.324219 18.613281 C 5.289062 19.53125 4.441406 20.304688 4.441406 20.328125 C 4.441406 20.351562 4.765625 20.238281 5.167969 20.078125 C 6.097656 19.703125 7.519531 19.347656 8.550781 19.230469 L 9.363281 19.140625 L 9.054688 18.707031 C 8.886719 18.472656 8.625 17.976562 8.476562 17.609375 L 8.207031 16.941406 L 6.324219 18.613281 "/>
</g>
</svg>
