<?xml version="1.0" encoding="UTF-8"?>
<svg xmlns="http://www.w3.org/2000/svg" xmlns:xlink="http://www.w3.org/1999/xlink" width="100px" height="100px" viewBox="0 0 100 100" version="1.1">
<g id="surface1">
<path style=" stroke:none;fill-rule:evenodd;fill:rgb(0%,0%,0%);fill-opacity:1;" d="M 47.144531 0.695312 C 42.996094 2.050781 38.851562 5.171875 37.136719 8.234375 C 36.742188 8.945312 36.507812 8.953125 34.96875 8.308594 C 31.621094 6.910156 27.089844 6.382812 23.542969 6.980469 C 5.601562 9.996094 -1.511719 31.964844 11.300781 44.78125 C 13.597656 47.074219 14.105469 47.917969 14.515625 50.128906 C 14.785156 51.570312 15.488281 53.949219 16.078125 55.417969 L 17.152344 58.089844 L 15.8125 62.558594 C 12.96875 72.066406 7.84375 82.417969 2.363281 89.734375 C -0.125 93.0625 -0.152344 93.132812 0.488281 94.929688 C 1.265625 97.109375 3.902344 99.988281 5.128906 99.996094 C 5.613281 99.996094 6.511719 99.40625 7.128906 98.679688 C 11.410156 93.632812 21.628906 87.675781 29.394531 85.695312 C 35.054688 84.25 43.304688 83.945312 48.390625 84.992188 C 51.246094 85.578125 54.363281 85.496094 58 84.746094 C 59.066406 84.527344 59.523438 84.882812 61.109375 87.191406 C 63.320312 90.410156 67.914062 93.65625 71.886719 94.8125 C 73.84375 95.378906 75.964844 95.550781 79.195312 95.402344 C 85.167969 95.128906 89.050781 93.359375 93.175781 89.035156 C 99.875 82.011719 101.238281 72.527344 96.792969 63.832031 L 95.046875 60.414062 L 96.738281 57.832031 C 102.058594 49.71875 100.738281 39.53125 93.507812 32.839844 C 89.605469 29.222656 86.167969 27.886719 80.710938 27.867188 L 76.667969 27.851562 L 75.484375 25.617188 C 74.835938 24.390625 73.476562 22.722656 72.464844 21.910156 C 70.734375 20.519531 70.617188 20.238281 70.382812 16.964844 C 69.90625 10.332031 65.765625 4.441406 59.597656 1.617188 C 56.183594 0.0507812 50.417969 -0.375 47.144531 0.695312 M 49.863281 4.566406 C 45.550781 5.207031 42.046875 7.925781 39.796875 12.375 C 38.785156 14.371094 37.769531 14.4375 34.164062 12.730469 C 20.511719 6.273438 5.546875 19.351562 9.785156 34.035156 C 10.785156 37.503906 13.5 41.515625 16.035156 43.273438 C 18.054688 44.675781 18.222656 45.03125 18.738281 49.035156 C 19.199219 52.597656 21.539062 56.957031 24.445312 59.660156 C 27.417969 62.429688 30.335938 63.863281 34.3125 64.511719 C 37.886719 65.09375 38.5 65.636719 38.5 68.230469 C 38.5 71.402344 41.097656 76.238281 43.851562 78.183594 C 45.070312 79.046875 46.78125 80.015625 47.65625 80.335938 C 50.226562 81.285156 55.445312 81.117188 57.886719 80.007812 C 59.058594 79.476562 60.34375 79.164062 60.738281 79.316406 C 61.132812 79.464844 62.132812 80.789062 62.957031 82.25 C 67.203125 89.777344 74.917969 92.988281 82.90625 90.5625 C 94.257812 87.113281 98.71875 73.042969 91.5 63.441406 C 90.402344 61.976562 89.5 60.601562 89.5 60.390625 C 89.5 60.175781 90.261719 59.160156 91.195312 58.125 C 94.753906 54.183594 96.152344 49.65625 95.378906 44.578125 C 94.816406 40.894531 93.496094 38.539062 90.46875 35.816406 C 86.402344 32.160156 82.976562 31.46875 75.640625 32.8125 C 74.210938 33.074219 73.964844 32.949219 73.472656 31.679688 C 71.804688 27.402344 70.667969 25.753906 68.425781 24.359375 L 66.089844 22.90625 L 66.128906 19.078125 C 66.15625 16.257812 65.898438 14.652344 65.15625 12.972656 C 62.398438 6.769531 56.582031 3.570312 49.863281 4.566406 M 33.785156 23.785156 C 31.96875 25.605469 33.179688 27.054688 36.957031 27.570312 C 42.839844 28.375 46.613281 31.25 48.421875 36.296875 C 49.402344 39.039062 50.566406 40.015625 51.875 39.195312 C 53.320312 38.292969 53.199219 36.128906 51.519531 32.710938 C 49.207031 28.015625 44.976562 24.804688 39.394531 23.519531 C 36.320312 22.808594 34.683594 22.886719 33.785156 23.785156 M 40.121094 45.832031 C 39.191406 46.207031 38.460938 47.8125 38.804688 48.714844 C 38.972656 49.148438 40.378906 49.871094 41.929688 50.316406 C 45.625 51.382812 50.023438 53.613281 52.210938 55.53125 C 54.769531 57.777344 55.976562 60.027344 56.679688 63.851562 C 57.214844 66.765625 57.464844 67.273438 58.429688 67.414062 C 60.167969 67.664062 61 66.628906 61 64.207031 C 61 56.957031 54.328125 49.726562 44.886719 46.746094 C 42.722656 46.058594 40.902344 45.519531 40.847656 45.539062 C 40.792969 45.5625 40.464844 45.695312 40.121094 45.832031 M 69.476562 49.417969 C 67.875 50.714844 68.5625 52.199219 71.398438 53.5625 C 72.691406 54.1875 75.027344 55.96875 76.589844 57.523438 C 81.082031 61.996094 81.898438 66.21875 79.652344 73.351562 C 78.878906 75.804688 78.875 76.089844 79.613281 76.828125 C 80.148438 77.363281 80.839844 77.523438 81.6875 77.308594 C 82.738281 77.046875 83.140625 76.414062 83.980469 73.691406 C 85.324219 69.34375 85.320312 64.394531 83.972656 60.792969 C 82.34375 56.433594 77.09375 51.242188 72.285156 49.234375 C 70.75 48.589844 70.476562 48.609375 69.476562 49.417969 M 20.078125 63.59375 C 19.847656 64.230469 19.007812 66.664062 18.207031 69 C 17.410156 71.335938 15.285156 76.191406 13.492188 79.785156 L 10.226562 86.320312 L 17.738281 79.535156 C 21.871094 75.800781 26.445312 71.714844 27.902344 70.453125 L 30.554688 68.15625 L 28.246094 67.273438 C 26.976562 66.789062 24.996094 65.675781 23.84375 64.800781 C 20.621094 62.347656 20.542969 62.320312 20.078125 63.59375 M 26.34375 77.554688 C 22.03125 81.386719 18.5 84.601562 18.5 84.703125 C 18.5 84.800781 19.863281 84.332031 21.527344 83.660156 C 25.410156 82.09375 31.324219 80.613281 35.632812 80.128906 L 39.011719 79.75 L 37.734375 77.953125 C 37.027344 76.964844 35.945312 74.90625 35.320312 73.375 L 34.191406 70.59375 L 26.34375 77.554688 "/>
</g>
</svg>
