<?xml version="1.0" encoding="UTF-8"?>
<svg xmlns="http://www.w3.org/2000/svg" xmlns:xlink="http://www.w3.org/1999/xlink" width="24px" height="24px" viewBox="0 0 24 24" version="1.1">
<g id="surface1">
<path style=" stroke:none;fill-rule:evenodd;fill:rgb(0%,0%,0%);fill-opacity:1;" d="M 11.25 5.949219 C 10.652344 6.273438 10.375 7.222656 10.699219 7.839844 C 10.773438 7.980469 11 8.289062 11.199219 8.515625 L 11.558594 8.933594 L 11.105469 9.027344 C 10.859375 9.078125 10.511719 9.222656 10.335938 9.34375 C 10.164062 9.464844 9.820312 9.632812 9.570312 9.710938 C 9.324219 9.792969 9 10.015625 8.851562 10.210938 C 8.703125 10.40625 8.378906 10.808594 8.136719 11.105469 C 7.871094 11.425781 7.664062 11.824219 7.621094 12.089844 C 7.582031 12.339844 7.5 12.707031 7.4375 12.910156 C 7.289062 13.378906 7.289062 13.863281 7.4375 14.332031 C 7.5 14.535156 7.582031 14.902344 7.621094 15.148438 C 7.664062 15.417969 7.867188 15.8125 8.136719 16.128906 C 8.378906 16.421875 8.675781 16.796875 8.789062 16.964844 C 8.90625 17.128906 9.429688 17.480469 9.957031 17.742188 C 10.863281 18.195312 10.972656 18.222656 12 18.222656 C 13.027344 18.222656 13.136719 18.195312 14.042969 17.742188 C 14.570312 17.480469 15.09375 17.128906 15.210938 16.960938 C 15.324219 16.792969 15.605469 16.441406 15.832031 16.179688 C 16.410156 15.511719 16.816406 13.769531 16.578125 12.976562 C 16.507812 12.734375 16.417969 12.339844 16.378906 12.089844 C 16.339844 11.828125 16.128906 11.421875 15.863281 11.105469 C 15.621094 10.808594 15.296875 10.40625 15.148438 10.210938 C 15 10.015625 14.675781 9.792969 14.429688 9.710938 C 14.179688 9.632812 13.832031 9.460938 13.652344 9.335938 C 13.46875 9.210938 13.132812 9.074219 12.90625 9.039062 L 12.488281 8.96875 L 12.90625 8.460938 C 13.695312 7.5 13.707031 6.707031 12.941406 6.0625 C 12.523438 5.710938 11.78125 5.660156 11.25 5.949219 M 11.414062 6.167969 C 10.867188 6.472656 10.648438 7.226562 10.953125 7.746094 C 11.1875 8.144531 11.910156 9 12.011719 9 C 12.066406 9 12.351562 8.699219 12.652344 8.328125 C 13.097656 7.78125 13.199219 7.570312 13.199219 7.179688 C 13.199219 6.257812 12.234375 5.710938 11.414062 6.167969 M 10.769531 10.234375 L 10.410156 10.457031 L 10.695312 10.652344 C 10.851562 10.761719 11.0625 10.957031 11.167969 11.082031 C 11.457031 11.433594 11.957031 11.367188 12.429688 10.910156 C 12.734375 10.617188 12.949219 10.511719 13.253906 10.511719 L 13.664062 10.511719 L 13.28125 10.277344 C 12.746094 9.949219 11.28125 9.925781 10.769531 10.234375 M 14.128906 10.945312 C 14.339844 11.15625 14.546875 11.292969 14.589844 11.25 C 14.6875 11.152344 14.097656 10.558594 13.898438 10.558594 C 13.8125 10.558594 13.917969 10.734375 14.128906 10.945312 M 9.328125 11.273438 C 9.082031 11.527344 8.878906 11.753906 8.878906 11.777344 C 8.878906 11.800781 9.015625 11.828125 9.179688 11.835938 C 9.347656 11.847656 9.699219 12.050781 9.960938 12.289062 C 10.226562 12.523438 10.5 12.71875 10.566406 12.71875 C 10.769531 12.71875 11.128906 12.5 11.453125 12.175781 C 11.933594 11.695312 12.476562 11.738281 13.109375 12.3125 C 13.359375 12.535156 13.640625 12.71875 13.738281 12.71875 C 13.839844 12.71875 14.128906 12.53125 14.382812 12.300781 C 14.640625 12.070312 14.914062 11.878906 14.992188 11.878906 C 15.253906 11.878906 15.003906 11.660156 14.65625 11.582031 C 14.46875 11.542969 14.160156 11.347656 13.972656 11.152344 C 13.511719 10.671875 13.035156 10.679688 12.515625 11.183594 C 12.21875 11.46875 12.011719 11.566406 11.691406 11.566406 C 11.367188 11.566406 11.179688 11.476562 10.90625 11.183594 C 10.394531 10.636719 9.921875 10.664062 9.328125 11.273438 M 8.652344 12.390625 C 8.445312 12.9375 8.28125 13.523438 8.28125 13.707031 C 8.28125 14.132812 9.105469 14.035156 9.351562 13.578125 C 9.496094 13.304688 10.121094 13.058594 10.414062 13.164062 C 10.527344 13.203125 10.78125 13.382812 10.980469 13.5625 C 11.570312 14.105469 11.800781 14.113281 12.351562 13.613281 C 13.023438 13.007812 13.492188 13.003906 14.148438 13.597656 C 14.722656 14.113281 14.875 14.136719 15.308594 13.765625 C 15.625 13.492188 15.625 13.480469 15.476562 12.804688 C 15.292969 11.992188 15.152344 11.953125 14.503906 12.539062 C 14.234375 12.785156 13.914062 12.960938 13.738281 12.960938 C 13.566406 12.960938 13.246094 12.785156 12.976562 12.539062 C 12.410156 12.027344 11.890625 11.976562 11.554688 12.402344 C 11.035156 13.0625 10.363281 13.089844 9.773438 12.472656 C 9.347656 12.03125 8.804688 11.988281 8.652344 12.390625 M 9.480469 13.796875 C 9.28125 13.996094 8.980469 14.191406 8.816406 14.230469 C 8.652344 14.273438 8.519531 14.378906 8.519531 14.46875 C 8.519531 14.59375 8.589844 14.605469 8.820312 14.519531 C 9.191406 14.378906 9.59375 14.519531 9.976562 14.917969 C 10.4375 15.398438 10.722656 15.417969 11.191406 15.007812 C 11.683594 14.578125 12.160156 14.378906 12.449219 14.484375 C 12.566406 14.527344 12.863281 14.738281 13.109375 14.960938 C 13.359375 15.179688 13.640625 15.359375 13.738281 15.359375 C 13.839844 15.359375 14.121094 15.179688 14.371094 14.957031 C 14.617188 14.734375 14.953125 14.511719 15.121094 14.460938 C 15.40625 14.371094 15.59375 14.199219 15.597656 14.019531 C 15.597656 13.976562 15.441406 14.015625 15.25 14.113281 C 14.800781 14.335938 14.398438 14.234375 13.96875 13.789062 C 13.542969 13.34375 12.957031 13.3125 12.636719 13.722656 C 12.117188 14.382812 11.421875 14.410156 10.875 13.792969 C 10.449219 13.320312 9.96875 13.320312 9.480469 13.796875 M 8.71875 14.839844 C 8.539062 15.019531 8.664062 15.335938 9.058594 15.71875 C 9.386719 16.035156 9.511719 16.09375 9.625 15.984375 C 9.917969 15.691406 10.566406 15.816406 11.054688 16.261719 C 11.3125 16.492188 11.628906 16.679688 11.765625 16.679688 C 11.898438 16.679688 12.195312 16.492188 12.429688 16.261719 C 12.972656 15.714844 13.558594 15.683594 14.078125 16.171875 C 14.34375 16.417969 14.445312 16.457031 14.492188 16.332031 C 14.523438 16.242188 14.726562 15.972656 14.941406 15.734375 C 15.152344 15.496094 15.367188 15.179688 15.414062 15.03125 C 15.539062 14.621094 15.085938 14.675781 14.617188 15.121094 C 13.972656 15.742188 13.507812 15.738281 12.855469 15.117188 C 12.359375 14.644531 11.988281 14.660156 11.46875 15.179688 C 11.171875 15.476562 10.941406 15.601562 10.683594 15.601562 C 10.4375 15.601562 10.171875 15.464844 9.855469 15.179688 C 9.425781 14.792969 8.921875 14.640625 8.71875 14.839844 M 9.703125 16.28125 C 9.566406 16.449219 9.566406 16.488281 9.707031 16.535156 C 9.800781 16.566406 10.15625 16.738281 10.496094 16.917969 C 11.371094 17.378906 12.652344 17.390625 13.441406 16.941406 C 13.738281 16.773438 14.007812 16.613281 14.039062 16.589844 C 14.160156 16.488281 13.523438 16.078125 13.25 16.078125 C 13.085938 16.078125 12.789062 16.257812 12.546875 16.5 C 12.253906 16.796875 12.019531 16.921875 11.765625 16.921875 C 11.515625 16.921875 11.25 16.785156 10.9375 16.5 C 10.429688 16.042969 9.96875 15.960938 9.703125 16.28125 "/>
</g>
</svg>
