<?xml version="1.0" encoding="UTF-8"?>
<svg xmlns="http://www.w3.org/2000/svg" xmlns:xlink="http://www.w3.org/1999/xlink" width="100px" height="100px" viewBox="0 0 100 100" version="1.1">
<g id="surface1">
<path style=" stroke:none;fill-rule:evenodd;fill:rgb(0%,0%,0%);fill-opacity:1;" d="M 46.882812 24.78125 C 44.382812 26.136719 43.226562 30.089844 44.574219 32.65625 C 44.886719 33.257812 45.824219 34.53125 46.65625 35.488281 L 48.164062 37.222656 L 46.28125 37.613281 C 45.242188 37.828125 43.800781 38.421875 43.074219 38.933594 C 42.34375 39.445312 40.910156 40.132812 39.882812 40.464844 C 38.855469 40.800781 37.507812 41.738281 36.882812 42.546875 C 36.261719 43.359375 34.914062 45.035156 33.898438 46.265625 C 32.792969 47.601562 31.925781 49.269531 31.757812 50.378906 C 31.597656 51.410156 31.253906 52.941406 30.984375 53.785156 C 30.367188 55.738281 30.367188 57.761719 30.984375 59.714844 C 31.253906 60.558594 31.597656 62.089844 31.757812 63.121094 C 31.929688 64.238281 32.785156 65.878906 33.898438 67.210938 C 34.914062 68.429688 36.144531 69.996094 36.625 70.683594 C 37.105469 71.375 39.292969 72.835938 41.488281 73.933594 C 45.257812 75.820312 45.71875 75.929688 50 75.929688 C 54.28125 75.929688 54.742188 75.820312 58.511719 73.933594 C 60.707031 72.835938 62.894531 71.367188 63.375 70.667969 C 63.855469 69.972656 65.023438 68.507812 65.96875 67.414062 C 68.375 64.625 70.066406 57.378906 69.082031 54.070312 C 68.785156 53.066406 68.410156 51.410156 68.25 50.378906 C 68.078125 49.277344 67.195312 47.589844 66.101562 46.265625 C 65.085938 45.035156 63.738281 43.359375 63.117188 42.546875 C 62.492188 41.738281 61.144531 40.800781 60.117188 40.464844 C 59.089844 40.132812 57.632812 39.429688 56.878906 38.898438 C 56.125 38.371094 54.726562 37.8125 53.773438 37.65625 L 52.035156 37.375 L 53.769531 35.261719 C 57.0625 31.242188 57.113281 27.945312 53.929688 25.265625 C 52.179688 23.792969 49.09375 23.582031 46.882812 24.78125 M 47.554688 25.699219 C 45.273438 26.960938 44.363281 30.105469 45.640625 32.28125 C 46.613281 33.933594 49.632812 37.5 50.054688 37.5 C 50.269531 37.5 51.46875 36.242188 52.722656 34.703125 C 54.578125 32.425781 55 31.539062 55 29.914062 C 55 26.082031 50.976562 23.800781 47.554688 25.699219 M 44.878906 42.644531 L 43.371094 43.566406 L 44.558594 44.390625 C 45.214844 44.847656 46.101562 45.648438 46.53125 46.171875 C 47.738281 47.648438 49.824219 47.367188 51.789062 45.460938 C 53.054688 44.234375 53.953125 43.800781 55.21875 43.800781 L 56.933594 43.800781 L 55.34375 42.824219 C 53.109375 41.457031 47.003906 41.355469 44.878906 42.644531 M 58.867188 45.597656 C 59.746094 46.480469 60.613281 47.054688 60.785156 46.878906 C 61.203125 46.464844 58.738281 44 57.90625 44 C 57.554688 44 57.988281 44.71875 58.867188 45.597656 M 38.875 46.964844 C 37.84375 48.027344 37 48.976562 37 49.074219 C 37 49.171875 37.566406 49.28125 38.257812 49.324219 C 38.949219 49.363281 40.410156 50.207031 41.507812 51.199219 C 42.605469 52.1875 43.742188 53 44.035156 53 C 44.878906 53 46.375 52.082031 47.714844 50.738281 C 49.722656 48.734375 51.984375 48.917969 54.625 51.300781 C 55.65625 52.234375 56.839844 53 57.25 53 C 57.660156 53 58.867188 52.210938 59.933594 51.25 C 61 50.289062 62.136719 49.5 62.464844 49.5 C 63.550781 49.5 62.511719 48.582031 61.066406 48.265625 C 60.28125 48.09375 59.003906 47.289062 58.226562 46.476562 C 56.296875 44.460938 54.308594 44.503906 52.148438 46.601562 C 50.917969 47.789062 50.039062 48.199219 48.71875 48.199219 C 47.363281 48.199219 46.585938 47.820312 45.445312 46.601562 C 43.316406 44.320312 41.335938 44.429688 38.875 46.964844 M 36.054688 51.625 C 35.191406 53.910156 34.5 56.34375 34.5 57.105469 C 34.5 58.890625 37.941406 58.480469 38.960938 56.578125 C 39.574219 55.429688 42.164062 54.414062 43.390625 54.84375 C 43.863281 55.007812 44.925781 55.761719 45.75 56.515625 C 48.207031 58.765625 49.164062 58.800781 51.460938 56.726562 C 54.257812 54.199219 56.21875 54.179688 58.957031 56.652344 C 61.347656 58.808594 61.976562 58.902344 63.78125 57.351562 C 65.101562 56.214844 65.109375 56.167969 64.480469 53.351562 C 63.71875 49.960938 63.140625 49.804688 60.433594 52.25 C 59.3125 53.265625 57.972656 54 57.25 54 C 56.527344 54 55.1875 53.265625 54.066406 52.25 C 51.710938 50.121094 49.539062 49.90625 48.152344 51.671875 C 45.984375 54.425781 43.1875 54.542969 40.726562 51.976562 C 38.957031 50.128906 36.683594 49.957031 36.054688 51.625 M 39.507812 57.492188 C 38.667969 58.3125 37.421875 59.125 36.738281 59.296875 C 36.058594 59.46875 35.5 59.914062 35.5 60.292969 C 35.5 60.8125 35.792969 60.863281 36.75 60.5 C 38.289062 59.914062 39.980469 60.5 41.574219 62.164062 C 43.484375 64.160156 44.683594 64.25 46.628906 62.539062 C 48.675781 60.742188 50.667969 59.910156 51.871094 60.347656 C 52.355469 60.523438 53.59375 61.417969 54.625 62.332031 C 55.660156 63.25 56.839844 64 57.25 64 C 57.660156 64 58.839844 63.242188 59.875 62.316406 C 60.90625 61.390625 62.3125 60.460938 63 60.25 C 64.183594 59.886719 64.976562 59.15625 64.992188 58.414062 C 64.996094 58.226562 64.339844 58.40625 63.535156 58.808594 C 61.667969 59.738281 59.988281 59.3125 58.210938 57.460938 C 56.421875 55.59375 53.992188 55.464844 52.652344 57.171875 C 50.484375 59.929688 47.597656 60.046875 45.304688 57.472656 C 43.546875 55.5 41.539062 55.507812 39.507812 57.492188 M 36.332031 61.832031 C 35.585938 62.578125 36.09375 63.894531 37.75 65.5 C 39.113281 66.820312 39.636719 67.066406 40.101562 66.597656 C 41.320312 65.382812 44.019531 65.902344 46.066406 67.75 C 47.132812 68.710938 48.460938 69.5 49.019531 69.5 C 49.578125 69.5 50.820312 68.710938 51.785156 67.75 C 54.054688 65.476562 56.496094 65.34375 58.664062 67.375 C 59.761719 68.402344 60.195312 68.574219 60.382812 68.054688 C 60.519531 67.671875 61.359375 66.546875 62.25 65.554688 C 63.140625 64.5625 64.023438 63.242188 64.21875 62.625 C 64.746094 60.929688 62.859375 61.148438 60.910156 63.011719 C 58.214844 65.585938 56.277344 65.582031 53.5625 62.984375 C 51.5 61.011719 49.949219 61.082031 47.785156 63.25 C 46.554688 64.480469 45.582031 65 44.519531 65 C 43.488281 65 42.382812 64.4375 41.066406 63.25 C 39.273438 61.632812 37.167969 61 36.332031 61.832031 M 40.4375 67.832031 C 39.851562 68.535156 39.855469 68.699219 40.453125 68.898438 C 40.839844 69.027344 42.316406 69.746094 43.738281 70.492188 C 47.378906 72.410156 52.722656 72.453125 56 70.597656 C 57.238281 69.894531 58.363281 69.230469 58.5 69.117188 C 59.003906 68.707031 56.351562 67 55.210938 67 C 54.53125 67 53.292969 67.742188 52.285156 68.75 C 51.054688 69.980469 50.082031 70.5 49.019531 70.5 C 47.988281 70.5 46.882812 69.9375 45.566406 68.75 C 43.453125 66.839844 41.539062 66.496094 40.4375 67.832031 "/>
</g>
</svg>
