<?xml version="1.0" encoding="UTF-8"?>
<svg xmlns="http://www.w3.org/2000/svg" xmlns:xlink="http://www.w3.org/1999/xlink" width="24px" height="24px" viewBox="0 0 24 24" version="1.1">
<g id="surface1">
<path style=" stroke:none;fill-rule:evenodd;fill:rgb(0%,0%,0%);fill-opacity:1;" d="M 11.824219 2.0625 C 11.722656 2.402344 11.640625 2.859375 11.640625 3.078125 C 11.640625 3.429688 11.59375 3.484375 11.1875 3.59375 C 10.941406 3.660156 10.492188 3.871094 10.191406 4.058594 L 9.648438 4.402344 L 9.175781 3.992188 C 8.632812 3.519531 7.867188 3.09375 7.753906 3.207031 C 7.582031 3.378906 7.707031 3.570312 8.152344 3.820312 C 8.410156 3.96875 8.757812 4.246094 8.925781 4.445312 L 9.226562 4.804688 L 8.933594 5.433594 C 8.773438 5.777344 8.613281 6.25 8.574219 6.480469 C 8.40625 7.507812 8.484375 7.4375 7.527344 7.453125 C 6.480469 7.464844 6.074219 7.566406 6.023438 7.824219 C 5.992188 7.996094 6.125 8.011719 7.175781 7.953125 C 7.832031 7.917969 8.394531 7.933594 8.429688 7.992188 C 8.464844 8.050781 8.527344 8.261719 8.570312 8.460938 C 8.640625 8.792969 8.605469 8.839844 8.09375 9.113281 C 7.789062 9.273438 7.257812 9.714844 6.910156 10.097656 L 6.28125 10.792969 L 5.691406 10.574219 C 4.855469 10.261719 4.121094 10.183594 3.949219 10.390625 C 3.789062 10.585938 3.824219 10.601562 4.855469 10.804688 C 5.824219 10.996094 6.148438 11.15625 6.050781 11.390625 C 5.878906 11.792969 5.644531 12.921875 5.640625 13.351562 L 5.640625 13.800781 L 4.769531 13.800781 C 3.90625 13.804688 3.285156 13.988281 3.375 14.21875 C 3.398438 14.285156 3.582031 14.332031 3.78125 14.320312 C 5.238281 14.242188 5.515625 14.238281 5.582031 14.300781 C 5.621094 14.34375 5.730469 14.71875 5.816406 15.136719 C 5.90625 15.558594 6.09375 16.171875 6.238281 16.5 C 6.480469 17.058594 6.484375 17.109375 6.292969 17.21875 C 5.816406 17.5 4.917969 18.257812 4.800781 18.480469 C 4.695312 18.675781 4.710938 18.738281 4.863281 18.796875 C 4.992188 18.847656 5.226562 18.707031 5.558594 18.390625 C 5.835938 18.125 6.21875 17.828125 6.410156 17.730469 C 6.761719 17.550781 6.765625 17.550781 7.28125 18.1875 C 7.566406 18.535156 7.972656 18.957031 8.183594 19.125 L 8.574219 19.429688 L 8.316406 19.703125 C 7.949219 20.097656 7.40625 21.222656 7.484375 21.425781 C 7.609375 21.742188 7.789062 21.605469 8.09375 20.96875 C 8.257812 20.625 8.519531 20.1875 8.667969 20.003906 L 8.941406 19.667969 L 9.636719 19.984375 C 10.023438 20.160156 10.710938 20.363281 11.167969 20.433594 C 12.121094 20.582031 12.125 20.589844 11.820312 21.761719 C 11.597656 22.613281 11.59375 22.558594 11.867188 22.558594 C 12.144531 22.558594 12.339844 22.0625 12.441406 21.105469 L 12.511719 20.429688 L 13.105469 20.359375 C 13.429688 20.320312 13.988281 20.15625 14.34375 19.992188 L 14.992188 19.699219 L 15.335938 20.089844 C 15.527344 20.308594 15.785156 20.734375 15.910156 21.042969 C 16.128906 21.574219 16.34375 21.734375 16.496094 21.484375 C 16.59375 21.328125 16.292969 20.636719 15.839844 19.980469 L 15.464844 19.4375 L 16.339844 18.488281 L 17.214844 17.542969 L 17.5625 17.722656 C 17.753906 17.820312 18.136719 18.113281 18.417969 18.371094 C 19.117188 19.015625 19.453125 18.980469 19.011719 18.304688 C 18.875 18.09375 17.675781 17.175781 17.433594 17.097656 C 17.417969 17.089844 17.539062 16.765625 17.699219 16.375 C 17.863281 15.980469 18.054688 15.355469 18.128906 14.980469 C 18.257812 14.351562 18.296875 14.296875 18.648438 14.230469 C 18.859375 14.191406 19.339844 14.214844 19.714844 14.285156 C 20.371094 14.40625 20.640625 14.375 20.640625 14.171875 C 20.640625 14.03125 19.496094 13.800781 18.789062 13.800781 L 18.15625 13.800781 L 18.082031 13.050781 C 18.042969 12.636719 17.929688 12.070312 17.832031 11.789062 L 17.652344 11.28125 L 17.992188 11.105469 C 18.179688 11.007812 18.570312 10.894531 18.855469 10.855469 C 19.765625 10.734375 19.921875 10.679688 19.921875 10.496094 C 19.921875 10.242188 18.941406 10.273438 18.125 10.554688 L 17.464844 10.78125 L 16.828125 10.078125 C 16.460938 9.671875 15.949219 9.257812 15.609375 9.097656 L 15.027344 8.820312 L 15.164062 8.398438 L 15.304688 7.980469 L 16.539062 7.992188 C 17.597656 8.003906 17.765625 7.980469 17.734375 7.820312 C 17.6875 7.5625 17.273438 7.464844 16.183594 7.453125 L 15.269531 7.441406 L 15.21875 6.808594 C 15.1875 6.464844 15.027344 5.875 14.855469 5.5 L 14.542969 4.824219 L 14.921875 4.464844 C 15.128906 4.269531 15.53125 3.964844 15.8125 3.789062 C 16.304688 3.488281 16.390625 3.238281 16.011719 3.238281 C 15.765625 3.238281 15.003906 3.742188 14.589844 4.183594 L 14.242188 4.550781 L 13.847656 4.203125 C 13.628906 4.011719 13.148438 3.761719 12.785156 3.644531 C 12.164062 3.449219 12.121094 3.410156 12.121094 3.058594 C 12.121094 2.847656 12.195312 2.429688 12.285156 2.125 C 12.378906 1.820312 12.421875 1.542969 12.386719 1.507812 C 12.191406 1.308594 11.988281 1.507812 11.824219 2.0625 M 11.132812 4.128906 C 10.507812 4.351562 10.148438 4.609375 9.789062 5.074219 C 8.921875 6.210938 8.886719 8.269531 9.71875 9.324219 C 9.851562 9.492188 9.960938 9.707031 9.960938 9.796875 C 9.960938 10.066406 9.621094 9.980469 9.410156 9.660156 C 9.15625 9.273438 8.929688 9.28125 8.269531 9.699219 C 7.207031 10.375 6.578125 11.449219 6.355469 12.964844 C 5.996094 15.390625 7.519531 18.222656 9.777344 19.332031 C 10.589844 19.726562 10.660156 19.738281 12.058594 19.738281 C 13.429688 19.738281 13.539062 19.722656 14.300781 19.359375 C 15.800781 18.648438 16.925781 17.292969 17.476562 15.523438 C 17.742188 14.664062 17.78125 14.363281 17.730469 13.46875 C 17.695312 12.792969 17.582031 12.175781 17.410156 11.730469 C 17.085938 10.890625 16.167969 9.847656 15.472656 9.535156 L 14.96875 9.308594 L 14.695312 9.652344 C 14.507812 9.886719 14.359375 9.96875 14.21875 9.914062 C 14.027344 9.84375 14.027344 9.820312 14.210938 9.570312 C 14.75 8.835938 14.9375 8.230469 14.933594 7.261719 C 14.929688 6.464844 14.871094 6.195312 14.613281 5.691406 C 13.875 4.261719 12.496094 3.644531 11.132812 4.128906 M 10.230469 6.296875 C 9.9375 6.859375 9.984375 7.898438 10.328125 8.519531 C 11.054688 9.8125 12.855469 9.8125 13.613281 8.519531 C 13.921875 7.992188 13.957031 6.675781 13.675781 6.246094 C 13.496094 5.980469 13.417969 5.96875 11.953125 5.949219 L 10.417969 5.933594 L 10.230469 6.296875 M 10.625 6.515625 C 10.359375 7.386719 10.535156 8.253906 11.0625 8.703125 C 11.453125 9.027344 12.128906 9.101562 12.632812 8.871094 C 13.195312 8.613281 13.5625 7.535156 13.347656 6.785156 L 13.246094 6.429688 L 11.957031 6.402344 C 11.042969 6.382812 10.652344 6.417969 10.625 6.515625 M 11.695312 7.371094 C 11.382812 7.597656 11.550781 8.160156 11.925781 8.160156 C 12.261719 8.160156 12.515625 7.894531 12.460938 7.609375 C 12.402344 7.324219 11.953125 7.179688 11.695312 7.371094 M 10.558594 10.859375 C 8.71875 11.277344 7.28125 13.0625 7.109375 15.140625 C 7.058594 15.753906 7.085938 15.855469 7.359375 16.132812 L 7.667969 16.441406 L 11.976562 16.441406 C 16.15625 16.441406 16.296875 16.433594 16.605469 16.191406 C 16.875 15.980469 16.917969 15.851562 16.917969 15.320312 C 16.917969 14.980469 16.789062 14.34375 16.636719 13.90625 C 16.121094 12.449219 15.246094 11.488281 14.011719 11.019531 C 13.179688 10.703125 11.578125 10.628906 10.558594 10.859375 M 10.679688 11.320312 C 10.078125 11.476562 10.066406 11.574219 10.601562 11.972656 L 10.96875 12.242188 L 11.460938 11.761719 C 11.730469 11.496094 11.984375 11.28125 12.03125 11.28125 C 12.074219 11.28125 12.316406 11.496094 12.566406 11.761719 L 13.019531 12.246094 L 13.464844 11.925781 C 13.710938 11.75 13.886719 11.5625 13.855469 11.511719 C 13.660156 11.195312 11.628906 11.074219 10.679688 11.320312 M 9.492188 13.621094 C 8.839844 13.914062 7.558594 15.097656 7.558594 15.40625 C 7.558594 15.796875 7.789062 15.960938 8.335938 15.957031 C 8.796875 15.957031 8.84375 15.921875 9.371094 15.148438 C 9.675781 14.703125 10 14.324219 10.097656 14.304688 C 10.207031 14.285156 10.398438 14.539062 10.617188 14.996094 C 10.808594 15.394531 10.988281 15.71875 11.015625 15.71875 C 11.042969 15.71875 11.269531 15.492188 11.519531 15.210938 L 11.972656 14.699219 L 12.457031 15.226562 L 12.9375 15.757812 L 13.316406 15.011719 C 13.523438 14.601562 13.757812 14.285156 13.835938 14.308594 C 13.914062 14.335938 14.25 14.714844 14.578125 15.15625 C 15.144531 15.921875 15.195312 15.960938 15.671875 15.960938 C 16.367188 15.960938 16.539062 15.726562 16.21875 15.214844 C 15.851562 14.621094 14.996094 13.835938 14.492188 13.625 C 13.863281 13.363281 13.359375 13.394531 12.601562 13.75 L 11.945312 14.054688 L 11.496094 13.800781 C 10.898438 13.464844 10.011719 13.382812 9.492188 13.621094 M 9.691406 15.484375 L 9.363281 15.960938 L 9.960938 15.960938 C 10.289062 15.960938 10.558594 15.933594 10.558594 15.902344 C 10.558594 15.78125 10.152344 15 10.085938 15.003906 C 10.050781 15.007812 9.871094 15.222656 9.691406 15.484375 M 13.640625 15.425781 C 13.53125 15.65625 13.441406 15.875 13.441406 15.902344 C 13.441406 15.933594 13.714844 15.960938 14.046875 15.960938 L 14.65625 15.960938 L 14.316406 15.484375 C 14.132812 15.21875 13.949219 15.003906 13.914062 15.003906 C 13.875 15 13.753906 15.191406 13.640625 15.425781 M 11.699219 15.71875 C 11.484375 15.957031 11.492188 15.960938 12 15.960938 C 12.507812 15.960938 12.515625 15.957031 12.300781 15.71875 C 12.179688 15.589844 12.046875 15.480469 12 15.480469 C 11.953125 15.480469 11.820312 15.589844 11.699219 15.71875 "/>
</g>
</svg>
