<?xml version="1.0" encoding="UTF-8"?>
<svg xmlns="http://www.w3.org/2000/svg" xmlns:xlink="http://www.w3.org/1999/xlink" width="100px" height="100px" viewBox="0 0 100 100" version="1.1">
<g id="surface1">
<path style=" stroke:none;fill-rule:evenodd;fill:rgb(0%,0%,0%);fill-opacity:1;" d="M 49.269531 8.589844 C 48.847656 10.015625 48.5 11.917969 48.5 12.820312 C 48.5 14.292969 48.308594 14.511719 46.617188 14.96875 C 45.582031 15.246094 43.714844 16.121094 42.46875 16.910156 L 40.207031 18.347656 L 38.226562 16.628906 C 35.964844 14.660156 32.773438 12.894531 32.3125 13.355469 C 31.59375 14.074219 32.117188 14.878906 33.964844 15.921875 C 35.046875 16.527344 36.5 17.699219 37.191406 18.519531 L 38.449219 20.015625 L 37.226562 22.632812 C 36.558594 24.070312 35.882812 26.039062 35.726562 27 C 35.03125 31.289062 35.347656 30.996094 31.367188 31.050781 C 26.996094 31.109375 25.304688 31.527344 25.101562 32.601562 C 24.960938 33.316406 25.519531 33.378906 29.898438 33.136719 C 32.625 32.984375 34.972656 33.0625 35.117188 33.304688 C 35.265625 33.550781 35.527344 34.425781 35.703125 35.25 C 35.996094 36.636719 35.847656 36.839844 33.71875 37.964844 C 32.453125 38.632812 30.242188 40.484375 28.800781 42.078125 L 26.179688 44.972656 L 23.714844 44.054688 C 20.222656 42.75 17.179688 42.433594 16.464844 43.292969 C 15.785156 44.113281 15.929688 44.179688 20.222656 45.027344 C 24.273438 45.824219 25.621094 46.484375 25.203125 47.464844 C 24.492188 49.140625 23.515625 53.839844 23.507812 55.625 L 23.5 57.5 L 19.875 57.507812 C 16.277344 57.515625 13.683594 58.289062 14.054688 59.25 C 14.164062 59.523438 14.925781 59.714844 15.75 59.667969 C 21.820312 59.335938 22.988281 59.324219 23.261719 59.59375 C 23.429688 59.761719 23.871094 61.328125 24.238281 63.074219 C 24.609375 64.820312 25.398438 67.375 25.992188 68.75 C 27 71.078125 27.015625 71.285156 26.21875 71.75 C 24.234375 72.914062 20.5 76.066406 19.996094 77.003906 C 19.566406 77.808594 19.621094 78.078125 20.265625 78.324219 C 20.800781 78.53125 21.785156 77.949219 23.160156 76.625 C 24.308594 75.519531 25.910156 74.277344 26.714844 73.871094 C 28.175781 73.128906 28.183594 73.136719 30.335938 75.773438 C 31.519531 77.226562 33.214844 78.988281 34.105469 79.683594 L 35.722656 80.949219 L 34.648438 82.097656 C 33.121094 83.734375 30.863281 88.425781 31.191406 89.28125 C 31.699219 90.597656 32.457031 90.027344 33.726562 87.375 C 34.414062 85.929688 35.492188 84.117188 36.117188 83.347656 L 37.253906 81.941406 L 40.160156 83.273438 C 41.761719 84.003906 44.628906 84.847656 46.535156 85.140625 C 50.503906 85.753906 50.519531 85.792969 49.25 90.667969 C 48.324219 94.222656 48.3125 94 49.449219 94 C 50.601562 94 51.414062 91.933594 51.835938 87.9375 L 52.128906 85.125 L 54.601562 84.832031 C 55.964844 84.671875 58.289062 83.984375 59.769531 83.304688 L 62.460938 82.074219 L 63.902344 83.714844 C 64.691406 84.613281 65.769531 86.398438 66.296875 87.675781 C 67.207031 89.886719 68.09375 90.5625 68.738281 89.523438 C 69.140625 88.871094 67.878906 85.980469 65.996094 83.246094 L 64.441406 80.984375 L 68.089844 77.039062 L 71.734375 73.097656 L 73.175781 73.839844 C 73.964844 74.25 75.570312 75.464844 76.738281 76.542969 C 79.664062 79.238281 81.0625 79.085938 79.21875 76.269531 C 78.640625 75.390625 73.644531 71.566406 72.640625 71.234375 C 72.582031 71.214844 73.082031 69.859375 73.753906 68.222656 C 74.425781 66.589844 75.230469 63.976562 75.542969 62.421875 C 76.070312 59.800781 76.230469 59.566406 77.699219 59.292969 C 78.574219 59.128906 80.574219 59.234375 82.148438 59.523438 C 84.882812 60.03125 86 59.894531 86 59.054688 C 86 58.460938 81.226562 57.5 78.285156 57.5 L 75.644531 57.5 L 75.347656 54.375 C 75.1875 52.65625 74.714844 50.292969 74.300781 49.125 L 73.546875 47.003906 L 74.96875 46.265625 C 75.753906 45.859375 77.375 45.394531 78.574219 45.234375 C 82.347656 44.71875 83 44.5 83 43.742188 C 83 42.671875 78.925781 42.800781 75.511719 43.976562 L 72.777344 44.921875 L 70.125 41.992188 C 68.589844 40.300781 66.449219 38.578125 65.046875 37.90625 L 62.617188 36.75 L 63.191406 35 L 63.761719 33.25 L 68.90625 33.308594 C 73.328125 33.355469 74.027344 33.253906 73.894531 32.578125 C 73.691406 31.515625 71.972656 31.109375 67.4375 31.050781 L 63.625 31 L 63.40625 28.375 C 63.285156 26.929688 62.605469 24.476562 61.894531 22.925781 L 60.601562 20.097656 L 62.175781 18.609375 C 63.042969 17.789062 64.714844 16.519531 65.894531 15.789062 C 67.929688 14.53125 68.296875 13.5 66.710938 13.5 C 65.683594 13.5 62.519531 15.601562 60.796875 17.425781 L 59.34375 18.96875 L 57.691406 17.515625 C 56.78125 16.714844 54.789062 15.671875 53.269531 15.191406 C 50.679688 14.375 50.5 14.214844 50.5 12.738281 C 50.5 11.871094 50.8125 10.121094 51.191406 8.855469 C 51.574219 7.589844 51.761719 6.429688 51.609375 6.277344 C 50.789062 5.457031 49.953125 6.285156 49.269531 8.589844 M 46.378906 17.210938 C 43.785156 18.136719 42.28125 19.199219 40.792969 21.148438 C 37.183594 25.882812 37.035156 34.460938 40.488281 38.851562 C 41.046875 39.554688 41.5 40.441406 41.5 40.816406 C 41.5 41.941406 40.082031 41.589844 39.203125 40.25 C 38.152344 38.640625 37.207031 38.675781 34.464844 40.414062 C 30.035156 43.222656 27.40625 47.703125 26.476562 54.015625 C 24.984375 64.132812 31.328125 75.933594 40.738281 80.542969 C 44.121094 82.199219 44.410156 82.25 50.238281 82.25 C 55.949219 82.25 56.417969 82.171875 59.589844 80.667969 C 65.835938 77.707031 70.515625 72.050781 72.8125 64.683594 C 73.933594 61.097656 74.085938 59.855469 73.882812 56.117188 C 73.730469 53.300781 73.253906 50.730469 72.539062 48.875 C 71.1875 45.375 67.359375 41.039062 64.46875 39.734375 L 62.371094 38.789062 L 61.234375 40.21875 C 60.453125 41.199219 59.828125 41.542969 59.242188 41.316406 C 58.445312 41.011719 58.441406 40.910156 59.210938 39.867188 C 61.453125 36.820312 62.242188 34.300781 62.21875 30.25 C 62.199219 26.941406 61.96875 25.8125 60.886719 23.71875 C 57.808594 17.761719 52.058594 15.183594 46.378906 17.210938 M 42.625 26.234375 C 41.40625 28.585938 41.597656 32.914062 43.042969 35.492188 C 46.058594 40.882812 53.558594 40.886719 56.722656 35.5 C 58.011719 33.300781 58.160156 27.808594 56.976562 26.027344 C 56.238281 24.917969 55.910156 24.863281 49.808594 24.789062 L 43.414062 24.714844 L 42.625 26.234375 M 44.265625 27.15625 C 43.160156 30.785156 43.890625 34.398438 46.097656 36.257812 C 47.714844 37.617188 50.535156 37.917969 52.644531 36.957031 C 54.972656 35.894531 56.507812 31.402344 55.613281 28.269531 L 55.1875 26.789062 L 49.816406 26.675781 C 46.019531 26.59375 44.390625 26.738281 44.265625 27.15625 M 48.726562 30.707031 C 47.429688 31.65625 48.121094 34 49.699219 34 C 51.085938 34 52.152344 32.898438 51.917969 31.707031 C 51.679688 30.511719 49.796875 29.921875 48.726562 30.707031 M 44 45.25 C 36.328125 46.992188 30.335938 54.425781 29.621094 63.089844 C 29.410156 65.636719 29.515625 66.0625 30.667969 67.214844 L 31.953125 68.5 L 49.910156 68.5 C 67.316406 68.5 67.90625 68.46875 69.183594 67.464844 C 70.304688 66.578125 70.5 66.046875 70.488281 63.839844 C 70.484375 62.414062 69.953125 59.761719 69.3125 57.945312 C 67.171875 51.878906 63.523438 47.863281 58.375 45.90625 C 54.914062 44.589844 48.246094 44.285156 44 45.25 M 44.5 47.164062 C 41.996094 47.816406 41.945312 48.234375 44.175781 49.878906 L 45.703125 51.007812 L 47.746094 49.003906 C 48.867188 47.902344 49.941406 47 50.125 47 C 50.3125 47 51.316406 47.90625 52.355469 49.015625 L 54.25 51.027344 L 56.109375 49.695312 C 57.136719 48.960938 57.863281 48.183594 57.730469 47.96875 C 56.917969 46.652344 48.449219 46.136719 44.5 47.164062 M 39.542969 56.75 C 36.835938 57.972656 31.5 62.910156 31.5 64.191406 C 31.5 65.824219 32.449219 66.5 34.726562 66.492188 C 36.660156 66.484375 36.851562 66.335938 39.046875 63.117188 C 40.308594 61.265625 41.671875 59.6875 42.070312 59.609375 C 42.53125 59.515625 43.328125 60.570312 44.242188 62.484375 C 45.035156 64.140625 45.78125 65.5 45.898438 65.5 C 46.015625 65.5 46.964844 64.542969 48 63.375 L 49.886719 61.25 L 51.898438 63.449219 L 53.910156 65.652344 L 55.480469 62.542969 C 56.34375 60.832031 57.320312 59.519531 57.648438 59.621094 C 57.980469 59.726562 59.367188 61.316406 60.734375 63.15625 C 63.105469 66.347656 63.316406 66.5 65.300781 66.5 C 68.195312 66.5 68.910156 65.527344 67.578125 63.390625 C 66.046875 60.921875 62.484375 57.644531 60.390625 56.773438 C 57.765625 55.679688 55.664062 55.816406 52.511719 57.285156 L 49.777344 58.558594 L 47.90625 57.507812 C 45.402344 56.101562 41.722656 55.765625 39.542969 56.75 M 40.378906 64.519531 L 39.007812 66.5 L 41.503906 66.5 C 42.878906 66.5 44 66.394531 44 66.265625 C 44 65.75 42.296875 62.5 42.03125 62.519531 C 41.878906 62.53125 41.132812 63.429688 40.378906 64.519531 M 56.84375 64.265625 C 56.378906 65.238281 56 66.140625 56 66.265625 C 56 66.394531 57.140625 66.5 58.53125 66.5 L 61.066406 66.5 L 59.65625 64.511719 C 58.882812 63.417969 58.121094 62.515625 57.96875 62.511719 C 57.8125 62.503906 57.304688 63.296875 56.84375 64.265625 M 48.75 65.5 C 47.859375 66.484375 47.875 66.5 50 66.5 C 52.125 66.5 52.140625 66.484375 51.25 65.5 C 50.753906 64.949219 50.191406 64.5 50 64.5 C 49.808594 64.5 49.246094 64.949219 48.75 65.5 "/>
</g>
</svg>
