<?xml version="1.0" encoding="UTF-8"?>
<svg xmlns="http://www.w3.org/2000/svg" xmlns:xlink="http://www.w3.org/1999/xlink" width="24px" height="24px" viewBox="0 0 24 24" version="1.1">
<g id="surface1">
<path style=" stroke:none;fill-rule:evenodd;fill:rgb(0%,0%,0%);fill-opacity:1;" d="M 6.667969 2.117188 C 4.957031 2.484375 3.46875 3.28125 2.128906 4.546875 C 1.40625 5.230469 0.601562 6.210938 0.601562 6.40625 C 0.601562 6.589844 2.960938 7.921875 3.289062 7.921875 C 3.382812 7.921875 3.585938 7.746094 3.738281 7.53125 C 3.886719 7.316406 4.332031 6.800781 4.722656 6.390625 L 5.4375 5.640625 L 4.878906 5.640625 C 4.570312 5.640625 4.320312 5.679688 4.316406 5.730469 C 4.316406 5.78125 4.207031 5.953125 4.074219 6.121094 L 3.832031 6.421875 L 3.976562 6.089844 C 4.054688 5.90625 4.09375 5.734375 4.0625 5.703125 C 4.03125 5.671875 3.640625 5.707031 3.195312 5.773438 C 2.746094 5.84375 2.355469 5.875 2.324219 5.84375 C 2.289062 5.8125 2.652344 5.71875 3.125 5.640625 C 3.957031 5.5 3.980469 5.484375 3.925781 5.183594 L 3.863281 4.875 L 4.074219 5.152344 C 4.261719 5.402344 4.359375 5.425781 4.90625 5.375 C 5.246094 5.339844 5.554688 5.285156 5.589844 5.25 C 5.625 5.214844 5.515625 4.910156 5.347656 4.570312 C 5.175781 4.234375 5.054688 3.960938 5.078125 3.960938 C 5.101562 3.960938 5.304688 4.230469 5.53125 4.558594 C 5.757812 4.890625 5.984375 5.160156 6.035156 5.160156 C 6.25 5.160156 7.078125 4.609375 7.078125 4.464844 C 7.078125 4.378906 6.972656 4.082031 6.835938 3.804688 C 6.644531 3.402344 6.636719 3.359375 6.808594 3.59375 C 7.410156 4.429688 7.320312 4.394531 8.140625 4.085938 C 8.546875 3.933594 8.878906 3.789062 8.878906 3.761719 C 8.878906 3.734375 8.800781 3.511719 8.703125 3.265625 C 8.609375 3.019531 8.59375 2.921875 8.675781 3.042969 C 9.097656 3.695312 9.152344 3.722656 9.796875 3.644531 C 10.605469 3.546875 10.777344 3.441406 10.566406 3.1875 C 10.476562 3.082031 10.4375 2.964844 10.472656 2.925781 C 10.511719 2.890625 10.632812 3 10.746094 3.167969 C 10.929688 3.453125 11.019531 3.480469 11.738281 3.480469 C 12.351562 3.480469 12.496094 3.449219 12.382812 3.335938 C 12.304688 3.257812 12.242188 3.136719 12.242188 3.066406 C 12.242188 2.996094 12.339844 3.054688 12.453125 3.195312 C 12.625 3.410156 12.867188 3.476562 13.914062 3.582031 C 14.605469 3.652344 15.1875 3.691406 15.207031 3.671875 C 15.226562 3.652344 15.035156 3.492188 14.78125 3.3125 C 14.039062 2.800781 12.726562 2.304688 11.585938 2.105469 C 10.257812 1.871094 7.777344 1.878906 6.667969 2.117188 M 19.289062 3.128906 C 19.140625 3.214844 19.078125 3.402344 19.078125 3.773438 C 19.078125 4.136719 19.023438 4.316406 18.890625 4.367188 C 18.5625 4.492188 17.730469 4.445312 16.921875 4.25 C 14.808594 3.75 11.367188 3.558594 9.773438 3.851562 C 8.0625 4.160156 6.464844 5.046875 5.027344 6.472656 C 3.929688 7.566406 3.28125 8.578125 2.945312 9.71875 C 2.761719 10.351562 2.039062 14.132812 2.039062 14.476562 C 2.039062 14.574219 2.167969 14.640625 2.351562 14.640625 C 2.859375 14.640625 6.9375 13.691406 8.039062 13.316406 C 8.902344 13.023438 9.117188 12.890625 9.472656 12.453125 C 10.078125 11.707031 10.878906 10.96875 11.6875 10.414062 C 13.097656 9.445312 13.847656 8.707031 14.261719 7.875 C 14.414062 7.566406 14.699219 7.195312 14.890625 7.054688 C 15.191406 6.832031 15.238281 6.714844 15.238281 6.21875 C 15.238281 5.898438 15.21875 5.640625 15.191406 5.640625 C 15.164062 5.640625 14.890625 5.746094 14.582031 5.878906 L 14.023438 6.117188 L 14.089844 6.988281 C 14.15625 7.871094 14.140625 7.851562 13.859375 6.628906 C 13.78125 6.296875 13.695312 6.296875 12.957031 6.613281 L 12.371094 6.863281 L 12.417969 8.082031 L 12.46875 9.300781 L 12.347656 8.339844 C 12.179688 6.980469 12.226562 7.03125 11.449219 7.410156 L 10.773438 7.738281 L 10.828125 8.601562 C 10.898438 9.707031 10.742188 9.996094 10.640625 8.941406 C 10.601562 8.507812 10.535156 8.101562 10.5 8.039062 C 10.460938 7.976562 10.078125 8.101562 9.644531 8.3125 L 8.859375 8.699219 L 8.925781 9.238281 C 8.960938 9.535156 9.019531 10.132812 9.050781 10.558594 C 9.101562 11.234375 9.097656 11.265625 9.007812 10.792969 C 8.78125 9.585938 8.621094 8.878906 8.566406 8.878906 C 8.535156 8.878906 8.214844 9.066406 7.855469 9.296875 L 7.199219 9.71875 L 7.183594 10.886719 L 7.164062 12.058594 L 7.078125 11.066406 C 7.03125 10.519531 6.960938 10.039062 6.921875 10 C 6.882812 9.960938 6.589844 10.117188 6.273438 10.34375 C 5.710938 10.746094 5.699219 10.769531 5.628906 11.527344 L 5.5625 12.300781 L 5.539062 11.671875 C 5.53125 11.324219 5.476562 11.039062 5.421875 11.039062 C 5.367188 11.039062 5.097656 11.234375 4.820312 11.46875 C 4.472656 11.765625 4.316406 11.996094 4.3125 12.21875 C 4.304688 12.484375 4.289062 12.5 4.214844 12.316406 C 4.136719 12.121094 4.03125 12.195312 3.429688 12.855469 L 2.730469 13.621094 L 3.242188 12.871094 C 3.523438 12.457031 3.828125 12.058594 3.917969 11.984375 C 4.15625 11.789062 4.117188 11.671875 3.75 11.457031 C 3.570312 11.351562 3.519531 11.296875 3.640625 11.332031 C 4.378906 11.558594 4.4375 11.550781 4.921875 11.113281 L 5.398438 10.679688 L 4.738281 10.308594 C 3.855469 9.808594 3.902344 9.746094 4.816406 10.207031 L 5.550781 10.578125 L 6.195312 10.136719 C 6.550781 9.890625 6.839844 9.65625 6.839844 9.613281 C 6.839844 9.570312 6.460938 9.296875 6 9.007812 C 5.539062 8.71875 5.179688 8.457031 5.207031 8.433594 C 5.269531 8.371094 6.148438 8.816406 6.730469 9.203125 L 7.167969 9.492188 L 7.785156 9.105469 C 8.121094 8.898438 8.398438 8.691406 8.398438 8.648438 C 8.398438 8.441406 7.953125 7.988281 7.253906 7.492188 C 6.828125 7.1875 6.480469 6.914062 6.480469 6.882812 C 6.480469 6.742188 7.773438 7.546875 8.269531 7.996094 L 8.820312 8.492188 L 9.5 8.148438 C 9.875 7.960938 10.222656 7.742188 10.273438 7.660156 C 10.378906 7.488281 9.757812 6.921875 8.640625 6.167969 C 8.214844 5.875 7.902344 5.640625 7.953125 5.640625 C 8.199219 5.640625 9.539062 6.414062 10.132812 6.898438 L 10.800781 7.445312 L 11.3125 7.1875 C 11.589844 7.046875 11.84375 6.910156 11.875 6.882812 C 11.902344 6.855469 11.523438 6.421875 11.035156 5.917969 C 10.109375 4.972656 10.332031 5.050781 11.566406 6.105469 C 12.253906 6.691406 12.285156 6.703125 12.648438 6.550781 C 13.433594 6.210938 13.679688 6.078125 13.679688 5.984375 C 13.679688 5.929688 13.359375 5.628906 12.96875 5.316406 C 12.574219 5.003906 12.273438 4.726562 12.296875 4.703125 C 12.34375 4.65625 13.070312 5.152344 13.699219 5.65625 C 14.019531 5.910156 14.023438 5.910156 14.570312 5.6875 C 14.871094 5.5625 15.121094 5.425781 15.121094 5.382812 C 15.121094 5.34375 14.980469 5.214844 14.808594 5.105469 C 14.351562 4.804688 14.558594 4.730469 15.050781 5.019531 C 15.355469 5.199219 15.589844 5.246094 15.894531 5.199219 C 16.429688 5.109375 16.453125 5.238281 15.929688 5.375 C 15.566406 5.46875 15.535156 5.515625 15.476562 6.085938 L 15.414062 6.699219 L 15.992188 6.742188 L 16.570312 6.78125 L 16.699219 6.265625 C 16.773438 5.984375 16.949219 5.660156 17.089844 5.546875 C 17.234375 5.433594 17.390625 5.246094 17.433594 5.128906 C 17.496094 4.960938 17.65625 4.921875 18.246094 4.921875 C 19.175781 4.921875 19.171875 5.183594 18.242188 5.300781 C 17.382812 5.40625 17.03125 5.695312 16.792969 6.488281 C 16.683594 6.847656 16.285156 7.652344 15.898438 8.28125 C 14.382812 10.761719 14.003906 12.003906 14.003906 14.519531 C 14.003906 16.457031 14.214844 17.519531 14.882812 18.945312 C 15.898438 21.113281 17.714844 22.6875 18.871094 22.398438 C 19.410156 22.261719 20.28125 21.570312 20.832031 20.839844 C 22.277344 18.917969 23.28125 15.90625 23.28125 13.488281 C 23.28125 12.082031 23.058594 10.960938 22.371094 8.90625 C 22.078125 8.03125 21.839844 7.148438 21.839844 6.949219 C 21.839844 6.136719 21.171875 5.402344 20.34375 5.308594 C 19.730469 5.242188 19.722656 5.191406 20.175781 4.292969 C 20.484375 3.679688 20.46875 3.277344 20.128906 3.179688 C 19.566406 3.015625 19.496094 3.011719 19.289062 3.128906 M 18.269531 7.09375 C 17.1875 7.628906 16.058594 9.433594 15.515625 11.492188 C 15.101562 13.074219 14.996094 15.8125 15.292969 17.28125 C 15.636719 18.976562 16.429688 20.378906 17.292969 20.824219 C 17.734375 21.054688 18.644531 21.046875 19.144531 20.808594 C 19.367188 20.703125 19.78125 20.367188 20.070312 20.058594 C 21.511719 18.519531 22.320312 15.957031 22.320312 12.9375 C 22.320312 11.207031 22.085938 9.949219 21.546875 8.820312 C 20.71875 7.074219 19.550781 6.457031 18.269531 7.09375 M 15.246094 7.171875 C 14.960938 7.316406 14.730469 7.582031 14.5 8.03125 C 14.0625 8.886719 13.378906 9.574219 12.097656 10.460938 C 10.277344 11.710938 8.410156 14.007812 7.90625 15.605469 C 7.628906 16.492188 7.472656 18.675781 7.640625 19.3125 L 7.753906 19.730469 L 8.035156 19.015625 C 8.523438 17.789062 9.71875 15.464844 10.410156 14.398438 C 11.308594 13.011719 11.785156 12.445312 13.628906 10.558594 C 15.148438 9.007812 16.414062 7.328125 16.257812 7.078125 C 16.148438 6.898438 15.707031 6.9375 15.246094 7.171875 M 18.59375 7.78125 C 18.007812 8.253906 18.667969 8.984375 19.390625 8.65625 C 19.765625 8.488281 19.777344 8.003906 19.414062 7.746094 C 19.070312 7.503906 18.925781 7.511719 18.59375 7.78125 M 17.511719 8.5625 C 17.300781 8.667969 17.21875 8.804688 17.21875 9.0625 C 17.21875 9.304688 17.136719 9.46875 16.957031 9.570312 C 16.628906 9.757812 16.496094 10.15625 16.683594 10.386719 C 16.894531 10.636719 17.128906 10.601562 17.46875 10.261719 C 17.714844 10.015625 17.746094 9.917969 17.640625 9.722656 C 17.539062 9.535156 17.546875 9.480469 17.675781 9.480469 C 17.894531 9.480469 18.238281 9.09375 18.238281 8.84375 C 18.238281 8.539062 17.855469 8.390625 17.511719 8.5625 M 20.0625 8.542969 C 19.664062 8.945312 20.171875 9.5 20.714844 9.253906 C 21.199219 9.035156 21.011719 8.398438 20.460938 8.398438 C 20.320312 8.398438 20.144531 8.464844 20.0625 8.542969 M 18.449219 9.007812 C 17.949219 9.300781 18.371094 9.722656 19.160156 9.71875 C 19.722656 9.714844 19.980469 9.570312 19.878906 9.308594 C 19.738281 8.941406 18.875 8.761719 18.449219 9.007812 M 20.429688 9.558594 C 20.171875 9.664062 20.265625 10.078125 20.578125 10.222656 C 20.898438 10.367188 21.480469 10.203125 21.480469 9.972656 C 21.480469 9.621094 20.871094 9.382812 20.429688 9.558594 M 13.835938 10.613281 C 12.554688 11.816406 11.707031 12.835938 10.625 14.460938 C 9.695312 15.859375 8.421875 18.386719 7.984375 19.699219 C 7.4375 21.351562 7.648438 22.113281 8.511719 21.585938 C 9.0625 21.25 11.085938 19.269531 12.5 17.675781 L 13.695312 16.328125 L 13.726562 14.496094 C 13.761719 12.496094 13.933594 11.722656 14.65625 10.289062 C 14.847656 9.910156 14.984375 9.601562 14.957031 9.601562 C 14.933594 9.601562 14.425781 10.054688 13.835938 10.613281 M 18 10.078125 C 17.699219 10.382812 17.699219 10.492188 18.007812 10.78125 C 18.503906 11.242188 19.535156 11.175781 19.808594 10.667969 C 19.90625 10.484375 19.867188 10.378906 19.628906 10.140625 C 19.238281 9.75 18.363281 9.714844 18 10.078125 M 20.308594 10.519531 C 20.082031 10.609375 19.910156 10.996094 19.996094 11.214844 C 20.082031 11.445312 20.652344 11.761719 20.980469 11.761719 C 21.109375 11.761719 21.335938 11.660156 21.484375 11.539062 C 22.132812 11.015625 21.164062 10.175781 20.308594 10.519531 M 16.390625 10.933594 C 16.140625 11.128906 16.074219 11.273438 16.101562 11.5625 C 16.136719 11.902344 16.183594 11.945312 16.578125 11.976562 C 16.929688 12.007812 17.058594 11.953125 17.265625 11.691406 C 17.570312 11.304688 17.582031 11.121094 17.332031 10.867188 C 17.074219 10.609375 16.773438 10.632812 16.390625 10.933594 M 17.683594 11.460938 C 17.480469 11.988281 17.980469 12.480469 18.71875 12.480469 C 19.511719 12.480469 20.117188 11.808594 19.640625 11.460938 C 19.335938 11.238281 17.765625 11.242188 17.683594 11.460938 M 20.179688 11.984375 C 20.089844 12.042969 20.039062 12.214844 20.058594 12.375 C 20.113281 12.765625 20.957031 13.074219 21.410156 12.867188 C 22.054688 12.574219 21.597656 11.878906 20.761719 11.882812 C 20.53125 11.882812 20.269531 11.929688 20.179688 11.984375 M 16.132812 12.394531 C 15.675781 12.789062 15.796875 13.078125 16.417969 13.078125 C 16.988281 13.078125 17.40625 12.707031 17.203125 12.382812 C 17.003906 12.0625 16.511719 12.070312 16.132812 12.394531 M 17.480469 12.679688 C 17.269531 12.890625 17.414062 13.320312 17.753906 13.496094 C 18.214844 13.734375 19.191406 13.734375 19.535156 13.492188 C 19.820312 13.292969 19.894531 12.859375 19.648438 12.785156 C 19.335938 12.6875 17.558594 12.601562 17.480469 12.679688 M 20.425781 13.222656 C 20.175781 13.472656 20.265625 13.785156 20.632812 13.976562 C 21.113281 14.226562 21.519531 14.207031 21.773438 13.925781 C 21.976562 13.703125 21.972656 13.679688 21.679688 13.386719 C 21.34375 13.054688 20.679688 12.96875 20.425781 13.222656 M 16.351562 13.3125 C 15.960938 13.410156 15.601562 13.761719 15.601562 14.042969 C 15.601562 14.628906 16.914062 14.570312 17.1875 13.972656 C 17.398438 13.507812 16.957031 13.15625 16.351562 13.3125 M 18.121094 14.007812 C 17.375 14.058594 17.222656 14.152344 17.332031 14.488281 C 17.582031 15.277344 19.859375 15.089844 19.859375 14.28125 C 19.859375 14.007812 19.8125 13.980469 19.320312 13.96875 C 19.023438 13.964844 18.484375 13.980469 18.121094 14.007812 M 20.398438 14.519531 C 20.269531 14.652344 20.160156 14.839844 20.160156 14.941406 C 20.160156 15.214844 20.605469 15.601562 20.921875 15.601562 C 21.535156 15.601562 21.820312 14.808594 21.332031 14.46875 C 20.972656 14.214844 20.6875 14.230469 20.398438 14.519531 M 16.320312 14.605469 C 16.050781 14.703125 15.601562 15.140625 15.601562 15.304688 C 15.601562 15.742188 16.460938 15.890625 16.988281 15.546875 C 17.652344 15.113281 17.089844 14.324219 16.320312 14.605469 M 18.3125 15.246094 C 17.375 15.355469 17.21875 15.457031 17.324219 15.886719 C 17.472656 16.472656 18.835938 16.582031 19.5 16.058594 C 19.984375 15.679688 19.839844 15.074219 19.28125 15.136719 C 19.203125 15.144531 18.769531 15.195312 18.3125 15.246094 M 20.1875 15.785156 C 19.847656 16.023438 19.847656 16.257812 20.1875 16.492188 C 20.734375 16.878906 21.46875 16.617188 21.304688 16.097656 C 21.25 15.921875 20.707031 15.601562 20.46875 15.601562 C 20.460938 15.601562 20.332031 15.683594 20.1875 15.785156 M 15.917969 16.179688 C 15.671875 16.453125 15.664062 16.726562 15.898438 16.921875 C 16.480469 17.398438 17.539062 16.625 17.015625 16.105469 C 16.796875 15.886719 16.144531 15.929688 15.917969 16.179688 M 18.183594 16.53125 C 17.410156 16.578125 17.160156 16.703125 17.160156 17.050781 C 17.160156 17.453125 17.683594 17.675781 18.5 17.617188 C 19.117188 17.570312 19.28125 17.507812 19.519531 17.234375 C 19.878906 16.816406 19.730469 16.425781 19.226562 16.460938 C 19.046875 16.476562 18.578125 16.503906 18.183594 16.53125 M 13.035156 17.363281 C 11.417969 19.25 9.867188 20.816406 9.082031 21.371094 C 8.25 21.957031 8.246094 21.960938 8.652344 21.957031 C 9.359375 21.953125 10.609375 21.636719 11.46875 21.238281 C 11.925781 21.027344 12.460938 20.835938 12.660156 20.816406 C 12.859375 20.796875 13.488281 20.582031 14.0625 20.339844 C 15.070312 19.917969 15.101562 19.890625 14.976562 19.613281 L 14.84375 19.324219 L 14.53125 19.570312 C 13.960938 20.015625 12.804688 20.761719 12.683594 20.761719 C 12.617188 20.761719 12.933594 20.496094 13.390625 20.175781 C 14.753906 19.214844 14.734375 19.257812 14.304688 18.152344 C 14.105469 17.640625 13.894531 17.070312 13.835938 16.882812 L 13.734375 16.546875 L 13.035156 17.363281 M 19.867188 16.988281 C 19.527344 17.328125 19.71875 17.785156 20.28125 17.984375 C 20.59375 18.089844 20.683594 18.074219 20.882812 17.875 C 21.191406 17.570312 21.179688 17.449219 20.824219 17.09375 C 20.488281 16.757812 20.140625 16.71875 19.867188 16.988281 M 16.222656 17.425781 C 16.015625 17.632812 16.046875 18.089844 16.277344 18.21875 C 16.574219 18.386719 16.914062 18.246094 16.996094 17.925781 C 17.121094 17.421875 16.578125 17.070312 16.222656 17.425781 M 17.429688 17.960938 C 17.210938 18.046875 17.246094 18.535156 17.488281 18.742188 C 17.832031 19.035156 18.132812 19.09375 18.558594 18.953125 C 19.03125 18.796875 19.316406 18.4375 19.234375 18.113281 C 19.179688 17.910156 19.066406 17.882812 18.375 17.890625 C 17.9375 17.894531 17.511719 17.925781 17.429688 17.960938 M 19.640625 18.199219 C 19.507812 18.332031 19.546875 18.78125 19.703125 18.9375 C 20.066406 19.296875 20.601562 18.9375 20.472656 18.421875 C 20.414062 18.1875 20.316406 18.121094 20.058594 18.121094 C 19.871094 18.121094 19.683594 18.15625 19.640625 18.199219 M 16.511719 18.675781 C 16.414062 18.925781 16.75 19.449219 17.050781 19.527344 C 17.195312 19.566406 17.28125 19.695312 17.28125 19.875 C 17.28125 20.257812 17.757812 20.488281 18.214844 20.328125 C 18.855469 20.105469 18.636719 19.441406 17.925781 19.441406 C 17.582031 19.441406 17.519531 19.398438 17.519531 19.160156 C 17.519531 18.617188 16.683594 18.21875 16.511719 18.675781 M 18.910156 19.027344 C 18.671875 19.265625 18.667969 19.605469 18.894531 19.796875 C 19.132812 19.992188 19.4375 19.914062 19.644531 19.597656 C 19.800781 19.363281 19.792969 19.3125 19.570312 19.089844 C 19.269531 18.789062 19.15625 18.78125 18.910156 19.027344 "/>
</g>
</svg>
