<?xml version="1.0" encoding="UTF-8"?>
<svg xmlns="http://www.w3.org/2000/svg" xmlns:xlink="http://www.w3.org/1999/xlink" width="100px" height="100px" viewBox="0 0 100 100" version="1.1">
<g id="surface1">
<path style=" stroke:none;fill-rule:evenodd;fill:rgb(0%,0%,0%);fill-opacity:1;" d="M 27.78125 8.824219 C 20.660156 10.351562 14.460938 13.667969 8.867188 18.945312 C 5.855469 21.785156 2.5 25.871094 2.5 26.699219 C 2.5 27.464844 12.339844 33 13.699219 33 C 14.101562 33 14.945312 32.269531 15.570312 31.375 C 16.195312 30.480469 18.046875 28.34375 19.683594 26.625 L 22.660156 23.5 L 20.328125 23.5 C 19.046875 23.5 17.996094 23.667969 17.988281 23.875 C 17.984375 24.082031 17.527344 24.8125 16.976562 25.5 L 15.972656 26.75 L 16.566406 25.371094 C 16.894531 24.617188 17.058594 23.890625 16.933594 23.765625 C 16.804688 23.636719 15.175781 23.773438 13.3125 24.0625 C 11.449219 24.351562 9.8125 24.480469 9.679688 24.34375 C 9.542969 24.210938 11.046875 23.828125 13.015625 23.496094 C 16.484375 22.914062 16.589844 22.851562 16.347656 21.601562 L 16.101562 20.308594 L 16.980469 21.476562 C 17.757812 22.503906 18.167969 22.609375 20.441406 22.390625 C 21.859375 22.257812 23.144531 22.023438 23.292969 21.871094 C 23.445312 21.722656 22.984375 20.453125 22.273438 19.050781 C 21.566406 17.648438 21.0625 16.5 21.164062 16.5 C 21.261719 16.5 22.109375 17.625 23.046875 19 C 23.984375 20.375 24.929688 21.5 25.152344 21.5 C 26.046875 21.5 29.492188 19.207031 29.496094 18.605469 C 29.5 18.25 29.046875 17.011719 28.492188 15.855469 C 27.683594 14.175781 27.660156 13.996094 28.367188 14.972656 C 30.882812 18.449219 30.5 18.308594 33.925781 17.027344 C 35.617188 16.394531 37 15.785156 37 15.671875 C 37 15.558594 36.671875 14.632812 36.265625 13.609375 C 35.863281 12.585938 35.808594 12.171875 36.140625 12.683594 C 37.90625 15.394531 38.132812 15.515625 40.824219 15.1875 C 44.183594 14.777344 44.90625 14.34375 44.023438 13.277344 C 43.65625 12.835938 43.484375 12.347656 43.640625 12.195312 C 43.792969 12.039062 44.300781 12.496094 44.765625 13.207031 C 45.535156 14.382812 45.917969 14.5 48.90625 14.5 C 51.46875 14.5 52.066406 14.367188 51.601562 13.898438 C 51.269531 13.570312 51.003906 13.0625 51.011719 12.773438 C 51.015625 12.484375 51.410156 12.730469 51.886719 13.320312 C 52.605469 14.214844 53.617188 14.476562 57.984375 14.921875 C 60.859375 15.214844 63.28125 15.382812 63.367188 15.300781 C 63.449219 15.21875 62.644531 14.542969 61.582031 13.804688 C 58.488281 11.664062 53.03125 9.597656 48.273438 8.769531 C 42.742188 7.804688 32.414062 7.832031 27.78125 8.824219 M 80.375 13.042969 C 79.753906 13.402344 79.5 14.179688 79.5 15.722656 C 79.5 17.242188 79.261719 17.984375 78.710938 18.195312 C 77.347656 18.71875 73.878906 18.515625 70.5 17.714844 C 61.699219 15.632812 47.367188 14.828125 40.71875 16.042969 C 33.597656 17.339844 26.933594 21.03125 20.953125 26.976562 C 16.378906 31.527344 13.675781 35.742188 12.277344 40.5 C 11.503906 43.128906 8.5 58.894531 8.5 60.316406 C 8.5 60.71875 9.035156 61 9.796875 61 C 11.917969 61 28.90625 57.042969 33.488281 55.484375 C 37.085938 54.257812 37.988281 53.714844 39.464844 51.894531 C 41.996094 48.78125 45.332031 45.703125 48.703125 43.386719 C 54.570312 39.355469 57.691406 36.273438 59.417969 32.808594 C 60.0625 31.519531 61.242188 29.980469 62.042969 29.386719 C 63.300781 28.460938 63.5 27.984375 63.5 25.90625 C 63.5 24.582031 63.40625 23.5 63.292969 23.5 C 63.175781 23.5 62.039062 23.949219 60.761719 24.496094 L 58.4375 25.492188 L 58.707031 29.121094 C 58.980469 32.796875 58.925781 32.714844 57.742188 27.625 C 57.421875 26.238281 57.0625 26.230469 53.992188 27.550781 L 51.546875 28.601562 L 51.75 33.675781 L 51.949219 38.75 L 51.449219 34.75 C 50.742188 29.082031 50.949219 29.292969 47.710938 30.871094 L 44.890625 32.25 L 45.117188 35.84375 C 45.410156 40.441406 44.75 41.644531 44.34375 37.261719 C 44.171875 35.445312 43.90625 33.75 43.746094 33.496094 C 43.589844 33.238281 41.984375 33.753906 40.183594 34.640625 L 36.910156 36.25 L 37.183594 38.5 C 37.335938 39.738281 37.574219 42.210938 37.710938 44 C 37.925781 46.808594 37.902344 46.941406 37.535156 44.96875 C 36.597656 39.933594 35.917969 37 35.691406 37 C 35.558594 37 34.226562 37.785156 32.726562 38.742188 L 30 40.488281 L 29.929688 45.367188 L 29.855469 50.25 L 29.496094 46.109375 C 29.296875 43.832031 29 41.835938 28.839844 41.671875 C 28.675781 41.507812 27.464844 42.148438 26.148438 43.09375 C 23.792969 44.777344 23.746094 44.871094 23.460938 48.03125 L 23.171875 51.25 L 23.085938 48.625 C 23.039062 47.179688 22.816406 46 22.589844 46 C 22.363281 46 21.238281 46.804688 20.089844 47.789062 C 18.644531 49.027344 17.988281 49.988281 17.964844 50.914062 C 17.9375 52.015625 17.863281 52.085938 17.5625 51.3125 C 17.242188 50.503906 16.789062 50.816406 14.285156 53.5625 L 11.375 56.75 L 13.507812 53.628906 C 14.679688 51.910156 15.945312 50.25 16.320312 49.941406 C 17.316406 49.113281 17.164062 48.625 15.625 47.734375 C 14.867188 47.296875 14.664062 47.0625 15.171875 47.21875 C 18.246094 48.167969 18.488281 48.128906 20.5 46.308594 L 22.496094 44.507812 L 19.746094 42.957031 C 16.058594 40.871094 16.253906 40.609375 20.0625 42.53125 L 23.128906 44.078125 L 25.8125 42.226562 C 27.289062 41.210938 28.5 40.234375 28.5 40.054688 C 28.5 39.878906 26.925781 38.742188 24.996094 37.535156 C 23.070312 36.324219 21.589844 35.246094 21.699219 35.132812 C 21.953125 34.882812 25.613281 36.730469 28.046875 38.339844 L 29.863281 39.542969 L 32.433594 37.945312 C 33.84375 37.070312 35 36.210938 35 36.035156 C 35 35.175781 33.132812 33.289062 30.226562 31.214844 C 28.453125 29.949219 27 28.804688 27 28.675781 C 27 28.089844 32.398438 31.449219 34.460938 33.320312 L 36.75 35.386719 L 39.589844 33.957031 C 41.148438 33.167969 42.59375 32.25 42.800781 31.921875 C 43.242188 31.203125 40.664062 28.84375 36.003906 25.695312 C 34.222656 24.488281 32.933594 23.5 33.144531 23.5 C 34.15625 23.5 39.746094 26.734375 42.226562 28.75 L 45.007812 31.015625 L 47.128906 29.945312 C 48.296875 29.359375 49.351562 28.785156 49.472656 28.675781 C 49.59375 28.5625 48.019531 26.753906 45.972656 24.660156 C 42.128906 20.726562 43.046875 21.046875 48.199219 25.4375 C 51.066406 27.878906 51.191406 27.933594 52.699219 27.289062 C 55.976562 25.886719 57 25.324219 57 24.933594 C 57 24.710938 55.664062 23.457031 54.03125 22.152344 C 52.394531 20.84375 51.140625 19.691406 51.246094 19.589844 C 51.425781 19.40625 54.453125 21.46875 57.082031 23.570312 C 58.410156 24.628906 58.429688 24.628906 60.707031 23.691406 C 61.964844 23.175781 62.996094 22.605469 62.996094 22.433594 C 63 22.257812 62.417969 21.734375 61.707031 21.265625 C 59.796875 20.015625 60.667969 19.703125 62.710938 20.910156 C 63.976562 21.65625 64.949219 21.863281 66.230469 21.65625 C 68.449219 21.296875 68.554688 21.828125 66.375 22.390625 C 64.859375 22.78125 64.734375 22.980469 64.488281 25.363281 L 64.230469 27.917969 L 66.640625 28.085938 L 69.050781 28.25 L 69.585938 26.113281 C 69.882812 24.9375 70.617188 23.585938 71.214844 23.113281 C 71.8125 22.636719 72.453125 21.855469 72.636719 21.375 C 72.902344 20.671875 73.574219 20.5 76.027344 20.5 C 79.898438 20.5 79.890625 21.597656 76.015625 22.078125 C 72.433594 22.523438 70.96875 23.726562 69.96875 27.039062 C 69.523438 28.53125 67.847656 31.886719 66.25 34.5 C 59.925781 44.839844 58.355469 50.011719 58.355469 60.5 C 58.355469 68.574219 59.234375 72.996094 62.019531 78.945312 C 66.246094 87.976562 73.820312 94.53125 78.632812 93.324219 C 80.875 92.761719 84.511719 89.871094 86.792969 86.835938 C 92.820312 78.820312 97 66.273438 97 56.195312 C 97 50.339844 96.074219 45.675781 93.214844 37.109375 C 91.996094 33.457031 91 29.789062 91 28.960938 C 91 25.574219 88.210938 22.511719 84.769531 22.125 C 82.210938 21.835938 82.175781 21.636719 84.0625 17.894531 C 85.355469 15.335938 85.289062 13.648438 83.875 13.242188 C 81.527344 12.570312 81.226562 12.550781 80.375 13.042969 M 76.117188 29.554688 C 71.617188 31.785156 66.914062 39.300781 64.65625 47.886719 C 62.921875 54.480469 62.480469 65.878906 63.722656 72.011719 C 65.152344 79.0625 68.453125 84.914062 72.050781 86.777344 C 73.898438 87.730469 77.683594 87.695312 79.773438 86.707031 C 80.691406 86.269531 82.429688 84.859375 83.632812 83.574219 C 89.625 77.164062 93 66.484375 93 53.914062 C 93 46.695312 92.019531 41.457031 89.785156 36.75 C 86.332031 29.46875 81.464844 26.910156 76.117188 29.554688 M 63.527344 29.875 C 62.34375 30.476562 61.371094 31.597656 60.414062 33.472656 C 58.59375 37.023438 55.746094 39.898438 50.402344 43.578125 C 42.828125 48.792969 35.035156 58.367188 32.945312 65.023438 C 31.789062 68.714844 31.136719 77.820312 31.84375 80.476562 L 32.300781 82.203125 L 33.484375 79.226562 C 35.515625 74.117188 40.496094 64.4375 43.375 60 C 47.125 54.214844 49.101562 51.855469 56.785156 44 C 63.113281 37.527344 68.394531 30.542969 67.746094 29.496094 C 67.28125 28.738281 65.441406 28.90625 63.527344 29.875 M 77.480469 32.414062 C 75.03125 34.398438 77.785156 37.441406 80.785156 36.074219 C 82.355469 35.359375 82.40625 33.34375 80.886719 32.277344 C 79.453125 31.273438 78.859375 31.296875 77.480469 32.414062 M 72.96875 35.671875 C 72.085938 36.113281 71.75 36.691406 71.75 37.765625 C 71.75 38.765625 71.394531 39.453125 70.660156 39.871094 C 69.289062 40.65625 68.730469 42.324219 69.519531 43.273438 C 70.394531 44.324219 71.375 44.171875 72.792969 42.753906 C 73.8125 41.730469 73.941406 41.324219 73.503906 40.503906 C 73.085938 39.722656 73.117188 39.5 73.65625 39.5 C 74.566406 39.5 76 37.882812 76 36.851562 C 76 35.585938 74.398438 34.960938 72.96875 35.671875 M 83.601562 35.601562 C 81.929688 37.269531 84.054688 39.589844 86.3125 38.5625 C 88.335938 37.640625 87.546875 35 85.25 35 C 84.671875 35 83.929688 35.269531 83.601562 35.601562 M 76.875 37.539062 C 74.785156 38.757812 76.546875 40.503906 79.84375 40.492188 C 82.171875 40.484375 83.25 39.871094 82.835938 38.792969 C 82.25 37.261719 78.652344 36.507812 76.875 37.539062 M 85.125 39.832031 C 84.042969 40.265625 84.433594 41.992188 85.75 42.589844 C 87.074219 43.195312 89.5 42.519531 89.5 41.546875 C 89.5 40.089844 86.957031 39.089844 85.125 39.832031 M 57.644531 44.222656 C 52.3125 49.238281 48.78125 53.476562 44.273438 60.25 C 40.390625 66.085938 35.09375 76.601562 33.273438 82.089844 C 30.988281 88.96875 31.871094 92.132812 35.464844 89.949219 C 37.769531 88.546875 46.191406 80.285156 52.089844 73.644531 L 57.070312 68.035156 L 57.199219 60.394531 C 57.34375 52.074219 58.054688 48.84375 61.066406 42.875 C 61.863281 41.292969 62.429688 40 62.320312 40 C 62.214844 40 60.109375 41.898438 57.644531 44.222656 M 75 42 C 73.742188 43.257812 73.746094 43.722656 75.035156 44.925781 C 77.09375 46.84375 81.394531 46.566406 82.53125 44.445312 C 82.933594 43.6875 82.785156 43.238281 81.792969 42.246094 C 80.164062 40.617188 76.511719 40.488281 75 42 M 84.621094 43.832031 C 83.683594 44.210938 82.960938 45.8125 83.3125 46.734375 C 83.679688 47.6875 86.054688 49 87.421875 49 C 87.953125 49 88.898438 48.589844 89.519531 48.085938 C 92.222656 45.898438 88.1875 42.394531 84.621094 43.832031 M 68.289062 45.558594 C 67.25 46.375 66.980469 46.972656 67.097656 48.183594 C 67.234375 49.589844 67.433594 49.765625 69.066406 49.902344 C 70.542969 50.023438 71.082031 49.800781 71.941406 48.710938 C 73.203125 47.105469 73.265625 46.335938 72.214844 45.285156 C 71.140625 44.214844 69.890625 44.300781 68.289062 45.558594 M 73.675781 47.761719 C 72.835938 49.949219 74.925781 52 78 52 C 81.292969 52 83.816406 49.199219 81.832031 47.746094 C 80.574219 46.828125 74.03125 46.839844 73.675781 47.761719 M 84.082031 49.9375 C 83.714844 50.171875 83.488281 50.898438 83.582031 51.554688 C 83.8125 53.199219 87.316406 54.472656 89.214844 53.609375 C 91.890625 52.386719 89.988281 49.492188 86.511719 49.507812 C 85.542969 49.511719 84.449219 49.707031 84.082031 49.9375 M 67.226562 51.644531 C 65.320312 53.285156 65.824219 54.5 68.40625 54.5 C 70.78125 54.5 72.527344 52.949219 71.679688 51.59375 C 70.847656 50.265625 68.800781 50.289062 67.226562 51.644531 M 72.835938 52.828125 C 71.964844 53.703125 72.566406 55.507812 73.976562 56.238281 C 75.894531 57.230469 79.960938 57.222656 81.386719 56.222656 C 82.589844 55.378906 82.886719 53.589844 81.875 53.277344 C 80.570312 52.871094 73.160156 52.507812 72.835938 52.828125 M 85.101562 55.101562 C 84.070312 56.128906 84.4375 57.441406 85.976562 58.238281 C 87.972656 59.269531 89.667969 59.195312 90.722656 58.027344 C 91.566406 57.097656 91.550781 57.007812 90.324219 55.777344 C 88.933594 54.390625 86.171875 54.03125 85.101562 55.101562 M 68.136719 55.464844 C 66.503906 55.882812 65 57.339844 65 58.507812 C 65 60.953125 70.46875 60.710938 71.605469 58.214844 C 72.492188 56.273438 70.65625 54.824219 68.136719 55.464844 M 75.5 58.359375 C 72.398438 58.582031 71.765625 58.972656 72.210938 60.375 C 73.253906 63.660156 82.75 62.871094 82.75 59.5 C 82.75 58.359375 82.554688 58.246094 80.5 58.207031 C 79.261719 58.183594 77.011719 58.25 75.5 58.359375 M 85 60.5 C 84.449219 61.050781 84 61.835938 84 62.25 C 84 63.390625 85.855469 65 87.171875 65 C 89.722656 65 90.921875 61.703125 88.886719 60.277344 C 87.394531 59.230469 86.203125 59.296875 85 60.5 M 68 60.851562 C 66.875 61.265625 65 63.089844 65 63.777344 C 65 65.59375 68.589844 66.210938 70.789062 64.769531 C 73.542969 62.964844 71.207031 59.679688 68 60.851562 M 76.308594 63.53125 C 72.394531 63.984375 71.742188 64.40625 72.191406 66.195312 C 72.804688 68.644531 78.480469 69.089844 81.253906 66.90625 C 83.261719 65.328125 82.65625 62.804688 80.335938 63.066406 C 80.011719 63.101562 78.203125 63.3125 76.308594 63.53125 M 84.113281 65.777344 C 82.699219 66.765625 82.699219 67.734375 84.113281 68.722656 C 86.402344 70.324219 89.460938 69.238281 88.769531 67.066406 C 88.539062 66.339844 86.28125 65 85.285156 65 C 85.25 65 84.722656 65.351562 84.113281 65.777344 M 66.328125 67.414062 C 65.296875 68.550781 65.269531 69.6875 66.25 70.5 C 68.660156 72.5 73.074219 69.273438 70.898438 67.101562 C 69.988281 66.1875 67.265625 66.375 66.328125 67.414062 M 75.765625 68.871094 C 72.539062 69.070312 71.5 69.601562 71.5 71.050781 C 71.5 72.726562 73.679688 73.644531 77.078125 73.398438 C 79.65625 73.210938 80.339844 72.957031 81.328125 71.808594 C 82.824219 70.070312 82.207031 68.449219 80.109375 68.59375 C 79.359375 68.648438 77.40625 68.773438 75.765625 68.871094 M 54.3125 72.351562 C 47.570312 80.203125 41.121094 86.742188 37.84375 89.042969 C 34.367188 91.484375 34.355469 91.5 36.046875 91.492188 C 39 91.476562 44.199219 90.148438 47.789062 88.488281 C 49.691406 87.609375 51.925781 86.820312 52.75 86.738281 C 53.574219 86.652344 56.207031 85.761719 58.597656 84.753906 C 62.800781 82.984375 62.925781 82.882812 62.398438 81.722656 L 61.851562 80.523438 L 60.550781 81.539062 C 58.171875 83.398438 53.351562 86.5 52.84375 86.5 C 52.570312 86.5 53.898438 85.40625 55.796875 84.066406 C 61.480469 80.058594 61.402344 80.234375 59.601562 75.640625 C 58.765625 73.5 57.890625 71.121094 57.65625 70.351562 L 57.234375 68.949219 L 54.3125 72.351562 M 82.785156 70.785156 C 81.371094 72.199219 82.164062 74.113281 84.507812 74.929688 C 85.804688 75.378906 86.191406 75.308594 87.019531 74.480469 C 88.292969 73.207031 88.257812 72.710938 86.773438 71.226562 C 85.363281 69.816406 83.914062 69.65625 82.785156 70.785156 M 67.601562 72.601562 C 66.734375 73.464844 66.863281 75.375 67.820312 75.910156 C 69.0625 76.605469 70.472656 76.027344 70.8125 74.683594 C 71.339844 72.585938 69.078125 71.121094 67.601562 72.601562 M 72.625 74.832031 C 71.707031 75.199219 71.863281 77.226562 72.875 78.097656 C 74.292969 79.316406 75.546875 79.5625 77.324219 78.976562 C 79.289062 78.328125 80.492188 76.828125 80.136719 75.46875 C 79.917969 74.628906 79.445312 74.503906 76.566406 74.539062 C 74.742188 74.5625 72.96875 74.691406 72.625 74.832031 M 81.832031 75.832031 C 81.289062 76.375 81.453125 78.253906 82.101562 78.898438 C 83.605469 80.40625 85.835938 78.910156 85.296875 76.757812 C 85.054688 75.785156 84.660156 75.5 83.574219 75.5 C 82.800781 75.5 82.015625 75.648438 81.832031 75.832031 M 68.792969 77.820312 C 68.398438 78.851562 69.789062 81.039062 71.050781 81.367188 C 71.652344 81.527344 72 82.058594 72 82.820312 C 72 84.402344 73.996094 85.371094 75.890625 84.703125 C 78.558594 83.765625 77.660156 81 74.6875 81 C 73.25 81 73 80.824219 73 79.828125 C 73 77.578125 69.523438 75.917969 68.792969 77.820312 M 78.785156 79.285156 C 77.800781 80.269531 77.777344 81.691406 78.726562 82.480469 C 79.714844 83.300781 80.984375 82.96875 81.851562 81.660156 C 82.5 80.683594 82.46875 80.46875 81.535156 79.535156 C 80.292969 78.292969 79.820312 78.25 78.785156 79.285156 "/>
</g>
</svg>
