<?xml version="1.0" encoding="UTF-8"?>
<svg xmlns="http://www.w3.org/2000/svg" xmlns:xlink="http://www.w3.org/1999/xlink" width="24px" height="24px" viewBox="0 0 24 24" version="1.1">
<g id="surface1">
<path style=" stroke:none;fill-rule:evenodd;fill:rgb(0%,0%,0%);fill-opacity:1;" d="M 8.355469 0.390625 C 7.890625 1 7.664062 1.644531 7.664062 2.347656 C 7.664062 3.078125 7.722656 3.21875 8.394531 4.027344 C 8.664062 4.351562 8.945312 4.820312 9.019531 5.066406 C 9.144531 5.472656 9.121094 5.578125 8.761719 6.28125 C 8.335938 7.113281 8.339844 7.484375 8.777344 7.417969 C 9.175781 7.359375 9.835938 6.089844 9.839844 5.378906 C 9.839844 4.597656 9.675781 4.230469 9.023438 3.566406 C 8.496094 3.027344 8.460938 2.949219 8.460938 2.367188 C 8.460938 1.78125 8.585938 1.417969 9.007812 0.75 C 9.132812 0.550781 9.144531 0.425781 9.050781 0.277344 C 8.839844 -0.0585938 8.675781 -0.03125 8.355469 0.390625 M 11.398438 0.242188 C 10.960938 0.679688 10.5625 1.683594 10.5625 2.347656 C 10.558594 2.964844 10.953125 3.785156 11.449219 4.191406 C 11.746094 4.4375 12 4.972656 12 5.363281 C 12 5.546875 11.832031 6.015625 11.632812 6.398438 C 11.339844 6.953125 11.292969 7.132812 11.40625 7.269531 C 11.683594 7.601562 11.941406 7.449219 12.347656 6.703125 C 13.019531 5.484375 12.894531 4.515625 11.949219 3.605469 C 11.210938 2.894531 11.140625 1.945312 11.757812 1.019531 C 12.042969 0.59375 12.0625 0.324219 11.828125 0.125 C 11.691406 0.0117188 11.601562 0.0351562 11.398438 0.242188 M 14.28125 0.238281 C 13.898438 0.621094 13.542969 1.433594 13.476562 2.085938 C 13.398438 2.828125 13.601562 3.378906 14.191406 4.035156 C 15.007812 4.949219 15.0625 5.351562 14.511719 6.398438 C 14.21875 6.953125 14.171875 7.132812 14.285156 7.269531 C 14.558594 7.597656 14.820312 7.449219 15.199219 6.75 C 15.40625 6.371094 15.609375 5.890625 15.652344 5.6875 C 15.789062 5.039062 15.515625 4.304688 14.886719 3.632812 C 14.570312 3.292969 14.28125 2.855469 14.242188 2.652344 C 14.152344 2.214844 14.398438 1.351562 14.746094 0.859375 C 15.148438 0.292969 14.757812 -0.234375 14.28125 0.238281 M 7.105469 8.671875 C 7.035156 8.753906 6.964844 8.976562 6.941406 9.164062 C 6.90625 9.449219 6.808594 9.542969 6.359375 9.707031 C 5.96875 9.851562 5.820312 9.972656 5.820312 10.144531 C 5.820312 10.375 5.941406 10.378906 12.039062 10.410156 L 18.257812 10.441406 L 18.21875 10.171875 C 18.195312 10.007812 18.039062 9.839844 17.820312 9.746094 C 17.175781 9.464844 17.101562 9.398438 17.058594 9.109375 C 16.972656 8.507812 17.078125 8.519531 12 8.519531 C 8.328125 8.519531 7.199219 8.554688 7.105469 8.671875 M 6.898438 11.609375 C 6.933594 11.921875 7.125 14.609375 7.324219 17.578125 C 7.519531 20.550781 7.714844 23.210938 7.75 23.488281 L 7.816406 24 L 16.550781 24 L 16.609375 23.609375 C 16.640625 23.394531 16.835938 20.734375 17.035156 17.699219 C 17.238281 14.664062 17.433594 11.921875 17.472656 11.609375 L 17.542969 11.039062 L 6.832031 11.039062 L 6.898438 11.609375 "/>
</g>
</svg>
