<?xml version="1.0" encoding="UTF-8"?>
<svg xmlns="http://www.w3.org/2000/svg" xmlns:xlink="http://www.w3.org/1999/xlink" width="100px" height="100px" viewBox="0 0 100 100" version="1.1">
<g id="surface1">
<path style=" stroke:none;fill-rule:evenodd;fill:rgb(0%,0%,0%);fill-opacity:1;" d="M 34.8125 1.625 C 32.878906 4.160156 31.929688 6.847656 31.929688 9.785156 C 31.929688 12.824219 32.183594 13.40625 34.980469 16.78125 C 36.105469 18.140625 37.277344 20.085938 37.585938 21.105469 C 38.097656 22.800781 38 23.25 36.5 26.175781 C 34.726562 29.636719 34.75 31.179688 36.574219 30.910156 C 38.238281 30.664062 40.988281 25.375 40.992188 22.40625 C 41.003906 19.160156 40.3125 17.628906 37.597656 14.855469 C 35.40625 12.621094 35.25 12.289062 35.25 9.855469 C 35.253906 7.425781 35.765625 5.90625 37.53125 3.125 C 38.054688 2.292969 38.101562 1.773438 37.710938 1.152344 C 36.828125 -0.246094 36.15625 -0.136719 34.8125 1.625 M 47.492188 1.007812 C 45.671875 2.828125 44.011719 7.007812 44.003906 9.777344 C 44 12.355469 45.640625 15.773438 47.699219 17.464844 C 48.945312 18.488281 50 20.726562 50 22.351562 C 50 23.121094 49.308594 25.058594 48.464844 26.65625 C 47.246094 28.972656 47.054688 29.710938 47.527344 30.28125 C 48.683594 31.675781 49.75 31.035156 51.457031 27.929688 C 54.25 22.851562 53.726562 18.808594 49.78125 15.015625 C 46.707031 12.058594 46.414062 8.109375 48.992188 4.25 C 50.175781 2.476562 50.265625 1.34375 49.285156 0.527344 C 48.714844 0.0546875 48.347656 0.152344 47.492188 1.007812 M 59.507812 0.992188 C 57.902344 2.597656 56.429688 5.972656 56.148438 8.691406 C 55.832031 11.777344 56.671875 14.074219 59.128906 16.820312 C 62.53125 20.625 62.757812 22.304688 60.464844 26.65625 C 59.246094 28.972656 59.054688 29.710938 59.527344 30.28125 C 60.664062 31.652344 61.746094 31.039062 63.332031 28.125 C 64.191406 26.542969 65.042969 24.550781 65.222656 23.695312 C 65.789062 20.996094 64.648438 17.933594 62.035156 15.136719 C 60.71875 13.726562 59.503906 11.890625 59.335938 11.058594 C 58.972656 9.234375 59.988281 5.625 61.441406 3.582031 C 63.125 1.21875 61.484375 -0.984375 59.507812 0.992188 M 29.605469 36.125 C 29.320312 36.46875 29.011719 37.398438 28.917969 38.1875 C 28.777344 39.375 28.363281 39.765625 26.5 40.449219 C 24.875 41.050781 24.25 41.550781 24.25 42.265625 C 24.25 43.230469 24.753906 43.253906 50.160156 43.378906 L 76.070312 43.507812 L 75.910156 42.382812 C 75.8125 41.699219 75.164062 41.003906 74.25 40.601562 C 71.574219 39.433594 71.253906 39.164062 71.078125 37.949219 C 70.714844 35.449219 71.164062 35.5 50 35.5 C 34.707031 35.5 30.003906 35.644531 29.605469 36.125 M 28.738281 48.375 C 28.890625 49.679688 29.6875 60.875 30.511719 73.25 C 31.339844 85.625 32.136719 96.707031 32.289062 97.875 L 32.5625 100 L 68.953125 100 L 69.207031 98.375 C 69.34375 97.480469 70.144531 86.398438 70.988281 73.75 C 71.828125 61.101562 72.648438 49.679688 72.804688 48.375 L 73.09375 46 L 28.464844 46 L 28.738281 48.375 "/>
</g>
</svg>
