<?xml version="1.0" encoding="UTF-8"?>
<svg xmlns="http://www.w3.org/2000/svg" xmlns:xlink="http://www.w3.org/1999/xlink" width="100px" height="100px" viewBox="0 0 100 100" version="1.1">
<g id="surface1">
<path style=" stroke:none;fill-rule:evenodd;fill:rgb(0%,0%,0%);fill-opacity:1;" d="M 82.941406 24.980469 C 79.929688 25.527344 76.945312 27.539062 75.601562 29.929688 C 75.007812 30.980469 74.042969 34.109375 73.453125 36.882812 C 71.460938 46.226562 68.730469 48.972656 61.050781 49.34375 C 57.851562 49.496094 57.398438 49.425781 58.179688 48.886719 C 63.621094 45.152344 65.113281 43.460938 66.050781 39.960938 C 66.382812 38.710938 66.511719 37.121094 66.339844 36.425781 C 64.863281 30.546875 49.132812 26.203125 34.042969 27.511719 C 18.9375 28.820312 10.945312 31.472656 5.398438 37.023438 C -0.335938 42.753906 -1.25 47.300781 1.757812 55.085938 C 6.148438 66.460938 9.257812 69.800781 17.734375 72.265625 C 23.089844 73.824219 29.527344 72.574219 32.480469 69.40625 C 33.683594 68.117188 33.808594 65.351562 32.75 63.5 C 31.757812 61.765625 31.816406 61.507812 33.714844 59.289062 L 35.394531 57.328125 L 36.394531 59.289062 C 37.679688 61.800781 42.902344 66.8125 46.988281 69.453125 C 48.738281 70.585938 51.988281 72.117188 54.210938 72.859375 C 57.890625 74.085938 58.917969 74.203125 65.75 74.191406 C 72.542969 74.179688 73.636719 74.050781 77.359375 72.824219 C 82.292969 71.195312 88.0625 67.472656 91.265625 63.851562 C 94.03125 60.722656 97.597656 53.546875 98.753906 48.78125 C 99.75 44.671875 99.898438 36.238281 99.027344 33 C 98.136719 29.667969 96.351562 27.257812 93.90625 26.082031 C 91.421875 24.886719 86.300781 24.371094 82.941406 24.980469 M 80.75 26.945312 C 77.039062 28.65625 76.113281 30.226562 74.527344 37.503906 C 72.320312 47.601562 68.390625 50.925781 59.3125 50.371094 C 55.976562 50.164062 54.359375 49.738281 50.25 47.980469 C 43.910156 45.265625 41.265625 45.082031 39.042969 47.210938 C 35.878906 50.238281 35.289062 54.667969 37.476562 58.953125 C 38.695312 61.339844 44.035156 66.34375 47.820312 68.640625 C 58.777344 75.296875 74.59375 74.894531 85.136719 67.691406 C 90.613281 63.949219 94.351562 58.648438 96.816406 51.128906 C 98.109375 47.183594 98.25 46.082031 98.25 40 C 98.25 34.042969 98.125 33.015625 97.171875 31.25 C 95 27.207031 92.535156 25.992188 86.550781 26.011719 C 83.929688 26.019531 82.128906 26.308594 80.75 26.945312 M 31.5 28.835938 C 22.886719 29.707031 14.230469 32.027344 10.316406 34.507812 C 4.261719 38.347656 0.609375 44.1875 1.179688 49.121094 C 1.714844 53.78125 5.984375 58.875 10.25 59.949219 C 13.820312 60.847656 16.214844 60.597656 21.882812 58.742188 C 26.703125 57.164062 27.441406 56.757812 29.148438 54.757812 C 30.191406 53.53125 31.371094 51.90625 31.769531 51.140625 C 33.085938 48.617188 32.503906 44.410156 30.421875 41.421875 C 29.914062 40.691406 29.5 39.847656 29.5 39.546875 C 29.5 37.570312 32.257812 41.367188 33.273438 44.746094 C 34.234375 47.945312 33.496094 51.238281 31.21875 53.898438 C 29.265625 56.179688 29.113281 57.21875 30.472656 58.988281 L 31.425781 60.226562 L 32.589844 58.769531 C 33.226562 57.964844 34.023438 56.960938 34.359375 56.53125 C 34.695312 56.101562 34.976562 54.753906 34.984375 53.53125 C 35.003906 50.75 36.625 47.335938 38.589844 45.9375 C 41.289062 44.015625 43.671875 44.140625 49.628906 46.523438 L 54.960938 48.652344 L 57.109375 47.828125 C 61.632812 46.101562 65.078125 41.867188 65.183594 37.910156 C 65.28125 34.179688 60.757812 31.488281 51.085938 29.515625 C 46.378906 28.558594 37.351562 28.246094 31.5 28.835938 M 4.484375 58.714844 C 7.351562 66.246094 12.472656 70.394531 20.445312 71.628906 C 23.160156 72.046875 24.273438 71.992188 26.597656 71.316406 C 30.148438 70.285156 32.503906 68.390625 32.492188 66.582031 C 32.488281 65.472656 28.832031 58 28.296875 58 C 28.203125 58 25.722656 58.789062 22.785156 59.75 C 14.796875 62.367188 10 62.128906 5.878906 58.917969 L 4.011719 57.460938 L 4.484375 58.714844 "/>
</g>
</svg>
