<?xml version="1.0" encoding="UTF-8"?>
<svg xmlns="http://www.w3.org/2000/svg" xmlns:xlink="http://www.w3.org/1999/xlink" width="24px" height="24px" viewBox="0 0 24 24" version="1.1">
<g id="surface1">
<path style=" stroke:none;fill-rule:evenodd;fill:rgb(0%,0%,0%);fill-opacity:1;" d="M 19.90625 5.996094 C 19.183594 6.125 18.464844 6.609375 18.144531 7.183594 C 18.003906 7.433594 17.769531 8.1875 17.628906 8.851562 C 17.152344 11.09375 16.496094 11.753906 14.652344 11.84375 C 13.882812 11.878906 13.773438 11.863281 13.964844 11.734375 C 15.269531 10.835938 15.628906 10.429688 15.851562 9.589844 C 15.933594 9.289062 15.964844 8.910156 15.921875 8.742188 C 15.566406 7.332031 11.792969 6.289062 8.171875 6.601562 C 4.542969 6.917969 2.628906 7.554688 1.296875 8.886719 C -0.0820312 10.261719 -0.300781 11.351562 0.421875 13.222656 C 1.476562 15.949219 2.222656 16.753906 4.257812 17.34375 C 5.542969 17.71875 7.085938 17.417969 7.796875 16.65625 C 8.082031 16.347656 8.113281 15.683594 7.859375 15.238281 C 7.621094 14.824219 7.636719 14.761719 8.089844 14.230469 L 8.496094 13.757812 L 8.734375 14.230469 C 9.042969 14.832031 10.296875 16.035156 11.277344 16.667969 C 11.699219 16.941406 12.476562 17.308594 13.011719 17.484375 C 13.894531 17.78125 14.140625 17.808594 15.78125 17.804688 C 17.410156 17.804688 17.671875 17.773438 18.566406 17.476562 C 19.75 17.085938 21.136719 16.195312 21.902344 15.324219 C 22.566406 14.574219 23.421875 12.851562 23.699219 11.707031 C 23.941406 10.722656 23.976562 8.699219 23.765625 7.921875 C 23.550781 7.121094 23.125 6.542969 22.539062 6.261719 C 21.941406 5.972656 20.710938 5.847656 19.90625 5.996094 M 19.378906 6.46875 C 18.488281 6.878906 18.265625 7.253906 17.886719 9 C 17.355469 11.425781 16.414062 12.222656 14.234375 12.089844 C 13.433594 12.039062 13.046875 11.9375 12.058594 11.515625 C 10.539062 10.863281 9.902344 10.820312 9.371094 11.332031 C 8.609375 12.058594 8.46875 13.121094 8.996094 14.148438 C 9.285156 14.722656 10.570312 15.921875 11.476562 16.472656 C 14.105469 18.070312 17.902344 17.972656 20.433594 16.246094 C 21.746094 15.347656 22.644531 14.074219 23.234375 12.269531 C 23.546875 11.324219 23.578125 11.058594 23.578125 9.601562 C 23.578125 8.171875 23.550781 7.921875 23.320312 7.5 C 22.800781 6.53125 22.207031 6.238281 20.773438 6.242188 C 20.144531 6.246094 19.710938 6.3125 19.378906 6.46875 M 7.558594 6.921875 C 5.492188 7.128906 3.414062 7.6875 2.476562 8.28125 C 1.023438 9.203125 0.144531 10.605469 0.28125 11.789062 C 0.410156 12.90625 1.4375 14.128906 2.460938 14.386719 C 3.316406 14.601562 3.890625 14.542969 5.253906 14.097656 C 6.410156 13.71875 6.585938 13.621094 6.996094 13.140625 C 7.246094 12.847656 7.527344 12.457031 7.625 12.273438 C 7.941406 11.667969 7.800781 10.660156 7.300781 9.941406 C 7.179688 9.765625 7.078125 9.5625 7.078125 9.492188 C 7.078125 9.015625 7.742188 9.929688 7.984375 10.738281 C 8.214844 11.507812 8.039062 12.296875 7.492188 12.9375 C 7.023438 13.484375 6.988281 13.734375 7.3125 14.15625 L 7.542969 14.453125 L 7.820312 14.105469 C 7.972656 13.910156 8.164062 13.671875 8.246094 13.566406 C 8.328125 13.464844 8.394531 13.140625 8.394531 12.847656 C 8.402344 12.179688 8.789062 11.359375 9.261719 11.023438 C 9.910156 10.5625 10.480469 10.59375 11.910156 11.164062 L 13.191406 11.675781 L 13.707031 11.480469 C 14.792969 11.066406 15.617188 10.046875 15.644531 9.097656 C 15.667969 8.203125 14.582031 7.558594 12.261719 7.085938 C 11.132812 6.855469 8.964844 6.777344 7.558594 6.921875 M 1.078125 14.089844 C 1.765625 15.898438 2.992188 16.894531 4.90625 17.191406 C 5.558594 17.292969 5.824219 17.277344 6.382812 17.117188 C 7.234375 16.867188 7.800781 16.414062 7.796875 15.980469 C 7.796875 15.714844 6.921875 13.921875 6.792969 13.921875 C 6.769531 13.921875 6.171875 14.109375 5.46875 14.339844 C 3.550781 14.96875 2.398438 14.910156 1.410156 14.140625 L 0.960938 13.789062 L 1.078125 14.089844 "/>
</g>
</svg>
