<?xml version="1.0" encoding="UTF-8"?>
<svg xmlns="http://www.w3.org/2000/svg" xmlns:xlink="http://www.w3.org/1999/xlink" width="100px" height="100px" viewBox="0 0 100 100" version="1.1">
<g id="surface1">
<path style=" stroke:none;fill-rule:evenodd;fill:rgb(0%,0%,0%);fill-opacity:1;" d="M 45.847656 19.875 C 45.527344 20.4375 46.207031 28.371094 46.609375 28.777344 C 46.800781 28.96875 47.335938 28.976562 47.800781 28.800781 C 48.527344 28.519531 48.601562 27.96875 48.335938 24.8125 C 48.164062 22.796875 47.882812 20.777344 47.710938 20.324219 C 47.386719 19.480469 46.226562 19.203125 45.847656 19.875 M 52.179688 20.84375 C 51.984375 21.617188 51.804688 23.707031 51.785156 25.484375 C 51.757812 28.121094 51.902344 28.753906 52.582031 28.890625 C 53.636719 29.101562 53.894531 28.183594 54.089844 23.507812 C 54.226562 20.296875 54.128906 19.742188 53.394531 19.601562 C 52.804688 19.484375 52.425781 19.875 52.179688 20.84375 M 35.214844 21.660156 C 35.058594 22.070312 35.390625 23.304688 35.953125 24.40625 C 36.515625 25.507812 37.125 27.347656 37.308594 28.496094 C 37.492188 29.644531 37.890625 30.679688 38.195312 30.796875 C 38.523438 30.925781 38.761719 32.414062 38.777344 34.425781 C 38.816406 39.566406 41.066406 44.632812 42.617188 43.085938 C 43.046875 42.652344 42.957031 42.042969 42.25 40.628906 C 41.605469 39.335938 41.269531 37.4375 41.179688 34.53125 C 41.082031 31.507812 40.84375 30.203125 40.328125 29.914062 C 39.9375 29.695312 39.46875 28.554688 39.292969 27.382812 C 38.941406 25.050781 37.117188 21.449219 36.125 21.121094 C 35.78125 21.007812 35.371094 21.25 35.214844 21.660156 M 63.078125 21.652344 C 62.199219 22.710938 60.523438 26.667969 60.511719 27.710938 C 60.503906 28.238281 60.152344 29.054688 59.726562 29.523438 C 59.1875 30.121094 58.914062 31.640625 58.820312 34.566406 C 58.730469 37.4375 58.394531 39.339844 57.75 40.628906 C 56.996094 42.140625 56.933594 42.632812 57.441406 43.128906 C 57.945312 43.625 58.265625 43.511719 59.027344 42.578125 C 60.378906 40.925781 61.183594 37.769531 61.179688 34.144531 C 61.179688 32.214844 61.402344 30.953125 61.769531 30.8125 C 62.09375 30.6875 62.507812 29.652344 62.691406 28.515625 C 62.871094 27.378906 63.484375 25.457031 64.054688 24.246094 C 65.015625 22.199219 65.007812 21 64.03125 21 C 63.804688 21 63.378906 21.292969 63.078125 21.652344 M 22.710938 22.675781 C 22.566406 23.046875 23.148438 24.480469 24.007812 25.855469 C 24.867188 27.242188 25.71875 29.453125 25.914062 30.804688 C 26.195312 32.789062 26.449219 33.25 27.25 33.25 C 27.792969 33.25 28.3125 32.859375 28.40625 32.378906 C 28.695312 30.867188 27.089844 26.273438 25.511719 24.09375 C 23.933594 21.917969 23.152344 21.523438 22.710938 22.675781 M 74.488281 24.09375 C 72.910156 26.273438 71.304688 30.867188 71.59375 32.378906 C 71.6875 32.859375 72.207031 33.25 72.75 33.25 C 73.550781 33.25 73.804688 32.789062 74.085938 30.804688 C 74.28125 29.453125 75.132812 27.242188 75.992188 25.855469 C 77.464844 23.492188 77.667969 22 76.519531 22 C 76.238281 22 75.324219 22.941406 74.488281 24.09375 M 33.277344 27.125 C 33.171875 27.46875 32.949219 30.085938 32.785156 32.941406 C 32.46875 38.414062 32.902344 40.117188 34.316406 38.945312 C 34.824219 38.523438 35 36.851562 35 32.4375 C 35 27.4375 34.878906 26.5 34.234375 26.5 C 33.8125 26.5 33.382812 26.78125 33.277344 27.125 M 65 32.402344 C 65 36.847656 65.175781 38.523438 65.683594 38.945312 C 67.113281 40.132812 67.480469 38.460938 67.109375 32.476562 C 66.800781 27.597656 66.621094 26.738281 65.875 26.59375 C 65.082031 26.441406 65 26.980469 65 32.402344 M 44.179688 28.746094 C 43.828125 29.667969 44.25 35.265625 44.773438 36.632812 C 45.117188 37.527344 46.253906 37.804688 46.6875 37.101562 C 46.824219 36.882812 46.664062 34.820312 46.339844 32.515625 C 45.765625 28.480469 44.878906 26.933594 44.179688 28.746094 M 54.296875 28.582031 C 53.78125 30.273438 53.011719 36.613281 53.269531 37.03125 C 53.847656 37.964844 54.988281 37.46875 55.347656 36.125 C 55.976562 33.792969 55.824219 28.367188 55.125 28.128906 C 54.78125 28.011719 54.410156 28.21875 54.296875 28.582031 M 10.710938 29.171875 C 10.410156 29.957031 11.765625 33.296875 12.589844 33.804688 C 12.847656 33.964844 12.652344 34.398438 12.15625 34.769531 C 11.441406 35.296875 11.367188 35.632812 11.792969 36.34375 C 13.28125 38.828125 34.375 53.445312 35.480469 52.761719 C 36.695312 52.011719 35.753906 50.917969 31.875 48.570312 C 26.125 45.09375 17.121094 38.375 17.875 38.125 C 18.949219 37.765625 18.574219 36.984375 16.273438 34.746094 C 15.050781 33.554688 13.640625 31.738281 13.148438 30.703125 C 12.160156 28.632812 11.160156 28.003906 10.710938 29.171875 M 87.664062 29.125 C 87.414062 29.46875 86.878906 30.421875 86.480469 31.246094 C 86.078125 32.070312 84.792969 33.679688 83.625 34.824219 C 81.421875 36.988281 81.0625 37.769531 82.117188 38.121094 C 82.871094 38.371094 74.964844 44.292969 68.601562 48.242188 C 65.558594 50.132812 64.003906 51.398438 64.101562 51.898438 C 64.183594 52.320312 64.496094 52.75 64.796875 52.847656 C 65.5 53.082031 79.023438 44.066406 84.375 39.792969 C 88.359375 36.609375 89.265625 35.261719 87.804688 34.703125 C 87.25 34.488281 87.363281 33.976562 88.351562 32.207031 C 89.519531 30.117188 89.617188 28.5 88.578125 28.5 C 88.328125 28.5 87.917969 28.78125 87.664062 29.125 M 21.773438 30.460938 C 21.597656 30.746094 22.574219 33.011719 23.941406 35.488281 C 25.308594 37.96875 26.304688 40 26.15625 40 C 26.003906 40 24.097656 38.390625 21.917969 36.425781 C 18.871094 33.679688 17.8125 32.988281 17.363281 33.4375 C 16.464844 34.335938 17.21875 35.222656 23.410156 40.574219 C 29.167969 45.550781 38.902344 52.5 40.113281 52.5 C 40.492188 52.5 41.042969 52.253906 41.34375 51.957031 C 41.71875 51.582031 41.988281 51.574219 42.210938 51.933594 C 42.5625 52.503906 44 52.144531 44 51.484375 C 44 51.257812 43.078125 49.738281 41.949219 48.105469 C 40.824219 46.46875 39.277344 43.359375 38.511719 41.191406 C 37.640625 38.722656 36.816406 37.191406 36.308594 37.089844 C 35.734375 36.972656 35.5 37.292969 35.5 38.203125 C 35.5 40.039062 37.738281 45.71875 39.476562 48.292969 C 40.296875 49.507812 40.84375 50.5 40.695312 50.5 C 40.308594 50.5 30.542969 43.777344 28.75 42.277344 C 27.488281 41.222656 27.367188 40.941406 28 40.511719 C 28.636719 40.078125 28.367188 39.269531 26.183594 35.125 C 23.78125 30.558594 22.53125 29.234375 21.773438 30.460938 M 74.304688 34.125 C 71.382812 39.496094 71.203125 40.003906 72.050781 40.542969 C 72.921875 41.09375 71.753906 42.113281 64.660156 46.996094 C 59.492188 50.554688 58.253906 51.199219 59.585938 49.625 C 61.605469 47.242188 64.5 40.511719 64.5 38.195312 C 64.5 37.296875 64.265625 36.972656 63.695312 37.089844 C 63.207031 37.1875 62.339844 38.765625 61.472656 41.152344 C 60.691406 43.296875 59.140625 46.390625 58.027344 48.019531 C 56.910156 49.652344 56 51.191406 56 51.441406 C 56 52.132812 57.425781 52.527344 57.789062 51.933594 C 58.011719 51.574219 58.28125 51.582031 58.65625 51.957031 C 58.957031 52.253906 59.503906 52.5 59.871094 52.5 C 62.21875 52.5 83 36.085938 83 34.230469 C 83 32.582031 81.695312 33.167969 78.042969 36.460938 C 75.882812 38.40625 73.996094 40 73.84375 40 C 73.695312 40 74.691406 37.96875 76.058594 35.488281 C 77.425781 33.011719 78.410156 30.761719 78.242188 30.488281 C 77.496094 29.277344 76.390625 30.296875 74.304688 34.125 M 28.664062 33.292969 C 27.886719 35.320312 31.585938 44 33.226562 44 C 34.527344 44 34.554688 43.058594 33.308594 41.140625 C 32.179688 39.402344 31.5 37.464844 30.761719 33.875 C 30.457031 32.375 29.15625 32.015625 28.664062 33.292969 M 69.246094 33.84375 C 68.492188 37.496094 67.820312 39.402344 66.664062 41.179688 C 65.8125 42.496094 65.574219 43.273438 65.921875 43.621094 C 66.882812 44.582031 68.046875 43.515625 69.550781 40.300781 C 71.320312 36.519531 71.71875 32.882812 70.394531 32.609375 C 69.789062 32.484375 69.449219 32.851562 69.246094 33.84375 M 4.25 38 C 4.078125 38.273438 4.058594 38.691406 4.203125 38.925781 C 4.351562 39.160156 10.839844 43.113281 18.625 47.707031 C 29.582031 54.171875 32.921875 56.375 33.402344 57.457031 C 35.113281 61.324219 41.917969 66.050781 46.839844 66.789062 L 48.996094 67.113281 L 48.695312 69.929688 C 48.53125 71.480469 48.085938 74.300781 47.710938 76.191406 C 46.996094 79.777344 47.089844 80.5 48.257812 80.5 C 49.164062 80.5 49.882812 77.886719 50.617188 71.914062 L 51.210938 67.082031 L 53.265625 66.773438 C 58.089844 66.050781 64.9375 61.269531 66.480469 57.546875 C 66.925781 56.46875 70.183594 54.316406 81.363281 47.707031 C 89.230469 43.054688 95.761719 38.96875 95.875 38.625 C 96.542969 36.605469 93.519531 38.003906 80.390625 45.765625 C 72.613281 50.363281 64.871094 54.886719 63.183594 55.8125 C 60.179688 57.460938 60.109375 57.476562 59.839844 56.433594 C 59.617188 55.585938 59.285156 55.425781 58.183594 55.636719 C 57.425781 55.78125 56.34375 55.59375 55.773438 55.21875 C 54.847656 54.613281 54.472656 54.707031 52.367188 56.078125 L 50 57.617188 L 47.632812 56.078125 C 45.527344 54.707031 45.152344 54.613281 44.226562 55.21875 C 43.65625 55.59375 42.574219 55.78125 41.816406 55.636719 C 40.714844 55.425781 40.382812 55.585938 40.160156 56.433594 C 39.890625 57.476562 39.820312 57.464844 36.816406 55.824219 C 35.128906 54.902344 29.023438 51.34375 23.25 47.914062 C 4.160156 36.574219 4.894531 36.957031 4.25 38 M 43.257812 37.988281 C 43.089844 38.257812 43.410156 39.953125 43.964844 41.75 C 44.519531 43.550781 45.125 46.480469 45.304688 48.261719 C 45.582031 50.96875 45.789062 51.5 46.570312 51.5 C 47.347656 51.5 47.5 51.109375 47.492188 49.125 C 47.480469 44.847656 45.28125 37.5 44.015625 37.5 C 43.765625 37.5 43.421875 37.71875 43.257812 37.988281 M 54.804688 38.898438 C 53.65625 41.113281 52.5 46.164062 52.5 48.945312 C 52.5 51.101562 52.644531 51.5 53.429688 51.5 C 54.210938 51.5 54.417969 50.96875 54.695312 48.261719 C 54.875 46.480469 55.480469 43.550781 56.035156 41.75 C 57 38.625 56.988281 37.5 55.984375 37.5 C 55.730469 37.5 55.199219 38.128906 54.804688 38.898438 M 46.839844 58.941406 C 47.195312 60.296875 46.15625 60.71875 44.746094 59.792969 C 43.242188 58.808594 42.953125 58.796875 43.316406 59.746094 C 43.859375 61.152344 41.988281 61.152344 39.347656 59.742188 L 36.75 58.355469 L 38.398438 60.101562 C 41.777344 63.679688 47.867188 65.566406 52.8125 64.574219 C 56.472656 63.839844 59.550781 62.273438 61.601562 60.101562 L 63.25 58.355469 L 60.652344 59.742188 C 58.011719 61.152344 56.140625 61.152344 56.683594 59.746094 C 57.046875 58.796875 56.757812 58.808594 55.253906 59.792969 C 53.9375 60.65625 53 60.390625 53 59.164062 C 53 58.46875 52.871094 58.46875 51.765625 59.191406 C 50.175781 60.234375 49.699219 60.210938 48 59 C 46.652344 58.039062 46.601562 58.039062 46.839844 58.941406 "/>
</g>
</svg>
