<?xml version="1.0" encoding="UTF-8"?>
<svg xmlns="http://www.w3.org/2000/svg" xmlns:xlink="http://www.w3.org/1999/xlink" width="24px" height="24px" viewBox="0 0 24 24" version="1.1">
<g id="surface1">
<path style=" stroke:none;fill-rule:evenodd;fill:rgb(0%,0%,0%);fill-opacity:1;" d="M 11.003906 4.769531 C 10.925781 4.90625 11.089844 6.808594 11.1875 6.90625 C 11.230469 6.953125 11.359375 6.953125 11.472656 6.910156 C 11.648438 6.84375 11.664062 6.710938 11.601562 5.953125 C 11.558594 5.472656 11.492188 4.988281 11.449219 4.878906 C 11.371094 4.675781 11.09375 4.609375 11.003906 4.769531 M 12.523438 5.003906 C 12.476562 5.1875 12.433594 5.6875 12.429688 6.117188 C 12.421875 6.75 12.457031 6.902344 12.621094 6.933594 C 12.871094 6.984375 12.933594 6.765625 12.980469 5.640625 C 13.015625 4.871094 12.992188 4.738281 12.8125 4.703125 C 12.671875 4.675781 12.582031 4.769531 12.523438 5.003906 M 8.453125 5.199219 C 8.414062 5.296875 8.492188 5.59375 8.628906 5.855469 C 8.761719 6.121094 8.910156 6.5625 8.953125 6.839844 C 8.996094 7.113281 9.09375 7.363281 9.167969 7.390625 C 9.246094 7.421875 9.300781 7.777344 9.304688 8.261719 C 9.316406 9.496094 9.855469 10.710938 10.226562 10.339844 C 10.332031 10.238281 10.308594 10.089844 10.140625 9.75 C 9.984375 9.441406 9.90625 8.984375 9.882812 8.289062 C 9.859375 7.5625 9.800781 7.25 9.679688 7.179688 C 9.585938 7.125 9.472656 6.851562 9.429688 6.570312 C 9.34375 6.011719 8.90625 5.148438 8.671875 5.070312 C 8.585938 5.042969 8.488281 5.101562 8.453125 5.199219 M 15.140625 5.195312 C 14.929688 5.449219 14.527344 6.402344 14.523438 6.652344 C 14.519531 6.777344 14.4375 6.972656 14.335938 7.085938 C 14.207031 7.230469 14.140625 7.59375 14.117188 8.296875 C 14.09375 8.984375 14.015625 9.441406 13.859375 9.75 C 13.679688 10.113281 13.664062 10.230469 13.785156 10.351562 C 13.90625 10.46875 13.984375 10.441406 14.167969 10.21875 C 14.492188 9.820312 14.683594 9.066406 14.683594 8.195312 C 14.683594 7.730469 14.738281 7.429688 14.824219 7.394531 C 14.902344 7.363281 15 7.117188 15.046875 6.84375 C 15.089844 6.570312 15.238281 6.109375 15.375 5.820312 C 15.605469 5.328125 15.601562 5.039062 15.367188 5.039062 C 15.3125 5.039062 15.210938 5.109375 15.140625 5.195312 M 5.449219 5.441406 C 5.414062 5.53125 5.554688 5.875 5.761719 6.207031 C 5.96875 6.539062 6.171875 7.070312 6.21875 7.394531 C 6.285156 7.867188 6.347656 7.980469 6.539062 7.980469 C 6.671875 7.980469 6.792969 7.886719 6.816406 7.769531 C 6.886719 7.410156 6.5 6.304688 6.121094 5.78125 C 5.746094 5.261719 5.554688 5.164062 5.449219 5.441406 M 17.878906 5.78125 C 17.5 6.304688 17.113281 7.410156 17.183594 7.769531 C 17.207031 7.886719 17.328125 7.980469 17.460938 7.980469 C 17.652344 7.980469 17.714844 7.867188 17.78125 7.394531 C 17.828125 7.070312 18.03125 6.539062 18.238281 6.207031 C 18.589844 5.636719 18.640625 5.28125 18.363281 5.28125 C 18.296875 5.28125 18.078125 5.507812 17.878906 5.78125 M 7.984375 6.511719 C 7.960938 6.59375 7.90625 7.21875 7.867188 7.90625 C 7.792969 9.21875 7.898438 9.628906 8.234375 9.347656 C 8.359375 9.246094 8.398438 8.84375 8.398438 7.785156 C 8.398438 6.585938 8.371094 6.359375 8.214844 6.359375 C 8.113281 6.359375 8.011719 6.425781 7.984375 6.511719 M 15.601562 7.777344 C 15.601562 8.84375 15.640625 9.246094 15.765625 9.347656 C 16.105469 9.632812 16.195312 9.230469 16.105469 7.792969 C 16.03125 6.625 15.988281 6.417969 15.808594 6.382812 C 15.621094 6.347656 15.601562 6.476562 15.601562 7.777344 M 10.605469 6.898438 C 10.519531 7.121094 10.621094 8.464844 10.746094 8.792969 C 10.828125 9.007812 11.101562 9.074219 11.203125 8.90625 C 11.238281 8.851562 11.199219 8.355469 11.121094 7.804688 C 10.984375 6.835938 10.769531 6.464844 10.605469 6.898438 M 13.03125 6.859375 C 12.90625 7.265625 12.722656 8.789062 12.785156 8.886719 C 12.921875 9.113281 13.199219 8.992188 13.285156 8.671875 C 13.433594 8.109375 13.398438 6.808594 13.230469 6.75 C 13.148438 6.722656 13.058594 6.773438 13.03125 6.859375 M 2.570312 7 C 2.5 7.191406 2.824219 7.992188 3.023438 8.113281 C 3.082031 8.152344 3.035156 8.253906 2.917969 8.34375 C 2.746094 8.472656 2.726562 8.550781 2.832031 8.722656 C 3.1875 9.320312 8.25 12.828125 8.515625 12.664062 C 8.808594 12.484375 8.582031 12.21875 7.648438 11.65625 C 6.269531 10.824219 4.109375 9.210938 4.289062 9.148438 C 4.546875 9.0625 4.457031 8.875 3.90625 8.339844 C 3.613281 8.054688 3.273438 7.617188 3.15625 7.367188 C 2.917969 6.871094 2.679688 6.722656 2.570312 7 M 21.039062 6.988281 C 20.980469 7.074219 20.851562 7.300781 20.753906 7.5 C 20.660156 7.695312 20.351562 8.082031 20.070312 8.359375 C 19.542969 8.875 19.457031 9.066406 19.707031 9.148438 C 19.890625 9.210938 17.992188 10.628906 16.464844 11.578125 C 15.734375 12.03125 15.359375 12.335938 15.382812 12.457031 C 15.402344 12.558594 15.480469 12.660156 15.550781 12.683594 C 15.71875 12.738281 18.964844 10.574219 20.25 9.550781 C 21.207031 8.785156 21.425781 8.464844 21.074219 8.328125 C 20.941406 8.277344 20.96875 8.15625 21.203125 7.730469 C 21.484375 7.226562 21.507812 6.839844 21.257812 6.839844 C 21.199219 6.839844 21.101562 6.90625 21.039062 6.988281 M 5.226562 7.3125 C 5.183594 7.378906 5.417969 7.921875 5.746094 8.519531 C 6.074219 9.113281 6.3125 9.601562 6.277344 9.601562 C 6.242188 9.601562 5.785156 9.214844 5.261719 8.742188 C 4.53125 8.082031 4.273438 7.917969 4.167969 8.023438 C 3.953125 8.242188 4.132812 8.453125 5.617188 9.738281 C 7 10.933594 9.335938 12.601562 9.628906 12.601562 C 9.71875 12.601562 9.851562 12.542969 9.921875 12.46875 C 10.011719 12.378906 10.078125 12.378906 10.128906 12.464844 C 10.214844 12.601562 10.558594 12.515625 10.558594 12.355469 C 10.558594 12.300781 10.339844 11.9375 10.066406 11.546875 C 9.796875 11.152344 9.425781 10.40625 9.242188 9.886719 C 9.035156 9.292969 8.835938 8.925781 8.714844 8.902344 C 8.574219 8.875 8.519531 8.949219 8.519531 9.167969 C 8.519531 9.609375 9.058594 10.972656 9.472656 11.589844 C 9.671875 11.882812 9.800781 12.121094 9.765625 12.121094 C 9.675781 12.121094 7.332031 10.507812 6.898438 10.148438 C 6.597656 9.894531 6.570312 9.828125 6.71875 9.722656 C 6.871094 9.617188 6.808594 9.425781 6.285156 8.429688 C 5.707031 7.335938 5.40625 7.015625 5.226562 7.3125 M 17.832031 8.191406 C 17.132812 9.480469 17.089844 9.601562 17.292969 9.730469 C 17.5 9.863281 17.222656 10.105469 15.519531 11.277344 C 14.277344 12.132812 13.980469 12.289062 14.300781 11.910156 C 14.785156 11.339844 15.480469 9.722656 15.480469 9.167969 C 15.480469 8.949219 15.421875 8.875 15.289062 8.902344 C 15.167969 8.925781 14.960938 9.304688 14.753906 9.875 C 14.566406 10.390625 14.195312 11.132812 13.925781 11.523438 C 13.660156 11.917969 13.441406 12.285156 13.441406 12.347656 C 13.441406 12.511719 13.78125 12.605469 13.871094 12.464844 C 13.921875 12.378906 13.988281 12.378906 14.078125 12.46875 C 14.148438 12.542969 14.28125 12.601562 14.371094 12.601562 C 14.933594 12.601562 19.921875 8.660156 19.921875 8.214844 C 19.921875 7.820312 19.605469 7.960938 18.730469 8.75 C 18.210938 9.21875 17.757812 9.601562 17.722656 9.601562 C 17.6875 9.601562 17.925781 9.113281 18.253906 8.519531 C 18.582031 7.921875 18.820312 7.382812 18.777344 7.316406 C 18.597656 7.027344 18.332031 7.269531 17.832031 8.191406 M 6.878906 7.992188 C 6.691406 8.476562 7.582031 10.558594 7.972656 10.558594 C 8.285156 10.558594 8.292969 10.335938 7.992188 9.875 C 7.722656 9.457031 7.558594 8.992188 7.382812 8.128906 C 7.308594 7.769531 6.996094 7.683594 6.878906 7.992188 M 16.617188 8.121094 C 16.4375 9 16.277344 9.457031 16 9.882812 C 15.796875 10.199219 15.738281 10.386719 15.820312 10.46875 C 16.050781 10.699219 16.332031 10.445312 16.691406 9.671875 C 17.117188 8.765625 17.210938 7.890625 16.894531 7.828125 C 16.75 7.796875 16.667969 7.882812 16.617188 8.121094 M 1.019531 9.121094 C 0.980469 9.1875 0.972656 9.285156 1.007812 9.34375 C 1.042969 9.398438 2.601562 10.347656 4.46875 11.449219 C 7.101562 13 7.902344 13.53125 8.015625 13.789062 C 8.425781 14.71875 10.0625 15.851562 11.242188 16.03125 L 11.757812 16.105469 L 11.6875 16.785156 C 11.648438 17.15625 11.539062 17.832031 11.449219 18.285156 C 11.277344 19.148438 11.300781 19.320312 11.582031 19.320312 C 11.800781 19.320312 11.972656 18.691406 12.148438 17.261719 L 12.289062 16.101562 L 12.785156 16.027344 C 13.941406 15.851562 15.585938 14.703125 15.957031 13.8125 C 16.0625 13.550781 16.84375 13.035156 19.527344 11.449219 C 21.414062 10.332031 22.984375 9.351562 23.011719 9.269531 C 23.171875 8.785156 22.445312 9.121094 19.292969 10.984375 C 17.425781 12.085938 15.570312 13.171875 15.164062 13.394531 C 14.445312 13.789062 14.425781 13.792969 14.359375 13.542969 C 14.308594 13.339844 14.230469 13.300781 13.964844 13.351562 C 13.78125 13.386719 13.523438 13.34375 13.386719 13.253906 C 13.164062 13.105469 13.074219 13.128906 12.566406 13.457031 L 12 13.828125 L 11.433594 13.457031 C 10.925781 13.128906 10.835938 13.105469 10.613281 13.253906 C 10.476562 13.34375 10.21875 13.386719 10.035156 13.351562 C 9.769531 13.300781 9.691406 13.339844 9.640625 13.542969 C 9.574219 13.792969 9.558594 13.792969 8.835938 13.398438 C 8.429688 13.175781 6.964844 12.320312 5.578125 11.5 C 1 8.777344 1.175781 8.871094 1.019531 9.121094 M 10.382812 9.117188 C 10.339844 9.183594 10.417969 9.589844 10.550781 10.019531 C 10.683594 10.453125 10.828125 11.15625 10.875 11.582031 C 10.941406 12.230469 10.988281 12.359375 11.175781 12.359375 C 11.363281 12.359375 11.398438 12.265625 11.398438 11.789062 C 11.394531 10.761719 10.867188 9 10.5625 9 C 10.503906 9 10.421875 9.054688 10.382812 9.117188 M 13.152344 9.335938 C 12.878906 9.867188 12.601562 11.078125 12.601562 11.746094 C 12.601562 12.265625 12.632812 12.359375 12.824219 12.359375 C 13.011719 12.359375 13.058594 12.230469 13.125 11.582031 C 13.171875 11.15625 13.316406 10.453125 13.449219 10.019531 C 13.679688 9.269531 13.675781 9 13.4375 9 C 13.375 9 13.25 9.152344 13.152344 9.335938 M 11.242188 14.144531 C 11.328125 14.472656 11.078125 14.570312 10.738281 14.351562 C 10.378906 14.113281 10.308594 14.113281 10.394531 14.339844 C 10.527344 14.675781 10.078125 14.675781 9.441406 14.339844 L 8.820312 14.003906 L 9.214844 14.425781 C 10.027344 15.28125 11.488281 15.734375 12.675781 15.496094 C 13.554688 15.320312 14.292969 14.945312 14.785156 14.425781 L 15.179688 14.003906 L 14.558594 14.339844 C 13.921875 14.675781 13.472656 14.675781 13.605469 14.339844 C 13.691406 14.113281 13.621094 14.113281 13.261719 14.351562 C 12.945312 14.558594 12.71875 14.496094 12.71875 14.199219 C 12.71875 14.03125 12.6875 14.03125 12.425781 14.207031 C 12.042969 14.457031 11.929688 14.449219 11.519531 14.160156 C 11.195312 13.929688 11.183594 13.929688 11.242188 14.144531 "/>
</g>
</svg>
