<?xml version="1.0" encoding="UTF-8"?>
<svg xmlns="http://www.w3.org/2000/svg" xmlns:xlink="http://www.w3.org/1999/xlink" width="24px" height="24px" viewBox="0 0 24 24" version="1.1">
<g id="surface1">
<path style=" stroke:none;fill-rule:evenodd;fill:rgb(0%,0%,0%);fill-opacity:1;" d="M 4.828125 8.121094 C 4.605469 8.210938 4.648438 8.695312 4.902344 8.925781 C 5.027344 9.035156 5.59375 9.320312 6.167969 9.550781 C 9.867188 11.058594 14.019531 11.082031 17.695312 9.609375 C 18.882812 9.132812 19.34375 8.8125 19.296875 8.488281 C 19.21875 7.980469 18.917969 7.964844 17.917969 8.429688 C 14.1875 10.15625 9.453125 10.136719 5.972656 8.386719 C 5.292969 8.042969 5.121094 8.003906 4.828125 8.121094 M 3.6875 11.011719 C 2.476562 12.230469 2.292969 12.589844 2.765625 12.84375 C 2.976562 12.957031 3.105469 12.875 3.78125 12.230469 L 4.554688 11.488281 L 4.585938 13.621094 C 4.617188 15.5 4.644531 15.769531 4.828125 15.886719 C 4.984375 15.984375 5.097656 15.984375 5.25 15.886719 C 5.433594 15.769531 5.464844 15.5 5.492188 13.621094 L 5.527344 11.488281 L 6.300781 12.230469 C 6.980469 12.886719 7.101562 12.957031 7.324219 12.839844 C 7.839844 12.5625 7.75 12.371094 6.46875 11.089844 C 5.785156 10.402344 5.140625 9.839844 5.039062 9.839844 C 4.9375 9.839844 4.328125 10.367188 3.6875 11.011719 M 17.53125 11.089844 C 16.25 12.371094 16.160156 12.5625 16.675781 12.839844 C 16.898438 12.957031 17.019531 12.886719 17.699219 12.230469 L 18.472656 11.488281 L 18.507812 13.621094 C 18.535156 15.5 18.566406 15.769531 18.75 15.886719 C 18.902344 15.984375 19.015625 15.984375 19.171875 15.886719 C 19.351562 15.773438 19.386719 15.484375 19.441406 13.691406 L 19.5 11.625 L 19.921875 12.0625 C 20.621094 12.792969 20.957031 12.992188 21.238281 12.839844 C 21.710938 12.585938 21.527344 12.222656 20.308594 11.007812 C 19.664062 10.367188 19.054688 9.839844 18.957031 9.839844 C 18.855469 9.839844 18.214844 10.402344 17.53125 11.089844 "/>
</g>
</svg>
