<?xml version="1.0" encoding="UTF-8"?>
<svg xmlns="http://www.w3.org/2000/svg" xmlns:xlink="http://www.w3.org/1999/xlink" width="100px" height="100px" viewBox="0 0 100 100" version="1.1">
<g id="surface1">
<path style=" stroke:none;fill-rule:evenodd;fill:rgb(0%,0%,0%);fill-opacity:1;" d="M 20.125 33.832031 C 19.1875 34.210938 19.371094 36.230469 20.433594 37.1875 C 20.945312 37.652344 23.3125 38.828125 25.695312 39.800781 C 41.113281 46.085938 58.417969 46.171875 73.726562 40.039062 C 78.679688 38.058594 80.601562 36.710938 80.402344 35.371094 C 80.085938 33.246094 78.824219 33.191406 74.664062 35.117188 C 59.113281 42.3125 39.382812 42.242188 24.890625 34.941406 C 22.054688 33.511719 21.332031 33.34375 20.125 33.832031 M 15.367188 45.882812 C 10.3125 50.957031 9.554688 52.457031 11.515625 53.507812 C 12.402344 53.984375 12.949219 53.652344 15.753906 50.957031 L 18.976562 47.863281 L 19.113281 56.753906 C 19.234375 64.585938 19.355469 65.707031 20.125 66.195312 C 20.761719 66.59375 21.238281 66.59375 21.875 66.195312 C 22.644531 65.707031 22.765625 64.585938 22.886719 56.753906 L 23.023438 47.863281 L 26.246094 50.957031 C 29.089844 53.691406 29.589844 53.988281 30.511719 53.492188 C 32.667969 52.339844 32.285156 51.554688 26.953125 46.203125 C 24.101562 43.34375 21.421875 41 21 41 C 20.578125 41 18.042969 43.199219 15.367188 45.882812 M 73.046875 46.203125 C 67.714844 51.554688 67.332031 52.339844 69.488281 53.492188 C 70.410156 53.988281 70.910156 53.691406 73.753906 50.957031 L 76.976562 47.863281 L 77.113281 56.753906 C 77.234375 64.585938 77.355469 65.707031 78.125 66.195312 C 78.761719 66.59375 79.238281 66.59375 79.875 66.195312 C 80.636719 65.714844 80.78125 64.523438 81 57.042969 L 81.25 48.441406 L 83 50.265625 C 85.921875 53.304688 87.320312 54.132812 88.488281 53.507812 C 90.464844 52.449219 89.695312 50.925781 84.617188 45.867188 C 81.929688 43.191406 79.394531 41 78.980469 41 C 78.570312 41 75.898438 43.34375 73.046875 46.203125 "/>
</g>
</svg>
