<?xml version="1.0" encoding="UTF-8"?>
<svg xmlns="http://www.w3.org/2000/svg" xmlns:xlink="http://www.w3.org/1999/xlink" width="100px" height="100px" viewBox="0 0 100 100" version="1.1">
<g id="surface1">
<path style=" stroke:none;fill-rule:evenodd;fill:rgb(0%,0%,0%);fill-opacity:1;" d="M 40.644531 0.398438 C 39.367188 1.210938 38.5 4.492188 38.5 8.519531 L 38.5 12.566406 L 37.042969 11.53125 C 34.613281 9.800781 30.34375 8.011719 28.636719 8.003906 C 27.453125 8 26.800781 8.34375 26.179688 9.285156 C 25.398438 10.480469 25.394531 10.746094 26.160156 13.160156 C 26.609375 14.585938 27.730469 16.886719 28.648438 18.277344 L 30.316406 20.808594 L 26.28125 20.796875 C 20.066406 20.785156 16.90625 22.339844 17.75 25 C 18.199219 26.414062 22.089844 29.667969 24.957031 31.027344 L 27.449219 32.210938 L 24.351562 33.851562 C 21.09375 35.574219 17.5 38.921875 17.5 40.230469 C 17.5 42.519531 22.902344 44.382812 27.84375 43.804688 L 30.484375 43.492188 L 28.566406 46.457031 C 27.515625 48.085938 26.363281 50.445312 26.011719 51.703125 C 25.171875 54.703125 26.160156 56.503906 28.636719 56.496094 C 30.34375 56.488281 34.613281 54.699219 37.042969 52.96875 L 38.5 51.933594 L 38.5 55.957031 C 38.5 62.179688 40.113281 65.164062 42.980469 64.253906 C 43.523438 64.085938 44.871094 62.914062 45.980469 61.652344 L 48 59.359375 L 48 100 L 50 100 C 51.976562 100 52 99.980469 52 98.125 C 52 96.421875 52.199219 96.140625 54.164062 95.101562 C 57.082031 93.550781 61.078125 89.386719 66.089844 82.671875 C 69.761719 77.746094 79 63.511719 79 62.777344 C 79 62.144531 74.878906 62.570312 71.824219 63.511719 C 65.695312 65.40625 58.28125 71.410156 53.726562 78.171875 L 52 80.738281 L 52 59.390625 L 54.296875 61.945312 C 56.519531 64.421875 57.917969 65.015625 59.355469 64.101562 C 60.632812 63.289062 61.5 60.007812 61.5 55.980469 L 61.5 51.933594 L 62.957031 52.96875 C 65.386719 54.699219 69.65625 56.488281 71.363281 56.496094 C 75.121094 56.507812 75.15625 52.21875 71.445312 46.472656 L 69.515625 43.492188 L 72.15625 43.804688 C 75.445312 44.191406 80.269531 43.230469 81.570312 41.929688 C 83.472656 40.027344 80.996094 36.644531 75.695312 33.894531 L 72.570312 32.277344 L 75.628906 30.644531 C 78.742188 28.980469 81.199219 26.960938 82.070312 25.355469 C 83.515625 22.691406 80.179688 20.8125 73.972656 20.796875 L 69.699219 20.785156 L 71.359375 18.269531 C 72.273438 16.882812 73.390625 14.585938 73.839844 13.160156 C 74.605469 10.746094 74.601562 10.480469 73.820312 9.285156 C 73.199219 8.34375 72.546875 8 71.363281 8.003906 C 69.65625 8.011719 65.386719 9.800781 62.957031 11.53125 L 61.5 12.566406 L 61.5 8.519531 C 61.5 2.972656 60.246094 0.0273438 57.875 0.0078125 C 56.488281 -0.00390625 53.246094 3.265625 51.683594 6.253906 C 50.894531 7.761719 50.136719 8.996094 50 8.996094 C 49.863281 8.996094 49.105469 7.761719 48.316406 6.253906 C 46.007812 1.835938 42.546875 -0.808594 40.644531 0.398438 M 42.722656 6.640625 C 42.546875 7.101562 42.648438 9.324219 42.949219 11.570312 C 43.253906 13.820312 43.5 15.839844 43.5 16.0625 C 43.5 16.960938 46.671875 20 47.609375 20 C 48.496094 20 48.570312 19.785156 48.261719 18.125 C 47.796875 15.640625 45.257812 9.128906 44.027344 7.273438 C 43.207031 6.035156 42.996094 5.933594 42.722656 6.640625 M 54.734375 9.753906 C 53.703125 11.894531 52.761719 14.566406 52.636719 15.695312 C 52.351562 18.296875 53.171875 20.5 54.414062 20.5 C 55.1875 20.5 55.496094 19.804688 56.148438 16.625 C 58.195312 6.605469 57.613281 3.765625 54.734375 9.753906 M 31.183594 14.375 C 31.578125 15.132812 33.023438 17.199219 34.398438 18.964844 C 36.410156 21.558594 37.320312 22.308594 39.070312 22.824219 C 40.949219 23.378906 41.347656 23.363281 42 22.691406 C 42.671875 21.996094 42.460938 21.652344 40 19.394531 C 37.261719 16.886719 31.738281 13 30.910156 13 C 30.671875 13 30.792969 13.617188 31.183594 14.375 M 65.703125 14.941406 C 64.078125 16.011719 62.050781 17.542969 61.199219 18.347656 C 59.433594 20.011719 58.566406 23.125 59.546875 24.304688 C 60.066406 24.933594 60.320312 24.875 61.375 23.890625 C 64.253906 21.203125 70.089844 13 69.117188 13 C 68.863281 13 67.328125 13.875 65.703125 14.941406 M 46.726562 24.703125 C 45.886719 25.070312 44.601562 26.078125 43.871094 26.949219 C 40.867188 30.515625 41.140625 35.15625 44.527344 38.214844 C 49.867188 43.039062 58.082031 39.425781 58.082031 32.25 C 58.082031 26.332031 52.105469 22.359375 46.726562 24.703125 M 23.5 25.167969 C 23.5 25.585938 29.722656 28.691406 32.09375 29.460938 C 34.296875 30.171875 37.71875 29.453125 38.210938 28.171875 C 38.382812 27.722656 38.453125 27.285156 38.367188 27.199219 C 37.363281 26.199219 23.5 24.304688 23.5 25.167969 M 67.75 25.585938 C 64.804688 26.140625 61.960938 28.496094 62.367188 30.042969 C 62.667969 31.199219 62.210938 31.210938 66.324219 29.941406 C 69.617188 28.925781 76.5 25.746094 76.5 25.242188 C 76.5 24.839844 70.429688 25.078125 67.75 25.585938 M 32.75 34.933594 C 30.550781 35.695312 27.511719 36.980469 26 37.785156 L 23.25 39.25 L 25.738281 39.40625 C 30.085938 39.679688 34.542969 38.636719 36.316406 36.925781 C 37.355469 35.925781 37.800781 35.09375 37.632812 34.457031 C 37.328125 33.28125 37.589844 33.257812 32.75 34.933594 M 63.679688 35.027344 C 61.964844 35.542969 61.09375 36.941406 62.09375 37.558594 C 63.265625 38.28125 71.730469 39.570312 74.25 39.410156 L 76.75 39.25 L 72.480469 37.132812 C 67.683594 34.757812 65.953125 34.34375 63.679688 35.027344 M 36.941406 42.472656 C 34.046875 45.761719 30.382812 51.050781 30.75 51.414062 C 31.117188 51.785156 36.179688 48.53125 38.339844 46.535156 C 40.65625 44.398438 41.601562 41.386719 40.351562 40.136719 C 39.726562 39.511719 39.28125 39.8125 36.941406 42.472656 M 58.140625 41.808594 C 57.316406 42.453125 57.449219 42.695312 60 45.089844 C 62.699219 47.628906 68.207031 51.5 69.117188 51.5 C 69.753906 51.5 67.792969 48.316406 65.113281 45.003906 C 62.5625 41.847656 59.75 40.558594 58.140625 41.808594 M 43.839844 47.851562 C 42.664062 53.472656 42.277344 57.804688 42.917969 58.199219 C 43.546875 58.585938 46.929688 51.816406 47.324219 49.382812 C 47.722656 46.929688 46.894531 44.28125 45.671875 44.101562 C 44.777344 43.96875 44.554688 44.425781 43.839844 47.851562 M 51.5 45.285156 C 51.5 46.613281 54 53.609375 55.378906 56.148438 C 57.144531 59.390625 57.695312 58.300781 57.015625 52.902344 C 56.734375 50.632812 56.5 48.609375 56.5 48.40625 C 56.5 48.203125 55.800781 47.238281 54.949219 46.265625 C 53.339844 44.433594 51.5 43.910156 51.5 45.285156 M 66.703125 70.929688 C 62.535156 73.859375 59.746094 76.816406 56.6875 81.546875 C 54.351562 85.152344 52.183594 90.359375 52.777344 90.933594 C 53.375 91.519531 60.257812 83.695312 64.421875 77.695312 C 69.140625 70.898438 70.691406 68.5 70.378906 68.5 C 70.257812 68.5 68.601562 69.59375 66.703125 70.929688 "/>
</g>
</svg>
