<?xml version="1.0" encoding="UTF-8"?>
<svg xmlns="http://www.w3.org/2000/svg" xmlns:xlink="http://www.w3.org/1999/xlink" width="24px" height="24px" viewBox="0 0 24 24" version="1.1">
<g id="surface1">
<path style=" stroke:none;fill-rule:evenodd;fill:rgb(0%,0%,0%);fill-opacity:1;" d="M 9.753906 0.0976562 C 9.449219 0.289062 9.238281 1.078125 9.238281 2.042969 L 9.238281 3.015625 L 8.890625 2.765625 C 8.308594 2.351562 7.28125 1.921875 6.871094 1.921875 C 6.589844 1.921875 6.433594 2.003906 6.285156 2.226562 C 6.09375 2.515625 6.09375 2.578125 6.277344 3.160156 C 6.386719 3.5 6.65625 4.054688 6.875 4.386719 L 7.277344 4.992188 L 6.308594 4.992188 C 4.816406 4.988281 4.058594 5.363281 4.261719 6 C 4.367188 6.339844 5.300781 7.121094 5.988281 7.445312 L 6.589844 7.730469 L 5.84375 8.125 C 5.0625 8.539062 4.199219 9.339844 4.199219 9.65625 C 4.199219 10.203125 5.496094 10.652344 6.683594 10.511719 L 7.316406 10.4375 L 6.855469 11.148438 C 6.601562 11.539062 6.328125 12.105469 6.242188 12.410156 C 6.042969 13.128906 6.277344 13.5625 6.871094 13.558594 C 7.28125 13.558594 8.308594 13.128906 8.890625 12.710938 L 9.238281 12.464844 L 9.238281 13.429688 C 9.238281 14.921875 9.628906 15.640625 10.316406 15.421875 C 10.445312 15.378906 10.769531 15.097656 11.035156 14.796875 L 11.519531 14.246094 L 11.519531 24 L 12 24 C 12.476562 24 12.480469 23.996094 12.480469 23.550781 C 12.480469 23.140625 12.527344 23.074219 13 22.824219 C 13.699219 22.453125 14.660156 21.453125 15.859375 19.839844 C 16.742188 18.660156 18.960938 15.242188 18.960938 15.066406 C 18.960938 14.914062 17.972656 15.015625 17.238281 15.242188 C 15.765625 15.699219 13.988281 17.140625 12.894531 18.761719 L 12.480469 19.375 L 12.480469 14.253906 L 13.03125 14.867188 C 13.566406 15.460938 13.898438 15.601562 14.246094 15.382812 C 14.550781 15.1875 14.761719 14.402344 14.761719 13.4375 L 14.761719 12.464844 L 15.109375 12.710938 C 15.691406 13.128906 16.71875 13.558594 17.128906 13.558594 C 18.03125 13.5625 18.039062 12.53125 17.144531 11.152344 L 16.683594 10.4375 L 17.316406 10.511719 C 18.105469 10.605469 19.265625 10.375 19.578125 10.0625 C 20.03125 9.605469 19.4375 8.792969 18.167969 8.136719 L 17.417969 7.746094 L 18.152344 7.355469 C 18.898438 6.957031 19.488281 6.472656 19.695312 6.085938 C 20.042969 5.445312 19.242188 4.996094 17.753906 4.992188 L 16.726562 4.988281 L 17.125 4.382812 C 17.347656 4.050781 17.613281 3.5 17.722656 3.160156 C 17.90625 2.578125 17.90625 2.515625 17.714844 2.226562 C 17.566406 2.003906 17.410156 1.921875 17.128906 1.921875 C 16.71875 1.921875 15.691406 2.351562 15.109375 2.765625 L 14.761719 3.015625 L 14.761719 2.042969 C 14.761719 0.714844 14.460938 0.0078125 13.890625 0 C 13.558594 0 12.777344 0.785156 12.402344 1.5 C 12.214844 1.863281 12.03125 2.160156 12 2.160156 C 11.96875 2.160156 11.785156 1.863281 11.597656 1.5 C 11.042969 0.441406 10.210938 -0.195312 9.753906 0.0976562 M 10.253906 1.59375 C 10.210938 1.703125 10.234375 2.238281 10.308594 2.777344 C 10.378906 3.316406 10.441406 3.800781 10.441406 3.855469 C 10.441406 4.070312 11.199219 4.800781 11.425781 4.800781 C 11.640625 4.800781 11.65625 4.75 11.582031 4.351562 C 11.472656 3.753906 10.863281 2.191406 10.566406 1.746094 C 10.371094 1.449219 10.320312 1.425781 10.253906 1.59375 M 13.136719 2.339844 C 12.890625 2.855469 12.664062 3.496094 12.632812 3.765625 C 12.566406 4.390625 12.761719 4.921875 13.058594 4.921875 C 13.246094 4.921875 13.320312 4.753906 13.476562 3.988281 C 13.96875 1.585938 13.828125 0.902344 13.136719 2.339844 M 7.484375 3.449219 C 7.578125 3.632812 7.925781 4.128906 8.253906 4.550781 C 8.738281 5.175781 8.957031 5.355469 9.378906 5.476562 C 9.828125 5.609375 9.925781 5.605469 10.078125 5.445312 C 10.242188 5.28125 10.191406 5.195312 9.601562 4.65625 C 8.941406 4.050781 7.617188 3.121094 7.417969 3.121094 C 7.359375 3.121094 7.390625 3.269531 7.484375 3.449219 M 15.769531 3.585938 C 15.378906 3.84375 14.890625 4.210938 14.6875 4.402344 C 14.265625 4.804688 14.054688 5.550781 14.289062 5.832031 C 14.414062 5.984375 14.476562 5.96875 14.730469 5.734375 C 15.421875 5.089844 16.820312 3.121094 16.589844 3.121094 C 16.527344 3.121094 16.160156 3.328125 15.769531 3.585938 M 11.214844 5.929688 C 11.011719 6.015625 10.703125 6.257812 10.527344 6.46875 C 9.808594 7.324219 9.875 8.4375 10.6875 9.171875 C 11.96875 10.328125 13.941406 9.460938 13.941406 7.738281 C 13.941406 6.320312 12.503906 5.367188 11.214844 5.929688 M 5.640625 6.039062 C 5.640625 6.140625 7.132812 6.886719 7.703125 7.070312 C 8.230469 7.242188 9.050781 7.070312 9.171875 6.761719 C 9.210938 6.652344 9.230469 6.546875 9.207031 6.527344 C 8.96875 6.289062 5.640625 5.832031 5.640625 6.039062 M 16.261719 6.140625 C 15.554688 6.273438 14.871094 6.839844 14.96875 7.210938 C 15.039062 7.488281 14.929688 7.492188 15.917969 7.1875 C 16.707031 6.941406 18.359375 6.179688 18.359375 6.058594 C 18.359375 5.960938 16.902344 6.019531 16.261719 6.140625 M 7.859375 8.382812 C 7.332031 8.566406 6.601562 8.875 6.238281 9.070312 L 5.578125 9.421875 L 6.175781 9.457031 C 7.21875 9.523438 8.289062 9.273438 8.714844 8.863281 C 8.964844 8.621094 9.070312 8.421875 9.03125 8.269531 C 8.957031 7.988281 9.023438 7.980469 7.859375 8.382812 M 15.28125 8.40625 C 14.871094 8.53125 14.664062 8.867188 14.902344 9.015625 C 15.183594 9.1875 17.214844 9.496094 17.820312 9.457031 L 18.421875 9.421875 L 17.394531 8.914062 C 16.246094 8.339844 15.828125 8.242188 15.28125 8.40625 M 8.867188 10.195312 C 8.171875 10.984375 7.292969 12.25 7.378906 12.339844 C 7.46875 12.429688 8.683594 11.648438 9.203125 11.167969 C 9.757812 10.65625 9.984375 9.933594 9.683594 9.632812 C 9.535156 9.484375 9.429688 9.554688 8.867188 10.195312 M 13.953125 10.035156 C 13.753906 10.1875 13.789062 10.246094 14.398438 10.820312 C 15.046875 11.429688 16.371094 12.359375 16.589844 12.359375 C 16.742188 12.359375 16.269531 11.597656 15.628906 10.800781 C 15.015625 10.042969 14.339844 9.734375 13.953125 10.035156 M 10.523438 11.484375 C 10.238281 12.832031 10.148438 13.875 10.300781 13.96875 C 10.449219 14.0625 11.261719 12.4375 11.359375 11.851562 C 11.453125 11.261719 11.253906 10.628906 10.960938 10.585938 C 10.746094 10.550781 10.695312 10.660156 10.523438 11.484375 M 12.359375 10.867188 C 12.359375 11.1875 12.960938 12.867188 13.292969 13.476562 C 13.714844 14.253906 13.847656 13.992188 13.683594 12.695312 C 13.617188 12.152344 13.558594 11.667969 13.558594 11.617188 C 13.558594 11.570312 13.390625 11.335938 13.1875 11.105469 C 12.800781 10.664062 12.359375 10.539062 12.359375 10.867188 M 16.007812 17.023438 C 15.007812 17.726562 14.339844 18.4375 13.605469 19.570312 C 13.042969 20.4375 12.523438 21.6875 12.667969 21.824219 C 12.808594 21.964844 14.460938 20.085938 15.460938 18.648438 C 16.59375 17.015625 16.964844 16.441406 16.890625 16.441406 C 16.863281 16.441406 16.464844 16.703125 16.007812 17.023438 "/>
</g>
</svg>
