<?xml version="1.0" encoding="UTF-8"?>
<svg xmlns="http://www.w3.org/2000/svg" xmlns:xlink="http://www.w3.org/1999/xlink" width="100px" height="100px" viewBox="0 0 100 100" version="1.1">
<g id="surface1">
<path style=" stroke:none;fill-rule:evenodd;fill:rgb(0%,0%,0%);fill-opacity:1;" d="M 34 0.535156 C 32.367188 1.21875 30.582031 2.910156 29.703125 4.601562 C 28.601562 6.71875 28.808594 10.5625 30.128906 12.550781 C 31.371094 14.421875 34.988281 16.5 37 16.5 C 39.011719 16.5 42.628906 14.421875 43.871094 12.550781 C 46.175781 9.085938 45.070312 4.0625 41.410156 1.351562 C 39.863281 0.203125 35.84375 -0.238281 34 0.535156 M 25.613281 19.054688 C 24.234375 19.742188 23.042969 20.851562 22.261719 22.1875 C 21.042969 24.265625 13.5 48.160156 13.5 49.941406 C 13.5 51.472656 15.160156 53.125 16.703125 53.125 C 18.925781 53.125 19.925781 51.574219 21.800781 45.214844 C 26.238281 30.167969 26.480469 29.5 27.554688 29.5 C 28.289062 29.5 28.492188 29.742188 28.296875 30.375 C 26.214844 37.101562 18 64.496094 18 64.710938 C 18 64.871094 20.25 65 23 65 L 28 65 L 28 97.824219 L 29.15625 98.914062 C 30.691406 100.355469 32.746094 100.296875 34.273438 98.773438 L 35.5 97.546875 L 35.5 65 L 38.5 65 L 38.5 97.546875 L 39.726562 98.773438 C 41.300781 100.347656 43.472656 100.378906 44.914062 98.84375 C 45.984375 97.703125 46 97.433594 46 81.34375 L 46 65 L 51 65 C 53.75 65 56 64.875 56 64.722656 C 56 64.570312 53.75 55.875 51 45.402344 C 48.25 34.925781 46 26.050781 46 25.679688 C 46 25.132812 47.710938 25 54.75 25 L 63.5 25 L 63.5 31.5 L 59.566406 31.5 L 56.28125 37.589844 C 54.476562 40.9375 53.011719 44.03125 53.03125 44.464844 C 53.078125 45.683594 64.648438 67.101562 65.5625 67.667969 C 66.722656 68.378906 86.199219 58.128906 86.363281 56.71875 C 86.425781 56.183594 83.8125 50.691406 80.554688 44.511719 C 73.929688 31.9375 75.046875 33.054688 68.351562 32.265625 L 65.457031 31.921875 L 65.601562 28.585938 L 65.75 25.25 L 68.609375 25.101562 C 70.988281 24.976562 71.636719 24.734375 72.484375 23.65625 C 73.824219 21.953125 73.765625 20.722656 72.273438 19.226562 C 71.265625 18.21875 70.550781 18 68.273438 18 L 65.5 18 L 65.5 21.5 C 65.5 24.230469 65.339844 25 64.773438 25 C 64.222656 25 64.007812 24.175781 63.898438 21.625 L 63.75 18.25 L 45.75 18.121094 C 28.273438 17.996094 27.6875 18.023438 25.613281 19.054688 M 61.613281 35.65625 C 61.359375 35.980469 60.183594 38.0625 59 40.277344 L 56.851562 44.308594 L 61.402344 53.027344 C 63.902344 57.824219 66.257812 62.164062 66.628906 62.675781 C 67.269531 63.546875 67.707031 63.382812 74.527344 59.742188 C 78.5 57.625 81.828125 55.816406 81.925781 55.726562 C 82.023438 55.636719 79.886719 51.28125 77.175781 46.046875 L 72.25 36.53125 L 70 36.230469 C 65.859375 35.683594 65.757812 35.695312 65.601562 36.777344 C 65.523438 37.34375 65.914062 38.222656 66.476562 38.730469 C 68.4375 40.503906 67.234375 44 64.664062 44 C 62.457031 44 61.078125 40.386719 62.75 39 C 63.164062 38.65625 63.5 37.753906 63.5 36.992188 C 63.5 35.496094 62.359375 34.6875 61.613281 35.65625 "/>
</g>
</svg>
