<?xml version="1.0" encoding="UTF-8"?>
<svg xmlns="http://www.w3.org/2000/svg" xmlns:xlink="http://www.w3.org/1999/xlink" width="24px" height="24px" viewBox="0 0 24 24" version="1.1">
<g id="surface1">
<path style=" stroke:none;fill-rule:evenodd;fill:rgb(0%,0%,0%);fill-opacity:1;" d="M 8.160156 0.128906 C 7.769531 0.292969 7.339844 0.699219 7.128906 1.105469 C 6.863281 1.613281 6.914062 2.535156 7.230469 3.011719 C 7.53125 3.460938 8.398438 3.960938 8.878906 3.960938 C 9.363281 3.960938 10.230469 3.460938 10.527344 3.011719 C 11.082031 2.179688 10.816406 0.976562 9.9375 0.324219 C 9.566406 0.046875 8.601562 -0.0585938 8.160156 0.128906 M 6.148438 4.574219 C 5.816406 4.738281 5.53125 5.003906 5.34375 5.324219 C 5.050781 5.824219 3.238281 11.558594 3.238281 11.984375 C 3.238281 12.355469 3.640625 12.75 4.007812 12.75 C 4.542969 12.75 4.78125 12.378906 5.230469 10.851562 C 6.296875 7.238281 6.355469 7.078125 6.613281 7.078125 C 6.789062 7.078125 6.839844 7.136719 6.792969 7.289062 C 6.292969 8.90625 4.320312 15.480469 4.320312 15.53125 C 4.320312 15.570312 4.859375 15.601562 5.519531 15.601562 L 6.71875 15.601562 L 6.71875 23.476562 L 6.996094 23.738281 C 7.367188 24.085938 7.859375 24.070312 8.226562 23.707031 L 8.519531 23.410156 L 8.519531 15.601562 L 9.238281 15.601562 L 9.238281 23.410156 L 9.535156 23.707031 C 9.914062 24.082031 10.433594 24.089844 10.777344 23.722656 C 11.035156 23.449219 11.039062 23.382812 11.039062 19.523438 L 11.039062 15.601562 L 12.238281 15.601562 C 12.898438 15.601562 13.441406 15.570312 13.441406 15.535156 C 13.441406 15.496094 12.898438 13.410156 12.238281 10.894531 C 11.578125 8.382812 11.039062 6.253906 11.039062 6.164062 C 11.039062 6.03125 11.449219 6 13.140625 6 L 15.238281 6 L 15.238281 7.558594 L 14.296875 7.558594 L 13.507812 9.019531 C 13.074219 9.824219 12.722656 10.566406 12.726562 10.671875 C 12.738281 10.964844 15.515625 16.105469 15.734375 16.238281 C 16.011719 16.410156 20.6875 13.949219 20.726562 13.613281 C 20.742188 13.484375 20.113281 12.167969 19.332031 10.683594 C 17.742188 7.664062 18.011719 7.933594 16.40625 7.742188 L 15.710938 7.660156 L 15.78125 6.058594 L 16.464844 6.023438 C 17.039062 5.996094 17.191406 5.9375 17.394531 5.679688 C 17.71875 5.269531 17.703125 4.972656 17.34375 4.613281 C 17.105469 4.371094 16.933594 4.320312 16.386719 4.320312 L 15.71875 4.320312 L 15.71875 5.160156 C 15.71875 5.816406 15.679688 6 15.546875 6 C 15.414062 6 15.363281 5.800781 15.335938 5.191406 L 15.300781 4.378906 L 10.980469 4.347656 C 6.785156 4.320312 6.644531 4.324219 6.148438 4.574219 M 14.785156 8.558594 C 14.726562 8.636719 14.445312 9.136719 14.160156 9.667969 L 13.644531 10.632812 L 14.734375 12.726562 C 15.335938 13.878906 15.902344 14.917969 15.992188 15.042969 C 16.144531 15.25 16.25 15.210938 17.886719 14.339844 C 18.839844 13.828125 19.640625 13.394531 19.664062 13.375 C 19.6875 13.351562 19.171875 12.308594 18.523438 11.050781 L 17.339844 8.765625 L 16.800781 8.695312 C 15.804688 8.5625 15.78125 8.566406 15.746094 8.828125 C 15.726562 8.960938 15.820312 9.171875 15.953125 9.296875 C 16.425781 9.722656 16.136719 10.558594 15.519531 10.558594 C 14.988281 10.558594 14.660156 9.691406 15.058594 9.359375 C 15.160156 9.277344 15.238281 9.0625 15.238281 8.878906 C 15.238281 8.519531 14.964844 8.324219 14.785156 8.558594 "/>
</g>
</svg>
