<?xml version="1.0" encoding="UTF-8"?>
<svg xmlns="http://www.w3.org/2000/svg" xmlns:xlink="http://www.w3.org/1999/xlink" width="100px" height="100px" viewBox="0 0 100 100" version="1.1">
<g id="surface1">
<path style=" stroke:none;fill-rule:evenodd;fill:rgb(0%,0%,0%);fill-opacity:1;" d="M 48.625 0.988281 C 46.003906 2.175781 45.886719 2.589844 48.363281 1.90625 C 52.644531 0.722656 59.480469 2.742188 63.585938 6.402344 C 65.742188 8.324219 66.019531 8.46875 65.128906 7.203125 C 63.496094 4.878906 60.144531 2.019531 57.820312 0.960938 C 55.148438 -0.25 51.328125 -0.238281 48.625 0.988281 M 42.296875 6.144531 C 38.269531 11.425781 35.667969 22.632812 36.085938 32.902344 C 36.175781 35.15625 36.207031 37.003906 36.152344 37 C 36.097656 37 35.230469 35.433594 34.226562 33.519531 C 31.875 29.042969 28.191406 25.5 25.898438 25.503906 L 24.25 25.503906 L 25.824219 26.464844 C 28.667969 28.199219 32.464844 34.914062 35.957031 44.386719 C 37.46875 48.484375 37.425781 49.351562 35.800781 47.554688 C 34.941406 46.605469 30.324219 44.375 28 43.785156 C 27.3125 43.613281 27.867188 44.066406 29.230469 44.796875 C 32.75 46.683594 36.632812 50.871094 38.554688 54.855469 C 39.457031 56.722656 40.234375 58.316406 40.289062 58.398438 C 40.339844 58.480469 40.972656 58.402344 41.691406 58.21875 C 42.886719 57.917969 43 57.675781 43 55.351562 C 43 52.234375 44.460938 49.039062 47.085938 46.414062 C 48.140625 45.359375 48.871094 44.5 48.714844 44.5 C 48.003906 44.5 43.902344 47.683594 43.167969 48.804688 C 42.71875 49.492188 42.183594 49.871094 41.976562 49.652344 C 41.0625 48.664062 39.804688 34.386719 39.832031 25.25 C 39.859375 15.117188 40.699219 10.039062 42.984375 6.164062 C 44.238281 4.039062 43.910156 4.03125 42.296875 6.144531 M 20.535156 27.816406 C 19.964844 28.542969 19.507812 29.609375 19.519531 30.191406 C 19.535156 31.09375 19.65625 31.027344 20.332031 29.75 C 20.769531 28.925781 21.46875 27.855469 21.890625 27.375 C 22.320312 26.886719 22.417969 26.5 22.113281 26.5 C 21.816406 26.5 21.105469 27.09375 20.535156 27.816406 M 53.5 41.03125 L 53.5 46.0625 L 56.75 45.75 L 56.679688 42.425781 C 56.621094 39.820312 56.359375 38.769531 55.460938 37.550781 C 54.828125 36.699219 54.128906 36 53.90625 36 C 53.683594 36 53.5 38.265625 53.5 41.03125 M 48.25 40.550781 C 47.148438 40.796875 45.292969 41.355469 44.125 41.789062 C 42.121094 42.539062 42 42.695312 42 44.542969 C 42 45.617188 42.230469 46.5 42.511719 46.5 C 42.792969 46.5 44.582031 45.714844 46.488281 44.757812 C 48.519531 43.734375 50.074219 43.21875 50.253906 43.507812 C 50.421875 43.777344 50.996094 44 51.53125 44 C 52.328125 44 52.5 43.648438 52.5 42 C 52.5 39.769531 52.191406 39.664062 48.25 40.550781 M 57.589844 42.253906 C 57.738281 43.988281 57.917969 44.195312 59.777344 44.742188 C 62.015625 45.398438 68 48.460938 68 48.949219 C 68 49.117188 60.789062 56.453125 51.976562 65.253906 C 33.800781 83.398438 35.820312 82.253906 32.871094 76.070312 C 29.867188 69.769531 30.558594 60.28125 34.445312 54.496094 C 35.984375 52.207031 35.945312 51.40625 34.230469 49.984375 C 33.515625 49.390625 33.277344 49.460938 32.433594 50.523438 C 31.902344 51.199219 30.792969 53.042969 29.976562 54.621094 C 24.71875 64.769531 26.433594 76.605469 34.378906 85.054688 C 39.503906 90.503906 46.402344 93.5 53.8125 93.5 C 59.042969 93.5 59.429688 93.234375 57.140625 91.210938 C 55.527344 89.789062 54.867188 89.539062 52.667969 89.519531 C 49.5625 89.496094 44.867188 88.101562 41.769531 86.285156 C 39.515625 84.964844 39.0625 84.328125 39.976562 83.761719 C 40.242188 83.601562 40.328125 83.136719 40.171875 82.730469 C 39.984375 82.234375 40.441406 81.761719 41.570312 81.277344 C 42.550781 80.859375 49.082031 74.714844 57.246094 66.53125 C 64.945312 58.8125 71.386719 52.5 71.558594 52.5 C 72.1875 52.5 75.390625 59.308594 76.003906 61.945312 C 77.289062 67.449219 75.933594 74.601562 72.671875 79.527344 L 71.328125 81.558594 L 72.6875 82.902344 L 74.042969 84.25 L 75.03125 83 C 75.574219 82.3125 76.808594 80.140625 77.773438 78.171875 C 83.296875 66.890625 79.894531 53.160156 69.65625 45.429688 C 66.601562 43.121094 62.289062 41.164062 59.089844 40.632812 C 57.433594 40.359375 57.429688 40.363281 57.589844 42.253906 M 53.679688 48.375 C 53.847656 49.40625 53.992188 50.65625 53.996094 51.15625 C 54 51.878906 54.332031 52.03125 55.625 51.90625 C 56.542969 51.816406 57.226562 51.476562 57.199219 51.125 C 57.171875 50.78125 57.117188 49.601562 57.074219 48.5 C 57.003906 46.546875 56.957031 46.5 55.183594 46.5 L 53.367188 46.5 L 53.679688 48.375 M 55.3125 52.855469 C 54.492188 53.066406 54.410156 53.429688 54.675781 55.671875 C 54.84375 57.085938 55.1875 58.3125 55.4375 58.394531 C 55.6875 58.480469 55.769531 59.042969 55.617188 59.648438 C 55.34375 60.742188 55.351562 60.742188 56.433594 59.785156 C 57.257812 59.058594 57.367188 58.726562 56.886719 58.417969 C 56.417969 58.121094 56.472656 58.011719 57.09375 58.007812 C 58.339844 57.996094 58.480469 57.472656 57.921875 54.859375 C 57.429688 52.542969 57.203125 52.371094 55.3125 52.855469 M 41.570312 59.035156 C 40.339844 59.527344 40.328125 60.167969 41.492188 63.226562 C 42.050781 64.703125 42.382812 64.777344 43.855469 63.746094 C 44.898438 63.015625 44.910156 62.910156 44.171875 60.746094 C 43.347656 58.332031 43.339844 58.328125 41.570312 59.035156 M 43.625 64.679688 C 42.28125 65.34375 42.261719 65.589844 43.316406 68.359375 C 44.1875 70.640625 44.695312 70.886719 46.183594 69.761719 C 47.09375 69.074219 47.09375 68.980469 46.210938 66.527344 C 45.710938 65.136719 45.179688 64.027344 45.027344 64.0625 C 44.875 64.09375 44.242188 64.375 43.625 64.679688 M 58.664062 66.058594 L 57.605469 67.117188 L 58.617188 69.558594 C 59.6875 72.128906 60.21875 72.429688 61.742188 71.320312 C 62.644531 70.65625 62.636719 70.554688 61.527344 67.820312 C 60.898438 66.269531 60.234375 65 60.054688 65 C 59.871094 65 59.246094 65.476562 58.664062 66.058594 M 61.535156 72.457031 C 60.429688 73.304688 60.136719 73.328125 58.347656 72.695312 C 55.554688 71.710938 55.511719 71.8125 58.027344 73.414062 C 59.25 74.1875 60.972656 75.652344 61.859375 76.664062 C 63.652344 78.710938 63.90625 78.796875 65.25 77.8125 C 66.15625 77.148438 66.136719 77.027344 64.71875 74.3125 C 63.910156 72.765625 63.136719 71.507812 63 71.511719 C 62.863281 71.519531 62.203125 71.941406 61.535156 72.457031 M 48.550781 76.199219 C 47.929688 76.855469 47.628906 77.523438 47.882812 77.675781 C 48.519531 78.070312 50.5 76.59375 50.5 75.722656 C 50.5 74.671875 49.828125 74.835938 48.550781 76.199219 M 57.058594 76.75 C 57.046875 77.851562 57.324219 80.378906 57.675781 82.375 L 58.3125 85.996094 L 56.179688 83.996094 L 54.992188 85.257812 L 53.804688 86.523438 L 56.75 89.5 C 59.519531 92.296875 59.75 92.429688 60.597656 91.660156 C 61.800781 90.574219 61.757812 90.140625 59.957031 85.085938 C 59.105469 82.699219 58.113281 79.398438 57.746094 77.75 C 57.125 74.960938 57.078125 74.890625 57.058594 76.75 M 49.648438 77.953125 C 48.667969 78.769531 48.625 78.976562 49.257812 79.8125 C 49.648438 80.328125 49.976562 80.910156 49.984375 81.101562 C 49.992188 81.296875 48.480469 81.519531 46.625 81.601562 L 43.25 81.75 L 45.886719 82.371094 C 47.335938 82.714844 49.664062 83.574219 51.058594 84.28125 C 53.472656 85.503906 53.644531 85.523438 54.550781 84.707031 C 55.070312 84.234375 55.5 83.671875 55.5 83.460938 C 55.5 82.933594 51.378906 76.996094 51.03125 77.015625 C 50.875 77.027344 50.253906 77.445312 49.648438 77.953125 M 65.78125 78.289062 C 65.273438 78.660156 64.613281 79.046875 64.316406 79.144531 C 64.019531 79.242188 64.527344 80.273438 65.449219 81.433594 C 66.988281 83.378906 67.199219 83.488281 68.15625 82.855469 C 69.683594 81.839844 69.675781 81.359375 68.113281 79.394531 C 66.855469 77.808594 66.601562 77.691406 65.78125 78.289062 M 69.035156 83.054688 L 67.820312 84.054688 L 69.613281 85.847656 C 70.789062 87.019531 71.6875 87.535156 72.214844 87.332031 C 73.792969 86.726562 73.699219 85.464844 71.945312 83.734375 L 70.25 82.054688 L 69.035156 83.054688 M 64.644531 86.710938 C 63.210938 87.558594 62.097656 88.460938 62.175781 88.71875 C 62.25 88.976562 62.902344 89.628906 63.617188 90.164062 L 64.925781 91.140625 L 67.1875 89.8125 C 68.429688 89.085938 69.566406 88.300781 69.707031 88.070312 C 69.847656 87.839844 69.351562 87.09375 68.605469 86.410156 L 67.25 85.171875 L 64.644531 86.710938 M 61.351562 91.769531 C 60.464844 92.984375 60.46875 93.023438 61.851562 94.222656 C 64.210938 96.277344 65.351562 96.746094 66.234375 96.015625 C 67.503906 94.957031 67.078125 93.835938 64.75 92.125 C 63.535156 91.230469 62.476562 90.507812 62.394531 90.515625 C 62.316406 90.523438 61.84375 91.089844 61.351562 91.769531 M 67.296875 95.746094 C 66.859375 96.417969 66.5 97.082031 66.5 97.222656 C 66.5 97.367188 67.644531 98.0625 69.039062 98.769531 C 71.039062 99.785156 71.730469 99.929688 72.289062 99.46875 C 73.679688 98.3125 73.089844 97.0625 70.546875 95.773438 L 68.09375 94.53125 L 67.296875 95.746094 "/>
</g>
</svg>
