<?xml version="1.0" encoding="UTF-8"?>
<svg xmlns="http://www.w3.org/2000/svg" xmlns:xlink="http://www.w3.org/1999/xlink" width="24px" height="24px" viewBox="0 0 24 24" version="1.1">
<g id="surface1">
<path style=" stroke:none;fill-rule:evenodd;fill:rgb(0%,0%,0%);fill-opacity:1;" d="M 11.671875 0.238281 C 11.039062 0.523438 11.011719 0.621094 11.609375 0.457031 C 12.636719 0.171875 14.277344 0.65625 15.261719 1.535156 C 15.777344 2 15.84375 2.03125 15.632812 1.726562 C 15.238281 1.171875 14.433594 0.484375 13.875 0.230469 C 13.234375 -0.0585938 12.320312 -0.0585938 11.671875 0.238281 M 10.152344 1.476562 C 9.183594 2.742188 8.558594 5.429688 8.660156 7.894531 C 8.683594 8.4375 8.6875 8.878906 8.675781 8.878906 C 8.664062 8.878906 8.457031 8.503906 8.214844 8.042969 C 7.648438 6.96875 6.765625 6.121094 6.214844 6.121094 L 5.820312 6.121094 L 6.199219 6.351562 C 6.878906 6.765625 7.792969 8.378906 8.628906 10.652344 C 8.992188 11.636719 8.980469 11.84375 8.59375 11.414062 C 8.386719 11.1875 7.277344 10.648438 6.71875 10.507812 C 6.554688 10.46875 6.6875 10.578125 7.015625 10.75 C 7.859375 11.203125 8.792969 12.207031 9.253906 13.164062 C 9.46875 13.613281 9.65625 13.996094 9.667969 14.015625 C 9.679688 14.035156 9.832031 14.015625 10.003906 13.972656 C 10.292969 13.902344 10.320312 13.84375 10.320312 13.285156 C 10.320312 12.535156 10.671875 11.769531 11.300781 11.140625 C 11.554688 10.886719 11.730469 10.679688 11.691406 10.679688 C 11.519531 10.679688 10.535156 11.445312 10.359375 11.714844 C 10.253906 11.878906 10.125 11.96875 10.074219 11.917969 C 9.855469 11.679688 9.554688 8.253906 9.558594 6.058594 C 9.566406 3.628906 9.765625 2.410156 10.316406 1.480469 C 10.617188 0.96875 10.539062 0.96875 10.152344 1.476562 M 4.929688 6.675781 C 4.792969 6.851562 4.683594 7.105469 4.683594 7.246094 C 4.6875 7.460938 4.71875 7.445312 4.878906 7.140625 C 4.984375 6.941406 5.152344 6.683594 5.253906 6.570312 C 5.355469 6.453125 5.378906 6.359375 5.308594 6.359375 C 5.234375 6.359375 5.066406 6.503906 4.929688 6.675781 M 12.839844 9.847656 L 12.839844 11.054688 L 13.230469 11.015625 L 13.621094 10.980469 L 13.601562 10.183594 C 13.589844 9.558594 13.527344 9.304688 13.308594 9.011719 C 13.160156 8.808594 12.992188 8.640625 12.9375 8.640625 C 12.882812 8.640625 12.839844 9.183594 12.839844 9.847656 M 11.578125 9.730469 C 11.316406 9.792969 10.871094 9.925781 10.589844 10.03125 C 10.109375 10.210938 10.078125 10.246094 10.078125 10.691406 C 10.078125 10.949219 10.136719 11.160156 10.203125 11.160156 C 10.269531 11.160156 10.699219 10.972656 11.15625 10.742188 C 11.644531 10.496094 12.019531 10.371094 12.0625 10.441406 C 12.101562 10.507812 12.238281 10.558594 12.367188 10.558594 C 12.558594 10.558594 12.601562 10.476562 12.601562 10.078125 C 12.601562 9.542969 12.527344 9.519531 11.578125 9.730469 M 13.820312 10.140625 C 13.855469 10.558594 13.898438 10.605469 14.347656 10.738281 C 14.882812 10.894531 16.320312 11.628906 16.320312 11.746094 C 16.320312 11.789062 14.589844 13.550781 12.472656 15.660156 C 8.113281 20.015625 8.597656 19.742188 7.890625 18.257812 C 7.167969 16.746094 7.335938 14.46875 8.265625 13.078125 C 8.636719 12.53125 8.625 12.335938 8.214844 11.996094 C 8.042969 11.851562 7.988281 11.871094 7.785156 12.125 C 7.65625 12.289062 7.390625 12.730469 7.195312 13.109375 C 5.933594 15.542969 6.34375 18.386719 8.25 20.414062 C 9.480469 21.71875 11.136719 22.441406 12.914062 22.441406 C 14.171875 22.441406 14.261719 22.375 13.714844 21.890625 C 13.328125 21.550781 13.167969 21.488281 12.640625 21.484375 C 11.894531 21.480469 10.769531 21.144531 10.023438 20.707031 C 9.484375 20.390625 9.375 20.238281 9.59375 20.101562 C 9.65625 20.0625 9.679688 19.953125 9.640625 19.855469 C 9.597656 19.738281 9.707031 19.621094 9.976562 19.507812 C 10.210938 19.40625 11.78125 17.933594 13.738281 15.96875 C 15.585938 14.117188 17.132812 12.601562 17.175781 12.601562 C 17.324219 12.601562 18.09375 14.234375 18.242188 14.867188 C 18.550781 16.1875 18.222656 17.90625 17.441406 19.085938 L 17.117188 19.574219 L 17.445312 19.898438 L 17.769531 20.21875 L 18.007812 19.921875 C 18.136719 19.753906 18.433594 19.234375 18.664062 18.761719 C 19.992188 16.054688 19.175781 12.757812 16.71875 10.902344 C 15.984375 10.347656 14.949219 9.878906 14.183594 9.75 C 13.785156 9.6875 13.785156 9.6875 13.820312 10.140625 M 12.882812 11.609375 C 12.925781 11.859375 12.957031 12.15625 12.957031 12.277344 C 12.960938 12.449219 13.039062 12.488281 13.351562 12.457031 C 13.570312 12.4375 13.734375 12.355469 13.726562 12.269531 C 13.722656 12.1875 13.707031 11.902344 13.699219 11.640625 C 13.679688 11.171875 13.667969 11.160156 13.246094 11.160156 L 12.808594 11.160156 L 12.882812 11.609375 M 13.273438 12.6875 C 13.078125 12.734375 13.058594 12.824219 13.121094 13.359375 C 13.164062 13.699219 13.246094 13.996094 13.304688 14.015625 C 13.367188 14.035156 13.386719 14.171875 13.347656 14.316406 C 13.28125 14.578125 13.285156 14.578125 13.542969 14.347656 C 13.742188 14.171875 13.769531 14.09375 13.652344 14.019531 C 13.539062 13.949219 13.554688 13.921875 13.703125 13.921875 C 14.003906 13.917969 14.035156 13.792969 13.902344 13.167969 C 13.78125 12.609375 13.730469 12.570312 13.273438 12.6875 M 9.976562 14.167969 C 9.683594 14.285156 9.679688 14.441406 9.957031 15.175781 C 10.09375 15.527344 10.171875 15.546875 10.527344 15.296875 C 10.777344 15.125 10.777344 15.097656 10.601562 14.578125 C 10.402344 14 10.402344 14 9.976562 14.167969 M 10.46875 15.523438 C 10.148438 15.683594 10.144531 15.742188 10.394531 16.40625 C 10.605469 16.953125 10.726562 17.011719 11.085938 16.742188 C 11.300781 16.578125 11.300781 16.554688 11.089844 15.964844 C 10.96875 15.632812 10.84375 15.367188 10.804688 15.375 C 10.769531 15.382812 10.617188 15.449219 10.46875 15.523438 M 14.078125 15.855469 L 13.824219 16.109375 L 14.070312 16.695312 C 14.324219 17.3125 14.453125 17.382812 14.816406 17.117188 C 15.035156 16.957031 15.03125 16.933594 14.765625 16.277344 C 14.617188 15.90625 14.457031 15.601562 14.414062 15.601562 C 14.367188 15.601562 14.21875 15.714844 14.078125 15.855469 M 14.769531 17.390625 C 14.503906 17.59375 14.433594 17.597656 14.003906 17.445312 C 13.332031 17.210938 13.324219 17.234375 13.925781 17.617188 C 14.21875 17.804688 14.632812 18.15625 14.847656 18.398438 C 15.277344 18.890625 15.335938 18.910156 15.660156 18.675781 C 15.878906 18.515625 15.875 18.488281 15.53125 17.835938 C 15.339844 17.464844 15.152344 17.160156 15.121094 17.164062 C 15.085938 17.164062 14.929688 17.265625 14.769531 17.390625 M 11.652344 18.289062 C 11.503906 18.445312 11.429688 18.605469 11.492188 18.640625 C 11.644531 18.738281 12.121094 18.382812 12.121094 18.171875 C 12.121094 17.921875 11.960938 17.960938 11.652344 18.289062 M 13.695312 18.421875 C 13.691406 18.683594 13.757812 19.292969 13.84375 19.769531 L 13.996094 20.640625 L 13.738281 20.398438 L 13.484375 20.160156 L 13.199219 20.460938 L 12.914062 20.765625 L 13.621094 21.480469 C 14.285156 22.152344 14.339844 22.183594 14.542969 22 C 14.832031 21.738281 14.820312 21.632812 14.390625 20.421875 C 14.1875 19.847656 13.945312 19.054688 13.859375 18.660156 C 13.710938 17.992188 13.699219 17.972656 13.695312 18.421875 M 11.914062 18.707031 C 11.679688 18.90625 11.671875 18.953125 11.820312 19.15625 C 11.914062 19.277344 11.992188 19.417969 11.996094 19.464844 C 12 19.511719 11.636719 19.566406 11.191406 19.585938 L 10.378906 19.621094 L 11.011719 19.769531 C 11.359375 19.851562 11.917969 20.058594 12.253906 20.226562 C 12.832031 20.519531 12.875 20.527344 13.089844 20.328125 C 13.21875 20.214844 13.320312 20.082031 13.320312 20.03125 C 13.320312 19.902344 12.332031 18.480469 12.246094 18.484375 C 12.210938 18.484375 12.0625 18.585938 11.914062 18.707031 M 15.789062 18.789062 C 15.664062 18.878906 15.507812 18.972656 15.4375 18.996094 C 15.363281 19.019531 15.488281 19.265625 15.707031 19.542969 C 16.078125 20.011719 16.128906 20.039062 16.359375 19.886719 C 16.722656 19.640625 16.722656 19.527344 16.347656 19.054688 C 16.046875 18.675781 15.984375 18.644531 15.789062 18.789062 M 16.570312 19.933594 L 16.277344 20.171875 L 16.707031 20.605469 C 16.988281 20.886719 17.207031 21.007812 17.332031 20.960938 C 17.710938 20.816406 17.6875 20.511719 17.265625 20.097656 L 16.859375 19.695312 L 16.570312 19.933594 M 15.515625 20.808594 C 15.171875 21.015625 14.902344 21.230469 14.921875 21.292969 C 14.941406 21.355469 15.097656 21.511719 15.269531 21.640625 L 15.582031 21.875 L 16.125 21.554688 C 16.421875 21.378906 16.695312 21.191406 16.730469 21.136719 C 16.761719 21.082031 16.644531 20.902344 16.464844 20.738281 L 16.140625 20.441406 L 15.515625 20.808594 M 14.722656 22.023438 C 14.511719 22.316406 14.511719 22.324219 14.84375 22.613281 C 15.410156 23.105469 15.683594 23.21875 15.894531 23.042969 C 16.203125 22.789062 16.097656 22.519531 15.539062 22.109375 C 15.25 21.894531 14.996094 21.722656 14.976562 21.722656 C 14.957031 21.726562 14.84375 21.859375 14.722656 22.023438 M 16.152344 22.980469 C 16.046875 23.140625 15.960938 23.300781 15.960938 23.332031 C 15.960938 23.367188 16.234375 23.535156 16.570312 23.703125 C 17.050781 23.949219 17.214844 23.984375 17.347656 23.871094 C 17.683594 23.59375 17.542969 23.292969 16.929688 22.984375 L 16.34375 22.6875 L 16.152344 22.980469 "/>
</g>
</svg>
