<?xml version="1.0" encoding="UTF-8"?>
<svg xmlns="http://www.w3.org/2000/svg" xmlns:xlink="http://www.w3.org/1999/xlink" width="100px" height="100px" viewBox="0 0 100 100" version="1.1">
<g id="surface1">
<path style=" stroke:none;fill-rule:evenodd;fill:rgb(0%,0%,0%);fill-opacity:1;" d="M 71.75 16.273438 C 61.574219 19.421875 46.195312 24.175781 37.574219 26.839844 C 24.789062 30.796875 21.761719 31.902344 21.140625 32.84375 C 20.460938 33.882812 20.46875 34.125 21.203125 35.25 C 21.65625 35.9375 22.347656 36.5 22.746094 36.5 C 23.148438 36.5 38.808594 31.753906 57.550781 25.949219 C 87.984375 16.53125 91.757812 15.46875 92.820312 16.039062 C 94.203125 16.777344 95.144531 19.671875 94.703125 21.808594 C 94.417969 23.167969 92.75 24.015625 64.742188 36.988281 C 48.425781 44.542969 34.875 50.789062 34.628906 50.875 C 34.382812 50.957031 33.933594 49.691406 33.628906 48.058594 C 31.800781 38.226562 20.285156 33.761719 11.734375 39.570312 C 9.828125 40.867188 9.265625 41.976562 9.75 43.5 C 10.285156 45.191406 12.277344 45.289062 14.523438 43.734375 C 18.292969 41.121094 23.382812 41.535156 26.449219 44.699219 C 28.003906 46.300781 29.398438 50 28.449219 50 C 28.203125 50 28 49.582031 28 49.066406 C 28 48.554688 27.53125 47.539062 26.957031 46.808594 C 23.597656 42.539062 16.636719 43.289062 14.320312 48.171875 C 13.199219 50.53125 13.265625 54.359375 14.460938 56.316406 C 16.226562 59.214844 18.746094 60.6875 22.339844 60.914062 C 25.269531 61.101562 25.871094 60.957031 28.980469 59.328125 C 30.859375 58.34375 40.238281 53.90625 49.824219 49.464844 C 59.40625 45.023438 67.644531 41.179688 68.125 40.925781 C 68.605469 40.671875 69 40.570312 69 40.699219 C 69 40.828125 61.742188 46.53125 52.875 53.371094 C 38.148438 64.734375 35.5625 66.5 24.414062 72.820312 C 24.226562 72.925781 23.726562 71.8125 23.300781 70.34375 C 22.421875 67.332031 20.128906 64.648438 17.257812 63.285156 C 15.898438 62.640625 15.546875 62.253906 15.949219 61.851562 C 16.675781 61.121094 16.652344 59.351562 15.898438 58.601562 C 15.570312 58.269531 14.777344 58 14.144531 58 C 12.507812 58 2.214844 65.285156 0.945312 67.339844 C -0.03125 68.921875 -0.046875 69.105469 0.710938 70.261719 C 1.859375 72.011719 3.308594 71.800781 5.773438 69.53125 C 9.191406 66.378906 13.574219 66.183594 16.648438 69.046875 L 18.25 70.539062 L 16.304688 69.269531 C 10.050781 65.183594 2.980469 72.285156 6.3125 79.308594 C 8.601562 84.136719 15.796875 85.308594 20.132812 81.558594 C 21.023438 80.789062 23.402344 79.199219 25.417969 78.03125 L 29.085938 75.90625 L 30.0625 76.953125 C 31.371094 78.359375 32.773438 78.273438 34.128906 76.699219 C 35.675781 74.910156 38.605469 73.5 40.78125 73.5 C 42.761719 73.5 45.582031 74.644531 46.589844 75.855469 C 47.023438 76.378906 46.59375 76.285156 45.242188 75.5625 C 40.609375 73.078125 35.707031 75.53125 34.703125 80.835938 C 34.234375 83.308594 34.929688 85.382812 36.921875 87.476562 C 39.332031 90.007812 42.140625 90.804688 45.683594 89.960938 C 48.152344 89.371094 49.015625 88.589844 68 69.804688 C 78.863281 59.054688 90.394531 47.660156 93.625 44.480469 L 99.5 38.703125 L 99.5 36.175781 C 99.5 33.339844 98.800781 30.898438 97.414062 28.910156 C 96.496094 27.59375 96.5 27.566406 97.519531 27.242188 C 100.382812 26.335938 100.632812 17.695312 97.90625 13.867188 C 96.699219 12.175781 93.542969 10.488281 91.644531 10.527344 C 90.878906 10.542969 81.925781 13.128906 71.75 16.273438 M 66.328125 49.359375 L 41.957031 68.214844 L 44.441406 69.023438 C 45.804688 69.46875 47.507812 70.214844 48.21875 70.683594 C 49.722656 71.667969 52.5 75.332031 52.5 76.324219 C 52.5 76.695312 52.738281 77 53.03125 77 C 53.53125 77 94.050781 37.207031 94.425781 36.347656 C 95.140625 34.710938 92.925781 30.5 91.347656 30.5 C 90.988281 30.5 79.730469 38.984375 66.328125 49.359375 M 19.328125 49.914062 C 17.441406 51.996094 19.375 56 22.261719 56 C 23.453125 56 23.5 55.929688 22.785156 55.214844 C 21.855469 54.285156 21.773438 52.847656 22.578125 51.558594 C 23.925781 49.402344 21.089844 47.964844 19.328125 49.914062 M 28.039062 51.792969 C 28.0625 52.375 28.183594 52.492188 28.339844 52.09375 C 28.484375 51.734375 28.46875 51.300781 28.300781 51.136719 C 28.136719 50.96875 28.019531 51.265625 28.039062 51.792969 M 11.117188 73.582031 C 9.566406 75.132812 10.796875 77.9375 13.375 78.722656 C 14.519531 79.074219 14.960938 78.34375 13.972656 77.734375 C 13.679688 77.554688 13.511719 76.46875 13.597656 75.328125 C 13.726562 73.566406 13.597656 73.226562 12.742188 73.105469 C 12.191406 73.027344 11.460938 73.242188 11.117188 73.582031 M 40.308594 80.261719 C 39.863281 80.707031 39.5 81.503906 39.5 82.035156 C 39.5 83.027344 41.136719 85 41.960938 85 C 42.210938 85 42.832031 85.15625 43.335938 85.34375 C 44.167969 85.65625 44.183594 85.605469 43.5 84.765625 C 43.085938 84.257812 42.75 82.925781 42.75 81.804688 C 42.75 79.515625 41.710938 78.859375 40.308594 80.261719 "/>
</g>
</svg>
