<?xml version="1.0" encoding="UTF-8"?>
<svg xmlns="http://www.w3.org/2000/svg" xmlns:xlink="http://www.w3.org/1999/xlink" width="24px" height="24px" viewBox="0 0 24 24" version="1.1">
<g id="surface1">
<path style=" stroke:none;fill-rule:evenodd;fill:rgb(0%,0%,0%);fill-opacity:1;" d="M 11.238281 3.558594 C 11.0625 3.878906 10.941406 4.128906 10.652344 4.757812 C 10.585938 4.898438 10.554688 5.351562 10.578125 5.765625 C 10.605469 6.292969 10.574219 6.535156 10.46875 6.570312 C 10.378906 6.601562 10.316406 6.511719 10.316406 6.339844 C 10.3125 6.1875 10.238281 5.925781 10.144531 5.761719 C 9.996094 5.492188 9.96875 5.484375 9.894531 5.675781 C 9.847656 5.792969 9.84375 6.101562 9.886719 6.355469 C 9.925781 6.613281 9.914062 6.855469 9.855469 6.890625 C 9.796875 6.925781 9.792969 7.171875 9.839844 7.4375 C 9.886719 7.703125 9.910156 7.921875 9.886719 7.921875 C 9.863281 7.921875 9.679688 7.597656 9.480469 7.199219 C 9.074219 6.394531 8.960938 6.289062 9.128906 6.871094 C 9.191406 7.082031 9.238281 7.421875 9.234375 7.621094 C 9.230469 7.984375 10.179688 10.058594 10.359375 10.070312 C 10.414062 10.078125 10.535156 10.15625 10.625 10.25 C 10.820312 10.445312 11.28125 10.367188 11.28125 10.140625 C 11.28125 10.058594 11.359375 9.921875 11.460938 9.839844 C 11.578125 9.742188 11.640625 9.472656 11.640625 9.039062 C 11.640625 8.632812 11.6875 8.414062 11.761719 8.460938 C 11.824219 8.5 11.878906 8.664062 11.878906 8.828125 C 11.878906 9.007812 11.949219 9.121094 12.058594 9.121094 C 12.332031 9.121094 12.296875 10.160156 12.003906 10.734375 C 11.769531 11.191406 11.765625 11.195312 11.652344 10.910156 C 11.585938 10.75 11.53125 10.675781 11.527344 10.738281 C 11.519531 10.804688 11.464844 10.777344 11.398438 10.679688 C 11.328125 10.566406 11.28125 10.554688 11.28125 10.644531 C 11.28125 10.726562 11.210938 10.765625 11.128906 10.734375 C 11.039062 10.699219 10.894531 10.875 10.765625 11.164062 C 10.652344 11.429688 10.488281 11.675781 10.402344 11.707031 C 10.28125 11.753906 10.253906 12.15625 10.277344 13.445312 C 10.308594 15.085938 10.441406 15.804688 10.625 15.332031 C 10.667969 15.214844 10.753906 15.152344 10.8125 15.1875 C 10.871094 15.222656 10.921875 15.167969 10.921875 15.066406 C 10.921875 14.964844 10.972656 14.878906 11.039062 14.878906 C 11.105469 14.878906 11.160156 14.714844 11.160156 14.511719 C 11.160156 14.3125 11.207031 14.175781 11.265625 14.210938 C 11.324219 14.246094 11.34375 14.519531 11.308594 14.816406 C 11.269531 15.179688 11.316406 15.492188 11.453125 15.78125 C 11.5625 16.015625 11.632812 16.300781 11.601562 16.414062 C 11.5625 16.5625 11.542969 16.546875 11.535156 16.351562 C 11.527344 16.203125 11.464844 16.078125 11.398438 16.078125 C 11.335938 16.078125 11.28125 16 11.28125 15.898438 C 11.28125 15.800781 11.191406 15.71875 11.085938 15.71875 C 10.929688 15.71875 10.902344 15.804688 10.953125 16.125 L 11.019531 16.53125 L 10.710938 16.246094 C 10.542969 16.089844 10.359375 15.960938 10.300781 15.960938 C 10.246094 15.960938 10.191406 15.648438 10.183594 15.269531 L 10.167969 14.578125 L 10.089844 15.136719 C 10.035156 15.519531 9.871094 15.875 9.566406 16.265625 C 9.09375 16.875 9.046875 17.070312 9.246094 17.589844 C 9.335938 17.828125 9.40625 17.882812 9.5 17.789062 C 9.597656 17.691406 9.703125 17.703125 9.890625 17.824219 C 10.035156 17.917969 10.542969 18.015625 11.023438 18.039062 C 11.503906 18.0625 11.832031 18.042969 11.753906 17.996094 C 11.648438 17.929688 11.640625 17.785156 11.730469 17.445312 L 11.851562 16.980469 L 11.9375 17.355469 C 12.027344 17.75 12.453125 18.046875 12.707031 17.890625 C 12.808594 17.824219 12.765625 17.65625 12.546875 17.269531 C 12.378906 16.980469 12.246094 16.632812 12.246094 16.5 C 12.25 16.359375 12.320312 16.453125 12.414062 16.71875 C 12.601562 17.246094 12.730469 17.402344 12.804688 17.195312 C 12.832031 17.117188 12.933594 17.082031 13.03125 17.121094 C 13.15625 17.167969 13.171875 17.230469 13.082031 17.339844 C 12.933594 17.515625 13.042969 17.878906 13.242188 17.878906 C 13.316406 17.878906 13.550781 17.777344 13.757812 17.648438 C 14.195312 17.382812 14.390625 16.863281 14.351562 16.078125 C 14.335938 15.78125 14.3125 15.335938 14.300781 15.085938 C 14.285156 14.730469 14.21875 14.609375 13.996094 14.527344 C 13.535156 14.351562 13.421875 12.96875 13.847656 12.691406 C 13.925781 12.640625 13.882812 12.601562 13.738281 12.597656 C 13.511719 12.59375 13.511719 12.585938 13.769531 12.386719 C 13.996094 12.210938 14.019531 12.125 13.929688 11.820312 C 13.867188 11.621094 13.816406 11.542969 13.808594 11.644531 C 13.800781 11.84375 13.320312 11.941406 13.320312 11.746094 C 13.320312 11.679688 13.378906 11.660156 13.449219 11.703125 C 13.523438 11.753906 13.5625 11.695312 13.539062 11.566406 C 13.515625 11.445312 13.554688 11.34375 13.621094 11.339844 C 13.871094 11.332031 14.039062 11.132812 14.039062 10.851562 C 14.039062 10.6875 14.148438 10.25 14.277344 9.875 C 14.441406 9.414062 14.476562 9.152344 14.394531 9.054688 C 14.277344 8.910156 14.355469 8.519531 14.503906 8.519531 C 14.546875 8.519531 14.652344 8.363281 14.734375 8.171875 C 14.820312 7.980469 15.007812 7.789062 15.15625 7.746094 C 15.328125 7.691406 15.367188 7.640625 15.261719 7.597656 C 15.136719 7.546875 15.140625 7.496094 15.285156 7.335938 C 15.460938 7.144531 15.519531 6.160156 15.480469 4.199219 C 15.46875 3.546875 15.46875 3.542969 15.3125 3.898438 L 15.152344 4.261719 L 15.027344 3.839844 C 14.90625 3.429688 14.902344 3.429688 14.890625 3.761719 C 14.882812 4.003906 14.832031 4.085938 14.714844 4.042969 C 14.625 4.007812 14.496094 4.03125 14.429688 4.097656 C 14.351562 4.175781 14.285156 4.113281 14.234375 3.910156 C 14.144531 3.558594 13.921875 3.488281 13.917969 3.808594 C 13.917969 3.925781 13.8125 4.183594 13.679688 4.378906 L 13.441406 4.738281 L 13.441406 4.109375 C 13.441406 3.628906 13.398438 3.480469 13.261719 3.480469 C 13.160156 3.480469 13.078125 3.566406 13.078125 3.671875 C 13.078125 3.796875 13.015625 3.839844 12.898438 3.796875 C 12.75 3.738281 12.71875 3.871094 12.71875 4.5625 C 12.71875 5.25 12.675781 5.445312 12.46875 5.648438 C 12.332031 5.789062 12.191406 5.871094 12.160156 5.839844 C 12.128906 5.808594 12.210938 5.667969 12.351562 5.53125 C 12.652344 5.230469 12.652344 5.1875 12.398438 4.28125 C 12.226562 3.664062 12.179688 3.59375 12.050781 3.773438 C 11.828125 4.074219 11.726562 5.054688 11.875 5.441406 C 11.957031 5.664062 11.960938 5.847656 11.882812 5.980469 C 11.792969 6.136719 11.765625 6.09375 11.757812 5.761719 L 11.753906 5.339844 L 11.527344 5.605469 C 11.3125 5.867188 11.304688 5.867188 11.246094 5.636719 C 11.210938 5.507812 11.21875 5.398438 11.265625 5.398438 C 11.3125 5.398438 11.414062 4.957031 11.496094 4.414062 C 11.652344 3.34375 11.546875 2.992188 11.238281 3.558594 M 14.160156 6.601562 C 14.058594 6.789062 14.070312 6.839844 14.203125 6.839844 C 14.296875 6.839844 14.398438 6.730469 14.433594 6.601562 C 14.46875 6.46875 14.449219 6.359375 14.394531 6.359375 C 14.335938 6.359375 14.230469 6.46875 14.160156 6.601562 M 13.261719 6.839844 C 13.300781 6.90625 13.359375 6.960938 13.386719 6.960938 C 13.417969 6.960938 13.441406 6.90625 13.441406 6.839844 C 13.441406 6.773438 13.382812 6.71875 13.3125 6.71875 C 13.242188 6.71875 13.21875 6.773438 13.261719 6.839844 M 13.75 7.027344 C 13.703125 7.203125 13.691406 7.371094 13.71875 7.398438 C 13.746094 7.429688 13.808594 7.308594 13.851562 7.132812 C 13.894531 6.957031 13.910156 6.789062 13.878906 6.761719 C 13.851562 6.730469 13.792969 6.851562 13.75 7.027344 M 14.574219 7.089844 C 14.53125 7.160156 14.527344 7.246094 14.566406 7.285156 C 14.605469 7.324219 14.578125 7.429688 14.503906 7.519531 C 14.40625 7.636719 14.40625 7.679688 14.511719 7.679688 C 14.589844 7.679688 14.617188 7.742188 14.570312 7.820312 C 14.515625 7.90625 14.535156 7.925781 14.625 7.871094 C 14.703125 7.820312 14.753906 7.597656 14.738281 7.371094 C 14.707031 6.921875 14.691406 6.898438 14.574219 7.089844 M 13.214844 10.101562 C 13.207031 10.28125 13.089844 10.503906 12.949219 10.601562 C 12.742188 10.746094 12.722656 10.820312 12.832031 11.027344 C 12.90625 11.167969 13.074219 11.28125 13.203125 11.28125 C 13.394531 11.28125 13.4375 11.203125 13.425781 10.890625 C 13.417969 10.675781 13.371094 10.339844 13.320312 10.140625 L 13.226562 9.78125 L 13.214844 10.101562 M 12.859375 14.171875 C 12.867188 14.921875 12.90625 15.378906 12.9375 15.179688 C 12.992188 14.863281 13.019531 14.910156 13.15625 15.539062 L 13.3125 16.261719 L 13.253906 15.421875 C 13.152344 14.015625 13.019531 12.980469 12.929688 12.886719 C 12.878906 12.839844 12.847656 13.417969 12.859375 14.171875 M 11.28125 13.558594 C 11.203125 13.703125 11.167969 13.847656 11.199219 13.878906 C 11.234375 13.914062 11.324219 13.824219 11.398438 13.679688 C 11.476562 13.535156 11.511719 13.390625 11.480469 13.359375 C 11.445312 13.328125 11.355469 13.417969 11.28125 13.558594 M 11.542969 13.789062 C 11.378906 14.253906 11.429688 14.382812 11.695312 14.164062 C 11.859375 14.027344 11.878906 14.105469 11.878906 14.804688 C 11.878906 15.574219 11.890625 15.601562 12.179688 15.601562 C 12.457031 15.601562 12.480469 15.554688 12.480469 15.058594 C 12.480469 14.675781 12.429688 14.519531 12.308594 14.519531 C 12.214844 14.519531 12.113281 14.585938 12.078125 14.671875 C 12.046875 14.753906 12.015625 14.65625 12.007812 14.453125 C 12.003906 14.253906 11.953125 14.035156 11.890625 13.972656 C 11.832031 13.910156 11.761719 13.753906 11.738281 13.621094 C 11.699219 13.429688 11.660156 13.464844 11.542969 13.789062 M 12.632812 15 C 12.632812 15.296875 12.65625 15.417969 12.683594 15.269531 C 12.714844 15.121094 12.714844 14.878906 12.683594 14.730469 C 12.65625 14.582031 12.632812 14.703125 12.632812 15 M 11.050781 17.109375 C 11.054688 17.25 11.082031 17.277344 11.121094 17.183594 C 11.15625 17.097656 11.152344 16.992188 11.113281 16.953125 C 11.074219 16.914062 11.042969 16.984375 11.050781 17.109375 M 10.320312 17.40625 C 10.320312 17.542969 10.375 17.621094 10.441406 17.578125 C 10.507812 17.539062 10.558594 17.429688 10.558594 17.332031 C 10.558594 17.238281 10.507812 17.160156 10.441406 17.160156 C 10.375 17.160156 10.320312 17.269531 10.320312 17.40625 "/>
</g>
</svg>
