<?xml version="1.0" encoding="UTF-8"?>
<svg xmlns="http://www.w3.org/2000/svg" xmlns:xlink="http://www.w3.org/1999/xlink" width="100px" height="100px" viewBox="0 0 100 100" version="1.1">
<g id="surface1">
<path style=" stroke:none;fill-rule:evenodd;fill:rgb(0%,0%,0%);fill-opacity:1;" d="M 46.824219 14.824219 C 46.097656 16.160156 45.585938 17.207031 44.382812 19.820312 C 44.113281 20.40625 43.972656 22.300781 44.070312 24.023438 C 44.195312 26.21875 44.0625 27.222656 43.625 27.371094 C 43.246094 27.5 42.992188 27.125 42.984375 26.417969 C 42.972656 25.773438 42.652344 24.6875 42.269531 24 C 41.648438 22.886719 41.535156 22.847656 41.226562 23.644531 C 41.035156 24.136719 41.019531 25.414062 41.191406 26.488281 C 41.363281 27.5625 41.304688 28.5625 41.066406 28.710938 C 40.828125 28.855469 40.796875 29.882812 40.996094 30.988281 C 41.199219 32.09375 41.285156 33 41.191406 33 C 41.09375 33 40.332031 31.648438 39.5 30 C 37.804688 26.644531 37.34375 26.207031 38.035156 28.621094 C 38.289062 29.511719 38.492188 30.921875 38.476562 31.746094 C 38.457031 33.273438 42.410156 41.902344 43.160156 41.964844 C 43.386719 41.984375 43.890625 42.316406 44.277344 42.707031 C 45.085938 43.515625 47 43.195312 47 42.253906 C 47 41.90625 47.335938 41.34375 47.75 41 C 48.25 40.585938 48.5 39.464844 48.5 37.660156 C 48.5 35.972656 48.691406 35.058594 49 35.25 C 49.273438 35.421875 49.5 36.109375 49.5 36.78125 C 49.5 37.53125 49.789062 38 50.25 38 C 51.382812 38 51.230469 42.335938 50.011719 44.722656 C 49.039062 46.636719 49.019531 46.644531 48.546875 45.453125 C 48.28125 44.792969 48.046875 44.476562 48.023438 44.75 C 48.003906 45.023438 47.765625 44.914062 47.5 44.5 C 47.195312 44.027344 47.011719 43.972656 47.007812 44.359375 C 47.003906 44.695312 46.71875 44.859375 46.371094 44.726562 C 45.996094 44.582031 45.386719 45.304688 44.863281 46.511719 C 44.382812 47.625 43.695312 48.648438 43.335938 48.785156 C 42.835938 48.976562 42.71875 50.644531 42.824219 56.027344 C 42.960938 62.867188 43.507812 65.851562 44.269531 63.878906 C 44.453125 63.398438 44.804688 63.128906 45.050781 63.28125 C 45.296875 63.433594 45.5 63.207031 45.5 62.78125 C 45.5 62.351562 45.726562 62 46 62 C 46.273438 62 46.5 61.3125 46.5 60.46875 C 46.5 59.628906 46.699219 59.0625 46.941406 59.210938 C 47.179688 59.363281 47.265625 60.492188 47.125 61.726562 C 46.953125 63.25 47.144531 64.546875 47.71875 65.757812 C 48.183594 66.738281 48.464844 67.925781 48.339844 68.394531 C 48.179688 69.015625 48.101562 68.941406 48.058594 68.125 C 48.027344 67.507812 47.773438 67 47.5 67 C 47.226562 67 47 66.664062 47 66.25 C 47 65.835938 46.632812 65.5 46.183594 65.5 C 45.539062 65.5 45.425781 65.847656 45.644531 67.1875 L 45.917969 68.875 L 44.636719 67.6875 C 43.929688 67.035156 43.160156 66.5 42.925781 66.5 C 42.691406 66.5 42.46875 65.207031 42.433594 63.625 L 42.367188 60.75 L 42.039062 63.074219 C 41.820312 64.660156 41.128906 66.148438 39.859375 67.78125 C 37.886719 70.308594 37.691406 71.121094 38.519531 73.300781 C 38.894531 74.289062 39.1875 74.511719 39.585938 74.113281 C 39.984375 73.714844 40.429688 73.757812 41.21875 74.273438 C 41.8125 74.664062 43.933594 75.066406 45.933594 75.167969 C 47.933594 75.269531 49.300781 75.183594 48.96875 74.980469 C 48.53125 74.710938 48.507812 74.105469 48.878906 72.679688 L 49.382812 70.75 L 49.742188 72.316406 C 50.117188 73.960938 51.886719 75.1875 52.941406 74.535156 C 53.375 74.269531 53.195312 73.566406 52.273438 71.960938 C 51.578125 70.742188 51.019531 69.300781 51.027344 68.75 C 51.035156 68.171875 51.332031 68.554688 51.726562 69.660156 C 52.507812 71.855469 53.042969 72.511719 53.351562 71.652344 C 53.46875 71.324219 53.894531 71.183594 54.296875 71.335938 C 54.820312 71.539062 54.878906 71.792969 54.503906 72.246094 C 53.894531 72.980469 54.347656 74.5 55.179688 74.496094 C 55.492188 74.496094 56.457031 74.066406 57.324219 73.535156 C 59.152344 72.421875 59.964844 70.269531 59.792969 67 C 59.730469 65.761719 59.636719 63.902344 59.589844 62.863281 C 59.519531 61.378906 59.246094 60.878906 58.3125 60.523438 C 56.394531 59.796875 55.929688 54.042969 57.691406 52.882812 C 58.027344 52.660156 57.851562 52.507812 57.25 52.496094 C 56.292969 52.476562 56.296875 52.441406 57.367188 51.613281 C 58.308594 50.886719 58.414062 50.515625 58.035156 49.25 C 57.789062 48.425781 57.566406 48.097656 57.542969 48.519531 C 57.496094 49.351562 55.5 49.761719 55.5 48.941406 C 55.5 48.664062 55.738281 48.589844 56.035156 48.769531 C 56.351562 48.96875 56.503906 48.734375 56.410156 48.1875 C 56.320312 47.683594 56.476562 47.265625 56.75 47.253906 C 57.800781 47.214844 58.5 46.394531 58.5 45.207031 C 58.5 44.53125 58.945312 42.707031 59.492188 41.152344 C 60.167969 39.222656 60.324219 38.140625 59.984375 37.730469 C 59.484375 37.128906 59.8125 35.5 60.429688 35.5 C 60.609375 35.5 61.042969 34.847656 61.394531 34.054688 C 61.75 33.257812 62.535156 32.457031 63.144531 32.269531 C 63.867188 32.050781 64.023438 31.839844 63.59375 31.664062 C 63.070312 31.449219 63.089844 31.230469 63.6875 30.570312 C 64.414062 29.765625 64.671875 25.671875 64.507812 17.5 C 64.457031 14.78125 64.445312 14.765625 63.792969 16.25 L 63.132812 17.75 L 62.613281 16 C 62.105469 14.296875 62.089844 14.285156 62.046875 15.679688 C 62.011719 16.675781 61.792969 17.027344 61.3125 16.84375 C 60.933594 16.695312 60.398438 16.800781 60.125 17.074219 C 59.792969 17.40625 59.519531 17.140625 59.304688 16.285156 C 58.9375 14.832031 58 14.539062 57.996094 15.875 C 57.996094 16.355469 57.546875 17.425781 57 18.25 L 56.007812 19.75 L 56.003906 17.125 C 56 15.125 55.820312 14.5 55.25 14.5 C 54.835938 14.5 54.5 14.863281 54.5 15.304688 C 54.5 15.8125 54.226562 16 53.75 15.820312 C 53.128906 15.582031 53 16.125 53 19.015625 C 53 21.878906 52.816406 22.683594 51.957031 23.542969 C 51.386719 24.113281 50.804688 24.472656 50.667969 24.332031 C 50.527344 24.195312 50.886719 23.613281 51.457031 23.042969 C 52.714844 21.785156 52.722656 21.605469 51.664062 17.84375 C 50.941406 15.257812 50.75 14.980469 50.207031 15.722656 C 49.285156 16.984375 48.855469 21.054688 49.472656 22.675781 C 49.824219 23.601562 49.839844 24.363281 49.519531 24.914062 C 49.132812 25.574219 49.023438 25.382812 49 24 L 48.964844 22.25 L 48.039062 23.363281 C 47.136719 24.441406 47.101562 24.445312 46.851562 23.488281 C 46.710938 22.945312 46.75 22.5 46.945312 22.5 C 47.136719 22.5 47.566406 20.652344 47.894531 18.398438 C 48.542969 13.933594 48.105469 12.472656 46.824219 14.824219 M 59 27.5 C 58.582031 28.28125 58.621094 28.5 59.175781 28.5 C 59.5625 28.5 60 28.050781 60.144531 27.5 C 60.289062 26.949219 60.210938 26.5 59.972656 26.5 C 59.730469 26.5 59.292969 26.949219 59 27.5 M 55.25 28.5 C 55.421875 28.773438 55.65625 29 55.78125 29 C 55.902344 29 56 28.773438 56 28.5 C 56 28.226562 55.761719 28 55.46875 28 C 55.179688 28 55.078125 28.226562 55.25 28.5 M 57.285156 29.285156 C 57.101562 30.019531 57.046875 30.714844 57.164062 30.832031 C 57.285156 30.949219 57.53125 30.445312 57.714844 29.714844 C 57.898438 28.980469 57.953125 28.285156 57.835938 28.167969 C 57.714844 28.050781 57.46875 28.554688 57.285156 29.285156 M 60.730469 29.535156 C 60.546875 29.828125 60.53125 30.199219 60.695312 30.363281 C 60.859375 30.523438 60.742188 30.960938 60.433594 31.328125 C 60.023438 31.824219 60.03125 32 60.46875 32 C 60.792969 32 60.898438 32.261719 60.703125 32.578125 C 60.476562 32.941406 60.566406 33.019531 60.9375 32.789062 C 61.261719 32.589844 61.472656 31.652344 61.410156 30.710938 C 61.285156 28.847656 61.222656 28.738281 60.730469 29.535156 M 55.058594 42.097656 C 55.027344 42.84375 54.535156 43.769531 53.957031 44.175781 C 53.089844 44.78125 53.007812 45.082031 53.472656 45.953125 C 53.78125 46.527344 54.476562 47 55.015625 47 C 55.804688 47 55.988281 46.675781 55.941406 45.375 C 55.910156 44.480469 55.710938 43.074219 55.5 42.25 L 55.117188 40.75 L 55.058594 42.097656 M 53.574219 59.042969 C 53.617188 62.179688 53.769531 64.074219 53.910156 63.25 C 54.140625 61.933594 54.253906 62.121094 54.820312 64.75 L 55.46875 67.75 L 55.21875 64.25 C 54.804688 58.402344 54.253906 54.085938 53.867188 53.699219 C 53.664062 53.496094 53.535156 55.902344 53.574219 59.042969 M 47 56.5 C 46.679688 57.097656 46.53125 57.699219 46.667969 57.835938 C 46.804688 57.972656 47.179688 57.597656 47.5 57 C 47.820312 56.402344 47.96875 55.800781 47.832031 55.664062 C 47.695312 55.527344 47.320312 55.902344 47 56.5 M 48.101562 57.457031 C 47.410156 59.398438 47.628906 59.929688 48.738281 59.011719 C 49.40625 58.453125 49.5 58.777344 49.5 61.6875 C 49.5 64.886719 49.542969 65 50.75 65 C 51.898438 65 52 64.816406 52 62.75 C 52 61.140625 51.796875 60.5 51.292969 60.5 C 50.902344 60.5 50.46875 60.78125 50.332031 61.125 C 50.191406 61.46875 50.0625 61.0625 50.039062 60.226562 C 50.019531 59.386719 49.796875 58.488281 49.546875 58.226562 C 49.300781 57.964844 49.011719 57.300781 48.90625 56.75 C 48.75 55.953125 48.589844 56.097656 48.101562 57.457031 M 52.636719 62.5 C 52.636719 63.738281 52.734375 64.242188 52.851562 63.625 C 52.972656 63.007812 52.972656 61.992188 52.851562 61.375 C 52.734375 60.757812 52.636719 61.261719 52.636719 62.5 M 46.039062 71.292969 C 46.0625 71.875 46.183594 71.992188 46.339844 71.59375 C 46.484375 71.234375 46.46875 70.800781 46.300781 70.636719 C 46.136719 70.46875 46.019531 70.765625 46.039062 71.292969 M 43 72.53125 C 43 73.09375 43.226562 73.421875 43.5 73.25 C 43.773438 73.078125 44 72.617188 44 72.21875 C 44 71.824219 43.773438 71.5 43.5 71.5 C 43.226562 71.5 43 71.964844 43 72.53125 "/>
</g>
</svg>
