<?xml version="1.0" encoding="UTF-8"?>
<svg xmlns="http://www.w3.org/2000/svg" xmlns:xlink="http://www.w3.org/1999/xlink" width="100px" height="100px" viewBox="0 0 100 100" version="1.1">
<g id="surface1">
<path style=" stroke:none;fill-rule:evenodd;fill:rgb(0%,0%,0%);fill-opacity:1;" d="M 27.796875 21.125 C 27.664062 22.019531 27.425781 30.289062 27.273438 39.5 C 27.117188 48.710938 26.847656 61.8125 26.667969 68.613281 L 26.34375 80.980469 L 29.796875 82.605469 C 32.992188 84.113281 33.621094 84.230469 38.25 84.207031 C 42.988281 84.183594 47.15625 83.460938 47.707031 82.566406 C 47.847656 82.34375 48.542969 77.578125 49.253906 71.972656 C 49.964844 66.371094 50.617188 61.714844 50.703125 61.632812 C 50.785156 61.546875 51.371094 65.925781 51.996094 71.363281 C 52.625 76.800781 53.335938 81.636719 53.578125 82.109375 C 54.476562 83.859375 62.539062 84.976562 67.265625 84 C 70.4375 83.34375 73.4375 82.027344 74.402344 80.867188 C 74.847656 80.332031 74.8125 73.023438 74.257812 49.957031 C 73.855469 33.34375 73.519531 19.695312 73.511719 19.625 C 73.507812 19.554688 63.273438 19.5 50.773438 19.5 L 28.046875 19.5 L 27.796875 21.125 M 30 23.75 L 30 26 L 41 26 L 41 21.5 L 30 21.5 L 30 23.75 M 43 23.75 L 43 26 L 58.5 26 L 58.5 21.5 L 43 21.5 L 43 23.75 M 60.5 23.75 L 60.5 26 L 71.5 26 L 71.5 21.5 L 60.5 21.5 L 60.5 23.75 M 29.855469 28.308594 C 29.355469 28.8125 29.410156 41 29.914062 41 C 30.699219 41 32.457031 38.726562 33.503906 36.359375 C 34.101562 35.003906 34.597656 32.742188 34.652344 31.113281 L 34.75 28.25 L 32.480469 28.101562 C 31.234375 28.019531 30.050781 28.113281 29.855469 28.308594 M 36.886719 31.480469 C 36.511719 36.695312 34.011719 41.199219 30.285156 43.363281 C 29.832031 43.628906 29.511719 45.578125 29.265625 49.546875 L 28.910156 55.347656 L 32.226562 55.65625 C 34.050781 55.828125 35.761719 56.105469 36.035156 56.273438 C 36.503906 56.5625 36.457031 58.527344 35.6875 69.875 L 35.410156 74 L 28.5 74 L 28.5 79.929688 L 31.375 81.011719 C 33.820312 81.929688 35.050781 82.066406 39.609375 81.914062 C 42.554688 81.816406 45.207031 81.492188 45.503906 81.199219 C 45.796875 80.902344 46.859375 74.074219 47.867188 66.027344 C 49.175781 55.535156 49.882812 51.320312 50.367188 51.136719 C 50.738281 50.992188 51.1875 51.023438 51.367188 51.199219 C 51.546875 51.378906 52.507812 58.046875 53.503906 66.019531 C 54.542969 74.34375 55.570312 80.769531 55.917969 81.117188 C 56.949219 82.148438 66.457031 82.261719 69.417969 81.277344 C 70.796875 80.820312 72.140625 80.175781 72.40625 79.847656 C 72.671875 79.519531 72.773438 78.070312 72.632812 76.625 L 72.371094 74 L 66.097656 74 L 65.8125 71.125 C 65.65625 69.542969 65.386719 65.507812 65.210938 62.160156 L 64.894531 56.070312 L 68.445312 55.722656 L 72 55.371094 L 72 49.433594 C 72 45.953125 71.800781 43.5 71.515625 43.5 C 70.472656 43.5 67.367188 40.207031 66.140625 37.796875 C 65.226562 36 64.773438 34.183594 64.605469 31.625 L 64.367188 28 L 56.527344 28 L 56.386719 35.605469 L 56.25 43.207031 L 53.285156 44.875 C 48.648438 47.480469 48.773438 47.679688 48.613281 37.117188 L 48.476562 28 L 37.132812 28 L 36.886719 31.480469 M 50.832031 28.332031 C 50.316406 28.851562 50.4375 43.5 50.960938 43.5 C 51.210938 43.5 52.109375 43.105469 52.957031 42.625 L 54.492188 41.75 L 54.5 28 L 52.832031 28 C 51.917969 28 51.015625 28.148438 50.832031 28.332031 M 66.5 30.160156 C 66.5 33.625 67.808594 37.160156 69.980469 39.5625 L 71.960938 41.75 L 71.976562 39 C 71.984375 37.488281 71.847656 34.394531 71.671875 32.125 L 71.351562 28 L 66.5 28 L 66.5 30.160156 M 29 59.1875 L 29 61 L 31.5 61 C 33.945312 61 34 60.964844 34 59.5 C 34 58.367188 33.769531 58 33.0625 58 C 32.546875 58 31.421875 57.859375 30.5625 57.6875 C 29.042969 57.382812 29 57.425781 29 59.1875 M 69.074219 57.871094 C 67.117188 58.042969 66.929688 58.171875 67.191406 59.15625 C 67.355469 59.757812 67.488281 60.417969 67.492188 60.625 C 67.496094 60.832031 68.640625 61 70.03125 61 L 72.5625 61 L 72.40625 59.414062 C 72.230469 57.648438 72.144531 57.605469 69.074219 57.871094 M 29 67.191406 C 29 71.117188 29.070312 71.402344 30.125 71.683594 C 33.160156 72.5 33.328125 72.320312 33.695312 67.914062 C 34.082031 63.308594 33.914062 63.019531 30.875 63.007812 L 29 63 L 29 67.191406 M 68.125 63.332031 C 67.433594 63.609375 67.347656 65.394531 67.824219 69.375 L 68.140625 72 L 72.5 72 L 72.5 63 L 70.625 63.039062 C 69.59375 63.0625 68.46875 63.191406 68.125 63.332031 "/>
</g>
</svg>
