<?xml version="1.0" encoding="UTF-8"?>
<svg xmlns="http://www.w3.org/2000/svg" xmlns:xlink="http://www.w3.org/1999/xlink" width="24px" height="24px" viewBox="0 0 24 24" version="1.1">
<g id="surface1">
<path style=" stroke:none;fill-rule:evenodd;fill:rgb(0%,0%,0%);fill-opacity:1;" d="M 6.671875 5.070312 C 6.640625 5.285156 6.582031 7.269531 6.546875 9.480469 C 6.507812 11.691406 6.445312 14.835938 6.402344 16.46875 L 6.324219 19.433594 L 7.152344 19.824219 C 7.917969 20.1875 8.070312 20.214844 9.179688 20.210938 C 10.316406 20.203125 11.316406 20.03125 11.449219 19.816406 C 11.484375 19.761719 11.648438 18.617188 11.820312 17.273438 C 11.992188 15.929688 12.148438 14.8125 12.167969 14.792969 C 12.1875 14.769531 12.328125 15.824219 12.480469 17.128906 C 12.628906 18.433594 12.800781 19.59375 12.859375 19.707031 C 13.074219 20.125 15.007812 20.394531 16.144531 20.160156 C 16.90625 20.003906 17.625 19.6875 17.855469 19.410156 C 17.964844 19.28125 17.957031 17.527344 17.820312 11.988281 C 17.726562 8.003906 17.644531 4.726562 17.644531 4.710938 C 17.640625 4.695312 15.183594 4.679688 12.183594 4.679688 L 6.730469 4.679688 L 6.671875 5.070312 M 7.199219 5.699219 L 7.199219 6.238281 L 9.839844 6.238281 L 9.839844 5.160156 L 7.199219 5.160156 L 7.199219 5.699219 M 10.320312 5.699219 L 10.320312 6.238281 L 14.039062 6.238281 L 14.039062 5.160156 L 10.320312 5.160156 L 10.320312 5.699219 M 14.519531 5.699219 L 14.519531 6.238281 L 17.160156 6.238281 L 17.160156 5.160156 L 14.519531 5.160156 L 14.519531 5.699219 M 7.164062 6.792969 C 7.046875 6.914062 7.058594 9.839844 7.179688 9.839844 C 7.367188 9.839844 7.789062 9.292969 8.039062 8.726562 C 8.183594 8.402344 8.304688 7.859375 8.316406 7.46875 L 8.339844 6.78125 L 7.796875 6.746094 C 7.496094 6.726562 7.210938 6.746094 7.164062 6.792969 M 8.851562 7.554688 C 8.761719 8.808594 8.164062 9.886719 7.269531 10.40625 C 7.160156 10.472656 7.082031 10.9375 7.023438 11.890625 L 6.9375 13.285156 L 7.734375 13.359375 C 8.171875 13.398438 8.582031 13.464844 8.648438 13.503906 C 8.761719 13.574219 8.75 14.046875 8.566406 16.769531 L 8.5 17.761719 L 6.839844 17.761719 L 6.839844 19.183594 L 7.53125 19.441406 C 8.117188 19.664062 8.414062 19.695312 9.503906 19.660156 C 10.214844 19.636719 10.847656 19.558594 10.921875 19.488281 C 10.992188 19.417969 11.246094 17.777344 11.488281 15.847656 C 11.800781 13.328125 11.972656 12.316406 12.089844 12.273438 C 12.175781 12.238281 12.285156 12.246094 12.328125 12.289062 C 12.371094 12.332031 12.601562 13.929688 12.839844 15.84375 C 13.089844 17.84375 13.335938 19.386719 13.421875 19.46875 C 13.667969 19.714844 15.949219 19.742188 16.660156 19.507812 C 16.992188 19.398438 17.3125 19.242188 17.378906 19.164062 C 17.441406 19.085938 17.464844 18.738281 17.433594 18.390625 L 17.371094 17.761719 L 15.863281 17.761719 L 15.796875 17.070312 C 15.757812 16.691406 15.691406 15.722656 15.652344 14.917969 L 15.574219 13.457031 L 16.425781 13.371094 L 17.28125 13.289062 L 17.28125 11.863281 C 17.28125 11.027344 17.230469 10.441406 17.164062 10.441406 C 16.914062 10.441406 16.167969 9.648438 15.875 9.070312 C 15.652344 8.640625 15.546875 8.203125 15.503906 7.589844 L 15.449219 6.71875 L 13.566406 6.71875 L 13.53125 8.546875 L 13.5 10.371094 L 12.789062 10.769531 C 11.675781 11.394531 11.707031 11.445312 11.667969 8.910156 L 11.632812 6.71875 L 8.914062 6.71875 L 8.851562 7.554688 M 12.199219 6.800781 C 12.074219 6.925781 12.105469 10.441406 12.230469 10.441406 C 12.289062 10.441406 12.507812 10.34375 12.710938 10.230469 L 13.078125 10.019531 L 13.078125 6.71875 L 12.679688 6.71875 C 12.460938 6.71875 12.242188 6.757812 12.199219 6.800781 M 15.960938 7.238281 C 15.960938 8.070312 16.273438 8.917969 16.796875 9.496094 L 17.269531 10.019531 L 17.273438 9.359375 C 17.277344 8.996094 17.242188 8.253906 17.203125 7.710938 L 17.125 6.71875 L 15.960938 6.71875 L 15.960938 7.238281 M 6.960938 14.203125 L 6.960938 14.640625 L 7.558594 14.640625 C 8.148438 14.640625 8.160156 14.632812 8.160156 14.28125 C 8.160156 14.007812 8.105469 13.921875 7.933594 13.921875 C 7.8125 13.921875 7.542969 13.886719 7.335938 13.84375 C 6.96875 13.773438 6.960938 13.78125 6.960938 14.203125 M 16.578125 13.890625 C 16.109375 13.929688 16.0625 13.960938 16.125 14.199219 C 16.164062 14.34375 16.199219 14.5 16.199219 14.550781 C 16.199219 14.597656 16.472656 14.640625 16.808594 14.640625 L 17.414062 14.640625 L 17.378906 14.257812 C 17.335938 13.835938 17.316406 13.824219 16.578125 13.890625 M 6.960938 16.125 C 6.960938 17.066406 6.976562 17.136719 7.230469 17.203125 C 7.957031 17.398438 8 17.355469 8.085938 16.300781 C 8.179688 15.195312 8.140625 15.125 7.410156 15.121094 L 6.960938 15.121094 L 6.960938 16.125 M 16.351562 15.199219 C 16.183594 15.265625 16.164062 15.695312 16.277344 16.648438 L 16.351562 17.28125 L 17.398438 17.28125 L 17.398438 15.121094 L 16.949219 15.128906 C 16.703125 15.132812 16.433594 15.167969 16.351562 15.199219 "/>
</g>
</svg>
