<?xml version="1.0" encoding="UTF-8"?>
<svg xmlns="http://www.w3.org/2000/svg" xmlns:xlink="http://www.w3.org/1999/xlink" width="24px" height="24px" viewBox="0 0 24 24" version="1.1">
<g id="surface1">
<path style=" stroke:none;fill-rule:evenodd;fill:rgb(0%,0%,0%);fill-opacity:1;" d="M 5 4.824219 C 4.691406 5.136719 4.515625 5.214844 4.078125 5.226562 C 3.171875 5.253906 3.136719 5.265625 2.65625 5.699219 C 1.621094 6.632812 1.257812 8.277344 1.269531 11.941406 C 1.277344 14.871094 1.421875 15.726562 2.167969 17.25 C 3.238281 19.4375 5.519531 20.441406 7.308594 19.515625 C 9.546875 18.351562 10.582031 15.492188 10.394531 10.980469 C 10.304688 8.855469 10.09375 7.675781 9.617188 6.65625 C 9.148438 5.65625 8.648438 5.28125 7.796875 5.28125 C 7.21875 5.28125 7.121094 5.238281 6.773438 4.859375 C 6.449219 4.507812 6.304688 4.441406 5.882812 4.441406 C 5.476562 4.441406 5.308594 4.511719 5 4.824219 M 5.410156 5.179688 C 4.882812 5.742188 4.6875 7.234375 4.6875 10.679688 C 4.683594 13.257812 4.824219 14.835938 5.21875 16.679688 C 5.472656 17.878906 5.871094 19.199219 5.976562 19.199219 C 6.144531 19.199219 6.742188 18.335938 7.082031 17.605469 C 7.882812 15.890625 8.070312 14.40625 8.015625 10.25 C 7.980469 7.433594 7.945312 6.953125 7.753906 6.507812 C 7.527344 5.984375 7.269531 5.765625 6.878906 5.753906 C 6.757812 5.753906 6.550781 5.578125 6.417969 5.367188 C 6.117188 4.886719 5.746094 4.816406 5.410156 5.179688 M 3.148438 5.945312 C 2.1875 6.621094 1.570312 9.511719 1.714844 12.660156 C 1.867188 15.855469 2.730469 18.003906 4.195312 18.824219 L 4.699219 19.105469 L 4.378906 18.597656 C 3.929688 17.886719 3.53125 16.773438 3.277344 15.523438 C 3.097656 14.640625 3.0625 13.84375 3.0625 10.800781 C 3.058594 7.382812 3.078125 7.09375 3.3125 6.449219 C 3.582031 5.710938 3.5625 5.65625 3.148438 5.945312 M 4.289062 5.894531 C 3.636719 6.261719 3.453125 7.917969 3.601562 12.179688 C 3.714844 15.496094 3.890625 16.554688 4.554688 17.871094 C 4.964844 18.683594 5.246094 18.957031 5.105469 18.40625 C 4.753906 17.023438 4.429688 15.382812 4.3125 14.378906 C 4.144531 12.925781 4.226562 6.851562 4.421875 6.246094 C 4.578125 5.765625 4.566406 5.738281 4.289062 5.894531 M 8.1875 6.242188 C 8.765625 7.410156 8.75 13.894531 8.164062 16.140625 C 7.902344 17.152344 7.316406 18.511719 6.996094 18.867188 C 6.710938 19.179688 6.960938 19.125 7.566406 18.742188 C 8.214844 18.332031 8.660156 17.765625 9.121094 16.769531 C 9.707031 15.5 9.898438 14.269531 9.890625 11.820312 C 9.882812 9.589844 9.765625 8.644531 9.34375 7.347656 C 9.09375 6.578125 8.46875 5.761719 8.128906 5.761719 C 7.980469 5.761719 7.988281 5.835938 8.1875 6.242188 M 16.800781 7.457031 C 16.457031 7.929688 16.078125 8.667969 15.6875 9.613281 L 15.507812 10.042969 L 14.238281 10.1875 C 12.738281 10.355469 11.761719 10.621094 11.761719 10.859375 C 11.761719 11.082031 13.089844 12.726562 13.621094 13.160156 L 14.039062 13.5 L 13.867188 14.21875 C 13.605469 15.324219 13.417969 16.902344 13.523438 17.078125 C 13.671875 17.320312 14.433594 17.113281 15.753906 16.464844 L 16.914062 15.894531 L 17.96875 16.425781 C 19.015625 16.949219 20.171875 17.398438 20.480469 17.398438 C 20.710938 17.398438 20.683594 16.371094 20.414062 15.058594 L 20.195312 13.980469 L 21.324219 12.792969 C 21.945312 12.136719 22.53125 11.449219 22.628906 11.265625 C 22.785156 10.960938 22.78125 10.917969 22.589844 10.816406 C 22.359375 10.691406 20.777344 10.363281 19.894531 10.253906 C 19.332031 10.1875 19.328125 10.179688 18.824219 9.261719 C 18.175781 8.082031 17.421875 6.960938 17.277344 6.960938 C 17.214844 6.960938 17 7.183594 16.800781 7.457031 M 17.589844 8.460938 C 17.742188 9.21875 18.136719 10.632812 18.238281 10.796875 C 18.324219 10.9375 18.386719 10.914062 18.578125 10.675781 L 18.816406 10.386719 L 18.355469 9.480469 C 18.105469 8.984375 17.8125 8.472656 17.707031 8.339844 C 17.523438 8.109375 17.519531 8.113281 17.589844 8.460938 M 16.535156 8.941406 C 15.984375 10.179688 15.960938 10.273438 16.136719 10.515625 C 16.226562 10.640625 16.332031 10.707031 16.371094 10.667969 C 16.492188 10.546875 16.9375 8.648438 16.898438 8.433594 C 16.875 8.308594 16.730469 8.511719 16.535156 8.941406 M 17.003906 10.414062 C 16.882812 10.792969 16.765625 11.152344 16.738281 11.21875 C 16.710938 11.285156 16.839844 11.523438 17.023438 11.746094 L 17.359375 12.152344 L 17.617188 11.792969 L 17.875 11.429688 L 17.621094 10.664062 C 17.484375 10.246094 17.335938 9.863281 17.292969 9.816406 C 17.253906 9.769531 17.121094 10.039062 17.003906 10.414062 M 14.285156 10.699219 C 13.726562 10.757812 13.222656 10.851562 13.164062 10.90625 C 13.109375 10.960938 13.472656 11.070312 13.976562 11.144531 C 14.910156 11.28125 15.839844 11.324219 15.839844 11.226562 C 15.839844 11.039062 15.539062 10.5625 15.429688 10.574219 C 15.359375 10.585938 14.84375 10.640625 14.285156 10.699219 M 19.117188 10.828125 C 18.738281 11.3125 18.753906 11.320312 19.921875 11.234375 C 21.339844 11.125 21.667969 10.972656 20.695312 10.867188 C 20.300781 10.824219 19.8125 10.765625 19.605469 10.734375 C 19.382812 10.699219 19.1875 10.738281 19.117188 10.828125 M 12.953125 11.707031 C 13.359375 12.253906 14.226562 13.078125 14.394531 13.078125 C 14.496094 13.078125 14.652344 13.03125 14.738281 12.976562 C 14.902344 12.871094 14.304688 12.375 13.261719 11.753906 C 12.835938 11.503906 12.800781 11.5 12.953125 11.707031 M 18.15625 12.101562 C 17.828125 12.53125 17.871094 12.640625 18.4375 12.789062 C 18.65625 12.851562 19.460938 12.398438 20.082031 11.867188 C 20.140625 11.820312 19.800781 11.761719 19.324219 11.742188 C 18.46875 11.699219 18.460938 11.703125 18.15625 12.101562 M 20.507812 12.246094 C 19.144531 13.066406 19.089844 13.125 19.5625 13.320312 C 19.941406 13.476562 19.941406 13.476562 20.859375 12.558594 C 21.363281 12.054688 21.71875 11.640625 21.648438 11.640625 C 21.578125 11.640625 21.0625 11.914062 20.507812 12.246094 M 14.929688 12.296875 C 15.570312 12.820312 15.652344 12.851562 16.050781 12.757812 C 16.574219 12.632812 16.640625 12.484375 16.335938 12.109375 C 16.136719 11.863281 15.980469 11.820312 15.171875 11.777344 L 14.234375 11.730469 L 14.929688 12.296875 M 16.164062 13.285156 C 16.042969 13.316406 15.902344 13.457031 15.84375 13.601562 C 15.789062 13.742188 15.628906 14.148438 15.488281 14.503906 L 15.230469 15.148438 L 15.625 14.886719 C 15.84375 14.746094 16.195312 14.539062 16.410156 14.429688 C 16.757812 14.257812 16.800781 14.183594 16.800781 13.71875 C 16.800781 13.179688 16.734375 13.136719 16.164062 13.285156 M 17.398438 13.664062 C 17.398438 14.066406 17.464844 14.148438 18.179688 14.667969 C 18.609375 14.980469 18.957031 15.222656 18.953125 15.207031 C 18.953125 15.191406 18.824219 14.804688 18.671875 14.351562 C 18.410156 13.554688 18.378906 13.515625 17.898438 13.371094 L 17.398438 13.226562 L 17.398438 13.664062 M 14.652344 13.667969 C 14.496094 13.769531 13.996094 15.957031 14.105469 16.066406 C 14.167969 16.128906 15.238281 13.886719 15.238281 13.695312 C 15.238281 13.535156 14.890625 13.519531 14.652344 13.667969 M 19.132812 14.128906 C 19.261719 14.648438 19.964844 16.125 20.015625 15.976562 C 20.078125 15.785156 19.691406 14.136719 19.539062 13.953125 C 19.46875 13.867188 19.332031 13.800781 19.230469 13.800781 C 19.097656 13.800781 19.074219 13.882812 19.132812 14.128906 M 17.28125 15.15625 C 17.28125 15.582031 17.371094 15.644531 19.078125 16.40625 L 19.738281 16.699219 L 19.378906 16.320312 C 19.011719 15.933594 17.492188 14.761719 17.355469 14.761719 C 17.3125 14.761719 17.28125 14.9375 17.28125 15.15625 M 15.71875 15.460938 C 15.289062 15.777344 14.863281 16.128906 14.773438 16.242188 C 14.617188 16.429688 14.632812 16.4375 14.949219 16.316406 C 15.136719 16.246094 15.605469 16.019531 15.988281 15.816406 C 16.53125 15.527344 16.679688 15.386719 16.679688 15.164062 C 16.679688 15.007812 16.640625 14.878906 16.589844 14.882812 C 16.539062 14.882812 16.148438 15.144531 15.71875 15.460938 "/>
</g>
</svg>
