<?xml version="1.0" encoding="UTF-8"?>
<svg xmlns="http://www.w3.org/2000/svg" xmlns:xlink="http://www.w3.org/1999/xlink" width="100px" height="100px" viewBox="0 0 100 100" version="1.1">
<g id="surface1">
<path style=" stroke:none;fill-rule:evenodd;fill:rgb(0%,0%,0%);fill-opacity:1;" d="M 46.296875 3.242188 C 45.21875 3.625 43.871094 4.40625 43.296875 4.980469 C 42.71875 5.554688 39.539062 10.683594 36.230469 16.378906 L 30.207031 26.734375 L 18.257812 29.355469 C 5.613281 32.132812 4.457031 32.609375 1.824219 36.132812 C 0.523438 37.878906 0.15625 42.214844 1.121094 44.515625 C 1.703125 45.90625 9.09375 54.617188 16.828125 63.03125 L 18.003906 64.308594 L 16.710938 76.691406 L 15.417969 89.070312 L 16.746094 91.785156 C 17.753906 93.847656 18.628906 94.828125 20.390625 95.859375 C 24.4375 98.230469 26.117188 97.917969 38.460938 92.5 C 44.351562 89.914062 49.542969 87.828125 49.992188 87.863281 C 50.441406 87.894531 55.429688 89.949219 61.078125 92.425781 C 66.726562 94.902344 72.132812 97.074219 73.09375 97.253906 C 77.386719 98.058594 82.324219 94.847656 83.507812 90.480469 C 84.011719 88.632812 83.933594 86.410156 83.050781 77.5 C 82.464844 71.585938 81.988281 66.121094 81.992188 65.351562 C 82 64.261719 83.671875 62.089844 89.625 55.445312 C 93.820312 50.765625 97.632812 46.21875 98.105469 45.34375 C 99.300781 43.113281 99.246094 38.941406 97.988281 36.480469 C 96.027344 32.636719 95.394531 32.40625 73.738281 27.710938 C 71.808594 27.292969 69.996094 26.792969 69.714844 26.601562 C 69.429688 26.40625 66.570312 21.738281 63.363281 16.222656 C 60.152344 10.710938 57.011719 5.714844 56.382812 5.121094 C 53.753906 2.652344 49.9375 1.941406 46.296875 3.242188 M 47.136719 15.617188 C 45.800781 17.890625 42.914062 22.867188 40.726562 26.679688 C 38.539062 30.492188 36.226562 33.960938 35.585938 34.390625 C 34.945312 34.816406 30.445312 36.035156 25.585938 37.089844 C 20.726562 38.148438 15.117188 39.371094 13.125 39.808594 C 11.132812 40.242188 9.5 40.746094 9.5 40.929688 C 9.5 41.109375 13.332031 45.523438 18.019531 50.742188 C 22.703125 55.960938 26.683594 60.796875 26.859375 61.488281 C 27.035156 62.183594 26.679688 67.925781 26.074219 74.25 C 24.839844 87.136719 24.800781 88 25.484375 88 C 25.75 88 31.125 85.75 37.425781 83 C 43.726562 80.25 49.347656 78 49.917969 78 C 50.484375 78 56.046875 80.25 62.273438 83 C 68.503906 85.75 73.933594 88 74.34375 88 C 74.921875 88 75.023438 87.578125 74.804688 86.125 C 73.992188 80.714844 72.460938 62.71875 72.726562 61.671875 C 72.894531 61.003906 76.847656 56.179688 81.515625 50.953125 C 86.183594 45.726562 90 41.253906 90 41.011719 C 90 40.765625 88.367188 40.210938 86.375 39.773438 C 84.382812 39.335938 78.738281 38.101562 73.832031 37.035156 C 67.039062 35.554688 64.628906 34.824219 63.71875 33.972656 C 63.0625 33.355469 59.808594 28.164062 56.488281 22.441406 C 53.167969 16.714844 50.25 11.90625 50.007812 11.753906 C 49.765625 11.605469 48.472656 13.34375 47.136719 15.617188 M 47.535156 33.316406 C 46.65625 34.4375 46.5 35.335938 46.5 39.351562 C 46.5 43.824219 46.960938 45.789062 48.199219 46.617188 C 49.214844 47.296875 50.992188 47.007812 52 46 C 52.878906 45.121094 53 44.332031 53 39.5 C 53 34.667969 52.878906 33.878906 52 33 C 50.605469 31.605469 48.78125 31.734375 47.535156 33.316406 M 30.5 45.5 C 29.152344 46.847656 29.234375 48.71875 30.691406 49.863281 C 31.34375 50.378906 34.039062 51.4375 36.675781 52.214844 C 41.226562 53.558594 41.539062 53.589844 42.738281 52.804688 C 44.199219 51.84375 44.457031 49.527344 43.230469 48.304688 C 42.472656 47.542969 33.679688 44.5 32.242188 44.5 C 31.835938 44.5 31.050781 44.949219 30.5 45.5 M 61.621094 46.046875 C 56.539062 47.695312 55.125 48.945312 55.707031 51.261719 C 56.324219 53.710938 57.992188 53.875 63.660156 52.046875 C 66.457031 51.140625 69.03125 50.039062 69.375 49.605469 C 70.378906 48.328125 70.132812 46.148438 68.886719 45.277344 C 67.417969 44.246094 67.023438 44.289062 61.621094 46.046875 M 42.621094 58.375 C 41.261719 59.578125 37.164062 65.089844 36.429688 66.707031 C 35.914062 67.839844 35.972656 68.222656 36.84375 69.390625 C 37.539062 70.324219 38.3125 70.75 39.304688 70.75 C 40.539062 70.75 41.238281 70.101562 44.125 66.257812 C 48.117188 60.941406 48.386719 59.511719 45.65625 58.074219 C 44.195312 57.304688 43.785156 57.347656 42.621094 58.375 M 53.195312 58.757812 C 51.585938 60.367188 51.816406 61.125 55.417969 66.167969 C 59.070312 71.269531 60.472656 72.027344 62.5 70 C 64.089844 68.410156 63.699219 66.953125 60.53125 62.621094 C 56.546875 57.183594 55.382812 56.570312 53.195312 58.757812 "/>
</g>
</svg>
