<?xml version="1.0" encoding="UTF-8"?>
<svg xmlns="http://www.w3.org/2000/svg" xmlns:xlink="http://www.w3.org/1999/xlink" width="100px" height="100px" viewBox="0 0 100 100" version="1.1">
<g id="surface1">
<path style=" stroke:none;fill-rule:evenodd;fill:rgb(0%,0%,0%);fill-opacity:1;" d="M 46.25 15.304688 C 45.148438 15.710938 43.757812 15.917969 43.152344 15.765625 C 41.648438 15.394531 39.722656 16.363281 39.054688 17.828125 C 38.75 18.5 38.5 21.589844 38.5 24.695312 C 38.5 30.230469 38.476562 30.351562 37.25 30.910156 C 35.351562 31.773438 33.902344 34.414062 34.207031 36.453125 C 34.472656 38.21875 36.695312 41 37.84375 41 C 38.347656 41 38.5 42.335938 38.5 46.75 C 38.5 49.929688 38.292969 52.5 38.039062 52.5 C 37.046875 52.5 34.3125 55.3125 33.441406 57.230469 C 32.625 59.019531 32.519531 60.714844 32.511719 72.125 L 32.5 85 L 67.5 85 L 67.496094 72.625 C 67.496094 65.53125 67.269531 59.445312 66.96875 58.363281 C 66.382812 56.25 63.949219 53.210938 62.46875 52.738281 C 61.589844 52.460938 61.5 51.9375 61.5 46.996094 L 61.5 41.554688 L 62.992188 40.675781 C 64.523438 39.769531 66 37.3125 65.996094 35.675781 C 65.996094 34.257812 64.148438 31.546875 62.75 30.910156 C 61.652344 30.410156 61.5 30.027344 61.5 27.761719 C 61.5 21.550781 58.367188 16.742188 53.351562 15.253906 C 50.269531 14.335938 48.855469 14.347656 46.25 15.304688 M 46.855469 17.347656 C 46.078125 17.550781 45.976562 18.066406 46.105469 21.164062 L 46.25 24.75 L 52.625 24.890625 C 56.484375 24.972656 59 24.839844 59 24.546875 C 59 22.34375 56.230469 18.796875 53.640625 17.6875 C 52.097656 17.027344 48.738281 16.859375 46.855469 17.347656 M 41.332031 18.332031 C 41.148438 18.515625 41 20.089844 41 21.832031 C 41 24.550781 41.128906 25 41.898438 25 C 42.394531 25 43.070312 24.730469 43.398438 24.398438 C 44.027344 23.773438 44.21875 20.152344 43.695312 18.789062 C 43.390625 17.992188 41.953125 17.714844 41.332031 18.332031 M 43.25 26.714844 C 40.503906 27.695312 40.5 27.707031 40.5 33.542969 C 40.5 38.957031 40.515625 39.03125 41.773438 39.507812 C 42.511719 39.789062 43.355469 40.730469 43.78125 41.746094 C 44.621094 43.753906 45 43.878906 46.214844 42.539062 C 47.480469 41.140625 52.761719 41.132812 53.632812 42.527344 C 54.527344 43.960938 55.351562 43.714844 55.976562 41.824219 C 56.292969 40.859375 57.058594 39.90625 57.78125 39.578125 C 59.023438 39.011719 59.03125 38.972656 58.890625 33.128906 L 58.75 27.25 L 52.25 27 C 48.675781 26.863281 45.523438 26.621094 45.25 26.464844 C 44.976562 26.308594 44.074219 26.421875 43.25 26.714844 M 44 32.882812 C 43.183594 33.136719 42 34.445312 42 35.09375 C 42 35.316406 43.238281 35.5 44.75 35.5 C 47.59375 35.5 47.941406 35.238281 46.875 33.914062 C 46.113281 32.96875 45 32.570312 44 32.882812 M 54.5 32.882812 C 53.683594 33.136719 52.5 34.445312 52.5 35.09375 C 52.5 35.316406 53.738281 35.5 55.25 35.5 C 58.09375 35.5 58.441406 35.238281 57.375 33.914062 C 56.613281 32.96875 55.5 32.570312 54.5 32.882812 M 37.101562 33.601562 C 36.148438 34.550781 36.378906 37.238281 37.5 38.25 C 38.488281 39.144531 38.5 39.125 38.5 36.078125 C 38.5 32.988281 38.214844 32.484375 37.101562 33.601562 M 61.5 36 C 61.5 37.648438 61.597656 39 61.714844 39 C 61.832031 39 62.28125 38.648438 62.714844 38.214844 C 64.09375 36.835938 63.492188 33 61.898438 33 C 61.679688 33 61.5 34.351562 61.5 36 M 41 47.359375 C 41 53.53125 41.816406 58.5 42.828125 58.5 C 43.160156 58.5 43.574219 58.949219 43.75 59.5 C 43.925781 60.050781 44.457031 60.5 44.933594 60.5 C 45.410156 60.5 46.0625 60.761719 46.382812 61.082031 C 47.140625 61.839844 52.859375 61.839844 53.617188 61.082031 C 53.9375 60.761719 54.625 60.5 55.148438 60.5 C 55.667969 60.5 56.207031 60.070312 56.34375 59.546875 C 56.480469 59.023438 57.046875 58.472656 57.597656 58.328125 C 58.152344 58.183594 58.503906 57.769531 58.382812 57.40625 C 58.261719 57.046875 58.460938 56.027344 58.832031 55.140625 C 59.636719 53.207031 59.78125 41.5 59 41.5 C 58.726562 41.5 58.5 41.808594 58.5 42.183594 C 58.5 42.558594 58.035156 43.457031 57.464844 44.183594 C 56.265625 45.707031 54.292969 45.921875 52.917969 44.675781 C 51.671875 43.546875 48.480469 43.519531 47.375 44.625 C 45.605469 46.394531 42 44.96875 42 42.5 C 42 41.949219 41.773438 41.5 41.5 41.5 C 41.195312 41.5 41 43.785156 41 47.359375 M 47.589844 46.320312 C 47.992188 48.378906 52.011719 48.414062 52.40625 46.363281 C 52.546875 45.636719 52.171875 45.5 50 45.5 C 47.882812 45.5 47.453125 45.644531 47.589844 46.320312 M 36.550781 56.265625 L 35 58.035156 L 35 83 L 65 83 L 64.996094 71.875 C 64.996094 65.757812 64.765625 59.921875 64.484375 58.90625 C 64.199219 57.886719 63.25 56.457031 62.359375 55.707031 L 60.75 54.347656 L 60.25 56.644531 C 59.953125 58 59.152344 59.5625 58.285156 60.464844 C 56.601562 62.21875 53.425781 64 51.984375 64 C 51.074219 64 51 64.359375 51 68.785156 C 51 73.460938 50.972656 73.566406 49.875 73.410156 C 48.8125 73.257812 48.742188 72.988281 48.605469 68.625 C 48.476562 64.410156 48.375 64 47.480469 64 C 45.101562 64 39.503906 59.632812 39.492188 57.765625 C 39.484375 56.269531 38.941406 54.5 38.492188 54.5 C 38.277344 54.5 37.40625 55.296875 36.550781 56.265625 "/>
</g>
</svg>
