<?xml version="1.0" encoding="UTF-8"?>
<svg xmlns="http://www.w3.org/2000/svg" xmlns:xlink="http://www.w3.org/1999/xlink" width="100px" height="100px" viewBox="0 0 100 100" version="1.1">
<g id="surface1">
<path style=" stroke:none;fill-rule:evenodd;fill:rgb(0%,0%,0%);fill-opacity:1;" d="M 20.835938 20.109375 C 19.550781 21.410156 18.824219 21.726562 17 21.78125 C 13.222656 21.890625 13.0625 21.945312 11.0625 23.753906 C 6.753906 27.644531 5.234375 34.484375 5.285156 49.75 C 5.324219 61.964844 5.929688 65.527344 9.03125 71.871094 C 13.492188 80.988281 22.996094 85.179688 30.445312 81.3125 C 39.785156 76.460938 44.097656 64.542969 43.308594 45.75 C 42.941406 36.902344 42.054688 31.984375 40.070312 27.742188 C 38.117188 23.574219 36.042969 22 32.488281 22 C 30.078125 22 29.664062 21.832031 28.21875 20.25 C 26.875 18.78125 26.277344 18.5 24.519531 18.5 C 22.820312 18.5 22.121094 18.804688 20.835938 20.109375 M 22.539062 21.574219 C 20.347656 23.921875 19.53125 30.136719 19.523438 44.5 C 19.519531 55.238281 20.101562 61.816406 21.738281 69.5 C 22.800781 74.492188 24.457031 80 24.894531 80 C 25.597656 80 28.097656 76.40625 29.515625 73.359375 C 32.839844 66.214844 33.625 60.03125 33.402344 42.699219 C 33.25 30.972656 33.109375 28.976562 32.304688 27.109375 C 31.363281 24.9375 30.292969 24.015625 28.65625 23.980469 C 28.160156 23.96875 27.296875 23.238281 26.742188 22.355469 C 25.492188 20.363281 23.9375 20.074219 22.539062 21.574219 M 13.117188 24.773438 C 9.109375 27.582031 6.539062 39.636719 7.152344 52.75 C 7.773438 66.070312 11.367188 75.011719 17.476562 78.429688 L 19.582031 79.609375 L 18.246094 77.492188 C 16.371094 74.523438 14.710938 69.886719 13.65625 64.6875 C 12.910156 61 12.757812 57.675781 12.753906 45 C 12.75 30.761719 12.820312 29.558594 13.796875 26.875 C 14.917969 23.800781 14.839844 23.566406 13.117188 24.773438 M 17.871094 24.5625 C 15.144531 26.085938 14.386719 32.992188 15 50.75 C 15.472656 64.570312 16.214844 68.984375 18.980469 74.460938 C 20.695312 77.855469 21.863281 78.996094 21.273438 76.699219 C 19.800781 70.929688 18.449219 64.089844 17.964844 59.921875 C 17.261719 53.859375 17.601562 28.546875 18.421875 26.03125 C 19.078125 24.027344 19.03125 23.910156 17.871094 24.5625 M 34.117188 26.003906 C 36.527344 30.875 36.464844 57.890625 34.023438 67.25 C 32.921875 71.464844 30.492188 77.128906 29.144531 78.617188 C 27.964844 79.921875 29.003906 79.691406 31.527344 78.089844 C 34.222656 76.378906 36.082031 74.015625 38 69.871094 C 40.449219 64.578125 41.25 59.449219 41.210938 49.25 C 41.171875 39.964844 40.691406 36.019531 38.933594 30.613281 C 37.886719 27.40625 35.285156 24 33.878906 24 C 33.246094 24 33.285156 24.324219 34.117188 26.003906 M 70.003906 31.070312 C 68.574219 33.046875 66.988281 36.113281 65.359375 40.050781 L 64.613281 41.851562 L 59.332031 42.445312 C 53.082031 43.148438 49 44.253906 49 45.238281 C 49 46.171875 54.546875 53.03125 56.75 54.828125 L 58.492188 56.25 L 57.785156 59.25 C 56.695312 63.855469 55.90625 70.425781 56.351562 71.15625 C 56.972656 72.175781 60.136719 71.308594 65.636719 68.605469 L 70.476562 66.226562 L 74.863281 68.433594 C 79.226562 70.628906 84.046875 72.5 85.328125 72.5 C 86.296875 72.5 86.179688 68.21875 85.0625 62.75 L 84.140625 58.25 L 88.847656 53.296875 C 91.4375 50.574219 93.882812 47.710938 94.28125 46.941406 C 94.9375 45.671875 94.921875 45.492188 94.128906 45.070312 C 93.15625 44.550781 86.566406 43.179688 82.894531 42.730469 C 80.550781 42.445312 80.527344 42.421875 78.433594 38.597656 C 75.734375 33.667969 72.597656 29 71.984375 29 C 71.722656 29 70.832031 29.933594 70.003906 31.070312 M 73.289062 35.25 C 73.933594 38.40625 75.566406 44.296875 75.988281 44.980469 C 76.347656 45.566406 76.609375 45.472656 77.414062 44.484375 L 78.394531 43.269531 L 76.488281 39.511719 C 75.441406 37.441406 74.222656 35.300781 73.785156 34.75 C 73.015625 33.789062 72.996094 33.804688 73.289062 35.25 M 68.902344 37.257812 C 66.59375 42.410156 66.496094 42.804688 67.242188 43.824219 C 67.613281 44.332031 68.050781 44.617188 68.214844 44.453125 C 68.71875 43.945312 70.582031 36.039062 70.40625 35.132812 C 70.304688 34.613281 69.703125 35.464844 68.902344 37.257812 M 70.84375 43.398438 C 70.351562 44.964844 69.855469 46.476562 69.738281 46.75 C 69.621094 47.023438 70.160156 48.011719 70.933594 48.941406 L 72.335938 50.636719 L 74.476562 47.628906 L 73.421875 44.4375 C 72.84375 42.683594 72.226562 41.089844 72.054688 40.898438 C 71.882812 40.703125 71.339844 41.828125 70.84375 43.398438 M 59.515625 44.574219 C 57.1875 44.816406 55.089844 45.207031 54.859375 45.441406 C 54.621094 45.675781 56.140625 46.121094 58.238281 46.433594 C 62.117188 47.011719 66 47.179688 66 46.773438 C 66 46 64.746094 44.011719 64.292969 44.066406 C 63.996094 44.101562 61.84375 44.332031 59.515625 44.574219 M 79.648438 45.117188 C 78.078125 47.140625 78.136719 47.171875 83.011719 46.804688 C 88.921875 46.355469 90.277344 45.714844 86.226562 45.277344 C 84.589844 45.101562 82.550781 44.851562 81.695312 44.71875 C 80.765625 44.578125 79.941406 44.738281 79.648438 45.117188 M 53.972656 48.773438 C 55.660156 51.0625 59.273438 54.5 59.980469 54.492188 C 60.402344 54.488281 61.050781 54.296875 61.414062 54.0625 C 62.101562 53.628906 59.601562 51.570312 55.25 48.984375 C 53.488281 47.933594 53.335938 47.910156 53.972656 48.773438 M 75.644531 50.429688 C 74.28125 52.222656 74.460938 52.664062 76.816406 53.292969 C 77.738281 53.539062 81.085938 51.667969 83.679688 49.453125 C 83.917969 49.253906 82.496094 49.011719 80.519531 48.917969 C 76.949219 48.75 76.914062 48.761719 75.644531 50.429688 M 85.453125 51.023438 C 79.765625 54.4375 79.542969 54.691406 81.511719 55.503906 C 83.082031 56.15625 83.09375 56.148438 86.914062 52.328125 C 89.019531 50.222656 90.5 48.5 90.199219 48.5 C 89.902344 48.5 87.765625 49.636719 85.453125 51.023438 M 62.199219 51.230469 C 64.878906 53.410156 65.210938 53.550781 66.878906 53.15625 C 69.058594 52.640625 69.332031 52.023438 68.070312 50.464844 C 67.238281 49.433594 66.582031 49.25 63.210938 49.078125 L 59.316406 48.882812 L 62.199219 51.230469 M 67.347656 55.351562 C 66.847656 55.480469 66.253906 56.070312 66.023438 56.667969 C 65.789062 57.261719 65.121094 58.957031 64.535156 60.433594 L 63.46875 63.117188 L 65.109375 62.03125 C 66.011719 61.433594 67.480469 60.578125 68.375 60.132812 C 69.832031 59.398438 70 59.089844 70 57.15625 C 70 54.914062 69.730469 54.730469 67.347656 55.351562 M 72.5 56.933594 C 72.5 58.609375 72.773438 58.960938 75.75 61.117188 C 77.539062 62.414062 78.988281 63.425781 78.976562 63.363281 C 78.964844 63.300781 78.4375 61.695312 77.808594 59.792969 C 76.707031 56.476562 76.574219 56.308594 74.582031 55.71875 L 72.5 55.105469 L 72.5 56.933594 M 61.054688 56.957031 C 60.398438 57.371094 58.320312 66.488281 58.777344 66.945312 C 59.035156 67.203125 63.5 57.867188 63.5 57.066406 C 63.5 56.398438 62.042969 56.328125 61.054688 56.957031 M 79.726562 58.875 C 80.253906 61.039062 83.1875 67.191406 83.394531 66.566406 C 83.660156 65.769531 82.042969 58.902344 81.40625 58.136719 C 81.117188 57.789062 80.542969 57.5 80.132812 57.5 C 79.578125 57.5 79.476562 57.84375 79.726562 58.875 M 72 63.152344 C 72 64.925781 72.382812 65.195312 79.5 68.363281 L 82.25 69.585938 L 80.75 68.003906 C 79.214844 66.382812 72.878906 61.5 72.3125 61.5 C 72.140625 61.5 72 62.242188 72 63.152344 M 65.5 64.421875 C 63.710938 65.742188 61.933594 67.210938 61.550781 67.679688 C 60.90625 68.464844 60.964844 68.488281 62.285156 67.984375 C 63.074219 67.6875 65.023438 66.746094 66.609375 65.902344 C 68.878906 64.691406 69.5 64.105469 69.5 63.179688 C 69.5 62.53125 69.332031 62.003906 69.125 62.007812 C 68.917969 62.011719 67.289062 63.097656 65.5 64.421875 "/>
</g>
</svg>
