<?xml version="1.0" encoding="UTF-8"?>
<svg xmlns="http://www.w3.org/2000/svg" xmlns:xlink="http://www.w3.org/1999/xlink" width="24px" height="24px" viewBox="0 0 24 24" version="1.1">
<g id="surface1">
<path style=" stroke:none;fill-rule:evenodd;fill:rgb(0%,0%,0%);fill-opacity:1;" d="M 11.101562 3.671875 C 10.835938 3.769531 10.5 3.820312 10.355469 3.785156 C 9.996094 3.695312 9.535156 3.925781 9.375 4.277344 C 9.300781 4.441406 9.238281 5.179688 9.238281 5.925781 C 9.238281 7.253906 9.234375 7.285156 8.941406 7.417969 C 8.484375 7.625 8.136719 8.261719 8.210938 8.75 C 8.273438 9.171875 8.808594 9.839844 9.082031 9.839844 C 9.203125 9.839844 9.238281 10.160156 9.238281 11.21875 C 9.238281 11.984375 9.191406 12.601562 9.128906 12.601562 C 8.890625 12.601562 8.234375 13.273438 8.027344 13.734375 C 7.832031 14.164062 7.804688 14.570312 7.800781 17.308594 L 7.800781 20.398438 L 16.199219 20.398438 L 16.199219 17.429688 C 16.199219 15.726562 16.144531 14.265625 16.074219 14.007812 C 15.933594 13.5 15.347656 12.769531 14.992188 12.65625 C 14.78125 12.589844 14.761719 12.464844 14.761719 11.277344 L 14.761719 9.972656 L 15.117188 9.761719 C 15.484375 9.542969 15.839844 8.957031 15.839844 8.5625 C 15.839844 8.222656 15.394531 7.570312 15.058594 7.417969 C 14.796875 7.296875 14.761719 7.207031 14.761719 6.664062 C 14.761719 5.171875 14.007812 4.019531 12.804688 3.660156 C 12.066406 3.441406 11.726562 3.445312 11.101562 3.671875 M 11.246094 4.164062 C 11.058594 4.210938 11.035156 4.335938 11.066406 5.078125 L 11.101562 5.941406 L 12.628906 5.972656 C 13.554688 5.992188 14.160156 5.960938 14.160156 5.890625 C 14.160156 5.363281 13.496094 4.511719 12.875 4.246094 C 12.503906 4.085938 11.695312 4.046875 11.246094 4.164062 M 9.921875 4.398438 C 9.875 4.445312 9.839844 4.820312 9.839844 5.238281 C 9.839844 5.890625 9.871094 6 10.054688 6 C 10.175781 6 10.335938 5.933594 10.414062 5.855469 C 10.566406 5.707031 10.613281 4.835938 10.488281 4.511719 C 10.414062 4.320312 10.070312 4.25 9.921875 4.398438 M 10.378906 6.410156 C 9.722656 6.644531 9.71875 6.648438 9.71875 8.050781 C 9.71875 9.351562 9.722656 9.367188 10.027344 9.480469 C 10.203125 9.550781 10.40625 9.773438 10.507812 10.019531 C 10.707031 10.5 10.800781 10.53125 11.089844 10.210938 C 11.394531 9.875 12.664062 9.871094 12.871094 10.207031 C 13.085938 10.550781 13.285156 10.492188 13.433594 10.039062 C 13.511719 9.804688 13.695312 9.578125 13.867188 9.5 C 14.164062 9.363281 14.167969 9.355469 14.132812 7.949219 L 14.101562 6.539062 L 12.539062 6.480469 C 11.683594 6.445312 10.925781 6.390625 10.859375 6.351562 C 10.792969 6.3125 10.578125 6.339844 10.378906 6.410156 M 10.558594 7.890625 C 10.363281 7.953125 10.078125 8.265625 10.078125 8.421875 C 10.078125 8.476562 10.378906 8.519531 10.738281 8.519531 C 11.421875 8.519531 11.507812 8.457031 11.25 8.140625 C 11.066406 7.914062 10.800781 7.816406 10.558594 7.890625 M 13.078125 7.890625 C 12.882812 7.953125 12.601562 8.265625 12.601562 8.421875 C 12.601562 8.476562 12.898438 8.519531 13.261719 8.519531 C 13.941406 8.519531 14.027344 8.457031 13.769531 8.140625 C 13.585938 7.914062 13.320312 7.816406 13.078125 7.890625 M 8.902344 8.0625 C 8.675781 8.292969 8.730469 8.9375 9 9.179688 C 9.238281 9.394531 9.238281 9.390625 9.238281 8.660156 C 9.238281 7.917969 9.171875 7.796875 8.902344 8.0625 M 14.761719 8.640625 C 14.761719 9.035156 14.78125 9.359375 14.8125 9.359375 C 14.839844 9.359375 14.949219 9.273438 15.050781 9.171875 C 15.382812 8.839844 15.238281 7.921875 14.855469 7.921875 C 14.804688 7.921875 14.761719 8.242188 14.761719 8.640625 M 9.839844 11.367188 C 9.839844 12.847656 10.035156 14.039062 10.277344 14.039062 C 10.359375 14.039062 10.457031 14.148438 10.5 14.28125 C 10.542969 14.410156 10.667969 14.519531 10.785156 14.519531 C 10.898438 14.519531 11.054688 14.582031 11.132812 14.660156 C 11.3125 14.84375 12.6875 14.84375 12.867188 14.660156 C 12.945312 14.582031 13.109375 14.519531 13.234375 14.519531 C 13.359375 14.519531 13.488281 14.417969 13.523438 14.292969 C 13.554688 14.164062 13.691406 14.035156 13.824219 14 C 13.957031 13.964844 14.042969 13.863281 14.011719 13.777344 C 13.984375 13.691406 14.03125 13.445312 14.121094 13.234375 C 14.3125 12.769531 14.347656 9.960938 14.160156 9.960938 C 14.09375 9.960938 14.039062 10.035156 14.039062 10.125 C 14.039062 10.214844 13.929688 10.429688 13.792969 10.605469 C 13.503906 10.96875 13.03125 11.019531 12.699219 10.722656 C 12.402344 10.453125 11.636719 10.445312 11.371094 10.710938 C 10.945312 11.136719 10.078125 10.792969 10.078125 10.199219 C 10.078125 10.066406 10.027344 9.960938 9.960938 9.960938 C 9.886719 9.960938 9.839844 10.507812 9.839844 11.367188 M 11.421875 11.117188 C 11.519531 11.609375 12.484375 11.621094 12.578125 11.128906 C 12.609375 10.953125 12.519531 10.921875 12 10.921875 C 11.492188 10.921875 11.390625 10.953125 11.421875 11.117188 M 8.773438 13.503906 L 8.398438 13.929688 L 8.398438 19.921875 L 15.601562 19.921875 L 15.597656 17.25 C 15.597656 15.78125 15.542969 14.382812 15.476562 14.136719 C 15.40625 13.894531 15.179688 13.550781 14.964844 13.371094 L 14.578125 13.042969 L 14.460938 13.59375 C 14.390625 13.921875 14.195312 14.296875 13.988281 14.511719 C 13.585938 14.933594 12.824219 15.359375 12.476562 15.359375 C 12.257812 15.359375 12.238281 15.445312 12.238281 16.507812 C 12.238281 17.628906 12.234375 17.65625 11.96875 17.617188 C 11.714844 17.582031 11.699219 17.519531 11.664062 16.46875 C 11.632812 15.457031 11.609375 15.359375 11.394531 15.359375 C 10.824219 15.359375 9.480469 14.3125 9.476562 13.863281 C 9.476562 13.503906 9.347656 13.078125 9.238281 13.078125 C 9.1875 13.078125 8.976562 13.269531 8.773438 13.503906 "/>
</g>
</svg>
