<?xml version="1.0" encoding="UTF-8"?>
<svg xmlns="http://www.w3.org/2000/svg" xmlns:xlink="http://www.w3.org/1999/xlink" width="24px" height="24px" viewBox="0 0 24 24" version="1.1">
<g id="surface1">
<path style=" stroke:none;fill-rule:evenodd;fill:rgb(0%,0%,0%);fill-opacity:1;" d="M 11.109375 0.777344 C 10.851562 0.871094 10.527344 1.058594 10.390625 1.195312 C 10.253906 1.332031 9.488281 2.5625 8.695312 3.929688 L 7.25 6.417969 L 4.382812 7.046875 C 1.347656 7.710938 1.070312 7.828125 0.4375 8.671875 C 0.125 9.089844 0.0390625 10.132812 0.269531 10.683594 C 0.410156 11.015625 2.183594 13.109375 4.039062 15.128906 L 4.320312 15.433594 L 4.011719 18.40625 L 3.699219 21.375 L 4.019531 22.027344 C 4.261719 22.523438 4.472656 22.757812 4.894531 23.007812 C 5.863281 23.574219 6.269531 23.5 9.230469 22.199219 C 10.644531 21.578125 11.890625 21.078125 11.996094 21.085938 C 12.105469 21.09375 13.304688 21.585938 14.660156 22.183594 C 16.015625 22.777344 17.3125 23.296875 17.542969 23.339844 C 18.574219 23.535156 19.757812 22.765625 20.042969 21.714844 C 20.164062 21.273438 20.144531 20.738281 19.933594 18.601562 C 19.792969 17.179688 19.675781 15.871094 19.679688 15.683594 C 19.679688 15.421875 20.082031 14.902344 21.511719 13.308594 C 22.515625 12.183594 23.433594 11.09375 23.546875 10.882812 C 23.832031 10.347656 23.820312 9.347656 23.519531 8.753906 C 23.046875 7.832031 22.894531 7.777344 17.699219 6.652344 C 17.234375 6.550781 16.800781 6.429688 16.730469 6.382812 C 16.664062 6.335938 15.976562 5.21875 15.207031 3.894531 C 14.4375 2.570312 13.683594 1.371094 13.53125 1.230469 C 12.902344 0.636719 11.984375 0.464844 11.109375 0.777344 M 11.3125 3.746094 C 10.992188 4.292969 10.300781 5.488281 9.773438 6.402344 C 9.25 7.320312 8.695312 8.152344 8.539062 8.253906 C 8.386719 8.355469 7.304688 8.648438 6.140625 8.902344 C 4.972656 9.15625 3.628906 9.449219 3.148438 9.554688 C 2.671875 9.660156 2.28125 9.78125 2.28125 9.824219 C 2.28125 9.867188 3.199219 10.925781 4.324219 12.179688 C 5.449219 13.429688 6.402344 14.589844 6.445312 14.757812 C 6.488281 14.925781 6.402344 16.300781 6.257812 17.820312 C 5.960938 20.914062 5.953125 21.121094 6.117188 21.121094 C 6.179688 21.121094 7.46875 20.578125 8.980469 19.921875 C 10.496094 19.261719 11.84375 18.71875 11.980469 18.71875 C 12.117188 18.71875 13.453125 19.261719 14.945312 19.921875 C 16.441406 20.578125 17.742188 21.121094 17.84375 21.121094 C 17.980469 21.121094 18.007812 21.019531 17.953125 20.671875 C 17.757812 19.371094 17.390625 15.050781 17.453125 14.800781 C 17.496094 14.640625 18.445312 13.484375 19.5625 12.230469 C 20.683594 10.976562 21.601562 9.902344 21.601562 9.84375 C 21.601562 9.785156 21.207031 9.652344 20.730469 9.546875 C 20.25 9.441406 18.898438 9.144531 17.71875 8.886719 C 16.089844 8.535156 15.511719 8.359375 15.292969 8.152344 C 15.136719 8.003906 14.355469 6.761719 13.558594 5.386719 C 12.761719 4.011719 12.058594 2.855469 12.003906 2.820312 C 11.945312 2.785156 11.632812 3.203125 11.3125 3.746094 M 11.410156 7.996094 C 11.195312 8.265625 11.160156 8.480469 11.160156 9.445312 C 11.160156 10.515625 11.269531 10.988281 11.566406 11.1875 C 11.8125 11.351562 12.238281 11.28125 12.480469 11.039062 C 12.691406 10.828125 12.71875 10.640625 12.71875 9.480469 C 12.71875 8.320312 12.691406 8.132812 12.480469 7.921875 C 12.144531 7.585938 11.707031 7.617188 11.410156 7.996094 M 7.320312 10.921875 C 6.996094 11.242188 7.015625 11.691406 7.367188 11.96875 C 7.523438 12.089844 8.167969 12.34375 8.800781 12.53125 C 9.894531 12.855469 9.96875 12.863281 10.257812 12.671875 C 10.609375 12.441406 10.667969 11.886719 10.375 11.59375 C 10.191406 11.410156 8.082031 10.679688 7.738281 10.679688 C 7.640625 10.679688 7.453125 10.789062 7.320312 10.921875 M 14.789062 11.050781 C 13.570312 11.445312 13.230469 11.746094 13.371094 12.304688 C 13.519531 12.890625 13.917969 12.929688 15.277344 12.492188 C 15.949219 12.273438 16.566406 12.011719 16.648438 11.90625 C 16.890625 11.597656 16.832031 11.074219 16.535156 10.867188 C 16.179688 10.621094 16.085938 10.628906 14.789062 11.050781 M 10.230469 14.011719 C 9.902344 14.300781 8.917969 15.621094 8.742188 16.007812 C 8.617188 16.28125 8.632812 16.375 8.84375 16.652344 C 9.007812 16.878906 9.195312 16.980469 9.433594 16.980469 C 9.730469 16.980469 9.898438 16.824219 10.589844 15.902344 C 11.546875 14.625 11.613281 14.28125 10.957031 13.9375 C 10.605469 13.753906 10.507812 13.761719 10.230469 14.011719 M 12.765625 14.101562 C 12.382812 14.488281 12.4375 14.671875 13.300781 15.878906 C 14.175781 17.105469 14.511719 17.285156 15 16.800781 C 15.382812 16.417969 15.289062 16.070312 14.527344 15.027344 C 13.570312 13.722656 13.292969 13.578125 12.765625 14.101562 "/>
</g>
</svg>
