<?xml version="1.0" encoding="UTF-8"?>
<svg xmlns="http://www.w3.org/2000/svg" xmlns:xlink="http://www.w3.org/1999/xlink" width="100px" height="100px" viewBox="0 0 100 100" version="1.1">
<g id="surface1">
<path style=" stroke:none;fill-rule:evenodd;fill:rgb(0%,0%,0%);fill-opacity:1;" d="M 46.527344 14.820312 C 44.183594 16.925781 43.835938 17.085938 42.695312 16.566406 C 41.878906 16.195312 41.136719 16.160156 40.566406 16.464844 C 39.523438 17.023438 35.984375 20.796875 34.78125 22.632812 C 34.074219 23.714844 33.660156 23.882812 32.289062 23.660156 C 30.894531 23.433594 30.492188 23.609375 29.636719 24.820312 C 26.71875 28.949219 24.507812 34.949219 23.761719 40.757812 C 23.492188 42.84375 23.191406 43.410156 21.96875 44.109375 C 20.554688 44.921875 20.5 45.085938 20.507812 48.601562 C 20.53125 61.269531 27.320312 69.480469 40 72.1875 C 42.0625 72.625 44.734375 73.046875 45.9375 73.117188 L 48.125 73.25 L 48.941406 76.5 C 50.003906 80.726562 52.058594 84.171875 54.632812 86.039062 C 56.863281 87.65625 57.835938 87.738281 58.6875 86.386719 C 59.140625 85.667969 58.804688 85.125 56.679688 83.136719 C 54.84375 81.417969 53.832031 79.941406 53.066406 77.855469 C 51.445312 73.453125 51.558594 73 54.277344 73 C 60.460938 73 68.53125 69.945312 72.660156 66.039062 C 77.261719 61.6875 79.476562 56.046875 79.492188 48.636719 C 79.5 45.355469 79.386719 44.949219 78.28125 44.222656 C 77.320312 43.59375 76.992188 42.828125 76.71875 40.589844 C 76.214844 36.40625 74.28125 30.660156 72.234375 27.257812 C 70.117188 23.746094 69.6875 23.394531 67.917969 23.714844 C 66.789062 23.921875 66.25 23.546875 64.359375 21.253906 C 63.136719 19.765625 61.417969 17.945312 60.539062 17.207031 C 59.164062 16.050781 58.773438 15.941406 57.710938 16.425781 C 56.601562 16.933594 56.1875 16.757812 53.71875 14.746094 C 52.203125 13.511719 50.542969 12.5 50.035156 12.5 C 49.523438 12.5 47.949219 13.542969 46.527344 14.820312 M 48.042969 17.945312 L 46.332031 19.359375 L 50.160156 23.9375 L 51.910156 21.640625 L 53.664062 19.34375 L 52.074219 17.921875 C 51.199219 17.140625 50.320312 16.507812 50.117188 16.511719 C 49.914062 16.519531 48.980469 17.164062 48.042969 17.945312 M 39.570312 22.289062 C 38.429688 23.582031 37.5 24.921875 37.5 25.261719 C 37.5 25.605469 38.082031 26.265625 38.789062 26.730469 C 39.5 27.195312 40.960938 28.371094 42.03125 29.339844 L 43.980469 31.097656 L 45.992188 29.507812 C 47.09375 28.632812 48 27.742188 48 27.53125 C 48 26.90625 45.253906 23.371094 43.382812 21.59375 L 41.640625 19.9375 L 39.570312 22.289062 M 57.09375 21.246094 C 55.367188 22.703125 52.5 26.578125 52.5 27.457031 C 52.5 27.75 53.339844 28.757812 54.371094 29.699219 L 56.238281 31.414062 L 58.496094 29.328125 C 59.734375 28.183594 61.304688 26.886719 61.980469 26.449219 C 63.15625 25.6875 63.175781 25.597656 62.402344 24.449219 C 61.957031 23.789062 60.945312 22.492188 60.15625 21.566406 L 58.71875 19.878906 L 57.09375 21.246094 M 30.816406 29.625 C 29.421875 32.039062 27.800781 37.097656 27.28125 40.652344 L 26.929688 43.058594 L 28.589844 42.746094 C 29.976562 42.488281 34.136719 42.902344 36.957031 43.578125 C 37.425781 43.691406 37.804688 43.09375 38.089844 41.792969 C 38.324219 40.71875 39.214844 38.46875 40.0625 36.796875 L 41.609375 33.757812 L 39.21875 31.597656 C 36.949219 29.542969 33.621094 27.5 32.539062 27.5 C 32.265625 27.5 31.488281 28.457031 30.816406 29.625 M 65 28.789062 C 63.761719 29.492188 61.804688 30.988281 60.648438 32.113281 L 58.546875 34.160156 L 59.59375 35.628906 C 60.167969 36.4375 61.121094 38.617188 61.710938 40.476562 C 62.742188 43.726562 62.824219 43.835938 64.015625 43.375 C 64.695312 43.113281 67.101562 42.863281 69.359375 42.824219 L 73.472656 42.75 L 73.191406 40.75 C 72.476562 35.621094 69.207031 27.492188 67.867188 27.507812 C 67.527344 27.507812 66.238281 28.085938 65 28.789062 M 47.945312 32.46875 C 45.378906 34.585938 42.691406 38.792969 41.71875 42.210938 L 40.878906 45.175781 L 42.316406 46.1875 C 44.777344 47.921875 47.261719 50.859375 48.492188 53.480469 C 49.140625 54.867188 49.8125 56 49.984375 56 C 50.160156 56 50.808594 54.957031 51.425781 53.679688 C 53 50.445312 54.695312 48.347656 57.0625 46.707031 C 59.007812 45.359375 59.082031 45.210938 58.777344 43.273438 C 58.601562 42.160156 57.972656 40.238281 57.382812 39 C 56.253906 36.640625 51.25 31 50.289062 31 C 49.980469 31 48.925781 31.660156 47.945312 32.46875 M 27.75 46.335938 C 23.683594 46.84375 23.832031 46.671875 24.136719 50.652344 C 24.683594 57.78125 28.191406 63.5625 33.664062 66.332031 C 36.726562 67.886719 42.964844 69.5 45.898438 69.5 L 48.136719 69.5 L 47.863281 65.125 C 47.148438 53.75 41.542969 47.222656 31.75 46.367188 C 30.375 46.25 28.574219 46.234375 27.75 46.335938 M 66.75 46.492188 C 63.402344 47 60.765625 48.160156 58.199219 50.265625 C 54.652344 53.171875 52 60.058594 52 66.355469 L 52 69.5 L 54.171875 69.5 C 57.042969 69.5 63.300781 67.871094 66.335938 66.332031 C 71.808594 63.5625 75.316406 57.78125 75.863281 50.652344 C 76.132812 47.164062 76.105469 47.046875 74.945312 46.804688 C 72.316406 46.253906 69.125 46.132812 66.75 46.492188 M 27.472656 54.28125 C 26.890625 54.984375 26.996094 55.484375 28.222656 57.828125 C 29.929688 61.089844 32.929688 63.675781 36.863281 65.277344 C 39.316406 66.277344 39.855469 66.351562 40.445312 65.765625 C 41.5 64.71875 40.769531 63.621094 38.574219 62.964844 C 35.621094 62.078125 32.019531 59.09375 30.511719 56.28125 C 29.011719 53.488281 28.441406 53.113281 27.472656 54.28125 M 70.671875 54.125 C 70.460938 54.46875 69.8125 55.648438 69.230469 56.75 C 68 59.085938 64.253906 62.089844 61.398438 63.035156 C 59.164062 63.773438 58.515625 64.730469 59.554688 65.765625 C 60.144531 66.351562 60.683594 66.277344 63.136719 65.277344 C 67.171875 63.632812 70.175781 61.015625 71.777344 57.742188 C 72.871094 55.503906 73.003906 54.859375 72.5 54.246094 C 71.742188 53.335938 71.183594 53.296875 70.671875 54.125 "/>
</g>
</svg>
