<?xml version="1.0" encoding="UTF-8"?>
<svg xmlns="http://www.w3.org/2000/svg" xmlns:xlink="http://www.w3.org/1999/xlink" width="24px" height="24px" viewBox="0 0 24 24" version="1.1">
<g id="surface1">
<path style=" stroke:none;fill-rule:evenodd;fill:rgb(0%,0%,0%);fill-opacity:1;" d="M 11.167969 3.554688 C 10.605469 4.0625 10.519531 4.101562 10.246094 3.976562 C 10.050781 3.886719 9.871094 3.878906 9.734375 3.953125 C 9.484375 4.085938 8.636719 4.992188 8.347656 5.429688 C 8.175781 5.691406 8.078125 5.730469 7.75 5.679688 C 7.414062 5.625 7.316406 5.667969 7.113281 5.957031 C 6.414062 6.949219 5.882812 8.386719 5.703125 9.78125 C 5.636719 10.28125 5.566406 10.417969 5.273438 10.585938 C 4.933594 10.78125 4.921875 10.820312 4.921875 11.664062 C 4.929688 14.703125 6.554688 16.675781 9.601562 17.324219 C 10.09375 17.429688 10.734375 17.53125 11.023438 17.546875 L 11.550781 17.578125 L 11.746094 18.359375 C 12 19.375 12.492188 20.203125 13.113281 20.648438 C 13.648438 21.035156 13.878906 21.058594 14.085938 20.734375 C 14.195312 20.558594 14.113281 20.429688 13.601562 19.953125 C 13.164062 19.539062 12.917969 19.1875 12.734375 18.683594 C 12.347656 17.628906 12.375 17.519531 13.027344 17.519531 C 14.511719 17.519531 16.449219 16.785156 17.4375 15.847656 C 18.542969 14.804688 19.074219 13.449219 19.078125 11.671875 C 19.078125 10.886719 19.054688 10.789062 18.789062 10.613281 C 18.558594 10.460938 18.476562 10.277344 18.414062 9.742188 C 18.292969 8.738281 17.828125 7.359375 17.335938 6.542969 C 16.828125 5.699219 16.726562 5.613281 16.300781 5.691406 C 16.03125 5.742188 15.898438 5.652344 15.445312 5.101562 C 15.152344 4.742188 14.738281 4.308594 14.53125 4.128906 C 14.199219 3.851562 14.105469 3.824219 13.851562 3.941406 C 13.585938 4.0625 13.484375 4.023438 12.890625 3.539062 C 12.527344 3.242188 12.128906 3 12.007812 3 C 11.886719 3 11.507812 3.25 11.167969 3.554688 M 11.53125 4.304688 L 11.121094 4.644531 L 11.578125 5.195312 L 12.039062 5.746094 L 12.457031 5.195312 L 12.878906 4.640625 L 12.496094 4.300781 C 12.289062 4.113281 12.078125 3.960938 12.027344 3.964844 C 11.980469 3.964844 11.753906 4.121094 11.53125 4.304688 M 9.496094 5.347656 C 9.222656 5.660156 9 5.980469 9 6.0625 C 9 6.144531 9.140625 6.304688 9.308594 6.414062 C 9.480469 6.527344 9.832031 6.808594 10.085938 7.042969 L 10.554688 7.464844 L 11.039062 7.082031 C 11.304688 6.871094 11.519531 6.660156 11.519531 6.609375 C 11.519531 6.457031 10.859375 5.609375 10.410156 5.183594 L 9.992188 4.785156 L 9.496094 5.347656 M 13.703125 5.097656 C 13.289062 5.449219 12.601562 6.378906 12.601562 6.589844 C 12.601562 6.660156 12.800781 6.902344 13.046875 7.128906 L 13.496094 7.539062 L 14.039062 7.039062 C 14.335938 6.765625 14.714844 6.453125 14.875 6.347656 C 15.15625 6.164062 15.164062 6.144531 14.976562 5.867188 C 14.871094 5.710938 14.625 5.398438 14.4375 5.175781 L 14.09375 4.769531 L 13.703125 5.097656 M 7.394531 7.109375 C 7.0625 7.691406 6.671875 8.902344 6.546875 9.757812 L 6.464844 10.335938 L 6.863281 10.257812 C 7.195312 10.195312 8.191406 10.296875 8.871094 10.460938 C 8.980469 10.484375 9.074219 10.34375 9.140625 10.03125 C 9.199219 9.773438 9.410156 9.234375 9.613281 8.832031 L 9.984375 8.101562 L 9.414062 7.582031 C 8.867188 7.089844 8.070312 6.601562 7.808594 6.601562 C 7.742188 6.601562 7.558594 6.828125 7.394531 7.109375 M 15.601562 6.910156 C 15.304688 7.078125 14.832031 7.4375 14.554688 7.707031 L 14.050781 8.199219 L 14.300781 8.550781 C 14.441406 8.746094 14.667969 9.269531 14.808594 9.714844 C 15.058594 10.496094 15.078125 10.519531 15.363281 10.410156 C 15.527344 10.347656 16.105469 10.289062 16.648438 10.277344 L 17.632812 10.261719 L 17.566406 9.78125 C 17.394531 8.550781 16.609375 6.597656 16.289062 6.601562 C 16.207031 6.601562 15.898438 6.742188 15.601562 6.910156 M 11.507812 7.792969 C 10.890625 8.300781 10.246094 9.308594 10.011719 10.132812 L 9.8125 10.839844 L 10.15625 11.085938 C 10.746094 11.5 11.34375 12.207031 11.636719 12.835938 C 11.792969 13.167969 11.953125 13.441406 11.996094 13.441406 C 12.039062 13.441406 12.195312 13.191406 12.34375 12.882812 C 12.71875 12.105469 13.125 11.605469 13.695312 11.210938 C 14.164062 10.886719 14.179688 10.851562 14.105469 10.386719 C 14.0625 10.117188 13.914062 9.65625 13.773438 9.359375 C 13.5 8.792969 12.300781 7.441406 12.070312 7.441406 C 11.996094 7.441406 11.742188 7.597656 11.507812 7.792969 M 6.660156 11.121094 C 5.683594 11.242188 5.71875 11.199219 5.792969 12.15625 C 5.921875 13.867188 6.765625 15.253906 8.078125 15.917969 C 8.8125 16.292969 10.3125 16.679688 11.015625 16.679688 L 11.554688 16.679688 L 11.488281 15.628906 C 11.316406 12.898438 9.96875 11.332031 7.621094 11.128906 C 7.289062 11.101562 6.859375 11.097656 6.660156 11.121094 M 16.019531 11.15625 C 15.214844 11.28125 14.582031 11.558594 13.96875 12.0625 C 13.117188 12.761719 12.480469 14.414062 12.480469 15.925781 L 12.480469 16.679688 L 13 16.679688 C 13.691406 16.679688 15.191406 16.289062 15.921875 15.917969 C 17.234375 15.253906 18.078125 13.867188 18.207031 12.15625 C 18.273438 11.320312 18.265625 11.292969 17.988281 11.234375 C 17.355469 11.101562 16.589844 11.070312 16.019531 11.15625 M 6.59375 13.027344 C 6.453125 13.195312 6.480469 13.316406 6.773438 13.878906 C 7.183594 14.660156 7.902344 15.28125 8.847656 15.667969 C 9.4375 15.90625 9.566406 15.925781 9.707031 15.785156 C 9.960938 15.53125 9.785156 15.269531 9.257812 15.109375 C 8.550781 14.898438 7.683594 14.183594 7.324219 13.507812 C 6.964844 12.835938 6.828125 12.746094 6.59375 13.027344 M 16.960938 12.988281 C 16.910156 13.074219 16.753906 13.355469 16.617188 13.621094 C 16.320312 14.179688 15.421875 14.902344 14.734375 15.128906 C 14.199219 15.304688 14.042969 15.535156 14.292969 15.785156 C 14.433594 15.925781 14.5625 15.90625 15.152344 15.667969 C 16.121094 15.273438 16.84375 14.644531 17.226562 13.859375 C 17.488281 13.320312 17.519531 13.164062 17.398438 13.019531 C 17.21875 12.800781 17.085938 12.792969 16.960938 12.988281 "/>
</g>
</svg>
