<?xml version="1.0" encoding="UTF-8"?>
<svg xmlns="http://www.w3.org/2000/svg" xmlns:xlink="http://www.w3.org/1999/xlink" width="100px" height="100px" viewBox="0 0 100 100" version="1.1">
<g id="surface1">
<path style=" stroke:none;fill-rule:evenodd;fill:rgb(0%,0%,0%);fill-opacity:1;" d="M 9.5 29.75 C 9.5 31.492188 9.511719 31.5 11.75 31.5 C 12.988281 31.5 14 31.378906 14 31.230469 C 14 30.277344 11.644531 28 10.65625 28 C 9.667969 28 9.5 28.253906 9.5 29.75 M 43.597656 30.375 C 43.742188 32.652344 43.816406 32.757812 45.375 32.90625 L 47 33.0625 L 47 28 L 43.445312 28 L 43.597656 30.375 M 50 30.5 C 50 32.945312 50.035156 33 51.5 33 C 52.964844 33 53 32.945312 53 30.5 C 53 28.054688 52.964844 28 51.5 28 C 50.035156 28 50 28.054688 50 30.5 M 56.097656 30.375 C 56.242188 32.652344 56.316406 32.757812 57.875 32.90625 L 59.5 33.0625 L 59.5 28 L 55.945312 28 L 56.097656 30.375 M 62.5 30.5 C 62.5 32.945312 62.535156 33 64 33 C 65.464844 33 65.5 32.945312 65.5 30.5 C 65.5 28.054688 65.464844 28 64 28 C 62.535156 28 62.5 28.054688 62.5 30.5 M 36 29.945312 C 36 31.339844 36.15625 31.5 37.5 31.5 C 38.765625 31.5 39 31.304688 39 30.25 C 39 29.503906 38.714844 29 38.289062 29 C 37.902344 29 37.226562 28.863281 36.789062 28.695312 C 36.175781 28.460938 36 28.734375 36 29.945312 M 6 36 L 6 37.5 L 35.3125 37.5 L 38.1875 34.5 L 6 34.5 L 6 36 M 40.109375 37.140625 L 37.5 39.78125 L 37.5 48.984375 L 39.984375 50.242188 C 41.976562 51.253906 43.203125 51.5 46.203125 51.5 L 49.941406 51.5 L 50.097656 49.375 L 50.25 47.25 L 66.734375 47.25 L 67.574219 50.363281 C 68.039062 52.078125 68.554688 54.101562 68.722656 54.863281 L 69.027344 56.25 L 64.515625 56.089844 L 60.007812 55.929688 L 61.570312 54.613281 C 62.433594 53.890625 63.453125 52.539062 63.839844 51.613281 C 64.65625 49.65625 64.285156 47.785156 63.164062 48.214844 C 62.753906 48.371094 62.113281 48.5 61.742188 48.5 C 61.371094 48.5 60.996094 49.117188 60.90625 49.867188 C 60.804688 50.777344 60.203125 51.574219 59.117188 52.242188 C 57.761719 53.078125 57.523438 53.484375 57.730469 54.625 C 58.082031 56.589844 57.074219 56.378906 54.753906 54.003906 L 52.804688 52.007812 L 50.476562 54.195312 L 53.097656 56.847656 L 55.714844 59.5 L 69 59.5 L 69.050781 58.125 L 69.097656 56.75 L 69.445312 58 C 69.761719 59.140625 70.066406 59.261719 72.894531 59.398438 C 74.601562 59.480469 75.996094 59.367188 75.988281 59.148438 C 75.984375 58.929688 75.421875 56.847656 74.738281 54.527344 C 74.058594 52.203125 73.5 49.222656 73.5 47.902344 C 73.5 45.566406 73.542969 45.5 75 45.5 C 76.398438 45.5 76.5 45.628906 76.507812 47.375 C 76.519531 49.234375 76.5625 49.273438 81.570312 52 C 84.347656 53.511719 86.820312 54.824219 87.0625 54.917969 C 87.300781 55.007812 87.5 51.464844 87.5 47.042969 L 87.5 39 L 83.53125 39 C 79.578125 39 79.566406 39.003906 79.40625 40.375 C 79.253906 41.699219 79.132812 41.753906 76 41.890625 L 72.75 42.035156 L 69.011719 38.265625 L 65.273438 34.5 L 42.714844 34.5 L 40.109375 37.140625 M 42.535156 39.769531 C 40.617188 41.851562 40.460938 42.226562 40.597656 44.394531 C 40.738281 46.546875 40.867188 46.761719 42.125 46.90625 C 43.417969 47.058594 43.5 46.949219 43.5 45.101562 C 43.5 43.867188 43.886719 42.644531 44.535156 41.816406 C 45.488281 40.605469 45.871094 40.5 49.285156 40.5 L 53 40.5 L 53 37.5 L 44.628906 37.5 L 42.535156 39.769531 M 56.5 39 C 56.5 40.332031 56.667969 40.5 58 40.5 C 59.332031 40.5 59.5 40.332031 59.5 39 C 59.5 37.667969 59.332031 37.5 58 37.5 C 56.667969 37.5 56.5 37.667969 56.5 39 M 62.5 39 C 62.5 40.332031 62.667969 40.5 64 40.5 C 65.332031 40.5 65.5 40.332031 65.5 39 C 65.5 37.667969 65.332031 37.5 64 37.5 C 62.667969 37.5 62.5 37.667969 62.5 39 M 6.097656 41.375 C 6.242188 43.652344 6.316406 43.757812 7.875 43.90625 L 9.5 44.0625 L 9.5 39 L 5.945312 39 L 6.097656 41.375 M 90.5 47.78125 L 90.5 56.5625 L 93.75 56.25 L 94.023438 39 L 90.5 39 L 90.5 47.78125 M 22 41.492188 C 22 42.105469 22.425781 42.582031 23.125 42.746094 C 24.644531 43.101562 34.058594 45 34.304688 45 C 34.414062 45 34.5 43.988281 34.5 42.75 L 34.5 40.5 L 28.25 40.5 C 22.351562 40.5 22 40.554688 22 41.492188 M 43.691406 55.222656 C 43.101562 56.761719 43.730469 57.746094 45.410156 57.910156 C 46.875 58.050781 47.042969 58.21875 46.90625 59.410156 C 46.777344 60.515625 46.46875 60.777344 45.125 60.90625 C 43.703125 61.042969 43.5 61.246094 43.5 62.5 C 43.5 63.753906 43.703125 63.957031 45.125 64.09375 C 46.46875 64.222656 46.777344 64.484375 46.90625 65.589844 C 47.042969 66.78125 46.875 66.949219 45.40625 67.089844 C 43.933594 67.234375 43.75 67.417969 43.75 68.75 C 43.75 70.242188 43.769531 70.25 46.875 70.398438 L 50 70.546875 L 50 54.5 L 46.984375 54.5 C 44.820312 54.5 43.890625 54.703125 43.691406 55.222656 "/>
</g>
</svg>
