<?xml version="1.0" encoding="UTF-8"?>
<svg xmlns="http://www.w3.org/2000/svg" xmlns:xlink="http://www.w3.org/1999/xlink" width="24px" height="24px" viewBox="0 0 24 24" version="1.1">
<g id="surface1">
<path style=" stroke:none;fill-rule:evenodd;fill:rgb(0%,0%,0%);fill-opacity:1;" d="M 8.640625 1.910156 C 8.300781 2.003906 8.304688 1.964844 8.460938 4.023438 L 8.554688 5.226562 L 8.152344 6 C 7.574219 7.105469 7.601562 7.738281 8.277344 9.066406 C 8.640625 9.789062 8.765625 10.160156 8.714844 10.371094 C 8.511719 11.167969 9.167969 12.554688 10.007812 13.105469 C 10.285156 13.289062 10.464844 13.53125 10.5625 13.855469 C 10.769531 14.550781 11.105469 14.96875 11.828125 15.429688 C 12.300781 15.730469 12.480469 15.929688 12.542969 16.210938 C 12.65625 16.722656 13.441406 17.476562 14.027344 17.636719 C 14.335938 17.71875 14.535156 17.851562 14.585938 18.015625 C 14.796875 18.683594 16.265625 19.792969 16.9375 19.796875 C 17.046875 19.800781 17.332031 20.070312 17.570312 20.402344 C 18.070312 21.097656 18.625 21.480469 19.140625 21.480469 C 19.386719 21.480469 19.609375 21.59375 19.839844 21.839844 C 20.316406 22.34375 20.75 22.320312 21.292969 21.765625 C 21.988281 21.046875 22.011719 20.257812 21.359375 19.515625 C 21.160156 19.292969 21 19.0625 21 19.003906 C 20.996094 18.300781 20.394531 17.402344 19.679688 17.039062 C 19.304688 16.847656 19.21875 16.730469 19.15625 16.328125 C 19.054688 15.703125 18.476562 15.042969 17.871094 14.863281 C 17.511719 14.753906 17.3125 14.585938 17.035156 14.148438 C 16.613281 13.496094 15.6875 12.601562 15.433594 12.601562 C 15.335938 12.601562 15.191406 12.398438 15.109375 12.152344 C 15.027344 11.894531 14.664062 11.40625 14.261719 11.003906 C 13.632812 10.375 13.558594 10.25 13.558594 9.800781 C 13.554688 9.125 13.195312 8.378906 12.6875 7.992188 C 12.355469 7.742188 12.257812 7.566406 12.199219 7.136719 C 12.09375 6.363281 11.710938 5.675781 10.960938 4.910156 C 10.355469 4.289062 10.285156 4.15625 10.027344 3.152344 C 9.878906 2.558594 9.714844 2.007812 9.667969 1.933594 C 9.578125 1.789062 9.113281 1.777344 8.640625 1.910156 M 9.046875 2.695312 C 9.09375 2.828125 9.164062 3.453125 9.203125 4.085938 C 9.273438 5.222656 9.269531 5.246094 8.828125 6.226562 C 8.402344 7.167969 8.386719 7.242188 8.515625 7.789062 C 8.59375 8.105469 8.847656 8.679688 9.078125 9.066406 C 9.441406 9.667969 9.496094 9.847656 9.4375 10.269531 C 9.320312 11.113281 9.546875 11.625 10.390625 12.449219 C 10.8125 12.863281 11.160156 13.292969 11.160156 13.410156 C 11.160156 13.835938 11.734375 14.5625 12.359375 14.929688 C 12.882812 15.238281 13.023438 15.398438 13.210938 15.898438 C 13.460938 16.554688 13.785156 16.871094 14.339844 16.988281 C 14.738281 17.074219 15.238281 17.476562 15.238281 17.710938 C 15.238281 18.125 16.449219 19.078125 16.96875 19.078125 C 17.355469 19.078125 17.773438 19.378906 18.054688 19.859375 C 18.449219 20.539062 18.625 20.660156 19.355469 20.773438 C 19.824219 20.847656 20.050781 20.957031 20.253906 21.207031 L 20.527344 21.539062 L 20.824219 21.203125 C 21.230469 20.742188 21.199219 20.367188 20.699219 19.816406 C 20.46875 19.558594 20.28125 19.234375 20.28125 19.089844 C 20.28125 18.617188 19.9375 17.996094 19.554688 17.789062 C 18.855469 17.40625 18.609375 17.152344 18.535156 16.75 C 18.402344 16.054688 18.058594 15.625 17.519531 15.480469 C 17.136719 15.378906 16.9375 15.21875 16.644531 14.792969 C 16.011719 13.878906 15.585938 13.4375 15.167969 13.261719 C 14.882812 13.144531 14.6875 12.921875 14.453125 12.457031 C 14.28125 12.109375 13.84375 11.546875 13.488281 11.210938 C 12.863281 10.628906 12.839844 10.582031 12.839844 9.976562 C 12.839844 9.21875 12.597656 8.707031 12.121094 8.460938 C 11.691406 8.238281 11.519531 7.945312 11.515625 7.417969 C 11.511719 6.796875 11.105469 6.050781 10.332031 5.242188 C 9.6875 4.570312 9.597656 4.410156 9.378906 3.558594 C 9.246094 3.042969 9.097656 2.582031 9.050781 2.539062 C 9 2.496094 9 2.566406 9.046875 2.695312 M 3 3.03125 C 2.734375 3.167969 2.691406 3.285156 2.632812 4.023438 C 2.59375 4.484375 2.472656 5.0625 2.363281 5.304688 C 2.09375 5.894531 2.105469 6.59375 2.398438 7.652344 C 2.53125 8.128906 2.640625 8.835938 2.640625 9.230469 C 2.640625 9.796875 2.726562 10.121094 3.058594 10.816406 C 3.289062 11.300781 3.480469 11.828125 3.484375 11.996094 C 3.488281 12.4375 3.855469 13.175781 4.402344 13.832031 C 4.664062 14.148438 4.96875 14.691406 5.078125 15.046875 C 5.300781 15.75 6 16.632812 6.65625 17.035156 C 6.90625 17.191406 7.089844 17.417969 7.136719 17.632812 C 7.277344 18.257812 7.894531 19.066406 8.558594 19.492188 C 8.914062 19.71875 9.425781 20.117188 9.695312 20.375 C 9.960938 20.632812 10.390625 20.9375 10.640625 21.054688 C 10.894531 21.167969 11.496094 21.457031 11.980469 21.691406 L 12.863281 22.121094 L 13.800781 21.96875 C 14.316406 21.882812 14.953125 21.851562 15.21875 21.894531 C 15.933594 22.015625 16.035156 21.742188 15.550781 21 C 15.347656 20.6875 15.03125 20.148438 14.84375 19.804688 C 14.640625 19.425781 14.363281 19.105469 14.128906 18.980469 C 13.917969 18.871094 13.484375 18.5 13.164062 18.160156 C 12.84375 17.816406 12.375 17.457031 12.125 17.355469 C 11.78125 17.21875 11.582031 17.015625 11.300781 16.515625 C 11.09375 16.15625 10.742188 15.714844 10.511719 15.542969 C 10.191406 15.296875 10.066406 15.085938 9.96875 14.625 C 9.804688 13.867188 9.554688 13.371094 9.066406 12.839844 C 8.855469 12.609375 8.609375 12.175781 8.527344 11.878906 C 8.441406 11.582031 8.167969 11.042969 7.917969 10.679688 C 7.667969 10.316406 7.425781 9.832031 7.378906 9.601562 C 7.242188 8.929688 6.738281 7.957031 6.363281 7.640625 C 6.160156 7.46875 5.960938 7.136719 5.875 6.824219 C 5.675781 6.082031 5.449219 5.683594 4.863281 5.050781 C 4.246094 4.382812 4.089844 4.101562 3.980469 3.445312 C 3.910156 3.023438 3.84375 2.933594 3.597656 2.910156 C 3.433594 2.890625 3.164062 2.945312 3 3.03125 M 3.363281 4.457031 C 3.363281 4.632812 3.253906 5.007812 3.121094 5.296875 C 2.992188 5.585938 2.882812 6.082031 2.882812 6.398438 L 2.878906 6.976562 L 3.285156 6.546875 C 3.71875 6.089844 4.210938 5.988281 4.714844 6.257812 C 4.972656 6.394531 4.972656 6.394531 4.75 6.058594 C 4.628906 5.871094 4.339844 5.53125 4.113281 5.304688 C 3.882812 5.074219 3.621094 4.71875 3.53125 4.511719 C 3.371094 4.140625 3.371094 4.140625 3.363281 4.457031 M 3.785156 6.953125 C 3.671875 7.136719 3.9375 7.21875 4.199219 7.082031 C 4.332031 7.011719 4.441406 6.925781 4.441406 6.894531 C 4.441406 6.789062 3.855469 6.839844 3.785156 6.953125 M 4.988281 7.300781 C 4.917969 7.511719 4.644531 7.691406 4.164062 7.847656 C 4.042969 7.886719 3.753906 7.835938 3.519531 7.738281 C 3.125 7.574219 3.101562 7.578125 3.183594 7.769531 C 3.230469 7.886719 3.296875 8.410156 3.332031 8.941406 C 3.378906 9.6875 3.46875 10.042969 3.734375 10.539062 C 3.917969 10.890625 4.105469 11.378906 4.148438 11.621094 C 4.285156 12.441406 4.4375 12.78125 4.980469 13.4375 C 5.277344 13.800781 5.609375 14.367188 5.71875 14.699219 C 5.980469 15.503906 6.261719 15.878906 7.019531 16.441406 C 7.476562 16.777344 7.699219 17.042969 7.804688 17.367188 C 8.058594 18.15625 8.320312 18.484375 9.121094 19.015625 C 9.550781 19.296875 10.035156 19.679688 10.199219 19.855469 C 10.492188 20.175781 10.886719 20.421875 11.429688 20.628906 C 11.6875 20.726562 11.703125 20.707031 11.660156 20.273438 C 11.625 19.890625 11.671875 19.757812 11.945312 19.503906 C 12.140625 19.324219 12.417969 19.199219 12.625 19.199219 L 12.972656 19.199219 L 12.757812 18.828125 C 12.539062 18.457031 12.121094 18.105469 11.730469 17.964844 C 11.542969 17.894531 11.546875 17.929688 11.765625 18.222656 C 12.082031 18.648438 11.988281 19.085938 11.496094 19.5 C 10.792969 20.09375 9.839844 19.796875 9.839844 18.980469 C 9.839844 18.546875 10.566406 17.878906 11.039062 17.878906 L 11.421875 17.878906 L 11.109375 17.511719 C 10.941406 17.308594 10.800781 17.089844 10.800781 17.027344 C 10.800781 16.964844 10.480469 16.570312 10.09375 16.15625 C 9.535156 15.554688 9.367188 15.285156 9.300781 14.867188 C 9.1875 14.1875 8.972656 13.78125 8.460938 13.269531 C 8.234375 13.042969 8.015625 12.703125 7.976562 12.519531 C 7.863281 11.988281 7.585938 11.417969 7.203125 10.9375 C 7.007812 10.699219 6.792969 10.238281 6.722656 9.917969 C 6.550781 9.152344 6.308594 8.6875 5.742188 8.074219 C 5.488281 7.792969 5.28125 7.484375 5.28125 7.390625 C 5.28125 7.117188 5.066406 7.050781 4.988281 7.300781 M 4.5 8.570312 C 3.164062 9.15625 3.496094 10.679688 4.957031 10.679688 C 5.453125 10.679688 6.121094 10.253906 6.339844 9.796875 C 6.78125 8.878906 5.59375 8.085938 4.5 8.570312 M 4.550781 9.367188 C 4.242188 9.679688 4.421875 9.960938 4.933594 9.960938 C 5.390625 9.960938 5.835938 9.535156 5.632812 9.292969 C 5.425781 9.039062 4.839844 9.082031 4.550781 9.367188 M 5.542969 11.121094 C 5.132812 11.324219 4.800781 11.816406 4.800781 12.21875 C 4.800781 12.570312 5.242188 13.050781 5.652344 13.140625 C 7.046875 13.449219 8.167969 12.054688 7.191406 11.230469 C 6.757812 10.863281 6.144531 10.824219 5.542969 11.121094 M 5.789062 11.824219 C 5.425781 12.078125 5.449219 12.335938 5.839844 12.4375 C 6.25 12.539062 6.78125 12.253906 6.78125 11.933594 C 6.78125 11.625 6.164062 11.558594 5.789062 11.824219 M 7.199219 13.6875 C 6.152344 14.128906 6.042969 15.277344 7.019531 15.601562 C 7.570312 15.78125 8.164062 15.589844 8.574219 15.101562 C 8.949219 14.65625 8.960938 14.382812 8.609375 13.984375 C 8.304688 13.628906 7.664062 13.496094 7.199219 13.6875 M 7.289062 14.410156 C 7.007812 14.574219 7.023438 14.847656 7.324219 14.941406 C 7.574219 15.019531 8.160156 14.730469 8.160156 14.53125 C 8.160156 14.292969 7.617188 14.21875 7.289062 14.410156 M 8.933594 16.101562 C 8.464844 16.222656 8.066406 16.648438 7.96875 17.128906 C 7.90625 17.429688 7.953125 17.5625 8.199219 17.8125 C 9.085938 18.695312 10.738281 17.382812 10.023438 16.363281 C 9.8125 16.0625 9.433594 15.96875 8.933594 16.101562 M 9.046875 16.800781 C 8.800781 16.898438 8.578125 17.257812 8.691406 17.371094 C 8.808594 17.488281 9.335938 17.273438 9.410156 17.082031 C 9.515625 16.808594 9.355469 16.683594 9.046875 16.800781 M 10.703125 18.742188 C 10.5 18.949219 10.527344 19.078125 10.777344 19.078125 C 11 19.078125 11.28125 18.867188 11.28125 18.695312 C 11.28125 18.546875 10.867188 18.582031 10.703125 18.742188 M 13.414062 19.835938 C 13.476562 20.367188 13.136719 20.765625 12.53125 20.875 L 12.058594 20.957031 L 12.5 21.175781 C 12.902344 21.375 13.027344 21.382812 13.832031 21.246094 L 14.722656 21.09375 L 14.363281 20.417969 C 13.824219 19.398438 13.328125 19.09375 13.414062 19.835938 M 12.421875 20.039062 C 12.378906 20.105469 12.398438 20.160156 12.464844 20.160156 C 12.53125 20.160156 12.621094 20.105469 12.660156 20.039062 C 12.699219 19.972656 12.679688 19.921875 12.613281 19.921875 C 12.546875 19.921875 12.460938 19.972656 12.421875 20.039062 "/>
</g>
</svg>
