<?xml version="1.0" encoding="UTF-8"?>
<svg xmlns="http://www.w3.org/2000/svg" xmlns:xlink="http://www.w3.org/1999/xlink" width="24px" height="24px" viewBox="0 0 24 24" version="1.1">
<g id="surface1">
<path style=" stroke:none;fill-rule:evenodd;fill:rgb(0%,0%,0%);fill-opacity:1;" d="M 2.28125 7.140625 C 2.28125 7.558594 2.28125 7.558594 2.820312 7.558594 C 3.117188 7.558594 3.359375 7.53125 3.359375 7.496094 C 3.359375 7.265625 2.792969 6.71875 2.558594 6.71875 C 2.320312 6.71875 2.28125 6.78125 2.28125 7.140625 M 10.464844 7.289062 C 10.5 7.835938 10.515625 7.863281 10.890625 7.898438 L 11.28125 7.933594 L 11.28125 6.71875 L 10.425781 6.71875 L 10.464844 7.289062 M 12 7.320312 C 12 7.90625 12.007812 7.921875 12.359375 7.921875 C 12.710938 7.921875 12.71875 7.90625 12.71875 7.320312 C 12.71875 6.734375 12.710938 6.71875 12.359375 6.71875 C 12.007812 6.71875 12 6.734375 12 7.320312 M 13.464844 7.289062 C 13.5 7.835938 13.515625 7.863281 13.890625 7.898438 L 14.28125 7.933594 L 14.28125 6.71875 L 13.425781 6.71875 L 13.464844 7.289062 M 15 7.320312 C 15 7.90625 15.007812 7.921875 15.359375 7.921875 C 15.710938 7.921875 15.71875 7.90625 15.71875 7.320312 C 15.71875 6.734375 15.710938 6.71875 15.359375 6.71875 C 15.007812 6.71875 15 6.734375 15 7.320312 M 8.640625 7.1875 C 8.640625 7.519531 8.675781 7.558594 9 7.558594 C 9.304688 7.558594 9.359375 7.511719 9.359375 7.261719 C 9.359375 7.082031 9.292969 6.960938 9.191406 6.960938 C 9.097656 6.960938 8.933594 6.925781 8.828125 6.886719 C 8.683594 6.832031 8.640625 6.898438 8.640625 7.1875 M 1.441406 8.640625 L 1.441406 9 L 8.476562 9 L 9.164062 8.28125 L 1.441406 8.28125 L 1.441406 8.640625 M 9.625 8.914062 L 9 9.546875 L 9 11.757812 L 9.597656 12.058594 C 10.074219 12.300781 10.367188 12.359375 11.089844 12.359375 L 11.984375 12.359375 L 12.023438 11.851562 L 12.058594 11.339844 L 16.015625 11.339844 L 16.21875 12.085938 C 16.328125 12.5 16.453125 12.984375 16.492188 13.167969 L 16.566406 13.5 L 14.402344 13.421875 L 14.777344 13.105469 C 14.984375 12.933594 15.230469 12.609375 15.320312 12.386719 C 15.515625 11.917969 15.429688 11.46875 15.160156 11.570312 C 15.0625 11.609375 14.90625 11.640625 14.816406 11.640625 C 14.730469 11.640625 14.640625 11.789062 14.617188 11.96875 C 14.59375 12.1875 14.449219 12.378906 14.1875 12.539062 C 13.863281 12.738281 13.804688 12.835938 13.855469 13.109375 C 13.9375 13.582031 13.699219 13.53125 13.140625 12.960938 L 12.671875 12.480469 L 12.394531 12.746094 L 12.113281 13.007812 L 13.371094 14.28125 L 16.558594 14.28125 L 16.570312 13.949219 L 16.582031 13.621094 L 16.667969 13.921875 C 16.742188 14.195312 16.816406 14.222656 17.496094 14.253906 C 17.90625 14.273438 18.238281 14.25 18.238281 14.195312 C 18.234375 14.144531 18.101562 13.644531 17.9375 13.085938 C 17.773438 12.527344 17.640625 11.8125 17.640625 11.496094 C 17.640625 10.9375 17.648438 10.921875 18 10.921875 C 18.335938 10.921875 18.359375 10.949219 18.363281 11.371094 C 18.363281 11.816406 18.375 11.824219 19.578125 12.480469 C 20.242188 12.84375 20.835938 13.15625 20.894531 13.179688 C 20.953125 13.203125 21 12.351562 21 11.289062 L 21 9.359375 L 20.046875 9.359375 C 19.097656 9.359375 19.097656 9.359375 19.058594 9.691406 C 19.019531 10.007812 18.992188 10.019531 18.238281 10.054688 L 17.460938 10.089844 L 16.5625 9.183594 L 15.664062 8.28125 L 10.25 8.28125 L 9.625 8.914062 M 10.207031 9.542969 C 9.75 10.042969 9.710938 10.132812 9.742188 10.65625 C 9.777344 11.171875 9.808594 11.222656 10.109375 11.257812 C 10.421875 11.292969 10.441406 11.269531 10.441406 10.824219 C 10.441406 10.527344 10.53125 10.234375 10.6875 10.035156 C 10.917969 9.746094 11.007812 9.71875 11.828125 9.71875 L 12.71875 9.71875 L 12.71875 9 L 10.710938 9 L 10.207031 9.542969 M 13.558594 9.359375 C 13.558594 9.679688 13.601562 9.71875 13.921875 9.71875 C 14.238281 9.71875 14.28125 9.679688 14.28125 9.359375 C 14.28125 9.039062 14.238281 9 13.921875 9 C 13.601562 9 13.558594 9.039062 13.558594 9.359375 M 15 9.359375 C 15 9.679688 15.039062 9.71875 15.359375 9.71875 C 15.679688 9.71875 15.71875 9.679688 15.71875 9.359375 C 15.71875 9.039062 15.679688 9 15.359375 9 C 15.039062 9 15 9.039062 15 9.359375 M 1.464844 9.929688 C 1.5 10.476562 1.515625 10.5 1.890625 10.539062 L 2.28125 10.574219 L 2.28125 9.359375 L 1.425781 9.359375 L 1.464844 9.929688 M 21.71875 11.46875 L 21.71875 13.574219 L 22.109375 13.539062 L 22.5 13.5 L 22.53125 11.429688 L 22.566406 9.359375 L 21.71875 9.359375 L 21.71875 11.46875 M 5.28125 9.957031 C 5.28125 10.105469 5.382812 10.21875 5.550781 10.257812 C 5.914062 10.34375 8.175781 10.800781 8.234375 10.800781 C 8.257812 10.800781 8.28125 10.558594 8.28125 10.261719 L 8.28125 9.71875 L 6.78125 9.71875 C 5.363281 9.71875 5.28125 9.734375 5.28125 9.957031 M 10.484375 13.253906 C 10.34375 13.621094 10.496094 13.859375 10.898438 13.898438 C 11.25 13.933594 11.289062 13.972656 11.257812 14.257812 C 11.226562 14.523438 11.152344 14.585938 10.828125 14.617188 C 10.488281 14.652344 10.441406 14.699219 10.441406 15 C 10.441406 15.300781 10.488281 15.347656 10.828125 15.382812 C 11.152344 15.414062 11.226562 15.476562 11.257812 15.742188 C 11.289062 16.027344 11.25 16.066406 10.898438 16.101562 C 10.542969 16.136719 10.5 16.179688 10.5 16.5 C 10.5 16.859375 10.503906 16.859375 11.25 16.894531 L 12 16.929688 L 12 13.078125 L 11.277344 13.078125 C 10.757812 13.078125 10.535156 13.128906 10.484375 13.253906 "/>
</g>
</svg>
