<?xml version="1.0" encoding="UTF-8"?>
<svg xmlns="http://www.w3.org/2000/svg" xmlns:xlink="http://www.w3.org/1999/xlink" width="100px" height="100px" viewBox="0 0 100 100" version="1.1">
<g id="surface1">
<path style=" stroke:none;fill-rule:evenodd;fill:rgb(0%,0%,0%);fill-opacity:1;" d="M 36 7.953125 C 34.59375 8.347656 34.605469 8.195312 35.257812 16.761719 L 35.636719 21.777344 L 33.960938 24.996094 C 31.566406 29.601562 31.675781 32.234375 34.488281 37.785156 C 36.011719 40.785156 36.527344 42.324219 36.304688 43.207031 C 35.46875 46.535156 38.203125 52.316406 41.703125 54.609375 C 42.859375 55.363281 43.605469 56.378906 44.011719 57.738281 C 44.875 60.628906 46.273438 62.367188 49.277344 64.289062 C 51.25 65.550781 52.003906 66.371094 52.257812 67.539062 C 52.730469 69.683594 56 72.828125 58.445312 73.484375 C 59.742188 73.835938 60.554688 74.386719 60.769531 75.066406 C 61.65625 77.847656 67.765625 82.476562 70.578125 82.496094 C 71.035156 82.496094 72.21875 83.628906 73.210938 85.011719 C 75.292969 87.910156 77.605469 89.496094 79.75 89.496094 C 80.769531 89.5 81.707031 89.980469 82.667969 91 C 84.648438 93.097656 86.464844 93.003906 88.714844 90.683594 C 91.613281 87.703125 91.710938 84.414062 88.992188 81.316406 C 88.171875 80.382812 87.5 79.421875 87.496094 79.183594 C 87.476562 76.246094 84.972656 72.515625 82.003906 71.003906 C 80.441406 70.207031 80.082031 69.71875 79.8125 68.039062 C 79.398438 65.433594 76.988281 62.6875 74.457031 61.925781 C 72.96875 61.484375 72.136719 60.773438 70.972656 58.960938 C 69.222656 56.230469 65.367188 52.5 64.300781 52.5 C 63.902344 52.5 63.300781 51.660156 62.960938 50.632812 C 62.609375 49.558594 61.101562 47.519531 59.421875 45.84375 C 56.800781 43.222656 56.5 42.703125 56.488281 40.835938 C 56.472656 38.023438 54.980469 34.917969 52.871094 33.308594 C 51.484375 32.253906 51.070312 31.527344 50.824219 29.738281 C 50.382812 26.519531 48.792969 23.652344 45.667969 20.453125 C 43.140625 17.867188 42.847656 17.3125 41.785156 13.140625 C 41.152344 10.65625 40.480469 8.371094 40.289062 8.0625 C 39.910156 7.449219 37.964844 7.398438 36 7.953125 M 37.699219 11.238281 C 37.894531 11.78125 38.1875 14.382812 38.347656 17.019531 C 38.636719 21.757812 38.617188 21.863281 36.777344 25.9375 C 35.003906 29.863281 34.941406 30.179688 35.488281 32.453125 C 35.804688 33.765625 36.859375 36.167969 37.832031 37.785156 C 39.339844 40.285156 39.5625 41.03125 39.324219 42.789062 C 38.839844 46.300781 39.773438 48.433594 43.300781 51.875 C 45.058594 53.589844 46.5 55.390625 46.503906 55.875 C 46.507812 57.648438 48.890625 60.671875 51.492188 62.207031 C 53.671875 63.492188 54.261719 64.164062 55.050781 66.246094 C 56.085938 68.976562 57.441406 70.289062 59.75 70.785156 C 61.40625 71.140625 63.5 72.824219 63.5 73.800781 C 63.5 75.515625 68.539062 79.5 70.707031 79.5 C 72.3125 79.5 74.050781 80.753906 75.21875 82.746094 C 76.878906 85.574219 77.609375 86.089844 80.644531 86.5625 C 82.59375 86.867188 83.539062 87.320312 84.390625 88.359375 L 85.535156 89.75 L 86.765625 88.347656 C 88.460938 86.417969 88.324219 84.859375 86.25 82.566406 C 85.289062 81.5 84.5 80.140625 84.5 79.546875 C 84.5 77.566406 83.066406 74.992188 81.472656 74.113281 C 78.570312 72.519531 77.539062 71.464844 77.222656 69.789062 C 76.679688 66.894531 75.25 65.105469 72.992188 64.496094 C 71.410156 64.070312 70.574219 63.417969 69.34375 61.632812 C 66.71875 57.828125 64.949219 55.992188 63.203125 55.261719 C 62.003906 54.761719 61.191406 53.847656 60.226562 51.910156 C 59.5 50.449219 57.6875 48.113281 56.199219 46.71875 C 53.597656 44.28125 53.5 44.09375 53.5 41.570312 C 53.5 38.40625 52.492188 36.28125 50.507812 35.253906 C 48.710938 34.324219 48.003906 33.101562 47.988281 30.90625 C 47.972656 28.3125 46.28125 25.203125 43.050781 21.839844 C 40.371094 19.046875 39.988281 18.375 39.082031 14.832031 C 38.53125 12.675781 37.914062 10.765625 37.710938 10.582031 C 37.507812 10.398438 37.5 10.695312 37.699219 11.238281 M 12.5 12.632812 C 11.398438 13.199219 11.214844 13.6875 10.964844 16.761719 C 10.808594 18.679688 10.300781 21.085938 9.839844 22.109375 C 8.730469 24.5625 8.78125 27.472656 10 31.878906 C 10.550781 33.863281 11 36.820312 11 38.453125 C 11 40.8125 11.355469 42.164062 12.75 45.070312 C 13.710938 47.078125 14.503906 49.289062 14.511719 49.984375 C 14.527344 51.824219 16.070312 54.902344 18.339844 57.632812 C 19.429688 58.945312 20.703125 61.222656 21.167969 62.695312 C 22.089844 65.621094 25 69.300781 27.730469 70.988281 C 28.78125 71.636719 29.546875 72.582031 29.742188 73.464844 C 30.316406 76.074219 32.886719 79.441406 35.664062 81.214844 C 37.140625 82.160156 39.269531 83.816406 40.390625 84.894531 C 41.511719 85.96875 43.285156 87.246094 44.339844 87.726562 C 45.390625 88.207031 47.902344 89.402344 49.921875 90.382812 L 53.59375 92.164062 L 57.5 91.53125 C 59.648438 91.179688 62.308594 91.046875 63.40625 91.234375 C 66.382812 91.738281 66.8125 90.585938 64.800781 87.503906 C 63.949219 86.191406 62.621094 83.953125 61.855469 82.527344 C 61.003906 80.941406 59.839844 79.605469 58.867188 79.089844 C 57.992188 78.628906 56.183594 77.085938 54.847656 75.664062 C 53.511719 74.242188 51.566406 72.734375 50.523438 72.320312 C 49.089844 71.742188 48.253906 70.898438 47.082031 68.820312 C 46.230469 67.3125 44.753906 65.484375 43.800781 64.757812 C 42.464844 63.734375 41.945312 62.867188 41.535156 60.941406 C 40.855469 57.777344 39.808594 55.707031 37.777344 53.5 C 36.890625 52.539062 35.878906 50.738281 35.527344 49.5 C 35.175781 48.261719 34.03125 46.011719 32.988281 44.5 C 31.945312 42.988281 30.933594 40.960938 30.738281 40 C 30.175781 37.210938 28.074219 33.152344 26.511719 31.835938 C 25.660156 31.121094 24.832031 29.730469 24.484375 28.4375 C 23.652344 25.339844 22.699219 23.675781 20.265625 21.046875 C 17.695312 18.269531 17.046875 17.09375 16.582031 14.351562 C 16.285156 12.597656 16.023438 12.226562 14.988281 12.121094 C 14.308594 12.050781 13.1875 12.28125 12.5 12.632812 M 14.019531 18.570312 C 14.007812 19.296875 13.554688 20.871094 13.011719 22.070312 C 12.46875 23.269531 12.015625 25.335938 12.011719 26.660156 L 12 29.070312 L 13.683594 27.285156 C 15.492188 25.371094 17.542969 24.953125 19.640625 26.074219 C 20.710938 26.648438 20.710938 26.648438 19.789062 25.242188 C 19.285156 24.46875 18.085938 23.054688 17.132812 22.097656 C 16.175781 21.140625 15.089844 19.660156 14.714844 18.804688 C 14.039062 17.253906 14.039062 17.253906 14.019531 18.570312 M 15.773438 28.964844 C 15.296875 29.734375 16.40625 30.085938 17.488281 29.503906 C 18.046875 29.207031 18.5 28.859375 18.5 28.734375 C 18.5 28.292969 16.058594 28.5 15.773438 28.964844 M 20.777344 30.414062 C 20.5 31.292969 19.355469 32.054688 17.347656 32.699219 C 16.851562 32.859375 15.644531 32.65625 14.671875 32.25 C 13.019531 31.558594 12.921875 31.566406 13.261719 32.378906 C 13.460938 32.859375 13.742188 35.050781 13.878906 37.25 C 14.078125 40.355469 14.449219 41.84375 15.550781 43.917969 C 16.332031 45.386719 17.109375 47.410156 17.277344 48.417969 C 17.851562 51.847656 18.492188 53.25 20.746094 55.996094 C 21.988281 57.507812 23.371094 59.871094 23.820312 61.246094 C 24.921875 64.601562 26.089844 66.164062 29.253906 68.503906 C 31.152344 69.90625 32.085938 71.007812 32.519531 72.359375 C 33.582031 75.65625 34.664062 77.011719 38 79.226562 C 39.789062 80.410156 41.8125 81.992188 42.5 82.738281 C 43.722656 84.066406 45.355469 85.089844 47.628906 85.953125 C 48.703125 86.363281 48.753906 86.28125 48.582031 84.464844 C 48.429688 82.882812 48.640625 82.320312 49.773438 81.273438 C 50.589844 80.515625 51.734375 80 52.601562 80 L 54.054688 80 L 53.152344 78.453125 C 52.246094 76.898438 50.511719 75.4375 48.871094 74.84375 C 48.097656 74.566406 48.117188 74.703125 49.027344 75.929688 C 50.335938 77.703125 49.953125 79.53125 47.90625 81.25 C 44.96875 83.722656 41 82.480469 41 79.089844 C 41 77.285156 44.03125 74.5 45.996094 74.5 L 47.589844 74.5 L 46.292969 72.960938 C 45.582031 72.117188 45 71.210938 45 70.949219 C 45 70.6875 43.675781 69.050781 42.054688 67.308594 C 39.734375 64.8125 39.035156 63.683594 38.746094 61.949219 C 38.277344 59.113281 37.390625 57.425781 35.257812 55.292969 C 34.3125 54.34375 33.402344 52.933594 33.238281 52.160156 C 32.769531 49.953125 31.601562 47.566406 30.011719 45.578125 C 29.207031 44.574219 28.308594 42.660156 28.011719 41.324219 C 27.300781 38.128906 26.28125 36.203125 23.933594 33.636719 C 22.871094 32.472656 22 31.191406 22 30.789062 C 22 29.652344 21.105469 29.378906 20.777344 30.414062 M 18.75 35.703125 C 13.191406 38.15625 14.5625 44.5 20.652344 44.5 C 22.714844 44.5 25.507812 42.71875 26.421875 40.820312 C 28.257812 36.996094 23.304688 33.691406 18.75 35.703125 M 18.964844 39.035156 C 17.667969 40.332031 18.421875 41.5 20.5625 41.5 C 22.457031 41.5 24.308594 39.726562 23.472656 38.714844 C 22.601562 37.667969 20.160156 37.839844 18.964844 39.035156 M 23.097656 46.335938 C 21.394531 47.175781 20 49.234375 20 50.90625 C 20 52.382812 21.84375 54.386719 23.546875 54.761719 C 29.359375 56.035156 34.039062 50.226562 29.960938 46.792969 C 28.152344 45.273438 25.605469 45.101562 23.097656 46.335938 M 24.125 49.261719 C 22.613281 50.328125 22.703125 51.40625 24.339844 51.816406 C 26.035156 52.242188 28.25 51.0625 28.25 49.730469 C 28.25 48.445312 25.691406 48.152344 24.125 49.261719 M 30 57.039062 C 25.628906 58.863281 25.175781 63.65625 29.246094 65 C 31.542969 65.757812 34.019531 64.964844 35.734375 62.929688 C 37.296875 61.074219 37.328125 59.933594 35.875 58.261719 C 34.597656 56.789062 31.925781 56.234375 30 57.039062 M 30.375 60.039062 C 29.195312 60.726562 29.269531 61.859375 30.523438 62.257812 C 31.558594 62.585938 34 61.382812 34 60.542969 C 34 59.554688 31.742188 59.242188 30.375 60.039062 M 37.222656 67.082031 C 35.269531 67.589844 33.601562 69.363281 33.203125 71.367188 C 32.949219 72.628906 33.136719 73.183594 34.171875 74.21875 C 37.855469 77.902344 44.738281 72.421875 41.765625 68.171875 C 40.886719 66.921875 39.308594 66.542969 37.222656 67.082031 M 37.695312 70.011719 C 36.667969 70.40625 35.734375 71.902344 36.214844 72.382812 C 36.703125 72.867188 38.902344 71.980469 39.210938 71.171875 C 39.648438 70.035156 38.972656 69.519531 37.695312 70.011719 M 44.601562 78.101562 C 43.742188 78.957031 43.859375 79.5 44.898438 79.5 C 45.828125 79.5 47 78.605469 47 77.898438 C 47 77.28125 45.273438 77.425781 44.601562 78.101562 M 55.890625 82.640625 C 56.152344 84.863281 54.742188 86.527344 52.21875 86.976562 L 50.25 87.324219 L 52.089844 88.238281 C 53.761719 89.066406 54.277344 89.09375 57.636719 88.519531 L 61.34375 87.886719 L 59.851562 85.066406 C 57.605469 80.820312 55.53125 79.550781 55.890625 82.640625 M 51.75 83.5 C 51.578125 83.773438 51.664062 84 51.941406 84 C 52.214844 84 52.578125 83.773438 52.75 83.5 C 52.921875 83.226562 52.835938 83 52.558594 83 C 52.285156 83 51.921875 83.226562 51.75 83.5 "/>
</g>
</svg>
