<?xml version="1.0" encoding="UTF-8"?>
<svg xmlns="http://www.w3.org/2000/svg" xmlns:xlink="http://www.w3.org/1999/xlink" width="24px" height="24px" viewBox="0 0 24 24" version="1.1">
<g id="surface1">
<path style=" stroke:none;fill-rule:evenodd;fill:rgb(0%,0%,0%);fill-opacity:1;" d="M 16.945312 0.375 C 16.464844 1.257812 15.769531 2.210938 14.671875 3.492188 C 13.085938 5.34375 8.535156 9.875 4.742188 13.378906 C 0.03125 17.730469 0.398438 17.359375 0.550781 17.605469 C 0.625 17.722656 0.839844 17.855469 1.03125 17.90625 C 1.222656 17.953125 1.945312 18.128906 2.640625 18.292969 C 4.445312 18.726562 5.328125 19.214844 7.019531 20.707031 C 7.8125 21.40625 8.90625 22.277344 9.449219 22.640625 C 10.4375 23.300781 11.871094 23.992188 12.269531 23.996094 C 12.4375 24 12.683594 23.703125 13.152344 22.941406 C 13.167969 22.917969 13.683594 23.011719 14.300781 23.144531 C 14.914062 23.277344 16.054688 23.425781 16.828125 23.472656 L 18.238281 23.554688 L 18.882812 22.1875 C 21.425781 16.773438 22.96875 11.277344 23.394531 6.082031 C 23.535156 4.359375 23.554688 2.53125 23.441406 1.59375 C 23.375 1.023438 23.332031 0.957031 22.992188 0.847656 C 22.3125 0.632812 18.171875 0 17.433594 0 C 17.238281 0 17.085938 0.117188 16.945312 0.375 M 17.339844 1.386719 C 16.085938 3.53125 11.539062 8.265625 4.378906 14.875 C 3.058594 16.09375 1.964844 17.128906 1.945312 17.167969 C 1.925781 17.210938 2.238281 17.3125 2.632812 17.398438 L 3.355469 17.550781 L 3.867188 17.128906 C 4.730469 16.414062 6.542969 14.726562 6.960938 14.242188 C 7.382812 13.757812 7.734375 13.695312 7.964844 14.070312 C 8.074219 14.242188 7.960938 14.414062 7.257812 15.128906 C 6.796875 15.601562 5.957031 16.402344 5.386719 16.917969 L 4.355469 17.851562 L 5.300781 18.332031 L 6.246094 18.816406 L 7.976562 17 C 9.863281 15.015625 11.074219 13.609375 11.730469 12.628906 C 12.035156 12.175781 12.230469 12 12.429688 12 C 12.921875 12 12.914062 12.429688 12.414062 13.15625 C 11.769531 14.09375 9.992188 16.140625 8.296875 17.902344 L 6.832031 19.425781 L 7.941406 20.394531 C 8.554688 20.925781 9.089844 21.347656 9.132812 21.332031 C 9.175781 21.3125 9.4375 21.011719 9.714844 20.664062 C 10.277344 19.949219 10.480469 19.824219 10.742188 20.042969 C 11.011719 20.265625 10.964844 20.417969 10.390625 21.1875 L 9.859375 21.894531 L 10.179688 22.113281 C 10.59375 22.394531 11.507812 22.867188 11.839844 22.96875 C 12.066406 23.039062 12.171875 22.921875 12.695312 21.992188 C 13.542969 20.488281 15.609375 16.335938 16.976562 13.378906 C 17.617188 11.992188 18.21875 10.78125 18.3125 10.683594 C 18.507812 10.480469 18.875 10.632812 18.933594 10.941406 C 18.976562 11.160156 16.601562 16.273438 14.914062 19.59375 C 14.21875 20.964844 13.667969 22.105469 13.691406 22.128906 C 13.746094 22.175781 14.949219 22.441406 15.113281 22.441406 C 15.21875 22.441406 16.269531 20.183594 16.816406 18.78125 C 16.996094 18.316406 17.222656 17.890625 17.320312 17.828125 C 17.546875 17.683594 17.878906 17.9375 17.878906 18.25 C 17.878906 18.453125 17.308594 19.859375 16.460938 21.734375 L 16.101562 22.53125 L 16.648438 22.605469 C 17.753906 22.757812 17.664062 22.828125 18.421875 21.148438 C 20.523438 16.492188 21.820312 12.0625 22.371094 7.679688 C 22.601562 5.84375 22.730469 3.0625 22.625 2.222656 C 22.550781 1.625 22.511719 1.550781 22.289062 1.582031 C 22.089844 1.613281 22.003906 1.765625 21.875 2.339844 C 21.675781 3.242188 20.886719 5.648438 20.730469 5.851562 C 20.5625 6.0625 20.167969 6.035156 20.078125 5.808594 C 20.039062 5.703125 20.226562 4.90625 20.496094 4.039062 C 20.765625 3.171875 21.035156 2.203125 21.097656 1.890625 C 21.199219 1.378906 21.1875 1.320312 20.996094 1.320312 C 20.875 1.320312 20.707031 1.292969 20.621094 1.261719 C 20.519531 1.222656 20.265625 1.535156 19.921875 2.128906 C 18.671875 4.296875 15.988281 8.125 15.199219 8.859375 C 15.035156 9.015625 14.800781 9.121094 14.679688 9.097656 C 14.25 9.015625 14.371094 8.585938 15.066406 7.738281 C 16.074219 6.511719 17.285156 4.78125 18.488281 2.851562 L 19.558594 1.140625 L 19.167969 1.0625 C 18.957031 1.023438 18.527344 0.957031 18.21875 0.917969 L 17.660156 0.847656 L 17.339844 1.386719 M 16.164062 9.863281 C 16.070312 10.015625 15.800781 10.492188 15.566406 10.921875 C 15.332031 11.351562 14.8125 12.203125 14.410156 12.816406 C 14.007812 13.425781 13.679688 13.996094 13.679688 14.078125 C 13.679688 14.277344 13.925781 14.519531 14.128906 14.519531 C 14.3125 14.519531 16.242188 11.625 16.675781 10.695312 C 16.898438 10.214844 16.9375 10.015625 16.839844 9.863281 C 16.648438 9.554688 16.355469 9.554688 16.164062 9.863281 "/>
</g>
</svg>
