<?xml version="1.0" encoding="UTF-8"?>
<svg xmlns="http://www.w3.org/2000/svg" xmlns:xlink="http://www.w3.org/1999/xlink" width="100px" height="100px" viewBox="0 0 100 100" version="1.1">
<g id="surface1">
<path style=" stroke:none;fill-rule:evenodd;fill:rgb(0%,0%,0%);fill-opacity:1;" d="M 49.832031 5.066406 C 39.457031 6.398438 28.617188 12.648438 21.597656 21.34375 C 18.269531 25.46875 14.351562 32.65625 13.421875 36.347656 C 12.964844 38.164062 11.78125 39.679688 6.683594 44.96875 C 3.28125 48.5 0.5 51.523438 0.5 51.6875 C 0.5 51.855469 9.554688 52.046875 20.625 52.121094 L 40.75 52.25 L 40.75 58.003906 C 40.75 63.496094 40.824219 63.90625 42.394531 67.101562 C 44.988281 72.382812 49.613281 75.882812 55.460938 76.992188 C 56.933594 77.273438 64.828125 77.5 73.011719 77.5 L 87.882812 77.5 L 89.59375 75.605469 C 93.601562 71.171875 96.855469 65.238281 98.621094 59.148438 C 100.222656 53.613281 100.1875 43.695312 98.542969 37.25 C 96.390625 28.832031 92.582031 22.09375 86.933594 16.722656 C 79.808594 9.941406 71.9375 6.296875 61.75 5.050781 C 56.683594 4.433594 54.734375 4.4375 49.832031 5.066406 M 22.042969 56.125 C 21.808594 56.742188 20.683594 59.480469 19.546875 62.203125 C 16.835938 68.714844 17.035156 69.269531 22.25 69.617188 L 24.25 69.75 L 24.507812 76 C 24.789062 82.816406 25.210938 84.121094 28.035156 86.882812 C 30.035156 88.839844 32.277344 89.921875 35.085938 90.292969 L 37.25 90.578125 L 42.109375 84.070312 L 46.964844 77.558594 L 43.820312 74.402344 C 42.007812 72.582031 40.132812 70.089844 39.382812 68.5 C 37.777344 65.089844 36.8125 59.984375 37.238281 57.144531 L 37.5625 55 L 30.019531 55 C 22.65625 55 22.464844 55.027344 22.042969 56.125 M 52.703125 67.75 C 51.945312 68.90625 51.945312 69.09375 52.703125 70.25 C 54.085938 72.359375 57.5 71.472656 57.5 69 C 57.5 66.527344 54.085938 65.640625 52.703125 67.75 M 45.355469 84.976562 L 40.960938 90.914062 L 41.25 99.75 L 58.125 99.882812 L 75 100.011719 L 75 80.5 L 65.375 80.492188 C 58.480469 80.488281 54.96875 80.277344 53 79.75 C 51.488281 79.34375 50.136719 79.015625 50 79.023438 C 49.863281 79.03125 47.773438 81.710938 45.355469 84.976562 "/>
</g>
</svg>
