<?xml version="1.0" encoding="UTF-8"?>
<svg xmlns="http://www.w3.org/2000/svg" xmlns:xlink="http://www.w3.org/1999/xlink" width="100px" height="100px" viewBox="0 0 100 100" version="1.1">
<g id="surface1">
<path style=" stroke:none;fill-rule:evenodd;fill:rgb(0%,0%,0%);fill-opacity:1;" d="M 70.601562 1.566406 C 68.597656 5.246094 65.710938 9.207031 61.136719 14.550781 C 54.53125 22.261719 35.558594 41.148438 19.753906 55.75 C 0.128906 73.878906 1.667969 72.324219 2.300781 73.347656 C 2.605469 73.839844 3.507812 74.40625 4.300781 74.601562 C 5.097656 74.800781 8.113281 75.53125 11 76.226562 C 18.515625 78.03125 22.195312 80.058594 29.25 86.28125 C 32.550781 89.191406 37.109375 92.816406 39.378906 94.332031 C 43.484375 97.082031 49.464844 99.960938 51.117188 99.988281 C 51.824219 99.996094 52.851562 98.769531 54.808594 95.589844 C 54.863281 95.5 57.011719 95.878906 59.578125 96.4375 C 62.148438 96.992188 66.894531 97.605469 70.125 97.796875 L 76 98.148438 L 78.679688 92.449219 C 89.277344 69.886719 95.695312 46.980469 97.472656 25.347656 C 98.066406 18.164062 98.148438 10.550781 97.679688 6.640625 C 97.394531 4.269531 97.222656 3.988281 95.808594 3.535156 C 92.972656 2.632812 75.710938 0 72.632812 0 C 71.824219 0 71.183594 0.496094 70.601562 1.566406 M 72.257812 5.785156 C 67.027344 14.710938 48.070312 34.433594 18.246094 61.984375 C 12.75 67.0625 8.1875 71.363281 8.109375 71.539062 C 8.027344 71.710938 9.320312 72.144531 10.972656 72.496094 L 13.984375 73.132812 L 16.117188 71.371094 C 19.710938 68.398438 27.253906 61.359375 29 59.351562 C 30.757812 57.320312 32.21875 57.066406 33.191406 58.617188 C 33.648438 59.347656 33.171875 60.058594 30.242188 63.042969 C 28.320312 65 24.8125 68.347656 22.445312 70.488281 L 18.144531 74.378906 L 26.019531 78.402344 L 33.230469 70.824219 C 41.101562 62.558594 46.136719 56.699219 48.875 52.625 C 50.148438 50.734375 50.960938 50 51.785156 50 C 53.835938 50 53.8125 51.785156 51.726562 54.816406 C 49.035156 58.722656 41.636719 67.25 34.566406 74.59375 L 28.460938 80.933594 L 33.089844 84.972656 C 35.636719 87.191406 37.871094 88.949219 38.054688 88.878906 C 38.242188 88.808594 39.332031 87.554688 40.480469 86.097656 C 42.820312 83.125 43.671875 82.605469 44.757812 83.503906 C 45.882812 84.441406 45.691406 85.070312 43.289062 88.28125 L 41.082031 91.234375 L 42.414062 92.140625 C 44.136719 93.316406 47.945312 95.277344 49.332031 95.707031 C 50.28125 96 50.714844 95.503906 52.898438 91.632812 C 56.425781 85.371094 65.03125 68.058594 70.730469 55.75 C 73.40625 49.976562 75.914062 44.917969 76.304688 44.507812 C 77.117188 43.664062 78.640625 44.300781 78.894531 45.589844 C 79.074219 46.503906 69.175781 67.804688 62.140625 81.636719 C 59.238281 87.351562 56.949219 92.105469 57.054688 92.203125 C 57.269531 92.398438 62.292969 93.5 62.964844 93.5 C 63.40625 93.5 67.78125 84.09375 70.0625 78.25 C 70.8125 76.324219 71.761719 74.539062 72.171875 74.277344 C 73.105469 73.6875 74.5 74.742188 74.5 76.039062 C 74.5 76.890625 72.117188 82.746094 68.59375 90.5625 L 67.097656 93.878906 L 69.367188 94.1875 C 73.972656 94.820312 73.605469 95.117188 76.757812 88.125 C 85.507812 68.714844 90.914062 50.257812 93.207031 32 C 94.164062 24.347656 94.710938 12.753906 94.273438 9.257812 C 93.960938 6.769531 93.796875 6.460938 92.871094 6.59375 C 92.035156 6.71875 91.691406 7.351562 91.152344 9.75 C 90.3125 13.507812 87.035156 23.539062 86.371094 24.375 C 85.675781 25.253906 84.027344 25.152344 83.664062 24.207031 C 83.496094 23.769531 84.277344 20.449219 85.398438 16.832031 C 86.523438 13.210938 87.652344 9.179688 87.910156 7.875 C 88.328125 5.75 88.285156 5.5 87.480469 5.5 C 86.984375 5.5 86.28125 5.386719 85.914062 5.253906 C 85.492188 5.09375 84.441406 6.40625 83.011719 8.878906 C 77.800781 17.898438 66.609375 33.847656 63.335938 36.921875 C 62.652344 37.5625 61.675781 38.011719 61.167969 37.914062 C 59.371094 37.570312 59.882812 35.773438 62.78125 32.234375 C 66.96875 27.125 72.019531 19.914062 77.039062 11.886719 L 81.496094 4.75 L 79.875 4.433594 C 78.980469 4.261719 77.199219 3.988281 75.914062 3.824219 L 73.578125 3.53125 L 72.257812 5.785156 M 67.351562 41.09375 C 66.960938 41.730469 65.839844 43.714844 64.863281 45.507812 C 63.882812 47.300781 61.714844 50.847656 60.042969 53.398438 C 58.367188 55.945312 57 58.3125 57 58.664062 C 57 59.496094 58.023438 60.5 58.867188 60.5 C 59.644531 60.5 67.671875 48.441406 69.476562 44.566406 C 70.410156 42.5625 70.574219 41.730469 70.171875 41.089844 C 69.363281 39.808594 68.140625 39.808594 67.351562 41.09375 "/>
</g>
</svg>
