<?xml version="1.0" encoding="UTF-8"?>
<svg xmlns="http://www.w3.org/2000/svg" xmlns:xlink="http://www.w3.org/1999/xlink" width="24px" height="24px" viewBox="0 0 24 24" version="1.1">
<g id="surface1">
<path style=" stroke:none;fill-rule:evenodd;fill:rgb(0%,0%,0%);fill-opacity:1;" d="M 11.960938 1.214844 C 9.46875 1.535156 6.867188 3.035156 5.183594 5.121094 C 4.382812 6.113281 3.445312 7.839844 3.222656 8.722656 C 3.113281 9.160156 2.828125 9.523438 1.605469 10.792969 C 0.789062 11.640625 0.121094 12.367188 0.121094 12.40625 C 0.121094 12.445312 2.292969 12.492188 4.949219 12.507812 L 9.78125 12.539062 L 9.78125 13.921875 C 9.78125 15.238281 9.796875 15.335938 10.175781 16.105469 C 10.796875 17.371094 11.90625 18.210938 13.308594 18.476562 C 13.664062 18.546875 15.558594 18.601562 17.523438 18.601562 L 21.09375 18.601562 L 21.503906 18.144531 C 22.464844 17.082031 23.246094 15.65625 23.667969 14.195312 C 24.054688 12.867188 24.046875 10.488281 23.648438 8.941406 C 23.132812 6.917969 22.21875 5.304688 20.863281 4.011719 C 19.152344 2.386719 17.265625 1.511719 14.820312 1.210938 C 13.605469 1.0625 13.136719 1.066406 11.960938 1.214844 M 5.289062 13.46875 C 5.234375 13.617188 4.964844 14.273438 4.691406 14.929688 C 4.039062 16.492188 4.089844 16.625 5.339844 16.707031 L 5.820312 16.738281 L 5.882812 18.238281 C 5.949219 19.875 6.050781 20.1875 6.726562 20.851562 C 7.207031 21.320312 7.746094 21.582031 8.421875 21.671875 L 8.941406 21.738281 L 10.105469 20.175781 L 11.273438 18.613281 L 10.515625 17.855469 C 10.082031 17.417969 9.632812 16.820312 9.453125 16.441406 C 9.066406 15.621094 8.835938 14.394531 8.9375 13.714844 L 9.015625 13.199219 L 7.203125 13.199219 C 5.4375 13.199219 5.390625 13.207031 5.289062 13.46875 M 12.648438 16.261719 C 12.46875 16.539062 12.46875 16.582031 12.648438 16.859375 C 12.980469 17.367188 13.800781 17.152344 13.800781 16.558594 C 13.800781 15.96875 12.980469 15.753906 12.648438 16.261719 M 10.886719 20.394531 L 9.832031 21.820312 L 9.863281 22.878906 L 9.898438 23.941406 L 18 24.003906 L 18 19.320312 L 15.691406 19.320312 C 14.035156 19.316406 13.191406 19.265625 12.71875 19.140625 C 12.355469 19.042969 12.03125 18.964844 12 18.964844 C 11.96875 18.96875 11.464844 19.609375 10.886719 20.394531 "/>
</g>
</svg>
