<?xml version="1.0" encoding="UTF-8"?>
<svg xmlns="http://www.w3.org/2000/svg" xmlns:xlink="http://www.w3.org/1999/xlink" width="100px" height="100px" viewBox="0 0 100 100" version="1.1">
<g id="surface1">
<path style=" stroke:none;fill-rule:evenodd;fill:rgb(0%,0%,0%);fill-opacity:1;" d="M 23.75 18.859375 C 20.894531 19.253906 16.300781 20.582031 14.28125 21.597656 C 11.460938 23.011719 10.5 23.960938 10.5 25.328125 C 10.5 26.378906 10.273438 26.5 8.3125 26.5 C 7.074219 26.5 5.875 26.796875 5.558594 27.179688 C 5.148438 27.675781 5.027344 35.257812 5.121094 54.554688 L 5.25 81.25 L 95.75 81.25 L 95.878906 54.28125 C 95.980469 33.039062 95.875 27.230469 95.378906 26.914062 C 95.03125 26.695312 93.792969 26.511719 92.625 26.507812 C 90.621094 26.5 90.5 26.417969 90.5 25.070312 C 90.5 23.839844 90.097656 23.425781 87.625 22.113281 C 83.273438 19.800781 79.492188 18.96875 71.882812 18.648438 C 64.113281 18.324219 59.160156 18.921875 53.859375 20.835938 L 50.464844 22.058594 L 47.609375 20.984375 C 42.984375 19.246094 37.894531 18.492188 31.332031 18.574219 C 27.988281 18.617188 24.574219 18.742188 23.75 18.859375 M 21.265625 21.328125 C 19.347656 21.738281 16.589844 22.636719 15.140625 23.324219 L 12.5 24.574219 L 12.5 51.589844 C 12.5 77.132812 12.546875 78.585938 13.375 78.222656 C 24 73.542969 38.597656 73.457031 47.550781 78.027344 L 49.5 79.019531 L 49.5 23.945312 L 47.375 23.011719 C 41.769531 20.550781 28.792969 19.714844 21.265625 21.328125 M 59.25 21.328125 C 57.324219 21.738281 54.792969 22.492188 53.625 23.007812 L 51.5 23.945312 L 51.5 79.019531 L 53.449219 78.027344 C 62.402344 73.457031 77 73.542969 87.625 78.222656 C 88.453125 78.585938 88.5 77.132812 88.5 51.589844 L 88.5 24.574219 L 85.875 23.332031 C 84.429688 22.648438 81.515625 21.734375 79.394531 21.296875 C 74.519531 20.289062 64.046875 20.304688 59.25 21.328125 M 7 54 L 7 79.5 L 10.5 79.5 L 10.5 28.5 L 7 28.5 L 7 54 M 90.5 54 L 90.5 79.5 L 94 79.5 L 94 28.5 L 90.5 28.5 L 90.5 54 M 25.75 30.558594 C 19.707031 31.105469 16.75 32 16.75 33.273438 C 16.75 34.335938 16.652344 34.339844 21.25 33.117188 C 25.179688 32.074219 37.457031 32.109375 41.742188 33.179688 C 44.617188 33.894531 45.460938 33.726562 45.492188 32.433594 C 45.503906 31.976562 41.625 31.070312 38.335938 30.765625 C 32.273438 30.199219 30.09375 30.164062 25.75 30.558594 M 65.25 30.507812 C 59.824219 30.972656 55.316406 32.300781 55.707031 33.316406 C 55.867188 33.738281 56 34.136719 56 34.203125 C 56 34.269531 57.632812 33.882812 59.625 33.347656 C 64.121094 32.136719 75.960938 32.019531 80.917969 33.136719 C 83.679688 33.757812 84.125 33.753906 84.367188 33.125 C 84.761719 32.101562 83.757812 31.625 80.011719 31.058594 C 75.164062 30.320312 69.75 30.117188 65.25 30.507812 M 24.75 35.015625 C 19.355469 35.714844 16.75 36.613281 16.75 37.773438 C 16.75 38.394531 17.023438 38.679688 17.5 38.554688 C 17.914062 38.449219 19.601562 38.011719 21.25 37.585938 C 25.292969 36.539062 37.574219 36.546875 41.847656 37.59375 C 44.625 38.273438 44.980469 38.273438 45.242188 37.59375 C 45.402344 37.171875 45.257812 36.660156 44.917969 36.449219 C 42.867188 35.179688 30.34375 34.292969 24.75 35.015625 M 65.25 34.8125 C 61.847656 35.160156 56.035156 36.539062 55.703125 37.074219 C 54.914062 38.347656 56.484375 38.585938 59.828125 37.699219 C 64.296875 36.515625 76.246094 36.464844 80.914062 37.609375 C 83.636719 38.277344 84.113281 38.285156 84.351562 37.671875 C 84.5 37.277344 84.492188 36.828125 84.335938 36.667969 C 83.1875 35.519531 70.445312 34.28125 65.25 34.8125 M 23.699219 39.5625 C 19.660156 40.144531 16.75 41.183594 16.75 42.050781 C 16.75 42.871094 17.375 42.84375 22.75 41.808594 C 27.5625 40.878906 33.535156 40.792969 38.839844 41.578125 C 44.011719 42.347656 45.113281 42.363281 45.351562 41.671875 C 46.003906 39.78125 31.792969 38.398438 23.699219 39.5625 M 62.996094 39.511719 C 58.789062 40.101562 55.75 41.167969 55.75 42.050781 C 55.75 42.878906 56.304688 42.851562 62.25 41.730469 C 67.429688 40.753906 76.90625 40.96875 81.414062 42.164062 C 83.726562 42.78125 84.117188 42.777344 84.355469 42.152344 C 84.507812 41.757812 84.433594 41.246094 84.191406 41.019531 C 82.699219 39.625 69.101562 38.65625 62.996094 39.511719 M 23.75 43.96875 C 18.050781 44.902344 15.746094 45.945312 16.882812 47.082031 C 17.207031 47.40625 18.292969 47.292969 20.0625 46.75 C 24.195312 45.480469 34.230469 45.207031 39.960938 46.207031 C 43.191406 46.769531 44.832031 46.867188 45.183594 46.515625 C 45.964844 45.734375 45.085938 45.179688 42 44.507812 C 38.566406 43.761719 27.09375 43.421875 23.75 43.96875 M 61.75 44.207031 C 57.28125 45.085938 55.363281 45.84375 55.636719 46.628906 C 55.894531 47.375 56.582031 47.339844 61.667969 46.300781 C 66.207031 45.375 73.230469 45.277344 78.25 46.074219 C 83.300781 46.878906 84.25 46.867188 84.25 46.011719 C 84.25 44.136719 68.527344 42.875 61.75 44.207031 M 24 48.292969 C 21.242188 48.777344 16.472656 50.136719 16.25 50.5 C 16.117188 50.714844 16.316406 51.140625 16.695312 51.453125 C 17.207031 51.878906 18.105469 51.824219 20.3125 51.234375 C 24.609375 50.089844 32.9375 49.753906 38.25 50.507812 C 44.4375 51.390625 45.25 51.390625 45.25 50.5 C 45.25 49.242188 40.757812 48.433594 32.75 48.246094 C 28.625 48.152344 24.6875 48.171875 24 48.292969 M 63 48.296875 C 62.3125 48.414062 60.332031 48.875 58.601562 49.320312 C 56.195312 49.933594 55.488281 50.316406 55.617188 50.9375 C 55.804688 51.875 56.28125 51.863281 61.75 50.808594 C 67.835938 49.632812 73.285156 49.753906 82.375 51.273438 C 84.273438 51.589844 84.5 51.523438 84.5 50.648438 C 84.5 49.886719 83.925781 49.53125 81.875 49.023438 C 79.324219 48.390625 65.511719 47.859375 63 48.296875 M 23 53.039062 C 18.78125 53.839844 16.5 54.628906 16.5 55.285156 C 16.5 56.394531 17.234375 56.484375 19.789062 55.683594 C 23.578125 54.496094 34.769531 54.214844 40.246094 55.171875 C 44.675781 55.945312 46.398438 55.699219 45.171875 54.46875 C 43.617188 52.917969 28.695312 51.953125 23 53.039062 M 61.207031 53.203125 C 59.257812 53.574219 57.183594 54.132812 56.601562 54.445312 C 55.328125 55.125 55.660156 56.675781 56.988281 56.253906 C 62.402344 54.535156 72.703125 53.980469 79 55.070312 C 83.605469 55.863281 84.199219 55.851562 84.382812 54.949219 C 84.507812 54.339844 83.851562 53.996094 81.648438 53.519531 C 77.332031 52.582031 65.433594 52.398438 61.207031 53.203125 M 22.695312 57.488281 C 17.648438 58.558594 16.433594 59.039062 16.613281 59.902344 C 16.8125 60.867188 16.96875 60.863281 21.75 59.796875 C 26.242188 58.796875 36.578125 58.769531 41.191406 59.746094 C 43.085938 60.148438 44.828125 60.355469 45.066406 60.207031 C 46.175781 59.523438 45.265625 58.613281 42.875 58.019531 C 39.742188 57.242188 25.609375 56.871094 22.695312 57.488281 M 62.75 57.289062 C 58.351562 58.316406 55.5 59.160156 55.507812 59.429688 C 55.539062 60.742188 56.386719 60.933594 58.769531 60.171875 C 62.386719 59.011719 75.121094 58.707031 80 59.664062 C 83.921875 60.433594 84.5 60.378906 84.5 59.261719 C 84.5 58.863281 83.515625 58.34375 82.125 58.011719 C 79.703125 57.425781 64.5625 56.863281 62.75 57.289062 M 23 61.816406 C 22.3125 61.949219 20.554688 62.390625 19.09375 62.800781 C 17.050781 63.375 16.480469 63.742188 16.621094 64.398438 C 16.726562 64.867188 17.132812 65.171875 17.53125 65.078125 C 24.804688 63.339844 35.523438 62.949219 41.5 64.203125 C 43.90625 64.710938 44.84375 64.738281 45.117188 64.320312 C 45.773438 63.304688 45.535156 63.089844 43.125 62.496094 C 40.714844 61.90625 25.289062 61.382812 23 61.816406 M 61.695312 61.984375 C 57.90625 62.792969 55.5 63.535156 55.507812 63.894531 C 55.535156 65.234375 56.390625 65.347656 59.75 64.472656 C 64.117188 63.332031 75.648438 63.183594 80.5 64.207031 C 82.289062 64.582031 83.917969 64.789062 84.125 64.667969 C 85.113281 64.070312 84.289062 63.0625 82.375 62.523438 C 79.753906 61.78125 64.507812 61.386719 61.695312 61.984375 M 20.386719 66.933594 C 16.652344 67.910156 16.257812 68.144531 16.640625 69.148438 C 16.863281 69.726562 17.46875 69.695312 20.328125 68.949219 C 22.210938 68.460938 24.679688 68.042969 25.8125 68.027344 C 28.941406 67.984375 31 67.453125 31 66.6875 C 31 65.6875 24.601562 65.835938 20.386719 66.933594 M 59.386719 66.933594 C 55.601562 67.921875 55.363281 68.0625 55.753906 69.082031 C 55.996094 69.710938 56.492188 69.691406 59.390625 68.933594 C 61.238281 68.453125 63.679688 68.042969 64.8125 68.027344 C 67.941406 67.984375 70 67.453125 70 66.6875 C 70 65.6875 63.601562 65.835938 59.386719 66.933594 M 23.71875 77.058594 C 22.050781 77.300781 19.464844 77.929688 17.96875 78.460938 L 15.25 79.425781 L 30.5 79.421875 C 43.636719 79.417969 45.539062 79.324219 44.234375 78.75 C 39.757812 76.785156 30.769531 76.042969 23.71875 77.058594 M 61.792969 77.324219 C 59.894531 77.730469 57.644531 78.367188 56.792969 78.742188 C 55.453125 79.328125 57.242188 79.417969 70.5 79.421875 L 85.75 79.425781 L 83.105469 78.488281 C 77.484375 76.488281 68.074219 75.976562 61.792969 77.324219 "/>
</g>
</svg>
