<?xml version="1.0" encoding="UTF-8"?>
<svg xmlns="http://www.w3.org/2000/svg" xmlns:xlink="http://www.w3.org/1999/xlink" width="24px" height="24px" viewBox="0 0 24 24" version="1.1">
<g id="surface1">
<path style=" stroke:none;fill-rule:evenodd;fill:rgb(0%,0%,0%);fill-opacity:1;" d="M 5.699219 4.527344 C 5.015625 4.621094 3.914062 4.9375 3.425781 5.183594 C 2.75 5.523438 2.519531 5.75 2.519531 6.078125 C 2.519531 6.332031 2.464844 6.359375 1.996094 6.359375 C 1.699219 6.359375 1.410156 6.429688 1.332031 6.523438 C 1.234375 6.640625 1.207031 8.460938 1.230469 13.09375 L 1.261719 19.5 L 22.980469 19.5 L 23.011719 13.027344 C 23.035156 7.929688 23.011719 6.535156 22.890625 6.460938 C 22.808594 6.40625 22.511719 6.363281 22.230469 6.363281 C 21.75 6.359375 21.71875 6.339844 21.71875 6.015625 C 21.71875 5.722656 21.625 5.621094 21.03125 5.308594 C 19.984375 4.753906 19.078125 4.554688 17.25 4.476562 C 15.386719 4.398438 14.199219 4.542969 12.925781 5 L 12.113281 5.292969 L 11.425781 5.035156 C 10.316406 4.621094 9.09375 4.4375 7.519531 4.457031 C 6.714844 4.46875 5.898438 4.5 5.699219 4.527344 M 5.101562 5.117188 C 4.644531 5.21875 3.980469 5.433594 3.632812 5.597656 L 3 5.898438 L 3 12.382812 C 3 18.511719 3.011719 18.859375 3.210938 18.773438 C 5.757812 17.648438 9.261719 17.628906 11.414062 18.726562 L 11.878906 18.964844 L 11.878906 5.746094 L 11.371094 5.523438 C 10.023438 4.933594 6.910156 4.730469 5.101562 5.117188 M 14.21875 5.117188 C 13.757812 5.21875 13.152344 5.398438 12.871094 5.523438 L 12.359375 5.746094 L 12.359375 18.964844 L 12.828125 18.726562 C 14.976562 17.628906 18.480469 17.648438 21.03125 18.773438 C 21.230469 18.859375 21.238281 18.511719 21.238281 12.382812 L 21.238281 5.898438 L 20.609375 5.597656 C 20.261719 5.4375 19.5625 5.214844 19.054688 5.109375 C 17.882812 4.871094 15.371094 4.875 14.21875 5.117188 M 1.679688 12.960938 L 1.679688 19.078125 L 2.519531 19.078125 L 2.519531 6.839844 L 1.679688 6.839844 L 1.679688 12.960938 M 21.71875 12.960938 L 21.71875 19.078125 L 22.558594 19.078125 L 22.558594 6.839844 L 21.71875 6.839844 L 21.71875 12.960938 M 6.179688 7.332031 C 4.730469 7.464844 4.019531 7.679688 4.019531 7.984375 C 4.019531 8.242188 3.996094 8.242188 5.101562 7.949219 C 6.042969 7.699219 8.988281 7.707031 10.019531 7.960938 C 10.707031 8.132812 10.910156 8.09375 10.917969 7.785156 C 10.921875 7.675781 9.988281 7.457031 9.199219 7.382812 C 7.746094 7.246094 7.222656 7.238281 6.179688 7.332031 M 15.660156 7.320312 C 14.359375 7.433594 13.277344 7.753906 13.371094 7.996094 C 13.410156 8.097656 13.441406 8.191406 13.441406 8.207031 C 13.441406 8.222656 13.832031 8.132812 14.308594 8.003906 C 15.390625 7.714844 18.230469 7.683594 19.421875 7.953125 C 20.082031 8.101562 20.191406 8.101562 20.25 7.949219 C 20.34375 7.703125 20.101562 7.589844 19.203125 7.453125 C 18.039062 7.277344 16.738281 7.226562 15.660156 7.320312 M 5.941406 8.402344 C 4.644531 8.570312 4.019531 8.785156 4.019531 9.066406 C 4.019531 9.214844 4.085938 9.28125 4.199219 9.253906 C 4.300781 9.226562 4.703125 9.121094 5.101562 9.019531 C 6.070312 8.769531 9.015625 8.769531 10.042969 9.023438 C 10.710938 9.1875 10.796875 9.1875 10.859375 9.023438 C 10.898438 8.921875 10.863281 8.796875 10.78125 8.746094 C 10.289062 8.445312 7.28125 8.230469 5.941406 8.402344 M 15.660156 8.355469 C 14.84375 8.4375 13.449219 8.769531 13.367188 8.898438 C 13.179688 9.203125 13.554688 9.261719 14.359375 9.046875 C 15.429688 8.765625 18.296875 8.75 19.417969 9.027344 C 20.074219 9.1875 20.1875 9.1875 20.242188 9.039062 C 20.28125 8.945312 20.277344 8.839844 20.242188 8.800781 C 19.964844 8.523438 16.90625 8.226562 15.660156 8.355469 M 5.6875 9.496094 C 4.71875 9.632812 4.019531 9.882812 4.019531 10.09375 C 4.019531 10.289062 4.171875 10.28125 5.460938 10.035156 C 6.613281 9.8125 8.046875 9.789062 9.320312 9.980469 C 10.5625 10.164062 10.828125 10.167969 10.882812 10 C 11.042969 9.546875 7.628906 9.214844 5.6875 9.496094 M 15.117188 9.484375 C 14.109375 9.625 13.378906 9.878906 13.378906 10.09375 C 13.378906 10.289062 13.511719 10.285156 14.941406 10.015625 C 16.183594 9.78125 18.457031 9.832031 19.539062 10.121094 C 20.09375 10.265625 20.1875 10.265625 20.246094 10.117188 C 20.28125 10.023438 20.265625 9.898438 20.207031 9.84375 C 19.847656 9.507812 16.585938 9.277344 15.117188 9.484375 M 5.699219 10.550781 C 4.332031 10.777344 3.777344 11.027344 4.050781 11.300781 C 4.128906 11.378906 4.390625 11.351562 4.816406 11.21875 C 5.804688 10.914062 8.214844 10.851562 9.589844 11.089844 C 10.367188 11.226562 10.761719 11.25 10.84375 11.164062 C 11.03125 10.976562 10.820312 10.84375 10.078125 10.683594 C 9.253906 10.503906 6.503906 10.421875 5.699219 10.550781 M 14.820312 10.609375 C 13.746094 10.820312 13.285156 11.003906 13.351562 11.191406 C 13.414062 11.371094 13.578125 11.359375 14.800781 11.113281 C 15.890625 10.890625 17.574219 10.867188 18.78125 11.058594 C 19.992188 11.25 20.21875 11.25 20.21875 11.042969 C 20.21875 10.59375 16.445312 10.289062 14.820312 10.609375 M 5.761719 11.589844 C 5.097656 11.707031 3.953125 12.03125 3.898438 12.121094 C 3.867188 12.171875 3.917969 12.273438 4.007812 12.347656 C 4.128906 12.449219 4.34375 12.4375 4.875 12.296875 C 5.90625 12.023438 7.90625 11.941406 9.179688 12.121094 C 10.664062 12.332031 10.859375 12.332031 10.859375 12.121094 C 10.859375 11.816406 9.78125 11.625 7.859375 11.578125 C 6.871094 11.554688 5.925781 11.5625 5.761719 11.589844 M 15.121094 11.589844 C 14.953125 11.621094 14.480469 11.730469 14.0625 11.835938 C 13.488281 11.984375 13.316406 12.074219 13.347656 12.226562 C 13.394531 12.449219 13.507812 12.445312 14.820312 12.195312 C 16.28125 11.910156 17.589844 11.941406 19.769531 12.304688 C 20.226562 12.382812 20.28125 12.367188 20.28125 12.15625 C 20.28125 11.972656 20.140625 11.886719 19.648438 11.765625 C 19.039062 11.613281 15.722656 11.484375 15.121094 11.589844 M 5.519531 12.730469 C 4.507812 12.921875 3.960938 13.109375 3.960938 13.269531 C 3.960938 13.535156 4.136719 13.554688 4.75 13.363281 C 5.660156 13.078125 8.34375 13.011719 9.660156 13.242188 C 10.722656 13.425781 11.136719 13.367188 10.839844 13.074219 C 10.46875 12.699219 6.886719 12.46875 5.519531 12.730469 M 14.691406 12.769531 C 14.222656 12.859375 13.722656 12.992188 13.585938 13.066406 C 13.277344 13.230469 13.359375 13.601562 13.675781 13.5 C 14.976562 13.089844 17.449219 12.957031 18.960938 13.214844 C 20.066406 13.40625 20.207031 13.402344 20.25 13.1875 C 20.28125 13.042969 20.125 12.960938 19.59375 12.84375 C 18.558594 12.621094 15.703125 12.574219 14.691406 12.769531 M 5.445312 13.796875 C 4.234375 14.054688 3.945312 14.167969 3.988281 14.375 C 4.035156 14.609375 4.074219 14.605469 5.21875 14.351562 C 6.296875 14.109375 8.777344 14.105469 9.886719 14.339844 C 10.339844 14.433594 10.757812 14.484375 10.816406 14.449219 C 11.082031 14.285156 10.863281 14.066406 10.289062 13.925781 C 9.539062 13.738281 6.144531 13.648438 5.445312 13.796875 M 15.058594 13.75 C 14.003906 13.996094 13.320312 14.199219 13.320312 14.261719 C 13.328125 14.578125 13.53125 14.625 14.105469 14.441406 C 14.972656 14.164062 18.027344 14.089844 19.199219 14.320312 C 20.140625 14.503906 20.28125 14.492188 20.28125 14.222656 C 20.28125 14.128906 20.042969 14.003906 19.710938 13.921875 C 19.128906 13.78125 15.496094 13.648438 15.058594 13.75 M 5.519531 14.835938 C 5.355469 14.867188 4.933594 14.972656 4.582031 15.070312 C 4.09375 15.210938 3.953125 15.296875 3.988281 15.457031 C 4.015625 15.566406 4.113281 15.640625 4.207031 15.617188 C 5.953125 15.203125 8.527344 15.109375 9.960938 15.410156 C 10.539062 15.53125 10.761719 15.539062 10.828125 15.4375 C 10.984375 15.191406 10.929688 15.140625 10.351562 15 C 9.769531 14.859375 6.070312 14.730469 5.519531 14.835938 M 14.804688 14.875 C 13.898438 15.070312 13.320312 15.25 13.320312 15.335938 C 13.328125 15.65625 13.535156 15.683594 14.339844 15.472656 C 15.386719 15.199219 18.15625 15.164062 19.320312 15.410156 C 19.75 15.5 20.140625 15.550781 20.191406 15.519531 C 20.425781 15.378906 20.230469 15.136719 19.769531 15.003906 C 19.140625 14.828125 15.480469 14.734375 14.804688 14.875 M 4.890625 16.066406 C 3.996094 16.296875 3.902344 16.355469 3.992188 16.597656 C 4.046875 16.734375 4.191406 16.726562 4.878906 16.546875 C 5.332031 16.429688 5.921875 16.332031 6.195312 16.328125 C 6.945312 16.316406 7.441406 16.1875 7.441406 16.003906 C 7.441406 15.765625 5.90625 15.800781 4.890625 16.066406 M 14.253906 16.066406 C 13.34375 16.300781 13.289062 16.335938 13.382812 16.578125 C 13.4375 16.730469 13.558594 16.726562 14.253906 16.542969 C 14.699219 16.429688 15.28125 16.332031 15.554688 16.328125 C 16.304688 16.316406 16.800781 16.1875 16.800781 16.003906 C 16.800781 15.765625 15.265625 15.800781 14.253906 16.066406 M 5.691406 18.496094 C 5.292969 18.550781 4.671875 18.703125 4.3125 18.832031 L 3.660156 19.0625 L 7.320312 19.0625 C 10.472656 19.0625 10.929688 19.039062 10.617188 18.898438 C 9.542969 18.429688 7.386719 18.25 5.691406 18.496094 M 14.832031 18.558594 C 14.375 18.65625 13.835938 18.808594 13.628906 18.898438 C 13.308594 19.039062 13.738281 19.0625 16.921875 19.0625 L 20.578125 19.0625 L 19.945312 18.835938 C 18.597656 18.359375 16.339844 18.234375 14.832031 18.558594 "/>
</g>
</svg>
