<?xml version="1.0" encoding="UTF-8"?>
<svg xmlns="http://www.w3.org/2000/svg" xmlns:xlink="http://www.w3.org/1999/xlink" width="24px" height="24px" viewBox="0 0 24 24" version="1.1">
<g id="surface1">
<path style=" stroke:none;fill-rule:evenodd;fill:rgb(0%,0%,0%);fill-opacity:1;" d="M 9.78125 0.554688 C 4.597656 1.117188 1.441406 3.195312 0.644531 6.570312 C 0.148438 8.679688 1.054688 11.503906 3.363281 15.050781 C 4.5625 16.890625 6.902344 19.898438 7.035156 19.765625 C 7.058594 19.738281 6.871094 19.265625 6.613281 18.707031 C 6.019531 17.4375 5.503906 15.886719 5.152344 14.328125 C 4.871094 13.085938 4.886719 12.769531 5.234375 12.636719 C 5.621094 12.488281 5.796875 12.78125 6.078125 14.046875 C 6.644531 16.605469 7.710938 19.140625 9.09375 21.214844 C 9.660156 22.066406 9.960938 22.441406 9.960938 22.296875 C 9.960938 22.277344 9.804688 21.640625 9.613281 20.878906 C 8.972656 18.347656 8.609375 15.636719 8.398438 11.835938 C 8.25 9.222656 8.292969 8.957031 8.859375 9.023438 C 9.179688 9.058594 9.179688 9.0625 9.265625 10.378906 C 9.554688 14.824219 9.636719 15.765625 9.851562 17.25 C 10.253906 20.050781 11.105469 23.136719 11.550781 23.421875 C 11.632812 23.472656 11.871094 23.515625 12.082031 23.519531 C 12.4375 23.519531 12.480469 23.472656 12.71875 22.832031 C 13.386719 21.046875 13.875 18.875 14.207031 16.199219 C 14.445312 14.292969 14.640625 11.640625 14.640625 10.304688 C 14.640625 9.183594 14.753906 8.949219 15.261719 9.019531 L 15.539062 9.058594 L 15.53125 11.101562 C 15.523438 13.5 15.332031 15.714844 14.929688 18.117188 C 14.671875 19.660156 14.222656 21.582031 13.96875 22.261719 C 13.828125 22.632812 14.402344 21.910156 15.054688 20.902344 C 16.300781 18.972656 17.410156 16.253906 17.890625 13.953125 C 18.027344 13.308594 18.199219 12.742188 18.277344 12.695312 C 18.523438 12.539062 18.707031 12.589844 18.894531 12.875 C 19.054688 13.117188 19.046875 13.261719 18.851562 14.222656 C 18.527344 15.800781 17.816406 17.839844 17.035156 19.425781 L 16.347656 20.820312 L 17.183594 19.921875 C 20.269531 16.589844 23.035156 11.582031 23.386719 8.675781 C 23.789062 5.347656 21.761719 2.71875 17.761719 1.394531 C 17.066406 1.164062 16.015625 0.886719 15.421875 0.78125 C 14.371094 0.589844 10.777344 0.449219 9.78125 0.554688 "/>
</g>
</svg>
