<?xml version="1.0" encoding="UTF-8"?>
<svg xmlns="http://www.w3.org/2000/svg" xmlns:xlink="http://www.w3.org/1999/xlink" width="100px" height="100px" viewBox="0 0 100 100" version="1.1">
<g id="surface1">
<path style=" stroke:none;fill-rule:evenodd;fill:rgb(0%,0%,0%);fill-opacity:1;" d="M 68.734375 20.199219 C 66.820312 21.132812 63.585938 23.273438 61.554688 24.949219 C 59.074219 26.996094 57.429688 27.996094 56.554688 27.984375 C 55.835938 27.972656 53.226562 27.164062 50.75 26.179688 C 42.894531 23.066406 39.835938 22.402344 34.5 22.652344 C 26.660156 23.019531 18.601562 25.632812 10.929688 30.292969 C 8.753906 31.613281 7.164062 33.167969 4.984375 36.105469 C 1.980469 40.144531 0.804688 42.957031 0.195312 47.5625 C -0.0859375 49.675781 0.046875 50.273438 1.183594 51.988281 C 3.851562 56.019531 7.582031 56.417969 15.457031 53.515625 C 18.421875 52.421875 20.449219 52 22.722656 52 C 25.820312 52 25.878906 52.027344 26.171875 53.488281 C 27.164062 58.449219 33.761719 63.300781 42.167969 65.25 C 49.78125 67.015625 59.265625 63.96875 67.246094 57.199219 C 70.96875 54.039062 70.964844 54.757812 67.226562 59.75 C 61.019531 68.042969 60.542969 72.964844 65.476562 77.898438 C 68.402344 80.824219 70.601562 81.621094 75.238281 81.421875 C 80.503906 81.199219 82.847656 79.820312 87.886719 73.984375 C 95.019531 65.71875 98.5 59.015625 99.351562 51.886719 C 99.507812 50.589844 99.839844 49.652344 100.089844 49.804688 C 100.578125 50.105469 100.203125 42.730469 99.484375 37.890625 C 98.890625 33.890625 97.800781 31.875 94.695312 29.035156 C 91.105469 25.757812 89.265625 25.164062 86.003906 26.25 C 84.632812 26.703125 83.382812 27.289062 83.222656 27.546875 C 82.800781 28.226562 82 27.589844 82 26.570312 C 82 26.089844 81.40625 24.503906 80.679688 23.046875 C 78.238281 18.144531 74.683594 17.300781 68.734375 20.199219 M 71.625 20.625 C 71.351562 20.96875 70.757812 22.941406 70.308594 25.003906 C 69.855469 27.070312 69.054688 29.46875 68.523438 30.339844 C 66.742188 33.269531 60.035156 37.503906 58.257812 36.824219 C 57.039062 36.355469 57.359375 35.363281 59.738281 32.210938 C 63.527344 27.191406 62.601562 26.691406 56.773438 30.613281 C 54.636719 32.050781 51.882812 34.347656 50.648438 35.71875 L 48.40625 38.210938 L 48.738281 41.320312 C 49.039062 44.117188 48.96875 44.480469 48.054688 44.96875 C 47.46875 45.285156 45.921875 45.390625 44.394531 45.226562 C 41.175781 44.878906 38.820312 45.925781 37.136719 48.449219 C 35.667969 50.644531 35.613281 53.875 37.011719 55.652344 C 38.390625 57.402344 39.121094 57.554688 43.738281 57.035156 C 47.734375 56.585938 48.871094 56.800781 50.363281 58.292969 C 50.714844 58.640625 51 59.167969 51 59.464844 C 51 60.660156 52.097656 59.886719 52.804688 58.195312 C 53.765625 55.898438 54.304688 56.335938 53.445312 58.710938 C 52.972656 60.023438 52.507812 60.5 51.703125 60.5 C 50.625 60.5 49.683594 61.746094 50.417969 62.199219 C 50.625 62.328125 51.6875 62.03125 52.78125 61.542969 C 54.640625 60.710938 54.808594 60.457031 55.398438 57.597656 C 55.746094 55.914062 56.226562 54.417969 56.46875 54.269531 C 56.707031 54.121094 56.578125 55.257812 56.175781 56.792969 C 55.289062 60.191406 55.421875 60.75 56.871094 59.734375 C 57.554688 59.253906 58.289062 57.855469 58.769531 56.101562 C 59.992188 51.652344 60.308594 51.121094 61.96875 50.757812 C 62.808594 50.570312 63.5 50.1875 63.5 49.90625 C 63.5 49.605469 62.976562 49.523438 62.25 49.707031 C 61.5625 49.878906 61 49.90625 61 49.773438 C 61 49.328125 63.929688 48 64.914062 48 C 65.445312 48 66.15625 47.664062 66.5 47.25 C 67.023438 46.621094 66.933594 46.496094 65.9375 46.484375 L 64.75 46.464844 L 65.972656 45.785156 C 66.792969 45.332031 67.375 44.386719 67.722656 42.933594 C 68.097656 41.390625 68.539062 40.703125 69.25 40.570312 C 70.238281 40.386719 70.238281 40.398438 69.292969 41.445312 C 68.769531 42.027344 68.472656 42.636719 68.632812 42.800781 C 69.273438 43.4375 70.707031 42.003906 71.457031 39.972656 C 71.964844 38.609375 72.78125 37.535156 73.714844 37.019531 C 75.132812 36.234375 76.019531 35 75.164062 35 C 74.933594 35 73.984375 35.21875 73.054688 35.484375 C 70.980469 36.078125 71.464844 35.457031 73.660156 34.707031 C 74.535156 34.40625 75.324219 33.789062 75.410156 33.335938 C 75.542969 32.664062 75.261719 32.558594 73.910156 32.761719 C 72.402344 32.988281 72.445312 32.9375 74.375 32.214844 C 76.335938 31.476562 77.324219 30.015625 75.875 29.988281 C 75.53125 29.984375 75.8125 29.535156 76.5 28.992188 C 77.433594 28.253906 77.589844 27.902344 77.113281 27.59375 C 76.625 27.273438 76.710938 26.960938 77.488281 26.261719 C 78.503906 25.339844 78.765625 25.617188 78.539062 27.375 C 78.433594 28.167969 79.121094 28.179688 79.898438 27.398438 C 80.785156 26.515625 80.660156 26.980469 78.941406 31.054688 C 78.082031 33.089844 77.335938 35.128906 77.285156 35.59375 C 77.234375 36.054688 76.640625 36.890625 75.96875 37.449219 L 74.75 38.464844 L 76.113281 38.484375 C 77.121094 38.496094 77.671875 38.121094 78.234375 37.03125 C 79.335938 34.902344 80.226562 34.492188 79.820312 36.300781 L 79.492188 37.75 L 80.226562 36.5 C 81.132812 34.96875 81.261719 27.433594 80.429688 24.949219 C 79.523438 22.234375 77 19.871094 77 21.734375 C 77 22.199219 77.320312 22.371094 77.875 22.207031 C 78.492188 22.019531 78.417969 22.191406 77.625 22.78125 C 77.007812 23.246094 76.5 23.933594 76.5 24.3125 C 76.5 25.136719 76.730469 25.160156 78.15625 24.472656 C 79.214844 23.964844 79.21875 23.972656 78.28125 24.722656 C 77.746094 25.148438 77.117188 25.5 76.878906 25.5 C 76.644531 25.5 76.113281 26.230469 75.703125 27.125 L 74.957031 28.75 L 75.246094 26.75 C 75.402344 25.648438 75.660156 24.109375 75.816406 23.328125 C 76.054688 22.140625 75.949219 21.9375 75.175781 22.085938 C 74.664062 22.179688 74.175781 22.765625 74.089844 23.386719 C 73.832031 25.203125 73 24.121094 73 21.96875 C 73 19.96875 72.523438 19.496094 71.625 20.625 M 74.230469 20.535156 C 74.046875 20.828125 73.988281 21.15625 74.097656 21.261719 C 74.441406 21.605469 76.5 20.902344 76.5 20.441406 C 76.5 19.816406 74.625 19.890625 74.230469 20.535156 M 67.75 21.839844 C 66.925781 22.28125 65.183594 23.484375 63.882812 24.515625 C 61.839844 26.128906 61.648438 26.421875 62.507812 26.648438 C 63.84375 26.996094 63.777344 27.351562 61.78125 30.523438 C 60.835938 32.023438 59.703125 33.875 59.261719 34.640625 L 58.460938 36.03125 L 59.855469 35.683594 C 63.488281 34.785156 67.617188 30.828125 68.511719 27.382812 C 68.816406 26.210938 69.273438 24.460938 69.527344 23.5 C 70.296875 20.617188 70.203125 20.53125 67.75 21.839844 M 26.75 24.714844 C 17.890625 27.007812 11.535156 30.367188 7.488281 34.902344 C 4.328125 38.441406 2.113281 42.890625 1.699219 46.527344 L 1.386719 49.308594 L 3.375 49.902344 C 6.851562 50.945312 7.851562 50.710938 9.21875 48.546875 C 10.558594 46.425781 11.863281 45.949219 18.316406 45.226562 C 21.027344 44.925781 21.503906 45.003906 22.433594 45.933594 C 23.28125 46.78125 23.390625 47.226562 23.003906 48.242188 C 22.65625 49.160156 22.691406 49.507812 23.136719 49.535156 C 23.472656 49.554688 23.300781 49.761719 22.75 50 C 21.996094 50.324219 22.339844 50.4375 24.125 50.464844 C 25.429688 50.484375 26.5 50.304688 26.5 50.070312 C 26.5 48.9375 30.929688 44.796875 33.566406 43.46875 C 35.179688 42.652344 36.5 41.863281 36.5 41.714844 C 36.5 41.5625 36.238281 41.601562 35.921875 41.796875 C 35.5625 42.019531 35.480469 41.933594 35.707031 41.570312 C 35.90625 41.246094 36.28125 41.113281 36.542969 41.277344 C 36.800781 41.4375 38.910156 40.40625 41.222656 38.988281 C 44.359375 37.066406 45.367188 36.195312 45.167969 35.578125 C 44.941406 34.863281 44.980469 34.851562 45.460938 35.5 C 45.9375 36.144531 46.1875 36.058594 47.207031 34.90625 C 47.863281 34.167969 48.515625 33.683594 48.660156 33.828125 C 48.949219 34.117188 54.75 30.308594 55.25 29.503906 C 55.417969 29.226562 55.148438 29 54.644531 29 C 53.503906 29 50 31.339844 50 32.101562 C 50 32.414062 49.855469 32.523438 49.679688 32.34375 C 49.503906 32.167969 49.640625 31.679688 49.988281 31.261719 C 51.261719 29.730469 49.464844 30.476562 47.917969 32.125 C 46.820312 33.289062 46.550781 33.433594 46.964844 32.625 C 47.433594 31.703125 47.398438 31.5 46.78125 31.5 C 46.367188 31.5 45.683594 32.160156 45.265625 32.96875 C 44.847656 33.777344 44.261719 34.589844 43.960938 34.773438 C 43.664062 34.957031 43.773438 34.421875 44.207031 33.578125 C 44.644531 32.738281 45 31.898438 45 31.714844 C 45 31.527344 43.03125 31.480469 40.625 31.609375 C 35.335938 31.886719 32.160156 33.089844 25.226562 37.441406 C 18.714844 41.523438 15.523438 42.023438 13.707031 39.253906 C 12.953125 38.101562 12.96875 37.878906 13.988281 35.777344 C 15.332031 32.996094 18.824219 30.6875 24.953125 28.515625 C 30.007812 26.726562 31.507812 25.929688 32.4375 24.53125 C 33.046875 23.613281 33.019531 23.503906 32.1875 23.523438 C 31.671875 23.539062 29.226562 24.074219 26.75 24.714844 M 33.585938 24.566406 C 32.597656 26.375 31.242188 27.160156 25 29.546875 C 20.382812 31.3125 18.78125 32.195312 16.875 34.03125 C 14.257812 36.546875 13.742188 38.558594 15.46875 39.484375 C 17.703125 40.679688 20.871094 39.535156 27.703125 35.066406 C 32.566406 31.886719 36.597656 30.667969 43.5 30.289062 C 53.402344 29.75 54.148438 28.71875 46.75 25.8125 C 43.011719 24.339844 40.800781 23.789062 37.992188 23.617188 C 34.4375 23.398438 34.195312 23.449219 33.585938 24.566406 M 44.277344 27.710938 C 45.324219 28.476562 45.800781 28.390625 45.269531 27.535156 C 45.089844 27.238281 44.574219 27 44.125 27 C 43.441406 27 43.46875 27.117188 44.277344 27.710938 M 85 27.875 C 83.429688 28.660156 81.558594 31.226562 82.136719 31.800781 C 82.699219 32.367188 85.027344 30.894531 85.738281 29.523438 C 86.941406 27.195312 87.582031 27.710938 86.488281 30.125 C 85.957031 31.292969 85.511719 32.585938 85.5 33 C 85.488281 33.414062 85.011719 34.3125 84.441406 35 C 83.417969 36.238281 83.398438 35.957031 84.339844 33.652344 C 84.53125 33.1875 84.304688 33.1875 83.320312 33.648438 C 82.453125 34.0625 81.894531 34.886719 81.539062 36.300781 C 80.800781 39.238281 76.890625 46.785156 74.464844 49.953125 C 73.328125 51.4375 71.960938 53.679688 71.421875 54.933594 C 70.886719 56.183594 69.246094 58.792969 67.777344 60.730469 C 64.183594 65.472656 63.5 66.976562 63.5 70.148438 C 63.5 73.113281 64.984375 75.929688 67.632812 78.003906 L 69.019531 79.085938 L 69.992188 77.917969 C 70.527344 77.277344 70.972656 76.984375 70.984375 77.273438 C 70.992188 77.5625 70.734375 78.066406 70.410156 78.390625 C 70.082031 78.71875 69.957031 79.125 70.128906 79.296875 C 70.304688 79.46875 70.996094 79.015625 71.675781 78.285156 C 72.351562 77.554688 72.980469 77.167969 73.078125 77.421875 C 73.171875 77.679688 74.316406 77.539062 75.671875 77.105469 C 78.96875 76.042969 79.410156 74.804688 77.75 71.296875 C 75.425781 66.382812 76.4375 62.5625 81.445312 57.339844 C 84.125 54.550781 84.46875 53.945312 84.984375 51.105469 C 85.578125 47.800781 85.511719 37.445312 84.886719 36.976562 C 84.285156 36.527344 87.261719 30.855469 88.917969 29.296875 C 89.769531 28.5 90.347656 27.65625 90.203125 27.421875 C 89.757812 26.703125 86.839844 26.957031 85 27.875 M 47 27.691406 C 47 27.796875 47.449219 28 48 28.144531 C 48.550781 28.289062 48.875 28.203125 48.722656 27.953125 C 48.453125 27.519531 47 27.296875 47 27.691406 M 89.3125 31.125 C 86.511719 35.34375 86.347656 36.082031 86.296875 44.75 C 86.242188 53.832031 86.109375 54.277344 82.25 58 C 79.152344 60.988281 77.820312 63.617188 77.800781 66.773438 C 77.789062 68.601562 78.09375 69.726562 78.910156 70.875 C 79.660156 71.925781 80.007812 73.089844 79.957031 74.351562 C 79.847656 77.027344 79.480469 78.277344 79.023438 77.535156 C 78.757812 77.109375 78.210938 77.308594 77.113281 78.230469 C 76.265625 78.945312 75.445312 79.316406 75.285156 79.058594 C 75.109375 78.773438 74.398438 78.8125 73.476562 79.160156 L 71.960938 79.734375 L 73.3125 80.097656 C 75.050781 80.5625 78.839844 80.046875 79.496094 79.253906 C 79.773438 78.917969 80.34375 77.769531 80.761719 76.699219 L 81.519531 74.75 L 81.289062 76.636719 C 81.152344 77.742188 81.253906 78.402344 81.53125 78.230469 C 81.789062 78.070312 82.035156 77.222656 82.074219 76.34375 C 82.144531 74.832031 82.160156 74.820312 82.359375 76.125 C 82.472656 76.882812 82.753906 77.5 82.980469 77.5 C 83.429688 77.5 88.773438 71.550781 90.160156 69.511719 C 91.066406 68.175781 91.316406 64.5 90.5 64.5 C 90.226562 64.5 90 65.511719 90 66.75 C 90 67.988281 89.773438 69 89.5 69 C 89.226562 69 88.992188 68.492188 88.984375 67.875 C 88.964844 66.765625 88.957031 66.765625 88.25 68 C 87.855469 68.6875 87.511719 69.8125 87.484375 70.5 C 87.4375 71.578125 87.378906 71.621094 87.058594 70.800781 C 86.722656 69.949219 86.554688 70.023438 85.347656 71.550781 L 84.011719 73.25 L 83.988281 71.25 C 83.96875 69.382812 83.917969 69.316406 83.234375 70.21875 C 82.832031 70.753906 82.472656 71.765625 82.441406 72.46875 C 82.402344 73.328125 82.308594 73.460938 82.152344 72.867188 C 82.027344 72.382812 81.714844 72.117188 81.460938 72.273438 C 80.59375 72.808594 81 72.011719 82.800781 69.628906 C 84.9375 66.804688 88.855469 62.902344 88.054688 64.394531 C 86.589844 67.136719 87.925781 67.195312 89.464844 64.457031 C 90.695312 62.269531 91.296875 62.351562 91.648438 64.75 C 91.773438 65.574219 91.808594 65.238281 91.734375 64.003906 C 91.65625 62.765625 91.820312 61.332031 92.097656 60.816406 C 92.375 60.300781 92.601562 59.117188 92.601562 58.191406 C 92.601562 57.261719 92.832031 56.5 93.117188 56.5 C 93.421875 56.5 93.527344 55.746094 93.375 54.625 C 93.136719 52.871094 93.152344 52.839844 93.65625 54.125 C 94.761719 56.957031 95.429688 55.300781 94.515625 51.996094 C 94.074219 50.402344 94.097656 50.335938 94.765625 51.21875 C 95.171875 51.753906 95.503906 52.429688 95.507812 52.71875 C 95.511719 53.011719 95.726562 52.914062 95.988281 52.503906 C 96.246094 52.09375 96.367188 51.304688 96.257812 50.753906 C 96.148438 50.203125 95.925781 48.851562 95.765625 47.75 C 95.496094 45.890625 95.53125 45.816406 96.238281 46.71875 C 96.65625 47.253906 97 48.222656 97 48.875 C 97 49.566406 97.214844 49.925781 97.519531 49.738281 C 98.203125 49.316406 97.617188 51.867188 96.691406 53.359375 C 96.308594 53.964844 96 55.046875 96 55.761719 C 96 56.5 95.785156 56.925781 95.5 56.75 C 95.207031 56.566406 94.996094 57.121094 94.992188 58.09375 C 94.988281 59.238281 94.847656 59.535156 94.546875 59.058594 C 94.203125 58.519531 94.03125 58.609375 93.757812 59.46875 C 93.359375 60.726562 93.804688 63 94.449219 63 C 96.128906 63 99.417969 49.316406 98.722656 45.210938 L 98.308594 42.75 L 98.007812 44.75 C 97.714844 46.738281 97.710938 46.742188 97.378906 45.25 C 97.195312 44.425781 97.0625 42.175781 97.082031 40.25 C 97.113281 36.792969 97.121094 36.773438 97.769531 38.5 C 98.300781 39.917969 98.429688 40.03125 98.460938 39.097656 C 98.554688 36.257812 97.308594 33.296875 95.011719 30.914062 C 93.730469 29.585938 92.316406 28.5 91.867188 28.5 C 91.421875 28.5 90.269531 29.679688 89.3125 31.125 M 76.96875 31.320312 C 75.988281 33.613281 75.972656 34.386719 76.921875 33.800781 C 77.636719 33.355469 79.027344 29 78.453125 29 C 78.183594 29 77.515625 30.042969 76.96875 31.320312 M 94.855469 36.367188 C 95.011719 38.503906 95.167969 40.292969 95.207031 40.347656 C 95.246094 40.402344 95.578125 40.257812 95.949219 40.03125 C 96.492188 39.695312 96.503906 39.277344 96 37.75 C 95.601562 36.539062 95.558594 35.769531 95.878906 35.566406 C 96.429688 35.214844 95.867188 33.285156 95.074219 32.796875 C 94.75 32.597656 94.675781 33.855469 94.855469 36.367188 M 40.28125 36.746094 C 38.5625 38.839844 38.519531 38.96875 39.710938 38.425781 C 40.421875 38.105469 41 37.613281 41 37.335938 C 41 37.054688 41.375 36.414062 41.832031 35.910156 C 42.285156 35.40625 42.542969 34.878906 42.402344 34.734375 C 42.257812 34.589844 41.304688 35.496094 40.28125 36.746094 M 44.25 38.316406 C 41.5 40.054688 37.5 42.417969 35.363281 43.570312 C 30.203125 46.351562 27.5 49.253906 27.5 52.011719 C 27.5 53.132812 27.832031 54.691406 28.238281 55.472656 C 29.871094 58.636719 35.589844 62.253906 41.316406 63.746094 C 45.015625 64.710938 48.800781 64.703125 52.679688 63.726562 C 56.886719 62.664062 64.546875 58.769531 66.578125 56.65625 L 68.25 54.917969 L 65.648438 56.585938 C 64.21875 57.5 62.191406 58.789062 61.148438 59.445312 C 59.457031 60.507812 55.449219 62.070312 50.578125 63.558594 C 49.660156 63.84375 48.59375 63.949219 48.203125 63.800781 C 47.171875 63.40625 47.347656 61.292969 48.496094 60.25 C 49.289062 59.535156 49.375 59.199219 48.902344 58.632812 C 48.421875 58.054688 47.339844 57.984375 43.28125 58.257812 C 38.609375 58.574219 38.152344 58.523438 36.886719 57.523438 C 35.019531 56.050781 34.246094 53.300781 34.953125 50.671875 C 36.160156 46.195312 39.6875 43.808594 44.6875 44.082031 C 47.683594 44.246094 47.746094 44.222656 47.660156 43 C 47.613281 42.3125 47.425781 41.1875 47.25 40.496094 C 47.019531 39.597656 47.300781 38.699219 48.238281 37.3125 C 48.960938 36.25 49.480469 35.332031 49.398438 35.269531 C 49.316406 35.203125 47 36.574219 44.25 38.316406 M 72.988281 38.261719 C 72.640625 38.679688 72.492188 39.160156 72.65625 39.324219 C 73.167969 39.835938 74.5 39.070312 74.5 38.265625 C 74.5 37.285156 73.800781 37.285156 72.988281 38.261719 M 36.21875 39.542969 L 34.75 41.085938 L 36.371094 40.167969 C 37.265625 39.664062 37.996094 38.96875 37.996094 38.625 C 38 37.742188 37.867188 37.8125 36.21875 39.542969 M 78 39.449219 C 78 39.695312 77.269531 39.863281 76.375 39.824219 C 75.148438 39.769531 74.75 39.960938 74.742188 40.605469 C 74.738281 41.734375 74.019531 42.378906 72.539062 42.582031 C 71.871094 42.675781 71.222656 43.066406 71.097656 43.449219 C 70.929688 43.957031 71.164062 44.074219 71.933594 43.871094 C 73.84375 43.375 73.054688 44.324219 71.066406 44.921875 C 68.46875 45.699219 68.0625 45.652344 69.386719 44.722656 C 70.773438 43.75 70.832031 43.007812 69.492188 43.355469 C 68.328125 43.660156 68.253906 43.761719 67.792969 45.683594 C 67.453125 47.113281 67.460938 47.117188 69.320312 46.769531 C 71.007812 46.453125 71.125 46.496094 70.515625 47.234375 C 70.144531 47.679688 69.566406 47.941406 69.230469 47.8125 C 68.402344 47.496094 64.832031 48.757812 64.601562 49.449219 C 64.375 50.125 64.203125 50.132812 67.375 49.289062 C 68.816406 48.90625 70.117188 48.785156 70.261719 49.019531 C 70.410156 49.257812 69.679688 49.59375 68.640625 49.765625 C 65.453125 50.300781 64.257812 50.796875 64.089844 51.660156 C 63.957031 52.335938 64.238281 52.441406 65.589844 52.238281 C 66.503906 52.101562 66.914062 52.132812 66.5 52.304688 C 66.085938 52.480469 65.074219 52.910156 64.25 53.265625 C 63.425781 53.621094 62.085938 54.113281 61.277344 54.363281 C 59.640625 54.867188 58.417969 57.5 59.824219 57.5 C 60.226562 57.5 60.421875 57.722656 60.253906 57.996094 C 60.070312 58.289062 60.300781 58.351562 60.824219 58.152344 C 61.394531 57.933594 61.484375 57.742188 61.078125 57.609375 C 60.417969 57.390625 62.65625 55 63.527344 55 C 64.183594 55 64.117188 55.671875 63.375 56.492188 C 62.578125 57.375 64.902344 55.960938 68.75 53.226562 C 73.914062 49.554688 77.585938 44.738281 78.160156 40.875 C 78.3125 39.84375 78.339844 39 78.21875 39 C 78.097656 39 78 39.203125 78 39.449219 M 58.3125 40.769531 C 57.828125 42.027344 57.972656 42.351562 58.5625 41.335938 C 58.851562 40.835938 58.988281 40.320312 58.859375 40.191406 C 58.730469 40.0625 58.484375 40.324219 58.3125 40.769531 M 72.625 40.332031 C 71.894531 40.625 71.777344 42 72.484375 42 C 72.746094 42 73.207031 41.550781 73.5 41 C 74.03125 40.007812 73.824219 39.847656 72.625 40.332031 M 31.65625 41.1875 C 31.804688 41.566406 31.65625 42.15625 31.335938 42.496094 C 31.011719 42.835938 31.480469 42.746094 32.375 42.292969 C 34.210938 41.367188 34.542969 40.761719 32.9375 41.269531 C 32.222656 41.496094 31.988281 41.425781 32.21875 41.054688 C 32.40625 40.75 32.296875 40.5 31.976562 40.5 C 31.65625 40.5 31.511719 40.808594 31.65625 41.1875 M 36.625 43.558594 C 35.730469 44.128906 35 44.804688 35 45.054688 C 35 45.410156 38.425781 43.589844 39.457031 42.683594 C 40.226562 42.007812 37.945312 42.710938 36.625 43.558594 M 78.253906 45.996094 C 77.753906 46.546875 77.578125 47 77.863281 47 C 78.492188 47 79.738281 45.570312 79.402344 45.234375 C 79.269531 45.101562 78.753906 45.445312 78.253906 45.996094 M 16.949219 46.480469 C 12.71875 46.914062 11 47.667969 9.726562 49.652344 C 8.734375 51.203125 8.605469 51.246094 5.371094 51.175781 L 2.042969 51.097656 L 2.804688 52.261719 C 3.625 53.515625 5.875 54.5 7.925781 54.5 C 8.628906 54.5 11.707031 53.675781 14.765625 52.671875 C 19.449219 51.128906 20.453125 50.613281 21.160156 49.378906 C 22.210938 47.554688 22.222656 46.691406 21.210938 46.304688 C 20.773438 46.136719 20.378906 46.03125 20.335938 46.070312 C 20.289062 46.109375 18.765625 46.292969 16.949219 46.480469 M 0.125 48.75 C 0.132812 49.851562 0.234375 50.242188 0.351562 49.617188 C 0.472656 48.996094 0.46875 48.097656 0.34375 47.617188 C 0.21875 47.140625 0.121094 47.648438 0.125 48.75 M 77.277344 48.789062 C 76.746094 49.179688 76.519531 49.496094 76.78125 49.492188 C 77.46875 49.480469 78.761719 48.59375 78.484375 48.316406 C 78.355469 48.1875 77.8125 48.402344 77.277344 48.789062 M 31.730469 49.535156 C 31.546875 49.828125 31.507812 50.175781 31.636719 50.304688 C 31.769531 50.4375 32.007812 50.195312 32.171875 49.773438 C 32.511719 48.890625 32.222656 48.734375 31.730469 49.535156 M 44 50 C 43.3125 50.539062 42.976562 50.976562 43.25 50.976562 C 43.523438 50.976562 44.3125 50.539062 45 50 C 45.6875 49.460938 46.023438 49.023438 45.75 49.023438 C 45.476562 49.023438 44.6875 49.460938 44 50 M 16.875 50.332031 C 17.21875 50.46875 17.78125 50.46875 18.125 50.332031 C 18.46875 50.191406 18.1875 50.078125 17.5 50.078125 C 16.8125 50.078125 16.53125 50.191406 16.875 50.332031 M 89.039062 52.039062 C 88.410156 53.152344 88.019531 54.183594 88.164062 54.332031 C 88.308594 54.476562 88.910156 53.652344 89.5 52.5 C 90.890625 49.773438 90.519531 49.402344 89.039062 52.039062 M 61.695312 51.488281 C 61.113281 51.722656 60.511719 52.394531 60.359375 52.980469 C 60.125 53.882812 60.246094 53.992188 61.167969 53.710938 C 62.640625 53.257812 63.5 52.515625 63.5 51.6875 C 63.5 50.910156 63.203125 50.878906 61.695312 51.488281 M 91.328125 54.054688 C 90.949219 55.417969 88.921875 61.761719 88.648438 62.445312 C 88.476562 62.871094 88.585938 63.007812 88.925781 62.796875 C 89.613281 62.371094 92.246094 54.078125 91.828125 53.660156 C 91.660156 53.492188 91.4375 53.671875 91.328125 54.054688 M 82.460938 62.328125 L 81.25 63.660156 L 82.875 62.484375 C 84.566406 61.265625 84.78125 61 84.085938 61 C 83.859375 61 83.128906 61.597656 82.460938 62.328125 M 45.40625 61.839844 C 45.765625 61.984375 46.199219 61.96875 46.363281 61.800781 C 46.53125 61.636719 46.234375 61.519531 45.707031 61.539062 C 45.125 61.5625 45.007812 61.683594 45.40625 61.839844 M 48.75 62 C 48.578125 62.273438 48.679688 62.5 48.96875 62.5 C 49.261719 62.5 49.5 62.273438 49.5 62 C 49.5 61.726562 49.402344 61.5 49.28125 61.5 C 49.15625 61.5 48.921875 61.726562 48.75 62 M 40.5 62.5 C 39.273438 62.890625 39.28125 62.902344 40.75 62.941406 C 41.574219 62.964844 42.585938 62.765625 43 62.5 C 43.617188 62.101562 43.574219 62.023438 42.75 62.058594 C 42.199219 62.082031 41.1875 62.28125 40.5 62.5 M 92.597656 63.25 C 92.609375 64.074219 92.71875 64.351562 92.847656 63.867188 C 92.972656 63.378906 92.964844 62.703125 92.828125 62.367188 C 92.691406 62.027344 92.585938 62.425781 92.597656 63.25 M 85.835938 67.242188 C 85.238281 67.683594 84.980469 68.398438 85.085938 69.332031 L 85.25 70.75 L 86.167969 69.398438 C 87.363281 67.632812 87.15625 66.265625 85.835938 67.242188 M 66.015625 68.46875 C 65.386719 69.648438 65.316406 72.402344 65.933594 71.726562 C 66.382812 71.234375 67.09375 67.5 66.734375 67.5 C 66.625 67.5 66.300781 67.933594 66.015625 68.46875 "/>
</g>
</svg>
