<?xml version="1.0" encoding="UTF-8"?>
<svg xmlns="http://www.w3.org/2000/svg" xmlns:xlink="http://www.w3.org/1999/xlink" width="24px" height="24px" viewBox="0 0 24 24" version="1.1">
<g id="surface1">
<path style=" stroke:none;fill-rule:evenodd;fill:rgb(0%,0%,0%);fill-opacity:1;" d="M 16.496094 4.847656 C 16.035156 5.070312 15.261719 5.585938 14.773438 5.988281 C 14.179688 6.480469 13.785156 6.71875 13.574219 6.714844 C 13.402344 6.714844 12.773438 6.519531 12.179688 6.285156 C 10.292969 5.535156 9.5625 5.375 8.28125 5.4375 C 6.398438 5.523438 4.464844 6.152344 2.621094 7.269531 C 2.101562 7.585938 1.71875 7.960938 1.195312 8.664062 C 0.476562 9.636719 0.191406 10.308594 0.046875 11.414062 C -0.0195312 11.921875 0.0117188 12.066406 0.285156 12.476562 C 0.925781 13.445312 1.820312 13.539062 3.710938 12.84375 C 4.421875 12.582031 4.90625 12.480469 5.453125 12.480469 C 6.195312 12.480469 6.210938 12.484375 6.28125 12.835938 C 6.519531 14.027344 8.101562 15.191406 10.121094 15.660156 C 11.949219 16.082031 14.222656 15.351562 16.140625 13.726562 C 17.03125 12.96875 17.03125 13.140625 16.132812 14.339844 C 14.644531 16.332031 14.53125 17.511719 15.714844 18.695312 C 16.417969 19.398438 16.945312 19.589844 18.058594 19.542969 C 19.320312 19.488281 19.882812 19.15625 21.09375 17.757812 C 22.804688 15.773438 23.640625 14.164062 23.84375 12.453125 C 23.882812 12.140625 23.960938 11.917969 24.019531 11.953125 C 24.136719 12.027344 24.046875 10.253906 23.875 9.09375 C 23.734375 8.132812 23.472656 7.648438 22.726562 6.96875 C 21.867188 6.183594 21.421875 6.039062 20.640625 6.300781 C 20.3125 6.410156 20.011719 6.550781 19.972656 6.609375 C 19.871094 6.773438 19.679688 6.621094 19.679688 6.375 C 19.679688 6.261719 19.539062 5.882812 19.363281 5.53125 C 18.777344 4.355469 17.925781 4.152344 16.496094 4.847656 M 17.191406 4.949219 C 17.125 5.03125 16.980469 5.503906 16.875 6 C 16.765625 6.496094 16.574219 7.074219 16.445312 7.28125 C 16.019531 7.984375 14.410156 9 13.980469 8.835938 C 13.691406 8.726562 13.765625 8.488281 14.335938 7.730469 C 15.246094 6.527344 15.023438 6.40625 13.625 7.347656 C 13.113281 7.691406 12.453125 8.242188 12.15625 8.574219 L 11.617188 9.171875 L 11.699219 9.917969 C 11.769531 10.589844 11.753906 10.675781 11.535156 10.792969 C 11.394531 10.867188 11.019531 10.894531 10.65625 10.855469 C 9.882812 10.769531 9.316406 11.023438 8.914062 11.628906 C 8.558594 12.15625 8.546875 12.929688 8.882812 13.355469 C 9.214844 13.777344 9.390625 13.8125 10.496094 13.6875 C 11.457031 13.582031 11.730469 13.632812 12.085938 13.992188 C 12.171875 14.074219 12.238281 14.199219 12.238281 14.269531 C 12.238281 14.558594 12.503906 14.371094 12.671875 13.96875 C 12.902344 13.414062 13.035156 13.519531 12.828125 14.089844 C 12.714844 14.40625 12.601562 14.519531 12.410156 14.519531 C 12.148438 14.519531 11.925781 14.820312 12.101562 14.929688 C 12.148438 14.957031 12.40625 14.886719 12.667969 14.769531 C 13.113281 14.570312 13.152344 14.511719 13.296875 13.824219 C 13.378906 13.417969 13.496094 13.058594 13.550781 13.023438 C 13.609375 12.988281 13.578125 13.261719 13.480469 13.628906 C 13.269531 14.445312 13.300781 14.578125 13.648438 14.335938 C 13.8125 14.222656 13.988281 13.886719 14.105469 13.464844 C 14.398438 12.394531 14.472656 12.269531 14.871094 12.183594 C 15.074219 12.136719 15.238281 12.046875 15.238281 11.976562 C 15.238281 11.90625 15.113281 11.886719 14.941406 11.929688 C 14.773438 11.972656 14.640625 11.976562 14.640625 11.945312 C 14.640625 11.839844 15.34375 11.519531 15.578125 11.519531 C 15.707031 11.519531 15.878906 11.4375 15.960938 11.339844 C 16.085938 11.1875 16.0625 11.160156 15.824219 11.15625 L 15.539062 11.152344 L 15.832031 10.988281 C 16.03125 10.878906 16.167969 10.652344 16.253906 10.304688 C 16.34375 9.933594 16.449219 9.769531 16.621094 9.738281 C 16.855469 9.691406 16.855469 9.695312 16.628906 9.945312 C 16.503906 10.085938 16.433594 10.234375 16.472656 10.273438 C 16.625 10.425781 16.96875 10.082031 17.148438 9.59375 C 17.269531 9.265625 17.46875 9.007812 17.691406 8.882812 C 18.03125 8.695312 18.246094 8.398438 18.039062 8.398438 C 17.984375 8.398438 17.757812 8.453125 17.53125 8.515625 C 17.035156 8.660156 17.152344 8.511719 17.679688 8.328125 C 17.886719 8.257812 18.078125 8.109375 18.097656 8 C 18.128906 7.839844 18.0625 7.8125 17.738281 7.863281 C 17.375 7.917969 17.386719 7.90625 17.851562 7.730469 C 18.320312 7.554688 18.558594 7.203125 18.210938 7.199219 C 18.128906 7.195312 18.195312 7.089844 18.359375 6.957031 C 18.585938 6.78125 18.621094 6.695312 18.507812 6.621094 C 18.390625 6.546875 18.410156 6.472656 18.597656 6.300781 C 18.839844 6.082031 18.902344 6.148438 18.847656 6.570312 C 18.824219 6.761719 18.988281 6.761719 19.175781 6.574219 C 19.386719 6.363281 19.359375 6.476562 18.945312 7.453125 C 18.738281 7.941406 18.5625 8.429688 18.546875 8.542969 C 18.535156 8.652344 18.394531 8.855469 18.234375 8.988281 L 17.941406 9.230469 L 18.265625 9.234375 C 18.507812 9.238281 18.640625 9.148438 18.777344 8.886719 C 19.039062 8.375 19.253906 8.277344 19.15625 8.710938 L 19.078125 9.058594 L 19.253906 8.761719 C 19.472656 8.390625 19.503906 6.585938 19.304688 5.988281 C 19.085938 5.335938 18.480469 4.769531 18.480469 5.214844 C 18.480469 5.328125 18.558594 5.371094 18.691406 5.328125 C 18.839844 5.285156 18.820312 5.324219 18.628906 5.46875 C 18.480469 5.578125 18.359375 5.742188 18.359375 5.835938 C 18.359375 6.035156 18.414062 6.039062 18.757812 5.875 C 19.011719 5.75 19.011719 5.753906 18.785156 5.933594 C 18.660156 6.035156 18.507812 6.121094 18.453125 6.121094 C 18.394531 6.121094 18.269531 6.296875 18.167969 6.511719 L 17.988281 6.898438 L 18.058594 6.421875 C 18.097656 6.15625 18.160156 5.785156 18.195312 5.597656 C 18.253906 5.3125 18.226562 5.265625 18.042969 5.300781 C 17.917969 5.324219 17.800781 5.464844 17.78125 5.613281 C 17.71875 6.046875 17.519531 5.789062 17.519531 5.273438 C 17.519531 4.792969 17.40625 4.679688 17.191406 4.949219 M 17.816406 4.929688 C 17.773438 5 17.757812 5.078125 17.785156 5.101562 C 17.867188 5.1875 18.359375 5.015625 18.359375 4.90625 C 18.359375 4.753906 17.910156 4.773438 17.816406 4.929688 M 16.261719 5.242188 C 16.0625 5.347656 15.644531 5.636719 15.332031 5.882812 C 14.839844 6.269531 14.796875 6.339844 15 6.394531 C 15.324219 6.480469 15.308594 6.566406 14.828125 7.324219 C 14.601562 7.683594 14.328125 8.128906 14.222656 8.3125 L 14.03125 8.648438 L 14.363281 8.5625 C 15.238281 8.347656 16.226562 7.398438 16.441406 6.570312 C 16.515625 6.289062 16.625 5.871094 16.6875 5.640625 C 16.871094 4.949219 16.847656 4.925781 16.261719 5.242188 M 6.421875 5.929688 C 4.292969 6.480469 2.769531 7.289062 1.796875 8.375 C 1.039062 9.226562 0.507812 10.292969 0.40625 11.167969 L 0.332031 11.832031 L 0.808594 11.976562 C 1.644531 12.226562 1.886719 12.171875 2.214844 11.652344 C 2.535156 11.140625 2.847656 11.027344 4.394531 10.855469 C 5.046875 10.78125 5.160156 10.800781 5.382812 11.023438 C 5.585938 11.226562 5.613281 11.335938 5.519531 11.578125 C 5.4375 11.796875 5.445312 11.882812 5.554688 11.886719 C 5.632812 11.894531 5.59375 11.941406 5.460938 12 C 5.28125 12.078125 5.359375 12.105469 5.789062 12.113281 C 6.101562 12.117188 6.359375 12.074219 6.359375 12.015625 C 6.359375 11.746094 7.421875 10.75 8.054688 10.433594 C 8.441406 10.238281 8.761719 10.046875 8.761719 10.011719 C 8.761719 9.976562 8.699219 9.984375 8.621094 10.03125 C 8.535156 10.085938 8.515625 10.0625 8.570312 9.976562 C 8.617188 9.898438 8.707031 9.867188 8.769531 9.90625 C 8.832031 9.945312 9.339844 9.699219 9.894531 9.355469 C 10.644531 8.894531 10.886719 8.6875 10.839844 8.539062 C 10.785156 8.367188 10.796875 8.363281 10.910156 8.519531 C 11.023438 8.675781 11.085938 8.652344 11.328125 8.378906 C 11.488281 8.199219 11.644531 8.082031 11.679688 8.117188 C 11.746094 8.1875 13.140625 7.273438 13.257812 7.082031 C 13.300781 7.015625 13.234375 6.960938 13.113281 6.960938 C 12.839844 6.960938 12 7.519531 12 7.703125 C 12 7.777344 11.964844 7.804688 11.921875 7.761719 C 11.878906 7.71875 11.914062 7.601562 11.996094 7.503906 C 12.304688 7.136719 11.871094 7.316406 11.5 7.710938 C 11.238281 7.988281 11.171875 8.023438 11.269531 7.828125 C 11.382812 7.609375 11.375 7.558594 11.226562 7.558594 C 11.128906 7.558594 10.964844 7.71875 10.863281 7.914062 C 10.765625 8.105469 10.621094 8.300781 10.550781 8.34375 C 10.480469 8.390625 10.503906 8.261719 10.609375 8.058594 C 10.714844 7.855469 10.800781 7.65625 10.800781 7.609375 C 10.800781 7.566406 10.328125 7.554688 9.75 7.585938 C 8.480469 7.652344 7.71875 7.941406 6.054688 8.984375 C 4.492188 9.964844 3.726562 10.085938 3.289062 9.421875 C 3.109375 9.144531 3.113281 9.089844 3.355469 8.585938 C 3.679688 7.917969 4.515625 7.363281 5.988281 6.84375 C 7.203125 6.414062 7.5625 6.222656 7.785156 5.886719 C 7.929688 5.667969 7.925781 5.640625 7.726562 5.644531 C 7.601562 5.648438 7.015625 5.777344 6.421875 5.929688 M 8.058594 5.894531 C 7.824219 6.328125 7.5 6.519531 6 7.089844 C 4.890625 7.515625 4.507812 7.726562 4.050781 8.167969 C 3.421875 8.769531 3.296875 9.253906 3.710938 9.476562 C 4.25 9.761719 5.007812 9.488281 6.648438 8.417969 C 7.816406 7.652344 8.78125 7.359375 10.441406 7.269531 C 12.816406 7.140625 12.996094 6.894531 11.21875 6.195312 C 10.324219 5.84375 9.792969 5.710938 9.117188 5.667969 C 8.265625 5.617188 8.207031 5.628906 8.058594 5.894531 M 10.625 6.648438 C 10.878906 6.835938 10.992188 6.8125 10.863281 6.609375 C 10.820312 6.539062 10.699219 6.480469 10.589844 6.480469 C 10.425781 6.480469 10.433594 6.507812 10.625 6.648438 M 20.398438 6.691406 C 20.023438 6.878906 19.574219 7.492188 19.710938 7.632812 C 19.847656 7.769531 20.40625 7.414062 20.578125 7.085938 C 20.867188 6.527344 21.019531 6.652344 20.757812 7.230469 C 20.628906 7.511719 20.523438 7.820312 20.519531 7.921875 C 20.515625 8.019531 20.402344 8.234375 20.265625 8.398438 C 20.019531 8.695312 20.015625 8.628906 20.242188 8.078125 C 20.289062 7.964844 20.234375 7.964844 19.996094 8.074219 C 19.789062 8.175781 19.65625 8.375 19.570312 8.710938 C 19.390625 9.417969 18.453125 11.226562 17.871094 11.988281 C 17.597656 12.34375 17.269531 12.882812 17.140625 13.183594 C 17.011719 13.484375 16.617188 14.109375 16.265625 14.574219 C 15.402344 15.714844 15.238281 16.074219 15.238281 16.835938 C 15.238281 17.546875 15.597656 18.222656 16.230469 18.722656 L 16.566406 18.980469 L 16.796875 18.699219 C 16.925781 18.546875 17.035156 18.476562 17.035156 18.546875 C 17.039062 18.617188 16.976562 18.734375 16.898438 18.8125 C 16.820312 18.890625 16.789062 18.988281 16.832031 19.03125 C 16.871094 19.074219 17.039062 18.964844 17.203125 18.789062 C 17.363281 18.613281 17.515625 18.519531 17.539062 18.582031 C 17.5625 18.644531 17.835938 18.609375 18.160156 18.503906 C 18.953125 18.25 19.058594 17.953125 18.660156 17.109375 C 18.101562 15.933594 18.34375 15.015625 19.546875 13.761719 C 20.191406 13.09375 20.273438 12.945312 20.394531 12.265625 C 20.539062 11.472656 20.523438 8.988281 20.371094 8.875 C 20.226562 8.765625 20.941406 7.40625 21.339844 7.03125 C 21.542969 6.839844 21.683594 6.636719 21.648438 6.582031 C 21.542969 6.410156 20.839844 6.46875 20.398438 6.691406 M 11.28125 6.644531 C 11.28125 6.671875 11.386719 6.71875 11.519531 6.753906 C 11.652344 6.789062 11.730469 6.769531 11.691406 6.707031 C 11.628906 6.605469 11.28125 6.550781 11.28125 6.644531 M 21.433594 7.46875 C 20.761719 8.484375 20.722656 8.660156 20.710938 10.738281 C 20.699219 12.917969 20.664062 13.027344 19.738281 13.921875 C 18.996094 14.636719 18.675781 15.269531 18.671875 16.027344 C 18.667969 16.464844 18.742188 16.734375 18.9375 17.007812 C 19.117188 17.261719 19.203125 17.542969 19.191406 17.84375 C 19.164062 18.484375 19.074219 18.785156 18.964844 18.609375 C 18.902344 18.507812 18.769531 18.554688 18.507812 18.777344 C 18.304688 18.945312 18.105469 19.035156 18.070312 18.972656 C 18.027344 18.90625 17.855469 18.914062 17.632812 19 L 17.269531 19.136719 L 17.59375 19.222656 C 18.011719 19.335938 18.921875 19.210938 19.078125 19.019531 C 19.144531 18.941406 19.28125 18.664062 19.382812 18.40625 L 19.5625 17.941406 L 19.507812 18.394531 C 19.476562 18.660156 19.5 18.816406 19.566406 18.777344 C 19.628906 18.738281 19.6875 18.535156 19.699219 18.324219 C 19.714844 17.960938 19.71875 17.957031 19.765625 18.269531 C 19.792969 18.453125 19.859375 18.601562 19.914062 18.601562 C 20.023438 18.601562 21.304688 17.171875 21.636719 16.683594 C 21.855469 16.363281 21.917969 15.480469 21.71875 15.480469 C 21.652344 15.480469 21.601562 15.722656 21.601562 16.019531 C 21.601562 16.316406 21.546875 16.558594 21.480469 16.558594 C 21.414062 16.558594 21.359375 16.4375 21.355469 16.289062 C 21.351562 16.023438 21.347656 16.023438 21.179688 16.320312 C 21.085938 16.484375 21.003906 16.753906 20.996094 16.921875 C 20.984375 17.179688 20.972656 17.1875 20.894531 16.992188 C 20.8125 16.789062 20.773438 16.804688 20.484375 17.171875 L 20.164062 17.578125 L 20.15625 17.101562 C 20.152344 16.652344 20.140625 16.636719 19.976562 16.851562 C 19.878906 16.980469 19.792969 17.222656 19.785156 17.394531 C 19.777344 17.597656 19.753906 17.628906 19.71875 17.488281 C 19.6875 17.371094 19.613281 17.308594 19.550781 17.34375 C 19.34375 17.472656 19.441406 17.28125 19.871094 16.710938 C 20.386719 16.035156 21.324219 15.097656 21.132812 15.453125 C 20.78125 16.113281 21.101562 16.125 21.472656 15.46875 C 21.765625 14.945312 21.910156 14.964844 21.996094 15.539062 C 22.023438 15.738281 22.035156 15.65625 22.015625 15.359375 C 21.996094 15.0625 22.039062 14.71875 22.101562 14.597656 C 22.167969 14.472656 22.222656 14.1875 22.222656 13.964844 C 22.222656 13.742188 22.28125 13.558594 22.347656 13.558594 C 22.421875 13.558594 22.445312 13.378906 22.410156 13.109375 C 22.351562 12.6875 22.355469 12.679688 22.476562 12.988281 C 22.742188 13.667969 22.902344 13.273438 22.683594 12.480469 C 22.578125 12.097656 22.582031 12.082031 22.742188 12.292969 C 22.839844 12.421875 22.921875 12.582031 22.921875 12.652344 C 22.921875 12.722656 22.972656 12.699219 23.035156 12.601562 C 23.097656 12.503906 23.128906 12.3125 23.101562 12.179688 C 23.074219 12.046875 23.023438 11.722656 22.984375 11.460938 C 22.917969 11.011719 22.925781 10.996094 23.097656 11.214844 C 23.199219 11.339844 23.28125 11.574219 23.28125 11.730469 C 23.28125 11.894531 23.332031 11.980469 23.40625 11.9375 C 23.570312 11.835938 23.429688 12.449219 23.207031 12.804688 C 23.113281 12.953125 23.039062 13.210938 23.039062 13.382812 C 23.039062 13.558594 22.988281 13.664062 22.921875 13.621094 C 22.847656 13.578125 22.800781 13.710938 22.796875 13.941406 C 22.796875 14.214844 22.765625 14.289062 22.691406 14.175781 C 22.609375 14.042969 22.566406 14.066406 22.503906 14.273438 C 22.40625 14.574219 22.511719 15.121094 22.667969 15.121094 C 23.070312 15.121094 23.859375 11.835938 23.695312 10.851562 L 23.59375 10.261719 L 23.523438 10.738281 C 23.449219 11.21875 23.449219 11.21875 23.371094 10.859375 C 23.328125 10.660156 23.292969 10.121094 23.300781 9.660156 C 23.308594 8.832031 23.308594 8.824219 23.464844 9.238281 C 23.59375 9.582031 23.625 9.609375 23.632812 9.382812 C 23.652344 8.703125 23.355469 7.992188 22.800781 7.417969 C 22.496094 7.101562 22.15625 6.839844 22.046875 6.839844 C 21.941406 6.839844 21.664062 7.125 21.433594 7.46875 M 18.472656 7.515625 C 18.238281 8.066406 18.234375 8.253906 18.460938 8.113281 C 18.632812 8.003906 18.964844 6.960938 18.828125 6.960938 C 18.765625 6.960938 18.605469 7.210938 18.472656 7.515625 M 22.765625 8.730469 C 22.800781 9.242188 22.839844 9.671875 22.851562 9.683594 C 22.859375 9.695312 22.9375 9.664062 23.027344 9.609375 C 23.160156 9.527344 23.160156 9.425781 23.039062 9.058594 C 22.945312 8.769531 22.933594 8.585938 23.011719 8.535156 C 23.144531 8.453125 23.007812 7.988281 22.816406 7.871094 C 22.742188 7.824219 22.722656 8.125 22.765625 8.730469 M 9.667969 8.820312 C 9.253906 9.320312 9.246094 9.351562 9.53125 9.222656 C 9.699219 9.144531 9.839844 9.027344 9.839844 8.960938 C 9.839844 8.894531 9.929688 8.738281 10.039062 8.617188 C 10.148438 8.496094 10.210938 8.371094 10.175781 8.335938 C 10.140625 8.300781 9.914062 8.519531 9.667969 8.820312 M 10.621094 9.195312 C 9.960938 9.613281 9 10.179688 8.488281 10.457031 C 7.25 11.125 6.601562 11.820312 6.601562 12.484375 C 6.601562 12.753906 6.679688 13.125 6.777344 13.3125 C 7.167969 14.074219 8.542969 14.941406 9.914062 15.300781 C 10.804688 15.53125 11.710938 15.527344 12.644531 15.292969 C 13.652344 15.039062 15.492188 14.105469 15.980469 13.597656 L 16.378906 13.179688 L 15.753906 13.582031 C 15.414062 13.800781 14.925781 14.109375 14.675781 14.265625 C 14.269531 14.523438 13.308594 14.898438 12.140625 15.253906 C 11.917969 15.320312 11.660156 15.347656 11.570312 15.3125 C 11.320312 15.21875 11.363281 14.710938 11.640625 14.460938 C 11.828125 14.289062 11.851562 14.207031 11.738281 14.070312 C 11.621094 13.933594 11.363281 13.914062 10.386719 13.980469 C 9.265625 14.058594 9.15625 14.046875 8.851562 13.804688 C 8.40625 13.453125 8.21875 12.792969 8.390625 12.160156 C 8.679688 11.085938 9.523438 10.515625 10.726562 10.578125 C 11.445312 10.621094 11.460938 10.613281 11.4375 10.320312 C 11.425781 10.15625 11.382812 9.882812 11.339844 9.71875 C 11.285156 9.503906 11.351562 9.289062 11.578125 8.957031 C 11.75 8.699219 11.875 8.480469 11.855469 8.464844 C 11.835938 8.449219 11.28125 8.777344 10.621094 9.195312 M 17.519531 9.183594 C 17.433594 9.285156 17.398438 9.398438 17.4375 9.4375 C 17.5625 9.5625 17.878906 9.378906 17.878906 9.183594 C 17.878906 8.949219 17.710938 8.949219 17.519531 9.183594 M 8.691406 9.488281 L 8.339844 9.859375 L 8.730469 9.640625 C 8.945312 9.519531 9.117188 9.351562 9.121094 9.269531 C 9.121094 9.058594 9.089844 9.074219 8.691406 9.488281 M 18.71875 9.46875 C 18.71875 9.527344 18.542969 9.566406 18.328125 9.558594 C 18.035156 9.542969 17.941406 9.589844 17.9375 9.746094 C 17.9375 10.015625 17.765625 10.171875 17.410156 10.21875 C 17.25 10.242188 17.09375 10.335938 17.0625 10.429688 C 17.023438 10.550781 17.078125 10.578125 17.265625 10.53125 C 17.722656 10.410156 17.535156 10.636719 17.054688 10.78125 C 16.433594 10.96875 16.335938 10.957031 16.652344 10.734375 C 16.984375 10.5 17 10.320312 16.679688 10.40625 C 16.398438 10.480469 16.382812 10.503906 16.269531 10.964844 C 16.1875 11.308594 16.191406 11.308594 16.636719 11.226562 C 17.042969 11.148438 17.070312 11.160156 16.921875 11.335938 C 16.835938 11.441406 16.695312 11.503906 16.613281 11.476562 C 16.417969 11.398438 15.558594 11.703125 15.503906 11.867188 C 15.449219 12.03125 15.410156 12.03125 16.167969 11.828125 C 16.515625 11.738281 16.828125 11.707031 16.863281 11.765625 C 16.898438 11.820312 16.722656 11.902344 16.472656 11.945312 C 15.707031 12.070312 15.421875 12.191406 15.382812 12.398438 C 15.351562 12.558594 15.417969 12.585938 15.742188 12.539062 C 15.960938 12.503906 16.058594 12.511719 15.960938 12.554688 C 15.859375 12.59375 15.617188 12.699219 15.421875 12.785156 C 15.222656 12.867188 14.902344 12.988281 14.707031 13.046875 C 14.3125 13.167969 14.019531 13.800781 14.359375 13.800781 C 14.453125 13.800781 14.5 13.851562 14.460938 13.917969 C 14.417969 13.988281 14.472656 14.003906 14.597656 13.957031 C 14.734375 13.902344 14.753906 13.859375 14.660156 13.828125 C 14.5 13.773438 15.039062 13.199219 15.246094 13.199219 C 15.40625 13.199219 15.386719 13.359375 15.210938 13.558594 C 15.019531 13.769531 15.578125 13.429688 16.5 12.773438 C 17.738281 11.894531 18.621094 10.738281 18.757812 9.808594 C 18.792969 9.5625 18.800781 9.359375 18.773438 9.359375 C 18.742188 9.359375 18.71875 9.410156 18.71875 9.46875 M 13.996094 9.785156 C 13.878906 10.085938 13.914062 10.164062 14.054688 9.921875 C 14.125 9.800781 14.15625 9.675781 14.125 9.644531 C 14.09375 9.613281 14.035156 9.675781 13.996094 9.785156 M 17.429688 9.679688 C 17.253906 9.75 17.226562 10.078125 17.394531 10.078125 C 17.460938 10.078125 17.570312 9.972656 17.640625 9.839844 C 17.765625 9.601562 17.71875 9.5625 17.429688 9.679688 M 7.597656 9.886719 C 7.632812 9.976562 7.597656 10.117188 7.519531 10.199219 C 7.441406 10.28125 7.554688 10.257812 7.769531 10.152344 C 8.210938 9.929688 8.289062 9.78125 7.90625 9.90625 C 7.734375 9.960938 7.675781 9.941406 7.730469 9.851562 C 7.777344 9.78125 7.75 9.71875 7.675781 9.71875 C 7.597656 9.71875 7.5625 9.792969 7.597656 9.886719 M 8.789062 10.453125 C 8.574219 10.589844 8.398438 10.753906 8.398438 10.8125 C 8.398438 10.898438 9.222656 10.460938 9.46875 10.242188 C 9.65625 10.082031 9.105469 10.25 8.789062 10.453125 M 18.78125 11.039062 C 18.660156 11.171875 18.617188 11.28125 18.6875 11.28125 C 18.835938 11.28125 19.136719 10.9375 19.054688 10.855469 C 19.023438 10.824219 18.902344 10.90625 18.78125 11.039062 M 4.066406 11.15625 C 3.050781 11.257812 2.640625 11.441406 2.335938 11.917969 C 2.097656 12.289062 2.066406 12.300781 1.289062 12.28125 L 0.488281 12.261719 L 0.671875 12.542969 C 0.871094 12.84375 1.410156 13.078125 1.902344 13.078125 C 2.070312 13.078125 2.808594 12.882812 3.542969 12.640625 C 4.667969 12.269531 4.910156 12.148438 5.078125 11.851562 C 5.332031 11.414062 5.332031 11.207031 5.089844 11.113281 C 4.984375 11.074219 4.890625 11.046875 4.878906 11.058594 C 4.867188 11.066406 4.503906 11.109375 4.066406 11.15625 M 0.03125 11.699219 C 0.03125 11.964844 0.0546875 12.058594 0.0859375 11.910156 C 0.113281 11.757812 0.113281 11.542969 0.0820312 11.429688 C 0.0507812 11.3125 0.0273438 11.4375 0.03125 11.699219 M 18.546875 11.710938 C 18.417969 11.804688 18.363281 11.878906 18.425781 11.878906 C 18.59375 11.875 18.902344 11.664062 18.835938 11.597656 C 18.804688 11.566406 18.675781 11.617188 18.546875 11.710938 M 7.613281 11.886719 C 7.570312 11.957031 7.5625 12.042969 7.59375 12.074219 C 7.625 12.105469 7.683594 12.046875 7.722656 11.945312 C 7.800781 11.734375 7.734375 11.695312 7.613281 11.886719 M 10.558594 12 C 10.394531 12.128906 10.3125 12.234375 10.378906 12.234375 C 10.445312 12.234375 10.636719 12.128906 10.800781 12 C 10.964844 11.871094 11.046875 11.765625 10.980469 11.765625 C 10.914062 11.765625 10.726562 11.871094 10.558594 12 M 4.050781 12.078125 C 4.132812 12.113281 4.265625 12.113281 4.351562 12.078125 C 4.433594 12.046875 4.363281 12.019531 4.199219 12.019531 C 4.035156 12.019531 3.96875 12.046875 4.050781 12.078125 M 21.371094 12.488281 C 21.21875 12.757812 21.125 13.003906 21.160156 13.039062 C 21.195312 13.074219 21.339844 12.875 21.480469 12.601562 C 21.8125 11.945312 21.726562 11.855469 21.371094 12.488281 M 14.804688 12.359375 C 14.667969 12.414062 14.523438 12.574219 14.488281 12.714844 C 14.429688 12.929688 14.457031 12.957031 14.679688 12.890625 C 15.035156 12.78125 15.238281 12.601562 15.238281 12.40625 C 15.238281 12.21875 15.167969 12.210938 14.804688 12.359375 M 21.917969 12.972656 C 21.828125 13.300781 21.339844 14.824219 21.277344 14.988281 C 21.234375 15.089844 21.261719 15.121094 21.34375 15.070312 C 21.507812 14.96875 22.140625 12.980469 22.039062 12.878906 C 22 12.839844 21.945312 12.882812 21.917969 12.972656 M 19.789062 14.957031 L 19.5 15.277344 L 19.890625 14.996094 C 20.296875 14.703125 20.347656 14.640625 20.179688 14.640625 C 20.125 14.640625 19.949219 14.785156 19.789062 14.957031 M 10.898438 14.84375 C 10.984375 14.875 11.085938 14.871094 11.128906 14.832031 C 11.167969 14.792969 11.097656 14.765625 10.96875 14.769531 C 10.832031 14.773438 10.800781 14.804688 10.898438 14.84375 M 11.699219 14.878906 C 11.660156 14.945312 11.683594 15 11.753906 15 C 11.824219 15 11.878906 14.945312 11.878906 14.878906 C 11.878906 14.8125 11.855469 14.761719 11.828125 14.761719 C 11.796875 14.761719 11.742188 14.8125 11.699219 14.878906 M 9.71875 15 C 9.425781 15.09375 9.425781 15.097656 9.78125 15.105469 C 9.976562 15.113281 10.222656 15.0625 10.320312 15 C 10.46875 14.902344 10.457031 14.886719 10.261719 14.894531 C 10.128906 14.898438 9.886719 14.945312 9.71875 15 M 22.222656 15.179688 C 22.226562 15.378906 22.253906 15.445312 22.28125 15.328125 C 22.3125 15.210938 22.3125 15.050781 22.277344 14.96875 C 22.246094 14.886719 22.222656 14.980469 22.222656 15.179688 M 20.601562 16.136719 C 20.457031 16.246094 20.394531 16.414062 20.421875 16.640625 L 20.460938 16.980469 L 20.679688 16.65625 C 20.96875 16.230469 20.917969 15.902344 20.601562 16.136719 M 15.84375 16.433594 C 15.691406 16.714844 15.675781 17.375 15.824219 17.214844 C 15.933594 17.097656 16.101562 16.199219 16.015625 16.199219 C 15.988281 16.199219 15.914062 16.304688 15.84375 16.433594 "/>
</g>
</svg>
