<?xml version="1.0" encoding="UTF-8"?>
<svg xmlns="http://www.w3.org/2000/svg" xmlns:xlink="http://www.w3.org/1999/xlink" width="100px" height="100px" viewBox="0 0 100 100" version="1.1">
<g id="surface1">
<path style=" stroke:none;fill-rule:evenodd;fill:rgb(0%,0%,0%);fill-opacity:1;" d="M 16.746094 10.53125 C 7.714844 15.742188 0.257812 20.078125 0.167969 20.164062 C 0.0820312 20.25 3.714844 22.441406 8.242188 25.035156 C 12.765625 27.628906 16.46875 29.863281 16.464844 30 C 16.464844 30.136719 13.074219 32.179688 8.929688 34.539062 C 4.789062 36.894531 1.421875 39.03125 1.453125 39.289062 C 1.480469 39.542969 8.816406 43.972656 17.753906 49.132812 L 34.007812 58.515625 L 41.738281 54.007812 C 45.988281 51.527344 49.71875 49.5 50.019531 49.5 C 50.324219 49.5 54.066406 51.527344 58.332031 54 C 62.601562 56.476562 66.242188 58.425781 66.421875 58.335938 C 68.328125 57.359375 99.472656 39.308594 99.378906 39.230469 C 99.308594 39.175781 96.210938 37.382812 92.5 35.25 C 88.789062 33.121094 85.222656 31.046875 84.578125 30.644531 C 83.4375 29.933594 83.625 29.789062 91.488281 25.273438 C 95.933594 22.71875 99.835938 20.34375 100.160156 19.992188 C 100.589844 19.523438 100.59375 19.441406 100.171875 19.679688 C 99.851562 19.859375 92.316406 15.804688 83.425781 10.667969 C 74.535156 5.535156 67.035156 1.339844 66.757812 1.34375 C 66.476562 1.351562 62.703125 3.414062 58.371094 5.929688 C 54.039062 8.441406 50.296875 10.5 50.054688 10.5 C 49.816406 10.5 46.496094 8.679688 42.683594 6.453125 C 38.871094 4.230469 35.167969 2.105469 34.457031 1.734375 C 33.222656 1.089844 32.417969 1.488281 16.746094 10.53125 M 33.75 20.261719 C 24.949219 25.347656 17.691406 29.679688 17.621094 29.894531 C 17.546875 30.109375 24.816406 34.507812 33.769531 39.671875 L 50.046875 49.0625 L 66.273438 39.710938 C 75.199219 34.566406 82.5 30.183594 82.5 29.976562 C 82.5 29.621094 52.125 11.882812 50.5 11.289062 C 50.070312 11.132812 42.960938 14.941406 33.75 20.261719 M 14.640625 63.179688 L 14.75 78.113281 L 49 97.917969 L 48.996094 74.332031 L 48.988281 50.75 L 41.007812 59 L 33.023438 67.25 L 14.53125 48.25 L 14.640625 63.179688 M 76.339844 57.988281 L 67.058594 67.472656 L 59.035156 59.113281 L 51.011719 50.75 L 51.003906 74.425781 L 51 98.097656 L 52.625 97.148438 C 53.519531 96.621094 61.394531 92.066406 70.125 87.019531 L 86 77.84375 L 86 63.171875 C 86 55.101562 85.914062 48.5 85.8125 48.5 C 85.707031 48.5 81.445312 52.769531 76.339844 57.988281 "/>
</g>
</svg>
