<?xml version="1.0" encoding="UTF-8"?>
<svg xmlns="http://www.w3.org/2000/svg" xmlns:xlink="http://www.w3.org/1999/xlink" width="24px" height="24px" viewBox="0 0 24 24" version="1.1">
<g id="surface1">
<path style=" stroke:none;fill-rule:evenodd;fill:rgb(0%,0%,0%);fill-opacity:1;" d="M 4.019531 2.527344 C 1.851562 3.777344 0.0625 4.820312 0.0390625 4.839844 C 0.0195312 4.859375 0.890625 5.386719 1.976562 6.007812 C 3.0625 6.628906 3.953125 7.167969 3.953125 7.199219 C 3.953125 7.234375 3.136719 7.722656 2.144531 8.289062 C 1.148438 8.855469 0.339844 9.367188 0.347656 9.429688 C 0.355469 9.488281 2.117188 10.554688 4.261719 11.792969 L 8.160156 14.042969 L 10.015625 12.960938 C 11.039062 12.367188 11.933594 11.878906 12.003906 11.878906 C 12.078125 11.878906 12.976562 12.367188 14 12.960938 C 15.023438 13.554688 15.898438 14.023438 15.941406 14 C 16.398438 13.765625 23.875 9.433594 23.851562 9.414062 C 23.832031 9.402344 23.089844 8.972656 22.199219 8.460938 C 21.308594 7.949219 20.453125 7.453125 20.296875 7.355469 C 20.023438 7.183594 20.070312 7.148438 21.957031 6.066406 C 23.023438 5.453125 23.960938 4.882812 24.039062 4.796875 C 24.140625 4.6875 24.140625 4.664062 24.039062 4.722656 C 23.964844 4.765625 22.15625 3.792969 20.023438 2.558594 C 17.886719 1.328125 16.089844 0.320312 16.019531 0.324219 C 15.953125 0.324219 15.050781 0.820312 14.007812 1.421875 C 12.96875 2.027344 12.070312 2.519531 12.011719 2.519531 C 11.957031 2.519531 11.160156 2.082031 10.246094 1.550781 C 9.328125 1.015625 8.441406 0.503906 8.269531 0.417969 C 7.972656 0.261719 7.78125 0.355469 4.019531 2.527344 M 8.101562 4.863281 C 5.988281 6.082031 4.246094 7.125 4.230469 7.175781 C 4.210938 7.226562 5.957031 8.28125 8.105469 9.523438 L 12.011719 11.773438 L 15.90625 9.53125 C 18.046875 8.296875 19.800781 7.246094 19.800781 7.195312 C 19.800781 7.109375 12.511719 2.851562 12.121094 2.710938 C 12.015625 2.671875 10.308594 3.585938 8.101562 4.863281 M 3.515625 15.164062 L 3.539062 18.746094 L 7.648438 21.125 L 11.761719 23.5 L 11.757812 17.839844 L 11.757812 12.179688 L 9.839844 14.160156 L 7.925781 16.140625 L 3.488281 11.578125 L 3.515625 15.164062 M 18.320312 13.917969 L 16.09375 16.195312 L 12.242188 12.179688 L 12.242188 17.863281 L 12.238281 23.542969 L 12.628906 23.316406 C 12.84375 23.191406 14.734375 22.097656 16.828125 20.882812 L 20.640625 18.683594 L 20.640625 15.160156 C 20.640625 13.222656 20.621094 11.640625 20.59375 11.640625 C 20.570312 11.640625 19.546875 12.664062 18.320312 13.917969 "/>
</g>
</svg>
