<?xml version="1.0" encoding="UTF-8"?>
<svg xmlns="http://www.w3.org/2000/svg" xmlns:xlink="http://www.w3.org/1999/xlink" width="100px" height="100px" viewBox="0 0 100 100" version="1.1">
<g id="surface1">
<path style=" stroke:none;fill-rule:evenodd;fill:rgb(0%,0%,0%);fill-opacity:1;" d="M 40.75 2.316406 C 19.152344 4.660156 6 13.320312 2.691406 27.375 C 0.621094 36.171875 4.394531 47.941406 14.019531 62.714844 C 19.015625 70.382812 28.761719 82.90625 29.304688 82.359375 C 29.417969 82.25 28.628906 80.265625 27.550781 77.953125 C 25.085938 72.65625 22.929688 66.191406 21.46875 59.703125 C 20.304688 54.519531 20.367188 53.210938 21.804688 52.660156 C 23.414062 52.042969 24.144531 53.261719 25.316406 58.523438 C 27.691406 69.1875 32.136719 79.746094 37.886719 88.386719 C 40.25 91.941406 41.503906 93.507812 41.5 92.90625 C 41.496094 92.820312 40.847656 90.164062 40.050781 87 C 37.394531 76.449219 35.878906 65.15625 34.992188 49.308594 C 34.382812 38.425781 34.5625 37.324219 36.910156 37.59375 C 38.246094 37.75 38.25 37.757812 38.609375 43.25 C 39.8125 61.765625 40.144531 65.683594 41.039062 71.878906 C 42.722656 83.550781 46.269531 96.410156 48.128906 97.589844 C 48.472656 97.808594 49.464844 97.988281 50.339844 97.992188 C 51.816406 98 52.003906 97.800781 52.996094 95.140625 C 55.785156 87.695312 57.8125 78.648438 59.199219 67.5 C 60.183594 59.558594 60.996094 48.496094 60.996094 42.9375 C 61 38.261719 61.476562 37.285156 63.597656 37.585938 L 64.75 37.75 L 64.714844 46.25 C 64.675781 56.253906 63.882812 65.476562 62.203125 75.488281 C 61.125 81.921875 59.269531 89.925781 58.199219 92.75 C 57.613281 94.296875 60.011719 91.296875 62.730469 87.09375 C 67.921875 79.046875 72.546875 67.71875 74.546875 58.136719 C 75.109375 55.460938 75.832031 53.097656 76.15625 52.890625 C 77.183594 52.238281 77.953125 52.464844 78.722656 53.636719 C 79.386719 54.652344 79.371094 55.253906 78.546875 59.261719 C 77.191406 65.84375 74.226562 74.328125 70.976562 80.9375 L 68.117188 86.75 L 71.59375 83 C 84.460938 69.125 95.976562 48.25 97.441406 36.152344 C 99.117188 22.273438 90.667969 11.332031 74 5.800781 C 71.113281 4.84375 66.726562 3.695312 64.25 3.25 C 59.875 2.460938 44.898438 1.867188 40.75 2.316406 "/>
</g>
</svg>
