<?xml version="1.0" encoding="UTF-8"?>
<svg xmlns="http://www.w3.org/2000/svg" xmlns:xlink="http://www.w3.org/1999/xlink" width="24px" height="24px" viewBox="0 0 24 24" version="1.1">
<g id="surface1">
<path style=" stroke:none;fill-rule:evenodd;fill:rgb(0%,0%,0%);fill-opacity:1;" d="M 15.136719 1.503906 C 14.761719 1.984375 14.191406 3.460938 13.800781 4.980469 C 13.601562 5.746094 13.441406 6.480469 13.441406 6.605469 C 13.441406 6.839844 12.28125 8.519531 8.421875 13.886719 C 4.816406 18.90625 4.230469 19.847656 4.351562 20.46875 C 4.386719 20.664062 4.304688 20.847656 4.0625 21.078125 C 3.453125 21.660156 3.742188 21.808594 4.496094 21.292969 C 4.746094 21.125 4.972656 21.011719 5 21.039062 C 5.03125 21.070312 4.941406 21.273438 4.808594 21.496094 C 4.546875 21.921875 4.484375 22.320312 4.671875 22.320312 C 4.734375 22.320312 4.945312 22.121094 5.148438 21.875 C 5.550781 21.386719 5.714844 21.390625 5.523438 21.890625 C 5.457031 22.070312 5.398438 22.355469 5.398438 22.523438 C 5.398438 22.769531 5.433594 22.804688 5.566406 22.691406 C 5.660156 22.613281 5.800781 22.390625 5.882812 22.191406 C 5.964844 21.992188 6.09375 21.851562 6.167969 21.878906 C 6.382812 21.957031 6.898438 21.640625 7.304688 21.179688 C 7.511719 20.941406 8.105469 20.117188 8.621094 19.34375 C 9.722656 17.699219 15.089844 9.367188 15.378906 8.855469 C 15.488281 8.660156 16.042969 8.1875 16.605469 7.800781 C 18.714844 6.363281 20.28125 4.871094 20.28125 4.300781 C 20.28125 4.167969 20.195312 4.078125 20.066406 4.078125 C 19.816406 4.078125 18.238281 4.820312 17.757812 5.164062 C 17.574219 5.292969 17.390625 5.398438 17.351562 5.398438 C 17.3125 5.398438 17.480469 5.089844 17.722656 4.710938 C 18.222656 3.933594 18.640625 2.921875 18.535156 2.753906 C 18.496094 2.691406 18.390625 2.640625 18.300781 2.640625 C 18.027344 2.640625 16.792969 3.738281 16.027344 4.660156 C 15.636719 5.128906 15.304688 5.503906 15.289062 5.488281 C 15.277344 5.472656 15.359375 5.015625 15.480469 4.46875 C 15.785156 3.074219 15.882812 1.925781 15.730469 1.53125 C 15.574219 1.121094 15.445312 1.113281 15.136719 1.503906 "/>
</g>
</svg>
