<?xml version="1.0" encoding="UTF-8"?>
<svg xmlns="http://www.w3.org/2000/svg" xmlns:xlink="http://www.w3.org/1999/xlink" width="24px" height="24px" viewBox="0 0 24 24" version="1.1">
<g id="surface1">
<path style=" stroke:none;fill-rule:evenodd;fill:rgb(0%,0%,0%);fill-opacity:1;" d="M 11.960938 2.367188 C 11.925781 2.421875 11.757812 2.84375 11.585938 3.296875 C 11.199219 4.320312 11.019531 4.5625 9.058594 6.660156 C 6.238281 9.675781 5.433594 10.785156 4.851562 12.460938 C 3.429688 16.546875 5.304688 19.84375 9.71875 21.011719 C 11.105469 21.378906 12.984375 21.382812 14.339844 21.019531 C 18.449219 19.917969 20.390625 16.96875 19.441406 13.265625 C 18.921875 11.226562 17.933594 9.75 15.058594 6.71875 C 13.152344 4.707031 12.839844 4.289062 12.421875 3.171875 C 12.082031 2.269531 12.050781 2.21875 11.960938 2.367188 M 11.640625 5.65625 C 11.425781 5.925781 10.675781 6.746094 9.972656 7.480469 C 6.378906 11.257812 5.527344 12.8125 5.660156 15.375 C 5.707031 16.226562 5.773438 16.496094 6.117188 17.136719 C 6.621094 18.078125 7.367188 18.757812 8.460938 19.265625 C 10.796875 20.347656 13.480469 20.324219 15.773438 19.195312 C 17.859375 18.167969 18.847656 16.042969 18.308594 13.738281 C 17.871094 11.871094 16.972656 10.527344 14.179688 7.570312 C 13.34375 6.683594 12.519531 5.78125 12.347656 5.5625 L 12.03125 5.167969 L 11.640625 5.65625 M 11.808594 8.128906 C 11.46875 8.980469 11.335938 9.164062 10.257812 10.3125 C 8.835938 11.824219 8.46875 12.304688 8.039062 13.222656 C 6.804688 15.859375 8.152344 18.195312 11.210938 18.726562 C 12.289062 18.914062 13.394531 18.726562 14.523438 18.164062 C 15.855469 17.496094 16.441406 16.574219 16.441406 15.128906 C 16.441406 13.570312 15.878906 12.546875 13.78125 10.269531 C 12.796875 9.199219 12.453125 8.738281 12.300781 8.28125 C 12.191406 7.949219 12.074219 7.679688 12.042969 7.679688 C 12.011719 7.679688 11.90625 7.882812 11.808594 8.128906 M 10.621094 11.136719 C 9.03125 12.875 8.539062 13.71875 8.433594 14.863281 C 8.296875 16.351562 9.210938 17.414062 10.984375 17.828125 C 11.957031 18.054688 12.757812 17.996094 13.738281 17.628906 C 15.003906 17.15625 15.625 16.332031 15.621094 15.132812 C 15.613281 13.71875 15.113281 12.875 12.890625 10.535156 L 12.011719 9.613281 L 10.621094 11.136719 M 11.894531 12.273438 C 11.824219 12.457031 11.527344 12.863281 11.238281 13.171875 C 10.335938 14.144531 10.136719 14.773438 10.503906 15.484375 C 10.980469 16.40625 12.679688 16.53125 13.382812 15.695312 C 13.949219 15.023438 13.75 14.140625 12.800781 13.109375 C 12.523438 12.8125 12.238281 12.425781 12.164062 12.253906 L 12.03125 11.941406 L 11.894531 12.273438 M 11.519531 13.464844 C 10.949219 14.125 10.808594 14.394531 10.804688 14.851562 C 10.792969 15.820312 12.355469 16.214844 13.050781 15.417969 C 13.367188 15.050781 13.390625 14.761719 13.132812 14.265625 C 12.929688 13.871094 12.136719 12.953125 12.015625 12.96875 C 11.972656 12.976562 11.75 13.199219 11.519531 13.464844 "/>
</g>
</svg>
