<?xml version="1.0" encoding="UTF-8"?>
<svg xmlns="http://www.w3.org/2000/svg" xmlns:xlink="http://www.w3.org/1999/xlink" width="100px" height="100px" viewBox="0 0 100 100" version="1.1">
<g id="surface1">
<path style=" stroke:none;fill-rule:evenodd;fill:rgb(0%,0%,0%);fill-opacity:1;" d="M 49.835938 9.863281 C 49.6875 10.097656 48.984375 11.84375 48.273438 13.742188 C 46.671875 17.996094 45.90625 19.007812 37.738281 27.75 C 25.988281 40.316406 22.640625 44.933594 20.210938 51.914062 C 14.289062 68.949219 22.109375 82.6875 40.5 87.554688 C 46.269531 89.082031 54.105469 89.089844 59.75 87.578125 C 76.875 82.988281 84.953125 70.707031 81.003906 55.265625 C 78.832031 46.777344 74.71875 40.632812 62.753906 28 C 54.804688 19.609375 53.503906 17.863281 51.753906 13.214844 C 50.335938 9.449219 50.21875 9.242188 49.835938 9.863281 M 48.503906 23.570312 C 47.605469 24.6875 44.480469 28.109375 41.558594 31.175781 C 26.574219 46.902344 23.027344 53.390625 23.589844 64.0625 C 23.773438 67.613281 24.0625 68.730469 25.492188 71.410156 C 27.582031 75.328125 30.695312 78.15625 35.25 80.269531 C 44.992188 84.789062 56.160156 84.683594 65.71875 79.976562 C 74.414062 75.699219 78.527344 66.851562 76.285156 57.25 C 74.46875 49.472656 70.714844 43.855469 59.085938 31.535156 C 55.601562 27.84375 52.164062 24.082031 51.445312 23.179688 L 50.136719 21.535156 L 48.503906 23.570312 M 49.203125 33.875 C 47.792969 37.414062 47.242188 38.191406 42.75 42.964844 C 36.8125 49.273438 35.285156 51.277344 33.5 55.09375 C 28.359375 66.074219 33.96875 75.816406 46.707031 78.03125 C 51.210938 78.8125 55.808594 78.027344 60.511719 75.675781 C 66.070312 72.894531 68.5 69.050781 68.5 63.035156 C 68.5 56.546875 66.160156 52.273438 57.414062 42.785156 C 53.316406 38.335938 51.886719 36.414062 51.25 34.496094 C 50.792969 33.125 50.3125 32 50.183594 32 C 50.054688 32 49.613281 32.84375 49.203125 33.875 M 44.246094 46.40625 C 37.636719 53.636719 35.570312 57.160156 35.140625 61.929688 C 34.578125 68.128906 38.382812 72.550781 45.765625 74.277344 C 49.820312 75.226562 53.15625 74.988281 57.246094 73.457031 C 62.523438 71.484375 65.109375 68.046875 65.085938 63.046875 C 65.058594 57.15625 62.972656 53.644531 53.703125 43.90625 L 50.046875 40.058594 L 44.246094 46.40625 M 49.570312 51.140625 C 49.261719 51.902344 48.027344 53.589844 46.824219 54.890625 C 43.066406 58.9375 42.230469 61.5625 43.757812 64.515625 C 45.746094 68.359375 52.828125 68.878906 55.757812 65.402344 C 58.117188 62.597656 57.289062 58.917969 53.332031 54.628906 C 52.1875 53.386719 50.996094 51.78125 50.6875 51.058594 L 50.121094 49.75 L 49.570312 51.140625 M 48 56.101562 C 45.617188 58.851562 45.039062 59.96875 45.015625 61.875 C 44.972656 65.925781 51.480469 67.570312 54.375 64.238281 C 55.699219 62.714844 55.785156 61.503906 54.722656 59.445312 C 53.871094 57.800781 50.574219 53.972656 50.066406 54.042969 C 49.890625 54.066406 48.960938 54.992188 48 56.101562 "/>
</g>
</svg>
