<?xml version="1.0" encoding="UTF-8"?>
<svg xmlns="http://www.w3.org/2000/svg" xmlns:xlink="http://www.w3.org/1999/xlink" width="100px" height="100px" viewBox="0 0 100 100" version="1.1">
<g id="surface1">
<path style=" stroke:none;fill-rule:evenodd;fill:rgb(0%,0%,0%);fill-opacity:1;" d="M 63.074219 6.265625 C 61.5 8.269531 59.132812 14.421875 57.5 20.746094 C 56.675781 23.949219 56 27 56 27.523438 C 56 28.496094 51.179688 35.492188 35.09375 57.863281 C 20.0625 78.769531 17.632812 82.695312 18.128906 85.28125 C 18.285156 86.105469 17.929688 86.859375 16.925781 87.820312 C 14.382812 90.257812 15.589844 90.863281 18.738281 88.726562 C 19.773438 88.023438 20.714844 87.550781 20.835938 87.667969 C 20.957031 87.789062 20.59375 88.644531 20.027344 89.570312 C 18.953125 91.335938 18.679688 93 19.464844 93 C 19.71875 93 20.613281 92.167969 21.449219 91.152344 C 23.132812 89.109375 23.804688 89.136719 23.015625 91.214844 C 22.730469 91.957031 22.5 93.140625 22.5 93.84375 C 22.5 94.878906 22.632812 95.011719 23.195312 94.542969 C 23.578125 94.226562 24.171875 93.289062 24.515625 92.464844 C 24.855469 91.636719 25.386719 91.050781 25.695312 91.164062 C 26.601562 91.488281 28.742188 90.175781 30.433594 88.25 C 31.304688 87.257812 33.773438 83.816406 35.921875 80.597656 C 40.503906 73.742188 62.867188 39.027344 64.078125 36.894531 C 64.535156 36.089844 66.839844 34.117188 69.195312 32.507812 C 77.972656 26.519531 84.5 20.300781 84.5 17.929688 C 84.5 17.371094 84.144531 17 83.609375 17 C 82.566406 17 75.992188 20.078125 73.984375 21.511719 C 73.222656 22.054688 72.464844 22.5 72.304688 22.5 C 72.144531 22.5 72.839844 21.207031 73.851562 19.625 C 75.921875 16.390625 77.667969 12.175781 77.230469 11.46875 C 77.070312 11.210938 76.628906 11 76.246094 11 C 75.117188 11 69.976562 15.570312 66.78125 19.410156 C 65.148438 21.375 63.765625 22.929688 63.707031 22.867188 C 63.648438 22.800781 64.003906 20.890625 64.5 18.617188 C 65.765625 12.808594 66.175781 8.019531 65.550781 6.375 C 64.898438 4.667969 64.351562 4.644531 63.074219 6.265625 "/>
</g>
</svg>
