<?xml version="1.0" encoding="UTF-8"?>
<svg xmlns="http://www.w3.org/2000/svg" xmlns:xlink="http://www.w3.org/1999/xlink" width="100px" height="100px" viewBox="0 0 100 100" version="1.1">
<g id="surface1">
<path style=" stroke:none;fill-rule:evenodd;fill:rgb(0%,0%,0%);fill-opacity:1;" d="M 3.269531 39.976562 C -0.0273438 43.621094 -0.863281 52.375 1.585938 57.597656 C 4.355469 63.507812 9.191406 66.753906 17.75 68.449219 C 25.503906 69.988281 31.257812 70.503906 44.25 70.832031 C 68.414062 71.441406 86.710938 69.023438 92.703125 64.425781 C 95.695312 62.132812 98.28125 58.492188 99.046875 55.5 C 99.402344 54.125 99.871094 53 100.09375 53 C 100.316406 53 100.480469 51.480469 100.460938 49.625 C 100.4375 47.769531 100.296875 46.570312 100.140625 46.957031 C 99.984375 47.355469 99.484375 46.445312 99 44.882812 C 98.527344 43.351562 97.65625 41.421875 97.0625 40.589844 L 95.988281 39.078125 L 93.117188 40.546875 C 84.375 45.019531 61.113281 47.691406 40.640625 46.578125 C 24.601562 45.703125 13.117188 43.667969 6.875 40.589844 C 4.246094 39.292969 3.9375 39.238281 3.269531 39.976562 M 0.164062 50.25 C 0.167969 52.175781 0.257812 52.902344 0.363281 51.863281 C 0.472656 50.828125 0.472656 49.25 0.359375 48.363281 C 0.25 47.476562 0.160156 48.324219 0.164062 50.25 "/>
</g>
</svg>
