<?xml version="1.0" encoding="UTF-8"?>
<svg xmlns="http://www.w3.org/2000/svg" xmlns:xlink="http://www.w3.org/1999/xlink" width="24px" height="24px" viewBox="0 0 24 24" version="1.1">
<g id="surface1">
<path style=" stroke:none;fill-rule:evenodd;fill:rgb(0%,0%,0%);fill-opacity:1;" d="M 0.785156 9.59375 C -0.0078125 10.46875 -0.207031 12.570312 0.378906 13.824219 C 1.046875 15.242188 2.207031 16.019531 4.261719 16.429688 C 6.121094 16.796875 7.5 16.921875 10.621094 17 C 16.417969 17.144531 20.8125 16.566406 22.25 15.460938 C 22.96875 14.910156 23.585938 14.039062 23.773438 13.320312 C 23.855469 12.988281 23.96875 12.71875 24.023438 12.71875 C 24.078125 12.71875 24.117188 12.355469 24.109375 11.910156 C 24.105469 11.464844 24.070312 11.175781 24.035156 11.269531 C 23.996094 11.367188 23.875 11.148438 23.761719 10.773438 C 23.644531 10.40625 23.4375 9.941406 23.296875 9.742188 L 23.039062 9.378906 L 22.347656 9.730469 C 20.25 10.804688 14.667969 11.445312 9.753906 11.179688 C 5.90625 10.96875 3.148438 10.480469 1.648438 9.742188 C 1.019531 9.429688 0.945312 9.417969 0.785156 9.59375 M 0.0390625 12.058594 C 0.0390625 12.523438 0.0625 12.695312 0.0859375 12.449219 C 0.113281 12.199219 0.113281 11.820312 0.0859375 11.605469 C 0.0585938 11.394531 0.0390625 11.597656 0.0390625 12.058594 "/>
</g>
</svg>
