<?xml version="1.0" encoding="UTF-8"?>
<svg xmlns="http://www.w3.org/2000/svg" xmlns:xlink="http://www.w3.org/1999/xlink" width="24px" height="24px" viewBox="0 0 24 24" version="1.1">
<g id="surface1">
<path style=" stroke:none;fill-rule:evenodd;fill:rgb(0%,0%,0%);fill-opacity:1;" d="M 11.574219 3.226562 C 10.074219 3.90625 10.339844 6.0625 11.96875 6.414062 C 12.515625 6.53125 13.121094 6.300781 13.554688 5.808594 C 13.867188 5.453125 13.921875 5.296875 13.921875 4.738281 C 13.921875 4.183594 13.867188 4.027344 13.550781 3.667969 C 13.230469 3.304688 12.597656 2.996094 12.179688 3.003906 C 12.113281 3.003906 11.839844 3.105469 11.574219 3.226562 M 11.765625 3.398438 C 11.265625 3.570312 10.800781 4.210938 10.800781 4.726562 C 10.800781 5.25 11.210938 5.863281 11.699219 6.066406 C 12.226562 6.289062 12.410156 6.285156 12.917969 6.042969 C 14.015625 5.523438 13.921875 3.886719 12.765625 3.40625 C 12.300781 3.210938 12.300781 3.210938 11.765625 3.398438 M 11.761719 7.277344 C 11.261719 7.699219 10.800781 8.636719 10.800781 9.234375 C 10.800781 9.503906 10.765625 9.71875 10.726562 9.71875 C 10.683594 9.71875 10.171875 9.503906 9.585938 9.238281 C 9 8.976562 8.390625 8.761719 8.230469 8.761719 C 7.953125 8.761719 7.199219 9.28125 7.199219 9.472656 C 7.199219 9.582031 10 10.882812 10.46875 10.992188 L 10.800781 11.066406 L 10.800781 14.519531 L 11.398438 14.519531 L 11.398438 24 L 13.078125 24 L 13.078125 19.800781 C 13.078125 16.148438 13.101562 15.601562 13.261719 15.601562 C 13.394531 15.601562 13.441406 15.460938 13.441406 15.058594 C 13.441406 14.660156 13.488281 14.519531 13.621094 14.519531 C 13.777344 14.519531 13.800781 14.058594 13.800781 11.089844 L 13.800781 7.660156 L 13.449219 7.3125 C 12.976562 6.839844 12.300781 6.824219 11.761719 7.277344 M 7.738281 9.191406 C 7.503906 9.371094 7.503906 9.375 7.734375 9.546875 C 8.074219 9.800781 8.269531 9.761719 8.402344 9.414062 C 8.46875 9.242188 8.519531 9.082031 8.519531 9.050781 C 8.519531 8.925781 7.957031 9.023438 7.738281 9.191406 M 6.800781 9.800781 C 6.636719 9.960938 6.726562 10.09375 6.949219 10.023438 C 7.113281 9.972656 7.203125 10.019531 7.257812 10.195312 C 7.320312 10.390625 7.378906 10.414062 7.558594 10.320312 C 7.738281 10.222656 7.800781 10.25 7.863281 10.445312 C 7.914062 10.617188 8.007812 10.667969 8.160156 10.621094 C 8.300781 10.574219 8.425781 10.625 8.496094 10.75 C 8.5625 10.871094 8.636719 10.902344 8.683594 10.828125 C 8.820312 10.609375 8.625 10.320312 8.339844 10.320312 C 8.1875 10.320312 8.03125 10.234375 7.992188 10.132812 C 7.945312 10.011719 7.839844 9.96875 7.695312 10.015625 C 7.550781 10.0625 7.441406 10.019531 7.398438 9.902344 C 7.328125 9.71875 6.949219 9.652344 6.800781 9.800781 M 12.496094 14.789062 C 12.644531 15.066406 12.949219 15.347656 13.109375 15.355469 C 13.160156 15.359375 13.199219 15.171875 13.199219 14.941406 C 13.199219 14.539062 13.179688 14.519531 12.777344 14.519531 C 12.375 14.519531 12.359375 14.535156 12.496094 14.789062 "/>
</g>
</svg>
