<?xml version="1.0" encoding="UTF-8"?>
<svg xmlns="http://www.w3.org/2000/svg" xmlns:xlink="http://www.w3.org/1999/xlink" width="100px" height="100px" viewBox="0 0 100 100" version="1.1">
<g id="surface1">
<path style=" stroke:none;fill-rule:evenodd;fill:rgb(0%,0%,0%);fill-opacity:1;" d="M 48.230469 13.441406 C 41.972656 16.28125 43.085938 25.257812 49.875 26.726562 C 52.140625 27.21875 54.679688 26.25 56.476562 24.203125 C 57.773438 22.722656 58 22.0625 58 19.75 C 58 17.429688 57.777344 16.78125 56.460938 15.28125 C 55.128906 13.765625 52.484375 12.484375 50.75 12.515625 C 50.476562 12.519531 49.339844 12.933594 48.230469 13.441406 M 49.015625 14.152344 C 46.933594 14.871094 45 17.539062 45.003906 19.699219 C 45.003906 21.882812 46.714844 24.433594 48.746094 25.28125 C 50.945312 26.199219 51.707031 26.183594 53.820312 25.183594 C 58.394531 23.011719 58 16.203125 53.183594 14.191406 C 51.246094 13.382812 51.257812 13.382812 49.015625 14.152344 M 49.015625 30.316406 C 46.917969 32.078125 45 35.984375 45 38.484375 C 45 39.59375 44.859375 40.5 44.691406 40.5 C 44.519531 40.5 42.382812 39.601562 39.941406 38.5 C 37.496094 37.398438 34.953125 36.5 34.289062 36.5 C 33.132812 36.5 30 38.667969 30 39.472656 C 30 39.929688 41.675781 45.347656 43.625 45.792969 L 45 46.109375 L 45 60.5 L 47.5 60.5 L 47.5 100 L 54.5 100 L 54.5 82.5 C 54.5 67.277344 54.597656 65 55.25 65 C 55.804688 65 56 64.417969 56 62.75 C 56 61.082031 56.195312 60.5 56.75 60.5 C 57.398438 60.5 57.5 58.578125 57.5 46.210938 L 57.5 31.921875 L 56.039062 30.460938 C 54.074219 28.496094 51.246094 28.4375 49.015625 30.316406 M 32.25 38.296875 C 31.261719 39.054688 31.261719 39.070312 32.21875 39.78125 C 33.640625 40.832031 34.460938 40.664062 35.011719 39.21875 C 35.28125 38.511719 35.5 37.835938 35.5 37.71875 C 35.5 37.1875 33.15625 37.605469 32.25 38.296875 M 28.332031 40.832031 C 27.65625 41.507812 28.027344 42.058594 28.960938 41.761719 C 29.644531 41.546875 30.011719 41.75 30.242188 42.476562 C 30.503906 43.296875 30.753906 43.398438 31.5 43 C 32.246094 42.601562 32.496094 42.703125 32.757812 43.523438 C 32.984375 44.234375 33.359375 44.453125 34.003906 44.25 C 34.578125 44.066406 35.101562 44.269531 35.394531 44.792969 C 35.679688 45.304688 35.984375 45.425781 36.183594 45.109375 C 36.746094 44.199219 35.933594 43 34.75 43 C 34.121094 43 33.472656 42.648438 33.304688 42.214844 C 33.113281 41.714844 32.664062 41.539062 32.0625 41.730469 C 31.464844 41.917969 31.011719 41.75 30.824219 41.265625 C 30.527344 40.492188 28.949219 40.21875 28.332031 40.832031 M 52.0625 61.625 C 52.679688 62.777344 53.957031 63.957031 54.625 63.984375 C 54.832031 63.992188 55 63.210938 55 62.25 C 55 60.578125 54.917969 60.5 53.234375 60.5 C 51.554688 60.5 51.496094 60.558594 52.0625 61.625 "/>
</g>
</svg>
