<?xml version="1.0" encoding="UTF-8"?>
<svg xmlns="http://www.w3.org/2000/svg" xmlns:xlink="http://www.w3.org/1999/xlink" width="24px" height="24px" viewBox="0 0 24 24" version="1.1">
<g id="surface1">
<path style=" stroke:none;fill-rule:evenodd;fill:rgb(0%,0%,0%);fill-opacity:1;" d="M 19.285156 6.851562 C 19.164062 6.921875 19.015625 7.117188 18.949219 7.285156 C 18.839844 7.578125 18.824219 7.582031 18.605469 7.386719 C 18.359375 7.164062 17.867188 7.171875 17.792969 7.402344 C 17.765625 7.480469 17.9375 7.757812 18.171875 8.015625 C 18.667969 8.566406 18.726562 9.03125 18.347656 9.433594 C 18.207031 9.582031 18.128906 9.761719 18.175781 9.832031 C 18.320312 10.066406 18.582031 9.964844 18.800781 9.59375 C 19.132812 9.03125 19.46875 9.019531 20.222656 9.535156 C 21.101562 10.140625 21.519531 10.003906 21.1875 9.214844 C 21.121094 9.066406 21.289062 8.824219 21.835938 8.28125 C 22.476562 7.648438 22.570312 7.503906 22.539062 7.167969 C 22.507812 6.863281 22.4375 6.769531 22.214844 6.738281 C 21.996094 6.707031 21.78125 6.855469 21.304688 7.371094 C 20.960938 7.738281 20.644531 8.039062 20.597656 8.039062 C 20.550781 8.039062 20.410156 7.800781 20.285156 7.507812 C 20.160156 7.214844 19.949219 6.917969 19.816406 6.847656 C 19.53125 6.695312 19.554688 6.695312 19.285156 6.851562 M 12.464844 8.460938 C 10.542969 9.09375 7.261719 10.976562 3.960938 13.34375 C 1.417969 15.164062 0.0898438 16.21875 0.203125 16.320312 C 0.335938 16.441406 3.246094 16.878906 5.460938 17.113281 C 8.011719 17.382812 12.902344 17.289062 14.496094 16.941406 C 15.710938 16.675781 16.886719 16.179688 17.464844 15.6875 C 17.667969 15.519531 17.992188 15.09375 18.183594 14.738281 C 18.515625 14.144531 18.539062 14.011719 18.539062 12.839844 C 18.539062 11.679688 18.511719 11.519531 18.167969 10.800781 C 17.132812 8.628906 14.824219 7.679688 12.464844 8.460938 M 22.648438 9.96875 C 22.535156 10.035156 22.359375 10.25 22.257812 10.445312 C 22.03125 10.882812 21.601562 10.910156 20.578125 10.558594 C 19.875 10.316406 19.25 10.261719 18.746094 10.398438 C 18.300781 10.515625 18.511719 10.722656 19.085938 10.738281 C 19.667969 10.753906 20.671875 11.210938 21.050781 11.628906 C 21.179688 11.769531 21.34375 12.222656 21.417969 12.632812 C 21.539062 13.3125 21.582031 13.382812 21.871094 13.417969 C 22.390625 13.480469 22.679688 13.25 22.679688 12.777344 C 22.679688 12.367188 22.6875 12.359375 23.191406 12.359375 C 23.46875 12.355469 23.777344 12.308594 23.875 12.246094 C 24.128906 12.085938 23.863281 11.582031 23.402344 11.339844 C 23.054688 11.160156 23.035156 11.113281 23.066406 10.539062 C 23.101562 9.898438 23.003906 9.765625 22.648438 9.96875 "/>
</g>
</svg>
