<?xml version="1.0" encoding="UTF-8"?>
<svg xmlns="http://www.w3.org/2000/svg" xmlns:xlink="http://www.w3.org/1999/xlink" width="100px" height="100px" viewBox="0 0 100 100" version="1.1">
<g id="surface1">
<path style=" stroke:none;fill-rule:evenodd;fill:rgb(0%,0%,0%);fill-opacity:1;" d="M 80.347656 28.554688 C 79.851562 28.84375 79.226562 29.65625 78.960938 30.355469 C 78.496094 31.570312 78.429688 31.59375 77.527344 30.777344 C 76.503906 29.847656 74.449219 29.886719 74.132812 30.839844 C 74.027344 31.164062 74.742188 32.316406 75.71875 33.402344 C 77.789062 35.691406 78.027344 37.625 76.449219 39.304688 C 75.867188 39.921875 75.542969 40.667969 75.726562 40.964844 C 76.328125 41.9375 77.429688 41.523438 78.339844 39.980469 C 79.726562 37.632812 81.121094 37.574219 84.253906 39.730469 C 87.921875 42.253906 89.667969 41.675781 88.273438 38.398438 C 88.007812 37.769531 88.710938 36.761719 90.988281 34.511719 C 93.660156 31.875 94.039062 31.265625 93.90625 29.863281 C 93.785156 28.601562 93.492188 28.214844 92.558594 28.082031 C 91.648438 27.953125 90.757812 28.570312 88.769531 30.707031 C 87.339844 32.242188 86.011719 33.5 85.816406 33.5 C 85.621094 33.5 85.035156 32.503906 84.515625 31.285156 C 83.992188 30.066406 83.117188 28.828125 82.566406 28.535156 C 81.375 27.898438 81.476562 27.898438 80.347656 28.554688 M 51.929688 35.246094 C 43.929688 37.886719 30.257812 45.742188 16.5 55.601562 C 5.914062 63.191406 0.371094 67.578125 0.839844 68 C 1.394531 68.503906 13.53125 70.332031 22.75 71.304688 C 33.375 72.425781 53.765625 72.035156 60.40625 70.582031 C 65.453125 69.480469 70.359375 67.410156 72.773438 65.371094 C 73.609375 64.664062 74.960938 62.882812 75.773438 61.417969 C 77.144531 58.9375 77.25 58.378906 77.25 53.5 C 77.25 48.664062 77.128906 47.992188 75.703125 45 C 71.394531 35.949219 61.769531 32.003906 51.929688 35.246094 M 94.375 41.539062 C 93.894531 41.820312 93.15625 42.714844 92.738281 43.523438 C 91.796875 45.34375 90.011719 45.464844 85.75 44 C 82.816406 42.988281 80.203125 42.757812 78.105469 43.320312 C 76.257812 43.816406 77.125 44.683594 79.53125 44.75 C 81.949219 44.816406 86.136719 46.710938 87.710938 48.457031 C 88.242188 49.042969 88.925781 50.921875 89.234375 52.636719 C 89.742188 55.464844 89.917969 55.765625 91.121094 55.90625 C 93.296875 56.160156 94.5 55.207031 94.5 53.234375 C 94.5 51.527344 94.535156 51.5 96.625 51.492188 C 97.792969 51.488281 99.074219 51.277344 99.472656 51.027344 C 100.53125 50.359375 99.433594 48.25 97.507812 47.253906 C 96.066406 46.507812 95.980469 46.308594 96.113281 43.910156 C 96.257812 41.246094 95.84375 40.6875 94.375 41.539062 "/>
</g>
</svg>
