<?xml version="1.0" encoding="UTF-8"?>
<svg xmlns="http://www.w3.org/2000/svg" xmlns:xlink="http://www.w3.org/1999/xlink" width="100px" height="100px" viewBox="0 0 100 100" version="1.1">
<g id="surface1">
<path style=" stroke:none;fill-rule:evenodd;fill:rgb(0%,0%,0%);fill-opacity:1;" d="M 54.96875 11.296875 C 54.023438 12.558594 52.226562 14.34375 50.980469 15.261719 C 44.074219 20.339844 38.519531 28.816406 35.105469 39.5 C 33.1875 45.492188 31.605469 54.804688 32.371094 55.570312 C 33.308594 56.507812 33.871094 55.609375 34.21875 52.632812 C 35.503906 41.671875 40.171875 29.777344 45.960938 22.71875 C 47.847656 20.414062 53.023438 15.855469 53.363281 16.195312 C 53.445312 16.277344 52.964844 17.808594 52.289062 19.59375 C 48.640625 29.289062 48.535156 43.996094 52.023438 56.488281 C 53.214844 60.761719 53.824219 61.765625 54.757812 60.992188 C 55.253906 60.582031 55.136719 59.675781 54.214844 56.679688 C 52.085938 49.789062 51.355469 43.726562 51.632812 35.347656 C 51.824219 29.609375 52.152344 26.832031 52.976562 24 C 54.785156 17.769531 56.371094 14.71875 58.554688 13.273438 C 60.8125 11.78125 60.984375 10.933594 59.265625 9.808594 C 57.414062 8.59375 56.84375 8.789062 54.96875 11.296875 M 59.019531 16.089844 C 56.417969 17.855469 55.671875 20.277344 56.40625 24.566406 C 56.734375 26.457031 57.46875 29.011719 58.046875 30.238281 C 61.832031 38.289062 72.386719 43.015625 81.984375 40.957031 L 84.515625 40.414062 L 83.273438 38.933594 C 81.957031 37.375 81.289062 35.363281 80.714844 31.25 C 79.332031 21.335938 65.511719 11.675781 59.019531 16.089844 M 20.699219 56.683594 C 15.453125 59.074219 14.457031 68.5625 18.601562 76.695312 C 19.148438 77.765625 20.609375 79.726562 21.851562 81.054688 C 24.8125 84.222656 28.144531 85.503906 33.394531 85.492188 C 38.792969 85.480469 38.988281 85.28125 37.28125 81.476562 C 34.535156 75.359375 34.480469 68.96875 37.136719 64.296875 C 38.933594 61.144531 40.453125 60.324219 45.0625 60.015625 L 49.097656 59.75 L 48.039062 58.410156 C 45.894531 55.691406 41.113281 55.320312 35.910156 57.476562 L 33.160156 58.617188 L 30.703125 57.507812 C 27.617188 56.117188 22.816406 55.71875 20.699219 56.683594 M 42.144531 62.027344 C 37.015625 63.601562 35.363281 73.140625 38.910156 80.710938 C 41.210938 85.632812 43.070312 87.726562 46.75 89.535156 C 49.398438 90.839844 50.558594 91.113281 53.59375 91.152344 C 62.484375 91.253906 68.285156 86.28125 70.820312 76.378906 C 71.773438 72.660156 71.441406 68.738281 69.910156 65.5625 C 67.90625 61.421875 62.933594 60.480469 56.703125 63.0625 L 54.070312 64.152344 L 51.46875 63.035156 C 48.46875 61.746094 44.46875 61.3125 42.144531 62.027344 "/>
</g>
</svg>
