<?xml version="1.0" encoding="UTF-8"?>
<svg xmlns="http://www.w3.org/2000/svg" xmlns:xlink="http://www.w3.org/1999/xlink" width="100px" height="100px" viewBox="0 0 100 100" version="1.1">
<g id="surface1">
<path style=" stroke:none;fill-rule:evenodd;fill:rgb(0%,0%,0%);fill-opacity:1;" d="M 48 3.851562 C 46.332031 4.457031 43.9375 7.355469 42.945312 9.972656 C 42.347656 11.558594 41.78125 14.523438 41.628906 16.875 L 41.359375 21 L 39.40625 21 C 37.121094 21 35 22.75 35 24.636719 C 35 25.289062 35.617188 26.972656 36.375 28.386719 C 40.746094 36.535156 42.039062 39.128906 41.839844 39.328125 C 41.53125 39.636719 39.78125 36.738281 38.578125 33.929688 C 36.609375 29.339844 33.621094 28.195312 30.980469 31.023438 L 29.558594 32.542969 L 26.65625 31.699219 C 25.058594 31.238281 22.535156 30.855469 21.046875 30.855469 C 17.855469 30.855469 17 31.65625 17 34.644531 C 17 37.363281 18.171875 39.554688 21.074219 42.273438 C 23.40625 44.449219 23.53125 44.691406 23.050781 46.070312 C 22.433594 47.839844 23.03125 49.714844 24.457031 50.476562 C 25.007812 50.773438 26.539062 51.15625 27.855469 51.328125 C 29.171875 51.5 31.085938 52.0625 32.109375 52.574219 C 34.035156 53.539062 37.535156 57.707031 38.457031 60.140625 C 38.929688 61.382812 38.894531 61.476562 38.117188 61.050781 C 37.640625 60.785156 35.789062 59.074219 34 57.25 C 30.976562 54.15625 28.730469 52.5 27.5625 52.5 C 27.296875 52.5 26.398438 53.070312 25.570312 53.765625 L 24.066406 55.03125 L 21.15625 54.066406 C 14.574219 51.882812 11.785156 52.210938 11.21875 55.230469 C 10.757812 57.691406 12.847656 61.84375 15.902344 64.53125 C 17.511719 65.949219 18.199219 66.914062 18.085938 67.601562 C 17.570312 70.71875 19.472656 72.101562 25.539062 73.035156 C 30.625 73.816406 34.195312 75.601562 37.511719 79.027344 C 41.101562 82.734375 42.8125 85.957031 44.203125 91.636719 L 45.335938 96.25 L 49.917969 96.394531 C 55.128906 96.558594 54.601562 96.984375 56.246094 91.25 C 57.585938 86.570312 60.382812 81.714844 63.707031 78.292969 C 67.136719 74.761719 69.023438 73.871094 75.4375 72.777344 C 80.492188 71.910156 82.191406 70.6875 81.890625 68.121094 C 81.722656 66.6875 81.988281 66.242188 84.0625 64.496094 C 87.128906 61.910156 89.25 57.742188 88.78125 55.230469 C 88.210938 52.199219 85.425781 51.882812 78.773438 54.089844 C 76.230469 54.933594 75.71875 54.976562 75.273438 54.371094 C 74.410156 53.199219 72.527344 52.421875 71.414062 52.777344 C 70.839844 52.960938 68.351562 54.996094 65.882812 57.304688 C 63.417969 59.613281 61.191406 61.5 60.9375 61.5 C 60.269531 61.5 61.632812 59.054688 63.894531 56.191406 C 66.105469 53.398438 69.132812 51.671875 72.589844 51.242188 C 76.617188 50.738281 78.492188 48.289062 76.996094 45.492188 C 76.574219 44.703125 76.910156 44.160156 79.070312 42.148438 C 83.21875 38.289062 84.621094 33.46875 82.179688 31.441406 C 81.105469 30.550781 76.886719 30.671875 73.355469 31.699219 L 70.46875 32.539062 L 69.1875 31.019531 C 66.695312 28.054688 63.683594 29.234375 61.570312 34 C 60.527344 36.351562 58.042969 40.488281 58.015625 39.921875 C 57.984375 39.230469 61.058594 33.105469 62.984375 30.035156 C 66.277344 24.78125 65.539062 21.65625 60.855469 21.03125 L 58.75 20.75 L 58.429688 16.5 C 57.945312 10.09375 56.050781 5.828125 52.984375 4.242188 C 51.554688 3.503906 49.421875 3.335938 48 3.851562 M 48.445312 7.25 C 46.269531 8.429688 44.921875 12.390625 44.617188 18.480469 C 44.476562 21.378906 44.121094 23.902344 43.832031 24.089844 C 43.542969 24.277344 42.226562 24.300781 40.914062 24.148438 C 37.792969 23.777344 37.414062 24.640625 39.285156 27.863281 C 44.84375 37.433594 46.894531 43.320312 45.246094 44.964844 C 44.574219 45.640625 44.296875 45.617188 42.660156 44.738281 C 40.535156 43.59375 38.183594 40.546875 36.039062 36.164062 C 35.207031 34.464844 34.289062 32.929688 34.003906 32.75 C 33.710938 32.570312 33.15625 33.203125 32.746094 34.179688 C 32.34375 35.144531 31.824219 36.050781 31.589844 36.195312 C 31.351562 36.339844 29.605469 35.910156 27.707031 35.242188 C 25.804688 34.570312 23.292969 34.015625 22.125 34.011719 C 20.285156 34 20 34.144531 20 35.066406 C 20 36.796875 21.824219 39.246094 24.757812 41.460938 C 26.265625 42.601562 27.5 43.730469 27.5 43.976562 C 27.5 44.21875 27.109375 45.097656 26.632812 45.925781 C 26.160156 46.757812 25.914062 47.578125 26.089844 47.753906 C 26.261719 47.929688 27.609375 48.242188 29.078125 48.445312 C 32.574219 48.933594 34.285156 49.882812 37.097656 52.890625 C 39.757812 55.734375 41.832031 59.53125 42.289062 62.390625 C 42.644531 64.601562 41.898438 66.5 40.679688 66.5 C 39.636719 66.5 36.609375 64.113281 31.910156 59.589844 C 28.375 56.1875 27 55.523438 27 57.21875 C 27 57.582031 26.664062 58.15625 26.257812 58.496094 C 25.65625 58.992188 24.875 58.855469 22.164062 57.773438 C 18.910156 56.46875 14 55.519531 14 56.195312 C 14 56.382812 14.304688 57.257812 14.675781 58.148438 C 15.3125 59.671875 20.609375 65 21.488281 65 C 22.371094 65 22.484375 66.691406 21.65625 67.601562 C 20.910156 68.429688 20.890625 68.625 21.519531 69.023438 C 21.921875 69.277344 22.476562 69.496094 22.75 69.511719 C 25.765625 69.660156 31.480469 71.199219 33.976562 72.527344 C 40.164062 75.824219 45.847656 83.59375 47.171875 90.566406 C 47.476562 92.179688 47.902344 93.5 48.113281 93.5 C 48.328125 93.5 48.5 91.632812 48.5 89.347656 C 48.5 85.644531 48.347656 84.957031 47.082031 82.972656 C 43.78125 77.800781 37.226562 71.476562 31.097656 67.554688 C 29.082031 66.269531 28.484375 65.609375 28.597656 64.804688 C 28.6875 64.191406 29.175781 63.6875 29.765625 63.605469 C 31.375 63.375 37.742188 68.140625 43.375 73.785156 L 48.5 78.921875 L 48.488281 71.335938 C 48.476562 63.011719 48.199219 61.898438 44.949219 57.175781 C 42.9375 54.253906 36.730469 48.023438 32.597656 44.785156 C 30.296875 42.976562 29.492188 42.039062 29.601562 41.289062 C 29.972656 38.699219 32.546875 40.179688 39.941406 47.230469 C 41.972656 49.164062 44.726562 52.050781 46.058594 53.644531 L 48.488281 56.539062 L 48.621094 34.894531 L 48.75 13.25 L 51.25 13.25 L 51.378906 34.394531 L 51.511719 55.539062 L 53.921875 52.644531 C 59.5625 45.867188 68.394531 39.277344 70.664062 40.148438 C 72.484375 40.847656 71.578125 42.402344 68.375 44.074219 C 64.761719 45.960938 56.230469 54.136719 53.328125 58.492188 L 51.5 61.238281 L 51.5 76.597656 L 55.210938 73.132812 C 59.644531 68.992188 65.222656 65.183594 70.917969 62.40625 C 74.683594 60.570312 75.160156 60.449219 75.863281 61.148438 C 77.074219 62.359375 76.347656 63.242188 72.761719 64.921875 C 66.152344 68.011719 58.300781 73.84375 53.320312 79.355469 L 51.5 81.371094 L 51.5 87.433594 C 51.5 90.769531 51.683594 93.5 51.90625 93.5 C 52.128906 93.5 52.59375 92.390625 52.945312 91.03125 C 54.367188 85.480469 59.144531 77.753906 63.238281 74.378906 C 65.820312 72.253906 69.867188 70.585938 73.816406 70.027344 C 79.066406 69.28125 79.179688 69.210938 78.121094 67.394531 C 77.261719 65.910156 77.265625 65.878906 78.5 65.078125 C 81.179688 63.339844 85.03125 59.199219 85.492188 57.558594 L 85.96875 55.863281 L 83.574219 56.148438 C 82.257812 56.304688 79.679688 57.035156 77.839844 57.769531 C 74.28125 59.195312 73 59.136719 73 57.546875 C 73 55.5625 71.84375 55.933594 68.824219 58.882812 C 65.429688 62.199219 59.746094 66.5 58.757812 66.5 C 57.664062 66.5 56.835938 65.023438 56.90625 63.199219 C 57.054688 59.183594 62.882812 51.414062 67.21875 49.445312 C 68.335938 48.9375 70.039062 48.511719 71 48.503906 C 71.960938 48.492188 73.085938 48.273438 73.496094 48.011719 C 74.148438 47.601562 74.132812 47.359375 73.371094 46.070312 C 72.890625 45.257812 72.5 44.355469 72.5 44.0625 C 72.5 43.773438 73.734375 42.601562 75.242188 41.460938 C 78.175781 39.246094 80 36.796875 80 35.066406 C 80 33.59375 77.660156 33.644531 72.679688 35.226562 C 70.558594 35.898438 68.613281 36.320312 68.359375 36.164062 C 68.105469 36.007812 67.574219 35.097656 67.175781 34.148438 C 66.257812 31.957031 65.613281 32.410156 63.59375 36.660156 C 61.582031 40.898438 59.515625 43.566406 57.339844 44.738281 C 55.660156 45.640625 55.441406 45.65625 54.707031 44.921875 C 53.113281 43.324219 55.347656 36.539062 59.902344 29.144531 C 62.667969 24.648438 62.515625 23.742188 59.058594 24.148438 C 57.546875 24.328125 56.421875 24.222656 56.070312 23.867188 C 55.746094 23.546875 55.496094 21.660156 55.488281 19.523438 C 55.46875 13.144531 53.949219 8.515625 51.457031 7.226562 C 49.796875 6.367188 50.066406 6.367188 48.445312 7.25 "/>
</g>
</svg>
