<?xml version="1.0" encoding="UTF-8"?>
<svg xmlns="http://www.w3.org/2000/svg" xmlns:xlink="http://www.w3.org/1999/xlink" width="24px" height="24px" viewBox="0 0 24 24" version="1.1">
<g id="surface1">
<path style=" stroke:none;fill-rule:evenodd;fill:rgb(0%,0%,0%);fill-opacity:1;" d="M 11.519531 0.925781 C 11.121094 1.070312 10.546875 1.765625 10.308594 2.394531 C 10.164062 2.773438 10.027344 3.484375 9.992188 4.050781 L 9.925781 5.039062 L 9.457031 5.039062 C 8.910156 5.039062 8.398438 5.460938 8.398438 5.914062 C 8.398438 6.070312 8.546875 6.472656 8.730469 6.8125 C 9.777344 8.769531 10.089844 9.390625 10.042969 9.4375 C 9.96875 9.511719 9.546875 8.816406 9.257812 8.144531 C 8.785156 7.042969 8.070312 6.765625 7.433594 7.445312 L 7.09375 7.8125 L 6.398438 7.609375 C 6.015625 7.496094 5.410156 7.40625 5.050781 7.40625 C 4.285156 7.40625 4.078125 7.597656 4.078125 8.316406 C 4.078125 8.96875 4.359375 9.492188 5.058594 10.144531 C 5.617188 10.667969 5.648438 10.726562 5.53125 11.054688 C 5.382812 11.480469 5.527344 11.929688 5.871094 12.113281 C 6 12.183594 6.367188 12.277344 6.683594 12.320312 C 7 12.359375 7.460938 12.496094 7.707031 12.617188 C 8.167969 12.847656 9.007812 13.847656 9.230469 14.433594 C 9.34375 14.730469 9.335938 14.753906 9.148438 14.652344 C 9.035156 14.589844 8.589844 14.179688 8.160156 13.738281 C 7.433594 12.996094 6.894531 12.601562 6.613281 12.601562 C 6.550781 12.601562 6.335938 12.738281 6.136719 12.902344 L 5.777344 13.207031 L 5.078125 12.976562 C 3.5 12.453125 2.828125 12.53125 2.691406 13.253906 C 2.582031 13.847656 3.082031 14.84375 3.816406 15.488281 C 4.203125 15.828125 4.367188 16.058594 4.339844 16.226562 C 4.21875 16.972656 4.671875 17.304688 6.128906 17.527344 C 7.351562 17.714844 8.207031 18.144531 9.003906 18.96875 C 9.863281 19.855469 10.273438 20.628906 10.609375 21.992188 L 10.878906 23.101562 L 11.980469 23.132812 C 13.230469 23.171875 13.105469 23.277344 13.5 21.898438 C 13.820312 20.777344 14.492188 19.613281 15.289062 18.789062 C 16.113281 17.941406 16.566406 17.730469 18.105469 17.464844 C 19.316406 17.257812 19.726562 16.964844 19.652344 16.347656 C 19.613281 16.003906 19.675781 15.898438 20.175781 15.480469 C 20.910156 14.859375 21.421875 13.859375 21.308594 13.253906 C 21.171875 12.527344 20.503906 12.453125 18.90625 12.980469 C 18.296875 13.183594 18.171875 13.195312 18.066406 13.050781 C 17.859375 12.769531 17.40625 12.582031 17.140625 12.667969 C 17 12.710938 16.402344 13.199219 15.8125 13.753906 C 15.21875 14.308594 14.6875 14.761719 14.625 14.761719 C 14.464844 14.761719 14.792969 14.171875 15.335938 13.484375 C 15.863281 12.816406 16.59375 12.402344 17.421875 12.296875 C 18.386719 12.175781 18.839844 11.589844 18.480469 10.917969 C 18.378906 10.726562 18.457031 10.597656 18.976562 10.117188 C 19.972656 9.191406 20.308594 8.03125 19.722656 7.546875 C 19.464844 7.332031 18.453125 7.359375 17.605469 7.609375 L 16.910156 7.808594 L 16.605469 7.445312 C 16.007812 6.734375 15.285156 7.015625 14.777344 8.160156 C 14.527344 8.722656 13.929688 9.71875 13.921875 9.582031 C 13.914062 9.414062 14.65625 7.945312 15.117188 7.207031 C 15.90625 5.949219 15.730469 5.199219 14.605469 5.046875 L 14.101562 4.980469 L 14.023438 3.960938 C 13.90625 2.421875 13.453125 1.398438 12.714844 1.019531 C 12.371094 0.839844 11.863281 0.800781 11.519531 0.925781 M 11.625 1.738281 C 11.105469 2.023438 10.78125 2.972656 10.707031 4.433594 C 10.675781 5.128906 10.589844 5.738281 10.519531 5.78125 C 10.449219 5.828125 10.136719 5.832031 9.820312 5.796875 C 9.070312 5.707031 8.980469 5.914062 9.429688 6.6875 C 10.761719 8.984375 11.253906 10.398438 10.859375 10.792969 C 10.699219 10.953125 10.628906 10.949219 10.238281 10.738281 C 9.730469 10.460938 9.164062 9.730469 8.648438 8.679688 C 8.449219 8.269531 8.230469 7.902344 8.160156 7.859375 C 8.089844 7.816406 7.957031 7.96875 7.859375 8.203125 C 7.761719 8.433594 7.636719 8.652344 7.582031 8.6875 C 7.523438 8.722656 7.105469 8.617188 6.648438 8.457031 C 6.191406 8.296875 5.589844 8.164062 5.308594 8.164062 C 4.867188 8.160156 4.800781 8.195312 4.800781 8.414062 C 4.800781 8.832031 5.238281 9.417969 5.941406 9.949219 C 6.304688 10.222656 6.601562 10.496094 6.601562 10.554688 C 6.601562 10.613281 6.507812 10.824219 6.390625 11.023438 C 6.277344 11.222656 6.21875 11.417969 6.261719 11.460938 C 6.304688 11.503906 6.625 11.578125 6.980469 11.628906 C 7.816406 11.746094 8.230469 11.972656 8.902344 12.695312 C 9.542969 13.375 10.039062 14.289062 10.148438 14.972656 C 10.234375 15.503906 10.054688 15.960938 9.761719 15.960938 C 9.511719 15.960938 8.785156 15.386719 7.660156 14.300781 C 6.808594 13.484375 6.480469 13.324219 6.480469 13.734375 C 6.480469 13.820312 6.398438 13.957031 6.300781 14.039062 C 6.15625 14.160156 5.96875 14.125 5.320312 13.863281 C 4.539062 13.550781 3.359375 13.324219 3.359375 13.488281 C 3.359375 13.53125 3.433594 13.742188 3.523438 13.957031 C 3.675781 14.320312 4.945312 15.601562 5.15625 15.601562 C 5.371094 15.601562 5.394531 16.003906 5.199219 16.226562 C 5.019531 16.421875 5.015625 16.46875 5.164062 16.566406 C 5.261719 16.625 5.394531 16.679688 5.460938 16.683594 C 6.183594 16.71875 7.554688 17.085938 8.152344 17.40625 C 9.640625 18.199219 11.003906 20.0625 11.320312 21.734375 C 11.394531 22.125 11.496094 22.441406 11.546875 22.441406 C 11.597656 22.441406 11.640625 21.992188 11.640625 21.445312 C 11.640625 20.554688 11.601562 20.390625 11.300781 19.914062 C 10.507812 18.671875 8.933594 17.15625 7.464844 16.214844 C 6.980469 15.90625 6.835938 15.746094 6.863281 15.554688 C 6.886719 15.40625 7 15.285156 7.144531 15.265625 C 7.53125 15.210938 9.058594 16.351562 10.410156 17.707031 L 11.640625 18.941406 L 11.636719 17.121094 C 11.632812 15.125 11.566406 14.855469 10.789062 13.722656 C 10.304688 13.019531 8.816406 11.527344 7.824219 10.746094 C 7.269531 10.316406 7.078125 10.089844 7.105469 9.910156 C 7.195312 9.289062 7.8125 9.644531 9.585938 11.335938 C 10.074219 11.800781 10.734375 12.492188 11.054688 12.875 L 11.636719 13.570312 L 11.699219 3.179688 L 12.300781 3.179688 L 12.363281 13.328125 L 12.941406 12.632812 C 14.292969 11.007812 16.414062 9.425781 16.960938 9.636719 C 17.394531 9.804688 17.179688 10.175781 16.410156 10.578125 C 15.542969 11.03125 13.496094 12.992188 12.796875 14.039062 L 12.359375 14.695312 L 12.359375 18.382812 L 13.25 17.550781 C 14.3125 16.558594 15.652344 15.644531 17.019531 14.976562 C 17.925781 14.535156 18.039062 14.507812 18.207031 14.675781 C 18.496094 14.964844 18.324219 15.179688 17.464844 15.582031 C 15.875 16.324219 13.992188 17.722656 12.796875 19.046875 L 12.359375 19.527344 L 12.359375 20.984375 C 12.359375 21.785156 12.402344 22.441406 12.457031 22.441406 C 12.511719 22.441406 12.621094 22.171875 12.707031 21.847656 C 13.046875 20.515625 14.195312 18.660156 15.175781 17.851562 C 15.796875 17.339844 16.769531 16.941406 17.714844 16.804688 C 18.976562 16.628906 19.003906 16.609375 18.75 16.175781 C 18.542969 15.820312 18.542969 15.8125 18.839844 15.621094 C 19.484375 15.203125 20.40625 14.207031 20.519531 13.8125 L 20.632812 13.40625 L 20.058594 13.476562 C 19.742188 13.511719 19.121094 13.6875 18.683594 13.863281 C 17.828125 14.207031 17.519531 14.191406 17.519531 13.8125 C 17.519531 13.335938 17.242188 13.425781 16.519531 14.132812 C 15.703125 14.929688 14.339844 15.960938 14.101562 15.960938 C 13.839844 15.960938 13.640625 15.605469 13.65625 15.167969 C 13.695312 14.203125 15.09375 12.339844 16.132812 11.867188 C 16.402344 11.746094 16.808594 11.644531 17.039062 11.640625 C 17.269531 11.636719 17.539062 11.585938 17.640625 11.523438 C 17.796875 11.425781 17.792969 11.367188 17.609375 11.054688 C 17.492188 10.863281 17.398438 10.644531 17.398438 10.574219 C 17.398438 10.503906 17.695312 10.222656 18.058594 9.949219 C 18.761719 9.417969 19.199219 8.832031 19.199219 8.414062 C 19.199219 8.0625 18.636719 8.074219 17.441406 8.453125 C 16.933594 8.617188 16.46875 8.71875 16.40625 8.679688 C 16.34375 8.640625 16.21875 8.425781 16.121094 8.195312 C 15.902344 7.667969 15.746094 7.777344 15.261719 8.796875 C 14.78125 9.816406 14.285156 10.457031 13.761719 10.738281 C 13.359375 10.953125 13.304688 10.957031 13.128906 10.78125 C 12.746094 10.398438 13.28125 8.769531 14.375 6.996094 C 15.039062 5.914062 15.003906 5.699219 14.175781 5.796875 C 13.8125 5.839844 13.542969 5.8125 13.457031 5.726562 C 13.378906 5.652344 13.320312 5.199219 13.316406 4.6875 C 13.3125 3.15625 12.949219 2.042969 12.351562 1.734375 C 11.949219 1.527344 12.015625 1.527344 11.625 1.738281 "/>
</g>
</svg>
