<?xml version="1.0" encoding="UTF-8"?>
<svg xmlns="http://www.w3.org/2000/svg" xmlns:xlink="http://www.w3.org/1999/xlink" width="24px" height="24px" viewBox="0 0 24 24" version="1.1">
<g id="surface1">
<path style=" stroke:none;fill-rule:evenodd;fill:rgb(0%,0%,0%);fill-opacity:1;" d="M 13.191406 2.710938 C 12.964844 3.015625 12.535156 3.441406 12.234375 3.664062 C 10.578125 4.882812 9.246094 6.917969 8.425781 9.480469 C 7.964844 10.917969 7.585938 13.152344 7.769531 13.335938 C 7.992188 13.5625 8.128906 13.347656 8.214844 12.632812 C 8.519531 10 9.640625 7.144531 11.03125 5.453125 C 11.484375 4.898438 12.726562 3.804688 12.808594 3.886719 C 12.828125 3.90625 12.710938 4.273438 12.550781 4.703125 C 11.675781 7.027344 11.648438 10.558594 12.484375 13.558594 C 12.773438 14.582031 12.917969 14.824219 13.140625 14.636719 C 13.261719 14.539062 13.234375 14.324219 13.011719 13.605469 C 12.5 11.949219 12.324219 10.496094 12.390625 8.484375 C 12.4375 7.105469 12.515625 6.441406 12.714844 5.761719 C 13.148438 4.265625 13.527344 3.53125 14.054688 3.183594 C 14.59375 2.828125 14.636719 2.625 14.222656 2.355469 C 13.777344 2.0625 13.640625 2.109375 13.191406 2.710938 M 14.164062 3.859375 C 13.539062 4.285156 13.363281 4.867188 13.539062 5.894531 C 13.617188 6.351562 13.792969 6.960938 13.929688 7.257812 C 14.839844 9.1875 17.371094 10.324219 19.675781 9.828125 L 20.285156 9.699219 L 19.984375 9.34375 C 19.667969 8.96875 19.507812 8.488281 19.371094 7.5 C 19.039062 5.121094 15.722656 2.800781 14.164062 3.859375 M 4.96875 13.605469 C 3.707031 14.175781 3.46875 16.453125 4.464844 18.40625 C 4.59375 18.664062 4.945312 19.132812 5.242188 19.453125 C 5.953125 20.214844 6.753906 20.519531 8.015625 20.519531 C 9.3125 20.515625 9.355469 20.46875 8.945312 19.554688 C 8.289062 18.085938 8.277344 16.550781 8.914062 15.429688 C 9.34375 14.675781 9.707031 14.476562 10.816406 14.402344 L 11.785156 14.339844 L 11.53125 14.019531 C 11.015625 13.367188 9.867188 13.277344 8.617188 13.792969 L 7.957031 14.066406 L 7.371094 13.800781 C 6.628906 13.46875 5.476562 13.371094 4.96875 13.605469 M 10.113281 14.886719 C 8.882812 15.265625 8.488281 17.554688 9.339844 19.371094 C 9.890625 20.550781 10.335938 21.054688 11.21875 21.488281 C 11.855469 21.800781 12.132812 21.867188 12.863281 21.875 C 14.996094 21.902344 16.386719 20.707031 16.996094 18.332031 C 17.226562 17.4375 17.144531 16.496094 16.777344 15.734375 C 16.296875 14.742188 15.105469 14.515625 13.609375 15.136719 L 12.976562 15.398438 L 12.351562 15.128906 C 11.632812 14.820312 10.671875 14.714844 10.113281 14.886719 "/>
</g>
</svg>
