<?xml version="1.0" encoding="UTF-8"?>
<svg xmlns="http://www.w3.org/2000/svg" xmlns:xlink="http://www.w3.org/1999/xlink" width="24px" height="24px" viewBox="0 0 24 24" version="1.1">
<g id="surface1">
<path style=" stroke:none;fill-rule:evenodd;fill:rgb(0%,0%,0%);fill-opacity:1;" d="M 11.066406 0.238281 C 10.289062 0.714844 8.878906 3.328125 8.050781 5.832031 C 6.5 10.519531 6.496094 15.542969 8.046875 20.160156 C 8.851562 22.558594 9.558594 23.582031 10.625 23.882812 C 11.324219 24.078125 13.15625 23.972656 13.671875 23.703125 C 14.34375 23.355469 14.910156 22.148438 16.222656 18.238281 C 17.101562 15.628906 17.210938 14.863281 17.125 11.941406 C 17.003906 8.0625 16.542969 6.253906 15.039062 3.777344 C 14.324219 2.601562 12.792969 0.554688 12.386719 0.234375 C 12.003906 -0.0664062 11.566406 -0.0625 11.066406 0.238281 M 11.246094 0.929688 C 11.066406 1.121094 10.921875 1.339844 10.921875 1.421875 C 10.921875 1.5 11.082031 1.890625 11.28125 2.285156 C 11.582031 2.875 11.695312 3 11.949219 3 C 12.203125 3 12.304688 2.886719 12.558594 2.328125 L 12.867188 1.660156 L 12.507812 1.160156 C 12.054688 0.53125 11.695312 0.464844 11.246094 0.929688 M 10.082031 2.671875 C 9.410156 3.835938 9.207031 4.53125 9.285156 5.402344 C 9.375 6.390625 10.253906 9.894531 10.941406 11.992188 L 11.46875 13.605469 L 12.753906 10.3125 C 13.460938 8.5 14.039062 6.921875 14.039062 6.808594 C 14.039062 6.691406 13.660156 6.238281 13.195312 5.796875 C 12.316406 4.96875 11.207031 3.429688 10.855469 2.550781 C 10.746094 2.269531 10.605469 2.039062 10.550781 2.039062 C 10.492188 2.039062 10.28125 2.324219 10.082031 2.671875 M 13.230469 2.191406 C 13.164062 2.273438 13.070312 2.46875 13.019531 2.628906 C 12.972656 2.789062 12.769531 3.066406 12.570312 3.25 C 12.085938 3.695312 12.164062 3.933594 13.144531 5.011719 C 14.050781 6 14.324219 6.089844 14.582031 5.46875 C 14.730469 5.117188 14.730469 4.992188 14.589844 4.597656 C 14.394531 4.058594 13.445312 2.039062 13.390625 2.039062 C 13.367188 2.039062 13.296875 2.109375 13.230469 2.191406 M 14.355469 7.894531 C 13.902344 9.195312 13.15625 11.148438 12.703125 12.234375 C 12.246094 13.332031 11.878906 14.382812 11.878906 14.605469 C 11.878906 15.398438 13.613281 20 14.167969 20.675781 C 14.457031 21.027344 14.539062 20.925781 15.050781 19.601562 C 16.109375 16.859375 16.496094 14.453125 16.402344 11.21875 C 16.332031 8.878906 16.171875 7.765625 15.730469 6.59375 C 15.246094 5.300781 15.265625 5.277344 14.355469 7.894531 M 8.355469 7.054688 C 7.8125 8.777344 7.632812 10.078125 7.632812 12.359375 C 7.632812 13.796875 7.699219 14.878906 7.847656 15.78125 C 8.304688 18.628906 9.117188 21.449219 9.753906 22.398438 C 10.179688 23.042969 10.964844 23.519531 11.585938 23.519531 C 12.636719 23.519531 14.039062 22.589844 14.039062 21.886719 C 14.039062 21.683594 13.859375 21.269531 13.613281 20.898438 C 12.96875 19.945312 12.554688 18.945312 11.519531 15.839844 C 10.582031 13.027344 9.597656 9.601562 9.109375 7.441406 C 8.96875 6.8125 8.808594 6.253906 8.757812 6.195312 C 8.703125 6.136719 8.523438 6.523438 8.355469 7.054688 "/>
</g>
</svg>
