<?xml version="1.0" encoding="UTF-8"?>
<svg xmlns="http://www.w3.org/2000/svg" xmlns:xlink="http://www.w3.org/1999/xlink" width="100px" height="100px" viewBox="0 0 100 100" version="1.1">
<g id="surface1">
<path style=" stroke:none;fill-rule:evenodd;fill:rgb(0%,0%,0%);fill-opacity:1;" d="M 46.113281 1 C 42.875 2.976562 37 13.863281 33.542969 24.304688 C 27.082031 43.824219 27.074219 64.765625 33.523438 83.996094 C 36.878906 94 39.832031 98.261719 44.265625 99.503906 C 47.191406 100.324219 54.808594 99.882812 56.960938 98.769531 C 59.769531 97.320312 62.121094 92.28125 67.601562 76 C 71.261719 65.121094 71.71875 61.925781 71.347656 49.75 C 70.855469 33.597656 68.933594 26.066406 62.667969 15.742188 C 59.691406 10.835938 53.308594 2.316406 51.613281 0.980469 C 50.023438 -0.269531 48.1875 -0.261719 46.113281 1 M 46.863281 3.878906 C 46.113281 4.664062 45.5 5.578125 45.5 5.917969 C 45.5 6.253906 46.179688 7.871094 47.007812 9.515625 C 48.253906 11.984375 48.734375 12.5 49.785156 12.5 C 50.839844 12.5 51.269531 12.03125 52.335938 9.707031 L 53.613281 6.910156 L 52.113281 4.832031 C 50.21875 2.210938 48.722656 1.941406 46.863281 3.878906 M 42.007812 11.125 C 39.210938 15.988281 38.367188 18.886719 38.691406 22.503906 C 39.0625 26.632812 42.726562 41.222656 45.585938 49.96875 L 47.785156 56.691406 L 53.140625 42.96875 C 56.089844 35.417969 58.5 28.847656 58.5 28.363281 C 58.5 27.878906 56.914062 25.988281 54.976562 24.160156 C 51.3125 20.699219 46.695312 14.289062 45.238281 10.625 C 44.773438 9.457031 44.195312 8.5 43.957031 8.5 C 43.714844 8.5 42.839844 9.679688 42.007812 11.125 M 55.121094 9.125 C 54.847656 9.46875 54.457031 10.292969 54.25 10.957031 C 54.046875 11.621094 53.203125 12.785156 52.375 13.539062 C 50.351562 15.390625 50.679688 16.394531 54.769531 20.875 C 58.542969 25.003906 59.6875 25.371094 60.765625 22.789062 C 61.378906 21.316406 61.382812 20.804688 60.789062 19.164062 C 59.972656 16.910156 56.027344 8.5 55.785156 8.5 C 55.695312 8.5 55.398438 8.78125 55.121094 9.125 M 59.808594 32.890625 C 57.917969 38.3125 54.824219 46.449219 52.933594 50.972656 C 51.023438 55.546875 49.5 59.933594 49.5 60.859375 C 49.5 64.15625 56.722656 83.328125 59.027344 86.148438 C 60.230469 87.617188 60.582031 87.1875 62.710938 81.671875 C 67.121094 70.242188 68.734375 60.226562 68.339844 46.75 C 68.054688 36.988281 67.382812 32.363281 65.542969 27.46875 C 63.519531 22.082031 63.609375 21.992188 59.808594 32.890625 M 34.816406 29.390625 C 32.546875 36.566406 31.808594 41.988281 31.808594 51.5 C 31.808594 57.484375 32.085938 61.988281 32.691406 65.75 C 34.605469 77.621094 37.992188 89.378906 40.636719 93.335938 C 42.421875 96.003906 45.683594 98 48.265625 98 C 52.660156 98 58.5 94.117188 58.5 91.195312 C 58.5 90.351562 57.746094 88.621094 56.714844 87.085938 C 54.035156 83.105469 52.308594 78.929688 47.992188 66 C 44.085938 54.285156 39.996094 40.015625 37.960938 31 C 37.367188 28.386719 36.703125 26.054688 36.484375 25.816406 C 36.261719 25.578125 35.511719 27.183594 34.816406 29.390625 "/>
</g>
</svg>
