<?xml version="1.0" encoding="UTF-8"?>
<svg xmlns="http://www.w3.org/2000/svg" xmlns:xlink="http://www.w3.org/1999/xlink" width="100px" height="100px" viewBox="0 0 100 100" version="1.1">
<g id="surface1">
<path style=" stroke:none;fill-rule:evenodd;fill:rgb(0%,0%,0%);fill-opacity:1;" d="M 38.101562 2.601562 C 37.6875 3.011719 37.5 5.507812 37.5 10.582031 C 37.5 17.453125 37.570312 18.003906 38.5 18.5 C 39.210938 18.878906 39.789062 18.878906 40.5 18.5 C 41.382812 18.027344 41.5 17.453125 41.5 13.613281 L 41.5 9.261719 L 44.582031 12.34375 L 47.667969 15.425781 L 46.09375 17.21875 C 42.96875 20.777344 42.320312 23.558594 44.453125 24.234375 C 45.753906 24.648438 46.78125 24.125 47.421875 22.722656 C 47.726562 22.050781 48.886719 20.515625 50 19.308594 C 56.917969 11.800781 69.425781 13.921875 73.574219 23.304688 C 76.5 29.914062 74.253906 37.433594 68.195312 41.308594 C 65.152344 43.253906 64.824219 43.660156 65.242188 44.980469 C 65.925781 47.125 68.574219 46.570312 72.539062 43.457031 L 74.332031 42.050781 L 80.175781 47.957031 L 75.714844 48.105469 L 71.25 48.25 L 71.25 51.75 L 78.683594 51.886719 C 83.738281 51.984375 86.335938 51.84375 86.808594 51.453125 C 87.339844 51.011719 87.5 49.214844 87.5 43.75 C 87.5 36.078125 87.238281 35.253906 84.902344 35.585938 C 83.8125 35.742188 83.742188 35.988281 83.605469 40.125 C 83.527344 42.53125 83.292969 44.5 83.089844 44.5 C 82.886719 44.5 81.410156 43.175781 79.808594 41.5625 L 76.902344 38.621094 L 78.011719 35.574219 C 78.933594 33.046875 79.085938 31.785156 78.910156 28.140625 C 78.726562 24.339844 78.472656 23.324219 77.011719 20.589844 L 75.324219 17.433594 L 83.5 9.257812 L 83.5 13.609375 C 83.5 17.402344 83.625 18.03125 84.46875 18.484375 C 85.71875 19.152344 85.785156 19.144531 86.714844 18.214844 C 87.355469 17.574219 87.5 16.113281 87.5 10.316406 C 87.5 5.449219 87.308594 3.011719 86.898438 2.601562 C 86.0625 1.765625 72.4375 1.765625 71.601562 2.601562 C 70.679688 3.519531 70.886719 5.402344 71.96875 5.984375 C 72.5 6.265625 74.574219 6.5 76.582031 6.5 L 80.226562 6.5 L 76.320312 10.429688 L 72.410156 14.363281 L 68.976562 12.597656 C 64.320312 10.210938 59.109375 9.820312 54.175781 11.488281 L 50.867188 12.605469 L 47.8125 9.554688 L 44.761719 6.5 L 48.414062 6.5 C 50.421875 6.5 52.5 6.265625 53.03125 5.984375 C 54.113281 5.402344 54.320312 3.519531 53.398438 2.601562 C 52.5625 1.765625 38.9375 1.765625 38.101562 2.601562 M 42.5 41.75 C 28.945312 55.3125 26.023438 58 24.863281 58 C 24.09375 58 23.367188 57.71875 23.242188 57.375 C 23.117188 57.03125 22.214844 51.691406 21.242188 45.511719 C 19.640625 35.367188 19.34375 34.140625 18.179688 32.925781 C 16.636719 31.316406 14.847656 30.777344 13.46875 31.515625 C 12.476562 32.046875 12.464844 32.425781 12.605469 54.652344 L 12.75 77.25 L 14.167969 80.320312 C 15.28125 82.722656 16.855469 84.644531 21.449219 89.179688 C 28.910156 96.546875 31.164062 97.730469 37.75 97.738281 C 44.222656 97.746094 46.808594 96.398438 55.5 88.503906 C 67.746094 77.378906 68.5 76.578125 68.5 74.726562 C 68.5 73.535156 68.132812 72.78125 67.183594 72.035156 C 65.523438 70.730469 64.308594 70.726562 62.203125 72.027344 C 60.882812 72.84375 60.328125 72.945312 59.519531 72.511719 C 57.792969 71.585938 58.328125 70.011719 61.5 66.710938 C 64.886719 63.183594 65.261719 61.714844 63.273438 59.726562 C 61.203125 57.65625 59.507812 58.058594 55.828125 61.5 C 52.566406 64.554688 51.667969 64.964844 50.601562 63.898438 C 49.421875 62.722656 50.0625 61.667969 54.792969 56.988281 C 60.050781 51.789062 60.734375 50.683594 59.96875 48.664062 C 59.300781 46.914062 58.085938 46.035156 56.300781 46.015625 C 55.132812 46.003906 53.882812 46.953125 49.773438 51 C 44.492188 56.199219 43.035156 56.933594 41.972656 54.945312 C 41.457031 53.988281 42.382812 52.914062 52.425781 42.820312 C 58.488281 36.734375 63.675781 31.132812 63.960938 30.375 C 64.941406 27.753906 63.183594 25.5 60.15625 25.5 C 58.96875 25.5 56.152344 28.09375 42.5 41.75 "/>
</g>
</svg>
