<?xml version="1.0" encoding="UTF-8"?>
<svg xmlns="http://www.w3.org/2000/svg" xmlns:xlink="http://www.w3.org/1999/xlink" width="24px" height="24px" viewBox="0 0 24 24" version="1.1">
<g id="surface1">
<path style=" stroke:none;fill-rule:evenodd;fill:rgb(0%,0%,0%);fill-opacity:1;" d="M 9.144531 0.625 C 9.046875 0.722656 9 1.320312 9 2.539062 C 9 4.1875 9.015625 4.320312 9.238281 4.441406 C 9.410156 4.53125 9.550781 4.53125 9.71875 4.441406 C 9.933594 4.328125 9.960938 4.1875 9.960938 3.265625 L 9.960938 2.222656 L 11.441406 3.703125 L 11.0625 4.132812 C 10.3125 4.988281 10.15625 5.652344 10.667969 5.816406 C 10.980469 5.914062 11.226562 5.789062 11.382812 5.453125 C 11.453125 5.292969 11.734375 4.921875 12 4.632812 C 13.660156 2.832031 16.660156 3.339844 17.65625 5.59375 C 18.359375 7.179688 17.820312 8.984375 16.367188 9.914062 C 15.636719 10.378906 15.558594 10.476562 15.660156 10.796875 C 15.820312 11.308594 16.457031 11.175781 17.410156 10.429688 L 17.839844 10.09375 L 18.539062 10.800781 L 19.242188 11.511719 L 18.171875 11.546875 L 17.101562 11.578125 L 17.101562 12.421875 L 18.882812 12.453125 C 20.097656 12.476562 20.71875 12.441406 20.832031 12.347656 C 20.960938 12.242188 21 11.8125 21 10.5 C 21 8.660156 20.9375 8.460938 20.375 8.539062 C 20.113281 8.578125 20.097656 8.636719 20.066406 9.628906 C 20.046875 10.207031 19.992188 10.679688 19.941406 10.679688 C 19.890625 10.679688 19.539062 10.363281 19.15625 9.976562 L 18.457031 9.269531 L 18.722656 8.539062 C 18.945312 7.929688 18.980469 7.628906 18.9375 6.753906 C 18.894531 5.839844 18.832031 5.597656 18.484375 4.941406 L 18.078125 4.183594 L 20.039062 2.222656 L 20.039062 3.265625 C 20.039062 4.175781 20.070312 4.328125 20.273438 4.4375 C 20.574219 4.597656 20.589844 4.59375 20.8125 4.371094 C 20.964844 4.21875 21 3.867188 21 2.476562 C 21 1.308594 20.953125 0.722656 20.855469 0.625 C 20.65625 0.421875 17.382812 0.421875 17.183594 0.625 C 16.964844 0.84375 17.011719 1.296875 17.273438 1.4375 C 17.398438 1.503906 17.898438 1.558594 18.378906 1.558594 L 19.253906 1.558594 L 18.316406 2.503906 L 17.378906 3.445312 L 16.554688 3.023438 C 15.4375 2.449219 14.1875 2.355469 13.003906 2.757812 L 12.207031 3.027344 L 11.476562 2.292969 L 10.742188 1.558594 L 11.617188 1.558594 C 12.101562 1.558594 12.601562 1.503906 12.726562 1.4375 C 12.988281 1.296875 13.035156 0.84375 12.816406 0.625 C 12.617188 0.421875 9.34375 0.421875 9.144531 0.625 M 10.199219 10.019531 C 6.945312 13.273438 6.246094 13.921875 5.96875 13.921875 C 5.78125 13.921875 5.609375 13.851562 5.578125 13.769531 C 5.546875 13.6875 5.332031 12.40625 5.097656 10.921875 C 4.714844 8.488281 4.640625 8.195312 4.363281 7.902344 C 3.992188 7.515625 3.5625 7.386719 3.234375 7.5625 C 2.996094 7.691406 2.992188 7.78125 3.027344 13.117188 L 3.058594 18.539062 L 3.402344 19.277344 C 3.667969 19.855469 4.046875 20.3125 5.148438 21.402344 C 6.9375 23.171875 7.480469 23.457031 9.058594 23.457031 C 10.613281 23.460938 11.234375 23.136719 13.320312 21.242188 C 16.257812 18.570312 16.441406 18.378906 16.441406 17.933594 C 16.441406 17.648438 16.351562 17.46875 16.125 17.289062 C 15.726562 16.976562 15.433594 16.976562 14.929688 17.285156 C 14.613281 17.484375 14.480469 17.507812 14.285156 17.402344 C 13.871094 17.179688 14 16.804688 14.761719 16.011719 C 15.574219 15.164062 15.664062 14.8125 15.183594 14.335938 C 14.6875 13.835938 14.28125 13.933594 13.398438 14.761719 C 12.617188 15.492188 12.398438 15.59375 12.144531 15.335938 C 11.863281 15.054688 12.015625 14.800781 13.148438 13.675781 C 14.410156 12.429688 14.578125 12.164062 14.390625 11.679688 C 14.234375 11.257812 13.941406 11.046875 13.511719 11.042969 C 13.230469 11.039062 12.933594 11.269531 11.945312 12.238281 C 10.679688 13.488281 10.328125 13.664062 10.074219 13.1875 C 9.949219 12.957031 10.171875 12.699219 12.582031 10.277344 C 14.035156 8.816406 15.28125 7.472656 15.351562 7.289062 C 15.585938 6.660156 15.164062 6.121094 14.4375 6.121094 C 14.152344 6.121094 13.476562 6.742188 10.199219 10.019531 "/>
</g>
</svg>
