<?xml version="1.0" encoding="UTF-8"?>
<svg xmlns="http://www.w3.org/2000/svg" xmlns:xlink="http://www.w3.org/1999/xlink" width="100px" height="100px" viewBox="0 0 100 100" version="1.1">
<g id="surface1">
<path style=" stroke:none;fill-rule:evenodd;fill:rgb(0%,0%,0%);fill-opacity:1;" d="M 45.328125 5.914062 C 44.617188 6.699219 44.5 8.226562 44.496094 16.789062 C 44.496094 22.457031 44.257812 27.597656 43.949219 28.71875 C 43.597656 29.972656 42.351562 31.792969 40.511719 33.71875 C 38.921875 35.386719 37.089844 37.761719 36.4375 39 L 35.25 41.25 L 35.25 92.082031 L 36.882812 93.539062 L 38.515625 95 L 49.941406 95 C 60.542969 95 61.453125 94.929688 62.613281 94.015625 C 65.027344 92.117188 65.054688 91.792969 64.898438 65.71875 L 64.75 41.25 L 63.417969 38.75 C 62.6875 37.375 61.046875 35.265625 59.773438 34.058594 C 55.796875 30.296875 55.769531 30.199219 55.589844 17.628906 C 55.402344 4.511719 55.628906 5 49.714844 5 C 46.902344 5 45.980469 5.191406 45.328125 5.914062 M 47.5 14.25 L 47.5 20.5 L 52.5 20.5 L 52.5 8 L 47.5 8 L 47.5 14.25 M 47.496094 26.375 C 47.488281 29.652344 45.625 33.398438 42.566406 36.285156 C 38.359375 40.253906 38.5 39.210938 38.5 66.742188 C 38.5 90.179688 38.53125 90.980469 39.46875 91.484375 C 40.9375 92.269531 41.191406 92.148438 42.257812 90.167969 C 43.765625 87.367188 45.59375 86.503906 50 86.503906 C 54.40625 86.503906 56.234375 87.367188 57.742188 90.167969 C 58.808594 92.148438 59.0625 92.269531 60.53125 91.484375 C 61.46875 90.980469 61.5 90.179688 61.5 66.714844 C 61.5 39.132812 61.671875 40.386719 57.34375 36.246094 C 54.164062 33.199219 52.882812 30.671875 52.597656 26.875 L 52.378906 24 L 47.5 24 L 47.496094 26.375 M 44.425781 38.855469 C 42.671875 40.730469 42 42.140625 42 43.925781 C 42 46.613281 44.117188 46.386719 45.292969 43.570312 C 45.707031 42.578125 46.507812 41.273438 47.070312 40.675781 C 47.632812 40.078125 48.011719 39.175781 47.914062 38.667969 C 47.636719 37.210938 45.871094 37.304688 44.425781 38.855469 M 51.734375 50.464844 C 50.195312 51.105469 49.410156 52.292969 49.324219 54.109375 C 49.257812 55.550781 49.417969 55.769531 50.628906 55.910156 C 51.632812 56.023438 52.425781 55.648438 53.539062 54.539062 C 56.175781 51.902344 54.945312 49.132812 51.734375 50.464844 M 42.933594 59.449219 C 39.03125 63.351562 39.269531 69.613281 43.460938 73.140625 C 44.847656 74.304688 45.347656 74.402344 50.074219 74.414062 L 55.191406 74.425781 L 57.046875 72.570312 C 60.96875 68.648438 60.738281 62.390625 56.542969 58.863281 C 55.164062 57.703125 54.671875 57.609375 49.914062 57.609375 L 44.773438 57.609375 L 42.933594 59.449219 M 44.875 62.066406 C 43 63.917969 42.910156 67.757812 44.691406 69.832031 C 45.8125 71.132812 46.144531 71.21875 49.988281 71.25 C 53.910156 71.28125 54.148438 71.21875 55.296875 69.855469 C 56.964844 67.871094 56.984375 64.117188 55.335938 62.203125 C 54.265625 60.957031 53.851562 60.84375 50.210938 60.777344 C 46.527344 60.714844 46.152344 60.804688 44.875 62.066406 M 45.5 91 C 44.980469 91.96875 45.121094 92 50 92 C 54.878906 92 55.019531 91.96875 54.5 91 C 54.035156 90.128906 53.453125 90 50 90 C 46.546875 90 45.964844 90.128906 45.5 91 "/>
</g>
</svg>
