<?xml version="1.0" encoding="UTF-8"?>
<svg xmlns="http://www.w3.org/2000/svg" xmlns:xlink="http://www.w3.org/1999/xlink" width="24px" height="24px" viewBox="0 0 24 24" version="1.1">
<g id="surface1">
<path style=" stroke:none;fill-rule:evenodd;fill:rgb(0%,0%,0%);fill-opacity:1;" d="M 10.878906 1.417969 C 10.707031 1.609375 10.679688 1.972656 10.679688 4.03125 C 10.679688 5.390625 10.621094 6.625 10.546875 6.894531 C 10.464844 7.195312 10.164062 7.628906 9.722656 8.09375 C 9.339844 8.492188 8.902344 9.0625 8.746094 9.359375 L 8.460938 9.898438 L 8.460938 22.097656 L 9.242188 22.800781 L 11.984375 22.800781 C 14.53125 22.800781 14.75 22.78125 15.027344 22.5625 C 15.605469 22.109375 15.613281 22.03125 15.574219 15.773438 L 15.539062 9.898438 L 15.21875 9.300781 C 15.046875 8.96875 14.652344 8.464844 14.347656 8.175781 C 13.390625 7.269531 13.386719 7.246094 13.339844 4.230469 C 13.296875 1.082031 13.351562 1.199219 11.933594 1.199219 C 11.257812 1.199219 11.035156 1.246094 10.878906 1.417969 M 11.398438 3.421875 L 11.398438 4.921875 L 12.601562 4.921875 L 12.601562 1.921875 L 11.398438 1.921875 L 11.398438 3.421875 M 11.398438 6.328125 C 11.398438 7.117188 10.949219 8.015625 10.214844 8.707031 C 9.207031 9.660156 9.238281 9.410156 9.238281 16.019531 C 9.238281 21.644531 9.246094 21.835938 9.472656 21.957031 C 9.824219 22.144531 9.886719 22.117188 10.140625 21.640625 C 10.503906 20.96875 10.941406 20.761719 12 20.761719 C 13.058594 20.761719 13.496094 20.96875 13.859375 21.640625 C 14.113281 22.117188 14.175781 22.144531 14.527344 21.957031 C 14.753906 21.835938 14.761719 21.644531 14.761719 16.011719 C 14.761719 9.390625 14.800781 9.691406 13.761719 8.699219 C 13 7.96875 12.691406 7.359375 12.625 6.449219 L 12.570312 5.761719 L 11.398438 5.761719 L 11.398438 6.328125 M 10.660156 9.324219 C 10.242188 9.777344 10.078125 10.113281 10.078125 10.542969 C 10.078125 11.1875 10.589844 11.132812 10.871094 10.457031 C 10.96875 10.21875 11.160156 9.90625 11.296875 9.761719 C 11.429688 9.617188 11.523438 9.402344 11.5 9.28125 C 11.433594 8.929688 11.007812 8.953125 10.660156 9.324219 M 12.414062 12.113281 C 12.046875 12.265625 11.859375 12.550781 11.839844 12.988281 C 11.820312 13.332031 11.859375 13.382812 12.152344 13.417969 C 12.390625 13.445312 12.582031 13.355469 12.847656 13.089844 C 13.480469 12.457031 13.1875 11.792969 12.414062 12.113281 M 10.304688 14.265625 C 9.367188 15.203125 9.425781 16.707031 10.429688 17.554688 C 10.761719 17.832031 10.882812 17.855469 12.019531 17.859375 L 13.246094 17.863281 L 13.691406 17.417969 C 14.632812 16.476562 14.578125 14.972656 13.570312 14.128906 C 13.238281 13.847656 13.121094 13.824219 11.980469 13.824219 L 10.746094 13.824219 L 10.304688 14.265625 M 10.769531 14.894531 C 10.320312 15.339844 10.296875 16.261719 10.726562 16.757812 C 10.996094 17.070312 11.074219 17.09375 11.996094 17.101562 C 12.9375 17.109375 12.996094 17.09375 13.269531 16.765625 C 13.671875 16.289062 13.675781 15.386719 13.28125 14.929688 C 13.023438 14.628906 12.925781 14.601562 12.050781 14.585938 C 11.167969 14.570312 11.078125 14.59375 10.769531 14.894531 M 10.921875 21.839844 C 10.796875 22.074219 10.828125 22.078125 12 22.078125 C 13.171875 22.078125 13.203125 22.074219 13.078125 21.839844 C 12.96875 21.632812 12.828125 21.601562 12 21.601562 C 11.171875 21.601562 11.03125 21.632812 10.921875 21.839844 "/>
</g>
</svg>
