<?xml version="1.0" encoding="UTF-8"?>
<svg xmlns="http://www.w3.org/2000/svg" xmlns:xlink="http://www.w3.org/1999/xlink" width="24px" height="24px" viewBox="0 0 24 24" version="1.1">
<g id="surface1">
<path style=" stroke:none;fill-rule:evenodd;fill:rgb(0%,0%,0%);fill-opacity:1;" d="M 17.21875 3.90625 C 14.777344 4.660156 11.085938 5.800781 9.019531 6.441406 C 5.949219 7.390625 5.222656 7.65625 5.074219 7.882812 C 4.910156 8.132812 4.914062 8.191406 5.089844 8.460938 C 5.195312 8.625 5.363281 8.761719 5.460938 8.761719 C 5.554688 8.761719 9.3125 7.621094 13.8125 6.226562 C 21.117188 3.96875 22.023438 3.710938 22.277344 3.847656 C 22.609375 4.027344 22.835938 4.722656 22.726562 5.234375 C 22.660156 5.5625 22.257812 5.765625 15.539062 8.875 C 11.621094 10.691406 8.371094 12.191406 8.3125 12.210938 C 8.25 12.230469 8.144531 11.925781 8.070312 11.535156 C 7.632812 9.175781 4.867188 8.101562 2.816406 9.496094 C 2.359375 9.808594 2.222656 10.074219 2.339844 10.441406 C 2.46875 10.847656 2.945312 10.871094 3.484375 10.496094 C 4.390625 9.871094 5.613281 9.96875 6.347656 10.726562 C 6.722656 11.113281 7.054688 12 6.828125 12 C 6.769531 12 6.71875 11.898438 6.71875 11.777344 C 6.71875 11.652344 6.605469 11.410156 6.46875 11.234375 C 5.664062 10.210938 3.992188 10.390625 3.4375 11.5625 C 3.167969 12.128906 3.183594 13.046875 3.46875 13.515625 C 3.894531 14.210938 4.5 14.566406 5.363281 14.621094 C 6.066406 14.664062 6.210938 14.628906 6.953125 14.238281 C 7.40625 14.003906 9.65625 12.9375 11.957031 11.871094 C 14.257812 10.804688 16.234375 9.882812 16.351562 9.824219 C 16.464844 9.761719 16.558594 9.738281 16.558594 9.769531 C 16.558594 9.796875 14.820312 11.167969 12.691406 12.808594 C 9.15625 15.535156 8.535156 15.960938 5.859375 17.476562 C 5.8125 17.503906 5.695312 17.234375 5.589844 16.882812 C 5.382812 16.160156 4.832031 15.515625 4.140625 15.1875 C 3.816406 15.035156 3.730469 14.941406 3.828125 14.84375 C 4.003906 14.667969 3.996094 14.246094 3.816406 14.0625 C 3.738281 13.984375 3.546875 13.921875 3.394531 13.921875 C 3.003906 13.921875 0.53125 15.667969 0.226562 16.160156 C -0.0078125 16.539062 -0.0117188 16.585938 0.171875 16.863281 C 0.445312 17.28125 0.792969 17.234375 1.386719 16.6875 C 2.207031 15.929688 3.257812 15.882812 3.996094 16.570312 L 4.378906 16.929688 L 3.914062 16.625 C 2.410156 15.644531 0.714844 17.347656 1.515625 19.035156 C 2.066406 20.191406 3.792969 20.472656 4.832031 19.574219 C 5.046875 19.390625 5.617188 19.007812 6.101562 18.726562 L 6.980469 18.21875 L 7.214844 18.46875 C 7.53125 18.804688 7.863281 18.785156 8.191406 18.410156 C 8.5625 17.976562 9.265625 17.640625 9.785156 17.640625 C 10.261719 17.640625 10.941406 17.914062 11.179688 18.207031 C 11.285156 18.332031 11.183594 18.308594 10.859375 18.132812 C 9.746094 17.539062 8.570312 18.128906 8.328125 19.402344 C 8.214844 19.992188 8.382812 20.492188 8.859375 20.992188 C 9.441406 21.601562 10.113281 21.792969 10.964844 21.589844 C 11.554688 21.449219 11.765625 21.261719 16.320312 16.753906 C 18.925781 14.171875 21.695312 11.4375 22.46875 10.675781 L 23.878906 9.289062 L 23.878906 8.683594 C 23.878906 8.003906 23.710938 7.414062 23.378906 6.9375 C 23.160156 6.621094 23.160156 6.617188 23.40625 6.539062 C 24.089844 6.320312 24.152344 4.246094 23.496094 3.328125 C 23.207031 2.921875 22.449219 2.519531 21.996094 2.527344 C 21.8125 2.53125 19.660156 3.152344 17.21875 3.90625 M 15.917969 11.847656 L 10.070312 16.371094 L 10.664062 16.566406 C 10.992188 16.671875 11.402344 16.851562 11.574219 16.964844 C 11.933594 17.199219 12.601562 18.078125 12.601562 18.316406 C 12.601562 18.40625 12.65625 18.480469 12.726562 18.480469 C 12.847656 18.480469 22.570312 8.929688 22.664062 8.722656 C 22.832031 8.332031 22.300781 7.320312 21.921875 7.320312 C 21.835938 7.320312 19.136719 9.355469 15.917969 11.847656 M 4.636719 11.980469 C 4.1875 12.480469 4.648438 13.441406 5.34375 13.441406 C 5.628906 13.441406 5.640625 13.421875 5.46875 13.25 C 5.246094 13.027344 5.226562 12.683594 5.417969 12.375 C 5.742188 11.855469 5.0625 11.511719 4.636719 11.980469 M 6.730469 12.429688 C 6.734375 12.570312 6.765625 12.597656 6.800781 12.503906 C 6.835938 12.414062 6.832031 12.3125 6.792969 12.273438 C 6.753906 12.234375 6.722656 12.304688 6.730469 12.429688 M 2.667969 17.660156 C 2.296875 18.03125 2.589844 18.707031 3.210938 18.894531 C 3.484375 18.976562 3.589844 18.800781 3.351562 18.65625 C 3.285156 18.613281 3.242188 18.351562 3.261719 18.078125 C 3.292969 17.65625 3.261719 17.574219 3.058594 17.546875 C 2.925781 17.527344 2.75 17.578125 2.667969 17.660156 M 9.675781 19.261719 C 9.566406 19.371094 9.480469 19.5625 9.480469 19.6875 C 9.480469 19.925781 9.875 20.398438 10.070312 20.398438 C 10.128906 20.398438 10.28125 20.4375 10.398438 20.484375 C 10.601562 20.558594 10.605469 20.546875 10.441406 20.34375 C 10.339844 20.222656 10.261719 19.902344 10.261719 19.632812 C 10.261719 19.085938 10.011719 18.925781 9.675781 19.261719 "/>
</g>
</svg>
