<?xml version="1.0" encoding="UTF-8"?>
<svg xmlns="http://www.w3.org/2000/svg" xmlns:xlink="http://www.w3.org/1999/xlink" width="24px" height="24px" viewBox="0 0 24 24" version="1.1">
<g id="surface1">
<path style=" stroke:none;fill-rule:evenodd;fill:rgb(0%,0%,0%);fill-opacity:1;" d="M 12.003906 0.351562 C 11.9375 0.480469 11.878906 0.707031 11.878906 0.851562 L 11.878906 1.121094 L 11.609375 0.878906 C 11.164062 0.476562 11.039062 0.445312 10.792969 0.667969 C 10.449219 0.976562 10.507812 1.316406 10.980469 1.746094 C 11.480469 2.203125 11.511719 2.535156 11.101562 3.023438 C 10.757812 3.429688 10.71875 3.792969 10.980469 4.164062 C 11.125 4.375 11.136719 4.484375 11.023438 4.730469 C 10.910156 4.976562 10.921875 5.136719 11.082031 5.546875 C 11.273438 6.035156 11.273438 6.070312 11.042969 6.382812 C 10.757812 6.765625 10.738281 7.089844 10.964844 7.535156 C 11.238281 8.070312 11.328125 8.445312 11.160156 8.339844 C 10.910156 8.1875 10.566406 7.28125 10.5625 6.773438 C 10.558594 6.03125 10.167969 5.78125 9.683594 6.210938 C 9.453125 6.414062 9.445312 6.410156 9.511719 6.121094 C 9.871094 4.457031 9.875 4.445312 9.71875 4.257812 C 9.582031 4.097656 9.523438 4.101562 9.148438 4.324219 C 8.769531 4.546875 8.738281 4.550781 8.820312 4.355469 C 9.113281 3.652344 9.152344 3.496094 9.082031 3.316406 C 8.953125 2.976562 8.648438 2.949219 8.332031 3.246094 L 8.035156 3.527344 L 7.835938 3.242188 C 7.257812 2.417969 6.902344 2.328125 6.429688 2.890625 C 6.023438 3.375 6.039062 3.640625 6.503906 4 C 6.824219 4.253906 6.859375 4.332031 6.734375 4.484375 C 6.652344 4.582031 6.464844 4.683594 6.320312 4.703125 C 5.839844 4.769531 5.933594 5.207031 6.53125 5.699219 C 7.042969 6.117188 7.074219 6.175781 7.007812 6.59375 C 6.945312 6.988281 6.988281 7.101562 7.429688 7.605469 C 7.933594 8.191406 8.015625 8.476562 7.792969 8.894531 C 7.597656 9.261719 7.621094 9.816406 7.839844 10.058594 C 8.09375 10.335938 8.097656 10.785156 7.851562 10.878906 C 7.75 10.917969 7.53125 10.890625 7.371094 10.820312 C 7.109375 10.699219 7.078125 10.613281 7.078125 9.960938 L 7.078125 9.238281 L 6.679688 9.238281 C 6.285156 9.238281 6.277344 9.230469 6.269531 8.699219 C 6.257812 7.917969 5.894531 7.269531 5.4375 7.222656 C 5.222656 7.203125 5.019531 7.261719 4.925781 7.375 C 4.707031 7.636719 4.597656 7.605469 4.511719 7.257812 C 4.390625 6.78125 4.011719 6.480469 3.53125 6.480469 C 2.738281 6.480469 2.445312 6.851562 2.765625 7.449219 C 2.875 7.65625 2.847656 7.679688 2.472656 7.679688 C 1.953125 7.679688 1.679688 7.945312 1.679688 8.449219 C 1.679688 9.007812 2.117188 9.378906 2.867188 9.453125 C 3.453125 9.507812 3.46875 9.519531 3.726562 10.125 C 4.046875 10.882812 4.269531 11.144531 4.761719 11.355469 C 5.082031 11.492188 5.152344 11.589844 5.183594 11.964844 C 5.210938 12.320312 5.304688 12.472656 5.640625 12.699219 C 5.871094 12.859375 5.980469 12.960938 5.878906 12.921875 C 5.78125 12.882812 5.40625 12.761719 5.046875 12.652344 C 4.683594 12.539062 4.234375 12.292969 4.046875 12.105469 C 3.796875 11.855469 3.582031 11.761719 3.28125 11.761719 C 3.023438 11.761719 2.71875 11.648438 2.480469 11.46875 C 1.691406 10.867188 1.257812 10.96875 1.089844 11.789062 C 1.027344 12.109375 0.949219 12.1875 0.65625 12.21875 C -0.0625 12.300781 -0.21875 12.8125 0.304688 13.375 C 0.585938 13.675781 0.652344 13.695312 1.234375 13.617188 L 1.859375 13.53125 L 1.53125 13.839844 C 0.804688 14.515625 1.285156 15.34375 2.308594 15.183594 C 3.300781 15.03125 6.882812 15.261719 7.023438 15.488281 C 7.058594 15.542969 6.773438 15.898438 6.390625 16.285156 C 6.007812 16.667969 5.4375 17.398438 5.121094 17.910156 C 4.800781 18.421875 4.492188 18.839844 4.429688 18.839844 C 4.371094 18.839844 4.320312 18.921875 4.320312 19.019531 C 4.320312 19.507812 4.757812 19.105469 5.496094 17.941406 C 6.378906 16.550781 6.796875 16.179688 7.5625 16.117188 C 7.929688 16.089844 8.25 16.125 8.351562 16.210938 C 8.566406 16.390625 8.5625 16.796875 8.335938 17.09375 C 7.8125 17.789062 8.515625 18.28125 9.386719 17.828125 C 9.683594 17.671875 9.714844 17.679688 9.785156 17.898438 C 9.828125 18.03125 9.824219 18.507812 9.78125 18.957031 C 9.6875 19.878906 9.820312 20.28125 10.226562 20.28125 C 10.367188 20.28125 10.582031 20.191406 10.703125 20.082031 C 10.824219 19.972656 10.960938 19.921875 11.011719 19.96875 C 11.058594 20.019531 11.117188 20.636719 11.140625 21.339844 C 11.164062 22.042969 11.234375 22.683594 11.300781 22.761719 C 11.363281 22.839844 11.582031 22.941406 11.78125 22.984375 C 12.09375 23.054688 12.210938 23 12.597656 22.625 C 13.105469 22.128906 13.199219 22.195312 13.199219 23.050781 C 13.199219 23.457031 13.257812 23.558594 13.589844 23.761719 C 14.011719 24.019531 14.757812 24.074219 15.125 23.878906 C 15.25 23.8125 15.414062 23.550781 15.488281 23.296875 C 15.609375 22.898438 15.59375 22.757812 15.375 22.261719 C 15.15625 21.773438 15.140625 21.621094 15.253906 21.242188 C 15.433594 20.640625 15.277344 20.371094 13.929688 18.960938 C 13.328125 18.335938 12.839844 17.765625 12.839844 17.695312 C 12.839844 17.625 12.992188 17.421875 13.175781 17.242188 L 13.511719 16.921875 L 14 17.429688 C 14.269531 17.710938 14.566406 18.101562 14.65625 18.300781 C 14.785156 18.578125 14.910156 18.667969 15.226562 18.699219 C 15.449219 18.71875 15.6875 18.679688 15.757812 18.609375 C 15.972656 18.398438 16.054688 18.457031 16.207031 18.929688 C 16.445312 19.675781 16.625 19.804688 17.382812 19.769531 C 18.019531 19.742188 18.058594 19.757812 18.21875 20.101562 C 18.492188 20.671875 18.972656 21.121094 19.316406 21.121094 C 19.753906 21.121094 20.136719 20.816406 20.183594 20.433594 C 20.214844 20.160156 20.277344 20.105469 20.578125 20.105469 C 20.886719 20.101562 20.945312 20.046875 20.980469 19.757812 C 21 19.566406 20.933594 19.328125 20.824219 19.207031 C 20.652344 19.015625 20.652344 18.976562 20.816406 18.84375 C 21.316406 18.429688 20.707031 17.761719 19.835938 17.761719 C 19.253906 17.761719 18.855469 17.457031 18.464844 16.71875 C 18.316406 16.441406 18.109375 16.296875 17.628906 16.136719 C 17.253906 16.011719 16.769531 15.71875 16.445312 15.421875 C 15.667969 14.707031 15.355469 14.519531 14.941406 14.519531 C 14.390625 14.515625 14.242188 14.363281 14.230469 13.78125 C 14.222656 13.320312 14.246094 13.265625 14.460938 13.308594 C 14.59375 13.335938 15.023438 13.371094 15.421875 13.386719 C 15.816406 13.398438 16.238281 13.417969 16.355469 13.425781 C 16.476562 13.433594 16.765625 13.628906 17 13.855469 C 17.554688 14.394531 17.730469 14.441406 18.367188 14.21875 L 18.890625 14.03125 L 19.457031 14.644531 C 19.945312 15.179688 20.070312 15.253906 20.417969 15.21875 C 20.929688 15.167969 21 14.824219 20.644531 14.140625 C 20.503906 13.871094 20.421875 13.617188 20.464844 13.574219 C 20.507812 13.535156 20.734375 13.5 20.964844 13.5 C 21.546875 13.5 21.921875 13.03125 21.714844 12.574219 C 21.535156 12.183594 21.132812 12 20.453125 12 C 20.082031 12 19.921875 11.949219 19.921875 11.835938 C 19.921875 11.5625 20.234375 11.382812 20.570312 11.46875 C 20.957031 11.566406 21.480469 11.25 21.480469 10.917969 C 21.480469 10.726562 21.5625 10.679688 21.882812 10.679688 C 22.390625 10.679688 22.894531 10.296875 22.941406 9.867188 C 22.972656 9.585938 23.03125 9.542969 23.332031 9.566406 C 23.761719 9.597656 24 9.417969 24 9.0625 C 24 8.597656 23.601562 8.355469 22.96875 8.441406 C 22.492188 8.507812 22.425781 8.492188 22.488281 8.328125 C 22.679688 7.832031 22.683594 7.59375 22.511719 7.449219 C 22.21875 7.207031 21.878906 7.410156 21.601562 8.003906 L 21.34375 8.554688 L 21.113281 8.175781 C 20.988281 7.96875 20.804688 7.800781 20.710938 7.800781 C 20.519531 7.800781 20.160156 8.117188 20.160156 8.285156 C 20.160156 8.433594 19.441406 9.238281 19.308594 9.238281 C 19.25 9.238281 19.199219 9.144531 19.199219 9.023438 C 19.199219 8.796875 18.984375 8.519531 18.804688 8.519531 C 18.75 8.519531 18.390625 8.84375 18.007812 9.238281 C 17.382812 9.894531 17.273438 9.960938 16.820312 9.960938 C 16.457031 9.960938 16.320312 9.910156 16.320312 9.78125 C 16.320312 9.671875 16.429688 9.601562 16.597656 9.601562 C 16.941406 9.601562 17.160156 9.390625 17.160156 9.054688 C 17.160156 8.679688 17.5 8.441406 18.160156 8.355469 C 18.480469 8.316406 18.789062 8.25 18.851562 8.214844 C 19.019531 8.109375 18.980469 7.660156 18.78125 7.441406 C 18.621094 7.265625 18.628906 7.214844 18.84375 6.984375 C 19.023438 6.792969 19.214844 6.726562 19.5625 6.742188 C 19.875 6.753906 20.121094 6.683594 20.277344 6.542969 C 20.582031 6.265625 20.582031 6.179688 20.261719 5.863281 C 20.007812 5.609375 20.007812 5.597656 20.230469 5.4375 C 20.355469 5.34375 20.722656 5.175781 21.042969 5.066406 C 22.082031 4.699219 22.539062 4.003906 21.847656 3.84375 C 21.394531 3.734375 21.425781 3.546875 22.019531 2.878906 C 22.738281 2.070312 22.699219 1.886719 21.792969 1.773438 C 21.121094 1.6875 21.066406 1.703125 20.671875 2.050781 C 20.441406 2.25 20.191406 2.390625 20.117188 2.363281 C 19.417969 2.101562 19.429688 2.09375 18.742188 2.988281 C 18.527344 3.265625 18.515625 3.269531 18.203125 3.0625 C 17.898438 2.863281 17.863281 2.863281 17.570312 3.054688 C 17.398438 3.167969 17.121094 3.566406 16.949219 3.941406 C 16.78125 4.3125 16.628906 4.636719 16.613281 4.660156 C 16.597656 4.679688 16.46875 4.625 16.332031 4.539062 C 15.945312 4.296875 15.6875 4.542969 15.472656 5.351562 C 15.339844 5.855469 15.238281 6.046875 15.113281 6.011719 C 14.578125 5.871094 14.425781 5.882812 14.179688 6.082031 C 14 6.230469 13.878906 6.507812 13.8125 6.9375 C 13.714844 7.570312 13.519531 7.921875 13.359375 7.761719 C 13.246094 7.648438 13.515625 6.617188 13.9375 5.546875 C 14.125 5.066406 14.28125 4.539062 14.28125 4.375 C 14.28125 4.015625 13.980469 3.863281 13.664062 4.0625 C 13.394531 4.230469 13.390625 4.222656 13.628906 3.410156 C 13.730469 3.058594 13.796875 2.5625 13.777344 2.3125 C 13.746094 1.945312 13.6875 1.851562 13.464844 1.820312 C 13.3125 1.800781 13.101562 1.851562 12.996094 1.941406 C 12.824219 2.082031 12.8125 2.03125 12.890625 1.402344 C 12.960938 0.855469 12.9375 0.644531 12.785156 0.414062 C 12.554688 0.0625 12.175781 0.03125 12.003906 0.351562 M 12.238281 0.875 C 12.238281 1.105469 12.15625 1.359375 12.054688 1.445312 C 11.898438 1.574219 11.804688 1.53125 11.449219 1.191406 C 11.109375 0.859375 11.007812 0.816406 10.921875 0.957031 C 10.84375 1.082031 10.949219 1.273438 11.289062 1.640625 C 11.839844 2.242188 11.882812 2.59375 11.460938 3.097656 C 11.054688 3.578125 11.074219 3.921875 11.519531 4.175781 C 11.949219 4.421875 11.960938 4.46875 11.609375 4.621094 C 11.324219 4.746094 11.296875 4.949219 11.464844 5.796875 C 11.535156 6.164062 11.503906 6.320312 11.308594 6.585938 L 11.066406 6.914062 L 11.351562 7.589844 C 11.683594 8.375 11.632812 8.667969 11.175781 8.617188 C 10.773438 8.570312 10.335938 7.804688 10.238281 6.96875 C 10.199219 6.632812 10.144531 6.359375 10.117188 6.359375 C 10.09375 6.359375 9.949219 6.4375 9.800781 6.535156 C 9.558594 6.695312 9.492188 6.691406 9.144531 6.476562 C 8.875 6.3125 8.761719 6.152344 8.761719 5.941406 C 8.761719 5.601562 8.933594 5.542969 9.09375 5.828125 C 9.171875 5.964844 9.238281 5.835938 9.351562 5.339844 C 9.519531 4.582031 9.464844 4.425781 9.140625 4.71875 C 8.597656 5.210938 8.34375 4.765625 8.664062 3.882812 C 8.847656 3.375 8.714844 3.246094 8.363281 3.578125 C 7.980469 3.9375 7.878906 3.910156 7.515625 3.359375 C 7.167969 2.835938 6.804688 2.734375 6.605469 3.113281 C 6.410156 3.476562 6.457031 3.667969 6.78125 3.839844 C 7.285156 4.109375 7.128906 4.921875 6.574219 4.921875 C 6.246094 4.921875 6.3125 5.078125 6.839844 5.550781 C 7.261719 5.929688 7.320312 6.046875 7.320312 6.511719 C 7.320312 6.914062 7.386719 7.101562 7.613281 7.3125 C 7.773438 7.464844 7.996094 7.78125 8.109375 8.015625 C 8.300781 8.417969 8.300781 8.476562 8.105469 9.019531 C 7.902344 9.582031 7.902344 9.601562 8.148438 9.914062 C 8.46875 10.320312 8.46875 10.730469 8.148438 11.050781 C 7.949219 11.25 7.8125 11.285156 7.472656 11.222656 C 7.074219 11.148438 7.054688 11.160156 7.117188 11.421875 C 7.304688 12.199219 7.339844 12.601562 7.21875 12.601562 C 6.976562 12.601562 6.90625 12.289062 6.84375 10.921875 L 6.78125 9.539062 L 6.421875 9.582031 C 6.222656 9.605469 6.035156 9.648438 6.007812 9.675781 C 5.871094 9.804688 6.003906 10.660156 6.300781 11.589844 C 6.5625 12.421875 6.734375 12.730469 7.238281 13.28125 C 7.828125 13.925781 7.859375 13.941406 7.9375 13.667969 C 7.980469 13.507812 8.019531 12.960938 8.027344 12.449219 C 8.035156 11.855469 8.089844 11.519531 8.171875 11.519531 C 8.265625 11.519531 8.292969 11.945312 8.261719 12.898438 C 8.238281 13.660156 8.234375 14.28125 8.257812 14.28125 C 8.277344 14.28125 8.519531 14.070312 8.796875 13.808594 C 9.074219 13.550781 9.453125 13.222656 9.636719 13.074219 C 9.921875 12.851562 9.960938 12.753906 9.890625 12.4375 C 9.847656 12.222656 9.636719 11.914062 9.40625 11.722656 C 9.183594 11.535156 9 11.304688 9 11.210938 C 9 10.957031 9.164062 11.003906 9.480469 11.339844 C 9.636719 11.503906 9.808594 11.640625 9.863281 11.640625 C 10.09375 11.640625 10.085938 11.265625 9.851562 10.96875 C 9.714844 10.792969 9.601562 10.492188 9.601562 10.300781 C 9.601562 9.8125 9.273438 9.359375 8.925781 9.359375 C 8.746094 9.359375 8.640625 9.289062 8.640625 9.171875 C 8.640625 9.039062 8.710938 9.007812 8.878906 9.058594 C 9.011719 9.101562 9.121094 9.089844 9.121094 9.03125 C 9.121094 8.792969 8.292969 6.507812 8.066406 6.121094 C 7.929688 5.890625 7.757812 5.457031 7.679688 5.160156 C 7.601562 4.863281 7.425781 4.417969 7.289062 4.171875 C 7.148438 3.925781 7.074219 3.6875 7.117188 3.644531 C 7.234375 3.523438 7.515625 3.804688 7.683594 4.210938 C 7.78125 4.449219 7.867188 4.527344 7.925781 4.433594 C 8.117188 4.121094 8.292969 4.460938 8.210938 5 C 8.144531 5.449219 8.1875 5.652344 8.476562 6.242188 C 8.816406 6.941406 9 7.128906 9 6.78125 C 9 6.601562 9.140625 6.539062 9.265625 6.664062 C 9.300781 6.699219 9.28125 6.976562 9.222656 7.28125 C 9.152344 7.667969 9.167969 8 9.285156 8.386719 C 9.46875 9 9.480469 9.054688 9.480469 9.269531 C 9.484375 9.371094 9.523438 9.359375 9.601562 9.238281 C 9.664062 9.140625 9.71875 8.832031 9.71875 8.550781 C 9.71875 8.175781 9.769531 8.039062 9.898438 8.039062 C 10.113281 8.039062 10.148438 8.765625 9.960938 9.3125 C 9.828125 9.691406 9.949219 10.6875 10.128906 10.71875 C 10.1875 10.730469 10.335938 10.390625 10.457031 9.960938 C 10.761719 8.875 10.789062 8.820312 10.921875 8.957031 C 10.996094 9.03125 10.886719 9.59375 10.621094 10.527344 C 10.191406 12.011719 10.109375 12.53125 10.3125 12.460938 C 10.375 12.4375 10.871094 12.015625 11.410156 11.523438 L 12.394531 10.628906 L 12.316406 8.101562 C 12.273438 6.710938 12.160156 4.902344 12.0625 4.078125 C 11.84375 2.226562 11.839844 2.039062 12.035156 2.039062 C 12.230469 2.039062 12.449219 4.074219 12.644531 7.6875 L 12.78125 10.238281 L 13.46875 9.605469 C 14.011719 9.109375 14.160156 8.898438 14.160156 8.621094 C 14.160156 8.203125 14.367188 7.765625 14.515625 7.859375 C 14.578125 7.894531 14.578125 8.078125 14.519531 8.285156 C 14.394531 8.722656 14.441406 8.699219 15.398438 7.867188 C 16.152344 7.214844 16.601562 6.480469 16.734375 5.675781 C 16.8125 5.203125 17.085938 4.804688 17.234375 4.953125 C 17.269531 4.988281 17.25 5.117188 17.1875 5.238281 C 17.125 5.359375 17.042969 5.664062 17.003906 5.914062 L 16.933594 6.363281 L 17.492188 5.972656 C 18.28125 5.417969 20.089844 3.667969 20.726562 2.84375 C 21.300781 2.097656 21.339844 1.785156 20.792969 2.335938 C 20.503906 2.621094 20.398438 2.65625 19.953125 2.59375 C 19.539062 2.539062 19.425781 2.566406 19.328125 2.746094 C 19.261719 2.867188 19.023438 3.1875 18.796875 3.460938 C 18.550781 3.753906 18.347656 4.152344 18.300781 4.4375 C 18.253906 4.703125 18.167969 4.921875 18.109375 4.921875 C 17.957031 4.921875 17.972656 4.117188 18.132812 3.816406 C 18.234375 3.625 18.222656 3.53125 18.078125 3.386719 C 17.8125 3.121094 17.5625 3.359375 17.148438 4.289062 C 16.816406 5.027344 16.625 5.175781 16.351562 4.902344 C 16.109375 4.660156 15.871094 4.886719 15.789062 5.445312 C 15.742188 5.746094 15.617188 6.101562 15.503906 6.238281 C 15.324219 6.457031 15.257812 6.46875 14.917969 6.339844 C 14.410156 6.144531 14.210938 6.320312 14.128906 7.03125 C 14.023438 7.964844 13.1875 8.558594 13 7.828125 C 12.941406 7.59375 13.058594 7.089844 13.417969 6.042969 C 13.695312 5.242188 13.921875 4.53125 13.921875 4.464844 C 13.921875 4.386719 13.808594 4.394531 13.621094 4.480469 C 13.457031 4.558594 13.320312 4.714844 13.320312 4.828125 C 13.320312 4.945312 13.238281 5.039062 13.140625 5.039062 C 12.894531 5.039062 12.910156 4.847656 13.28125 3.46875 C 13.519531 2.574219 13.566406 2.238281 13.464844 2.136719 C 13.316406 1.988281 13.285156 2.042969 13.148438 2.671875 C 13.109375 2.851562 12.996094 3 12.902344 3 C 12.589844 3 12.460938 2.53125 12.5 1.53125 C 12.527344 0.835938 12.496094 0.550781 12.390625 0.511719 C 12.289062 0.476562 12.238281 0.59375 12.238281 0.875 M 21.183594 2.769531 C 20.4375 3.8125 18.828125 5.394531 17.703125 6.203125 C 17.109375 6.625 16.519531 7.136719 16.394531 7.332031 L 16.167969 7.691406 L 16.785156 7.609375 C 17.304688 7.542969 17.398438 7.558594 17.398438 7.722656 C 17.398438 7.917969 17.203125 7.957031 16.125 7.972656 C 15.847656 7.976562 15.554688 8.148438 15.015625 8.617188 C 14.609375 8.96875 14.28125 9.3125 14.28125 9.378906 C 14.28125 9.449219 14.507812 9.484375 14.816406 9.460938 C 15.464844 9.410156 15.546875 9.617188 14.9375 9.765625 C 14.648438 9.832031 14.394531 9.820312 14.195312 9.730469 C 13.914062 9.601562 13.832031 9.652344 12.917969 10.554688 L 11.941406 11.515625 L 12.339844 11.519531 C 12.671875 11.519531 12.726562 11.484375 12.664062 11.296875 C 12.546875 10.921875 12.84375 10.824219 14.289062 10.757812 C 15.050781 10.722656 15.828125 10.65625 16.007812 10.613281 C 16.21875 10.558594 16.578125 10.609375 16.976562 10.742188 C 17.542969 10.9375 17.6875 10.941406 18.375 10.796875 C 18.929688 10.679688 19.226562 10.542969 19.457031 10.296875 C 19.824219 9.910156 19.886719 9.890625 19.941406 10.144531 C 19.972656 10.292969 20.152344 10.226562 20.796875 9.835938 C 21.261719 9.558594 21.726562 9.359375 21.875 9.382812 C 22.167969 9.425781 22.128906 9.640625 21.824219 9.664062 C 21.71875 9.671875 21.378906 9.84375 21.070312 10.046875 C 20.761719 10.253906 20.109375 10.566406 19.613281 10.746094 C 18.691406 11.082031 18.507812 11.3125 18.898438 11.640625 C 19.132812 11.832031 19.128906 12 18.898438 12 C 18.796875 12 18.625 11.808594 18.511719 11.574219 C 18.320312 11.171875 18.285156 11.152344 17.871094 11.222656 C 17.589844 11.269531 17.269531 11.230469 16.980469 11.109375 C 16.734375 11.003906 16.429688 10.921875 16.304688 10.921875 C 16.117188 10.921875 16.148438 10.984375 16.46875 11.269531 C 17.019531 11.761719 16.800781 11.863281 16.164062 11.40625 C 15.824219 11.160156 15.492188 11.023438 15.226562 11.023438 C 14.449219 11.019531 12.953125 11.191406 12.890625 11.296875 C 12.855469 11.351562 12.949219 11.402344 13.101562 11.402344 C 13.253906 11.402344 13.984375 11.453125 14.71875 11.515625 C 15.839844 11.609375 16.175781 11.683594 16.785156 11.992188 C 17.304688 12.253906 17.683594 12.359375 18.101562 12.359375 C 18.597656 12.359375 18.722656 12.40625 18.890625 12.660156 C 19.035156 12.882812 19.191406 12.960938 19.496094 12.960938 C 19.722656 12.960938 19.933594 13.007812 19.96875 13.0625 C 20.003906 13.121094 20.328125 13.171875 20.6875 13.175781 C 21.398438 13.179688 21.582031 13.019531 21.355469 12.589844 C 21.257812 12.410156 21.101562 12.359375 20.648438 12.359375 C 20.265625 12.359375 19.976562 12.285156 19.796875 12.140625 C 19.546875 11.9375 19.539062 11.894531 19.695312 11.570312 C 19.835938 11.273438 19.945312 11.210938 20.433594 11.160156 C 20.917969 11.109375 21.039062 11.042969 21.234375 10.71875 C 21.421875 10.414062 21.558594 10.328125 21.917969 10.296875 C 22.285156 10.265625 22.40625 10.191406 22.546875 9.898438 C 22.640625 9.703125 22.757812 9.460938 22.804688 9.359375 C 22.859375 9.25 23.039062 9.1875 23.265625 9.199219 C 23.550781 9.210938 23.640625 9.164062 23.640625 9 C 23.640625 8.703125 23.378906 8.632812 22.875 8.785156 C 22.171875 9.003906 21.960938 8.683594 22.273438 7.871094 C 22.417969 7.496094 22.078125 7.6875 21.917969 8.074219 C 21.742188 8.492188 21.414062 8.878906 21.234375 8.878906 C 21.175781 8.878906 21.042969 8.71875 20.941406 8.519531 C 20.835938 8.320312 20.714844 8.160156 20.664062 8.160156 C 20.613281 8.160156 20.46875 8.351562 20.34375 8.589844 C 20.0625 9.113281 19.261719 9.769531 19.019531 9.675781 C 18.910156 9.636719 18.839844 9.449219 18.835938 9.214844 L 18.832031 8.820312 L 18.265625 9.441406 C 17.597656 10.171875 17.335938 10.320312 16.710938 10.320312 C 16.191406 10.320312 15.960938 10.152344 15.960938 9.78125 C 15.960938 9.449219 16.179688 9.238281 16.527344 9.238281 C 16.742188 9.238281 16.824219 9.15625 16.878906 8.875 C 16.980469 8.367188 17.441406 8.039062 18.054688 8.039062 C 18.695312 8.039062 18.769531 7.960938 18.480469 7.589844 C 18.207031 7.246094 18.285156 7.007812 18.804688 6.601562 C 19.042969 6.414062 19.234375 6.363281 19.496094 6.410156 C 19.695312 6.445312 19.941406 6.421875 20.039062 6.355469 C 20.191406 6.257812 20.179688 6.207031 19.9375 6.019531 C 19.382812 5.589844 19.613281 5.363281 21.46875 4.511719 C 21.839844 4.34375 21.933594 4.078125 21.625 4.078125 C 21.296875 4.078125 21.082031 3.785156 21.183594 3.46875 C 21.230469 3.324219 21.484375 2.96875 21.75 2.683594 C 22.222656 2.171875 22.226562 2.160156 21.925781 2.160156 C 21.699219 2.160156 21.511719 2.3125 21.183594 2.769531 M 3.007812 7.050781 C 3.023438 7.472656 3.207031 7.726562 3.578125 7.851562 C 3.988281 7.992188 4.046875 8.238281 3.660156 8.191406 C 3.527344 8.179688 3.132812 8.128906 2.777344 8.085938 C 2.289062 8.023438 2.109375 8.042969 2.03125 8.171875 C 1.730469 8.644531 2.175781 9.121094 2.917969 9.121094 C 3.507812 9.121094 3.8125 9.375 4.082031 10.078125 C 4.292969 10.644531 4.542969 10.921875 5.011719 11.117188 C 5.332031 11.253906 5.398438 11.347656 5.398438 11.65625 C 5.398438 11.925781 5.511719 12.132812 5.820312 12.414062 C 6.234375 12.792969 6.351562 13.117188 6.125 13.257812 C 5.9375 13.371094 4.167969 12.695312 3.863281 12.394531 C 3.679688 12.210938 3.445312 12.121094 3.160156 12.121094 C 2.851562 12.121094 2.613281 12.015625 2.3125 11.753906 C 1.792969 11.296875 1.519531 11.332031 1.441406 11.867188 C 1.378906 12.292969 1.234375 12.421875 0.691406 12.535156 C 0.472656 12.582031 0.359375 12.679688 0.359375 12.828125 C 0.359375 13.203125 0.664062 13.355469 1.246094 13.269531 C 1.648438 13.207031 1.816406 13.234375 1.964844 13.382812 C 2.230469 13.644531 2.210938 13.761719 1.871094 13.984375 C 1.507812 14.222656 1.394531 14.5 1.574219 14.714844 C 1.789062 14.976562 2.058594 14.910156 2.390625 14.511719 C 2.617188 14.238281 2.855469 14.109375 3.289062 14.03125 C 4.292969 13.84375 4.242188 13.773438 2.839844 13.410156 C 1.78125 13.136719 1.511719 12.960938 2.160156 12.960938 C 2.359375 12.960938 2.519531 12.902344 2.519531 12.832031 C 2.519531 12.757812 2.359375 12.539062 2.160156 12.339844 C 1.800781 11.984375 1.703125 11.761719 1.90625 11.761719 C 2.109375 11.761719 2.53125 12.179688 2.796875 12.644531 C 3.019531 13.035156 3.167969 13.144531 3.75 13.324219 L 4.441406 13.535156 L 4.441406 13.238281 C 4.441406 12.835938 4.730469 12.941406 4.777344 13.363281 C 4.828125 13.769531 5.175781 13.992188 5.917969 14.085938 C 6.238281 14.125 6.816406 14.285156 7.203125 14.441406 C 7.59375 14.601562 7.9375 14.699219 7.972656 14.667969 C 8.007812 14.632812 7.664062 14.214844 7.214844 13.738281 C 6.453125 12.9375 6.359375 12.78125 6 11.683594 C 5.621094 10.527344 5 9.394531 4.378906 8.730469 C 3.914062 8.234375 4.144531 8.058594 4.632812 8.53125 L 5.039062 8.925781 L 5.039062 8.613281 C 5.039062 8.210938 5.152344 7.921875 5.308594 7.921875 C 5.390625 7.921875 5.40625 8.1875 5.359375 8.671875 C 5.308594 9.203125 5.332031 9.480469 5.445312 9.628906 C 5.589844 9.816406 5.625 9.792969 5.824219 9.347656 C 6.019531 8.921875 6.027344 8.792969 5.894531 8.300781 C 5.675781 7.472656 5.511719 7.351562 5.058594 7.6875 C 4.625 8.003906 4.417969 7.902344 4.140625 7.238281 C 3.988281 6.878906 3.921875 6.839844 3.484375 6.839844 C 3.101562 6.839844 3 6.882812 3.007812 7.050781 M 10.90625 12.40625 C 10.21875 12.980469 10.210938 12.992188 10.414062 13.269531 C 10.71875 13.683594 10.851562 13.699219 11.707031 13.421875 C 12.132812 13.28125 12.515625 13.195312 12.554688 13.234375 C 12.695312 13.375 12.46875 13.535156 11.929688 13.667969 C 11.472656 13.785156 11.402344 13.839844 11.519531 13.980469 C 11.601562 14.074219 11.859375 14.1875 12.101562 14.230469 C 12.34375 14.273438 12.917969 14.535156 13.378906 14.816406 C 13.84375 15.097656 14.394531 15.359375 14.609375 15.402344 C 15.007812 15.476562 15.71875 15.925781 15.71875 16.101562 C 15.71875 16.273438 15.402344 16.207031 15.105469 15.976562 C 14.949219 15.855469 14.644531 15.726562 14.429688 15.699219 C 14.074219 15.644531 14.054688 15.660156 14.21875 15.839844 C 14.320312 15.949219 14.683594 16.167969 15.03125 16.324219 C 15.785156 16.667969 17.609375 17.734375 17.707031 17.890625 C 17.789062 18.019531 18.683594 18.039062 18.757812 17.910156 C 18.785156 17.859375 18.628906 17.542969 18.40625 17.199219 C 18.070312 16.683594 17.90625 16.546875 17.402344 16.378906 C 17.03125 16.257812 16.546875 15.953125 16.15625 15.59375 C 15.492188 14.988281 15.066406 14.761719 14.589844 14.761719 C 14.03125 14.761719 13.609375 13.78125 13.917969 13.203125 C 14.046875 12.964844 14.121094 12.941406 14.5625 13.015625 C 14.835938 13.0625 15.367188 13.09375 15.746094 13.082031 C 16.515625 13.0625 16.828125 13.1875 17.316406 13.707031 C 17.585938 14 17.710938 14.050781 17.976562 13.984375 C 18.996094 13.722656 19.140625 13.75 19.554688 14.269531 C 20.363281 15.292969 20.78125 15.117188 20.210938 13.992188 C 19.882812 13.347656 19.6875 13.207031 19.113281 13.203125 C 18.964844 13.199219 18.761719 13.070312 18.65625 12.914062 C 18.503906 12.679688 18.367188 12.628906 17.898438 12.628906 C 17.527344 12.628906 17.117188 12.523438 16.734375 12.328125 C 16.40625 12.164062 15.949219 11.992188 15.71875 11.945312 C 15.308594 11.859375 15.304688 11.863281 15.570312 12.054688 C 15.8125 12.234375 15.945312 12.601562 15.765625 12.601562 C 15.726562 12.601562 15.496094 12.445312 15.257812 12.257812 C 14.996094 12.050781 14.609375 11.886719 14.296875 11.847656 L 13.773438 11.78125 L 14.109375 12.128906 C 14.386719 12.417969 14.40625 12.480469 14.234375 12.480469 C 14.117188 12.480469 13.859375 12.320312 13.664062 12.125 C 13.332031 11.789062 13.257812 11.769531 12.453125 11.792969 C 11.621094 11.820312 11.582031 11.835938 10.90625 12.40625 M 8.597656 14.460938 C 7.894531 15.15625 7.320312 15.753906 7.320312 15.789062 C 7.320312 15.824219 7.511719 15.816406 7.75 15.769531 C 8.085938 15.707031 8.253906 15.746094 8.527344 15.945312 L 8.875 16.203125 L 8.945312 15.917969 C 8.984375 15.761719 9 15.535156 8.980469 15.417969 C 8.957031 15.300781 9.007812 15.179688 9.089844 15.152344 C 9.195312 15.117188 9.238281 15.261719 9.238281 15.644531 C 9.238281 16.054688 9.136719 16.359375 8.820312 16.882812 L 8.398438 17.578125 L 8.753906 17.617188 C 8.945312 17.636719 9.265625 17.570312 9.460938 17.46875 C 9.78125 17.304688 9.832031 17.304688 9.976562 17.480469 C 10.132812 17.667969 10.171875 18.457031 10.082031 19.414062 C 10.023438 20.007812 10.21875 20.109375 10.667969 19.730469 C 10.878906 19.554688 11.066406 19.429688 11.089844 19.457031 C 11.339844 19.746094 11.464844 20.296875 11.515625 21.359375 C 11.574219 22.507812 11.601562 22.625 11.820312 22.65625 C 11.972656 22.675781 12.234375 22.511719 12.539062 22.203125 L 13.011719 21.714844 L 12.441406 20.5625 C 12.125 19.929688 11.839844 19.4375 11.808594 19.46875 C 11.777344 19.503906 11.804688 19.765625 11.871094 20.054688 C 11.941406 20.371094 11.945312 20.625 11.878906 20.691406 C 11.722656 20.84375 11.550781 20.328125 11.449219 19.421875 C 11.355469 18.574219 10.859375 17.472656 9.769531 15.714844 C 9.414062 15.136719 9.121094 14.605469 9.121094 14.53125 C 9.121094 14.234375 9.367188 14.441406 9.761719 15.070312 C 10.152344 15.695312 10.1875 15.722656 10.3125 15.492188 C 10.386719 15.351562 10.554688 15.238281 10.683594 15.238281 C 10.988281 15.238281 10.980469 15.289062 10.613281 15.65625 C 10.316406 15.949219 10.3125 15.972656 10.503906 16.296875 C 10.644531 16.53125 10.878906 16.679688 11.3125 16.804688 C 11.980469 16.996094 12.296875 17.371094 11.6875 17.246094 C 11.496094 17.207031 11.242188 17.136719 11.121094 17.089844 C 10.933594 17.019531 10.953125 17.117188 11.261719 17.722656 C 11.570312 18.339844 11.6875 18.457031 12.09375 18.578125 C 12.640625 18.742188 13.234375 19.167969 13.136719 19.328125 C 13.097656 19.386719 12.804688 19.289062 12.484375 19.105469 C 11.847656 18.753906 11.59375 18.792969 11.988281 19.1875 C 12.121094 19.324219 12.417969 19.800781 12.644531 20.246094 C 12.914062 20.777344 13.183594 21.136719 13.425781 21.277344 C 13.90625 21.554688 14.378906 22.367188 14.476562 23.078125 C 14.535156 23.515625 14.601562 23.640625 14.773438 23.640625 C 15.015625 23.640625 15.238281 23.304688 15.238281 22.929688 C 15.238281 22.796875 15.121094 22.445312 14.976562 22.148438 C 14.75 21.675781 14.734375 21.570312 14.875 21.3125 C 14.960938 21.152344 14.996094 20.894531 14.957031 20.738281 C 14.917969 20.585938 14.316406 19.847656 13.621094 19.101562 C 12.929688 18.351562 12.359375 17.703125 12.359375 17.652344 C 12.359375 17.535156 13.082031 16.863281 13.378906 16.707031 C 13.582031 16.597656 13.699219 16.664062 14.191406 17.167969 C 14.507812 17.492188 14.816406 17.894531 14.878906 18.0625 C 15.027344 18.449219 15.324219 18.566406 15.5625 18.332031 C 15.707031 18.1875 15.722656 18.023438 15.640625 17.527344 C 15.546875 16.945312 15.507812 16.894531 15.023438 16.675781 L 14.503906 16.445312 L 14.542969 16.761719 C 14.601562 17.273438 14.304688 17.234375 14.207031 16.71875 C 14.160156 16.464844 13.996094 16.09375 13.84375 15.890625 C 13.6875 15.683594 13.558594 15.46875 13.558594 15.410156 C 13.558594 15.304688 12.796875 14.761719 12.652344 14.761719 C 12.613281 14.761719 12.75 14.960938 12.953125 15.207031 C 13.292969 15.621094 13.425781 15.960938 13.242188 15.960938 C 13.199219 15.960938 12.988281 15.757812 12.769531 15.511719 L 12.371094 15.058594 L 12.363281 15.75 C 12.359375 16.304688 12.320312 16.441406 12.167969 16.441406 C 12 16.441406 11.984375 16.339844 12.054688 15.78125 C 12.101562 15.417969 12.101562 15.015625 12.058594 14.882812 C 11.984375 14.644531 10.964844 13.957031 10.851562 14.070312 C 10.820312 14.101562 10.847656 14.273438 10.917969 14.449219 C 11.082031 14.882812 11.070312 15 10.875 15 C 10.777344 15 10.648438 14.769531 10.566406 14.441406 C 10.40625 13.800781 10.121094 13.199219 9.972656 13.199219 C 9.917969 13.199219 9.300781 13.769531 8.597656 14.460938 M 4.199219 14.097656 C 4.035156 14.191406 3.671875 14.304688 3.398438 14.347656 C 3.121094 14.390625 2.800781 14.53125 2.683594 14.660156 C 2.476562 14.886719 2.480469 14.890625 2.804688 14.765625 C 3.046875 14.671875 3.324219 14.683594 3.828125 14.800781 C 4.28125 14.902344 4.625 14.921875 4.8125 14.851562 C 4.992188 14.785156 5.257812 14.792969 5.519531 14.871094 C 6.0625 15.039062 7.355469 15.230469 7.46875 15.160156 C 7.667969 15.039062 7.535156 14.902344 7.035156 14.710938 C 6.636719 14.5625 6.4375 14.542969 6.1875 14.636719 C 5.675781 14.832031 5.492188 14.796875 5.578125 14.519531 C 5.640625 14.324219 5.601562 14.28125 5.371094 14.28125 C 5.214844 14.28125 4.980469 14.199219 4.851562 14.105469 C 4.570312 13.886719 4.570312 13.886719 4.199219 14.097656 M 15.960938 17.628906 C 15.960938 17.898438 16.015625 18.121094 16.085938 18.121094 C 16.15625 18.121094 16.34375 18.417969 16.507812 18.785156 L 16.800781 19.449219 L 17.394531 19.371094 C 17.933594 19.296875 18.011719 19.320312 18.292969 19.625 C 18.460938 19.804688 18.601562 20.019531 18.601562 20.09375 C 18.601562 20.34375 19.082031 20.761719 19.371094 20.761719 C 19.523438 20.761719 19.71875 20.675781 19.804688 20.574219 C 19.9375 20.414062 19.886719 20.3125 19.460938 19.882812 C 19.097656 19.519531 18.960938 19.441406 18.960938 19.59375 C 18.960938 19.707031 18.914062 19.800781 18.859375 19.800781 C 18.710938 19.800781 18.359375 19.386719 18.359375 19.210938 C 18.359375 18.792969 17.714844 18.199219 16.410156 17.410156 L 15.960938 17.140625 L 15.960938 17.628906 M 18.960938 18.058594 C 18.960938 18.15625 18.789062 18.277344 18.578125 18.332031 L 18.191406 18.433594 L 18.652344 18.785156 C 18.90625 18.980469 19.289062 19.289062 19.5 19.46875 C 19.769531 19.699219 20.027344 19.800781 20.324219 19.800781 C 20.816406 19.800781 20.867188 19.695312 20.519531 19.378906 C 20.230469 19.117188 20.21875 18.984375 20.476562 18.703125 C 20.746094 18.402344 20.503906 18.121094 19.972656 18.121094 C 19.753906 18.121094 19.4375 18.066406 19.269531 18.003906 C 19.023438 17.910156 18.960938 17.921875 18.960938 18.058594 M 12.902344 19.917969 C 12.71875 20.214844 14.042969 20.878906 14.480469 20.707031 C 14.75 20.605469 14.546875 20.398438 14.167969 20.398438 C 13.984375 20.398438 13.636719 20.269531 13.398438 20.105469 C 13.160156 19.945312 12.9375 19.859375 12.902344 19.917969 M 13.371094 21.960938 C 13.421875 22.191406 13.476562 22.589844 13.492188 22.847656 C 13.523438 23.277344 13.785156 23.640625 14.0625 23.640625 C 14.398438 23.640625 13.945312 22.089844 13.5 21.71875 C 13.296875 21.550781 13.289062 21.566406 13.371094 21.960938 "/>
</g>
</svg>
