<?xml version="1.0" encoding="UTF-8"?>
<svg xmlns="http://www.w3.org/2000/svg" xmlns:xlink="http://www.w3.org/1999/xlink" width="100px" height="100px" viewBox="0 0 100 100" version="1.1">
<g id="surface1">
<path style=" stroke:none;fill-rule:evenodd;fill:rgb(0%,0%,0%);fill-opacity:1;" d="M 50.015625 1.46875 C 49.734375 2 49.5 2.9375 49.5 3.554688 L 49.5 4.675781 L 48.375 3.660156 C 46.515625 1.988281 45.992188 1.851562 44.96875 2.777344 C 43.539062 4.074219 43.78125 5.480469 45.75 7.28125 C 47.828125 9.1875 47.957031 10.5625 46.25 12.589844 C 44.824219 14.285156 44.664062 15.800781 45.753906 17.355469 C 46.363281 18.222656 46.394531 18.683594 45.925781 19.710938 C 45.457031 20.738281 45.507812 21.40625 46.179688 23.113281 C 46.980469 25.152344 46.972656 25.289062 46.007812 26.597656 C 44.828125 28.195312 44.738281 29.535156 45.6875 31.398438 C 46.820312 33.632812 47.199219 35.183594 46.5 34.75 C 45.460938 34.105469 44.023438 30.339844 44.011719 28.226562 C 43.992188 25.128906 42.363281 24.082031 40.339844 25.875 C 39.386719 26.722656 39.363281 26.710938 39.625 25.5 C 41.132812 18.570312 41.140625 18.519531 40.5 17.75 C 39.933594 17.066406 39.671875 17.09375 38.121094 18.011719 C 36.539062 18.941406 36.414062 18.953125 36.75 18.144531 C 37.964844 15.222656 38.132812 14.566406 37.84375 13.8125 C 37.304688 12.40625 36.035156 12.292969 34.714844 13.535156 L 33.480469 14.695312 L 32.644531 13.503906 C 30.246094 10.078125 28.757812 9.703125 26.792969 12.039062 C 25.089844 14.0625 25.160156 15.164062 27.09375 16.675781 C 28.429688 17.71875 28.585938 18.046875 28.058594 18.679688 C 27.710938 19.097656 26.9375 19.507812 26.339844 19.59375 C 24.335938 19.878906 24.71875 21.703125 27.21875 23.75 C 29.347656 25.496094 29.472656 25.734375 29.195312 27.46875 C 28.933594 29.121094 29.125 29.582031 30.949219 31.691406 C 33.058594 34.128906 33.394531 35.328125 32.464844 37.0625 C 31.652344 38.585938 31.75 40.898438 32.675781 41.914062 C 33.71875 43.070312 33.742188 44.9375 32.71875 45.332031 C 32.289062 45.496094 31.386719 45.382812 30.71875 45.078125 C 29.625 44.578125 29.5 44.214844 29.5 41.511719 L 29.5 38.5 L 27.828125 38.5 C 26.1875 38.5 26.15625 38.460938 26.125 36.242188 C 26.074219 32.984375 24.554688 30.289062 22.660156 30.097656 C 21.761719 30.007812 20.90625 30.257812 20.519531 30.722656 C 19.613281 31.820312 19.15625 31.691406 18.792969 30.238281 C 18.292969 28.25 16.71875 27 14.71875 27 C 11.410156 27 10.1875 28.546875 11.515625 31.03125 C 11.984375 31.902344 11.859375 32 10.304688 32 C 8.132812 32 7 33.097656 7 35.199219 C 7 37.535156 8.828125 39.082031 11.949219 39.382812 C 14.390625 39.617188 14.445312 39.660156 15.519531 42.183594 C 16.863281 45.34375 17.789062 46.445312 19.84375 47.3125 C 21.175781 47.875 21.464844 48.296875 21.59375 49.851562 C 21.71875 51.335938 22.109375 51.964844 23.5 52.921875 C 24.460938 53.582031 24.914062 53.996094 24.5 53.84375 C 24.085938 53.6875 22.523438 53.179688 21.019531 52.714844 C 19.519531 52.25 17.644531 51.222656 16.859375 50.433594 C 15.828125 49.402344 14.933594 49 13.679688 49 C 12.601562 49 11.320312 48.535156 10.339844 47.789062 C 7.046875 45.28125 5.238281 45.699219 4.542969 49.128906 C 4.273438 50.460938 3.949219 50.78125 2.730469 50.917969 C -0.257812 51.261719 -0.90625 53.378906 1.265625 55.722656 C 2.441406 56.988281 2.722656 57.0625 5.140625 56.734375 L 7.75 56.382812 L 6.375 57.667969 C 3.355469 60.488281 5.355469 63.941406 9.617188 63.273438 C 13.757812 62.625 28.683594 63.582031 29.269531 64.53125 C 29.410156 64.757812 28.222656 66.25 26.628906 67.847656 C 25.039062 69.445312 22.652344 72.492188 21.332031 74.625 C 20.011719 76.757812 18.71875 78.5 18.464844 78.5 C 18.210938 78.5 18 78.835938 18 79.25 C 18 81.289062 19.832031 79.609375 22.90625 74.75 C 26.574219 68.957031 28.328125 67.410156 31.515625 67.160156 C 33.042969 67.039062 34.382812 67.195312 34.796875 67.539062 C 35.699219 68.289062 35.671875 69.980469 34.734375 71.21875 C 32.546875 74.113281 35.484375 76.175781 39.105469 74.289062 C 40.347656 73.636719 40.484375 73.664062 40.777344 74.582031 C 40.949219 75.132812 40.941406 77.113281 40.75 78.988281 C 40.363281 82.835938 40.925781 84.5 42.601562 84.5 C 43.191406 84.5 44.085938 84.125 44.589844 83.667969 C 45.09375 83.214844 45.671875 83.007812 45.878906 83.210938 C 46.082031 83.414062 46.328125 85.980469 46.421875 88.914062 C 46.515625 91.847656 46.8125 94.515625 47.082031 94.84375 C 47.347656 95.167969 48.253906 95.585938 49.085938 95.769531 C 50.382812 96.054688 50.875 95.835938 52.484375 94.265625 C 54.601562 92.195312 55 92.476562 55 96.046875 C 55 97.730469 55.234375 98.15625 56.625 99.003906 C 58.378906 100.074219 61.484375 100.3125 63.015625 99.492188 C 63.539062 99.210938 64.222656 98.121094 64.539062 97.066406 C 65.035156 95.410156 64.96875 94.824219 64.054688 92.761719 C 63.15625 90.722656 63.082031 90.097656 63.554688 88.515625 C 64.304688 86.007812 63.652344 84.882812 58.035156 79.007812 C 55.539062 76.402344 53.5 74.023438 53.5 73.726562 C 53.5 73.429688 54.128906 72.585938 54.898438 71.847656 L 56.296875 70.507812 L 58.339844 72.628906 C 59.460938 73.796875 60.6875 75.425781 61.066406 76.25 C 61.601562 77.414062 62.132812 77.785156 63.441406 77.910156 C 64.367188 78 65.367188 77.832031 65.664062 77.535156 C 66.546875 76.65625 66.890625 76.90625 67.523438 78.875 C 68.519531 81.976562 69.273438 82.511719 72.429688 82.371094 C 75.078125 82.257812 75.242188 82.320312 75.917969 83.75 C 77.042969 86.132812 79.046875 88 80.484375 88 C 82.304688 88 83.90625 86.726562 84.09375 85.136719 C 84.222656 84.003906 84.496094 83.777344 85.75 83.765625 C 87.023438 83.753906 87.273438 83.535156 87.414062 82.332031 C 87.503906 81.527344 87.226562 80.527344 86.773438 80.027344 C 86.058594 79.238281 86.054688 79.078125 86.738281 78.511719 C 88.816406 76.785156 86.285156 74 82.644531 74 C 80.222656 74 78.558594 72.734375 76.933594 69.664062 C 76.316406 68.503906 75.453125 67.898438 73.457031 67.234375 C 71.886719 66.714844 69.867188 65.496094 68.523438 64.261719 C 65.28125 61.28125 63.984375 60.5 62.261719 60.492188 C 59.96875 60.480469 59.347656 59.839844 59.296875 57.421875 C 59.253906 55.503906 59.367188 55.273438 60.25 55.457031 C 60.800781 55.570312 62.601562 55.710938 64.25 55.773438 C 65.898438 55.832031 67.65625 55.910156 68.148438 55.941406 C 68.644531 55.972656 69.855469 56.78125 70.835938 57.734375 C 73.152344 59.984375 73.878906 60.175781 76.527344 59.242188 L 78.71875 58.46875 L 81.0625 61.019531 C 83.109375 63.246094 83.621094 63.550781 85.078125 63.410156 C 87.207031 63.207031 87.503906 61.773438 86.015625 58.914062 C 85.429688 57.796875 85.097656 56.738281 85.273438 56.566406 C 85.449219 56.390625 86.390625 56.25 87.359375 56.25 C 89.769531 56.25 91.34375 54.300781 90.476562 52.394531 C 89.734375 50.765625 88.054688 50 85.226562 50 C 83.667969 50 83 49.792969 83 49.3125 C 83 48.171875 84.308594 47.433594 85.707031 47.785156 C 87.328125 48.191406 89.5 46.875 89.5 45.488281 C 89.5 44.699219 89.839844 44.5 91.183594 44.5 C 93.300781 44.5 95.386719 42.898438 95.59375 41.113281 C 95.726562 39.945312 95.960938 39.765625 97.21875 39.855469 C 99.011719 39.988281 100 39.246094 100 37.765625 C 100 35.816406 98.339844 34.816406 95.707031 35.179688 C 93.726562 35.449219 93.4375 35.382812 93.699219 34.699219 C 94.492188 32.628906 94.523438 31.640625 93.804688 31.046875 C 92.578125 30.027344 91.167969 30.878906 90.007812 33.339844 L 88.925781 35.644531 L 87.972656 34.070312 C 87.445312 33.207031 86.691406 32.5 86.292969 32.5 C 85.496094 32.5 84 33.816406 84 34.519531 C 84 35.136719 81 38.5 80.449219 38.5 C 80.203125 38.5 80 38.09375 80 37.601562 C 80 36.652344 79.101562 35.5 78.359375 35.5 C 78.117188 35.5 76.625 36.851562 75.039062 38.5 C 72.421875 41.222656 71.964844 41.5 70.078125 41.5 C 68.566406 41.5 68 41.296875 68 40.75 C 68 40.300781 68.460938 40 69.148438 40 C 70.589844 40 71.5 39.121094 71.5 37.726562 C 71.5 36.167969 72.917969 35.179688 75.667969 34.820312 C 76.996094 34.648438 78.289062 34.378906 78.542969 34.222656 C 79.25 33.785156 79.082031 31.921875 78.253906 31.003906 C 77.589844 30.269531 77.617188 30.0625 78.519531 29.09375 C 79.261719 28.296875 80.054688 28.027344 81.511719 28.085938 C 82.808594 28.136719 83.835938 27.851562 84.496094 27.253906 C 85.761719 26.109375 85.753906 25.753906 84.425781 24.425781 C 83.371094 23.371094 83.371094 23.332031 84.300781 22.652344 C 84.820312 22.269531 86.34375 21.570312 87.679688 21.101562 C 92 19.585938 93.910156 16.6875 91.035156 16.007812 C 89.136719 15.558594 89.277344 14.785156 91.75 12 C 94.742188 8.628906 94.585938 7.859375 90.800781 7.386719 C 87.996094 7.035156 87.78125 7.089844 86.125 8.542969 C 85.171875 9.378906 84.132812 9.96875 83.820312 9.851562 C 80.902344 8.757812 80.964844 8.726562 78.097656 12.445312 C 77.199219 13.613281 77.148438 13.617188 75.839844 12.761719 C 74.574219 11.933594 74.425781 11.933594 73.203125 12.734375 C 72.488281 13.203125 71.332031 14.859375 70.628906 16.417969 C 69.925781 17.976562 69.292969 19.320312 69.222656 19.410156 C 69.15625 19.496094 68.625 19.273438 68.046875 18.914062 C 66.4375 17.90625 65.363281 18.925781 64.472656 22.300781 C 63.917969 24.398438 63.484375 25.195312 62.972656 25.054688 C 60.746094 24.460938 60.101562 24.507812 59.089844 25.335938 C 58.332031 25.953125 57.835938 27.109375 57.554688 28.90625 C 57.140625 31.542969 56.335938 33.003906 55.664062 32.332031 C 55.195312 31.859375 56.3125 27.5625 58.066406 23.113281 C 58.855469 21.109375 59.5 18.910156 59.5 18.222656 C 59.5 16.738281 58.246094 16.105469 56.933594 16.925781 C 55.804688 17.632812 55.800781 17.589844 56.78125 14.21875 C 57.210938 12.738281 57.492188 10.679688 57.40625 9.640625 C 57.277344 8.105469 57.035156 7.71875 56.097656 7.585938 C 55.464844 7.496094 54.585938 7.71875 54.148438 8.082031 C 53.433594 8.679688 53.390625 8.460938 53.714844 5.84375 C 54 3.574219 53.90625 2.679688 53.277344 1.722656 C 52.316406 0.257812 50.730469 0.132812 50.015625 1.46875 M 51 3.648438 C 51 4.597656 50.652344 5.664062 50.230469 6.015625 C 49.582031 6.554688 49.183594 6.386719 47.707031 4.960938 C 46.289062 3.582031 45.871094 3.398438 45.511719 3.984375 C 45.1875 4.503906 45.617188 5.308594 47.03125 6.84375 C 49.339844 9.34375 49.511719 10.816406 47.75 12.910156 C 46.0625 14.914062 46.140625 16.34375 47.996094 17.398438 C 49.792969 18.421875 49.832031 18.617188 48.375 19.257812 C 47.179688 19.78125 47.074219 20.617188 47.769531 24.15625 C 48.066406 25.679688 47.9375 26.339844 47.128906 27.433594 L 46.113281 28.804688 L 47.300781 31.625 C 48.679688 34.890625 48.46875 36.125 46.566406 35.902344 C 44.886719 35.707031 43.074219 32.519531 42.660156 29.03125 C 42.496094 27.640625 42.273438 26.5 42.164062 26.5 C 42.054688 26.5 41.460938 26.832031 40.839844 27.234375 C 39.832031 27.898438 39.554688 27.871094 38.109375 26.992188 C 36.984375 26.308594 36.5 25.636719 36.5 24.757812 C 36.5 23.34375 37.226562 23.097656 37.886719 24.28125 C 38.210938 24.859375 38.492188 24.316406 38.957031 22.242188 C 39.664062 19.09375 39.445312 18.445312 38.089844 19.667969 C 35.828125 21.714844 34.765625 19.847656 36.097656 16.171875 C 36.859375 14.066406 36.316406 13.527344 34.839844 14.914062 C 33.25 16.40625 32.832031 16.300781 31.308594 14 C 29.859375 11.808594 28.355469 11.398438 27.515625 12.96875 C 26.707031 14.480469 26.898438 15.277344 28.25 16 C 30.347656 17.121094 29.710938 20.5 27.398438 20.5 C 26.03125 20.5 26.304688 21.160156 28.5 23.132812 C 30.257812 24.710938 30.5 25.191406 30.5 27.125 C 30.5 28.8125 30.785156 29.59375 31.722656 30.472656 C 32.394531 31.105469 33.324219 32.421875 33.789062 33.402344 C 34.582031 35.074219 34.582031 35.324219 33.769531 37.578125 C 32.929688 39.917969 32.933594 40.007812 33.953125 41.304688 C 35.285156 42.996094 35.285156 44.714844 33.953125 46.046875 C 33.117188 46.882812 32.550781 47.027344 31.140625 46.761719 C 29.484375 46.453125 29.390625 46.503906 29.652344 47.589844 C 30.433594 50.835938 30.578125 52.5 30.085938 52.5 C 29.066406 52.5 28.773438 51.195312 28.511719 45.5 L 28.25 39.75 L 26.75 39.921875 C 25.925781 40.019531 25.148438 40.195312 25.027344 40.3125 C 24.46875 40.851562 25.015625 44.421875 26.25 48.296875 C 27.351562 51.753906 28.066406 53.039062 30.164062 55.335938 C 32.621094 58.023438 32.746094 58.09375 33.066406 56.945312 C 33.25 56.289062 33.421875 54.007812 33.449219 51.875 C 33.480469 49.402344 33.699219 48 34.054688 48 C 34.4375 48 34.550781 49.765625 34.425781 53.75 C 34.324219 56.914062 34.3125 59.5 34.402344 59.5 C 34.488281 59.5 35.503906 58.617188 36.65625 57.539062 C 37.808594 56.464844 39.382812 55.085938 40.152344 54.484375 C 41.339844 53.550781 41.503906 53.148438 41.21875 51.816406 C 41.027344 50.929688 40.152344 49.640625 39.191406 48.839844 C 38.261719 48.0625 37.5 47.105469 37.5 46.714844 C 37.5 45.660156 38.175781 45.84375 39.5 47.25 C 40.144531 47.9375 40.867188 48.5 41.101562 48.5 C 42.0625 48.5 42.03125 46.945312 41.046875 45.699219 C 40.472656 44.964844 40 43.710938 40 42.914062 C 40 40.890625 38.644531 39 37.191406 39 C 36.441406 39 36 38.710938 36 38.214844 C 36 37.660156 36.289062 37.523438 37 37.75 C 37.550781 37.925781 38 37.871094 38 37.632812 C 38 36.632812 34.554688 27.113281 33.605469 25.5 C 33.042969 24.539062 32.316406 22.738281 31.992188 21.5 C 31.671875 20.261719 30.9375 18.410156 30.363281 17.378906 C 29.792969 16.351562 29.46875 15.363281 29.648438 15.183594 C 30.148438 14.6875 31.320312 15.855469 32.019531 17.550781 C 32.429688 18.539062 32.777344 18.859375 33.019531 18.46875 C 33.824219 17.164062 34.546875 18.589844 34.210938 20.828125 C 33.929688 22.699219 34.113281 23.550781 35.3125 26.007812 C 36.734375 28.917969 37.5 29.699219 37.5 28.25 C 37.5 27.507812 38.085938 27.25 38.597656 27.765625 C 38.746094 27.910156 38.671875 29.070312 38.433594 30.335938 C 38.132812 31.957031 38.207031 33.328125 38.6875 34.945312 C 39.445312 37.5 39.496094 37.726562 39.507812 38.625 C 39.511719 39.042969 39.675781 39 40 38.5 C 40.265625 38.085938 40.488281 36.792969 40.492188 35.625 C 40.496094 34.074219 40.703125 33.5 41.25 33.5 C 42.140625 33.5 42.285156 36.527344 41.5 38.800781 C 40.957031 40.375 41.457031 44.535156 42.203125 44.667969 C 42.453125 44.714844 43.070312 43.289062 43.574219 41.5 C 44.847656 36.984375 44.953125 36.753906 45.515625 37.316406 C 45.824219 37.621094 45.367188 39.976562 44.246094 43.867188 C 42.46875 50.046875 42.125 52.214844 42.972656 51.917969 C 43.234375 51.824219 45.292969 50.074219 47.550781 48.023438 L 51.652344 44.292969 L 51.324219 33.761719 C 51.144531 27.96875 50.664062 20.421875 50.257812 16.988281 C 49.34375 9.28125 49.335938 8.5 50.152344 8.5 C 50.964844 8.5 51.875 16.976562 52.679688 32.03125 L 53.25 42.660156 L 56.125 40.027344 C 58.386719 37.960938 59 37.085938 59 35.917969 C 59 34.183594 59.859375 32.351562 60.488281 32.742188 C 60.738281 32.898438 60.738281 33.664062 60.496094 34.515625 C 59.972656 36.335938 60.175781 36.242188 64.164062 32.78125 C 67.304688 30.054688 69.171875 26.996094 69.726562 23.652344 C 70.058594 21.675781 71.191406 20.027344 71.800781 20.636719 C 71.957031 20.789062 71.867188 21.328125 71.609375 21.832031 C 71.351562 22.335938 71.007812 23.597656 70.847656 24.632812 L 70.558594 26.519531 L 72.890625 24.882812 C 76.175781 22.578125 83.707031 15.289062 86.363281 11.84375 C 88.753906 8.746094 88.921875 7.441406 86.636719 9.726562 C 85.433594 10.929688 84.992188 11.066406 83.140625 10.8125 C 81.414062 10.574219 80.933594 10.691406 80.53125 11.4375 C 80.261719 11.941406 79.265625 13.285156 78.316406 14.421875 C 77.292969 15.644531 76.453125 17.304688 76.25 18.492188 C 76.066406 19.597656 75.707031 20.5 75.457031 20.5 C 74.816406 20.5 74.886719 17.148438 75.550781 15.910156 C 75.976562 15.109375 75.925781 14.710938 75.324219 14.109375 C 74.214844 13 73.183594 14 71.445312 17.875 C 70.070312 20.941406 69.261719 21.5625 68.132812 20.433594 C 67.121094 19.421875 66.132812 20.367188 65.785156 22.6875 C 65.597656 23.9375 65.0625 25.421875 64.597656 25.988281 C 63.84375 26.90625 63.574219 26.953125 62.164062 26.414062 C 60.046875 25.605469 59.203125 26.339844 58.871094 29.289062 C 58.433594 33.191406 54.941406 35.667969 54.171875 32.625 C 53.917969 31.636719 54.40625 29.546875 55.910156 25.175781 C 57.058594 21.835938 58 18.875 58 18.597656 C 58 18.277344 57.542969 18.304688 56.753906 18.671875 C 56.070312 18.988281 55.507812 19.644531 55.503906 20.125 C 55.503906 20.605469 55.164062 21 54.75 21 C 53.722656 21 53.792969 20.203125 55.335938 14.453125 C 56.335938 10.726562 56.527344 9.328125 56.101562 8.902344 C 55.488281 8.289062 55.355469 8.515625 54.78125 11.125 C 54.617188 11.882812 54.15625 12.5 53.757812 12.5 C 52.453125 12.5 51.917969 10.542969 52.085938 6.386719 C 52.203125 3.484375 52.074219 2.289062 51.625 2.132812 C 51.203125 1.988281 51 2.480469 51 3.648438 M 88.265625 11.542969 C 85.152344 15.878906 78.457031 22.476562 73.757812 25.839844 C 71.285156 27.609375 68.839844 29.730469 68.316406 30.554688 L 67.367188 32.050781 L 69.933594 31.710938 C 72.109375 31.421875 72.5 31.496094 72.5 32.183594 C 72.5 32.992188 71.683594 33.152344 67.183594 33.226562 C 66.027344 33.242188 64.8125 33.949219 62.558594 35.910156 C 60.875 37.371094 59.5 38.796875 59.5 39.074219 C 59.5 39.367188 60.449219 39.511719 61.730469 39.417969 C 64.4375 39.214844 64.78125 40.078125 62.234375 40.683594 C 61.03125 40.972656 59.984375 40.925781 59.152344 40.546875 C 57.972656 40.007812 57.640625 40.222656 53.820312 43.980469 L 49.75 47.984375 L 51.410156 47.992188 C 52.800781 48 53.019531 47.851562 52.773438 47.070312 C 52.277344 45.507812 53.515625 45.097656 59.535156 44.824219 C 62.714844 44.683594 65.945312 44.40625 66.707031 44.214844 C 67.574219 43.996094 69.074219 44.203125 70.730469 44.765625 C 73.101562 45.570312 73.699219 45.59375 76.5625 44.992188 C 78.867188 44.503906 80.117188 43.929688 81.074219 42.910156 C 82.597656 41.289062 82.863281 41.207031 83.089844 42.273438 C 83.214844 42.878906 83.972656 42.609375 86.648438 40.992188 C 88.585938 39.820312 90.523438 39.003906 91.148438 39.09375 C 92.375 39.265625 92.210938 40.171875 90.9375 40.265625 C 90.488281 40.296875 89.074219 41.019531 87.792969 41.867188 C 86.507812 42.71875 83.78125 44.027344 81.730469 44.773438 C 77.882812 46.175781 77.113281 47.140625 78.75 48.5 C 79.714844 49.300781 79.710938 50 78.742188 50 C 78.324219 50 77.601562 49.199219 77.136719 48.222656 C 76.339844 46.554688 76.179688 46.464844 74.457031 46.757812 C 73.28125 46.957031 71.957031 46.785156 70.753906 46.28125 C 69.722656 45.851562 68.453125 45.5 67.929688 45.5 C 67.160156 45.5 67.285156 45.769531 68.617188 46.957031 C 70.917969 49.015625 70.003906 49.425781 67.355469 47.523438 C 65.929688 46.5 64.550781 45.9375 63.449219 45.929688 C 60.199219 45.910156 53.976562 46.636719 53.710938 47.066406 C 53.5625 47.304688 53.960938 47.503906 54.59375 47.507812 C 55.230469 47.511719 58.261719 47.722656 61.328125 47.976562 C 66.007812 48.363281 67.398438 48.6875 69.941406 49.96875 C 72.09375 51.058594 73.679688 51.5 75.429688 51.5 C 77.496094 51.5 78.015625 51.699219 78.703125 52.75 C 79.3125 53.679688 79.960938 54 81.230469 54 C 82.171875 54 83.0625 54.195312 83.210938 54.433594 C 83.355469 54.671875 84.703125 54.878906 86.199219 54.890625 C 89.152344 54.917969 89.929688 54.238281 88.980469 52.464844 C 88.578125 51.714844 87.921875 51.5 86.039062 51.5 C 84.433594 51.5 83.230469 51.191406 82.484375 50.589844 C 81.445312 49.746094 81.414062 49.566406 82.058594 48.214844 C 82.652344 46.96875 83.113281 46.710938 85.136719 46.5 C 87.152344 46.289062 87.664062 46.003906 88.480469 44.65625 C 89.25 43.386719 89.832031 43.03125 91.332031 42.90625 C 92.859375 42.78125 93.355469 42.464844 93.941406 41.25 C 94.335938 40.425781 94.824219 39.414062 95.023438 39 C 95.246094 38.542969 95.996094 38.277344 96.945312 38.324219 C 98.132812 38.378906 98.5 38.1875 98.5 37.503906 C 98.5 36.269531 97.417969 35.964844 95.316406 36.609375 C 92.375 37.511719 91.5 36.183594 92.800781 32.796875 C 93.402344 31.226562 92 32.035156 91.324219 33.644531 C 90.597656 35.386719 89.230469 37 88.476562 37 C 88.230469 37 87.675781 36.324219 87.25 35.5 C 86.824219 34.675781 86.304688 34 86.101562 34 C 85.894531 34 85.292969 34.804688 84.765625 35.785156 C 83.589844 37.96875 80.253906 40.703125 79.238281 40.316406 C 78.800781 40.148438 78.492188 39.367188 78.484375 38.390625 L 78.46875 36.75 L 76.109375 39.332031 C 73.324219 42.378906 72.230469 43 69.632812 43 C 67.464844 43 66.5 42.304688 66.5 40.75 C 66.5 39.375 67.417969 38.5 68.863281 38.5 C 69.757812 38.5 70.09375 38.152344 70.328125 36.984375 C 70.753906 34.863281 72.671875 33.5 75.234375 33.5 C 77.890625 33.5 78.203125 33.167969 76.996094 31.628906 C 75.867188 30.199219 76.195312 29.203125 78.359375 27.503906 C 79.34375 26.730469 80.144531 26.507812 81.238281 26.707031 C 82.070312 26.859375 83.085938 26.761719 83.5 26.488281 C 84.136719 26.066406 84.074219 25.855469 83.074219 25.078125 C 80.765625 23.289062 81.722656 22.347656 89.460938 18.804688 C 91.003906 18.097656 91.394531 17 90.101562 17 C 88.734375 17 87.847656 15.769531 88.265625 14.449219 C 88.457031 13.847656 89.515625 12.375 90.621094 11.175781 C 92.589844 9.042969 92.601562 9 91.359375 9 C 90.410156 9 89.636719 9.636719 88.265625 11.542969 M 12.535156 29.375 C 12.605469 31.132812 13.363281 32.199219 14.90625 32.71875 C 16.621094 33.296875 16.871094 34.320312 15.25 34.136719 C 14.699219 34.074219 13.046875 33.871094 11.574219 33.6875 C 9.546875 33.429688 8.796875 33.519531 8.457031 34.050781 C 7.210938 36.019531 9.070312 38 12.164062 38 C 14.609375 38 15.886719 39.054688 17 42 C 17.890625 44.34375 18.925781 45.5 20.875 46.324219 C 22.210938 46.890625 22.5 47.289062 22.5 48.566406 C 22.5 49.699219 22.96875 50.546875 24.25 51.71875 C 25.976562 53.300781 26.460938 54.65625 25.511719 55.242188 C 24.738281 55.722656 17.367188 52.902344 16.101562 51.644531 C 15.335938 50.878906 14.359375 50.5 13.167969 50.5 C 11.890625 50.5 10.886719 50.066406 9.640625 48.972656 C 7.46875 47.066406 6.332031 47.214844 6 49.453125 C 5.738281 51.226562 5.148438 51.75 2.875 52.230469 C 1.972656 52.417969 1.5 52.839844 1.5 53.449219 C 1.5 55.015625 2.769531 55.648438 5.1875 55.285156 C 6.867188 55.035156 7.574219 55.148438 8.191406 55.761719 C 9.289062 56.859375 9.210938 57.339844 7.792969 58.269531 C 6.285156 59.257812 5.808594 60.417969 6.550781 61.3125 C 7.457031 62.402344 8.574219 62.121094 9.964844 60.457031 C 10.910156 59.328125 11.902344 58.796875 13.710938 58.457031 C 17.882812 57.679688 17.671875 57.386719 11.832031 55.878906 C 7.417969 54.738281 6.304688 54 9 54 C 9.824219 54 10.5 53.757812 10.5 53.460938 C 10.5 53.164062 9.824219 52.246094 9 51.421875 C 7.503906 49.929688 7.101562 49 7.945312 49 C 8.785156 49 10.542969 50.753906 11.644531 52.691406 C 12.574219 54.320312 13.207031 54.769531 15.625 55.511719 L 18.5 56.390625 L 18.5 55.152344 C 18.5 53.480469 19.703125 53.925781 19.910156 55.675781 C 20.109375 57.367188 21.574219 58.292969 24.664062 58.6875 C 25.992188 58.855469 28.402344 59.527344 30.019531 60.179688 C 31.640625 60.835938 33.082031 61.253906 33.222656 61.109375 C 33.367188 60.964844 31.941406 59.226562 30.054688 57.238281 C 26.882812 53.902344 26.503906 53.257812 25.007812 48.691406 C 23.425781 43.863281 20.832031 39.140625 18.238281 36.367188 C 16.316406 34.3125 17.273438 33.582031 19.304688 35.554688 L 21 37.195312 L 21 35.890625 C 21 34.207031 21.46875 33 22.121094 33 C 22.453125 33 22.53125 34.117188 22.335938 36.125 C 22.117188 38.347656 22.222656 39.5 22.691406 40.121094 C 23.289062 40.910156 23.4375 40.800781 24.269531 38.957031 C 25.074219 37.175781 25.109375 36.632812 24.566406 34.585938 C 23.652344 31.132812 22.960938 30.628906 21.074219 32.023438 C 19.277344 33.355469 18.402344 32.929688 17.246094 30.164062 C 16.621094 28.667969 16.347656 28.5 14.527344 28.5 C 12.917969 28.5 12.507812 28.679688 12.535156 29.375 M 45.4375 51.683594 C 42.578125 54.09375 42.554688 54.132812 43.398438 55.289062 C 44.660156 57.019531 45.21875 57.085938 48.777344 55.917969 C 50.558594 55.332031 52.148438 54.984375 52.308594 55.144531 C 52.898438 55.734375 51.957031 56.390625 49.714844 56.957031 C 47.796875 57.441406 47.507812 57.65625 48.003906 58.253906 C 48.332031 58.652344 49.421875 59.117188 50.425781 59.292969 C 51.429688 59.46875 53.824219 60.570312 55.75 61.738281 C 57.675781 62.90625 59.984375 64 60.878906 64.171875 C 62.539062 64.484375 65.5 66.355469 65.5 67.09375 C 65.5 67.804688 64.175781 67.53125 62.941406 66.570312 C 62.285156 66.058594 61.019531 65.535156 60.125 65.40625 C 58.640625 65.195312 58.566406 65.242188 59.25 66 C 59.664062 66.457031 61.179688 67.363281 62.625 68.019531 C 65.769531 69.445312 73.375 73.894531 73.773438 74.539062 C 74.113281 75.089844 77.847656 75.160156 78.152344 74.625 C 78.269531 74.417969 77.613281 73.089844 76.695312 71.671875 C 75.300781 69.511719 74.617188 68.953125 72.507812 68.253906 C 70.964844 67.738281 68.953125 66.46875 67.316406 64.972656 C 64.558594 62.453125 62.769531 61.5 60.796875 61.5 C 58.460938 61.5 56.703125 57.421875 57.996094 55.007812 C 58.527344 54.015625 58.84375 53.921875 60.675781 54.230469 C 61.816406 54.425781 64.035156 54.550781 65.601562 54.511719 C 68.808594 54.429688 70.121094 54.957031 72.148438 57.117188 C 73.28125 58.332031 73.796875 58.542969 74.898438 58.265625 C 79.152344 57.179688 79.75 57.289062 81.472656 59.464844 C 84.84375 63.71875 86.582031 62.984375 84.210938 58.304688 C 82.847656 55.613281 82.027344 55.023438 79.636719 55.007812 C 79.019531 55.003906 78.175781 54.46875 77.742188 53.808594 C 77.097656 52.828125 76.535156 52.617188 74.578125 52.617188 C 73.03125 52.617188 71.324219 52.175781 69.722656 51.371094 C 68.363281 50.683594 66.460938 49.964844 65.5 49.769531 C 63.78125 49.417969 63.769531 49.425781 64.875 50.234375 C 65.890625 50.976562 66.445312 52.5 65.695312 52.5 C 65.53125 52.5 64.574219 51.859375 63.570312 51.074219 C 62.476562 50.214844 60.878906 49.53125 59.570312 49.363281 L 57.390625 49.082031 L 58.789062 50.539062 C 59.9375 51.738281 60.03125 52 59.304688 52 C 58.820312 52 57.753906 51.332031 56.9375 50.515625 C 55.542969 49.121094 55.242188 49.039062 51.890625 49.140625 C 48.417969 49.246094 48.253906 49.3125 45.4375 51.683594 M 35.820312 60.261719 C 32.894531 63.15625 30.5 65.640625 30.5 65.785156 C 30.5 65.929688 31.304688 65.894531 32.292969 65.710938 C 33.691406 65.445312 34.398438 65.605469 35.53125 66.445312 L 36.976562 67.511719 L 37.277344 66.324219 C 37.441406 65.667969 37.5 64.734375 37.414062 64.242188 C 37.324219 63.753906 37.53125 63.253906 37.875 63.136719 C 38.316406 62.980469 38.5 63.585938 38.5 65.183594 C 38.5 66.890625 38.066406 68.167969 36.75 70.351562 L 34.996094 73.25 L 36.464844 73.40625 C 37.273438 73.488281 38.601562 73.214844 39.417969 72.792969 C 40.761719 72.097656 40.960938 72.101562 41.574219 72.839844 C 42.214844 73.609375 42.390625 76.902344 42.003906 80.898438 C 41.769531 83.359375 42.574219 83.792969 44.449219 82.214844 C 45.324219 81.476562 46.113281 80.960938 46.203125 81.0625 C 47.253906 82.28125 47.769531 84.574219 47.988281 89 C 48.226562 93.773438 48.339844 94.261719 49.253906 94.394531 C 49.890625 94.484375 50.984375 93.796875 52.238281 92.511719 L 54.21875 90.484375 L 51.832031 85.683594 C 50.523438 83.042969 49.339844 80.992188 49.207031 81.125 C 49.074219 81.257812 49.1875 82.355469 49.457031 83.558594 C 49.753906 84.878906 49.769531 85.929688 49.492188 86.207031 C 48.851562 86.847656 48.128906 84.703125 47.710938 80.921875 C 47.324219 77.394531 45.242188 72.800781 40.707031 65.472656 C 39.21875 63.066406 38 60.851562 38 60.550781 C 38 59.300781 39.027344 60.164062 40.671875 62.792969 C 42.300781 65.402344 42.453125 65.519531 42.976562 64.542969 C 43.285156 63.96875 43.976562 63.5 44.515625 63.5 C 45.792969 63.5 45.757812 63.695312 44.222656 65.230469 C 42.992188 66.460938 42.976562 66.554688 43.769531 67.898438 C 44.351562 68.886719 45.328125 69.5 47.132812 70.019531 C 49.925781 70.824219 51.238281 72.375 48.691406 71.859375 C 47.898438 71.699219 46.835938 71.410156 46.332031 71.214844 C 45.554688 70.914062 45.644531 71.316406 46.917969 73.839844 C 48.214844 76.40625 48.695312 76.898438 50.394531 77.410156 C 52.660156 78.089844 55.140625 79.871094 54.734375 80.527344 C 54.582031 80.773438 53.359375 80.363281 52.019531 79.613281 C 49.367188 78.132812 48.304688 78.304688 49.945312 79.945312 C 50.511719 80.511719 51.746094 82.5 52.6875 84.363281 C 53.804688 86.570312 54.9375 88.0625 55.941406 88.648438 C 57.9375 89.808594 59.910156 93.203125 60.316406 96.164062 C 60.566406 97.976562 60.839844 98.5 61.550781 98.5 C 62.574219 98.5 63.5 97.09375 63.5 95.546875 C 63.5 94.984375 63.007812 93.515625 62.40625 92.277344 C 61.457031 90.320312 61.402344 89.871094 61.972656 88.804688 C 62.332031 88.128906 62.492188 87.054688 62.324219 86.414062 C 62.15625 85.773438 59.652344 82.699219 56.761719 79.585938 C 53.867188 76.46875 51.5 73.757812 51.5 73.558594 C 51.5 73.066406 54.515625 70.257812 55.742188 69.605469 C 56.589844 69.15625 57.085938 69.4375 59.128906 71.535156 C 60.445312 72.886719 61.738281 74.5625 62.003906 75.257812 C 62.613281 76.867188 63.859375 77.355469 64.835938 76.378906 C 65.441406 75.773438 65.507812 75.089844 65.171875 73.035156 C 64.777344 70.605469 64.617188 70.386719 62.589844 69.484375 L 60.429688 68.519531 L 60.589844 69.839844 C 60.847656 71.96875 59.601562 71.804688 59.203125 69.65625 C 59.007812 68.609375 58.320312 67.054688 57.675781 66.203125 C 57.027344 65.351562 56.496094 64.453125 56.492188 64.203125 C 56.488281 63.765625 53.324219 61.5 52.71875 61.5 C 52.558594 61.5 53.117188 62.339844 53.964844 63.363281 C 55.390625 65.097656 55.933594 66.5 55.179688 66.5 C 55 66.5 54.109375 65.65625 53.199219 64.625 L 51.542969 62.75 L 51.519531 65.625 C 51.503906 67.929688 51.339844 68.5 50.691406 68.5 C 50.003906 68.5 49.9375 68.089844 50.226562 65.753906 C 50.417969 64.246094 50.425781 62.558594 50.253906 62.007812 C 49.9375 61.015625 45.679688 58.152344 45.214844 58.621094 C 45.082031 58.753906 45.203125 59.46875 45.484375 60.214844 C 46.171875 62.015625 46.132812 62.5 45.308594 62.5 C 44.90625 62.5 44.375 61.535156 44.03125 60.175781 C 43.359375 57.496094 42.164062 55 41.558594 55 C 41.328125 55 38.746094 57.367188 35.820312 60.261719 M 17.5 58.742188 C 16.8125 59.132812 15.308594 59.597656 14.15625 59.777344 C 13.003906 59.957031 11.664062 60.542969 11.179688 61.078125 C 10.320312 62.027344 10.332031 62.039062 11.683594 61.523438 C 12.703125 61.136719 13.84375 61.175781 15.957031 61.664062 C 17.832031 62.097656 19.265625 62.171875 20.046875 61.878906 C 20.800781 61.597656 21.902344 61.632812 23 61.96875 C 25.265625 62.667969 30.640625 63.460938 31.125 63.167969 C 31.949219 62.667969 31.398438 62.097656 29.320312 61.304688 C 27.660156 60.667969 26.820312 60.59375 25.789062 60.984375 C 23.65625 61.796875 22.886719 61.648438 23.25 60.5 C 23.507812 59.691406 23.339844 59.5 22.378906 59.5 C 21.726562 59.5 20.753906 59.167969 20.21875 58.765625 C 19.035156 57.867188 19.042969 57.867188 17.5 58.742188 M 66.5 73.460938 C 66.5 74.582031 66.738281 75.5 67.027344 75.5 C 67.316406 75.5 68.105469 76.746094 68.777344 78.265625 L 70.003906 81.035156 L 72.46875 80.707031 C 74.726562 80.40625 75.042969 80.496094 76.21875 81.761719 C 76.921875 82.523438 77.5 83.40625 77.5 83.726562 C 77.5 84.765625 79.507812 86.5 80.707031 86.5 C 81.351562 86.5 82.167969 86.148438 82.527344 85.71875 C 83.078125 85.054688 82.863281 84.628906 81.085938 82.851562 C 79.574219 81.339844 79 81.003906 79 81.632812 C 79 82.109375 78.808594 82.5 78.578125 82.5 C 77.957031 82.5 76.5 80.773438 76.5 80.039062 C 76.5 78.308594 73.8125 75.832031 68.375 72.550781 L 66.5 71.417969 L 66.5 73.460938 M 79 75.246094 C 79 75.644531 78.28125 76.15625 77.402344 76.386719 L 75.800781 76.800781 L 77.71875 78.273438 C 78.769531 79.085938 80.363281 80.367188 81.257812 81.125 C 82.375 82.070312 83.445312 82.5 84.691406 82.5 C 86.738281 82.5 86.945312 82.058594 85.5 80.75 C 84.285156 79.652344 84.25 79.105469 85.320312 77.921875 C 86.445312 76.675781 85.429688 75.5 83.222656 75.5 C 82.308594 75.5 80.988281 75.28125 80.28125 75.011719 C 79.273438 74.628906 79 74.679688 79 75.246094 M 53.753906 82.996094 C 52.992188 84.226562 58.507812 86.988281 60.335938 86.285156 C 61.460938 85.855469 60.605469 85 59.039062 85 C 58.269531 85 56.828125 84.449219 55.835938 83.773438 C 54.839844 83.101562 53.90625 82.75 53.753906 82.996094 M 55.71875 91.5 C 55.921875 92.464844 56.148438 94.128906 56.222656 95.207031 C 56.351562 96.996094 57.433594 98.5 58.59375 98.5 C 60 98.5 58.109375 92.035156 56.253906 90.5 C 55.402344 89.796875 55.371094 89.855469 55.71875 91.5 "/>
</g>
</svg>
