<?xml version="1.0" encoding="UTF-8"?>
<svg xmlns="http://www.w3.org/2000/svg" xmlns:xlink="http://www.w3.org/1999/xlink" width="24px" height="24px" viewBox="0 0 24 24" version="1.1">
<g id="surface1">
<path style=" stroke:none;fill-rule:evenodd;fill:rgb(0%,0%,0%);fill-opacity:1;" d="M 15.78125 4.007812 C 14.570312 4.308594 13.363281 4.996094 12.453125 5.90625 C 11.902344 6.460938 11.105469 7.65625 10.921875 8.210938 C 10.796875 8.597656 10.808594 8.617188 11.796875 9.613281 C 13.332031 11.152344 14.039062 12.800781 14.039062 14.839844 L 14.039062 15.828125 L 14.488281 15.953125 C 15.140625 16.132812 16.871094 16.105469 17.640625 15.902344 C 19.96875 15.28125 22 13.222656 22.617188 10.855469 C 22.960938 9.527344 22.792969 7.878906 22.1875 6.691406 C 21.832031 6 20.757812 4.902344 20.0625 4.523438 C 18.875 3.878906 17.148438 3.671875 15.78125 4.007812 M 16.859375 4.0625 C 15.359375 4.457031 14.296875 5.59375 13.859375 7.28125 C 13.226562 9.714844 14.539062 12.667969 16.738281 13.742188 C 17.640625 14.1875 18.894531 14.28125 19.816406 13.976562 C 20.722656 13.675781 21.820312 12.570312 22.191406 11.578125 C 22.753906 10.082031 22.613281 8.1875 21.824219 6.707031 C 21.355469 5.828125 20.246094 4.761719 19.394531 4.371094 C 18.695312 4.050781 17.472656 3.902344 16.859375 4.0625 M 16.792969 5.488281 C 14.148438 6.832031 14.554688 11.324219 17.441406 12.667969 C 18.589844 13.203125 19.78125 13.011719 20.679688 12.144531 C 23.050781 9.855469 21.25 5.160156 18 5.160156 C 17.628906 5.160156 17.222656 5.269531 16.792969 5.488281 M 5.101562 8.082031 C 3.183594 8.714844 1.867188 10.082031 1.382812 11.945312 C 0.347656 15.917969 3.789062 20.160156 8.039062 20.15625 C 11.71875 20.148438 14.238281 16.871094 13.375 13.210938 C 13.148438 12.242188 12.515625 11.03125 11.824219 10.242188 C 11.152344 9.476562 9.882812 8.601562 8.941406 8.257812 C 8.046875 7.933594 5.855469 7.832031 5.101562 8.082031 M 4.9375 8.273438 C 2.117188 9.320312 0.621094 13.109375 1.929688 15.894531 C 2.3125 16.707031 3.046875 17.464844 3.8125 17.84375 C 4.390625 18.128906 4.652344 18.179688 5.460938 18.179688 C 6.675781 18.179688 7.503906 17.820312 8.515625 16.855469 C 11.078125 14.410156 10.816406 9.984375 8.019531 8.460938 C 7.171875 8 5.886719 7.921875 4.9375 8.273438 M 4.597656 9.53125 C 2.238281 10.632812 1.445312 14.097656 3.125 16.003906 C 4.675781 17.773438 7.339844 17.113281 8.546875 14.664062 C 8.902344 13.941406 8.941406 13.761719 8.941406 12.78125 C 8.941406 11.550781 8.679688 10.808594 8.003906 10.09375 C 7.160156 9.207031 5.785156 8.980469 4.597656 9.53125 "/>
</g>
</svg>
