<?xml version="1.0" encoding="UTF-8"?>
<svg xmlns="http://www.w3.org/2000/svg" xmlns:xlink="http://www.w3.org/1999/xlink" width="100px" height="100px" viewBox="0 0 100 100" version="1.1">
<g id="surface1">
<path style=" stroke:none;fill-rule:evenodd;fill:rgb(0%,0%,0%);fill-opacity:1;" d="M 65.75 16.703125 C 60.710938 17.949219 55.6875 20.8125 51.890625 24.609375 C 49.585938 26.914062 46.277344 31.894531 45.515625 34.207031 C 44.980469 35.824219 45.03125 35.902344 49.160156 40.046875 C 55.554688 46.472656 58.5 53.339844 58.5 61.832031 L 58.5 65.953125 L 60.375 66.472656 C 63.085938 67.226562 70.300781 67.109375 73.496094 66.257812 C 83.210938 63.671875 91.664062 55.097656 94.234375 45.222656 C 95.675781 39.691406 94.964844 32.835938 92.441406 27.882812 C 90.96875 25 86.484375 20.421875 83.585938 18.84375 C 78.644531 16.15625 71.457031 15.292969 65.75 16.703125 M 70.25 16.933594 C 63.996094 18.574219 59.578125 23.3125 57.746094 30.339844 C 55.105469 40.484375 60.582031 52.785156 69.738281 57.265625 C 73.507812 59.109375 78.722656 59.503906 82.558594 58.230469 C 86.34375 56.976562 90.914062 52.367188 92.46875 48.25 C 94.816406 42.011719 94.21875 34.113281 90.929688 27.945312 C 88.980469 24.285156 84.351562 19.835938 80.816406 18.214844 C 77.898438 16.878906 72.808594 16.261719 70.25 16.933594 M 69.96875 22.875 C 58.957031 28.460938 60.648438 47.191406 72.667969 52.789062 C 77.457031 55.015625 82.425781 54.210938 86.167969 50.601562 C 96.042969 41.070312 88.535156 21.5 75 21.5 C 73.460938 21.5 71.769531 21.960938 69.96875 22.875 M 21.25 33.675781 C 13.265625 36.316406 7.785156 42.011719 5.765625 49.765625 C 1.453125 66.324219 15.789062 84.007812 33.5 83.980469 C 48.824219 83.957031 59.324219 70.292969 55.730469 55.050781 C 54.777344 51.011719 52.144531 45.96875 49.265625 42.679688 C 46.476562 39.488281 41.171875 35.839844 37.25 34.414062 C 33.523438 33.058594 24.390625 32.636719 21.25 33.675781 M 20.570312 34.46875 C 8.820312 38.828125 2.589844 54.625 8.039062 66.222656 C 9.628906 69.605469 12.695312 72.777344 15.894531 74.347656 C 18.300781 75.53125 19.378906 75.75 22.75 75.75 C 27.808594 75.75 31.261719 74.253906 35.472656 70.234375 C 46.15625 60.042969 45.074219 41.597656 33.421875 35.253906 C 29.886719 33.332031 24.519531 33.003906 20.570312 34.46875 M 19.164062 39.714844 C 9.320312 44.296875 6.027344 58.734375 13.015625 66.691406 C 19.476562 74.050781 30.589844 71.296875 35.613281 61.097656 C 37.09375 58.085938 37.25 57.347656 37.25 53.261719 C 37.25 48.132812 36.171875 45.039062 33.347656 42.0625 C 29.839844 38.363281 24.105469 37.414062 19.164062 39.714844 "/>
</g>
</svg>
