<?xml version="1.0" encoding="UTF-8"?>
<svg xmlns="http://www.w3.org/2000/svg" xmlns:xlink="http://www.w3.org/1999/xlink" width="24px" height="24px" viewBox="0 0 24 24" version="1.1">
<g id="surface1">
<path style=" stroke:none;fill-rule:evenodd;fill:rgb(0%,0%,0%);fill-opacity:1;" d="M 9.570312 7.835938 C 9.195312 8.046875 8.882812 8.289062 8.882812 8.371094 C 8.878906 8.589844 9.054688 8.554688 9.738281 8.210938 C 10.410156 7.871094 10.382812 7.859375 10.851562 8.683594 L 11.183594 9.265625 L 10.84375 9.1875 C 10.535156 9.121094 10.410156 9.207031 9.644531 9.988281 C 8.671875 10.976562 8.484375 11.402344 8.492188 12.59375 C 8.5 13.671875 8.867188 14.59375 9.613281 15.410156 C 10.484375 16.367188 11.621094 16.851562 11.816406 16.351562 C 11.894531 16.148438 11.90625 16.148438 12.050781 16.351562 C 12.261719 16.636719 12.621094 16.613281 13.300781 16.269531 C 14.53125 15.644531 15.367188 14.269531 15.457031 12.707031 C 15.535156 11.328125 15.3125 10.78125 14.296875 9.871094 L 13.476562 9.136719 L 12.574219 9.203125 L 11.675781 9.273438 L 11.140625 8.386719 C 10.84375 7.898438 10.527344 7.488281 10.429688 7.476562 C 10.335938 7.464844 9.949219 7.625 9.570312 7.835938 M 12.839844 9.613281 C 12.609375 9.675781 12.015625 9.695312 11.519531 9.664062 L 10.621094 9.601562 L 9.898438 10.253906 C 9.285156 10.8125 9.199219 10.941406 9.3125 11.125 C 9.507812 11.441406 10.097656 11.40625 10.269531 11.066406 C 10.484375 10.636719 10.53125 10.632812 10.738281 11.035156 C 10.902344 11.355469 10.992188 11.410156 11.3125 11.378906 C 11.601562 11.347656 11.707031 11.269531 11.761719 11.039062 C 11.800781 10.875 11.90625 10.738281 12 10.738281 C 12.09375 10.738281 12.199219 10.875 12.238281 11.039062 C 12.292969 11.269531 12.398438 11.347656 12.6875 11.378906 C 13.003906 11.40625 13.097656 11.355469 13.253906 11.054688 C 13.355469 10.855469 13.40625 10.609375 13.367188 10.507812 C 13.3125 10.363281 13.378906 10.320312 13.660156 10.320312 C 13.988281 10.320312 14.023438 10.355469 14.015625 10.679688 C 14.007812 10.910156 13.941406 11.039062 13.828125 11.039062 C 13.679688 11.039062 13.675781 11.074219 13.804688 11.226562 C 14 11.460938 14.515625 11.40625 14.6875 11.132812 C 14.792969 10.957031 14.699219 10.804688 14.101562 10.203125 C 13.710938 9.804688 13.359375 9.484375 13.324219 9.492188 C 13.289062 9.5 13.070312 9.554688 12.839844 9.613281 M 13.558594 10.679688 C 13.558594 10.746094 13.613281 10.800781 13.679688 10.800781 C 13.746094 10.800781 13.800781 10.746094 13.800781 10.679688 C 13.800781 10.613281 13.746094 10.558594 13.679688 10.558594 C 13.613281 10.558594 13.558594 10.613281 13.558594 10.679688 M 8.949219 11.714844 C 8.824219 12.050781 8.878906 13.027344 9.058594 13.632812 C 9.289062 14.410156 9.941406 15.316406 10.574219 15.742188 C 11.136719 16.121094 11.421875 16.164062 11.640625 15.898438 C 11.84375 15.65625 12.066406 15.675781 12.332031 15.960938 C 12.554688 16.199219 12.558594 16.199219 13.175781 15.890625 C 14.289062 15.335938 15 14.167969 15.09375 12.757812 C 15.171875 11.59375 15.113281 11.464844 14.652344 11.730469 C 14.320312 11.921875 14.273438 11.921875 13.875 11.730469 C 13.640625 11.621094 13.421875 11.574219 13.386719 11.628906 C 13.253906 11.84375 12.699219 11.886719 12.347656 11.710938 C 12.03125 11.554688 11.957031 11.554688 11.636719 11.738281 C 11.300781 11.925781 11.257812 11.925781 10.921875 11.738281 C 10.597656 11.550781 10.535156 11.550781 10.191406 11.722656 C 9.847656 11.894531 9.777344 11.894531 9.417969 11.722656 C 9.0625 11.554688 9.011719 11.554688 8.949219 11.714844 M 9.4375 12.324219 C 9.300781 12.457031 9.355469 12.601562 9.539062 12.601562 C 9.640625 12.601562 9.71875 12.550781 9.71875 12.488281 C 9.71875 12.335938 9.53125 12.226562 9.4375 12.324219 M 9.441406 12.921875 C 8.996094 13.367188 10.144531 15.222656 10.996094 15.433594 C 11.496094 15.5625 11.613281 15.28125 11.144531 15.085938 C 10.582031 14.851562 9.988281 14.140625 9.898438 13.59375 C 9.769531 12.835938 9.671875 12.6875 9.441406 12.921875 "/>
</g>
</svg>
