<?xml version="1.0" encoding="UTF-8"?>
<svg xmlns="http://www.w3.org/2000/svg" xmlns:xlink="http://www.w3.org/1999/xlink" width="100px" height="100px" viewBox="0 0 100 100" version="1.1">
<g id="surface1">
<path style=" stroke:none;fill-rule:evenodd;fill:rgb(0%,0%,0%);fill-opacity:1;" d="M 39.882812 32.65625 C 38.304688 33.53125 37.011719 34.53125 37.007812 34.875 C 36.996094 35.789062 37.734375 35.652344 40.578125 34.210938 C 43.378906 32.792969 43.261719 32.742188 45.21875 36.175781 L 46.601562 38.601562 L 45.175781 38.289062 C 43.902344 38.007812 43.371094 38.363281 40.179688 41.613281 C 36.132812 45.738281 35.347656 47.507812 35.386719 52.46875 C 35.421875 56.96875 36.949219 60.816406 40.050781 64.210938 C 43.691406 68.195312 48.421875 70.210938 49.230469 68.125 C 49.554688 67.292969 49.601562 67.292969 50.214844 68.125 C 51.097656 69.320312 52.59375 69.222656 55.421875 67.789062 C 60.554688 65.1875 64.023438 59.453125 64.398438 52.945312 C 64.734375 47.195312 63.804688 44.925781 59.5625 41.128906 L 56.144531 38.066406 L 52.398438 38.347656 L 48.652344 38.632812 L 46.414062 34.941406 C 45.183594 32.910156 43.855469 31.207031 43.464844 31.15625 C 43.070312 31.101562 41.460938 31.777344 39.882812 32.65625 M 53.5 40.058594 C 52.539062 40.3125 50.0625 40.402344 48 40.261719 L 44.25 40.007812 L 41.25 42.730469 C 38.691406 45.050781 38.332031 45.585938 38.804688 46.351562 C 39.621094 47.675781 42.082031 47.53125 42.785156 46.117188 C 43.679688 44.324219 43.875 44.308594 44.742188 45.984375 C 45.429688 47.316406 45.796875 47.535156 47.132812 47.40625 C 48.34375 47.285156 48.777344 46.957031 49.003906 46 C 49.164062 45.3125 49.613281 44.75 50 44.75 C 50.386719 44.75 50.835938 45.3125 50.996094 46 C 51.222656 46.957031 51.65625 47.285156 52.867188 47.40625 C 54.1875 47.535156 54.570312 47.316406 55.21875 46.0625 C 55.644531 45.238281 55.859375 44.210938 55.691406 43.78125 C 55.460938 43.179688 55.738281 43 56.914062 43 C 58.277344 43 58.429688 43.152344 58.390625 44.5 C 58.363281 45.46875 58.085938 46 57.613281 46 C 57.003906 46 56.988281 46.132812 57.519531 46.777344 C 58.332031 47.753906 60.476562 47.523438 61.191406 46.382812 C 61.644531 45.660156 61.242188 45.015625 58.757812 42.507812 C 57.121094 40.851562 55.660156 39.523438 55.515625 39.550781 C 55.371094 39.578125 54.460938 39.808594 53.5 40.058594 M 56.5 44.5 C 56.5 44.773438 56.726562 45 57 45 C 57.273438 45 57.5 44.773438 57.5 44.5 C 57.5 44.226562 57.273438 44 57 44 C 56.726562 44 56.5 44.226562 56.5 44.5 M 37.292969 48.820312 C 36.761719 50.203125 36.988281 54.277344 37.738281 56.804688 C 38.699219 60.039062 41.414062 63.820312 44.050781 65.589844 C 46.410156 67.175781 47.589844 67.347656 48.5 66.25 C 49.347656 65.226562 50.28125 65.308594 51.390625 66.496094 C 52.316406 67.488281 52.324219 67.488281 54.898438 66.207031 C 59.53125 63.898438 62.507812 59.039062 62.890625 53.152344 C 63.210938 48.308594 62.980469 47.773438 61.058594 48.871094 C 59.667969 49.671875 59.472656 49.671875 57.808594 48.878906 C 56.835938 48.414062 55.917969 48.226562 55.773438 48.460938 C 55.226562 49.34375 52.90625 49.527344 51.449219 48.800781 C 50.125 48.140625 49.816406 48.148438 48.484375 48.90625 C 47.09375 49.699219 46.90625 49.699219 45.515625 48.90625 C 44.152344 48.132812 43.898438 48.128906 42.457031 48.847656 C 41.027344 49.558594 40.734375 49.558594 39.234375 48.84375 C 37.761719 48.140625 37.554688 48.136719 37.292969 48.820312 M 39.320312 51.347656 C 38.757812 51.910156 38.976562 52.5 39.75 52.5 C 40.164062 52.5 40.5 52.289062 40.5 52.03125 C 40.5 51.398438 39.71875 50.949219 39.320312 51.347656 M 39.332031 53.832031 C 37.476562 55.691406 42.265625 63.421875 45.824219 64.3125 C 47.90625 64.835938 48.390625 63.675781 46.433594 62.859375 C 44.089844 61.878906 41.613281 58.914062 41.234375 56.636719 C 40.710938 53.484375 40.296875 52.871094 39.332031 53.832031 "/>
</g>
</svg>
