<?xml version="1.0" encoding="UTF-8"?>
<svg xmlns="http://www.w3.org/2000/svg" xmlns:xlink="http://www.w3.org/1999/xlink" width="24px" height="24px" viewBox="0 0 24 24" version="1.1">
<g id="surface1">
<path style=" stroke:none;fill-rule:evenodd;fill:rgb(0%,0%,0%);fill-opacity:1;" d="M 11.757812 1.519531 C 10.835938 2.132812 10.351562 2.878906 10.238281 3.847656 C 10.199219 4.171875 10.152344 4.441406 10.136719 4.441406 C 10.121094 4.441406 9.914062 4.359375 9.679688 4.261719 C 9.441406 4.160156 8.894531 4.078125 8.464844 4.078125 C 7.824219 4.078125 7.632812 4.128906 7.425781 4.335938 C 7.203125 4.554688 7.179688 4.6875 7.234375 5.292969 C 7.273438 5.714844 7.414062 6.207031 7.59375 6.523438 L 7.886719 7.054688 L 7.152344 7.105469 C 6.75 7.132812 6.15625 7.273438 5.832031 7.417969 L 5.246094 7.679688 L 5.308594 8.433594 C 5.367188 9.179688 5.65625 9.90625 6.160156 10.589844 C 6.558594 11.128906 7.558594 11.738281 8.398438 11.953125 C 9.195312 12.15625 11.121094 12.222656 11.613281 12.066406 L 11.878906 11.984375 L 11.878906 17.160156 L 10.558594 17.160156 L 10.632812 16.507812 C 10.742188 15.574219 10.488281 14.378906 10.035156 13.703125 C 9.566406 13.007812 8.617188 12.480469 7.839844 12.480469 C 7.351562 12.480469 7.292969 12.511719 7.144531 12.871094 C 7.054688 13.085938 6.945312 13.464844 6.894531 13.71875 C 6.828125 14.078125 6.769531 14.15625 6.617188 14.089844 C 6.035156 13.84375 5.503906 13.757812 5.195312 13.867188 C 4.757812 14.023438 4.59375 14.75 4.839844 15.464844 C 5.011719 15.957031 5.007812 15.960938 4.722656 15.960938 C 4.019531 15.960938 2.878906 16.847656 2.878906 17.394531 C 2.878906 17.929688 4.050781 18.828125 4.753906 18.835938 C 5 18.839844 5 18.855469 4.835938 19.363281 C 4.585938 20.121094 4.785156 20.832031 5.273438 20.9375 C 5.589844 21.007812 6.089844 20.921875 6.617188 20.707031 C 6.769531 20.644531 6.828125 20.722656 6.894531 21.082031 C 6.941406 21.335938 7.0625 21.714844 7.164062 21.929688 C 7.3125 22.25 7.417969 22.320312 7.722656 22.320312 C 8.488281 22.316406 9.050781 22.066406 9.675781 21.4375 C 10.425781 20.6875 10.609375 20.148438 10.617188 18.691406 L 10.621094 17.640625 L 11.878906 17.640625 L 11.878906 20.085938 C 11.878906 22.074219 11.910156 22.546875 12.046875 22.597656 C 12.140625 22.632812 12.25 22.632812 12.289062 22.589844 C 12.328125 22.550781 12.359375 21.421875 12.359375 20.078125 L 12.359375 17.640625 L 13.441406 17.640625 L 13.367188 18.289062 C 13.261719 19.164062 13.511719 20.410156 13.90625 21 C 14.460938 21.828125 15.339844 22.316406 16.269531 22.320312 C 16.566406 22.320312 16.671875 22.246094 16.832031 21.914062 C 16.9375 21.6875 17.0625 21.304688 17.105469 21.066406 C 17.171875 20.722656 17.230469 20.644531 17.382812 20.707031 C 17.910156 20.921875 18.410156 21.007812 18.726562 20.9375 C 19.003906 20.878906 19.101562 20.769531 19.191406 20.421875 C 19.304688 20.003906 19.222656 19.289062 19.027344 18.972656 C 18.976562 18.890625 19.050781 18.839844 19.222656 18.835938 C 19.945312 18.832031 21.121094 17.9375 21.121094 17.394531 C 21.121094 16.851562 19.964844 15.960938 19.265625 15.960938 C 19.058594 15.960938 18.976562 15.910156 19.027344 15.824219 C 19.222656 15.511719 19.304688 14.792969 19.191406 14.371094 C 19.019531 13.730469 18.4375 13.640625 17.382812 14.089844 C 17.230469 14.15625 17.171875 14.078125 17.105469 13.71875 C 17.054688 13.464844 16.941406 13.078125 16.847656 12.855469 C 16.679688 12.453125 16.671875 12.449219 16.023438 12.503906 C 14.28125 12.648438 13.164062 14.3125 13.355469 16.46875 L 13.417969 17.160156 L 12.359375 17.160156 L 12.359375 11.972656 L 12.792969 12.054688 C 13.511719 12.191406 15.257812 12.132812 15.933594 11.949219 C 17.59375 11.503906 18.6875 10.289062 18.957031 8.59375 C 19.007812 8.257812 19.023438 7.917969 18.992188 7.828125 C 18.878906 7.539062 17.957031 7.167969 17.195312 7.109375 C 16.777344 7.074219 16.441406 7.039062 16.441406 7.035156 C 16.441406 7.027344 16.574219 6.753906 16.742188 6.429688 C 17.054688 5.8125 17.152344 4.683594 16.925781 4.324219 C 16.753906 4.054688 15.175781 4.003906 14.589844 4.25 C 14.003906 4.492188 14.039062 4.503906 14.039062 4.0625 C 14.039062 3.132812 13.300781 1.925781 12.472656 1.496094 C 12.058594 1.28125 12.113281 1.28125 11.757812 1.519531 M 11.453125 2.445312 C 10.816406 3.113281 10.582031 3.925781 10.792969 4.761719 C 10.972656 5.480469 10.789062 5.632812 10.265625 5.191406 C 9.746094 4.753906 9.21875 4.558594 8.539062 4.558594 C 7.71875 4.558594 7.601562 4.730469 7.792969 5.613281 C 7.921875 6.210938 8.035156 6.390625 8.644531 6.972656 C 9.445312 7.746094 9.433594 8.019531 8.609375 7.730469 C 7.980469 7.507812 7.15625 7.515625 6.367188 7.75 L 5.730469 7.9375 L 5.804688 8.480469 C 6.105469 10.667969 7.894531 11.800781 10.707031 11.585938 C 11.320312 11.539062 12.0625 11.511719 12.359375 11.53125 C 15.203125 11.695312 16.347656 11.507812 17.253906 10.734375 C 17.847656 10.226562 18.480469 9.015625 18.480469 8.390625 C 18.480469 7.964844 18.453125 7.933594 17.917969 7.75 C 17.226562 7.515625 16.414062 7.507812 15.683594 7.726562 C 15.382812 7.816406 15.101562 7.863281 15.066406 7.828125 C 14.902344 7.664062 15.035156 7.449219 15.492188 7.148438 C 16.09375 6.746094 16.59375 5.757812 16.539062 5.074219 C 16.5 4.628906 16.488281 4.621094 15.960938 4.582031 C 15.253906 4.53125 14.660156 4.714844 14.101562 5.160156 C 13.757812 5.429688 13.605469 5.488281 13.488281 5.390625 C 13.375 5.296875 13.363281 5.175781 13.445312 4.960938 C 13.625 4.496094 13.574219 3.703125 13.335938 3.179688 C 13.085938 2.636719 12.40625 1.921875 12.136719 1.921875 C 12.039062 1.921875 11.730469 2.15625 11.453125 2.445312 M 7.589844 13.15625 C 7.394531 13.53125 7.332031 14.09375 7.429688 14.527344 C 7.605469 15.320312 7.367188 15.449219 6.769531 14.871094 C 6.414062 14.523438 5.59375 14.222656 5.375 14.355469 C 5.324219 14.386719 5.28125 14.648438 5.28125 14.9375 C 5.28125 15.320312 5.359375 15.558594 5.578125 15.816406 C 5.746094 16.015625 5.878906 16.265625 5.878906 16.375 C 5.878906 16.542969 5.796875 16.5625 5.347656 16.496094 C 4.679688 16.394531 4.097656 16.582031 3.65625 17.042969 L 3.316406 17.398438 L 3.660156 17.761719 C 4.078125 18.199219 4.660156 18.375 5.359375 18.277344 C 5.976562 18.195312 6.011719 18.296875 5.578125 18.933594 C 5.371094 19.238281 5.28125 19.539062 5.28125 19.902344 L 5.28125 20.429688 L 5.851562 20.367188 C 6.328125 20.3125 6.492188 20.222656 6.855469 19.8125 C 7.449219 19.144531 7.613281 19.164062 7.488281 19.890625 C 7.296875 21.011719 7.472656 21.839844 7.902344 21.839844 C 8.015625 21.839844 8.394531 21.699219 8.738281 21.527344 C 9.804688 20.996094 10.335938 19.636719 10.082031 18.082031 C 10.011719 17.636719 10.011719 17.15625 10.089844 16.742188 C 10.230469 15.972656 10.074219 14.820312 9.742188 14.175781 C 9.304688 13.324219 7.855469 12.636719 7.589844 13.15625 M 15.265625 13.214844 C 14.292969 13.695312 13.863281 14.609375 13.90625 16.109375 C 13.9375 17.214844 13.9375 17.511719 13.90625 18.800781 C 13.878906 20.082031 14.257812 20.957031 15.046875 21.417969 C 15.789062 21.851562 16.265625 21.925781 16.425781 21.628906 C 16.589844 21.316406 16.625 20.601562 16.507812 19.890625 C 16.386719 19.164062 16.550781 19.144531 17.144531 19.8125 C 17.507812 20.222656 17.671875 20.3125 18.148438 20.367188 L 18.71875 20.429688 L 18.71875 19.902344 C 18.71875 19.539062 18.628906 19.238281 18.421875 18.933594 C 17.992188 18.304688 18.023438 18.195312 18.609375 18.289062 C 19.273438 18.394531 19.921875 18.195312 20.339844 17.761719 L 20.683594 17.398438 L 20.34375 17.042969 C 19.898438 16.578125 19.347656 16.402344 18.664062 16.503906 C 18.191406 16.578125 18.121094 16.558594 18.121094 16.371094 C 18.121094 16.253906 18.234375 16.035156 18.375 15.886719 C 18.675781 15.5625 18.835938 14.546875 18.605469 14.402344 C 18.292969 14.210938 17.585938 14.5 17.136719 15.003906 C 16.597656 15.601562 16.382812 15.542969 16.515625 14.835938 C 16.628906 14.222656 16.589844 13.480469 16.433594 13.183594 C 16.273438 12.890625 15.898438 12.902344 15.265625 13.214844 "/>
</g>
</svg>
