<?xml version="1.0" encoding="UTF-8"?>
<svg xmlns="http://www.w3.org/2000/svg" xmlns:xlink="http://www.w3.org/1999/xlink" width="100px" height="100px" viewBox="0 0 100 100" version="1.1">
<g id="surface1">
<path style=" stroke:none;fill-rule:evenodd;fill:rgb(0%,0%,0%);fill-opacity:1;" d="M 55.75 20.582031 C 52.46875 22.386719 49.808594 26.320312 48.257812 31.648438 L 47.429688 34.5 L 45.484375 32.042969 C 42.847656 28.703125 40.433594 26.964844 38 26.636719 C 36.328125 26.410156 35.738281 26.570312 34.722656 27.523438 C 33.253906 28.90625 32.300781 32.074219 32.671875 34.355469 L 32.9375 36 L 30.195312 36 C 25.816406 36 23.496094 37.679688 23.503906 40.84375 C 23.507812 45.570312 32.597656 52.289062 40.75 53.59375 C 42.675781 53.902344 44.308594 54.199219 44.382812 54.25 C 44.457031 54.304688 43.507812 56.171875 42.277344 58.398438 C 40.238281 62.082031 36.335938 70.304688 34.304688 75.1875 C 33.277344 77.65625 33.28125 79.308594 34.3125 79.703125 C 35.144531 80.023438 36.5 79.234375 36.5 78.433594 C 36.5 77.503906 42.238281 65.039062 44.914062 60.152344 L 47.707031 55.054688 L 48.992188 57.402344 C 51.105469 61.257812 52.578125 62.96875 56 65.550781 C 63.996094 71.582031 71.523438 71.507812 71.488281 65.398438 C 71.480469 64.214844 71.074219 62.363281 70.585938 61.277344 L 69.699219 59.300781 L 72.148438 58.082031 C 74.730469 56.796875 76.496094 54.558594 76.496094 52.566406 C 76.5 50.527344 73.179688 47.75 69.3125 46.554688 C 67.433594 45.976562 65.320312 45.5 64.621094 45.5 C 63.417969 45.5 63.453125 45.421875 65.300781 44.082031 C 69.132812 41.296875 72.328125 36.960938 73.1875 33.378906 C 73.726562 31.136719 72.402344 28.710938 70.253906 28 C 68.53125 27.433594 67.496094 27.480469 64.371094 28.265625 C 63.246094 28.546875 63.089844 28.394531 62.769531 26.679688 C 62.292969 24.132812 61.292969 22.304688 59.691406 21.042969 C 58.214844 19.878906 57.230469 19.765625 55.75 20.582031 "/>
</g>
</svg>
