<?xml version="1.0" encoding="UTF-8"?>
<svg xmlns="http://www.w3.org/2000/svg" xmlns:xlink="http://www.w3.org/1999/xlink" width="100px" height="100px" viewBox="0 0 100 100" version="1.1">
<g id="surface1">
<path style=" stroke:none;fill-rule:evenodd;fill:rgb(0%,0%,0%);fill-opacity:1;" d="M 48.988281 6.328125 C 45.152344 8.890625 43.132812 11.988281 42.652344 16.035156 C 42.492188 17.390625 42.308594 18.5 42.242188 18.5 C 42.175781 18.5 41.316406 18.164062 40.328125 17.75 C 39.339844 17.335938 37.0625 17 35.265625 17 C 32.601562 17 31.804688 17.195312 30.9375 18.0625 C 30.019531 18.980469 29.910156 19.527344 30.136719 22.054688 C 30.296875 23.816406 30.894531 25.859375 31.636719 27.1875 L 32.867188 29.390625 L 29.808594 29.601562 C 28.128906 29.714844 25.652344 30.304688 24.304688 30.90625 L 21.863281 32.003906 L 22.117188 35.140625 C 22.363281 38.246094 23.5625 41.273438 25.664062 44.117188 C 27.332031 46.371094 31.5 48.910156 35 49.800781 C 38.304688 50.644531 46.34375 50.933594 48.390625 50.285156 L 49.5 49.933594 L 49.5 71.5 L 43.992188 71.5 L 44.308594 68.789062 C 44.765625 64.902344 43.699219 59.90625 41.8125 57.105469 C 39.859375 54.203125 35.90625 52 32.667969 52 C 30.636719 52 30.390625 52.136719 29.769531 53.625 C 29.398438 54.519531 28.929688 56.105469 28.734375 57.15625 C 28.453125 58.660156 28.207031 58.988281 27.5625 58.710938 C 25.152344 57.675781 22.9375 57.328125 21.652344 57.78125 C 19.816406 58.425781 19.144531 61.457031 20.171875 64.441406 C 20.875 66.480469 20.871094 66.5 19.675781 66.5 C 16.738281 66.5 12 70.191406 12 72.480469 C 12 74.699219 16.882812 78.457031 19.804688 78.488281 C 20.828125 78.5 20.839844 78.570312 20.144531 80.683594 C 19.109375 83.832031 19.9375 86.796875 21.976562 87.246094 C 23.296875 87.535156 25.371094 87.175781 27.5625 86.273438 C 28.203125 86.011719 28.453125 86.347656 28.730469 87.84375 C 28.925781 88.894531 29.425781 90.480469 29.847656 91.375 C 30.472656 92.703125 30.902344 93 32.183594 92.996094 C 35.367188 92.992188 37.703125 91.933594 40.324219 89.320312 C 43.441406 86.203125 44.210938 83.953125 44.230469 77.875 L 44.246094 73.5 L 49.5 73.5 L 49.5 83.695312 C 49.5 91.984375 49.632812 93.945312 50.199219 94.160156 C 50.585938 94.308594 51.035156 94.296875 51.199219 94.132812 C 51.367188 93.96875 51.5 89.257812 51.5 83.667969 L 51.5 73.5 L 56.007812 73.5 L 55.691406 76.210938 C 55.261719 79.855469 56.296875 85.050781 57.945312 87.5 C 60.261719 90.949219 63.914062 92.988281 67.78125 92.996094 C 69.035156 93 69.464844 92.6875 70.125 91.300781 C 70.570312 90.367188 71.089844 88.777344 71.277344 87.769531 C 71.546875 86.339844 71.800781 86.011719 72.4375 86.273438 C 74.628906 87.175781 76.703125 87.535156 78.023438 87.246094 C 79.175781 86.992188 79.585938 86.539062 79.972656 85.085938 C 80.433594 83.355469 80.09375 80.363281 79.285156 79.058594 C 79.070312 78.710938 79.375 78.496094 80.09375 78.488281 C 83.105469 78.460938 88 74.738281 88 72.480469 C 88 70.222656 83.191406 66.5 80.269531 66.5 C 79.417969 66.5 79.066406 66.300781 79.285156 65.941406 C 80.101562 64.625 80.433594 61.644531 79.960938 59.878906 C 79.25 57.210938 76.816406 56.832031 72.4375 58.710938 C 71.792969 58.988281 71.546875 58.660156 71.265625 57.15625 C 71.070312 56.105469 70.589844 54.492188 70.203125 53.5625 C 69.507812 51.890625 69.472656 51.878906 66.773438 52.101562 C 59.511719 52.703125 54.847656 59.628906 55.648438 68.625 L 55.90625 71.5 L 51.5 71.5 L 51.5 49.886719 L 53.308594 50.226562 C 56.304688 50.789062 63.574219 50.550781 66.382812 49.792969 C 73.3125 47.929688 77.867188 42.871094 78.988281 35.800781 C 79.207031 34.414062 79.269531 32.984375 79.132812 32.621094 C 78.667969 31.410156 74.828125 29.871094 71.640625 29.613281 C 69.914062 29.476562 68.5 29.335938 68.503906 29.304688 C 68.503906 29.277344 69.066406 28.144531 69.753906 26.789062 C 71.058594 24.214844 71.46875 19.515625 70.515625 18.011719 C 69.808594 16.886719 63.238281 16.679688 60.792969 17.699219 C 58.359375 18.71875 58.5 18.765625 58.5 16.933594 C 58.5 13.058594 55.425781 8.019531 51.96875 6.234375 C 50.238281 5.339844 50.476562 5.332031 48.988281 6.328125 M 47.726562 10.191406 C 45.0625 12.972656 44.09375 16.363281 44.972656 19.847656 C 45.726562 22.835938 44.949219 23.46875 42.777344 21.636719 C 40.605469 19.804688 38.40625 19 35.578125 19 C 32.167969 19 31.667969 19.707031 32.472656 23.390625 C 33.011719 25.871094 33.480469 26.621094 36.011719 29.058594 C 39.351562 32.273438 39.300781 33.414062 35.878906 32.207031 C 33.253906 31.28125 29.820312 31.3125 26.527344 32.289062 L 23.875 33.074219 L 24.183594 35.332031 C 25.433594 44.445312 32.886719 49.164062 44.609375 48.269531 C 47.160156 48.074219 50.261719 47.972656 51.5 48.042969 C 63.351562 48.730469 68.121094 47.953125 71.894531 44.722656 C 74.363281 42.613281 77 37.570312 77 34.96875 C 77 33.183594 76.886719 33.054688 74.660156 32.296875 C 71.78125 31.316406 68.394531 31.277344 65.355469 32.191406 C 64.089844 32.574219 62.929688 32.761719 62.777344 32.609375 C 62.09375 31.925781 62.652344 31.03125 64.542969 29.78125 C 67.066406 28.113281 69.140625 23.996094 68.90625 21.136719 C 68.753906 19.285156 68.707031 19.246094 66.5 19.085938 C 63.558594 18.875 61.085938 19.644531 58.75 21.5 C 57.332031 22.628906 56.695312 22.867188 56.207031 22.464844 C 55.738281 22.074219 55.6875 21.574219 56.027344 20.679688 C 56.769531 18.726562 56.5625 15.4375 55.566406 13.25 C 54.53125 10.992188 51.6875 8 50.570312 8 C 50.160156 8 48.882812 8.988281 47.726562 10.191406 M 31.617188 54.816406 C 30.816406 56.382812 30.542969 58.722656 30.949219 60.53125 C 31.695312 63.839844 30.691406 64.363281 28.210938 61.960938 C 26.722656 60.519531 23.304688 59.253906 22.402344 59.808594 C 22.179688 59.945312 22 61.039062 22 62.242188 C 22 63.839844 22.335938 64.820312 23.25 65.910156 C 23.9375 66.726562 24.5 67.769531 24.5 68.226562 C 24.5 68.929688 24.152344 69.007812 22.289062 68.730469 C 19.492188 68.308594 17.078125 69.089844 15.238281 71.011719 L 13.8125 72.5 L 15.253906 74.003906 C 16.996094 75.824219 19.410156 76.5625 22.324219 76.164062 C 24.902344 75.808594 25.050781 76.242188 23.25 78.890625 C 22.386719 80.164062 22 81.410156 22 82.929688 L 22 85.128906 L 24.375 84.863281 C 26.363281 84.640625 27.046875 84.261719 28.566406 82.546875 C 31.039062 79.765625 31.726562 79.847656 31.207031 82.875 C 30.40625 87.542969 31.132812 91 32.917969 91 C 33.40625 91 34.976562 90.414062 36.410156 89.703125 C 40.855469 87.488281 43.066406 81.8125 42.015625 75.339844 C 41.710938 73.484375 41.722656 71.484375 42.039062 69.765625 C 42.632812 66.558594 41.984375 61.746094 40.597656 59.066406 C 38.765625 55.519531 32.722656 52.660156 31.617188 54.816406 M 63.601562 55.0625 C 59.546875 57.070312 57.761719 60.875 57.9375 67.125 C 58.066406 71.726562 58.070312 72.960938 57.945312 78.34375 C 57.824219 83.671875 59.414062 87.320312 62.695312 89.246094 C 65.78125 91.054688 67.773438 91.355469 68.4375 90.117188 C 69.132812 88.820312 69.273438 85.832031 68.78125 82.875 C 68.277344 79.851562 68.964844 79.765625 71.433594 82.546875 C 72.953125 84.261719 73.636719 84.640625 75.625 84.863281 L 78 85.128906 L 78 82.929688 C 78 81.410156 77.613281 80.164062 76.75 78.890625 C 74.96875 76.273438 75.105469 75.808594 77.53125 76.195312 C 80.296875 76.640625 83.011719 75.816406 84.742188 74.007812 L 86.1875 72.5 L 84.761719 71.011719 C 82.914062 69.082031 80.613281 68.347656 77.765625 68.773438 C 75.792969 69.070312 75.5 68.996094 75.5 68.214844 C 75.5 67.71875 75.976562 66.808594 76.558594 66.1875 C 77.820312 64.84375 78.480469 60.605469 77.519531 60.011719 C 76.21875 59.210938 73.273438 60.410156 71.394531 62.507812 C 69.164062 65.003906 68.269531 64.769531 68.808594 61.824219 C 69.28125 59.253906 69.128906 56.175781 68.464844 54.933594 C 67.808594 53.710938 66.25 53.753906 63.601562 55.0625 "/>
</g>
</svg>
