<?xml version="1.0" encoding="UTF-8"?>
<svg xmlns="http://www.w3.org/2000/svg" xmlns:xlink="http://www.w3.org/1999/xlink" width="24px" height="24px" viewBox="0 0 24 24" version="1.1">
<g id="surface1">
<path style=" stroke:none;fill-rule:evenodd;fill:rgb(0%,0%,0%);fill-opacity:1;" d="M 13.378906 4.9375 C 12.59375 5.375 11.953125 6.316406 11.582031 7.59375 L 11.382812 8.28125 L 10.917969 7.691406 C 10.285156 6.890625 9.703125 6.472656 9.121094 6.394531 C 8.71875 6.339844 8.578125 6.378906 8.332031 6.605469 C 7.980469 6.9375 7.753906 7.699219 7.839844 8.246094 L 7.90625 8.640625 L 7.246094 8.640625 C 6.195312 8.640625 5.640625 9.042969 5.640625 9.800781 C 5.640625 10.9375 7.824219 12.550781 9.78125 12.863281 C 10.242188 12.9375 10.632812 13.007812 10.652344 13.019531 C 10.667969 13.03125 10.441406 13.480469 10.144531 14.015625 C 9.65625 14.898438 8.71875 16.871094 8.234375 18.042969 C 7.988281 18.636719 7.988281 19.035156 8.234375 19.128906 C 8.433594 19.207031 8.761719 19.015625 8.761719 18.824219 C 8.761719 18.601562 10.136719 15.609375 10.78125 14.4375 L 11.449219 13.214844 L 11.757812 13.777344 C 12.265625 14.703125 12.617188 15.113281 13.441406 15.730469 C 15.359375 17.179688 17.164062 17.160156 17.15625 15.695312 C 17.15625 15.410156 17.058594 14.964844 16.941406 14.707031 L 16.726562 14.234375 L 17.316406 13.941406 C 17.9375 13.628906 18.359375 13.09375 18.359375 12.617188 C 18.359375 12.125 17.5625 11.460938 16.632812 11.171875 C 16.183594 11.035156 15.675781 10.921875 15.507812 10.921875 C 15.21875 10.921875 15.230469 10.902344 15.671875 10.578125 C 16.589844 9.910156 17.359375 8.871094 17.566406 8.011719 C 17.695312 7.472656 17.378906 6.890625 16.859375 6.71875 C 16.449219 6.585938 16.199219 6.59375 15.449219 6.785156 C 15.179688 6.851562 15.140625 6.816406 15.066406 6.402344 C 14.949219 5.792969 14.710938 5.351562 14.328125 5.050781 C 13.972656 4.769531 13.734375 4.742188 13.378906 4.9375 "/>
</g>
</svg>
