<?xml version="1.0" encoding="UTF-8"?>
<svg xmlns="http://www.w3.org/2000/svg" xmlns:xlink="http://www.w3.org/1999/xlink" width="100px" height="100px" viewBox="0 0 100 100" version="1.1">
<g id="surface1">
<path style=" stroke:none;fill-rule:evenodd;fill:rgb(0%,0%,0%);fill-opacity:1;" d="M 71.75 9.359375 C 68.113281 9.859375 63.917969 11.21875 59.636719 13.285156 C 46.242188 19.746094 41.367188 31.738281 47.933594 42.070312 C 49.097656 43.902344 50.128906 44.746094 52.816406 46.070312 C 55.875 47.578125 56.664062 47.75 60.488281 47.75 C 64.085938 47.75 65.203125 47.535156 67.660156 46.386719 C 71.140625 44.757812 76.011719 40.003906 78.433594 35.878906 C 83.007812 28.078125 85.089844 16.179688 82.699219 11.441406 C 81.691406 9.429688 77.28125 8.59375 71.75 9.359375 M 68.5 15.285156 C 64.203125 16.410156 57.878906 19.75 55.09375 22.367188 C 51.589844 25.660156 49.773438 29.675781 50.152344 33.3125 C 50.691406 38.554688 53.585938 41.675781 58.917969 42.757812 C 60.519531 43.085938 60.578125 43.042969 60.417969 41.675781 C 60.207031 39.894531 61.664062 39.65625 61.917969 41.429688 C 62.0625 42.460938 62.277344 42.570312 63.628906 42.300781 C 64.480469 42.128906 65.292969 41.875 65.433594 41.734375 C 65.574219 41.59375 65.191406 40.457031 64.585938 39.207031 C 63.539062 37.050781 63.511719 36 64.507812 36 C 64.753906 36 65.402344 37.011719 65.949219 38.25 C 66.496094 39.488281 67.089844 40.5 67.269531 40.5 C 67.445312 40.5 68.113281 40.089844 68.753906 39.585938 L 69.910156 38.675781 L 68.933594 37.128906 C 67.691406 35.167969 68.664062 34.253906 70.078125 36.054688 L 71.015625 37.25 L 72.28125 35.75 C 75.550781 31.863281 78.5 23.253906 78.5 17.59375 L 78.5 14.5 L 74.875 14.53125 C 72.882812 14.550781 70.011719 14.890625 68.5 15.285156 M 71.277344 18.96875 C 69.8125 20.5 69.808594 22 71.265625 22 C 73.445312 22 75.550781 19.515625 74.472656 18.21875 C 73.59375 17.15625 72.847656 17.332031 71.277344 18.96875 M 60.535156 29.28125 C 57.457031 32.457031 55.019531 35.3125 55.121094 35.617188 C 55.226562 35.925781 55.695312 36.417969 56.167969 36.714844 C 56.886719 37.164062 57.96875 36.296875 63.023438 31.199219 C 67.351562 26.828125 68.9375 24.914062 68.707031 24.324219 C 67.964844 22.378906 66.160156 23.472656 60.535156 29.28125 M 28.613281 30.828125 C 24.605469 32.804688 18.972656 40.875 16.351562 48.386719 C 15.039062 52.152344 14.828125 53.46875 14.8125 58 C 14.796875 62.292969 14.996094 63.765625 15.914062 66.074219 C 18.347656 72.210938 24.679688 76.765625 30.738281 76.734375 C 36.304688 76.710938 42.34375 72.734375 44.929688 67.398438 C 47.289062 62.523438 47.398438 55.253906 45.214844 48.671875 C 42.863281 41.574219 37.492188 33.710938 33.34375 31.277344 C 30.789062 29.78125 30.746094 29.777344 28.613281 30.828125 M 29.574219 36.304688 C 27.972656 37.425781 24.15625 43.011719 22.558594 46.578125 C 18.648438 55.289062 18.941406 63.871094 23.296875 68.175781 C 28.109375 72.933594 34.207031 72.671875 38.617188 67.519531 C 40.792969 64.976562 41.5 62.613281 41.5 57.871094 C 41.5 51.757812 39.105469 45.359375 34.574219 39.355469 C 32.0625 36.03125 30.941406 35.347656 29.574219 36.304688 M 29.664062 40.886719 C 28.863281 41.398438 28.339844 43.703125 28.738281 44.964844 C 29.132812 46.207031 31.246094 46.382812 31.695312 45.210938 C 32.195312 43.90625 32.039062 41.742188 31.398438 41.101562 C 30.707031 40.40625 30.46875 40.378906 29.664062 40.886719 M 29.101562 49.601562 C 28.46875 50.234375 28.210938 64.664062 28.804688 66.210938 C 29.160156 67.144531 31.472656 67.28125 31.5625 66.375 C 31.597656 66.03125 31.574219 62.148438 31.507812 57.75 C 31.398438 50.289062 31.179688 49.039062 29.976562 49.007812 C 29.824219 49.003906 29.429688 49.269531 29.101562 49.601562 M 64.921875 52.695312 C 54.835938 56.300781 46.839844 69.441406 46.773438 82.519531 C 46.742188 88.613281 47.328125 89.664062 51.226562 90.539062 C 54.847656 91.347656 61.035156 90.511719 66.78125 88.429688 C 76.070312 85.070312 82.597656 79.097656 84.695312 72.035156 C 85.761719 68.4375 85.710938 66.289062 84.460938 62.238281 C 83.011719 57.546875 79.953125 54.488281 75.261719 53.039062 C 71.449219 51.863281 67.613281 51.734375 64.921875 52.695312 M 66.351562 57.691406 C 58.453125 60.628906 52.210938 71.050781 51.859375 81.882812 L 51.75 85.25 L 56 85.226562 C 58.335938 85.21875 61.222656 84.921875 62.410156 84.574219 C 64.429688 83.984375 64.558594 83.839844 64.410156 82.347656 C 64.292969 81.191406 64.457031 80.75 65 80.75 C 65.414062 80.75 65.820312 81.257812 65.910156 81.875 C 65.996094 82.492188 66.292969 83 66.566406 83 C 66.992188 83 68.921875 82.140625 69.410156 81.730469 C 69.496094 81.65625 69.09375 80.667969 68.515625 79.53125 C 67.535156 77.609375 67.511719 76.5 68.453125 76.5 C 68.671875 76.5 69.253906 77.398438 69.75 78.5 C 70.726562 80.664062 71.222656 80.867188 72.730469 79.726562 C 73.667969 79.015625 73.671875 78.929688 72.847656 77.527344 C 71.730469 75.636719 72.730469 74.816406 74.039062 76.550781 L 74.941406 77.746094 L 76.472656 76.277344 C 81.789062 71.179688 81.246094 61.609375 75.464844 58.632812 C 72.597656 57.15625 68.835938 56.769531 66.351562 57.691406 M 64.136719 71.554688 C 55.277344 80.285156 54.40625 81.472656 56.335938 82.214844 C 57.644531 82.714844 75 65.980469 75 64.21875 C 75 63.84375 74.601562 63.324219 74.117188 63.0625 C 73.386719 62.671875 71.679688 64.125 64.136719 71.554688 "/>
</g>
</svg>
