<?xml version="1.0" encoding="UTF-8"?>
<svg xmlns="http://www.w3.org/2000/svg" xmlns:xlink="http://www.w3.org/1999/xlink" width="24px" height="24px" viewBox="0 0 24 24" version="1.1">
<g id="surface1">
<path style=" stroke:none;fill-rule:evenodd;fill:rgb(0%,0%,0%);fill-opacity:1;" d="M 17.21875 2.246094 C 16.347656 2.367188 15.339844 2.691406 14.3125 3.1875 C 11.097656 4.738281 9.929688 7.617188 11.503906 10.097656 C 11.785156 10.535156 12.03125 10.738281 12.675781 11.058594 C 13.410156 11.417969 13.597656 11.460938 14.515625 11.460938 C 15.378906 11.460938 15.648438 11.410156 16.238281 11.132812 C 17.074219 10.742188 18.242188 9.601562 18.824219 8.609375 C 19.921875 6.738281 20.421875 3.882812 19.847656 2.746094 C 19.605469 2.261719 18.546875 2.0625 17.21875 2.246094 M 16.441406 3.667969 C 15.410156 3.9375 13.890625 4.738281 13.222656 5.367188 C 12.382812 6.160156 11.945312 7.121094 12.035156 7.996094 C 12.164062 9.253906 12.859375 10.003906 14.140625 10.261719 C 14.523438 10.339844 14.539062 10.332031 14.5 10 C 14.449219 9.574219 14.800781 9.515625 14.859375 9.941406 C 14.894531 10.191406 14.945312 10.214844 15.269531 10.152344 C 15.476562 10.109375 15.671875 10.050781 15.703125 10.015625 C 15.738281 9.980469 15.644531 9.710938 15.5 9.410156 C 15.25 8.890625 15.242188 8.640625 15.480469 8.640625 C 15.539062 8.640625 15.695312 8.882812 15.828125 9.179688 C 15.960938 9.476562 16.101562 9.71875 16.144531 9.71875 C 16.1875 9.71875 16.347656 9.621094 16.5 9.5 L 16.777344 9.28125 L 16.542969 8.910156 C 16.246094 8.441406 16.480469 8.222656 16.820312 8.652344 L 17.042969 8.941406 L 17.347656 8.578125 C 18.132812 7.648438 18.839844 5.582031 18.839844 4.222656 L 18.839844 3.480469 L 17.96875 3.488281 C 17.492188 3.492188 16.804688 3.574219 16.441406 3.667969 M 17.105469 4.554688 C 16.753906 4.921875 16.753906 5.28125 17.105469 5.28125 C 17.625 5.28125 18.132812 4.683594 17.875 4.371094 C 17.664062 4.117188 17.484375 4.160156 17.105469 4.554688 M 14.527344 7.027344 C 13.789062 7.789062 13.203125 8.476562 13.230469 8.546875 C 13.253906 8.621094 13.367188 8.742188 13.480469 8.8125 C 13.652344 8.917969 13.914062 8.710938 15.125 7.488281 C 16.164062 6.4375 16.542969 5.980469 16.488281 5.835938 C 16.3125 5.371094 15.878906 5.632812 14.527344 7.027344 M 6.867188 7.398438 C 5.90625 7.871094 4.554688 9.808594 3.925781 11.613281 C 3.609375 12.515625 3.558594 12.832031 3.554688 13.921875 C 3.550781 14.949219 3.597656 15.304688 3.820312 15.859375 C 4.402344 17.332031 5.921875 18.421875 7.378906 18.417969 C 8.714844 18.410156 10.164062 17.457031 10.78125 16.175781 C 11.347656 15.003906 11.375 13.261719 10.851562 11.679688 C 10.285156 9.976562 9 8.089844 8.003906 7.507812 C 7.390625 7.148438 7.378906 7.148438 6.867188 7.398438 M 7.097656 8.710938 C 6.714844 8.980469 5.796875 10.324219 5.414062 11.179688 C 4.476562 13.269531 4.546875 15.328125 5.589844 16.363281 C 6.746094 17.503906 8.210938 17.441406 9.269531 16.203125 C 9.789062 15.59375 9.960938 15.027344 9.960938 13.890625 C 9.960938 12.421875 9.386719 10.886719 8.296875 9.445312 C 7.695312 8.648438 7.425781 8.484375 7.097656 8.710938 M 7.121094 9.8125 C 6.925781 9.933594 6.800781 10.488281 6.898438 10.792969 C 6.992188 11.089844 7.5 11.132812 7.605469 10.851562 C 7.726562 10.539062 7.691406 10.019531 7.535156 9.863281 C 7.371094 9.699219 7.3125 9.691406 7.121094 9.8125 M 6.984375 11.902344 C 6.832031 12.054688 6.769531 15.519531 6.914062 15.890625 C 7 16.113281 7.554688 16.148438 7.574219 15.929688 C 7.582031 15.847656 7.578125 14.914062 7.5625 13.859375 C 7.535156 12.070312 7.484375 11.769531 7.195312 11.761719 C 7.15625 11.761719 7.0625 11.824219 6.984375 11.902344 M 15.582031 12.648438 C 13.160156 13.511719 11.242188 16.664062 11.226562 19.804688 C 11.21875 21.269531 11.359375 21.519531 12.292969 21.730469 C 13.164062 21.921875 14.648438 21.722656 16.027344 21.222656 C 18.257812 20.417969 19.824219 18.984375 20.328125 17.289062 C 20.582031 16.425781 20.570312 15.910156 20.269531 14.9375 C 19.921875 13.8125 19.1875 13.078125 18.0625 12.730469 C 17.148438 12.445312 16.226562 12.417969 15.582031 12.648438 M 15.925781 13.847656 C 14.027344 14.550781 12.53125 17.050781 12.445312 19.652344 L 12.421875 20.460938 L 13.441406 20.453125 C 14 20.453125 14.691406 20.382812 14.976562 20.296875 C 15.464844 20.15625 15.496094 20.121094 15.457031 19.761719 C 15.429688 19.484375 15.46875 19.378906 15.601562 19.378906 C 15.699219 19.378906 15.796875 19.5 15.820312 19.648438 C 15.839844 19.796875 15.910156 19.921875 15.976562 19.921875 C 16.078125 19.921875 16.542969 19.714844 16.660156 19.617188 C 16.679688 19.597656 16.582031 19.359375 16.445312 19.085938 C 16.207031 18.625 16.203125 18.359375 16.429688 18.359375 C 16.480469 18.359375 16.621094 18.574219 16.738281 18.839844 C 16.972656 19.359375 17.09375 19.410156 17.453125 19.132812 C 17.679688 18.964844 17.679688 18.941406 17.484375 18.605469 C 17.214844 18.152344 17.457031 17.957031 17.769531 18.371094 L 17.984375 18.660156 L 18.351562 18.308594 C 19.628906 17.082031 19.5 14.785156 18.113281 14.070312 C 17.421875 13.71875 16.519531 13.625 15.925781 13.847656 M 15.394531 17.171875 C 13.265625 19.269531 13.058594 19.554688 13.519531 19.730469 C 13.835938 19.851562 18 15.835938 18 15.414062 C 18 15.320312 17.90625 15.199219 17.789062 15.136719 C 17.613281 15.042969 17.203125 15.390625 15.394531 17.171875 "/>
</g>
</svg>
