<?xml version="1.0" encoding="UTF-8"?>
<svg xmlns="http://www.w3.org/2000/svg" xmlns:xlink="http://www.w3.org/1999/xlink" width="24px" height="24px" viewBox="0 0 24 24" version="1.1">
<g id="surface1">
<path style=" stroke:none;fill-rule:evenodd;fill:rgb(0%,0%,0%);fill-opacity:1;" d="M 12 1.441406 C 12 1.570312 12.046875 1.679688 12.105469 1.679688 C 12.164062 1.679688 12.484375 1.867188 12.816406 2.09375 C 13.28125 2.414062 13.449219 2.476562 13.542969 2.359375 C 13.703125 2.167969 13.609375 2.035156 12.972656 1.578125 C 12.359375 1.140625 12 1.085938 12 1.441406 M 10.960938 2.125 C 10.863281 2.742188 10.867188 2.976562 10.976562 3.097656 C 11.226562 3.367188 11.4375 2.941406 11.449219 2.128906 C 11.457031 1.550781 11.417969 1.378906 11.273438 1.351562 C 11.132812 1.320312 11.0625 1.5 10.960938 2.125 M 11.960938 2.902344 C 11.78125 4.417969 10.871094 5.398438 9.644531 5.398438 C 6.722656 5.398438 3.824219 7.925781 3.167969 11.039062 C 2.914062 12.25 2.992188 15.820312 3.296875 16.800781 C 3.835938 18.546875 5.246094 20.226562 6.847656 21.035156 C 8.273438 21.753906 9.078125 21.867188 12.421875 21.8125 C 15.171875 21.769531 15.339844 21.753906 16.1875 21.449219 C 18.28125 20.699219 20 18.960938 20.660156 16.929688 C 20.980469 15.933594 21.113281 12.535156 20.878906 11.164062 C 20.378906 8.183594 17.632812 5.667969 14.625 5.4375 L 13.679688 5.363281 L 13.675781 4.753906 C 13.675781 3.949219 13.351562 3.269531 12.714844 2.722656 C 12.429688 2.480469 12.160156 2.28125 12.113281 2.28125 C 12.070312 2.28125 12 2.558594 11.960938 2.902344 M 13.984375 3.234375 C 13.941406 3.300781 13.964844 3.664062 14.035156 4.039062 C 14.101562 4.417969 14.160156 4.742188 14.160156 4.761719 C 14.160156 4.855469 14.753906 4.789062 14.8125 4.691406 C 14.851562 4.628906 14.804688 4.429688 14.710938 4.242188 C 14.617188 4.054688 14.496094 3.742188 14.441406 3.550781 C 14.332031 3.179688 14.113281 3.023438 13.984375 3.234375 M 9.960938 4.082031 C 9.796875 4.210938 9.550781 4.316406 9.421875 4.320312 C 9.050781 4.324219 8.835938 4.511719 8.925781 4.742188 C 8.984375 4.902344 9.089844 4.933594 9.378906 4.875 C 9.914062 4.765625 10.578125 4.328125 10.535156 4.105469 C 10.480469 3.828125 10.292969 3.820312 9.960938 4.082031 M 15.839844 4.773438 C 15.839844 4.953125 16.015625 5.066406 16.597656 5.265625 C 17.5 5.570312 17.640625 5.578125 17.640625 5.335938 C 17.640625 5.144531 16.902344 4.773438 16.226562 4.625 C 15.894531 4.554688 15.839844 4.574219 15.839844 4.773438 M 6.863281 4.9375 C 6.214844 5.1875 5.960938 5.46875 6.238281 5.636719 C 6.433594 5.761719 7.859375 5.117188 7.859375 4.902344 C 7.859375 4.65625 7.558594 4.667969 6.863281 4.9375 M 18.402344 5.941406 C 18.355469 6.0625 18.53125 6.300781 18.902344 6.632812 C 19.679688 7.320312 19.785156 7.375 19.882812 7.125 C 19.941406 6.972656 19.792969 6.761719 19.332031 6.339844 C 18.65625 5.71875 18.511719 5.65625 18.402344 5.941406 M 4.464844 6.515625 C 3.921875 7.066406 3.832031 7.320312 4.175781 7.320312 C 4.414062 7.320312 5.398438 6.375 5.398438 6.144531 C 5.398438 5.84375 4.949219 6.019531 4.464844 6.515625 M 20.445312 7.972656 C 20.351562 8.222656 21.035156 9.527344 21.292969 9.578125 C 21.5625 9.632812 21.527344 9.324219 21.1875 8.660156 C 20.824219 7.933594 20.554688 7.6875 20.445312 7.972656 M 3.003906 8.394531 C 2.667969 8.867188 2.375 9.582031 2.464844 9.726562 C 2.628906 9.992188 2.84375 9.792969 3.207031 9.042969 C 3.570312 8.292969 3.609375 8.039062 3.359375 8.039062 C 3.304688 8.039062 3.144531 8.199219 3.003906 8.394531 M 14.878906 8.984375 C 13.734375 9.511719 13.371094 9.730469 13.34375 9.921875 C 13.324219 10.058594 13.382812 10.199219 13.472656 10.234375 C 13.566406 10.269531 14.339844 9.988281 15.191406 9.609375 C 16.554688 9.003906 16.738281 8.886719 16.738281 8.632812 C 16.738281 8.464844 16.664062 8.332031 16.558594 8.320312 C 16.460938 8.308594 15.703125 8.605469 14.878906 8.984375 M 7.445312 9.414062 C 7.320312 9.566406 7.316406 9.644531 7.425781 9.753906 C 7.570312 9.898438 10.738281 10.210938 11.015625 10.109375 C 11.101562 10.074219 11.15625 9.933594 11.136719 9.796875 C 11.09375 9.507812 10.808594 9.445312 8.8125 9.304688 C 7.773438 9.230469 7.585938 9.246094 7.445312 9.414062 M 8.238281 10.679688 C 7.757812 11.101562 7.617188 11.621094 7.84375 12.15625 C 8.078125 12.710938 8.441406 12.980469 9.023438 13.039062 C 9.703125 13.109375 10.242188 12.78125 10.441406 12.175781 C 10.898438 10.792969 9.324219 9.726562 8.238281 10.679688 M 14.730469 10.507812 C 14.550781 10.605469 14.320312 10.84375 14.222656 11.039062 C 13.6875 12.066406 14.480469 13.195312 15.628906 13.042969 C 16.175781 12.96875 16.527344 12.691406 16.753906 12.15625 C 16.980469 11.621094 16.84375 11.101562 16.359375 10.679688 C 15.894531 10.269531 15.285156 10.207031 14.730469 10.507812 M 21.527344 10.5625 C 21.441406 10.644531 21.4375 10.957031 21.507812 11.492188 C 21.632812 12.40625 21.636719 12.417969 21.90625 12.3125 C 22.074219 12.25 22.089844 12.121094 22.019531 11.488281 C 21.933594 10.699219 21.742188 10.34375 21.527344 10.5625 M 2.09375 10.8125 C 2.046875 10.886719 1.980469 11.53125 1.949219 12.25 C 1.894531 13.398438 1.910156 13.5625 2.089844 13.632812 C 2.199219 13.675781 2.308594 13.691406 2.332031 13.664062 C 2.355469 13.640625 2.414062 12.957031 2.460938 12.148438 C 2.535156 10.863281 2.523438 10.679688 2.359375 10.679688 C 2.257812 10.679688 2.136719 10.738281 2.09375 10.8125 M 21.601562 14.203125 C 21.601562 15.113281 21.667969 15.300781 21.941406 15.132812 C 22.042969 15.066406 22.082031 14.777344 22.054688 14.210938 C 22.027344 13.535156 21.980469 13.375 21.808594 13.34375 C 21.625 13.308594 21.601562 13.410156 21.601562 14.203125 M 2.050781 14.804688 C 1.847656 15.050781 2.007812 16.433594 2.25 16.527344 C 2.527344 16.636719 2.601562 16.371094 2.507812 15.585938 C 2.414062 14.769531 2.277344 14.535156 2.050781 14.804688 M 14.773438 16 C 14.179688 16.804688 13.664062 17.242188 12.898438 17.59375 C 12.160156 17.933594 10.710938 18.167969 10.011719 18.066406 C 9.371094 17.96875 9 18.140625 9 18.539062 C 9 19.015625 9.363281 19.113281 10.910156 19.050781 C 12.464844 18.988281 13.148438 18.785156 14.242188 18.0625 C 14.949219 17.59375 15.960938 16.324219 15.960938 15.910156 C 15.960938 15.59375 15.75 15.359375 15.460938 15.359375 C 15.34375 15.359375 15.035156 15.644531 14.773438 16 M 21.519531 16.230469 C 21.425781 16.355469 21.21875 17.058594 21.09375 17.664062 C 21.074219 17.75 21.164062 17.820312 21.296875 17.820312 C 21.476562 17.820312 21.578125 17.660156 21.75 17.105469 C 21.960938 16.40625 21.957031 16.078125 21.738281 16.078125 C 21.679688 16.078125 21.578125 16.148438 21.519531 16.230469 M 2.558594 17.589844 C 2.480469 17.796875 2.945312 18.886719 3.207031 19.101562 C 3.324219 19.199219 3.40625 19.199219 3.496094 19.109375 C 3.589844 19.019531 3.511719 18.75 3.238281 18.191406 C 2.839844 17.386719 2.6875 17.25 2.558594 17.589844 M 20.011719 19.378906 C 19.53125 20.066406 19.460938 20.28125 19.71875 20.28125 C 19.988281 20.28125 20.878906 19.199219 20.878906 18.875 C 20.878906 18.515625 20.425781 18.777344 20.011719 19.378906 M 4.011719 19.929688 C 3.921875 20.078125 4.855469 21.082031 5.183594 21.1875 C 5.300781 21.226562 5.460938 21.214844 5.539062 21.167969 C 5.628906 21.113281 5.429688 20.855469 4.976562 20.441406 C 4.242188 19.769531 4.144531 19.71875 4.011719 19.929688 M 17.96875 21.203125 C 17.292969 21.628906 17.078125 21.960938 17.484375 21.960938 C 17.832031 21.960938 18.960938 21.207031 18.960938 20.976562 C 18.960938 20.664062 18.746094 20.714844 17.96875 21.203125 M 6.316406 21.695312 C 6.28125 21.75 6.292969 21.851562 6.339844 21.925781 C 6.457031 22.117188 7.6875 22.582031 7.878906 22.507812 C 8.234375 22.371094 8.007812 22.101562 7.335938 21.855469 C 6.570312 21.578125 6.40625 21.550781 6.316406 21.695312 M 15.574219 22.148438 C 14.535156 22.363281 14.441406 22.414062 14.652344 22.625 C 14.796875 22.769531 14.953125 22.773438 15.566406 22.667969 C 16.351562 22.527344 16.679688 22.316406 16.410156 22.121094 C 16.316406 22.046875 16.007812 22.058594 15.574219 22.148438 M 9.023438 22.53125 C 9.054688 22.703125 9.214844 22.746094 9.890625 22.777344 C 10.457031 22.800781 10.746094 22.765625 10.8125 22.660156 C 10.980469 22.386719 10.796875 22.320312 9.882812 22.320312 C 9.089844 22.320312 8.988281 22.34375 9.023438 22.53125 M 11.816406 22.445312 C 11.65625 22.707031 11.96875 22.8125 12.792969 22.777344 C 13.433594 22.75 13.621094 22.699219 13.621094 22.558594 C 13.621094 22.421875 13.429688 22.371094 12.761719 22.34375 C 12.214844 22.324219 11.871094 22.359375 11.816406 22.445312 "/>
</g>
</svg>
