<?xml version="1.0" encoding="UTF-8"?>
<svg xmlns="http://www.w3.org/2000/svg" xmlns:xlink="http://www.w3.org/1999/xlink" width="100px" height="100px" viewBox="0 0 100 100" version="1.1">
<g id="surface1">
<path style=" stroke:none;fill-rule:evenodd;fill:rgb(0%,0%,0%);fill-opacity:1;" d="M 50 6 C 50 6.550781 50.199219 7 50.445312 7 C 50.6875 7 52.019531 7.777344 53.402344 8.726562 C 55.335938 10.058594 56.03125 10.316406 56.429688 9.835938 C 57.101562 9.027344 56.707031 8.488281 54.050781 6.578125 C 51.496094 4.746094 50 4.53125 50 6 M 45.671875 8.859375 C 45.265625 11.433594 45.28125 12.40625 45.738281 12.898438 C 46.785156 14.035156 47.652344 12.261719 47.703125 8.871094 C 47.738281 6.464844 47.578125 5.746094 46.980469 5.625 C 46.386719 5.503906 46.089844 6.242188 45.671875 8.859375 M 49.832031 12.09375 C 49.082031 18.414062 45.296875 22.5 40.1875 22.5 C 28.015625 22.5 15.925781 33.027344 13.195312 46 C 12.136719 51.042969 12.46875 65.910156 13.734375 70 C 15.988281 77.28125 21.851562 84.273438 28.53125 87.644531 C 34.480469 90.644531 37.828125 91.113281 51.75 90.890625 C 63.210938 90.707031 63.914062 90.640625 67.441406 89.378906 C 76.171875 86.25 83.332031 79.007812 86.078125 70.535156 C 87.425781 66.390625 87.96875 52.234375 87.003906 46.511719 C 84.90625 34.09375 73.464844 23.621094 60.933594 22.65625 L 57 22.351562 L 56.988281 19.800781 C 56.972656 16.449219 55.632812 13.621094 52.976562 11.347656 C 51.789062 10.332031 50.667969 9.5 50.480469 9.5 C 50.292969 9.5 50 10.667969 49.832031 12.09375 M 58.269531 13.46875 C 58.09375 13.753906 58.183594 15.269531 58.472656 16.835938 C 58.761719 18.402344 59 19.753906 59 19.84375 C 59 20.222656 61.46875 19.953125 61.722656 19.542969 C 61.878906 19.292969 61.6875 18.449219 61.300781 17.667969 C 60.910156 16.886719 60.40625 15.59375 60.171875 14.789062 C 59.722656 13.242188 58.804688 12.601562 58.269531 13.46875 M 41.5 17 C 40.8125 17.539062 39.800781 17.984375 39.25 17.996094 C 37.710938 18.027344 36.8125 18.792969 37.183594 19.761719 C 37.441406 20.425781 37.871094 20.550781 39.074219 20.308594 C 41.316406 19.863281 44.078125 18.03125 43.902344 17.109375 C 43.675781 15.945312 42.894531 15.910156 41.5 17 M 66 19.894531 C 66 20.640625 66.730469 21.113281 69.160156 21.933594 C 72.921875 23.203125 73.5 23.242188 73.5 22.230469 C 73.5 21.4375 70.421875 19.890625 67.605469 19.273438 C 66.226562 18.96875 66 19.058594 66 19.894531 M 28.589844 20.566406 C 25.886719 21.613281 24.84375 22.785156 25.988281 23.492188 C 26.8125 24.003906 32.75 21.316406 32.75 20.433594 C 32.75 19.402344 31.5 19.441406 28.589844 20.566406 M 76.675781 24.761719 C 76.484375 25.257812 77.210938 26.257812 78.765625 27.636719 C 81.996094 30.503906 82.441406 30.730469 82.84375 29.6875 C 83.085938 29.058594 82.464844 28.171875 80.550781 26.410156 C 77.742188 23.828125 77.132812 23.570312 76.675781 24.761719 M 18.605469 27.144531 C 16.34375 29.445312 15.964844 30.5 17.394531 30.5 C 18.390625 30.5 22.5 26.558594 22.5 25.605469 C 22.5 24.34375 20.628906 25.082031 18.605469 27.144531 M 85.195312 33.214844 C 84.792969 34.261719 87.648438 39.691406 88.71875 39.910156 C 89.839844 40.144531 89.695312 38.847656 88.289062 36.078125 C 86.761719 33.0625 85.648438 32.035156 85.195312 33.214844 M 12.519531 34.972656 C 11.113281 36.949219 9.898438 39.933594 10.261719 40.523438 C 10.945312 41.628906 11.84375 40.800781 13.359375 37.671875 C 14.867188 34.546875 15.03125 33.5 14.003906 33.5 C 13.765625 33.5 13.097656 34.160156 12.519531 34.972656 M 62 37.441406 C 57.226562 39.628906 55.714844 40.546875 55.597656 41.339844 C 55.515625 41.90625 55.757812 42.492188 56.140625 42.640625 C 56.523438 42.785156 59.742188 41.613281 63.292969 40.039062 C 68.984375 37.507812 69.75 37.027344 69.75 35.96875 C 69.75 35.273438 69.433594 34.722656 69 34.667969 C 68.585938 34.617188 65.4375 35.863281 62 37.441406 M 31.019531 39.222656 C 30.5 39.851562 30.476562 40.179688 30.933594 40.632812 C 31.546875 41.246094 44.738281 42.554688 45.902344 42.117188 C 46.257812 41.984375 46.484375 41.398438 46.402344 40.816406 C 46.226562 39.609375 45.039062 39.355469 36.726562 38.765625 C 32.398438 38.457031 31.605469 38.519531 31.019531 39.222656 M 34.332031 44.496094 C 32.320312 46.261719 31.742188 48.425781 32.6875 50.65625 C 33.664062 52.964844 35.164062 54.089844 37.605469 54.335938 C 40.429688 54.625 42.675781 53.25 43.507812 50.722656 C 45.40625 44.976562 38.847656 40.527344 34.332031 44.496094 M 61.382812 43.78125 C 60.628906 44.191406 59.671875 45.183594 59.257812 45.988281 C 57.035156 50.28125 60.339844 54.988281 65.121094 54.347656 C 67.402344 54.042969 68.867188 52.886719 69.8125 50.65625 C 70.757812 48.425781 70.179688 46.261719 68.167969 44.496094 C 66.234375 42.796875 63.691406 42.53125 61.382812 43.78125 M 89.691406 44.007812 C 89.347656 44.351562 89.324219 45.648438 89.625 47.882812 C 90.132812 51.691406 90.15625 51.738281 91.277344 51.308594 C 91.96875 51.042969 92.042969 50.511719 91.75 47.871094 C 91.382812 44.578125 90.597656 43.101562 89.691406 44.007812 M 8.71875 45.054688 C 8.527344 45.359375 8.257812 48.054688 8.117188 51.042969 C 7.890625 55.824219 7.960938 56.515625 8.703125 56.800781 C 9.164062 56.976562 9.621094 57.039062 9.714844 56.9375 C 9.8125 56.835938 10.050781 53.992188 10.25 50.625 C 10.566406 45.269531 10.511719 44.5 9.835938 44.5 C 9.40625 44.5 8.90625 44.75 8.71875 45.054688 M 90 59.183594 C 90 62.980469 90.285156 63.75 91.421875 63.046875 C 91.851562 62.78125 92.003906 61.574219 91.898438 59.210938 C 91.777344 56.394531 91.589844 55.730469 90.875 55.59375 C 90.105469 55.445312 90 55.875 90 59.183594 M 8.550781 61.691406 C 7.707031 62.707031 8.367188 68.480469 9.371094 68.863281 C 10.535156 69.3125 10.839844 68.210938 10.457031 64.945312 C 10.054688 61.546875 9.480469 60.566406 8.550781 61.691406 M 61.5625 66.667969 C 59.085938 70.015625 56.9375 71.84375 53.75 73.308594 C 50.671875 74.71875 44.621094 75.707031 41.710938 75.269531 C 39.039062 74.871094 37.5 75.59375 37.5 77.25 C 37.5 79.238281 39.007812 79.644531 45.453125 79.382812 C 51.945312 79.125 54.789062 78.277344 59.339844 75.257812 C 62.285156 73.300781 66.5 68.027344 66.5 66.296875 C 66.5 64.972656 65.617188 64 64.414062 64 C 63.925781 64 62.652344 65.191406 61.5625 66.667969 M 89.660156 67.625 C 89.273438 68.152344 88.402344 71.074219 87.882812 73.597656 C 87.808594 73.957031 88.1875 74.25 88.730469 74.25 C 89.492188 74.25 89.910156 73.585938 90.617188 71.269531 C 91.503906 68.351562 91.492188 67 90.578125 67 C 90.328125 67 89.914062 67.28125 89.660156 67.625 M 10.667969 73.289062 C 10.335938 74.148438 12.277344 78.695312 13.363281 79.59375 C 13.84375 79.992188 14.199219 80.003906 14.574219 79.625 C 14.953125 79.246094 14.632812 78.128906 13.484375 75.796875 C 11.832031 72.441406 11.207031 71.882812 10.667969 73.289062 M 83.375 80.738281 C 81.382812 83.609375 81.09375 84.5 82.15625 84.5 C 83.277344 84.5 87 79.996094 87 78.636719 C 87 77.144531 85.113281 78.238281 83.375 80.738281 M 16.722656 83.046875 C 16.339844 83.664062 20.234375 87.847656 21.597656 88.28125 C 22.089844 88.4375 22.753906 88.402344 23.070312 88.207031 C 23.445312 87.972656 22.617188 86.898438 20.734375 85.171875 C 17.671875 82.371094 17.273438 82.15625 16.722656 83.046875 M 74.875 88.339844 C 72.054688 90.113281 71.167969 91.5 72.851562 91.5 C 74.304688 91.5 79 88.367188 79 87.394531 C 79 86.101562 78.113281 86.304688 74.875 88.339844 M 26.3125 90.398438 C 26.175781 90.617188 26.222656 91.050781 26.414062 91.359375 C 26.90625 92.160156 32.023438 94.097656 32.828125 93.789062 C 34.308594 93.21875 33.371094 92.085938 30.574219 91.066406 C 27.382812 89.902344 26.6875 89.792969 26.3125 90.398438 M 64.894531 92.285156 C 60.570312 93.179688 60.171875 93.386719 61.050781 94.261719 C 61.652344 94.863281 62.304688 94.898438 64.867188 94.445312 C 68.136719 93.867188 69.492188 92.988281 68.382812 92.164062 C 67.984375 91.871094 66.691406 91.914062 64.894531 92.285156 M 37.59375 93.875 C 37.730469 94.589844 38.394531 94.777344 41.210938 94.898438 C 43.574219 95.003906 44.78125 94.851562 45.046875 94.421875 C 45.75 93.285156 44.980469 93 41.183594 93 C 37.875 93 37.445312 93.105469 37.59375 93.875 M 49.234375 93.523438 C 48.566406 94.605469 49.871094 95.046875 53.300781 94.898438 C 55.96875 94.785156 56.75 94.578125 56.75 94 C 56.75 93.417969 55.953125 93.21875 53.167969 93.105469 C 50.894531 93.011719 49.457031 93.164062 49.234375 93.523438 "/>
</g>
</svg>
