<?xml version="1.0" encoding="UTF-8"?>
<svg xmlns="http://www.w3.org/2000/svg" xmlns:xlink="http://www.w3.org/1999/xlink" width="24px" height="24px" viewBox="0 0 24 24" version="1.1">
<g id="surface1">
<path style=" stroke:none;fill-rule:evenodd;fill:rgb(0%,0%,0%);fill-opacity:1;" d="M 6.398438 0.078125 C 6.300781 0.117188 6.328125 0.289062 6.496094 0.667969 C 6.699219 1.132812 6.714844 1.289062 6.605469 1.882812 C 6.535156 2.257812 6.480469 3.472656 6.480469 4.585938 C 6.480469 6.578125 6.476562 6.617188 6.132812 7.296875 C 5.144531 9.25 3.953125 12.421875 3.417969 14.519531 C 3.066406 15.894531 2.726562 17.816406 2.789062 18.097656 C 2.8125 18.207031 2.875 18.03125 2.925781 17.699219 C 3.285156 15.351562 4.609375 11.410156 6.132812 8.164062 L 6.738281 6.871094 L 7.46875 6.796875 C 7.867188 6.753906 8.445312 6.71875 8.746094 6.71875 C 9.355469 6.714844 9.519531 6.644531 9.636719 6.328125 C 9.707031 6.140625 9.609375 6.121094 8.578125 6.121094 C 7.917969 6.121094 7.441406 6.070312 7.441406 6.003906 C 7.441406 5.78125 8.820312 4.476562 9.328125 4.214844 L 9.835938 3.957031 L 10.078125 4.199219 C 10.398438 4.519531 10.382812 4.761719 9.96875 5.984375 C 9.773438 6.554688 9.578125 7.371094 9.53125 7.800781 C 9.46875 8.402344 9.289062 8.902344 8.753906 10 C 7.269531 13.023438 7.125 15.613281 8.300781 18.085938 C 8.613281 18.738281 8.964844 19.171875 10.078125 20.28125 C 10.84375 21.039062 11.574219 21.863281 11.703125 22.109375 C 11.832031 22.359375 11.964844 22.558594 11.996094 22.558594 C 12.03125 22.558594 12.191406 22.316406 12.347656 22.019531 C 12.511719 21.707031 13.152344 20.996094 13.863281 20.339844 C 14.878906 19.402344 15.175781 19.039062 15.574219 18.269531 C 15.839844 17.757812 16.125 17.097656 16.203125 16.800781 C 16.785156 14.671875 16.417969 12.296875 15.121094 9.71875 C 14.683594 8.855469 14.527344 8.390625 14.464844 7.800781 C 14.421875 7.371094 14.226562 6.554688 14.03125 5.984375 C 13.621094 4.777344 13.605469 4.558594 13.898438 4.199219 L 14.113281 3.929688 L 14.644531 4.203125 C 15.171875 4.472656 16.558594 5.777344 16.558594 6.003906 C 16.558594 6.070312 16.082031 6.121094 15.421875 6.121094 C 14.390625 6.121094 14.292969 6.140625 14.363281 6.328125 C 14.480469 6.644531 14.644531 6.714844 15.253906 6.71875 C 15.554688 6.71875 16.132812 6.753906 16.53125 6.796875 L 17.257812 6.871094 L 17.914062 8.265625 C 19.242188 11.101562 20.464844 14.640625 20.949219 17.058594 C 21.183594 18.238281 21.289062 18.445312 21.175781 17.519531 C 21.023438 16.261719 20.496094 14.089844 19.921875 12.359375 C 19.355469 10.65625 18.214844 7.890625 17.753906 7.101562 C 17.546875 6.753906 17.519531 6.46875 17.519531 4.636719 C 17.519531 3.496094 17.464844 2.261719 17.394531 1.894531 C 17.292969 1.339844 17.308594 1.136719 17.472656 0.722656 C 17.613281 0.375 17.632812 0.1875 17.546875 0.0976562 C 17.351562 -0.09375 17.195312 0.0703125 17.101562 0.570312 C 17.054688 0.816406 16.96875 1.082031 16.902344 1.160156 C 16.828125 1.25 16.835938 1.941406 16.921875 3.078125 C 16.996094 4.058594 17.042969 5.089844 17.019531 5.375 L 16.980469 5.886719 L 16.460938 5.21875 C 15.875 4.46875 14.871094 3.660156 14.363281 3.535156 C 13.964844 3.433594 13.089844 3.738281 12.777344 4.085938 C 12.476562 4.414062 11.523438 4.414062 11.222656 4.085938 C 10.914062 3.742188 10.035156 3.433594 9.648438 3.53125 C 9.105469 3.667969 8.296875 4.300781 7.640625 5.105469 L 7.019531 5.867188 L 6.980469 5.363281 C 6.960938 5.085938 7 4.054688 7.070312 3.074219 C 7.15625 1.894531 7.160156 1.238281 7.082031 1.144531 C 7.019531 1.066406 6.921875 0.792969 6.867188 0.539062 C 6.773438 0.078125 6.664062 -0.03125 6.398438 0.078125 M 5.289062 10.910156 C 4.765625 12.273438 4.355469 13.863281 4.125 15.421875 C 4.003906 16.257812 3.851562 16.855469 3.707031 17.054688 C 3.511719 17.332031 3.503906 17.390625 3.660156 17.519531 C 3.804688 17.640625 3.855469 17.609375 3.957031 17.351562 C 4.023438 17.179688 4.179688 16.890625 4.304688 16.707031 C 4.460938 16.484375 4.578125 15.988281 4.671875 15.167969 C 4.828125 13.789062 5.144531 12.367188 5.519531 11.367188 L 5.777344 10.679688 L 7.015625 10.679688 C 8.0625 10.679688 8.265625 10.648438 8.332031 10.480469 C 8.460938 10.140625 8.226562 10.058594 6.925781 9.992188 L 5.671875 9.925781 L 5.289062 10.910156 M 16.078125 10.066406 C 15.695312 10.132812 15.648438 10.195312 15.703125 10.558594 C 15.710938 10.632812 16.230469 10.679688 16.972656 10.679688 L 18.222656 10.679688 L 18.480469 11.367188 C 18.855469 12.367188 19.171875 13.789062 19.328125 15.167969 C 19.421875 15.988281 19.539062 16.484375 19.695312 16.707031 C 19.820312 16.890625 19.976562 17.179688 20.042969 17.351562 C 20.140625 17.609375 20.195312 17.640625 20.335938 17.523438 C 20.488281 17.398438 20.480469 17.335938 20.285156 17.058594 C 20.136719 16.851562 19.988281 16.277344 19.867188 15.421875 C 19.648438 13.878906 19.238281 12.285156 18.714844 10.925781 L 18.34375 9.960938 L 17.421875 9.976562 C 16.914062 9.984375 16.3125 10.023438 16.078125 10.066406 M 6.625 13.023438 C 6.277344 13.179688 5.824219 13.429688 5.621094 13.574219 C 5.253906 13.835938 5.253906 13.835938 5.335938 14.6875 C 5.535156 16.75 6.269531 19.644531 7.144531 21.8125 C 7.417969 22.492188 7.558594 23.042969 7.558594 23.421875 C 7.558594 23.910156 7.597656 24 7.785156 24 C 7.988281 24 8.007812 23.917969 7.976562 23.25 C 7.949219 22.710938 7.703125 21.789062 7.097656 19.980469 C 6.292969 17.578125 5.761719 15.453125 5.761719 14.65625 C 5.761719 14.332031 5.867188 14.214844 6.660156 13.679688 C 7.15625 13.347656 7.558594 12.992188 7.558594 12.894531 C 7.558594 12.65625 7.371094 12.683594 6.625 13.023438 M 16.441406 12.894531 C 16.441406 12.992188 16.84375 13.347656 17.339844 13.679688 C 18.128906 14.210938 18.238281 14.332031 18.238281 14.652344 C 18.238281 15.441406 17.699219 17.582031 16.898438 19.980469 C 16.28125 21.820312 16.042969 22.703125 16.019531 23.25 C 15.992188 23.917969 16.011719 24 16.214844 24 C 16.402344 24 16.441406 23.910156 16.441406 23.421875 C 16.441406 23.042969 16.582031 22.492188 16.855469 21.8125 C 17.730469 19.644531 18.464844 16.75 18.664062 14.6875 C 18.746094 13.835938 18.746094 13.835938 18.378906 13.574219 C 17.992188 13.300781 16.757812 12.71875 16.554688 12.71875 C 16.492188 12.71875 16.441406 12.800781 16.441406 12.894531 "/>
</g>
</svg>
