<?xml version="1.0" encoding="UTF-8"?>
<svg xmlns="http://www.w3.org/2000/svg" xmlns:xlink="http://www.w3.org/1999/xlink" width="100px" height="100px" viewBox="0 0 100 100" version="1.1">
<g id="surface1">
<path style=" stroke:none;fill-rule:evenodd;fill:rgb(0%,0%,0%);fill-opacity:1;" d="M 61.957031 8.085938 C 60.195312 10.582031 58.601562 12.855469 58.421875 13.140625 C 58.207031 13.480469 55.585938 13.265625 50.582031 12.496094 L 43.066406 11.339844 L 34.910156 15.003906 C 30.421875 17.015625 26.492188 18.910156 26.175781 19.207031 C 25.859375 19.507812 25.230469 21.414062 24.78125 23.445312 C 24.078125 26.585938 23.511719 27.714844 20.988281 30.976562 L 18.019531 34.816406 L 19.445312 38.53125 C 20.828125 42.128906 20.851562 42.324219 20.136719 44.746094 C 19.730469 46.125 19.222656 47.566406 19.007812 47.953125 C 18.796875 48.339844 16.289062 49.722656 13.4375 51.027344 L 8.25 53.394531 L 6.878906 57.070312 C 6.125 59.09375 5.511719 60.976562 5.511719 61.25 C 5.515625 61.523438 8.496094 63.050781 12.136719 64.644531 L 18.757812 67.535156 L 22.46875 66.757812 C 24.507812 66.328125 26.339844 66.152344 26.535156 66.363281 C 26.730469 66.574219 29.539062 71.363281 32.769531 77 C 36 82.636719 38.894531 87.515625 39.199219 87.839844 C 39.5 88.164062 42.5625 88.703125 46 89.035156 C 52.164062 89.628906 52.292969 89.667969 55.386719 91.8125 L 58.527344 93.984375 L 71.386719 89.3125 C 83.648438 84.859375 84.523438 84.453125 90.132812 80.632812 L 96.015625 76.625 L 90.921875 72.4375 C 88.117188 70.132812 85.640625 68.125 85.410156 67.96875 C 85.183594 67.816406 85.410156 66.464844 85.917969 64.96875 C 86.835938 62.261719 86.855469 62.246094 89.796875 61.449219 C 93.195312 60.527344 93.179688 60.605469 90.953125 55.644531 C 90.023438 53.574219 89.261719 50.765625 88.953125 48.273438 C 88.679688 46.0625 88.359375 43.78125 88.238281 43.207031 C 88.078125 42.425781 86.261719 41.324219 81.09375 38.863281 L 74.164062 35.570312 L 74.648438 32.160156 C 75.027344 29.480469 75.542969 28.160156 77.054688 25.996094 L 78.972656 23.242188 L 77.515625 18.550781 C 75.925781 13.433594 75.589844 12.984375 68.957031 6.976562 L 65.167969 3.542969 L 61.957031 8.085938 "/>
</g>
</svg>
