<?xml version="1.0" encoding="UTF-8"?>
<svg xmlns="http://www.w3.org/2000/svg" xmlns:xlink="http://www.w3.org/1999/xlink" width="24px" height="24px" viewBox="0 0 24 24" version="1.1">
<g id="surface1">
<path style=" stroke:none;fill-rule:evenodd;fill:rgb(0%,0%,0%);fill-opacity:1;" d="M 9.539062 0.378906 C 6.773438 1.609375 5.582031 3.316406 5.160156 6.644531 C 5.003906 7.910156 4.679688 13.980469 4.679688 15.707031 C 4.679688 17.140625 4.902344 18.5 5.285156 19.390625 C 5.621094 20.179688 6.917969 22.039062 7.628906 22.757812 C 8.644531 23.785156 9.78125 24.191406 10.753906 23.878906 C 11.75 23.558594 14.574219 21.953125 15.058594 21.433594 C 15.828125 20.609375 16.734375 17.878906 17.28125 14.746094 C 17.613281 12.839844 17.746094 8.960938 17.523438 7.59375 C 17.109375 5.027344 15.65625 2.628906 13.585938 1.105469 C 11.890625 -0.148438 11.058594 -0.296875 9.539062 0.378906 M 10.671875 0.855469 C 10.472656 1.226562 10.609375 1.832031 11.113281 2.851562 C 11.675781 3.992188 11.757812 4.640625 11.414062 5.195312 C 11.046875 5.789062 11.097656 6.195312 11.640625 7.078125 C 11.902344 7.507812 12.121094 8.003906 12.121094 8.179688 C 12.121094 8.367188 11.949219 8.703125 11.699219 9 C 11.46875 9.277344 11.28125 9.605469 11.28125 9.734375 C 11.28125 9.863281 11.472656 10.136719 11.707031 10.339844 C 12.355469 10.910156 12.515625 11.324219 12.597656 12.609375 C 12.667969 13.71875 12.691406 13.792969 13.273438 14.769531 C 13.976562 15.953125 14.113281 16.265625 14.390625 17.363281 L 14.597656 18.179688 L 14.828125 17.519531 C 15.011719 16.996094 15.058594 16.539062 15.054688 15.300781 C 15.050781 13.511719 14.898438 12.988281 13.984375 11.566406 C 13.695312 11.113281 13.480469 10.71875 13.511719 10.6875 C 13.625 10.574219 15.007812 12.074219 15.269531 12.59375 C 15.515625 13.089844 15.539062 13.304688 15.535156 15 C 15.535156 16.640625 15.496094 16.996094 15.210938 18.019531 C 14.863281 19.277344 14.371094 20.453125 13.800781 21.378906 C 13.410156 22.015625 13.511719 22.117188 14.089844 21.675781 C 15.582031 20.535156 16.519531 14.867188 15.898438 10.738281 C 15.511719 8.164062 14.542969 5.414062 14.023438 5.402344 C 13.980469 5.402344 14.070312 5.710938 14.21875 6.089844 C 14.496094 6.789062 14.683594 7.800781 14.539062 7.800781 C 14.492188 7.800781 13.894531 7.304688 13.203125 6.699219 C 12.214844 5.832031 12.023438 5.621094 12.304688 5.6875 C 12.5 5.734375 12.875 5.917969 13.136719 6.097656 C 13.402344 6.273438 13.683594 6.460938 13.765625 6.515625 C 13.859375 6.574219 13.824219 6.398438 13.679688 6.058594 C 13.367188 5.328125 13.058594 4.117188 13.101562 3.800781 C 13.132812 3.601562 13.382812 3.875 14.199219 4.976562 C 15.882812 7.246094 16.105469 7.835938 16.320312 10.542969 C 16.390625 11.425781 16.511719 12.421875 16.589844 12.761719 L 16.730469 13.378906 L 16.8125 12.660156 C 17.421875 7.246094 15.550781 2.699219 11.976562 0.886719 C 11.265625 0.527344 10.851562 0.519531 10.671875 0.855469 M 9.867188 0.929688 C 9.628906 1.011719 9.394531 1.5625 9.300781 2.28125 C 9.195312 3.050781 8.972656 3.542969 8.640625 3.71875 C 8.152344 3.980469 8.046875 4.429688 8.078125 6.097656 C 8.09375 6.960938 8.140625 7.699219 8.179688 7.742188 C 8.222656 7.78125 8.460938 7.433594 8.710938 6.972656 C 9.160156 6.136719 9.417969 5.890625 9.628906 6.097656 C 9.691406 6.164062 9.582031 6.433594 9.363281 6.753906 C 8.867188 7.492188 8.554688 8.21875 8.285156 9.269531 C 8.109375 9.960938 8.050781 10.078125 7.992188 9.839844 C 7.859375 9.273438 7.679688 7.507812 7.679688 6.761719 C 7.679688 5.957031 7.597656 5.605469 7.425781 5.707031 C 7.367188 5.746094 7.320312 6.828125 7.320312 8.121094 C 7.320312 9.410156 7.234375 11.714844 7.128906 13.242188 C 6.902344 16.546875 6.953125 19.902344 7.242188 20.820312 C 7.84375 22.722656 9.460938 23.789062 10.832031 23.183594 C 11.125 23.054688 11.40625 22.890625 11.449219 22.820312 C 11.492188 22.75 11.257812 22.226562 10.929688 21.652344 C 10.273438 20.511719 9.722656 19.09375 9.320312 17.519531 C 9.097656 16.636719 9.0625 16.167969 9.0625 14.035156 C 9.058594 11.875 9.085938 11.527344 9.273438 11.246094 C 9.535156 10.84375 9.785156 10.808594 9.660156 11.191406 C 9.613281 11.339844 9.546875 12.351562 9.515625 13.441406 C 9.46875 14.972656 9.5 15.664062 9.652344 16.5 C 9.980469 18.296875 10.714844 20.285156 11.65625 21.925781 L 12.03125 22.582031 L 12.609375 22.011719 C 13.769531 20.867188 14.335938 19.207031 14.050781 17.765625 C 13.859375 16.800781 13.578125 16.148438 12.742188 14.765625 C 12.066406 13.644531 12.058594 13.625 12.050781 12.667969 C 12.042969 11.402344 12.085938 11.535156 11.398438 10.75 C 10.902344 10.183594 10.800781 9.988281 10.800781 9.601562 C 10.800781 9.222656 10.867188 9.089844 11.160156 8.878906 C 11.675781 8.511719 11.644531 8.042969 11.039062 7.152344 C 10.492188 6.351562 10.460938 6.082031 10.800781 5.101562 C 11.125 4.15625 11.109375 3.972656 10.613281 3.074219 C 10.332031 2.558594 10.160156 2.058594 10.105469 1.585938 C 10.046875 1.09375 9.972656 0.894531 9.867188 0.929688 M 8.101562 1.894531 C 7.296875 2.503906 6.65625 3.457031 6.3125 4.554688 C 5.878906 5.933594 5.496094 9.15625 5.339844 12.78125 L 5.265625 14.460938 L 5.511719 14.179688 C 5.941406 13.6875 6.0625 13.050781 5.890625 12.191406 C 5.722656 11.339844 5.722656 11.328125 6.472656 7.921875 C 6.988281 5.601562 7.359375 4.609375 8.101562 3.597656 C 8.550781 2.988281 8.878906 2.191406 8.878906 1.726562 C 8.878906 1.347656 8.804688 1.363281 8.101562 1.894531 M 12.550781 7.058594 C 12.519531 7.117188 12.851562 7.484375 13.296875 7.882812 C 14.113281 8.613281 14.667969 9.460938 14.800781 10.171875 C 14.886719 10.640625 14.609375 10.71875 14.390625 10.289062 C 14.058594 9.644531 13.078125 8.851562 13.078125 9.234375 C 13.078125 9.414062 15.148438 11.761719 15.308594 11.761719 C 15.417969 11.761719 15.269531 10.050781 15.105469 9.4375 C 14.972656 8.933594 14.296875 8.132812 13.398438 7.421875 C 12.800781 6.949219 12.660156 6.886719 12.550781 7.058594 M 6.835938 8.191406 C 6.832031 8.625 6.492188 10.671875 6.394531 10.871094 C 6.226562 11.214844 6.34375 12.359375 6.550781 12.359375 C 6.660156 12.359375 6.71875 12.226562 6.71875 11.96875 C 6.71875 11.753906 6.800781 11.121094 6.898438 10.558594 C 7.105469 9.390625 7.136719 8.039062 6.960938 8.039062 C 6.894531 8.039062 6.839844 8.109375 6.835938 8.191406 M 9.074219 8.429688 C 8.980469 8.578125 8.863281 8.941406 8.816406 9.238281 C 8.769531 9.535156 8.628906 9.96875 8.503906 10.199219 C 8.320312 10.542969 8.28125 10.875 8.285156 12.117188 C 8.289062 13.484375 8.304688 13.589844 8.460938 13.308594 C 8.554688 13.132812 8.6875 12.628906 8.761719 12.179688 C 8.832031 11.730469 9.015625 11.144531 9.171875 10.871094 C 9.328125 10.601562 9.488281 10.164062 9.53125 9.898438 L 9.605469 9.421875 L 9.234375 10.050781 C 9.027344 10.398438 8.839844 10.679688 8.8125 10.679688 C 8.722656 10.679688 8.914062 9.894531 9.121094 9.402344 C 9.417969 8.714844 9.527344 8.160156 9.371094 8.160156 C 9.300781 8.160156 9.167969 8.28125 9.074219 8.429688 M 6.082031 14.128906 C 5.914062 14.507812 5.71875 15.0625 5.648438 15.359375 C 5.472656 16.136719 5.496094 17.578125 5.699219 18.445312 C 5.886719 19.230469 6.328125 20.28125 6.472656 20.28125 C 6.519531 20.28125 6.535156 19.132812 6.503906 17.730469 C 6.472656 16.175781 6.503906 14.910156 6.582031 14.488281 C 6.808594 13.28125 6.546875 13.09375 6.082031 14.128906 "/>
</g>
</svg>
