<?xml version="1.0" encoding="UTF-8"?>
<svg xmlns="http://www.w3.org/2000/svg" xmlns:xlink="http://www.w3.org/1999/xlink" width="100px" height="100px" viewBox="0 0 100 100" version="1.1">
<g id="surface1">
<path style=" stroke:none;fill-rule:evenodd;fill:rgb(0%,0%,0%);fill-opacity:1;" d="M 39.75 1.585938 C 28.21875 6.707031 23.253906 13.816406 21.507812 27.695312 C 20.84375 32.964844 19.5 58.257812 19.5 65.453125 C 19.5 71.421875 20.429688 77.089844 22.019531 80.800781 C 23.429688 84.082031 28.820312 91.824219 31.78125 94.820312 C 36.023438 99.109375 40.75 100.804688 44.8125 99.496094 C 48.960938 98.15625 60.726562 91.472656 62.75 89.304688 C 65.945312 85.875 69.71875 74.503906 72 61.4375 C 73.382812 53.496094 73.933594 37.34375 73.015625 31.644531 C 71.292969 20.941406 65.234375 10.949219 56.613281 4.601562 C 49.539062 -0.613281 46.085938 -1.230469 39.75 1.585938 M 44.464844 3.570312 C 43.640625 5.101562 44.199219 7.636719 46.300781 11.882812 C 48.644531 16.632812 48.996094 19.332031 47.5625 21.652344 C 46.03125 24.125 46.234375 25.816406 48.5 29.5 C 49.597656 31.289062 50.5 33.347656 50.5 34.078125 C 50.5 34.863281 49.785156 36.261719 48.75 37.5 C 47.789062 38.652344 47 40.03125 47 40.5625 C 47 41.09375 47.800781 42.230469 48.777344 43.089844 C 51.476562 45.460938 52.152344 47.179688 52.488281 52.539062 C 52.78125 57.167969 52.875 57.46875 55.296875 61.539062 C 58.238281 66.476562 58.800781 67.777344 59.960938 72.339844 L 60.824219 75.75 L 61.789062 73 C 62.554688 70.8125 62.746094 68.921875 62.726562 63.75 C 62.703125 56.292969 62.082031 54.121094 58.269531 48.195312 C 57.054688 46.3125 56.167969 44.664062 56.296875 44.539062 C 56.777344 44.058594 62.535156 50.300781 63.617188 52.476562 C 64.648438 54.550781 64.75 55.433594 64.734375 62.5 C 64.722656 69.339844 64.5625 70.820312 63.382812 75.089844 C 61.9375 80.316406 59.875 85.21875 57.503906 89.070312 C 55.871094 91.726562 56.292969 92.15625 58.714844 90.308594 C 64.929688 85.570312 68.832031 61.949219 66.242188 44.75 C 64.625 34.023438 60.601562 22.558594 58.433594 22.507812 C 58.257812 22.503906 58.625 23.792969 59.25 25.375 C 60.398438 28.285156 61.179688 32.5 60.574219 32.5 C 60.390625 32.5 57.890625 30.4375 55.019531 27.921875 C 50.890625 24.300781 50.105469 23.414062 51.273438 23.699219 C 52.085938 23.898438 53.644531 24.664062 54.742188 25.40625 C 55.835938 26.144531 57.011719 26.925781 57.355469 27.144531 C 57.738281 27.386719 57.601562 26.652344 56.996094 25.246094 C 55.695312 22.203125 54.40625 17.15625 54.597656 15.828125 C 54.714844 15.011719 55.765625 16.140625 59.167969 20.734375 C 66.171875 30.195312 67.109375 32.652344 68.003906 43.929688 C 68.296875 47.601562 68.800781 51.765625 69.125 53.179688 L 69.71875 55.75 L 70.054688 52.75 C 72.589844 30.199219 64.800781 11.25 49.898438 3.699219 C 46.941406 2.199219 45.21875 2.15625 44.464844 3.570312 M 41.113281 3.875 C 40.113281 4.214844 39.148438 6.507812 38.75 9.5 C 38.320312 12.71875 37.382812 14.757812 36 15.5 C 33.972656 16.585938 33.53125 18.457031 33.660156 25.410156 C 33.726562 29.003906 33.917969 32.085938 34.085938 32.253906 C 34.257812 32.421875 35.25 30.980469 36.292969 29.046875 C 38.171875 25.570312 39.246094 24.546875 40.113281 25.414062 C 40.375 25.675781 39.921875 26.804688 39.015625 28.148438 C 36.949219 31.210938 35.648438 34.25 34.527344 38.621094 C 33.789062 41.503906 33.539062 41.992188 33.304688 41 C 32.75 38.640625 32 31.277344 32 28.179688 C 32 24.816406 31.648438 23.347656 30.949219 23.78125 C 30.703125 23.933594 30.5 28.457031 30.5 33.835938 C 30.5 39.210938 30.140625 48.816406 29.703125 55.179688 C 28.757812 68.949219 28.964844 82.925781 30.175781 86.75 C 32.683594 94.683594 39.425781 99.128906 45.128906 96.605469 C 46.363281 96.058594 47.519531 95.375 47.699219 95.085938 C 47.878906 94.792969 46.90625 92.605469 45.539062 90.21875 C 42.808594 85.460938 40.511719 79.550781 38.84375 73 C 37.90625 69.324219 37.757812 67.363281 37.753906 58.476562 C 37.75 49.480469 37.859375 48.039062 38.636719 46.851562 C 39.726562 45.1875 40.765625 45.042969 40.253906 46.625 C 40.058594 47.242188 39.78125 51.460938 39.644531 56 C 39.449219 62.382812 39.578125 65.269531 40.214844 68.75 C 41.589844 76.230469 44.648438 84.515625 48.566406 91.367188 L 50.125 94.089844 L 52.535156 91.714844 C 57.378906 86.941406 59.726562 80.035156 58.542969 74.023438 C 57.753906 70.007812 56.570312 67.292969 53.097656 61.527344 C 50.277344 56.847656 50.25 56.765625 50.214844 52.777344 C 50.171875 47.515625 50.359375 48.066406 47.5 44.796875 C 45.421875 42.425781 45 41.613281 45 40.003906 C 45 38.421875 45.277344 37.871094 46.5 37 C 48.648438 35.46875 48.511719 33.507812 46 29.808594 C 43.722656 26.457031 43.59375 25.339844 45 21.25 C 46.351562 17.320312 46.28125 16.546875 44.222656 12.800781 C 43.050781 10.664062 42.328125 8.570312 42.097656 6.617188 C 41.855469 4.554688 41.558594 3.726562 41.113281 3.875 M 33.757812 7.890625 C 30.40625 10.429688 27.730469 14.40625 26.296875 18.972656 C 24.492188 24.722656 22.90625 38.144531 22.246094 53.25 L 21.941406 60.25 L 22.964844 59.078125 C 24.746094 57.03125 25.257812 54.371094 24.546875 50.800781 C 23.839844 47.242188 23.847656 47.199219 26.976562 33.011719 C 29.109375 23.332031 30.664062 19.207031 33.753906 14.992188 C 35.621094 12.449219 37 9.132812 37 7.1875 C 37 5.609375 36.683594 5.675781 33.757812 7.890625 M 52.300781 29.417969 C 52.160156 29.648438 53.554688 31.1875 55.398438 32.839844 C 58.800781 35.882812 61.121094 39.414062 61.671875 42.375 C 62.035156 44.328125 60.878906 44.667969 59.957031 42.875 C 58.578125 40.179688 54.5 36.890625 54.5 38.46875 C 54.5 39.21875 63.121094 49 63.78125 49 C 64.234375 49 63.617188 41.871094 62.945312 39.328125 C 62.386719 37.21875 59.574219 33.894531 55.828125 30.921875 C 53.34375 28.949219 52.75 28.695312 52.300781 29.417969 M 28.492188 34.125 C 28.460938 35.933594 27.054688 44.472656 26.652344 45.292969 C 25.941406 46.734375 26.4375 51.5 27.296875 51.5 C 27.757812 51.5 28 50.9375 28 49.875 C 28 48.980469 28.339844 46.335938 28.75 44 C 29.605469 39.132812 29.742188 33.5 29 33.5 C 28.726562 33.5 28.496094 33.78125 28.492188 34.125 M 37.808594 35.125 C 37.417969 35.742188 36.933594 37.261719 36.734375 38.496094 C 36.535156 39.734375 35.949219 41.53125 35.433594 42.488281 C 34.660156 43.9375 34.503906 45.308594 34.519531 50.492188 C 34.539062 56.179688 34.605469 56.632812 35.25 55.445312 C 35.640625 54.726562 36.203125 52.613281 36.5 50.746094 C 36.796875 48.882812 37.570312 46.433594 38.214844 45.304688 C 38.859375 44.175781 39.53125 42.351562 39.710938 41.25 L 40.03125 39.25 L 38.472656 41.875 C 37.617188 43.320312 36.828125 44.5 36.722656 44.5 C 36.339844 44.5 37.132812 41.226562 38.011719 39.175781 C 39.238281 36.308594 39.703125 34 39.050781 34 C 38.761719 34 38.203125 34.507812 37.808594 35.125 M 25.347656 58.875 C 24.640625 60.457031 23.824219 62.761719 23.542969 64 C 22.800781 67.230469 22.894531 73.246094 23.75 76.863281 C 24.519531 80.132812 26.359375 84.5 26.96875 84.5 C 27.164062 84.5 27.226562 79.71875 27.105469 73.875 C 26.972656 67.402344 27.097656 62.125 27.425781 60.371094 C 28.371094 55.339844 27.285156 54.558594 25.347656 58.875 "/>
</g>
</svg>
