<?xml version="1.0" encoding="UTF-8"?>
<svg xmlns="http://www.w3.org/2000/svg" xmlns:xlink="http://www.w3.org/1999/xlink" width="100px" height="100px" viewBox="0 0 100 100" version="1.1">
<g id="surface1">
<path style=" stroke:none;fill-rule:evenodd;fill:rgb(0%,0%,0%);fill-opacity:1;" d="M 43 13.828125 C 40.664062 15.074219 37.851562 16.828125 36.75 17.722656 C 33.925781 20.027344 31.128906 21.351562 28.238281 21.746094 C 26.871094 21.929688 25.390625 22.179688 24.953125 22.300781 C 24.515625 22.417969 22.195312 24.878906 19.800781 27.761719 C 17.402344 30.644531 14.78125 33.34375 13.976562 33.761719 C 11.734375 34.921875 10.808594 37.171875 10.898438 41.25 C 11.011719 46.417969 10.277344 48.917969 7.742188 52.011719 C 4.414062 56.066406 3.890625 59.929688 5.824219 66.097656 C 6.433594 68.03125 7.382812 69.183594 11.234375 72.671875 C 15.902344 76.894531 16.335938 77.117188 21.105469 77.746094 C 22.847656 77.976562 24.078125 78.574219 25.855469 80.058594 C 29.84375 83.398438 30.5 83.613281 35.527344 83.222656 C 39.492188 82.910156 40.28125 82.996094 42.8125 84.027344 C 45.429688 85.085938 45.914062 85.132812 48.988281 84.605469 C 51.320312 84.207031 52.882812 84.1875 54.171875 84.542969 C 55.183594 84.820312 56.203125 84.933594 56.433594 84.789062 C 56.664062 84.648438 57.394531 85.109375 58.050781 85.8125 C 60.050781 87.953125 61.554688 88.449219 65.925781 88.421875 C 68.167969 88.40625 70 88.1875 70 87.929688 C 70 87.675781 70.957031 87.042969 72.125 86.527344 C 73.292969 86.011719 75.601562 84.558594 77.25 83.296875 C 78.898438 82.039062 81.863281 80.210938 83.832031 79.234375 C 89.613281 76.367188 92.695312 72.351562 94.460938 65.386719 C 95.324219 61.992188 95.324219 61.769531 94.425781 58.890625 C 93.566406 56.128906 93.554688 55.671875 94.25 52.671875 C 95.292969 48.175781 95.214844 47.148438 93.453125 42.410156 C 92.601562 40.121094 91.621094 36.753906 91.273438 34.921875 C 90.519531 30.972656 89.023438 28.339844 87.074219 27.53125 C 86.292969 27.207031 84.554688 25.820312 83.203125 24.449219 C 81.34375 22.5625 80.082031 21.765625 78 21.164062 C 73.75 19.945312 72.683594 19.214844 70.5625 16.09375 C 67.929688 12.210938 65.84375 11.246094 61.160156 11.734375 C 57.28125 12.132812 53.976562 12.15625 50 11.808594 C 47.472656 11.585938 46.902344 11.753906 43 13.828125 M 59.25 14.578125 C 58.425781 14.851562 55.597656 15.125 52.96875 15.1875 C 47.738281 15.308594 47.574219 15.371094 36.097656 21.46875 C 33.539062 22.828125 30.203125 24.21875 28.679688 24.558594 C 26.101562 25.136719 25.625 25.492188 21.582031 29.890625 C 19.199219 32.480469 16.65625 34.910156 15.925781 35.289062 C 14.117188 36.222656 13.078125 39.429688 13.386719 43.132812 C 13.710938 47.035156 12.808594 49.90625 9.921875 54.164062 C 7.742188 57.382812 7.5 58.015625 7.5 60.53125 C 7.5 65.433594 8.582031 67.574219 12.523438 70.449219 C 17.046875 73.746094 19.570312 75 21.699219 75 C 24.273438 75 25.925781 75.792969 28.636719 78.332031 L 31.074219 80.609375 L 34.660156 80.3125 C 40.417969 79.839844 42.84375 79.988281 45.117188 80.957031 C 46.785156 81.671875 47.925781 81.796875 50.367188 81.542969 C 52.082031 81.363281 53.714844 80.984375 53.992188 80.707031 C 54.273438 80.429688 55.074219 76.949219 55.773438 72.976562 C 57.347656 64.019531 57.476562 63.613281 61.039062 56.25 C 64.226562 49.667969 65.113281 45.996094 64.886719 40.300781 C 64.796875 38.074219 64.949219 36.785156 65.316406 36.65625 C 65.625 36.546875 66.894531 37.875 68.132812 39.613281 C 79.902344 56.101562 82.078125 60.941406 81.863281 70.109375 C 81.800781 72.75 81.90625 75.070312 82.097656 75.261719 C 82.515625 75.679688 85.699219 73.847656 87.613281 72.089844 C 88.363281 71.402344 89.65625 69.203125 90.484375 67.207031 L 91.996094 63.578125 L 91.707031 55.164062 C 91.457031 47.9375 91.214844 46.046875 89.980469 41.75 C 89.191406 39 88.386719 35.738281 88.195312 34.5 C 87.929688 32.8125 87.382812 31.8125 85.996094 30.5 C 82.089844 26.800781 79.523438 25.003906 76.304688 23.71875 C 73.53125 22.605469 72.453125 21.796875 69.871094 18.894531 C 68.167969 16.976562 66.160156 15.089844 65.410156 14.703125 C 63.863281 13.902344 61.453125 13.855469 59.25 14.578125 M 36.433594 33.007812 C 35.160156 33.222656 33.550781 33.769531 32.859375 34.222656 C 31.570312 35.066406 29.003906 38.429688 28.996094 39.277344 C 28.996094 39.535156 28.308594 40.136719 27.476562 40.613281 C 25.855469 41.535156 24.5 44.121094 24.5 46.292969 C 24.5 47.050781 23.859375 48.347656 23 49.328125 C 22.054688 50.402344 21.5 51.582031 21.5 52.515625 C 21.5 54.167969 23.027344 56.007812 24.375 55.984375 C 25.050781 55.972656 24.941406 55.738281 23.875 54.941406 C 22.058594 53.585938 22.140625 52.589844 24.25 50.351562 C 25.53125 48.992188 26 48.050781 26 46.824219 C 26 44.265625 26.957031 42.03125 28.183594 41.722656 C 28.851562 41.554688 29.808594 40.417969 30.675781 38.765625 C 32.925781 34.46875 33.328125 34.25 39.078125 34.25 C 43.890625 34.25 44.015625 34.222656 42.96875 33.375 C 41.832031 32.453125 40.246094 32.363281 36.433594 33.007812 M 66.410156 43.457031 C 66.589844 48.515625 66.1875 49.914062 61.835938 59.25 C 58.992188 65.359375 57.753906 70.269531 57.175781 77.75 C 56.90625 81.242188 57.90625 83.347656 60.621094 85.003906 C 62.285156 86.019531 65.71875 86.355469 66.21875 85.554688 C 66.367188 85.308594 65.949219 83.902344 65.285156 82.429688 C 64.105469 79.8125 63.789062 77.777344 63.929688 73.773438 C 64.015625 71.304688 64.671875 71.933594 65.457031 75.25 C 66.898438 81.300781 67.09375 81.820312 67.507812 80.722656 C 67.722656 80.15625 68.054688 77.984375 68.253906 75.898438 C 68.574219 72.464844 68.503906 71.964844 67.507812 70.621094 C 66.742188 69.582031 66.261719 67.894531 65.914062 65.019531 C 65.390625 60.703125 65.734375 57.277344 66.492188 59.25 C 66.699219 59.800781 67.03125 61.375 67.222656 62.75 C 67.414062 64.125 67.902344 65.8125 68.304688 66.5 C 68.96875 67.621094 69.011719 66.703125 68.730469 57.75 C 68.414062 47.820312 68.710938 46.140625 69.90625 51 C 70.214844 52.238281 70.59375 54.261719 70.757812 55.5 C 70.921875 56.738281 71.191406 58.425781 71.363281 59.25 L 71.667969 60.75 L 72.035156 59.5 C 72.234375 58.8125 72.421875 57.292969 72.449219 56.125 C 72.476562 54.957031 72.726562 54 73 54 C 73.761719 54 73.617188 62.253906 72.820312 64.164062 C 72.113281 65.855469 71.195312 73.5 71.699219 73.5 C 72.191406 73.5 73.417969 70.140625 73.761719 67.851562 C 74.496094 62.9375 75.675781 63.4375 75.558594 68.613281 C 75.460938 72.914062 74.875 74.988281 72.933594 77.898438 C 71.371094 80.242188 70.863281 83.648438 72.246094 82.503906 C 72.660156 82.160156 73.257812 81 73.582031 79.925781 C 74.316406 77.480469 75.1875 78.121094 74.921875 80.90625 L 74.734375 82.902344 L 76.058594 81.957031 C 76.785156 81.441406 78.046875 80.257812 78.859375 79.332031 C 80.261719 77.734375 80.355469 77.351562 80.648438 71.863281 C 80.910156 66.984375 80.804688 65.523438 79.96875 62.503906 C 78.875 58.554688 76.21875 52.949219 74.375 50.703125 C 73.71875 49.902344 72.644531 48.351562 71.984375 47.25 C 71.089844 45.753906 66.984375 39.886719 66.328125 39.164062 C 66.285156 39.117188 66.320312 41.050781 66.410156 43.457031 M 72.539062 60.292969 C 72.5625 60.875 72.683594 60.992188 72.839844 60.59375 C 72.984375 60.234375 72.96875 59.800781 72.800781 59.636719 C 72.636719 59.46875 72.519531 59.765625 72.539062 60.292969 M 69.890625 68.5 C 69.699219 72.761719 69.1875 78.257812 68.753906 80.707031 C 67.945312 85.285156 68.242188 86.957031 69.625 85.574219 C 70.074219 85.128906 70.296875 82.019531 70.421875 74.601562 C 70.632812 61.570312 70.351562 58.324219 69.890625 68.5 M 72.039062 61.835938 C 72.019531 62.15625 71.871094 62.832031 71.710938 63.335938 C 71.4375 64.203125 71.453125 64.207031 71.996094 63.355469 C 72.3125 62.863281 72.460938 62.191406 72.324219 61.855469 C 72.148438 61.417969 72.066406 61.414062 72.039062 61.835938 M 66.757812 65.644531 C 66.992188 68.082031 67.851562 70.316406 68.363281 69.804688 C 68.515625 69.648438 68.289062 68.5625 67.855469 67.386719 C 67.425781 66.210938 66.949219 64.800781 66.800781 64.25 C 66.652344 63.699219 66.632812 64.328125 66.757812 65.644531 M 74.289062 69.117188 C 74.101562 70.28125 73.367188 72.535156 72.652344 74.128906 C 71.074219 77.640625 71.421875 78.414062 73.203125 75.371094 C 74.019531 73.980469 74.617188 72.027344 74.820312 70.082031 C 75.183594 66.589844 74.804688 65.898438 74.289062 69.117188 M 64.578125 76.5 C 64.578125 77.1875 64.691406 77.46875 64.832031 77.125 C 64.96875 76.78125 64.96875 76.21875 64.832031 75.875 C 64.691406 75.53125 64.578125 75.8125 64.578125 76.5 M 65.035156 78.613281 C 64.996094 79.578125 66.519531 83.648438 66.8125 83.355469 C 66.914062 83.253906 66.5625 81.949219 66.035156 80.460938 C 65.507812 78.96875 65.054688 78.140625 65.035156 78.613281 M 74 80.429688 C 74 80.667969 73.445312 81.679688 72.765625 82.679688 C 71.492188 84.554688 71.734375 85.175781 73.132812 83.625 C 73.957031 82.710938 74.832031 80 74.304688 80 C 74.136719 80 74 80.195312 74 80.429688 "/>
</g>
</svg>
