<?xml version="1.0" encoding="UTF-8"?>
<svg xmlns="http://www.w3.org/2000/svg" xmlns:xlink="http://www.w3.org/1999/xlink" width="100px" height="100px" viewBox="0 0 100 100" version="1.1">
<g id="surface1">
<path style=" stroke:none;fill-rule:nonzero;fill:rgb(0%,0%,0%);fill-opacity:1;" d="M 99.9375 55.886719 C 99.414062 52.941406 98.648438 50.679688 97.660156 49.164062 C 96.808594 40.289062 93.875 38.667969 87.269531 37.699219 C 89.40625 33.566406 91.523438 29.21875 92.78125 23.832031 C 94.742188 15.449219 94.515625 7.058594 92.257812 4.3125 C 91.6875 3.625 91.007812 3.273438 90.230469 3.273438 C 87.996094 3.273438 85.25 6.234375 82.058594 12.078125 C 81.257812 5.523438 79.332031 0.171875 76.15625 0.171875 C 74.15625 0.171875 72.058594 2.402344 69.929688 6.800781 C 66.523438 13.835938 67.0625 21.289062 71.441406 27.292969 C 75.53125 31.527344 77.007812 34.273438 74.890625 39.238281 C 69.148438 42.261719 65.050781 45.386719 61.65625 49.347656 C 59.328125 49.148438 57.085938 48.898438 54.914062 48.65625 C 50.667969 48.183594 46.65625 47.742188 42.753906 47.742188 C 33.464844 47.742188 26.390625 50.394531 19.089844 56.617188 C 14.769531 60.300781 9.839844 65.578125 7.71875 71.753906 C 6.464844 70.992188 5.21875 70.851562 4.058594 71.359375 C -1.046875 73.609375 -0.339844 80.226562 0.878906 83.78125 C 2.238281 87.742188 7.230469 93.609375 11.34375 93.609375 C 12.097656 93.609375 13.042969 93.394531 13.914062 92.609375 C 14.464844 93.128906 15.039062 93.648438 15.65625 94.15625 C 14.863281 95.34375 14.648438 96.460938 15.070312 97.253906 C 15.324219 97.734375 15.929688 98.308594 17.363281 98.308594 C 17.796875 98.308594 18.292969 98.253906 18.769531 98.15625 L 46.964844 97.035156 C 48.003906 96.949219 49.035156 97.097656 50.027344 97.238281 C 50.765625 97.34375 51.460938 97.445312 52.125 97.445312 C 53.890625 97.445312 54.976562 96.683594 55.644531 94.972656 C 56 94.066406 55.96875 93.203125 55.558594 92.410156 C 54.878906 91.101562 53.15625 90.023438 50.527344 89.21875 C 51.285156 88.613281 52.128906 87.660156 52.832031 86.453125 C 53.40625 86.609375 53.980469 86.789062 54.542969 86.96875 C 56.121094 87.46875 57.753906 87.988281 59.464844 87.988281 C 61.324219 87.988281 63.050781 87.355469 64.730469 86.066406 C 65.078125 87.042969 65.382812 88.023438 65.679688 88.996094 C 66.457031 91.542969 67.261719 94.179688 68.863281 96.449219 C 69.253906 97.277344 73.320312 98.273438 75.578125 98.277344 C 75.582031 98.277344 75.585938 98.277344 75.589844 98.277344 C 75.890625 98.277344 76.160156 98.257812 76.410156 98.222656 C 76.414062 98.222656 76.417969 98.226562 76.421875 98.226562 C 76.441406 98.226562 76.460938 98.21875 76.480469 98.21875 C 76.5 98.21875 76.523438 98.214844 76.542969 98.214844 C 76.929688 98.199219 77.289062 98.125 77.640625 98.046875 L 77.78125 98.015625 C 79.050781 99.203125 80.277344 99.828125 81.332031 99.828125 C 82.261719 99.828125 82.988281 99.332031 83.386719 98.421875 C 84.960938 94.800781 82.382812 93.703125 80.5 92.902344 C 80.140625 92.75 79.792969 92.601562 79.539062 92.472656 C 75.9375 89.835938 75.632812 85.484375 76.449219 81.390625 C 80.429688 77.398438 83.949219 70.746094 87.1875 61.230469 C 89.433594 61.160156 91.75 61.078125 94.027344 59.625 C 95.144531 59.933594 96.160156 59.726562 97.375 59.261719 C 97.601562 59.332031 97.820312 59.363281 98.03125 59.363281 C 98.542969 59.363281 98.992188 59.160156 99.332031 58.769531 C 99.972656 58.03125 100.097656 56.789062 99.9375 55.886719 Z M 99.9375 55.886719 "/>
</g>
</svg>
