<?xml version="1.0" encoding="UTF-8"?>
<svg xmlns="http://www.w3.org/2000/svg" xmlns:xlink="http://www.w3.org/1999/xlink" width="24px" height="24px" viewBox="0 0 24 24" version="1.1">
<g id="surface1">
<path style=" stroke:none;fill-rule:nonzero;fill:rgb(0%,0%,0%);fill-opacity:1;" d="M 23.984375 13.414062 C 23.859375 12.707031 23.675781 12.164062 23.4375 11.800781 C 23.234375 9.667969 22.53125 9.28125 20.945312 9.046875 C 21.457031 8.054688 21.964844 7.011719 22.269531 5.71875 C 22.738281 3.707031 22.683594 1.695312 22.140625 1.035156 C 22.003906 0.871094 21.839844 0.785156 21.65625 0.785156 C 21.117188 0.785156 20.460938 1.496094 19.695312 2.898438 C 19.5 1.324219 19.039062 0.0390625 18.277344 0.0390625 C 17.796875 0.0390625 17.292969 0.578125 16.78125 1.632812 C 15.964844 3.320312 16.09375 5.109375 17.144531 6.550781 C 18.128906 7.566406 18.480469 8.226562 17.972656 9.417969 C 16.59375 10.140625 15.613281 10.894531 14.796875 11.84375 C 14.238281 11.796875 13.699219 11.734375 13.179688 11.679688 C 12.160156 11.5625 11.199219 11.457031 10.261719 11.457031 C 8.03125 11.457031 6.332031 12.09375 4.582031 13.589844 C 3.542969 14.472656 2.359375 15.738281 1.851562 17.21875 C 1.550781 17.039062 1.253906 17.003906 0.972656 17.125 C -0.25 17.667969 -0.0820312 19.253906 0.210938 20.109375 C 0.535156 21.058594 1.734375 22.464844 2.722656 22.464844 C 2.902344 22.464844 3.128906 22.414062 3.339844 22.226562 C 3.472656 22.351562 3.609375 22.476562 3.757812 22.597656 C 3.566406 22.882812 3.515625 23.152344 3.617188 23.339844 C 3.679688 23.457031 3.824219 23.59375 4.167969 23.59375 C 4.273438 23.59375 4.390625 23.582031 4.503906 23.558594 L 11.273438 23.289062 C 11.519531 23.269531 11.769531 23.304688 12.007812 23.335938 C 12.183594 23.363281 12.351562 23.386719 12.511719 23.386719 C 12.933594 23.386719 13.195312 23.203125 13.355469 22.792969 C 13.441406 22.574219 13.433594 22.367188 13.332031 22.179688 C 13.171875 21.863281 12.757812 21.605469 12.125 21.414062 C 12.308594 21.265625 12.511719 21.039062 12.679688 20.75 C 12.816406 20.785156 12.957031 20.828125 13.089844 20.871094 C 13.46875 20.992188 13.859375 21.117188 14.273438 21.117188 C 14.71875 21.117188 15.132812 20.964844 15.535156 20.65625 C 15.617188 20.890625 15.691406 21.125 15.761719 21.359375 C 15.949219 21.96875 16.144531 22.601562 16.527344 23.148438 C 16.621094 23.347656 17.597656 23.585938 18.136719 23.585938 C 18.140625 23.585938 18.140625 23.585938 18.140625 23.585938 C 18.214844 23.585938 18.277344 23.582031 18.339844 23.574219 C 18.347656 23.574219 18.351562 23.574219 18.355469 23.574219 C 18.359375 23.570312 18.367188 23.570312 18.371094 23.570312 C 18.460938 23.566406 18.550781 23.550781 18.632812 23.53125 L 18.667969 23.523438 C 18.972656 23.808594 19.265625 23.960938 19.519531 23.960938 C 19.742188 23.960938 19.917969 23.839844 20.011719 23.621094 C 20.390625 22.753906 19.773438 22.488281 19.320312 22.296875 C 19.234375 22.257812 19.152344 22.222656 19.089844 22.195312 C 18.222656 21.5625 18.152344 20.515625 18.347656 19.535156 C 19.304688 18.574219 20.148438 16.980469 20.925781 14.695312 C 21.464844 14.679688 22.019531 14.660156 22.566406 14.308594 C 22.835938 14.382812 23.078125 14.335938 23.371094 14.222656 C 23.425781 14.238281 23.476562 14.246094 23.527344 14.246094 C 23.648438 14.246094 23.757812 14.199219 23.839844 14.105469 C 23.992188 13.925781 24.023438 13.628906 23.984375 13.414062 Z M 23.984375 13.414062 "/>
</g>
</svg>
