<?xml version="1.0" encoding="UTF-8"?>
<svg xmlns="http://www.w3.org/2000/svg" xmlns:xlink="http://www.w3.org/1999/xlink" width="24px" height="24px" viewBox="0 0 24 24" version="1.1">
<g id="surface1">
<path style=" stroke:none;fill-rule:evenodd;fill:rgb(0%,0%,0%);fill-opacity:1;" d="M 14.871094 1.941406 C 14.445312 2.539062 14.066406 3.085938 14.023438 3.152344 C 13.96875 3.234375 13.339844 3.183594 12.140625 3 L 10.335938 2.722656 L 8.378906 3.601562 C 7.300781 4.085938 6.359375 4.539062 6.28125 4.609375 C 6.207031 4.679688 6.054688 5.140625 5.945312 5.625 C 5.777344 6.378906 5.644531 6.652344 5.035156 7.433594 L 4.324219 8.355469 L 4.667969 9.246094 C 5 10.109375 5.003906 10.15625 4.832031 10.738281 C 4.734375 11.070312 4.613281 11.414062 4.5625 11.507812 C 4.511719 11.601562 3.910156 11.933594 3.226562 12.246094 L 1.980469 12.816406 L 1.652344 13.699219 C 1.46875 14.183594 1.324219 14.632812 1.324219 14.699219 C 1.324219 14.765625 2.039062 15.132812 2.914062 15.515625 L 4.503906 16.207031 L 5.390625 16.023438 C 5.882812 15.917969 6.320312 15.875 6.367188 15.925781 C 6.414062 15.976562 7.089844 17.128906 7.863281 18.480469 C 8.640625 19.832031 9.335938 21.003906 9.40625 21.082031 C 9.480469 21.160156 10.214844 21.289062 11.039062 21.367188 C 12.519531 21.511719 12.550781 21.519531 13.292969 22.035156 L 14.046875 22.554688 L 17.132812 21.433594 C 20.074219 20.367188 20.285156 20.269531 21.632812 19.351562 L 23.042969 18.390625 L 21.820312 17.386719 C 21.148438 16.832031 20.554688 16.351562 20.5 16.3125 C 20.445312 16.277344 20.5 15.953125 20.621094 15.59375 C 20.839844 14.941406 20.84375 14.9375 21.550781 14.746094 C 22.367188 14.527344 22.363281 14.546875 21.828125 13.355469 C 21.605469 12.855469 21.421875 12.183594 21.347656 11.585938 C 21.28125 11.054688 21.207031 10.507812 21.175781 10.371094 C 21.136719 10.183594 20.703125 9.917969 19.460938 9.328125 L 17.800781 8.535156 L 17.914062 7.71875 C 18.007812 7.074219 18.128906 6.757812 18.492188 6.238281 L 18.953125 5.578125 L 18.605469 4.453125 C 18.222656 3.222656 18.140625 3.117188 16.550781 1.675781 L 15.640625 0.851562 L 14.871094 1.941406 "/>
</g>
</svg>
