<?xml version="1.0" encoding="UTF-8"?>
<svg xmlns="http://www.w3.org/2000/svg" xmlns:xlink="http://www.w3.org/1999/xlink" width="24px" height="24px" viewBox="0 0 24 24" version="1.1">
<g id="surface1">
<path style=" stroke:none;fill-rule:evenodd;fill:rgb(0%,0%,0%);fill-opacity:1;" d="M 12.058594 2.828125 C 11.863281 2.929688 11.554688 3.152344 11.378906 3.320312 C 11.125 3.5625 10.882812 3.648438 10.25 3.710938 C 9.570312 3.78125 9.402344 3.847656 9.183594 4.121094 C 8.902344 4.472656 8.453125 5.613281 8.554688 5.714844 C 8.585938 5.746094 8.820312 5.597656 9.066406 5.378906 C 9.460938 5.03125 9.605469 4.980469 10.171875 4.980469 C 10.777344 4.980469 10.855469 5.015625 11.203125 5.414062 C 11.410156 5.652344 11.917969 6.019531 12.328125 6.226562 C 12.859375 6.492188 13.078125 6.671875 13.078125 6.835938 C 13.078125 7.027344 13.144531 7.054688 13.472656 7 C 13.757812 6.953125 13.917969 6.996094 14.0625 7.160156 C 14.234375 7.351562 14.390625 7.375 15.09375 7.320312 C 16.175781 7.242188 16.230469 7.257812 16.492188 7.742188 C 16.613281 7.96875 16.808594 8.238281 16.921875 8.34375 C 17.117188 8.519531 17.152344 8.5 17.382812 8.125 C 17.519531 7.902344 17.769531 7.660156 17.9375 7.582031 C 18.105469 7.507812 18.238281 7.371094 18.238281 7.28125 C 18.238281 7.191406 18.347656 7.019531 18.480469 6.898438 C 18.648438 6.746094 18.71875 6.53125 18.71875 6.160156 C 18.71875 5.640625 18.714844 5.636719 18.015625 5.296875 C 17.625 5.109375 17.082031 4.769531 16.800781 4.546875 C 16.3125 4.15625 16.257812 4.140625 15.257812 4.140625 L 14.222656 4.140625 L 13.792969 3.5 C 13.558594 3.148438 13.289062 2.8125 13.191406 2.753906 C 12.933594 2.589844 12.460938 2.621094 12.058594 2.828125 M 13.292969 4.199219 C 13.742188 4.476562 14.128906 5.050781 14.234375 5.609375 C 14.273438 5.828125 14.363281 6.035156 14.429688 6.078125 C 14.59375 6.179688 14.4375 5.335938 14.207031 4.898438 C 14.039062 4.574219 13.261719 3.960938 13.023438 3.960938 C 12.953125 3.960938 13.074219 4.066406 13.292969 4.199219 M 12.40625 4.894531 C 12.59375 5.097656 12.875 5.46875 13.03125 5.722656 C 13.246094 6.070312 13.3125 6.121094 13.316406 5.9375 C 13.320312 5.65625 12.699219 4.859375 12.320312 4.664062 C 12.105469 4.554688 12.121094 4.59375 12.40625 4.894531 M 15.609375 5.351562 C 15.367188 5.554688 15.242188 5.769531 15.242188 5.980469 C 15.242188 6.28125 15.261719 6.269531 15.515625 5.824219 C 15.664062 5.558594 15.917969 5.277344 16.082031 5.195312 C 16.285156 5.089844 16.316406 5.042969 16.179688 5.042969 C 16.070312 5.039062 15.8125 5.179688 15.609375 5.351562 M 9.25 5.761719 C 8.636719 6.394531 8.191406 6.527344 7.808594 6.191406 C 7.660156 6.058594 7.386719 6.046875 6.480469 6.125 C 5.460938 6.210938 5.316406 6.253906 5.074219 6.535156 C 4.921875 6.710938 4.800781 6.988281 4.800781 7.15625 C 4.800781 7.414062 4.839844 7.445312 5.070312 7.367188 C 5.402344 7.257812 6.542969 7.269531 6.730469 7.386719 C 6.804688 7.433594 6.988281 7.746094 7.140625 8.085938 C 7.503906 8.90625 7.816406 9.167969 9.011719 9.671875 C 10.519531 10.308594 10.734375 10.5625 11.144531 12.214844 C 11.28125 12.753906 11.480469 13.332031 11.589844 13.496094 C 11.773438 13.78125 13.113281 14.519531 13.4375 14.519531 C 13.539062 14.519531 13.558594 14.378906 13.5 14.046875 C 13.40625 13.484375 13.691406 12.261719 14.058594 11.671875 C 14.265625 11.332031 14.289062 11.210938 14.175781 10.964844 C 14.101562 10.800781 14.039062 10.542969 14.039062 10.390625 C 14.039062 10.238281 13.90625 9.933594 13.746094 9.707031 C 13.019531 8.710938 12.722656 8.09375 12.722656 7.601562 C 12.71875 6.867188 12.640625 6.753906 11.984375 6.535156 C 11.613281 6.410156 11.292969 6.203125 11.128906 5.980469 C 10.855469 5.613281 10.21875 5.160156 9.972656 5.160156 C 9.894531 5.160156 9.570312 5.429688 9.25 5.761719 M 16.558594 6.238281 C 16.429688 6.371094 16.320312 6.566406 16.320312 6.667969 C 16.320312 6.796875 16.421875 6.738281 16.625 6.496094 C 16.816406 6.269531 17.074219 6.117188 17.316406 6.085938 C 17.6875 6.039062 17.6875 6.039062 17.25 6.019531 C 16.941406 6.007812 16.726562 6.074219 16.558594 6.238281 M 10.273438 6.429688 C 10.234375 6.535156 10.199219 6.832031 10.199219 7.089844 L 10.199219 7.558594 L 9.691406 7.570312 C 9.410156 7.574219 9.074219 7.617188 8.945312 7.667969 C 8.800781 7.726562 9.035156 7.757812 9.535156 7.75 C 10.355469 7.738281 10.371094 7.746094 10.652344 8.160156 L 10.9375 8.578125 L 9.421875 8.71875 L 10.078125 8.742188 C 10.441406 8.753906 10.8125 8.808594 10.898438 8.863281 C 10.984375 8.917969 11.15625 9.28125 11.28125 9.671875 C 11.410156 10.070312 11.511719 10.257812 11.511719 10.097656 C 11.519531 9.832031 11.929688 9.402344 12.351562 9.21875 C 12.5 9.15625 12.488281 9.136719 12.292969 9.128906 C 12.15625 9.125 11.941406 9.199219 11.8125 9.296875 C 11.488281 9.542969 11.46875 9.53125 11.292969 9.046875 C 11.140625 8.632812 11.148438 8.601562 11.53125 8.207031 C 11.996094 7.726562 11.890625 7.671875 11.324219 8.101562 L 10.929688 8.40625 L 10.671875 7.902344 C 10.527344 7.621094 10.40625 7.144531 10.398438 6.820312 C 10.386719 6.5 10.371094 6.242188 10.363281 6.238281 C 10.351562 6.238281 10.3125 6.324219 10.273438 6.429688 M 13.199219 7.523438 C 13.199219 8.011719 13.597656 8.886719 14.050781 9.402344 C 14.359375 9.753906 14.519531 10.054688 14.523438 10.277344 C 14.527344 10.957031 14.660156 10.953125 15.621094 10.261719 C 16.117188 9.902344 16.617188 9.46875 16.726562 9.300781 C 16.921875 9.003906 16.917969 8.980469 16.566406 8.546875 C 16.367188 8.300781 16.101562 7.96875 15.980469 7.808594 C 15.777344 7.546875 15.664062 7.519531 14.75 7.5 C 14.195312 7.492188 13.617188 7.441406 13.46875 7.386719 C 13.25 7.308594 13.199219 7.335938 13.199219 7.523438 M 5.191406 7.644531 C 4.785156 7.722656 4.28125 8.292969 3.84375 9.167969 C 3.421875 10.019531 3.550781 9.9375 2.015625 10.332031 C 1.171875 10.546875 1.046875 10.898438 1.390625 12.078125 C 1.550781 12.628906 1.558594 12.828125 1.433594 13.351562 L 1.285156 13.96875 L 1.933594 14.554688 C 2.289062 14.875 2.75 15.214844 2.953125 15.304688 C 3.25 15.4375 3.34375 15.5625 3.402344 15.925781 C 3.507812 16.578125 3.800781 16.957031 4.140625 16.871094 C 4.371094 16.8125 4.445312 16.875 4.605469 17.28125 C 4.710938 17.542969 4.859375 17.761719 4.9375 17.761719 C 5.222656 17.761719 6.550781 18.464844 6.832031 18.765625 C 7.105469 19.0625 7.191406 19.082031 8.269531 19.085938 C 8.902344 19.085938 9.742188 19.164062 10.136719 19.257812 C 10.527344 19.351562 10.878906 19.398438 10.914062 19.363281 C 10.949219 19.324219 10.742188 19.097656 10.453125 18.855469 C 9.234375 17.84375 9 17.570312 9 17.132812 C 9 16.664062 9.394531 16.152344 9.902344 15.960938 C 10.070312 15.894531 10.816406 15.851562 11.554688 15.863281 C 12.976562 15.886719 13.324219 15.796875 13.570312 15.34375 C 13.734375 15.035156 13.710938 15.015625 12.429688 14.492188 C 10.988281 13.898438 10.679688 13.488281 10.679688 12.160156 C 10.679688 11.03125 10.207031 10.5 8.613281 9.84375 C 7.667969 9.453125 7.273438 9.117188 6.730469 8.234375 C 6.359375 7.636719 5.984375 7.492188 5.191406 7.644531 M 18.046875 7.941406 C 17.90625 8.007812 17.664062 8.332031 17.511719 8.65625 C 17.226562 9.265625 16.636719 9.871094 15.441406 10.777344 C 14.253906 11.679688 13.792969 12.871094 14.054688 14.378906 C 14.175781 15.0625 14.164062 15.210938 13.984375 15.546875 C 13.683594 16.105469 13.308594 16.230469 11.964844 16.210938 C 10.632812 16.195312 9.832031 16.355469 9.519531 16.699219 C 9.328125 16.914062 9.324219 16.964844 9.488281 17.257812 C 9.585938 17.433594 10.019531 17.839844 10.445312 18.160156 C 11.347656 18.832031 11.429688 18.949219 11.457031 19.632812 C 11.484375 20.316406 11.949219 20.914062 12.664062 21.1875 C 13.167969 21.378906 13.359375 21.386719 14.976562 21.242188 C 16.941406 21.070312 17.195312 21.003906 17.675781 20.546875 C 17.859375 20.371094 18.453125 20.007812 18.996094 19.742188 C 19.761719 19.367188 20.019531 19.175781 20.160156 18.875 C 20.273438 18.632812 20.457031 18.464844 20.65625 18.417969 C 21.171875 18.300781 21.398438 17.945312 21.457031 17.175781 C 21.503906 16.527344 21.53125 16.464844 21.921875 16.253906 C 22.78125 15.792969 23.011719 15.140625 22.558594 14.460938 C 22.273438 14.027344 22.253906 13.554688 22.507812 13.066406 C 22.886719 12.332031 22.535156 11.785156 21.316406 11.21875 C 20.566406 10.867188 20.445312 10.691406 19.863281 9.085938 C 19.5625 8.246094 19.144531 7.796875 18.679688 7.808594 C 18.46875 7.8125 18.183594 7.871094 18.046875 7.941406 M 14.710938 8.308594 C 14.570312 8.527344 14.5625 8.6875 14.667969 9.148438 C 14.792969 9.683594 15 9.933594 15 9.546875 C 15 9.453125 15.140625 9.265625 15.316406 9.128906 C 15.488281 8.992188 15.5625 8.878906 15.476562 8.878906 C 15.390625 8.878906 15.230469 8.960938 15.117188 9.0625 C 14.9375 9.222656 14.90625 9.214844 14.785156 8.949219 C 14.675781 8.703125 14.699219 8.613281 14.941406 8.351562 C 15.140625 8.136719 15.175781 8.039062 15.058594 8.039062 C 14.960938 8.039062 14.808594 8.160156 14.710938 8.308594 M 5.800781 10.03125 C 5.6875 10.203125 5.535156 10.585938 5.460938 10.886719 L 5.320312 11.425781 L 4.859375 10.902344 C 4.433594 10.421875 4.464844 10.519531 4.988281 11.328125 C 5.167969 11.609375 5.164062 11.621094 4.777344 11.703125 C 4.171875 11.832031 3.578125 12.175781 3.179688 12.617188 C 2.910156 12.917969 2.894531 12.957031 3.121094 12.761719 C 3.65625 12.308594 4.242188 12.078125 4.886719 12.066406 C 5.46875 12.0625 5.554688 12.097656 6.015625 12.558594 L 6.515625 13.058594 L 6.027344 13.304688 C 5.519531 13.566406 5.132812 14.011719 4.980469 14.519531 C 4.910156 14.765625 4.945312 14.742188 5.179688 14.402344 C 5.554688 13.859375 6.183594 13.441406 6.632812 13.441406 C 6.875 13.441406 7.148438 13.582031 7.484375 13.882812 C 8.050781 14.390625 8.132812 14.519531 7.878906 14.519531 C 7.621094 14.519531 7.109375 15.175781 6.964844 15.695312 C 6.765625 16.414062 6.832031 16.546875 7.078125 15.917969 C 7.535156 14.75 8.082031 14.527344 9.132812 15.078125 C 10.0625 15.566406 10.070312 15.5625 9.527344 14.984375 C 9.253906 14.695312 9 14.363281 8.960938 14.25 C 8.867188 13.980469 9.0625 13.457031 9.390625 13.109375 C 9.613281 12.867188 9.621094 12.839844 9.429688 12.839844 C 9.171875 12.839844 8.519531 13.476562 8.519531 13.730469 C 8.519531 14.023438 8.289062 13.957031 7.726562 13.496094 C 6.917969 12.835938 6.898438 11.832031 7.679688 11.433594 L 7.980469 11.285156 L 7.609375 11.28125 C 7.160156 11.28125 6.753906 11.675781 6.644531 12.222656 L 6.566406 12.613281 L 6.222656 12.285156 C 5.933594 12.003906 5.878906 11.863281 5.886719 11.347656 C 5.886719 11.011719 5.933594 10.511719 5.988281 10.230469 C 6.042969 9.949219 6.070312 9.71875 6.046875 9.71875 C 6.023438 9.71875 5.914062 9.859375 5.800781 10.03125 M 17.746094 10.921875 C 17.941406 11.1875 18.242188 11.804688 18.421875 12.292969 L 18.742188 13.175781 L 18.457031 13.601562 L 18.171875 14.023438 L 17.96875 13.457031 C 17.691406 12.675781 17.308594 12.34375 16.597656 12.273438 L 16.019531 12.21875 L 16.558594 12.5 C 17.160156 12.8125 17.566406 13.417969 17.691406 14.183594 C 17.757812 14.601562 17.714844 14.710938 17.328125 15.1875 C 16.871094 15.746094 16.679688 15.847656 16.679688 15.535156 C 16.679688 15.1875 16.308594 14.628906 15.925781 14.394531 C 15.339844 14.039062 15.21875 14.113281 15.660156 14.554688 C 16.09375 14.988281 16.328125 15.632812 16.230469 16.128906 C 16.179688 16.40625 14.730469 17.878906 14.515625 17.878906 C 14.476562 17.878906 14.332031 17.625 14.195312 17.308594 L 13.945312 16.738281 L 13.933594 17.492188 C 13.921875 18.230469 13.910156 18.25 13.4375 18.570312 C 12.734375 19.046875 12.074219 19.558594 12.160156 19.558594 C 12.199219 19.558594 12.527344 19.429688 12.890625 19.269531 C 14.183594 18.699219 16.574219 18.359375 17.367188 18.632812 C 17.648438 18.730469 17.847656 18.765625 17.816406 18.714844 C 17.675781 18.488281 16.785156 18.308594 15.808594 18.308594 L 14.753906 18.3125 L 15.148438 18.007812 C 15.363281 17.839844 15.847656 17.421875 16.222656 17.078125 C 17.226562 16.15625 18.285156 15.886719 19.480469 16.25 C 20.15625 16.453125 20.203125 16.394531 19.589844 16.121094 C 19.292969 15.988281 18.8125 15.917969 18.164062 15.917969 L 17.1875 15.914062 L 17.664062 15.28125 C 18.265625 14.488281 19.105469 14.039062 20.046875 14.019531 C 20.40625 14.007812 20.835938 14.035156 21 14.078125 C 21.175781 14.125 21.125 14.078125 20.882812 13.964844 C 20.457031 13.773438 19.378906 13.785156 18.726562 13.988281 L 18.433594 14.078125 L 18.671875 13.675781 C 18.980469 13.148438 19.476562 12.867188 20.417969 12.6875 C 21.171875 12.542969 21.175781 12.539062 20.675781 12.503906 C 20.394531 12.484375 19.964844 12.523438 19.71875 12.589844 C 19.476562 12.65625 19.253906 12.695312 19.230469 12.667969 C 19.203125 12.644531 19.351562 12.296875 19.550781 11.894531 C 19.753906 11.496094 19.917969 11.125 19.914062 11.074219 C 19.910156 11.023438 19.710938 11.359375 19.472656 11.820312 L 19.039062 12.660156 L 18.847656 12.0625 C 18.660156 11.46875 17.832031 10.441406 17.539062 10.441406 C 17.460938 10.441406 17.554688 10.65625 17.746094 10.921875 "/>
</g>
</svg>
