<?xml version="1.0" encoding="UTF-8"?>
<svg xmlns="http://www.w3.org/2000/svg" xmlns:xlink="http://www.w3.org/1999/xlink" width="24px" height="24px" viewBox="0 0 24 24" version="1.1">
<g id="surface1">
<path style=" stroke:none;fill-rule:evenodd;fill:rgb(0%,0%,0%);fill-opacity:1;" d="M 10.320312 3.320312 C 9.757812 3.617188 9.085938 4.039062 8.820312 4.253906 C 8.144531 4.804688 7.46875 5.125 6.777344 5.21875 C 6.449219 5.261719 6.09375 5.324219 5.988281 5.351562 C 5.882812 5.378906 5.328125 5.96875 4.75 6.664062 C 4.175781 7.355469 3.546875 8.003906 3.355469 8.101562 C 2.816406 8.382812 2.59375 8.921875 2.617188 9.898438 C 2.640625 11.140625 2.464844 11.742188 1.859375 12.484375 C 1.058594 13.457031 0.933594 14.382812 1.398438 15.863281 C 1.542969 16.328125 1.773438 16.605469 2.695312 17.441406 C 3.816406 18.453125 3.921875 18.507812 5.066406 18.660156 C 5.484375 18.714844 5.777344 18.859375 6.203125 19.214844 C 7.164062 20.015625 7.320312 20.066406 8.527344 19.972656 C 9.476562 19.898438 9.667969 19.917969 10.273438 20.167969 C 10.902344 20.421875 11.019531 20.433594 11.757812 20.304688 C 12.316406 20.210938 12.691406 20.203125 13 20.289062 C 13.246094 20.355469 13.488281 20.382812 13.542969 20.351562 C 13.601562 20.316406 13.773438 20.425781 13.933594 20.59375 C 14.414062 21.109375 14.773438 21.226562 15.820312 21.222656 C 16.359375 21.21875 16.800781 21.164062 16.800781 21.101562 C 16.800781 21.042969 17.03125 20.890625 17.308594 20.765625 C 17.589844 20.640625 18.144531 20.292969 18.539062 19.992188 C 18.9375 19.691406 19.648438 19.25 20.121094 19.015625 C 21.507812 18.328125 22.246094 17.363281 22.671875 15.691406 C 22.878906 14.878906 22.878906 14.824219 22.664062 14.132812 C 22.457031 13.472656 22.453125 13.359375 22.621094 12.640625 C 22.871094 11.5625 22.851562 11.316406 22.429688 10.179688 C 22.222656 9.628906 21.988281 8.820312 21.90625 8.382812 C 21.726562 7.433594 21.367188 6.800781 20.898438 6.605469 C 20.710938 6.53125 20.292969 6.199219 19.96875 5.867188 C 19.523438 5.414062 19.21875 5.222656 18.71875 5.078125 C 17.699219 4.785156 17.445312 4.613281 16.933594 3.863281 C 16.300781 2.929688 15.804688 2.699219 14.679688 2.816406 C 13.746094 2.914062 12.953125 2.917969 12 2.835938 C 11.394531 2.78125 11.257812 2.820312 10.320312 3.320312 M 14.21875 3.5 C 14.023438 3.5625 13.34375 3.628906 12.710938 3.644531 C 11.457031 3.675781 11.417969 3.6875 8.664062 5.152344 C 8.050781 5.480469 7.25 5.8125 6.882812 5.894531 C 6.265625 6.03125 6.148438 6.117188 5.179688 7.171875 C 4.609375 7.796875 3.996094 8.378906 3.824219 8.46875 C 3.386719 8.695312 3.140625 9.464844 3.210938 10.351562 C 3.289062 11.289062 3.074219 11.976562 2.382812 13 C 1.859375 13.769531 1.800781 13.925781 1.800781 14.527344 C 1.800781 15.703125 2.058594 16.21875 3.003906 16.90625 C 4.089844 17.699219 4.695312 18 5.207031 18 C 5.824219 18 6.222656 18.191406 6.871094 18.800781 L 7.457031 19.347656 L 8.320312 19.273438 C 9.699219 19.160156 10.28125 19.199219 10.828125 19.429688 C 11.230469 19.601562 11.503906 19.632812 12.089844 19.570312 C 12.5 19.527344 12.890625 19.4375 12.957031 19.371094 C 13.023438 19.300781 13.21875 18.46875 13.386719 17.515625 C 13.761719 15.363281 13.792969 15.265625 14.648438 13.5 C 15.414062 11.921875 15.625 11.039062 15.574219 9.671875 C 15.550781 9.136719 15.589844 8.828125 15.675781 8.796875 C 15.75 8.769531 16.054688 9.089844 16.351562 9.507812 C 19.175781 13.464844 19.699219 14.625 19.648438 16.824219 C 19.632812 17.460938 19.65625 18.015625 19.703125 18.0625 C 19.804688 18.164062 20.566406 17.722656 21.027344 17.300781 C 21.207031 17.136719 21.515625 16.609375 21.714844 16.128906 L 22.078125 15.257812 L 22.007812 13.238281 C 21.949219 11.503906 21.890625 11.050781 21.59375 10.019531 C 21.40625 9.359375 21.210938 8.578125 21.167969 8.28125 C 21.105469 7.875 20.972656 7.636719 20.640625 7.320312 C 19.703125 6.433594 19.085938 6 18.3125 5.691406 C 17.648438 5.425781 17.386719 5.230469 16.769531 4.535156 C 16.359375 4.074219 15.878906 3.621094 15.699219 3.527344 C 15.328125 3.335938 14.75 3.324219 14.21875 3.5 M 8.742188 7.921875 C 8.4375 7.972656 8.050781 8.105469 7.886719 8.214844 C 7.578125 8.417969 6.960938 9.222656 6.960938 9.425781 C 6.957031 9.488281 6.792969 9.632812 6.59375 9.746094 C 6.207031 9.96875 5.878906 10.589844 5.878906 11.109375 C 5.878906 11.292969 5.726562 11.601562 5.519531 11.839844 C 5.292969 12.097656 5.160156 12.378906 5.160156 12.605469 C 5.160156 13 5.527344 13.441406 5.851562 13.4375 C 6.011719 13.433594 5.984375 13.375 5.730469 13.1875 C 5.292969 12.859375 5.3125 12.621094 5.820312 12.085938 C 6.128906 11.757812 6.238281 11.53125 6.238281 11.238281 C 6.238281 10.625 6.46875 10.085938 6.765625 10.011719 C 6.925781 9.972656 7.152344 9.699219 7.363281 9.304688 C 7.902344 8.273438 8 8.21875 9.378906 8.21875 C 10.535156 8.21875 10.5625 8.214844 10.3125 8.011719 C 10.039062 7.789062 9.660156 7.765625 8.742188 7.921875 M 15.9375 10.429688 C 15.980469 11.644531 15.886719 11.980469 14.839844 14.21875 C 14.15625 15.6875 13.859375 16.863281 13.722656 18.660156 C 13.65625 19.5 13.898438 20.003906 14.550781 20.402344 C 14.949219 20.644531 15.773438 20.726562 15.890625 20.53125 C 15.929688 20.472656 15.828125 20.136719 15.667969 19.78125 C 15.386719 19.15625 15.308594 18.667969 15.34375 17.707031 C 15.363281 17.113281 15.519531 17.265625 15.710938 18.058594 C 16.054688 19.511719 16.101562 19.636719 16.203125 19.371094 C 16.253906 19.238281 16.332031 18.714844 16.378906 18.214844 C 16.457031 17.390625 16.441406 17.273438 16.203125 16.949219 C 16.019531 16.699219 15.902344 16.292969 15.820312 15.605469 C 15.695312 14.570312 15.777344 13.746094 15.957031 14.21875 C 16.007812 14.351562 16.085938 14.730469 16.132812 15.058594 C 16.179688 15.390625 16.296875 15.796875 16.394531 15.960938 C 16.550781 16.230469 16.5625 16.007812 16.496094 13.859375 C 16.417969 11.476562 16.488281 11.074219 16.777344 12.238281 C 16.851562 12.535156 16.941406 13.023438 16.980469 13.320312 C 17.019531 13.617188 17.085938 14.023438 17.125 14.21875 L 17.199219 14.578125 L 17.289062 14.28125 C 17.335938 14.113281 17.382812 13.75 17.386719 13.46875 C 17.394531 13.1875 17.453125 12.960938 17.519531 12.960938 C 17.703125 12.960938 17.667969 14.941406 17.476562 15.398438 C 17.308594 15.804688 17.085938 17.640625 17.207031 17.640625 C 17.324219 17.640625 17.621094 16.832031 17.703125 16.285156 C 17.878906 15.105469 18.164062 15.226562 18.132812 16.46875 C 18.109375 17.5 17.96875 17.996094 17.503906 18.695312 C 17.128906 19.257812 17.007812 20.074219 17.339844 19.800781 C 17.4375 19.71875 17.582031 19.441406 17.660156 19.183594 C 17.835938 18.59375 18.046875 18.75 17.980469 19.417969 L 17.9375 19.898438 L 18.253906 19.671875 C 18.429688 19.546875 18.730469 19.261719 18.925781 19.039062 C 19.261719 18.65625 19.285156 18.566406 19.355469 17.246094 C 19.417969 16.074219 19.394531 15.726562 19.191406 15 C 18.929688 14.054688 18.292969 12.707031 17.851562 12.167969 C 17.691406 11.976562 17.433594 11.605469 17.277344 11.339844 C 17.0625 10.980469 16.074219 9.574219 15.917969 9.398438 C 15.910156 9.386719 15.917969 9.851562 15.9375 10.429688 M 17.410156 14.46875 C 17.414062 14.609375 17.445312 14.636719 17.480469 14.542969 C 17.515625 14.457031 17.511719 14.351562 17.472656 14.3125 C 17.433594 14.273438 17.40625 14.34375 17.410156 14.46875 M 16.773438 16.441406 C 16.726562 17.464844 16.605469 18.78125 16.5 19.371094 C 16.308594 20.46875 16.378906 20.871094 16.710938 20.539062 C 16.816406 20.429688 16.871094 19.683594 16.902344 17.902344 C 16.953125 14.777344 16.882812 13.996094 16.773438 16.441406 M 17.289062 14.839844 C 17.285156 14.917969 17.25 15.078125 17.210938 15.199219 C 17.144531 15.410156 17.148438 15.410156 17.28125 15.207031 C 17.355469 15.085938 17.390625 14.925781 17.359375 14.84375 C 17.316406 14.742188 17.296875 14.738281 17.289062 14.839844 M 16.023438 15.753906 C 16.078125 16.339844 16.285156 16.875 16.40625 16.753906 C 16.445312 16.714844 16.390625 16.453125 16.285156 16.171875 C 16.183594 15.890625 16.066406 15.550781 16.03125 15.421875 C 15.996094 15.289062 15.992188 15.4375 16.023438 15.753906 M 17.828125 16.589844 C 17.785156 16.867188 17.609375 17.410156 17.4375 17.789062 C 17.058594 18.632812 17.140625 18.820312 17.570312 18.089844 C 17.765625 17.753906 17.90625 17.285156 17.957031 16.820312 C 18.042969 15.980469 17.953125 15.816406 17.828125 16.589844 M 15.5 18.359375 C 15.5 18.523438 15.527344 18.59375 15.558594 18.511719 C 15.59375 18.425781 15.59375 18.292969 15.558594 18.210938 C 15.527344 18.128906 15.5 18.195312 15.5 18.359375 M 15.609375 18.867188 C 15.597656 19.097656 15.964844 20.074219 16.035156 20.003906 C 16.058594 19.980469 15.976562 19.667969 15.847656 19.308594 C 15.722656 18.953125 15.613281 18.753906 15.609375 18.867188 M 17.761719 19.304688 C 17.761719 19.359375 17.625 19.601562 17.464844 19.84375 C 17.15625 20.292969 17.214844 20.441406 17.550781 20.070312 C 17.75 19.851562 17.960938 19.199219 17.832031 19.199219 C 17.792969 19.199219 17.761719 19.246094 17.761719 19.304688 "/>
</g>
</svg>
