<?xml version="1.0" encoding="UTF-8"?>
<svg xmlns="http://www.w3.org/2000/svg" xmlns:xlink="http://www.w3.org/1999/xlink" width="24px" height="24px" viewBox="0 0 24 24" version="1.1">
<g id="surface1">
<path style=" stroke:none;fill-rule:evenodd;fill:rgb(0%,0%,0%);fill-opacity:1;" d="M 19.695312 5.28125 C 19.214844 5.394531 17.226562 7.371094 16.964844 8 C 16.875 8.214844 16.800781 8.710938 16.800781 9.097656 C 16.800781 9.648438 16.746094 9.851562 16.5625 10.019531 C 16.234375 10.316406 15.25 10.5625 14.082031 10.644531 L 13.105469 10.710938 L 12.902344 10.007812 C 12.382812 8.199219 11.09375 6.527344 9.757812 5.914062 C 9.265625 5.691406 8.796875 5.582031 8.152344 5.542969 C 6.011719 5.421875 4.410156 6.449219 3.304688 8.65625 C 3.019531 9.226562 2.75 9.914062 2.703125 10.1875 L 2.617188 10.679688 L 0.960938 10.679688 L 0.960938 11.613281 C 0.960938 13.960938 1.988281 15.683594 3.925781 16.589844 C 4.621094 16.914062 4.890625 16.972656 5.992188 17.019531 L 7.261719 17.074219 L 7.621094 17.625 C 8.335938 18.722656 9.523438 19.007812 10.921875 18.421875 C 11.457031 18.195312 11.84375 18.121094 12.496094 18.121094 C 13.308594 18.121094 13.410156 18.089844 14.113281 17.632812 L 14.859375 17.144531 L 15.320312 17.445312 C 16.1875 18.015625 16.75 18.082031 18.207031 17.789062 C 18.914062 17.644531 19.628906 17.425781 19.789062 17.304688 C 20.617188 16.6875 20.808594 15.835938 20.25 15.277344 L 19.933594 14.960938 L 20.628906 14.289062 C 21.203125 13.734375 21.363281 13.492188 21.535156 12.898438 C 21.648438 12.503906 22.039062 11.449219 22.40625 10.558594 C 23.039062 9.011719 23.066406 8.902344 23.003906 8.140625 C 22.875 6.589844 22.109375 5.511719 21.015625 5.335938 C 20.777344 5.296875 20.472656 5.25 20.339844 5.226562 C 20.207031 5.207031 19.917969 5.230469 19.695312 5.28125 M 18.910156 7.386719 C 17.972656 8.410156 17.960938 8.429688 17.941406 9.101562 C 17.90625 10.152344 17.902344 10.164062 17.488281 10.636719 C 17.019531 11.171875 16.410156 11.457031 15.332031 11.644531 C 14.59375 11.773438 14.464844 11.839844 13.886719 12.410156 C 13.207031 13.078125 12.265625 13.511719 10.859375 13.800781 C 10.464844 13.882812 10.003906 14.015625 9.839844 14.101562 C 8.777344 14.652344 8.054688 16.429688 8.613281 17.117188 C 9.105469 17.726562 9.636719 17.777344 10.636719 17.3125 C 11.195312 17.054688 11.519531 16.984375 12.199219 16.980469 C 13.019531 16.980469 13.097656 16.953125 13.785156 16.46875 C 14.601562 15.894531 14.808594 15.457031 14.636719 14.679688 C 14.578125 14.429688 14.542969 14.21875 14.554688 14.207031 C 14.683594 14.109375 15.375 13.800781 15.46875 13.800781 C 15.789062 13.800781 15.929688 15.46875 15.664062 16.101562 C 15.601562 16.257812 15.691406 16.363281 16.050781 16.542969 C 16.671875 16.863281 16.933594 16.882812 18 16.695312 C 18.886719 16.539062 19.441406 16.304688 19.441406 16.082031 C 19.441406 15.882812 18.535156 15.707031 18.183594 15.839844 C 18.007812 15.90625 17.625 15.960938 17.332031 15.960938 L 16.800781 15.960938 L 16.800781 15.421875 C 16.800781 14.910156 16.820312 14.878906 17.128906 14.878906 C 17.824219 14.875 18 14.761719 18 14.316406 C 18 14.085938 17.90625 13.742188 17.796875 13.550781 C 17.59375 13.210938 17.597656 13.199219 17.9375 12.84375 C 18.269531 12.496094 18.292969 12.488281 18.519531 12.691406 C 18.648438 12.804688 18.859375 13.128906 18.984375 13.410156 C 19.109375 13.691406 19.238281 13.921875 19.273438 13.921875 C 19.304688 13.921875 19.542969 13.75 19.800781 13.546875 C 20.171875 13.246094 20.3125 13.011719 20.511719 12.355469 C 20.648438 11.90625 21.003906 10.960938 21.300781 10.253906 C 21.714844 9.265625 21.839844 8.8125 21.839844 8.320312 C 21.839844 7.117188 21.398438 6.511719 20.445312 6.410156 L 19.859375 6.351562 L 18.910156 7.386719 M 7.019531 6.703125 C 5.632812 7.066406 4.335938 8.515625 3.863281 10.230469 L 3.738281 10.679688 L 11.90625 10.679688 L 11.828125 10.351562 C 11.679688 9.734375 10.953125 8.34375 10.511719 7.835938 C 9.71875 6.929688 8.132812 6.414062 7.019531 6.703125 M 8.039062 8.640625 L 8.039062 9.238281 L 9.238281 9.238281 L 9.238281 8.039062 L 8.039062 8.039062 L 8.039062 8.640625 M 2.191406 12.589844 C 2.308594 13.886719 3.109375 14.972656 4.375 15.554688 C 5.136719 15.902344 7.320312 16.105469 7.320312 15.828125 C 7.324219 15.460938 7.960938 14.308594 8.4375 13.820312 C 9.039062 13.195312 9.558594 12.917969 10.441406 12.730469 C 11.320312 12.550781 12.582031 12.128906 12.664062 11.992188 C 12.707031 11.921875 10.636719 11.878906 7.429688 11.878906 L 2.125 11.878906 L 2.191406 12.589844 "/>
</g>
</svg>
