<?xml version="1.0" encoding="UTF-8"?>
<svg xmlns="http://www.w3.org/2000/svg" xmlns:xlink="http://www.w3.org/1999/xlink" width="100px" height="100px" viewBox="0 0 100 100" version="1.1">
<g id="surface1">
<path style=" stroke:none;fill-rule:evenodd;fill:rgb(0%,0%,0%);fill-opacity:1;" d="M 28.480469 34.125 C 25.566406 35.59375 25.199219 37.546875 27.429688 39.683594 L 28.90625 41.097656 L 27.964844 43.175781 C 26.640625 46.085938 26.757812 47.6875 28.425781 49.609375 C 29.339844 50.660156 29.957031 52.042969 30.140625 53.457031 C 30.453125 55.851562 31.535156 57.605469 33.691406 59.21875 C 34.804688 60.050781 35.816406 60.25 38.910156 60.25 C 42.160156 60.25 43.164062 60.03125 45.453125 58.828125 C 47.59375 57.703125 48.238281 57.546875 48.539062 58.078125 C 50.902344 62.242188 53.996094 64.332031 59.546875 65.511719 C 64.460938 66.550781 72.171875 65.011719 75.769531 62.269531 C 77.777344 60.738281 79.503906 57.664062 79.488281 55.644531 C 79.457031 51.714844 75.1875 46.636719 69.601562 43.890625 L 66.261719 42.25 L 49.464844 42.25 L 45.855469 38.371094 C 41.574219 33.769531 39.96875 33 34.621094 33 C 31.5625 33 30.226562 33.246094 28.480469 34.125 M 30.628906 34.988281 C 28.925781 35.390625 27.5 36.328125 27.5 37.042969 C 27.5 37.277344 28.195312 38.257812 29.050781 39.230469 L 30.597656 40.992188 L 29.472656 43.710938 C 28.480469 46.105469 28.421875 46.609375 28.996094 47.988281 C 29.398438 48.957031 29.902344 49.453125 30.320312 49.292969 C 30.695312 49.148438 31 49.273438 31 49.570312 C 31 49.863281 31.328125 49.980469 31.726562 49.828125 C 32.324219 49.597656 32.367188 49.785156 31.957031 50.859375 C 30.949219 53.507812 32.304688 56.59375 35.105469 58.042969 C 37.792969 59.429688 40.695312 59.261719 44.421875 57.5 C 48.28125 55.671875 48.714844 55.65625 49.851562 57.292969 C 52.417969 60.980469 53.601562 61.953125 56.898438 63.074219 C 63.523438 65.332031 72.125 63.949219 75.636719 60.058594 C 77.972656 57.472656 78.335938 55.652344 77.078125 52.808594 C 75.828125 49.980469 71.871094 46.152344 69.535156 45.5 C 67.246094 44.867188 64.421875 44.863281 62.753906 45.5 C 61.886719 45.828125 61.546875 45.828125 61.75 45.5 C 61.917969 45.226562 63 44.847656 64.152344 44.65625 L 66.25 44.3125 L 64.5 43.925781 C 62.746094 43.542969 50.625 43.863281 49.890625 44.316406 C 49.144531 44.777344 47.476562 44.945312 47.730469 44.53125 C 48.121094 43.902344 46.125 43.515625 42.449219 43.507812 C 39.84375 43.5 38.632812 43.773438 36.699219 44.800781 C 34.390625 46.03125 34.308594 46.042969 35.25 45 C 37.136719 42.914062 40.007812 41.796875 43.554688 41.773438 L 46.863281 41.75 L 44.890625 39.5 C 42.476562 36.746094 40.378906 35.5625 37.75 35.472656 C 36 35.410156 35.90625 35.351562 37 35 C 38.679688 34.460938 32.886719 34.449219 30.628906 34.988281 M 36.011719 50.640625 C 33.308594 52.007812 33.152344 54.824219 35.675781 56.703125 C 38.257812 58.632812 44.480469 57.421875 45.304688 54.832031 C 46.347656 51.546875 39.933594 48.65625 36.011719 50.640625 M 35.625 51.976562 C 34.175781 53.347656 34.207031 54.050781 35.789062 55.539062 C 37.398438 57.050781 41.085938 57.214844 43.148438 55.863281 C 46.019531 53.980469 44.117188 51.425781 39.605469 51.113281 C 37.214844 50.945312 36.566406 51.085938 35.625 51.976562 M 60.1875 52.6875 C 56.882812 54.191406 56.105469 57.179688 58.414062 59.492188 C 60.304688 61.382812 62.964844 62.074219 66.058594 61.488281 C 72.671875 60.234375 75.03125 56.144531 70.6875 53.460938 C 68.394531 52.042969 62.550781 51.613281 60.1875 52.6875 M 61 53.328125 C 59.539062 53.910156 58 55.6875 58 56.792969 C 58 58.230469 60.53125 60.367188 62.722656 60.777344 C 63.738281 60.96875 65.539062 60.769531 67.226562 60.277344 C 72 58.890625 73.261719 56.476562 70.347656 54.308594 C 69.285156 53.515625 68.085938 53.238281 65.347656 53.148438 C 63.371094 53.082031 61.414062 53.164062 61 53.328125 "/>
</g>
</svg>
