<?xml version="1.0" encoding="UTF-8"?>
<svg xmlns="http://www.w3.org/2000/svg" xmlns:xlink="http://www.w3.org/1999/xlink" width="24px" height="24px" viewBox="0 0 24 24" version="1.1">
<g id="surface1">
<path style=" stroke:none;fill-rule:evenodd;fill:rgb(0%,0%,0%);fill-opacity:1;" d="M 6.835938 8.191406 C 6.136719 8.542969 6.046875 9.011719 6.582031 9.523438 L 6.9375 9.863281 L 6.710938 10.363281 C 6.394531 11.058594 6.421875 11.445312 6.824219 11.90625 C 7.042969 12.160156 7.1875 12.492188 7.234375 12.828125 C 7.308594 13.40625 7.566406 13.824219 8.085938 14.210938 C 8.355469 14.414062 8.59375 14.460938 9.339844 14.460938 C 10.117188 14.460938 10.359375 14.40625 10.910156 14.117188 C 11.421875 13.847656 11.578125 13.8125 11.648438 13.9375 C 12.214844 14.9375 12.957031 15.441406 14.292969 15.722656 C 15.46875 15.972656 17.320312 15.601562 18.183594 14.945312 C 18.667969 14.578125 19.082031 13.839844 19.078125 13.355469 C 19.070312 12.410156 18.042969 11.191406 16.703125 10.535156 L 15.902344 10.140625 L 11.871094 10.140625 L 11.003906 9.210938 C 9.976562 8.105469 9.59375 7.921875 8.308594 7.921875 C 7.574219 7.921875 7.253906 7.980469 6.835938 8.191406 M 7.351562 8.398438 C 6.941406 8.492188 6.601562 8.71875 6.601562 8.890625 C 6.601562 8.945312 6.765625 9.183594 6.972656 9.414062 L 7.34375 9.839844 L 7.074219 10.488281 C 6.835938 11.066406 6.820312 11.1875 6.957031 11.515625 C 7.054688 11.75 7.175781 11.867188 7.277344 11.832031 C 7.367188 11.796875 7.441406 11.824219 7.441406 11.898438 C 7.441406 11.96875 7.519531 11.996094 7.613281 11.957031 C 7.757812 11.902344 7.769531 11.949219 7.667969 12.207031 C 7.429688 12.84375 7.753906 13.582031 8.425781 13.929688 C 9.070312 14.261719 9.765625 14.222656 10.660156 13.800781 C 11.585938 13.359375 11.691406 13.355469 11.964844 13.75 C 12.582031 14.636719 12.863281 14.867188 13.65625 15.136719 C 15.246094 15.679688 17.308594 15.347656 18.152344 14.414062 C 18.714844 13.792969 18.800781 13.355469 18.5 12.671875 C 18.199219 11.996094 17.25 11.074219 16.6875 10.921875 C 16.140625 10.769531 15.460938 10.765625 15.0625 10.917969 C 14.851562 11 14.769531 11 14.820312 10.921875 C 14.859375 10.855469 15.121094 10.761719 15.398438 10.71875 L 15.898438 10.636719 L 15.480469 10.542969 C 15.058594 10.449219 12.148438 10.527344 11.972656 10.636719 C 11.792969 10.746094 11.394531 10.785156 11.457031 10.6875 C 11.546875 10.535156 11.070312 10.445312 10.1875 10.441406 C 9.5625 10.441406 9.273438 10.507812 8.808594 10.753906 C 8.253906 11.046875 8.234375 11.050781 8.460938 10.800781 C 8.914062 10.300781 9.601562 10.03125 10.453125 10.027344 L 11.246094 10.019531 L 10.773438 9.480469 C 10.195312 8.820312 9.691406 8.535156 9.058594 8.511719 C 8.640625 8.5 8.617188 8.484375 8.878906 8.398438 C 9.28125 8.269531 7.894531 8.269531 7.351562 8.398438 M 8.640625 12.152344 C 7.996094 12.480469 7.957031 13.15625 8.5625 13.609375 C 9.179688 14.070312 10.675781 13.78125 10.871094 13.160156 C 11.121094 12.371094 9.585938 11.675781 8.640625 12.152344 M 8.550781 12.472656 C 8.203125 12.804688 8.210938 12.972656 8.589844 13.328125 C 8.976562 13.691406 9.859375 13.730469 10.355469 13.40625 C 11.046875 12.957031 10.589844 12.34375 9.503906 12.265625 C 8.929688 12.226562 8.777344 12.261719 8.550781 12.472656 M 14.445312 12.644531 C 13.652344 13.007812 13.464844 13.722656 14.019531 14.277344 C 14.472656 14.730469 15.109375 14.898438 15.855469 14.757812 C 17.441406 14.457031 18.007812 13.476562 16.964844 12.832031 C 16.414062 12.492188 15.011719 12.386719 14.445312 12.644531 M 14.640625 12.796875 C 14.289062 12.9375 13.921875 13.367188 13.921875 13.628906 C 13.921875 13.976562 14.527344 14.488281 15.054688 14.585938 C 15.296875 14.632812 15.730469 14.585938 16.132812 14.464844 C 17.28125 14.132812 17.582031 13.554688 16.882812 13.035156 C 16.628906 12.84375 16.339844 12.777344 15.683594 12.753906 C 15.207031 12.738281 14.738281 12.757812 14.640625 12.796875 "/>
</g>
</svg>
