<?xml version="1.0" encoding="UTF-8"?>
<svg xmlns="http://www.w3.org/2000/svg" xmlns:xlink="http://www.w3.org/1999/xlink" width="100px" height="100px" viewBox="0 0 100 100" version="1.1">
<g id="surface1">
<path style=" stroke:none;fill-rule:evenodd;fill:rgb(0%,0%,0%);fill-opacity:1;" d="M 82.066406 22.011719 C 80.070312 22.46875 71.777344 30.714844 70.683594 33.328125 C 70.308594 34.230469 70 36.289062 70 37.90625 C 70 40.203125 69.78125 41.042969 69.007812 41.742188 C 67.640625 42.976562 63.539062 44.015625 58.679688 44.351562 L 54.609375 44.632812 L 53.761719 41.691406 C 51.585938 34.167969 46.226562 27.191406 40.65625 24.644531 C 38.613281 23.707031 36.660156 23.257812 33.96875 23.101562 C 25.050781 22.585938 18.371094 26.875 13.769531 36.070312 C 12.578125 38.445312 11.449219 41.3125 11.257812 42.445312 L 10.910156 44.5 L 4 44.5 L 4 48.394531 C 4 58.164062 8.28125 65.34375 16.359375 69.125 C 19.253906 70.476562 20.382812 70.714844 24.96875 70.914062 L 30.25 71.144531 L 31.75 73.4375 C 34.738281 78.007812 39.679688 79.199219 45.5 76.75 C 47.742188 75.808594 49.355469 75.5 52.074219 75.5 C 55.445312 75.5 55.882812 75.367188 58.800781 73.46875 L 61.921875 71.433594 L 63.835938 72.691406 C 67.453125 75.070312 69.796875 75.347656 75.859375 74.117188 C 78.8125 73.515625 81.78125 72.613281 82.457031 72.105469 C 85.902344 69.535156 86.710938 65.984375 84.378906 63.652344 L 83.058594 62.332031 L 85.957031 59.539062 C 88.351562 57.234375 89.007812 56.222656 89.722656 53.75 C 90.199219 52.097656 91.832031 47.710938 93.351562 44 C 95.992188 37.554688 96.105469 37.097656 95.839844 33.917969 C 95.304688 27.453125 92.125 22.960938 87.566406 22.234375 C 86.566406 22.074219 85.300781 21.871094 84.75 21.785156 C 84.199219 21.699219 82.992188 21.800781 82.066406 22.011719 M 78.792969 30.773438 C 74.882812 35.039062 74.835938 35.117188 74.75 37.917969 C 74.617188 42.296875 74.601562 42.351562 72.875 44.316406 C 70.914062 46.550781 68.371094 47.738281 63.878906 48.515625 C 60.816406 49.046875 60.265625 49.339844 57.863281 51.703125 C 55.03125 54.492188 51.105469 56.296875 45.25 57.496094 C 43.601562 57.835938 41.6875 58.40625 41 58.761719 C 36.574219 61.058594 33.5625 68.449219 35.886719 71.316406 C 37.945312 73.855469 40.152344 74.070312 44.316406 72.136719 C 46.640625 71.054688 47.996094 70.769531 50.835938 70.761719 C 54.242188 70.75 54.574219 70.644531 57.4375 68.625 C 60.84375 66.222656 61.710938 64.398438 60.980469 61.164062 C 60.746094 60.125 60.597656 59.242188 60.652344 59.203125 C 61.1875 58.789062 64.066406 57.5 64.457031 57.5 C 65.78125 57.5 66.371094 64.457031 65.269531 67.09375 C 65 67.734375 65.386719 68.175781 66.875 68.9375 C 69.472656 70.261719 70.558594 70.347656 75 69.5625 C 78.691406 68.914062 81 67.929688 81 67.007812 C 81 66.171875 77.226562 65.4375 75.765625 65.992188 C 75.035156 66.273438 73.4375 66.5 72.21875 66.5 L 70 66.5 L 70 64.25 C 70 62.128906 70.078125 62 71.375 61.992188 C 74.269531 61.980469 75 61.503906 75 59.644531 C 75 58.6875 74.617188 57.253906 74.148438 56.460938 C 73.308594 55.042969 73.320312 54.992188 74.738281 53.511719 C 76.121094 52.066406 76.21875 52.042969 77.164062 52.878906 C 77.703125 53.359375 78.574219 54.707031 79.097656 55.875 C 79.617188 57.042969 80.160156 58 80.300781 58 C 80.445312 58 81.429688 57.296875 82.5 56.441406 C 84.054688 55.191406 84.640625 54.210938 85.46875 51.484375 C 86.039062 49.617188 87.515625 45.671875 88.75 42.71875 C 90.472656 38.609375 91 36.722656 91 34.660156 C 91 29.648438 89.15625 27.128906 85.195312 26.714844 L 82.75 26.457031 L 78.792969 30.773438 M 29.25 27.9375 C 23.464844 29.449219 18.066406 35.472656 16.097656 42.625 L 15.582031 44.5 L 49.609375 44.5 L 49.28125 43.125 C 48.667969 40.558594 45.632812 34.757812 43.796875 32.65625 C 40.5 28.871094 33.886719 26.722656 29.25 27.9375 M 33.5 36 L 33.5 38.5 L 38.5 38.5 L 38.5 33.5 L 33.5 33.5 L 33.5 36 M 9.128906 52.464844 C 9.617188 57.859375 12.964844 62.394531 18.230469 64.804688 C 21.410156 66.261719 30.496094 67.105469 30.503906 65.949219 C 30.515625 64.414062 33.175781 59.628906 35.152344 57.582031 C 37.667969 54.984375 39.820312 53.816406 43.5 53.050781 C 47.160156 52.285156 52.417969 50.535156 52.773438 49.960938 C 52.945312 49.683594 44.320312 49.5 30.960938 49.5 L 8.859375 49.5 L 9.128906 52.464844 "/>
</g>
</svg>
