<?xml version="1.0" encoding="UTF-8"?>
<svg xmlns="http://www.w3.org/2000/svg" xmlns:xlink="http://www.w3.org/1999/xlink" width="100px" height="100px" viewBox="0 0 100 100" version="1.1">
<g id="surface1">
<path style=" stroke:none;fill-rule:evenodd;fill:rgb(0%,0%,0%);fill-opacity:1;" d="M 47.039062 33.632812 C 46.375 33.972656 43.695312 36.613281 41.089844 39.5 C 38.484375 42.386719 35.214844 45.945312 33.828125 47.40625 L 31.308594 50.066406 L 33.699219 58.40625 C 35.011719 62.996094 36.410156 67.257812 36.804688 67.875 C 37.515625 68.988281 37.628906 69 49.433594 69 C 60.164062 69 61.417969 68.914062 62.085938 68.125 C 63.234375 66.765625 67.769531 50.519531 67.214844 49.75 C 65.324219 47.117188 53.550781 34.574219 52.3125 33.875 C 50.503906 32.851562 48.730469 32.769531 47.039062 33.632812 M 44.273438 42.851562 C 41.921875 45.519531 40 47.882812 40 48.101562 C 40 48.320312 44.414062 48.5 49.8125 48.5 C 59.078125 48.5 59.585938 48.453125 58.945312 47.625 C 56.175781 44.039062 50.230469 38 49.46875 38 C 48.933594 38 46.769531 40.019531 44.273438 42.851562 M 48.722656 39.542969 C 48.207031 40.378906 49.367188 41.332031 50.054688 40.644531 C 50.632812 40.066406 50.273438 39 49.5 39 C 49.257812 39 48.90625 39.246094 48.722656 39.542969 M 46.847656 41.820312 C 46.378906 42.285156 46.945312 43 47.78125 43 C 48.175781 43 48.5 42.664062 48.5 42.25 C 48.5 41.496094 47.445312 41.222656 46.847656 41.820312 M 50.625 42.125 C 50.738281 42.46875 51.132812 42.75 51.5 42.75 C 51.867188 42.75 52.261719 42.46875 52.375 42.125 C 52.5 41.753906 52.144531 41.5 51.5 41.5 C 50.855469 41.5 50.5 41.753906 50.625 42.125 M 44.785156 43.945312 C 44.632812 44.1875 44.824219 44.648438 45.210938 44.96875 C 45.992188 45.613281 46.789062 44.871094 46.25 44 C 45.867188 43.382812 45.148438 43.351562 44.785156 43.945312 M 48.722656 44.042969 C 48.207031 44.878906 49.367188 45.832031 50.054688 45.144531 C 50.632812 44.566406 50.273438 43.5 49.5 43.5 C 49.257812 43.5 48.90625 43.746094 48.722656 44.042969 M 52.722656 44.042969 C 52.207031 44.878906 53.367188 45.832031 54.054688 45.144531 C 54.632812 44.566406 54.273438 43.5 53.5 43.5 C 53.257812 43.5 52.90625 43.746094 52.722656 44.042969 M 43.320312 45.847656 C 42.722656 46.445312 42.996094 47.5 43.75 47.5 C 44.164062 47.5 44.5 47.175781 44.5 46.78125 C 44.5 45.945312 43.785156 45.378906 43.320312 45.847656 M 46.722656 46.042969 C 46.207031 46.878906 47.367188 47.832031 48.054688 47.144531 C 48.632812 46.566406 48.273438 45.5 47.5 45.5 C 47.257812 45.5 46.90625 45.746094 46.722656 46.042969 M 50.722656 46.042969 C 50.207031 46.878906 51.367188 47.832031 52.054688 47.144531 C 52.632812 46.566406 52.273438 45.5 51.5 45.5 C 51.257812 45.5 50.90625 45.746094 50.722656 46.042969 M 54.722656 46.042969 C 54.292969 46.738281 55.246094 47.714844 55.933594 47.289062 C 56.507812 46.933594 56.140625 45.5 55.476562 45.5 C 55.246094 45.5 54.90625 45.746094 54.722656 46.042969 M 38.03125 56.375 C 38.558594 58.230469 39.28125 60.761719 39.640625 62 L 40.292969 64.25 L 58.730469 64.25 L 60.359375 58.75 C 61.253906 55.726562 61.988281 53.195312 61.992188 53.125 C 61.996094 53.054688 56.390625 53 49.539062 53 L 37.078125 53 L 38.03125 56.375 M 59.261719 54.625 C 59.148438 54.96875 58.578125 56.902344 57.992188 58.921875 C 56.984375 62.40625 56.972656 63.753906 57.960938 62.714844 C 58.425781 62.230469 60.5 55.570312 60.5 54.570312 C 60.5 53.800781 59.519531 53.84375 59.261719 54.625 "/>
</g>
</svg>
