<?xml version="1.0" encoding="UTF-8"?>
<svg xmlns="http://www.w3.org/2000/svg" xmlns:xlink="http://www.w3.org/1999/xlink" width="24px" height="24px" viewBox="0 0 24 24" version="1.1">
<g id="surface1">
<path style=" stroke:none;fill-rule:evenodd;fill:rgb(0%,0%,0%);fill-opacity:1;" d="M 11.289062 8.070312 C 11.128906 8.152344 10.488281 8.785156 9.863281 9.480469 C 9.234375 10.171875 8.453125 11.027344 8.121094 11.378906 L 7.515625 12.015625 L 8.085938 14.019531 C 8.402344 15.117188 8.738281 16.140625 8.832031 16.289062 C 9.003906 16.558594 9.03125 16.558594 11.863281 16.558594 C 14.4375 16.558594 14.742188 16.539062 14.898438 16.351562 C 15.175781 16.023438 16.265625 12.125 16.132812 11.941406 C 15.679688 11.308594 12.851562 8.296875 12.554688 8.128906 C 12.121094 7.882812 11.695312 7.863281 11.289062 8.070312 M 10.625 10.285156 C 10.0625 10.925781 9.601562 11.492188 9.601562 11.542969 C 9.601562 11.597656 10.660156 11.640625 11.953125 11.640625 C 14.179688 11.640625 14.300781 11.628906 14.148438 11.429688 C 13.480469 10.570312 12.054688 9.121094 11.871094 9.121094 C 11.742188 9.121094 11.226562 9.605469 10.625 10.285156 M 11.695312 9.492188 C 11.570312 9.691406 11.847656 9.921875 12.011719 9.753906 C 12.152344 9.617188 12.066406 9.359375 11.878906 9.359375 C 11.820312 9.359375 11.738281 9.417969 11.695312 9.492188 M 11.242188 10.035156 C 11.132812 10.148438 11.265625 10.320312 11.46875 10.320312 C 11.5625 10.320312 11.640625 10.238281 11.640625 10.140625 C 11.640625 9.960938 11.386719 9.894531 11.242188 10.035156 M 12.148438 10.109375 C 12.175781 10.191406 12.273438 10.261719 12.359375 10.261719 C 12.449219 10.261719 12.542969 10.191406 12.570312 10.109375 C 12.601562 10.019531 12.515625 9.960938 12.359375 9.960938 C 12.207031 9.960938 12.121094 10.019531 12.148438 10.109375 M 10.75 10.546875 C 10.710938 10.605469 10.757812 10.714844 10.851562 10.792969 C 11.039062 10.949219 11.230469 10.769531 11.101562 10.558594 C 11.007812 10.410156 10.835938 10.40625 10.75 10.546875 M 11.695312 10.570312 C 11.570312 10.769531 11.847656 11 12.011719 10.835938 C 12.152344 10.695312 12.066406 10.441406 11.878906 10.441406 C 11.820312 10.441406 11.738281 10.5 11.695312 10.570312 M 12.652344 10.570312 C 12.53125 10.769531 12.808594 11 12.972656 10.835938 C 13.113281 10.695312 13.027344 10.441406 12.839844 10.441406 C 12.78125 10.441406 12.699219 10.5 12.652344 10.570312 M 10.398438 11.003906 C 10.253906 11.148438 10.320312 11.398438 10.5 11.398438 C 10.597656 11.398438 10.679688 11.320312 10.679688 11.226562 C 10.679688 11.027344 10.507812 10.890625 10.398438 11.003906 M 11.214844 11.050781 C 11.089844 11.25 11.367188 11.480469 11.535156 11.3125 C 11.671875 11.175781 11.585938 10.921875 11.398438 10.921875 C 11.34375 10.921875 11.257812 10.980469 11.214844 11.050781 M 12.171875 11.050781 C 12.050781 11.25 12.328125 11.480469 12.492188 11.3125 C 12.632812 11.175781 12.546875 10.921875 12.359375 10.921875 C 12.300781 10.921875 12.21875 10.980469 12.171875 11.050781 M 13.132812 11.050781 C 13.03125 11.21875 13.257812 11.453125 13.425781 11.351562 C 13.5625 11.265625 13.472656 10.921875 13.3125 10.921875 C 13.257812 10.921875 13.179688 10.980469 13.132812 11.050781 M 9.128906 13.53125 C 9.253906 13.976562 9.429688 14.582031 9.515625 14.878906 L 9.671875 15.421875 L 14.09375 15.421875 L 14.484375 14.101562 C 14.699219 13.375 14.878906 12.765625 14.878906 12.75 C 14.878906 12.734375 13.535156 12.71875 11.890625 12.71875 L 8.898438 12.71875 L 9.128906 13.53125 M 14.222656 13.109375 C 14.195312 13.191406 14.058594 13.65625 13.917969 14.140625 C 13.675781 14.976562 13.671875 15.300781 13.910156 15.050781 C 14.023438 14.933594 14.519531 13.335938 14.519531 13.097656 C 14.519531 12.910156 14.285156 12.921875 14.222656 13.109375 "/>
</g>
</svg>
