<?xml version="1.0" encoding="UTF-8"?>
<svg xmlns="http://www.w3.org/2000/svg" xmlns:xlink="http://www.w3.org/1999/xlink" width="24px" height="24px" viewBox="0 0 24 24" version="1.1">
<g id="surface1">
<path style=" stroke:none;fill-rule:evenodd;fill:rgb(0%,0%,0%);fill-opacity:1;" d="M 18.71875 2.054688 C 17.15625 2.316406 15.945312 3.183594 14.074219 5.363281 C 13.410156 6.144531 12.703125 6.933594 12.507812 7.117188 L 12.148438 7.457031 L 10.65625 5.980469 C 9.835938 5.164062 8.867188 4.148438 8.5 3.71875 C 7.621094 2.6875 6.8125 2.238281 5.824219 2.234375 C 4.945312 2.230469 4.324219 2.519531 3.667969 3.246094 C 2.734375 4.28125 2.417969 5.640625 2.871094 6.667969 C 3.195312 7.402344 3.378906 7.601562 4.835938 8.785156 C 6.484375 10.125 6.976562 10.925781 6.722656 11.863281 C 6.617188 12.261719 6.21875 12.722656 4.574219 14.363281 C 2.859375 16.078125 2.492188 16.507812 2.128906 17.242188 C 1.894531 17.71875 1.667969 18.320312 1.625 18.578125 C 1.429688 19.734375 2.175781 20.816406 3.6875 21.566406 C 4.441406 21.9375 4.703125 22.007812 5.378906 22.011719 C 6.664062 22.015625 7.140625 21.660156 9.488281 18.949219 C 11.179688 16.996094 11.53125 16.679688 12.03125 16.679688 C 12.550781 16.679688 13.039062 17.050781 13.800781 18.027344 C 16.195312 21.089844 18.921875 22.140625 20.785156 20.722656 C 21.882812 19.882812 22.101562 19.054688 21.53125 17.90625 C 21.203125 17.25 20.394531 16.316406 18.171875 14.039062 C 16.835938 12.671875 16.441406 12.125 16.441406 11.644531 C 16.441406 11.285156 17.277344 10.425781 18.683594 9.339844 C 20.941406 7.589844 22.1875 5.867188 22.292969 4.339844 C 22.410156 2.628906 20.929688 1.683594 18.71875 2.054688 M 17.910156 2.941406 C 16.871094 3.414062 15.941406 4.226562 14.347656 6.054688 C 12.800781 7.828125 12.449219 8.160156 12.117188 8.160156 C 11.902344 8.160156 9.042969 5.390625 7.988281 4.15625 C 7.132812 3.15625 6.707031 2.882812 6.023438 2.878906 C 4.648438 2.878906 3.335938 4.195312 3.316406 5.597656 C 3.304688 6.410156 3.554688 6.753906 5.101562 8.070312 C 7.3125 9.957031 7.972656 11.238281 7.308594 12.359375 C 7.171875 12.589844 6.183594 13.644531 5.109375 14.699219 C 3.382812 16.398438 3.101562 16.726562 2.703125 17.546875 C 2.3125 18.335938 2.257812 18.554688 2.304688 19.0625 C 2.339844 19.421875 2.46875 19.789062 2.628906 19.996094 C 3.035156 20.519531 4.109375 21.195312 4.796875 21.359375 C 5.996094 21.644531 6.792969 21.089844 9.191406 18.289062 C 10.726562 16.496094 11.378906 15.960938 12.027344 15.960938 C 12.828125 15.960938 13.421875 16.433594 14.683594 18.070312 C 15.671875 19.355469 17.316406 20.507812 18.429688 20.691406 C 19.199219 20.820312 19.992188 20.558594 20.597656 19.980469 C 21.050781 19.546875 21.121094 19.414062 21.121094 18.976562 C 21.121094 18.699219 21.015625 18.265625 20.886719 18.015625 C 20.648438 17.546875 18.921875 15.644531 17.277344 14.035156 C 15.839844 12.632812 15.503906 11.683594 16.140625 10.851562 C 16.304688 10.636719 17.140625 9.886719 18 9.183594 C 20.394531 7.230469 21.601562 5.589844 21.601562 4.289062 C 21.601562 3.175781 20.855469 2.632812 19.347656 2.648438 C 18.761719 2.652344 18.367188 2.734375 17.910156 2.941406 "/>
</g>
</svg>
