<?xml version="1.0" encoding="UTF-8"?>
<svg xmlns="http://www.w3.org/2000/svg" xmlns:xlink="http://www.w3.org/1999/xlink" width="100px" height="100px" viewBox="0 0 100 100" version="1.1">
<g id="surface1">
<path style=" stroke:none;fill-rule:evenodd;fill:rgb(0%,0%,0%);fill-opacity:1;" d="M 78 8.5625 C 71.492188 9.660156 66.429688 13.265625 58.648438 22.355469 C 55.875 25.597656 52.929688 28.886719 52.109375 29.660156 L 50.621094 31.074219 L 44.40625 24.910156 C 40.988281 21.523438 36.945312 17.285156 35.417969 15.492188 C 31.757812 11.195312 28.386719 9.324219 24.265625 9.304688 C 20.601562 9.289062 18.015625 10.503906 15.285156 13.527344 C 11.386719 17.84375 10.070312 23.5 11.964844 27.785156 C 13.320312 30.851562 14.082031 31.671875 20.144531 36.601562 C 27.015625 42.191406 29.070312 45.53125 28.019531 49.433594 C 27.574219 51.085938 25.917969 53.011719 19.0625 59.855469 C 11.910156 66.992188 10.386719 68.789062 8.875 71.84375 C 7.898438 73.820312 6.949219 76.328125 6.765625 77.414062 C 5.949219 82.234375 9.066406 86.742188 15.363281 89.855469 C 18.511719 91.410156 19.601562 91.695312 22.417969 91.707031 C 27.769531 91.730469 29.75 90.253906 39.53125 78.957031 C 46.578125 70.816406 48.054688 69.5 50.132812 69.5 C 52.300781 69.5 54.324219 71.039062 57.511719 75.117188 C 67.480469 87.871094 78.84375 92.253906 86.597656 86.339844 C 91.175781 82.847656 92.09375 79.386719 89.707031 74.605469 C 88.347656 71.878906 84.972656 67.992188 75.710938 58.5 C 70.152344 52.800781 68.5 50.515625 68.5 48.511719 C 68.5 47.023438 71.984375 43.441406 77.84375 38.910156 C 87.257812 31.632812 92.453125 24.441406 92.886719 18.085938 C 93.371094 10.949219 87.214844 7.007812 78 8.5625 M 74.621094 12.25 C 70.292969 14.21875 66.417969 17.609375 59.777344 25.230469 C 53.34375 32.613281 51.875 34 50.492188 34 C 49.59375 34 37.6875 22.460938 33.277344 17.316406 C 29.710938 13.15625 27.9375 12.003906 25.105469 12.003906 C 19.375 11.996094 13.90625 17.484375 13.820312 23.328125 C 13.773438 26.707031 14.808594 28.148438 21.25 33.632812 C 30.46875 41.484375 33.226562 46.832031 30.457031 51.5 C 29.886719 52.460938 25.757812 56.851562 21.285156 61.25 C 14.09375 68.320312 12.929688 69.695312 11.257812 73.105469 C 9.640625 76.40625 9.402344 77.3125 9.605469 79.425781 C 9.75 80.921875 10.28125 82.453125 10.957031 83.320312 C 12.652344 85.5 17.125 88.308594 19.992188 88.996094 C 24.976562 90.195312 28.300781 87.871094 38.300781 76.199219 C 44.691406 68.734375 47.414062 66.5 50.105469 66.5 C 53.453125 66.5 55.933594 68.46875 61.183594 75.300781 C 65.292969 80.640625 72.160156 85.445312 76.789062 86.21875 C 79.992188 86.753906 83.308594 85.667969 85.820312 83.257812 C 87.71875 81.441406 88 80.898438 88 79.066406 C 88 77.90625 87.5625 76.105469 87.027344 75.058594 C 86.035156 73.105469 78.847656 65.183594 71.984375 58.476562 C 66.007812 52.632812 64.597656 48.683594 67.246094 45.210938 C 67.929688 44.3125 71.421875 41.1875 75.003906 38.265625 C 84.972656 30.132812 90 23.296875 90 17.871094 C 90 13.242188 86.894531 10.976562 80.613281 11.027344 C 78.179688 11.050781 76.523438 11.386719 74.621094 12.25 "/>
</g>
</svg>
