<?xml version="1.0" encoding="UTF-8"?>
<svg xmlns="http://www.w3.org/2000/svg" xmlns:xlink="http://www.w3.org/1999/xlink" width="100px" height="100px" viewBox="0 0 100 100" version="1.1">
<g id="surface1">
<path style=" stroke:none;fill-rule:evenodd;fill:rgb(0%,0%,0%);fill-opacity:1;" d="M 37.113281 2.277344 C 36.421875 2.761719 36.003906 3.566406 36.015625 4.402344 C 36.039062 6.753906 38.359375 15.601562 39.066406 16.050781 C 39.441406 16.289062 43.035156 16.488281 47.046875 16.492188 C 53.378906 16.5 54.445312 16.382812 55.113281 15.625 C 55.792969 14.847656 58 6.140625 58 4.234375 C 58 3.832031 57.550781 3.050781 57 2.5 C 56.074219 1.574219 55.332031 1.5 47.113281 1.5 C 39.875 1.5 38.015625 1.644531 37.113281 2.277344 M 34.699219 21.699219 L 33 23.398438 L 33 37.25 L 30.695312 38.472656 C 27.605469 40.113281 22.59375 45.039062 20.125 48.863281 C 10.933594 63.101562 12.554688 81.875 23.980469 93.566406 C 26.761719 96.414062 28.273438 97.5625 29.75 97.957031 C 32.460938 98.683594 61.589844 98.675781 64.210938 97.949219 C 65.4375 97.609375 67.257812 96.371094 69.0625 94.648438 C 84.125 80.285156 83.023438 53.949219 66.820312 41.054688 C 65.097656 39.6875 63.085938 38.289062 62.34375 37.953125 L 61 37.339844 L 61 23.398438 L 57.601562 20 L 36.398438 20 L 34.699219 21.699219 M 39.5 32.773438 C 39.5 40.46875 39.195312 41.167969 34.730469 43.78125 C 30.789062 46.085938 26.289062 50.742188 24.382812 54.488281 L 23.011719 57.175781 L 25.632812 58.46875 C 27.070312 59.175781 30.164062 61.195312 32.5 62.953125 C 41.632812 69.820312 49.457031 71.703125 60.6875 69.746094 C 64.960938 69 70.375 67.121094 72.191406 65.753906 C 73.097656 65.070312 73.101562 64.917969 72.300781 61.726562 C 70.386719 54.109375 65.5625 47.457031 59.289062 43.792969 C 54.800781 41.167969 54.5 40.472656 54.5 32.773438 L 54.5 26.5 L 39.5 26.5 L 39.5 32.773438 "/>
</g>
</svg>
