<?xml version="1.0" encoding="UTF-8"?>
<svg xmlns="http://www.w3.org/2000/svg" xmlns:xlink="http://www.w3.org/1999/xlink" width="24px" height="24px" viewBox="0 0 24 24" version="1.1">
<g id="surface1">
<path style=" stroke:none;fill-rule:evenodd;fill:rgb(0%,0%,0%);fill-opacity:1;" d="M 8.90625 0.546875 C 8.742188 0.664062 8.640625 0.855469 8.644531 1.058594 C 8.648438 1.621094 9.207031 3.746094 9.375 3.851562 C 9.464844 3.910156 10.328125 3.957031 11.292969 3.957031 C 12.8125 3.960938 13.066406 3.933594 13.226562 3.75 C 13.390625 3.5625 13.921875 1.472656 13.921875 1.015625 C 13.921875 0.917969 13.8125 0.730469 13.679688 0.601562 C 13.457031 0.378906 13.28125 0.359375 11.308594 0.359375 C 9.570312 0.359375 9.125 0.394531 8.90625 0.546875 M 8.328125 5.207031 L 7.921875 5.617188 L 7.921875 8.941406 L 7.367188 9.234375 C 6.625 9.628906 5.421875 10.808594 4.828125 11.726562 C 2.625 15.144531 3.011719 19.648438 5.753906 22.457031 C 6.421875 23.140625 6.785156 23.414062 7.140625 23.511719 C 7.789062 23.683594 14.78125 23.683594 15.410156 23.507812 C 15.703125 23.425781 16.140625 23.128906 16.574219 22.714844 C 20.191406 19.269531 19.925781 12.949219 16.035156 9.851562 C 15.625 9.523438 15.140625 9.191406 14.960938 9.109375 L 14.640625 8.960938 L 14.640625 5.617188 L 13.824219 4.800781 L 8.734375 4.800781 L 8.328125 5.207031 M 9.480469 7.867188 C 9.480469 9.710938 9.40625 9.878906 8.335938 10.507812 C 7.390625 11.0625 6.308594 12.179688 5.851562 13.078125 L 5.523438 13.722656 L 6.152344 14.03125 C 6.496094 14.203125 7.238281 14.6875 7.800781 15.109375 C 9.992188 16.757812 11.871094 17.210938 14.566406 16.738281 C 15.589844 16.558594 16.890625 16.109375 17.324219 15.78125 C 17.542969 15.617188 17.542969 15.582031 17.351562 14.8125 C 16.894531 12.984375 15.734375 11.390625 14.230469 10.511719 C 13.152344 9.878906 13.078125 9.714844 13.078125 7.867188 L 13.078125 6.359375 L 9.480469 6.359375 L 9.480469 7.867188 "/>
</g>
</svg>
