<?xml version="1.0" encoding="UTF-8"?>
<svg xmlns="http://www.w3.org/2000/svg" xmlns:xlink="http://www.w3.org/1999/xlink" width="24px" height="24px" viewBox="0 0 24 24" version="1.1">
<g id="surface1">
<path style=" stroke:none;fill-rule:evenodd;fill:rgb(0%,0%,0%);fill-opacity:1;" d="M 11.304688 1.832031 C 10.847656 2.300781 10.675781 2.5625 10.671875 2.824219 L 10.660156 3.179688 L 10.539062 2.847656 C 10.449219 2.601562 10.195312 2.398438 9.589844 2.09375 L 8.761719 1.679688 L 8.34375 2.515625 C 7.992188 3.207031 7.941406 3.402344 8.042969 3.664062 C 8.207031 4.101562 8.199219 4.101562 7.824219 3.726562 C 7.558594 3.457031 7.332031 3.371094 6.730469 3.300781 C 5.832031 3.195312 5.808594 3.21875 5.695312 4.269531 C 5.628906 4.878906 5.65625 5.070312 5.835938 5.351562 L 6.058594 5.695312 L 5.699219 5.441406 C 5.367188 5.207031 5.28125 5.199219 4.539062 5.324219 C 4.097656 5.398438 3.703125 5.496094 3.65625 5.539062 C 3.613281 5.585938 3.636719 5.992188 3.703125 6.441406 C 3.808594 7.109375 3.894531 7.308594 4.164062 7.53125 L 4.5 7.800781 L 4.097656 7.683594 C 3.753906 7.585938 3.585938 7.621094 2.957031 7.9375 C 2.550781 8.140625 2.195312 8.328125 2.167969 8.355469 C 2.140625 8.382812 2.296875 8.777344 2.515625 9.230469 C 2.835938 9.894531 2.988281 10.078125 3.289062 10.175781 L 3.660156 10.296875 L 3.234375 10.308594 C 2.890625 10.316406 2.695312 10.4375 2.1875 10.953125 L 1.558594 11.585938 L 2.253906 12.273438 C 2.703125 12.71875 3.050781 12.964844 3.242188 12.96875 C 3.535156 12.980469 3.535156 12.980469 3.207031 13.101562 C 2.960938 13.191406 2.761719 13.445312 2.464844 14.03125 L 2.054688 14.839844 L 2.875 15.238281 C 3.496094 15.539062 3.789062 15.617188 4.070312 15.558594 L 4.449219 15.484375 L 4.140625 15.753906 C 3.902344 15.957031 3.800781 16.210938 3.699219 16.832031 C 3.625 17.277344 3.59375 17.671875 3.628906 17.707031 C 3.664062 17.742188 4.054688 17.832031 4.496094 17.90625 C 5.203125 18.023438 5.34375 18.011719 5.664062 17.824219 L 6.023438 17.613281 L 5.816406 17.925781 C 5.652344 18.179688 5.628906 18.386719 5.691406 18.992188 C 5.808594 20.074219 5.8125 20.074219 6.789062 19.921875 C 7.496094 19.8125 7.667969 19.734375 7.945312 19.40625 C 8.125 19.195312 8.273438 18.992188 8.277344 18.957031 C 8.277344 18.921875 8.058594 18.914062 7.785156 18.941406 C 7.191406 18.996094 7.074219 19.230469 8.917969 16.707031 L 10.34375 14.753906 L 10.003906 14.484375 C 9.816406 14.339844 9.628906 14.21875 9.582031 14.21875 C 9.539062 14.21875 8.894531 15.058594 8.15625 16.078125 C 7.417969 17.101562 6.71875 18.039062 6.601562 18.160156 C 6.402344 18.371094 6.390625 18.359375 6.316406 17.902344 C 6.238281 17.410156 6.082031 17.28125 5.558594 17.28125 C 5.394531 17.28125 5.277344 17.230469 5.300781 17.167969 C 5.332031 17.078125 6.515625 16.203125 9.453125 14.09375 C 9.472656 14.082031 9.375 13.871094 9.230469 13.632812 L 8.972656 13.191406 L 8.597656 13.476562 C 7.527344 14.277344 4.695312 16.320312 4.644531 16.320312 C 4.613281 16.320312 4.617188 16.089844 4.648438 15.808594 C 4.703125 15.3125 4.691406 15.289062 4.242188 15.070312 C 3.921875 14.914062 3.835938 14.828125 3.960938 14.777344 C 4.058594 14.742188 5.21875 14.351562 6.539062 13.914062 C 8.101562 13.394531 8.929688 13.066406 8.90625 12.96875 C 8.746094 12.257812 8.753906 11.71875 8.9375 11.089844 C 9.308594 9.8125 10.691406 8.761719 12 8.761719 C 13.304688 8.761719 14.695312 9.824219 15.066406 11.109375 C 15.246094 11.71875 15.253906 12.265625 15.09375 12.96875 C 15.070312 13.066406 15.898438 13.394531 17.460938 13.914062 C 18.78125 14.351562 19.941406 14.742188 20.039062 14.777344 C 20.164062 14.828125 20.078125 14.914062 19.761719 15.070312 C 19.320312 15.285156 19.300781 15.316406 19.339844 15.808594 C 19.363281 16.089844 19.363281 16.320312 19.339844 16.320312 C 19.300781 16.320312 16.308594 14.15625 15.402344 13.476562 L 15.027344 13.191406 L 14.765625 13.636719 C 14.617188 13.890625 14.554688 14.109375 14.621094 14.148438 C 15.167969 14.488281 18.714844 17.121094 18.71875 17.191406 C 18.71875 17.238281 18.589844 17.28125 18.429688 17.28125 C 17.917969 17.28125 17.761719 17.410156 17.683594 17.902344 C 17.609375 18.359375 17.597656 18.371094 17.398438 18.160156 C 17.28125 18.039062 16.582031 17.101562 15.84375 16.078125 C 15.105469 15.058594 14.460938 14.21875 14.417969 14.21875 C 14.371094 14.21875 14.183594 14.339844 13.996094 14.484375 L 13.65625 14.753906 L 15.082031 16.707031 C 16.925781 19.230469 16.808594 18.996094 16.214844 18.941406 C 15.941406 18.914062 15.71875 18.914062 15.71875 18.933594 C 15.71875 18.957031 15.859375 19.15625 16.027344 19.378906 C 16.296875 19.730469 16.4375 19.796875 17.179688 19.921875 C 18.183594 20.09375 18.191406 20.089844 18.308594 18.992188 C 18.371094 18.386719 18.347656 18.179688 18.183594 17.925781 L 17.976562 17.613281 L 18.335938 17.824219 C 18.65625 18.011719 18.796875 18.023438 19.503906 17.90625 C 19.945312 17.832031 20.335938 17.742188 20.371094 17.707031 C 20.40625 17.671875 20.375 17.277344 20.300781 16.832031 C 20.199219 16.210938 20.097656 15.957031 19.859375 15.753906 L 19.550781 15.484375 L 19.929688 15.558594 C 20.210938 15.617188 20.503906 15.539062 21.125 15.238281 L 21.945312 14.839844 L 21.535156 14.03125 C 21.238281 13.445312 21.039062 13.191406 20.792969 13.101562 C 20.464844 12.980469 20.464844 12.980469 20.757812 12.96875 C 20.949219 12.964844 21.296875 12.71875 21.746094 12.273438 L 22.441406 11.585938 L 21.8125 10.953125 C 21.304688 10.4375 21.109375 10.316406 20.765625 10.308594 L 20.339844 10.296875 L 20.710938 10.175781 C 21.011719 10.078125 21.164062 9.894531 21.484375 9.230469 C 21.703125 8.777344 21.859375 8.382812 21.832031 8.355469 C 21.804688 8.328125 21.449219 8.140625 21.042969 7.9375 C 20.414062 7.621094 20.246094 7.585938 19.902344 7.683594 L 19.5 7.800781 L 19.835938 7.53125 C 20.105469 7.308594 20.191406 7.109375 20.296875 6.441406 C 20.363281 5.992188 20.386719 5.585938 20.34375 5.539062 C 20.296875 5.496094 19.902344 5.398438 19.460938 5.324219 C 18.71875 5.199219 18.632812 5.207031 18.300781 5.441406 L 17.941406 5.695312 L 18.164062 5.351562 C 18.34375 5.070312 18.371094 4.878906 18.304688 4.269531 C 18.191406 3.21875 18.167969 3.195312 17.269531 3.300781 C 16.667969 3.371094 16.441406 3.457031 16.175781 3.726562 C 15.800781 4.101562 15.792969 4.101562 15.957031 3.664062 C 16.058594 3.402344 16.007812 3.207031 15.65625 2.515625 L 15.238281 1.679688 L 14.410156 2.09375 C 13.804688 2.398438 13.550781 2.601562 13.460938 2.847656 L 13.339844 3.179688 L 13.328125 2.816406 C 13.324219 2.542969 13.164062 2.296875 12.6875 1.824219 C 12.335938 1.480469 12.023438 1.199219 11.992188 1.199219 C 11.957031 1.199219 11.648438 1.484375 11.304688 1.832031 M 11.105469 3.234375 L 10.765625 3.585938 L 10.292969 3.34375 C 10.03125 3.210938 9.804688 3.121094 9.789062 3.140625 C 9.773438 3.164062 10.152344 4.367188 10.632812 5.820312 L 11.507812 8.460938 L 11.511719 5.671875 C 11.515625 4.136719 11.503906 2.878906 11.484375 2.878906 C 11.460938 2.878906 11.292969 3.039062 11.105469 3.234375 M 12.484375 5.644531 L 12.488281 8.460938 L 13.367188 5.820312 C 13.847656 4.367188 14.230469 3.164062 14.210938 3.140625 C 14.195312 3.121094 13.976562 3.210938 13.722656 3.34375 L 13.261719 3.582031 L 12.480469 2.832031 L 12.484375 5.644531 M 8.570312 3.882812 C 8.34375 4.339844 8.335938 4.347656 7.78125 4.28125 L 7.21875 4.214844 L 8.785156 6.371094 C 9.648438 7.554688 10.375 8.503906 10.398438 8.480469 C 10.421875 8.457031 10.074219 7.308594 9.621094 5.929688 L 8.796875 3.421875 L 8.570312 3.882812 M 14.355469 5.960938 C 13.914062 7.320312 13.574219 8.453125 13.601562 8.480469 C 13.644531 8.527344 16.679688 4.390625 16.679688 4.28125 C 16.679688 4.253906 16.445312 4.253906 16.160156 4.289062 C 15.667969 4.34375 15.632812 4.324219 15.484375 3.972656 C 15.398438 3.765625 15.292969 3.570312 15.246094 3.542969 C 15.199219 3.515625 14.800781 4.605469 14.355469 5.960938 M 6.359375 5.046875 C 6.355469 5.710938 6.238281 5.867188 5.683594 5.949219 L 5.148438 6.027344 L 6.085938 6.714844 C 9.75 9.394531 9.769531 9.40625 9.472656 8.988281 C 8.875 8.140625 6.566406 4.976562 6.464844 4.867188 C 6.402344 4.796875 6.359375 4.871094 6.359375 5.046875 M 16.195312 6.675781 C 15.441406 7.714844 14.695312 8.75 14.539062 8.972656 C 14.246094 9.394531 14.246094 9.398438 17.914062 6.714844 L 18.851562 6.027344 L 18.308594 5.949219 C 17.800781 5.871094 17.765625 5.839844 17.695312 5.421875 C 17.652344 5.179688 17.609375 4.9375 17.597656 4.882812 C 17.585938 4.828125 16.953125 5.632812 16.195312 6.675781 M 4.652344 7.417969 C 4.703125 7.972656 4.699219 7.988281 4.242188 8.203125 L 3.78125 8.425781 L 6.300781 9.25 C 7.6875 9.703125 8.855469 10.0625 8.898438 10.046875 C 8.96875 10.023438 8.136719 9.40625 5.210938 7.296875 L 4.597656 6.851562 L 4.652344 7.417969 M 17.203125 8.441406 C 16.003906 9.308594 15.058594 10.03125 15.101562 10.046875 C 15.144531 10.0625 16.3125 9.703125 17.695312 9.253906 L 20.210938 8.429688 L 19.71875 8.179688 C 19.230469 7.929688 19.230469 7.929688 19.324219 7.414062 C 19.375 7.132812 19.410156 6.890625 19.398438 6.882812 C 19.390625 6.871094 18.398438 7.574219 17.203125 8.441406 M 3.734375 9.867188 L 3.980469 10.347656 L 3.191406 11.160156 L 6.007812 11.152344 L 8.820312 11.140625 L 7.800781 10.789062 C 7.238281 10.59375 6.039062 10.199219 5.132812 9.910156 L 3.488281 9.386719 L 3.734375 9.867188 M 17.820312 10.253906 L 15.179688 11.136719 L 17.992188 11.148438 L 20.808594 11.160156 L 20.019531 10.347656 L 20.273438 9.855469 C 20.410156 9.582031 20.511719 9.363281 20.492188 9.367188 C 20.476562 9.371094 19.273438 9.773438 17.820312 10.253906 M 11.101562 10.039062 C 10.570312 10.320312 10.320312 10.566406 10.066406 11.066406 C 9.628906 11.925781 9.898438 13.121094 10.660156 13.683594 L 11 13.933594 L 10.410156 16.578125 C 10.085938 18.03125 9.851562 19.253906 9.894531 19.292969 C 9.933594 19.332031 10.261719 19.222656 10.625 19.042969 C 10.988281 18.867188 11.3125 18.71875 11.34375 18.71875 C 11.375 18.71875 11.398438 19.90625 11.398438 21.359375 L 11.398438 24 L 12.601562 24 L 12.601562 21.359375 C 12.601562 19.90625 12.625 18.71875 12.65625 18.71875 C 12.6875 18.71875 13.011719 18.867188 13.375 19.042969 C 13.738281 19.222656 14.0625 19.335938 14.101562 19.296875 C 14.140625 19.261719 13.878906 18.0625 13.519531 16.636719 L 12.871094 14.046875 L 13.277344 13.734375 C 14.929688 12.472656 14.046875 9.824219 11.976562 9.84375 C 11.691406 9.847656 11.296875 9.933594 11.101562 10.039062 M 3.566406 12.511719 L 3.941406 12.898438 L 3.707031 13.351562 C 3.542969 13.667969 3.519531 13.796875 3.628906 13.792969 C 3.710938 13.789062 4.886719 13.417969 6.238281 12.964844 L 8.699219 12.144531 L 3.191406 12.121094 L 3.566406 12.511719 M 17.761719 12.964844 C 19.113281 13.417969 20.289062 13.789062 20.371094 13.792969 C 20.480469 13.796875 20.457031 13.667969 20.292969 13.351562 L 20.058594 12.898438 L 20.433594 12.511719 L 20.808594 12.121094 L 15.300781 12.144531 L 17.761719 12.964844 "/>
</g>
</svg>
