<?xml version="1.0" encoding="UTF-8"?>
<svg xmlns="http://www.w3.org/2000/svg" xmlns:xlink="http://www.w3.org/1999/xlink" width="100px" height="100px" viewBox="0 0 100 100" version="1.1">
<g id="surface1">
<path style=" stroke:none;fill-rule:evenodd;fill:rgb(0%,0%,0%);fill-opacity:1;" d="M 47.109375 7.640625 C 45.195312 9.578125 44.488281 10.675781 44.460938 11.765625 L 44.421875 13.25 L 43.914062 11.859375 C 43.542969 10.839844 42.476562 9.996094 39.960938 8.730469 L 36.515625 6.996094 L 34.761719 10.476562 C 33.304688 13.371094 33.09375 14.179688 33.503906 15.261719 C 34.199219 17.085938 34.167969 17.09375 32.597656 15.523438 C 31.488281 14.410156 30.546875 14.046875 28.039062 13.753906 C 24.300781 13.320312 24.195312 13.417969 23.726562 17.796875 C 23.457031 20.328125 23.5625 21.132812 24.324219 22.304688 L 25.25 23.734375 L 23.75 22.675781 C 22.359375 21.695312 22.007812 21.660156 18.910156 22.183594 C 17.074219 22.496094 15.425781 22.902344 15.242188 23.085938 C 15.058594 23.273438 15.148438 24.960938 15.4375 26.835938 C 15.867188 29.621094 16.21875 30.457031 17.359375 31.371094 L 18.75 32.496094 L 17.070312 32.015625 C 15.636719 31.609375 14.949219 31.761719 12.320312 33.078125 C 10.632812 33.925781 9.152344 34.707031 9.03125 34.816406 C 8.914062 34.929688 9.5625 36.566406 10.480469 38.457031 C 11.816406 41.222656 12.445312 41.996094 13.695312 42.398438 L 15.25 42.898438 L 13.484375 42.949219 C 12.046875 42.992188 11.230469 43.492188 9.109375 45.640625 L 6.5 48.28125 L 9.390625 51.140625 C 11.261719 52.996094 12.714844 54.015625 13.515625 54.039062 C 14.738281 54.078125 14.734375 54.085938 13.359375 54.585938 C 12.34375 54.957031 11.5 56.015625 10.265625 58.46875 L 8.566406 61.839844 L 11.984375 63.492188 C 14.574219 64.746094 15.78125 65.070312 16.96875 64.832031 L 18.535156 64.519531 L 17.246094 65.632812 C 16.261719 66.488281 15.832031 67.539062 15.40625 70.132812 C 15.097656 71.992188 14.96875 73.636719 15.117188 73.785156 C 15.265625 73.929688 16.894531 74.300781 18.738281 74.605469 C 21.6875 75.097656 22.269531 75.054688 23.59375 74.273438 L 25.097656 73.386719 L 24.242188 74.695312 C 23.550781 75.746094 23.449219 76.617188 23.71875 79.140625 C 24.199219 83.632812 24.210938 83.644531 28.292969 83.007812 C 31.238281 82.546875 31.949219 82.230469 33.113281 80.859375 C 33.859375 79.972656 34.480469 79.132812 34.488281 78.988281 C 34.492188 78.84375 33.570312 78.8125 32.433594 78.921875 C 29.964844 79.15625 29.472656 80.125 37.152344 69.609375 L 43.09375 61.46875 L 41.683594 60.359375 C 40.910156 59.75 40.121094 59.25 39.929688 59.25 C 39.742188 59.25 37.066406 62.738281 33.984375 67 C 30.902344 71.261719 27.992188 75.160156 27.511719 75.664062 C 26.675781 76.546875 26.628906 76.503906 26.324219 74.59375 C 25.992188 72.539062 25.339844 72 23.167969 72 C 22.480469 72 21.992188 71.789062 22.082031 71.535156 C 22.214844 71.164062 27.15625 67.507812 39.394531 58.730469 C 39.476562 58.671875 39.054688 57.804688 38.460938 56.796875 L 37.382812 54.96875 L 35.816406 56.148438 C 31.371094 59.496094 19.5625 68 19.359375 68 C 19.226562 68 19.230469 67.039062 19.363281 65.867188 C 19.597656 63.804688 19.542969 63.703125 17.675781 62.800781 C 16.339844 62.148438 15.980469 61.777344 16.5 61.578125 C 16.914062 61.421875 21.75 59.800781 27.25 57.976562 C 33.757812 55.816406 37.199219 54.4375 37.109375 54.03125 C 36.441406 51.070312 36.480469 48.820312 37.242188 46.199219 C 38.789062 40.878906 44.550781 36.5 50 36.5 C 55.433594 36.5 61.226562 40.933594 62.78125 46.289062 C 63.519531 48.820312 63.550781 51.101562 62.890625 54.03125 C 62.800781 54.4375 66.242188 55.816406 72.75 57.976562 C 78.25 59.800781 83.085938 61.421875 83.5 61.578125 C 84.023438 61.777344 83.664062 62.148438 82.332031 62.792969 C 80.5 63.683594 80.425781 63.820312 80.585938 65.863281 C 80.679688 67.039062 80.679688 68 80.582031 68 C 80.421875 68 67.957031 58.992188 64.183594 56.148438 L 62.617188 54.96875 L 61.53125 56.8125 C 60.902344 57.875 60.644531 58.78125 60.921875 58.953125 C 63.207031 60.363281 77.980469 71.335938 77.988281 71.625 C 77.996094 71.832031 77.457031 72 76.789062 72 C 74.660156 72 74.003906 72.546875 73.675781 74.59375 C 73.371094 76.503906 73.324219 76.546875 72.488281 75.664062 C 72.007812 75.160156 69.097656 71.261719 66.015625 67 C 62.933594 62.738281 60.257812 59.25 60.070312 59.25 C 59.878906 59.25 59.089844 59.75 58.316406 60.359375 L 56.90625 61.46875 L 62.847656 69.609375 C 70.527344 80.125 70.035156 79.15625 67.566406 78.921875 C 66.429688 78.8125 65.5 78.800781 65.5 78.894531 C 65.5 78.988281 66.074219 79.820312 66.777344 80.742188 C 67.898438 82.210938 68.496094 82.492188 71.589844 83.015625 C 75.773438 83.71875 75.792969 83.703125 76.28125 79.140625 C 76.550781 76.617188 76.449219 75.746094 75.757812 74.695312 L 74.902344 73.386719 L 76.40625 74.273438 C 77.730469 75.054688 78.3125 75.097656 81.261719 74.605469 C 83.105469 74.300781 84.734375 73.929688 84.882812 73.785156 C 85.03125 73.636719 84.902344 71.992188 84.59375 70.132812 C 84.167969 67.539062 83.738281 66.488281 82.753906 65.632812 L 81.464844 64.519531 L 83.03125 64.832031 C 84.21875 65.070312 85.425781 64.746094 88.015625 63.492188 L 91.433594 61.839844 L 89.734375 58.46875 C 88.5 56.015625 87.65625 54.957031 86.640625 54.585938 C 85.265625 54.085938 85.261719 54.078125 86.484375 54.039062 C 87.285156 54.015625 88.738281 52.996094 90.609375 51.140625 L 93.5 48.28125 L 90.890625 45.640625 C 88.769531 43.492188 87.953125 42.992188 86.515625 42.949219 L 84.75 42.898438 L 86.304688 42.398438 C 87.554688 41.996094 88.183594 41.222656 89.519531 38.457031 C 90.4375 36.566406 91.085938 34.929688 90.96875 34.816406 C 90.847656 34.707031 89.367188 33.925781 87.679688 33.078125 C 85.050781 31.761719 84.363281 31.609375 82.929688 32.015625 L 81.25 32.496094 L 82.640625 31.371094 C 83.78125 30.457031 84.132812 29.621094 84.5625 26.835938 C 84.851562 24.960938 84.941406 23.273438 84.757812 23.085938 C 84.574219 22.902344 82.925781 22.496094 81.089844 22.183594 C 77.992188 21.660156 77.640625 21.695312 76.25 22.675781 L 74.75 23.734375 L 75.675781 22.304688 C 76.4375 21.132812 76.542969 20.328125 76.273438 17.796875 C 75.804688 13.417969 75.699219 13.320312 71.960938 13.753906 C 69.453125 14.046875 68.511719 14.410156 67.402344 15.523438 C 65.832031 17.09375 65.800781 17.085938 66.496094 15.261719 C 66.90625 14.179688 66.695312 13.371094 65.238281 10.476562 L 63.484375 6.996094 L 60.039062 8.730469 C 57.523438 9.996094 56.457031 10.839844 56.085938 11.859375 L 55.578125 13.25 L 55.539062 11.734375 C 55.511719 10.59375 54.84375 9.570312 52.859375 7.609375 C 51.40625 6.171875 50.105469 5 49.96875 5 C 49.828125 5 48.542969 6.1875 47.109375 7.640625 M 46.273438 13.476562 L 44.863281 14.949219 L 42.882812 13.941406 C 41.792969 13.382812 40.851562 13.003906 40.785156 13.089844 C 40.71875 13.179688 42.304688 18.199219 44.308594 24.25 L 47.949219 35.25 L 47.972656 23.625 C 47.988281 17.230469 47.929688 12 47.84375 12 C 47.757812 12 47.050781 12.664062 46.273438 13.476562 M 52.019531 23.527344 L 52.035156 35.25 L 55.6875 24.25 C 57.699219 18.199219 59.285156 13.175781 59.21875 13.089844 C 59.148438 13 58.230469 13.375 57.171875 13.925781 L 55.25 14.921875 L 52 11.804688 L 52.019531 23.527344 M 35.710938 16.179688 C 34.773438 18.089844 34.734375 18.109375 32.417969 17.832031 L 30.074219 17.554688 L 36.609375 26.539062 C 40.203125 31.480469 43.230469 35.4375 43.332031 35.335938 C 43.433594 35.234375 41.972656 30.449219 40.089844 24.699219 L 36.660156 14.25 L 35.710938 16.179688 M 59.824219 24.84375 C 57.976562 30.503906 56.554688 35.222656 56.664062 35.332031 C 56.855469 35.523438 69.5 18.289062 69.5 17.839844 C 69.5 17.722656 68.523438 17.734375 67.332031 17.867188 C 65.285156 18.097656 65.132812 18.023438 64.519531 16.546875 C 64.160156 15.683594 63.714844 14.882812 63.523438 14.765625 C 63.335938 14.648438 61.667969 19.183594 59.824219 24.84375 M 26.492188 21.023438 C 26.476562 23.800781 26 24.4375 23.675781 24.789062 L 21.453125 25.121094 L 25.351562 27.972656 C 40.621094 39.136719 40.707031 39.195312 39.472656 37.445312 C 36.984375 33.910156 27.363281 20.730469 26.941406 20.273438 C 26.675781 19.992188 26.496094 20.292969 26.492188 21.023438 M 67.488281 27.808594 C 64.332031 32.140625 61.222656 36.453125 60.578125 37.386719 C 59.359375 39.152344 59.351562 39.15625 74.648438 27.972656 L 78.546875 25.121094 L 76.289062 24.78125 C 74.160156 24.464844 74.015625 24.339844 73.726562 22.597656 C 73.558594 21.582031 73.375 20.566406 73.324219 20.339844 C 73.269531 20.113281 70.644531 23.476562 67.488281 27.808594 M 19.378906 30.910156 C 19.601562 33.226562 19.574219 33.28125 17.675781 34.1875 L 15.75 35.109375 L 26.25 38.542969 C 32.023438 40.433594 36.898438 41.925781 37.078125 41.863281 C 37.363281 41.765625 33.910156 39.191406 21.714844 30.402344 L 19.152344 28.554688 L 19.378906 30.910156 M 71.675781 35.171875 C 66.6875 38.789062 62.75 41.800781 62.925781 41.863281 C 63.105469 41.925781 67.964844 40.4375 73.730469 38.554688 L 84.207031 35.125 L 82.167969 34.085938 C 80.132812 33.046875 80.128906 33.039062 80.519531 30.898438 C 80.734375 29.714844 80.875 28.714844 80.832031 28.671875 C 80.785156 28.628906 76.667969 31.554688 71.675781 35.171875 M 15.558594 41.113281 L 16.582031 43.117188 L 14.941406 44.808594 L 13.304688 46.5 L 25.027344 46.460938 L 36.75 46.425781 L 32.5 44.949219 C 30.164062 44.136719 25.164062 42.492188 21.394531 41.292969 L 14.535156 39.113281 L 15.558594 41.113281 M 74.25 42.730469 L 63.25 46.394531 L 74.972656 46.449219 L 86.695312 46.5 L 85.058594 44.808594 L 83.417969 43.117188 L 84.46875 41.058594 C 85.046875 39.925781 85.460938 39.015625 85.386719 39.035156 C 85.3125 39.050781 80.300781 40.714844 74.25 42.730469 M 46.25 41.832031 C 44.046875 42.996094 43.007812 44.027344 41.945312 46.105469 C 40.117188 49.6875 41.25 54.675781 44.421875 57.019531 L 45.832031 58.0625 L 43.371094 69.070312 C 42.019531 75.125 41.050781 80.21875 41.21875 80.386719 C 41.390625 80.554688 42.765625 80.089844 44.273438 79.347656 C 45.785156 78.605469 47.128906 78 47.261719 78 C 47.390625 78 47.5 82.949219 47.5 89 L 47.5 100 L 52.5 100 L 52.5 89 C 52.5 82.949219 52.609375 78 52.738281 78 C 52.871094 78 54.214844 78.605469 55.726562 79.347656 C 57.234375 80.089844 58.601562 80.566406 58.757812 80.410156 C 58.914062 80.253906 57.820312 75.265625 56.332031 69.324219 L 53.621094 58.523438 L 55.316406 57.234375 C 62.214844 51.972656 58.527344 40.941406 49.898438 41.019531 C 48.71875 41.03125 47.074219 41.398438 46.25 41.832031 M 14.863281 52.125 L 16.421875 53.75 L 15.449219 55.625 C 14.757812 56.957031 14.660156 57.492188 15.113281 57.472656 C 15.464844 57.457031 20.363281 55.90625 26 54.023438 L 36.25 50.601562 L 13.304688 50.5 L 14.863281 52.125 M 74 54.023438 C 79.636719 55.90625 84.535156 57.457031 84.886719 57.472656 C 85.339844 57.492188 85.242188 56.957031 84.550781 55.625 L 83.578125 53.75 L 86.695312 50.5 L 63.75 50.601562 L 74 54.023438 "/>
</g>
</svg>
