<?xml version="1.0" encoding="UTF-8"?>
<svg xmlns="http://www.w3.org/2000/svg" xmlns:xlink="http://www.w3.org/1999/xlink" width="100px" height="100px" viewBox="0 0 100 100" version="1.1">
<g id="surface1">
<path style=" stroke:none;fill-rule:evenodd;fill:rgb(0%,0%,0%);fill-opacity:1;" d="M 57.792969 20.019531 C 38.421875 23.070312 25.589844 34.609375 20.644531 53.441406 C 18.992188 59.742188 18.515625 72.636719 19.660156 80.160156 C 20.070312 82.863281 20.507812 85.175781 20.632812 85.296875 C 20.757812 85.421875 22.632812 84.964844 24.804688 84.277344 C 26.972656 83.589844 33.253906 82.132812 38.761719 81.039062 C 52.8125 78.25 58.648438 76.101562 66.832031 70.691406 C 80.035156 61.964844 84.621094 51.089844 83.851562 30.332031 C 83.6875 25.945312 83.359375 22.160156 83.121094 21.917969 C 81.554688 20.351562 64.023438 19.039062 57.792969 20.019531 M 58.625 21.996094 C 34.90625 25.351562 20.886719 42.894531 21.054688 69 C 21.074219 71.886719 21.242188 75.375 21.433594 76.75 L 21.78125 79.25 L 22.449219 77.25 C 23.84375 73.082031 27.152344 65.21875 27.808594 64.523438 C 28.316406 63.980469 28.636719 63.9375 29.058594 64.359375 C 29.476562 64.777344 29.136719 66.054688 27.722656 69.335938 C 25.847656 73.6875 22.945312 82.113281 23.222656 82.390625 C 23.300781 82.46875 25.027344 82.085938 27.058594 81.539062 C 29.089844 80.992188 33.789062 79.96875 37.5 79.269531 C 51.398438 76.648438 58.953125 73.855469 66.78125 68.445312 C 74.175781 63.335938 79.035156 56.191406 80.691406 48 C 81.6875 43.070312 82.121094 33.929688 81.636719 28.003906 L 81.25 23.253906 L 78 22.636719 C 73.671875 21.8125 62.523438 21.445312 58.625 21.996094 M 69.390625 25.996094 C 66.992188 26.808594 63.28125 28.355469 61.140625 29.433594 C 54.992188 32.527344 44 40.785156 44 42.308594 C 44 43.65625 45.617188 42.960938 48.839844 40.230469 C 56.171875 34.011719 64.027344 29.640625 72.011719 27.335938 C 74.84375 26.519531 76.304688 25.84375 76.410156 25.304688 C 76.65625 24.078125 74.40625 24.296875 69.390625 25.996094 M 59.726562 39.203125 C 57.691406 40.089844 55.613281 42.636719 55.222656 44.726562 C 54.082031 50.800781 60.167969 54.570312 66.390625 51.640625 C 68.5625 50.621094 70.695312 47.035156 70.273438 45.113281 C 69.726562 42.613281 68.050781 40.472656 65.863281 39.480469 C 63.390625 38.359375 61.828125 38.289062 59.726562 39.203125 M 59.675781 41.464844 C 56.597656 43.339844 56.359375 48.589844 59.289062 49.925781 C 62.320312 51.308594 66.703125 49.734375 67.699219 46.90625 C 68.65625 44.1875 65.664062 40.503906 62.5 40.503906 C 61.8125 40.503906 60.542969 40.933594 59.675781 41.464844 M 33.367188 44.785156 C 26.269531 48.480469 24.949219 59.1875 31.09375 63.253906 C 36.761719 67.003906 44.390625 65.511719 48.742188 59.804688 C 52.308594 55.128906 49.839844 47.449219 43.839844 44.542969 C 40.777344 43.058594 36.492188 43.160156 33.367188 44.785156 M 59.402344 44.761719 C 58.960938 45.738281 58.96875 46.167969 59.445312 46.636719 C 59.9375 47.121094 60.21875 47.046875 60.785156 46.28125 C 61.175781 45.746094 61.5 44.902344 61.5 44.40625 C 61.5 43.0625 60.066406 43.308594 59.402344 44.761719 M 34.691406 46.457031 C 30.820312 48.214844 28.609375 52.792969 29.570312 57.066406 C 30.253906 60.101562 30.804688 60.878906 33.140625 62.078125 C 37.15625 64.136719 42.152344 63.332031 45.667969 60.066406 C 48.511719 57.429688 49.117188 54.945312 47.726562 51.617188 C 45.539062 46.386719 39.828125 44.125 34.691406 46.457031 M 33.144531 49.898438 C 32.445312 50.34375 31 53.601562 31 54.734375 C 31 55.167969 31.433594 55.5 32 55.5 C 32.550781 55.5 33 55.210938 33 54.855469 C 33 54.5 33.40625 53.414062 33.902344 52.441406 C 35.097656 50.097656 34.734375 48.890625 33.144531 49.898438 "/>
</g>
</svg>
