<?xml version="1.0" encoding="UTF-8"?>
<svg xmlns="http://www.w3.org/2000/svg" xmlns:xlink="http://www.w3.org/1999/xlink" width="100px" height="100px" viewBox="0 0 100 100" version="1.1">
<g id="surface1">
<path style=" stroke:none;fill-rule:evenodd;fill:rgb(0%,0%,0%);fill-opacity:1;" d="M 59.894531 23.605469 L 47.210938 44.210938 L 27.230469 59.789062 C 8.957031 74.039062 7.128906 75.601562 5.828125 78.058594 C 4.550781 80.476562 4.425781 81.117188 4.628906 84.375 C 4.789062 86.984375 4.664062 88.15625 4.195312 88.546875 C 2.507812 89.945312 2.832031 91.050781 5.808594 94.058594 C 7.410156 95.675781 8.972656 97 9.28125 97 C 9.589844 97 10.234375 96.570312 10.710938 96.042969 C 11.46875 95.207031 12.054688 95.117188 15.265625 95.363281 C 18.550781 95.609375 19.242188 95.5 21.632812 94.328125 C 24.03125 93.15625 25.867188 91.171875 39.28125 75.242188 C 50.117188 62.375 54.5 56.808594 55.152344 55.078125 L 56.058594 52.6875 L 75.402344 43.792969 C 86.042969 38.902344 95.257812 34.578125 95.875 34.1875 C 96.832031 33.582031 97 33.039062 97 30.550781 C 97 28.550781 96.761719 27.425781 96.246094 26.996094 C 95.527344 26.398438 91.683594 27.59375 71.25 34.78125 C 70.699219 34.972656 76.269531 29.082031 83.625 21.6875 C 90.980469 14.292969 97 8.011719 97 7.726562 C 97 7.054688 92.871094 3 92.191406 3 C 91.902344 3 87.851562 6.429688 83.183594 10.625 C 78.515625 14.820312 74.277344 18.585938 73.765625 19 C 72.625 19.921875 72.488281 20.1875 77.683594 11.300781 C 82.359375 3.304688 82.316406 3 76.523438 3 L 72.582031 3 L 59.894531 23.605469 M 62.125 26.125 C 55.503906 36.917969 49.558594 46.234375 48.917969 46.828125 C 48.273438 47.421875 39.3125 54.464844 29 62.484375 C 18.6875 70.5 9.757812 77.75 9.160156 78.59375 C 7.738281 80.582031 7.292969 83.375 7.984375 85.933594 C 8.445312 87.648438 8.398438 88.191406 7.699219 89.261719 C 6.898438 90.484375 6.910156 90.589844 8.015625 91.769531 C 9.097656 92.917969 9.234375 92.945312 10.078125 92.179688 C 10.875 91.460938 11.335938 91.433594 13.890625 91.976562 C 18.109375 92.871094 20.425781 92.128906 23.527344 88.875 C 24.875 87.460938 25.910156 86.246094 25.835938 86.167969 C 25.757812 86.089844 24.695312 86.527344 23.472656 87.140625 C 21.632812 88.058594 20.410156 88.25 16.398438 88.25 C 10.898438 88.25 9.964844 87.824219 10.90625 85.753906 C 11.402344 84.664062 11.691406 84.535156 12.871094 84.863281 C 15.433594 85.582031 20.148438 85.199219 22.257812 84.105469 C 23.351562 83.535156 26.6875 81.296875 29.664062 79.128906 C 34.464844 75.632812 36.003906 74.085938 43.242188 65.492188 L 51.40625 55.796875 L 53.761719 49.367188 C 56.726562 41.261719 58.917969 36.992188 68.65625 20.347656 C 72.972656 12.972656 76.5 6.84375 76.5 6.722656 C 76.5 6.597656 75.976562 6.5 75.335938 6.5 C 74.339844 6.5 72.417969 9.355469 62.125 26.125 M 79.328125 18.40625 C 68.445312 28.34375 66.636719 30.210938 64.726562 33.480469 C 63.527344 35.535156 62.65625 37.324219 62.792969 37.460938 C 63.167969 37.835938 92.980469 7.871094 92.691406 7.40625 C 92.554688 7.183594 92.285156 7.011719 92.09375 7.03125 C 91.90625 7.046875 86.160156 12.164062 79.328125 18.40625 M 84.75 33.445312 C 80.351562 35.011719 72.996094 37.597656 68.410156 39.191406 C 63.824219 40.785156 59.96875 42.351562 59.839844 42.671875 C 59.710938 42.988281 59.140625 44.421875 58.570312 45.851562 L 57.535156 48.453125 L 62.140625 46.316406 C 64.675781 45.144531 72.769531 41.40625 80.125 38.015625 C 87.953125 34.40625 93.5 31.566406 93.5 31.171875 C 93.5 30.289062 93.921875 30.179688 84.75 33.445312 "/>
</g>
</svg>
