<?xml version="1.0" encoding="UTF-8"?>
<svg xmlns="http://www.w3.org/2000/svg" xmlns:xlink="http://www.w3.org/1999/xlink" width="24px" height="24px" viewBox="0 0 24 24" version="1.1">
<g id="surface1">
<path style=" stroke:none;fill-rule:evenodd;fill:rgb(0%,0%,0%);fill-opacity:1;" d="M 7.078125 0.136719 C 5.183594 0.863281 4.574219 3.226562 5.894531 4.730469 C 6.160156 5.03125 6.980469 5.769531 7.71875 6.371094 C 9.574219 7.882812 10.050781 8.464844 10.234375 9.425781 C 10.296875 9.753906 10.253906 9.820312 9.777344 10.121094 C 8.367188 11.015625 7.546875 12.851562 7.8125 14.527344 C 7.910156 15.136719 9.925781 20.957031 10.277344 21.628906 C 10.636719 22.328125 11.613281 23.234375 12.394531 23.59375 C 13.050781 23.898438 13.277344 23.941406 14.28125 23.941406 C 15.261719 23.941406 15.511719 23.894531 16.101562 23.621094 C 17.011719 23.195312 17.757812 22.480469 18.253906 21.570312 C 18.640625 20.851562 18.660156 20.765625 18.660156 19.558594 L 18.660156 18.300781 L 17.539062 15.179688 C 16.921875 13.464844 16.292969 11.839844 16.136719 11.574219 C 15.746094 10.894531 14.867188 10.117188 14.0625 9.738281 C 13.460938 9.457031 13.234375 9.421875 12.148438 9.421875 L 10.921875 9.421875 L 10.84375 9.023438 C 10.710938 8.300781 9.917969 7.304688 8.679688 6.296875 C 6.265625 4.332031 5.878906 3.859375 5.878906 2.855469 C 5.878906 2.007812 6.300781 1.320312 7.042969 0.960938 C 7.699219 0.644531 7.773438 0.527344 7.53125 0.214844 C 7.414062 0.0664062 7.3125 0.046875 7.078125 0.136719 M 10.851562 10.320312 C 9.960938 10.671875 9.308594 11.289062 8.859375 12.203125 C 8.53125 12.871094 8.46875 13.132812 8.46875 13.847656 C 8.464844 14.773438 8.6875 15.601562 8.933594 15.601562 C 9.296875 15.601562 12.0625 14.535156 12.089844 14.382812 C 12.109375 14.292969 11.96875 14.132812 11.777344 14.023438 C 11.542969 13.890625 11.371094 13.644531 11.238281 13.253906 C 10.992188 12.53125 10.992188 12.375 11.238281 12.097656 C 11.347656 11.980469 11.378906 11.878906 11.308594 11.878906 C 11.238281 11.878906 11.097656 11.625 10.992188 11.316406 C 10.839844 10.871094 10.832031 10.734375 10.949219 10.660156 C 11.300781 10.4375 11.480469 10.566406 11.675781 11.191406 C 11.804688 11.597656 11.964844 11.863281 12.136719 11.941406 C 12.296875 12.011719 12.492188 12.3125 12.640625 12.703125 C 12.84375 13.242188 12.859375 13.40625 12.742188 13.71875 C 12.664062 13.921875 12.644531 14.132812 12.695312 14.183594 C 12.773438 14.261719 15.632812 13.34375 15.972656 13.132812 C 16.136719 13.03125 15.578125 11.890625 15.085938 11.332031 C 14.378906 10.523438 13.59375 10.167969 12.421875 10.117188 C 11.671875 10.085938 11.328125 10.132812 10.851562 10.320312 M 12.699219 15.039062 C 10.804688 15.714844 9.21875 16.300781 9.175781 16.34375 C 9.089844 16.433594 10.539062 20.613281 10.910156 21.339844 C 11.238281 21.980469 12.246094 22.859375 12.921875 23.089844 C 13.78125 23.382812 15.050781 23.339844 15.796875 22.992188 C 17.070312 22.398438 17.785156 21.433594 18.035156 19.972656 C 18.167969 19.210938 18.160156 19.167969 17.613281 17.546875 C 16.773438 15.050781 16.304688 13.800781 16.21875 13.804688 C 16.175781 13.808594 14.589844 14.363281 12.699219 15.039062 "/>
</g>
</svg>
