<?xml version="1.0" encoding="UTF-8"?>
<svg xmlns="http://www.w3.org/2000/svg" xmlns:xlink="http://www.w3.org/1999/xlink" width="24px" height="24px" viewBox="0 0 24 24" version="1.1">
<g id="surface1">
<path style=" stroke:none;fill-rule:evenodd;fill:rgb(0%,0%,0%);fill-opacity:1;" d="M 3.238281 5.097656 C 3.238281 5.199219 3.5625 5.714844 3.960938 6.25 C 4.925781 7.550781 4.914062 7.941406 3.90625 8.636719 C 3.269531 9.074219 3.179688 9.308594 3.378906 9.976562 C 3.507812 10.40625 3.503906 10.492188 3.355469 10.535156 C 3.257812 10.566406 2.921875 10.859375 2.609375 11.191406 C 2.125 11.699219 2.011719 11.765625 1.851562 11.632812 C 1.699219 11.507812 1.632812 11.515625 1.476562 11.671875 C 1.246094 11.902344 1.351562 12.238281 1.675781 12.324219 C 1.808594 12.359375 2.046875 12.625 2.210938 12.914062 C 2.457031 13.359375 2.484375 13.503906 2.382812 13.796875 C 2.289062 14.0625 2.308594 14.3125 2.449219 14.804688 C 2.84375 16.152344 2.640625 16.726562 1.648438 17.066406 C 1.40625 17.152344 1.222656 17.273438 1.234375 17.339844 C 1.273438 17.523438 1.917969 17.417969 2.339844 17.160156 C 3.011719 16.746094 3.167969 15.976562 2.8125 14.820312 C 2.613281 14.164062 2.667969 13.679688 2.933594 13.679688 C 3.179688 13.679688 3.480469 13.203125 3.480469 12.8125 C 3.480469 12.625 3.375 12.386719 3.238281 12.273438 C 2.917969 11.996094 2.929688 11.957031 3.421875 11.722656 C 4.066406 11.417969 4.167969 11.066406 3.859375 10.253906 C 3.714844 9.882812 3.601562 9.507812 3.601562 9.425781 C 3.601562 9.339844 3.816406 9.128906 4.085938 8.949219 C 4.640625 8.585938 5.039062 8 5.039062 7.554688 C 5.039062 7.257812 4.679688 6.632812 3.847656 5.488281 C 3.421875 4.902344 3.238281 4.785156 3.238281 5.097656 M 2.539062 6.535156 C 2.613281 6.699219 2.722656 6.804688 2.777344 6.769531 C 2.902344 6.691406 2.679688 6.238281 2.519531 6.238281 C 2.453125 6.238281 2.460938 6.367188 2.539062 6.535156 M 2.972656 6.429688 C 2.867188 6.53125 3.085938 6.960938 3.246094 6.960938 C 3.402344 6.960938 3.390625 6.804688 3.207031 6.554688 C 3.121094 6.441406 3.015625 6.382812 2.972656 6.429688 M 21.429688 6.972656 C 21.3125 7.175781 20.679688 7.878906 20.027344 8.535156 C 19.011719 9.554688 18.839844 9.78125 18.839844 10.113281 C 18.839844 10.625 19.089844 10.964844 19.746094 11.347656 C 20.355469 11.707031 20.398438 11.890625 20.023438 12.605469 C 19.699219 13.226562 19.839844 13.601562 20.511719 13.902344 C 20.945312 14.097656 20.964844 14.125 20.753906 14.257812 C 20.421875 14.464844 20.335938 14.945312 20.570312 15.300781 C 20.675781 15.464844 20.84375 15.601562 20.941406 15.601562 C 21.21875 15.601562 21.28125 16.144531 21.070312 16.757812 C 20.777344 17.621094 20.820312 17.964844 21.277344 18.421875 C 21.667969 18.8125 22.570312 19.164062 22.804688 19.015625 C 23.003906 18.894531 22.832031 18.761719 22.257812 18.601562 C 21.664062 18.433594 21.238281 18.007812 21.238281 17.578125 C 21.238281 17.429688 21.324219 17.074219 21.425781 16.785156 C 21.539062 16.460938 21.582031 16.09375 21.535156 15.820312 C 21.476562 15.472656 21.527344 15.28125 21.773438 14.890625 C 21.964844 14.585938 22.171875 14.398438 22.320312 14.398438 C 22.496094 14.398438 22.558594 14.320312 22.558594 14.105469 C 22.558594 13.75 22.390625 13.628906 22.113281 13.785156 C 21.949219 13.875 21.789062 13.796875 21.355469 13.402344 C 21.054688 13.125 20.707031 12.84375 20.585938 12.773438 C 20.402344 12.671875 20.386719 12.605469 20.503906 12.394531 C 20.792969 11.847656 20.679688 11.542969 20.039062 11.148438 C 18.867188 10.425781 18.90625 10.15625 20.390625 8.660156 C 21.53125 7.515625 22.039062 6.835938 21.875 6.675781 C 21.738281 6.539062 21.65625 6.59375 21.429688 6.972656 M 6.546875 7.347656 C 6.40625 7.550781 6.359375 7.933594 6.359375 8.953125 L 6.359375 10.292969 L 5.910156 10.699219 C 5.660156 10.925781 5.117188 11.316406 4.699219 11.570312 C 4.203125 11.867188 3.980469 12.070312 4.058594 12.144531 C 4.121094 12.210938 4.585938 12.308594 5.085938 12.367188 C 6.230469 12.492188 6.441406 12.609375 6.597656 13.199219 C 6.789062 13.898438 7.042969 13.941406 10.839844 13.898438 C 13.863281 13.863281 14.070312 13.847656 14.230469 13.628906 C 14.367188 13.441406 14.398438 12.800781 14.398438 10.4375 C 14.398438 7.722656 14.382812 7.460938 14.179688 7.277344 C 13.988281 7.101562 13.542969 7.078125 10.347656 7.078125 C 6.75 7.078125 6.734375 7.082031 6.546875 7.347656 M 6.800781 7.519531 C 6.757812 7.5625 6.71875 8.210938 6.71875 8.957031 C 6.71875 10.308594 6.71875 10.3125 6.335938 10.75 C 6.125 10.988281 5.691406 11.359375 5.375 11.574219 L 4.792969 11.964844 L 5.410156 12.039062 C 6.207031 12.132812 6.738281 12.449219 6.859375 12.902344 C 7.03125 13.546875 7.097656 13.558594 10.554688 13.558594 C 12.304688 13.558594 13.808594 13.511719 13.890625 13.460938 C 14.007812 13.386719 14.035156 12.695312 14.011719 10.429688 L 13.980469 7.5 L 10.433594 7.46875 C 8.480469 7.449219 6.847656 7.472656 6.800781 7.519531 M 2.046875 7.789062 C 1.863281 8.132812 1.890625 8.328125 2.167969 8.683594 C 2.441406 9.03125 3 9.125 3 8.820312 C 3 8.722656 2.898438 8.640625 2.773438 8.640625 C 2.453125 8.640625 2.242188 8.332031 2.328125 7.988281 C 2.417969 7.621094 2.214844 7.472656 2.046875 7.789062 M 3.3125 7.808594 C 3.082031 7.992188 3.019531 8.109375 3.109375 8.195312 C 3.195312 8.285156 3.300781 8.261719 3.457031 8.121094 C 3.757812 7.851562 3.875 7.867188 3.695312 8.15625 C 3.492188 8.484375 3.667969 8.605469 3.964844 8.335938 C 4.269531 8.058594 4.230469 7.632812 3.894531 7.585938 C 3.757812 7.566406 3.496094 7.667969 3.3125 7.808594 M 21.191406 9.195312 C 21.089844 9.460938 21.222656 9.582031 21.363281 9.355469 C 21.507812 9.132812 21.507812 9 21.371094 9 C 21.3125 9 21.230469 9.089844 21.191406 9.195312 M 20.710938 9.316406 C 20.609375 9.578125 20.742188 9.699219 20.882812 9.476562 C 21.027344 9.253906 21.03125 9.121094 20.894531 9.121094 C 20.832031 9.121094 20.75 9.207031 20.710938 9.316406 M 14.964844 9.796875 C 14.761719 10 15.113281 10.078125 16.195312 10.078125 C 17.160156 10.078125 17.386719 10.113281 17.445312 10.269531 C 17.488281 10.375 17.519531 11.046875 17.519531 11.765625 L 17.519531 13.070312 L 17.945312 13.480469 C 18.179688 13.710938 18.53125 13.960938 18.726562 14.042969 C 18.921875 14.125 19.078125 14.222656 19.074219 14.265625 C 19.070312 14.304688 18.785156 14.476562 18.445312 14.644531 C 17.851562 14.933594 17.710938 15.105469 17.414062 15.871094 L 17.285156 16.199219 L 13.8125 16.199219 C 11.902344 16.199219 10.253906 16.167969 10.148438 16.128906 C 10.003906 16.070312 9.960938 15.875 9.960938 15.289062 C 9.960938 14.683594 9.921875 14.519531 9.78125 14.519531 C 9.636719 14.519531 9.601562 14.6875 9.601562 15.300781 C 9.601562 16.613281 9.429688 16.558594 13.652344 16.558594 C 17.652344 16.558594 17.613281 16.566406 17.863281 15.726562 C 18.019531 15.203125 18.398438 14.9375 19.410156 14.632812 C 19.691406 14.550781 19.921875 14.417969 19.921875 14.34375 C 19.921875 14.265625 19.597656 14.050781 19.203125 13.859375 C 17.988281 13.28125 17.90625 13.136719 17.859375 11.507812 C 17.832031 10.554688 17.769531 10.054688 17.65625 9.917969 C 17.523438 9.757812 17.257812 9.71875 16.265625 9.71875 C 15.589844 9.71875 15.003906 9.753906 14.964844 9.796875 M 9.722656 10.070312 C 9.566406 10.367188 9.558594 12.839844 9.714844 12.839844 C 9.78125 12.839844 9.847656 12.257812 9.867188 11.488281 L 9.898438 10.140625 L 11.578125 10.105469 C 13.921875 10.058594 13.996094 9.839844 11.667969 9.839844 C 9.992188 9.839844 9.839844 9.859375 9.722656 10.070312 M 19.824219 10.222656 C 19.601562 10.445312 19.652344 10.777344 19.929688 10.925781 C 20.253906 11.097656 20.371094 10.976562 20.179688 10.667969 C 20.035156 10.4375 20.042969 10.433594 20.378906 10.609375 C 20.707031 10.777344 20.878906 10.757812 20.878906 10.554688 C 20.878906 10.480469 20.152344 10.078125 20.015625 10.078125 C 19.988281 10.078125 19.902344 10.144531 19.824219 10.222656 M 21.648438 10.492188 C 21.730469 10.828125 21.464844 11.160156 21.113281 11.160156 C 20.835938 11.160156 20.804688 11.34375 21.0625 11.445312 C 21.554688 11.632812 22.203125 10.898438 21.957031 10.433594 C 21.777344 10.097656 21.558594 10.140625 21.648438 10.492188 M 3.105469 11.140625 C 2.632812 11.558594 2.699219 11.742188 3.222656 11.46875 C 3.660156 11.242188 3.789062 11.0625 3.628906 10.898438 C 3.546875 10.820312 3.371094 10.898438 3.105469 11.140625 M 2.28125 12.164062 C 2.28125 12.203125 2.398438 12.480469 2.542969 12.777344 C 2.835938 13.378906 3.058594 13.429688 3.058594 12.898438 C 3.058594 12.636719 2.964844 12.5 2.671875 12.324219 C 2.457031 12.199219 2.28125 12.128906 2.28125 12.164062 M 20.28125 13.257812 C 20.28125 13.421875 21.097656 13.863281 21.203125 13.757812 C 21.265625 13.691406 20.53125 13.078125 20.390625 13.078125 C 20.328125 13.078125 20.28125 13.160156 20.28125 13.257812 M 21.148438 14.457031 C 20.761719 14.628906 20.617188 15.019531 20.886719 15.183594 C 21.046875 15.28125 21.242188 15.113281 21.515625 14.648438 C 21.757812 14.238281 21.714844 14.214844 21.148438 14.457031 "/>
</g>
</svg>
