<?xml version="1.0" encoding="UTF-8"?>
<svg xmlns="http://www.w3.org/2000/svg" xmlns:xlink="http://www.w3.org/1999/xlink" width="100px" height="100px" viewBox="0 0 100 100" version="1.1">
<g id="surface1">
<path style=" stroke:none;fill-rule:evenodd;fill:rgb(0%,0%,0%);fill-opacity:1;" d="M 90.003906 0.585938 C 86.691406 1.542969 82.457031 5.480469 81.03125 8.929688 L 80.425781 10.386719 L 78.183594 9.132812 C 73.785156 6.675781 69.898438 6.699219 67.550781 9.195312 C 66.160156 10.675781 65.683594 13.777344 66.476562 16.175781 C 67.320312 18.730469 71.089844 22.707031 74.085938 24.199219 L 76.652344 25.476562 L 74.449219 27.5 C 73.238281 28.609375 71.289062 29.988281 70.117188 30.558594 C 68.128906 31.527344 67 32.75 67 33.929688 C 67 34.898438 68.589844 36 69.976562 36 C 71.585938 36 76.402344 32.949219 78.917969 30.34375 L 80.585938 28.613281 L 82.601562 30.804688 C 85.113281 33.527344 87.070312 34.753906 90.136719 35.523438 C 92.152344 36.03125 92.859375 36 94.65625 35.3125 C 99.914062 33.304688 99.773438 26.617188 94.371094 21.65625 L 92.09375 19.566406 L 93.976562 17.585938 C 101.558594 9.617188 98.847656 -1.976562 90.003906 0.585938 M 34.21875 2.195312 C 31.261719 4.1875 27.40625 8.28125 24.828125 12.164062 C 22.816406 15.199219 19.5 21.851562 19.5 22.859375 C 19.5 24.175781 18.71875 23.421875 17.828125 21.25 C 15.539062 15.683594 9.175781 7.859375 6.507812 7.328125 C 4.675781 6.960938 2.132812 7.820312 1.488281 9.019531 C 0.617188 10.652344 0.953125 11.992188 3.933594 18.671875 C 5.546875 22.289062 7.226562 26.375 7.667969 27.75 C 8.917969 31.628906 9.871094 38.117188 10.257812 45.378906 L 10.613281 52.011719 L 8.46875 54.878906 C 7.292969 56.457031 5.691406 58.488281 4.914062 59.390625 C 3.320312 61.242188 3.128906 62.558594 4.285156 63.714844 C 5.917969 65.347656 7.265625 64.691406 10.488281 60.683594 C 12.175781 58.585938 14.6875 55.195312 16.0625 53.15625 C 17.878906 50.464844 19.34375 48.949219 21.378906 47.644531 C 27.46875 43.75 37.160156 40.039062 47.105469 37.792969 C 50.050781 37.128906 52.695312 36.4375 52.984375 36.261719 C 53.273438 36.082031 53.863281 35.25 54.296875 34.40625 C 55.703125 31.6875 54.453125 28.757812 51.15625 27.0625 C 49.667969 26.296875 40.472656 26.371094 36.609375 27.179688 C 34.882812 27.539062 33.535156 27.703125 33.613281 27.542969 C 33.691406 27.382812 34.8125 25.113281 36.101562 22.5 C 37.394531 19.886719 38.910156 16.066406 39.476562 14.011719 C 40.585938 9.960938 40.863281 3.109375 39.984375 1.46875 C 39.199219 0.0078125 37.070312 0.277344 34.21875 2.195312 M 89.644531 6.484375 C 86.878906 8.167969 84.089844 13.414062 84.785156 15.613281 C 85.695312 18.480469 91.699219 13.894531 92.96875 9.363281 C 94.042969 5.519531 92.878906 4.511719 89.644531 6.484375 M 32.105469 11.015625 C 27.402344 16.832031 23.351562 25.144531 22.671875 30.386719 L 22.363281 32.75 L 23.9375 31.273438 C 26.183594 29.171875 30.320312 23.035156 32.023438 19.28125 C 33.273438 16.519531 35.5 9.546875 35.5 8.386719 C 35.5 7.363281 34.324219 8.273438 32.105469 11.015625 M 71.234375 13.875 C 71.773438 16.03125 73.773438 18.300781 76.144531 19.449219 C 79.015625 20.839844 80 20.804688 80 19.324219 C 80 16.519531 75.503906 12.527344 72.320312 12.507812 C 71.011719 12.5 70.921875 12.613281 71.234375 13.875 M 9.304688 17.875 C 12.410156 25.007812 13.59375 29.042969 14.921875 37 C 15.367188 39.660156 15.382812 39.59375 15.441406 34.902344 C 15.511719 28.988281 14.058594 23.792969 11.015625 19.085938 C 8.75 15.582031 8.105469 15.125 9.304688 17.875 M 84.734375 23.027344 C 84.253906 23.804688 84.832031 25.648438 86.035156 27.183594 C 88.171875 29.898438 93.5 31.605469 93.5 29.574219 C 93.5 27.984375 90.691406 24.679688 88.386719 23.566406 C 85.910156 22.367188 85.203125 22.265625 84.734375 23.027344 M 37.75 32.238281 C 31.160156 33.457031 26.214844 35.894531 22.5 39.761719 L 20.25 42.101562 L 23.75 40.363281 C 28.816406 37.847656 36.152344 35.199219 42.855469 33.472656 C 46.070312 32.644531 48.804688 31.859375 48.933594 31.734375 C 49.421875 31.242188 41.089844 31.621094 37.75 32.238281 M 83.261719 38.25 C 82.84375 38.9375 82.125 40.117188 81.664062 40.875 C 79.625 44.234375 76.84375 46.960938 74.714844 47.683594 L 72.539062 48.425781 L 74.355469 45.6875 C 75.902344 43.359375 76.105469 42.746094 75.703125 41.597656 C 75.347656 40.582031 74.847656 40.210938 73.667969 40.097656 C 72.257812 39.960938 71.894531 40.242188 69.988281 42.960938 C 67.75 46.152344 67 46.394531 67 43.9375 C 67 41.65625 66.171875 40.5 64.542969 40.5 C 62.351562 40.5 61.882812 41.496094 62.015625 45.863281 C 62.203125 52.046875 62.246094 51.910156 59.875 52.855469 C 58.707031 53.320312 55.300781 54.902344 52.308594 56.367188 C 49.316406 57.835938 46.769531 58.9375 46.648438 58.816406 C 46.449219 58.613281 49.21875 55.167969 54.09375 49.554688 C 56.867188 46.359375 56.578125 43.5 53.484375 43.5 C 52.496094 43.5 51.761719 44.066406 50.519531 45.796875 L 48.871094 48.089844 L 48.121094 46.539062 C 47.261719 44.765625 45.597656 44.144531 43.996094 45 C 43.085938 45.488281 42.953125 45.878906 43.199219 47.292969 C 43.363281 48.234375 43.636719 49.769531 43.800781 50.707031 C 44.046875 52.105469 43.695312 53.164062 41.859375 56.582031 C 40.628906 58.875 39.480469 61.347656 39.3125 62.074219 C 39.105469 62.96875 38.230469 63.851562 36.628906 64.785156 C 35.320312 65.542969 33.714844 66.511719 33.058594 66.933594 C 31.902344 67.679688 31.878906 67.664062 32.234375 66.476562 C 33.140625 63.410156 35.214844 59.617188 37.988281 55.9375 C 41.089844 51.816406 41.601562 50.175781 40.214844 48.785156 C 38.648438 47.21875 37.285156 47.785156 35.484375 50.742188 L 34.273438 52.734375 L 33.894531 50.492188 C 33.355469 47.339844 31.105469 45.964844 29.351562 47.722656 C 28.773438 48.296875 28.679688 49.59375 28.882812 54.140625 C 29.097656 59.097656 28.996094 60.203125 28.078125 62.652344 C 27.5 64.199219 26.804688 66.847656 26.53125 68.539062 C 26.054688 71.492188 25.589844 72.234375 23.398438 73.511719 C 22.609375 73.972656 22.601562 73.882812 23.265625 72.292969 C 23.660156 71.347656 24.128906 69.328125 24.308594 67.800781 C 24.71875 64.320312 23.753906 62.5 21.507812 62.5 C 19.710938 62.5 19.128906 63.464844 19.078125 66.539062 C 19.058594 67.800781 18.789062 69.488281 18.480469 70.289062 L 17.925781 71.75 L 16.6875 69.152344 C 15.277344 66.191406 14.039062 65.53125 12.175781 66.753906 C 10.761719 67.679688 10.777344 67.960938 12.453125 72.5 C 13.039062 74.085938 13.476562 76.519531 13.488281 78.25 L 13.507812 81.25 L 9.253906 85.253906 C 6.914062 87.453125 5 89.648438 5 90.128906 C 5 91.210938 6.730469 93 7.78125 93 C 8.210938 93 9.75 91.875 11.203125 90.5 C 12.65625 89.125 14.050781 88.007812 14.296875 88.015625 C 15.410156 88.054688 17.402344 90.5625 19.15625 94.136719 C 21.328125 98.558594 22.882812 99.941406 24.726562 99.101562 C 26.480469 98.300781 26.808594 96.664062 25.550781 94.964844 C 24.972656 94.179688 24.5 93.460938 24.5 93.367188 C 24.5 93.273438 26.019531 93.199219 27.875 93.207031 C 32.160156 93.222656 34.5 92.125 34.5 90.085938 C 34.5 87.84375 33.730469 87.488281 29.28125 87.691406 C 27.0625 87.789062 26.3125 87.773438 27.613281 87.660156 C 30.914062 87.363281 32.523438 85.09375 30.714844 83.285156 C 29.796875 82.367188 25.015625 82.234375 21.558594 83.03125 C 20.355469 83.308594 19.304688 83.46875 19.222656 83.390625 C 19.082031 83.25 26.996094 77.113281 28.296875 76.359375 C 28.796875 76.066406 29.636719 77.285156 31.5 81 C 34.332031 86.640625 35.722656 87.859375 37.496094 86.253906 C 38.769531 85.101562 38.761719 83.972656 37.464844 81.429688 C 36.273438 79.097656 36.375 78.789062 38.121094 79.449219 C 38.816406 79.714844 41.132812 80.175781 43.273438 80.472656 C 45.410156 80.769531 47.449219 81.253906 47.804688 81.542969 C 48.867188 82.425781 50.667969 81.839844 51.484375 80.347656 C 52.21875 79.003906 52.191406 78.890625 50.890625 77.757812 C 50.054688 77.03125 48.039062 76.234375 45.640625 75.691406 C 41.914062 74.84375 41.828125 74.792969 43.597656 74.484375 C 44.617188 74.308594 45.796875 73.875 46.222656 73.523438 C 47.417969 72.53125 47.175781 70.636719 45.734375 69.695312 C 44.570312 68.929688 44.214844 68.925781 41.359375 69.640625 C 39.648438 70.066406 37.800781 70.566406 37.25 70.75 C 36.699219 70.933594 38.140625 69.953125 40.449219 68.570312 L 44.648438 66.054688 L 46.023438 67.402344 C 46.777344 68.144531 48.09375 69.378906 48.941406 70.148438 C 50.007812 71.117188 50.808594 72.617188 51.535156 75.003906 C 52.625 78.59375 53.472656 79.394531 55.5 78.75 C 56.675781 78.378906 57.238281 76.5625 56.820312 74.480469 C 56.464844 72.691406 57.007812 72.601562 59.75 74 C 62.179688 75.238281 63.113281 75.257812 64.171875 74.085938 C 65.363281 72.769531 65.199219 71.753906 63.566406 70.382812 C 62.160156 69.199219 62.15625 69.171875 63.191406 68.714844 C 63.886719 68.410156 64.304688 67.703125 64.402344 66.65625 C 64.644531 64.167969 63.421875 63.800781 56.171875 64.167969 C 52.496094 64.351562 49.925781 64.289062 49.753906 64.003906 C 49.480469 63.5625 56.84375 59.570312 59.375 58.78125 C 60.285156 58.5 60.953125 58.890625 62.882812 60.839844 C 65.546875 63.539062 70.0625 66.019531 71.582031 65.625 C 72.765625 65.3125 73.675781 63.226562 73.089844 62.175781 C 72.859375 61.769531 72.015625 61 71.210938 60.46875 C 70.40625 59.941406 69.992188 59.503906 70.285156 59.503906 C 71.566406 59.496094 75.472656 61.140625 76.277344 62.03125 C 77.566406 63.457031 79.882812 63.304688 80.59375 61.746094 C 81.675781 59.363281 79.195312 56.863281 73.972656 55.070312 L 71.25 54.136719 L 74.664062 53.105469 C 77.847656 52.144531 78.265625 52.125 80.914062 52.8125 C 82.472656 53.21875 85.324219 54.410156 87.25 55.464844 C 91.03125 57.527344 92.601562 57.539062 93.246094 55.507812 C 93.722656 54.015625 92.507812 52.40625 89.839844 50.992188 L 87.578125 49.792969 L 89.039062 48.902344 C 91.664062 47.304688 90.21875 43.460938 87.269531 44.199219 C 85.742188 44.585938 85.730469 44.5 87 42.128906 C 88.238281 39.820312 88.257812 38.886719 87.085938 37.828125 C 85.757812 36.625 84.140625 36.804688 83.261719 38.25 M 83.75 70.671875 C 73.90625 73.875 65.972656 81.921875 65.8125 88.859375 C 65.75 91.480469 65.71875 91.535156 63.953125 92.011719 C 62.96875 92.277344 60.941406 92.722656 59.453125 93.003906 C 55.671875 93.714844 54.351562 95.804688 56.476562 97.726562 C 57.347656 98.519531 57.800781 98.550781 60.785156 98.03125 C 62.621094 97.710938 65.234375 97.027344 66.589844 96.511719 C 68.800781 95.671875 69.234375 95.648438 70.761719 96.289062 C 75.203125 98.144531 82.570312 96.519531 88.910156 92.28125 C 99.027344 85.523438 101.871094 76.183594 95.308594 71.28125 C 93.601562 70.007812 86.875 69.652344 83.75 70.671875 M 85.25 75.703125 C 77.949219 78.019531 71 84.417969 71 88.820312 C 71 94.78125 83.695312 91.742188 90.527344 84.144531 C 92.847656 81.5625 94.097656 78.734375 93.660156 77.0625 C 93.144531 75.089844 89.1875 74.449219 85.25 75.703125 "/>
</g>
</svg>
