<?xml version="1.0" encoding="UTF-8"?>
<svg xmlns="http://www.w3.org/2000/svg" xmlns:xlink="http://www.w3.org/1999/xlink" width="100px" height="100px" viewBox="0 0 100 100" version="1.1">
<g id="surface1">
<path style=" stroke:none;fill-rule:evenodd;fill:rgb(0%,0%,0%);fill-opacity:1;" d="M 26.664062 0.320312 C 26.25 0.488281 26.367188 1.199219 27.066406 2.78125 C 27.921875 4.714844 27.980469 5.378906 27.523438 7.84375 C 27.234375 9.40625 27 14.472656 27 19.105469 C 27 27.402344 26.976562 27.570312 25.550781 30.398438 C 21.441406 38.539062 16.476562 51.75 14.238281 60.496094 C 12.773438 66.222656 11.367188 74.234375 11.621094 75.402344 C 11.722656 75.867188 11.980469 75.125 12.191406 73.75 C 13.691406 63.957031 19.210938 47.550781 25.558594 34.019531 L 28.085938 28.632812 L 31.117188 28.316406 C 32.78125 28.140625 35.183594 27.996094 36.449219 27.992188 C 38.980469 27.984375 39.660156 27.683594 40.144531 26.375 C 40.4375 25.582031 40.03125 25.5 35.734375 25.5 C 32.992188 25.5 31 25.296875 31 25.011719 C 31 24.089844 36.753906 18.644531 38.871094 17.566406 L 40.988281 16.488281 L 41.992188 17.492188 C 43.332031 18.832031 43.269531 19.84375 41.53125 24.941406 C 40.722656 27.3125 39.902344 30.710938 39.714844 32.5 C 39.445312 35.011719 38.707031 37.09375 36.464844 41.660156 C 30.285156 54.257812 29.683594 65.054688 34.585938 75.351562 C 35.882812 78.078125 37.347656 79.886719 41.996094 84.5 C 45.183594 87.664062 48.230469 91.09375 48.761719 92.125 C 49.292969 93.15625 49.84375 94 49.988281 94 C 50.132812 94 50.789062 92.984375 51.449219 91.746094 C 52.140625 90.441406 54.804688 87.488281 57.765625 84.746094 C 61.988281 80.835938 63.238281 79.328125 64.894531 76.128906 C 66 73.996094 67.183594 71.238281 67.519531 70 C 69.929688 61.136719 68.414062 51.234375 63 40.5 C 61.183594 36.902344 60.523438 34.960938 60.273438 32.5 C 60.089844 30.710938 59.277344 27.3125 58.46875 24.941406 C 56.753906 19.910156 56.683594 19 57.902344 17.496094 L 58.804688 16.378906 L 61.027344 17.511719 C 63.21875 18.632812 69 24.070312 69 25.011719 C 69 25.296875 67.007812 25.5 64.265625 25.5 C 59.96875 25.5 59.5625 25.582031 59.855469 26.375 C 60.339844 27.683594 61.019531 27.984375 63.550781 27.992188 C 64.816406 27.996094 67.21875 28.140625 68.882812 28.316406 L 71.914062 28.632812 L 74.636719 34.441406 C 80.179688 46.261719 85.269531 61.003906 87.285156 71.082031 C 88.269531 75.984375 88.699219 76.855469 88.234375 72.992188 C 87.605469 67.761719 85.402344 58.710938 83.003906 51.5 C 80.644531 44.402344 75.890625 32.878906 73.96875 29.597656 C 73.113281 28.132812 73 26.945312 73 19.3125 C 73 14.566406 72.769531 9.425781 72.484375 7.890625 C 72.058594 5.589844 72.113281 4.734375 72.800781 3.015625 C 73.382812 1.566406 73.476562 0.777344 73.109375 0.410156 C 72.304688 -0.394531 71.648438 0.300781 71.261719 2.371094 C 71.070312 3.402344 70.695312 4.511719 70.429688 4.828125 C 70.125 5.199219 70.15625 8.085938 70.515625 12.828125 C 70.824219 16.910156 71.003906 21.214844 70.914062 22.390625 L 70.75 24.53125 L 68.585938 21.75 C 66.148438 18.625 61.957031 15.253906 59.851562 14.726562 C 58.1875 14.3125 54.539062 15.574219 53.234375 17.019531 C 51.992188 18.390625 48.007812 18.390625 46.765625 17.019531 C 45.480469 15.597656 41.808594 14.3125 40.195312 14.71875 C 37.9375 15.285156 34.566406 17.925781 31.839844 21.265625 L 29.25 24.4375 L 29.089844 22.34375 C 29 21.191406 29.171875 16.902344 29.46875 12.804688 C 29.824219 7.894531 29.839844 5.160156 29.515625 4.765625 C 29.242188 4.441406 28.839844 3.304688 28.621094 2.246094 C 28.21875 0.324219 27.765625 -0.125 26.664062 0.320312 M 22.046875 45.460938 C 19.855469 51.136719 18.148438 57.757812 17.195312 64.25 C 16.679688 67.746094 16.046875 70.230469 15.449219 71.070312 C 14.632812 72.21875 14.605469 72.464844 15.246094 72.996094 C 15.855469 73.503906 16.070312 73.378906 16.480469 72.296875 C 16.757812 71.574219 17.410156 70.371094 17.933594 69.617188 C 18.582031 68.691406 19.074219 66.617188 19.464844 63.195312 C 20.117188 57.449219 21.441406 51.535156 23.003906 47.359375 L 24.070312 44.5 L 29.234375 44.5 C 33.589844 44.5 34.441406 44.371094 34.714844 43.667969 C 35.257812 42.246094 34.277344 41.90625 28.863281 41.628906 L 23.625 41.363281 L 22.046875 45.460938 M 67 41.941406 C 65.402344 42.222656 65.199219 42.488281 65.425781 44 C 65.46875 44.296875 67.621094 44.5 70.714844 44.5 L 75.929688 44.5 L 76.996094 47.359375 C 78.558594 51.535156 79.882812 57.449219 80.535156 63.195312 C 80.925781 66.617188 81.417969 68.691406 82.066406 69.617188 C 82.589844 70.371094 83.242188 71.574219 83.519531 72.296875 C 83.925781 73.367188 84.148438 73.5 84.738281 73.007812 C 85.363281 72.492188 85.332031 72.226562 84.515625 71.078125 C 83.902344 70.21875 83.292969 67.816406 82.785156 64.25 C 81.867188 57.828125 80.164062 51.191406 77.980469 45.527344 L 76.425781 41.5 L 72.589844 41.566406 C 70.476562 41.601562 67.960938 41.769531 67 41.941406 M 27.605469 54.261719 C 26.148438 54.921875 24.265625 55.953125 23.421875 56.554688 C 21.886719 57.648438 21.886719 57.652344 22.226562 61.199219 C 23.058594 69.796875 26.121094 81.851562 29.765625 90.894531 C 30.90625 93.726562 31.5 96.015625 31.5 97.597656 C 31.5 99.621094 31.648438 100 32.445312 100 C 33.285156 100 33.371094 99.660156 33.234375 96.875 C 33.125 94.632812 32.09375 90.789062 29.570312 83.25 C 26.226562 73.25 24 64.386719 24 61.0625 C 24 59.714844 24.449219 59.226562 27.75 57 C 29.8125 55.609375 31.5 54.140625 31.5 53.734375 C 31.5 52.738281 30.71875 52.84375 27.605469 54.261719 M 68.5 53.734375 C 68.5 54.140625 70.1875 55.609375 72.25 57 C 75.535156 59.214844 76 59.71875 76 61.042969 C 76 64.332031 73.753906 73.25 70.40625 83.25 C 67.839844 90.910156 66.851562 94.59375 66.75 96.875 C 66.628906 99.652344 66.71875 100 67.558594 100 C 68.351562 100 68.5 99.617188 68.5 97.597656 C 68.5 96.015625 69.09375 93.726562 70.234375 90.894531 C 73.878906 81.851562 76.941406 69.796875 77.773438 61.199219 C 78.113281 57.652344 78.113281 57.648438 76.582031 56.558594 C 74.976562 55.414062 69.820312 53 68.984375 53 C 68.71875 53 68.5 53.332031 68.5 53.734375 "/>
</g>
</svg>
