<?xml version="1.0" encoding="UTF-8"?>
<svg xmlns="http://www.w3.org/2000/svg" xmlns:xlink="http://www.w3.org/1999/xlink" width="100px" height="100px" viewBox="0 0 100 100" version="1.1">
<g id="surface1">
<path style=" stroke:none;fill-rule:evenodd;fill:rgb(0%,0%,0%);fill-opacity:1;" d="M 29.5 0.570312 C 21.597656 3.601562 19.054688 13.445312 24.5625 19.703125 C 25.667969 20.957031 29.085938 24.035156 32.160156 26.546875 C 39.886719 32.851562 41.886719 35.277344 42.644531 39.269531 C 42.90625 40.640625 42.722656 40.921875 40.742188 42.171875 C 34.863281 45.890625 31.445312 53.550781 32.550781 60.535156 C 32.949219 63.070312 41.359375 87.3125 42.816406 90.128906 C 44.320312 93.035156 48.390625 96.8125 51.640625 98.3125 C 54.375 99.578125 55.324219 99.75 59.5 99.75 C 63.597656 99.75 64.640625 99.566406 67.085938 98.421875 C 70.878906 96.640625 73.996094 93.671875 76.054688 89.875 C 77.675781 86.886719 77.75 86.519531 77.75 81.5 L 77.75 76.25 L 73.082031 63.25 C 70.511719 56.101562 67.886719 49.335938 67.242188 48.222656 C 65.605469 45.390625 61.941406 42.152344 58.585938 40.578125 C 56.089844 39.410156 55.136719 39.25 50.625 39.257812 L 45.5 39.261719 L 45.1875 37.59375 C 44.625 34.59375 41.320312 30.433594 36.167969 26.238281 C 26.113281 18.054688 24.5 16.074219 24.5 11.90625 C 24.5 8.371094 26.257812 5.503906 29.34375 4.007812 C 32.078125 2.683594 32.394531 2.195312 31.375 0.890625 C 30.894531 0.277344 30.460938 0.203125 29.5 0.570312 M 45.210938 43 C 41.503906 44.46875 38.792969 47.03125 36.914062 50.84375 C 35.546875 53.625 35.289062 54.714844 35.28125 57.699219 C 35.273438 61.550781 36.191406 65 37.226562 65 C 38.734375 65 50.261719 60.558594 50.382812 59.933594 C 50.453125 59.558594 49.867188 58.882812 49.074219 58.4375 C 48.097656 57.886719 47.375 56.855469 46.820312 55.222656 C 45.792969 52.214844 45.796875 51.554688 46.828125 50.414062 C 47.28125 49.910156 47.417969 49.5 47.125 49.5 C 46.832031 49.5 46.234375 48.445312 45.796875 47.15625 C 45.164062 45.304688 45.128906 44.726562 45.621094 44.414062 C 47.082031 43.488281 47.828125 44.03125 48.644531 46.625 C 49.183594 48.332031 49.855469 49.425781 50.566406 49.75 C 51.234375 50.054688 52.054688 51.296875 52.667969 52.929688 C 53.511719 55.175781 53.582031 55.863281 53.09375 57.160156 C 52.769531 58.011719 52.683594 58.886719 52.902344 59.101562 C 53.222656 59.421875 65.128906 55.597656 66.546875 54.71875 C 67.242188 54.292969 64.910156 49.539062 62.867188 47.214844 C 59.90625 43.855469 56.636719 42.367188 51.75 42.160156 C 48.625 42.03125 47.195312 42.210938 45.210938 43 M 52.90625 62.660156 C 45.015625 65.472656 38.414062 67.917969 38.234375 68.097656 C 37.867188 68.464844 43.910156 85.886719 45.460938 88.921875 C 46.820312 91.589844 51.027344 95.246094 53.84375 96.203125 C 57.421875 97.421875 62.707031 97.242188 65.820312 95.792969 C 71.128906 93.320312 74.109375 89.304688 75.152344 83.210938 C 75.695312 80.039062 75.664062 79.863281 73.390625 73.117188 C 69.882812 62.703125 67.941406 57.496094 67.578125 57.527344 C 67.398438 57.539062 60.796875 59.851562 52.90625 62.660156 "/>
</g>
</svg>
