<?xml version="1.0" encoding="UTF-8"?>
<svg xmlns="http://www.w3.org/2000/svg" xmlns:xlink="http://www.w3.org/1999/xlink" width="24px" height="24px" viewBox="0 0 24 24" version="1.1">
<g id="surface1">
<path style=" stroke:none;fill-rule:evenodd;fill:rgb(0%,0%,0%);fill-opacity:1;" d="M 21.601562 0.140625 C 20.804688 0.371094 19.789062 1.316406 19.445312 2.144531 L 19.300781 2.492188 L 18.765625 2.191406 C 17.707031 1.601562 16.773438 1.609375 16.210938 2.207031 C 15.878906 2.5625 15.765625 3.304688 15.953125 3.882812 C 16.15625 4.496094 17.0625 5.449219 17.78125 5.808594 L 18.394531 6.113281 L 17.867188 6.601562 C 17.578125 6.867188 17.109375 7.195312 16.828125 7.335938 C 16.351562 7.566406 16.078125 7.859375 16.078125 8.144531 C 16.078125 8.375 16.460938 8.640625 16.792969 8.640625 C 17.179688 8.640625 18.335938 7.90625 18.941406 7.28125 L 19.339844 6.867188 L 19.824219 7.394531 C 20.425781 8.046875 20.898438 8.339844 21.632812 8.527344 C 22.117188 8.648438 22.285156 8.640625 22.71875 8.476562 C 23.980469 7.992188 23.945312 6.386719 22.648438 5.199219 L 22.101562 4.695312 L 22.554688 4.21875 C 24.375 2.308594 23.722656 -0.472656 21.601562 0.140625 M 8.210938 0.527344 C 7.503906 1.003906 6.578125 1.988281 5.957031 2.917969 C 5.476562 3.648438 4.679688 5.246094 4.679688 5.488281 C 4.679688 5.800781 4.492188 5.621094 4.277344 5.101562 C 3.730469 3.765625 2.203125 1.886719 1.5625 1.757812 C 1.121094 1.671875 0.511719 1.875 0.359375 2.164062 C 0.148438 2.558594 0.230469 2.878906 0.945312 4.480469 C 1.332031 5.351562 1.734375 6.328125 1.839844 6.660156 C 2.140625 7.589844 2.367188 9.148438 2.460938 10.890625 L 2.546875 12.484375 L 2.03125 13.171875 C 1.75 13.550781 1.367188 14.039062 1.179688 14.253906 C 0.796875 14.699219 0.75 15.015625 1.027344 15.292969 C 1.421875 15.683594 1.742188 15.527344 2.515625 14.5625 C 2.921875 14.058594 3.523438 13.246094 3.855469 12.757812 C 4.289062 12.113281 4.640625 11.746094 5.132812 11.433594 C 6.59375 10.5 8.917969 9.609375 11.304688 9.070312 C 12.011719 8.910156 12.648438 8.746094 12.714844 8.703125 C 12.785156 8.660156 12.925781 8.460938 13.03125 8.257812 C 13.367188 7.605469 13.070312 6.902344 12.277344 6.496094 C 11.921875 6.3125 9.714844 6.328125 8.785156 6.523438 C 8.371094 6.609375 8.046875 6.648438 8.066406 6.609375 C 8.085938 6.570312 8.355469 6.027344 8.664062 5.398438 C 8.976562 4.773438 9.339844 3.855469 9.472656 3.363281 C 9.742188 2.390625 9.808594 0.746094 9.597656 0.351562 C 9.410156 0 8.894531 0.0664062 8.210938 0.527344 M 21.515625 1.554688 C 20.851562 1.960938 20.179688 3.21875 20.347656 3.746094 C 20.566406 4.433594 22.007812 3.335938 22.3125 2.246094 C 22.570312 1.324219 22.289062 1.082031 21.515625 1.554688 M 7.707031 2.644531 C 6.574219 4.039062 5.605469 6.035156 5.441406 7.292969 L 5.367188 7.859375 L 5.746094 7.507812 C 6.285156 7 7.277344 5.527344 7.683594 4.628906 C 7.984375 3.964844 8.519531 2.292969 8.519531 2.011719 C 8.519531 1.765625 8.238281 1.984375 7.707031 2.644531 M 17.097656 3.328125 C 17.226562 3.847656 17.707031 4.390625 18.273438 4.667969 C 18.964844 5 19.199219 4.992188 19.199219 4.636719 C 19.199219 3.964844 18.121094 3.007812 17.355469 3 C 17.042969 3 17.019531 3.027344 17.097656 3.328125 M 2.234375 4.289062 C 2.976562 6.003906 3.261719 6.96875 3.582031 8.878906 C 3.6875 9.519531 3.691406 9.503906 3.707031 8.375 C 3.722656 6.957031 3.375 5.710938 2.644531 4.582031 C 2.101562 3.738281 1.945312 3.628906 2.234375 4.289062 M 20.335938 5.527344 C 20.21875 5.714844 20.359375 6.15625 20.648438 6.523438 C 21.160156 7.175781 22.441406 7.585938 22.441406 7.097656 C 22.441406 6.714844 21.765625 5.921875 21.210938 5.65625 C 20.617188 5.367188 20.449219 5.34375 20.335938 5.527344 M 9.058594 7.738281 C 7.480469 8.03125 6.292969 8.613281 5.398438 9.542969 L 4.859375 10.105469 L 5.699219 9.6875 C 6.914062 9.082031 8.675781 8.449219 10.285156 8.035156 C 11.058594 7.835938 11.714844 7.648438 11.746094 7.617188 C 11.863281 7.5 9.863281 7.589844 9.058594 7.738281 M 19.984375 9.179688 C 19.882812 9.34375 19.710938 9.628906 19.597656 9.808594 C 19.109375 10.617188 18.441406 11.269531 17.929688 11.445312 L 17.410156 11.621094 L 17.84375 10.964844 C 18.214844 10.40625 18.265625 10.257812 18.167969 9.984375 C 18.082031 9.738281 17.964844 9.652344 17.679688 9.625 C 17.34375 9.589844 17.253906 9.660156 16.796875 10.3125 C 16.257812 11.078125 16.078125 11.136719 16.078125 10.546875 C 16.078125 9.996094 15.882812 9.71875 15.492188 9.71875 C 14.964844 9.71875 14.851562 9.957031 14.882812 11.007812 C 14.929688 12.492188 14.9375 12.457031 14.371094 12.683594 C 14.089844 12.796875 13.273438 13.175781 12.554688 13.527344 C 11.835938 13.878906 11.226562 14.144531 11.195312 14.117188 C 11.148438 14.066406 11.8125 13.238281 12.984375 11.894531 C 13.648438 11.125 13.578125 10.441406 12.835938 10.441406 C 12.597656 10.441406 12.421875 10.578125 12.125 10.992188 L 11.730469 11.542969 L 11.550781 11.167969 C 11.34375 10.742188 10.941406 10.59375 10.558594 10.800781 C 10.339844 10.917969 10.308594 11.011719 10.367188 11.351562 C 10.40625 11.574219 10.472656 11.945312 10.511719 12.167969 C 10.570312 12.503906 10.488281 12.757812 10.046875 13.578125 C 9.75 14.128906 9.476562 14.722656 9.433594 14.898438 C 9.386719 15.113281 9.175781 15.324219 8.789062 15.546875 C 8.476562 15.730469 8.089844 15.960938 7.933594 16.0625 C 7.65625 16.242188 7.652344 16.238281 7.734375 15.953125 C 7.953125 15.21875 8.453125 14.308594 9.117188 13.425781 C 9.863281 12.4375 9.984375 12.042969 9.652344 11.707031 C 9.277344 11.332031 8.949219 11.46875 8.515625 12.179688 L 8.226562 12.65625 L 8.132812 12.117188 C 8.003906 11.363281 7.464844 11.03125 7.042969 11.453125 C 6.90625 11.589844 6.882812 11.902344 6.929688 12.992188 C 6.984375 14.183594 6.960938 14.449219 6.738281 15.035156 C 6.601562 15.40625 6.433594 16.042969 6.367188 16.449219 C 6.253906 17.160156 6.140625 17.335938 5.617188 17.644531 C 5.425781 17.753906 5.425781 17.730469 5.582031 17.351562 C 5.679688 17.125 5.789062 16.636719 5.835938 16.273438 C 5.933594 15.4375 5.703125 15 5.160156 15 C 4.730469 15 4.589844 15.230469 4.578125 15.96875 C 4.574219 16.273438 4.507812 16.675781 4.4375 16.871094 L 4.300781 17.21875 L 4.003906 16.597656 C 3.667969 15.886719 3.367188 15.726562 2.921875 16.019531 C 2.582031 16.242188 2.585938 16.308594 2.988281 17.398438 C 3.128906 17.78125 3.234375 18.363281 3.238281 18.78125 L 3.242188 19.5 L 2.222656 20.460938 C 1.660156 20.988281 1.199219 21.515625 1.199219 21.628906 C 1.199219 21.890625 1.617188 22.320312 1.867188 22.320312 C 1.96875 22.320312 2.339844 22.050781 2.6875 21.71875 C 3.039062 21.390625 3.371094 21.121094 3.429688 21.125 C 3.699219 21.132812 4.175781 21.734375 4.597656 22.59375 C 5.117188 23.652344 5.492188 23.984375 5.933594 23.785156 C 6.355469 23.59375 6.433594 23.199219 6.132812 22.792969 C 5.992188 22.601562 5.878906 22.429688 5.878906 22.40625 C 5.878906 22.386719 6.246094 22.367188 6.691406 22.371094 C 7.71875 22.375 8.28125 22.109375 8.28125 21.621094 C 8.28125 21.082031 8.09375 20.996094 7.027344 21.046875 C 6.496094 21.070312 6.316406 21.066406 6.628906 21.039062 C 7.417969 20.96875 7.804688 20.421875 7.371094 19.988281 C 7.152344 19.769531 6.003906 19.734375 5.175781 19.925781 C 4.886719 19.992188 4.632812 20.03125 4.613281 20.015625 C 4.578125 19.980469 6.480469 18.507812 6.792969 18.324219 C 6.910156 18.257812 7.113281 18.546875 7.558594 19.441406 C 8.238281 20.792969 8.574219 21.085938 9 20.699219 C 9.304688 20.425781 9.304688 20.152344 8.992188 19.542969 C 8.707031 18.984375 8.730469 18.910156 9.148438 19.066406 C 9.316406 19.132812 9.871094 19.242188 10.386719 19.3125 C 10.898438 19.382812 11.386719 19.5 11.472656 19.570312 C 11.726562 19.78125 12.160156 19.640625 12.355469 19.28125 C 12.53125 18.960938 12.527344 18.933594 12.214844 18.660156 C 12.011719 18.488281 11.527344 18.296875 10.953125 18.164062 C 10.058594 17.960938 10.039062 17.949219 10.464844 17.875 C 10.707031 17.835938 10.992188 17.730469 11.09375 17.644531 C 11.378906 17.40625 11.320312 16.953125 10.976562 16.726562 C 10.695312 16.542969 10.613281 16.542969 9.925781 16.714844 C 9.515625 16.816406 9.070312 16.9375 8.941406 16.980469 C 8.808594 17.023438 9.152344 16.789062 9.707031 16.457031 L 10.714844 15.851562 L 11.046875 16.175781 C 11.226562 16.355469 11.542969 16.652344 11.746094 16.835938 C 12.003906 17.066406 12.195312 17.425781 12.367188 18 C 12.628906 18.863281 12.832031 19.054688 13.320312 18.898438 C 13.601562 18.808594 13.738281 18.375 13.636719 17.875 C 13.550781 17.445312 13.683594 17.425781 14.339844 17.761719 C 14.921875 18.058594 15.148438 18.0625 15.402344 17.78125 C 15.6875 17.464844 15.648438 17.222656 15.257812 16.890625 C 14.917969 16.609375 14.917969 16.601562 15.167969 16.492188 C 15.332031 16.417969 15.433594 16.25 15.457031 15.996094 C 15.515625 15.402344 15.222656 15.3125 13.480469 15.398438 C 12.597656 15.445312 11.984375 15.429688 11.941406 15.359375 C 11.875 15.253906 13.640625 14.296875 14.25 14.109375 C 14.46875 14.039062 14.628906 14.132812 15.089844 14.601562 C 15.730469 15.25 16.816406 15.84375 17.179688 15.75 C 17.464844 15.675781 17.683594 15.175781 17.542969 14.921875 C 17.488281 14.824219 17.285156 14.640625 17.089844 14.511719 C 16.898438 14.386719 16.796875 14.28125 16.867188 14.28125 C 17.175781 14.277344 18.113281 14.675781 18.304688 14.886719 C 18.617188 15.230469 19.171875 15.191406 19.34375 14.820312 C 19.601562 14.246094 19.007812 13.648438 17.753906 13.21875 L 17.101562 12.992188 L 17.917969 12.746094 C 18.683594 12.515625 18.785156 12.507812 19.417969 12.675781 C 19.792969 12.773438 20.476562 13.058594 20.941406 13.3125 C 21.847656 13.808594 22.222656 13.808594 22.378906 13.320312 C 22.492188 12.964844 22.203125 12.578125 21.5625 12.238281 L 21.019531 11.949219 L 21.371094 11.738281 C 22 11.351562 21.652344 10.429688 20.945312 10.609375 C 20.578125 10.699219 20.574219 10.679688 20.878906 10.109375 C 21.175781 9.558594 21.183594 9.332031 20.902344 9.078125 C 20.582031 8.789062 20.195312 8.832031 19.984375 9.179688 M 20.101562 16.960938 C 17.738281 17.730469 15.832031 19.660156 15.792969 21.328125 C 15.78125 21.957031 15.773438 21.96875 15.347656 22.082031 C 15.113281 22.148438 14.625 22.253906 14.269531 22.320312 C 13.359375 22.492188 13.042969 22.992188 13.554688 23.453125 C 13.765625 23.644531 13.871094 23.652344 14.589844 23.527344 C 15.027344 23.449219 15.65625 23.285156 15.980469 23.164062 C 16.511719 22.960938 16.617188 22.957031 16.984375 23.109375 C 18.050781 23.554688 19.816406 23.164062 21.339844 22.148438 C 23.765625 20.527344 24.449219 18.285156 22.875 17.109375 C 22.464844 16.800781 20.851562 16.714844 20.101562 16.960938 M 20.460938 18.167969 C 18.707031 18.726562 17.039062 20.261719 17.039062 21.316406 C 17.039062 22.746094 20.085938 22.019531 21.726562 20.195312 C 22.285156 19.574219 22.582031 18.894531 22.480469 18.496094 C 22.355469 18.023438 21.40625 17.867188 20.460938 18.167969 "/>
</g>
</svg>
