<?xml version="1.0" encoding="UTF-8"?>
<svg xmlns="http://www.w3.org/2000/svg" xmlns:xlink="http://www.w3.org/1999/xlink" width="24px" height="24px" viewBox="0 0 24 24" version="1.1">
<g id="surface1">
<path style=" stroke:none;fill-rule:evenodd;fill:rgb(0%,0%,0%);fill-opacity:1;" d="M 5.773438 3.285156 C 5.691406 3.382812 5.640625 3.589844 5.660156 3.742188 C 5.699219 4.011719 5.734375 4.019531 7.230469 4.054688 L 8.761719 4.085938 L 8.761719 5.152344 L 7.304688 5.1875 C 5.988281 5.214844 5.832031 5.242188 5.683594 5.46875 C 5.546875 5.675781 5.546875 5.75 5.691406 5.949219 C 5.839844 6.152344 6.042969 6.183594 7.308594 6.21875 L 8.761719 6.261719 L 8.761719 8.007812 L 7.875 8.332031 C 7.390625 8.507812 6.6875 8.84375 6.316406 9.074219 L 5.640625 9.5 L 5.640625 11.15625 C 5.640625 12.480469 5.675781 12.839844 5.820312 12.960938 C 5.972656 13.085938 6 13.679688 6 16.910156 C 6 19.707031 6.039062 20.75 6.144531 20.855469 C 6.351562 21.0625 17.769531 21.0625 17.976562 20.855469 C 18.082031 20.75 18.121094 19.703125 18.121094 16.886719 C 18.121094 13.648438 18.148438 13.035156 18.300781 12.882812 C 18.441406 12.742188 18.480469 12.371094 18.480469 11.171875 C 18.480469 9.738281 18.464844 9.625 18.210938 9.398438 C 17.171875 8.457031 14.289062 7.558594 12.304688 7.558594 L 11.785156 7.558594 L 11.742188 6.082031 C 11.703125 4.71875 11.675781 4.566406 11.378906 4.121094 C 10.835938 3.296875 10.453125 3.1875 8.03125 3.140625 C 6.257812 3.105469 5.902344 3.128906 5.773438 3.285156 M 9.71875 4.738281 L 9.71875 5.28125 L 10.199219 5.28125 C 10.691406 5.28125 10.769531 5.175781 10.605469 4.746094 C 10.539062 4.578125 9.976562 4.199219 9.785156 4.199219 C 9.75 4.199219 9.71875 4.441406 9.71875 4.738281 M 9.71875 7.019531 C 9.71875 7.75 9.738281 7.800781 9.988281 7.796875 C 10.710938 7.792969 10.800781 7.699219 10.800781 6.945312 L 10.800781 6.238281 L 9.71875 6.238281 L 9.71875 7.019531 M 9.707031 8.828125 C 9.273438 8.921875 8.707031 9.078125 8.449219 9.171875 C 8.027344 9.324219 8.375 9.34375 12 9.34375 C 15.703125 9.34375 15.980469 9.328125 15.539062 9.164062 C 14.152344 8.644531 11.320312 8.484375 9.707031 8.828125 M 8.761719 11.21875 L 8.761719 12.121094 L 10.800781 12.121094 L 10.800781 10.320312 L 8.761719 10.320312 L 8.761719 11.21875 M 11.761719 11.21875 L 11.761719 12.121094 L 12.839844 12.121094 L 12.839844 10.320312 L 11.761719 10.320312 L 11.761719 11.21875 M 9 16.558594 L 9 20.039062 L 10.800781 20.039062 L 10.800781 13.078125 L 9 13.078125 L 9 16.558594 M 11.761719 16.558594 L 11.761719 20.039062 L 12.71875 20.039062 L 12.71875 13.078125 L 11.761719 13.078125 L 11.761719 16.558594 "/>
</g>
</svg>
