<?xml version="1.0" encoding="UTF-8"?>
<svg xmlns="http://www.w3.org/2000/svg" xmlns:xlink="http://www.w3.org/1999/xlink" width="24px" height="24px" viewBox="0 0 24 24" version="1.1">
<g id="surface1">
<path style=" stroke:none;fill-rule:evenodd;fill:rgb(0%,0%,0%);fill-opacity:1;" d="M 20.398438 3.492188 C 18.082031 5.222656 15.589844 8.453125 14.390625 11.285156 C 14.183594 11.777344 14 12.195312 13.980469 12.214844 C 13.964844 12.234375 13.742188 11.722656 13.488281 11.082031 C 12.984375 9.800781 12.039062 8.214844 11.207031 7.242188 C 10.730469 6.679688 9.261719 5.460938 9.171875 5.546875 C 9.152344 5.566406 9.296875 6.121094 9.492188 6.777344 C 10.144531 8.976562 10.34375 10.375 10.40625 13.261719 C 10.46875 16.042969 10.398438 16.332031 10.027344 14.824219 C 9.199219 11.425781 7.144531 7.972656 4.660156 5.792969 C 3.902344 5.132812 2.519531 4.160156 2.441406 4.238281 C 2.417969 4.261719 2.6875 4.898438 3.042969 5.652344 C 3.851562 7.363281 4.789062 9.851562 5.277344 11.578125 C 5.617188 12.78125 6.125 15.339844 6.117188 15.820312 C 6.117188 15.929688 5.855469 15.527344 5.535156 14.925781 C 4.851562 13.636719 4.40625 12.964844 3.460938 11.800781 C 2.804688 10.992188 1.007812 9.238281 0.835938 9.238281 C 0.792969 9.238281 1.023438 9.957031 1.351562 10.828125 C 2.65625 14.324219 3.476562 17.832031 3.492188 19.949219 L 3.496094 21.121094 L 21.085938 21.121094 L 21.15625 18.808594 C 21.246094 15.699219 21.769531 12.410156 22.84375 8.191406 C 23.066406 7.316406 23.210938 6.601562 23.164062 6.601562 C 22.980469 6.601562 21.566406 7.988281 20.867188 8.855469 C 19.929688 10.019531 19.429688 10.785156 18.625 12.300781 C 18.015625 13.445312 17.988281 13.476562 18.058594 12.960938 C 18.328125 10.9375 19.617188 6.636719 20.675781 4.226562 C 20.972656 3.550781 21.179688 3 21.136719 3 C 21.09375 3 20.761719 3.222656 20.398438 3.492188 "/>
</g>
</svg>
