<?xml version="1.0" encoding="UTF-8"?>
<svg xmlns="http://www.w3.org/2000/svg" xmlns:xlink="http://www.w3.org/1999/xlink" width="100px" height="100px" viewBox="0 0 100 100" version="1.1">
<g id="surface1">
<path style=" stroke:none;fill-rule:evenodd;fill:rgb(0%,0%,0%);fill-opacity:1;" d="M 57.683594 6.375 C 61.367188 13.664062 64.757812 30.742188 63.054688 33.429688 C 62.472656 34.351562 62.335938 34.042969 60.542969 27.832031 C 58.941406 22.277344 57.785156 19.5 57.070312 19.5 C 56.847656 19.5 56.152344 21.917969 55.527344 24.875 C 54.898438 27.832031 54.28125 30.429688 54.148438 30.648438 C 54.019531 30.867188 52.789062 29.40625 51.414062 27.398438 C 46.640625 20.417969 40.441406 15.183594 35.554688 14.011719 C 30.851562 12.882812 25.335938 15.285156 19.15625 21.152344 C 7.996094 31.753906 1.914062 47.558594 1.902344 66 C 1.894531 80.664062 6.265625 90.359375 14.785156 94.554688 C 17.714844 95.996094 18.234375 96.089844 22.378906 95.925781 C 26.371094 95.769531 27.023438 95.601562 28.71875 94.308594 C 29.757812 93.515625 30.933594 92.078125 31.335938 91.117188 C 32.289062 88.84375 32.253906 83.34375 31.277344 80.570312 C 29.550781 75.683594 25.121094 71.5 21.679688 71.5 C 19.433594 71.5 16.042969 73.460938 14.65625 75.554688 C 13.5625 77.207031 13.410156 77.894531 13.605469 80.277344 C 13.894531 83.757812 15.757812 85.933594 18.796875 86.328125 C 21.339844 86.664062 24.171875 84.894531 24.410156 82.828125 C 24.601562 81.183594 23.320312 79 22.160156 79 C 21.410156 79 21.410156 79.074219 22.171875 79.914062 C 23.207031 81.054688 23.214844 81.714844 22.214844 82.714844 C 21.097656 83.828125 18.691406 83.691406 17.441406 82.441406 C 16.597656 81.597656 16.4375 80.980469 16.652344 79.394531 C 17.164062 75.5625 20.285156 73.929688 23.480469 75.816406 C 25.203125 76.835938 27.386719 80.136719 27.800781 82.351562 C 28.394531 85.503906 26.03125 88.75 22.238281 90.003906 C 20.640625 90.53125 20.164062 90.453125 17.746094 89.269531 C 11.382812 86.15625 8.550781 78.726562 9.167969 66.753906 C 9.59375 58.492188 11.957031 48.339844 14.644531 43.207031 L 15.402344 41.761719 L 15.679688 44.003906 C 15.828125 45.238281 16.078125 48.378906 16.230469 50.984375 C 16.378906 53.585938 16.757812 57.695312 17.066406 60.109375 L 17.632812 64.5 L 29.441406 64.5 L 32.050781 68.273438 C 34.515625 71.84375 37.09375 74.265625 36.34375 72.316406 C 36.175781 71.871094 35.882812 70.328125 35.699219 68.882812 L 35.359375 66.25 L 37.671875 68.714844 C 38.945312 70.070312 40.136719 71.03125 40.320312 70.847656 C 40.503906 70.664062 39.773438 68.128906 38.703125 65.210938 L 36.75 59.90625 L 31.84375 60.246094 L 26.941406 60.585938 L 28.726562 58.101562 C 32.238281 53.210938 34.691406 46.203125 35.347656 39.1875 L 35.660156 35.816406 L 34.195312 36.859375 C 32.382812 38.148438 24.941406 45.863281 23.742188 47.691406 C 22.433594 49.691406 22.335938 48.972656 23.5 45.867188 C 24.695312 42.667969 27.78125 37.730469 30.601562 34.5 C 32.765625 32.023438 38.953125 26.5 39.566406 26.5 C 40.304688 26.5 40.996094 30.273438 40.996094 34.34375 C 41 38.71875 40.171875 43.410156 38.535156 48.25 C 37.980469 49.898438 37.519531 51.488281 37.511719 51.777344 C 37.472656 53.414062 49.574219 60.539062 56.59375 63.015625 C 60.46875 64.382812 61.253906 64.480469 68.1875 64.488281 C 76.472656 64.5 76.542969 64.449219 72.113281 61.515625 C 69.335938 59.671875 67.714844 59.609375 65.296875 61.25 C 64.285156 61.9375 63.101562 62.5 62.667969 62.5 C 61.761719 62.5 56.691406 59.546875 53.75 57.300781 C 50.527344 54.847656 46.5 51.335938 46.5 50.984375 C 46.5 50.324219 50.460938 49.5 53.628906 49.5 C 57.175781 49.5 62.21875 50.847656 64.941406 52.523438 L 66.628906 53.5625 L 66.289062 52.15625 C 66.101562 51.382812 65.828125 48.386719 65.675781 45.5 C 65.410156 40.425781 65.449219 40.160156 66.84375 37.515625 C 68.023438 35.28125 68.78125 34.523438 71.015625 33.347656 C 76.285156 30.582031 82.015625 32.136719 85.664062 37.328125 C 89.597656 42.925781 86.6875 52.667969 80.75 53.78125 C 76.847656 54.515625 71.5 49.792969 71.5 45.613281 C 71.5 42.394531 75.617188 39.664062 78.410156 41.027344 L 79.75 41.679688 L 77.554688 42.007812 C 74.261719 42.5 73.300781 44.199219 74.746094 46.996094 C 77.046875 51.4375 82.699219 50.777344 83.761719 45.9375 C 84.316406 43.429688 83.085938 39.632812 81.015625 37.457031 C 79.316406 35.671875 78.929688 35.5 76.550781 35.5 C 73.714844 35.5 71.835938 36.261719 70.183594 38.078125 C 65.632812 43.082031 66.621094 50.667969 72.597656 56.648438 C 76.925781 60.972656 83.558594 63.328125 92.875 63.84375 L 98.5 64.152344 L 98.492188 61.453125 C 98.464844 52.828125 92.933594 38.664062 85.640625 28.542969 C 81.574219 22.894531 74.65625 15.761719 69.457031 11.855469 C 65.59375 8.949219 57.6875 4 56.910156 4 C 56.675781 4 57.023438 5.070312 57.683594 6.375 M 90 32.320312 C 90 32.484375 90.789062 33.914062 91.75 35.5 C 92.710938 37.085938 93.5 38.492188 93.5 38.628906 C 93.5 38.761719 93.988281 39.96875 94.585938 41.3125 L 95.667969 43.75 L 96.570312 41.75 C 97.660156 39.332031 97.78125 37 96.8125 37 C 95.679688 37 94.738281 35.5625 95.421875 34.878906 C 96.289062 34.011719 96.136719 33.671875 94.625 33.101562 C 92.816406 32.421875 90 31.945312 90 32.320312 M 77.117188 44.582031 C 75.78125 45.921875 77.136719 47.839844 79.003906 47.25 C 79.789062 47 80.019531 46.574219 79.902344 45.582031 C 79.734375 44.097656 78.164062 43.535156 77.117188 44.582031 "/>
</g>
</svg>
