<?xml version="1.0" encoding="UTF-8"?>
<svg xmlns="http://www.w3.org/2000/svg" xmlns:xlink="http://www.w3.org/1999/xlink" width="100px" height="100px" viewBox="0 0 100 100" version="1.1">
<g id="surface1">
<path style=" stroke:none;fill-rule:evenodd;fill:rgb(0%,0%,0%);fill-opacity:1;" d="M 2.652344 16.070312 C 0.324219 17.253906 0.253906 21.28125 2.507812 24.144531 C 3.777344 25.757812 3.761719 26.078125 2.203125 30.539062 C -0.9375 39.539062 2.101562 51.792969 7.90625 53.53125 L 9.84375 54.113281 L 8.472656 56.679688 C 6.015625 61.285156 5.566406 66.136719 7.277344 69.527344 C 7.632812 70.226562 8.910156 71.710938 10.117188 72.824219 C 18.128906 80.210938 28.234375 80.894531 34.464844 74.476562 C 35.597656 73.308594 36.574219 72.445312 36.636719 72.554688 C 36.699219 72.660156 37.398438 74.046875 38.191406 75.632812 C 39.804688 78.863281 42.625 82.007812 45.097656 83.332031 C 47.335938 84.53125 52.664062 84.53125 54.902344 83.332031 C 57.375 82.007812 60.195312 78.863281 61.808594 75.632812 C 62.601562 74.046875 63.300781 72.660156 63.363281 72.554688 C 63.425781 72.445312 64.402344 73.308594 65.535156 74.476562 C 71.851562 80.984375 81.980469 80.203125 90.125 72.585938 C 94.445312 68.546875 94.90625 63.417969 91.550781 56.769531 L 90.175781 54.039062 L 91.617188 53.722656 C 94.953125 52.992188 97.898438 48.089844 98.957031 41.519531 C 99.511719 38.070312 99.035156 34.214844 97.503906 29.757812 C 96.253906 26.128906 96.257812 25.746094 97.535156 23.949219 C 100.890625 19.242188 98.808594 14.84375 93.621094 15.671875 C 88.253906 16.53125 79.089844 20.515625 73.136719 24.578125 C 68.984375 27.410156 60.300781 35.738281 58.734375 38.394531 C 58.210938 39.277344 57.488281 40 57.125 40 C 56.164062 40 55.753906 38.511719 56.421875 37.441406 C 56.738281 36.929688 57 36.199219 57 35.816406 C 57 35.433594 57.574219 33.863281 58.277344 32.328125 C 59.949219 28.675781 61.316406 22.117188 60.566406 21.363281 C 59.773438 20.574219 59.613281 20.898438 58.746094 25.023438 C 58.316406 27.066406 57.445312 29.867188 56.816406 31.246094 L 55.671875 33.75 L 50.160156 33.703125 C 47.132812 33.675781 44.398438 33.496094 44.085938 33.300781 C 43.476562 32.925781 41.261719 25.976562 40.753906 22.84375 C 40.289062 20 39.210938 20.769531 39.410156 23.800781 C 39.566406 26.195312 41.707031 33.046875 43.640625 37.339844 C 44.214844 38.617188 43.816406 40 42.875 40 C 42.511719 40 41.847656 39.382812 41.398438 38.625 C 39.789062 35.925781 33.359375 29.460938 29.089844 26.25 C 19.871094 19.316406 6.433594 14.140625 2.652344 16.070312 M 5 17.359375 C 5 17.507812 6.441406 19.15625 8.203125 21.023438 C 9.964844 22.890625 11.546875 24.863281 11.71875 25.40625 C 11.984375 26.234375 12.601562 26.425781 15.640625 26.613281 C 17.625 26.734375 19.316406 26.789062 19.394531 26.730469 C 19.476562 26.671875 18.800781 25.246094 17.894531 23.5625 C 16.402344 20.78125 16 20.40625 13.535156 19.472656 C 10.4375 18.300781 5 16.953125 5 17.359375 M 91.25 18 C 84.816406 19.652344 83.929688 20.191406 82.105469 23.574219 C 81.199219 25.253906 80.523438 26.671875 80.605469 26.730469 C 80.683594 26.789062 82.34375 26.738281 84.289062 26.617188 C 87.683594 26.40625 87.863281 26.328125 88.707031 24.765625 C 89.191406 23.867188 90.832031 21.855469 92.355469 20.296875 C 93.878906 18.734375 95.039062 17.378906 94.9375 17.28125 C 94.835938 17.183594 93.175781 17.507812 91.25 18 M 2.5 19.617188 C 2.5 20.632812 3 21.980469 3.75 23 C 4.4375 23.933594 5 25.242188 5 25.914062 C 5 27.082031 5.105469 27.121094 7.335938 26.816406 C 8.621094 26.640625 9.777344 26.390625 9.902344 26.261719 C 10.453125 25.714844 6.320312 20.652344 3.941406 18.957031 L 2.5 17.933594 L 2.5 19.617188 M 94.972656 19.902344 C 92.636719 21.964844 89.664062 25.832031 90.089844 26.257812 C 90.222656 26.386719 91.378906 26.640625 92.664062 26.816406 C 94.867188 27.117188 95 27.070312 95 25.96875 C 95 25.328125 95.578125 23.96875 96.285156 22.949219 C 97.164062 21.679688 97.519531 20.589844 97.410156 19.492188 L 97.25 17.894531 L 94.972656 19.902344 M 19.972656 23.945312 C 23.480469 30.820312 33.949219 40.226562 41.140625 42.957031 C 42.472656 43.464844 42.503906 43.441406 41.9375 42.367188 C 39.429688 37.625 30.941406 29.21875 24.347656 24.953125 C 21.835938 23.328125 19.597656 22 19.378906 22 C 19.160156 22 19.425781 22.875 19.972656 23.945312 M 75.632812 24.96875 C 73.109375 26.597656 69.117188 29.785156 66.757812 32.046875 C 62.632812 36.007812 57.117188 42.785156 57.613281 43.28125 C 58.140625 43.804688 65.175781 39.691406 69.03125 36.605469 C 71.28125 34.804688 74.453125 31.65625 76.078125 29.609375 C 79.054688 25.863281 81.363281 22 80.621094 22 C 80.402344 22 78.15625 23.335938 75.632812 24.96875 M 8.5 28.339844 C 4.804688 28.71875 4.648438 28.835938 3.5625 32.046875 C 2.628906 34.816406 2.613281 35.0625 3.390625 34.746094 C 9.539062 32.25 15.320312 31.449219 19.980469 32.449219 C 23.382812 33.179688 24.152344 32.433594 22.109375 30.386719 C 20.097656 28.367188 15.277344 27.644531 8.5 28.339844 M 81.515625 28.515625 C 79.007812 29.042969 76.277344 31.347656 76.925781 32.386719 C 77.242188 32.894531 77.878906 32.90625 80.019531 32.449219 C 83.75 31.648438 89.574219 32.160156 93.625 33.640625 C 95.890625 34.46875 97 34.679688 97 34.277344 C 97 32.933594 95.386719 29.0625 94.71875 28.804688 C 93.304688 28.265625 83.707031 28.050781 81.515625 28.515625 M 10.25 34.210938 C 8.601562 34.59375 6.179688 35.367188 4.875 35.933594 C 2.53125 36.949219 2.5 36.996094 2.5 39.273438 C 2.5 40.542969 2.667969 41.5 2.875 41.394531 C 8.027344 38.808594 11.648438 38 18.09375 38 L 22.5 38 L 22.5 36.488281 C 22.5 35.296875 22.207031 34.863281 21.125 34.449219 C 18.867188 33.589844 13.457031 33.46875 10.25 34.210938 M 24.316406 35.050781 C 23.730469 37.96875 24.902344 40.425781 27.5 41.730469 C 29.085938 42.527344 32.800781 42.945312 34.75 42.546875 L 36.246094 42.242188 L 33.863281 40.84375 C 32.550781 40.074219 30.046875 38.105469 28.300781 36.472656 C 26.550781 34.835938 25.011719 33.5 24.875 33.5 C 24.738281 33.5 24.484375 34.195312 24.316406 35.050781 M 72.480469 35.789062 C 71.253906 37.046875 68.832031 39.015625 67.097656 40.164062 L 63.945312 42.25 L 65.5625 42.578125 C 67.71875 43.019531 71.613281 42.367188 73.257812 41.289062 C 75.023438 40.132812 76.125 37.417969 75.710938 35.222656 C 75.535156 34.277344 75.234375 33.5 75.046875 33.5 C 74.863281 33.5 73.703125 34.53125 72.480469 35.789062 M 80 34.164062 C 77.972656 34.691406 77.734375 34.910156 77.59375 36.375 L 77.4375 38 L 81.875 38 C 87.433594 38 91.554688 38.738281 94.664062 40.292969 C 95.996094 40.957031 97.175781 41.5 97.289062 41.5 C 97.40625 41.5 97.5 40.480469 97.5 39.230469 C 97.5 37.003906 97.457031 36.945312 95.125 35.9375 C 90.039062 33.738281 84.25 33.0625 80 34.164062 M 45.121094 35.332031 C 44.148438 35.722656 44.917969 36.5 46.28125 36.5 C 47.652344 36.5 47.914062 35.765625 46.710938 35.304688 C 46.273438 35.136719 45.878906 35.019531 45.835938 35.039062 C 45.789062 35.0625 45.46875 35.191406 45.121094 35.332031 M 49.101562 36.226562 C 48.792969 36.898438 47.859375 37.804688 47.023438 38.238281 C 46.183594 38.671875 45.5 39.074219 45.5 39.136719 C 45.5 39.199219 47.523438 39.25 50 39.25 C 52.476562 39.25 54.5 39.199219 54.5 39.136719 C 54.5 39.074219 53.816406 38.671875 52.976562 38.238281 C 52.140625 37.804688 51.207031 36.898438 50.898438 36.226562 C 50.589844 35.550781 50.1875 35 50 35 C 49.8125 35 49.410156 35.550781 49.101562 36.226562 M 53.125 35.332031 C 52.058594 35.761719 52.4375 36.5 53.71875 36.5 C 55.179688 36.5 55.816406 35.726562 54.707031 35.300781 C 54.273438 35.136719 53.878906 35.019531 53.835938 35.039062 C 53.789062 35.0625 53.46875 35.191406 53.125 35.332031 M 12.050781 40.011719 C 7.640625 40.625 3.5 42.683594 3.5 44.261719 C 3.5 45.65625 4.308594 47.675781 5.675781 49.679688 C 7.890625 52.941406 12.488281 53.007812 14.464844 49.808594 C 15.925781 47.441406 20.175781 43.597656 22.453125 42.578125 C 24.183594 41.800781 24.320312 41.613281 23.730469 40.808594 C 22.933594 39.71875 17.046875 39.3125 12.050781 40.011719 M 78.019531 39.867188 C 77.34375 39.992188 76.523438 40.460938 76.199219 40.902344 C 75.699219 41.585938 75.90625 41.839844 77.546875 42.578125 C 79.824219 43.597656 84.074219 47.441406 85.535156 49.808594 C 87.511719 53.007812 92.109375 52.941406 94.324219 49.679688 C 95.691406 47.675781 96.5 45.65625 96.5 44.261719 C 96.5 41.347656 84.875 38.582031 78.019531 39.867188 M 47.75 40.71875 C 47.476562 40.828125 46.417969 41.058594 45.398438 41.226562 C 44.046875 41.453125 43.621094 41.734375 43.824219 42.269531 C 43.980469 42.671875 44.402344 43 44.765625 43 C 46.136719 43 47.5 45.546875 47.5 48.101562 C 47.5 50.824219 46.90625 52.332031 45.351562 53.570312 C 44.496094 54.25 43.035156 57.710938 43.007812 59.125 C 42.988281 60.046875 45.125 59.359375 46.769531 57.917969 C 49.117188 55.855469 50.882812 55.855469 53.230469 57.917969 C 54.222656 58.789062 55.5 59.5 56.070312 59.5 C 56.949219 59.5 57.054688 59.292969 56.769531 58.152344 C 56.183594 55.820312 55.070312 53.5 54.539062 53.5 C 53.601562 53.5 52.5 50.582031 52.5 48.09375 C 52.5 45.546875 53.867188 43 55.234375 43 C 56.488281 43 56.484375 41.605469 55.230469 41.289062 C 53.566406 40.871094 48.359375 40.472656 47.75 40.71875 M 22.328125 44.613281 C 19.765625 46.003906 15.5 50.167969 16.0625 50.730469 C 16.175781 50.84375 18.402344 50.636719 21.007812 50.273438 C 23.617188 49.90625 29.050781 49.320312 33.085938 48.964844 L 40.421875 48.316406 L 40.746094 46.585938 C 40.96875 45.398438 40.863281 44.71875 40.410156 44.421875 C 40.046875 44.183594 37.726562 44.121094 35.25 44.28125 C 31.894531 44.5 30.113281 44.375 28.25 43.792969 C 26.875 43.363281 25.636719 43.015625 25.5 43.019531 C 25.363281 43.023438 23.933594 43.738281 22.328125 44.613281 M 71.5 43.832031 C 69.867188 44.363281 68.015625 44.488281 64.75 44.277344 C 62.273438 44.121094 59.953125 44.183594 59.589844 44.421875 C 59.132812 44.71875 59.03125 45.398438 59.253906 46.601562 L 59.582031 48.347656 L 66.917969 48.980469 C 70.949219 49.328125 76.382812 49.910156 78.992188 50.273438 C 81.597656 50.636719 83.824219 50.84375 83.9375 50.730469 C 84.515625 50.152344 80.207031 45.984375 77.597656 44.59375 C 74.238281 42.800781 74.542969 42.839844 71.5 43.832031 M 43.015625 45.46875 C 42.1875 47.019531 42.382812 50.8125 43.347656 51.773438 C 44.140625 52.570312 44.246094 52.554688 45.097656 51.503906 C 46.207031 50.132812 46.273438 47.113281 45.222656 45.613281 C 44.265625 44.246094 43.691406 44.207031 43.015625 45.46875 M 54.777344 45.613281 C 53.726562 47.113281 53.792969 50.132812 54.902344 51.503906 C 55.753906 52.554688 55.859375 52.570312 56.652344 51.773438 C 58.082031 50.347656 57.566406 44.5 56.011719 44.5 C 55.761719 44.5 55.207031 45 54.777344 45.613281 M 35.996094 50.445312 C 35.03125 50.613281 32.21875 51.800781 29.746094 53.082031 C 24.027344 56.046875 18.832031 58.109375 13.476562 59.535156 C 11.152344 60.152344 8.96875 61.003906 8.625 61.425781 C 7.816406 62.417969 7.785156 67.5 8.585938 67.5 C 9.953125 67.5 19.554688 62.261719 22.765625 59.765625 C 28.054688 55.65625 32.332031 53.195312 36.75 51.730469 C 38.949219 51 40.84375 50.308594 40.957031 50.199219 C 41.246094 49.921875 38.121094 50.078125 35.996094 50.445312 M 59 50.136719 C 59.136719 50.28125 61.050781 51 63.25 51.730469 C 67.667969 53.195312 71.945312 55.65625 77.234375 59.765625 C 80.445312 62.261719 90.046875 67.5 91.414062 67.5 C 92.214844 67.5 92.183594 62.417969 91.375 61.425781 C 91.03125 61.003906 88.847656 60.152344 86.523438 59.535156 C 81.039062 58.074219 75.871094 56.015625 70.128906 53.003906 C 66.496094 51.097656 64.785156 50.503906 62.128906 50.226562 C 60.269531 50.035156 58.863281 49.996094 59 50.136719 M 22.355469 51.769531 C 12.867188 53.0625 12.222656 53.285156 10.78125 55.742188 C 10.074219 56.945312 9.5 58.15625 9.5 58.433594 C 9.5 59.46875 23.589844 54.703125 28.5 52.003906 L 30.25 51.042969 L 28.75 51.074219 C 27.925781 51.089844 25.046875 51.402344 22.355469 51.769531 M 71.5 52.003906 C 76.410156 54.703125 90.5 59.46875 90.5 58.433594 C 90.5 58.15625 89.925781 56.945312 89.21875 55.742188 C 87.761719 53.257812 87.21875 53.078125 77.25 51.75 C 69.914062 50.773438 69.3125 50.800781 71.5 52.003906 M 37.75 53.210938 C 33.089844 54.707031 29.761719 56.457031 26.464844 59.140625 C 22.617188 62.273438 18.535156 64.804688 13.359375 67.265625 L 8.886719 69.386719 L 10.921875 71.421875 C 12.042969 72.542969 13.8125 73.886719 14.855469 74.414062 L 16.75 75.367188 L 17.988281 72.808594 C 19.601562 69.472656 26.789062 62.300781 30.90625 59.921875 C 32.640625 58.917969 35.941406 57.488281 38.238281 56.738281 C 42.632812 55.308594 43.667969 54.253906 42.070312 52.820312 C 41.34375 52.171875 40.847656 52.214844 37.75 53.210938 M 57.878906 52.914062 C 56.550781 54.492188 57.386719 55.316406 61.742188 56.734375 C 64.050781 57.484375 67.359375 58.917969 69.09375 59.917969 C 73.160156 62.257812 80.359375 69.449219 82 72.808594 L 83.25 75.367188 L 85.019531 74.476562 C 85.992188 73.988281 87.761719 72.640625 88.953125 71.488281 L 91.113281 69.390625 L 86.644531 67.265625 C 81.429688 64.789062 77.359375 62.257812 73.503906 59.101562 C 70.535156 56.671875 65.308594 54.011719 61.167969 52.820312 C 58.808594 52.144531 58.523438 52.152344 57.878906 52.914062 M 38.222656 58.472656 C 36.835938 58.96875 34.921875 59.757812 33.972656 60.226562 C 31.488281 61.460938 26 65.175781 26 65.621094 C 26 66.171875 30.445312 66.078125 32.597656 65.480469 C 33.613281 65.199219 35.359375 64.203125 36.484375 63.265625 C 37.605469 62.328125 38.933594 61.429688 39.433594 61.269531 C 40.671875 60.878906 42.234375 57.429688 41.125 57.535156 C 40.917969 57.554688 39.613281 57.976562 38.222656 58.472656 M 58.5 57.976562 C 58.5 59.0625 59.714844 61 60.566406 61.269531 C 61.066406 61.429688 62.394531 62.328125 63.515625 63.265625 C 65.871094 65.230469 68.214844 66.003906 71.75 65.976562 L 74.25 65.957031 L 72.367188 64.296875 C 70.089844 62.28125 65.539062 59.804688 61.683594 58.476562 C 58.382812 57.339844 58.5 57.359375 58.5 57.976562 M 47.617188 59.515625 C 46.410156 60.613281 45.492188 61 44.089844 61 C 42.289062 61 42.148438 61.121094 41.125 63.542969 C 40.175781 65.789062 40.148438 66.046875 40.898438 65.730469 C 42.941406 64.867188 47.464844 64.015625 50 64.015625 C 52.535156 64.015625 57.058594 64.867188 59.101562 65.730469 C 59.851562 66.046875 59.824219 65.789062 58.875 63.542969 C 57.855469 61.125 57.707031 61 55.917969 61 C 54.539062 61 53.578125 60.597656 52.328125 59.5 C 50.214844 57.644531 49.671875 57.648438 47.617188 59.515625 M 37.5 64.542969 C 36.539062 65.378906 35.019531 66.386719 34.125 66.789062 C 32.417969 67.550781 29.953125 70.582031 27.699219 74.695312 L 26.359375 77.144531 L 27.804688 76.792969 C 30.039062 76.246094 32.851562 74.195312 34.550781 71.867188 C 35.894531 70.023438 39.742188 62.976562 39.382812 63.011719 C 39.308594 63.019531 38.460938 63.710938 37.5 64.542969 M 62.140625 66.261719 C 65.375 72.652344 68.457031 75.878906 72.195312 76.792969 L 73.640625 77.144531 L 72.300781 74.695312 C 70.140625 70.757812 67.558594 67.496094 66.183594 66.972656 C 65.480469 66.707031 63.886719 65.652344 62.640625 64.632812 L 60.375 62.777344 L 62.140625 66.261719 M 46.175781 66.023438 C 42.632812 66.648438 38.917969 68.175781 38.183594 69.308594 C 37.683594 70.082031 37.769531 70.710938 38.664062 72.824219 C 39.261719 74.238281 40.09375 75.894531 40.511719 76.5 L 41.273438 77.601562 L 43.511719 76.425781 C 46.671875 74.765625 53.273438 74.742188 56.355469 76.382812 C 57.511719 76.996094 58.558594 77.5 58.679688 77.5 C 59.035156 77.5 60.734375 74.429688 61.632812 72.160156 C 62.414062 70.199219 62.410156 70.003906 61.609375 69.058594 C 59.691406 66.804688 51.199219 65.132812 46.175781 66.023438 M 21.859375 69.875 C 19.996094 72.429688 18.5 75.140625 18.5 75.953125 C 18.5 76.226562 19.34375 76.589844 20.375 76.757812 C 21.40625 76.921875 22.742188 77.15625 23.339844 77.28125 C 24.089844 77.433594 24.523438 77.210938 24.726562 76.574219 C 24.886719 76.066406 26.226562 73.816406 27.699219 71.574219 L 30.382812 67.5 L 23.585938 67.5 L 21.859375 69.875 M 71.179688 69.875 C 72.097656 71.179688 73.503906 73.429688 74.300781 74.871094 C 75.25 76.589844 76.003906 77.417969 76.5 77.28125 C 76.910156 77.167969 78.207031 76.925781 79.375 76.742188 C 80.640625 76.546875 81.5 76.144531 81.5 75.746094 C 81.5 75.382812 80.359375 73.378906 78.964844 71.292969 L 76.425781 67.5 L 69.5 67.5 L 71.179688 69.875 M 45.613281 77.441406 C 42.410156 78.550781 42.175781 78.757812 43.019531 79.773438 C 45.949219 83.304688 54.0625 83.289062 57 79.75 C 57.851562 78.722656 57.339844 78.328125 53.785156 77.246094 C 50.601562 76.28125 48.851562 76.324219 45.613281 77.441406 "/>
</g>
</svg>
