<?xml version="1.0" encoding="UTF-8"?>
<svg xmlns="http://www.w3.org/2000/svg" xmlns:xlink="http://www.w3.org/1999/xlink" width="24px" height="24px" viewBox="0 0 24 24" version="1.1">
<g id="surface1">
<path style=" stroke:none;fill-rule:evenodd;fill:rgb(0%,0%,0%);fill-opacity:1;" d="M 0.636719 3.855469 C 0.078125 4.140625 0.0625 5.105469 0.601562 5.796875 C 0.90625 6.183594 0.902344 6.257812 0.527344 7.328125 C -0.226562 9.488281 0.503906 12.429688 1.898438 12.847656 L 2.363281 12.988281 L 2.035156 13.601562 C 1.445312 14.707031 1.335938 15.871094 1.746094 16.6875 C 1.832031 16.855469 2.136719 17.210938 2.429688 17.476562 C 4.351562 19.25 6.777344 19.414062 8.269531 17.875 C 8.542969 17.59375 8.777344 17.386719 8.792969 17.414062 C 8.808594 17.4375 8.976562 17.769531 9.164062 18.152344 C 9.554688 18.925781 10.230469 19.679688 10.824219 20 C 11.359375 20.285156 12.640625 20.285156 13.175781 20 C 13.769531 19.679688 14.445312 18.925781 14.835938 18.152344 C 15.023438 17.769531 15.191406 17.4375 15.207031 17.414062 C 15.222656 17.386719 15.457031 17.59375 15.730469 17.875 C 17.242188 19.4375 19.675781 19.25 21.628906 17.421875 C 22.667969 16.449219 22.777344 15.21875 21.972656 13.625 L 21.640625 12.96875 L 21.988281 12.894531 C 22.789062 12.71875 23.496094 11.542969 23.75 9.964844 C 23.882812 9.136719 23.769531 8.210938 23.402344 7.140625 C 23.101562 6.269531 23.101562 6.179688 23.410156 5.746094 C 24.214844 4.617188 23.714844 3.5625 22.46875 3.761719 C 21.179688 3.96875 18.980469 4.921875 17.554688 5.898438 C 16.554688 6.578125 14.472656 8.578125 14.097656 9.214844 C 13.96875 9.425781 13.796875 9.601562 13.710938 9.601562 C 13.480469 9.601562 13.378906 9.242188 13.542969 8.984375 C 13.617188 8.863281 13.679688 8.6875 13.679688 8.597656 C 13.679688 8.503906 13.816406 8.128906 13.988281 7.757812 C 14.386719 6.882812 14.714844 5.308594 14.535156 5.128906 C 14.347656 4.9375 14.308594 5.015625 14.097656 6.003906 C 13.996094 6.496094 13.789062 7.167969 13.636719 7.5 L 13.359375 8.101562 L 12.039062 8.089844 C 11.3125 8.082031 10.65625 8.039062 10.582031 7.992188 C 10.433594 7.902344 9.902344 6.234375 9.78125 5.480469 C 9.667969 4.800781 9.410156 4.984375 9.457031 5.710938 C 9.496094 6.289062 10.007812 7.929688 10.472656 8.960938 C 10.613281 9.269531 10.515625 9.601562 10.289062 9.601562 C 10.203125 9.601562 10.042969 9.453125 9.933594 9.269531 C 9.550781 8.621094 8.003906 7.070312 6.980469 6.300781 C 4.769531 4.636719 1.542969 3.394531 0.636719 3.855469 M 1.199219 4.167969 C 1.199219 4.203125 1.546875 4.597656 1.96875 5.046875 C 2.390625 5.496094 2.773438 5.96875 2.8125 6.097656 C 2.875 6.296875 3.023438 6.34375 3.753906 6.386719 C 4.230469 6.417969 4.636719 6.429688 4.65625 6.414062 C 4.675781 6.402344 4.511719 6.058594 4.296875 5.65625 C 3.9375 4.988281 3.839844 4.898438 3.25 4.671875 C 2.503906 4.390625 1.199219 4.070312 1.199219 4.167969 M 21.898438 4.320312 C 20.355469 4.714844 20.144531 4.847656 19.703125 5.65625 C 19.488281 6.0625 19.324219 6.402344 19.34375 6.414062 C 19.363281 6.429688 19.761719 6.417969 20.230469 6.386719 C 21.042969 6.335938 21.085938 6.320312 21.289062 5.945312 C 21.40625 5.726562 21.800781 5.246094 22.164062 4.871094 C 22.53125 4.496094 22.808594 4.171875 22.785156 4.148438 C 22.761719 4.125 22.363281 4.203125 21.898438 4.320312 M 0.601562 4.707031 C 0.601562 4.953125 0.71875 5.277344 0.898438 5.519531 C 1.066406 5.742188 1.199219 6.058594 1.199219 6.21875 C 1.199219 6.5 1.226562 6.507812 1.761719 6.4375 C 2.070312 6.394531 2.347656 6.332031 2.375 6.304688 C 2.507812 6.171875 1.515625 4.957031 0.945312 4.550781 L 0.601562 4.304688 L 0.601562 4.707031 M 22.792969 4.777344 C 22.234375 5.273438 21.519531 6.199219 21.621094 6.300781 C 21.652344 6.332031 21.929688 6.394531 22.238281 6.4375 C 22.769531 6.507812 22.800781 6.496094 22.800781 6.234375 C 22.800781 6.078125 22.9375 5.753906 23.109375 5.507812 C 23.320312 5.203125 23.40625 4.941406 23.378906 4.679688 L 23.339844 4.292969 L 22.792969 4.777344 M 4.792969 5.746094 C 5.636719 7.398438 8.148438 9.652344 9.875 10.308594 C 10.195312 10.429688 10.199219 10.425781 10.066406 10.167969 C 9.464844 9.03125 7.425781 7.011719 5.84375 5.988281 C 5.242188 5.597656 4.703125 5.28125 4.652344 5.28125 C 4.597656 5.28125 4.664062 5.488281 4.792969 5.746094 M 18.152344 5.992188 C 17.546875 6.382812 16.589844 7.148438 16.023438 7.691406 C 15.03125 8.640625 13.707031 10.269531 13.828125 10.386719 C 13.953125 10.511719 15.640625 9.527344 16.566406 8.785156 C 17.109375 8.351562 17.867188 7.597656 18.257812 7.105469 C 18.972656 6.207031 19.527344 5.28125 19.347656 5.28125 C 19.296875 5.28125 18.757812 5.601562 18.152344 5.992188 M 2.039062 6.800781 C 1.152344 6.894531 1.113281 6.921875 0.855469 7.691406 C 0.628906 8.355469 0.625 8.414062 0.8125 8.339844 C 2.289062 7.738281 3.675781 7.546875 4.796875 7.789062 C 5.613281 7.960938 5.796875 7.785156 5.304688 7.292969 C 4.824219 6.808594 3.667969 6.632812 2.039062 6.800781 M 19.5625 6.84375 C 18.960938 6.96875 18.308594 7.523438 18.460938 7.773438 C 18.539062 7.894531 18.691406 7.898438 19.203125 7.789062 C 20.101562 7.597656 21.5 7.71875 22.46875 8.074219 C 23.015625 8.273438 23.28125 8.324219 23.28125 8.226562 C 23.28125 7.902344 22.890625 6.976562 22.730469 6.914062 C 22.394531 6.785156 20.089844 6.734375 19.5625 6.84375 M 2.460938 8.210938 C 2.0625 8.300781 1.484375 8.488281 1.171875 8.625 C 0.609375 8.867188 0.601562 8.878906 0.601562 9.425781 C 0.601562 9.730469 0.640625 9.960938 0.691406 9.933594 C 1.925781 9.3125 2.796875 9.121094 4.34375 9.121094 L 5.398438 9.121094 L 5.398438 8.757812 C 5.398438 8.472656 5.328125 8.367188 5.070312 8.269531 C 4.527344 8.0625 3.230469 8.03125 2.460938 8.210938 M 5.835938 8.410156 C 5.695312 9.113281 5.976562 9.703125 6.601562 10.015625 C 6.980469 10.207031 7.871094 10.308594 8.339844 10.210938 L 8.699219 10.136719 L 8.128906 9.800781 C 7.8125 9.617188 7.210938 9.144531 6.792969 8.753906 C 6.371094 8.359375 6.003906 8.039062 5.96875 8.039062 C 5.9375 8.039062 5.875 8.207031 5.835938 8.410156 M 17.394531 8.589844 C 17.101562 8.890625 16.519531 9.363281 16.101562 9.640625 L 15.347656 10.140625 L 15.734375 10.21875 C 16.253906 10.324219 17.1875 10.167969 17.582031 9.910156 C 18.007812 9.632812 18.269531 8.980469 18.171875 8.453125 C 18.128906 8.226562 18.054688 8.039062 18.011719 8.039062 C 17.964844 8.039062 17.6875 8.289062 17.394531 8.589844 M 19.199219 8.199219 C 18.714844 8.328125 18.65625 8.378906 18.621094 8.730469 L 18.585938 9.121094 L 19.648438 9.121094 C 20.984375 9.121094 21.972656 9.296875 22.71875 9.671875 C 23.039062 9.828125 23.320312 9.960938 23.351562 9.960938 C 23.378906 9.960938 23.398438 9.714844 23.398438 9.414062 C 23.398438 8.882812 23.390625 8.867188 22.828125 8.625 C 21.609375 8.097656 20.21875 7.933594 19.199219 8.199219 M 10.828125 8.480469 C 10.597656 8.574219 10.78125 8.761719 11.105469 8.761719 C 11.4375 8.761719 11.5 8.582031 11.210938 8.472656 C 11.105469 8.433594 11.011719 8.40625 11 8.410156 C 10.988281 8.414062 10.914062 8.445312 10.828125 8.480469 M 11.785156 8.695312 C 11.710938 8.855469 11.484375 9.074219 11.285156 9.175781 C 11.085938 9.28125 10.921875 9.378906 10.921875 9.394531 C 10.921875 9.40625 11.40625 9.421875 12 9.421875 C 12.59375 9.421875 13.078125 9.40625 13.078125 9.394531 C 13.078125 9.378906 12.914062 9.28125 12.714844 9.175781 C 12.515625 9.074219 12.289062 8.855469 12.214844 8.695312 C 12.140625 8.53125 12.042969 8.398438 12 8.398438 C 11.957031 8.398438 11.859375 8.53125 11.785156 8.695312 M 12.75 8.480469 C 12.496094 8.582031 12.585938 8.761719 12.894531 8.761719 C 13.242188 8.761719 13.394531 8.574219 13.128906 8.472656 C 13.027344 8.433594 12.929688 8.40625 12.921875 8.410156 C 12.910156 8.414062 12.832031 8.445312 12.75 8.480469 M 2.890625 9.601562 C 1.832031 9.75 0.839844 10.246094 0.839844 10.625 C 0.839844 10.957031 1.035156 11.441406 1.363281 11.921875 C 1.894531 12.707031 2.996094 12.722656 3.472656 11.953125 C 3.820312 11.386719 4.84375 10.464844 5.390625 10.21875 C 5.804688 10.03125 5.835938 9.988281 5.695312 9.792969 C 5.503906 9.53125 4.089844 9.433594 2.890625 9.601562 M 18.726562 9.566406 C 18.5625 9.597656 18.367188 9.710938 18.289062 9.816406 C 18.167969 9.980469 18.21875 10.042969 18.609375 10.21875 C 19.15625 10.464844 20.179688 11.386719 20.527344 11.953125 C 21.003906 12.722656 22.105469 12.707031 22.636719 11.921875 C 22.964844 11.441406 23.160156 10.957031 23.160156 10.625 C 23.160156 9.921875 20.371094 9.261719 18.726562 9.566406 M 11.460938 9.773438 C 11.394531 9.796875 11.140625 9.855469 10.894531 9.894531 C 10.570312 9.949219 10.46875 10.015625 10.519531 10.144531 C 10.554688 10.242188 10.65625 10.320312 10.742188 10.320312 C 11.074219 10.320312 11.398438 10.929688 11.398438 11.542969 C 11.398438 12.199219 11.257812 12.558594 10.882812 12.855469 C 10.679688 13.019531 10.328125 13.851562 10.320312 14.191406 C 10.316406 14.410156 10.828125 14.246094 11.222656 13.898438 C 11.789062 13.40625 12.210938 13.40625 12.777344 13.898438 C 13.011719 14.109375 13.320312 14.28125 13.457031 14.28125 C 13.667969 14.28125 13.695312 14.230469 13.625 13.957031 C 13.484375 13.398438 13.21875 12.839844 13.089844 12.839844 C 12.863281 12.839844 12.601562 12.140625 12.601562 11.542969 C 12.601562 10.929688 12.929688 10.320312 13.257812 10.320312 C 13.558594 10.320312 13.554688 9.984375 13.253906 9.910156 C 12.855469 9.808594 11.605469 9.714844 11.460938 9.773438 M 5.359375 10.707031 C 4.742188 11.039062 3.71875 12.039062 3.855469 12.175781 C 3.882812 12.203125 4.417969 12.152344 5.042969 12.066406 C 5.667969 11.976562 6.972656 11.835938 7.941406 11.75 L 9.703125 11.597656 L 9.78125 11.179688 C 9.832031 10.894531 9.808594 10.730469 9.699219 10.660156 C 9.613281 10.605469 9.054688 10.589844 8.460938 10.628906 C 7.65625 10.679688 7.226562 10.648438 6.78125 10.511719 C 6.449219 10.40625 6.152344 10.324219 6.121094 10.324219 C 6.085938 10.324219 5.746094 10.496094 5.359375 10.707031 M 17.160156 10.519531 C 16.769531 10.648438 16.324219 10.675781 15.539062 10.625 C 14.945312 10.589844 14.386719 10.605469 14.300781 10.660156 C 14.191406 10.734375 14.167969 10.894531 14.222656 11.183594 L 14.300781 11.601562 L 16.058594 11.753906 C 17.027344 11.839844 18.332031 11.976562 18.957031 12.066406 C 19.582031 12.152344 20.117188 12.203125 20.144531 12.175781 C 20.285156 12.035156 19.25 11.035156 18.625 10.703125 C 17.816406 10.273438 17.890625 10.28125 17.160156 10.519531 M 10.324219 10.910156 C 10.125 11.285156 10.171875 12.195312 10.402344 12.425781 C 10.59375 12.617188 10.621094 12.613281 10.824219 12.359375 C 11.089844 12.03125 11.105469 11.308594 10.851562 10.945312 C 10.625 10.617188 10.484375 10.609375 10.324219 10.910156 M 13.148438 10.945312 C 12.894531 11.308594 12.910156 12.03125 13.175781 12.359375 C 13.378906 12.613281 13.40625 12.617188 13.597656 12.425781 C 13.941406 12.082031 13.816406 10.679688 13.441406 10.679688 C 13.382812 10.679688 13.25 10.800781 13.148438 10.945312 M 8.640625 12.105469 C 8.40625 12.148438 7.734375 12.433594 7.140625 12.738281 C 5.765625 13.453125 4.519531 13.945312 3.234375 14.289062 C 2.675781 14.4375 2.152344 14.640625 2.070312 14.742188 C 1.875 14.980469 1.867188 16.199219 2.0625 16.199219 C 2.386719 16.199219 4.695312 14.941406 5.464844 14.34375 C 6.734375 13.359375 7.761719 12.765625 8.820312 12.414062 C 9.347656 12.238281 9.800781 12.074219 9.828125 12.046875 C 9.898438 11.980469 9.148438 12.019531 8.640625 12.105469 M 14.160156 12.035156 C 14.191406 12.066406 14.652344 12.238281 15.179688 12.414062 C 16.238281 12.765625 17.265625 13.359375 18.535156 14.34375 C 19.304688 14.941406 21.613281 16.199219 21.9375 16.199219 C 22.132812 16.199219 22.125 14.980469 21.929688 14.742188 C 21.847656 14.640625 21.324219 14.4375 20.765625 14.289062 C 19.449219 13.9375 18.207031 13.445312 16.832031 12.722656 C 15.960938 12.265625 15.546875 12.121094 14.910156 12.054688 C 14.464844 12.007812 14.128906 12 14.160156 12.035156 M 5.367188 12.425781 C 3.085938 12.734375 2.933594 12.789062 2.585938 13.378906 C 2.417969 13.667969 2.28125 13.957031 2.28125 14.023438 C 2.28125 14.273438 5.660156 13.128906 6.839844 12.480469 L 7.261719 12.25 L 6.898438 12.257812 C 6.703125 12.261719 6.011719 12.335938 5.367188 12.425781 M 17.160156 12.480469 C 18.339844 13.128906 21.71875 14.273438 21.71875 14.023438 C 21.71875 13.957031 21.582031 13.667969 21.414062 13.378906 C 21.0625 12.78125 20.933594 12.738281 18.539062 12.421875 C 16.777344 12.1875 16.636719 12.191406 17.160156 12.480469 M 9.058594 12.769531 C 7.941406 13.128906 7.140625 13.550781 6.351562 14.195312 C 5.429688 14.945312 4.449219 15.554688 3.207031 16.144531 L 2.132812 16.652344 L 2.621094 17.140625 C 2.890625 17.410156 3.316406 17.734375 3.566406 17.859375 L 4.019531 18.089844 L 4.316406 17.472656 C 4.703125 16.671875 6.429688 14.953125 7.417969 14.382812 C 7.832031 14.140625 8.625 13.796875 9.175781 13.617188 C 10.230469 13.273438 10.480469 13.019531 10.097656 12.675781 C 9.921875 12.519531 9.804688 12.53125 9.058594 12.769531 M 13.890625 12.699219 C 13.574219 13.078125 13.773438 13.277344 14.820312 13.617188 C 15.371094 13.796875 16.167969 14.140625 16.582031 14.378906 C 17.558594 14.941406 19.285156 16.667969 19.679688 17.472656 L 19.980469 18.089844 L 20.40625 17.875 C 20.636719 17.757812 21.0625 17.433594 21.347656 17.15625 L 21.867188 16.652344 L 20.792969 16.144531 C 19.542969 15.550781 18.566406 14.941406 17.640625 14.183594 C 16.929688 13.601562 15.675781 12.960938 14.679688 12.675781 C 14.113281 12.515625 14.046875 12.515625 13.890625 12.699219 M 9.175781 14.035156 C 8.839844 14.152344 8.382812 14.339844 8.152344 14.453125 C 7.558594 14.75 6.238281 15.640625 6.238281 15.75 C 6.238281 15.882812 7.304688 15.859375 7.824219 15.714844 C 8.066406 15.648438 8.488281 15.410156 8.753906 15.183594 C 9.023438 14.957031 9.34375 14.742188 9.464844 14.703125 C 9.761719 14.609375 10.136719 13.78125 9.871094 13.808594 C 9.820312 13.8125 9.507812 13.914062 9.175781 14.035156 M 14.039062 13.914062 C 14.039062 14.175781 14.332031 14.640625 14.535156 14.703125 C 14.65625 14.742188 14.976562 14.957031 15.246094 15.183594 C 15.808594 15.65625 16.371094 15.839844 17.21875 15.835938 L 17.820312 15.828125 L 17.367188 15.429688 C 16.820312 14.949219 15.730469 14.351562 14.804688 14.035156 C 14.011719 13.761719 14.039062 13.765625 14.039062 13.914062 M 11.429688 14.285156 C 11.136719 14.546875 10.917969 14.640625 10.582031 14.640625 C 10.148438 14.640625 10.113281 14.667969 9.871094 15.25 C 9.640625 15.789062 9.636719 15.851562 9.816406 15.773438 C 10.304688 15.566406 11.390625 15.363281 12 15.363281 C 12.609375 15.363281 13.695312 15.566406 14.183594 15.773438 C 14.363281 15.851562 14.359375 15.789062 14.128906 15.25 C 13.886719 14.671875 13.851562 14.640625 13.421875 14.640625 C 13.089844 14.640625 12.859375 14.542969 12.558594 14.28125 C 12.050781 13.835938 11.921875 13.835938 11.429688 14.285156 M 9 15.492188 C 8.769531 15.691406 8.40625 15.933594 8.191406 16.027344 C 7.78125 16.210938 7.1875 16.941406 6.648438 17.925781 L 6.328125 18.515625 L 6.671875 18.429688 C 7.210938 18.300781 7.882812 17.804688 8.292969 17.246094 C 8.613281 16.804688 9.539062 15.113281 9.453125 15.125 C 9.433594 15.125 9.230469 15.289062 9 15.492188 M 14.914062 15.902344 C 15.691406 17.4375 16.429688 18.210938 17.328125 18.429688 L 17.671875 18.515625 L 17.351562 17.925781 C 16.832031 16.980469 16.214844 16.199219 15.882812 16.074219 C 15.714844 16.007812 15.332031 15.757812 15.035156 15.511719 L 14.488281 15.066406 L 14.914062 15.902344 M 11.082031 15.84375 C 10.230469 15.996094 9.339844 16.363281 9.164062 16.632812 C 9.042969 16.820312 9.066406 16.972656 9.277344 17.476562 C 9.421875 17.816406 9.621094 18.214844 9.722656 18.359375 L 9.90625 18.625 L 10.441406 18.34375 C 11.203125 17.945312 12.785156 17.9375 13.523438 18.332031 C 13.804688 18.480469 14.054688 18.601562 14.082031 18.601562 C 14.167969 18.601562 14.574219 17.863281 14.792969 17.316406 C 14.980469 16.847656 14.980469 16.800781 14.785156 16.574219 C 14.324219 16.03125 12.289062 15.632812 11.082031 15.84375 M 5.246094 16.769531 C 4.800781 17.382812 4.441406 18.035156 4.441406 18.230469 C 4.441406 18.292969 4.640625 18.382812 4.890625 18.421875 C 5.136719 18.460938 5.457031 18.519531 5.601562 18.546875 C 5.78125 18.582031 5.886719 18.53125 5.933594 18.378906 C 5.972656 18.257812 6.292969 17.714844 6.648438 17.179688 L 7.292969 16.199219 L 5.660156 16.199219 L 5.246094 16.769531 M 17.082031 16.769531 C 17.304688 17.082031 17.640625 17.621094 17.832031 17.96875 C 18.058594 18.382812 18.242188 18.582031 18.359375 18.546875 C 18.457031 18.519531 18.769531 18.460938 19.050781 18.417969 C 19.355469 18.371094 19.558594 18.273438 19.558594 18.179688 C 19.558594 18.09375 19.285156 17.609375 18.953125 17.109375 L 18.34375 16.199219 L 16.679688 16.199219 L 17.082031 16.769531 M 10.949219 18.585938 C 10.179688 18.851562 10.121094 18.902344 10.324219 19.144531 C 11.027344 19.992188 12.976562 19.988281 13.679688 19.140625 C 13.882812 18.894531 13.761719 18.796875 12.90625 18.539062 C 12.144531 18.308594 11.726562 18.316406 10.949219 18.585938 "/>
</g>
</svg>
