<?xml version="1.0" encoding="UTF-8"?>
<svg xmlns="http://www.w3.org/2000/svg" xmlns:xlink="http://www.w3.org/1999/xlink" width="24px" height="24px" viewBox="0 0 24 24" version="1.1">
<g id="surface1">
<path style=" stroke:none;fill-rule:evenodd;fill:rgb(0%,0%,0%);fill-opacity:1;" d="M 14.375 5.664062 L 11.332031 10.609375 L 6.535156 14.351562 C 2.148438 17.769531 1.710938 18.144531 1.398438 18.734375 C 1.089844 19.3125 1.0625 19.46875 1.109375 20.25 C 1.148438 20.875 1.121094 21.15625 1.007812 21.25 C 0.601562 21.585938 0.679688 21.851562 1.394531 22.574219 C 1.777344 22.960938 2.152344 23.28125 2.226562 23.28125 C 2.300781 23.28125 2.457031 23.175781 2.570312 23.050781 C 2.753906 22.847656 2.894531 22.828125 3.664062 22.886719 C 4.453125 22.945312 4.617188 22.917969 5.191406 22.640625 C 5.769531 22.355469 6.207031 21.882812 9.425781 18.058594 C 12.027344 14.96875 13.078125 13.632812 13.238281 13.21875 L 13.453125 12.644531 L 18.097656 10.511719 C 20.652344 9.335938 22.863281 8.300781 23.011719 8.207031 C 23.238281 8.058594 23.28125 7.929688 23.28125 7.332031 C 23.28125 6.851562 23.222656 6.582031 23.097656 6.480469 C 22.925781 6.335938 22.003906 6.621094 17.101562 8.347656 C 16.96875 8.394531 18.304688 6.980469 20.070312 5.203125 C 21.835938 3.429688 23.28125 1.921875 23.28125 1.855469 C 23.28125 1.691406 22.289062 0.71875 22.125 0.71875 C 22.058594 0.71875 21.085938 1.542969 19.964844 2.550781 C 18.84375 3.554688 17.828125 4.460938 17.703125 4.558594 C 17.429688 4.78125 17.398438 4.84375 18.644531 2.710938 C 19.765625 0.792969 19.757812 0.71875 18.367188 0.71875 L 17.417969 0.71875 L 14.375 5.664062 M 14.910156 6.269531 C 13.320312 8.859375 11.894531 11.097656 11.738281 11.238281 C 11.585938 11.382812 9.433594 13.070312 6.960938 14.996094 C 4.484375 16.921875 2.34375 18.660156 2.199219 18.863281 C 1.859375 19.339844 1.75 20.007812 1.914062 20.625 C 2.027344 21.035156 2.015625 21.167969 1.847656 21.421875 C 1.65625 21.714844 1.660156 21.742188 1.925781 22.023438 C 2.183594 22.300781 2.214844 22.304688 2.417969 22.121094 C 2.609375 21.949219 2.722656 21.945312 3.332031 22.074219 C 4.347656 22.289062 4.902344 22.109375 5.644531 21.328125 C 5.96875 20.992188 6.21875 20.699219 6.199219 20.679688 C 6.183594 20.660156 5.925781 20.765625 5.632812 20.914062 C 5.191406 21.132812 4.898438 21.179688 3.9375 21.179688 C 2.617188 21.179688 2.390625 21.078125 2.617188 20.582031 C 2.738281 20.320312 2.804688 20.289062 3.089844 20.367188 C 3.703125 20.539062 4.835938 20.449219 5.34375 20.183594 C 5.605469 20.046875 6.40625 19.511719 7.121094 18.992188 C 8.273438 18.152344 8.640625 17.78125 10.378906 15.71875 L 12.335938 13.390625 L 12.902344 11.847656 C 13.613281 9.902344 14.140625 8.878906 16.476562 4.882812 C 17.511719 3.113281 18.359375 1.640625 18.359375 1.613281 C 18.359375 1.582031 18.234375 1.558594 18.082031 1.558594 C 17.839844 1.558594 17.378906 2.246094 14.910156 6.269531 M 19.039062 4.417969 C 16.425781 6.804688 15.992188 7.25 15.535156 8.035156 C 15.246094 8.527344 15.039062 8.957031 15.070312 8.992188 C 15.160156 9.082031 22.316406 1.890625 22.246094 1.777344 C 22.214844 1.722656 22.148438 1.683594 22.101562 1.6875 C 22.058594 1.691406 20.679688 2.917969 19.039062 4.417969 M 20.339844 8.027344 C 19.285156 8.402344 17.519531 9.023438 16.417969 9.40625 C 15.316406 9.789062 14.390625 10.164062 14.363281 10.242188 C 14.332031 10.316406 14.195312 10.660156 14.058594 11.003906 L 13.808594 11.628906 L 14.914062 11.117188 C 15.523438 10.835938 17.464844 9.9375 19.230469 9.125 C 21.109375 8.257812 22.441406 7.578125 22.441406 7.480469 C 22.441406 7.269531 22.539062 7.242188 20.339844 8.027344 "/>
</g>
</svg>
