<?xml version="1.0" encoding="UTF-8"?>
<svg xmlns="http://www.w3.org/2000/svg" xmlns:xlink="http://www.w3.org/1999/xlink" width="100px" height="100px" viewBox="0 0 100 100" version="1.1">
<g id="surface1">
<path style=" stroke:none;fill-rule:evenodd;fill:rgb(0%,0%,0%);fill-opacity:1;" d="M 85 14.554688 C 75.34375 21.757812 64.957031 35.226562 59.964844 47.019531 C 59.097656 49.070312 58.328125 50.816406 58.257812 50.894531 C 58.1875 50.972656 57.265625 48.84375 56.203125 46.167969 C 54.097656 40.839844 50.164062 34.222656 46.703125 30.167969 C 44.714844 27.839844 38.585938 22.75 38.214844 23.117188 C 38.132812 23.199219 38.734375 25.503906 39.546875 28.242188 C 42.273438 37.40625 43.09375 43.230469 43.359375 55.25 C 43.613281 66.84375 43.324219 68.050781 41.785156 61.761719 C 38.324219 47.601562 29.769531 33.21875 19.414062 24.144531 C 16.261719 21.378906 10.492188 17.339844 10.164062 17.667969 C 10.070312 17.761719 11.207031 20.410156 12.6875 23.550781 C 16.046875 30.671875 19.953125 41.046875 21.988281 48.25 C 23.402344 53.261719 25.515625 63.910156 25.492188 65.925781 C 25.484375 66.378906 24.390625 64.699219 23.0625 62.195312 C 20.214844 56.828125 18.355469 54.027344 14.417969 49.175781 C 11.679688 45.800781 4.199219 38.5 3.480469 38.5 C 3.300781 38.5 4.261719 41.480469 5.625 45.125 C 11.058594 59.683594 14.492188 74.296875 14.542969 83.125 L 14.570312 88 L 87.863281 88 L 88.144531 78.375 C 88.523438 65.421875 90.703125 51.703125 95.179688 34.125 C 96.105469 30.480469 96.707031 27.5 96.515625 27.5 C 95.746094 27.5 89.855469 33.277344 86.945312 36.894531 C 83.035156 41.742188 80.957031 44.9375 77.601562 51.25 C 75.066406 56.019531 74.953125 56.144531 75.242188 54 C 76.363281 45.566406 81.734375 27.65625 86.152344 17.617188 C 87.390625 14.800781 88.253906 12.5 88.074219 12.503906 C 87.898438 12.503906 86.511719 13.425781 85 14.554688 "/>
</g>
</svg>
