<?xml version="1.0" encoding="UTF-8"?>
<svg xmlns="http://www.w3.org/2000/svg" xmlns:xlink="http://www.w3.org/1999/xlink" width="24px" height="24px" viewBox="0 0 24 24" version="1.1">
<g id="surface1">
<path style=" stroke:none;fill-rule:evenodd;fill:rgb(0%,0%,0%);fill-opacity:1;" d="M 13.871094 4.804688 C 9.222656 5.535156 6.140625 8.304688 4.953125 12.824219 C 4.558594 14.339844 4.445312 17.433594 4.71875 19.238281 C 4.816406 19.886719 4.921875 20.441406 4.953125 20.472656 C 4.980469 20.5 5.433594 20.390625 5.953125 20.226562 C 6.472656 20.0625 7.980469 19.710938 9.300781 19.449219 C 12.675781 18.78125 14.074219 18.265625 16.039062 16.964844 C 19.207031 14.871094 20.308594 12.261719 20.125 7.28125 C 20.085938 6.226562 20.007812 5.316406 19.949219 5.261719 C 19.574219 4.886719 15.367188 4.570312 13.871094 4.804688 M 14.070312 5.28125 C 8.378906 6.085938 5.011719 10.292969 5.054688 16.558594 C 5.058594 17.253906 5.097656 18.089844 5.144531 18.421875 L 5.226562 19.019531 L 5.386719 18.539062 C 5.722656 17.539062 6.515625 15.652344 6.675781 15.484375 C 6.796875 15.355469 6.875 15.34375 6.972656 15.445312 C 7.074219 15.546875 6.992188 15.851562 6.652344 16.640625 C 6.203125 17.683594 5.507812 19.707031 5.574219 19.773438 C 5.59375 19.792969 6.007812 19.699219 6.492188 19.570312 C 6.980469 19.4375 8.109375 19.191406 9 19.023438 C 12.335938 18.394531 14.148438 17.726562 16.027344 16.425781 C 17.800781 15.199219 18.96875 13.484375 19.367188 11.519531 C 19.605469 10.335938 19.710938 8.144531 19.59375 6.71875 L 19.5 5.582031 L 18.71875 5.433594 C 17.679688 5.234375 15.003906 5.148438 14.070312 5.28125 M 16.652344 6.238281 C 16.078125 6.433594 15.1875 6.804688 14.671875 7.0625 C 13.199219 7.804688 10.558594 9.789062 10.558594 10.15625 C 10.558594 10.476562 10.949219 10.3125 11.722656 9.65625 C 13.480469 8.164062 15.367188 7.113281 17.28125 6.5625 C 17.960938 6.363281 18.3125 6.203125 18.339844 6.074219 C 18.398438 5.777344 17.859375 5.832031 16.652344 6.238281 M 14.335938 9.410156 C 13.847656 9.621094 13.347656 10.234375 13.253906 10.734375 C 12.980469 12.191406 14.441406 13.097656 15.933594 12.394531 C 16.457031 12.148438 16.96875 11.289062 16.867188 10.828125 C 16.734375 10.226562 16.332031 9.714844 15.808594 9.476562 C 15.214844 9.207031 14.839844 9.1875 14.335938 9.410156 M 14.324219 9.949219 C 13.582031 10.402344 13.527344 11.660156 14.230469 11.980469 C 14.957031 12.3125 16.007812 11.9375 16.246094 11.257812 C 16.476562 10.605469 15.757812 9.722656 15 9.722656 C 14.835938 9.722656 14.53125 9.824219 14.324219 9.949219 M 8.007812 10.75 C 6.304688 11.636719 5.988281 14.203125 7.460938 15.179688 C 8.824219 16.082031 10.652344 15.722656 11.699219 14.351562 C 12.554688 13.230469 11.960938 11.386719 10.523438 10.691406 C 9.785156 10.335938 8.757812 10.359375 8.007812 10.75 M 14.257812 10.742188 C 14.148438 10.976562 14.152344 11.082031 14.265625 11.191406 C 14.386719 11.308594 14.453125 11.292969 14.589844 11.105469 C 14.683594 10.980469 14.761719 10.777344 14.761719 10.65625 C 14.761719 10.335938 14.414062 10.394531 14.257812 10.742188 M 8.324219 11.148438 C 7.398438 11.570312 6.867188 12.671875 7.097656 13.695312 C 7.261719 14.425781 7.394531 14.609375 7.953125 14.898438 C 8.917969 15.390625 10.117188 15.199219 10.960938 14.417969 C 11.644531 13.78125 11.789062 13.1875 11.453125 12.386719 C 10.929688 11.132812 9.558594 10.589844 8.324219 11.148438 M 7.953125 11.976562 C 7.785156 12.082031 7.441406 12.863281 7.441406 13.136719 C 7.441406 13.238281 7.542969 13.320312 7.679688 13.320312 C 7.8125 13.320312 7.921875 13.25 7.921875 13.164062 C 7.921875 13.082031 8.015625 12.820312 8.136719 12.585938 C 8.421875 12.023438 8.335938 11.734375 7.953125 11.976562 "/>
</g>
</svg>
