<?xml version="1.0" encoding="UTF-8"?>
<svg xmlns="http://www.w3.org/2000/svg" xmlns:xlink="http://www.w3.org/1999/xlink" width="100px" height="100px" viewBox="0 0 100 100" version="1.1">
<g id="surface1">
<path style=" stroke:none;fill-rule:evenodd;fill:rgb(0%,0%,0%);fill-opacity:1;" d="M 13.5 21.246094 C 13.5 21.65625 14.851562 23.816406 16.5 26.039062 C 20.515625 31.457031 20.480469 33.089844 16.277344 35.980469 C 13.628906 37.804688 13.246094 38.78125 14.078125 41.566406 C 14.617188 43.367188 14.605469 43.710938 13.980469 43.902344 C 13.578125 44.027344 12.179688 45.25 10.871094 46.625 C 8.851562 48.746094 8.378906 49.023438 7.722656 48.476562 C 7.085938 47.949219 6.808594 47.976562 6.15625 48.628906 C 5.195312 49.589844 5.625 50.996094 6.992188 51.351562 C 7.53125 51.496094 8.53125 52.601562 9.207031 53.816406 C 10.238281 55.65625 10.355469 56.261719 9.929688 57.488281 C 9.542969 58.589844 9.613281 59.636719 10.207031 61.679688 C 11.84375 67.304688 11.003906 69.6875 6.871094 71.117188 C 5.867188 71.464844 5.089844 71.976562 5.144531 72.25 C 5.308594 73.023438 7.996094 72.582031 9.753906 71.5 C 12.546875 69.773438 13.195312 66.566406 11.726562 61.75 C 10.894531 59.023438 11.109375 57 12.230469 57 C 13.253906 57 14.5 55.011719 14.5 53.382812 C 14.5 52.609375 14.054688 51.609375 13.5 51.132812 C 12.160156 49.988281 12.214844 49.820312 14.257812 48.847656 C 16.941406 47.566406 17.371094 46.113281 16.074219 42.71875 C 15.484375 41.175781 15 39.625 15 39.273438 C 15 38.921875 15.910156 38.03125 17.019531 37.296875 C 19.332031 35.765625 20.996094 33.332031 20.996094 31.476562 C 21 30.234375 19.5 27.632812 16.027344 22.863281 C 14.253906 20.429688 13.5 19.945312 13.5 21.246094 M 10.585938 27.234375 C 10.894531 27.914062 11.339844 28.347656 11.574219 28.203125 C 12.089844 27.886719 11.164062 26 10.492188 26 C 10.222656 26 10.261719 26.523438 10.585938 27.234375 M 12.378906 26.789062 C 11.949219 27.21875 12.867188 29 13.515625 29 C 14.179688 29 14.121094 28.359375 13.363281 27.316406 C 13.011719 26.835938 12.566406 26.597656 12.378906 26.789062 M 89.296875 29.050781 C 88.792969 29.90625 86.15625 32.835938 83.441406 35.558594 C 79.207031 39.804688 78.5 40.746094 78.5 42.144531 C 78.5 44.273438 79.535156 45.683594 82.273438 47.289062 C 84.820312 48.78125 84.984375 49.535156 83.433594 52.515625 C 82.078125 55.117188 82.664062 56.675781 85.464844 57.929688 C 87.269531 58.734375 87.347656 58.851562 86.472656 59.402344 C 85.085938 60.265625 84.734375 62.269531 85.707031 63.753906 C 86.15625 64.4375 86.851562 65 87.253906 65 C 88.414062 65 88.671875 67.273438 87.800781 69.828125 C 86.578125 73.414062 86.757812 74.855469 88.65625 76.753906 C 90.277344 78.378906 94.039062 79.84375 95.019531 79.238281 C 95.855469 78.722656 95.132812 78.167969 92.742188 77.5 C 90.265625 76.804688 88.5 75.035156 88.5 73.246094 C 88.5 72.628906 88.847656 71.140625 89.273438 69.9375 C 89.75 68.585938 89.925781 67.050781 89.738281 65.921875 C 89.492188 64.472656 89.695312 63.667969 90.71875 62.046875 C 91.527344 60.769531 92.386719 60 93.007812 60 C 93.726562 60 94 59.664062 94 58.78125 C 94 57.289062 93.300781 56.78125 92.136719 57.433594 C 91.449219 57.820312 90.792969 57.484375 88.980469 55.835938 C 87.722656 54.6875 86.28125 53.515625 85.773438 53.226562 C 85.011719 52.796875 84.953125 52.523438 85.425781 51.636719 C 86.640625 49.371094 86.160156 48.089844 83.492188 46.449219 C 78.609375 43.445312 78.769531 42.3125 84.960938 36.085938 C 89.710938 31.3125 91.820312 28.488281 91.148438 27.8125 C 90.578125 27.246094 90.226562 27.480469 89.296875 29.050781 M 27.277344 30.613281 C 26.6875 31.457031 26.5 33.0625 26.5 37.304688 L 26.5 42.882812 L 24.617188 44.585938 C 23.582031 45.519531 21.316406 47.148438 19.578125 48.203125 C 17.519531 49.453125 16.589844 50.289062 16.910156 50.609375 C 17.179688 50.878906 19.101562 51.289062 21.183594 51.523438 C 25.957031 52.058594 26.839844 52.542969 27.496094 54.992188 C 28.285156 57.917969 29.347656 58.09375 45.164062 57.90625 C 57.769531 57.757812 58.625 57.691406 59.289062 56.78125 C 59.859375 56.003906 60 53.332031 60 43.480469 C 60 32.175781 59.925781 31.085938 59.085938 30.328125 C 58.277344 29.597656 56.421875 29.5 43.113281 29.5 C 28.121094 29.5 28.054688 29.503906 27.277344 30.613281 M 28.339844 31.324219 C 28.152344 31.511719 28 34.210938 28 37.316406 C 28 42.957031 27.996094 42.96875 26.402344 44.785156 C 25.523438 45.785156 23.71875 47.335938 22.390625 48.230469 L 19.972656 49.859375 L 22.535156 50.160156 C 25.871094 50.554688 28.074219 51.867188 28.582031 53.757812 C 29.300781 56.453125 29.574219 56.5 43.96875 56.492188 C 51.273438 56.488281 57.535156 56.304688 57.882812 56.082031 C 58.375 55.769531 58.488281 52.902344 58.382812 43.464844 L 58.25 31.25 L 43.464844 31.117188 C 35.335938 31.046875 28.527344 31.136719 28.339844 31.324219 M 8.523438 32.453125 C 7.761719 33.882812 7.871094 34.703125 9.035156 36.183594 C 10.175781 37.632812 12.5 38.011719 12.5 36.75 C 12.5 36.335938 12.078125 36 11.5625 36 C 10.214844 36 9.335938 34.722656 9.695312 33.285156 C 10.082031 31.746094 9.226562 31.140625 8.523438 32.453125 M 13.808594 32.542969 C 12.847656 33.300781 12.585938 33.789062 12.953125 34.152344 C 13.316406 34.515625 13.757812 34.421875 14.402344 33.839844 C 15.648438 32.710938 16.148438 32.777344 15.398438 33.976562 C 14.542969 35.347656 15.285156 35.847656 16.519531 34.734375 C 17.789062 33.582031 17.617188 31.804688 16.21875 31.601562 C 15.65625 31.523438 14.570312 31.945312 13.808594 32.542969 M 88.292969 38.320312 C 87.871094 39.414062 88.429688 39.917969 89.019531 38.984375 C 89.609375 38.050781 89.625 37.5 89.054688 37.5 C 88.808594 37.5 88.464844 37.871094 88.292969 38.320312 M 86.292969 38.820312 C 85.871094 39.914062 86.429688 40.417969 87.019531 39.484375 C 87.609375 38.550781 87.625 38 87.054688 38 C 86.808594 38 86.464844 38.371094 86.292969 38.820312 M 62.347656 40.820312 C 61.503906 41.664062 62.972656 42 67.476562 42 C 71.5 42 72.449219 42.144531 72.695312 42.789062 C 72.863281 43.226562 73 46.027344 73 49.015625 L 73 54.453125 L 74.773438 56.175781 C 75.75 57.125 77.214844 58.175781 78.023438 58.511719 C 78.835938 58.847656 79.488281 59.261719 79.46875 59.433594 C 79.453125 59.609375 78.277344 60.320312 76.855469 61.015625 C 74.390625 62.226562 73.792969 62.933594 72.554688 66.125 L 72.023438 67.5 L 57.550781 67.5 C 49.59375 67.5 42.726562 67.363281 42.289062 67.195312 C 41.683594 66.964844 41.5 66.148438 41.5 63.695312 C 41.5 61.1875 41.339844 60.5 40.75 60.5 C 40.160156 60.5 40 61.195312 40 63.75 C 40 69.222656 39.285156 69 56.886719 69 C 73.550781 69 73.382812 69.035156 74.429688 65.535156 C 75.085938 63.347656 76.652344 62.238281 80.875 60.976562 C 82.042969 60.628906 83 60.082031 83 59.761719 C 83 59.445312 81.65625 58.539062 80.011719 57.753906 C 74.953125 55.335938 74.605469 54.734375 74.414062 47.949219 C 74.300781 43.976562 74.035156 41.890625 73.5625 41.324219 C 73.007812 40.65625 71.90625 40.5 67.773438 40.5 C 64.964844 40.5 62.523438 40.644531 62.347656 40.820312 M 40.515625 41.96875 C 39.859375 43.199219 39.828125 53.5 40.484375 53.5 C 40.757812 53.5 41.027344 51.066406 41.109375 47.875 L 41.25 42.25 L 48.238281 42.109375 C 58 41.914062 58.3125 41 48.617188 41 C 41.632812 41 40.996094 41.074219 40.515625 41.96875 M 82.601562 42.601562 C 81.675781 43.523438 81.886719 44.902344 83.042969 45.523438 C 84.386719 46.242188 84.882812 45.730469 84.089844 44.453125 C 83.484375 43.488281 83.511719 43.480469 84.917969 44.207031 C 86.273438 44.910156 87 44.828125 87 43.972656 C 87 43.664062 83.964844 42 83.398438 42 C 83.289062 42 82.929688 42.269531 82.601562 42.601562 M 90.195312 43.714844 C 90.550781 45.121094 89.445312 46.5 87.964844 46.5 C 86.820312 46.5 86.683594 47.273438 87.757812 47.683594 C 89.804688 48.46875 92.519531 45.402344 91.484375 43.472656 C 90.738281 42.078125 89.828125 42.246094 90.195312 43.714844 M 12.933594 46.414062 C 10.972656 48.167969 11.238281 48.917969 13.421875 47.789062 C 15.242188 46.847656 15.785156 46.085938 15.113281 45.414062 C 14.78125 45.078125 14.050781 45.414062 12.933594 46.414062 M 9.5 50.691406 C 9.5 50.847656 9.996094 51.996094 10.601562 53.242188 C 11.816406 55.742188 12.75 55.957031 12.75 53.738281 C 12.75 52.652344 12.359375 52.078125 11.125 51.355469 C 10.230469 50.835938 9.5 50.535156 9.5 50.691406 M 84.5 55.242188 C 84.5 55.925781 87.902344 57.761719 88.347656 57.320312 C 88.613281 57.054688 85.542969 54.5 84.960938 54.5 C 84.707031 54.5 84.5 54.835938 84.5 55.242188 M 88.125 60.246094 C 86.5 60.953125 85.90625 62.574219 87.023438 63.261719 C 87.6875 63.675781 88.515625 62.976562 89.652344 61.039062 C 90.660156 59.324219 90.472656 59.226562 88.125 60.246094 "/>
</g>
</svg>
