<?xml version="1.0" encoding="UTF-8"?>
<svg xmlns="http://www.w3.org/2000/svg" xmlns:xlink="http://www.w3.org/1999/xlink" width="100px" height="100px" viewBox="0 0 100 100" version="1.1">
<g id="surface1">
<path style=" stroke:none;fill-rule:evenodd;fill:rgb(0%,0%,0%);fill-opacity:1;" d="M 24.054688 13.683594 C 23.707031 14.101562 23.496094 14.964844 23.585938 15.597656 C 23.746094 16.722656 23.898438 16.753906 30.125 16.890625 L 36.5 17.03125 L 36.5 21.46875 L 30.433594 21.609375 C 24.949219 21.738281 24.304688 21.847656 23.6875 22.78125 C 23.105469 23.65625 23.109375 23.960938 23.710938 24.78125 C 24.328125 25.628906 25.171875 25.769531 30.457031 25.917969 L 36.5 26.082031 L 36.5 33.367188 L 32.816406 34.710938 C 30.792969 35.449219 27.867188 36.84375 26.316406 37.816406 L 23.5 39.578125 L 23.5 46.476562 C 23.5 52 23.648438 53.5 24.25 54 C 24.886719 54.53125 25 56.992188 25 70.460938 C 25 82.113281 25.160156 86.457031 25.601562 86.898438 C 26.464844 87.765625 74.035156 87.765625 74.898438 86.898438 C 75.339844 86.457031 75.5 82.09375 75.5 70.363281 C 75.5 56.867188 75.613281 54.3125 76.25 53.679688 C 76.839844 53.089844 77 51.554688 77 46.550781 C 77 40.574219 76.929688 40.109375 75.875 39.15625 C 71.550781 35.238281 59.539062 31.5 51.265625 31.5 L 49.101562 31.5 L 48.925781 25.339844 C 48.765625 19.65625 48.644531 19.019531 47.417969 17.164062 C 45.152344 13.742188 43.550781 13.273438 33.46875 13.085938 C 26.074219 12.949219 24.585938 13.042969 24.054688 13.683594 M 40.5 19.75 L 40.5 22 L 42.5 22 C 44.539062 22 44.875 21.558594 44.191406 19.773438 C 43.921875 19.070312 41.5625 17.5 40.773438 17.5 C 40.625 17.5 40.5 18.511719 40.5 19.75 M 40.5 29.25 C 40.5 32.289062 40.574219 32.5 41.625 32.492188 C 44.628906 32.476562 45 32.082031 45 28.941406 L 45 26 L 40.5 26 L 40.5 29.25 M 40.449219 36.789062 C 38.636719 37.179688 36.273438 37.820312 35.199219 38.214844 C 33.441406 38.859375 34.902344 38.929688 50 38.929688 C 65.425781 38.929688 66.59375 38.871094 64.75 38.179688 C 58.972656 36.019531 47.171875 35.34375 40.449219 36.789062 M 36.5 46.75 L 36.5 50.5 L 45 50.5 L 45 43 L 36.5 43 L 36.5 46.75 M 49 46.75 L 49 50.5 L 53.5 50.5 L 53.5 43 L 49 43 L 49 46.75 M 37.5 69 L 37.5 83.5 L 45 83.5 L 45 54.5 L 37.5 54.5 L 37.5 69 M 49 69 L 49 83.5 L 53 83.5 L 53 54.5 L 49 54.5 L 49 69 "/>
</g>
</svg>
