<?xml version="1.0" encoding="UTF-8"?>
<svg xmlns="http://www.w3.org/2000/svg" xmlns:xlink="http://www.w3.org/1999/xlink" width="24px" height="24px" viewBox="0 0 24 24" version="1.1">
<g id="surface1">
<path style=" stroke:none;fill-rule:evenodd;fill:rgb(0%,0%,0%);fill-opacity:1;" d="M 13.84375 1.53125 C 14.726562 3.277344 15.542969 7.378906 15.132812 8.023438 C 14.992188 8.242188 14.960938 8.171875 14.53125 6.679688 C 14.144531 5.347656 13.867188 4.679688 13.695312 4.679688 C 13.644531 4.679688 13.476562 5.261719 13.328125 5.96875 C 13.175781 6.679688 13.027344 7.304688 12.996094 7.355469 C 12.964844 7.410156 12.667969 7.058594 12.339844 6.574219 C 11.195312 4.898438 9.707031 3.644531 8.53125 3.363281 C 7.402344 3.09375 6.082031 3.667969 4.597656 5.078125 C 1.917969 7.621094 0.460938 11.414062 0.457031 15.839844 C 0.453125 19.359375 1.503906 21.6875 3.550781 22.691406 C 4.25 23.039062 4.375 23.0625 5.371094 23.023438 C 6.328125 22.984375 6.484375 22.945312 6.890625 22.632812 C 7.140625 22.445312 7.425781 22.097656 7.519531 21.867188 C 7.75 21.324219 7.742188 20.003906 7.507812 19.335938 C 7.089844 18.164062 6.03125 17.160156 5.203125 17.160156 C 4.664062 17.160156 3.851562 17.628906 3.515625 18.132812 C 3.253906 18.53125 3.21875 18.695312 3.265625 19.265625 C 3.335938 20.101562 3.78125 20.625 4.511719 20.71875 C 5.121094 20.800781 5.800781 20.375 5.859375 19.878906 C 5.90625 19.484375 5.597656 18.960938 5.320312 18.960938 C 5.136719 18.960938 5.140625 18.976562 5.320312 19.179688 C 5.570312 19.453125 5.570312 19.609375 5.332031 19.851562 C 5.0625 20.121094 4.484375 20.085938 4.1875 19.785156 C 3.984375 19.582031 3.945312 19.433594 3.996094 19.054688 C 4.121094 18.136719 4.867188 17.742188 5.636719 18.195312 C 6.046875 18.441406 6.574219 19.234375 6.671875 19.765625 C 6.8125 20.519531 6.246094 21.300781 5.335938 21.601562 C 4.953125 21.726562 4.839844 21.707031 4.257812 21.425781 C 2.730469 20.675781 2.050781 18.894531 2.199219 16.019531 C 2.300781 14.039062 2.871094 11.601562 3.515625 10.371094 L 3.695312 10.023438 L 3.761719 10.5625 C 3.800781 10.859375 3.859375 11.609375 3.894531 12.234375 C 3.929688 12.859375 4.023438 13.847656 4.097656 14.425781 L 4.230469 15.480469 L 7.066406 15.480469 L 7.691406 16.386719 C 8.285156 17.242188 8.902344 17.824219 8.722656 17.355469 C 8.683594 17.25 8.613281 16.878906 8.566406 16.53125 L 8.484375 15.898438 L 9.042969 16.492188 C 9.347656 16.816406 9.632812 17.046875 9.675781 17.003906 C 9.722656 16.960938 9.546875 16.351562 9.289062 15.652344 L 8.820312 14.378906 L 7.644531 14.457031 L 6.464844 14.539062 L 6.894531 13.945312 C 7.738281 12.769531 8.324219 11.089844 8.484375 9.40625 L 8.558594 8.597656 L 8.207031 8.847656 C 7.773438 9.15625 5.984375 11.007812 5.699219 11.445312 C 5.382812 11.925781 5.359375 11.753906 5.640625 11.007812 C 5.925781 10.242188 6.667969 9.054688 7.34375 8.28125 C 7.863281 7.683594 9.347656 6.359375 9.496094 6.359375 C 9.671875 6.359375 9.839844 7.265625 9.839844 8.242188 C 9.839844 9.292969 9.640625 10.417969 9.25 11.578125 C 9.113281 11.976562 9.003906 12.355469 9.003906 12.425781 C 8.992188 12.820312 11.898438 14.53125 13.582031 15.125 C 14.511719 15.453125 14.699219 15.476562 16.363281 15.476562 C 18.351562 15.480469 18.371094 15.46875 17.308594 14.761719 C 16.640625 14.320312 16.25 14.304688 15.671875 14.699219 C 15.429688 14.863281 15.144531 15 15.039062 15 C 14.824219 15 13.605469 14.289062 12.898438 13.753906 C 12.125 13.164062 11.160156 12.320312 11.160156 12.234375 C 11.160156 12.078125 12.109375 11.878906 12.871094 11.878906 C 13.722656 11.878906 14.933594 12.203125 15.585938 12.605469 L 15.992188 12.855469 L 15.910156 12.519531 C 15.863281 12.332031 15.796875 11.613281 15.761719 10.921875 C 15.699219 9.703125 15.707031 9.636719 16.042969 9.003906 C 16.324219 8.46875 16.507812 8.285156 17.042969 8.003906 C 18.308594 7.339844 19.683594 7.714844 20.558594 8.960938 C 21.503906 10.300781 20.804688 12.640625 19.378906 12.90625 C 18.441406 13.082031 17.160156 11.949219 17.160156 10.945312 C 17.160156 10.175781 18.148438 9.519531 18.820312 9.847656 L 19.140625 10.003906 L 18.613281 10.082031 C 17.824219 10.199219 17.59375 10.609375 17.9375 11.277344 C 18.492188 12.34375 19.847656 12.1875 20.101562 11.023438 C 20.234375 10.421875 19.941406 9.511719 19.445312 8.988281 C 19.035156 8.5625 18.941406 8.519531 18.371094 8.519531 C 17.691406 8.519531 17.242188 8.703125 16.84375 9.136719 C 15.75 10.339844 15.988281 12.160156 17.425781 13.59375 C 18.460938 14.632812 20.054688 15.199219 22.289062 15.320312 L 23.640625 15.398438 L 23.636719 14.75 C 23.632812 12.679688 22.304688 9.277344 20.554688 6.851562 C 19.578125 5.496094 17.917969 3.78125 16.667969 2.84375 C 15.742188 2.148438 13.84375 0.960938 13.660156 0.960938 C 13.601562 0.960938 13.683594 1.214844 13.84375 1.53125 M 21.601562 7.757812 C 21.601562 7.796875 21.789062 8.140625 22.019531 8.519531 C 22.25 8.898438 22.441406 9.238281 22.441406 9.269531 C 22.441406 9.304688 22.558594 9.59375 22.699219 9.914062 L 22.960938 10.5 L 23.175781 10.019531 C 23.4375 9.441406 23.46875 8.878906 23.234375 8.878906 C 22.960938 8.878906 22.738281 8.535156 22.902344 8.371094 C 23.109375 8.164062 23.074219 8.082031 22.710938 7.945312 C 22.277344 7.78125 21.601562 7.667969 21.601562 7.757812 M 18.507812 10.699219 C 18.1875 11.019531 18.511719 11.480469 18.960938 11.339844 C 19.148438 11.28125 19.203125 11.179688 19.175781 10.941406 C 19.136719 10.582031 18.757812 10.449219 18.507812 10.699219 "/>
</g>
</svg>
