<?xml version="1.0" encoding="UTF-8"?>
<svg xmlns="http://www.w3.org/2000/svg" xmlns:xlink="http://www.w3.org/1999/xlink" width="24px" height="24px" viewBox="0 0 24 24" version="1.1">
<g id="surface1">
<path style=" stroke:none;fill-rule:evenodd;fill:rgb(0%,0%,0%);fill-opacity:1;" d="M 20.800781 5.519531 C 16.859375 6.070312 9.402344 9.25 4.640625 12.410156 C 0.585938 15.097656 -0.898438 17.203125 0.570312 18.191406 C 1.332031 18.707031 2.75 18.664062 5.164062 18.058594 C 12.214844 16.28125 22.605469 10.394531 23.835938 7.472656 C 24.460938 5.996094 23.199219 5.183594 20.800781 5.519531 M 20.761719 6.5625 C 20.59375 6.589844 19.886719 6.75 19.183594 6.914062 L 17.910156 7.214844 L 17.839844 7.65625 C 17.804688 7.902344 17.738281 8.640625 17.691406 9.300781 C 17.609375 10.546875 17.433594 11.039062 17.066406 11.039062 C 16.953125 11.039062 16.226562 10.496094 15.457031 9.835938 L 14.050781 8.632812 L 13.265625 8.988281 C 12.773438 9.210938 12.5 9.402344 12.53125 9.503906 C 12.558594 9.589844 12.613281 10.507812 12.652344 11.539062 C 12.710938 13.15625 12.695312 13.445312 12.53125 13.609375 C 12.429688 13.714844 12.277344 13.800781 12.195312 13.800781 C 12.117188 13.800781 11.363281 13.175781 10.523438 12.410156 L 8.996094 11.019531 L 8.1875 11.460938 C 7.742188 11.707031 7.359375 11.925781 7.332031 11.949219 C 7.308594 11.972656 7.414062 12.769531 7.5625 13.714844 C 7.714844 14.664062 7.804688 15.53125 7.765625 15.640625 C 7.621094 16.015625 7.089844 15.839844 5.59375 14.925781 L 4.097656 14.011719 L 3.398438 14.550781 C 2.519531 15.226562 1.140625 16.679688 1.050781 17.023438 C 0.769531 18.101562 4.660156 17.425781 9.316406 15.589844 C 11.34375 14.789062 14.929688 13.054688 16.671875 12.035156 C 19.894531 10.148438 22.921875 7.679688 22.921875 6.941406 C 22.921875 6.765625 22.835938 6.59375 22.730469 6.554688 C 22.523438 6.472656 21.246094 6.480469 20.761719 6.5625 M 15.816406 7.957031 L 15.132812 8.21875 L 15.875 8.84375 C 16.28125 9.183594 16.621094 9.453125 16.632812 9.441406 C 16.640625 9.429688 16.679688 9.027344 16.722656 8.550781 C 16.8125 7.550781 16.832031 7.5625 15.816406 7.957031 M 10.632812 10.171875 L 9.925781 10.507812 L 10.804688 11.28125 L 11.679688 12.058594 L 11.601562 11.398438 C 11.558594 11.035156 11.523438 10.539062 11.519531 10.289062 C 11.519531 10.042969 11.480469 9.839844 11.429688 9.839844 C 11.378906 9.839844 11.023438 9.992188 10.632812 10.171875 M 5.601562 12.984375 L 5.023438 13.351562 L 5.765625 13.820312 C 6.171875 14.082031 6.53125 14.269531 6.558594 14.238281 C 6.636719 14.164062 6.347656 12.597656 6.257812 12.609375 C 6.214844 12.613281 5.917969 12.78125 5.601562 12.984375 "/>
</g>
</svg>
