<?xml version="1.0" encoding="UTF-8"?>
<svg xmlns="http://www.w3.org/2000/svg" xmlns:xlink="http://www.w3.org/1999/xlink" width="100px" height="100px" viewBox="0 0 100 100" version="1.1">
<g id="surface1">
<path style=" stroke:none;fill-rule:evenodd;fill:rgb(0%,0%,0%);fill-opacity:1;" d="M 86.675781 23 C 70.246094 25.292969 39.175781 38.535156 19.328125 51.703125 C 2.4375 62.910156 -3.738281 71.683594 2.367188 75.800781 C 5.542969 77.941406 11.464844 77.765625 21.511719 75.238281 C 50.902344 67.84375 94.1875 43.3125 99.320312 31.140625 C 101.914062 24.988281 96.660156 21.605469 86.675781 23 M 86.5 27.347656 C 85.8125 27.464844 82.859375 28.121094 79.933594 28.808594 L 74.617188 30.058594 L 74.335938 31.90625 C 74.179688 32.917969 73.902344 36 73.722656 38.75 C 73.375 43.9375 72.632812 46 71.113281 45.996094 C 70.636719 45.996094 67.617188 43.738281 64.398438 40.984375 L 58.546875 35.96875 L 55.277344 37.453125 C 53.226562 38.378906 52.082031 39.179688 52.210938 39.59375 C 52.324219 39.953125 52.550781 43.777344 52.714844 48.085938 C 52.96875 54.824219 52.898438 56.03125 52.21875 56.710938 C 51.785156 57.144531 51.152344 57.5 50.816406 57.5 C 50.480469 57.5 47.34375 54.894531 43.84375 51.710938 L 37.480469 45.917969 L 34.117188 47.761719 C 32.265625 48.773438 30.664062 49.6875 30.558594 49.785156 C 30.453125 49.886719 30.882812 53.199219 31.519531 57.152344 C 32.152344 61.101562 32.527344 64.707031 32.351562 65.167969 C 31.75 66.730469 29.542969 66.007812 23.300781 62.195312 L 17.070312 58.386719 L 14.15625 60.628906 C 10.5 63.441406 4.746094 69.503906 4.371094 70.933594 C 3.199219 75.421875 19.414062 72.605469 38.8125 64.953125 C 47.257812 61.621094 62.207031 54.402344 69.472656 50.144531 C 82.890625 42.285156 95.503906 32.007812 95.5 28.929688 C 95.5 28.183594 95.152344 27.472656 94.710938 27.304688 C 93.851562 26.976562 88.527344 27.003906 86.5 27.347656 M 65.898438 33.152344 L 63.046875 34.25 L 66.140625 36.839844 C 67.839844 38.265625 69.261719 39.390625 69.296875 39.339844 C 69.332031 39.289062 69.507812 37.617188 69.683594 35.625 C 70.054688 31.464844 70.136719 31.515625 65.898438 33.152344 M 44.308594 42.390625 L 41.363281 43.777344 L 45.015625 47.011719 L 48.667969 50.25 L 48.339844 47.5 C 48.15625 45.988281 48.007812 43.90625 48.003906 42.875 C 48.003906 41.84375 47.832031 41 47.625 41 C 47.417969 41.003906 45.925781 41.628906 44.308594 42.390625 M 23.335938 54.101562 L 20.921875 55.632812 L 24.019531 57.589844 C 25.722656 58.667969 27.214844 59.453125 27.332031 59.332031 C 27.65625 59.011719 26.449219 52.496094 26.074219 52.535156 C 25.894531 52.554688 24.664062 53.257812 23.335938 54.101562 "/>
</g>
</svg>
