<?xml version="1.0" encoding="UTF-8"?>
<svg xmlns="http://www.w3.org/2000/svg" xmlns:xlink="http://www.w3.org/1999/xlink" width="24px" height="24px" viewBox="0 0 24 24" version="1.1">
<g id="surface1">
<path style=" stroke:none;fill-rule:evenodd;fill:rgb(0%,0%,0%);fill-opacity:1;" d="M 14.039062 1.242188 C 14.039062 1.320312 14.113281 1.492188 14.199219 1.625 C 14.289062 1.753906 14.398438 1.960938 14.441406 2.085938 C 14.515625 2.289062 14.503906 2.292969 14.324219 2.148438 C 14.136719 1.996094 14.132812 2.003906 14.265625 2.253906 C 14.347656 2.402344 14.460938 2.496094 14.519531 2.460938 C 14.574219 2.425781 14.65625 2.453125 14.699219 2.519531 C 14.742188 2.589844 14.820312 2.617188 14.875 2.582031 C 14.929688 2.550781 15.046875 2.617188 15.136719 2.730469 C 15.28125 2.917969 15.277344 2.921875 15.101562 2.785156 C 14.808594 2.558594 14.722656 2.808594 15.003906 3.0625 C 15.265625 3.300781 15.316406 3.660156 15.101562 3.792969 C 15.023438 3.839844 14.996094 3.824219 15.039062 3.753906 C 15.082031 3.6875 15.007812 3.535156 14.878906 3.421875 C 14.75 3.304688 14.667969 3.171875 14.695312 3.128906 C 14.722656 3.085938 14.695312 2.96875 14.636719 2.875 C 14.550781 2.738281 14.5 2.730469 14.382812 2.851562 C 14.265625 2.96875 14.265625 3.03125 14.375 3.144531 C 14.570312 3.335938 14.5625 4.082031 14.371094 4.078125 C 14.289062 4.078125 14.089844 3.9375 13.933594 3.773438 C 13.289062 3.09375 13.355469 4.066406 14.019531 5 C 14.324219 5.433594 14.347656 5.550781 14.382812 6.960938 C 14.402344 7.785156 14.375 8.578125 14.320312 8.71875 C 14.257812 8.886719 14.214844 8.496094 14.199219 7.640625 C 14.183594 6.257812 14.03125 5.558594 13.78125 5.710938 C 13.691406 5.765625 13.675781 5.746094 13.734375 5.648438 C 13.789062 5.558594 13.722656 5.355469 13.574219 5.15625 C 13.429688 4.957031 13.351562 4.722656 13.390625 4.597656 C 13.441406 4.4375 13.386719 4.460938 13.179688 4.683594 L 12.902344 4.984375 L 12.722656 4.621094 C 12.496094 4.175781 12.285156 4.25 12.339844 4.761719 C 12.371094 5.09375 12.347656 5.132812 12.128906 5.078125 C 11.886719 5.015625 11.890625 5.027344 12.167969 5.535156 C 12.507812 6.148438 12.574219 6.941406 12.4375 8.640625 C 12.382812 9.339844 12.394531 9.933594 12.46875 10.179688 C 12.574219 10.527344 12.546875 10.644531 12.285156 11.042969 C 12.113281 11.296875 12.011719 11.566406 12.058594 11.636719 C 12.101562 11.707031 12.074219 11.75 11.992188 11.734375 C 11.914062 11.714844 11.824219 11.773438 11.789062 11.867188 C 11.753906 11.964844 11.78125 12 11.859375 11.953125 C 11.9375 11.90625 11.917969 12.046875 11.816406 12.292969 C 11.71875 12.523438 11.640625 12.847656 11.640625 13.015625 C 11.640625 13.207031 11.574219 13.320312 11.460938 13.320312 C 11.359375 13.320312 11.28125 13.382812 11.28125 13.460938 C 11.28125 13.535156 11.25 13.570312 11.214844 13.535156 C 11.179688 13.5 11.285156 13.160156 11.453125 12.78125 C 11.789062 12.023438 11.808594 11.957031 11.65625 12.050781 C 11.601562 12.082031 11.492188 11.898438 11.414062 11.640625 C 11.195312 10.90625 11.039062 10.941406 11.035156 11.722656 C 11.03125 12.105469 10.953125 12.582031 10.859375 12.78125 L 10.691406 13.140625 L 10.757812 12.644531 C 10.796875 12.359375 10.773438 12.117188 10.703125 12.074219 C 10.53125 11.96875 10.492188 12.054688 10.203125 13.132812 C 9.925781 14.160156 9.949219 14.476562 10.238281 13.65625 C 10.339844 13.371094 10.425781 13.238281 10.429688 13.359375 C 10.4375 13.476562 10.382812 13.679688 10.316406 13.808594 C 10.238281 13.953125 10.234375 14.039062 10.308594 14.039062 C 10.371094 14.039062 10.394531 14.1875 10.359375 14.371094 C 10.320312 14.550781 10.289062 14.761719 10.285156 14.832031 C 10.28125 14.90625 10.1875 14.941406 10.074219 14.914062 C 9.941406 14.878906 9.871094 14.746094 9.878906 14.539062 C 9.902344 13.796875 9.832031 13.199219 9.71875 13.199219 C 9.652344 13.199219 9.601562 13.476562 9.601562 13.820312 C 9.601562 14.425781 9.597656 14.433594 9.363281 14.222656 C 9.230469 14.105469 9.019531 13.730469 8.894531 13.394531 C 8.675781 12.816406 8.660156 12.796875 8.582031 13.097656 C 8.527344 13.3125 8.582031 13.605469 8.742188 13.96875 C 8.875 14.273438 8.957031 14.519531 8.917969 14.519531 C 8.882812 14.519531 8.917969 14.601562 9 14.699219 C 9.179688 14.917969 8.992188 14.941406 8.765625 14.730469 C 8.679688 14.648438 8.707031 14.753906 8.828125 14.96875 C 8.953125 15.183594 9.121094 15.359375 9.207031 15.359375 C 9.292969 15.359375 9.359375 15.5 9.359375 15.675781 C 9.359375 15.929688 9.328125 15.964844 9.195312 15.851562 C 8.988281 15.679688 8.308594 14.273438 8.214844 13.828125 C 8.15625 13.542969 8.179688 13.554688 8.394531 13.941406 C 8.761719 14.609375 8.9375 14.628906 8.601562 13.960938 C 8.441406 13.640625 8.210938 13.054688 8.09375 12.660156 C 7.972656 12.265625 7.832031 11.886719 7.777344 11.824219 C 7.515625 11.519531 7.867188 13.515625 8.214844 14.3125 C 8.285156 14.476562 8.261719 14.503906 8.113281 14.449219 C 7.867188 14.355469 7.863281 14.339844 8.234375 15.25 C 8.566406 16.0625 8.640625 16.914062 8.464844 17.863281 L 8.363281 18.386719 L 8.183594 17.984375 L 8 17.578125 L 7.914062 18 C 7.867188 18.25 7.820312 17.695312 7.804688 16.621094 L 7.777344 14.820312 L 7.304688 16.261719 C 6.886719 17.523438 6.828125 17.851562 6.804688 18.960938 C 6.792969 19.652344 6.824219 20.304688 6.875 20.410156 C 6.945312 20.546875 6.765625 20.800781 6.183594 21.363281 C 5.492188 22.039062 5.421875 22.152344 5.574219 22.308594 C 5.730469 22.460938 5.78125 22.457031 5.992188 22.265625 C 6.128906 22.144531 6.316406 22.082031 6.425781 22.125 C 6.535156 22.167969 6.898438 22.121094 7.242188 22.023438 C 7.617188 21.914062 8.5 21.832031 9.496094 21.8125 C 11.0625 21.78125 11.429688 21.707031 10.710938 21.5625 C 10.527344 21.523438 10.136719 21.441406 9.839844 21.371094 C 9.121094 21.210938 7.484375 21.207031 7.183594 21.367188 C 6.96875 21.484375 6.957031 21.472656 7.070312 21.277344 C 7.320312 20.84375 7.664062 20.519531 7.871094 20.519531 C 7.984375 20.519531 8.320312 20.269531 8.613281 19.964844 C 8.96875 19.59375 9.230469 19.417969 9.402344 19.441406 C 10.230469 19.535156 11.804688 19.484375 11.84375 19.363281 C 11.871094 19.289062 11.703125 19.191406 11.464844 19.148438 C 10.9375 19.050781 10.925781 18.90625 11.429688 18.71875 C 12.015625 18.503906 11.636719 18.445312 10.652344 18.597656 C 10.058594 18.6875 9.769531 18.691406 9.742188 18.605469 C 9.675781 18.414062 9.242188 18.691406 9.230469 18.933594 C 9.222656 19.078125 9.203125 19.089844 9.15625 18.976562 C 9.113281 18.867188 8.898438 19.023438 8.503906 19.457031 C 7.925781 20.09375 7.816406 20.238281 8.03125 20.105469 C 8.09375 20.066406 8.175781 20.089844 8.21875 20.15625 C 8.261719 20.230469 8.167969 20.269531 7.988281 20.253906 C 7.816406 20.238281 7.679688 20.191406 7.679688 20.148438 C 7.679688 20.101562 7.894531 19.808594 8.152344 19.492188 C 8.414062 19.175781 8.597656 18.867188 8.554688 18.800781 C 8.515625 18.734375 8.539062 18.71875 8.609375 18.761719 C 8.679688 18.804688 8.90625 18.628906 9.109375 18.375 C 9.492188 17.890625 9.582031 17.683594 9.339844 17.832031 C 9.253906 17.886719 9.234375 17.863281 9.289062 17.777344 C 9.335938 17.699219 9.421875 17.664062 9.480469 17.699219 C 9.539062 17.734375 9.640625 17.667969 9.707031 17.550781 C 9.792969 17.40625 9.832031 17.394531 9.835938 17.503906 C 9.839844 17.597656 9.726562 17.855469 9.589844 18.074219 C 9.453125 18.296875 9.398438 18.480469 9.46875 18.480469 C 9.542969 18.480469 9.601562 18.414062 9.601562 18.328125 C 9.601562 18.210938 9.625 18.210938 9.699219 18.328125 C 9.765625 18.4375 9.902344 18.386719 10.207031 18.128906 C 10.605469 17.796875 10.621094 17.753906 10.621094 16.964844 C 10.621094 16.007812 10.691406 15.957031 11.703125 16.199219 C 12.238281 16.328125 12.371094 16.320312 12.730469 16.140625 C 13.476562 15.761719 14.28125 14.816406 14.105469 14.527344 C 14.066406 14.46875 13.628906 14.699219 13.128906 15.039062 C 12.296875 15.609375 12.15625 15.660156 11.484375 15.679688 C 10.96875 15.695312 10.710938 15.757812 10.609375 15.890625 C 10.492188 16.058594 10.460938 16.035156 10.398438 15.722656 C 10.3125 15.285156 10.390625 15.039062 10.625 15.039062 C 10.847656 15.039062 10.84375 15.109375 10.621094 15.359375 C 10.457031 15.539062 10.484375 15.554688 10.945312 15.515625 C 11.519531 15.472656 11.726562 15.351562 12.496094 14.625 C 13.289062 13.878906 14.480469 12.910156 15.175781 12.453125 C 15.636719 12.148438 15.773438 11.984375 15.785156 11.726562 C 15.796875 11.546875 15.847656 11.355469 15.902344 11.308594 C 15.953125 11.261719 15.964844 11.3125 15.921875 11.429688 C 15.882812 11.546875 15.871094 11.640625 15.898438 11.640625 C 15.972656 11.640625 16.558594 10.765625 16.558594 10.65625 C 16.558594 10.457031 15.191406 11.542969 15.15625 11.765625 C 15.125 11.972656 15.152344 11.988281 15.359375 11.878906 C 15.773438 11.660156 15.621094 11.84375 15.171875 12.109375 C 14.933594 12.25 14.691406 12.332031 14.628906 12.292969 C 14.566406 12.253906 14.347656 12.308594 14.140625 12.410156 C 13.933594 12.515625 13.675781 12.59375 13.570312 12.589844 C 13.464844 12.585938 13.648438 12.453125 13.980469 12.296875 C 14.664062 11.976562 14.808594 11.941406 14.6875 12.136719 C 14.632812 12.226562 14.65625 12.246094 14.75 12.1875 C 14.832031 12.136719 14.867188 12.066406 14.828125 12.03125 C 14.792969 11.992188 14.859375 11.886719 14.972656 11.792969 C 15.214844 11.597656 15.144531 11.617188 14.351562 11.976562 C 14.03125 12.125 13.746094 12.226562 13.722656 12.203125 C 13.695312 12.175781 13.785156 12.019531 13.914062 11.855469 C 14.046875 11.6875 14.125 11.527344 14.09375 11.492188 C 14.0625 11.460938 14.128906 11.359375 14.246094 11.265625 C 14.441406 11.113281 14.445312 11.117188 14.296875 11.308594 C 14.203125 11.425781 14.179688 11.519531 14.242188 11.519531 C 14.386719 11.519531 15.054688 10.8125 15.230469 10.46875 C 15.339844 10.253906 15.46875 10.199219 15.878906 10.199219 C 16.375 10.199219 16.828125 9.984375 17.125 9.605469 C 18.382812 8.003906 18.363281 7.5 17.085938 8.636719 C 16.632812 9.039062 16.082031 9.476562 15.867188 9.601562 C 15.476562 9.835938 15.472656 9.835938 15.601562 9.59375 C 15.671875 9.464844 15.835938 9.289062 15.964844 9.207031 C 16.09375 9.128906 16.199219 9.019531 16.199219 8.972656 C 16.199219 8.765625 15.9375 8.90625 15.359375 9.421875 C 14.488281 10.195312 14.441406 10.136719 15.167969 9.179688 C 15.367188 8.914062 15.757812 8.457031 16.035156 8.160156 C 16.570312 7.585938 16.796875 6.988281 16.800781 6.144531 C 16.800781 5.863281 16.964844 5.207031 17.167969 4.683594 C 17.445312 3.960938 17.523438 3.578125 17.496094 3.097656 C 17.472656 2.699219 17.40625 2.46875 17.324219 2.484375 C 17.246094 2.5 17.152344 2.277344 17.105469 1.976562 C 17.027344 1.464844 16.867188 1.214844 16.707031 1.371094 C 16.667969 1.414062 16.617188 1.757812 16.601562 2.132812 C 16.546875 3.324219 16.25 4.660156 16.078125 4.484375 C 16.019531 4.425781 16.03125 4.167969 16.105469 3.898438 C 16.214844 3.488281 16.191406 3.265625 15.957031 2.480469 C 15.679688 1.539062 15.476562 1.40625 15.453125 2.148438 C 15.441406 2.527344 15.253906 2.507812 15.195312 2.121094 C 15.136719 1.714844 14.039062 0.882812 14.039062 1.242188 M 13.878906 1.761719 C 13.835938 1.804688 13.800781 1.984375 13.800781 2.160156 C 13.800781 2.519531 14.207031 2.976562 14.335938 2.765625 C 14.378906 2.695312 14.328125 2.605469 14.21875 2.5625 C 14.066406 2.503906 14.035156 2.394531 14.09375 2.082031 C 14.164062 1.710938 14.070312 1.570312 13.878906 1.761719 M 14.574219 2.011719 C 14.613281 2.054688 14.730469 2.097656 14.835938 2.113281 C 14.9375 2.128906 14.988281 2.109375 14.949219 2.066406 C 14.90625 2.027344 14.789062 1.980469 14.683594 1.964844 C 14.582031 1.949219 14.53125 1.972656 14.574219 2.011719 M 15.433594 2.734375 C 15.402344 2.789062 15.425781 2.910156 15.484375 3.003906 C 15.5625 3.132812 15.585938 3.109375 15.570312 2.910156 C 15.546875 2.617188 15.527344 2.589844 15.433594 2.734375 M 14.761719 3.167969 C 14.761719 3.191406 14.839844 3.277344 14.941406 3.359375 C 15.042969 3.445312 15.121094 3.457031 15.121094 3.386719 C 15.121094 3.320312 15.039062 3.234375 14.941406 3.195312 C 14.839844 3.160156 14.761719 3.144531 14.761719 3.167969 M 17.058594 3.480469 C 17.058594 3.644531 17.085938 3.710938 17.121094 3.628906 C 17.152344 3.546875 17.152344 3.414062 17.121094 3.328125 C 17.085938 3.246094 17.058594 3.316406 17.058594 3.480469 M 13.625 3.753906 C 13.667969 3.867188 13.753906 3.960938 13.8125 3.960938 C 13.871094 3.960938 13.921875 4.015625 13.921875 4.085938 C 13.921875 4.15625 13.863281 4.179688 13.792969 4.132812 C 13.589844 4.011719 14.117188 4.976562 14.355469 5.167969 C 14.558594 5.332031 14.558594 5.324219 14.363281 5.042969 C 14.132812 4.707031 14.105469 4.558594 14.28125 4.558594 C 14.347656 4.558594 14.398438 4.636719 14.398438 4.734375 C 14.398438 4.828125 14.453125 4.9375 14.519531 4.980469 C 14.597656 5.027344 14.601562 4.949219 14.523438 4.746094 C 14.359375 4.3125 14.476562 4.367188 14.714844 4.828125 C 14.910156 5.214844 15.601562 6.074219 15.601562 5.9375 C 15.601562 5.894531 15.464844 5.6875 15.300781 5.472656 C 15.136719 5.253906 14.941406 4.902344 14.867188 4.6875 C 14.769531 4.417969 14.671875 4.316406 14.535156 4.355469 C 14.425781 4.386719 14.265625 4.429688 14.175781 4.457031 C 14.085938 4.480469 13.984375 4.425781 13.949219 4.332031 C 13.914062 4.230469 13.941406 4.199219 14.023438 4.25 C 14.277344 4.40625 14.160156 4.125 13.851562 3.832031 C 13.628906 3.625 13.570312 3.601562 13.625 3.753906 M 16.621094 4.078125 C 16.574219 4.222656 16.566406 4.363281 16.597656 4.398438 C 16.632812 4.429688 16.695312 4.34375 16.738281 4.199219 C 16.785156 4.058594 16.796875 3.914062 16.761719 3.882812 C 16.730469 3.847656 16.664062 3.9375 16.621094 4.078125 M 15.136719 4.652344 C 15.261719 4.894531 15.359375 5.15625 15.359375 5.238281 C 15.359375 5.320312 15.410156 5.417969 15.472656 5.457031 C 15.539062 5.496094 15.535156 5.363281 15.460938 5.132812 C 15.21875 4.347656 15.210938 4.234375 15.414062 4.558594 L 15.605469 4.859375 L 15.574219 4.5625 C 15.546875 4.335938 15.464844 4.257812 15.226562 4.242188 L 14.914062 4.21875 L 15.136719 4.652344 M 12.425781 4.476562 C 12.472656 4.59375 12.539062 4.660156 12.578125 4.625 C 12.613281 4.585938 12.578125 4.488281 12.496094 4.40625 C 12.375 4.289062 12.363281 4.304688 12.425781 4.476562 M 16.519531 4.761719 C 16.476562 4.804688 16.441406 4.898438 16.441406 4.96875 C 16.441406 5.042969 16.496094 5.019531 16.558594 4.921875 C 16.652344 4.777344 16.679688 4.800781 16.6875 5.039062 C 16.695312 5.3125 16.707031 5.316406 16.792969 5.101562 C 16.929688 4.761719 16.746094 4.53125 16.519531 4.761719 M 12.609375 4.988281 C 12.617188 5.128906 12.644531 5.15625 12.683594 5.0625 C 12.714844 4.976562 12.710938 4.871094 12.671875 4.832031 C 12.632812 4.792969 12.605469 4.863281 12.609375 4.988281 M 15.738281 5.199219 C 15.722656 5.410156 15.769531 5.929688 15.839844 6.359375 C 15.949219 7 15.9375 7.234375 15.789062 7.660156 C 15.617188 8.136719 15.621094 8.171875 15.808594 8.136719 C 16.128906 8.074219 16.53125 7.375 16.621094 6.722656 C 16.703125 6.125 16.644531 5.878906 16.425781 5.878906 C 16.359375 5.878906 16.34375 5.941406 16.390625 6.015625 C 16.441406 6.097656 16.410156 6.128906 16.308594 6.097656 C 16.117188 6.03125 15.796875 5.039062 15.96875 5.039062 C 16.03125 5.039062 16.085938 5.09375 16.09375 5.160156 C 16.101562 5.226562 16.125 5.335938 16.140625 5.398438 C 16.15625 5.464844 16.175781 5.597656 16.183594 5.695312 C 16.195312 5.800781 16.273438 5.84375 16.382812 5.800781 C 16.542969 5.742188 16.539062 5.710938 16.351562 5.570312 C 16.203125 5.453125 16.1875 5.40625 16.304688 5.402344 C 16.441406 5.402344 16.441406 5.367188 16.316406 5.214844 C 16.230469 5.109375 16.070312 4.980469 15.964844 4.921875 C 15.804688 4.835938 15.765625 4.886719 15.738281 5.199219 M 13.199219 5.308594 C 13.199219 5.484375 13.144531 5.660156 13.078125 5.699219 C 12.925781 5.796875 12.921875 6.121094 13.078125 6.121094 C 13.140625 6.121094 13.160156 6.027344 13.125 5.910156 C 13.066406 5.734375 13.078125 5.726562 13.1875 5.878906 C 13.257812 5.980469 13.316406 6.226562 13.316406 6.425781 C 13.320312 6.628906 13.398438 6.898438 13.496094 7.027344 C 13.660156 7.242188 13.671875 7.21875 13.671875 6.71875 C 13.675781 6.074219 13.507812 5.300781 13.328125 5.121094 C 13.238281 5.027344 13.199219 5.082031 13.199219 5.308594 M 12.308594 5.433594 C 12.351562 5.554688 12.417969 5.621094 12.457031 5.582031 C 12.492188 5.546875 12.457031 5.449219 12.375 5.367188 C 12.257812 5.25 12.242188 5.265625 12.308594 5.433594 M 14.808594 5.609375 C 15.042969 5.886719 14.921875 5.992188 14.664062 5.734375 C 14.550781 5.625 14.519531 5.644531 14.523438 5.824219 C 14.523438 6.066406 14.71875 6.457031 14.785156 6.355469 C 15.097656 5.871094 15.101562 5.78125 14.84375 5.5625 L 14.578125 5.339844 L 14.808594 5.609375 M 13.808594 6.070312 C 13.816406 6.210938 13.84375 6.238281 13.882812 6.140625 C 13.917969 6.054688 13.914062 5.953125 13.871094 5.914062 C 13.832031 5.871094 13.804688 5.945312 13.808594 6.070312 M 12.96875 6.429688 C 12.976562 6.570312 13.003906 6.597656 13.042969 6.503906 C 13.078125 6.414062 13.074219 6.3125 13.03125 6.273438 C 12.992188 6.234375 12.964844 6.304688 12.96875 6.429688 M 15.160156 6.425781 C 15.121094 6.53125 15.140625 6.839844 15.203125 7.117188 L 15.316406 7.621094 L 15.472656 7.117188 C 15.636719 6.605469 15.589844 6.238281 15.359375 6.238281 C 15.289062 6.238281 15.199219 6.324219 15.160156 6.425781 M 16.144531 6.644531 C 16.179688 6.867188 16.128906 7.285156 16.03125 7.574219 L 15.851562 8.101562 L 16.082031 7.800781 C 16.210938 7.636719 16.320312 7.390625 16.328125 7.261719 C 16.332031 7.128906 16.355469 6.917969 16.378906 6.796875 C 16.433594 6.527344 16.332031 6.238281 16.1875 6.238281 C 16.128906 6.238281 16.109375 6.421875 16.144531 6.644531 M 13.660156 7.613281 C 13.464844 8.4375 13.378906 9.019531 13.441406 9.175781 C 13.523438 9.394531 13.542969 9.386719 13.617188 9.058594 C 13.792969 8.28125 13.886719 8.222656 13.863281 8.914062 C 13.851562 9.292969 13.78125 9.667969 13.703125 9.746094 C 13.5 9.945312 13.523438 10.027344 13.792969 10.046875 C 14.097656 10.070312 14.386719 9.742188 14.179688 9.609375 C 14.097656 9.5625 14.066406 9.417969 14.105469 9.289062 C 14.15625 9.144531 14.144531 9.113281 14.078125 9.203125 C 14.019531 9.285156 13.992188 8.832031 14.019531 8.121094 C 14.089844 6.25 14.015625 6.144531 13.660156 7.613281 M 12.601562 6.667969 C 12.601562 6.777344 12.65625 6.820312 12.734375 6.769531 C 12.835938 6.710938 12.847656 6.84375 12.789062 7.253906 C 12.695312 7.863281 12.796875 8.761719 12.960938 8.761719 C 13.011719 8.761719 13.027344 8.652344 12.996094 8.519531 C 12.960938 8.386719 12.992188 8.28125 13.066406 8.28125 C 13.257812 8.28125 13.230469 7.695312 13.007812 7.042969 C 12.824219 6.496094 12.601562 6.289062 12.601562 6.667969 M 13.15625 6.960938 C 13.203125 7.125 13.28125 7.476562 13.328125 7.738281 L 13.410156 8.21875 L 13.421875 7.738281 C 13.425781 7.476562 13.351562 7.125 13.25 6.960938 L 13.070312 6.660156 L 13.15625 6.960938 M 14.648438 6.910156 C 14.65625 7.050781 14.683594 7.078125 14.722656 6.984375 C 14.757812 6.894531 14.753906 6.792969 14.710938 6.753906 C 14.671875 6.710938 14.644531 6.785156 14.648438 6.910156 M 15.609375 7.167969 C 15.605469 7.246094 15.394531 7.734375 15.140625 8.253906 C 14.886719 8.773438 14.648438 9.328125 14.605469 9.488281 C 14.542969 9.746094 14.574219 9.734375 14.894531 9.359375 C 15.355469 8.828125 15.648438 8.28125 15.480469 8.28125 C 15.394531 8.28125 15.398438 8.191406 15.496094 8.011719 C 15.574219 7.863281 15.636719 7.714844 15.636719 7.679688 C 15.632812 7.648438 15.65625 7.554688 15.6875 7.472656 C 15.71875 7.394531 15.714844 7.257812 15.679688 7.175781 C 15.636719 7.0625 15.617188 7.058594 15.609375 7.167969 M 14.964844 7.441406 C 14.929688 7.570312 14.953125 7.710938 15.011719 7.746094 C 15.070312 7.785156 15.121094 7.675781 15.121094 7.507812 C 15.121094 7.140625 15.050781 7.109375 14.964844 7.441406 M 14.664062 7.621094 C 14.664062 7.816406 14.691406 7.882812 14.722656 7.769531 C 14.753906 7.652344 14.75 7.488281 14.71875 7.40625 C 14.6875 7.328125 14.660156 7.421875 14.664062 7.621094 M 14.539062 8.339844 C 14.527344 8.539062 14.488281 8.835938 14.453125 9 L 14.394531 9.300781 L 14.523438 9.003906 C 14.59375 8.839844 14.628906 8.542969 14.605469 8.34375 L 14.558594 7.980469 L 14.539062 8.339844 M 14.769531 8.371094 C 14.777344 8.664062 14.789062 8.671875 14.878906 8.460938 C 15.019531 8.132812 15.019531 8.039062 14.878906 8.039062 C 14.8125 8.039062 14.765625 8.1875 14.769531 8.371094 M 17.292969 8.582031 C 17.023438 8.828125 16.832031 9.074219 16.871094 9.136719 C 16.90625 9.195312 16.894531 9.234375 16.839844 9.21875 C 16.632812 9.160156 16.195312 9.5 16.226562 9.695312 C 16.246094 9.804688 16.195312 9.894531 16.121094 9.898438 C 15.902344 9.902344 15.777344 10.078125 15.992188 10.078125 C 16.097656 10.078125 16.21875 10.023438 16.261719 9.957031 C 16.300781 9.890625 16.382812 9.863281 16.4375 9.898438 C 16.492188 9.933594 16.714844 9.789062 16.925781 9.574219 C 17.136719 9.363281 17.253906 9.171875 17.179688 9.148438 C 17.085938 9.117188 17.085938 9.039062 17.1875 8.882812 C 17.261719 8.761719 17.378906 8.6875 17.453125 8.714844 C 17.585938 8.765625 17.9375 8.296875 17.839844 8.199219 C 17.808594 8.167969 17.5625 8.339844 17.292969 8.582031 M 12.550781 8.742188 C 12.511719 8.804688 12.546875 8.890625 12.628906 8.929688 C 12.75 8.984375 12.75 9.015625 12.628906 9.070312 C 12.332031 9.210938 12.597656 10.632812 12.902344 10.515625 C 12.992188 10.480469 13.089844 10.542969 13.117188 10.65625 C 13.148438 10.769531 13.171875 10.589844 13.171875 10.261719 C 13.171875 9.835938 13.148438 9.753906 13.097656 9.976562 C 13.042969 10.203125 12.984375 10.257812 12.898438 10.15625 C 12.835938 10.082031 12.773438 9.9375 12.765625 9.839844 C 12.757812 9.742188 12.730469 9.550781 12.707031 9.421875 C 12.675781 9.269531 12.71875 9.191406 12.816406 9.210938 C 12.9375 9.238281 12.941406 9.1875 12.828125 8.972656 C 12.640625 8.609375 12.636719 8.605469 12.550781 8.742188 M 13.878906 9.679688 C 13.835938 9.722656 13.800781 9.816406 13.800781 9.882812 C 13.800781 9.960938 13.855469 9.953125 13.941406 9.867188 C 14.019531 9.789062 14.054688 9.695312 14.023438 9.660156 C 13.988281 9.628906 13.925781 9.636719 13.878906 9.679688 M 15.117188 9.964844 C 15.042969 10.101562 15.003906 10.304688 15.023438 10.414062 C 15.046875 10.53125 15.121094 10.429688 15.199219 10.167969 C 15.351562 9.671875 15.316406 9.589844 15.117188 9.964844 M 13.863281 10.644531 C 13.5625 11.117188 13.503906 11.164062 13.425781 10.96875 C 13.367188 10.820312 13.335938 10.804688 13.335938 10.921875 C 13.335938 11.019531 13.378906 11.207031 13.429688 11.339844 C 13.523438 11.574219 13.527344 11.574219 13.609375 11.316406 C 13.664062 11.136719 13.757812 11.074219 13.894531 11.117188 C 14.054688 11.167969 14.0625 11.15625 13.933594 11.066406 C 13.761719 10.941406 13.859375 10.628906 14.035156 10.738281 C 14.128906 10.792969 14.335938 10.214844 14.253906 10.132812 C 14.230469 10.109375 14.054688 10.339844 13.863281 10.644531 M 14.636719 10.460938 C 14.5 10.726562 14.5 10.730469 14.707031 10.53125 C 14.828125 10.417969 14.894531 10.292969 14.851562 10.253906 C 14.8125 10.210938 14.714844 10.304688 14.636719 10.460938 M 13.753906 11.464844 C 13.640625 11.765625 13.671875 11.84375 13.816406 11.601562 C 13.882812 11.480469 13.917969 11.355469 13.886719 11.324219 C 13.855469 11.292969 13.796875 11.355469 13.753906 11.464844 M 12.535156 11.933594 C 12.492188 12.160156 12.492188 12.402344 12.535156 12.472656 C 12.578125 12.542969 12.34375 12.992188 12.015625 13.46875 C 11.683594 13.941406 11.429688 14.351562 11.453125 14.375 C 11.519531 14.4375 12.035156 14.121094 12.195312 13.921875 C 12.273438 13.824219 12.308594 13.691406 12.269531 13.632812 C 12.234375 13.574219 12.265625 13.5625 12.339844 13.609375 C 12.4375 13.667969 12.480469 13.566406 12.480469 13.296875 C 12.480469 13.046875 12.582031 12.785156 12.757812 12.597656 C 13.078125 12.25 13.242188 11.878906 13.078125 11.878906 C 13.011719 11.878906 12.960938 11.953125 12.960938 12.046875 C 12.960938 12.136719 12.882812 12.273438 12.789062 12.351562 C 12.648438 12.46875 12.632812 12.414062 12.6875 12.007812 C 12.765625 11.414062 12.640625 11.355469 12.535156 11.933594 M 11.191406 12.375 C 11.109375 12.609375 11.042969 12.902344 11.042969 13.027344 C 11.046875 13.214844 11.085938 13.191406 11.230469 12.921875 C 11.332031 12.738281 11.398438 12.445312 11.378906 12.269531 C 11.339844 11.96875 11.335938 11.972656 11.191406 12.375 M 11.90625 12.644531 C 11.738281 13.277344 11.761719 13.425781 11.992188 13.152344 C 12.070312 13.054688 12.117188 12.769531 12.097656 12.519531 L 12.058594 12.058594 L 11.90625 12.644531 M 13.324219 13.042969 C 13.328125 13.347656 13.34375 13.359375 13.488281 13.171875 C 13.65625 12.949219 13.867188 12.875 13.738281 13.078125 C 13.632812 13.253906 13.820312 13.222656 14.082031 13.023438 C 14.289062 12.867188 14.28125 12.855469 13.949219 12.867188 C 13.753906 12.871094 13.53125 12.835938 13.457031 12.789062 C 13.367188 12.734375 13.320312 12.820312 13.324219 13.042969 M 12.800781 13.300781 C 12.820312 13.386719 12.839844 13.480469 12.839844 13.511719 C 12.839844 13.539062 12.894531 13.558594 12.960938 13.558594 C 13.027344 13.558594 13.078125 13.476562 13.078125 13.371094 C 13.078125 13.269531 13.03125 13.214844 12.96875 13.253906 C 12.910156 13.289062 12.835938 13.28125 12.808594 13.230469 C 12.78125 13.179688 12.777344 13.210938 12.800781 13.300781 M 10.753906 13.410156 C 10.625 13.847656 10.554688 14.585938 10.664062 14.339844 C 10.765625 14.113281 10.773438 14.117188 10.828125 14.398438 C 10.863281 14.566406 10.863281 14.410156 10.832031 14.054688 C 10.796875 13.617188 10.820312 13.4375 10.910156 13.492188 C 10.988281 13.542969 11.011719 13.5 10.964844 13.386719 C 10.875 13.148438 10.832031 13.152344 10.753906 13.410156 M 12.457031 14.046875 C 12.304688 14.253906 12.175781 14.484375 12.175781 14.558594 C 12.171875 14.636719 12.105469 14.6875 12.023438 14.671875 C 11.945312 14.652344 11.894531 14.707031 11.910156 14.789062 C 11.929688 14.878906 11.839844 14.925781 11.683594 14.90625 C 11.539062 14.886719 11.398438 14.949219 11.359375 15.054688 C 11.316406 15.167969 11.351562 15.238281 11.453125 15.238281 C 11.6875 15.238281 12.375 14.640625 12.292969 14.507812 C 12.257812 14.449219 12.277344 14.398438 12.339844 14.398438 C 12.402344 14.398438 12.480469 14.292969 12.515625 14.160156 C 12.558594 14 12.640625 13.945312 12.769531 13.992188 C 12.972656 14.070312 13.039062 13.863281 12.847656 13.742188 C 12.785156 13.703125 12.609375 13.839844 12.457031 14.046875 M 9.171875 14.496094 C 9.347656 14.84375 9.527344 15.105469 9.574219 15.074219 C 9.621094 15.046875 9.667969 15.164062 9.679688 15.335938 C 9.6875 15.511719 9.757812 15.671875 9.832031 15.695312 C 9.90625 15.722656 10.050781 15.902344 10.152344 16.101562 C 10.253906 16.300781 10.363281 16.4375 10.394531 16.402344 C 10.496094 16.304688 10.101562 15.480469 9.953125 15.480469 C 9.871094 15.480469 9.839844 15.378906 9.875 15.246094 C 9.941406 14.988281 9.699219 14.707031 9.539062 14.851562 C 9.484375 14.898438 9.472656 14.886719 9.507812 14.820312 C 9.546875 14.753906 9.414062 14.511719 9.214844 14.28125 L 8.855469 13.859375 L 9.171875 14.496094 M 8.285156 14.90625 C 8.28125 14.957031 8.363281 15.199219 8.460938 15.449219 C 8.5625 15.695312 8.683594 16.144531 8.738281 16.441406 C 8.828125 16.964844 8.835938 16.972656 8.988281 16.695312 C 9.089844 16.511719 9.097656 16.441406 9.007812 16.496094 C 8.910156 16.554688 8.894531 16.484375 8.953125 16.253906 C 9.011719 16.023438 8.996094 15.949219 8.898438 16.007812 C 8.816406 16.058594 8.785156 16.03125 8.820312 15.9375 C 8.855469 15.851562 8.746094 15.5625 8.582031 15.300781 C 8.421875 15.035156 8.285156 14.859375 8.285156 14.90625 M 12.984375 15.296875 C 12.542969 15.671875 12.105469 15.835938 11.542969 15.851562 L 11.101562 15.859375 L 11.460938 15.96875 C 11.65625 16.027344 11.929688 16.039062 12.058594 15.996094 C 12.191406 15.949219 12.339844 15.921875 12.390625 15.9375 C 12.4375 15.949219 12.480469 15.902344 12.480469 15.832031 C 12.480469 15.761719 12.527344 15.734375 12.582031 15.769531 C 12.636719 15.800781 12.863281 15.644531 13.085938 15.414062 C 13.550781 14.933594 13.496094 14.867188 12.984375 15.296875 M 7.335938 16.5625 C 6.949219 17.757812 6.914062 18.066406 6.960938 19.621094 C 6.976562 20.234375 6.996094 20.289062 7.085938 19.988281 C 7.144531 19.796875 7.15625 19.40625 7.117188 19.121094 C 7.042969 18.574219 7.203125 18.417969 7.429688 18.808594 C 7.535156 18.988281 7.554688 18.964844 7.570312 18.660156 C 7.578125 18.460938 7.605469 18.007812 7.632812 17.65625 C 7.660156 17.300781 7.628906 16.945312 7.566406 16.867188 C 7.488281 16.773438 7.488281 16.570312 7.574219 16.269531 C 7.792969 15.476562 7.617188 15.695312 7.335938 16.5625 M 9.480469 15.824219 C 9.480469 15.910156 9.34375 16.253906 9.179688 16.582031 C 8.847656 17.246094 8.8125 17.53125 9.019531 17.917969 C 9.144531 18.15625 9.140625 18.164062 8.960938 18.015625 C 8.851562 17.925781 8.753906 17.734375 8.75 17.59375 C 8.742188 17.378906 8.722656 17.394531 8.617188 17.675781 C 8.550781 17.859375 8.53125 18.152344 8.574219 18.324219 L 8.65625 18.640625 L 8.910156 18.382812 C 9.082031 18.210938 9.171875 17.957031 9.1875 17.585938 C 9.199219 17.285156 9.261719 16.972656 9.328125 16.890625 C 9.546875 16.609375 9.699219 16 9.589844 15.828125 C 9.503906 15.691406 9.484375 15.6875 9.480469 15.824219 M 9.988281 17.152344 C 9.964844 17.796875 9.992188 17.960938 10.132812 17.960938 C 10.230469 17.960938 10.28125 17.914062 10.246094 17.855469 C 10.207031 17.796875 10.230469 17.683594 10.292969 17.605469 C 10.441406 17.414062 10.433594 17.03125 10.28125 17.125 C 10.210938 17.167969 10.195312 17.078125 10.242188 16.890625 C 10.289062 16.707031 10.257812 16.539062 10.167969 16.464844 C 10.054688 16.367188 10.011719 16.523438 9.988281 17.152344 M 8.042969 18.390625 C 8.039062 18.570312 8.09375 18.71875 8.160156 18.71875 C 8.3125 18.71875 8.3125 18.476562 8.160156 18.238281 C 8.070312 18.101562 8.042969 18.132812 8.042969 18.390625 M 10.175781 18.921875 C 10.265625 18.957031 10.367188 18.953125 10.40625 18.914062 C 10.449219 18.871094 10.375 18.84375 10.25 18.847656 C 10.109375 18.855469 10.082031 18.882812 10.175781 18.921875 M 8.660156 19.5 C 8.585938 19.664062 8.542969 19.800781 8.570312 19.800781 C 8.59375 19.800781 8.699219 19.664062 8.808594 19.5 C 8.917969 19.335938 8.957031 19.199219 8.902344 19.199219 C 8.84375 19.199219 8.738281 19.335938 8.660156 19.5 M 9.78125 19.320312 C 9.820312 19.386719 10.027344 19.433594 10.238281 19.429688 C 10.601562 19.417969 10.605469 19.410156 10.320312 19.320312 C 9.890625 19.183594 9.695312 19.183594 9.78125 19.320312 M 8.226562 19.910156 C 8.1875 19.972656 8.207031 20.054688 8.269531 20.09375 C 8.332031 20.132812 8.414062 20.113281 8.453125 20.050781 C 8.492188 19.988281 8.472656 19.90625 8.410156 19.867188 C 8.347656 19.828125 8.265625 19.847656 8.226562 19.910156 M 6.898438 20.761719 C 6.859375 20.824219 6.859375 20.878906 6.898438 20.878906 C 6.9375 20.878906 6.910156 20.988281 6.839844 21.125 C 6.765625 21.257812 6.664062 21.339844 6.613281 21.308594 C 6.5625 21.277344 6.335938 21.40625 6.109375 21.601562 C 5.882812 21.792969 5.746094 21.953125 5.804688 21.957031 C 5.863281 21.957031 5.84375 22.039062 5.761719 22.140625 C 5.65625 22.265625 5.652344 22.320312 5.746094 22.320312 C 5.820312 22.320312 5.886719 22.265625 5.894531 22.199219 C 5.902344 22.132812 5.917969 22.015625 5.925781 21.941406 C 5.933594 21.863281 6.015625 21.773438 6.105469 21.746094 C 6.222656 21.707031 6.242188 21.742188 6.175781 21.855469 C 6.058594 22.054688 6.539062 21.65625 6.917969 21.238281 C 7.203125 20.929688 7.285156 20.640625 7.085938 20.640625 C 7.023438 20.640625 6.941406 20.695312 6.898438 20.761719 M 6.34375 21.570312 C 6.195312 21.761719 6.199219 21.765625 6.390625 21.617188 C 6.589844 21.457031 6.652344 21.359375 6.554688 21.359375 C 6.53125 21.359375 6.433594 21.453125 6.34375 21.570312 M 7.167969 21.542969 C 6.757812 21.773438 6.839844 22 7.273438 21.835938 C 7.4375 21.773438 7.882812 21.714844 8.257812 21.710938 C 8.632812 21.707031 9.183594 21.660156 9.480469 21.605469 L 10.019531 21.511719 L 9.285156 21.496094 C 8.882812 21.488281 8.316406 21.453125 8.027344 21.417969 C 7.671875 21.375 7.390625 21.417969 7.167969 21.542969 "/>
</g>
</svg>
