<?xml version="1.0" encoding="UTF-8"?>
<svg xmlns="http://www.w3.org/2000/svg" xmlns:xlink="http://www.w3.org/1999/xlink" width="100px" height="100px" viewBox="0 0 100 100" version="1.1">
<g id="surface1">
<path style=" stroke:none;fill-rule:evenodd;fill:rgb(0%,0%,0%);fill-opacity:1;" d="M 58.5 5.175781 C 58.5 5.507812 58.800781 6.222656 59.167969 6.761719 C 59.535156 7.304688 59.988281 8.175781 60.179688 8.695312 C 60.484375 9.535156 60.425781 9.5625 59.679688 8.945312 C 58.910156 8.3125 58.890625 8.347656 59.441406 9.390625 C 59.777344 10.015625 60.25 10.40625 60.492188 10.257812 C 60.734375 10.105469 61.074219 10.214844 61.25 10.5 C 61.425781 10.785156 61.753906 10.902344 61.976562 10.761719 C 62.203125 10.625 62.695312 10.902344 63.070312 11.378906 C 63.675781 12.15625 63.660156 12.179688 62.917969 11.601562 C 61.707031 10.652344 61.339844 11.699219 62.511719 12.761719 C 63.609375 13.753906 63.8125 15.25 62.921875 15.796875 C 62.59375 16.003906 62.480469 15.9375 62.660156 15.644531 C 62.835938 15.363281 62.535156 14.734375 62 14.25 C 61.464844 13.765625 61.117188 13.21875 61.230469 13.035156 C 61.339844 12.851562 61.234375 12.378906 60.988281 11.980469 C 60.632812 11.40625 60.414062 11.386719 59.921875 11.878906 C 59.4375 12.363281 59.433594 12.632812 59.898438 13.101562 C 60.703125 13.902344 60.683594 17.003906 59.875 16.992188 C 59.53125 16.988281 58.710938 16.414062 58.050781 15.71875 C 55.367188 12.886719 55.652344 16.949219 58.410156 20.835938 C 59.6875 22.632812 59.777344 23.128906 59.925781 29 C 60.007812 32.4375 59.894531 35.738281 59.664062 36.332031 C 59.398438 37.023438 59.222656 35.402344 59.171875 31.832031 C 59.089844 26.074219 58.457031 23.160156 57.421875 23.796875 C 57.050781 24.027344 56.980469 23.933594 57.230469 23.53125 C 57.457031 23.164062 57.179688 22.3125 56.5625 21.480469 C 55.960938 20.660156 55.632812 19.671875 55.796875 19.152344 C 56.007812 18.492188 55.773438 18.585938 54.921875 19.511719 L 53.761719 20.773438 L 53.007812 19.261719 C 52.070312 17.390625 51.195312 17.707031 51.410156 19.835938 C 51.550781 21.226562 51.441406 21.390625 50.539062 21.15625 C 49.535156 20.890625 49.539062 20.945312 50.707031 23.066406 C 52.109375 25.613281 52.398438 28.925781 51.828125 36 C 51.59375 38.917969 51.640625 41.394531 51.953125 42.417969 C 52.386719 43.859375 52.28125 44.351562 51.179688 46.015625 C 50.480469 47.074219 50.054688 48.1875 50.238281 48.484375 C 50.425781 48.78125 50.304688 48.964844 49.972656 48.886719 C 49.644531 48.8125 49.261719 49.0625 49.121094 49.445312 C 48.972656 49.859375 49.089844 50.003906 49.417969 49.800781 C 49.738281 49.601562 49.660156 50.191406 49.230469 51.214844 C 48.828125 52.179688 48.5 53.539062 48.5 54.234375 C 48.5 55.027344 48.21875 55.5 47.75 55.5 C 47.335938 55.5 47 55.761719 47 56.082031 C 47 56.402344 46.878906 56.542969 46.730469 56.394531 C 46.578125 56.246094 47.03125 54.832031 47.730469 53.25 C 49.125 50.09375 49.203125 49.816406 48.574219 50.203125 C 48.339844 50.347656 47.882812 49.585938 47.558594 48.503906 C 46.644531 45.449219 46.003906 45.585938 45.976562 48.84375 C 45.964844 50.441406 45.640625 52.425781 45.253906 53.25 L 44.554688 54.75 L 44.832031 52.6875 C 44.992188 51.496094 44.890625 50.492188 44.589844 50.304688 C 43.882812 49.867188 43.710938 50.226562 42.507812 54.722656 C 41.359375 59.003906 41.449219 60.320312 42.660156 56.90625 C 43.078125 55.71875 43.4375 55.160156 43.460938 55.65625 C 43.480469 56.15625 43.265625 57 42.984375 57.53125 C 42.660156 58.132812 42.648438 58.5 42.949219 58.5 C 43.214844 58.5 43.308594 59.117188 43.160156 59.875 C 43.007812 60.632812 42.871094 61.5 42.859375 61.804688 C 42.84375 62.113281 42.445312 62.261719 41.972656 62.136719 C 41.414062 61.992188 41.128906 61.445312 41.15625 60.582031 C 41.257812 57.484375 40.964844 55 40.5 55 C 40.226562 55 40 56.160156 40 57.578125 C 40 60.117188 39.984375 60.140625 39.007812 59.257812 C 38.464844 58.765625 37.585938 57.210938 37.058594 55.804688 C 36.152344 53.398438 36.074219 53.328125 35.753906 54.582031 C 35.53125 55.460938 35.757812 56.6875 36.429688 58.207031 C 36.988281 59.46875 37.316406 60.5 37.160156 60.5 C 37.003906 60.5 37.15625 60.835938 37.5 61.25 C 38.25 62.15625 37.472656 62.253906 36.527344 61.375 C 36.160156 61.03125 36.277344 61.480469 36.785156 62.375 C 37.296875 63.269531 38.003906 64 38.359375 64 C 38.71875 64 39 64.578125 39 65.3125 C 39 66.371094 38.867188 66.511719 38.304688 66.046875 C 37.445312 65.332031 34.617188 59.476562 34.234375 57.621094 C 33.988281 56.425781 34.082031 56.484375 34.972656 58.09375 C 36.511719 60.878906 37.242188 60.949219 35.84375 58.175781 C 35.171875 56.839844 34.214844 54.398438 33.71875 52.75 C 33.21875 51.101562 32.628906 49.535156 32.40625 49.273438 C 31.320312 48.003906 32.78125 56.320312 34.226562 59.628906 C 34.523438 60.3125 34.429688 60.441406 33.804688 60.203125 C 32.773438 59.804688 32.765625 59.753906 34.308594 63.539062 C 35.691406 66.933594 36.003906 70.480469 35.261719 74.429688 L 34.855469 76.605469 L 34.09375 74.929688 L 33.332031 73.25 L 32.980469 75 C 32.773438 76.046875 32.585938 73.734375 32.523438 69.25 L 32.414062 61.75 L 30.433594 67.75 C 28.699219 73.019531 28.445312 74.390625 28.351562 79 C 28.296875 81.886719 28.429688 84.605469 28.644531 85.039062 C 28.9375 85.621094 28.183594 86.664062 25.769531 89.019531 C 22.890625 91.828125 22.585938 92.300781 23.234375 92.949219 C 23.878906 93.59375 24.089844 93.574219 24.964844 92.78125 C 25.53125 92.269531 26.316406 92.011719 26.777344 92.191406 C 27.222656 92.363281 28.75 92.167969 30.167969 91.757812 C 31.742188 91.304688 35.414062 90.964844 39.574219 90.882812 C 46.097656 90.757812 47.628906 90.441406 44.632812 89.839844 C 43.871094 89.6875 42.238281 89.332031 41 89.050781 C 38 88.375 31.1875 88.363281 29.929688 89.039062 C 29.039062 89.515625 28.984375 89.472656 29.453125 88.664062 C 30.507812 86.847656 31.929688 85.5 32.789062 85.5 C 33.273438 85.5 34.667969 84.460938 35.886719 83.1875 C 37.371094 81.636719 38.457031 80.914062 39.175781 81 C 42.617188 81.394531 49.183594 81.191406 49.351562 80.683594 C 49.460938 80.371094 48.757812 79.972656 47.773438 79.785156 C 45.566406 79.371094 45.515625 78.777344 47.625 78 C 50.058594 77.101562 48.480469 76.847656 44.390625 77.484375 C 41.902344 77.867188 40.710938 77.882812 40.59375 77.527344 C 40.324219 76.71875 38.507812 77.882812 38.460938 78.890625 C 38.433594 79.492188 38.339844 79.546875 38.152344 79.074219 C 37.96875 78.617188 37.082031 79.269531 35.441406 81.066406 C 33.015625 83.714844 32.574219 84.324219 33.464844 83.773438 C 33.722656 83.613281 34.070312 83.710938 34.242188 83.988281 C 34.425781 84.285156 34.03125 84.449219 33.277344 84.386719 C 32.574219 84.328125 32 84.128906 32 83.945312 C 32 83.761719 32.890625 82.53125 33.976562 81.21875 C 35.0625 79.902344 35.816406 78.605469 35.648438 78.335938 C 35.480469 78.066406 35.585938 77.992188 35.878906 78.175781 C 36.171875 78.355469 37.105469 77.628906 37.957031 76.554688 C 39.554688 74.535156 39.921875 73.679688 38.921875 74.296875 C 38.5625 74.519531 38.480469 74.433594 38.707031 74.070312 C 38.90625 73.746094 39.265625 73.605469 39.503906 73.753906 C 39.742188 73.898438 40.171875 73.621094 40.453125 73.136719 C 40.804688 72.535156 40.972656 72.472656 40.984375 72.941406 C 40.992188 73.320312 40.53125 74.390625 39.960938 75.316406 C 39.386719 76.242188 39.160156 77 39.460938 77 C 39.757812 77 40.003906 76.71875 40.007812 76.375 C 40.011719 75.878906 40.097656 75.878906 40.410156 76.367188 C 40.695312 76.824219 41.261719 76.605469 42.527344 75.546875 C 44.183594 74.160156 44.25 73.96875 44.25 70.683594 C 44.25 66.707031 44.550781 66.492188 48.761719 67.503906 C 50.996094 68.039062 51.542969 68.007812 53.035156 67.25 C 56.152344 65.675781 59.511719 61.734375 58.765625 60.523438 C 58.613281 60.277344 56.785156 61.242188 54.699219 62.664062 C 51.230469 65.03125 50.652344 65.257812 47.855469 65.332031 C 45.703125 65.390625 44.625 65.652344 44.214844 66.214844 C 43.710938 66.902344 43.585938 66.804688 43.328125 65.511719 C 42.960938 63.683594 43.300781 62.667969 44.273438 62.667969 C 45.191406 62.667969 45.191406 62.960938 44.253906 63.996094 C 43.574219 64.746094 43.6875 64.804688 45.601562 64.652344 C 48.003906 64.460938 48.859375 63.972656 52.070312 60.941406 C 55.375 57.824219 60.335938 53.796875 63.230469 51.886719 C 65.152344 50.621094 65.726562 49.9375 65.777344 48.867188 C 65.816406 48.109375 66.027344 47.320312 66.253906 47.117188 C 66.476562 46.914062 66.519531 47.144531 66.34375 47.625 C 66.171875 48.105469 66.128906 48.5 66.246094 48.5 C 66.550781 48.5 69 44.847656 69 44.398438 C 69 43.578125 63.296875 48.089844 63.15625 49.027344 C 63.023438 49.890625 63.140625 49.960938 64 49.5 C 65.722656 48.578125 65.085938 49.347656 63.210938 50.457031 C 62.226562 51.035156 61.210938 51.382812 60.953125 51.222656 C 60.699219 51.0625 59.78125 51.285156 58.917969 51.714844 C 58.054688 52.148438 56.988281 52.480469 56.546875 52.457031 C 56.109375 52.433594 56.875 51.886719 58.25 51.238281 C 61.101562 49.894531 61.707031 49.757812 61.203125 50.578125 C 60.972656 50.945312 61.066406 51.019531 61.457031 50.777344 C 61.792969 50.570312 61.941406 50.277344 61.789062 50.125 C 61.640625 49.972656 61.90625 49.53125 62.382812 49.144531 C 63.394531 48.320312 63.09375 48.40625 59.804688 49.910156 C 58.460938 50.523438 57.273438 50.941406 57.171875 50.839844 C 57.070312 50.738281 57.433594 50.085938 57.976562 49.394531 C 58.523438 48.699219 58.855469 48.023438 58.722656 47.886719 C 58.585938 47.753906 58.875 47.328125 59.363281 46.945312 C 60.167969 46.3125 60.1875 46.328125 59.5625 47.125 C 59.1875 47.605469 59.085938 48 59.339844 48 C 59.953125 48 62.722656 45.054688 63.457031 43.625 C 63.917969 42.726562 64.460938 42.5 66.15625 42.5 C 68.226562 42.5 70.121094 41.597656 71.355469 40.023438 C 76.59375 33.347656 76.507812 31.257812 71.1875 35.984375 C 69.296875 37.667969 67.011719 39.476562 66.113281 40.011719 C 64.480469 40.976562 64.476562 40.976562 65.011719 39.980469 C 65.304688 39.429688 65.984375 38.703125 66.523438 38.371094 C 67.058594 38.035156 67.5 37.589844 67.5 37.378906 C 67.5 36.53125 66.402344 37.117188 64 39.25 C 60.367188 42.476562 60.179688 42.242188 63.199219 38.25 C 64.035156 37.148438 65.660156 35.238281 66.816406 34 C 69.050781 31.601562 69.992188 29.117188 69.996094 25.609375 C 70 24.425781 70.683594 21.695312 71.527344 19.507812 C 72.6875 16.496094 73.015625 14.914062 72.902344 12.898438 C 72.808594 11.253906 72.535156 10.289062 72.179688 10.355469 C 71.859375 10.417969 71.460938 9.492188 71.273438 8.242188 C 70.953125 6.101562 70.273438 5.058594 69.617188 5.714844 C 69.445312 5.886719 69.246094 7.316406 69.175781 8.890625 C 68.949219 13.847656 67.710938 19.414062 66.996094 18.6875 C 66.753906 18.441406 66.800781 17.367188 67.105469 16.238281 C 67.5625 14.539062 67.464844 13.613281 66.496094 10.339844 C 65.332031 6.417969 64.480469 5.859375 64.390625 8.953125 C 64.347656 10.535156 63.550781 10.453125 63.316406 8.839844 C 63.066406 7.148438 58.5 3.675781 58.5 5.175781 M 57.832031 7.332031 C 57.648438 7.515625 57.5 8.269531 57.5 9.007812 C 57.5 10.5 59.1875 12.410156 59.730469 11.527344 C 59.914062 11.234375 59.691406 10.851562 59.238281 10.675781 C 58.605469 10.433594 58.488281 9.976562 58.730469 8.679688 C 59.023438 7.125 58.628906 6.535156 57.832031 7.332031 M 60.71875 8.386719 C 60.890625 8.554688 61.378906 8.746094 61.808594 8.808594 C 62.238281 8.875 62.453125 8.785156 62.28125 8.613281 C 62.109375 8.445312 61.621094 8.253906 61.191406 8.191406 C 60.761719 8.125 60.546875 8.214844 60.71875 8.386719 M 64.3125 11.398438 C 64.175781 11.617188 64.265625 12.121094 64.511719 12.515625 C 64.847656 13.058594 64.933594 12.960938 64.871094 12.117188 C 64.78125 10.90625 64.691406 10.789062 64.3125 11.398438 M 61.5 13.203125 C 61.5 13.300781 61.835938 13.65625 62.25 14 C 62.683594 14.359375 63 14.40625 63 14.113281 C 63 13.835938 62.664062 13.476562 62.25 13.320312 C 61.835938 13.160156 61.5 13.109375 61.5 13.203125 M 71.078125 14.5 C 71.078125 15.1875 71.191406 15.46875 71.332031 15.125 C 71.46875 14.78125 71.46875 14.21875 71.332031 13.875 C 71.191406 13.53125 71.078125 13.8125 71.078125 14.5 M 56.777344 15.636719 C 56.957031 16.113281 57.308594 16.5 57.554688 16.5 C 57.800781 16.5 58 16.738281 58 17.03125 C 58 17.320312 57.757812 17.410156 57.464844 17.226562 C 56.625 16.707031 58.820312 20.730469 59.816406 21.535156 C 60.660156 22.214844 60.664062 22.191406 59.851562 21.011719 C 58.882812 19.605469 58.777344 19 59.5 19 C 59.773438 19 60 19.324219 60 19.71875 C 60 20.117188 60.222656 20.578125 60.5 20.75 C 60.828125 20.953125 60.832031 20.625 60.511719 19.777344 C 59.824219 17.976562 60.316406 18.1875 61.304688 20.125 C 62.128906 21.734375 65 25.316406 65 24.734375 C 65 24.570312 64.4375 23.695312 63.753906 22.796875 C 63.066406 21.898438 62.25 20.429688 61.9375 19.539062 C 61.546875 18.410156 61.125 17.988281 60.5625 18.148438 C 60.113281 18.273438 59.441406 18.460938 59.0625 18.5625 C 58.683594 18.667969 58.261719 18.4375 58.121094 18.054688 C 57.96875 17.628906 58.089844 17.496094 58.433594 17.710938 C 59.492188 18.363281 59.003906 17.179688 57.722656 15.972656 C 56.792969 15.101562 56.535156 15.007812 56.777344 15.636719 M 69.25 17 C 69.0625 17.589844 69.019531 18.1875 69.160156 18.324219 C 69.296875 18.464844 69.5625 18.089844 69.75 17.5 C 69.9375 16.910156 69.980469 16.3125 69.839844 16.175781 C 69.703125 16.035156 69.4375 16.410156 69.25 17 M 63.070312 19.390625 C 63.582031 20.390625 64 21.488281 64 21.824219 C 64 22.164062 64.210938 22.570312 64.46875 22.730469 C 64.742188 22.898438 64.726562 22.34375 64.425781 21.382812 C 63.410156 18.117188 63.371094 17.648438 64.230469 19 L 65.023438 20.25 L 64.886719 19.007812 C 64.78125 18.070312 64.433594 17.742188 63.445312 17.667969 L 62.144531 17.570312 L 63.070312 19.390625 M 51.78125 18.648438 C 51.96875 19.140625 52.25 19.417969 52.402344 19.261719 C 52.558594 19.109375 52.402344 18.707031 52.0625 18.367188 C 51.566406 17.875 51.511719 17.933594 51.78125 18.648438 M 68.832031 19.832031 C 68.648438 20.015625 68.503906 20.410156 68.507812 20.707031 C 68.511719 21.007812 68.734375 20.914062 69 20.5 C 69.386719 19.902344 69.492188 20.003906 69.527344 21 C 69.566406 22.136719 69.605469 22.160156 69.972656 21.25 C 70.542969 19.832031 69.78125 18.886719 68.832031 19.832031 M 52.539062 20.792969 C 52.5625 21.375 52.683594 21.492188 52.839844 21.09375 C 52.984375 20.734375 52.96875 20.300781 52.800781 20.136719 C 52.636719 19.96875 52.519531 20.265625 52.539062 20.792969 M 65.582031 21.664062 C 65.515625 22.535156 65.703125 24.710938 66.003906 26.5 C 66.449219 29.164062 66.410156 30.140625 65.78125 31.910156 C 65.074219 33.910156 65.082031 34.058594 65.867188 33.90625 C 67.199219 33.648438 68.875 30.726562 69.246094 28.015625 C 69.589844 25.523438 69.355469 24.5 68.441406 24.5 C 68.164062 24.5 68.097656 24.753906 68.289062 25.066406 C 68.5 25.40625 68.367188 25.539062 67.957031 25.402344 C 67.160156 25.136719 65.824219 21 66.53125 21 C 66.789062 21 67.027344 21.226562 67.0625 21.5 C 67.097656 21.773438 67.179688 22.226562 67.25 22.5 C 67.320312 22.773438 67.402344 23.332031 67.4375 23.734375 C 67.476562 24.179688 67.800781 24.351562 68.265625 24.175781 C 68.925781 23.921875 68.910156 23.789062 68.140625 23.207031 C 67.507812 22.726562 67.449219 22.527344 67.9375 22.515625 C 68.5 22.503906 68.507812 22.363281 67.976562 21.722656 C 67.621094 21.296875 66.964844 20.75 66.519531 20.511719 C 65.855469 20.15625 65.683594 20.367188 65.582031 21.664062 M 55 22.121094 C 55 22.847656 54.773438 23.578125 54.5 23.75 C 53.859375 24.144531 53.847656 25.5 54.484375 25.5 C 54.75 25.5 54.84375 25.105469 54.6875 24.625 C 54.449219 23.886719 54.488281 23.867188 54.945312 24.5 C 55.242188 24.914062 55.488281 25.9375 55.492188 26.78125 C 55.496094 27.621094 55.832031 28.746094 56.234375 29.28125 C 56.914062 30.179688 56.96875 30.085938 56.972656 28 C 56.976562 25.304688 56.285156 22.085938 55.539062 21.339844 C 55.152344 20.953125 55 21.175781 55 22.121094 M 51.28125 22.648438 C 51.46875 23.140625 51.75 23.417969 51.902344 23.261719 C 52.058594 23.109375 51.902344 22.707031 51.5625 22.367188 C 51.066406 21.875 51.011719 21.933594 51.28125 22.648438 M 61.703125 23.375 C 62.683594 24.53125 62.175781 24.972656 61.101562 23.898438 C 60.632812 23.433594 60.5 23.515625 60.507812 24.273438 C 60.515625 25.273438 61.324219 26.910156 61.597656 26.484375 C 62.898438 24.46875 62.929688 24.089844 61.847656 23.175781 L 60.75 22.25 L 61.703125 23.375 M 57.539062 25.292969 C 57.5625 25.875 57.683594 25.992188 57.839844 25.59375 C 57.984375 25.234375 57.96875 24.800781 57.800781 24.636719 C 57.636719 24.46875 57.519531 24.765625 57.539062 25.292969 M 54.039062 26.792969 C 54.0625 27.375 54.183594 27.492188 54.339844 27.09375 C 54.484375 26.734375 54.46875 26.300781 54.300781 26.136719 C 54.136719 25.96875 54.019531 26.265625 54.039062 26.792969 M 63.167969 26.78125 C 63.003906 27.207031 63.082031 28.503906 63.34375 29.65625 L 63.820312 31.75 L 64.476562 29.664062 C 65.148438 27.53125 64.949219 26 64 26 C 63.707031 26 63.335938 26.351562 63.167969 26.78125 M 67.273438 27.683594 C 67.421875 28.609375 67.203125 30.351562 66.789062 31.558594 L 66.042969 33.75 L 67.011719 32.5 C 67.542969 31.8125 68 30.800781 68.027344 30.25 C 68.054688 29.699219 68.15625 28.832031 68.253906 28.320312 C 68.464844 27.191406 68.054688 26 67.449219 26 C 67.203125 26 67.125 26.757812 67.273438 27.683594 M 56.921875 31.726562 C 56.097656 35.15625 55.753906 37.582031 56 38.226562 C 56.355469 39.152344 56.425781 39.105469 56.730469 37.75 C 57.46875 34.5 57.859375 34.265625 57.769531 37.132812 C 57.722656 38.71875 57.417969 40.285156 57.089844 40.609375 C 56.253906 41.445312 56.355469 41.777344 57.464844 41.859375 C 58.734375 41.957031 59.949219 40.585938 59.074219 40.046875 C 58.734375 39.835938 58.605469 39.246094 58.78125 38.710938 C 58.976562 38.105469 58.933594 37.96875 58.660156 38.347656 C 58.410156 38.691406 58.304688 36.796875 58.414062 33.847656 C 58.703125 26.046875 58.394531 25.609375 56.921875 31.726562 M 52.5 27.78125 C 52.5 28.234375 52.738281 28.414062 53.066406 28.207031 C 53.476562 27.953125 53.535156 28.511719 53.28125 30.21875 C 52.898438 32.757812 53.328125 36.5 53.996094 36.5 C 54.222656 36.5 54.289062 36.050781 54.144531 35.5 C 54 34.941406 54.128906 34.5 54.441406 34.5 C 55.242188 34.5 55.128906 32.058594 54.203125 29.339844 C 53.425781 27.058594 52.5 26.210938 52.5 27.78125 M 54.820312 29 C 55.019531 29.6875 55.339844 31.148438 55.527344 32.25 L 55.875 34.25 L 55.917969 32.25 C 55.945312 31.148438 55.625 29.6875 55.210938 29 L 54.457031 27.75 L 54.820312 29 M 61.039062 28.792969 C 61.0625 29.375 61.183594 29.492188 61.339844 29.09375 C 61.484375 28.734375 61.46875 28.300781 61.300781 28.136719 C 61.136719 27.96875 61.019531 28.265625 61.039062 28.792969 M 65.039062 29.859375 C 65.019531 30.195312 64.136719 32.234375 63.082031 34.390625 C 62.027344 36.550781 61.027344 38.863281 60.863281 39.535156 C 60.59375 40.613281 60.726562 40.554688 62.066406 39 C 63.972656 36.785156 65.207031 34.5 64.496094 34.5 C 64.140625 34.5 64.167969 34.121094 64.566406 33.375 C 64.898438 32.757812 65.160156 32.136719 65.148438 32 C 65.136719 31.863281 65.234375 31.476562 65.359375 31.140625 C 65.488281 30.808594 65.476562 30.246094 65.335938 29.890625 C 65.148438 29.421875 65.070312 29.414062 65.039062 29.859375 M 62.355469 31 C 62.210938 31.550781 62.296875 32.125 62.546875 32.277344 C 62.796875 32.433594 63 31.984375 63 31.28125 C 63 29.746094 62.714844 29.625 62.355469 31 M 61.097656 31.75 C 61.109375 32.574219 61.21875 32.851562 61.347656 32.367188 C 61.472656 31.878906 61.464844 31.203125 61.328125 30.867188 C 61.191406 30.527344 61.085938 30.925781 61.097656 31.75 M 60.574219 34.75 C 60.527344 35.574219 60.371094 36.8125 60.230469 37.5 L 59.972656 38.75 L 60.507812 37.515625 C 60.804688 36.839844 60.960938 35.601562 60.851562 34.765625 L 60.660156 33.25 L 60.574219 34.75 M 61.535156 34.875 C 61.566406 36.09375 61.617188 36.136719 62 35.25 C 62.585938 33.882812 62.585938 33.5 62 33.5 C 61.726562 33.5 61.515625 34.117188 61.535156 34.875 M 72.046875 35.765625 C 70.925781 36.78125 70.136719 37.816406 70.292969 38.066406 C 70.445312 38.320312 70.390625 38.472656 70.160156 38.40625 C 69.308594 38.160156 67.472656 39.585938 67.609375 40.390625 C 67.6875 40.851562 67.488281 41.234375 67.167969 41.238281 C 66.253906 41.257812 65.734375 42 66.636719 42 C 67.078125 42 67.582031 41.773438 67.753906 41.492188 C 67.929688 41.210938 68.257812 41.101562 68.492188 41.246094 C 68.726562 41.390625 69.640625 40.785156 70.523438 39.898438 C 71.40625 39.015625 71.882812 38.210938 71.582031 38.109375 C 71.191406 37.980469 71.199219 37.667969 71.605469 37.015625 C 71.921875 36.511719 72.421875 36.191406 72.714844 36.304688 C 73.277344 36.523438 74.742188 34.578125 74.328125 34.164062 C 74.195312 34.03125 73.171875 34.753906 72.046875 35.765625 M 52.296875 36.425781 C 52.128906 36.695312 52.277344 37.046875 52.621094 37.207031 C 53.125 37.441406 53.125 37.558594 52.625 37.792969 C 51.378906 38.371094 52.492188 44.300781 53.753906 43.816406 C 54.132812 43.671875 54.535156 43.933594 54.660156 44.402344 C 54.785156 44.867188 54.882812 44.125 54.882812 42.75 C 54.882812 40.988281 54.789062 40.640625 54.566406 41.574219 C 54.339844 42.519531 54.109375 42.734375 53.75 42.324219 C 53.476562 42.007812 53.222656 41.414062 53.1875 41 C 53.15625 40.585938 53.042969 39.800781 52.9375 39.25 C 52.820312 38.628906 52.992188 38.300781 53.398438 38.382812 C 53.910156 38.488281 53.921875 38.28125 53.453125 37.382812 C 52.671875 35.875 52.648438 35.859375 52.296875 36.425781 M 57.832031 40.332031 C 57.648438 40.515625 57.5 40.898438 57.5 41.183594 C 57.5 41.496094 57.734375 41.46875 58.089844 41.109375 C 58.417969 40.78125 58.566406 40.402344 58.425781 40.257812 C 58.28125 40.117188 58.015625 40.148438 57.832031 40.332031 M 62.984375 41.527344 C 62.683594 42.089844 62.507812 42.929688 62.597656 43.394531 C 62.695312 43.882812 63 43.457031 63.332031 42.367188 C 63.96875 40.300781 63.824219 39.957031 62.984375 41.527344 M 57.769531 44.351562 C 56.519531 46.324219 56.261719 46.515625 55.941406 45.699219 C 55.699219 45.082031 55.570312 45.011719 55.570312 45.5 C 55.570312 45.914062 55.746094 46.699219 55.960938 47.25 C 56.34375 48.222656 56.359375 48.222656 56.703125 47.152344 C 56.9375 46.40625 57.324219 46.140625 57.902344 46.324219 C 58.566406 46.535156 58.601562 46.488281 58.0625 46.101562 C 57.347656 45.59375 57.75 44.285156 58.480469 44.738281 C 58.871094 44.976562 59.734375 42.566406 59.382812 42.21875 C 59.292969 42.128906 58.566406 43.085938 57.769531 44.351562 M 60.980469 43.582031 C 60.410156 44.699219 60.421875 44.710938 61.285156 43.886719 C 61.785156 43.410156 62.054688 42.886719 61.886719 42.71875 C 61.71875 42.550781 61.3125 42.941406 60.980469 43.582031 M 57.3125 47.769531 C 56.828125 49.027344 56.972656 49.351562 57.5625 48.335938 C 57.851562 47.835938 57.988281 47.320312 57.859375 47.191406 C 57.730469 47.0625 57.484375 47.324219 57.3125 47.769531 M 52.222656 49.71875 C 52.046875 50.660156 52.050781 51.675781 52.234375 51.972656 C 52.414062 52.265625 51.4375 54.128906 50.058594 56.113281 C 48.679688 58.09375 47.628906 59.796875 47.726562 59.894531 C 47.996094 60.164062 50.15625 58.84375 50.820312 58.003906 C 51.144531 57.597656 51.285156 57.054688 51.128906 56.804688 C 50.972656 56.550781 51.105469 56.507812 51.421875 56.703125 C 51.816406 56.945312 52 56.527344 52 55.398438 C 52 54.359375 52.429688 53.273438 53.152344 52.496094 C 54.492188 51.042969 55.179688 49.5 54.484375 49.5 C 54.21875 49.5 54 49.808594 54 50.1875 C 54 50.566406 53.683594 51.140625 53.292969 51.464844 C 52.699219 51.957031 52.632812 51.726562 52.859375 50.023438 C 53.191406 47.5625 52.675781 47.316406 52.222656 49.71875 M 46.625 51.570312 C 46.28125 52.53125 46.007812 53.753906 46.019531 54.285156 C 46.035156 55.058594 46.191406 54.96875 46.800781 53.847656 C 47.21875 53.074219 47.492188 51.851562 47.40625 51.128906 C 47.257812 49.867188 47.226562 49.882812 46.625 51.570312 M 49.601562 52.6875 C 48.902344 55.316406 49.007812 55.945312 49.960938 54.796875 C 50.292969 54.398438 50.492188 53.210938 50.40625 52.160156 L 50.25 50.25 L 49.601562 52.6875 M 55.515625 54.34375 C 55.53125 55.621094 55.59375 55.667969 56.195312 54.875 C 56.894531 53.953125 57.78125 53.640625 57.25 54.5 C 56.808594 55.214844 57.59375 55.089844 58.675781 54.265625 C 59.539062 53.613281 59.5 53.566406 58.125 53.605469 C 57.308594 53.628906 56.386719 53.488281 56.070312 53.292969 C 55.695312 53.058594 55.503906 53.414062 55.515625 54.34375 M 53.332031 55.414062 C 53.425781 55.78125 53.5 56.175781 53.5 56.289062 C 53.5 56.40625 53.726562 56.5 54 56.5 C 54.273438 56.5 54.5 56.148438 54.5 55.71875 C 54.5 55.292969 54.292969 55.066406 54.042969 55.222656 C 53.789062 55.378906 53.492188 55.335938 53.375 55.128906 C 53.257812 54.921875 53.238281 55.050781 53.332031 55.414062 M 44.808594 55.875 C 44.273438 57.699219 43.976562 60.777344 44.433594 59.75 C 44.855469 58.808594 44.894531 58.820312 45.125 60 C 45.257812 60.6875 45.265625 60.042969 45.140625 58.570312 C 44.984375 56.734375 45.085938 55.992188 45.453125 56.21875 C 45.78125 56.425781 45.875 56.253906 45.691406 55.777344 C 45.308594 54.777344 45.128906 54.796875 44.808594 55.875 M 51.898438 58.527344 C 51.265625 59.382812 50.738281 60.347656 50.726562 60.667969 C 50.714844 60.988281 50.433594 61.195312 50.101562 61.125 C 49.769531 61.054688 49.554688 61.28125 49.625 61.625 C 49.699219 62 49.328125 62.191406 48.6875 62.105469 C 48.082031 62.019531 47.496094 62.292969 47.328125 62.730469 C 47.148438 63.195312 47.304688 63.5 47.726562 63.5 C 48.703125 63.5 51.5625 61.007812 51.222656 60.453125 C 51.066406 60.203125 51.152344 60 51.410156 60 C 51.671875 60 52 59.550781 52.144531 58.996094 C 52.320312 58.328125 52.671875 58.097656 53.203125 58.300781 C 54.054688 58.628906 54.324219 57.757812 53.523438 57.265625 C 53.265625 57.105469 52.53125 57.671875 51.898438 58.527344 M 38.21875 60.394531 C 38.945312 61.847656 39.695312 62.9375 39.894531 62.816406 C 40.089844 62.695312 40.285156 63.1875 40.328125 63.90625 C 40.371094 64.628906 40.660156 65.304688 40.964844 65.40625 C 41.269531 65.507812 41.871094 66.265625 42.296875 67.089844 C 42.722656 67.917969 43.183594 68.484375 43.316406 68.351562 C 43.730469 67.933594 42.082031 64.5 41.46875 64.5 C 41.132812 64.5 40.992188 64.078125 41.140625 63.519531 C 41.417969 62.457031 40.414062 61.273438 39.75 61.878906 C 39.523438 62.082031 39.464844 62.023438 39.617188 61.75 C 39.773438 61.476562 39.222656 60.460938 38.402344 59.5 L 36.902344 57.75 L 38.21875 60.394531 M 34.515625 62.113281 C 34.507812 62.316406 34.839844 63.328125 35.253906 64.367188 C 35.671875 65.40625 36.1875 67.265625 36.40625 68.503906 C 36.789062 70.679688 36.820312 70.714844 37.449219 69.566406 C 37.875 68.789062 37.902344 68.5 37.53125 68.730469 C 37.128906 68.980469 37.0625 68.679688 37.304688 67.71875 C 37.542969 66.757812 37.476562 66.457031 37.078125 66.703125 C 36.738281 66.910156 36.609375 66.792969 36.757812 66.402344 C 36.890625 66.042969 36.445312 64.851562 35.765625 63.75 C 35.085938 62.648438 34.523438 61.914062 34.515625 62.113281 M 54.109375 63.734375 C 52.257812 65.292969 50.445312 65.988281 48.09375 66.042969 L 46.25 66.085938 L 47.75 66.535156 C 48.574219 66.78125 49.699219 66.832031 50.25 66.644531 C 50.800781 66.457031 51.417969 66.347656 51.625 66.402344 C 51.832031 66.457031 52 66.261719 52 65.96875 C 52 65.679688 52.191406 65.558594 52.421875 65.699219 C 52.652344 65.84375 53.597656 65.183594 54.519531 64.230469 C 56.46875 62.21875 56.238281 61.945312 54.109375 63.734375 M 30.566406 69.011719 C 28.964844 73.988281 28.804688 75.28125 28.996094 81.75 C 29.074219 84.3125 29.148438 84.539062 29.523438 83.292969 C 29.761719 82.488281 29.824219 80.859375 29.660156 79.667969 C 29.347656 77.390625 30.003906 76.734375 30.960938 78.375 C 31.390625 79.117188 31.480469 79.019531 31.535156 77.75 C 31.574219 76.925781 31.695312 75.039062 31.808594 73.558594 C 31.921875 72.082031 31.792969 70.601562 31.523438 70.277344 C 31.199219 69.886719 31.207031 69.039062 31.550781 67.796875 C 32.464844 64.484375 31.734375 65.390625 30.566406 69.011719 M 39.507812 65.925781 C 39.503906 66.300781 38.9375 67.722656 38.25 69.09375 C 36.863281 71.855469 36.71875 73.039062 37.582031 74.65625 C 38.109375 75.644531 38.085938 75.683594 37.332031 75.0625 C 36.875 74.6875 36.480469 73.898438 36.460938 73.3125 C 36.425781 72.417969 36.339844 72.472656 35.910156 73.648438 C 35.632812 74.414062 35.550781 75.632812 35.730469 76.351562 L 36.058594 77.664062 L 37.121094 76.601562 C 37.847656 75.875 38.210938 74.824219 38.277344 73.273438 C 38.328125 72.027344 38.59375 70.722656 38.863281 70.378906 C 39.78125 69.203125 40.410156 66.660156 39.957031 65.945312 C 39.59375 65.375 39.515625 65.371094 39.507812 65.925781 M 41.621094 71.460938 C 41.519531 74.148438 41.640625 74.832031 42.222656 74.832031 C 42.628906 74.832031 42.835938 74.636719 42.683594 74.394531 C 42.535156 74.152344 42.628906 73.683594 42.890625 73.351562 C 43.511719 72.5625 43.476562 70.957031 42.84375 71.347656 C 42.542969 71.53125 42.476562 71.15625 42.671875 70.382812 C 42.863281 69.617188 42.742188 68.910156 42.371094 68.601562 C 41.890625 68.203125 41.722656 68.84375 41.621094 71.460938 M 33.507812 76.625 C 33.503906 77.382812 33.726562 78 34 78 C 34.632812 78 34.632812 76.976562 34 76 C 33.621094 75.414062 33.511719 75.554688 33.507812 76.625 M 42.40625 78.839844 C 42.765625 78.984375 43.199219 78.96875 43.363281 78.800781 C 43.53125 78.636719 43.234375 78.519531 42.707031 78.539062 C 42.125 78.5625 42.007812 78.683594 42.40625 78.839844 M 36.089844 81.25 C 35.777344 81.9375 35.601562 82.5 35.703125 82.5 C 35.804688 82.5 36.253906 81.9375 36.703125 81.25 C 37.15625 80.5625 37.328125 80 37.09375 80 C 36.855469 80 36.402344 80.5625 36.089844 81.25 M 40.75 80.5 C 40.921875 80.773438 41.777344 80.976562 42.65625 80.949219 C 44.179688 80.902344 44.195312 80.882812 43 80.5 C 41.203125 79.925781 40.394531 79.925781 40.75 80.5 M 34.277344 82.957031 C 34.117188 83.21875 34.195312 83.5625 34.457031 83.722656 C 34.71875 83.882812 35.0625 83.804688 35.222656 83.542969 C 35.382812 83.28125 35.304688 82.9375 35.042969 82.777344 C 34.78125 82.617188 34.4375 82.695312 34.277344 82.957031 M 28.75 86.5 C 28.578125 86.773438 28.574219 87 28.738281 87 C 28.902344 87 28.789062 87.457031 28.492188 88.015625 C 28.195312 88.570312 27.773438 88.917969 27.554688 88.785156 C 27.339844 88.652344 26.394531 89.199219 25.457031 90 C 24.519531 90.804688 23.945312 91.46875 24.1875 91.480469 C 24.425781 91.492188 24.34375 91.835938 24 92.25 C 23.570312 92.769531 23.550781 93 23.9375 93 C 24.246094 93 24.527344 92.773438 24.5625 92.5 C 24.597656 92.226562 24.652344 91.738281 24.6875 91.417969 C 24.722656 91.097656 25.0625 90.730469 25.445312 90.601562 C 25.921875 90.441406 26.011719 90.585938 25.734375 91.058594 C 25.242188 91.894531 27.253906 90.234375 28.832031 88.5 C 30.011719 87.203125 30.347656 86 29.53125 86 C 29.269531 86 28.921875 86.226562 28.75 86.5 M 26.4375 89.875 C 25.816406 90.667969 25.832031 90.683594 26.625 90.0625 C 27.457031 89.410156 27.722656 89 27.3125 89 C 27.207031 89 26.8125 89.394531 26.4375 89.875 M 29.859375 89.765625 C 28.160156 90.722656 28.503906 91.664062 30.300781 90.980469 C 30.996094 90.714844 32.84375 90.484375 34.40625 90.464844 C 35.972656 90.441406 38.261719 90.246094 39.5 90.027344 L 41.75 89.625 L 38.695312 89.5625 C 37.015625 89.527344 34.652344 89.382812 33.445312 89.242188 C 31.96875 89.070312 30.796875 89.238281 29.859375 89.765625 "/>
</g>
</svg>
