<?xml version="1.0" encoding="UTF-8"?>
<svg xmlns="http://www.w3.org/2000/svg" xmlns:xlink="http://www.w3.org/1999/xlink" width="24px" height="24px" viewBox="0 0 24 24" version="1.1">
<g id="surface1">
<path style=" stroke:none;fill-rule:evenodd;fill:rgb(0%,0%,0%);fill-opacity:1;" d="M 15.25 1.300781 C 15.019531 1.792969 14.988281 2 15.054688 2.652344 C 15.152344 3.667969 15.078125 3.773438 14.363281 3.582031 C 13.851562 3.445312 13.765625 3.453125 13.292969 3.714844 C 13.011719 3.867188 12.695312 4.070312 12.589844 4.15625 C 12.308594 4.398438 12.097656 4.359375 11.222656 3.90625 C 10.460938 3.507812 10.425781 3.503906 10.460938 3.75 C 10.488281 3.929688 10.613281 4.035156 10.859375 4.085938 C 11.324219 4.179688 12 4.535156 12 4.679688 C 12 4.738281 11.863281 4.914062 11.699219 5.070312 C 11.414062 5.332031 11.410156 5.359375 11.597656 5.625 C 11.839844 5.972656 12.457031 6.238281 13.015625 6.238281 C 13.417969 6.238281 13.441406 6.261719 13.441406 6.640625 C 13.441406 6.882812 13.347656 7.125 13.210938 7.25 C 12.945312 7.492188 12.65625 7.390625 12.089844 6.863281 C 11.910156 6.695312 11.761719 6.605469 11.761719 6.667969 C 11.765625 6.871094 11.933594 7.039062 12.457031 7.367188 C 12.882812 7.636719 12.960938 7.738281 12.894531 7.957031 C 12.734375 8.5 12.027344 8.691406 11.335938 8.375 C 10.78125 8.125 10.628906 7.648438 10.554688 5.941406 L 10.484375 4.378906 L 10.460938 5.914062 C 10.4375 7.679688 10.566406 8.140625 11.183594 8.515625 C 11.402344 8.648438 11.78125 8.757812 12.03125 8.757812 C 12.277344 8.757812 12.480469 8.792969 12.480469 8.835938 C 12.480469 8.878906 12.234375 9.429688 11.929688 10.066406 L 11.382812 11.21875 L 11.207031 10.800781 C 11.003906 10.3125 10.410156 9.746094 9.996094 9.644531 C 9.5 9.519531 8.5625 9.710938 7.550781 10.144531 C 7.015625 10.371094 6.449219 10.558594 6.289062 10.558594 C 5.988281 10.558594 5.902344 10.726562 6.132812 10.867188 C 6.332031 10.988281 6.714844 11.894531 6.71875 12.246094 C 6.722656 12.660156 7.265625 13.726562 7.6875 14.148438 C 7.894531 14.355469 8.269531 14.550781 8.625 14.636719 C 9.171875 14.765625 9.230469 14.816406 9.421875 15.320312 L 9.628906 15.863281 L 8.9375 17.71875 C 8.558594 18.734375 8.277344 19.597656 8.308594 19.628906 C 8.34375 19.664062 8.519531 19.28125 8.703125 18.78125 C 8.886719 18.28125 9.058594 17.902344 9.09375 17.933594 C 9.125 17.964844 8.949219 18.535156 8.703125 19.203125 C 8.460938 19.871094 8.285156 20.445312 8.320312 20.480469 C 8.410156 20.570312 8.671875 19.921875 9.175781 18.363281 C 9.40625 17.636719 9.683594 16.839844 9.785156 16.582031 L 9.96875 16.121094 L 10.835938 16.121094 C 12.121094 16.117188 13.460938 15.746094 14.210938 15.175781 C 14.65625 14.839844 14.3125 14.886719 13.632812 15.253906 C 12.710938 15.753906 10.773438 16.050781 10.144531 15.789062 C 9.921875 15.695312 9.679688 15.511719 9.609375 15.378906 C 9.460938 15.105469 9.4375 14.28125 9.570312 14.101562 C 9.78125 13.816406 10.539062 13.609375 11.371094 13.613281 C 11.847656 13.617188 12.238281 13.578125 12.238281 13.53125 C 12.238281 13.429688 11.78125 13.382812 11.191406 13.421875 C 10.96875 13.4375 10.800781 13.394531 10.800781 13.316406 C 10.800781 13.246094 10.734375 13.222656 10.648438 13.265625 C 10.566406 13.308594 10.644531 13.21875 10.820312 13.0625 C 10.996094 12.90625 11.226562 12.605469 11.332031 12.390625 C 11.5625 11.929688 11.867188 11.886719 12.371094 12.25 C 12.769531 12.53125 12.828125 12.464844 12.492188 12.105469 C 12.367188 11.972656 12.238281 11.691406 12.203125 11.480469 C 12.121094 10.953125 12.332031 10.023438 12.589844 9.789062 C 12.785156 9.613281 12.835938 9.621094 13.242188 9.894531 C 13.832031 10.296875 13.796875 10.078125 13.1875 9.554688 L 12.691406 9.132812 L 12.949219 8.605469 C 13.328125 7.816406 13.699219 7.714844 14.699219 8.109375 C 14.910156 8.191406 14.921875 8.179688 14.78125 8.011719 C 14.695312 7.902344 14.460938 7.78125 14.265625 7.738281 C 14.070312 7.695312 13.925781 7.597656 13.949219 7.527344 C 14.082031 7.136719 15.9375 6.933594 16.371094 7.265625 C 16.695312 7.507812 17.386719 7.492188 17.484375 7.242188 C 17.585938 6.972656 17.378906 6.683594 16.984375 6.542969 C 16.722656 6.449219 16.625 6.464844 16.503906 6.632812 C 16.390625 6.785156 16.179688 6.839844 15.671875 6.839844 C 15.300781 6.839844 14.6875 6.949219 14.316406 7.078125 C 13.941406 7.210938 13.609375 7.292969 13.578125 7.257812 C 13.464844 7.144531 13.957031 6.25 14.339844 5.878906 C 14.722656 5.507812 14.738281 5.503906 15.101562 5.691406 C 15.597656 5.949219 16.71875 5.945312 16.933594 5.683594 C 17.109375 5.472656 17.144531 5.46875 16.355469 5.695312 C 15.988281 5.800781 15.203125 5.570312 14.941406 5.28125 C 14.820312 5.148438 14.773438 5.039062 14.832031 5.039062 C 14.890625 5.035156 15.074219 4.925781 15.238281 4.792969 L 15.539062 4.554688 L 15.210938 4.628906 C 14.789062 4.726562 14.78125 4.535156 15.195312 4.207031 C 15.617188 3.875 16.109375 3.894531 17.011719 4.277344 C 17.746094 4.589844 17.878906 4.710938 17.640625 4.859375 C 17.574219 4.902344 17.519531 4.996094 17.519531 5.070312 C 17.519531 5.144531 17.628906 5.089844 17.761719 4.949219 C 17.890625 4.804688 18 4.640625 18 4.582031 C 18 4.339844 16.527344 3.808594 15.878906 3.816406 C 15.277344 3.820312 15.238281 3.800781 15.238281 3.527344 C 15.238281 3.351562 15.410156 3.0625 15.660156 2.8125 C 15.960938 2.511719 16.078125 2.285156 16.078125 2.015625 C 16.078125 1.648438 15.730469 0.730469 15.589844 0.722656 C 15.550781 0.722656 15.398438 0.980469 15.25 1.300781 M 15.308594 1.585938 C 15.078125 2.128906 15.078125 2.175781 15.285156 2.460938 C 15.429688 2.65625 15.484375 2.667969 15.648438 2.53125 C 15.886719 2.332031 15.898438 1.683594 15.667969 1.371094 C 15.503906 1.152344 15.488281 1.160156 15.308594 1.585938 M 13.378906 3.859375 C 13.007812 4.0625 11.761719 5.3125 11.761719 5.484375 C 11.761719 5.714844 12.414062 6 12.933594 6 C 13.46875 6 14.460938 5.527344 14.460938 5.269531 C 14.460938 5.175781 14.285156 5.046875 14.070312 4.984375 C 13.539062 4.828125 13.574219 4.632812 14.117188 4.734375 C 14.597656 4.824219 14.753906 4.699219 14.757812 4.234375 C 14.761719 3.777344 13.9375 3.550781 13.378906 3.859375 M 16.503906 6.832031 C 16.371094 7.046875 16.554688 7.199219 16.9375 7.199219 C 17.214844 7.199219 17.289062 7.152344 17.257812 6.988281 C 17.214844 6.753906 16.628906 6.632812 16.503906 6.832031 M 14.929688 8.578125 C 14.96875 8.777344 15.058594 9.75 15.128906 10.738281 C 15.203125 11.730469 15.316406 12.621094 15.378906 12.71875 C 15.457031 12.839844 15.46875 12.617188 15.421875 12.058594 C 15.378906 11.597656 15.292969 10.632812 15.230469 9.917969 C 15.167969 9.199219 15.058594 8.523438 14.992188 8.417969 C 14.894531 8.261719 14.878906 8.300781 14.929688 8.578125 M 8.75 10.003906 C 8.449219 10.078125 7.964844 10.257812 7.671875 10.398438 C 7.378906 10.542969 6.992188 10.714844 6.8125 10.785156 L 6.488281 10.910156 L 6.667969 11.425781 C 6.769531 11.707031 6.90625 12.175781 6.96875 12.464844 C 7.234375 13.636719 7.976562 14.398438 8.847656 14.398438 C 9.335938 14.398438 10.019531 13.570312 9.90625 13.113281 C 9.816406 12.761719 9.183594 12.121094 8.921875 12.121094 C 8.824219 12.121094 8.777344 12.070312 8.8125 12.011719 C 8.851562 11.953125 8.71875 11.847656 8.519531 11.777344 C 8.160156 11.652344 8.023438 11.398438 8.3125 11.398438 C 8.480469 11.398438 9.277344 11.90625 9.683594 12.273438 L 9.949219 12.511719 L 10.378906 12.136719 C 10.617188 11.929688 10.859375 11.761719 10.925781 11.761719 C 11.097656 11.761719 11.0625 11.089844 10.863281 10.613281 C 10.746094 10.324219 10.554688 10.136719 10.269531 10.015625 C 9.789062 9.816406 9.523438 9.8125 8.75 10.003906 M 13.804688 10.648438 C 13.871094 10.832031 13.953125 11.054688 13.988281 11.148438 C 14.019531 11.238281 14.074219 11.285156 14.109375 11.25 C 14.179688 11.179688 13.847656 10.320312 13.75 10.320312 C 13.714844 10.320312 13.742188 10.46875 13.804688 10.648438 M 11.773438 11.382812 C 11.664062 11.582031 11.65625 11.703125 11.746094 11.792969 C 11.898438 11.945312 12.042969 11.648438 11.976562 11.316406 C 11.933594 11.128906 11.910156 11.136719 11.773438 11.382812 M 10.625 12.234375 C 10.578125 12.304688 10.5 12.339844 10.449219 12.304688 C 10.261719 12.1875 10.035156 12.820312 10.164062 13.109375 C 10.28125 13.367188 10.300781 13.351562 10.558594 12.804688 C 10.707031 12.488281 10.800781 12.203125 10.765625 12.167969 C 10.734375 12.132812 10.667969 12.164062 10.625 12.234375 M 12.839844 12.660156 C 12.839844 12.839844 13.683594 13.199219 14.105469 13.199219 C 14.820312 13.199219 15.054688 13.414062 14.960938 13.984375 C 14.886719 14.445312 14.890625 14.445312 15.125 14.207031 C 15.347656 13.984375 15.351562 13.945312 15.171875 13.492188 C 14.988281 13.019531 14.972656 13.011719 14.359375 13.003906 C 14.015625 12.996094 13.5625 12.90625 13.351562 12.796875 C 12.953125 12.589844 12.839844 12.558594 12.839844 12.660156 M 12.960938 13.714844 C 13.488281 13.867188 13.671875 13.871094 13.53125 13.730469 C 13.492188 13.691406 13.226562 13.636719 12.941406 13.609375 L 12.421875 13.558594 L 12.960938 13.714844 M 9.675781 16.144531 C 9.558594 16.445312 9.59375 16.523438 9.734375 16.28125 C 9.804688 16.160156 9.835938 16.035156 9.804688 16.003906 C 9.773438 15.976562 9.714844 16.039062 9.675781 16.144531 M 8.050781 20.011719 C 8.042969 20.09375 7.742188 20.835938 7.378906 21.65625 C 7.015625 22.476562 6.71875 23.175781 6.71875 23.214844 C 6.71875 23.25 6.878906 23.28125 7.070312 23.28125 C 7.445312 23.28125 7.519531 23.144531 8.097656 21.382812 C 8.453125 20.289062 8.226562 20.589844 7.792969 21.78125 C 7.546875 22.457031 7.3125 22.917969 7.21875 22.917969 C 7.128906 22.921875 7.082031 22.851562 7.113281 22.769531 C 7.148438 22.6875 7.398438 22.058594 7.671875 21.375 C 7.945312 20.691406 8.144531 20.070312 8.113281 19.996094 C 8.078125 19.90625 8.054688 19.910156 8.050781 20.011719 "/>
</g>
</svg>
