<?xml version="1.0" encoding="UTF-8"?>
<svg xmlns="http://www.w3.org/2000/svg" xmlns:xlink="http://www.w3.org/1999/xlink" width="100px" height="100px" viewBox="0 0 100 100" version="1.1">
<g id="surface1">
<path style=" stroke:none;fill-rule:evenodd;fill:rgb(0%,0%,0%);fill-opacity:1;" d="M 63.535156 5.421875 C 62.578125 7.464844 62.453125 8.335938 62.71875 11.046875 C 63.136719 15.28125 62.816406 15.714844 59.847656 14.921875 C 57.710938 14.347656 57.359375 14.394531 55.390625 15.472656 C 54.210938 16.121094 52.894531 16.953125 52.460938 17.324219 C 51.28125 18.332031 50.398438 18.171875 46.753906 16.269531 C 43.59375 14.621094 43.441406 14.59375 43.59375 15.628906 C 43.699219 16.375 44.214844 16.808594 45.25 17.023438 C 47.175781 17.421875 50 18.886719 50 19.492188 C 50 19.75 49.4375 20.480469 48.75 21.117188 C 47.5625 22.21875 47.539062 22.335938 48.316406 23.441406 C 49.328125 24.886719 51.902344 26 54.234375 26 C 55.902344 26 56 26.089844 56 27.671875 C 56 28.6875 55.621094 29.6875 55.042969 30.210938 C 53.933594 31.214844 52.738281 30.800781 50.375 28.59375 C 49.617188 27.890625 49.003906 27.523438 49.007812 27.78125 C 49.023438 28.628906 49.71875 29.332031 51.902344 30.699219 C 53.679688 31.8125 53.996094 32.238281 53.726562 33.148438 C 53.050781 35.417969 50.113281 36.214844 47.234375 34.902344 C 44.925781 33.851562 44.289062 31.871094 43.972656 24.75 L 43.679688 18.25 L 43.589844 24.640625 C 43.488281 31.992188 44.019531 33.917969 46.59375 35.488281 C 47.503906 36.042969 49.09375 36.496094 50.125 36.496094 C 51.15625 36.5 52 36.640625 52 36.816406 C 52 36.992188 50.972656 39.296875 49.714844 41.941406 L 47.429688 46.75 L 46.699219 45 C 45.851562 42.976562 43.375 40.613281 41.644531 40.179688 C 39.585938 39.660156 35.671875 40.464844 31.460938 42.265625 C 29.234375 43.21875 26.867188 44 26.207031 44 C 24.949219 44 24.597656 44.691406 25.550781 45.28125 C 26.375 45.789062 27.976562 49.566406 27.988281 51.027344 C 28.003906 52.75 30.269531 57.195312 32.035156 58.960938 C 32.894531 59.816406 34.460938 60.628906 35.929688 60.984375 C 38.210938 61.53125 38.457031 61.742188 39.257812 63.839844 L 40.121094 66.105469 L 37.246094 73.820312 C 35.664062 78.066406 34.488281 81.652344 34.625 81.792969 C 34.765625 81.933594 35.503906 80.34375 36.261719 78.261719 C 37.023438 76.179688 37.75 74.585938 37.882812 74.71875 C 38.015625 74.851562 37.289062 77.234375 36.269531 80.019531 C 35.246094 82.800781 34.53125 85.195312 34.675781 85.34375 C 35.039062 85.707031 36.125 83.003906 38.226562 76.507812 C 39.199219 73.492188 40.34375 70.160156 40.769531 69.097656 L 41.542969 67.167969 L 45.144531 67.164062 C 50.496094 67.164062 56.089844 65.601562 59.214844 63.238281 C 61.074219 61.832031 59.640625 62.019531 56.804688 63.554688 C 52.960938 65.636719 44.882812 66.882812 42.273438 65.792969 C 41.34375 65.402344 40.335938 64.628906 40.039062 64.074219 C 39.429688 62.933594 39.328125 59.507812 39.882812 58.75 C 40.757812 57.5625 43.910156 56.710938 47.375 56.730469 C 49.367188 56.742188 51 56.582031 51 56.375 C 51 55.957031 49.089844 55.761719 46.625 55.933594 C 45.707031 55.996094 45 55.804688 45 55.492188 C 45 55.1875 44.71875 55.089844 44.375 55.277344 C 44.03125 55.460938 44.347656 55.078125 45.082031 54.429688 C 45.816406 53.78125 46.777344 52.519531 47.21875 51.625 C 48.171875 49.707031 49.441406 49.53125 51.546875 51.035156 C 53.207031 52.214844 53.445312 51.933594 52.050781 50.441406 C 51.527344 49.878906 50.988281 48.707031 50.851562 47.835938 C 50.503906 45.632812 51.382812 41.761719 52.453125 40.792969 C 53.277344 40.046875 53.476562 40.078125 55.171875 41.230469 C 57.640625 42.902344 57.492188 42 54.941406 39.816406 L 52.882812 38.054688 L 53.949219 35.855469 C 55.539062 32.574219 57.074219 32.140625 61.25 33.792969 C 62.125 34.136719 62.167969 34.085938 61.589844 33.375 C 61.226562 32.929688 60.257812 32.417969 59.4375 32.238281 C 58.617188 32.054688 58.027344 31.664062 58.128906 31.363281 C 58.671875 29.730469 66.402344 28.890625 68.21875 30.265625 C 69.558594 31.277344 72.445312 31.222656 72.84375 30.183594 C 73.277344 29.058594 72.414062 27.847656 70.773438 27.261719 C 69.675781 26.871094 69.277344 26.945312 68.773438 27.636719 C 68.300781 28.277344 67.414062 28.5 65.308594 28.5 C 63.75 28.5 61.203125 28.945312 59.648438 29.492188 C 58.09375 30.039062 56.714844 30.378906 56.582031 30.25 C 56.101562 29.769531 58.15625 26.046875 59.75 24.5 C 61.351562 22.949219 61.417969 22.929688 62.917969 23.707031 C 64.996094 24.78125 69.660156 24.765625 70.558594 23.679688 C 71.292969 22.796875 71.441406 22.792969 68.148438 23.734375 C 66.625 24.171875 63.34375 23.207031 62.253906 22.003906 C 61.753906 21.449219 61.546875 20.996094 61.796875 20.988281 C 62.046875 20.984375 62.8125 20.527344 63.5 19.976562 L 64.75 18.972656 L 63.375 19.292969 C 61.617188 19.695312 61.589844 18.894531 63.316406 17.535156 C 65.078125 16.152344 67.117188 16.226562 70.875 17.824219 C 73.945312 19.125 74.496094 19.636719 73.5 20.25 C 73.226562 20.421875 73 20.8125 73 21.125 C 73 21.433594 73.449219 21.207031 74 20.613281 C 74.550781 20.023438 75 19.339844 75 19.089844 C 75 18.089844 68.863281 15.871094 66.167969 15.894531 C 63.664062 15.917969 63.5 15.84375 63.5 14.691406 C 63.5 13.957031 64.203125 12.765625 65.25 11.714844 C 66.507812 10.460938 67 9.523438 67 8.398438 C 67 6.875 65.546875 3.039062 64.960938 3.011719 C 64.800781 3.007812 64.160156 4.089844 63.535156 5.421875 M 63.78125 6.609375 C 62.828125 8.878906 62.824219 9.066406 63.695312 10.261719 C 64.285156 11.070312 64.511719 11.113281 65.195312 10.546875 C 66.195312 9.71875 66.242188 7.019531 65.28125 5.71875 C 64.597656 4.796875 64.527344 4.835938 63.78125 6.609375 M 55.75 16.078125 C 54.203125 16.925781 49 22.140625 49 22.847656 C 49 23.804688 51.71875 25 53.898438 25 C 56.117188 25 60.25 23.023438 60.25 21.960938 C 60.25 21.570312 59.519531 21.035156 58.625 20.773438 C 56.40625 20.117188 56.5625 19.304688 58.824219 19.730469 C 60.816406 20.105469 61.480469 19.585938 61.492188 17.640625 C 61.503906 15.734375 58.082031 14.800781 55.75 16.078125 M 68.765625 28.472656 C 68.21875 29.355469 68.976562 30 70.566406 30 C 71.730469 30 72.035156 29.800781 71.90625 29.125 C 71.71875 28.136719 69.285156 27.632812 68.765625 28.472656 M 62.214844 35.75 C 62.363281 36.574219 62.738281 40.625 63.042969 44.75 C 63.347656 48.875 63.8125 52.585938 64.078125 53 C 64.398438 53.5 64.457031 52.578125 64.253906 50.25 C 64.082031 48.324219 63.726562 44.304688 63.464844 41.316406 C 63.199219 38.328125 62.75 35.515625 62.460938 35.066406 C 62.054688 34.429688 62 34.582031 62.214844 35.75 M 36.460938 41.683594 C 35.203125 41.996094 33.179688 42.738281 31.960938 43.332031 C 30.746094 43.925781 29.136719 44.652344 28.390625 44.941406 L 27.03125 45.464844 L 27.789062 47.605469 C 28.207031 48.785156 28.769531 50.734375 29.039062 51.9375 C 30.136719 56.816406 33.230469 60 36.867188 60 C 38.902344 60 41.746094 56.542969 41.269531 54.644531 C 40.898438 53.167969 38.257812 50.5 37.167969 50.5 C 36.769531 50.5 36.566406 50.296875 36.71875 50.046875 C 36.875 49.800781 36.324219 49.363281 35.5 49.074219 C 34.007812 48.554688 33.425781 47.5 34.632812 47.5 C 35.34375 47.5 38.660156 49.609375 40.355469 51.140625 L 41.460938 52.136719 L 43.246094 50.570312 C 44.230469 49.707031 45.253906 49 45.515625 49 C 46.242188 49 46.097656 46.199219 45.269531 44.214844 C 44.769531 43.023438 43.976562 42.230469 42.785156 41.730469 C 40.785156 40.898438 39.683594 40.886719 36.460938 41.683594 M 57.527344 44.375 C 57.804688 45.132812 58.140625 46.0625 58.277344 46.445312 C 58.414062 46.828125 58.644531 47.023438 58.789062 46.875 C 59.089844 46.578125 57.703125 43 57.289062 43 C 57.144531 43 57.25 43.617188 57.527344 44.375 M 49.058594 47.429688 C 48.597656 48.257812 48.5625 48.765625 48.9375 49.136719 C 49.578125 49.777344 50.183594 48.53125 49.894531 47.152344 C 49.730469 46.363281 49.625 46.398438 49.058594 47.429688 M 44.265625 50.976562 C 44.082031 51.273438 43.753906 51.40625 43.539062 51.273438 C 42.75 50.785156 41.8125 53.421875 42.351562 54.617188 C 42.835938 55.691406 42.921875 55.625 43.996094 53.355469 C 44.617188 52.039062 45.007812 50.84375 44.863281 50.699219 C 44.71875 50.550781 44.449219 50.675781 44.265625 50.976562 M 53.5 52.757812 C 53.5 53.507812 57.011719 54.996094 58.78125 54.996094 C 61.75 55 62.726562 55.898438 62.34375 58.269531 C 62.035156 60.179688 62.035156 60.183594 63.019531 59.203125 C 63.953125 58.269531 63.964844 58.109375 63.21875 56.21875 C 62.445312 54.25 62.390625 54.214844 59.828125 54.179688 C 58.394531 54.160156 56.511719 53.773438 55.636719 53.320312 C 53.964844 52.457031 53.5 52.335938 53.5 52.757812 M 54 57.148438 C 56.195312 57.78125 56.964844 57.800781 56.375 57.207031 C 56.214844 57.046875 55.109375 56.820312 53.917969 56.707031 L 51.75 56.496094 L 54 57.148438 M 40.3125 67.269531 C 39.828125 68.527344 39.972656 68.851562 40.5625 67.835938 C 40.851562 67.335938 40.988281 66.820312 40.859375 66.691406 C 40.730469 66.5625 40.484375 66.824219 40.3125 67.269531 M 33.539062 83.382812 C 33.519531 83.730469 32.261719 86.808594 30.75 90.226562 C 29.238281 93.644531 28 96.566406 28 96.722656 C 28 96.875 28.660156 97 29.464844 97 C 31.027344 97 31.332031 96.441406 33.734375 89.09375 C 35.222656 84.535156 34.277344 85.78125 32.46875 90.761719 C 31.449219 93.570312 30.472656 95.5 30.070312 95.5 C 29.699219 95.5 29.503906 95.21875 29.640625 94.875 C 29.777344 94.53125 30.824219 91.914062 31.964844 89.0625 C 33.109375 86.210938 33.9375 83.621094 33.808594 83.3125 C 33.65625 82.941406 33.566406 82.964844 33.539062 83.382812 "/>
</g>
</svg>
