<?xml version="1.0" encoding="UTF-8"?>
<svg xmlns="http://www.w3.org/2000/svg" xmlns:xlink="http://www.w3.org/1999/xlink" width="24px" height="24px" viewBox="0 0 24 24" version="1.1">
<g id="surface1">
<path style=" stroke:none;fill-rule:evenodd;fill:rgb(0%,0%,0%);fill-opacity:1;" d="M 10.164062 2.503906 C 8.191406 4.371094 7.707031 4.777344 7.320312 4.90625 C 6.851562 5.058594 6 5.695312 5.621094 6.175781 C 5.128906 6.800781 4.898438 8.128906 5.15625 8.8125 C 5.257812 9.078125 5.792969 9.507812 6.179688 9.640625 C 6.246094 9.660156 6.074219 10.132812 5.796875 10.691406 C 4.8125 12.664062 4.671875 14.691406 5.378906 16.777344 L 5.757812 17.890625 L 5.195312 18.96875 C 4.734375 19.847656 4.621094 20.191406 4.582031 20.8125 C 4.539062 21.476562 4.566406 21.609375 4.800781 21.839844 C 5.144531 22.183594 5.539062 22.109375 6.605469 21.492188 C 7.757812 20.828125 8.160156 20.722656 9.285156 20.785156 C 9.996094 20.824219 10.671875 20.976562 11.777344 21.339844 C 14.0625 22.085938 15.234375 22.261719 16.859375 22.089844 C 18.664062 21.898438 19.058594 21.78125 19.152344 21.414062 C 19.277344 20.921875 19.097656 20.332031 18.597656 19.582031 C 18.335938 19.191406 18.121094 18.78125 18.121094 18.671875 C 18.121094 18.5625 18.25 18.21875 18.40625 17.90625 C 18.839844 17.050781 19.066406 16.171875 19.261719 14.585938 C 19.605469 11.804688 19.476562 10.457031 18.707031 8.894531 L 18.328125 8.121094 L 18.523438 7.570312 C 18.800781 6.796875 18.777344 6.117188 18.449219 5.632812 C 18.085938 5.097656 17.550781 4.804688 16.460938 4.542969 C 15.640625 4.347656 15.484375 4.261719 14.828125 3.632812 C 13.230469 2.105469 13.335938 2.171875 12.171875 1.980469 C 11.582031 1.882812 11.058594 1.804688 11.007812 1.800781 C 10.953125 1.800781 10.578125 2.117188 10.164062 2.503906 M 10.121094 2.851562 C 8.460938 4.402344 8.070312 4.796875 7.46875 5.53125 C 6.964844 6.148438 6.839844 6.386719 6.839844 6.738281 C 6.839844 7.3125 7.320312 7.730469 8.203125 7.925781 C 9.109375 8.128906 12.660156 8.007812 13.609375 7.742188 C 14.414062 7.515625 16.089844 6.867188 16.238281 6.726562 C 16.417969 6.554688 16.179688 6.023438 15.640625 5.390625 C 15.238281 4.921875 15.121094 4.695312 15.171875 4.492188 C 15.226562 4.273438 15.089844 4.089844 14.429688 3.507812 C 13.371094 2.574219 12.859375 2.328125 11.761719 2.238281 L 10.859375 2.160156 L 10.121094 2.851562 M 10.800781 3.121094 C 10.800781 3.1875 10.855469 3.238281 10.925781 3.238281 C 10.996094 3.238281 11.019531 3.1875 10.980469 3.121094 C 10.9375 3.054688 10.882812 3 10.851562 3 C 10.824219 3 10.800781 3.054688 10.800781 3.121094 M 13.921875 4.441406 C 13.921875 4.507812 13.976562 4.558594 14.046875 4.558594 C 14.117188 4.558594 14.140625 4.507812 14.101562 4.441406 C 14.058594 4.375 14.003906 4.320312 13.972656 4.320312 C 13.945312 4.320312 13.921875 4.375 13.921875 4.441406 M 11.761719 4.792969 C 11.761719 4.855469 11.8125 4.9375 11.878906 4.980469 C 11.945312 5.019531 12 4.96875 12 4.867188 C 12 4.765625 11.945312 4.679688 11.878906 4.679688 C 11.8125 4.679688 11.761719 4.730469 11.761719 4.792969 M 15.71875 4.886719 C 15.71875 4.949219 15.855469 5.125 16.015625 5.277344 C 16.179688 5.429688 16.402344 5.789062 16.511719 6.074219 C 16.679688 6.515625 16.742188 6.574219 16.925781 6.476562 C 17.433594 6.207031 17.589844 6.472656 17.109375 6.785156 C 16.949219 6.890625 16.078125 7.246094 15.171875 7.578125 C 13.179688 8.304688 11.417969 8.585938 9.539062 8.480469 C 7.453125 8.359375 6.648438 7.957031 6.515625 6.96875 C 6.457031 6.558594 6.507812 6.375 6.820312 5.878906 C 7.230469 5.214844 7.1875 5.152344 6.589844 5.554688 C 5.804688 6.082031 5.171875 7.492188 5.335938 8.355469 C 5.464844 9.050781 6.53125 9.464844 7.359375 9.136719 C 7.546875 9.0625 7.511719 9.007812 7.121094 8.753906 C 6.679688 8.46875 6.4375 8.039062 6.71875 8.039062 C 6.792969 8.039062 7.027344 8.171875 7.238281 8.332031 C 7.449219 8.492188 8.132812 8.867188 8.761719 9.171875 C 9.675781 9.613281 10.144531 9.757812 11.160156 9.910156 C 12.753906 10.152344 13.214844 10.09375 15.285156 9.40625 C 16.75 8.917969 17.042969 8.773438 17.539062 8.3125 C 18.835938 7.097656 18.722656 5.71875 17.28125 5.117188 C 16.730469 4.890625 15.71875 4.738281 15.71875 4.886719 M 8.957031 5.21875 C 8.996094 5.320312 9.046875 5.398438 9.074219 5.398438 C 9.097656 5.398438 9.121094 5.320312 9.121094 5.21875 C 9.121094 5.121094 9.066406 5.039062 9.003906 5.039062 C 8.941406 5.039062 8.917969 5.121094 8.957031 5.21875 M 14.230469 6.222656 C 14.179688 6.308594 14.167969 6.410156 14.207031 6.449219 C 14.316406 6.554688 14.433594 6.398438 14.375 6.222656 C 14.332031 6.101562 14.304688 6.101562 14.230469 6.222656 M 10.992188 7.128906 C 11.03125 7.234375 11.117188 7.320312 11.183594 7.320312 C 11.339844 7.320312 11.242188 7.046875 11.0625 6.988281 C 10.976562 6.957031 10.949219 7.011719 10.992188 7.128906 M 8.664062 7.207031 C 8.691406 7.292969 8.785156 7.386719 8.871094 7.417969 C 8.960938 7.449219 9.007812 7.402344 8.976562 7.3125 C 8.949219 7.226562 8.855469 7.132812 8.765625 7.101562 C 8.675781 7.074219 8.632812 7.117188 8.664062 7.207031 M 17.765625 8.574219 C 17.472656 8.929688 16.65625 9.324219 15.121094 9.859375 C 13.695312 10.355469 13.554688 10.378906 12.300781 10.375 C 10.859375 10.371094 9.617188 10.097656 8.515625 9.539062 L 7.929688 9.242188 L 7.355469 9.460938 C 6.890625 9.640625 6.6875 9.820312 6.292969 10.398438 C 5.558594 11.476562 5.21875 12.644531 5.230469 14.039062 C 5.246094 15.707031 5.671875 17.089844 6.527344 18.230469 C 6.917969 18.75 6.828125 18.867188 6.371094 18.433594 L 6.027344 18.101562 L 5.542969 18.980469 C 4.800781 20.335938 4.613281 21.457031 5.101562 21.644531 C 5.371094 21.746094 5.992188 21.515625 6.648438 21.0625 C 7.386719 20.554688 7.878906 20.398438 8.757812 20.402344 C 9.828125 20.402344 10.886719 20.621094 12.421875 21.15625 L 13.859375 21.660156 L 16.019531 21.65625 C 18.527344 21.648438 18.929688 21.546875 18.859375 20.933594 C 18.800781 20.390625 18.546875 19.945312 17.703125 18.898438 C 16.820312 17.804688 16.609375 17.167969 17.378906 17.917969 L 17.835938 18.367188 L 18.15625 17.78125 C 18.59375 16.976562 18.789062 16.101562 19.027344 13.882812 C 19.195312 12.351562 19.207031 11.832031 19.097656 11.167969 C 18.933594 10.1875 18.5625 9.167969 18.195312 8.707031 C 17.953125 8.402344 17.917969 8.390625 17.765625 8.574219 M 11.488281 11.492188 C 11.390625 11.605469 11.191406 11.929688 11.050781 12.214844 L 10.789062 12.730469 L 10.453125 12.492188 C 10.269531 12.359375 10.046875 12.164062 9.957031 12.058594 C 9.871094 11.953125 9.644531 11.785156 9.457031 11.6875 C 9.148438 11.527344 9.109375 11.53125 9.039062 11.714844 C 8.960938 11.910156 9.113281 12.8125 9.292969 13.222656 C 9.367188 13.398438 9.285156 13.441406 8.769531 13.511719 C 8.433594 13.554688 8.160156 13.632812 8.160156 13.679688 C 8.160156 13.804688 9.035156 14.585938 9.378906 14.769531 C 9.65625 14.917969 9.65625 14.921875 9.214844 15.109375 L 8.769531 15.300781 L 9.265625 15.714844 C 9.574219 15.972656 9.949219 16.160156 10.25 16.203125 L 10.738281 16.28125 L 10.210938 16.515625 L 9.683594 16.753906 L 11.769531 17.558594 L 11.382812 17.957031 C 11.171875 18.175781 11.019531 18.375 11.046875 18.398438 C 11.164062 18.488281 12.40625 18.71875 12.769531 18.71875 C 12.984375 18.71875 13.425781 18.640625 13.746094 18.542969 C 14.292969 18.378906 14.359375 18.382812 14.734375 18.605469 C 14.953125 18.734375 15.183594 18.839844 15.246094 18.839844 C 15.460938 18.839844 15.359375 18.546875 15.054688 18.304688 L 14.753906 18.058594 L 14.996094 17.585938 C 15.246094 17.101562 15.324219 15.800781 15.136719 15.324219 C 15.058594 15.128906 15.027344 15.136719 14.765625 15.414062 C 14.371094 15.835938 14.28125 15.800781 14.28125 15.222656 C 14.28125 14.65625 14.050781 13.800781 13.902344 13.800781 C 13.84375 13.800781 13.796875 13.839844 13.796875 13.890625 C 13.792969 13.9375 13.652344 14.140625 13.484375 14.339844 L 13.179688 14.699219 L 13.25 14.265625 C 13.324219 13.835938 13.128906 12.601562 12.988281 12.601562 C 12.945312 12.601562 12.761719 12.746094 12.578125 12.921875 L 12.238281 13.246094 L 12.238281 12.875 C 12.238281 12.671875 12.160156 12.351562 12.0625 12.164062 C 11.960938 11.976562 11.882812 11.730469 11.878906 11.617188 C 11.878906 11.316406 11.695312 11.257812 11.488281 11.492188 M 9.300781 12.121094 C 9.085938 12.464844 9.726562 13.4375 10.398438 13.78125 C 10.671875 13.925781 10.800781 13.78125 10.800781 13.328125 C 10.800781 13.066406 9.40625 11.945312 9.300781 12.121094 M 11.285156 12.292969 C 11.085938 12.664062 11.0625 13.871094 11.25 14.058594 C 11.359375 14.167969 11.460938 14.050781 11.695312 13.550781 C 12.050781 12.78125 12.0625 12.683594 11.804688 12.296875 C 11.5625 11.925781 11.480469 11.925781 11.285156 12.292969 M 12.289062 13.648438 C 12.023438 13.996094 11.945312 14.222656 11.945312 14.683594 C 11.9375 15.414062 12.125 15.511719 12.589844 15.011719 C 12.984375 14.589844 13.140625 13.972656 12.964844 13.515625 C 12.804688 13.09375 12.691406 13.117188 12.289062 13.648438 M 8.785156 13.949219 C 8.8125 14.03125 9.035156 14.199219 9.28125 14.320312 C 9.652344 14.503906 9.828125 14.523438 10.292969 14.429688 L 10.859375 14.316406 L 10.320312 14.0625 C 9.71875 13.777344 8.710938 13.703125 8.785156 13.949219 M 13.59375 14.664062 C 13.078125 15.214844 12.765625 16.425781 13.085938 16.625 C 13.246094 16.722656 13.648438 16.367188 13.871094 15.9375 C 14.050781 15.59375 14.082031 14.964844 13.9375 14.605469 C 13.859375 14.40625 13.832031 14.410156 13.59375 14.664062 M 10.085938 15.007812 C 9.546875 15.230469 9.449219 15.367188 9.667969 15.609375 C 9.988281 15.964844 10.484375 16.003906 11.109375 15.726562 C 11.648438 15.488281 11.664062 15.472656 11.492188 15.210938 C 11.289062 14.90625 10.585938 14.804688 10.085938 15.007812 M 12.5 15.464844 C 12.230469 15.667969 12.230469 15.671875 12.460938 15.882812 C 12.691406 16.089844 12.699219 16.085938 12.78125 15.71875 C 12.882812 15.246094 12.84375 15.207031 12.5 15.464844 M 14.476562 16.082031 C 14.128906 16.496094 13.949219 17.226562 14.125 17.507812 C 14.332031 17.835938 14.613281 17.796875 14.8125 17.414062 C 15.015625 17.023438 15.070312 15.898438 14.890625 15.785156 C 14.832031 15.75 14.644531 15.882812 14.476562 16.082031 M 11.203125 16.371094 C 10.636719 16.621094 10.605469 16.78125 11.085938 16.984375 C 11.726562 17.25 12.90625 17.179688 12.808594 16.882812 C 12.742188 16.6875 12.214844 16.339844 11.878906 16.265625 C 11.714844 16.234375 11.410156 16.277344 11.203125 16.371094 M 13.691406 16.660156 C 13.53125 16.957031 13.527344 17.039062 13.664062 17.039062 C 13.773438 17.039062 13.945312 16.546875 13.863281 16.464844 C 13.839844 16.441406 13.761719 16.527344 13.691406 16.660156 M 12.289062 17.628906 C 11.703125 17.894531 11.539062 18.183594 11.917969 18.285156 C 12.351562 18.402344 13.378906 18.367188 13.789062 18.226562 L 14.175781 18.089844 L 13.777344 17.75 C 13.3125 17.351562 12.960938 17.324219 12.289062 17.628906 "/>
</g>
</svg>
