<?xml version="1.0" encoding="UTF-8"?>
<svg xmlns="http://www.w3.org/2000/svg" xmlns:xlink="http://www.w3.org/1999/xlink" width="100px" height="100px" viewBox="0 0 100 100" version="1.1">
<g id="surface1">
<path style=" stroke:none;fill-rule:evenodd;fill:rgb(0%,0%,0%);fill-opacity:1;" d="M 42.359375 10.4375 C 34.136719 18.210938 32.121094 19.910156 30.5 20.4375 C 28.550781 21.074219 25 23.730469 23.417969 25.738281 C 21.375 28.335938 20.402344 33.863281 21.488281 36.71875 C 21.90625 37.820312 24.128906 39.617188 25.75 40.164062 C 26.023438 40.257812 25.304688 42.226562 24.152344 44.542969 C 20.046875 52.773438 19.472656 61.207031 22.417969 69.898438 L 23.996094 74.546875 L 21.644531 79.042969 C 19.734375 82.703125 19.257812 84.136719 19.09375 86.714844 C 18.917969 89.480469 19.035156 90.035156 19.996094 90.996094 C 21.433594 92.433594 23.070312 92.121094 27.527344 89.554688 C 32.328125 86.785156 33.992188 86.347656 38.6875 86.609375 C 41.644531 86.773438 44.472656 87.398438 49.078125 88.910156 C 58.597656 92.027344 63.480469 92.75 70.25 92.035156 C 77.773438 91.242188 79.414062 90.761719 79.800781 89.230469 C 80.316406 87.175781 79.570312 84.722656 77.484375 81.59375 C 76.390625 79.960938 75.5 78.25 75.5 77.796875 C 75.5 77.339844 76.039062 75.90625 76.695312 74.609375 C 78.496094 71.050781 79.4375 67.386719 80.257812 60.773438 C 81.691406 49.179688 81.144531 43.566406 77.949219 37.070312 L 76.359375 33.839844 L 77.183594 31.546875 C 78.339844 28.3125 78.234375 25.492188 76.875 23.476562 C 75.367188 21.238281 73.128906 20.011719 68.585938 18.929688 C 65.171875 18.117188 64.515625 17.75 61.777344 15.132812 C 55.125 8.765625 55.574219 9.046875 50.714844 8.25 C 48.261719 7.847656 46.074219 7.511719 45.859375 7.507812 C 45.640625 7.503906 44.066406 8.824219 42.359375 10.4375 M 42.175781 11.878906 C 35.253906 18.351562 33.632812 19.988281 31.125 23.046875 C 29.019531 25.617188 28.5 26.609375 28.5 28.078125 C 28.5 30.464844 30.496094 32.203125 34.179688 33.027344 C 37.949219 33.871094 52.753906 33.363281 56.703125 32.257812 C 60.0625 31.3125 67.046875 28.621094 67.652344 28.035156 C 68.40625 27.304688 67.421875 25.097656 65.171875 22.464844 C 63.496094 20.5 63.003906 19.554688 63.214844 18.71875 C 63.441406 17.804688 62.867188 17.042969 60.121094 14.617188 C 55.714844 10.71875 53.589844 9.707031 49 9.320312 L 45.25 9.007812 L 42.175781 11.878906 M 45 13 C 45 13.273438 45.238281 13.5 45.53125 13.5 C 45.820312 13.5 45.921875 13.273438 45.75 13 C 45.578125 12.726562 45.34375 12.5 45.21875 12.5 C 45.097656 12.5 45 12.726562 45 13 M 58 18.5 C 58 18.773438 58.238281 19 58.53125 19 C 58.820312 19 58.921875 18.773438 58.75 18.5 C 58.578125 18.226562 58.34375 18 58.21875 18 C 58.097656 18 58 18.226562 58 18.5 M 49 19.96875 C 49 20.230469 49.226562 20.578125 49.5 20.75 C 49.773438 20.921875 50 20.707031 50 20.28125 C 50 19.851562 49.773438 19.5 49.5 19.5 C 49.226562 19.5 49 19.710938 49 19.96875 M 65.5 20.355469 C 65.5 20.613281 66.058594 21.347656 66.738281 21.988281 C 67.417969 22.628906 68.347656 24.121094 68.800781 25.308594 C 69.5 27.148438 69.757812 27.398438 70.527344 26.984375 C 72.632812 25.859375 73.285156 26.960938 71.289062 28.269531 C 70.621094 28.707031 66.988281 30.191406 63.207031 31.570312 C 54.90625 34.597656 47.582031 35.769531 39.75 35.328125 C 31.054688 34.839844 27.695312 33.160156 27.140625 29.039062 C 26.910156 27.320312 27.125 26.558594 28.410156 24.488281 C 30.132812 21.722656 29.945312 21.460938 27.460938 23.136719 C 24.183594 25.34375 21.554688 31.214844 22.230469 34.816406 C 22.773438 37.714844 27.214844 39.429688 30.660156 38.070312 C 31.4375 37.765625 31.296875 37.535156 29.667969 36.480469 C 27.828125 35.292969 26.824219 33.5 27.996094 33.5 C 28.308594 33.5 29.28125 34.046875 30.160156 34.710938 C 31.035156 35.378906 33.886719 36.953125 36.5 38.214844 C 40.324219 40.054688 42.273438 40.65625 46.5 41.292969 C 53.148438 42.296875 55.070312 42.058594 63.683594 39.1875 C 69.789062 37.152344 71.011719 36.558594 73.078125 34.628906 C 78.480469 29.574219 78.015625 23.828125 72 21.324219 C 69.714844 20.371094 65.5 19.742188 65.5 20.355469 M 37.320312 21.75 C 37.476562 22.164062 37.695312 22.5 37.804688 22.5 C 37.910156 22.5 38 22.164062 38 21.75 C 38 21.335938 37.78125 21 37.515625 21 C 37.25 21 37.160156 21.335938 37.320312 21.75 M 59.292969 25.933594 C 59.074219 26.28125 59.035156 26.703125 59.199219 26.867188 C 59.648438 27.3125 60.136719 26.65625 59.894531 25.929688 C 59.722656 25.421875 59.605469 25.421875 59.292969 25.933594 M 45.804688 29.707031 C 45.96875 30.144531 46.328125 30.5 46.59375 30.5 C 47.253906 30.5 46.839844 29.363281 46.09375 29.113281 C 45.726562 28.992188 45.617188 29.222656 45.804688 29.707031 M 36.09375 30.03125 C 36.214844 30.390625 36.609375 30.785156 36.96875 30.90625 C 37.34375 31.03125 37.53125 30.84375 37.40625 30.46875 C 37.285156 30.109375 36.890625 29.714844 36.53125 29.59375 C 36.15625 29.46875 35.96875 29.65625 36.09375 30.03125 M 74.019531 35.726562 C 72.796875 37.199219 69.394531 38.851562 63 41.074219 C 57.066406 43.140625 56.472656 43.25 51.25 43.230469 C 45.238281 43.210938 40.078125 42.070312 35.488281 39.746094 L 33.039062 38.503906 L 30.644531 39.421875 C 28.710938 40.160156 27.859375 40.914062 26.21875 43.324219 C 23.160156 47.820312 21.742188 52.691406 21.792969 58.5 C 21.859375 65.453125 23.636719 71.203125 27.203125 75.964844 C 28.824219 78.128906 28.445312 78.613281 26.550781 76.800781 L 25.113281 75.421875 L 23.101562 79.085938 C 20 84.734375 19.222656 89.402344 21.253906 90.179688 C 22.382812 90.617188 24.960938 89.648438 27.695312 87.765625 C 30.773438 85.644531 32.832031 85 36.496094 85.003906 C 40.953125 85.011719 45.359375 85.921875 51.75 88.152344 L 57.75 90.25 L 66.75 90.226562 C 77.191406 90.203125 78.867188 89.777344 78.585938 87.230469 C 78.339844 84.957031 77.285156 83.105469 73.769531 78.75 C 70.078125 74.183594 69.199219 71.527344 72.410156 74.664062 L 74.324219 76.53125 L 75.652344 74.089844 C 77.480469 70.734375 78.292969 67.09375 79.289062 57.851562 C 79.976562 51.464844 80.03125 49.296875 79.574219 46.53125 C 78.898438 42.441406 77.34375 38.195312 75.820312 36.285156 C 74.804688 35.011719 74.652344 34.964844 74.019531 35.726562 M 47.875 47.886719 C 47.457031 48.363281 46.632812 49.714844 46.039062 50.894531 L 44.960938 53.039062 L 43.558594 52.042969 C 42.789062 51.496094 41.859375 50.683594 41.492188 50.242188 C 41.125 49.796875 40.183594 49.101562 39.402344 48.699219 C 38.121094 48.035156 37.949219 48.046875 37.65625 48.808594 C 37.34375 49.628906 37.976562 53.382812 38.71875 55.101562 C 39.03125 55.820312 38.691406 56.007812 36.542969 56.292969 C 35.144531 56.476562 34 56.796875 34 57.007812 C 34 57.519531 37.636719 60.773438 39.078125 61.539062 C 40.238281 62.160156 40.234375 62.167969 38.386719 62.957031 L 36.535156 63.75 L 38.605469 65.476562 C 39.886719 66.546875 41.453125 67.324219 42.714844 67.519531 L 44.75 67.835938 L 42.554688 68.816406 L 40.355469 69.800781 L 49.042969 73.160156 L 47.429688 74.820312 C 46.542969 75.738281 45.914062 76.558594 46.035156 76.652344 C 46.515625 77.03125 51.6875 78 53.207031 78 C 54.105469 78 55.9375 77.667969 57.28125 77.265625 C 59.554688 76.582031 59.832031 76.597656 61.390625 77.515625 C 62.304688 78.058594 63.269531 78.5 63.527344 78.5 C 64.425781 78.5 63.992188 77.28125 62.734375 76.269531 L 61.46875 75.25 L 62.484375 73.269531 C 63.519531 71.25 63.859375 65.839844 63.074219 63.851562 C 62.75 63.03125 62.617188 63.0625 61.523438 64.226562 C 59.875 65.980469 59.5 65.832031 59.5 63.433594 C 59.5 61.074219 58.546875 57.5 57.921875 57.5 C 57.691406 57.5 57.492188 57.667969 57.480469 57.875 C 57.472656 58.082031 56.890625 58.925781 56.1875 59.75 L 54.90625 61.25 L 55.214844 59.445312 C 55.515625 57.652344 54.699219 52.5 54.109375 52.5 C 53.941406 52.5 53.171875 53.105469 52.402344 53.84375 L 51 55.1875 L 51 53.652344 C 51 52.804688 50.664062 51.46875 50.253906 50.683594 C 49.84375 49.894531 49.503906 48.871094 49.503906 48.40625 C 49.5 47.148438 48.734375 46.90625 47.875 47.886719 M 38.746094 50.503906 C 37.855469 51.945312 40.535156 55.996094 43.324219 57.429688 C 44.472656 58.019531 45 57.421875 45 55.53125 C 45 54.441406 39.199219 49.773438 38.746094 50.503906 M 47.015625 51.21875 C 46.1875 52.769531 46.089844 57.792969 46.875 58.574219 C 47.332031 59.03125 47.757812 58.546875 48.730469 56.460938 C 50.21875 53.261719 50.253906 52.851562 49.191406 51.234375 C 48.183594 49.691406 47.835938 49.6875 47.015625 51.21875 M 51.199219 56.859375 C 50.09375 58.3125 49.777344 59.261719 49.765625 61.1875 C 49.746094 64.234375 50.515625 64.625 52.449219 62.550781 C 54.097656 60.789062 54.746094 58.214844 54.023438 56.3125 C 53.359375 54.5625 52.882812 54.652344 51.199219 56.859375 M 36.609375 58.125 C 36.71875 58.46875 37.644531 59.167969 38.671875 59.675781 C 40.210938 60.4375 40.953125 60.519531 42.894531 60.128906 L 45.25 59.660156 L 43 58.589844 C 40.488281 57.398438 36.289062 57.09375 36.609375 58.125 M 56.632812 61.109375 C 54.492188 63.386719 53.191406 68.441406 54.53125 69.269531 C 55.191406 69.675781 56.867188 68.203125 57.800781 66.402344 C 58.539062 64.972656 58.667969 62.355469 58.074219 60.851562 C 57.746094 60.019531 57.640625 60.039062 56.632812 61.109375 M 42.027344 62.539062 C 39.773438 63.460938 39.375 64.035156 40.289062 65.042969 C 41.621094 66.515625 43.6875 66.683594 46.285156 65.535156 C 48.542969 64.539062 48.597656 64.464844 47.878906 63.375 C 47.039062 62.105469 44.109375 61.6875 42.027344 62.539062 M 52.089844 64.433594 C 50.957031 65.285156 50.953125 65.304688 51.925781 66.183594 C 52.875 67.042969 52.914062 67.023438 53.25 65.5 C 53.683594 63.519531 53.511719 63.359375 52.089844 64.433594 M 60.316406 67.011719 C 58.863281 68.738281 58.117188 71.78125 58.859375 72.957031 C 59.714844 74.320312 60.894531 74.15625 61.722656 72.554688 C 62.5625 70.929688 62.785156 66.238281 62.046875 65.777344 C 61.796875 65.625 61.015625 66.179688 60.316406 67.011719 M 46.683594 68.210938 C 44.324219 69.253906 44.195312 69.925781 46.199219 70.761719 C 48.867188 71.875 53.78125 71.589844 53.363281 70.34375 C 53.09375 69.53125 50.898438 68.078125 49.5 67.78125 C 48.8125 67.636719 47.546875 67.828125 46.683594 68.210938 M 57.039062 69.425781 C 56.382812 70.648438 56.363281 71 56.941406 71 C 57.398438 71 58.109375 68.941406 57.769531 68.605469 C 57.667969 68.5 57.339844 68.867188 57.039062 69.425781 M 51.199219 73.453125 C 48.757812 74.5625 48.078125 75.769531 49.660156 76.195312 C 51.460938 76.675781 55.742188 76.539062 57.460938 75.941406 L 59.066406 75.378906 L 57.410156 73.960938 C 55.464844 72.296875 54.011719 72.175781 51.199219 73.453125 "/>
</g>
</svg>
