<?xml version="1.0" encoding="UTF-8"?>
<svg xmlns="http://www.w3.org/2000/svg" xmlns:xlink="http://www.w3.org/1999/xlink" width="100px" height="100px" viewBox="0 0 100 100" version="1.1">
<g id="surface1">
<path style=" stroke:none;fill-rule:evenodd;fill:rgb(0%,0%,0%);fill-opacity:1;" d="M 77.0625 20.308594 C 76.734375 21.027344 74.617188 23.851562 72.359375 26.585938 C 68.449219 31.3125 67.027344 32.480469 43.117188 50.625 C 29.292969 61.113281 18.058594 69.929688 18.15625 70.214844 C 18.457031 71.117188 22.5625 71.574219 27.75 71.285156 C 34.4375 70.914062 35.980469 70.417969 41.210938 66.953125 C 43.660156 65.328125 45.714844 64.058594 45.773438 64.125 C 45.832031 64.195312 43.09375 67.738281 39.695312 72 C 36.292969 76.261719 33.507812 80.03125 33.503906 80.375 C 33.496094 81.261719 35.601562 81.148438 40.363281 80.007812 C 46.164062 78.617188 50.71875 76.425781 53.09375 73.882812 C 56.214844 70.546875 70.570312 52.539062 74.421875 47.128906 C 78.578125 41.292969 79.386719 39.066406 78.550781 35.742188 C 77.992188 33.519531 78.058594 33.171875 79.980469 28.484375 C 82.367188 22.667969 82.46875 21.441406 80.683594 20.035156 C 78.914062 18.644531 77.78125 18.730469 77.0625 20.308594 M 78.296875 21.304688 C 78.132812 21.734375 78.425781 22.632812 78.945312 23.292969 C 79.738281 24.300781 79.945312 24.367188 80.195312 23.707031 C 80.722656 22.339844 80.53125 21.550781 79.550781 21.027344 C 78.820312 20.636719 78.53125 20.703125 78.296875 21.304688 M 72.628906 28.695312 C 70.363281 31.476562 67.199219 35.605469 65.601562 37.875 C 56.925781 50.203125 45.226562 61.59375 35.109375 67.566406 C 32.730469 68.96875 32.1875 69.453125 33.25 69.222656 C 36.601562 68.488281 42.316406 64.707031 55.75 54.335938 C 70.355469 43.058594 71.5 41.824219 71.5 37.339844 C 71.5 35.332031 71.863281 34.59375 74.75 30.769531 C 77.886719 26.613281 78.734375 24.378906 77.375 23.875 C 77.027344 23.746094 74.929688 25.878906 72.628906 28.695312 M 75.355469 32.574219 C 73.441406 35.070312 72.996094 36.03125 72.988281 37.699219 C 72.964844 42.34375 71.226562 44.308594 58.21875 54.402344 C 51.699219 59.460938 50.925781 60.257812 43.875 69.171875 C 39.777344 74.351562 36.546875 78.714844 36.699219 78.867188 C 37.160156 79.324219 44.054688 77.472656 47.253906 76.027344 C 49.558594 74.988281 51.015625 73.8125 53.539062 70.960938 C 62 61.394531 76.332031 42.480469 76.988281 40.019531 C 77.417969 38.410156 77.085938 35.351562 76.351562 34.160156 C 76.195312 33.910156 76.492188 32.757812 77.007812 31.601562 C 77.527344 30.445312 77.898438 29.5 77.828125 29.5 C 77.761719 29.5 76.648438 30.882812 75.355469 32.574219 M 42.964844 52.664062 C 29.074219 63.238281 21.496094 69.304688 22.058594 69.40625 C 22.546875 69.492188 24.363281 68.453125 26.097656 67.101562 C 30.066406 64.003906 31.328125 63.320312 31.769531 64.03125 C 32.167969 64.675781 32.449219 64.394531 28.578125 67.238281 C 26.832031 68.519531 25.511719 69.679688 25.648438 69.8125 C 25.953125 70.121094 31.695312 67.742188 33.910156 66.386719 C 35.09375 65.664062 35.417969 65.21875 35.035156 64.835938 C 34.167969 63.964844 34.421875 61.578125 35.5 60.5 C 36.769531 59.230469 38.515625 59.222656 40.113281 60.480469 C 41.164062 61.308594 41.5 61.359375 42.242188 60.816406 C 42.984375 60.273438 43.03125 59.992188 42.523438 59.039062 C 42.046875 58.15625 42.046875 57.589844 42.523438 56.449219 C 43.230469 54.738281 45.042969 54.109375 47.058594 54.871094 C 48.695312 55.488281 49.144531 55.203125 48.484375 53.96875 C 47.917969 52.914062 48.503906 51.035156 49.703125 50.039062 C 50.203125 49.625 51.148438 49.472656 52.199219 49.644531 C 53.585938 49.871094 54.117188 49.679688 55.15625 48.585938 C 56.054688 47.640625 56.351562 46.882812 56.175781 45.988281 C 55.832031 44.253906 57.652344 42.003906 59.410156 41.984375 C 60.40625 41.972656 61.199219 41.378906 62.5 39.667969 C 64.261719 37.351562 65.175781 35.964844 64.898438 36.039062 C 64.816406 36.0625 54.945312 43.542969 42.964844 52.664062 M 58.332031 43.832031 C 58.148438 44.015625 58 44.398438 58 44.683594 C 58 44.996094 58.234375 44.96875 58.589844 44.609375 C 58.917969 44.28125 59.066406 43.902344 58.925781 43.757812 C 58.78125 43.617188 58.515625 43.648438 58.332031 43.832031 M 49.976562 52.042969 C 49.109375 53.667969 49.886719 53.839844 51.378906 52.347656 C 52.691406 51.039062 52.695312 51 51.632812 51 C 51.027344 51 50.285156 51.46875 49.976562 52.042969 M 43.972656 57.054688 C 43.105469 58.671875 44.097656 59.210938 45.667969 57.972656 C 46.40625 57.394531 46.882812 56.714844 46.726562 56.460938 C 46.207031 55.625 44.542969 55.980469 43.972656 57.054688 M 36.519531 61.726562 C 35.847656 62.539062 35.984375 64.085938 36.75 64.320312 C 37.675781 64.609375 39.675781 62.675781 39.34375 61.8125 C 38.957031 60.804688 37.328125 60.753906 36.519531 61.726562 "/>
</g>
</svg>
