<?xml version="1.0" encoding="UTF-8"?>
<svg xmlns="http://www.w3.org/2000/svg" xmlns:xlink="http://www.w3.org/1999/xlink" width="100px" height="100px" viewBox="0 0 100 100" version="1.1">
<g id="surface1">
<path style=" stroke:none;fill-rule:evenodd;fill:rgb(0%,0%,0%);fill-opacity:1;" d="M 17.613281 3.785156 C 13.011719 6.078125 10.480469 11.300781 11.277344 16.863281 C 11.789062 20.472656 14.078125 25.976562 16.695312 29.914062 C 23.464844 40.101562 33.515625 43.683594 39.925781 38.195312 C 45.953125 33.039062 45.074219 24.996094 38.003906 20.589844 C 34.453125 18.378906 33.558594 16.964844 32.949219 12.605469 C 31.757812 4.105469 24.890625 0.160156 17.613281 3.785156 M 19.5 6.0625 C 12.953125 8.671875 12.574219 17.351562 18.574219 27.3125 C 24.898438 37.820312 35.703125 41.070312 39.867188 33.722656 C 41.949219 30.042969 40.894531 26.234375 37.070312 23.660156 C 35.785156 22.792969 35.222656 22.664062 34.550781 23.082031 C 33.355469 23.832031 30.746094 22.425781 29.480469 20.351562 C 28.300781 18.417969 28.164062 15.097656 29.25 14.679688 C 30.292969 14.28125 30.203125 11.613281 29.074219 9.492188 C 27.25 6.058594 23.171875 4.597656 19.5 6.0625 M 62.015625 31.03125 C 59.796875 31.960938 57.671875 33.894531 56.003906 36.492188 C 54.019531 39.585938 52.566406 40.394531 47.945312 40.972656 C 45.488281 41.28125 43.695312 41.855469 42.113281 42.835938 C 36.238281 46.472656 35.898438 54.839844 41.429688 59.574219 C 46.5625 63.964844 54.996094 63.515625 63.75 58.378906 C 68.105469 55.824219 73.425781 50.550781 74.980469 47.25 C 76.75 43.496094 76.644531 39.3125 74.707031 36.175781 C 72.546875 32.683594 69.695312 30.851562 66.128906 30.660156 C 64.546875 30.578125 62.695312 30.742188 62.015625 31.03125 M 62.984375 33.910156 C 61.597656 34.523438 60.226562 35.726562 59.167969 37.25 C 58.34375 38.4375 58.242188 38.933594 58.6875 39.628906 C 59.992188 41.667969 55.890625 45.5 52.410156 45.5 C 51.144531 45.5 50.367188 45.238281 50.179688 44.75 C 49.785156 43.714844 46.683594 43.785156 44.511719 44.875 C 41.746094 46.265625 40.367188 48.730469 40.617188 51.839844 C 41.046875 57.167969 44.941406 59.828125 51.675781 59.394531 C 58.972656 58.925781 68.734375 52.742188 72.007812 46.511719 C 74.464844 41.835938 72.921875 36.566406 68.398438 34.207031 C 66.992188 33.472656 64.304688 33.324219 62.984375 33.910156 M 11.210938 58.183594 C 8.324219 59.117188 6.113281 60.890625 4.574219 63.5 C 3.480469 65.359375 3.25 66.359375 3.25 69.261719 C 3.25 74.503906 5.316406 78.410156 11.203125 84.296875 C 16.179688 89.273438 20.054688 91.578125 25 92.515625 C 32.886719 94.003906 39.5 89.058594 39.5 81.675781 C 39.5 76.777344 36.199219 73.035156 30.316406 71.265625 C 26.761719 70.195312 26.210938 69.65625 23.832031 64.9375 C 22.113281 61.523438 21.347656 60.546875 19.496094 59.410156 C 16.75 57.726562 13.914062 57.308594 11.210938 58.183594 M 11.828125 61.21875 C 6.816406 63.035156 4.789062 67.859375 6.828125 73.113281 C 8.007812 76.15625 11.527344 80.980469 14.53125 83.683594 C 15.945312 84.957031 18.785156 86.828125 20.839844 87.84375 C 23.933594 89.371094 25.097656 89.6875 27.660156 89.679688 C 33.398438 89.667969 36.25 86.980469 36.25 81.585938 C 36.25 78.585938 36.15625 78.339844 34.421875 76.746094 C 32.179688 74.695312 28.988281 73.644531 28.363281 74.761719 C 27.078125 77.058594 21.34375 73.585938 20.691406 70.109375 C 20.476562 68.96875 20.578125 68.261719 20.992188 68.003906 C 22.503906 67.070312 18.5 61.015625 16.359375 60.992188 C 16.023438 60.988281 15.300781 60.882812 14.75 60.753906 C 14.199219 60.625 12.886719 60.832031 11.828125 61.21875 M 65.042969 67.359375 C 59.226562 69.414062 55.976562 76.386719 58.273438 81.882812 C 59.976562 85.960938 63.253906 87.953125 68.941406 88.363281 C 73.652344 88.703125 75.066406 89.394531 77.25 92.433594 C 81.691406 98.617188 89.3125 99.132812 94.074219 93.570312 C 98.503906 88.394531 97.753906 81.828125 92.074219 76.050781 C 84.71875 68.566406 72.628906 64.679688 65.042969 67.359375 M 65.039062 70.824219 C 62.960938 71.859375 62.183594 72.59375 61.453125 74.199219 C 58.949219 79.710938 61.78125 84.605469 67.890625 85.332031 C 70.101562 85.59375 70.378906 85.515625 70.628906 84.5625 C 70.855469 83.695312 71.289062 83.5 72.976562 83.5 C 74.117188 83.5 75.722656 83.847656 76.546875 84.273438 C 78.527344 85.300781 80.105469 87.871094 79.472656 89.050781 C 78.910156 90.101562 80.804688 92.617188 83.035156 93.769531 C 87.433594 96.042969 93.117188 92.550781 93.847656 87.128906 C 94.457031 82.578125 89.777344 76.597656 82.714844 72.90625 C 75.574219 69.175781 69.730469 68.488281 65.039062 70.824219 "/>
</g>
</svg>
