<?xml version="1.0" encoding="UTF-8"?>
<svg xmlns="http://www.w3.org/2000/svg" xmlns:xlink="http://www.w3.org/1999/xlink" width="100px" height="100px" viewBox="0 0 100 100" version="1.1">
<g id="surface1">
<path style=" stroke:none;fill-rule:evenodd;fill:rgb(0%,0%,0%);fill-opacity:1;" d="M 70 18.257812 C 66.226562 19.183594 64.636719 19.90625 58.019531 23.710938 C 49.511719 28.601562 47.679688 29.230469 42 29.1875 C 39.078125 29.164062 33.59375 28.527344 27.75 27.527344 C 13.226562 25.039062 8.808594 25.605469 4 30.558594 C 2.914062 31.679688 1.566406 33.835938 0.96875 35.414062 C 0.0234375 37.894531 -0.0742188 38.910156 0.171875 43.5 C 1.277344 64.078125 15.753906 78.246094 39.25 81.75 C 53.234375 83.832031 67.039062 81.460938 77.71875 75.136719 C 83.269531 71.851562 90.988281 64.101562 93.949219 58.84375 C 96.480469 54.347656 98.828125 47.746094 99.367188 43.609375 L 99.742188 40.75 L 100.042969 43.25 C 100.332031 45.660156 100.34375 45.621094 100.417969 42.25 C 100.734375 27.433594 96.335938 20.660156 84.867188 18.289062 C 80.285156 17.34375 73.78125 17.328125 70 18.257812 M 71.75 21.308594 C 71.199219 21.449219 69.738281 21.886719 68.5 22.28125 L 66.25 22.996094 L 66.25 29.375 C 66.25 35.238281 66.144531 35.976562 64.914062 38.597656 C 63.210938 42.238281 59.726562 45.714844 56.097656 47.40625 C 52.074219 49.28125 45.953125 49.535156 41.859375 48 C 36.222656 45.886719 30.957031 39.476562 30.175781 33.78125 C 29.824219 31.210938 30.167969 31.386719 23.25 30.230469 C 13.574219 28.609375 9.304688 29.398438 5.988281 33.421875 C 4.105469 35.703125 3.507812 37.808594 3.503906 42.144531 C 3.496094 49.59375 6.453125 58.234375 10.941406 63.878906 C 18.316406 73.160156 33.207031 78.988281 49.558594 78.996094 C 71.867188 79.007812 89.546875 66.644531 95.101562 47.140625 C 95.960938 44.125 96.214844 41.902344 96.230469 37.25 C 96.246094 31.917969 96.117188 30.980469 95.058594 28.832031 C 93.671875 26.015625 90.488281 23.484375 86.761719 22.238281 C 84.277344 21.40625 73.875 20.761719 71.75 21.308594 M 57.761719 27.773438 C 55.296875 29.25 51.417969 31.058594 49.148438 31.796875 C 45.425781 33.007812 44.59375 33.105469 40.648438 32.785156 C 38.242188 32.589844 35.617188 32.296875 34.816406 32.136719 C 33.363281 31.847656 33.359375 31.851562 33.722656 33.796875 C 35.839844 45.207031 50.484375 49.578125 58.78125 41.28125 C 62.308594 37.753906 63.421875 34.105469 63.097656 27.125 C 63.042969 25.957031 62.832031 25.023438 62.625 25.046875 C 62.417969 25.074219 60.230469 26.300781 57.761719 27.773438 M 84.316406 26.929688 C 82.996094 28.386719 83.402344 31.023438 85.089844 31.96875 C 88.039062 33.613281 91.113281 30.539062 89.46875 27.589844 C 88.488281 25.835938 85.632812 25.472656 84.316406 26.929688 M 0.175781 41.75 C 0.175781 44.226562 0.261719 45.300781 0.367188 44.140625 C 0.46875 42.980469 0.472656 40.953125 0.367188 39.640625 C 0.265625 38.324219 0.179688 39.273438 0.175781 41.75 "/>
</g>
</svg>
