<?xml version="1.0" encoding="UTF-8"?>
<svg xmlns="http://www.w3.org/2000/svg" xmlns:xlink="http://www.w3.org/1999/xlink" width="24px" height="24px" viewBox="0 0 24 24" version="1.1">
<g id="surface1">
<path style=" stroke:none;fill-rule:evenodd;fill:rgb(0%,0%,0%);fill-opacity:1;" d="M 2.941406 4.292969 L 1.980469 4.5 L 1.945312 4.933594 C 1.863281 5.875 2.933594 8.039062 3.859375 8.820312 C 4.214844 9.117188 4.222656 9.136719 4.003906 9.300781 C 3.882812 9.394531 3.742188 9.472656 3.695312 9.476562 C 3.648438 9.476562 3.472656 9.714844 3.304688 10 C 2.953125 10.601562 2.902344 11.390625 3.183594 11.929688 C 3.28125 12.121094 3.351562 12.289062 3.332031 12.304688 C 3.257812 12.367188 2.199219 11.980469 1.980469 11.808594 C 1.746094 11.625 1.75 11.609375 2.25 11.175781 C 2.808594 10.691406 2.835938 10.609375 2.582031 10.273438 C 2.417969 10.058594 2.367188 10.078125 1.5625 10.738281 C 1.101562 11.117188 0.71875 11.496094 0.71875 11.582031 C 0.71875 11.804688 1.6875 13.078125 2.199219 13.527344 C 3.046875 14.269531 4.078125 14.628906 5.398438 14.648438 L 6.179688 14.660156 L 4.953125 14.945312 C 4.277344 15.101562 3.429688 15.371094 3.066406 15.542969 C 2.289062 15.910156 0.71875 17.105469 0.71875 17.328125 C 0.71875 17.566406 1.464844 18.457031 2.054688 18.925781 C 3.207031 19.84375 4.585938 20.320312 6.058594 20.308594 C 6.835938 20.304688 8.1875 20.039062 13.125 18.917969 C 19.78125 17.40625 20.378906 17.214844 21.53125 16.1875 C 22.171875 15.617188 23.039062 14.375 23.039062 14.027344 C 23.039062 13.839844 22.433594 13.292969 21.789062 12.898438 C 21.625 12.796875 21.699219 12.699219 22.261719 12.265625 C 22.628906 11.984375 22.964844 11.664062 23.003906 11.558594 C 23.128906 11.238281 22.558594 10.3125 21.707031 9.449219 C 20.484375 8.214844 20.089844 8.066406 12.421875 6.003906 C 5.003906 4.003906 4.601562 3.933594 2.941406 4.292969 M 3.539062 4.980469 C 3.472656 5 3.265625 5.054688 3.078125 5.09375 C 2.761719 5.164062 2.738281 5.207031 2.808594 5.554688 C 3.054688 6.832031 4.308594 8.402344 5.574219 9.015625 C 5.964844 9.207031 6.402344 9.46875 6.542969 9.601562 L 6.796875 9.839844 L 7.082031 9.539062 C 7.238281 9.371094 7.585938 9.171875 7.851562 9.089844 C 8.121094 9.011719 8.449219 8.820312 8.578125 8.664062 C 8.8125 8.398438 8.832031 8.394531 9.210938 8.582031 C 9.535156 8.746094 9.675781 8.753906 10.027344 8.636719 C 10.277344 8.554688 10.511719 8.375 10.585938 8.207031 C 10.734375 7.882812 10.777344 7.871094 11.21875 8.039062 L 11.535156 8.160156 L 11.316406 8.53125 C 11.0625 8.964844 10.617188 9.3125 10.160156 9.425781 C 9.894531 9.492188 9.859375 9.539062 9.976562 9.679688 C 10.09375 9.824219 10.164062 9.804688 10.429688 9.550781 C 11.207031 8.808594 12.574219 8.824219 13.25 9.582031 C 13.425781 9.78125 13.511719 9.808594 13.640625 9.703125 C 13.78125 9.585938 13.777344 9.53125 13.613281 9.351562 C 13.464844 9.1875 13.449219 9.085938 13.550781 8.894531 C 13.664062 8.6875 13.730469 8.667969 14.039062 8.777344 C 14.238281 8.847656 14.367188 8.953125 14.332031 9.015625 C 14.289062 9.082031 14.460938 9.09375 14.746094 9.046875 C 15.445312 8.9375 16.027344 9.082031 16.484375 9.484375 L 16.886719 9.835938 L 17.113281 9.582031 C 17.238281 9.441406 17.515625 9.253906 17.726562 9.164062 C 19.414062 8.449219 21.167969 10.148438 20.46875 11.820312 C 20.371094 12.050781 20.34375 12.265625 20.402344 12.300781 C 20.53125 12.378906 21.199219 12.105469 21.539062 11.835938 C 21.777344 11.644531 21.777344 11.640625 21.480469 11.410156 L 21.179688 11.171875 L 21.410156 10.785156 L 21.640625 10.394531 L 21.023438 9.828125 C 20.683594 9.515625 20.113281 9.117188 19.753906 8.941406 C 19.398438 8.765625 16.011719 7.789062 12.234375 6.773438 C 6.273438 5.164062 5.25 4.921875 4.511719 4.929688 C 4.042969 4.933594 3.605469 4.957031 3.539062 4.980469 M 4.921875 6.847656 C 4.921875 7.753906 5.589844 8.550781 6.480469 8.699219 C 6.863281 8.765625 7.085938 8.722656 7.535156 8.5 C 8.171875 8.183594 8.746094 7.460938 8.492188 7.300781 C 8.210938 7.121094 7.941406 7.199219 7.578125 7.558594 C 6.898438 8.242188 5.835938 7.90625 5.6875 6.960938 C 5.632812 6.628906 5.542969 6.480469 5.355469 6.433594 C 4.9375 6.320312 4.921875 6.339844 4.921875 6.847656 M 4.738281 9.804688 C 4.367188 9.894531 3.875 10.421875 3.792969 10.816406 C 3.554688 12.007812 5.0625 12.824219 5.957031 11.984375 C 6.59375 11.386719 6.386719 10.230469 5.582031 9.894531 C 5.152344 9.714844 5.132812 9.710938 4.738281 9.804688 M 7.964844 9.890625 C 7.464844 10.109375 7.199219 10.515625 7.199219 11.070312 C 7.199219 11.921875 7.855469 12.464844 8.691406 12.308594 C 9.210938 12.210938 9.71875 11.636719 9.71875 11.144531 C 9.71875 10.605469 9.394531 10.082031 8.9375 9.890625 C 8.445312 9.6875 8.4375 9.6875 7.964844 9.890625 M 11.324219 9.890625 C 10.03125 10.457031 10.460938 12.359375 11.878906 12.359375 C 12.457031 12.359375 13.078125 11.695312 13.078125 11.078125 C 13.078125 10.507812 12.816406 10.105469 12.289062 9.886719 C 11.808594 9.6875 11.796875 9.6875 11.324219 9.890625 M 14.683594 9.890625 C 14.179688 10.113281 13.921875 10.515625 13.921875 11.078125 C 13.921875 11.695312 14.542969 12.359375 15.121094 12.359375 C 15.898438 12.359375 16.441406 11.800781 16.441406 11 C 16.441406 10.503906 16.152344 10.097656 15.648438 9.886719 C 15.167969 9.6875 15.160156 9.6875 14.683594 9.890625 M 18 9.929688 C 17.296875 10.285156 17.050781 11.195312 17.503906 11.773438 C 17.707031 12.03125 17.824219 12.0625 18.585938 12.054688 C 19.582031 12.046875 19.789062 11.878906 19.796875 11.097656 C 19.800781 10.507812 19.542969 10.109375 19.007812 9.886719 C 18.503906 9.675781 18.503906 9.675781 18 9.929688 M 10.859375 14.410156 C 3.703125 16.035156 3.140625 16.203125 2.121094 17.050781 L 1.660156 17.433594 L 2.230469 18.007812 C 3.257812 19.050781 4.859375 19.644531 6.351562 19.527344 C 6.785156 19.496094 9.8125 18.863281 13.078125 18.128906 C 19.746094 16.625 20.09375 16.507812 21.242188 15.355469 C 21.980469 14.621094 22.179688 14.246094 21.972656 13.996094 C 21.746094 13.71875 20.699219 13.210938 19.976562 13.023438 C 18.664062 12.683594 18.117188 12.765625 10.859375 14.410156 M 3.539062 13.4375 L 4.261719 13.800781 L 7.199219 13.796875 C 9.882812 13.796875 10.246094 13.769531 11.339844 13.507812 L 12.539062 13.21875 L 8.339844 13.207031 C 6.03125 13.203125 3.84375 13.171875 3.480469 13.136719 L 2.820312 13.078125 L 3.539062 13.4375 M 19.203125 14.035156 C 18.992188 14.089844 18.886719 14.21875 18.828125 14.492188 C 18.730469 14.984375 18.515625 15.238281 18.03125 15.441406 C 17.742188 15.5625 17.640625 15.679688 17.640625 15.894531 C 17.640625 16.28125 17.757812 16.335938 18.277344 16.191406 C 18.851562 16.03125 19.402344 15.460938 19.566406 14.855469 C 19.734375 14.226562 19.605469 13.933594 19.203125 14.035156 M 16.171875 14.722656 C 16.054688 14.753906 15.960938 14.878906 15.960938 15.003906 C 15.960938 15.609375 15.160156 16.332031 14.6875 16.152344 C 14.574219 16.109375 14.472656 16.195312 14.394531 16.390625 C 14.214844 16.871094 14.25 16.921875 14.773438 16.921875 C 15.820312 16.921875 16.554688 16.257812 16.65625 15.226562 C 16.710938 14.617188 16.683594 14.589844 16.171875 14.722656 M 13.039062 15.441406 C 12.996094 15.484375 12.960938 15.675781 12.960938 15.867188 C 12.960938 16.339844 12.449219 16.800781 11.925781 16.800781 C 11.59375 16.800781 11.511719 16.855469 11.445312 17.113281 C 11.203125 18.082031 13.003906 17.609375 13.53125 16.566406 C 13.679688 16.269531 13.800781 15.878906 13.800781 15.695312 C 13.800781 15.40625 13.753906 15.359375 13.460938 15.359375 C 13.273438 15.359375 13.082031 15.394531 13.039062 15.441406 M 10.289062 16.042969 C 10.175781 16.074219 10.078125 16.203125 10.078125 16.335938 C 10.078125 16.785156 9.734375 17.257812 9.304688 17.398438 C 9.074219 17.476562 8.832031 17.503906 8.769531 17.464844 C 8.636719 17.382812 8.582031 17.464844 8.472656 17.910156 C 8.398438 18.230469 8.410156 18.238281 8.90625 18.238281 C 9.84375 18.238281 10.597656 17.65625 10.785156 16.789062 C 10.941406 16.058594 10.835938 15.898438 10.289062 16.042969 M 7.1875 16.769531 C 7.179688 16.820312 7.160156 16.914062 7.144531 16.980469 C 7.128906 17.046875 7.109375 17.195312 7.097656 17.316406 C 7.066406 17.695312 6.527344 18.121094 6.082031 18.121094 C 5.628906 18.121094 5.039062 17.730469 5.039062 17.4375 C 5.039062 17.292969 4.957031 17.265625 4.660156 17.328125 C 4.449219 17.367188 4.257812 17.425781 4.230469 17.449219 C 4.132812 17.546875 4.5625 18.222656 4.910156 18.515625 C 5.460938 18.976562 6.125 19.042969 6.808594 18.699219 C 7.507812 18.347656 7.808594 17.941406 7.890625 17.234375 C 7.953125 16.679688 7.953125 16.679688 7.574219 16.679688 C 7.367188 16.679688 7.195312 16.71875 7.1875 16.769531 "/>
</g>
</svg>
