<?xml version="1.0" encoding="UTF-8"?>
<svg xmlns="http://www.w3.org/2000/svg" xmlns:xlink="http://www.w3.org/1999/xlink" width="24px" height="24px" viewBox="0 0 24 24" version="1.1">
<g id="surface1">
<path style=" stroke:none;fill-rule:evenodd;fill:rgb(0%,0%,0%);fill-opacity:1;" d="M 18.496094 4.875 C 18.417969 5.046875 17.910156 5.726562 17.367188 6.378906 C 16.429688 7.515625 16.085938 7.796875 10.347656 12.148438 C 7.03125 14.667969 4.335938 16.78125 4.355469 16.851562 C 4.429688 17.066406 5.414062 17.179688 6.660156 17.109375 C 8.265625 17.019531 8.636719 16.898438 9.890625 16.070312 C 10.480469 15.679688 10.972656 15.375 10.984375 15.390625 C 11 15.40625 10.34375 16.257812 9.527344 17.28125 C 8.710938 18.304688 8.042969 19.207031 8.042969 19.289062 C 8.039062 19.503906 8.542969 19.476562 9.6875 19.203125 C 11.078125 18.867188 12.171875 18.34375 12.742188 17.730469 C 13.492188 16.929688 16.9375 12.609375 17.863281 11.3125 C 18.859375 9.910156 19.054688 9.375 18.851562 8.578125 C 18.71875 8.042969 18.734375 7.960938 19.195312 6.835938 C 19.769531 5.441406 19.792969 5.144531 19.363281 4.808594 C 18.941406 4.476562 18.667969 4.496094 18.496094 4.875 M 18.792969 5.113281 C 18.75 5.214844 18.820312 5.429688 18.945312 5.589844 C 19.136719 5.832031 19.1875 5.847656 19.246094 5.691406 C 19.375 5.363281 19.328125 5.171875 19.09375 5.046875 C 18.917969 4.953125 18.847656 4.96875 18.792969 5.113281 M 17.429688 6.886719 C 16.886719 7.554688 16.128906 8.546875 15.746094 9.089844 C 13.664062 12.046875 10.855469 14.78125 8.425781 16.214844 C 7.855469 16.554688 7.726562 16.667969 7.980469 16.613281 C 8.785156 16.4375 10.15625 15.53125 13.378906 13.039062 C 16.886719 10.335938 17.160156 10.039062 17.160156 8.960938 C 17.160156 8.480469 17.246094 8.300781 17.941406 7.382812 C 18.691406 6.386719 18.898438 5.851562 18.570312 5.730469 C 18.488281 5.699219 17.984375 6.210938 17.429688 6.886719 M 18.085938 7.816406 C 17.625 8.417969 17.519531 8.648438 17.515625 9.046875 C 17.511719 10.164062 17.09375 10.632812 13.972656 13.058594 C 12.40625 14.269531 12.222656 14.460938 10.53125 16.601562 C 9.546875 17.84375 8.773438 18.890625 8.808594 18.929688 C 8.917969 19.039062 10.574219 18.59375 11.339844 18.246094 C 11.894531 17.996094 12.242188 17.714844 12.847656 17.03125 C 14.878906 14.734375 18.320312 10.195312 18.476562 9.605469 C 18.582031 9.21875 18.5 8.484375 18.324219 8.199219 C 18.285156 8.136719 18.359375 7.863281 18.480469 7.585938 C 18.605469 7.308594 18.695312 7.078125 18.679688 7.078125 C 18.664062 7.078125 18.394531 7.410156 18.085938 7.816406 M 10.3125 12.640625 C 6.976562 15.175781 5.160156 16.632812 5.292969 16.65625 C 5.410156 16.679688 5.847656 16.429688 6.261719 16.105469 C 7.214844 15.359375 7.519531 15.195312 7.625 15.367188 C 7.71875 15.523438 7.789062 15.453125 6.859375 16.136719 C 6.4375 16.445312 6.125 16.722656 6.15625 16.753906 C 6.230469 16.828125 7.605469 16.257812 8.140625 15.933594 C 8.421875 15.757812 8.5 15.652344 8.410156 15.5625 C 8.199219 15.351562 8.261719 14.777344 8.519531 14.519531 C 8.824219 14.214844 9.242188 14.214844 9.628906 14.515625 C 9.878906 14.714844 9.960938 14.726562 10.136719 14.597656 C 10.316406 14.464844 10.328125 14.398438 10.207031 14.167969 C 10.089844 13.957031 10.089844 13.820312 10.207031 13.546875 C 10.375 13.136719 10.808594 12.984375 11.292969 13.167969 C 11.6875 13.316406 11.792969 13.25 11.636719 12.953125 C 11.5 12.699219 11.640625 12.25 11.929688 12.007812 C 12.046875 11.910156 12.277344 11.875 12.527344 11.914062 C 12.859375 11.96875 12.988281 11.921875 13.238281 11.660156 C 13.453125 11.433594 13.523438 11.25 13.480469 11.039062 C 13.398438 10.621094 13.835938 10.082031 14.257812 10.078125 C 14.496094 10.074219 14.6875 9.929688 15 9.519531 C 15.421875 8.964844 15.644531 8.632812 15.574219 8.648438 C 15.554688 8.65625 13.1875 10.449219 10.3125 12.640625 M 14 10.519531 C 13.957031 10.5625 13.921875 10.65625 13.921875 10.722656 C 13.921875 10.800781 13.976562 10.792969 14.0625 10.707031 C 14.140625 10.628906 14.175781 10.535156 14.140625 10.503906 C 14.109375 10.46875 14.042969 10.476562 14 10.519531 M 11.996094 12.492188 C 11.785156 12.878906 11.972656 12.921875 12.332031 12.5625 C 12.644531 12.25 12.648438 12.238281 12.390625 12.238281 C 12.246094 12.238281 12.066406 12.351562 11.996094 12.492188 M 10.554688 13.691406 C 10.34375 14.082031 10.582031 14.210938 10.960938 13.914062 C 11.136719 13.773438 11.25 13.609375 11.214844 13.550781 C 11.089844 13.351562 10.691406 13.4375 10.554688 13.691406 M 8.765625 14.8125 C 8.601562 15.007812 8.636719 15.378906 8.820312 15.4375 C 9.042969 15.507812 9.523438 15.042969 9.441406 14.835938 C 9.347656 14.59375 8.957031 14.582031 8.765625 14.8125 "/>
</g>
</svg>
