<?xml version="1.0" encoding="UTF-8"?>
<svg xmlns="http://www.w3.org/2000/svg" xmlns:xlink="http://www.w3.org/1999/xlink" width="100px" height="100px" viewBox="0 0 100 100" version="1.1">
<g id="surface1">
<path style=" stroke:none;fill-rule:evenodd;fill:rgb(0%,0%,0%);fill-opacity:1;" d="M 12.25 17.882812 L 8.25 18.75 L 8.097656 20.5625 C 7.773438 24.476562 12.222656 33.496094 16.085938 36.746094 C 17.566406 37.988281 17.589844 38.074219 16.691406 38.757812 C 16.171875 39.148438 15.589844 39.476562 15.394531 39.484375 C 15.203125 39.492188 14.46875 40.476562 13.769531 41.667969 C 12.300781 44.179688 12.09375 47.457031 13.261719 49.699219 C 13.675781 50.496094 13.957031 51.199219 13.882812 51.261719 C 13.570312 51.53125 9.164062 49.921875 8.25 49.207031 C 7.273438 48.441406 7.300781 48.378906 9.375 46.574219 C 11.695312 44.554688 11.820312 44.214844 10.753906 42.804688 C 10.070312 41.902344 9.867188 41.996094 6.519531 44.734375 C 4.582031 46.320312 3 47.902344 3 48.25 C 3 49.191406 7.035156 54.5 9.167969 56.367188 C 12.691406 59.449219 16.988281 60.957031 22.5 61.035156 L 25.75 61.082031 L 20.640625 62.269531 C 17.828125 62.921875 14.289062 64.042969 12.777344 64.757812 C 9.535156 66.292969 3 71.273438 3 72.207031 C 3 73.195312 6.101562 76.910156 8.5625 78.863281 C 13.367188 82.679688 19.113281 84.660156 25.25 84.621094 C 28.484375 84.597656 34.109375 83.488281 54.691406 78.820312 C 82.417969 72.527344 84.90625 71.722656 89.714844 67.449219 C 92.382812 65.074219 96 59.894531 96 58.445312 C 96 57.671875 93.476562 55.394531 90.789062 53.75 C 90.101562 53.328125 90.410156 52.917969 92.757812 51.113281 C 94.289062 49.933594 95.683594 48.605469 95.855469 48.160156 C 96.367188 46.820312 93.992188 42.96875 90.441406 39.375 C 85.355469 34.230469 83.703125 33.617188 51.75 25.011719 C 20.851562 16.6875 19.179688 16.386719 12.25 17.882812 M 14.75 20.746094 C 14.476562 20.835938 13.605469 21.054688 12.816406 21.230469 C 11.515625 21.519531 11.414062 21.691406 11.695312 23.148438 C 12.730469 28.46875 17.957031 35.007812 23.222656 37.566406 C 24.855469 38.359375 26.671875 39.457031 27.257812 40.007812 L 28.320312 41.003906 L 29.503906 39.746094 C 30.15625 39.050781 31.601562 38.210938 32.71875 37.875 C 33.835938 37.539062 35.199219 36.746094 35.75 36.109375 C 36.714844 34.988281 36.804688 34.976562 38.378906 35.761719 C 39.726562 36.4375 40.308594 36.476562 41.785156 35.988281 C 42.816406 35.648438 43.796875 34.894531 44.113281 34.199219 C 44.730469 32.847656 44.910156 32.800781 46.746094 33.5 L 48.058594 33.996094 L 47.152344 35.546875 C 46.09375 37.359375 44.238281 38.796875 42.332031 39.273438 C 41.226562 39.550781 41.082031 39.746094 41.5625 40.328125 C 42.066406 40.929688 42.351562 40.847656 43.453125 39.800781 C 46.695312 36.710938 52.386719 36.773438 55.199219 39.929688 C 55.9375 40.757812 56.304688 40.867188 56.839844 40.425781 C 57.417969 39.945312 57.398438 39.714844 56.722656 38.96875 C 56.097656 38.28125 56.039062 37.859375 56.464844 37.070312 C 56.933594 36.191406 57.207031 36.125 58.503906 36.574219 C 59.324219 36.863281 59.871094 37.304688 59.710938 37.558594 C 59.542969 37.835938 60.246094 37.890625 61.441406 37.703125 C 64.355469 37.234375 66.785156 37.84375 68.691406 39.515625 L 70.363281 40.980469 L 71.304688 39.921875 C 71.824219 39.339844 72.972656 38.554688 73.859375 38.179688 C 80.890625 35.203125 88.191406 42.285156 85.28125 49.253906 C 84.882812 50.210938 84.761719 51.101562 85.007812 51.253906 C 85.539062 51.582031 88.335938 50.4375 89.75 49.308594 C 90.742188 48.519531 90.738281 48.503906 89.5 47.535156 L 88.25 46.558594 L 90.164062 43.316406 L 87.59375 40.949219 C 86.179688 39.648438 83.804688 37.988281 82.3125 37.257812 C 80.824219 36.53125 66.722656 32.460938 50.972656 28.21875 C 26.144531 21.523438 21.871094 20.503906 18.796875 20.539062 C 16.847656 20.5625 15.023438 20.652344 14.75 20.746094 M 20.5 28.523438 C 20.5 32.304688 23.292969 35.625 26.996094 36.25 C 28.597656 36.519531 29.527344 36.34375 31.386719 35.421875 C 34.042969 34.105469 36.449219 31.09375 35.386719 30.417969 C 34.210938 29.671875 33.085938 29.992188 31.578125 31.5 C 28.738281 34.339844 24.324219 32.945312 23.691406 29.007812 C 23.46875 27.613281 23.09375 27.007812 22.316406 26.800781 C 20.578125 26.335938 20.5 26.410156 20.5 28.523438 M 19.75 40.855469 C 18.191406 41.230469 16.140625 43.429688 15.808594 45.074219 C 14.816406 50.039062 21.097656 53.433594 24.8125 49.941406 C 27.46875 47.449219 26.605469 42.621094 23.261719 41.222656 C 21.460938 40.472656 21.386719 40.464844 19.75 40.855469 M 33.1875 41.21875 C 31.097656 42.128906 30 43.820312 30 46.128906 C 30 49.675781 32.730469 51.945312 36.210938 51.289062 C 38.375 50.882812 40.5 48.476562 40.5 46.4375 C 40.5 44.1875 39.136719 42.007812 37.234375 41.210938 C 35.195312 40.359375 35.164062 40.359375 33.1875 41.21875 M 47.1875 41.21875 C 41.800781 43.5625 43.585938 51.5 49.503906 51.5 C 51.90625 51.5 54.5 48.730469 54.5 46.160156 C 54.5 43.777344 53.394531 42.113281 51.199219 41.195312 C 49.199219 40.359375 49.160156 40.359375 47.1875 41.21875 M 61.1875 41.21875 C 59.089844 42.132812 58 43.820312 58 46.160156 C 58 48.730469 60.59375 51.5 62.996094 51.5 C 66.238281 51.5 68.5 49.171875 68.5 45.835938 C 68.5 43.757812 67.304688 42.074219 65.199219 41.195312 C 63.199219 40.359375 63.160156 40.359375 61.1875 41.21875 M 75.007812 41.375 C 72.070312 42.847656 71.046875 46.652344 72.941406 49.058594 C 73.78125 50.128906 74.261719 50.253906 77.441406 50.222656 C 81.59375 50.1875 82.457031 49.503906 82.484375 46.238281 C 82.503906 43.785156 81.421875 42.125 79.199219 41.195312 C 77.105469 40.324219 77.105469 40.324219 75.007812 41.375 M 45.25 60.046875 C 15.425781 66.804688 13.09375 67.511719 8.835938 71.046875 L 6.921875 72.636719 L 9.285156 75.035156 C 13.570312 79.386719 20.246094 81.847656 26.464844 81.367188 C 28.273438 81.230469 40.886719 78.605469 54.5 75.535156 C 82.273438 69.269531 83.71875 68.78125 88.511719 63.988281 C 91.578125 60.921875 92.417969 59.355469 91.550781 58.308594 C 90.601562 57.167969 86.25 55.054688 83.234375 54.265625 C 77.773438 52.84375 75.484375 53.191406 45.25 60.046875 M 14.75 55.992188 L 17.75 57.496094 L 30 57.488281 C 41.183594 57.480469 42.6875 57.375 47.25 56.28125 L 52.25 55.082031 L 34.75 55.035156 C 25.125 55.011719 16.011719 54.878906 14.5 54.738281 L 11.75 54.484375 L 14.75 55.992188 M 80.015625 58.480469 C 79.132812 58.699219 78.691406 59.242188 78.457031 60.390625 C 78.035156 62.441406 77.15625 63.484375 75.125 64.335938 C 73.925781 64.835938 73.5 65.332031 73.5 66.226562 C 73.5 67.832031 73.988281 68.0625 76.152344 67.464844 C 78.554688 66.800781 80.847656 64.425781 81.527344 61.894531 C 82.234375 59.273438 81.695312 58.058594 80.015625 58.480469 M 67.375 61.34375 C 66.894531 61.46875 66.5 61.996094 66.5 62.511719 C 66.5 65.039062 63.164062 68.054688 61.199219 67.300781 C 60.730469 67.117188 60.296875 67.472656 59.984375 68.292969 C 59.222656 70.292969 59.367188 70.5 61.550781 70.5 C 65.910156 70.5 68.980469 67.734375 69.394531 63.4375 C 69.636719 60.910156 69.515625 60.785156 67.375 61.34375 M 54.332031 64.332031 C 54.148438 64.515625 54 65.316406 54 66.105469 C 54 68.078125 51.867188 70 49.6875 70 C 48.304688 70 47.960938 70.226562 47.691406 71.304688 C 46.675781 75.34375 54.179688 73.371094 56.375 69.019531 C 56.992188 67.792969 57.5 66.160156 57.5 65.394531 C 57.5 64.195312 57.300781 64 56.082031 64 C 55.304688 64 54.515625 64.148438 54.332031 64.332031 M 42.875 66.84375 C 42.394531 66.96875 42 67.519531 42 68.0625 C 42 69.933594 40.566406 71.902344 38.769531 72.492188 C 37.804688 72.8125 36.804688 72.9375 36.542969 72.777344 C 35.984375 72.429688 35.75 72.777344 35.308594 74.625 C 34.988281 75.960938 35.039062 76 37.117188 76 C 41.019531 75.996094 44.160156 73.574219 44.933594 69.960938 C 45.589844 66.910156 45.152344 66.25 42.875 66.84375 M 29.941406 69.875 C 29.910156 70.082031 29.832031 70.476562 29.769531 70.75 C 29.703125 71.023438 29.617188 71.652344 29.574219 72.148438 C 29.441406 73.726562 27.203125 75.5 25.339844 75.5 C 23.460938 75.5 21 73.882812 21 72.652344 C 21 72.046875 20.652344 71.945312 19.410156 72.191406 C 18.539062 72.367188 17.734375 72.597656 17.625 72.707031 C 17.21875 73.117188 19.015625 75.925781 20.464844 77.144531 C 22.757812 79.074219 25.523438 79.34375 28.363281 77.921875 C 31.285156 76.453125 32.539062 74.757812 32.871094 71.808594 C 33.128906 69.5 33.128906 69.5 31.566406 69.5 C 30.703125 69.5 29.972656 69.667969 29.941406 69.875 "/>
</g>
</svg>
