<?xml version="1.0" encoding="UTF-8"?>
<svg xmlns="http://www.w3.org/2000/svg" xmlns:xlink="http://www.w3.org/1999/xlink" width="24px" height="24px" viewBox="0 0 24 24" version="1.1">
<g id="surface1">
<path style=" stroke:none;fill-rule:evenodd;fill:rgb(0%,0%,0%);fill-opacity:1;" d="M 4.226562 0.910156 C 3.121094 1.460938 2.515625 2.710938 2.707031 4.046875 C 2.828125 4.914062 3.378906 6.234375 4.007812 7.179688 C 5.632812 9.625 8.042969 10.484375 9.582031 9.167969 C 11.027344 7.929688 10.816406 6 9.121094 4.941406 C 8.269531 4.410156 8.054688 4.070312 7.90625 3.023438 C 7.621094 0.984375 5.972656 0.0390625 4.226562 0.910156 M 4.679688 1.453125 C 3.109375 2.082031 3.015625 4.164062 4.457031 6.554688 C 5.976562 9.078125 8.570312 9.855469 9.566406 8.09375 C 10.066406 7.210938 9.8125 6.296875 8.898438 5.679688 C 8.589844 5.46875 8.453125 5.4375 8.292969 5.539062 C 8.003906 5.71875 7.378906 5.382812 7.074219 4.882812 C 6.792969 4.421875 6.761719 3.625 7.019531 3.523438 C 7.269531 3.425781 7.25 2.789062 6.976562 2.277344 C 6.539062 1.453125 5.5625 1.105469 4.679688 1.453125 M 14.882812 7.445312 C 14.351562 7.671875 13.839844 8.136719 13.441406 8.757812 C 12.964844 9.5 12.617188 9.695312 11.507812 9.832031 C 10.917969 9.90625 10.488281 10.046875 10.105469 10.28125 C 8.699219 11.152344 8.617188 13.160156 9.941406 14.296875 C 11.175781 15.351562 13.199219 15.242188 15.300781 14.011719 C 16.34375 13.398438 17.621094 12.132812 17.996094 11.339844 C 18.417969 10.4375 18.394531 9.433594 17.929688 8.683594 C 17.410156 7.84375 16.726562 7.402344 15.871094 7.359375 C 15.492188 7.339844 15.046875 7.378906 14.882812 7.445312 M 15.117188 8.136719 C 14.785156 8.285156 14.453125 8.574219 14.199219 8.941406 C 14.003906 9.226562 13.976562 9.34375 14.085938 9.511719 C 14.398438 10 13.414062 10.921875 12.578125 10.921875 C 12.273438 10.921875 12.089844 10.855469 12.042969 10.738281 C 11.949219 10.492188 11.203125 10.507812 10.683594 10.769531 C 10.019531 11.101562 9.6875 11.695312 9.75 12.441406 C 9.851562 13.71875 10.785156 14.359375 12.402344 14.253906 C 14.152344 14.144531 16.496094 12.65625 17.28125 11.164062 C 17.871094 10.039062 17.5 8.777344 16.414062 8.210938 C 16.078125 8.03125 15.433594 7.996094 15.117188 8.136719 M 2.691406 13.964844 C 2 14.1875 1.46875 14.613281 1.097656 15.238281 C 0.835938 15.6875 0.78125 15.925781 0.78125 16.621094 C 0.78125 17.878906 1.277344 18.820312 2.6875 20.230469 C 3.882812 21.425781 4.8125 21.980469 6 22.203125 C 7.894531 22.5625 9.480469 21.375 9.480469 19.601562 C 9.480469 18.425781 8.6875 17.527344 7.277344 17.105469 C 6.421875 16.847656 6.289062 16.71875 5.71875 15.585938 C 5.308594 14.765625 5.125 14.53125 4.679688 14.257812 C 4.019531 13.855469 3.339844 13.753906 2.691406 13.964844 M 2.839844 14.691406 C 1.636719 15.128906 1.148438 16.285156 1.640625 17.546875 C 1.921875 18.277344 2.765625 19.433594 3.488281 20.082031 C 3.828125 20.390625 4.507812 20.839844 5 21.082031 C 5.746094 21.449219 6.023438 21.523438 6.636719 21.523438 C 8.015625 21.519531 8.699219 20.875 8.699219 19.582031 C 8.699219 18.859375 8.675781 18.800781 8.261719 18.417969 C 7.722656 17.925781 6.957031 17.675781 6.808594 17.941406 C 6.5 18.496094 5.121094 17.660156 4.964844 16.824219 C 4.914062 16.550781 4.9375 16.382812 5.039062 16.320312 C 5.402344 16.097656 4.441406 14.644531 3.925781 14.636719 C 3.84375 14.636719 3.671875 14.613281 3.539062 14.582031 C 3.40625 14.550781 3.09375 14.601562 2.839844 14.691406 M 15.609375 16.167969 C 14.214844 16.660156 13.433594 18.332031 13.984375 19.652344 C 14.394531 20.632812 15.179688 21.109375 16.546875 21.207031 C 17.675781 21.289062 18.015625 21.453125 18.539062 22.183594 C 19.605469 23.667969 21.433594 23.792969 22.578125 22.457031 C 23.640625 21.214844 23.460938 19.636719 22.097656 18.25 C 20.332031 16.457031 17.429688 15.523438 15.609375 16.167969 M 15.609375 16.996094 C 15.109375 17.246094 14.925781 17.421875 14.75 17.808594 C 14.148438 19.128906 14.828125 20.304688 16.292969 20.480469 C 16.824219 20.542969 16.890625 20.523438 16.949219 20.292969 C 17.003906 20.085938 17.109375 20.039062 17.515625 20.039062 C 17.789062 20.039062 18.171875 20.125 18.371094 20.226562 C 18.847656 20.472656 19.226562 21.089844 19.074219 21.371094 C 18.9375 21.625 19.394531 22.226562 19.929688 22.503906 C 20.984375 23.050781 22.347656 22.210938 22.523438 20.910156 C 22.667969 19.820312 21.546875 18.382812 19.851562 17.496094 C 18.136719 16.601562 16.734375 16.4375 15.609375 16.996094 "/>
</g>
</svg>
