<?xml version="1.0" encoding="UTF-8"?>
<svg xmlns="http://www.w3.org/2000/svg" xmlns:xlink="http://www.w3.org/1999/xlink" width="24px" height="24px" viewBox="0 0 24 24" version="1.1">
<g id="surface1">
<path style=" stroke:none;fill-rule:evenodd;fill:rgb(0%,0%,0%);fill-opacity:1;" d="M 16.800781 4.382812 C 15.894531 4.605469 15.511719 4.777344 13.925781 5.691406 C 11.882812 6.863281 11.441406 7.015625 10.078125 7.003906 C 9.378906 7 8.0625 6.847656 6.660156 6.605469 C 3.175781 6.011719 2.113281 6.144531 0.960938 7.335938 C 0.699219 7.601562 0.375 8.121094 0.230469 8.5 C 0.0078125 9.09375 -0.0195312 9.339844 0.0429688 10.441406 C 0.308594 15.378906 3.78125 18.777344 9.421875 19.621094 C 12.777344 20.121094 16.089844 19.550781 18.652344 18.03125 C 19.984375 17.242188 21.835938 15.382812 22.546875 14.121094 C 23.15625 13.042969 23.71875 11.460938 23.847656 10.464844 L 23.9375 9.78125 L 24.011719 10.378906 C 24.078125 10.957031 24.082031 10.949219 24.101562 10.140625 C 24.175781 6.585938 23.121094 4.957031 20.367188 4.390625 C 19.269531 4.164062 17.707031 4.160156 16.800781 4.382812 M 17.21875 5.113281 C 17.089844 5.148438 16.738281 5.253906 16.441406 5.347656 L 15.898438 5.519531 L 15.898438 7.050781 C 15.898438 8.457031 15.875 8.632812 15.578125 9.261719 C 15.171875 10.136719 14.335938 10.972656 13.464844 11.378906 C 12.5 11.828125 11.027344 11.890625 10.046875 11.519531 C 8.695312 11.011719 7.429688 9.472656 7.242188 8.105469 C 7.15625 7.488281 7.242188 7.53125 5.578125 7.253906 C 3.257812 6.867188 2.234375 7.054688 1.4375 8.019531 C 0.984375 8.570312 0.839844 9.074219 0.839844 10.113281 C 0.839844 11.902344 1.546875 13.976562 2.625 15.332031 C 4.394531 17.558594 7.96875 18.957031 11.894531 18.960938 C 17.25 18.960938 21.492188 15.996094 22.824219 11.3125 C 23.03125 10.589844 23.09375 10.054688 23.09375 8.941406 C 23.097656 7.660156 23.066406 7.433594 22.8125 6.917969 C 22.480469 6.242188 21.71875 5.636719 20.824219 5.335938 C 20.226562 5.136719 17.730469 4.984375 17.21875 5.113281 M 13.863281 6.664062 C 13.269531 7.019531 12.339844 7.453125 11.796875 7.632812 C 10.902344 7.921875 10.703125 7.945312 9.753906 7.867188 C 9.175781 7.820312 8.546875 7.75 8.355469 7.714844 C 8.007812 7.644531 8.007812 7.644531 8.09375 8.113281 C 8.601562 10.847656 12.117188 11.898438 14.109375 9.90625 C 14.953125 9.0625 15.222656 8.183594 15.144531 6.511719 C 15.128906 6.230469 15.078125 6.003906 15.03125 6.011719 C 14.980469 6.015625 14.457031 6.3125 13.863281 6.664062 M 20.234375 6.464844 C 19.917969 6.8125 20.015625 7.445312 20.421875 7.671875 C 21.128906 8.066406 21.867188 7.328125 21.472656 6.621094 C 21.238281 6.199219 20.550781 6.113281 20.234375 6.464844 M 0.0429688 10.019531 C 0.0429688 10.613281 0.0625 10.871094 0.0859375 10.59375 C 0.113281 10.316406 0.113281 9.828125 0.0898438 9.511719 C 0.0625 9.199219 0.0429688 9.425781 0.0429688 10.019531 "/>
</g>
</svg>
