<?xml version="1.0" encoding="UTF-8"?>
<svg xmlns="http://www.w3.org/2000/svg" xmlns:xlink="http://www.w3.org/1999/xlink" width="100px" height="100px" viewBox="0 0 100 100" version="1.1">
<g id="surface1">
<path style=" stroke:none;fill-rule:evenodd;fill:rgb(0%,0%,0%);fill-opacity:1;" d="M 76.148438 11.007812 C 75.539062 11.253906 73.8125 13.117188 72.304688 15.152344 C 69.667969 18.71875 66.898438 21.5 65.984375 21.5 C 65.515625 21.5 64.507812 18.339844 64.503906 16.859375 C 64.496094 15.261719 63.109375 12.59375 61.96875 11.984375 C 60.332031 11.105469 57.429688 12.132812 55 14.441406 C 53.246094 16.109375 53 16.621094 53 18.585938 C 53 19.816406 53.5625 22.476562 54.25 24.5 C 55.464844 28.066406 55.867188 32.160156 55.117188 33.316406 C 54.914062 33.628906 53.261719 34.558594 51.441406 35.378906 C 49.625 36.203125 47.964844 37.152344 47.753906 37.492188 C 47.304688 38.222656 48.273438 37.972656 52.789062 36.195312 C 56.082031 34.898438 58.933594 34.671875 60.65625 35.566406 C 61.257812 35.878906 63.246094 37.566406 65.078125 39.316406 C 67.839844 41.960938 68.691406 42.5 70.113281 42.5 C 72.164062 42.5 74 40.800781 74 38.902344 C 74 38.199219 73.648438 36.78125 73.21875 35.757812 C 72.792969 34.730469 72.558594 33.773438 72.699219 33.632812 C 73.121094 33.210938 77.085938 32.546875 79.308594 32.523438 C 83.539062 32.476562 85.550781 28.808594 82.625 26.476562 C 81.363281 25.476562 80.878906 25.410156 76.816406 25.691406 C 72.847656 25.964844 72.449219 25.914062 73.023438 25.222656 C 73.375 24.796875 75.523438 23.5625 77.792969 22.480469 C 82.253906 20.351562 84 18.660156 84 16.472656 C 84 14.730469 81.835938 12.089844 79.664062 11.183594 C 77.808594 10.40625 77.660156 10.398438 76.148438 11.007812 M 76.386719 12.53125 C 75.914062 12.808594 74.5 14.472656 73.242188 16.234375 C 70.273438 20.398438 67.855469 22.5 66.042969 22.5 C 64.457031 22.5 64.136719 21.910156 62.941406 16.796875 C 62.5625 15.171875 61.890625 13.621094 61.453125 13.347656 C 60.253906 12.601562 58.277344 13.304688 56.285156 15.183594 C 54.0625 17.28125 53.953125 19.214844 55.75 24.5 C 56.4375 26.523438 57 29.175781 57 30.398438 C 57 32.359375 57.09375 32.546875 57.78125 31.972656 C 59.535156 30.519531 60.128906 28.445312 59.847656 24.785156 C 59.695312 22.839844 59.417969 20.742188 59.226562 20.125 C 58.972656 19.296875 59.085938 19 59.65625 19 C 60.640625 19 61.660156 23.621094 61.421875 27.011719 C 61.222656 29.804688 60.535156 30.136719 67.246094 24.222656 C 72.175781 19.882812 74.769531 17.882812 76.851562 16.820312 C 78.773438 15.835938 79.007812 15.8125 78.96875 16.625 C 78.953125 16.96875 77.4375 18.214844 75.59375 19.394531 C 71.359375 22.109375 63.265625 29.320312 65.011719 28.824219 C 65.691406 28.632812 67.773438 28.332031 69.632812 28.164062 C 72.722656 27.878906 72.925781 27.792969 72.007812 27.148438 C 71.453125 26.761719 71 26.261719 71 26.039062 C 71 25.082031 74 22.738281 77 21.351562 C 81.050781 19.476562 82.5 18.203125 82.5 16.507812 C 82.5 15 80.980469 13.15625 79.167969 12.46875 C 77.660156 11.894531 77.472656 11.898438 76.386719 12.53125 M 76.75 26.988281 C 74.875 27.292969 74.839844 27.324219 76.210938 27.53125 C 77.015625 27.652344 77.753906 27.996094 77.851562 28.296875 C 77.96875 28.65625 76.417969 28.953125 73.390625 29.152344 C 70.839844 29.320312 67.570312 29.710938 66.128906 30.019531 L 63.507812 30.582031 L 65.785156 32.164062 C 68.359375 33.957031 70.609375 37 69.359375 37 C 68.953125 37 68.035156 36.234375 67.324219 35.300781 C 65.820312 33.332031 61.960938 31.285156 60.578125 31.726562 C 60.058594 31.890625 59.230469 32.46875 58.738281 33.011719 C 57.863281 33.976562 57.882812 34 59.652344 34 C 61.210938 34 62.007812 34.515625 65.46875 37.75 C 67.671875 39.8125 69.65625 41.5 69.878906 41.5 C 70.097656 41.5 70.777344 41.148438 71.386719 40.722656 C 72.683594 39.8125 72.796875 38.332031 71.753906 35.839844 C 71.34375 34.859375 71.132812 33.738281 71.28125 33.34375 C 71.699219 32.257812 73.796875 31.5 76.398438 31.496094 C 77.691406 31.496094 79.59375 31.261719 80.625 30.972656 C 82.105469 30.5625 82.5 30.207031 82.5 29.289062 C 82.5 27.257812 80.371094 26.40625 76.75 26.988281 M 42.285156 41.027344 C 39.039062 43.085938 33.265625 49.074219 30.078125 53.683594 C 21.015625 66.792969 20.125 78.269531 27.601562 85.585938 C 32.976562 90.847656 43.753906 92.265625 53.320312 88.976562 C 61.222656 86.257812 66.011719 80.496094 65.972656 73.75 C 65.945312 68.671875 64.316406 65.4375 57.160156 56.234375 C 52.210938 49.871094 50.746094 47.5 49.1875 43.304688 L 48.050781 40.25 L 48.027344 42.425781 C 47.992188 45.414062 50.410156 49.855469 55.882812 56.855469 C 61.3125 63.800781 63.46875 67.324219 64.339844 70.660156 C 66.109375 77.453125 61.359375 84.691406 53.261719 87.539062 C 46.097656 90.054688 37.992188 89.945312 32.296875 87.25 C 25.027344 83.808594 22.257812 75.707031 25.167969 66.375 C 28.070312 57.070312 38.386719 43.878906 44.882812 41.160156 C 45.796875 40.78125 46.40625 40.25 46.242188 39.984375 C 45.742188 39.179688 44.8125 39.425781 42.285156 41.027344 M 44.707031 41.710938 C 40.871094 43.382812 35.085938 50.601562 31.339844 58.398438 L 29.25 62.75 L 29.277344 69 C 29.308594 76.027344 29.835938 78.007812 32.828125 82.378906 C 34.523438 84.851562 38.398438 88.269531 38.917969 87.75 C 39.046875 87.617188 38.042969 86.328125 36.683594 84.878906 C 31.703125 79.578125 30.289062 75.628906 30.578125 67.808594 C 30.75 63.210938 30.9375 62.394531 32.621094 58.851562 C 35.019531 53.804688 39.074219 47.957031 41.910156 45.460938 C 43.144531 44.375 44.234375 43.570312 44.335938 43.667969 C 44.4375 43.769531 44.148438 45.289062 43.695312 47.050781 C 42.628906 51.203125 42.976562 57.558594 44.734375 66 C 46.867188 76.238281 46.867188 81.601562 44.730469 86.707031 C 43.980469 88.503906 45.464844 87.023438 46.605469 84.839844 C 48.269531 81.65625 48.089844 75.34375 46.042969 65.25 C 44.675781 58.503906 44.453125 56.464844 44.632812 52.25 C 44.746094 49.5 45.125 46.574219 45.472656 45.75 L 46.105469 44.25 L 46.8125 46.953125 C 47.199219 48.4375 49.398438 53.425781 51.695312 58.035156 C 58.011719 70.707031 58.363281 74.898438 53.703125 81.847656 C 52.484375 83.664062 51.578125 85.246094 51.691406 85.359375 C 52.082031 85.75 55.492188 81.976562 56.449219 80.097656 C 57.824219 77.40625 58.480469 73.203125 57.988281 70.25 C 57.398438 66.695312 56.589844 64.664062 52.617188 56.738281 C 48.9375 49.386719 47.5 45.433594 47.5 42.660156 C 47.5 40.824219 47.074219 40.679688 44.707031 41.710938 "/>
</g>
</svg>
