<?xml version="1.0" encoding="UTF-8"?>
<svg xmlns="http://www.w3.org/2000/svg" xmlns:xlink="http://www.w3.org/1999/xlink" width="24px" height="24px" viewBox="0 0 24 24" version="1.1">
<g id="surface1">
<path style=" stroke:none;fill-rule:evenodd;fill:rgb(0%,0%,0%);fill-opacity:1;" d="M 18.273438 2.640625 C 18.128906 2.699219 17.714844 3.148438 17.351562 3.636719 C 16.71875 4.492188 16.054688 5.160156 15.835938 5.160156 C 15.722656 5.160156 15.480469 4.402344 15.480469 4.046875 C 15.480469 3.664062 15.148438 3.023438 14.871094 2.875 C 14.480469 2.664062 13.78125 2.910156 13.199219 3.464844 C 12.78125 3.867188 12.71875 3.988281 12.71875 4.460938 C 12.71875 4.757812 12.855469 5.394531 13.019531 5.878906 C 13.3125 6.734375 13.40625 7.71875 13.226562 7.996094 C 13.179688 8.070312 12.78125 8.292969 12.347656 8.492188 C 11.910156 8.6875 11.511719 8.917969 11.460938 8.996094 C 11.351562 9.171875 11.585938 9.113281 12.667969 8.6875 C 13.460938 8.375 14.144531 8.320312 14.558594 8.535156 C 14.703125 8.609375 15.179688 9.015625 15.617188 9.4375 C 16.28125 10.070312 16.484375 10.199219 16.828125 10.199219 C 17.320312 10.199219 17.761719 9.792969 17.761719 9.335938 C 17.761719 9.167969 17.675781 8.828125 17.574219 8.582031 C 17.46875 8.335938 17.414062 8.105469 17.449219 8.070312 C 17.550781 7.972656 18.5 7.8125 19.035156 7.804688 C 20.050781 7.792969 20.53125 6.914062 19.828125 6.355469 C 19.527344 6.113281 19.410156 6.097656 18.4375 6.164062 C 17.484375 6.230469 17.386719 6.21875 17.523438 6.054688 C 17.609375 5.953125 18.125 5.65625 18.671875 5.394531 C 19.742188 4.882812 20.160156 4.480469 20.160156 3.953125 C 20.160156 3.535156 19.640625 2.902344 19.121094 2.683594 C 18.675781 2.496094 18.636719 2.496094 18.273438 2.640625 M 18.332031 3.007812 C 18.21875 3.074219 17.878906 3.472656 17.578125 3.894531 C 16.867188 4.894531 16.285156 5.398438 15.851562 5.398438 C 15.46875 5.398438 15.394531 5.257812 15.105469 4.03125 C 15.015625 3.640625 14.855469 3.269531 14.75 3.203125 C 14.460938 3.023438 13.988281 3.191406 13.507812 3.644531 C 12.976562 4.148438 12.949219 4.613281 13.378906 5.878906 C 13.546875 6.363281 13.679688 7.003906 13.679688 7.296875 C 13.679688 7.765625 13.703125 7.8125 13.867188 7.671875 C 14.289062 7.324219 14.429688 6.828125 14.363281 5.949219 C 14.328125 5.480469 14.261719 4.976562 14.214844 4.828125 C 14.152344 4.628906 14.179688 4.558594 14.316406 4.558594 C 14.554688 4.558594 14.796875 5.667969 14.742188 6.484375 C 14.695312 7.152344 14.527344 7.234375 16.140625 5.8125 C 17.324219 4.773438 17.945312 4.292969 18.445312 4.035156 C 18.90625 3.800781 18.960938 3.796875 18.953125 3.988281 C 18.949219 4.074219 18.585938 4.371094 18.144531 4.65625 C 17.125 5.304688 15.183594 7.035156 15.601562 6.917969 C 15.765625 6.871094 16.265625 6.800781 16.710938 6.757812 C 17.453125 6.691406 17.503906 6.671875 17.28125 6.515625 C 17.148438 6.421875 17.039062 6.304688 17.039062 6.25 C 17.039062 6.019531 17.757812 5.457031 18.480469 5.125 C 19.453125 4.675781 19.800781 4.367188 19.800781 3.960938 C 19.800781 3.601562 19.433594 3.15625 19 2.992188 C 18.636719 2.855469 18.59375 2.855469 18.332031 3.007812 M 18.421875 6.476562 C 17.96875 6.550781 17.960938 6.558594 18.289062 6.609375 C 18.484375 6.636719 18.660156 6.71875 18.683594 6.792969 C 18.710938 6.878906 18.339844 6.949219 17.613281 6.996094 C 17 7.035156 16.21875 7.128906 15.871094 7.203125 L 15.242188 7.339844 L 15.789062 7.71875 C 16.40625 8.148438 16.945312 8.878906 16.644531 8.878906 C 16.546875 8.878906 16.328125 8.695312 16.15625 8.472656 C 15.796875 8 14.871094 7.507812 14.539062 7.613281 C 14.414062 7.652344 14.214844 7.792969 14.097656 7.921875 C 13.886719 8.15625 13.890625 8.160156 14.316406 8.160156 C 14.691406 8.160156 14.882812 8.285156 15.710938 9.058594 C 16.242188 9.554688 16.71875 9.960938 16.769531 9.960938 C 16.824219 9.960938 16.988281 9.875 17.132812 9.773438 C 17.445312 9.554688 17.472656 9.199219 17.222656 8.601562 C 17.121094 8.367188 17.070312 8.097656 17.109375 8.003906 C 17.207031 7.742188 17.710938 7.558594 18.335938 7.558594 C 18.644531 7.558594 19.101562 7.503906 19.351562 7.433594 C 19.707031 7.335938 19.800781 7.25 19.800781 7.027344 C 19.800781 6.542969 19.289062 6.335938 18.421875 6.476562 M 10.148438 9.847656 C 9.371094 10.339844 7.984375 11.777344 7.21875 12.882812 C 5.042969 16.03125 4.828125 18.785156 6.625 20.539062 C 7.914062 21.804688 10.5 22.144531 12.796875 21.355469 C 14.695312 20.703125 15.84375 19.320312 15.832031 17.699219 C 15.828125 16.480469 15.4375 15.707031 13.71875 13.496094 C 12.53125 11.96875 12.179688 11.398438 11.804688 10.394531 L 11.53125 9.660156 L 11.527344 10.183594 C 11.519531 10.898438 12.097656 11.964844 13.410156 13.644531 C 14.714844 15.3125 15.234375 16.15625 15.441406 16.957031 C 15.867188 18.589844 14.726562 20.328125 12.78125 21.007812 C 11.0625 21.613281 9.117188 21.585938 7.75 20.941406 C 6.007812 20.113281 5.34375 18.167969 6.039062 15.929688 C 6.738281 13.695312 9.210938 10.53125 10.773438 9.878906 C 10.992188 9.789062 11.136719 9.660156 11.097656 9.597656 C 10.976562 9.402344 10.753906 9.460938 10.148438 9.847656 M 10.730469 10.011719 C 9.808594 10.410156 8.421875 12.144531 7.523438 14.015625 L 7.019531 15.058594 L 7.027344 16.558594 C 7.035156 18.246094 7.160156 18.722656 7.878906 19.769531 C 8.285156 20.363281 9.214844 21.183594 9.339844 21.058594 C 9.371094 21.027344 9.128906 20.71875 8.804688 20.371094 C 7.609375 19.097656 7.269531 18.152344 7.339844 16.273438 C 7.378906 15.171875 7.425781 14.976562 7.828125 14.125 C 8.40625 12.914062 9.378906 11.511719 10.058594 10.910156 C 10.355469 10.648438 10.617188 10.457031 10.640625 10.480469 C 10.664062 10.503906 10.59375 10.871094 10.488281 11.292969 C 10.230469 12.289062 10.316406 13.8125 10.738281 15.839844 C 11.25 18.296875 11.246094 19.585938 10.734375 20.808594 C 10.554688 21.242188 10.910156 20.886719 11.1875 20.363281 C 11.585938 19.597656 11.542969 18.082031 11.050781 15.660156 C 10.722656 14.042969 10.667969 13.550781 10.710938 12.539062 C 10.738281 11.878906 10.832031 11.179688 10.914062 10.980469 L 11.066406 10.621094 L 11.234375 11.269531 C 11.328125 11.625 11.855469 12.820312 12.40625 13.929688 C 13.921875 16.96875 14.007812 17.976562 12.890625 19.644531 C 12.597656 20.078125 12.378906 20.460938 12.40625 20.488281 C 12.5 20.578125 13.316406 19.675781 13.546875 19.222656 C 13.878906 18.578125 14.035156 17.570312 13.917969 16.859375 C 13.777344 16.007812 13.582031 15.519531 12.628906 13.617188 C 11.746094 11.851562 11.398438 10.90625 11.398438 10.238281 C 11.398438 9.796875 11.296875 9.761719 10.730469 10.011719 "/>
</g>
</svg>
