<?xml version="1.0" encoding="UTF-8"?>
<svg xmlns="http://www.w3.org/2000/svg" xmlns:xlink="http://www.w3.org/1999/xlink" width="100px" height="100px" viewBox="0 0 100 100" version="1.1">
<g id="surface1">
<path style=" stroke:none;fill-rule:evenodd;fill:rgb(0%,0%,0%);fill-opacity:1;" d="M 39.230469 10.910156 C 37.414062 11.761719 34.5 14.539062 34.5 15.421875 C 34.5 15.609375 33.320312 16.183594 31.875 16.695312 C 27.074219 18.402344 24.585938 22.316406 25.214844 27.183594 C 25.644531 30.507812 25.644531 30.847656 25.222656 33.371094 C 24.390625 38.351562 27.570312 43.171875 32.566406 44.515625 C 33.628906 44.804688 34.5 45.238281 34.5 45.480469 C 34.5 46.386719 37.191406 49.078125 39.042969 50.023438 C 41.316406 51.179688 44.839844 51.289062 47.265625 50.277344 L 49 49.550781 L 49 63 L 33.5 63 L 33.5 66.964844 C 33.5 70.679688 33.570312 70.941406 34.613281 71.089844 C 35.671875 71.242188 35.769531 71.679688 36.738281 80.5 L 37.75 89.75 L 62.4375 90.015625 L 62.714844 87.882812 C 63.109375 84.859375 64.5 72.144531 64.5 71.558594 C 64.5 71.289062 65.007812 70.996094 65.625 70.910156 C 66.675781 70.761719 66.75 70.507812 66.75 67 L 66.75 63.25 L 58.875 63.113281 L 51 62.972656 L 51 56.238281 C 51 52.53125 51.167969 49.507812 51.375 49.515625 C 51.582031 49.527344 52.3125 49.855469 53 50.25 C 54.863281 51.316406 58.824219 51.175781 61.351562 49.949219 C 62.644531 49.324219 64.113281 48.039062 64.988281 46.765625 C 66.03125 45.253906 66.921875 44.539062 68.0625 44.3125 C 70.253906 43.875 72.816406 41.820312 73.949219 39.597656 C 74.742188 38.039062 74.890625 36.609375 74.890625 30.5 C 74.890625 24.34375 74.746094 22.964844 73.929688 21.367188 C 72.878906 19.304688 69.402344 16.5 67.894531 16.5 C 67.371094 16.5 66 15.457031 64.847656 14.179688 C 61.054688 9.984375 56.722656 8.960938 52.269531 11.214844 L 49.867188 12.429688 L 48.433594 11.371094 C 46.414062 9.878906 41.917969 9.65625 39.230469 10.910156 M 40.226562 12.675781 C 38.546875 13.4375 36 16.191406 36 17.246094 C 36 17.632812 35.167969 18.050781 34.011719 18.246094 C 31.042969 18.75 28.917969 20.425781 27.789062 23.152344 C 26.921875 25.246094 26.875 25.808594 27.410156 27.8125 C 27.886719 29.585938 27.890625 30.726562 27.425781 32.964844 C 26.882812 35.605469 26.925781 36.027344 27.953125 38.152344 C 29.109375 40.539062 31.558594 42.5 33.394531 42.5 C 34.933594 42.5 36 43.027344 36 43.785156 C 36 44.984375 38.992188 47.921875 40.832031 48.527344 C 43.3125 49.34375 46.210938 48.839844 48.339844 47.214844 C 49.53125 46.304688 50.34375 45.996094 50.75 46.296875 C 53.34375 48.226562 54.34375 48.675781 56.402344 48.847656 C 59.410156 49.097656 62.179688 47.546875 63.730469 44.75 C 64.632812 43.121094 65.183594 42.695312 66.703125 42.449219 C 70.746094 41.792969 73.230469 38.429688 72.761719 34.25 C 72.390625 30.957031 72.394531 29.671875 72.78125 27.15625 C 73.425781 22.925781 71.0625 19.535156 66.707031 18.4375 C 64.921875 17.988281 64.289062 17.507812 63.40625 15.941406 C 61.984375 13.414062 58.753906 11.765625 55.945312 12.144531 C 54.207031 12.378906 53.214844 12.867188 50.769531 14.691406 C 50.390625 14.972656 49.425781 14.636719 48.097656 13.757812 C 45.652344 12.136719 42.398438 11.691406 40.226562 12.675781 M 55.726562 16.726562 C 54.183594 18.269531 54.164062 20.054688 55.671875 21.804688 C 56.492188 22.761719 57.320312 23.167969 58.449219 23.167969 C 61.964844 23.167969 63.484375 18.976562 60.804688 16.671875 C 59.054688 15.164062 57.269531 15.183594 55.726562 16.726562 M 41.5 16.855469 C 38.679688 17.890625 38.007812 21.648438 40.316406 23.464844 C 42.066406 24.839844 43.773438 24.773438 45.273438 23.273438 C 47.269531 21.273438 46.765625 18.46875 44.15625 17.082031 C 42.984375 16.457031 42.660156 16.429688 41.5 16.855469 M 57.261719 18.308594 C 56.820312 18.753906 56.535156 19.355469 56.632812 19.648438 C 56.925781 20.527344 58.3125 21.179688 59.183594 20.84375 C 60.226562 20.445312 60.25 18.203125 59.210938 17.804688 C 58.148438 17.398438 58.183594 17.386719 57.261719 18.308594 M 41.15625 19.816406 C 40.828125 20.667969 41.464844 22.070312 42.304688 22.351562 C 43.332031 22.695312 44.632812 21.199219 44.277344 20.085938 C 43.859375 18.773438 41.628906 18.582031 41.15625 19.816406 M 31.726562 25.726562 C 31.050781 26.402344 30.5 27.539062 30.5 28.25 C 30.5 29.890625 32.574219 32 34.1875 32 C 36.113281 32 36.976562 31.496094 37.808594 29.886719 C 39.804688 26.027344 34.832031 22.625 31.726562 25.726562 M 47.886719 25.875 C 46.171875 27.828125 46.40625 30.285156 48.457031 31.859375 C 49.769531 32.867188 51.941406 32.605469 53.273438 31.273438 C 54.773438 29.773438 54.839844 28.066406 53.464844 26.316406 C 52.203125 24.714844 49.121094 24.46875 47.886719 25.875 M 32.984375 27.269531 C 32.078125 28.363281 32.953125 29.75 34.554688 29.75 C 35.550781 29.75 35.75 29.5 35.75 28.25 C 35.75 27.109375 35.5 26.714844 34.707031 26.601562 C 34.132812 26.519531 33.359375 26.820312 32.984375 27.269531 M 49.332031 27.332031 C 48.246094 28.421875 49.355469 30.5 51.023438 30.5 C 51.917969 30.5 52.605469 28.480469 51.972656 27.71875 C 51.351562 26.96875 49.90625 26.757812 49.332031 27.332031 M 61.085938 30.15625 C 59.644531 31.695312 59.675781 34.019531 61.15625 35.414062 C 63.585938 37.695312 67.5 36.09375 67.5 32.816406 C 67.5 29.449219 63.363281 27.734375 61.085938 30.15625 M 62.601562 31.601562 C 61.289062 32.910156 62.648438 34.835938 64.476562 34.257812 C 66.097656 33.742188 65.484375 31 63.75 31 C 63.449219 31 62.929688 31.269531 62.601562 31.601562 M 40.5 34.359375 C 37.527344 35.425781 36.628906 38.675781 38.726562 40.773438 C 41.160156 43.207031 45 41.535156 45 38.039062 C 45 35.484375 42.671875 33.578125 40.5 34.359375 M 39.742188 37.527344 C 39.265625 39.03125 40.671875 40.449219 41.882812 39.6875 C 42.359375 39.386719 42.75 38.601562 42.75 37.945312 C 42.75 36.269531 40.25 35.921875 39.742188 37.527344 M 53.816406 38.035156 C 51.496094 39.863281 52.375 43.984375 55.242188 44.703125 C 56.699219 45.070312 59.222656 43.949219 59.691406 42.726562 C 60.3125 41.101562 59.972656 39.425781 58.773438 38.226562 C 57.273438 36.726562 55.566406 36.660156 53.816406 38.035156 M 55.019531 39.726562 C 53.980469 40.980469 54.597656 42.25 56.25 42.25 C 58.03125 42.25 58.609375 40.683594 57.210938 39.65625 C 56.066406 38.824219 55.761719 38.832031 55.019531 39.726562 M 35.5 67 L 35.5 69 L 65 69 L 65 65 L 35.5 65 L 35.5 67 M 38.011719 72.125 C 38.015625 72.742188 38.351562 76.175781 38.753906 79.75 C 39.160156 83.324219 39.492188 86.644531 39.496094 87.125 C 39.5 87.929688 40.332031 88 49.960938 88 L 60.421875 88 L 60.683594 86.625 C 60.828125 85.867188 61.191406 82.773438 61.488281 79.75 C 61.789062 76.726562 62.148438 73.519531 62.289062 72.625 L 62.546875 71 L 38 71 L 38.011719 72.125 "/>
</g>
</svg>
