<?xml version="1.0" encoding="UTF-8"?>
<svg xmlns="http://www.w3.org/2000/svg" xmlns:xlink="http://www.w3.org/1999/xlink" width="24px" height="24px" viewBox="0 0 24 24" version="1.1">
<g id="surface1">
<path style=" stroke:none;fill-rule:evenodd;fill:rgb(0%,0%,0%);fill-opacity:1;" d="M 9.414062 2.617188 C 8.980469 2.824219 8.28125 3.488281 8.28125 3.699219 C 8.28125 3.746094 7.996094 3.882812 7.648438 4.007812 C 6.496094 4.417969 5.902344 5.355469 6.050781 6.523438 C 6.15625 7.320312 6.15625 7.402344 6.054688 8.007812 C 5.855469 9.203125 6.617188 10.363281 7.816406 10.683594 C 8.070312 10.753906 8.28125 10.855469 8.28125 10.914062 C 8.28125 11.132812 8.925781 11.777344 9.371094 12.003906 C 9.914062 12.285156 10.761719 12.308594 11.34375 12.066406 L 11.761719 11.890625 L 11.761719 15.121094 L 8.039062 15.121094 L 8.039062 16.070312 C 8.039062 16.964844 8.058594 17.027344 8.308594 17.0625 C 8.5625 17.097656 8.585938 17.203125 8.816406 19.320312 L 9.058594 21.539062 L 12.023438 21.570312 L 14.984375 21.605469 L 15.050781 21.09375 C 15.144531 20.367188 15.480469 17.316406 15.480469 17.175781 C 15.480469 17.109375 15.601562 17.039062 15.75 17.019531 C 16.003906 16.984375 16.019531 16.921875 16.019531 16.078125 L 16.019531 15.179688 L 14.128906 15.148438 L 12.238281 15.113281 L 12.238281 13.496094 C 12.238281 12.609375 12.28125 11.882812 12.328125 11.882812 C 12.378906 11.886719 12.554688 11.964844 12.71875 12.058594 C 13.167969 12.316406 14.117188 12.28125 14.722656 11.988281 C 15.035156 11.835938 15.386719 11.53125 15.597656 11.222656 C 15.847656 10.859375 16.0625 10.691406 16.335938 10.636719 C 16.859375 10.53125 17.476562 10.035156 17.746094 9.503906 C 17.9375 9.128906 17.972656 8.785156 17.972656 7.320312 C 17.972656 5.84375 17.9375 5.511719 17.742188 5.128906 C 17.492188 4.632812 16.65625 3.960938 16.296875 3.960938 C 16.167969 3.960938 15.839844 3.710938 15.5625 3.402344 C 14.652344 2.394531 13.613281 2.152344 12.542969 2.691406 L 11.96875 2.984375 L 11.625 2.730469 C 11.140625 2.371094 10.058594 2.316406 9.414062 2.617188 M 9.652344 3.042969 C 9.25 3.226562 8.640625 3.886719 8.640625 4.140625 C 8.640625 4.230469 8.441406 4.332031 8.164062 4.378906 C 7.449219 4.5 6.941406 4.902344 6.667969 5.558594 C 6.460938 6.058594 6.449219 6.195312 6.578125 6.675781 C 6.691406 7.101562 6.695312 7.375 6.582031 7.910156 C 6.453125 8.546875 6.460938 8.648438 6.707031 9.15625 C 6.984375 9.730469 7.574219 10.199219 8.015625 10.199219 C 8.382812 10.199219 8.640625 10.324219 8.640625 10.507812 C 8.640625 10.796875 9.359375 11.5 9.800781 11.648438 C 10.394531 11.84375 11.089844 11.722656 11.601562 11.332031 C 11.886719 11.113281 12.082031 11.039062 12.179688 11.109375 C 12.804688 11.574219 13.042969 11.683594 13.535156 11.722656 C 14.257812 11.78125 14.921875 11.410156 15.296875 10.742188 C 15.511719 10.347656 15.644531 10.246094 16.007812 10.1875 C 16.980469 10.03125 17.574219 9.222656 17.460938 8.21875 C 17.375 7.429688 17.375 7.121094 17.46875 6.519531 C 17.621094 5.503906 17.054688 4.6875 16.007812 4.425781 C 15.582031 4.316406 15.429688 4.203125 15.21875 3.824219 C 14.875 3.21875 14.101562 2.824219 13.425781 2.914062 C 13.007812 2.96875 12.769531 3.085938 12.183594 3.527344 C 12.09375 3.59375 11.863281 3.511719 11.542969 3.300781 C 10.957031 2.914062 10.175781 2.804688 9.652344 3.042969 M 13.375 4.015625 C 13.003906 4.386719 13 4.8125 13.359375 5.234375 C 13.558594 5.460938 13.757812 5.558594 14.027344 5.558594 C 14.871094 5.558594 15.234375 4.554688 14.59375 4 C 14.171875 3.640625 13.746094 3.644531 13.375 4.015625 M 9.960938 4.046875 C 9.285156 4.292969 9.121094 5.195312 9.675781 5.632812 C 10.09375 5.960938 10.503906 5.945312 10.867188 5.585938 C 11.34375 5.105469 11.222656 4.433594 10.597656 4.097656 C 10.316406 3.949219 10.238281 3.941406 9.960938 4.046875 M 13.742188 4.394531 C 13.636719 4.5 13.570312 4.644531 13.59375 4.714844 C 13.664062 4.925781 13.996094 5.082031 14.203125 5.003906 C 14.453125 4.90625 14.460938 4.367188 14.210938 4.273438 C 13.957031 4.175781 13.964844 4.171875 13.742188 4.394531 M 9.878906 4.757812 C 9.800781 4.960938 9.953125 5.296875 10.152344 5.363281 C 10.398438 5.445312 10.710938 5.089844 10.625 4.820312 C 10.527344 4.507812 9.992188 4.460938 9.878906 4.757812 M 7.613281 6.175781 C 7.453125 6.335938 7.320312 6.609375 7.320312 6.78125 C 7.320312 7.171875 7.816406 7.679688 8.203125 7.679688 C 8.667969 7.679688 8.875 7.558594 9.074219 7.171875 C 9.554688 6.246094 8.359375 5.429688 7.613281 6.175781 M 11.492188 6.210938 C 11.082031 6.679688 11.136719 7.269531 11.628906 7.644531 C 11.945312 7.886719 12.464844 7.824219 12.785156 7.503906 C 13.144531 7.144531 13.160156 6.734375 12.832031 6.316406 C 12.527344 5.929688 11.789062 5.871094 11.492188 6.210938 M 7.917969 6.542969 C 7.699219 6.808594 7.910156 7.140625 8.292969 7.140625 C 8.53125 7.140625 8.578125 7.078125 8.578125 6.78125 C 8.578125 6.507812 8.519531 6.410156 8.328125 6.382812 C 8.191406 6.363281 8.003906 6.4375 7.917969 6.542969 M 11.839844 6.558594 C 11.578125 6.820312 11.84375 7.320312 12.246094 7.320312 C 12.460938 7.320312 12.625 6.835938 12.472656 6.652344 C 12.324219 6.472656 11.976562 6.421875 11.839844 6.558594 M 14.660156 7.238281 C 14.3125 7.605469 14.320312 8.164062 14.675781 8.5 C 15.261719 9.046875 16.199219 8.664062 16.199219 7.875 C 16.199219 7.066406 15.207031 6.65625 14.660156 7.238281 M 15.023438 7.585938 C 14.710938 7.898438 15.035156 8.359375 15.472656 8.222656 C 15.863281 8.097656 15.714844 7.441406 15.300781 7.441406 C 15.226562 7.441406 15.101562 7.503906 15.023438 7.585938 M 9.71875 8.246094 C 9.007812 8.503906 8.792969 9.28125 9.292969 9.785156 C 9.878906 10.371094 10.800781 9.96875 10.800781 9.128906 C 10.800781 8.515625 10.242188 8.058594 9.71875 8.246094 M 9.539062 9.007812 C 9.421875 9.367188 9.761719 9.707031 10.050781 9.523438 C 10.167969 9.453125 10.261719 9.265625 10.261719 9.105469 C 10.261719 8.703125 9.660156 8.621094 9.539062 9.007812 M 12.917969 9.128906 C 12.359375 9.566406 12.570312 10.554688 13.257812 10.730469 C 13.609375 10.816406 14.214844 10.546875 14.324219 10.253906 C 14.476562 9.863281 14.394531 9.460938 14.105469 9.175781 C 13.746094 8.816406 13.335938 8.796875 12.917969 9.128906 M 13.203125 9.535156 C 12.953125 9.835938 13.101562 10.140625 13.5 10.140625 C 13.925781 10.140625 14.066406 9.765625 13.730469 9.519531 C 13.457031 9.316406 13.382812 9.320312 13.203125 9.535156 M 8.519531 16.078125 L 8.519531 16.558594 L 15.601562 16.558594 L 15.601562 15.601562 L 8.519531 15.601562 L 8.519531 16.078125 M 9.121094 17.308594 C 9.125 17.457031 9.203125 18.28125 9.300781 19.140625 C 9.398438 19.996094 9.476562 20.792969 9.480469 20.910156 C 9.480469 21.101562 9.679688 21.121094 11.992188 21.121094 L 14.5 21.121094 L 14.5625 20.789062 C 14.597656 20.609375 14.6875 19.867188 14.757812 19.140625 C 14.828125 18.414062 14.914062 17.644531 14.949219 17.429688 L 15.011719 17.039062 L 9.121094 17.039062 L 9.121094 17.308594 "/>
</g>
</svg>
