<?xml version="1.0" encoding="UTF-8"?>
<svg xmlns="http://www.w3.org/2000/svg" xmlns:xlink="http://www.w3.org/1999/xlink" width="24px" height="24px" viewBox="0 0 24 24" version="1.1">
<g id="surface1">
<path style=" stroke:none;fill-rule:evenodd;fill:rgb(0%,0%,0%);fill-opacity:1;" d="M 3.71875 0.191406 C 1.976562 0.660156 0.636719 2.027344 0.179688 3.800781 C 0.015625 4.441406 -0.00390625 5.5625 0.0273438 12.320312 C 0.0585938 20.089844 0.0585938 20.101562 0.332031 20.761719 C 0.890625 22.113281 1.886719 23.109375 3.238281 23.667969 L 3.898438 23.941406 L 20.101562 23.941406 L 20.761719 23.671875 C 22.164062 23.097656 23.332031 21.855469 23.714844 20.527344 C 23.820312 20.160156 23.953125 19.765625 24.011719 19.652344 C 24.136719 19.410156 24.160156 4.117188 24.035156 4.242188 C 23.992188 4.289062 23.882812 4.042969 23.792969 3.691406 C 23.363281 2.003906 21.976562 0.640625 20.226562 0.1875 C 19.1875 -0.0820312 4.730469 -0.078125 3.71875 0.191406 M 0.0546875 12 C 0.0546875 16.257812 0.0703125 18 0.0898438 15.871094 C 0.109375 13.742188 0.109375 10.257812 0.0898438 8.128906 C 0.0703125 6 0.0546875 7.742188 0.0546875 12 M 16.207031 7.132812 C 15.976562 7.410156 16.097656 7.855469 16.417969 7.898438 C 16.949219 7.972656 17.214844 7.511719 16.851562 7.148438 C 16.617188 6.914062 16.390625 6.910156 16.207031 7.132812 M 10.847656 7.90625 C 9.933594 8.339844 9.300781 8.960938 8.894531 9.828125 C 8.472656 10.726562 8.449219 12.242188 8.839844 13.101562 C 9.203125 13.894531 9.992188 14.699219 10.78125 15.085938 C 11.363281 15.371094 11.609375 15.421875 12.480469 15.421875 C 13.332031 15.421875 13.609375 15.367188 14.160156 15.105469 C 15.558594 14.445312 16.328125 13.277344 16.414062 11.699219 C 16.453125 10.921875 16.414062 10.609375 16.203125 10.050781 C 15.871094 9.175781 15.710938 9.066406 15.914062 9.859375 C 16.3125 11.386719 15.273438 12.820312 13.691406 12.9375 C 13.085938 12.980469 12.894531 12.9375 12.375 12.65625 C 11.578125 12.222656 11.132812 11.578125 11.066406 10.746094 C 11.035156 10.394531 11.078125 9.910156 11.15625 9.671875 C 11.5625 8.4375 12.957031 7.714844 14.195312 8.085938 C 14.957031 8.316406 14.796875 8.117188 13.972656 7.808594 C 12.960938 7.429688 11.777344 7.464844 10.847656 7.90625 M 12.960938 9.085938 C 12.367188 9.300781 11.917969 10.15625 12.058594 10.800781 C 12.167969 11.28125 12.757812 11.855469 13.246094 11.945312 C 14.132812 12.113281 15 11.347656 15 10.394531 C 15 10.015625 14.914062 9.847656 14.535156 9.464844 C 14.148438 9.078125 13.988281 9 13.605469 9.007812 C 13.347656 9.015625 13.058594 9.046875 12.960938 9.085938 M 7.3125 15.351562 C 6.851562 15.8125 6.855469 16.234375 7.324219 16.703125 C 7.628906 17.007812 7.753906 17.054688 8.074219 16.996094 C 8.628906 16.886719 9.042969 16.378906 8.949219 15.910156 C 8.863281 15.457031 8.371094 15 7.964844 15 C 7.789062 15 7.511719 15.148438 7.3125 15.351562 "/>
</g>
</svg>
