<?xml version="1.0" encoding="UTF-8"?>
<svg xmlns="http://www.w3.org/2000/svg" xmlns:xlink="http://www.w3.org/1999/xlink" width="100px" height="100px" viewBox="0 0 100 100" version="1.1">
<g id="surface1">
<path style=" stroke:none;fill-rule:evenodd;fill:rgb(0%,0%,0%);fill-opacity:1;" d="M 15.5 0.800781 C 8.234375 2.746094 2.648438 8.441406 0.75 15.84375 C 0.0703125 18.507812 -0.015625 23.167969 0.109375 51.328125 C 0.25 83.710938 0.25 83.753906 1.382812 86.5 C 3.703125 92.136719 7.863281 96.296875 13.5 98.617188 L 16.25 99.75 L 83.75 99.75 L 86.5 98.628906 C 92.351562 96.242188 97.214844 91.070312 98.808594 85.535156 C 99.246094 84.003906 99.808594 82.359375 100.054688 81.882812 C 100.574219 80.871094 100.671875 17.160156 100.152344 17.679688 C 99.964844 17.871094 99.503906 16.839844 99.136719 15.386719 C 97.34375 8.355469 91.5625 2.675781 84.269531 0.777344 C 79.953125 -0.347656 19.710938 -0.324219 15.5 0.800781 M 0.234375 50 C 0.234375 67.738281 0.296875 74.992188 0.375 66.125 C 0.453125 57.257812 0.453125 42.742188 0.375 33.875 C 0.296875 25.007812 0.234375 32.261719 0.234375 50 M 67.523438 29.722656 C 66.566406 30.875 67.078125 32.726562 68.402344 32.914062 C 70.613281 33.226562 71.730469 31.300781 70.214844 29.785156 C 69.234375 28.804688 68.300781 28.785156 67.523438 29.722656 M 45.195312 32.945312 C 41.390625 34.746094 38.753906 37.339844 37.058594 40.957031 C 35.304688 44.695312 35.203125 51.015625 36.839844 54.589844 C 38.351562 57.890625 41.632812 61.246094 44.929688 62.863281 C 47.339844 64.046875 48.367188 64.25 52 64.25 C 55.546875 64.25 56.707031 64.035156 59 62.945312 C 64.820312 60.183594 68.035156 55.324219 68.382812 48.75 C 68.554688 45.507812 68.390625 44.207031 67.515625 41.882812 C 66.136719 38.230469 65.457031 37.773438 66.316406 41.082031 C 67.964844 47.441406 63.640625 53.421875 57.050781 53.898438 C 54.53125 54.082031 53.722656 53.910156 51.566406 52.738281 C 48.234375 50.925781 46.394531 48.238281 46.105469 44.78125 C 45.984375 43.3125 46.15625 41.292969 46.484375 40.292969 C 48.179688 35.164062 53.984375 32.140625 59.152344 33.695312 C 62.324219 34.648438 61.65625 33.816406 58.222656 32.53125 C 54 30.953125 49.078125 31.109375 45.195312 32.945312 M 54 37.851562 C 51.535156 38.753906 49.660156 42.324219 50.25 45.003906 C 50.691406 47.011719 53.15625 49.390625 55.1875 49.773438 C 58.886719 50.464844 62.496094 47.28125 62.496094 43.316406 C 62.5 41.734375 62.144531 41.027344 60.558594 39.441406 C 58.945312 37.828125 58.289062 37.507812 56.683594 37.539062 C 55.621094 37.5625 54.414062 37.703125 54 37.851562 M 30.460938 63.960938 C 28.546875 65.878906 28.5625 67.640625 30.519531 69.597656 C 31.789062 70.867188 32.304688 71.066406 33.644531 70.808594 C 35.960938 70.363281 37.671875 68.25 37.296875 66.292969 C 36.933594 64.398438 34.878906 62.5 33.183594 62.5 C 32.457031 62.5 31.304688 63.117188 30.460938 63.960938 "/>
</g>
</svg>
