<?xml version="1.0" encoding="UTF-8"?>
<svg xmlns="http://www.w3.org/2000/svg" xmlns:xlink="http://www.w3.org/1999/xlink" width="100px" height="100px" viewBox="0 0 100 100" version="1.1">
<g id="surface1">
<path style=" stroke:none;fill-rule:evenodd;fill:rgb(0%,0%,0%);fill-opacity:1;" d="M 52.351562 9.226562 L 49.050781 12.996094 L 46.730469 9.75 C 45.457031 7.960938 44.261719 6.503906 44.082031 6.507812 C 43.898438 6.511719 43.074219 8.082031 42.25 10 C 41.425781 11.917969 40.578125 13.488281 40.367188 13.492188 C 40.15625 13.496094 38.273438 12.140625 36.179688 10.476562 C 34.089844 8.816406 32.292969 7.539062 32.191406 7.644531 C 31.902344 7.929688 33.421875 23.394531 34.023438 26.339844 C 35.003906 31.105469 39.070312 35.019531 43.839844 35.78125 C 45.773438 36.09375 45.953125 36.253906 46.222656 37.933594 C 46.859375 41.894531 47.996094 54.257812 48.28125 60.332031 L 48.585938 66.75 L 46.359375 61.914062 C 43.699219 56.136719 41.703125 52.800781 38.445312 48.691406 C 35.875 45.449219 30.175781 39.898438 28.5 39 C 27.242188 38.328125 27.222656 38.78125 28.269531 44.808594 C 30.417969 57.191406 35.203125 66.226562 44.5625 75.589844 L 48.972656 80 L 48.457031 86.835938 C 48.175781 90.597656 47.898438 93.910156 47.847656 94.199219 C 47.792969 94.488281 48.226562 94.800781 48.808594 94.890625 C 50.078125 95.085938 50.300781 94.054688 50.816406 85.527344 L 51.164062 79.800781 L 55.492188 75.507812 C 64.019531 67.050781 69.0625 58.101562 71.207031 47.613281 C 72.222656 42.632812 72.636719 38.5 72.117188 38.5 C 71.871094 38.5 69.859375 40.179688 67.652344 42.230469 C 60.941406 48.464844 56.46875 55.019531 52.730469 64.09375 C 51.789062 66.378906 51.015625 67.761719 51.007812 67.164062 C 50.984375 64.242188 49.871094 50.035156 49.230469 44.5 C 48.191406 35.507812 48.105469 35.960938 51.148438 34.5 C 54.132812 33.066406 56.683594 30.027344 57.523438 26.910156 C 57.949219 25.339844 57.878906 22.710938 57.21875 15.558594 C 56.75 10.4375 56.203125 6.070312 56.007812 5.851562 C 55.816406 5.632812 54.167969 7.152344 52.351562 9.226562 "/>
</g>
</svg>
