<?xml version="1.0" encoding="UTF-8"?>
<svg xmlns="http://www.w3.org/2000/svg" xmlns:xlink="http://www.w3.org/1999/xlink" width="24px" height="24px" viewBox="0 0 24 24" version="1.1">
<g id="surface1">
<path style=" stroke:none;fill-rule:evenodd;fill:rgb(0%,0%,0%);fill-opacity:1;" d="M 12.5625 2.214844 L 11.773438 3.121094 L 11.214844 2.339844 C 10.910156 1.910156 10.625 1.5625 10.578125 1.5625 C 10.535156 1.5625 10.339844 1.941406 10.140625 2.398438 C 9.941406 2.859375 9.738281 3.238281 9.6875 3.238281 C 9.636719 3.238281 9.1875 2.914062 8.683594 2.515625 C 8.179688 2.117188 7.75 1.808594 7.726562 1.835938 C 7.65625 1.902344 8.019531 5.613281 8.164062 6.320312 C 8.402344 7.464844 9.378906 8.40625 10.523438 8.585938 C 10.984375 8.660156 11.027344 8.699219 11.09375 9.105469 C 11.246094 10.054688 11.519531 13.023438 11.585938 14.480469 L 11.660156 16.019531 L 11.125 14.859375 C 10.488281 13.472656 10.007812 12.671875 9.226562 11.6875 C 8.609375 10.90625 7.242188 9.574219 6.839844 9.359375 C 6.539062 9.199219 6.535156 9.308594 6.785156 10.753906 C 7.300781 13.726562 8.449219 15.894531 10.695312 18.140625 L 11.753906 19.199219 L 11.628906 20.839844 C 11.5625 21.742188 11.496094 22.539062 11.484375 22.609375 C 11.46875 22.675781 11.574219 22.75 11.714844 22.773438 C 12.019531 22.820312 12.070312 22.574219 12.195312 20.527344 L 12.277344 19.152344 L 13.320312 18.121094 C 15.363281 16.09375 16.574219 13.945312 17.089844 11.425781 C 17.332031 10.230469 17.433594 9.238281 17.308594 9.238281 C 17.25 9.238281 16.765625 9.644531 16.238281 10.136719 C 14.625 11.632812 13.550781 13.203125 12.65625 15.382812 C 12.429688 15.929688 12.242188 16.261719 12.242188 16.121094 C 12.234375 15.417969 11.96875 12.007812 11.816406 10.679688 C 11.566406 8.523438 11.546875 8.628906 12.273438 8.28125 C 12.992188 7.9375 13.605469 7.207031 13.804688 6.457031 C 13.90625 6.082031 13.890625 5.449219 13.734375 3.734375 C 13.621094 2.503906 13.488281 1.457031 13.441406 1.40625 C 13.394531 1.351562 13 1.714844 12.5625 2.214844 "/>
</g>
</svg>
