<?xml version="1.0" encoding="UTF-8"?>
<svg xmlns="http://www.w3.org/2000/svg" xmlns:xlink="http://www.w3.org/1999/xlink" width="24px" height="24px" viewBox="0 0 24 24" version="1.1">
<g id="surface1">
<path style=" stroke:none;fill-rule:nonzero;fill:rgb(0%,0%,0%);fill-opacity:1;" d="M 16.492188 8.164062 C 16.609375 9.96875 15.722656 11.230469 15.722656 11.230469 C 15.839844 9.84375 15.269531 7.921875 15.269531 7.921875 C 14.785156 7.828125 14.007812 7.929688 14.007812 7.929688 C 14.121094 9.429688 13.351562 10.734375 12.78125 11.214844 C 13.0625 9.554688 12.617188 8.300781 12.617188 8.300781 C 11.847656 8.109375 10.746094 8.226562 10.746094 8.226562 C 10.984375 9.992188 10 11.289062 10 11.289062 C 10.160156 10.058594 9.496094 8.480469 9.496094 8.480469 C 8.933594 8.445312 8.035156 8.625 8.035156 8.625 C 8.507812 9.464844 8.128906 11.308594 8.128906 11.308594 C 7.871094 9.800781 7 8.910156 7 8.910156 C 2.015625 11.011719 3.328125 13.90625 5.765625 14.769531 C 8.066406 15.578125 15.476562 15.980469 18.792969 14.554688 C 22.109375 13.132812 19.773438 9.132812 16.492188 8.164062 Z M 11.285156 8.839844 C 11.164062 8.839844 11.0625 8.742188 11.058594 8.621094 C 11.058594 8.5 11.15625 8.398438 11.277344 8.394531 C 11.402344 8.394531 11.503906 8.492188 11.503906 8.613281 C 11.507812 8.738281 11.40625 8.835938 11.285156 8.839844 Z M 11.84375 9.539062 C 11.792969 9.539062 11.75 9.5 11.75 9.449219 C 11.75 9.398438 11.789062 9.359375 11.839844 9.359375 C 11.890625 9.355469 11.933594 9.398438 11.933594 9.445312 C 11.933594 9.496094 11.894531 9.539062 11.84375 9.539062 Z M 12.296875 8.796875 C 12.257812 8.796875 12.226562 8.765625 12.226562 8.726562 C 12.226562 8.691406 12.257812 8.660156 12.296875 8.65625 C 12.332031 8.65625 12.367188 8.6875 12.367188 8.726562 C 12.367188 8.765625 12.335938 8.796875 12.296875 8.796875 Z M 14.480469 9.070312 C 14.441406 9.070312 14.410156 9.039062 14.410156 9.003906 C 14.40625 8.964844 14.4375 8.933594 14.476562 8.929688 C 14.515625 8.929688 14.546875 8.960938 14.546875 9 C 14.546875 9.039062 14.515625 9.070312 14.480469 9.070312 Z M 14.957031 8.675781 C 14.796875 8.675781 14.664062 8.546875 14.664062 8.386719 C 14.660156 8.226562 14.789062 8.09375 14.949219 8.09375 C 15.109375 8.089844 15.242188 8.21875 15.246094 8.378906 C 15.246094 8.539062 15.121094 8.671875 14.957031 8.675781 Z M 18.457031 9.816406 C 18.601562 9.816406 18.722656 9.929688 18.722656 10.078125 C 18.726562 10.222656 18.609375 10.34375 18.464844 10.34375 C 18.316406 10.347656 18.199219 10.230469 18.195312 10.085938 C 18.195312 9.9375 18.3125 9.820312 18.457031 9.816406 Z M 17.355469 10.484375 C 17.316406 10.484375 17.285156 10.457031 17.285156 10.417969 C 17.285156 10.378906 17.316406 10.347656 17.355469 10.347656 C 17.390625 10.34375 17.425781 10.375 17.425781 10.414062 C 17.425781 10.453125 17.394531 10.484375 17.355469 10.484375 Z M 17.480469 9.582031 C 17.367188 9.582031 17.273438 9.492188 17.269531 9.375 C 17.269531 9.261719 17.359375 9.167969 17.476562 9.164062 C 17.589844 9.164062 17.683594 9.257812 17.6875 9.371094 C 17.6875 9.484375 17.597656 9.578125 17.480469 9.582031 Z M 18.214844 12.191406 C 17.921875 12.195312 17.683594 11.964844 17.679688 11.671875 C 17.675781 11.382812 17.90625 11.144531 18.199219 11.140625 C 18.488281 11.132812 18.726562 11.367188 18.730469 11.65625 C 18.738281 11.949219 18.503906 12.1875 18.214844 12.191406 Z M 19.605469 11.574219 C 19.480469 11.578125 19.382812 11.480469 19.378906 11.359375 C 19.378906 11.234375 19.476562 11.132812 19.597656 11.132812 C 19.722656 11.128906 19.820312 11.230469 19.824219 11.351562 C 19.824219 11.472656 19.726562 11.574219 19.605469 11.574219 Z M 19.605469 11.574219 "/>
</g>
</svg>
