<?xml version="1.0" encoding="UTF-8"?>
<svg xmlns="http://www.w3.org/2000/svg" xmlns:xlink="http://www.w3.org/1999/xlink" width="100px" height="100px" viewBox="0 0 100 100" version="1.1">
<g id="surface1">
<path style=" stroke:none;fill-rule:nonzero;fill:rgb(0%,0%,0%);fill-opacity:1;" d="M 68.714844 34.019531 C 69.199219 41.527344 65.519531 46.792969 65.519531 46.792969 C 65.996094 41.007812 63.625 33.015625 63.625 33.015625 C 61.601562 32.621094 58.367188 33.042969 58.367188 33.042969 C 58.832031 39.28125 55.625 44.730469 53.257812 46.734375 C 54.425781 39.816406 52.566406 34.582031 52.566406 34.582031 C 49.363281 33.785156 44.765625 34.273438 44.765625 34.273438 C 45.765625 41.632812 41.664062 47.046875 41.664062 47.046875 C 42.339844 41.917969 39.570312 35.335938 39.570312 35.335938 C 37.21875 35.179688 33.472656 35.941406 33.472656 35.941406 C 35.449219 39.433594 33.867188 47.113281 33.867188 47.113281 C 32.792969 40.832031 29.167969 37.128906 29.167969 37.128906 C 8.398438 45.882812 13.871094 57.941406 24.027344 61.53125 C 33.609375 64.914062 64.488281 66.582031 78.300781 60.652344 C 92.117188 54.71875 82.390625 38.046875 68.714844 34.019531 Z M 47.023438 36.832031 C 46.511719 36.839844 46.09375 36.429688 46.085938 35.917969 C 46.078125 35.410156 46.484375 34.988281 46.996094 34.980469 C 47.507812 34.972656 47.925781 35.382812 47.933594 35.890625 C 47.941406 36.402344 47.535156 36.824219 47.023438 36.832031 Z M 49.347656 39.746094 C 49.136719 39.75 48.964844 39.582031 48.960938 39.375 C 48.960938 39.164062 49.128906 38.992188 49.335938 38.988281 C 49.546875 38.988281 49.714844 39.152344 49.722656 39.363281 C 49.726562 39.574219 49.558594 39.746094 49.347656 39.746094 Z M 51.238281 36.652344 C 51.078125 36.65625 50.945312 36.53125 50.945312 36.367188 C 50.941406 36.210938 51.070312 36.078125 51.230469 36.074219 C 51.390625 36.070312 51.523438 36.203125 51.523438 36.359375 C 51.527344 36.519531 51.398438 36.652344 51.238281 36.652344 Z M 60.328125 37.792969 C 60.167969 37.796875 60.039062 37.667969 60.035156 37.507812 C 60.03125 37.347656 60.160156 37.21875 60.320312 37.214844 C 60.480469 37.214844 60.609375 37.339844 60.613281 37.5 C 60.613281 37.660156 60.488281 37.789062 60.328125 37.792969 Z M 62.328125 36.148438 C 61.65625 36.15625 61.109375 35.621094 61.09375 34.953125 C 61.085938 34.28125 61.621094 33.730469 62.289062 33.71875 C 62.960938 33.710938 63.511719 34.246094 63.523438 34.917969 C 63.53125 35.585938 62.996094 36.136719 62.328125 36.148438 Z M 76.898438 40.90625 C 77.503906 40.898438 78.003906 41.382812 78.015625 41.988281 C 78.023438 42.59375 77.539062 43.089844 76.929688 43.101562 C 76.324219 43.113281 75.828125 42.625 75.816406 42.019531 C 75.808594 41.410156 76.296875 40.914062 76.898438 40.90625 Z M 72.316406 43.6875 C 72.160156 43.691406 72.027344 43.5625 72.023438 43.402344 C 72.019531 43.242188 72.152344 43.113281 72.308594 43.109375 C 72.46875 43.105469 72.601562 43.234375 72.601562 43.394531 C 72.605469 43.554688 72.476562 43.6875 72.316406 43.6875 Z M 72.839844 39.921875 C 72.363281 39.929688 71.964844 39.546875 71.960938 39.070312 C 71.953125 38.589844 72.335938 38.195312 72.8125 38.191406 C 73.296875 38.183594 73.6875 38.566406 73.691406 39.046875 C 73.703125 39.523438 73.320312 39.917969 72.839844 39.921875 Z M 75.886719 50.804688 C 74.675781 50.820312 73.675781 49.847656 73.660156 48.640625 C 73.640625 47.425781 74.609375 46.429688 75.824219 46.410156 C 77.035156 46.394531 78.03125 47.363281 78.050781 48.574219 C 78.066406 49.785156 77.097656 50.785156 75.886719 50.804688 Z M 81.6875 48.234375 C 81.175781 48.242188 80.753906 47.832031 80.75 47.324219 C 80.742188 46.808594 81.148438 46.390625 81.65625 46.382812 C 82.171875 46.375 82.589844 46.785156 82.597656 47.296875 C 82.605469 47.804688 82.195312 48.226562 81.6875 48.234375 Z M 81.6875 48.234375 "/>
</g>
</svg>
