<?xml version="1.0" encoding="UTF-8"?>
<svg xmlns="http://www.w3.org/2000/svg" xmlns:xlink="http://www.w3.org/1999/xlink" width="24px" height="24px" viewBox="0 0 24 24" version="1.1">
<g id="surface1">
<path style=" stroke:none;fill-rule:evenodd;fill:rgb(0%,0%,0%);fill-opacity:1;" d="M 0.613281 1.390625 C -0.0429688 1.9375 -0.148438 3.046875 0.363281 3.929688 C 0.488281 4.140625 1.707031 5.597656 3.074219 7.167969 C 4.441406 8.738281 5.640625 10.117188 5.738281 10.234375 C 5.90625 10.425781 5.886719 10.480469 5.539062 10.839844 C 5.332031 11.054688 5.164062 11.335938 5.167969 11.464844 C 5.179688 11.820312 12.183594 19.777344 12.839844 20.183594 C 13.675781 20.699219 14.585938 20.835938 15.566406 20.59375 L 16.367188 20.398438 L 16.855469 20.863281 C 17.988281 21.957031 19.230469 22.707031 20.273438 22.929688 C 21.539062 23.203125 22.941406 22.367188 23.65625 20.917969 C 24.042969 20.128906 24.042969 18.726562 23.65625 17.734375 C 23.386719 17.046875 21.4375 13.992188 21.082031 13.695312 C 20.835938 13.492188 20.433594 13.625 20.335938 13.9375 C 20.277344 14.121094 20.496094 14.539062 21.183594 15.5625 C 22.726562 17.863281 23.097656 18.789062 22.902344 19.878906 C 22.710938 20.980469 21.660156 21.960938 20.679688 21.960938 C 19.992188 21.960938 18.925781 21.386719 17.941406 20.480469 L 17.101562 19.710938 L 17.398438 19.1875 C 17.660156 18.730469 17.699219 18.511719 17.699219 17.578125 C 17.699219 16.640625 17.660156 16.429688 17.390625 15.949219 C 17.21875 15.648438 15.496094 13.582031 13.558594 11.359375 C 10.96875 8.386719 9.972656 7.320312 9.78125 7.320312 C 9.636719 7.320312 9.394531 7.453125 9.238281 7.621094 C 9.085938 7.785156 8.898438 7.917969 8.828125 7.914062 C 8.757812 7.910156 7.460938 6.472656 5.945312 4.722656 C 4.089844 2.574219 3.046875 1.464844 2.742188 1.3125 C 2.054688 0.960938 1.078125 0.996094 0.613281 1.390625 M 1.132812 2.335938 C 0.867188 2.742188 0.988281 3.191406 1.542969 3.835938 L 2 4.367188 L 2.621094 3.832031 C 2.960938 3.539062 3.238281 3.261719 3.238281 3.210938 C 3.238281 3.164062 3.007812 2.878906 2.71875 2.582031 C 2.289062 2.132812 2.125 2.039062 1.761719 2.039062 C 1.429688 2.039062 1.277344 2.109375 1.132812 2.335938 M 3.300781 4.601562 L 2.710938 5.121094 L 2.945312 5.429688 C 3.074219 5.597656 3.960938 6.628906 4.914062 7.722656 C 6 8.96875 6.699219 9.675781 6.789062 9.625 C 7.246094 9.355469 7.917969 8.617188 7.835938 8.476562 C 7.667969 8.199219 4.046875 4.078125 3.96875 4.078125 C 3.925781 4.078125 3.628906 4.3125 3.300781 4.601562 M 8.136719 9.917969 C 7.257812 10.679688 6.5 11.34375 6.449219 11.386719 C 6.316406 11.511719 12.992188 19.125 13.523438 19.453125 C 14.191406 19.867188 15.15625 19.847656 15.820312 19.40625 C 16.742188 18.796875 17.066406 17.554688 16.558594 16.558594 C 16.429688 16.300781 14.839844 14.390625 13.027344 12.3125 L 9.738281 8.53125 L 8.136719 9.917969 "/>
</g>
</svg>
