<?xml version="1.0" encoding="UTF-8"?>
<svg xmlns="http://www.w3.org/2000/svg" xmlns:xlink="http://www.w3.org/1999/xlink" width="100px" height="100px" viewBox="0 0 100 100" version="1.1">
<g id="surface1">
<path style=" stroke:none;fill-rule:evenodd;fill:rgb(0%,0%,0%);fill-opacity:1;" d="M 2.546875 5.785156 C -0.171875 8.078125 -0.625 12.695312 1.515625 16.367188 C 2.03125 17.253906 7.113281 23.332031 12.804688 29.867188 C 18.496094 36.402344 23.496094 42.148438 23.914062 42.636719 C 24.609375 43.445312 24.535156 43.667969 23.085938 45.160156 C 22.214844 46.058594 21.511719 47.238281 21.53125 47.773438 C 21.574219 49.246094 50.765625 82.40625 53.503906 84.097656 C 56.988281 86.25 60.773438 86.824219 64.855469 85.816406 L 68.203125 84.988281 L 70.226562 86.933594 C 74.960938 91.484375 80.132812 94.609375 84.476562 95.542969 C 89.75 96.671875 95.589844 93.199219 98.5625 87.164062 C 100.183594 83.867188 100.1875 78.019531 98.566406 73.890625 C 97.441406 71.035156 89.320312 58.304688 87.835938 57.070312 C 86.816406 56.226562 85.140625 56.765625 84.726562 58.074219 C 84.484375 58.835938 85.390625 60.574219 88.261719 64.84375 C 94.699219 74.429688 96.234375 78.285156 95.433594 82.835938 C 94.628906 87.410156 90.25 91.5 86.160156 91.5 C 83.292969 91.5 78.863281 89.109375 74.75 85.335938 L 71.25 82.128906 L 72.5 79.941406 C 73.578125 78.050781 73.75 77.132812 73.75 73.25 C 73.75 69.335938 73.582031 68.453125 72.457031 66.460938 C 71.746094 65.203125 64.566406 56.597656 56.5 47.335938 C 45.703125 34.941406 41.550781 30.5 40.753906 30.5 C 40.160156 30.5 39.144531 31.0625 38.5 31.75 C 37.855469 32.4375 37.082031 32.988281 36.789062 32.972656 C 36.492188 32.957031 31.089844 26.976562 24.78125 19.683594 C 17.035156 10.730469 12.699219 6.109375 11.425781 5.460938 C 8.5625 4 4.492188 4.148438 2.546875 5.785156 M 4.71875 9.730469 C 3.609375 11.421875 4.125 13.304688 6.433594 15.988281 L 8.335938 18.195312 L 10.917969 15.972656 C 12.339844 14.75 13.5 13.585938 13.5 13.382812 C 13.5 13.183594 12.527344 12 11.335938 10.757812 C 9.542969 8.886719 8.859375 8.5 7.347656 8.5 C 5.960938 8.5 5.328125 8.796875 4.71875 9.730469 M 13.757812 19.167969 L 11.296875 21.335938 L 12.273438 22.617188 C 12.808594 23.324219 16.496094 27.621094 20.46875 32.171875 C 25.007812 37.375 27.90625 40.316406 28.28125 40.097656 C 30.183594 38.988281 32.996094 35.90625 32.640625 35.316406 C 31.949219 34.160156 16.863281 17 16.535156 17 C 16.363281 17 15.113281 17.976562 13.757812 19.167969 M 33.910156 41.324219 C 30.246094 44.5 27.082031 47.257812 26.875 47.449219 C 26.316406 47.972656 54.128906 79.6875 56.34375 81.058594 C 59.128906 82.777344 63.144531 82.699219 65.914062 80.867188 C 69.761719 78.320312 71.109375 73.136719 69 69 C 68.453125 67.925781 61.828125 59.957031 54.285156 51.296875 L 40.570312 35.546875 L 33.910156 41.324219 "/>
</g>
</svg>
