<?xml version="1.0" encoding="UTF-8"?>
<svg xmlns="http://www.w3.org/2000/svg" xmlns:xlink="http://www.w3.org/1999/xlink" width="100px" height="100px" viewBox="0 0 100 100" version="1.1">
<g id="surface1">
<path style=" stroke:none;fill-rule:evenodd;fill:rgb(0%,0%,0%);fill-opacity:1;" d="M 59.417969 12.5625 C 57.214844 13.183594 53.769531 16.027344 52.691406 18.117188 L 51.90625 19.632812 L 50.683594 17.484375 C 48.710938 14.011719 46.921875 13.152344 45.328125 14.914062 C 44.871094 15.417969 44.5 16.554688 44.5 17.441406 L 44.5 19.050781 L 42.847656 17.789062 C 40.242188 15.804688 37.785156 15 34.324219 15 C 25.351562 15 19.214844 23.78125 22.265625 32.25 C 22.660156 33.351562 22.988281 34.320312 22.992188 34.410156 C 22.996094 34.496094 22.515625 34.414062 21.925781 34.226562 C 18.058594 33 14.21875 34.851562 14.632812 37.75 C 14.75 38.574219 15.003906 39.601562 15.191406 40.035156 C 15.464844 40.65625 15 40.945312 12.925781 41.421875 C 6.484375 42.910156 3.324219 49.011719 5.972656 54.84375 C 6.984375 57.070312 10.46875 60 12.105469 60 C 12.71875 60 13.03125 60.316406 12.972656 60.875 C 12.605469 64.5 14.292969 66.5 17.71875 66.5 L 19.984375 66.5 L 19.691406 69.375 C 18.867188 77.492188 26.40625 84.800781 34.601562 83.832031 C 37.609375 83.476562 41.726562 81.292969 43.308594 79.214844 C 45.039062 76.949219 44.769531 76.660156 42.660156 78.511719 C 40.121094 80.738281 38.046875 81.5 34.5 81.5 C 30.917969 81.5 28.375 80.546875 26.082031 78.347656 C 23.285156 75.671875 22.28125 73.242188 22.265625 69.125 L 22.25 65.5 L 20.402344 65.5 C 17.84375 65.5 15.800781 63.699219 15.796875 61.441406 C 15.792969 59.921875 15.550781 59.632812 13.421875 58.597656 C 8.257812 56.09375 6.882812 49.445312 10.640625 45.164062 C 12.414062 43.144531 14.703125 42 16.972656 42 C 18.378906 42 18.445312 41.917969 17.988281 40.71875 C 17.324219 38.972656 17.375 37.359375 18.125 36.347656 C 18.761719 35.492188 23.5 34.3125 23.5 35.011719 C 23.5 35.433594 25.035156 36.128906 25.328125 35.839844 C 25.429688 35.738281 25.171875 34.839844 24.757812 33.84375 C 23.714844 31.347656 23.808594 26.710938 24.949219 24.25 C 26.097656 21.777344 28.652344 19.300781 31.109375 18.277344 C 35.160156 16.585938 40.925781 17.648438 44.148438 20.679688 L 45.542969 21.992188 L 45.234375 20.347656 C 45.003906 19.113281 45.179688 18.394531 45.933594 17.476562 C 46.886719 16.3125 47.011719 16.289062 48.335938 17.015625 C 49.105469 17.433594 50.203125 18.613281 50.773438 19.632812 L 51.816406 21.488281 L 53.34375 19.320312 C 58.492188 12.019531 70.078125 14.097656 72.503906 22.757812 C 73.1875 25.207031 73.050781 26.207031 71.242188 31.875 C 70.890625 32.976562 70.960938 32.964844 74.230469 31.433594 C 77.132812 30.078125 77.964844 29.902344 80.449219 30.128906 C 86.464844 30.675781 90.875 34.664062 91.789062 40.382812 C 92.523438 44.960938 89.042969 51.136719 84.453125 53.40625 L 82.394531 54.425781 L 84.371094 55.433594 C 91.65625 59.152344 93.160156 69.03125 87.351562 75.003906 C 85.003906 77.417969 82.308594 78.476562 78.5 78.480469 C 75.828125 78.480469 74.769531 78.214844 72.546875 76.992188 C 71.058594 76.171875 69.761719 75.5 69.671875 75.5 C 69.578125 75.5 69.5 76.019531 69.5 76.652344 C 69.5 78.542969 67.136719 82.671875 65.382812 83.839844 C 61.640625 86.335938 56.742188 85.746094 53.761719 82.449219 C 52.808594 81.390625 51.882812 79.957031 51.707031 79.261719 C 51.347656 77.816406 50.886719 77.679688 50 78.75 C 48.5 80.558594 46 78.820312 46 75.972656 C 46 74.332031 45.976562 74.3125 45.257812 75.335938 C 44.660156 76.191406 44.625 76.722656 45.078125 78.074219 C 46.179688 81.355469 47.742188 82.226562 49.863281 80.742188 C 50.902344 80.011719 50.984375 80.070312 51.929688 82.207031 C 55.542969 90.375 67.765625 89.367188 70.289062 80.695312 C 70.714844 79.21875 70.925781 77.785156 70.753906 77.507812 C 70.25 76.691406 70.773438 76.902344 73.515625 78.605469 C 76.53125 80.480469 81.054688 81.035156 84.796875 79.988281 C 87.882812 79.121094 91.570312 75.714844 92.992188 72.410156 C 95.625 66.285156 92.796875 58.363281 87.046875 55.773438 L 85.046875 54.871094 L 87.898438 53.023438 C 93.96875 49.09375 96.515625 42.152344 93.960938 36.5 C 90.726562 29.347656 82.867188 26.550781 75.625 29.980469 C 73.90625 30.792969 72.5 31.269531 72.5 31.042969 C 72.5 30.8125 72.972656 29.554688 73.554688 28.242188 C 77.441406 19.457031 68.828125 9.90625 59.417969 12.5625 M 32.25 19.828125 C 27.371094 22.390625 24.015625 28.929688 26 32 C 26.398438 32.617188 26.484375 32.566406 26.492188 31.714844 C 26.523438 27.410156 30.242188 21.765625 34.25 19.933594 C 35.933594 19.164062 36.054688 19.023438 35 19.03125 C 34.3125 19.035156 33.074219 19.394531 32.25 19.828125 M 49.34375 29.507812 C 47.1875 30.15625 44.597656 32.351562 43.535156 34.425781 C 41.8125 37.804688 41.726562 40.421875 43.222656 44.054688 C 43.507812 44.746094 43.210938 44.824219 41.144531 44.628906 C 39.25 44.445312 38.476562 44.609375 37.503906 45.398438 C 36.363281 46.320312 36.308594 46.554688 36.800781 48.394531 L 37.332031 50.390625 L 35.398438 50.652344 C 27.730469 51.679688 26.488281 62.503906 33.71875 65.265625 C 34.953125 65.734375 36.34375 65.976562 36.808594 65.796875 C 37.460938 65.546875 37.152344 65.21875 35.457031 64.359375 C 33.707031 63.476562 33.0625 62.769531 32.292969 60.894531 C 31.445312 58.820312 31.40625 58.285156 31.964844 56.425781 C 32.765625 53.753906 35.058594 51.582031 37.488281 51.195312 L 39.363281 50.894531 L 39.121094 48.746094 C 38.914062 46.894531 39.035156 46.515625 40.015625 45.992188 C 40.691406 45.628906 42.003906 45.5 43.257812 45.675781 L 45.371094 45.964844 L 44.707031 44.105469 C 41.863281 36.140625 49.667969 28.550781 57.382812 31.773438 C 58.402344 32.199219 59.746094 33.027344 60.367188 33.609375 C 61.089844 34.289062 61.5 34.4375 61.5 34.019531 C 61.5 32.921875 58.082031 30.070312 56.109375 29.523438 C 53.9375 28.917969 51.324219 28.914062 49.34375 29.507812 M 69.496094 33.96875 C 68.003906 34.421875 65 35.9375 65 36.238281 C 65 36.351562 65.78125 36.121094 66.734375 35.722656 C 71.214844 33.851562 76.503906 35.621094 78.453125 39.652344 C 80.710938 44.316406 78.867188 49.273438 73.765625 52.257812 C 73.003906 52.703125 73.128906 52.914062 74.800781 54.007812 C 77.503906 55.769531 78.734375 58.128906 78.734375 61.546875 C 78.734375 68.46875 71.578125 72.589844 65.324219 69.265625 L 63 68.027344 L 63 69.148438 C 63 72.230469 59.503906 75.5 56.207031 75.5 C 54.148438 75.5 51.460938 73.652344 50.375 71.488281 C 49.257812 69.265625 49.179688 70.925781 50.292969 73.269531 C 53.148438 79.289062 62.769531 77.992188 63.816406 71.445312 C 63.988281 70.375 64.15625 69.5 64.1875 69.503906 C 64.222656 69.503906 65.355469 70.066406 66.710938 70.753906 C 71.015625 72.9375 75.621094 72.023438 78.855469 68.339844 C 82.507812 64.179688 81.332031 56.683594 76.625 54.148438 C 75.730469 53.667969 75.003906 53.15625 75.007812 53.011719 C 75.007812 52.867188 75.777344 52.253906 76.710938 51.648438 C 80.535156 49.171875 82.621094 44.539062 81.535156 40.921875 C 80.636719 37.917969 79.148438 36.164062 76.304688 34.746094 C 73.785156 33.492188 71.808594 33.265625 69.496094 33.96875 M 19.5 37 C 18.949219 37.550781 18.511719 38.507812 18.523438 39.125 C 18.542969 40.140625 18.601562 40.113281 19.152344 38.832031 C 19.484375 38.054688 20.316406 37.105469 21.003906 36.726562 C 21.949219 36.203125 22.039062 36.03125 21.375 36.015625 C 20.894531 36.007812 20.050781 36.449219 19.5 37 M 15.972656 43.472656 C 12.117188 44.644531 10.367188 47.132812 10.609375 51.101562 C 10.753906 53.476562 10.8125 53.59375 11.171875 52.25 C 12.332031 47.914062 14.074219 45.5 17.25 43.828125 C 18.824219 43 18.148438 42.8125 15.972656 43.472656 "/>
</g>
</svg>
