<?xml version="1.0" encoding="UTF-8"?>
<svg xmlns="http://www.w3.org/2000/svg" xmlns:xlink="http://www.w3.org/1999/xlink" width="24px" height="24px" viewBox="0 0 24 24" version="1.1">
<g id="surface1">
<path style=" stroke:none;fill-rule:evenodd;fill:rgb(0%,0%,0%);fill-opacity:1;" d="M 14.261719 3.015625 C 13.730469 3.164062 12.90625 3.847656 12.644531 4.347656 L 12.457031 4.710938 L 12.164062 4.195312 C 11.691406 3.363281 11.261719 3.15625 10.878906 3.578125 C 10.769531 3.699219 10.679688 3.972656 10.679688 4.1875 L 10.679688 4.570312 L 10.285156 4.269531 C 9.660156 3.792969 9.070312 3.601562 8.238281 3.601562 C 6.085938 3.601562 4.609375 5.707031 5.34375 7.738281 C 5.4375 8.003906 5.515625 8.238281 5.519531 8.257812 C 5.519531 8.277344 5.402344 8.257812 5.261719 8.214844 C 4.332031 7.917969 3.414062 8.363281 3.511719 9.058594 C 3.539062 9.257812 3.601562 9.503906 3.644531 9.609375 C 3.710938 9.757812 3.601562 9.828125 3.101562 9.941406 C 1.554688 10.296875 0.796875 11.761719 1.433594 13.164062 C 1.675781 13.699219 2.511719 14.398438 2.90625 14.398438 C 3.050781 14.398438 3.128906 14.476562 3.113281 14.609375 C 3.023438 15.480469 3.429688 15.960938 4.253906 15.960938 L 4.796875 15.960938 L 4.726562 16.648438 C 4.527344 18.597656 6.335938 20.351562 8.304688 20.121094 C 9.027344 20.035156 10.015625 19.511719 10.394531 19.011719 C 10.808594 18.46875 10.746094 18.398438 10.238281 18.84375 C 9.628906 19.378906 9.132812 19.558594 8.28125 19.558594 C 7.421875 19.558594 6.808594 19.332031 6.257812 18.804688 C 5.589844 18.160156 5.347656 17.578125 5.34375 16.589844 L 5.339844 15.71875 L 4.898438 15.71875 C 4.28125 15.71875 3.792969 15.289062 3.789062 14.746094 C 3.789062 14.382812 3.730469 14.3125 3.222656 14.0625 C 1.980469 13.460938 1.652344 11.867188 2.554688 10.839844 C 2.980469 10.355469 3.527344 10.078125 4.074219 10.078125 C 4.410156 10.078125 4.425781 10.058594 4.316406 9.773438 C 4.15625 9.355469 4.171875 8.964844 4.351562 8.722656 C 4.503906 8.519531 5.640625 8.234375 5.640625 8.402344 C 5.640625 8.503906 6.007812 8.671875 6.078125 8.601562 C 6.101562 8.578125 6.042969 8.359375 5.941406 8.121094 C 5.691406 7.523438 5.714844 6.410156 5.988281 5.820312 C 6.261719 5.226562 6.875 4.632812 7.464844 4.386719 C 8.4375 3.980469 9.820312 4.234375 10.59375 4.964844 L 10.929688 5.277344 L 10.855469 4.882812 C 10.800781 4.585938 10.84375 4.414062 11.023438 4.195312 C 11.253906 3.914062 11.28125 3.910156 11.601562 4.082031 C 11.785156 4.183594 12.046875 4.46875 12.1875 4.710938 L 12.4375 5.15625 L 12.800781 4.636719 C 14.039062 2.882812 16.820312 3.382812 17.402344 5.460938 C 17.566406 6.050781 17.53125 6.289062 17.097656 7.648438 C 17.015625 7.914062 17.03125 7.910156 17.816406 7.542969 C 18.511719 7.21875 18.710938 7.175781 19.308594 7.230469 C 20.75 7.363281 21.808594 8.320312 22.03125 9.691406 C 22.207031 10.789062 21.371094 12.273438 20.269531 12.816406 L 19.773438 13.0625 L 20.25 13.304688 C 21.996094 14.195312 22.359375 16.566406 20.964844 18 C 20.402344 18.582031 19.753906 18.835938 18.839844 18.835938 C 18.199219 18.835938 17.945312 18.773438 17.410156 18.476562 C 17.054688 18.28125 16.742188 18.121094 16.722656 18.121094 C 16.699219 18.121094 16.679688 18.246094 16.679688 18.394531 C 16.679688 18.851562 16.113281 19.839844 15.691406 20.121094 C 14.792969 20.71875 13.617188 20.578125 12.902344 19.789062 C 12.671875 19.535156 12.453125 19.191406 12.410156 19.023438 C 12.324219 18.675781 12.214844 18.644531 12 18.898438 C 11.640625 19.332031 11.039062 18.917969 11.039062 18.234375 C 11.039062 17.839844 11.035156 17.835938 10.863281 18.082031 C 10.71875 18.285156 10.710938 18.414062 10.820312 18.738281 C 11.082031 19.523438 11.457031 19.734375 11.964844 19.378906 C 12.214844 19.203125 12.234375 19.21875 12.464844 19.730469 C 13.332031 21.691406 16.265625 21.449219 16.867188 19.367188 C 16.972656 19.011719 17.023438 18.667969 16.980469 18.601562 C 16.859375 18.40625 16.984375 18.457031 17.644531 18.863281 C 18.367188 19.316406 19.453125 19.449219 20.351562 19.195312 C 21.09375 18.988281 21.976562 18.171875 22.316406 17.378906 C 22.949219 15.910156 22.269531 14.007812 20.890625 13.386719 L 20.410156 13.167969 L 21.09375 12.726562 C 22.550781 11.78125 23.164062 10.117188 22.550781 8.761719 C 21.773438 7.042969 19.886719 6.371094 18.148438 7.195312 C 17.738281 7.390625 17.398438 7.503906 17.398438 7.449219 C 17.398438 7.394531 17.515625 7.09375 17.652344 6.777344 C 18.585938 4.671875 16.519531 2.378906 14.261719 3.015625 M 7.738281 4.757812 C 6.570312 5.375 5.761719 6.941406 6.238281 7.679688 C 6.335938 7.828125 6.355469 7.816406 6.359375 7.613281 C 6.367188 6.578125 7.257812 5.222656 8.21875 4.785156 C 8.625 4.601562 8.652344 4.566406 8.398438 4.566406 C 8.234375 4.570312 7.9375 4.65625 7.738281 4.757812 M 11.84375 7.082031 C 11.324219 7.238281 10.703125 7.765625 10.449219 8.261719 C 10.035156 9.074219 10.015625 9.699219 10.375 10.574219 C 10.441406 10.738281 10.371094 10.757812 9.875 10.710938 C 9.421875 10.667969 9.234375 10.707031 9 10.894531 C 8.726562 11.117188 8.714844 11.171875 8.832031 11.613281 L 8.960938 12.09375 L 8.496094 12.15625 C 6.65625 12.402344 6.355469 15 8.09375 15.664062 C 8.386719 15.777344 8.722656 15.835938 8.835938 15.792969 C 8.992188 15.730469 8.917969 15.652344 8.507812 15.445312 C 8.089844 15.234375 7.933594 15.0625 7.75 14.613281 C 7.546875 14.117188 7.539062 13.988281 7.671875 13.542969 C 7.863281 12.902344 8.414062 12.378906 8.996094 12.285156 L 9.449219 12.214844 L 9.390625 11.699219 C 9.339844 11.253906 9.367188 11.164062 9.605469 11.039062 C 9.765625 10.953125 10.082031 10.921875 10.382812 10.960938 L 10.890625 11.03125 L 10.730469 10.585938 C 10.046875 8.675781 11.921875 6.851562 13.773438 7.625 C 14.015625 7.726562 14.339844 7.925781 14.488281 8.066406 C 14.660156 8.230469 14.761719 8.265625 14.761719 8.164062 C 14.761719 7.902344 13.9375 7.214844 13.464844 7.085938 C 12.945312 6.941406 12.316406 6.9375 11.84375 7.082031 M 16.679688 8.152344 C 16.320312 8.261719 15.601562 8.625 15.601562 8.695312 C 15.601562 8.726562 15.789062 8.667969 16.015625 8.574219 C 17.09375 8.125 18.359375 8.550781 18.828125 9.515625 C 19.371094 10.636719 18.929688 11.824219 17.703125 12.542969 C 17.519531 12.648438 17.550781 12.699219 17.953125 12.960938 C 18.601562 13.382812 18.894531 13.949219 18.894531 14.769531 C 18.894531 16.433594 17.179688 17.421875 15.679688 16.625 L 15.121094 16.328125 L 15.121094 16.59375 C 15.121094 17.335938 14.28125 18.121094 13.488281 18.121094 C 12.996094 18.121094 12.351562 17.675781 12.089844 17.15625 C 11.820312 16.625 11.804688 17.023438 12.070312 17.585938 C 12.757812 19.03125 15.066406 18.71875 15.316406 17.148438 C 15.355469 16.890625 15.398438 16.679688 15.40625 16.679688 C 15.414062 16.679688 15.6875 16.816406 16.011719 16.980469 C 17.042969 17.503906 18.148438 17.285156 18.925781 16.402344 C 19.800781 15.402344 19.519531 13.605469 18.390625 12.996094 C 18.175781 12.878906 18 12.757812 18 12.722656 C 18.003906 12.6875 18.1875 12.542969 18.410156 12.394531 C 19.328125 11.800781 19.828125 10.6875 19.570312 9.820312 C 19.351562 9.101562 18.996094 8.679688 18.3125 8.339844 C 17.707031 8.039062 17.234375 7.984375 16.679688 8.152344 M 4.679688 8.878906 C 4.546875 9.011719 4.441406 9.242188 4.445312 9.390625 C 4.449219 9.632812 4.464844 9.628906 4.597656 9.320312 C 4.675781 9.132812 4.875 8.90625 5.039062 8.8125 C 5.269531 8.6875 5.289062 8.648438 5.128906 8.644531 C 5.015625 8.640625 4.8125 8.746094 4.679688 8.878906 M 3.832031 10.433594 C 2.90625 10.714844 2.488281 11.3125 2.546875 12.265625 C 2.582031 12.835938 2.59375 12.863281 2.679688 12.539062 C 2.960938 11.5 3.378906 10.921875 4.140625 10.519531 C 4.519531 10.320312 4.355469 10.273438 3.832031 10.433594 "/>
</g>
</svg>
