<?xml version="1.0" encoding="UTF-8"?>
<svg xmlns="http://www.w3.org/2000/svg" xmlns:xlink="http://www.w3.org/1999/xlink" width="24px" height="24px" viewBox="0 0 24 24" version="1.1">
<g id="surface1">
<path style=" stroke:none;fill-rule:evenodd;fill:rgb(0%,0%,0%);fill-opacity:1;" d="M 11.4375 3.234375 C 10.550781 3.773438 9.238281 5.945312 8.816406 7.558594 C 8.378906 9.25 8.816406 11.046875 9.972656 12.300781 C 11.410156 13.855469 12.597656 13.84375 14.070312 12.253906 C 14.996094 11.25 15.285156 10.480469 15.292969 9 C 15.300781 7.738281 15.140625 7.105469 14.453125 5.699219 C 13.75 4.265625 12.601562 3 12 3 C 11.902344 3 11.648438 3.105469 11.4375 3.234375 M 11.5 4.171875 C 10.222656 5.550781 9.242188 8.03125 9.417969 9.429688 C 9.53125 10.34375 10.101562 11.40625 10.820312 12.054688 C 11.792969 12.929688 12.207031 12.929688 13.183594 12.054688 C 13.867188 11.4375 14.464844 10.339844 14.585938 9.472656 C 14.773438 8.117188 13.894531 5.800781 12.621094 4.308594 C 12.148438 3.753906 11.910156 3.726562 11.5 4.171875 M 2.695312 13.015625 C 2.4375 13.269531 2.398438 13.417969 2.398438 14.136719 C 2.398438 16.476562 3.824219 19.375 5.445312 20.324219 C 6.671875 21.042969 8.644531 21.210938 9.664062 20.683594 C 10.40625 20.300781 10.621094 19.746094 10.621094 18.238281 C 10.621094 17.054688 10.59375 16.925781 10.226562 16.179688 C 9.269531 14.230469 6.492188 12.71875 3.871094 12.71875 C 3.09375 12.71875 2.953125 12.753906 2.695312 13.015625 M 18.238281 12.976562 C 16.109375 13.542969 14.5 14.695312 13.773438 16.179688 C 13.40625 16.925781 13.378906 17.054688 13.378906 18.238281 C 13.378906 20.421875 13.890625 20.945312 16.019531 20.933594 C 17.664062 20.925781 18.378906 20.644531 19.449219 19.570312 C 20.722656 18.300781 21.601562 16.105469 21.601562 14.191406 C 21.601562 13.414062 21.566406 13.273438 21.304688 13.015625 C 21.042969 12.75 20.914062 12.722656 20.074219 12.726562 C 19.542969 12.730469 18.753906 12.839844 18.238281 12.976562 M 3.167969 13.609375 C 3.058594 13.898438 3.210938 15.074219 3.484375 16.035156 C 4.261719 18.765625 5.78125 20.199219 7.921875 20.214844 C 9.535156 20.226562 9.90625 19.855469 9.894531 18.238281 C 9.878906 16.125 8.515625 14.640625 5.824219 13.808594 C 5.367188 13.667969 4.597656 13.519531 4.117188 13.480469 C 3.367188 13.414062 3.234375 13.433594 3.167969 13.609375 M 19.441406 13.523438 C 16.894531 13.988281 15.140625 15.066406 14.453125 16.59375 C 14.175781 17.207031 14.117188 17.511719 14.113281 18.300781 C 14.105469 19.863281 14.46875 20.222656 16.03125 20.214844 C 16.886719 20.207031 17.113281 20.15625 17.792969 19.824219 C 18.238281 19.601562 18.785156 19.207031 19.078125 18.886719 C 19.992188 17.894531 20.765625 15.828125 20.800781 14.28125 L 20.820312 13.5 L 20.28125 13.484375 C 19.984375 13.476562 19.605469 13.492188 19.441406 13.523438 "/>
</g>
</svg>
