<?xml version="1.0" encoding="UTF-8"?>
<svg xmlns="http://www.w3.org/2000/svg" xmlns:xlink="http://www.w3.org/1999/xlink" width="100px" height="100px" viewBox="0 0 100 100" version="1.1">
<g id="surface1">
<path style=" stroke:none;fill-rule:evenodd;fill:rgb(0%,0%,0%);fill-opacity:1;" d="M 47.648438 13.480469 C 43.957031 15.730469 38.488281 24.765625 36.742188 31.5 C 34.914062 38.542969 36.734375 46.023438 41.554688 51.25 C 47.535156 57.738281 52.484375 57.679688 58.625 51.050781 C 62.488281 46.875 63.695312 43.671875 63.726562 37.5 C 63.753906 32.238281 63.078125 29.601562 60.214844 23.75 C 57.285156 17.769531 52.503906 12.503906 50 12.503906 C 49.585938 12.503906 48.53125 12.941406 47.648438 13.480469 M 47.917969 17.375 C 42.597656 23.132812 38.503906 33.464844 39.234375 39.296875 C 39.710938 43.097656 42.082031 47.53125 45.089844 50.234375 C 49.136719 53.875 50.863281 53.875 54.925781 50.222656 C 57.789062 47.648438 60.265625 43.085938 60.769531 39.46875 C 61.554688 33.816406 57.886719 24.175781 52.585938 17.953125 C 50.617188 15.640625 49.628906 15.519531 47.917969 17.375 M 11.226562 54.226562 C 10.160156 55.292969 10 55.910156 10 58.898438 C 10 68.65625 15.941406 80.734375 22.683594 84.683594 C 27.804688 87.683594 36.023438 88.382812 40.269531 86.179688 C 43.351562 84.578125 44.25 82.28125 44.25 75.988281 C 44.25 71.054688 44.148438 70.519531 42.617188 67.410156 C 38.621094 59.296875 27.046875 53 16.132812 53 C 12.894531 53 12.308594 53.148438 11.226562 54.226562 M 76 54.0625 C 67.128906 56.429688 60.421875 61.238281 57.382812 67.410156 C 55.851562 70.519531 55.75 71.054688 55.75 75.988281 C 55.75 85.089844 57.882812 87.265625 66.75 87.226562 C 73.609375 87.195312 76.574219 86.019531 81.046875 81.546875 C 86.347656 76.246094 90 67.101562 90 59.132812 C 90 55.894531 89.851562 55.308594 88.773438 54.226562 C 87.671875 53.128906 87.140625 53.003906 83.648438 53.03125 C 81.425781 53.046875 78.136719 53.492188 76 54.0625 M 13.199219 56.699219 C 12.738281 57.910156 13.371094 62.808594 14.515625 66.816406 C 17.757812 78.195312 24.09375 84.164062 33 84.222656 C 39.730469 84.269531 41.269531 82.730469 41.222656 76 C 41.164062 67.183594 35.488281 61.003906 24.273438 57.542969 C 22.363281 56.953125 19.160156 56.332031 17.160156 56.164062 C 14.03125 55.898438 13.480469 55.972656 13.199219 56.699219 M 81 56.34375 C 70.394531 58.28125 63.089844 62.777344 60.222656 69.132812 C 59.070312 71.695312 58.816406 72.960938 58.800781 76.25 C 58.769531 82.757812 60.285156 84.265625 66.796875 84.222656 C 70.355469 84.195312 71.3125 83.984375 74.128906 82.597656 C 75.996094 81.679688 78.273438 80.023438 79.492188 78.703125 C 83.304688 74.5625 86.53125 65.949219 86.675781 59.5 L 86.75 56.25 L 84.5 56.183594 C 83.261719 56.144531 81.6875 56.214844 81 56.34375 "/>
</g>
</svg>
