<?xml version="1.0" encoding="UTF-8"?>
<svg xmlns="http://www.w3.org/2000/svg" xmlns:xlink="http://www.w3.org/1999/xlink" width="100px" height="100px" viewBox="0 0 100 100" version="1.1">
<g id="surface1">
<path style=" stroke:none;fill-rule:evenodd;fill:rgb(0%,0%,0%);fill-opacity:1;" d="M 47.59375 17.246094 C 46.777344 17.933594 45.269531 19.597656 44.246094 20.941406 L 42.378906 23.390625 L 40.3125 22.488281 C 36.453125 20.804688 33.109375 20.011719 32.597656 20.660156 C 31.894531 21.550781 31.0625 24.425781 30.632812 27.46875 L 30.246094 30.183594 L 26.679688 30.785156 C 24.714844 31.117188 22.273438 31.664062 21.25 32 C 19.4375 32.597656 19.398438 32.660156 19.703125 34.574219 C 19.875 35.648438 20.605469 38 21.324219 39.796875 L 22.632812 43.0625 L 21.441406 43.867188 C 20.785156 44.3125 19.015625 45.890625 17.511719 47.375 L 14.773438 50.078125 L 17.761719 52.953125 C 19.40625 54.535156 21.164062 56.054688 21.671875 56.335938 C 22.554688 56.820312 22.539062 57.011719 21.296875 60.945312 C 20.582031 63.203125 20 65.695312 20 66.484375 C 20 67.789062 20.210938 67.960938 22.375 68.425781 C 23.679688 68.707031 25.925781 69.089844 27.363281 69.28125 C 29.898438 69.613281 29.988281 69.683594 30.273438 71.4375 C 30.910156 75.320312 32.535156 80 33.246094 80 C 34.21875 80 38.304688 78.601562 40.734375 77.4375 L 42.71875 76.484375 L 46.003906 80.074219 L 49.285156 83.664062 L 50.613281 82.792969 C 51.34375 82.316406 52.992188 80.648438 54.277344 79.085938 C 55.558594 77.527344 56.753906 76.253906 56.929688 76.261719 C 57.105469 76.269531 59.21875 76.933594 61.621094 77.738281 C 64.710938 78.773438 66.152344 79.046875 66.527344 78.671875 C 67.058594 78.140625 68.128906 74.347656 68.710938 70.953125 L 69.015625 69.152344 L 73.332031 68.304688 C 79.195312 67.152344 79.679688 66.851562 79.371094 64.554688 C 79.234375 63.535156 78.546875 61.277344 77.839844 59.527344 L 76.554688 56.351562 L 77.902344 55.308594 C 80.617188 53.210938 84 49.847656 84 49.25 C 84 48.621094 80.316406 45.003906 77.878906 43.242188 L 76.507812 42.25 L 77.679688 38.75 C 78.324219 36.824219 78.996094 34.507812 79.167969 33.597656 C 79.464844 32.058594 79.359375 31.890625 77.675781 31.1875 C 76.679688 30.769531 74.34375 30.304688 72.480469 30.148438 L 69.097656 29.863281 L 68.746094 27.304688 C 68.554688 25.902344 68.023438 23.625 67.566406 22.25 C 66.742188 19.765625 66.722656 19.75 64.691406 19.835938 C 63.566406 19.886719 61.148438 20.601562 59.320312 21.429688 C 57.496094 22.257812 56 22.78125 55.996094 22.59375 C 55.992188 21.902344 50.398438 16 49.75 16 C 49.378906 16 48.410156 16.5625 47.59375 17.246094 M 46.847656 21.125 C 42.839844 25.847656 41.070312 30.550781 42.003906 34.007812 C 42.714844 36.65625 43.308594 36.992188 46.105469 36.335938 L 48.464844 35.78125 L 48.605469 31.769531 C 48.726562 28.417969 48.894531 27.734375 49.625 27.59375 C 50.402344 27.445312 50.5 27.898438 50.5 31.648438 L 50.5 35.867188 L 52.125 36.164062 C 53.019531 36.328125 54.222656 36.597656 54.800781 36.769531 C 55.652344 37.019531 56.015625 36.726562 56.730469 35.21875 C 57.878906 32.800781 57.550781 29.859375 55.753906 26.398438 C 54.335938 23.664062 50.246094 18.5 49.5 18.5 C 49.265625 18.5 48.074219 19.679688 46.847656 21.125 M 63 22.25 C 62.039062 22.589844 60.410156 23.226562 59.382812 23.65625 L 57.511719 24.445312 L 58.507812 26.761719 C 59.050781 28.039062 59.5 29.589844 59.5 30.207031 C 59.5 31.894531 59.882812 32.003906 62.164062 30.96875 C 63.3125 30.449219 64.867188 30.015625 65.625 30.011719 C 66.382812 30.003906 67 29.761719 67 29.472656 C 67 28.375 65.40625 22.003906 65.085938 21.816406 C 64.902344 21.710938 63.960938 21.90625 63 22.25 M 33.820312 22.902344 C 33.277344 23.820312 32.394531 29.007812 32.664062 29.707031 C 32.832031 30.144531 33.542969 30.5 34.25 30.5 C 34.957031 30.5 36.339844 30.835938 37.328125 31.25 C 39.601562 32.199219 39.5 32.226562 39.5 30.734375 C 39.5 30.039062 39.835938 28.660156 40.25 27.671875 C 40.664062 26.683594 41 25.675781 41 25.425781 C 41 24.671875 34.1875 22.277344 33.820312 22.902344 M 64.679688 32.476562 C 62.203125 33.066406 59.753906 34.820312 58.722656 36.738281 L 57.773438 38.503906 L 59.398438 40.125 L 61.023438 41.75 L 64.558594 39.820312 C 67.058594 38.453125 68.246094 38.046875 68.625 38.425781 C 69.386719 39.1875 68.597656 39.976562 65.132812 41.925781 L 62.199219 43.574219 L 62.714844 45.789062 C 63.300781 48.316406 64.0625 48.746094 67.0625 48.238281 C 70.824219 47.605469 73.96875 43.738281 75.945312 37.324219 C 76.523438 35.4375 77 33.710938 77 33.488281 C 77 32.347656 68.242188 31.628906 64.679688 32.476562 M 25.109375 33.222656 C 23.65625 33.574219 22.324219 34.007812 22.144531 34.1875 C 21.617188 34.714844 23.347656 39.542969 25.113281 42.460938 C 27.46875 46.355469 29.859375 48.113281 33.171875 48.390625 L 35.851562 48.613281 L 36.132812 46.929688 C 36.289062 46.007812 36.550781 44.90625 36.71875 44.484375 C 36.941406 43.925781 36.078125 43.210938 33.484375 41.8125 C 30.160156 40.015625 29.355469 38.941406 31.082031 38.605469 C 31.496094 38.523438 33.230469 39.25 34.9375 40.214844 L 38.042969 41.96875 L 39.507812 40.359375 C 40.3125 39.472656 40.976562 38.332031 40.984375 37.824219 C 41.007812 36.433594 37.964844 33.675781 35.726562 33.054688 C 33.160156 32.34375 28.441406 32.417969 25.109375 33.222656 M 47.75 38.316406 C 43.292969 39.390625 39.824219 42.484375 38.6875 46.394531 C 35.382812 57.75 49.308594 66.023438 57.507812 57.570312 C 61.804688 53.144531 62.117188 47.277344 58.320312 42.300781 C 56.246094 39.578125 50.886719 37.558594 47.75 38.316406 M 75 44.917969 C 75 45.148438 74.019531 46.304688 72.820312 47.484375 L 70.640625 49.632812 L 73.148438 52.046875 L 75.652344 54.464844 L 78.003906 52.496094 C 81.875 49.253906 81.851562 49.40625 78.960938 46.808594 C 76.578125 44.667969 75 43.914062 75 44.917969 M 20.476562 47.488281 L 17.75 49.988281 L 20.410156 52.496094 C 21.871094 53.871094 23.222656 55 23.410156 54.996094 C 23.597656 54.996094 24.289062 54.199219 24.949219 53.230469 C 25.609375 52.261719 26.773438 51.097656 27.535156 50.648438 L 28.921875 49.832031 L 26.390625 47.539062 C 24.996094 46.28125 23.710938 45.191406 23.53125 45.117188 C 23.351562 45.046875 21.980469 46.113281 20.476562 47.488281 M 30.25 51.582031 C 28.257812 52.679688 26.378906 54.804688 25.007812 57.5 C 23.308594 60.851562 21.859375 65.558594 22.371094 66.070312 C 22.582031 66.277344 24.269531 66.6875 26.128906 66.980469 C 29.519531 67.523438 33.757812 67.160156 36.53125 66.089844 C 38 65.523438 41 62.296875 41 61.285156 C 41 60.910156 40.332031 59.890625 39.515625 59.019531 L 38.035156 57.429688 L 34.992188 59.214844 C 31.941406 61.003906 30.773438 61.347656 30.3125 60.601562 C 29.890625 59.917969 30.644531 59.242188 33.75 57.511719 C 35.398438 56.589844 36.8125 55.789062 36.890625 55.734375 C 36.96875 55.679688 36.753906 54.59375 36.414062 53.316406 L 35.792969 51 L 33.523438 51.015625 C 32.273438 51.023438 30.800781 51.277344 30.25 51.582031 M 63.277344 51.625 C 63.171875 51.96875 62.855469 52.976562 62.574219 53.863281 L 62.0625 55.472656 L 65.527344 57.363281 C 68.828125 59.160156 69.617188 60.058594 68.496094 60.753906 C 68.21875 60.925781 66.445312 60.230469 64.554688 59.210938 L 61.117188 57.351562 L 59.574219 59.050781 C 58.722656 59.984375 58.023438 61.058594 58.015625 61.433594 C 58.007812 61.808594 58.847656 62.964844 59.882812 64 C 62.453125 66.570312 66.109375 67.363281 71.449219 66.5 C 77.3125 65.554688 77.535156 65.417969 76.910156 63.148438 C 75.6875 58.707031 72.457031 53.675781 69.761719 52.007812 C 67.902344 50.855469 63.589844 50.601562 63.277344 51.625 M 42.683594 63.609375 C 40.675781 67.441406 42.492188 73.203125 47.386719 78.527344 L 49.820312 81.171875 L 52.332031 78.152344 C 56.9375 72.621094 58.316406 68.285156 56.765625 64.222656 C 56.269531 62.921875 55.652344 62.054688 55.324219 62.195312 C 55.007812 62.332031 53.800781 62.707031 52.644531 63.027344 L 50.539062 63.609375 L 50.394531 67.679688 C 50.28125 70.898438 50.09375 71.75 49.5 71.75 C 48.90625 71.75 48.71875 70.894531 48.605469 67.640625 L 48.460938 63.527344 L 46.355469 62.964844 C 45.199219 62.652344 44.089844 62.300781 43.898438 62.183594 C 43.703125 62.066406 43.15625 62.707031 42.683594 63.609375 M 38.308594 67.765625 C 37.789062 68.148438 36.175781 68.722656 34.726562 69.050781 C 33.25 69.378906 32.15625 69.886719 32.246094 70.195312 C 32.335938 70.5 32.6875 72.175781 33.03125 73.921875 C 33.375 75.664062 33.921875 77.195312 34.246094 77.320312 C 34.832031 77.542969 39.566406 75.933594 40.96875 75.035156 C 41.582031 74.640625 41.554688 74.28125 40.761719 72.527344 C 40.253906 71.402344 39.707031 69.714844 39.542969 68.777344 C 39.273438 67.210938 39.175781 67.128906 38.308594 67.765625 M 59.847656 67.816406 C 59.65625 68.007812 59.5 68.664062 59.5 69.273438 C 59.5 69.878906 59.148438 71.21875 58.71875 72.242188 C 58.292969 73.269531 58.011719 74.164062 58.09375 74.234375 C 58.515625 74.585938 64.128906 76.5 64.734375 76.5 C 65.171875 76.5 65.625 75.527344 65.960938 73.875 C 66.9375 69.03125 67.027344 69.308594 64.257812 68.699219 C 62.878906 68.398438 61.402344 67.996094 60.972656 67.808594 C 60.546875 67.621094 60.039062 67.625 59.847656 67.816406 "/>
</g>
</svg>
