<?xml version="1.0" encoding="UTF-8"?>
<svg xmlns="http://www.w3.org/2000/svg" xmlns:xlink="http://www.w3.org/1999/xlink" width="24px" height="24px" viewBox="0 0 24 24" version="1.1">
<g id="surface1">
<path style=" stroke:none;fill-rule:evenodd;fill:rgb(0%,0%,0%);fill-opacity:1;" d="M 11.421875 4.140625 C 11.226562 4.304688 10.863281 4.703125 10.617188 5.027344 L 10.171875 5.613281 L 9.675781 5.398438 C 8.75 4.992188 7.945312 4.804688 7.824219 4.957031 C 7.65625 5.171875 7.453125 5.863281 7.351562 6.59375 L 7.257812 7.246094 L 6.402344 7.386719 C 5.933594 7.46875 5.34375 7.597656 5.101562 7.679688 C 4.664062 7.824219 4.65625 7.839844 4.730469 8.296875 C 4.769531 8.554688 4.945312 9.121094 5.117188 9.550781 L 5.433594 10.335938 L 5.144531 10.527344 C 4.988281 10.636719 4.5625 11.011719 4.203125 11.371094 L 3.546875 12.019531 L 4.261719 12.707031 C 4.65625 13.089844 5.078125 13.453125 5.199219 13.519531 C 5.414062 13.636719 5.410156 13.683594 5.109375 14.628906 C 4.941406 15.167969 4.800781 15.765625 4.800781 15.957031 C 4.800781 16.269531 4.851562 16.3125 5.371094 16.421875 C 5.683594 16.488281 6.222656 16.582031 6.566406 16.628906 C 7.175781 16.707031 7.195312 16.722656 7.265625 17.144531 C 7.417969 18.078125 7.808594 19.199219 7.980469 19.199219 C 8.214844 19.199219 9.191406 18.863281 9.777344 18.585938 L 10.253906 18.355469 L 11.039062 19.21875 L 11.828125 20.078125 L 12.148438 19.871094 C 12.320312 19.753906 12.71875 19.355469 13.027344 18.980469 C 13.335938 18.605469 13.621094 18.300781 13.664062 18.304688 C 13.707031 18.304688 14.210938 18.464844 14.789062 18.65625 C 15.53125 18.90625 15.875 18.972656 15.964844 18.882812 C 16.09375 18.753906 16.351562 17.84375 16.492188 17.027344 L 16.5625 16.597656 L 17.597656 16.394531 C 19.007812 16.117188 19.121094 16.042969 19.050781 15.492188 C 19.015625 15.25 18.851562 14.707031 18.679688 14.285156 L 18.375 13.523438 L 18.695312 13.273438 C 19.347656 12.769531 20.160156 11.964844 20.160156 11.820312 C 20.160156 11.667969 19.277344 10.800781 18.691406 10.378906 L 18.363281 10.140625 L 18.644531 9.300781 C 18.796875 8.839844 18.957031 8.28125 19 8.0625 C 19.070312 7.695312 19.046875 7.652344 18.640625 7.484375 C 18.402344 7.386719 17.84375 7.273438 17.394531 7.234375 L 16.582031 7.167969 L 16.5 6.554688 C 16.453125 6.214844 16.324219 5.671875 16.214844 5.339844 C 16.019531 4.742188 16.015625 4.738281 15.527344 4.761719 C 15.253906 4.773438 14.675781 4.945312 14.238281 5.144531 C 13.796875 5.34375 13.441406 5.46875 13.441406 5.421875 C 13.4375 5.257812 12.097656 3.839844 11.941406 3.839844 C 11.851562 3.839844 11.617188 3.976562 11.421875 4.140625 M 11.242188 5.070312 C 10.28125 6.203125 9.855469 7.332031 10.082031 8.164062 C 10.25 8.796875 10.394531 8.878906 11.066406 8.71875 L 11.632812 8.585938 L 11.664062 7.625 C 11.695312 6.820312 11.734375 6.65625 11.910156 6.621094 C 12.097656 6.585938 12.121094 6.695312 12.121094 7.59375 L 12.121094 8.609375 L 12.511719 8.679688 C 12.722656 8.71875 13.011719 8.785156 13.152344 8.824219 C 13.355469 8.882812 13.445312 8.8125 13.617188 8.453125 C 13.890625 7.871094 13.8125 7.167969 13.382812 6.335938 C 13.039062 5.679688 12.058594 4.441406 11.878906 4.441406 C 11.824219 4.441406 11.539062 4.722656 11.242188 5.070312 M 15.121094 5.339844 C 14.890625 5.421875 14.5 5.574219 14.25 5.679688 L 13.804688 5.867188 L 14.042969 6.421875 C 14.171875 6.730469 14.28125 7.101562 14.28125 7.25 C 14.28125 7.65625 14.371094 7.679688 14.917969 7.433594 C 15.195312 7.308594 15.570312 7.203125 15.75 7.203125 C 15.929688 7.203125 16.078125 7.144531 16.078125 7.074219 C 16.078125 6.808594 15.699219 5.28125 15.621094 5.234375 C 15.578125 5.210938 15.351562 5.257812 15.121094 5.339844 M 8.117188 5.496094 C 7.988281 5.71875 7.773438 6.960938 7.839844 7.128906 C 7.878906 7.234375 8.050781 7.320312 8.21875 7.320312 C 8.390625 7.320312 8.722656 7.402344 8.957031 7.5 C 9.503906 7.726562 9.480469 7.734375 9.480469 7.375 C 9.480469 7.210938 9.5625 6.878906 9.660156 6.640625 C 9.757812 6.40625 9.839844 6.160156 9.839844 6.101562 C 9.839844 5.921875 8.207031 5.347656 8.117188 5.496094 M 15.523438 7.792969 C 14.929688 7.9375 14.339844 8.355469 14.09375 8.816406 L 13.863281 9.242188 L 14.253906 9.628906 L 14.644531 10.019531 L 15.492188 9.558594 C 16.09375 9.230469 16.378906 9.132812 16.46875 9.222656 C 16.652344 9.40625 16.464844 9.59375 15.632812 10.0625 L 14.929688 10.457031 L 15.050781 10.988281 C 15.191406 11.597656 15.375 11.699219 16.09375 11.578125 C 16.996094 11.425781 17.753906 10.496094 18.226562 8.957031 C 18.367188 8.503906 18.480469 8.089844 18.480469 8.039062 C 18.480469 7.761719 16.378906 7.589844 15.523438 7.792969 M 6.027344 7.972656 C 5.679688 8.058594 5.359375 8.164062 5.316406 8.207031 C 5.1875 8.332031 5.601562 9.488281 6.027344 10.191406 C 6.59375 11.125 7.164062 11.546875 7.960938 11.613281 L 8.605469 11.667969 L 8.671875 11.261719 C 8.710938 11.042969 8.773438 10.777344 8.8125 10.675781 C 8.867188 10.542969 8.660156 10.371094 8.035156 10.035156 C 7.238281 9.605469 7.046875 9.34375 7.460938 9.265625 C 7.558594 9.246094 7.976562 9.417969 8.382812 9.652344 L 9.128906 10.074219 L 9.480469 9.6875 C 9.675781 9.472656 9.835938 9.199219 9.835938 9.078125 C 9.84375 8.746094 9.113281 8.082031 8.574219 7.933594 C 7.957031 7.761719 6.824219 7.78125 6.027344 7.972656 M 11.460938 9.195312 C 10.390625 9.453125 9.558594 10.195312 9.285156 11.132812 C 8.492188 13.859375 11.835938 15.84375 13.800781 13.816406 C 14.832031 12.753906 14.90625 11.347656 13.996094 10.152344 C 13.5 9.5 12.210938 9.015625 11.460938 9.195312 M 18 10.78125 C 18 10.835938 17.765625 11.113281 17.476562 11.398438 L 16.953125 11.910156 L 17.554688 12.492188 L 18.15625 13.070312 L 18.722656 12.597656 C 19.648438 11.820312 19.644531 11.859375 18.949219 11.234375 C 18.378906 10.71875 18 10.539062 18 10.78125 M 4.914062 11.398438 L 4.261719 11.996094 L 4.898438 12.597656 C 5.25 12.929688 5.574219 13.199219 5.617188 13.199219 C 5.664062 13.199219 5.828125 13.007812 5.988281 12.773438 C 6.148438 12.542969 6.425781 12.265625 6.609375 12.15625 L 6.941406 11.960938 L 6.332031 11.410156 C 6 11.109375 5.691406 10.847656 5.648438 10.828125 C 5.605469 10.8125 5.273438 11.066406 4.914062 11.398438 M 7.261719 12.378906 C 6.78125 12.644531 6.332031 13.152344 6.003906 13.800781 C 5.59375 14.605469 5.246094 15.734375 5.371094 15.855469 C 5.417969 15.90625 5.824219 16.003906 6.269531 16.074219 C 7.085938 16.207031 8.101562 16.117188 8.765625 15.863281 C 9.121094 15.726562 9.839844 14.953125 9.839844 14.707031 C 9.839844 14.617188 9.679688 14.375 9.484375 14.164062 L 9.128906 13.785156 L 8.398438 14.210938 C 7.667969 14.640625 7.386719 14.722656 7.273438 14.542969 C 7.175781 14.378906 7.355469 14.21875 8.101562 13.800781 C 8.496094 13.582031 8.835938 13.390625 8.855469 13.375 C 8.871094 13.363281 8.820312 13.101562 8.738281 12.796875 L 8.589844 12.238281 L 8.046875 12.242188 C 7.746094 12.246094 7.390625 12.308594 7.261719 12.378906 M 15.1875 12.390625 C 15.160156 12.472656 15.085938 12.714844 15.019531 12.925781 L 14.894531 13.3125 L 15.726562 13.765625 C 16.519531 14.199219 16.707031 14.414062 16.4375 14.582031 C 16.371094 14.621094 15.945312 14.457031 15.492188 14.210938 L 14.667969 13.765625 L 14.296875 14.171875 C 14.09375 14.398438 13.925781 14.652344 13.921875 14.746094 C 13.921875 14.835938 14.125 15.113281 14.371094 15.359375 C 14.988281 15.976562 15.867188 16.167969 17.148438 15.960938 C 18.554688 15.734375 18.609375 15.699219 18.457031 15.15625 C 18.164062 14.089844 17.390625 12.882812 16.742188 12.480469 C 16.296875 12.207031 15.261719 12.144531 15.1875 12.390625 M 10.242188 15.265625 C 9.761719 16.1875 10.199219 17.570312 11.371094 18.847656 L 11.957031 19.480469 L 12.558594 18.757812 C 13.664062 17.429688 13.996094 16.386719 13.625 15.414062 C 13.503906 15.101562 13.355469 14.894531 13.277344 14.925781 C 13.203125 14.960938 12.914062 15.050781 12.632812 15.125 L 12.128906 15.265625 L 12.09375 16.242188 C 12.066406 17.015625 12.023438 17.21875 11.878906 17.21875 C 11.738281 17.21875 11.691406 17.015625 11.664062 16.234375 L 11.628906 15.246094 L 11.125 15.109375 C 10.847656 15.035156 10.582031 14.953125 10.535156 14.925781 C 10.488281 14.894531 10.359375 15.050781 10.242188 15.265625 M 9.195312 16.261719 C 9.070312 16.355469 8.683594 16.492188 8.335938 16.570312 C 7.980469 16.652344 7.71875 16.773438 7.738281 16.847656 C 7.761719 16.921875 7.84375 17.324219 7.925781 17.742188 C 8.011719 18.160156 8.140625 18.527344 8.21875 18.554688 C 8.359375 18.609375 9.496094 18.222656 9.832031 18.007812 C 9.980469 17.914062 9.972656 17.828125 9.78125 17.40625 C 9.660156 17.136719 9.53125 16.730469 9.492188 16.507812 C 9.425781 16.128906 9.402344 16.109375 9.195312 16.261719 M 14.363281 16.277344 C 14.316406 16.324219 14.28125 16.480469 14.28125 16.625 C 14.28125 16.769531 14.195312 17.09375 14.09375 17.339844 C 13.988281 17.585938 13.921875 17.800781 13.941406 17.816406 C 14.042969 17.902344 15.390625 18.359375 15.535156 18.359375 C 15.640625 18.359375 15.75 18.128906 15.832031 17.730469 C 16.066406 16.566406 16.085938 16.632812 15.421875 16.488281 C 15.089844 16.414062 14.734375 16.320312 14.632812 16.273438 C 14.53125 16.230469 14.410156 16.230469 14.363281 16.277344 "/>
</g>
</svg>
