<?xml version="1.0" encoding="UTF-8"?>
<svg xmlns="http://www.w3.org/2000/svg" xmlns:xlink="http://www.w3.org/1999/xlink" width="100px" height="100px" viewBox="0 0 100 100" version="1.1">
<g id="surface1">
<path style=" stroke:none;fill-rule:evenodd;fill:rgb(0%,0%,0%);fill-opacity:1;" d="M 49.195312 4.578125 C 47.882812 6.03125 47.003906 8.585938 46.992188 10.949219 C 46.980469 14.089844 45.976562 14.726562 39.820312 15.492188 C 37.4375 15.789062 34.871094 16.261719 34.117188 16.542969 C 32.082031 17.308594 28.824219 20.671875 24.960938 26 C 23.066406 28.613281 20.128906 32.4375 18.429688 34.5 C 14.09375 39.761719 13.523438 41.222656 13.511719 47.105469 C 13.503906 50.644531 13.09375 53.78125 12 58.667969 C 9.628906 69.285156 9.9375 70.902344 15.59375 77.5 C 17.363281 79.5625 19.871094 82.746094 21.164062 84.574219 C 26.511719 92.132812 30.050781 93.816406 44.652344 95.726562 C 55.628906 97.164062 64.917969 96.40625 71.191406 93.5625 C 75.070312 91.804688 76.722656 90.078125 78.082031 86.371094 C 78.660156 84.789062 80.226562 81.765625 81.558594 79.65625 C 82.890625 77.546875 84.695312 74.117188 85.570312 72.035156 C 90.394531 60.539062 90.546875 58.445312 87.292969 48.5 C 86.078125 44.789062 84.628906 40.058594 84.074219 37.996094 C 82.832031 33.375 78.878906 26.09375 76.011719 23.148438 C 73.285156 20.347656 70.523438 18.964844 63.261719 16.765625 C 55.136719 14.300781 55.441406 14.523438 56.296875 11.679688 C 57.238281 8.542969 57.203125 5.292969 56.21875 4.476562 C 55.789062 4.117188 54.273438 3.730469 52.84375 3.617188 C 50.605469 3.433594 50.105469 3.566406 49.195312 4.578125 M 50.828125 7.851562 C 49.601562 10.21875 48.933594 14.996094 49.09375 20.195312 C 49.222656 24.257812 49.40625 25.242188 50.125 25.695312 C 50.761719 26.09375 51.238281 26.09375 51.875 25.691406 C 52.628906 25.214844 52.726562 24.488281 52.574219 20.441406 C 52.449219 17.097656 52.640625 14.925781 53.234375 12.882812 C 54.332031 9.105469 54.117188 6.800781 52.652344 6.59375 C 51.871094 6.484375 51.347656 6.839844 50.828125 7.851562 M 40.460938 18.921875 C 33.082031 20.777344 31.972656 21.632812 28.984375 27.773438 C 27.589844 30.644531 25.460938 34.03125 24.015625 35.683594 C 22.625 37.269531 21.183594 39.171875 20.808594 39.910156 C 19.777344 41.933594 18.617188 46.386719 18.238281 49.75 C 18.054688 51.398438 17.363281 55.152344 16.703125 58.089844 C 14.515625 67.796875 15.046875 70.40625 20.511719 76.75 C 22.167969 78.675781 24.429688 81.632812 25.535156 83.324219 C 26.640625 85.011719 28.417969 87 29.484375 87.738281 C 33.644531 90.621094 41.636719 92.160156 52.75 92.214844 C 59.210938 92.246094 60.75 92.09375 63.84375 91.121094 C 67.164062 90.074219 71.402344 87.449219 72.847656 85.539062 C 73.175781 85.105469 73.824219 83.738281 74.289062 82.5 C 74.753906 81.261719 76.242188 78.402344 77.59375 76.140625 C 84.191406 65.105469 85.832031 57.980469 83.21875 51.75 C 82.523438 50.101562 81.421875 46.375 80.765625 43.46875 C 79.464844 37.707031 75.066406 27.933594 72.597656 25.328125 C 71.019531 23.667969 62.296875 19.347656 58.902344 18.550781 C 55.050781 17.644531 55 17.671875 55.007812 20.625 C 55.019531 24.359375 55.429688 24.804688 57.65625 23.488281 C 58.652344 22.902344 59.699219 22.566406 59.984375 22.738281 C 60.945312 23.335938 60.507812 25.304688 59.125 26.597656 C 55.3125 30.167969 50.179688 30.785156 45.539062 28.238281 C 44.046875 27.421875 42.40625 26.175781 41.890625 25.476562 C 40.027344 22.941406 42.484375 21.371094 44.84375 23.585938 L 46 24.675781 L 46 21.085938 C 46 19.113281 45.945312 17.519531 45.875 17.546875 C 45.804688 17.570312 43.371094 18.191406 40.460938 18.921875 "/>
</g>
</svg>
