<?xml version="1.0" encoding="UTF-8"?>
<svg xmlns="http://www.w3.org/2000/svg" xmlns:xlink="http://www.w3.org/1999/xlink" width="24px" height="24px" viewBox="0 0 24 24" version="1.1">
<g id="surface1">
<path style=" stroke:none;fill-rule:evenodd;fill:rgb(0%,0%,0%);fill-opacity:1;" d="M 11.808594 1.097656 C 11.492188 1.449219 11.28125 2.058594 11.277344 2.628906 C 11.273438 3.382812 11.035156 3.535156 9.558594 3.71875 C 8.984375 3.789062 8.367188 3.902344 8.1875 3.96875 C 7.699219 4.152344 6.917969 4.960938 5.992188 6.238281 C 5.535156 6.867188 4.832031 7.785156 4.421875 8.28125 C 3.382812 9.542969 3.246094 9.894531 3.242188 11.304688 C 3.242188 12.15625 3.140625 12.90625 2.878906 14.082031 C 2.308594 16.628906 2.382812 17.015625 3.742188 18.601562 C 4.167969 19.09375 4.769531 19.859375 5.078125 20.296875 C 6.363281 22.113281 7.210938 22.515625 10.714844 22.972656 C 13.351562 23.320312 15.578125 23.136719 17.085938 22.453125 C 18.015625 22.03125 18.414062 21.621094 18.738281 20.730469 C 18.878906 20.347656 19.253906 19.625 19.574219 19.117188 C 19.894531 18.609375 20.328125 17.789062 20.535156 17.289062 C 21.695312 14.53125 21.730469 14.027344 20.949219 11.640625 C 20.660156 10.75 20.3125 9.613281 20.179688 9.117188 C 19.878906 8.011719 18.929688 6.261719 18.242188 5.554688 C 17.589844 4.882812 16.925781 4.550781 15.183594 4.023438 C 13.234375 3.433594 13.304688 3.484375 13.511719 2.800781 C 13.738281 2.050781 13.730469 1.269531 13.492188 1.074219 C 13.390625 0.988281 13.023438 0.894531 12.683594 0.867188 C 12.144531 0.824219 12.023438 0.855469 11.808594 1.097656 M 12.199219 1.882812 C 11.90625 2.453125 11.742188 3.597656 11.78125 4.847656 C 11.8125 5.820312 11.859375 6.058594 12.03125 6.167969 C 12.183594 6.261719 12.296875 6.261719 12.449219 6.164062 C 12.632812 6.050781 12.652344 5.878906 12.617188 4.90625 C 12.589844 4.105469 12.632812 3.582031 12.777344 3.09375 C 13.039062 2.183594 12.988281 1.632812 12.636719 1.582031 C 12.449219 1.554688 12.324219 1.640625 12.199219 1.882812 M 9.710938 4.542969 C 7.9375 4.988281 7.671875 5.191406 6.957031 6.664062 C 6.621094 7.355469 6.109375 8.167969 5.765625 8.5625 C 5.429688 8.945312 5.082031 9.402344 4.992188 9.578125 C 4.746094 10.0625 4.46875 11.132812 4.378906 11.941406 C 4.332031 12.335938 4.167969 13.238281 4.007812 13.941406 C 3.484375 16.269531 3.613281 16.898438 4.921875 18.421875 C 5.320312 18.882812 5.863281 19.59375 6.128906 19.996094 C 6.394531 20.402344 6.820312 20.878906 7.074219 21.058594 C 8.074219 21.75 9.992188 22.117188 12.660156 22.132812 C 14.210938 22.140625 14.578125 22.101562 15.320312 21.867188 C 16.121094 21.617188 17.136719 20.988281 17.484375 20.53125 C 17.5625 20.425781 17.71875 20.097656 17.828125 19.800781 C 17.941406 19.503906 18.296875 18.816406 18.621094 18.273438 C 20.207031 15.625 20.601562 13.914062 19.972656 12.421875 C 19.804688 12.023438 19.542969 11.128906 19.382812 10.433594 C 19.070312 9.050781 18.015625 6.703125 17.421875 6.078125 C 17.046875 5.679688 14.949219 4.644531 14.136719 4.453125 C 13.210938 4.234375 13.199219 4.242188 13.203125 4.949219 C 13.203125 5.847656 13.304688 5.953125 13.835938 5.636719 C 14.078125 5.496094 14.328125 5.414062 14.394531 5.457031 C 14.625 5.601562 14.523438 6.074219 14.191406 6.382812 C 13.273438 7.238281 12.042969 7.386719 10.929688 6.777344 C 10.570312 6.582031 10.175781 6.28125 10.054688 6.113281 C 9.605469 5.503906 10.195312 5.128906 10.761719 5.660156 L 11.039062 5.921875 L 11.039062 5.0625 C 11.039062 4.585938 11.027344 4.203125 11.011719 4.210938 C 10.992188 4.21875 10.410156 4.367188 9.710938 4.542969 "/>
</g>
</svg>
