<?xml version="1.0" encoding="UTF-8"?>
<svg xmlns="http://www.w3.org/2000/svg" xmlns:xlink="http://www.w3.org/1999/xlink" width="100px" height="100px" viewBox="0 0 100 100" version="1.1">
<g id="surface1">
<path style=" stroke:none;fill-rule:evenodd;fill:rgb(0%,0%,0%);fill-opacity:1;" d="M 24.125 8.515625 C 23.410156 8.804688 23 9.390625 23 10.132812 C 23 11.6875 23.894531 12.5 25.601562 12.5 L 27 12.5 L 27 49.398438 C 27 77.433594 27.144531 86.445312 27.601562 86.898438 C 27.929688 87.230469 28.828125 87.5 29.601562 87.5 C 30.679688 87.5 31 87.734375 31 88.53125 C 31 90.738281 31.890625 91.5 34.464844 91.5 C 37.039062 91.5 37.5 91.078125 37.5 88.710938 L 37.5 87.5 L 60.441406 87.5 L 60.59375 89.375 L 60.75 91.25 L 66.25 91.25 L 66.40625 89.375 C 66.550781 87.605469 66.65625 87.5 68.261719 87.5 C 69.433594 87.5 70.125 87.199219 70.484375 86.53125 C 70.824219 85.890625 71 73.257812 71 49.03125 L 71 12.5 L 72.4375 12.5 C 73.230469 12.5 74.15625 12.164062 74.496094 11.757812 C 75.375 10.695312 74.71875 8.675781 73.378906 8.316406 C 71.566406 7.832031 25.363281 8.015625 24.125 8.515625 M 31.5 47.75 L 31.5 83 L 66.5 83 L 66.5 12.5 L 31.5 12.5 L 31.5 47.75 M 36.101562 17.101562 C 35.660156 17.539062 35.5 21.453125 35.5 31.582031 C 35.5 44.953125 35.464844 45.484375 34.5 46 C 33.269531 46.65625 33.125 49.25 34.289062 49.695312 C 34.726562 49.863281 41.429688 50 49.191406 50 C 59.496094 50 63.460938 49.839844 63.898438 49.398438 C 64.875 48.425781 64.632812 46.441406 63.5 46.144531 C 62.53125 45.890625 62.5 45.464844 62.5 31.710938 C 62.5 18.207031 62.453125 17.511719 61.53125 17.015625 C 60.09375 16.246094 36.878906 16.324219 36.101562 17.101562 M 39.5 33.25 L 39.5 45.5 L 58 45.5 L 58 21 L 39.5 21 L 39.5 33.25 "/>
</g>
</svg>
