<?xml version="1.0" encoding="UTF-8"?>
<svg xmlns="http://www.w3.org/2000/svg" xmlns:xlink="http://www.w3.org/1999/xlink" width="24px" height="24px" viewBox="0 0 24 24" version="1.1">
<g id="surface1">
<path style=" stroke:none;fill-rule:evenodd;fill:rgb(0%,0%,0%);fill-opacity:1;" d="M 5.789062 2.042969 C 5.617188 2.113281 5.519531 2.253906 5.519531 2.433594 C 5.519531 2.804688 5.734375 3 6.144531 3 L 6.480469 3 L 6.480469 11.855469 C 6.480469 18.585938 6.515625 20.746094 6.625 20.855469 C 6.703125 20.933594 6.917969 21 7.105469 21 C 7.363281 21 7.441406 21.054688 7.441406 21.246094 C 7.441406 21.777344 7.652344 21.960938 8.269531 21.960938 C 8.890625 21.960938 9 21.859375 9 21.289062 L 9 21 L 14.503906 21 L 14.542969 21.449219 L 14.578125 21.898438 L 15.898438 21.898438 L 15.9375 21.449219 C 15.972656 21.027344 15.996094 21 16.382812 21 C 16.664062 21 16.832031 20.925781 16.914062 20.769531 C 17 20.613281 17.039062 17.582031 17.039062 11.769531 L 17.039062 3 L 17.386719 3 C 17.574219 3 17.796875 2.917969 17.878906 2.820312 C 18.089844 2.566406 17.933594 2.082031 17.609375 1.996094 C 17.175781 1.878906 6.085938 1.925781 5.789062 2.042969 M 7.558594 11.460938 L 7.558594 19.921875 L 15.960938 19.921875 L 15.960938 3 L 7.558594 3 L 7.558594 11.460938 M 8.664062 4.105469 C 8.558594 4.210938 8.519531 5.148438 8.519531 7.578125 C 8.519531 10.789062 8.511719 10.917969 8.28125 11.039062 C 7.984375 11.199219 7.949219 11.820312 8.230469 11.925781 C 8.335938 11.96875 9.945312 12 11.804688 12 C 14.28125 12 15.230469 11.960938 15.335938 11.855469 C 15.570312 11.621094 15.511719 11.144531 15.238281 11.074219 C 15.007812 11.015625 15 10.910156 15 7.609375 C 15 4.371094 14.988281 4.203125 14.769531 4.085938 C 14.421875 3.898438 8.851562 3.917969 8.664062 4.105469 M 9.480469 7.980469 L 9.480469 10.921875 L 13.921875 10.921875 L 13.921875 5.039062 L 9.480469 5.039062 L 9.480469 7.980469 "/>
</g>
</svg>
