<?xml version="1.0" encoding="UTF-8"?>
<svg xmlns="http://www.w3.org/2000/svg" xmlns:xlink="http://www.w3.org/1999/xlink" width="100px" height="100px" viewBox="0 0 100 100" version="1.1">
<g id="surface1">
<path style=" stroke:none;fill-rule:evenodd;fill:rgb(0%,0%,0%);fill-opacity:1;" d="M 18.597656 11.511719 C 16.925781 12.53125 15.023438 15.851562 15.023438 17.75 C 15.023438 18.300781 15.441406 19.671875 15.953125 20.796875 C 18.453125 26.308594 26.394531 26.425781 29.125 20.988281 C 32.390625 14.492188 24.847656 7.699219 18.597656 11.511719 M 45.960938 11.636719 C 44.921875 12.335938 43.898438 13.675781 43.300781 15.117188 C 42.445312 17.183594 42.40625 17.714844 42.964844 19.574219 C 45.105469 26.71875 54.886719 26.746094 57.027344 19.609375 C 58.894531 13.371094 51.402344 7.96875 45.960938 11.636719 M 73.5 11.589844 C 68.984375 14.632812 68.960938 20.867188 73.449219 23.863281 C 76.421875 25.847656 80.234375 25.21875 82.96875 22.289062 C 83.898438 21.296875 84.238281 20.285156 84.402344 18.035156 C 84.609375 15.167969 84.558594 15.023438 82.636719 12.964844 C 80.875 11.074219 80.371094 10.820312 77.957031 10.628906 C 75.714844 10.449219 74.949219 10.613281 73.5 11.589844 M 11.011719 27.058594 C 9.242188 27.761719 8.050781 28.957031 6.820312 31.25 C 5.800781 33.152344 5.75 33.90625 5.75 46.667969 L 5.75 60.085938 L 6.929688 61.042969 C 8.410156 62.242188 9.085938 62.246094 10.570312 61.046875 C 11.738281 60.097656 11.75 59.992188 11.902344 48.546875 C 12.027344 38.871094 12.167969 37 12.777344 37 C 13.398438 37 13.5 41.183594 13.5 67.273438 L 13.5 97.546875 L 14.726562 98.773438 C 16.535156 100.578125 19.03125 100.449219 20.707031 98.460938 L 22 96.921875 L 22 79.210938 C 22 63.800781 22.097656 61.5 22.75 61.5 C 23.402344 61.5 23.5 63.835938 23.5 79.523438 L 23.5 97.546875 L 24.726562 98.773438 C 26.535156 100.578125 29.03125 100.449219 30.707031 98.460938 L 32 96.921875 L 32 66.960938 C 32 40.664062 32.089844 37 32.75 37 C 33.394531 37 33.5 38.609375 33.5 48.5 C 33.5 59.332031 33.558594 60.058594 34.5 61 C 35.863281 62.363281 37.226562 62.253906 38.464844 60.683594 C 39.445312 59.433594 39.5 58.75 39.5 47.273438 C 39.5 38.066406 39.324219 34.589844 38.761719 32.695312 C 37.96875 30.027344 36.113281 27.890625 33.84375 27.03125 C 32.058594 26.359375 12.710938 26.378906 11.011719 27.058594 M 38.558594 27.179688 C 37.773438 27.625 37.5625 27.980469 37.941406 28.210938 C 38.253906 28.40625 39.015625 29.507812 39.632812 30.660156 C 40.75 32.746094 40.75 32.789062 41 65.417969 L 41.25 98.089844 L 42.429688 99.042969 C 44.074219 100.375 46.28125 100.261719 47.773438 98.773438 L 49 97.546875 L 49 79.484375 C 49 62.554688 49.054688 61.4375 49.875 61.59375 C 50.6875 61.75 50.757812 63.082031 50.882812 79.851562 L 51.011719 97.9375 L 52.324219 98.96875 C 54.101562 100.367188 56.257812 100.289062 57.773438 98.773438 L 59 97.546875 L 59 66.101562 C 59 32.929688 59.097656 31.378906 61.304688 28.941406 C 63.027344 27.035156 61.714844 26.757812 50.351562 26.628906 C 42.183594 26.535156 39.476562 26.660156 38.558594 27.179688 M 65.25 27.414062 C 60.886719 30.15625 60.546875 31.558594 60.523438 47.125 C 60.5 59.347656 60.550781 60.050781 61.5 61 C 62.050781 61.550781 62.949219 62 63.5 62 C 64.050781 62 64.949219 61.550781 65.5 61 C 66.441406 60.058594 66.5 59.332031 66.5 48.5 C 66.5 38.609375 66.605469 37 67.25 37 C 67.910156 37 68 40.640625 68 66.773438 C 68 98.238281 68.039062 98.832031 70.273438 99.691406 C 72.011719 100.355469 74.066406 99.980469 75.273438 98.773438 L 76.5 97.546875 L 76.5 79.523438 C 76.5 63.835938 76.597656 61.5 77.25 61.5 C 77.902344 61.5 78 63.78125 78 79.023438 C 78 97.410156 78.160156 98.878906 80.273438 99.691406 C 82.011719 100.355469 84.066406 99.980469 85.273438 98.773438 L 86.5 97.546875 L 86.5 67.273438 C 86.5 40.695312 86.589844 37 87.25 37 C 87.894531 37 88 38.574219 88 48.183594 C 88 58.738281 88.058594 59.4375 89.035156 60.683594 C 90.21875 62.1875 91.296875 62.335938 92.886719 61.222656 C 93.992188 60.449219 94 60.335938 93.988281 46.847656 C 93.976562 31.59375 93.734375 30.304688 90.433594 27.949219 C 88.796875 26.78125 88.453125 26.746094 77.75 26.613281 C 67.703125 26.484375 66.621094 26.554688 65.25 27.414062 M 2.679688 30.996094 C 0.382812 31.921875 -0.738281 35.25 0.640625 37.042969 C 1.515625 38.183594 3.539062 39.164062 3.992188 38.671875 C 4.203125 38.441406 4.496094 36.507812 4.648438 34.375 C 4.9375 30.296875 4.835938 30.125 2.679688 30.996094 M 95.019531 32.0625 C 95.28125 32.988281 95.5 34.925781 95.5 36.371094 C 95.5 38.429688 95.671875 39 96.289062 39 C 97.535156 39 100 36.222656 100 34.816406 C 100 33.101562 98.097656 31.066406 96.144531 30.691406 L 94.535156 30.382812 L 95.019531 32.0625 "/>
</g>
</svg>
