<?xml version="1.0" encoding="UTF-8"?>
<svg xmlns="http://www.w3.org/2000/svg" xmlns:xlink="http://www.w3.org/1999/xlink" width="24px" height="24px" viewBox="0 0 24 24" version="1.1">
<g id="surface1">
<path style=" stroke:none;fill-rule:evenodd;fill:rgb(0%,0%,0%);fill-opacity:1;" d="M 4.464844 2.761719 C 4.0625 3.007812 3.605469 3.804688 3.605469 4.261719 C 3.605469 4.390625 3.707031 4.722656 3.828125 4.992188 C 4.429688 6.3125 6.335938 6.34375 6.988281 5.039062 C 7.773438 3.476562 5.964844 1.847656 4.464844 2.761719 M 11.03125 2.792969 C 10.78125 2.960938 10.535156 3.28125 10.390625 3.628906 C 10.1875 4.125 10.175781 4.25 10.3125 4.699219 C 10.824219 6.414062 13.171875 6.417969 13.6875 4.707031 C 14.136719 3.210938 12.335938 1.914062 11.03125 2.792969 M 17.640625 2.78125 C 16.554688 3.511719 16.550781 5.007812 17.628906 5.726562 C 18.339844 6.203125 19.253906 6.050781 19.914062 5.351562 C 20.136719 5.109375 20.21875 4.867188 20.257812 4.328125 C 20.304688 3.640625 20.292969 3.605469 19.832031 3.113281 C 19.410156 2.65625 19.289062 2.597656 18.710938 2.550781 C 18.171875 2.507812 17.988281 2.546875 17.640625 2.78125 M 2.640625 6.492188 C 2.21875 6.664062 1.933594 6.949219 1.636719 7.5 C 1.394531 7.957031 1.378906 8.136719 1.378906 11.199219 L 1.378906 14.421875 L 1.664062 14.652344 C 2.019531 14.9375 2.179688 14.9375 2.535156 14.652344 C 2.816406 14.421875 2.820312 14.398438 2.855469 11.652344 C 2.886719 9.328125 2.921875 8.878906 3.066406 8.878906 C 3.214844 8.878906 3.238281 9.882812 3.238281 16.144531 L 3.238281 23.410156 L 3.535156 23.707031 C 3.96875 24.140625 4.566406 24.109375 4.96875 23.628906 L 5.28125 23.261719 L 5.28125 19.011719 C 5.28125 15.3125 5.304688 14.761719 5.460938 14.761719 C 5.617188 14.761719 5.640625 15.320312 5.640625 19.085938 L 5.640625 23.410156 L 5.933594 23.707031 C 6.367188 24.140625 6.96875 24.109375 7.371094 23.628906 L 7.679688 23.261719 L 7.679688 16.070312 C 7.679688 9.757812 7.703125 8.878906 7.859375 8.878906 C 8.015625 8.878906 8.039062 9.265625 8.039062 11.640625 C 8.039062 14.238281 8.054688 14.414062 8.28125 14.640625 C 8.605469 14.96875 8.933594 14.941406 9.230469 14.5625 C 9.46875 14.265625 9.480469 14.101562 9.480469 11.34375 C 9.480469 9.136719 9.4375 8.300781 9.304688 7.847656 C 9.113281 7.207031 8.667969 6.695312 8.121094 6.488281 C 7.695312 6.324219 3.050781 6.332031 2.640625 6.492188 M 9.253906 6.523438 C 9.066406 6.628906 9.015625 6.714844 9.105469 6.769531 C 9.179688 6.816406 9.363281 7.082031 9.511719 7.359375 C 9.78125 7.859375 9.78125 7.871094 9.839844 15.699219 L 9.898438 23.542969 L 10.183594 23.769531 C 10.578125 24.089844 11.109375 24.0625 11.464844 23.707031 L 11.761719 23.410156 L 11.761719 19.078125 C 11.761719 15.011719 11.773438 14.746094 11.96875 14.78125 C 12.164062 14.820312 12.183594 15.140625 12.210938 19.164062 L 12.242188 23.503906 L 12.558594 23.753906 C 12.984375 24.089844 13.5 24.070312 13.867188 23.707031 L 14.160156 23.410156 L 14.160156 15.863281 C 14.160156 7.902344 14.183594 7.53125 14.710938 6.945312 C 15.125 6.488281 14.8125 6.421875 12.085938 6.390625 C 10.125 6.367188 9.472656 6.398438 9.253906 6.523438 M 15.660156 6.578125 C 14.613281 7.238281 14.53125 7.574219 14.523438 11.308594 C 14.519531 14.242188 14.53125 14.414062 14.761719 14.640625 C 14.890625 14.773438 15.109375 14.878906 15.238281 14.878906 C 15.371094 14.878906 15.589844 14.773438 15.71875 14.640625 C 15.945312 14.414062 15.960938 14.238281 15.960938 11.640625 C 15.960938 9.265625 15.984375 8.878906 16.140625 8.878906 C 16.296875 8.878906 16.320312 9.753906 16.320312 16.027344 C 16.320312 23.578125 16.328125 23.71875 16.867188 23.925781 C 17.28125 24.085938 17.777344 23.996094 18.066406 23.707031 L 18.359375 23.410156 L 18.359375 19.085938 C 18.359375 15.320312 18.382812 14.761719 18.539062 14.761719 C 18.695312 14.761719 18.71875 15.308594 18.71875 18.964844 C 18.71875 23.378906 18.757812 23.730469 19.265625 23.925781 C 19.683594 24.085938 20.175781 23.996094 20.464844 23.707031 L 20.761719 23.410156 L 20.761719 16.144531 C 20.761719 9.765625 20.78125 8.878906 20.941406 8.878906 C 21.09375 8.878906 21.121094 9.257812 21.121094 11.5625 C 21.121094 14.097656 21.132812 14.265625 21.367188 14.5625 C 21.652344 14.925781 21.910156 14.960938 22.292969 14.691406 C 22.558594 14.507812 22.558594 14.480469 22.558594 11.242188 C 22.554688 7.582031 22.496094 7.273438 21.703125 6.707031 C 21.3125 6.429688 21.230469 6.417969 18.660156 6.386719 C 16.25 6.355469 15.988281 6.375 15.660156 6.578125 M 0.644531 7.4375 C 0.09375 7.660156 -0.175781 8.460938 0.152344 8.890625 C 0.363281 9.164062 0.851562 9.398438 0.957031 9.28125 C 1.007812 9.226562 1.078125 8.761719 1.117188 8.25 C 1.183594 7.269531 1.160156 7.230469 0.644531 7.4375 M 22.804688 7.695312 C 22.867188 7.917969 22.921875 8.382812 22.921875 8.730469 C 22.921875 9.222656 22.960938 9.359375 23.109375 9.359375 C 23.410156 9.359375 24 8.691406 24 8.355469 C 24 7.945312 23.542969 7.457031 23.074219 7.367188 L 22.6875 7.292969 L 22.804688 7.695312 "/>
</g>
</svg>
