<?xml version="1.0" encoding="UTF-8"?>
<svg xmlns="http://www.w3.org/2000/svg" xmlns:xlink="http://www.w3.org/1999/xlink" width="24px" height="24px" viewBox="0 0 24 24" version="1.1">
<g id="surface1">
<path style=" stroke:none;fill-rule:evenodd;fill:rgb(0%,0%,0%);fill-opacity:1;" d="M 9.804688 0.191406 C 8.554688 0.417969 6.941406 1.035156 5.734375 1.753906 C 4.394531 2.546875 2.546875 4.394531 1.753906 5.734375 C -0.253906 9.109375 -0.542969 13.109375 0.957031 16.710938 C 2.066406 19.378906 4.621094 21.933594 7.289062 23.042969 C 10.109375 24.21875 13.277344 24.300781 16.105469 23.277344 C 19.992188 21.871094 23.125 18.207031 23.765625 14.3125 C 23.839844 13.867188 23.949219 13.40625 24.011719 13.292969 C 24.140625 13.046875 24.160156 10.480469 24.035156 10.605469 C 23.988281 10.652344 23.878906 10.28125 23.792969 9.78125 C 23.589844 8.570312 22.96875 6.953125 22.246094 5.734375 C 21.453125 4.394531 19.605469 2.546875 18.265625 1.753906 C 15.714844 0.238281 12.664062 -0.324219 9.804688 0.191406 M 9.804688 1.027344 C 9.359375 1.128906 8.859375 1.257812 8.695312 1.320312 L 8.398438 1.433594 L 8.429688 12.027344 L 8.460938 22.617188 L 9.238281 22.847656 C 10.367188 23.179688 13.632812 23.179688 14.761719 22.847656 L 15.539062 22.617188 L 15.539062 1.382812 L 14.761719 1.160156 C 13.679688 0.851562 10.925781 0.777344 9.804688 1.027344 M 6.644531 2.203125 C 5.59375 2.769531 4.851562 3.339844 3.953125 4.277344 C 2.640625 5.644531 1.820312 7.066406 1.238281 8.964844 C 0.945312 9.929688 0.917969 10.191406 0.917969 12 C 0.917969 13.808594 0.945312 14.070312 1.238281 15.035156 C 1.585938 16.164062 2.203125 17.484375 2.796875 18.359375 C 3.339844 19.15625 4.640625 20.476562 5.460938 21.058594 C 6.097656 21.515625 7.324219 22.199219 7.496094 22.199219 C 7.53125 22.199219 7.558594 17.609375 7.558594 12 C 7.558594 6.390625 7.519531 1.800781 7.46875 1.804688 C 7.421875 1.804688 7.050781 1.984375 6.644531 2.203125 M 16.441406 12 C 16.441406 17.609375 16.46875 22.199219 16.503906 22.199219 C 16.675781 22.199219 17.902344 21.515625 18.539062 21.058594 C 19.371094 20.46875 20.660156 19.15625 21.222656 18.332031 C 21.808594 17.46875 22.527344 15.894531 22.820312 14.820312 C 23.199219 13.433594 23.199219 10.566406 22.820312 9.179688 C 22.527344 8.105469 21.808594 6.53125 21.222656 5.667969 C 20.660156 4.84375 19.371094 3.53125 18.539062 2.941406 C 17.902344 2.484375 16.675781 1.800781 16.503906 1.800781 C 16.46875 1.800781 16.441406 6.390625 16.441406 12 M 0.046875 12 C 0.046875 12.757812 0.0664062 13.070312 0.0898438 12.691406 C 0.113281 12.308594 0.113281 11.6875 0.0898438 11.308594 C 0.0664062 10.929688 0.046875 11.242188 0.046875 12 "/>
</g>
</svg>
