<?xml version="1.0" encoding="UTF-8"?>
<svg xmlns="http://www.w3.org/2000/svg" xmlns:xlink="http://www.w3.org/1999/xlink" width="100px" height="100px" viewBox="0 0 100 100" version="1.1">
<g id="surface1">
<path style=" stroke:none;fill-rule:evenodd;fill:rgb(0%,0%,0%);fill-opacity:1;" d="M 40.847656 0.796875 C 35.640625 1.734375 28.925781 4.3125 23.890625 7.304688 C 18.316406 10.613281 10.613281 18.316406 7.304688 23.890625 C -1.050781 37.957031 -2.261719 54.628906 3.980469 69.628906 C 8.613281 80.753906 19.246094 91.386719 30.371094 96.019531 C 42.121094 100.910156 55.320312 101.257812 67.113281 96.992188 C 83.296875 91.136719 96.351562 75.863281 99.03125 59.640625 C 99.335938 57.777344 99.792969 55.859375 100.046875 55.382812 C 100.578125 54.363281 100.671875 43.664062 100.140625 44.191406 C 99.945312 44.386719 99.496094 42.839844 99.140625 40.75 C 98.292969 35.71875 95.710938 28.964844 92.695312 23.890625 C 89.386719 18.316406 81.683594 10.613281 76.109375 7.304688 C 65.476562 0.988281 52.761719 -1.359375 40.847656 0.796875 M 40.859375 4.277344 C 38.992188 4.695312 36.910156 5.25 36.230469 5.507812 L 34.996094 5.976562 L 35.121094 50.105469 L 35.25 94.234375 L 38.5 95.195312 C 43.191406 96.582031 56.808594 96.582031 61.5 95.195312 L 64.75 94.234375 L 64.75 5.765625 L 61.5 4.835938 C 56.996094 3.542969 45.523438 3.234375 40.859375 4.277344 M 27.683594 9.175781 C 23.300781 11.539062 20.222656 13.914062 16.46875 17.828125 C 11.007812 23.523438 7.582031 29.441406 5.164062 37.355469 C 3.9375 41.367188 3.820312 42.46875 3.820312 50 C 3.820312 57.53125 3.9375 58.632812 5.164062 62.644531 C 6.601562 67.347656 9.183594 72.851562 11.660156 76.5 C 13.917969 79.824219 19.332031 85.3125 22.75 87.746094 C 25.414062 89.640625 30.515625 92.5 31.234375 92.5 C 31.378906 92.5 31.5 73.375 31.5 50 C 31.5 26.625 31.332031 7.503906 31.125 7.511719 C 30.917969 7.515625 29.371094 8.265625 27.683594 9.175781 M 68.5 50 C 68.5 73.375 68.621094 92.5 68.765625 92.5 C 69.484375 92.5 74.585938 89.640625 77.25 87.746094 C 80.710938 85.285156 86.082031 79.820312 88.425781 76.378906 C 90.871094 72.792969 93.859375 66.222656 95.085938 61.75 C 96.667969 55.972656 96.667969 44.027344 95.085938 38.25 C 93.859375 33.777344 90.871094 27.207031 88.425781 23.621094 C 86.082031 20.179688 80.710938 14.714844 77.25 12.253906 C 74.585938 10.359375 69.484375 7.5 68.765625 7.5 C 68.621094 7.5 68.5 26.625 68.5 50 M 0.1875 50 C 0.1875 53.164062 0.269531 54.457031 0.371094 52.875 C 0.46875 51.292969 0.46875 48.707031 0.371094 47.125 C 0.269531 45.542969 0.1875 46.835938 0.1875 50 "/>
</g>
</svg>
