<?xml version="1.0" encoding="UTF-8"?>
<svg xmlns="http://www.w3.org/2000/svg" xmlns:xlink="http://www.w3.org/1999/xlink" width="24px" height="24px" viewBox="0 0 24 24" version="1.1">
<g id="surface1">
<path style=" stroke:none;fill-rule:evenodd;fill:rgb(0%,0%,0%);fill-opacity:1;" d="M 11.96875 2.828125 C 11.921875 2.878906 11.878906 3.082031 11.878906 3.285156 C 11.878906 3.566406 11.847656 3.617188 11.734375 3.503906 C 11.65625 3.425781 11.46875 3.359375 11.320312 3.359375 C 11.050781 3.359375 11.046875 3.378906 11.09375 4.550781 C 11.132812 5.546875 11.113281 5.734375 10.972656 5.679688 C 10.636719 5.550781 10.894531 6.324219 11.351562 6.839844 C 11.59375 7.109375 11.625 7.296875 11.671875 8.679688 C 11.707031 9.835938 11.761719 10.246094 11.890625 10.328125 C 12.019531 10.410156 12.023438 10.4375 11.902344 10.4375 C 11.8125 10.4375 11.78125 10.503906 11.832031 10.589844 C 11.882812 10.675781 11.871094 10.699219 11.808594 10.640625 C 11.75 10.585938 11.699219 10.503906 11.695312 10.460938 C 11.691406 10.414062 11.59375 10.203125 11.476562 9.984375 C 11.273438 9.601562 10.796875 7.6875 10.8125 7.320312 C 10.816406 7.222656 10.96875 7.75 11.152344 8.492188 C 11.335938 9.234375 11.527344 9.882812 11.578125 9.933594 C 11.632812 9.980469 11.636719 9.886719 11.59375 9.71875 C 11.246094 8.453125 10.671875 5.667969 10.605469 4.957031 C 10.492188 3.699219 10.308594 4.007812 10.390625 5.316406 C 10.507812 7.199219 11.140625 10.078125 11.535156 10.492188 C 11.800781 10.777344 11.558594 11.273438 11.25 11.078125 C 11.167969 11.027344 11.0625 10.984375 11.019531 10.980469 C 10.976562 10.980469 10.804688 10.863281 10.640625 10.71875 C 10.476562 10.578125 10.308594 10.480469 10.269531 10.507812 C 10.230469 10.535156 10.253906 10.492188 10.320312 10.414062 C 10.410156 10.308594 10.582031 10.375 11.007812 10.671875 L 11.578125 11.066406 L 11.226562 10.695312 C 10.679688 10.113281 10.023438 9.855469 8.855469 9.765625 C 7.882812 9.691406 7.769531 9.707031 7.160156 10.003906 C 6.796875 10.183594 6.363281 10.511719 6.191406 10.734375 C 5.75 11.316406 5.804688 11.375 6.34375 10.886719 C 6.957031 10.335938 7.539062 10.152344 8.449219 10.234375 C 9.53125 10.332031 10.324219 10.617188 10.921875 11.128906 C 11.210938 11.375 11.402344 11.5 11.34375 11.398438 C 11.277344 11.28125 11.328125 11.296875 11.492188 11.441406 C 11.628906 11.5625 11.734375 11.761719 11.726562 11.886719 C 11.710938 12.089844 11.691406 12.09375 11.507812 11.929688 C 10.820312 11.308594 8.585938 10.964844 7.621094 11.332031 C 7.300781 11.457031 7.109375 11.59375 7.15625 11.667969 C 7.203125 11.742188 7.179688 11.761719 7.101562 11.714844 C 6.925781 11.605469 6.449219 11.855469 6.542969 12.003906 C 6.582031 12.066406 6.539062 12.089844 6.449219 12.054688 C 6.3125 12 5.519531 12.910156 5.519531 13.121094 C 5.519531 13.15625 5.789062 12.921875 6.117188 12.601562 C 7.152344 11.59375 8.578125 11.339844 10.285156 11.859375 C 11.089844 12.105469 11.90625 12.609375 11.753906 12.765625 C 11.71875 12.804688 11.472656 12.726562 11.210938 12.597656 C 10.472656 12.230469 9.710938 12.175781 8.785156 12.417969 C 7.785156 12.679688 7.058594 13.085938 6.664062 13.605469 C 6.214844 14.191406 6.292969 14.246094 6.855469 13.742188 C 7.933594 12.765625 9.183594 12.582031 10.808594 13.15625 C 11.300781 13.328125 11.753906 13.523438 11.820312 13.59375 C 11.902344 13.675781 11.863281 13.6875 11.699219 13.625 C 11.566406 13.574219 10.972656 13.503906 10.371094 13.472656 C 9 13.394531 8.113281 13.625 7.4375 14.238281 C 6.945312 14.683594 6.40625 15.449219 6.515625 15.554688 C 6.546875 15.589844 6.675781 15.449219 6.796875 15.246094 C 7.292969 14.402344 8.429688 13.921875 10.078125 13.859375 C 10.707031 13.832031 11.097656 13.839844 10.949219 13.875 C 10.796875 13.910156 10.703125 13.976562 10.730469 14.027344 C 10.761719 14.078125 10.613281 14.09375 10.402344 14.066406 C 10.035156 14.015625 10.027344 14.019531 10.261719 14.210938 C 10.492188 14.398438 10.488281 14.398438 10.1875 14.269531 C 9.9375 14.164062 9.796875 14.175781 9.492188 14.332031 C 9.285156 14.441406 9.144531 14.582031 9.183594 14.644531 C 9.222656 14.707031 9.175781 14.726562 9.085938 14.691406 C 8.695312 14.542969 7.417969 16.601562 7.601562 17.085938 C 7.628906 17.160156 7.714844 17.058594 7.789062 16.859375 C 8.179688 15.832031 9.082031 14.765625 9.394531 14.960938 C 9.472656 15.007812 9.617188 15.0625 9.71875 15.078125 C 11.085938 15.296875 11.21875 15.332031 10.777344 15.34375 C 10.535156 15.351562 10.191406 15.304688 10.011719 15.238281 C 9.601562 15.082031 9.5625 15.125 9.722656 15.546875 C 9.792969 15.734375 10.039062 16.726562 10.269531 17.75 C 10.722656 19.78125 10.878906 20.070312 11.632812 20.28125 C 12.800781 20.605469 13.855469 20.269531 13.96875 19.535156 C 14.335938 17.128906 14.855469 14.761719 15.0625 14.539062 C 15.136719 14.460938 15.667969 14.792969 16.050781 15.15625 C 16.265625 15.359375 16.441406 15.484375 16.441406 15.429688 C 16.441406 15.378906 16.183594 15.09375 15.871094 14.796875 C 15.554688 14.5 15.40625 14.3125 15.539062 14.378906 C 15.898438 14.558594 16.46875 15.195312 16.492188 15.441406 C 16.527344 15.828125 16.835938 16.679688 16.9375 16.679688 C 17.160156 16.679688 17.019531 15.988281 16.679688 15.398438 C 16.210938 14.574219 15.660156 14.175781 14.542969 13.84375 L 13.621094 13.574219 L 14.160156 13.546875 C 16.039062 13.460938 16.953125 13.734375 17.484375 14.535156 C 17.835938 15.070312 17.878906 15.09375 17.878906 14.753906 C 17.878906 14.617188 17.652344 14.265625 17.371094 13.976562 C 16.914062 13.503906 16.773438 13.433594 16.078125 13.324219 C 14.410156 13.0625 12.164062 13.269531 12.40625 13.660156 C 12.441406 13.71875 12.390625 13.867188 12.289062 13.992188 C 12.117188 14.207031 12.113281 14.207031 12.238281 13.949219 C 12.308594 13.800781 12.332031 13.679688 12.285156 13.679688 C 12.238281 13.679688 12.320312 13.550781 12.472656 13.390625 C 13.097656 12.71875 15.128906 12.171875 16.496094 12.300781 C 17.527344 12.398438 18.007812 12.589844 18.285156 13.015625 C 18.402344 13.195312 18.527344 13.3125 18.566406 13.273438 C 18.710938 13.128906 18.332031 12.523438 17.914062 12.238281 C 17.5 11.957031 17.386719 11.941406 16.085938 11.960938 C 15.324219 11.972656 14.417969 12.058594 14.070312 12.152344 C 13.722656 12.246094 13.441406 12.304688 13.441406 12.277344 C 13.441406 12.132812 14.699219 11.730469 15.644531 11.578125 C 17.019531 11.355469 17.609375 11.355469 18.03125 11.574219 C 18.316406 11.722656 18.359375 11.722656 18.359375 11.570312 C 18.359375 11.476562 18.171875 11.304688 17.941406 11.195312 C 17.566406 11.019531 17.355469 11.011719 16.109375 11.128906 C 14.652344 11.265625 13.785156 11.488281 13.105469 11.90625 C 12.488281 12.28125 12.707031 12.261719 13.503906 11.875 C 13.898438 11.683594 14.4375 11.503906 14.699219 11.476562 C 14.964844 11.453125 15.070312 11.457031 14.941406 11.488281 C 14.296875 11.636719 12.84375 12.425781 12.390625 12.871094 C 11.761719 13.484375 11.707031 13.328125 12.328125 12.691406 C 12.679688 12.332031 12.726562 12.242188 12.539062 12.269531 C 12.40625 12.289062 12.21875 12.355469 12.121094 12.417969 C 11.964844 12.511719 11.960938 12.5 12.105469 12.320312 C 12.199219 12.207031 12.300781 12.140625 12.335938 12.175781 C 12.367188 12.207031 12.585938 12.066406 12.820312 11.859375 C 13.707031 11.082031 15.617188 10.503906 17.308594 10.503906 C 17.886719 10.5 18.359375 10.46875 18.359375 10.429688 C 18.359375 10.304688 17.746094 10.074219 17.226562 10.003906 C 16.328125 9.878906 13.128906 10.847656 12.691406 11.375 C 12.609375 11.476562 12.59375 11.535156 12.660156 11.503906 C 12.726562 11.472656 13.136719 11.277344 13.570312 11.070312 C 14.539062 10.609375 16.117188 10.195312 16.820312 10.214844 C 17.296875 10.230469 17.28125 10.238281 16.617188 10.324219 C 15.128906 10.519531 13.542969 11.058594 12.683594 11.660156 C 12.425781 11.84375 12.351562 11.863281 12.464844 11.726562 C 12.589844 11.570312 12.59375 11.519531 12.480469 11.519531 C 12.359375 11.519531 12.359375 11.484375 12.480469 11.339844 C 12.5625 11.242188 12.585938 11.160156 12.53125 11.160156 C 12.347656 11.160156 13.140625 10.417969 13.621094 10.140625 C 14.125 9.847656 15.609375 9.355469 15.941406 9.367188 C 16.050781 9.375 15.816406 9.472656 15.421875 9.585938 C 14.589844 9.828125 13.839844 10.195312 13.109375 10.714844 C 12.3125 11.285156 12.59375 11.222656 13.472656 10.636719 C 14.925781 9.660156 17.015625 9.242188 17.8125 9.765625 C 18.183594 10.007812 18.296875 9.964844 18.1875 9.617188 C 18.089844 9.320312 17.535156 9.121094 16.8125 9.121094 C 16.089844 9.125 14.765625 9.410156 14.261719 9.671875 C 13.921875 9.84375 13.882812 9.847656 14.015625 9.6875 C 14.128906 9.550781 14.136719 9.480469 14.035156 9.417969 C 13.761719 9.246094 15.921875 8.269531 16.527344 8.285156 C 16.644531 8.289062 16.441406 8.390625 16.078125 8.507812 C 15.339844 8.746094 14.109375 9.347656 14.1875 9.429688 C 14.21875 9.457031 14.5625 9.320312 14.949219 9.121094 C 15.925781 8.625 17.058594 8.355469 17.738281 8.460938 C 18.214844 8.53125 18.269531 8.519531 18.140625 8.363281 C 17.902344 8.074219 17.027344 8.007812 16.152344 8.210938 C 15.21875 8.429688 13.597656 9.214844 13.261719 9.617188 C 13.132812 9.773438 13.101562 9.832031 13.195312 9.75 C 13.410156 9.5625 13.601562 9.554688 13.488281 9.738281 C 13.433594 9.824219 13.457031 9.84375 13.542969 9.789062 C 13.621094 9.742188 13.65625 9.65625 13.621094 9.601562 C 13.585938 9.542969 13.609375 9.460938 13.679688 9.421875 C 13.746094 9.378906 13.800781 9.425781 13.800781 9.523438 C 13.800781 9.714844 13.15625 10.234375 13.050781 10.128906 C 12.976562 10.054688 12.105469 11.21875 12.132812 11.359375 C 12.183594 11.660156 12.113281 11.804688 11.984375 11.671875 C 11.824219 11.511719 12.269531 10.675781 12.765625 10.210938 C 12.933594 10.054688 13.046875 9.882812 13.015625 9.835938 C 12.988281 9.785156 13.042969 9.511719 13.144531 9.222656 C 13.25 8.933594 13.308594 8.605469 13.277344 8.488281 C 13.246094 8.375 13.261719 8.304688 13.3125 8.335938 C 13.398438 8.390625 13.582031 7.566406 13.949219 5.488281 C 14.117188 4.527344 14.027344 4.21875 13.804688 5.011719 C 13.738281 5.257812 13.679688 5.527344 13.679688 5.609375 C 13.679688 5.75 12.679688 8.902344 12.339844 9.839844 L 12.1875 10.261719 L 12.109375 9.898438 C 12.0625 9.703125 12.023438 8.996094 12.015625 8.332031 C 12 7.140625 12.003906 7.121094 12.355469 6.78125 C 12.835938 6.324219 13.003906 5.769531 13.003906 4.613281 C 13.007812 3.769531 12.972656 3.613281 12.734375 3.375 C 12.527344 3.167969 12.425781 3.136719 12.300781 3.238281 C 12.171875 3.347656 12.128906 3.308594 12.097656 3.054688 C 12.078125 2.878906 12.019531 2.777344 11.96875 2.828125 M 12.238281 3.539062 C 12.15625 3.640625 12.113281 3.753906 12.144531 3.785156 C 12.179688 3.820312 12.273438 3.761719 12.359375 3.660156 C 12.445312 3.558594 12.488281 3.445312 12.453125 3.414062 C 12.421875 3.382812 12.324219 3.4375 12.238281 3.539062 M 11.421875 3.707031 C 11.222656 3.828125 11.363281 4.171875 11.683594 4.339844 C 11.824219 4.414062 11.902344 4.433594 11.859375 4.382812 C 11.8125 4.335938 11.828125 4.152344 11.894531 3.980469 C 11.960938 3.808594 11.976562 3.703125 11.929688 3.75 C 11.882812 3.800781 11.78125 3.789062 11.707031 3.726562 C 11.632812 3.664062 11.503906 3.65625 11.421875 3.707031 M 12.292969 4.007812 C 12.09375 4.289062 12.0625 4.679688 12.238281 4.679688 C 12.304688 4.679688 12.359375 4.558594 12.363281 4.410156 C 12.363281 4.261719 12.417969 4.058594 12.484375 3.960938 C 12.574219 3.828125 12.585938 3.863281 12.53125 4.109375 C 12.429688 4.542969 12.542969 4.535156 12.695312 4.101562 C 12.789062 3.828125 12.777344 3.761719 12.640625 3.761719 C 12.542969 3.761719 12.386719 3.871094 12.292969 4.007812 M 11.578125 4.078125 C 11.621094 4.144531 11.679688 4.199219 11.707031 4.199219 C 11.734375 4.199219 11.761719 4.144531 11.761719 4.078125 C 11.761719 4.015625 11.703125 3.960938 11.632812 3.960938 C 11.5625 3.960938 11.539062 4.015625 11.578125 4.078125 M 11.363281 4.59375 C 11.289062 4.808594 11.5 5.160156 11.703125 5.160156 C 11.957031 5.160156 11.921875 4.761719 11.648438 4.59375 C 11.46875 4.480469 11.40625 4.480469 11.363281 4.59375 M 12.371094 4.847656 C 12.152344 5.074219 12 5.332031 12.035156 5.417969 C 12.085938 5.539062 12.105469 5.53125 12.109375 5.390625 C 12.117188 5.285156 12.269531 5.070312 12.449219 4.910156 L 12.78125 4.621094 L 12.511719 4.925781 C 12.363281 5.097656 12.238281 5.300781 12.238281 5.382812 C 12.238281 5.636719 12.71875 5.300781 12.851562 4.953125 C 13.039062 4.457031 12.800781 4.402344 12.371094 4.847656 M 11.574219 5.515625 C 11.808594 5.773438 11.671875 5.863281 11.425781 5.617188 C 11.335938 5.527344 11.28125 5.519531 11.28125 5.597656 C 11.28125 5.667969 11.382812 5.816406 11.503906 5.925781 C 11.703125 6.105469 11.738281 6.109375 11.800781 5.945312 C 11.894531 5.699219 11.785156 5.433594 11.546875 5.34375 C 11.386719 5.28125 11.394531 5.3125 11.574219 5.515625 M 12.167969 5.945312 C 12.058594 6.109375 11.988281 6.269531 12.015625 6.296875 C 12.042969 6.324219 12.15625 6.1875 12.265625 5.992188 C 12.515625 5.5625 12.441406 5.523438 12.167969 5.945312 M 12.429688 6.007812 C 12.261719 6.210938 12.121094 6.496094 12.121094 6.640625 C 12.125 6.894531 12.132812 6.894531 12.359375 6.601562 C 12.578125 6.320312 12.878906 5.640625 12.785156 5.640625 C 12.761719 5.640625 12.601562 5.804688 12.429688 6.007812 M 11.039062 5.96875 C 11.042969 6.089844 11.5 6.839844 11.574219 6.839844 C 11.605469 6.839844 11.597656 6.75 11.554688 6.640625 C 11.503906 6.507812 11.527344 6.46875 11.617188 6.527344 C 11.707031 6.582031 11.734375 6.550781 11.6875 6.433594 C 11.613281 6.234375 11.039062 5.820312 11.039062 5.96875 M 10.699219 6.839844 C 10.699219 7.003906 10.726562 7.074219 10.757812 6.988281 C 10.792969 6.90625 10.792969 6.773438 10.757812 6.691406 C 10.726562 6.609375 10.699219 6.675781 10.699219 6.839844 M 11.785156 7.5 C 11.785156 7.699219 11.8125 7.765625 11.84375 7.648438 C 11.875 7.53125 11.871094 7.367188 11.839844 7.289062 C 11.804688 7.207031 11.78125 7.300781 11.785156 7.5 M 16.472656 9.324219 C 16.589844 9.355469 16.75 9.351562 16.832031 9.320312 C 16.914062 9.285156 16.816406 9.261719 16.621094 9.261719 C 16.421875 9.265625 16.355469 9.292969 16.472656 9.324219 M 7.621094 9.960938 C 7.4375 10.039062 7.507812 10.066406 7.921875 10.070312 C 8.21875 10.074219 8.539062 10.023438 8.640625 9.960938 C 8.871094 9.808594 7.96875 9.808594 7.621094 9.960938 M 11.890625 10.03125 C 11.894531 10.167969 11.921875 10.199219 11.960938 10.101562 C 11.996094 10.015625 11.992188 9.914062 11.953125 9.871094 C 11.914062 9.832031 11.882812 9.902344 11.890625 10.03125 M 9 10.078125 C 8.84375 10.179688 8.847656 10.195312 9.023438 10.199219 C 9.132812 10.199219 9.257812 10.144531 9.300781 10.078125 C 9.394531 9.929688 9.234375 9.929688 9 10.078125 M 9.960938 10.320312 C 9.851562 10.390625 9.835938 10.4375 9.921875 10.4375 C 10 10.4375 10.097656 10.386719 10.140625 10.320312 C 10.230469 10.171875 10.191406 10.171875 9.960938 10.320312 M 12.0625 10.628906 C 11.953125 10.800781 11.882812 10.960938 11.90625 10.988281 C 11.933594 11.011719 12.046875 10.871094 12.164062 10.675781 C 12.421875 10.238281 12.34375 10.203125 12.0625 10.628906 M 8.609375 11.359375 C 8.691406 11.394531 8.828125 11.394531 8.910156 11.359375 C 8.992188 11.328125 8.925781 11.300781 8.761719 11.300781 C 8.59375 11.300781 8.527344 11.328125 8.609375 11.359375 M 9.210938 11.359375 C 9.292969 11.394531 9.425781 11.394531 9.511719 11.359375 C 9.59375 11.328125 9.523438 11.300781 9.359375 11.300781 C 9.195312 11.300781 9.128906 11.328125 9.210938 11.359375 M 15.691406 11.363281 C 15.839844 11.394531 16.058594 11.390625 16.171875 11.363281 C 16.285156 11.332031 16.164062 11.308594 15.898438 11.308594 C 15.636719 11.3125 15.542969 11.335938 15.691406 11.363281 M 7.832031 11.484375 C 7.949219 11.511719 8.109375 11.511719 8.191406 11.480469 C 8.273438 11.445312 8.179688 11.421875 7.980469 11.421875 C 7.78125 11.425781 7.714844 11.453125 7.832031 11.484375 M 9.839844 11.507812 C 9.839844 11.628906 10.265625 11.761719 10.621094 11.75 C 10.78125 11.746094 10.71875 11.6875 10.441406 11.578125 C 9.925781 11.382812 9.839844 11.371094 9.839844 11.507812 M 11.398438 11.625 C 11.398438 11.691406 11.453125 11.777344 11.519531 11.820312 C 11.585938 11.859375 11.640625 11.839844 11.640625 11.773438 C 11.640625 11.707031 11.585938 11.621094 11.519531 11.578125 C 11.453125 11.539062 11.398438 11.558594 11.398438 11.625 M 15.730469 12.042969 C 15.757812 12.066406 16.183594 12.113281 16.679688 12.148438 C 17.1875 12.183594 17.449219 12.171875 17.28125 12.117188 C 16.984375 12.023438 15.632812 11.960938 15.730469 12.042969 M 14.859375 12.203125 C 14.945312 12.238281 15.046875 12.230469 15.085938 12.191406 C 15.128906 12.152344 15.054688 12.125 14.929688 12.128906 C 14.789062 12.136719 14.761719 12.164062 14.859375 12.203125 M 14.136719 12.320312 C 14.222656 12.355469 14.328125 12.351562 14.367188 12.3125 C 14.40625 12.273438 14.335938 12.246094 14.210938 12.25 C 14.070312 12.253906 14.042969 12.285156 14.136719 12.320312 M 9.238281 12.480469 C 9.011719 12.554688 9.109375 12.578125 9.648438 12.589844 C 10.039062 12.59375 10.324219 12.636719 10.277344 12.683594 C 10.195312 12.765625 10.625 12.980469 11.167969 13.128906 L 11.460938 13.210938 L 11.160156 13.019531 C 10.878906 12.84375 10.878906 12.835938 11.128906 12.902344 C 11.539062 13.011719 11.453125 12.851562 11.011719 12.667969 C 10.484375 12.453125 9.605469 12.359375 9.238281 12.480469 M 13.078125 12.652344 C 12.78125 12.808594 12.40625 13.089844 12.238281 13.277344 L 11.941406 13.621094 L 12.238281 13.363281 C 12.40625 13.222656 12.863281 12.941406 13.261719 12.738281 C 13.65625 12.535156 13.898438 12.371094 13.800781 12.371094 C 13.699219 12.371094 13.378906 12.5 13.078125 12.652344 M 11.558594 13.132812 C 11.558594 13.230469 11.605469 13.28125 11.660156 13.246094 C 11.71875 13.210938 11.734375 13.132812 11.695312 13.070312 C 11.597656 12.914062 11.558594 12.933594 11.558594 13.132812 M 13.441406 13.441406 C 13.3125 13.523438 13.382812 13.535156 13.679688 13.484375 C 14.199219 13.386719 14.296875 13.320312 13.910156 13.320312 C 13.75 13.324219 13.539062 13.375 13.441406 13.441406 M 12.839844 13.566406 C 12.839844 13.636719 12.894531 13.660156 12.960938 13.621094 C 13.027344 13.578125 13.078125 13.523438 13.078125 13.492188 C 13.078125 13.464844 13.027344 13.441406 12.960938 13.441406 C 12.894531 13.441406 12.839844 13.496094 12.839844 13.566406 M 8.503906 13.773438 C 8.199219 13.886719 7.820312 14.074219 7.664062 14.1875 C 7.488281 14.3125 7.644531 14.277344 8.0625 14.089844 C 8.550781 13.875 9.089844 13.757812 9.925781 13.691406 L 11.101562 13.59375 L 10.078125 13.582031 C 9.390625 13.574219 8.882812 13.636719 8.503906 13.773438 M 11.410156 13.722656 C 11.4375 13.746094 11.59375 13.832031 11.761719 13.910156 C 12.042969 14.046875 12.046875 14.042969 11.828125 13.867188 C 11.636719 13.714844 11.246094 13.578125 11.410156 13.722656 M 13.59375 13.882812 C 13.710938 13.914062 13.871094 13.910156 13.953125 13.878906 C 14.035156 13.847656 13.9375 13.820312 13.738281 13.824219 C 13.542969 13.824219 13.476562 13.851562 13.59375 13.882812 M 12.9375 14.066406 C 13.003906 14.128906 13.15625 14.160156 13.277344 14.136719 C 13.441406 14.101562 13.410156 14.070312 13.160156 14.019531 C 12.941406 13.972656 12.863281 13.992188 12.9375 14.066406 M 14.039062 14.03125 C 13.769531 14.109375 13.789062 14.125 14.21875 14.183594 C 14.757812 14.253906 14.902344 14.203125 14.636719 14.035156 C 14.4375 13.910156 14.453125 13.910156 14.039062 14.03125 M 11.828125 14.433594 C 11.871094 14.554688 11.941406 14.621094 11.976562 14.582031 C 12.015625 14.546875 11.976562 14.449219 11.894531 14.367188 C 11.777344 14.25 11.761719 14.265625 11.828125 14.433594 M 13.558594 14.363281 C 14.195312 14.480469 14.003906 14.589844 13.246094 14.539062 C 12.660156 14.503906 12.425781 14.535156 12.351562 14.65625 C 12.292969 14.746094 12.152344 14.828125 12.035156 14.835938 C 11.917969 14.847656 11.589844 14.894531 11.308594 14.941406 C 10.960938 15.003906 10.800781 14.988281 10.800781 14.898438 C 10.800781 14.824219 10.894531 14.769531 11.011719 14.78125 C 11.125 14.789062 11.328125 14.785156 11.460938 14.769531 C 11.6875 14.746094 11.6875 14.738281 11.4375 14.640625 C 11.160156 14.527344 10.347656 14.691406 10.140625 14.90625 C 10.058594 14.988281 10.113281 15 10.304688 14.941406 C 10.488281 14.886719 10.5625 14.898438 10.515625 14.976562 C 10.464844 15.054688 10.996094 15.097656 12.0625 15.101562 C 12.953125 15.101562 13.65625 15.058594 13.621094 15.003906 C 13.589844 14.949219 13.644531 14.875 13.746094 14.832031 C 13.851562 14.792969 13.902344 14.8125 13.859375 14.882812 C 13.816406 14.949219 13.925781 15 14.105469 15 C 14.351562 15 14.410156 14.953125 14.351562 14.808594 C 14.296875 14.660156 14.328125 14.632812 14.488281 14.691406 C 14.683594 14.765625 14.6875 14.757812 14.503906 14.574219 C 14.390625 14.460938 14.074219 14.359375 13.78125 14.339844 C 13.496094 14.324219 13.394531 14.335938 13.558594 14.363281 M 9.84375 14.636719 C 9.53125 14.832031 9.792969 14.890625 10.152344 14.703125 C 10.429688 14.558594 10.453125 14.523438 10.261719 14.523438 C 10.128906 14.523438 9.941406 14.574219 9.84375 14.636719 M 12.660156 14.761719 C 12.699219 14.824219 12.757812 14.878906 12.785156 14.878906 C 12.816406 14.878906 12.839844 14.824219 12.839844 14.761719 C 12.839844 14.695312 12.78125 14.640625 12.714844 14.640625 C 12.644531 14.640625 12.621094 14.695312 12.660156 14.761719 M 14.652344 14.914062 C 14.5 15.167969 14.503906 15.171875 14.710938 14.972656 C 14.828125 14.859375 14.898438 14.738281 14.867188 14.707031 C 14.835938 14.675781 14.738281 14.769531 14.652344 14.914062 M 8.503906 15.210938 C 8.355469 15.398438 8.359375 15.40625 8.550781 15.253906 C 8.75 15.097656 8.8125 15 8.714844 15 C 8.691406 15 8.59375 15.09375 8.503906 15.210938 M 14.101562 15.222656 C 14.300781 15.308594 14.261719 15.339844 13.859375 15.398438 C 13.03125 15.519531 11.429688 15.59375 11.820312 15.488281 C 12.058594 15.425781 11.800781 15.398438 11.039062 15.40625 L 9.898438 15.421875 L 10.347656 17.453125 C 10.597656 18.570312 10.878906 19.601562 10.972656 19.746094 C 11.164062 20.035156 11.953125 20.28125 12.707031 20.28125 C 13.417969 20.28125 13.765625 19.917969 13.910156 19.019531 C 14.164062 17.410156 14.410156 16.117188 14.535156 15.742188 C 14.6875 15.277344 14.6875 15.28125 14.21875 15.1875 C 13.953125 15.136719 13.921875 15.144531 14.101562 15.222656 M 13.050781 15.324219 C 13.199219 15.355469 13.417969 15.351562 13.53125 15.324219 C 13.644531 15.292969 13.523438 15.269531 13.261719 15.269531 C 12.996094 15.273438 12.902344 15.296875 13.050781 15.324219 M 13.441406 15.746094 C 12.792969 15.917969 12.75 15.941406 13.199219 15.886719 C 13.496094 15.851562 13.824219 15.800781 13.925781 15.769531 C 14.074219 15.730469 14.105469 15.8125 14.078125 16.167969 L 14.046875 16.621094 L 14.167969 16.148438 C 14.230469 15.886719 14.269531 15.644531 14.253906 15.609375 C 14.234375 15.570312 13.867188 15.632812 13.441406 15.746094 M 10.457031 16.949219 C 10.699219 18.285156 10.839844 18.738281 10.738281 17.878906 C 10.628906 16.921875 10.390625 15.71875 10.308594 15.71875 C 10.265625 15.71875 10.332031 16.273438 10.457031 16.949219 M 10.660156 15.777344 C 10.628906 15.8125 10.671875 16.339844 10.761719 16.949219 C 11.007812 18.644531 11.472656 19.921875 11.835938 19.921875 C 11.992188 19.921875 11.984375 19.882812 11.789062 19.710938 C 11.457031 19.414062 11.164062 18.59375 10.96875 17.398438 C 10.761719 16.132812 10.75 15.703125 10.929688 15.960938 C 11.035156 16.105469 11.050781 16.109375 11.011719 15.96875 C 10.960938 15.78125 10.765625 15.675781 10.660156 15.777344 M 13.578125 19.339844 C 13.566406 19.519531 13.476562 19.746094 13.371094 19.851562 C 13.269531 19.957031 13.234375 20.039062 13.296875 20.039062 C 13.519531 20.039062 13.695312 19.691406 13.648438 19.355469 L 13.597656 19.019531 L 13.578125 19.339844 "/>
</g>
</svg>
