<?xml version="1.0" encoding="UTF-8"?>
<svg xmlns="http://www.w3.org/2000/svg" xmlns:xlink="http://www.w3.org/1999/xlink" width="100px" height="100px" viewBox="0 0 100 100" version="1.1">
<g id="surface1">
<path style=" stroke:none;fill-rule:evenodd;fill:rgb(0%,0%,0%);fill-opacity:1;" d="M 49.875 11.785156 C 49.667969 11.996094 49.5 12.847656 49.5 13.683594 C 49.5 14.863281 49.367188 15.066406 48.898438 14.601562 C 48.570312 14.269531 47.789062 14 47.164062 14 C 46.046875 14 46.03125 14.078125 46.226562 18.96875 C 46.390625 23.117188 46.304688 23.894531 45.710938 23.664062 C 44.328125 23.132812 45.386719 26.351562 47.304688 28.5 C 48.308594 29.625 48.441406 30.398438 48.625 36.167969 C 48.78125 40.988281 49.011719 42.699219 49.542969 43.035156 C 50.082031 43.378906 50.097656 43.488281 49.59375 43.492188 C 49.214844 43.496094 49.089844 43.761719 49.300781 44.125 C 49.507812 44.488281 49.46875 44.574219 49.203125 44.332031 C 48.953125 44.105469 48.742188 43.765625 48.730469 43.582031 C 48.71875 43.398438 48.3125 42.503906 47.824219 41.59375 C 46.976562 40 44.988281 32.039062 45.054688 30.5 C 45.074219 30.085938 45.710938 32.285156 46.46875 35.382812 C 47.226562 38.480469 48.027344 41.179688 48.25 41.382812 C 48.46875 41.585938 48.492188 41.1875 48.304688 40.5 C 46.863281 35.214844 44.460938 23.621094 44.191406 20.652344 C 43.71875 15.417969 42.949219 16.699219 43.289062 22.152344 C 43.777344 30 46.425781 41.984375 48.054688 43.726562 C 49.164062 44.910156 48.160156 46.980469 46.875 46.160156 C 46.53125 45.945312 46.097656 45.761719 45.914062 45.757812 C 45.730469 45.753906 45.019531 45.261719 44.332031 44.664062 C 43.648438 44.070312 42.953125 43.671875 42.789062 43.785156 C 42.625 43.898438 42.71875 43.722656 42.992188 43.398438 C 43.367188 42.953125 44.097656 43.222656 45.871094 44.460938 L 48.25 46.117188 L 46.78125 44.558594 C 44.5 42.136719 41.761719 41.0625 36.894531 40.691406 C 32.847656 40.378906 32.367188 40.449219 29.828125 41.691406 C 28.328125 42.425781 26.515625 43.792969 25.800781 44.730469 C 23.949219 47.152344 24.191406 47.394531 26.433594 45.367188 C 28.992188 43.058594 31.40625 42.308594 35.199219 42.648438 C 39.710938 43.050781 43.019531 44.242188 45.5 46.363281 C 46.714844 47.402344 47.511719 47.914062 47.269531 47.5 C 46.980469 47.011719 47.195312 47.070312 47.878906 47.671875 C 48.457031 48.179688 48.898438 49.011719 48.859375 49.527344 C 48.796875 50.371094 48.707031 50.390625 47.949219 49.707031 C 45.085938 47.113281 35.777344 45.683594 31.753906 47.222656 C 30.417969 47.730469 29.628906 48.304688 29.824219 48.621094 C 30.015625 48.933594 29.917969 49.007812 29.585938 48.804688 C 28.863281 48.355469 26.875 49.394531 27.261719 50.019531 C 27.421875 50.277344 27.246094 50.371094 26.871094 50.226562 C 26.296875 50.007812 23 53.792969 23 54.675781 C 23 54.816406 24.121094 53.84375 25.488281 52.511719 C 29.800781 48.3125 35.75 47.253906 42.859375 49.417969 C 46.199219 50.4375 49.617188 52.546875 48.972656 53.191406 C 48.820312 53.347656 47.804688 53.03125 46.71875 52.492188 C 43.628906 50.964844 40.464844 50.730469 36.609375 51.742188 C 32.429688 52.835938 29.414062 54.523438 27.765625 56.683594 C 25.898438 59.132812 26.222656 59.367188 28.554688 57.257812 C 33.058594 53.191406 38.269531 52.417969 45.039062 54.8125 C 47.082031 55.53125 48.976562 56.351562 49.25 56.636719 C 49.589844 56.984375 49.429688 57.027344 48.75 56.769531 C 48.199219 56.558594 45.710938 56.273438 43.21875 56.132812 C 37.507812 55.804688 33.8125 56.769531 30.988281 59.320312 C 28.933594 61.175781 26.699219 64.367188 27.144531 64.8125 C 27.285156 64.953125 27.8125 64.375 28.316406 63.523438 C 30.386719 60.015625 35.128906 58.011719 42 57.742188 C 44.613281 57.640625 46.242188 57.671875 45.617188 57.8125 C 44.996094 57.957031 44.589844 58.238281 44.714844 58.445312 C 44.84375 58.652344 44.226562 58.722656 43.347656 58.605469 C 41.804688 58.398438 41.785156 58.421875 42.75 59.203125 C 43.710938 59.984375 43.699219 59.996094 42.445312 59.460938 C 41.40625 59.015625 40.8125 59.070312 39.554688 59.722656 C 38.679688 60.171875 38.097656 60.753906 38.257812 61.015625 C 38.421875 61.277344 38.238281 61.367188 37.855469 61.222656 C 36.234375 60.597656 30.914062 69.175781 31.671875 71.195312 C 31.785156 71.5 32.136719 71.074219 32.453125 70.25 C 34.089844 65.96875 37.835938 61.53125 39.136719 62.335938 C 39.464844 62.535156 40.074219 62.757812 40.492188 62.824219 C 46.195312 63.738281 46.738281 63.875 44.90625 63.9375 C 43.894531 63.972656 42.457031 63.769531 41.714844 63.484375 C 40.011719 62.839844 39.84375 63.019531 40.511719 64.78125 C 40.808594 65.558594 41.832031 69.6875 42.789062 73.957031 C 44.683594 82.425781 45.332031 83.628906 48.464844 84.496094 C 53.339844 85.851562 57.730469 84.453125 58.199219 81.398438 C 59.734375 71.367188 61.894531 61.511719 62.761719 60.585938 C 63.0625 60.261719 65.277344 61.644531 66.875 63.15625 C 67.769531 64.003906 68.5 64.515625 68.5 64.292969 C 68.5 64.074219 67.429688 62.882812 66.125 61.652344 C 64.820312 60.421875 64.199219 59.636719 64.75 59.914062 C 66.246094 60.660156 68.621094 63.320312 68.714844 64.347656 C 68.863281 65.953125 70.144531 69.5 70.578125 69.5 C 71.492188 69.5 70.914062 66.613281 69.503906 64.15625 C 67.539062 60.734375 65.246094 59.066406 60.589844 57.691406 L 56.75 56.554688 L 59 56.449219 C 66.828125 56.089844 70.640625 57.222656 72.847656 60.558594 C 74.324219 62.789062 74.5 62.886719 74.5 61.472656 C 74.5 60.90625 73.542969 59.449219 72.375 58.234375 C 70.480469 56.265625 69.898438 55.96875 67 55.515625 C 60.050781 54.429688 50.691406 55.285156 51.699219 56.914062 C 51.847656 57.15625 51.625 57.78125 51.207031 58.300781 C 50.484375 59.199219 50.472656 59.191406 50.988281 58.125 C 51.289062 57.507812 51.375 57 51.179688 57 C 50.984375 57 51.335938 56.457031 51.960938 55.789062 C 54.582031 53.003906 63.027344 50.71875 68.742188 51.253906 C 73.035156 51.660156 75.027344 52.453125 76.1875 54.226562 C 76.679688 54.972656 77.203125 55.460938 77.359375 55.308594 C 77.964844 54.703125 76.375 52.179688 74.644531 51 C 72.921875 49.828125 72.441406 49.753906 67.027344 49.835938 C 63.851562 49.882812 60.070312 50.242188 58.625 50.636719 C 57.179688 51.03125 56 51.265625 56 51.160156 C 56 50.550781 61.253906 48.882812 65.183594 48.246094 C 70.90625 47.316406 73.375 47.3125 75.125 48.222656 C 76.324219 48.847656 76.5 48.847656 76.5 48.210938 C 76.5 47.8125 75.710938 47.109375 74.75 46.648438 C 73.199219 45.910156 72.320312 45.878906 67.125 46.367188 C 61.046875 46.941406 57.445312 47.875 54.597656 49.609375 C 52.035156 51.167969 52.953125 51.097656 56.261719 49.480469 C 57.90625 48.675781 60.148438 47.929688 61.25 47.824219 C 62.351562 47.714844 62.800781 47.734375 62.25 47.859375 C 59.570312 48.488281 53.523438 51.769531 51.625 53.628906 C 49.011719 56.1875 48.78125 55.527344 51.367188 52.882812 C 52.835938 51.378906 53.019531 51.003906 52.242188 51.125 C 51.695312 51.210938 50.914062 51.484375 50.5 51.734375 C 49.847656 52.132812 49.84375 52.078125 50.445312 51.335938 C 50.828125 50.863281 51.253906 50.589844 51.394531 50.726562 C 51.53125 50.863281 52.441406 50.277344 53.421875 49.417969 C 57.105469 46.183594 65.070312 43.773438 72.125 43.757812 C 74.53125 43.753906 76.5 43.617188 76.5 43.457031 C 76.5 42.9375 73.941406 41.972656 71.777344 41.675781 C 68.027344 41.160156 54.695312 45.199219 52.882812 47.398438 C 52.535156 47.816406 52.476562 48.058594 52.75 47.929688 C 53.023438 47.800781 54.734375 46.992188 56.546875 46.128906 C 60.578125 44.210938 67.160156 42.476562 70.082031 42.5625 C 72.070312 42.621094 72 42.660156 69.234375 43.019531 C 63.039062 43.832031 56.4375 46.074219 52.851562 48.589844 C 51.769531 49.347656 51.472656 49.433594 51.9375 48.855469 C 52.457031 48.207031 52.472656 48 52 48 C 51.503906 48 51.503906 47.847656 52 47.25 C 52.34375 46.835938 52.441406 46.5 52.21875 46.5 C 51.457031 46.5 54.746094 43.410156 56.75 42.25 C 58.859375 41.023438 65.03125 38.976562 66.425781 39.035156 C 66.878906 39.054688 65.898438 39.464844 64.25 39.945312 C 60.796875 40.949219 57.65625 42.484375 54.625 44.652344 C 51.296875 47.027344 52.476562 46.761719 56.128906 44.3125 C 62.191406 40.246094 70.890625 38.503906 74.222656 40.6875 C 75.773438 41.703125 76.234375 41.523438 75.773438 40.078125 C 75.382812 38.835938 73.058594 37.996094 70.050781 38.007812 C 67.039062 38.019531 61.519531 39.203125 59.417969 40.292969 C 58.011719 41.019531 57.851562 41.03125 58.398438 40.371094 C 58.875 39.796875 58.898438 39.496094 58.476562 39.234375 C 57.339844 38.53125 66.339844 34.449219 68.859375 34.527344 C 69.347656 34.542969 68.511719 34.953125 67 35.445312 C 63.921875 36.441406 58.78125 38.949219 59.121094 39.289062 C 59.242188 39.410156 60.671875 38.832031 62.296875 38.007812 C 66.363281 35.941406 71.070312 34.824219 73.917969 35.25 C 75.898438 35.546875 76.117188 35.492188 75.582031 34.851562 C 74.585938 33.648438 70.953125 33.371094 67.308594 34.21875 C 63.402344 35.125 56.65625 38.402344 55.261719 40.070312 C 54.71875 40.71875 54.597656 40.96875 54.988281 40.625 C 55.882812 39.839844 56.675781 39.808594 56.203125 40.578125 C 55.980469 40.9375 56.066406 41.019531 56.429688 40.792969 C 56.753906 40.59375 56.898438 40.238281 56.75 40 C 56.601562 39.761719 56.710938 39.429688 56.992188 39.253906 C 57.273438 39.082031 57.5 39.277344 57.5 39.6875 C 57.5 40.476562 54.816406 42.648438 54.378906 42.210938 C 54.066406 41.898438 50.441406 46.742188 50.546875 47.335938 C 50.761719 48.578125 50.476562 49.179688 49.933594 48.632812 C 49.261719 47.960938 51.125 44.476562 53.1875 42.550781 C 53.890625 41.894531 54.363281 41.1875 54.238281 40.980469 C 54.109375 40.773438 54.351562 39.625 54.777344 38.429688 C 55.199219 37.230469 55.445312 35.855469 55.320312 35.375 C 55.195312 34.890625 55.261719 34.605469 55.472656 34.734375 C 55.832031 34.953125 56.597656 31.53125 58.121094 22.875 C 58.828125 18.867188 58.441406 17.574219 57.527344 20.875 C 57.238281 21.90625 57.003906 23.03125 57.003906 23.375 C 57 23.960938 52.839844 37.097656 51.421875 41 L 50.785156 42.75 L 50.453125 41.25 C 50.269531 40.425781 50.089844 37.484375 50.058594 34.71875 C 50 29.757812 50.019531 29.667969 51.488281 28.261719 C 53.488281 26.34375 54.179688 24.035156 54.191406 19.226562 C 54.199219 15.703125 54.058594 15.058594 53.066406 14.066406 C 52.191406 13.191406 51.777344 13.0625 51.253906 13.496094 C 50.710938 13.945312 50.539062 13.789062 50.410156 12.734375 C 50.324219 12.003906 50.082031 11.574219 49.875 11.785156 M 51 14.75 C 50.648438 15.175781 50.46875 15.636719 50.609375 15.773438 C 50.746094 15.910156 51.148438 15.675781 51.5 15.25 C 51.851562 14.824219 52.03125 14.363281 51.890625 14.226562 C 51.753906 14.089844 51.351562 14.324219 51 14.75 M 47.589844 15.445312 C 46.761719 15.957031 47.351562 17.390625 48.683594 18.082031 C 49.269531 18.386719 49.59375 18.46875 49.40625 18.265625 C 49.21875 18.0625 49.289062 17.304688 49.5625 16.585938 C 49.835938 15.863281 49.898438 15.433594 49.703125 15.632812 C 49.503906 15.828125 49.089844 15.78125 48.777344 15.523438 C 48.46875 15.265625 47.933594 15.230469 47.589844 15.445312 M 51.21875 16.695312 C 50.390625 17.878906 50.265625 19.5 51 19.5 C 51.273438 19.5 51.503906 18.992188 51.507812 18.375 C 51.511719 17.757812 51.742188 16.914062 52.023438 16.5 C 52.398438 15.945312 52.449219 16.105469 52.210938 17.125 C 51.792969 18.925781 52.265625 18.898438 52.894531 17.082031 C 53.289062 15.953125 53.242188 15.667969 52.664062 15.667969 C 52.265625 15.667969 51.617188 16.128906 51.21875 16.695312 M 48.25 17 C 48.421875 17.273438 48.65625 17.5 48.78125 17.5 C 48.902344 17.5 49 17.273438 49 17 C 49 16.726562 48.761719 16.5 48.46875 16.5 C 48.179688 16.5 48.078125 16.726562 48.25 17 M 47.351562 19.144531 C 47.035156 20.027344 47.917969 21.5 48.765625 21.5 C 49.828125 21.5 49.667969 19.84375 48.535156 19.136719 C 47.78125 18.667969 47.523438 18.667969 47.351562 19.144531 M 51.542969 20.207031 C 50.632812 21.144531 50.007812 22.214844 50.15625 22.582031 C 50.351562 23.070312 50.429688 23.039062 50.460938 22.460938 C 50.480469 22.027344 51.117188 21.128906 51.875 20.460938 L 53.25 19.25 L 52.125 20.53125 C 51.507812 21.238281 51 22.089844 51 22.425781 C 51 23.480469 52.992188 22.082031 53.542969 20.636719 C 54.332031 18.566406 53.339844 18.351562 51.542969 20.207031 M 48.230469 22.976562 C 49.203125 24.054688 48.632812 24.433594 47.601562 23.398438 C 47.230469 23.03125 47 23.003906 47 23.324219 C 47 23.609375 47.421875 24.226562 47.9375 24.695312 C 48.769531 25.445312 48.910156 25.453125 49.171875 24.773438 C 49.566406 23.742188 49.105469 22.648438 48.113281 22.265625 C 47.449219 22.011719 47.472656 22.140625 48.230469 22.976562 M 50.695312 24.765625 C 50.238281 25.460938 49.957031 26.121094 50.066406 26.234375 C 50.179688 26.34375 50.648438 25.773438 51.109375 24.96875 C 52.144531 23.171875 51.835938 23.023438 50.695312 24.765625 M 51.792969 25.039062 C 51.082031 25.882812 50.503906 27.066406 50.511719 27.664062 C 50.523438 28.722656 50.546875 28.71875 51.496094 27.5 C 52.410156 26.328125 53.664062 23.5 53.269531 23.5 C 53.167969 23.5 52.507812 24.191406 51.792969 25.039062 M 46.003906 24.863281 C 46.003906 25.375 47.917969 28.5 48.226562 28.5 C 48.359375 28.5 48.324219 28.125 48.148438 27.667969 C 47.9375 27.113281 48.023438 26.953125 48.410156 27.195312 C 48.78125 27.425781 48.886719 27.285156 48.703125 26.804688 C 48.382812 25.972656 46 24.257812 46.003906 24.863281 M 44.578125 28.5 C 44.578125 29.1875 44.691406 29.46875 44.832031 29.125 C 44.96875 28.78125 44.96875 28.21875 44.832031 27.875 C 44.691406 27.53125 44.578125 27.8125 44.578125 28.5 M 49.097656 31.25 C 49.109375 32.074219 49.21875 32.351562 49.347656 31.867188 C 49.472656 31.378906 49.464844 30.703125 49.328125 30.367188 C 49.191406 30.027344 49.085938 30.425781 49.097656 31.25 M 68.632812 38.847656 C 69.121094 38.972656 69.796875 38.964844 70.132812 38.828125 C 70.472656 38.691406 70.074219 38.585938 69.25 38.597656 C 68.425781 38.609375 68.148438 38.71875 68.632812 38.847656 M 31.75 41.5 C 30.988281 41.828125 31.289062 41.9375 33 41.957031 C 34.238281 41.972656 35.585938 41.765625 36 41.5 C 36.96875 40.875 33.207031 40.875 31.75 41.5 M 49.539062 41.792969 C 49.5625 42.375 49.683594 42.492188 49.839844 42.09375 C 49.984375 41.734375 49.96875 41.300781 49.800781 41.136719 C 49.636719 40.96875 49.519531 41.265625 49.539062 41.792969 M 37.5 42 C 36.851562 42.417969 36.867188 42.484375 37.59375 42.492188 C 38.058594 42.496094 38.578125 42.273438 38.75 42 C 39.140625 41.367188 38.480469 41.367188 37.5 42 M 41.5 43 C 41.050781 43.289062 40.988281 43.488281 41.34375 43.492188 C 41.671875 43.496094 42.078125 43.273438 42.25 43 C 42.632812 42.378906 42.460938 42.378906 41.5 43 M 50.265625 44.292969 C 49.800781 45.003906 49.507812 45.671875 49.613281 45.777344 C 49.714844 45.882812 50.195312 45.300781 50.679688 44.484375 C 51.757812 42.660156 51.433594 42.511719 50.265625 44.292969 M 35.875 47.332031 C 36.21875 47.46875 36.78125 47.46875 37.125 47.332031 C 37.46875 47.191406 37.1875 47.078125 36.5 47.078125 C 35.8125 47.078125 35.53125 47.191406 35.875 47.332031 M 38.375 47.332031 C 38.71875 47.46875 39.28125 47.46875 39.625 47.332031 C 39.96875 47.191406 39.6875 47.078125 39 47.078125 C 38.3125 47.078125 38.03125 47.191406 38.375 47.332031 M 65.382812 47.351562 C 66.003906 47.472656 66.902344 47.46875 67.382812 47.34375 C 67.859375 47.21875 67.351562 47.121094 66.25 47.125 C 65.148438 47.132812 64.757812 47.234375 65.382812 47.351562 M 32.632812 47.847656 C 33.121094 47.972656 33.796875 47.964844 34.132812 47.828125 C 34.472656 47.691406 34.074219 47.585938 33.25 47.597656 C 32.425781 47.609375 32.148438 47.71875 32.632812 47.847656 M 41 47.941406 C 41 48.449219 42.773438 49 44.25 48.953125 C 44.917969 48.933594 44.667969 48.699219 43.5 48.25 C 41.351562 47.421875 41 47.378906 41 47.941406 M 47.5 48.441406 C 47.5 48.714844 47.726562 49.078125 48 49.25 C 48.273438 49.421875 48.5 49.335938 48.5 49.058594 C 48.5 48.785156 48.273438 48.421875 48 48.25 C 47.726562 48.078125 47.5 48.164062 47.5 48.441406 M 65.542969 50.179688 C 65.65625 50.28125 67.4375 50.476562 69.5 50.621094 C 71.617188 50.769531 72.707031 50.710938 72 50.492188 C 70.761719 50.101562 65.140625 49.832031 65.542969 50.179688 M 61.90625 50.839844 C 62.265625 50.984375 62.699219 50.96875 62.863281 50.800781 C 63.03125 50.636719 62.734375 50.519531 62.207031 50.539062 C 61.625 50.5625 61.507812 50.683594 61.90625 50.839844 M 58.90625 51.339844 C 59.265625 51.484375 59.699219 51.46875 59.863281 51.300781 C 60.03125 51.136719 59.734375 51.019531 59.207031 51.039062 C 58.625 51.0625 58.507812 51.183594 58.90625 51.339844 M 38.5 51.996094 C 37.546875 52.304688 37.953125 52.410156 40.207031 52.449219 C 41.835938 52.476562 43.011719 52.652344 42.824219 52.839844 C 42.480469 53.183594 44.273438 54.089844 46.53125 54.707031 L 47.75 55.042969 L 46.5 54.25 C 45.332031 53.511719 45.324219 53.476562 46.375 53.761719 C 48.074219 54.222656 47.722656 53.539062 45.875 52.785156 C 43.679688 51.890625 40.027344 51.5 38.5 51.996094 M 54.5 52.722656 C 53.261719 53.371094 51.6875 54.542969 51 55.324219 L 49.75 56.75 L 51 55.679688 C 51.6875 55.089844 53.601562 53.921875 55.25 53.078125 C 56.898438 52.238281 57.914062 51.546875 57.5 51.546875 C 57.085938 51.546875 55.738281 52.078125 54.5 52.722656 M 48.167969 54.726562 C 48.167969 55.128906 48.359375 55.339844 48.589844 55.195312 C 48.824219 55.050781 48.886719 54.722656 48.726562 54.464844 C 48.324219 53.8125 48.167969 53.886719 48.167969 54.726562 M 56 56.007812 C 55.472656 56.351562 55.769531 56.402344 57 56.175781 C 59.15625 55.78125 59.5625 55.496094 57.957031 55.507812 C 57.292969 55.511719 56.414062 55.738281 56 56.007812 M 53.5 56.53125 C 53.5 56.820312 53.726562 56.921875 54 56.75 C 54.273438 56.578125 54.5 56.34375 54.5 56.21875 C 54.5 56.097656 54.273438 56 54 56 C 53.726562 56 53.5 56.238281 53.5 56.53125 M 35.4375 57.394531 C 34.167969 57.867188 32.59375 58.636719 31.9375 59.113281 C 31.207031 59.640625 31.851562 59.488281 33.601562 58.710938 C 35.625 57.816406 37.875 57.332031 41.351562 57.042969 L 46.25 56.640625 L 42 56.589844 C 39.121094 56.558594 37.003906 56.816406 35.4375 57.394531 M 47.542969 57.183594 C 47.65625 57.28125 48.3125 57.632812 49 57.960938 C 50.179688 58.519531 50.195312 58.511719 49.28125 57.777344 C 48.484375 57.140625 46.855469 56.582031 47.542969 57.183594 M 56.632812 57.847656 C 57.121094 57.972656 57.796875 57.964844 58.132812 57.828125 C 58.472656 57.691406 58.074219 57.585938 57.25 57.597656 C 56.425781 57.609375 56.148438 57.71875 56.632812 57.847656 M 53.910156 58.609375 C 54.175781 58.875 54.8125 59.003906 55.320312 58.898438 C 56.007812 58.75 55.882812 58.625 54.835938 58.414062 C 53.925781 58.226562 53.597656 58.296875 53.910156 58.609375 M 58.5 58.464844 C 57.375 58.792969 57.449219 58.855469 59.25 59.09375 C 61.484375 59.390625 62.085938 59.175781 60.984375 58.480469 C 60.164062 57.960938 60.222656 57.960938 58.5 58.464844 M 49.28125 60.148438 C 49.46875 60.640625 49.75 60.917969 49.902344 60.761719 C 50.058594 60.609375 49.902344 60.207031 49.5625 59.867188 C 49.066406 59.375 49.011719 59.433594 49.28125 60.148438 M 56.5 59.851562 C 59.152344 60.332031 58.34375 60.789062 55.191406 60.585938 C 52.746094 60.429688 51.773438 60.554688 51.460938 61.0625 C 51.226562 61.441406 50.636719 61.785156 50.144531 61.824219 C 49.652344 61.867188 48.292969 62.0625 47.125 62.261719 C 45.675781 62.511719 45 62.449219 45 62.070312 C 45 61.761719 45.394531 61.546875 45.875 61.585938 C 46.355469 61.625 47.199219 61.609375 47.75 61.546875 C 48.703125 61.441406 48.699219 61.417969 47.664062 61 C 46.5 60.53125 43.117188 61.21875 42.25 62.101562 C 41.910156 62.449219 42.132812 62.496094 42.9375 62.253906 C 43.695312 62.023438 44.011719 62.078125 43.8125 62.402344 C 43.605469 62.734375 45.8125 62.910156 50.253906 62.917969 C 53.972656 62.921875 56.898438 62.742188 56.757812 62.515625 C 56.621094 62.289062 56.851562 61.972656 57.277344 61.808594 C 57.722656 61.636719 57.921875 61.722656 57.746094 62.003906 C 57.574219 62.285156 58.023438 62.5 58.773438 62.5 C 59.792969 62.5 60.035156 62.3125 59.796875 61.695312 C 59.5625 61.082031 59.699219 60.96875 60.371094 61.222656 C 61.1875 61.53125 61.191406 61.496094 60.425781 60.722656 C 59.96875 60.257812 58.640625 59.828125 57.425781 59.757812 C 56.230469 59.683594 55.8125 59.726562 56.5 59.851562 M 41.015625 60.980469 C 39.710938 61.804688 40.800781 62.042969 42.300781 61.261719 C 43.460938 60.65625 43.550781 60.507812 42.75 60.511719 C 42.199219 60.511719 41.417969 60.722656 41.015625 60.980469 M 52.75 61.5 C 52.921875 61.773438 53.15625 62 53.28125 62 C 53.402344 62 53.5 61.773438 53.5 61.5 C 53.5 61.226562 53.261719 61 52.96875 61 C 52.679688 61 52.578125 61.226562 52.75 61.5 M 61.050781 62.148438 C 60.417969 63.199219 60.429688 63.210938 61.289062 62.386719 C 61.785156 61.910156 62.082031 61.414062 61.953125 61.285156 C 61.820312 61.152344 61.414062 61.542969 61.050781 62.148438 M 35.4375 63.375 C 34.816406 64.167969 34.832031 64.183594 35.625 63.5625 C 36.457031 62.910156 36.722656 62.5 36.3125 62.5 C 36.207031 62.5 35.8125 62.894531 35.4375 63.375 M 58.75 63.421875 C 59.589844 63.789062 59.429688 63.90625 57.75 64.15625 C 54.304688 64.664062 47.628906 64.96875 49.25 64.542969 C 50.25 64.277344 49.164062 64.164062 45.992188 64.199219 L 41.238281 64.25 L 43.121094 72.714844 C 44.15625 77.371094 45.324219 81.671875 45.71875 82.273438 C 46.515625 83.484375 49.804688 84.5 52.945312 84.5 C 55.914062 84.5 57.359375 82.988281 57.953125 79.25 C 59.015625 72.539062 60.042969 67.15625 60.554688 65.589844 C 61.191406 63.65625 61.199219 63.671875 59.25 63.28125 C 58.140625 63.0625 58.011719 63.097656 58.75 63.421875 M 54.382812 63.851562 C 55.003906 63.972656 55.902344 63.96875 56.382812 63.84375 C 56.859375 63.71875 56.351562 63.621094 55.25 63.625 C 54.148438 63.632812 53.757812 63.734375 54.382812 63.851562 M 56 65.605469 C 53.296875 66.320312 53.128906 66.421875 55 66.195312 C 56.238281 66.046875 57.597656 65.828125 58.023438 65.710938 C 58.640625 65.539062 58.773438 65.882812 58.664062 67.371094 L 58.53125 69.25 L 59.027344 67.285156 C 59.300781 66.203125 59.460938 65.1875 59.386719 65.03125 C 59.3125 64.875 57.789062 65.132812 56 65.605469 M 43.570312 70.625 C 44.585938 76.191406 45.160156 78.085938 44.75 74.5 C 44.289062 70.515625 43.292969 65.5 42.957031 65.5 C 42.777344 65.5 43.054688 67.804688 43.570312 70.625 M 44.425781 65.742188 C 44.28125 65.886719 44.46875 68.085938 44.839844 70.628906 C 45.875 77.679688 47.800781 83 49.316406 83 C 49.964844 83 49.929688 82.839844 49.117188 82.125 C 47.730469 80.898438 46.515625 77.476562 45.699219 72.5 C 44.835938 67.226562 44.789062 65.433594 45.546875 66.5 C 45.976562 67.109375 46.039062 67.117188 45.882812 66.53125 C 45.671875 65.757812 44.851562 65.3125 44.425781 65.742188 M 56.574219 80.589844 C 56.535156 81.324219 56.148438 82.28125 55.714844 82.714844 C 55.28125 83.148438 55.140625 83.5 55.402344 83.5 C 56.324219 83.5 57.070312 82.042969 56.859375 80.65625 L 56.648438 79.25 L 56.574219 80.589844 "/>
</g>
</svg>
