<?xml version="1.0" encoding="UTF-8"?>
<svg xmlns="http://www.w3.org/2000/svg" xmlns:xlink="http://www.w3.org/1999/xlink" width="24px" height="24px" viewBox="0 0 24 24" version="1.1">
<g id="surface1">
<path style=" stroke:none;fill-rule:evenodd;fill:rgb(0%,0%,0%);fill-opacity:1;" d="M 13.734375 2.523438 C 13.542969 2.738281 13.53125 2.820312 13.664062 3.183594 C 13.910156 3.855469 13.5625 4.550781 13.226562 4.070312 C 13.125 3.921875 13.089844 3.703125 13.140625 3.484375 C 13.25 2.984375 13.027344 2.640625 12.597656 2.640625 C 12.355469 2.640625 12.183594 2.734375 12.050781 2.941406 C 11.867188 3.21875 11.867188 3.261719 12.050781 3.539062 C 12.164062 3.714844 12.359375 3.839844 12.523438 3.839844 C 12.878906 3.839844 13.1875 4.363281 13 4.65625 C 12.796875 4.980469 12.519531 4.96875 12.433594 4.628906 C 12.277344 4.015625 11.40625 3.949219 11.25 4.542969 C 11.117188 5.046875 11.832031 5.519531 12.1875 5.164062 C 12.25 5.101562 12.367188 5.089844 12.445312 5.140625 C 12.558594 5.207031 12.554688 5.355469 12.425781 5.785156 C 12.136719 6.738281 11.28125 14.652344 11.28125 16.34375 C 11.28125 16.964844 11.304688 17.039062 11.523438 17.039062 C 11.65625 17.039062 11.789062 16.972656 11.8125 16.890625 C 11.839844 16.808594 11.917969 15.417969 11.992188 13.800781 C 12.0625 12.183594 12.175781 10.519531 12.246094 10.101562 C 12.382812 9.253906 12.992188 7.628906 13.054688 7.941406 C 13.101562 8.183594 13.347656 8.292969 13.550781 8.164062 C 13.785156 8.019531 13.648438 7.617188 13.367188 7.628906 C 13.136719 7.632812 13.144531 7.585938 13.523438 6.726562 C 13.882812 5.910156 14.136719 5.664062 14.261719 6.011719 C 14.414062 6.433594 15.046875 6.625 15.335938 6.335938 C 15.523438 6.148438 15.523438 5.609375 15.335938 5.425781 C 15.160156 5.25 14.5625 5.234375 14.460938 5.398438 C 14.3125 5.640625 14.039062 5.519531 14.039062 5.21875 C 14.039062 4.820312 14.492188 4.59375 14.871094 4.796875 C 15.085938 4.910156 15.195312 4.898438 15.429688 4.746094 C 15.785156 4.511719 15.808594 4.078125 15.476562 3.777344 C 15.152344 3.484375 14.621094 3.652344 14.519531 4.082031 C 14.480469 4.246094 14.347656 4.398438 14.226562 4.421875 C 13.878906 4.488281 14.078125 3.773438 14.519531 3.359375 C 14.898438 3.003906 14.90625 2.722656 14.539062 2.429688 C 14.269531 2.210938 13.988281 2.246094 13.734375 2.523438 M 4.625 6.988281 C 4.523438 7.132812 4.441406 7.363281 4.441406 7.496094 C 4.449219 7.96875 4.898438 8.730469 5.445312 9.1875 C 5.835938 9.511719 6.050781 9.8125 6.183594 10.214844 C 6.386719 10.824219 7.261719 12.152344 8.148438 13.183594 C 9.1875 14.402344 9.859375 15.300781 10.347656 16.132812 C 10.808594 16.917969 10.84375 16.949219 10.945312 16.671875 C 11.140625 16.148438 11.203125 12.398438 11.046875 10.859375 C 10.8125 8.589844 10.570312 8.242188 9.308594 8.359375 C 8.632812 8.425781 8.503906 8.394531 7.710938 7.996094 C 7.234375 7.753906 6.695312 7.558594 6.511719 7.558594 C 6.316406 7.558594 5.96875 7.386719 5.652344 7.140625 C 5.035156 6.648438 4.878906 6.625 4.625 6.988281 M 11.40625 7.132812 C 11.222656 7.351562 11.339844 7.558594 11.640625 7.558594 C 11.765625 7.558594 11.902344 7.503906 11.941406 7.433594 C 12.023438 7.304688 11.800781 6.960938 11.640625 6.960938 C 11.589844 6.960938 11.484375 7.039062 11.40625 7.132812 M 11.453125 7.929688 C 11.328125 8.128906 11.609375 8.359375 11.773438 8.195312 C 11.910156 8.054688 11.824219 7.800781 11.640625 7.800781 C 11.582031 7.800781 11.496094 7.859375 11.453125 7.929688 M 11.453125 8.53125 C 11.328125 8.730469 11.609375 8.960938 11.773438 8.792969 C 11.910156 8.65625 11.824219 8.398438 11.640625 8.398438 C 11.582031 8.398438 11.496094 8.457031 11.453125 8.53125 M 12.894531 8.53125 C 12.769531 8.730469 13.046875 8.960938 13.214844 8.792969 C 13.351562 8.65625 13.265625 8.398438 13.078125 8.398438 C 13.023438 8.398438 12.9375 8.457031 12.894531 8.53125 M 12.675781 8.964844 C 12.535156 9.105469 12.597656 9.359375 12.78125 9.359375 C 12.878906 9.359375 12.960938 9.28125 12.960938 9.1875 C 12.960938 8.988281 12.789062 8.851562 12.675781 8.964844 M 13.976562 9.117188 C 13.09375 9.558594 12.492188 10.890625 12.242188 12.957031 C 12.109375 14.058594 12.101562 15.804688 12.226562 16.378906 L 12.304688 16.738281 L 13.203125 15.894531 C 14.585938 14.59375 15.210938 14.285156 17.6875 13.664062 C 19.28125 13.265625 19.695312 13.089844 19.972656 12.695312 C 20.242188 12.308594 20.207031 12.148438 19.808594 11.945312 C 19.515625 11.792969 19.441406 11.664062 19.378906 11.191406 C 19.269531 10.355469 18.976562 9.617188 18.6875 9.464844 C 18.53125 9.378906 18.121094 9.355469 17.59375 9.398438 C 16.898438 9.457031 16.707031 9.433594 16.519531 9.265625 C 16.371094 9.128906 16.089844 9.058594 15.675781 9.058594 C 15.335938 9.054688 14.925781 9.015625 14.761719 8.964844 C 14.554688 8.902344 14.308594 8.949219 13.976562 9.117188 M 2.539062 10.320312 C 1.96875 10.589844 1.605469 10.679688 1.085938 10.679688 C 0.140625 10.679688 0 10.851562 0 12.015625 C 0 12.96875 0.109375 13.199219 0.554688 13.199219 C 0.9375 13.199219 1.199219 13.515625 1.199219 13.96875 C 1.199219 14.476562 1.480469 14.722656 2.359375 14.996094 C 3.34375 15.304688 4.570312 15.46875 6.6875 15.582031 L 8.515625 15.683594 L 9.355469 16.242188 C 9.820312 16.546875 10.253906 16.800781 10.320312 16.800781 C 10.5 16.800781 10.007812 15.890625 9.417969 15.121094 C 8.714844 14.207031 5.253906 10.558594 4.777344 10.230469 C 4.21875 9.84375 3.484375 9.871094 2.539062 10.320312 M 16.773438 14.402344 C 15.898438 14.550781 15.101562 14.847656 14.324219 15.3125 C 13.664062 15.710938 12.71875 16.515625 12.71875 16.683594 C 12.71875 16.726562 12.929688 16.824219 13.183594 16.902344 C 13.441406 16.976562 14.0625 17.3125 14.570312 17.640625 C 15.511719 18.253906 15.796875 18.335938 16.21875 18.109375 C 16.417969 18.003906 16.570312 18.054688 17.105469 18.40625 C 17.59375 18.734375 17.832031 18.820312 18.085938 18.769531 C 18.351562 18.714844 18.621094 18.832031 19.378906 19.328125 C 21.179688 20.503906 22.058594 20.757812 22.808594 20.316406 C 23.257812 20.050781 24 18.65625 24 18.074219 C 24 17.695312 23.945312 17.617188 23.523438 17.402344 C 23.105469 17.1875 23.019531 17.070312 22.847656 16.46875 C 22.449219 15.101562 21.59375 14.617188 19.1875 14.402344 C 17.761719 14.273438 17.554688 14.273438 16.773438 14.402344 M 5.753906 16.117188 C 4.980469 16.335938 4.371094 16.742188 4.199219 17.164062 C 3.882812 17.925781 4.308594 19.460938 4.921875 19.765625 C 5.085938 19.847656 5.613281 19.976562 6.09375 20.046875 C 6.796875 20.15625 7.109375 20.28125 7.691406 20.679688 C 9.050781 21.617188 9.140625 21.65625 9.839844 21.648438 C 10.21875 21.644531 10.933594 21.503906 11.519531 21.308594 C 12.25 21.070312 12.921875 20.953125 13.886719 20.890625 C 15.074219 20.816406 15.273438 20.773438 15.539062 20.523438 C 16.136719 19.960938 15.894531 19.371094 14.554688 18.121094 C 13.375 17.015625 13.050781 16.867188 12.152344 17.035156 C 10.984375 17.25 10.679688 17.199219 9.53125 16.597656 C 8.515625 16.0625 8.402344 16.03125 7.378906 15.996094 C 6.753906 15.976562 6.070312 16.027344 5.753906 16.117188 "/>
</g>
</svg>
