<?xml version="1.0" encoding="UTF-8"?>
<svg xmlns="http://www.w3.org/2000/svg" xmlns:xlink="http://www.w3.org/1999/xlink" width="100px" height="100px" viewBox="0 0 100 100" version="1.1">
<g id="surface1">
<path style=" stroke:none;fill-rule:evenodd;fill:rgb(0%,0%,0%);fill-opacity:1;" d="M 57.234375 10.519531 C 56.421875 11.414062 56.386719 11.746094 56.9375 13.269531 C 57.949219 16.070312 56.515625 18.960938 55.113281 16.953125 C 54.683594 16.34375 54.546875 15.425781 54.746094 14.515625 C 55.203125 12.433594 54.285156 11 52.492188 11 C 51.476562 11 50.769531 11.386719 50.203125 12.25 C 49.445312 13.40625 49.445312 13.59375 50.203125 14.75 C 50.6875 15.484375 51.496094 16 52.175781 16 C 53.671875 16 54.945312 18.179688 54.171875 19.40625 C 53.324219 20.753906 52.15625 20.695312 51.804688 19.289062 C 51.160156 16.722656 47.519531 16.457031 46.875 18.925781 C 46.324219 21.023438 49.300781 23 50.777344 21.519531 C 51.042969 21.257812 51.53125 21.210938 51.863281 21.414062 C 52.328125 21.703125 52.308594 22.3125 51.765625 24.109375 C 50.574219 28.070312 47 61.054688 47 68.09375 C 47 70.679688 47.109375 71 48.015625 71 C 48.574219 71 49.117188 70.71875 49.226562 70.375 C 49.332031 70.03125 49.664062 64.238281 49.960938 57.5 C 50.261719 50.761719 50.738281 43.828125 51.019531 42.089844 C 51.59375 38.5625 54.128906 31.785156 54.390625 33.082031 C 54.59375 34.089844 55.609375 34.550781 56.46875 34.019531 C 57.441406 33.417969 56.871094 31.746094 55.703125 31.78125 C 54.742188 31.808594 54.773438 31.609375 56.34375 28.03125 C 57.839844 24.621094 58.898438 23.59375 59.417969 25.046875 C 60.050781 26.804688 62.695312 27.601562 63.898438 26.398438 C 64.671875 25.625 64.671875 23.375 63.898438 22.601562 C 63.171875 21.871094 60.679688 21.804688 60.25 22.5 C 59.632812 23.496094 58.5 23.003906 58.5 21.738281 C 58.5 20.085938 60.382812 19.136719 61.96875 19.984375 C 62.851562 20.457031 63.304688 20.414062 64.285156 19.773438 C 65.777344 18.796875 65.867188 16.988281 64.484375 15.738281 C 63.140625 14.519531 60.917969 15.222656 60.5 17.003906 C 60.339844 17.683594 59.789062 18.324219 59.28125 18.421875 C 57.835938 18.703125 58.65625 15.722656 60.5 14 C 62.082031 12.523438 62.109375 11.351562 60.585938 10.125 C 59.460938 9.21875 58.285156 9.355469 57.234375 10.519531 M 19.277344 29.113281 C 18.851562 29.722656 18.503906 30.679688 18.511719 31.238281 C 18.53125 33.203125 20.414062 36.378906 22.6875 38.277344 C 24.3125 39.636719 25.214844 40.890625 25.769531 42.558594 C 26.617188 45.109375 30.265625 50.628906 33.949219 54.9375 C 38.289062 60.007812 41.082031 63.753906 43.117188 67.222656 C 45.042969 70.5 45.183594 70.625 45.609375 69.472656 C 46.417969 67.292969 46.683594 51.652344 46.023438 45.25 C 45.050781 35.796875 44.039062 34.347656 38.785156 34.835938 C 35.96875 35.101562 35.429688 34.976562 32.121094 33.3125 C 30.144531 32.316406 27.902344 31.496094 27.136719 31.496094 C 26.308594 31.492188 24.863281 30.785156 23.554688 29.746094 C 20.988281 27.703125 20.332031 27.605469 19.277344 29.113281 M 47.519531 29.726562 C 46.769531 30.632812 47.25 31.5 48.5 31.5 C 49.015625 31.5 49.585938 31.265625 49.761719 30.976562 C 50.09375 30.441406 49.175781 29 48.5 29 C 48.292969 29 47.851562 29.328125 47.519531 29.726562 M 47.722656 33.042969 C 47.207031 33.878906 48.367188 34.832031 49.054688 34.144531 C 49.632812 33.566406 49.273438 32.5 48.5 32.5 C 48.257812 32.5 47.90625 32.746094 47.722656 33.042969 M 47.722656 35.542969 C 47.207031 36.378906 48.367188 37.332031 49.054688 36.644531 C 49.632812 36.066406 49.273438 35 48.5 35 C 48.257812 35 47.90625 35.246094 47.722656 35.542969 M 53.722656 35.542969 C 53.207031 36.378906 54.367188 37.332031 55.054688 36.644531 C 55.632812 36.066406 55.273438 35 54.5 35 C 54.257812 35 53.90625 35.246094 53.722656 35.542969 M 52.820312 37.347656 C 52.222656 37.945312 52.496094 39 53.25 39 C 53.664062 39 54 38.675781 54 38.28125 C 54 37.445312 53.285156 36.878906 52.820312 37.347656 M 58.238281 37.984375 C 54.554688 39.832031 52.050781 45.375 51.011719 53.988281 C 50.457031 58.582031 50.421875 65.847656 50.945312 68.25 L 51.269531 69.75 L 55.007812 66.234375 C 60.777344 60.8125 63.378906 59.515625 73.703125 56.929688 C 80.339844 55.265625 82.070312 54.53125 83.21875 52.890625 C 84.339844 51.292969 84.195312 50.625 82.53125 49.765625 C 81.3125 49.136719 81.007812 48.601562 80.75 46.628906 C 80.296875 43.148438 79.0625 40.066406 77.867188 39.429688 C 77.214844 39.078125 75.507812 38.980469 73.304688 39.164062 C 70.402344 39.40625 69.617188 39.308594 68.839844 38.605469 C 68.210938 38.035156 67.035156 37.746094 65.324219 37.738281 C 63.90625 37.730469 62.1875 37.558594 61.5 37.351562 C 60.640625 37.09375 59.625 37.289062 58.238281 37.984375 M 10.578125 43 C 8.203125 44.125 6.691406 44.5 4.53125 44.5 C 0.582031 44.5 0 45.214844 0 50.066406 C 0 54.042969 0.449219 55 2.316406 55 C 3.90625 55 5 56.308594 5 58.207031 C 5 60.316406 6.160156 61.34375 9.832031 62.488281 C 13.9375 63.761719 19.046875 64.457031 27.867188 64.933594 L 35.488281 65.34375 L 38.988281 67.671875 C 40.914062 68.953125 42.71875 70 43.003906 70 C 43.75 70 41.707031 66.203125 39.242188 63 C 36.308594 59.191406 21.890625 44 19.902344 42.625 C 17.570312 41.011719 14.527344 41.132812 10.578125 43 M 69.882812 60.015625 C 66.246094 60.628906 62.917969 61.863281 59.691406 63.800781 C 56.925781 65.457031 53 68.816406 53 69.523438 C 53 69.699219 53.871094 70.101562 54.9375 70.421875 C 56.003906 70.742188 58.597656 72.128906 60.703125 73.5 C 64.628906 76.0625 65.816406 76.402344 67.578125 75.457031 C 68.414062 75.011719 69.050781 75.222656 71.273438 76.699219 C 73.3125 78.054688 74.296875 78.414062 75.355469 78.203125 C 76.464844 77.980469 77.582031 78.464844 80.753906 80.539062 C 88.246094 85.4375 91.914062 86.492188 95.039062 84.648438 C 96.910156 83.542969 100 77.726562 100 75.3125 C 100 73.726562 99.769531 73.402344 98.011719 72.507812 C 96.277344 71.621094 95.921875 71.128906 95.191406 68.621094 C 93.539062 62.921875 89.976562 60.90625 79.945312 60.003906 C 74.003906 59.464844 73.140625 59.46875 69.882812 60.015625 M 23.976562 67.152344 C 20.746094 68.0625 18.21875 69.761719 17.496094 71.511719 C 16.175781 74.695312 17.945312 81.089844 20.5 82.355469 C 21.1875 82.695312 23.386719 83.226562 25.390625 83.535156 C 28.320312 83.988281 29.617188 84.5 32.046875 86.171875 C 37.710938 90.066406 38.078125 90.234375 40.996094 90.207031 C 42.585938 90.191406 45.550781 89.59375 48 88.792969 C 51.042969 87.800781 53.84375 87.304688 57.867188 87.046875 C 62.808594 86.734375 63.632812 86.546875 64.742188 85.507812 C 67.230469 83.171875 66.222656 80.710938 60.648438 75.496094 C 55.738281 70.902344 54.371094 70.289062 50.628906 70.980469 C 45.761719 71.878906 44.507812 71.667969 39.71875 69.152344 C 35.480469 66.925781 35.015625 66.796875 30.75 66.65625 C 28.140625 66.574219 25.292969 66.78125 23.976562 67.152344 "/>
</g>
</svg>
