<?xml version="1.0" encoding="UTF-8"?>
<svg xmlns="http://www.w3.org/2000/svg" xmlns:xlink="http://www.w3.org/1999/xlink" width="100px" height="100px" viewBox="0 0 100 100" version="1.1">
<g id="surface1">
<path style=" stroke:none;fill-rule:evenodd;fill:rgb(0%,0%,0%);fill-opacity:1;" d="M 43.75 6.523438 C 41.390625 7.683594 40 9.210938 40 10.640625 L 40 11.675781 L 38.867188 10.609375 C 37.242188 9.082031 34.359375 8 31.921875 8 L 29.8125 8 L 31.28125 9.535156 C 32.089844 10.378906 33.539062 11.542969 34.5 12.121094 C 35.460938 12.699219 36.328125 13.230469 36.425781 13.304688 C 36.523438 13.375 35.859375 14.355469 34.957031 15.480469 C 33.617188 17.144531 33.273438 18.070312 33.101562 20.449219 C 32.742188 25.375 34.585938 25.046875 37.046875 19.75 C 37.8125 18.101562 38.84375 16.246094 39.34375 15.628906 L 40.25 14.503906 L 43.15625 17.753906 L 46.0625 21 L 44.265625 21 C 43.277344 21 41.742188 21.3125 40.859375 21.691406 C 39.113281 22.441406 35.5 25.496094 35.5 26.222656 C 35.5 26.46875 35.144531 27.0625 34.710938 27.542969 C 34.277344 28.019531 33.878906 28.714844 33.824219 29.082031 C 33.765625 29.449219 33.53125 30.054688 33.300781 30.425781 C 31.847656 32.753906 30.875 39 31.964844 39 C 33.261719 39 38.796875 33.308594 40.269531 30.464844 C 40.914062 29.214844 47.289062 23.5 48.035156 23.5 C 48.785156 23.5 56.3125 32.855469 55.898438 33.269531 C 55.761719 33.402344 54.886719 33.203125 53.953125 32.824219 C 50.21875 31.3125 45.253906 32.367188 42.574219 35.238281 C 41.925781 35.933594 41.179688 36.5 40.917969 36.5 C 40.65625 36.5 40.570312 36.710938 40.726562 36.964844 C 40.886719 37.222656 40.820312 37.554688 40.578125 37.703125 C 40.335938 37.851562 39.089844 40.003906 37.8125 42.488281 L 35.484375 47 L 38.742188 47.046875 C 40.535156 47.070312 42.617188 47.105469 43.375 47.121094 C 45.828125 47.179688 50.992188 46.414062 51.28125 45.949219 C 51.433594 45.703125 51.960938 45.5 52.453125 45.5 C 52.941406 45.5 53.753906 45.050781 54.25 44.5 C 54.746094 43.949219 55.402344 43.492188 55.703125 43.480469 C 56.003906 43.472656 56.855469 42.664062 57.59375 41.691406 L 58.9375 39.917969 L 59.273438 41.707031 C 59.460938 42.695312 59.453125 44.34375 59.261719 45.375 C 58.816406 47.773438 57.011719 52 56.433594 52 C 56.191406 52 55.0625 51.328125 53.929688 50.507812 C 52.015625 49.121094 51.605469 49.023438 48.304688 49.191406 C 45.898438 49.308594 44.097656 49.714844 42.753906 50.433594 C 41.660156 51.019531 40.617188 51.5 40.433594 51.5 C 39.398438 51.5 31.398438 59.097656 31.902344 59.601562 C 32.140625 59.839844 33.382812 60.082031 34.664062 60.140625 C 35.945312 60.203125 36.996094 60.398438 36.996094 60.582031 C 37 60.765625 37.957031 60.941406 39.125 60.972656 C 40.292969 61.003906 42.261719 61.0625 43.5 61.105469 C 44.738281 61.148438 46.28125 61.003906 46.933594 60.789062 C 49.089844 60.074219 47.863281 61.523438 44.117188 64.121094 L 40.527344 66.609375 L 38.195312 64.554688 C 36.910156 63.425781 35.664062 62.472656 35.429688 62.4375 C 34.964844 62.371094 34.914062 62.355469 32.914062 61.789062 C 31.40625 61.363281 26 62.328125 26 63.027344 C 26 63.277344 25.4375 63.621094 24.75 63.792969 C 24.0625 63.96875 23.5 64.421875 23.5 64.804688 C 23.5 65.1875 23.308594 65.5 23.074219 65.5 C 22.839844 65.5 22.039062 66.0625 21.296875 66.75 C 20.554688 67.4375 20.101562 68 20.289062 68 C 20.472656 68 19.671875 69.039062 18.5 70.308594 C 16.144531 72.863281 16.257812 73.203125 19.6875 73.78125 C 20.765625 73.964844 22.410156 74.433594 23.347656 74.824219 C 24.28125 75.210938 25.246094 75.40625 25.488281 75.257812 C 25.734375 75.105469 26.878906 75.191406 28.035156 75.453125 C 29.226562 75.71875 30.617188 75.738281 31.253906 75.5 C 32.34375 75.085938 32.335938 75.140625 30.945312 77.660156 C 29.121094 80.96875 28.046875 84.636719 27.515625 89.386719 C 27.007812 93.925781 27.179688 94.5 29.054688 94.5 C 30.484375 94.5 30.5 94.46875 30.5 91.578125 C 30.5 88.277344 31.972656 81.984375 33.386719 79.222656 L 34.335938 77.375 L 34.972656 79.5625 C 35.324219 80.765625 36.542969 83.550781 37.679688 85.75 C 39.222656 88.730469 40.035156 89.789062 40.875 89.910156 C 41.664062 90.023438 42.148438 89.722656 42.496094 88.910156 C 43.234375 87.199219 44.167969 85.804688 44.875 85.351562 C 45.21875 85.128906 45.5 84.640625 45.5 84.265625 C 45.5 83.890625 45.679688 83.507812 45.898438 83.417969 C 46.726562 83.070312 48.414062 78.609375 48.757812 75.855469 C 49.175781 72.519531 48.5625 70.519531 46.410156 68.214844 L 44.980469 66.683594 L 47.367188 64.988281 C 48.675781 64.058594 51.15625 61.957031 52.875 60.320312 C 55.769531 57.558594 56 57.433594 56 58.609375 C 56 59.308594 56.335938 60.15625 56.75 60.5 C 57.164062 60.84375 57.503906 61.375 57.507812 61.6875 C 57.511719 61.996094 58.074219 62.78125 58.757812 63.425781 C 59.441406 64.074219 60 64.804688 60 65.050781 C 60 65.296875 60.25 65.5 60.554688 65.5 C 60.855469 65.5 61.925781 66.132812 62.929688 66.902344 C 64.5 68.113281 72.046875 72 72.824219 72 C 73.371094 72 72.644531 60.027344 72.058594 59.320312 C 71.730469 58.925781 71.527344 58.402344 71.609375 58.148438 C 71.886719 57.257812 69.234375 54.035156 67.351562 52.976562 C 66.296875 52.382812 64.144531 51.78125 62.566406 51.640625 L 59.695312 51.378906 L 60.582031 48.816406 C 61.070312 47.402344 61.472656 45.835938 61.484375 45.332031 C 61.496094 44.546875 61.777344 44.636719 63.445312 45.957031 C 64.519531 46.804688 65.710938 47.5 66.097656 47.5 C 66.484375 47.5 67.058594 47.761719 67.378906 48.078125 C 67.742188 48.441406 70.765625 48.746094 75.511719 48.894531 L 83.070312 49.132812 L 82.265625 47.210938 C 81.824219 46.152344 81.132812 44.921875 80.730469 44.480469 C 80.328125 44.035156 80 43.433594 80 43.140625 C 80 42.847656 79.648438 42.472656 79.21875 42.308594 C 78.789062 42.140625 78.5625 41.804688 78.714844 41.558594 C 78.863281 41.316406 78.652344 40.835938 78.246094 40.496094 C 77.835938 40.15625 77.5 39.664062 77.5 39.402344 C 77.5 38.632812 74.894531 36.261719 73.046875 35.34375 C 72.113281 34.878906 70.605469 34.5 69.699219 34.5 C 67.820312 34.5 63.085938 35.652344 61.523438 36.488281 C 60.378906 37.101562 59.5 36.800781 59.5 35.796875 C 59.5 34.773438 55.695312 29.167969 53.171875 26.46875 C 51.902344 25.109375 50.980469 24 51.121094 24 C 52.089844 24 55.484375 25.878906 57.890625 27.742188 C 59.464844 28.964844 61.707031 30.296875 62.875 30.707031 C 64.972656 31.445312 65 31.441406 65 30.308594 C 65 29.09375 61.65625 23.980469 59.839844 22.414062 C 56.488281 19.53125 52.902344 18.800781 50.191406 20.457031 L 48.628906 21.40625 L 45.566406 18.316406 C 42.460938 15.183594 41.84375 14 43.308594 14 C 45.117188 14 47.832031 11.820312 49.878906 8.722656 L 52.007812 5.5 L 48.878906 5.519531 C 46.8125 5.53125 45.070312 5.875 43.75 6.523438 "/>
</g>
</svg>
