<?xml version="1.0" encoding="UTF-8"?>
<svg xmlns="http://www.w3.org/2000/svg" xmlns:xlink="http://www.w3.org/1999/xlink" width="24px" height="24px" viewBox="0 0 24 24" version="1.1">
<g id="surface1">
<path style=" stroke:none;fill-rule:evenodd;fill:rgb(0%,0%,0%);fill-opacity:1;" d="M 10.5 1.566406 C 9.933594 1.84375 9.601562 2.210938 9.601562 2.554688 L 9.601562 2.800781 L 9.328125 2.546875 C 8.9375 2.179688 8.246094 1.921875 7.660156 1.921875 L 7.15625 1.921875 L 7.507812 2.289062 C 7.703125 2.492188 8.050781 2.769531 8.28125 2.910156 C 8.511719 3.046875 8.71875 3.175781 8.742188 3.191406 C 8.765625 3.210938 8.605469 3.445312 8.390625 3.714844 C 8.070312 4.113281 7.984375 4.335938 7.945312 4.90625 C 7.859375 6.089844 8.300781 6.011719 8.890625 4.738281 C 9.074219 4.34375 9.324219 3.898438 9.441406 3.75 L 9.660156 3.480469 L 10.359375 4.261719 L 11.054688 5.039062 L 10.625 5.039062 C 10.386719 5.039062 10.019531 5.113281 9.804688 5.207031 C 9.386719 5.386719 8.519531 6.121094 8.519531 6.292969 C 8.519531 6.351562 8.433594 6.496094 8.332031 6.609375 C 8.226562 6.726562 8.132812 6.890625 8.117188 6.980469 C 8.105469 7.066406 8.046875 7.214844 7.992188 7.300781 C 7.644531 7.859375 7.410156 9.359375 7.671875 9.359375 C 7.984375 9.359375 9.3125 7.992188 9.664062 7.3125 C 9.820312 7.011719 11.347656 5.640625 11.527344 5.640625 C 11.707031 5.640625 13.515625 7.886719 13.414062 7.984375 C 13.382812 8.015625 13.171875 7.96875 12.949219 7.878906 C 12.054688 7.515625 10.859375 7.769531 10.21875 8.457031 C 10.0625 8.625 9.882812 8.761719 9.820312 8.761719 C 9.757812 8.761719 9.738281 8.808594 9.773438 8.871094 C 9.8125 8.933594 9.796875 9.011719 9.738281 9.046875 C 9.679688 9.085938 9.382812 9.601562 9.074219 10.195312 L 8.515625 11.28125 L 9.296875 11.289062 C 9.726562 11.296875 10.226562 11.304688 10.410156 11.308594 C 11 11.324219 12.238281 11.140625 12.308594 11.027344 C 12.34375 10.96875 12.46875 10.921875 12.589844 10.921875 C 12.707031 10.921875 12.902344 10.8125 13.019531 10.679688 C 13.140625 10.546875 13.296875 10.4375 13.367188 10.4375 C 13.441406 10.433594 13.644531 10.238281 13.824219 10.003906 L 14.144531 9.582031 L 14.226562 10.011719 C 14.269531 10.246094 14.269531 10.640625 14.222656 10.890625 C 14.117188 11.464844 13.683594 12.480469 13.542969 12.480469 C 13.484375 12.480469 13.214844 12.320312 12.941406 12.121094 C 12.484375 11.789062 12.386719 11.765625 11.59375 11.804688 C 11.015625 11.835938 10.582031 11.929688 10.261719 12.105469 C 10 12.246094 9.746094 12.359375 9.703125 12.359375 C 9.457031 12.359375 7.535156 14.183594 7.65625 14.304688 C 7.714844 14.363281 8.011719 14.421875 8.320312 14.433594 C 8.625 14.449219 8.878906 14.496094 8.878906 14.539062 C 8.878906 14.582031 9.109375 14.625 9.390625 14.632812 C 9.671875 14.640625 10.144531 14.65625 10.441406 14.664062 C 10.738281 14.675781 11.109375 14.640625 11.265625 14.589844 C 11.78125 14.417969 11.488281 14.765625 10.589844 15.390625 L 9.726562 15.988281 L 9.167969 15.492188 C 8.859375 15.222656 8.558594 14.992188 8.503906 14.984375 C 8.390625 14.96875 8.378906 14.964844 7.898438 14.828125 C 7.539062 14.726562 6.238281 14.957031 6.238281 15.125 C 6.238281 15.1875 6.105469 15.269531 5.941406 15.3125 C 5.773438 15.351562 5.640625 15.460938 5.640625 15.554688 C 5.640625 15.644531 5.59375 15.71875 5.539062 15.71875 C 5.480469 15.71875 5.289062 15.855469 5.113281 16.019531 C 4.933594 16.183594 4.824219 16.320312 4.867188 16.320312 C 4.914062 16.320312 4.722656 16.570312 4.441406 16.875 C 3.875 17.488281 3.902344 17.570312 4.726562 17.707031 C 4.984375 17.75 5.378906 17.863281 5.601562 17.957031 C 5.828125 18.050781 6.058594 18.097656 6.117188 18.0625 C 6.175781 18.023438 6.453125 18.046875 6.730469 18.109375 C 7.015625 18.171875 7.347656 18.175781 7.5 18.121094 C 7.761719 18.019531 7.761719 18.035156 7.425781 18.640625 C 6.988281 19.433594 6.730469 20.3125 6.605469 21.453125 C 6.480469 22.542969 6.523438 22.679688 6.972656 22.679688 C 7.316406 22.679688 7.320312 22.671875 7.320312 21.980469 C 7.320312 21.1875 7.671875 19.675781 8.011719 19.011719 L 8.242188 18.570312 L 8.394531 19.09375 C 8.476562 19.382812 8.769531 20.050781 9.042969 20.578125 C 9.414062 21.296875 9.609375 21.550781 9.808594 21.578125 C 10 21.605469 10.117188 21.535156 10.199219 21.339844 C 10.375 20.929688 10.601562 20.59375 10.769531 20.484375 C 10.851562 20.429688 10.921875 20.3125 10.921875 20.222656 C 10.921875 20.132812 10.964844 20.042969 11.015625 20.019531 C 11.214844 19.9375 11.621094 18.867188 11.703125 18.207031 C 11.800781 17.40625 11.65625 16.925781 11.140625 16.371094 L 10.796875 16.003906 L 11.367188 15.597656 C 11.683594 15.375 12.277344 14.871094 12.691406 14.476562 C 13.386719 13.8125 13.441406 13.785156 13.441406 14.066406 C 13.441406 14.234375 13.519531 14.4375 13.621094 14.519531 C 13.71875 14.601562 13.800781 14.730469 13.800781 14.804688 C 13.804688 14.878906 13.9375 15.066406 14.101562 15.222656 C 14.265625 15.378906 14.398438 15.554688 14.398438 15.613281 C 14.398438 15.671875 14.460938 15.71875 14.53125 15.71875 C 14.605469 15.71875 14.863281 15.871094 15.101562 16.054688 C 15.480469 16.347656 17.292969 17.28125 17.476562 17.28125 C 17.609375 17.28125 17.433594 14.40625 17.292969 14.238281 C 17.214844 14.140625 17.167969 14.015625 17.1875 13.957031 C 17.253906 13.742188 16.617188 12.96875 16.164062 12.714844 C 15.910156 12.570312 15.394531 12.425781 15.015625 12.394531 L 14.328125 12.332031 L 14.539062 11.714844 C 14.65625 11.378906 14.753906 11 14.757812 10.878906 C 14.757812 10.691406 14.828125 10.710938 15.226562 11.03125 C 15.484375 11.234375 15.769531 11.398438 15.863281 11.398438 C 15.957031 11.398438 16.09375 11.460938 16.171875 11.539062 C 16.257812 11.625 16.984375 11.699219 18.121094 11.734375 L 19.9375 11.792969 L 19.742188 11.332031 C 19.636719 11.078125 19.472656 10.78125 19.375 10.675781 C 19.277344 10.566406 19.199219 10.421875 19.199219 10.351562 C 19.199219 10.28125 19.117188 10.191406 19.011719 10.152344 C 18.910156 10.113281 18.855469 10.035156 18.890625 9.972656 C 18.925781 9.914062 18.878906 9.800781 18.777344 9.71875 C 18.679688 9.636719 18.601562 9.519531 18.601562 9.457031 C 18.601562 9.273438 17.976562 8.703125 17.53125 8.484375 C 17.308594 8.371094 16.945312 8.28125 16.726562 8.28125 C 16.277344 8.28125 15.140625 8.554688 14.765625 8.757812 C 14.492188 8.902344 14.28125 8.832031 14.28125 8.589844 C 14.28125 8.347656 13.367188 7 12.761719 6.351562 C 12.457031 6.027344 12.234375 5.761719 12.269531 5.761719 C 12.5 5.761719 13.316406 6.210938 13.894531 6.660156 C 14.269531 6.949219 14.808594 7.269531 15.089844 7.371094 C 15.59375 7.546875 15.601562 7.546875 15.601562 7.273438 C 15.601562 6.980469 14.796875 5.753906 14.359375 5.378906 C 13.558594 4.6875 12.695312 4.511719 12.046875 4.910156 L 11.671875 5.136719 L 10.933594 4.394531 C 10.191406 3.644531 10.042969 3.359375 10.394531 3.359375 C 10.828125 3.359375 11.480469 2.835938 11.972656 2.09375 L 12.480469 1.320312 L 11.730469 1.324219 C 11.234375 1.328125 10.816406 1.410156 10.5 1.566406 "/>
</g>
</svg>
