<?xml version="1.0" encoding="UTF-8"?>
<svg xmlns="http://www.w3.org/2000/svg" xmlns:xlink="http://www.w3.org/1999/xlink" width="24px" height="24px" viewBox="0 0 24 24" version="1.1">
<g id="surface1">
<path style=" stroke:none;fill-rule:evenodd;fill:rgb(0%,0%,0%);fill-opacity:1;" d="M 7.199219 5.21875 C 7.199219 6.339844 7.175781 6.480469 6.988281 6.476562 C 6.875 6.476562 5.96875 6.34375 4.980469 6.1875 C 3.765625 5.996094 3.132812 5.941406 3.035156 6.023438 C 2.953125 6.089844 2.257812 8.066406 1.492188 10.421875 L 0.09375 14.699219 L 0.652344 15.203125 C 1.65625 16.113281 3.207031 16.445312 4.449219 16.015625 C 5.046875 15.808594 6.050781 15.117188 6.21875 14.792969 C 6.300781 14.636719 5.996094 13.554688 5.085938 10.75 C 4.402344 8.640625 3.867188 6.894531 3.898438 6.863281 C 3.925781 6.832031 4.683594 6.90625 5.574219 7.027344 L 7.199219 7.246094 L 7.199219 18.589844 L 4.980469 18.660156 L 4.945312 19.230469 L 4.90625 19.800781 L 10.574219 19.800781 L 10.535156 19.230469 L 10.5 18.660156 L 8.28125 18.589844 L 8.28125 13.09375 C 8.28125 10.074219 8.308594 7.574219 8.339844 7.539062 C 8.414062 7.464844 11.546875 7.921875 11.664062 8.027344 C 11.710938 8.066406 11.183594 9.824219 10.492188 11.933594 C 9.804688 14.039062 9.238281 15.851562 9.238281 15.957031 C 9.238281 16.246094 9.925781 16.855469 10.679688 17.242188 C 11.242188 17.527344 11.484375 17.578125 12.300781 17.578125 C 13.160156 17.578125 13.335938 17.539062 13.996094 17.179688 C 14.402344 16.960938 14.886719 16.621094 15.070312 16.429688 L 15.40625 16.078125 L 15.144531 15.261719 C 15 14.8125 14.878906 14.382812 14.878906 14.3125 C 14.878906 14.242188 15.121094 14.101562 15.421875 14 C 15.71875 13.898438 15.960938 13.832031 15.960938 13.851562 C 15.960938 13.871094 15.878906 14.121094 15.78125 14.398438 C 15.496094 15.210938 15.589844 16.320312 15.949219 16.320312 C 16.003906 16.320312 16.160156 16.007812 16.300781 15.625 C 16.441406 15.242188 16.71875 14.773438 16.917969 14.582031 C 17.289062 14.226562 17.566406 14.25 17.308594 14.617188 C 16.503906 15.757812 16.253906 16.597656 16.617188 16.957031 C 16.910156 17.253906 16.976562 17.214844 17.132812 16.628906 C 17.285156 16.054688 17.800781 15.359375 17.957031 15.515625 C 18.007812 15.570312 17.90625 15.875 17.726562 16.195312 C 17.371094 16.828125 17.320312 17.152344 17.542969 17.375 C 17.898438 17.730469 18.566406 17.351562 18.78125 16.671875 C 18.828125 16.527344 18.964844 16.441406 19.140625 16.441406 C 19.859375 16.441406 20.878906 15.640625 21.613281 14.5 C 21.914062 14.03125 22.132812 13.863281 22.910156 13.496094 L 23.84375 13.058594 L 23.304688 11.601562 C 23.007812 10.796875 22.753906 10.125 22.734375 10.101562 C 22.71875 10.082031 22.171875 10.320312 21.523438 10.628906 C 20.550781 11.089844 20.125 11.21875 19.117188 11.355469 C 17.621094 11.558594 16.152344 12.003906 15.148438 12.558594 C 14.601562 12.859375 14.382812 12.929688 14.339844 12.816406 C 14.308594 12.730469 13.90625 11.488281 13.441406 10.054688 C 12.976562 8.621094 12.554688 7.425781 12.503906 7.394531 C 12.457031 7.363281 11.660156 7.226562 10.738281 7.089844 C 9.816406 6.953125 8.882812 6.8125 8.671875 6.777344 L 8.28125 6.710938 L 8.28125 3.960938 L 7.199219 3.960938 L 7.199219 5.21875 M 2.132812 10.828125 C 1.558594 12.621094 1.109375 14.109375 1.128906 14.128906 C 1.148438 14.148438 2.109375 14.152344 3.265625 14.132812 L 5.363281 14.101562 L 4.351562 10.921875 C 3.792969 9.171875 3.300781 7.699219 3.253906 7.652344 C 3.207031 7.601562 2.703125 9.03125 2.132812 10.828125 M 11.410156 11.519531 C 10.9375 13.003906 10.445312 14.53125 10.320312 14.910156 L 10.097656 15.601562 L 12.246094 15.601562 C 13.429688 15.601562 14.398438 15.566406 14.398438 15.523438 C 14.398438 15.480469 14.335938 15.242188 14.261719 14.988281 L 14.125 14.527344 L 13.308594 14.972656 C 12.683594 15.3125 12.457031 15.386719 12.351562 15.277344 C 12.101562 15.03125 12.347656 14.597656 13.066406 14.007812 L 13.765625 13.433594 L 13.0625 11.246094 C 12.675781 10.042969 12.339844 9.007812 12.316406 8.941406 C 12.296875 8.875 11.886719 10.035156 11.410156 11.519531 "/>
</g>
</svg>
