<?xml version="1.0" encoding="UTF-8"?>
<svg xmlns="http://www.w3.org/2000/svg" xmlns:xlink="http://www.w3.org/1999/xlink" width="100px" height="100px" viewBox="0 0 100 100" version="1.1">
<g id="surface1">
<path style=" stroke:none;fill-rule:evenodd;fill:rgb(0%,0%,0%);fill-opacity:1;" d="M 30 21.75 C 30 26.421875 29.902344 27 29.125 26.984375 C 28.644531 26.976562 24.875 26.4375 20.75 25.785156 C 15.691406 24.984375 13.050781 24.761719 12.640625 25.097656 C 12.308594 25.371094 9.414062 33.613281 6.214844 43.417969 L 0.390625 61.238281 L 2.710938 63.339844 C 6.902344 67.136719 13.367188 68.523438 18.535156 66.734375 C 21.03125 65.871094 25.214844 62.980469 25.914062 61.636719 C 26.25 60.988281 24.988281 56.484375 21.191406 44.789062 C 18.339844 36.007812 16.113281 28.722656 16.238281 28.59375 C 16.363281 28.46875 19.511719 28.773438 23.234375 29.273438 L 30 30.183594 L 30 77.460938 L 20.75 77.75 L 20.445312 82.5 L 44.054688 82.5 L 43.75 77.75 L 34.5 77.460938 L 34.5 54.566406 C 34.5 41.96875 34.613281 31.554688 34.75 31.417969 C 35.0625 31.105469 48.121094 33.011719 48.601562 33.441406 C 48.792969 33.609375 46.597656 40.9375 43.726562 49.71875 C 40.851562 58.5 38.5 66.046875 38.5 66.492188 C 38.5 67.683594 41.359375 70.230469 44.5 71.839844 C 46.835938 73.035156 47.851562 73.246094 51.25 73.246094 C 54.835938 73.25 55.566406 73.078125 58.320312 71.585938 C 60.007812 70.667969 62.023438 69.261719 62.792969 68.457031 L 64.195312 66.992188 L 63.097656 63.585938 C 62.492188 61.710938 62 59.933594 62 59.636719 C 62 59.339844 63.011719 58.75 64.25 58.328125 C 65.488281 57.90625 66.5 57.632812 66.5 57.71875 C 66.5 57.804688 66.164062 58.832031 65.75 60 C 64.558594 63.375 64.964844 68 66.449219 68 C 66.679688 68 67.339844 66.695312 67.921875 65.105469 C 68.503906 63.511719 69.65625 61.558594 70.484375 60.765625 C 72.03125 59.285156 73.1875 59.378906 72.117188 60.898438 C 68.761719 65.664062 67.726562 69.15625 69.230469 70.660156 C 70.46875 71.894531 70.730469 71.726562 71.382812 69.292969 C 72.023438 66.898438 74.167969 64.003906 74.820312 64.652344 C 75.039062 64.875 74.609375 66.144531 73.859375 67.476562 C 72.378906 70.109375 72.171875 71.46875 73.101562 72.398438 C 74.582031 73.882812 77.363281 72.300781 78.261719 69.460938 C 78.449219 68.871094 79.023438 68.5 79.75 68.5 C 82.75 68.5 86.992188 65.167969 90.054688 60.410156 C 91.308594 58.460938 92.214844 57.761719 95.453125 56.242188 L 99.34375 54.414062 L 97.101562 48.332031 C 95.871094 44.988281 94.804688 42.179688 94.734375 42.097656 C 94.664062 42.011719 92.390625 42.996094 89.679688 44.28125 C 85.621094 46.207031 83.847656 46.742188 79.648438 47.3125 C 73.425781 48.152344 67.296875 50.011719 63.121094 52.324219 C 60.839844 53.585938 59.925781 53.878906 59.753906 53.402344 C 59.625 53.042969 57.933594 47.867188 56 41.898438 C 54.0625 35.929688 52.308594 30.941406 52.101562 30.8125 C 51.898438 30.6875 48.585938 30.117188 44.738281 29.546875 C 40.894531 28.972656 37.019531 28.382812 36.125 28.230469 L 34.5 27.953125 L 34.5 16.5 L 30 16.5 L 30 21.75 M 8.878906 45.113281 C 6.496094 52.59375 4.617188 58.785156 4.703125 58.871094 C 4.789062 58.953125 8.792969 58.960938 13.605469 58.886719 L 22.351562 58.75 L 18.128906 45.5 C 15.808594 38.210938 13.75 32.082031 13.558594 31.878906 C 13.367188 31.675781 11.261719 37.628906 8.878906 45.113281 M 47.550781 48 C 45.566406 54.1875 43.523438 60.542969 43.007812 62.125 L 42.066406 65 L 51.03125 65 C 55.964844 65 60 64.859375 60 64.683594 C 60 64.507812 59.742188 63.5 59.425781 62.445312 L 58.847656 60.523438 L 55.445312 62.382812 C 52.847656 63.804688 51.90625 64.105469 51.460938 63.660156 C 50.425781 62.625 51.441406 60.816406 54.445312 58.359375 L 57.363281 55.964844 L 54.429688 46.859375 C 52.816406 41.847656 51.417969 37.523438 51.324219 37.25 C 51.230469 36.976562 49.53125 41.8125 47.550781 48 "/>
</g>
</svg>
