<svg xmlns="http://www.w3.org/2000/svg" xml:space="preserve" width="24" height="24"><g style="stroke-width:3.47826"><path d="M12 .5C5.649.5.5 5.649.5 12S5.649 23.5 12 23.5 23.5 18.351 23.5 12 18.351.5 12 .5zm3.398 14.826c-.964.965-2.395 1.122-3.082 1.138v.257c.01.233.003.389 0 .43v.753h-.633v-.441c-.687-.016-2.117-.174-3.082-1.138-1.262-1.262-1.152-3.343-1.147-3.431l.017-.28.28-.017s.066-.004.18-.004c.632 0 2.212.112 3.252 1.151.2.202.364.425.5.656v-1.762c-.362-.351-1.508-1.58-1.508-3.119 0-1.785 1.55-3.179 1.615-3.237l.21-.186.21.185c.066.059 1.615 1.453 1.615 3.238 0 1.538-1.146 2.768-1.509 3.118v.764c.137-.231.3-.454.501-.656 1.04-1.039 2.62-1.151 3.251-1.151.115 0 .181.004.181.004l.28.018.017.279c.005.088.115 2.17-1.148 3.431z" style="stroke-width:3.47826"/><path d="M12 6.965c-.39.419-1.192 1.417-1.192 2.554 0 .993.605 1.866 1.02 2.347V7.85h.345v4.015c.414-.483 1.02-1.357 1.02-2.345 0-1.143-.801-2.137-1.192-2.555zM10.197 14.672a9.413 9.413 0 0 1 1.443 1.589c-.084-.63-.31-1.475-.905-2.07-.809-.809-2.09-.945-2.649-.963.02.573.158 1.845.963 2.65.775.775 1.985.923 2.558.948a9.231 9.231 0 0 0-1.636-1.893c-.414-.36-.881-.69-1.388-.983l.173-.299c.526.305 1.01.648 1.44 1.021zM12.359 15.264c.327-.453.81-1.04 1.444-1.59.43-.373.914-.716 1.44-1.021l.174.298a9.014 9.014 0 0 0-1.388.983 9.23 9.23 0 0 0-1.636 1.893c.573-.024 1.783-.173 2.558-.948.808-.808.945-2.078.964-2.65-.559.02-1.841.155-2.65.964-.597.597-.823 1.442-.906 2.071z" style="stroke-width:3.47826"/></g></svg>