<?xml version="1.0" encoding="UTF-8"?>
<svg xmlns="http://www.w3.org/2000/svg" xmlns:xlink="http://www.w3.org/1999/xlink" width="100px" height="100px" viewBox="0 0 100 100" version="1.1">
<g id="surface1">
<path style=" stroke:none;fill-rule:evenodd;fill:rgb(0%,0%,0%);fill-opacity:1;" d="M 46.488281 26.625 L 46.476562 31.25 L 45.539062 29.1875 C 44.445312 26.773438 43.820312 26.261719 43.070312 27.164062 C 42.671875 27.644531 42.789062 28.507812 43.511719 30.414062 C 44.054688 31.84375 44.5 34.203125 44.5 35.65625 C 44.5 38.636719 44.289062 38.921875 37.625 45.117188 C 35.632812 46.96875 34 48.8125 34 49.21875 C 34 49.625 35.585938 51.238281 37.527344 52.808594 L 41.054688 55.65625 L 39.101562 57.703125 C 38.027344 58.828125 36.527344 60.59375 35.765625 61.625 L 34.382812 63.5 L 19.878906 63.5 C 6.742188 63.5 5.4375 63.574219 6.03125 64.285156 C 6.390625 64.71875 7.710938 65.609375 8.96875 66.265625 L 11.25 67.453125 L 5.875 67.476562 C 2.917969 67.488281 0.5 67.667969 0.5 67.875 C 0.5 68.082031 1.457031 68.839844 2.625 69.566406 C 6.363281 71.878906 12.320312 73.351562 19.972656 73.851562 L 24.695312 74.164062 L 22.53125 76.082031 L 20.371094 78 L 92.996094 78 L 95.078125 76.125 C 97.4375 73.996094 99.488281 70.042969 99.496094 67.609375 C 99.496094 66.707031 99.183594 65.214844 98.800781 64.292969 C 98.183594 62.820312 98.210938 62.148438 99.015625 58.691406 C 99.515625 56.527344 99.84375 54.675781 99.742188 54.578125 C 99.640625 54.476562 98.195312 55.222656 96.527344 56.234375 C 93.675781 57.964844 93.386719 58.039062 91.679688 57.476562 C 89.515625 56.761719 85.671875 57.125 83.496094 58.253906 L 81.9375 59.058594 L 78.742188 56.066406 C 74.621094 52.210938 69.457031 49.628906 64.75 49.0625 C 60.289062 48.527344 54.429688 49.179688 50.34375 50.664062 L 47.144531 51.824219 L 45.824219 50.683594 C 45.09375 50.058594 44.5 49.453125 44.5 49.339844 C 44.5 49.226562 47.851562 47.964844 51.949219 46.535156 C 56.046875 45.101562 59.796875 43.644531 60.277344 43.292969 C 61.679688 42.265625 60.6875 41.355469 58.597656 41.746094 C 57.152344 42.015625 56.910156 41.953125 57.335938 41.414062 C 59.671875 38.464844 61.5 35.84375 61.5 35.445312 C 61.5 35.183594 61.136719 34.828125 60.691406 34.65625 C 60.136719 34.445312 59.363281 34.960938 58.265625 36.269531 L 56.652344 38.191406 L 56.882812 35.410156 C 57.03125 33.613281 56.910156 32.503906 56.535156 32.273438 C 55.402344 31.570312 54.632812 33.039062 54.382812 36.382812 C 54.019531 41.207031 52.882812 43.253906 49.777344 44.675781 C 48.386719 45.3125 45.820312 46.253906 44.074219 46.761719 C 42.324219 47.273438 40.773438 48.007812 40.625 48.394531 C 40.464844 48.816406 41.234375 49.863281 42.550781 51.007812 C 44.222656 52.457031 44.613281 53.054688 44.175781 53.507812 C 43.359375 54.347656 42.109375 53.78125 39.289062 51.296875 L 36.828125 49.125 L 41.617188 44.550781 C 46.554688 39.828125 48.597656 36.6875 51.480469 29.382812 C 53.152344 25.144531 51.820312 23.167969 49.898438 27.035156 L 49.046875 28.75 L 49.019531 27.25 C 48.953125 23.847656 48.394531 22 47.433594 22 C 46.589844 22 46.5 22.445312 46.488281 26.625 "/>
</g>
</svg>
