<?xml version="1.0" encoding="UTF-8"?>
<svg xmlns="http://www.w3.org/2000/svg" xmlns:xlink="http://www.w3.org/1999/xlink" width="24px" height="24px" viewBox="0 0 24 24" version="1.1">
<g id="surface1">
<path style=" stroke:none;fill-rule:evenodd;fill:rgb(0%,0%,0%);fill-opacity:1;" d="M 11.15625 6.390625 L 11.15625 7.5 L 10.929688 7.003906 C 10.667969 6.425781 10.515625 6.304688 10.335938 6.519531 C 10.242188 6.636719 10.269531 6.84375 10.441406 7.300781 C 10.574219 7.640625 10.679688 8.207031 10.679688 8.558594 C 10.679688 9.273438 10.628906 9.339844 9.03125 10.828125 C 8.550781 11.273438 8.160156 11.714844 8.160156 11.8125 C 8.160156 11.910156 8.539062 12.296875 9.007812 12.671875 L 9.851562 13.359375 L 9.382812 13.847656 C 9.128906 14.117188 8.765625 14.542969 8.582031 14.789062 L 8.25 15.238281 L 4.769531 15.238281 C 1.617188 15.238281 1.304688 15.257812 1.449219 15.429688 C 1.535156 15.53125 1.851562 15.746094 2.152344 15.902344 L 2.699219 16.1875 L 1.410156 16.195312 C 0.699219 16.199219 0.121094 16.242188 0.121094 16.289062 C 0.121094 16.339844 0.351562 16.523438 0.628906 16.695312 C 1.527344 17.25 2.957031 17.605469 4.792969 17.726562 L 5.925781 17.800781 L 5.40625 18.257812 L 4.890625 18.71875 L 22.320312 18.71875 L 22.820312 18.269531 C 23.382812 17.757812 23.878906 16.8125 23.878906 16.226562 C 23.878906 16.007812 23.804688 15.652344 23.710938 15.429688 C 23.5625 15.078125 23.570312 14.914062 23.761719 14.085938 C 23.882812 13.566406 23.960938 13.121094 23.9375 13.097656 C 23.914062 13.074219 23.566406 13.253906 23.167969 13.496094 C 22.480469 13.910156 22.414062 13.929688 22.003906 13.792969 C 21.484375 13.621094 20.5625 13.710938 20.039062 13.980469 L 19.664062 14.171875 L 18.898438 13.457031 C 17.910156 12.53125 16.667969 11.910156 15.539062 11.773438 C 14.46875 11.648438 13.0625 11.804688 12.082031 12.160156 L 11.316406 12.4375 L 10.996094 12.164062 C 10.824219 12.015625 10.679688 11.871094 10.679688 11.84375 C 10.679688 11.816406 11.484375 11.511719 12.46875 11.167969 C 13.453125 10.824219 14.351562 10.472656 14.464844 10.390625 C 14.804688 10.144531 14.566406 9.925781 14.0625 10.019531 C 13.714844 10.085938 13.660156 10.070312 13.761719 9.941406 C 14.320312 9.230469 14.761719 8.601562 14.761719 8.507812 C 14.761719 8.445312 14.671875 8.359375 14.566406 8.316406 C 14.433594 8.265625 14.246094 8.390625 13.984375 8.703125 L 13.597656 9.164062 L 13.652344 8.5 C 13.6875 8.066406 13.65625 7.800781 13.566406 7.746094 C 13.296875 7.578125 13.113281 7.929688 13.050781 8.730469 C 12.964844 9.890625 12.691406 10.382812 11.945312 10.722656 C 11.613281 10.875 10.996094 11.101562 10.578125 11.222656 C 10.15625 11.34375 9.785156 11.523438 9.75 11.613281 C 9.710938 11.714844 9.894531 11.96875 10.210938 12.242188 C 10.613281 12.589844 10.707031 12.734375 10.601562 12.839844 C 10.40625 13.042969 10.105469 12.90625 9.429688 12.3125 L 8.839844 11.789062 L 9.988281 10.691406 C 11.171875 9.558594 11.664062 8.804688 12.355469 7.050781 C 12.757812 6.035156 12.4375 5.5625 11.976562 6.488281 L 11.773438 6.898438 L 11.765625 6.539062 C 11.75 5.722656 11.613281 5.28125 11.382812 5.28125 C 11.179688 5.28125 11.160156 5.386719 11.15625 6.390625 "/>
</g>
</svg>
