<?xml version="1.0" encoding="UTF-8"?>
<svg xmlns="http://www.w3.org/2000/svg" xmlns:xlink="http://www.w3.org/1999/xlink" width="24px" height="24px" viewBox="0 0 24 24" version="1.1">
<g id="surface1">
<path style=" stroke:none;fill-rule:evenodd;fill:rgb(0%,0%,0%);fill-opacity:1;" d="M 3.835938 4.476562 C 3.476562 4.664062 3.226562 4.917969 3.035156 5.277344 L 2.757812 5.800781 L 2.789062 12.769531 C 2.816406 18.871094 2.84375 19.738281 3 19.738281 C 3.15625 19.738281 3.1875 18.851562 3.238281 12.71875 C 3.296875 6.203125 3.316406 5.675781 3.515625 5.378906 C 3.832031 4.917969 4.425781 4.679688 5.269531 4.679688 L 6 4.679688 L 6 11.617188 L 5.578125 12.035156 C 5.050781 12.5625 5.03125 12.972656 5.511719 13.449219 C 5.953125 13.894531 6.367188 13.898438 6.851562 13.464844 L 7.230469 13.128906 L 7.566406 13.464844 C 8.003906 13.902344 8.4375 13.898438 8.890625 13.449219 L 9.238281 13.097656 L 9.589844 13.449219 C 10.042969 13.902344 10.472656 13.902344 10.921875 13.457031 L 11.265625 13.113281 L 11.507812 13.394531 C 12 13.957031 12.828125 13.867188 13.15625 13.214844 C 13.292969 12.933594 13.296875 12.933594 13.375 13.1875 C 13.578125 13.828125 14.703125 13.941406 15.085938 13.359375 C 15.40625 12.871094 15.335938 12.363281 14.898438 12 L 14.519531 11.683594 L 14.519531 4.679688 L 15.296875 4.679688 C 16.003906 4.679688 16.082031 4.703125 16.140625 4.949219 C 16.175781 5.097656 16.46875 6.667969 16.789062 8.4375 L 17.371094 11.65625 L 17.085938 11.945312 C 16.484375 12.542969 16.941406 13.609375 17.796875 13.609375 C 18.863281 13.609375 19.195312 12.164062 18.230469 11.738281 C 17.949219 11.613281 17.863281 11.472656 17.765625 10.980469 C 17.476562 9.527344 16.679688 5.046875 16.679688 4.871094 C 16.679688 4.707031 16.875 4.679688 18.070312 4.679688 C 19.613281 4.679688 20.105469 4.824219 20.484375 5.378906 C 20.683594 5.675781 20.703125 6.203125 20.761719 12.71875 C 20.8125 18.851562 20.84375 19.738281 21 19.738281 C 21.15625 19.738281 21.183594 18.890625 21.214844 12.960938 C 21.234375 9.230469 21.21875 6.003906 21.179688 5.789062 C 21.089844 5.300781 20.472656 4.578125 19.957031 4.363281 C 19.644531 4.230469 18.078125 4.199219 11.960938 4.199219 L 4.359375 4.199219 L 3.835938 4.476562 M 6.480469 8.164062 L 6.480469 11.648438 L 6.898438 12.066406 C 7.132812 12.300781 7.320312 12.433594 7.320312 12.363281 C 7.320312 12.292969 7.453125 12.121094 7.621094 11.976562 L 7.921875 11.714844 L 7.921875 4.679688 L 6.480469 4.679688 L 6.480469 8.164062 M 8.519531 8.199219 L 8.519531 11.714844 L 8.820312 11.976562 C 8.984375 12.121094 9.121094 12.292969 9.121094 12.363281 C 9.121094 12.433594 9.308594 12.300781 9.539062 12.066406 L 9.960938 11.648438 L 9.960938 4.679688 L 8.519531 4.679688 L 8.519531 8.199219 M 10.558594 8.175781 L 10.558594 11.667969 L 10.890625 12.046875 L 11.226562 12.425781 L 11.613281 12.035156 L 12 11.648438 L 12 4.679688 L 10.558594 4.679688 L 10.558594 8.175781 M 12.480469 8.167969 L 12.480469 11.65625 L 12.878906 12.039062 L 13.28125 12.421875 L 14.039062 11.648438 L 14.039062 4.679688 L 12.480469 4.679688 L 12.480469 8.167969 M 17.425781 12.265625 C 17.101562 12.585938 17.351562 13.078125 17.839844 13.078125 C 18.136719 13.078125 18.363281 12.761719 18.265625 12.480469 C 18.140625 12.121094 17.683594 12.003906 17.425781 12.265625 M 5.835938 12.492188 C 5.503906 12.96875 5.988281 13.457031 6.460938 13.128906 C 6.769531 12.914062 6.789062 12.6875 6.53125 12.429688 C 6.273438 12.171875 6.046875 12.191406 5.835938 12.492188 M 7.863281 12.433594 C 7.621094 12.675781 7.664062 12.941406 7.984375 13.152344 C 8.195312 13.292969 8.269531 13.289062 8.496094 13.132812 C 8.808594 12.914062 8.832031 12.6875 8.570312 12.429688 C 8.332031 12.1875 8.109375 12.191406 7.863281 12.433594 M 9.910156 12.429688 C 9.65625 12.679688 9.703125 12.941406 10.042969 13.164062 C 10.277344 13.320312 10.328125 13.3125 10.558594 13.078125 C 10.792969 12.847656 10.800781 12.796875 10.644531 12.5625 C 10.421875 12.222656 10.160156 12.175781 9.910156 12.429688 M 11.945312 12.402344 C 11.476562 12.746094 12.011719 13.464844 12.523438 13.179688 C 12.875 12.980469 12.699219 12.238281 12.300781 12.238281 C 12.226562 12.238281 12.066406 12.3125 11.945312 12.402344 M 13.925781 12.414062 C 13.847656 12.507812 13.800781 12.710938 13.820312 12.863281 C 13.851562 13.09375 13.933594 13.140625 14.28125 13.140625 C 14.628906 13.140625 14.707031 13.09375 14.738281 12.863281 C 14.785156 12.53125 14.570312 12.238281 14.28125 12.238281 C 14.164062 12.238281 14.003906 12.316406 13.925781 12.414062 "/>
</g>
</svg>
