<?xml version="1.0" encoding="UTF-8"?>
<svg xmlns="http://www.w3.org/2000/svg" xmlns:xlink="http://www.w3.org/1999/xlink" width="100px" height="100px" viewBox="0 0 100 100" version="1.1">
<g id="surface1">
<path style=" stroke:none;fill-rule:evenodd;fill:rgb(0%,0%,0%);fill-opacity:1;" d="M 15.980469 18.652344 C 14.488281 19.441406 13.4375 20.492188 12.648438 21.988281 L 11.492188 24.171875 L 11.621094 53.210938 C 11.734375 78.632812 11.84375 82.25 12.5 82.25 C 13.15625 82.25 13.28125 78.554688 13.5 53 C 13.730469 25.847656 13.816406 23.65625 14.65625 22.417969 C 15.964844 20.488281 18.433594 19.5 21.949219 19.5 L 25 19.5 L 25 48.398438 L 23.25 50.148438 C 21.050781 52.347656 20.96875 54.046875 22.960938 56.039062 C 24.8125 57.886719 26.53125 57.90625 28.550781 56.097656 L 30.121094 54.699219 L 31.523438 56.097656 C 33.355469 57.933594 35.164062 57.914062 37.039062 56.039062 L 38.5 54.578125 L 39.960938 56.039062 C 41.847656 57.925781 43.644531 57.933594 45.507812 56.070312 L 46.941406 54.636719 L 47.953125 55.804688 C 50 58.15625 53.457031 57.78125 54.816406 55.054688 C 55.394531 53.894531 55.398438 53.894531 55.734375 54.949219 C 56.582031 57.621094 61.261719 58.089844 62.851562 55.667969 C 64.1875 53.628906 63.902344 51.515625 62.082031 50 L 60.5 48.675781 L 60.5 19.5 L 63.742188 19.5 C 66.6875 19.5 67.003906 19.601562 67.25 20.625 C 67.398438 21.242188 68.613281 27.785156 69.949219 35.164062 L 72.378906 48.574219 L 71.191406 49.765625 C 68.6875 52.269531 70.585938 56.699219 74.160156 56.699219 C 78.597656 56.699219 79.984375 50.683594 75.957031 48.902344 C 74.785156 48.382812 74.429688 47.808594 74.023438 45.757812 C 72.816406 39.703125 69.5 21.035156 69.5 20.304688 C 69.5 19.613281 70.304688 19.5 75.300781 19.5 C 81.714844 19.5 83.769531 20.097656 85.34375 22.417969 C 86.183594 23.65625 86.269531 25.847656 86.5 53 C 86.71875 78.554688 86.84375 82.25 87.5 82.25 C 88.15625 82.25 88.269531 78.714844 88.394531 54 C 88.472656 38.460938 88.402344 25.015625 88.242188 24.113281 C 87.878906 22.082031 85.296875 19.074219 83.148438 18.175781 C 81.847656 17.632812 75.328125 17.5 49.84375 17.5 L 18.15625 17.5 L 15.980469 18.652344 M 27 34.015625 L 27 48.535156 L 28.75 50.285156 C 29.710938 51.246094 30.5 51.800781 30.5 51.511719 C 30.5 51.226562 31.0625 50.503906 31.75 49.90625 L 33 48.820312 L 33 19.5 L 27 19.5 L 27 34.015625 M 35.5 34.160156 L 35.5 48.820312 L 36.75 49.90625 C 37.4375 50.503906 38 51.226562 38 51.511719 C 38 51.800781 38.789062 51.246094 39.75 50.285156 L 41.5 48.535156 L 41.5 19.5 L 35.5 19.5 L 35.5 34.160156 M 44 34.058594 L 44 48.617188 L 45.386719 50.195312 L 46.769531 51.773438 L 48.386719 50.152344 L 50 48.527344 L 50 19.5 L 44 19.5 L 44 34.058594 M 52 34.035156 L 52 48.566406 L 53.667969 50.160156 L 55.332031 51.75 L 56.917969 50.140625 L 58.5 48.527344 L 58.5 19.5 L 52 19.5 L 52 34.035156 M 72.601562 51.101562 C 71.253906 52.445312 72.300781 54.5 74.332031 54.5 C 75.574219 54.5 76.511719 53.179688 76.109375 52 C 75.59375 50.5 73.6875 50.011719 72.601562 51.101562 M 24.316406 52.058594 C 22.933594 54.03125 24.953125 56.078125 26.921875 54.699219 C 28.199219 53.804688 28.292969 52.863281 27.214844 51.785156 C 26.140625 50.710938 25.195312 50.800781 24.316406 52.058594 M 32.761719 51.808594 C 31.75 52.820312 31.941406 53.925781 33.273438 54.808594 C 34.144531 55.386719 34.460938 55.371094 35.398438 54.714844 C 36.699219 53.804688 36.796875 52.871094 35.714844 51.785156 C 34.710938 50.78125 33.78125 50.789062 32.761719 51.808594 M 41.285156 51.785156 C 40.238281 52.835938 40.433594 53.921875 41.839844 54.851562 C 42.820312 55.503906 43.03125 55.46875 44 54.5 C 44.96875 53.53125 45.003906 53.320312 44.351562 52.339844 C 43.421875 50.933594 42.335938 50.738281 41.285156 51.785156 M 49.773438 51.671875 C 47.816406 53.101562 50.046875 56.101562 52.179688 54.910156 C 53.652344 54.085938 52.914062 51 51.246094 51 C 50.941406 51 50.277344 51.300781 49.773438 51.671875 M 58.023438 51.722656 C 57.691406 52.121094 57.496094 52.964844 57.585938 53.597656 C 57.722656 54.550781 58.054688 54.75 59.5 54.75 C 60.945312 54.75 61.277344 54.550781 61.414062 53.597656 C 61.609375 52.21875 60.710938 51 59.5 51 C 59.015625 51 58.351562 51.324219 58.023438 51.722656 "/>
</g>
</svg>
