<?xml version="1.0" encoding="UTF-8"?>
<svg xmlns="http://www.w3.org/2000/svg" xmlns:xlink="http://www.w3.org/1999/xlink" width="24px" height="24px" viewBox="0 0 24 24" version="1.1">
<g id="surface1">
<path style=" stroke:none;fill-rule:evenodd;fill:rgb(0%,0%,0%);fill-opacity:1;" d="M 13.195312 8.613281 C 12.066406 9.320312 11.683594 9.597656 10.90625 10.261719 C 10.191406 10.871094 9.589844 11.078125 7.800781 11.328125 C 6.191406 11.554688 4.46875 12.082031 4.296875 12.398438 C 4.113281 12.746094 4.109375 14.445312 4.292969 14.664062 C 4.40625 14.800781 4.710938 14.851562 5.480469 14.863281 C 6.734375 14.878906 7.742188 15.050781 8.566406 15.386719 C 10.109375 16.007812 11.222656 16.078125 15.238281 15.785156 C 17.683594 15.609375 18.578125 15.40625 19.332031 14.871094 C 20.128906 14.304688 20.042969 13.894531 18.871094 12.75 C 17.972656 11.871094 17.515625 11.667969 16.230469 11.570312 L 15.148438 11.488281 L 15.554688 10.789062 C 15.78125 10.40625 15.996094 9.9375 16.03125 9.75 C 16.132812 9.253906 15.804688 8.566406 15.335938 8.28125 C 14.703125 7.894531 14.21875 7.972656 13.195312 8.613281 M 13.789062 8.75 C 13.203125 9.335938 13.421875 10.296875 14.199219 10.554688 C 14.945312 10.800781 15.601562 10.328125 15.597656 9.550781 C 15.585938 8.492188 14.523438 8.019531 13.789062 8.75 M 14.398438 8.671875 C 14.398438 8.757812 14.5625 8.886719 14.761719 8.964844 C 15.0625 9.078125 15.121094 9.164062 15.121094 9.503906 C 15.121094 9.730469 15.054688 9.976562 14.976562 10.054688 C 14.78125 10.25 14.964844 10.398438 15.214844 10.242188 C 15.347656 10.160156 15.433594 9.925781 15.457031 9.570312 C 15.488281 9.101562 15.449219 8.992188 15.167969 8.773438 C 14.8125 8.492188 14.398438 8.4375 14.398438 8.671875 M 13.804688 8.992188 C 13.628906 9.320312 13.652344 9.71875 13.847656 9.71875 C 13.9375 9.71875 14.039062 9.597656 14.070312 9.449219 C 14.101562 9.300781 14.167969 9.085938 14.21875 8.96875 C 14.34375 8.671875 13.964844 8.691406 13.804688 8.992188 M 12.179688 9.777344 C 11.71875 10.140625 11.105469 10.613281 10.816406 10.828125 L 10.296875 11.21875 L 10.664062 11.257812 C 10.902344 11.28125 11.160156 11.199219 11.394531 11.027344 C 11.792969 10.730469 12.011719 10.800781 11.789062 11.15625 C 11.660156 11.367188 11.699219 11.390625 12.285156 11.464844 C 12.878906 11.539062 12.945312 11.519531 13.324219 11.175781 L 13.726562 10.804688 L 13.4375 10.5 C 13.257812 10.308594 13.125 9.988281 13.085938 9.65625 L 13.019531 9.117188 L 12.179688 9.777344 M 12.449219 10.171875 C 12.121094 10.375 12.003906 10.679688 12.25 10.679688 C 12.472656 10.679688 13.085938 10.1875 13.015625 10.070312 C 12.921875 9.917969 12.832031 9.933594 12.449219 10.171875 M 14.039062 10.128906 C 14.039062 10.386719 14.503906 10.621094 14.675781 10.449219 C 14.832031 10.296875 14.699219 10.144531 14.308594 10.027344 C 14.113281 9.964844 14.039062 9.992188 14.039062 10.128906 M 13.753906 11.246094 C 13.589844 11.464844 13.582031 11.519531 13.71875 11.519531 C 13.8125 11.519531 14.054688 11.554688 14.253906 11.59375 C 14.570312 11.65625 14.644531 11.617188 14.796875 11.324219 L 14.972656 10.980469 L 14.46875 10.976562 C 14.078125 10.976562 13.910156 11.039062 13.753906 11.246094 M 6.933594 11.878906 C 5.523438 12.175781 4.714844 12.453125 4.628906 12.675781 C 4.589844 12.777344 4.558594 13.207031 4.558594 13.628906 L 4.558594 14.398438 L 5.25 14.402344 C 6.386719 14.40625 7.550781 14.617188 8.820312 15.054688 C 10.320312 15.566406 11.082031 15.652344 13.144531 15.542969 L 14.777344 15.453125 L 14.515625 15.175781 C 14.097656 14.730469 14.34375 14.601562 14.90625 14.972656 C 15.328125 15.25 15.527344 15.300781 16.25 15.300781 C 17.78125 15.300781 19.441406 14.648438 19.441406 14.046875 C 19.441406 13.761719 19.007812 13.367188 18.929688 13.582031 C 18.859375 13.78125 17.761719 13.226562 17.761719 12.992188 C 17.761719 12.773438 18 12.804688 18.480469 13.09375 L 18.898438 13.34375 L 18.484375 12.910156 C 17.734375 12.125 17.308594 12 15.378906 12 L 13.675781 12 L 13.75 12.300781 C 13.847656 12.695312 13.628906 12.691406 13.285156 12.292969 C 13.058594 12.035156 12.839844 11.964844 11.820312 11.816406 C 10.171875 11.582031 8.214844 11.605469 6.933594 11.878906 M 8.171875 12.007812 C 7.570312 12.128906 7.46875 12.195312 7.636719 12.363281 C 7.71875 12.445312 8.046875 12.445312 8.632812 12.359375 C 9.585938 12.226562 9.761719 12.164062 9.65625 11.992188 C 9.574219 11.859375 8.902344 11.867188 8.171875 12.007812 M 11.039062 12.273438 C 11.039062 12.375 11.199219 12.480469 11.414062 12.523438 C 11.988281 12.640625 13.078125 12.613281 13.078125 12.488281 C 13.078125 12.308594 12.957031 12.273438 11.96875 12.183594 C 11.195312 12.113281 11.039062 12.128906 11.039062 12.273438 M 14.46875 12.347656 C 14.296875 12.621094 14.5625 12.71875 15.488281 12.71875 C 16.253906 12.71875 16.441406 12.683594 16.441406 12.539062 C 16.441406 12.40625 16.296875 12.359375 15.855469 12.359375 C 15.535156 12.359375 15.109375 12.328125 14.910156 12.289062 C 14.699219 12.246094 14.515625 12.269531 14.46875 12.347656 M 5.519531 12.648438 C 5.289062 12.734375 5.101562 12.863281 5.101562 12.941406 C 5.101562 13.109375 5.175781 13.121094 5.671875 13.015625 C 6.125 12.917969 6.386719 12.738281 6.292969 12.585938 C 6.207031 12.449219 6.039062 12.464844 5.519531 12.648438 M 6.542969 13.3125 C 6.5 13.382812 6.546875 13.472656 6.644531 13.511719 C 6.898438 13.609375 7.378906 13.523438 7.378906 13.378906 C 7.378906 13.214844 6.640625 13.15625 6.542969 13.3125 M 7.976562 13.324219 C 7.835938 13.554688 8.101562 13.699219 8.59375 13.65625 C 8.910156 13.632812 9.058594 13.5625 9.058594 13.441406 C 9.058594 13.21875 8.105469 13.117188 7.976562 13.324219 M 9.65625 13.324219 C 9.511719 13.558594 9.789062 13.695312 10.332031 13.65625 C 10.703125 13.632812 10.859375 13.566406 10.859375 13.441406 C 10.859375 13.214844 9.789062 13.113281 9.65625 13.324219 M 11.398438 13.5 C 11.398438 13.636719 11.546875 13.679688 12 13.679688 C 12.453125 13.679688 12.601562 13.636719 12.601562 13.5 C 12.601562 13.363281 12.453125 13.320312 12 13.320312 C 11.546875 13.320312 11.398438 13.363281 11.398438 13.5 M 13.109375 13.46875 C 13.140625 13.5625 13.382812 13.621094 13.738281 13.621094 C 14.097656 13.621094 14.339844 13.5625 14.371094 13.46875 C 14.40625 13.363281 14.230469 13.320312 13.738281 13.320312 C 13.25 13.320312 13.074219 13.363281 13.109375 13.46875 M 14.878906 13.5 C 14.878906 13.636719 15.027344 13.679688 15.480469 13.679688 C 15.933594 13.679688 16.078125 13.636719 16.078125 13.5 C 16.078125 13.363281 15.933594 13.320312 15.480469 13.320312 C 15.027344 13.320312 14.878906 13.363281 14.878906 13.5 M 16.613281 13.453125 C 16.566406 13.527344 16.605469 13.632812 16.695312 13.691406 C 16.953125 13.855469 17.398438 13.820312 17.398438 13.632812 C 17.398438 13.347656 16.765625 13.203125 16.613281 13.453125 M 5.21875 13.800781 C 5.128906 13.949219 5.65625 14.160156 6.128906 14.160156 C 6.652344 14.160156 6.574219 13.847656 6.03125 13.757812 C 5.414062 13.65625 5.304688 13.660156 5.21875 13.800781 M 13.738281 14.117188 C 13.609375 14.144531 13.378906 14.195312 13.230469 14.226562 C 13.082031 14.257812 12.960938 14.371094 12.960938 14.472656 C 12.960938 14.625 13.050781 14.644531 13.429688 14.582031 C 13.691406 14.539062 14.269531 14.464844 14.722656 14.421875 C 15.171875 14.375 15.539062 14.285156 15.539062 14.21875 C 15.539062 14.097656 14.175781 14.019531 13.738281 14.117188 M 17.480469 14.121094 C 17.28125 14.320312 17.449219 14.398438 18.058594 14.398438 C 18.566406 14.398438 18.71875 14.359375 18.71875 14.21875 C 18.71875 14.085938 18.574219 14.039062 18.140625 14.039062 C 17.820312 14.039062 17.523438 14.074219 17.480469 14.121094 M 8.457031 14.28125 C 8.410156 14.359375 8.417969 14.464844 8.476562 14.515625 C 8.652344 14.675781 10.824219 14.902344 10.953125 14.777344 C 11.183594 14.546875 10.90625 14.433594 9.914062 14.359375 C 9.355469 14.316406 8.820312 14.25 8.722656 14.210938 C 8.625 14.175781 8.503906 14.207031 8.457031 14.28125 "/>
</g>
</svg>
