<?xml version="1.0" encoding="UTF-8"?>
<svg xmlns="http://www.w3.org/2000/svg" xmlns:xlink="http://www.w3.org/1999/xlink" width="100px" height="100px" viewBox="0 0 100 100" version="1.1">
<g id="surface1">
<path style=" stroke:none;fill-rule:evenodd;fill:rgb(0%,0%,0%);fill-opacity:1;" d="M 54.984375 35.886719 C 50.28125 38.835938 48.679688 39.992188 45.441406 42.753906 C 42.464844 45.296875 39.960938 46.15625 32.5 47.203125 C 25.804688 48.144531 18.621094 50.34375 17.910156 51.664062 C 17.136719 53.109375 17.117188 60.179688 17.882812 61.105469 C 18.351562 61.671875 19.625 61.882812 22.84375 61.929688 C 28.050781 62 32.25 62.710938 35.695312 64.105469 C 42.121094 66.707031 46.765625 66.984375 63.5 65.769531 C 73.6875 65.03125 77.410156 64.199219 80.554688 61.960938 C 83.878906 59.59375 83.507812 57.886719 78.636719 53.121094 C 74.890625 49.460938 72.988281 48.609375 67.621094 48.207031 L 63.109375 47.863281 L 64.8125 44.960938 C 65.746094 43.367188 66.640625 41.410156 66.800781 40.621094 C 67.210938 38.566406 65.851562 35.699219 63.90625 34.511719 C 61.261719 32.902344 59.246094 33.210938 54.984375 35.886719 M 57.460938 36.460938 C 55.019531 38.902344 55.929688 42.902344 59.164062 43.972656 C 62.269531 44.996094 65.007812 43.027344 64.984375 39.789062 C 64.949219 35.375 60.507812 33.414062 57.460938 36.460938 M 60 36.140625 C 60 36.492188 60.675781 37.035156 61.5 37.347656 C 62.761719 37.824219 63 38.183594 63 39.605469 C 63 40.539062 62.734375 41.566406 62.410156 41.890625 C 61.585938 42.714844 62.359375 43.332031 63.398438 42.679688 C 63.949219 42.335938 64.304688 41.347656 64.398438 39.878906 C 64.53125 37.921875 64.367188 37.46875 63.207031 36.554688 C 61.710938 35.378906 60 35.15625 60 36.140625 M 57.515625 37.46875 C 56.78125 38.84375 56.878906 40.5 57.691406 40.5 C 58.070312 40.5 58.492188 39.992188 58.628906 39.375 C 58.761719 38.757812 59.035156 37.855469 59.238281 37.375 C 59.761719 36.132812 58.1875 36.214844 57.515625 37.46875 M 50.75 40.738281 C 48.824219 42.246094 46.273438 44.214844 45.074219 45.113281 L 42.898438 46.75 L 44.429688 46.90625 C 45.417969 47.003906 46.492188 46.664062 47.472656 45.941406 C 49.140625 44.707031 50.046875 45.011719 49.121094 46.488281 C 48.582031 47.359375 48.742188 47.457031 51.183594 47.761719 C 53.660156 48.074219 53.945312 47.992188 55.515625 46.558594 L 57.195312 45.023438 L 55.996094 43.742188 C 55.246094 42.945312 54.691406 41.621094 54.519531 40.226562 L 54.25 37.992188 L 50.75 40.738281 M 51.875 42.378906 C 50.503906 43.230469 50.007812 44.5 51.046875 44.5 C 51.96875 44.5 54.53125 42.453125 54.226562 41.960938 C 53.835938 41.328125 53.464844 41.390625 51.875 42.378906 M 58.5 42.199219 C 58.5 43.273438 60.441406 44.261719 61.152344 43.546875 C 61.800781 42.898438 61.253906 42.265625 59.625 41.773438 C 58.800781 41.523438 58.5 41.636719 58.5 42.199219 M 57.308594 46.863281 C 56.621094 47.777344 56.59375 48 57.164062 48 C 57.554688 48 58.558594 48.136719 59.398438 48.304688 C 60.710938 48.566406 61.019531 48.414062 61.65625 47.179688 L 62.390625 45.75 L 60.28125 45.738281 C 58.660156 45.730469 57.96875 45.992188 57.308594 46.863281 M 28.890625 49.488281 C 23.007812 50.730469 19.648438 51.894531 19.292969 52.816406 C 19.132812 53.238281 19 55.027344 19 56.789062 L 19 60 L 21.875 60.011719 C 26.605469 60.027344 31.457031 60.910156 36.75 62.722656 C 42.996094 64.859375 46.179688 65.21875 54.761719 64.757812 L 61.574219 64.394531 L 60.484375 63.234375 C 58.738281 61.375 59.769531 60.835938 62.113281 62.382812 C 63.871094 63.546875 64.699219 63.75 67.714844 63.75 C 74.082031 63.75 81 61.035156 81 58.53125 C 81 57.335938 79.191406 55.6875 78.871094 56.59375 C 78.582031 57.417969 74 55.109375 74 54.136719 C 74 53.214844 75.003906 53.355469 77 54.554688 L 78.75 55.605469 L 77.023438 53.796875 C 73.886719 50.515625 72.125 50 64.082031 50 L 56.980469 50 L 57.292969 51.25 C 57.707031 52.890625 56.78125 52.882812 55.351562 51.226562 C 54.414062 50.144531 53.503906 49.847656 49.25 49.242188 C 42.375 48.265625 34.230469 48.363281 28.890625 49.488281 M 34.054688 50.039062 C 31.539062 50.535156 31.113281 50.816406 31.820312 51.519531 C 32.15625 51.855469 33.527344 51.851562 35.96875 51.503906 C 39.933594 50.941406 40.667969 50.675781 40.226562 49.964844 C 39.886719 49.410156 37.09375 49.445312 34.054688 50.039062 M 46 51.144531 C 46 51.5625 46.667969 52.007812 47.5625 52.1875 C 49.945312 52.664062 54.5 52.558594 54.5 52.03125 C 54.5 51.28125 53.988281 51.144531 49.875 50.769531 C 46.648438 50.472656 46 50.535156 46 51.144531 M 60.28125 51.449219 C 59.574219 52.59375 60.683594 53 64.53125 53 C 67.726562 53 68.5 52.851562 68.5 52.25 C 68.5 51.6875 67.894531 51.5 66.0625 51.5 C 64.722656 51.5 62.949219 51.363281 62.121094 51.199219 C 61.25 51.023438 60.480469 51.128906 60.28125 51.449219 M 23 52.707031 C 22.039062 53.054688 21.25 53.601562 21.25 53.917969 C 21.25 54.628906 21.570312 54.671875 23.632812 54.230469 C 25.515625 53.828125 26.605469 53.074219 26.214844 52.445312 C 25.863281 51.871094 25.15625 51.929688 23 52.707031 M 27.265625 55.476562 C 27.085938 55.769531 27.273438 56.136719 27.683594 56.292969 C 28.742188 56.699219 30.75 56.34375 30.75 55.75 C 30.75 55.0625 27.671875 54.816406 27.265625 55.476562 M 33.238281 55.515625 C 32.648438 56.472656 33.765625 57.078125 35.808594 56.910156 C 37.128906 56.800781 37.75 56.511719 37.75 56 C 37.75 55.074219 33.777344 54.648438 33.238281 55.515625 M 40.238281 55.519531 C 39.628906 56.503906 40.78125 57.070312 43.058594 56.90625 C 44.601562 56.796875 45.25 56.527344 45.25 56 C 45.25 55.070312 40.78125 54.640625 40.238281 55.519531 M 47.5 56.25 C 47.5 56.816406 48.109375 57 50 57 C 51.890625 57 52.5 56.816406 52.5 56.25 C 52.5 55.683594 51.890625 55.5 50 55.5 C 48.109375 55.5 47.5 55.683594 47.5 56.25 M 54.625 56.125 C 54.753906 56.511719 55.761719 56.75 57.25 56.75 C 58.738281 56.75 59.746094 56.511719 59.875 56.125 C 60.027344 55.675781 59.292969 55.5 57.25 55.5 C 55.207031 55.5 54.472656 55.675781 54.625 56.125 M 62 56.25 C 62 56.816406 62.609375 57 64.5 57 C 66.390625 57 67 56.816406 67 56.25 C 67 55.683594 66.390625 55.5 64.5 55.5 C 62.609375 55.5 62 55.683594 62 56.25 M 69.214844 56.054688 C 69.027344 56.363281 69.183594 56.808594 69.5625 57.046875 C 70.640625 57.734375 72.5 57.578125 72.5 56.804688 C 72.5 55.613281 69.863281 55.011719 69.214844 56.054688 M 21.75 57.5 C 21.363281 58.125 23.574219 59 25.53125 59 C 27.710938 59 27.394531 57.695312 25.125 57.320312 C 22.558594 56.898438 22.109375 56.921875 21.75 57.5 M 57.25 58.816406 C 56.699219 58.9375 55.742188 59.148438 55.125 59.277344 C 54.507812 59.410156 54 59.871094 54 60.304688 C 54 60.9375 54.371094 61.023438 55.964844 60.757812 C 57.042969 60.574219 59.460938 60.273438 61.339844 60.085938 C 63.214844 59.902344 64.75 59.523438 64.75 59.25 C 64.75 58.742188 59.070312 58.414062 57.25 58.816406 M 72.832031 58.832031 C 72.003906 59.664062 72.703125 60 75.25 60 C 77.359375 60 78 59.824219 78 59.25 C 78 58.6875 77.398438 58.5 75.582031 58.5 C 74.253906 58.5 73.015625 58.648438 72.832031 58.832031 M 35.242188 59.507812 C 35.046875 59.828125 35.082031 60.265625 35.320312 60.480469 C 36.046875 61.144531 45.101562 62.097656 45.632812 61.566406 C 46.59375 60.605469 45.445312 60.144531 41.308594 59.824219 C 38.984375 59.648438 36.75 59.371094 36.34375 59.214844 C 35.933594 59.058594 35.441406 59.191406 35.242188 59.507812 "/>
</g>
</svg>
