<?xml version="1.0" encoding="UTF-8"?>
<svg xmlns="http://www.w3.org/2000/svg" xmlns:xlink="http://www.w3.org/1999/xlink" width="100px" height="100px" viewBox="0 0 100 100" version="1.1">
<g id="surface1">
<path style=" stroke:none;fill-rule:evenodd;fill:rgb(0%,0%,0%);fill-opacity:1;" d="M 66.34375 0.738281 C 62.59375 2.050781 61.4375 3.84375 60.484375 9.832031 C 59.910156 13.421875 59.933594 14.320312 60.675781 17.332031 C 61.140625 19.210938 62.277344 21.988281 63.207031 23.5 C 64.984375 26.398438 66.5 30.773438 66.5 33.015625 C 66.5 35.039062 65.507812 37.460938 64.445312 38.03125 C 63.660156 38.449219 63.171875 38.199219 61.621094 36.574219 C 59.539062 34.386719 57.117188 33.503906 53.25 33.511719 C 49.769531 33.515625 44.589844 34.816406 42.464844 36.21875 L 40.679688 37.394531 L 40.800781 35.21875 C 40.871094 34.023438 40.75 32.414062 40.535156 31.644531 L 40.144531 30.25 L 39.359375 32 C 38.925781 32.960938 38.449219 34.152344 38.292969 34.648438 C 38.070312 35.363281 37.820312 35.4375 37.039062 35.023438 C 35.609375 34.253906 35.5 34.335938 35.5 36.179688 C 35.5 37.722656 35.378906 37.851562 34 37.804688 C 33.175781 37.773438 32.503906 37.554688 32.5 37.316406 C 32.5 37.078125 32.050781 37 31.5 37.144531 C 30.949219 37.289062 30.5 37.203125 30.5 36.953125 C 30.5 36.703125 30.050781 36.5 29.5 36.5 C 28.320312 36.5 28.210938 37.425781 29.234375 38.78125 C 30.238281 40.105469 30.199219 40.25 28.625 40.964844 L 27.25 41.59375 L 30.023438 43.804688 L 28.777344 44.976562 C 27.351562 46.316406 27.519531 47 29.28125 47 C 30.71875 47 30.753906 47.148438 29.691406 48.765625 L 28.886719 50 L 32.992188 50 C 36.195312 50 37.386719 50.203125 38.421875 50.9375 C 40.675781 52.523438 44.714844 54.402344 46.664062 54.765625 C 47.785156 54.976562 48.746094 55.527344 49.078125 56.148438 C 49.464844 56.871094 49.527344 61.058594 49.289062 70.214844 C 48.890625 85.292969 48.285156 93.070312 47.277344 95.917969 C 46.324219 98.625 47.042969 99.183594 51.800781 99.421875 C 55.050781 99.585938 55.628906 99.472656 56.953125 98.429688 C 57.773438 97.78125 58.457031 97.117188 58.472656 96.957031 C 58.539062 96.261719 55.746094 95.5 53.148438 95.5 L 50.347656 95.5 L 50.664062 85.375 C 50.839844 79.804688 51.207031 74.351562 51.480469 73.25 C 51.753906 72.148438 51.984375 68.550781 51.992188 65.25 C 52.003906 61.949219 52.148438 58.421875 52.316406 57.410156 C 52.589844 55.738281 52.796875 55.539062 54.53125 55.246094 C 57.5 54.742188 63.054688 51.820312 65.097656 49.683594 C 68.121094 46.523438 69.703125 42.496094 69.914062 37.417969 C 70.136719 32.164062 69.480469 29.664062 66.050781 22.648438 C 63.15625 16.734375 62.710938 14.925781 63.46875 12.117188 L 64.019531 10.074219 L 66.882812 10.363281 C 71.832031 10.867188 73.019531 12.589844 71.28125 16.753906 C 69.746094 20.421875 72.835938 19.003906 74.558594 15.25 C 75.738281 12.683594 75.753906 9.183594 74.601562 7.25 C 74.105469 6.425781 73.425781 4.796875 73.085938 3.632812 C 72.207031 0.632812 69.703125 -0.441406 66.34375 0.738281 "/>
</g>
</svg>
