<?xml version="1.0" encoding="UTF-8"?>
<svg xmlns="http://www.w3.org/2000/svg" xmlns:xlink="http://www.w3.org/1999/xlink" width="24px" height="24px" viewBox="0 0 24 24" version="1.1">
<g id="surface1">
<path style=" stroke:none;fill-rule:evenodd;fill:rgb(0%,0%,0%);fill-opacity:1;" d="M 15.921875 0.175781 C 15.023438 0.492188 14.746094 0.921875 14.515625 2.359375 C 14.378906 3.222656 14.382812 3.4375 14.5625 4.160156 C 14.671875 4.609375 14.945312 5.277344 15.167969 5.640625 C 15.597656 6.335938 15.960938 7.386719 15.960938 7.925781 C 15.960938 8.410156 15.722656 8.992188 15.46875 9.128906 C 15.277344 9.226562 15.160156 9.167969 14.789062 8.777344 C 14.289062 8.253906 13.707031 8.039062 12.78125 8.042969 C 11.945312 8.042969 10.703125 8.355469 10.191406 8.691406 L 9.761719 8.976562 L 9.792969 8.453125 C 9.808594 8.164062 9.78125 7.78125 9.726562 7.59375 L 9.632812 7.261719 L 9.445312 7.679688 C 9.34375 7.910156 9.226562 8.195312 9.191406 8.316406 C 9.136719 8.488281 9.078125 8.503906 8.890625 8.40625 C 8.546875 8.222656 8.519531 8.242188 8.519531 8.683594 C 8.519531 9.054688 8.492188 9.085938 8.160156 9.074219 C 7.960938 9.066406 7.800781 9.011719 7.800781 8.957031 C 7.800781 8.898438 7.691406 8.878906 7.558594 8.914062 C 7.429688 8.949219 7.320312 8.929688 7.320312 8.867188 C 7.320312 8.808594 7.210938 8.761719 7.078125 8.761719 C 6.796875 8.761719 6.769531 8.980469 7.015625 9.308594 C 7.257812 9.625 7.246094 9.660156 6.871094 9.832031 L 6.539062 9.984375 L 6.871094 10.246094 L 7.207031 10.511719 L 6.90625 10.792969 C 6.5625 11.117188 6.605469 11.28125 7.027344 11.28125 C 7.371094 11.28125 7.382812 11.316406 7.125 11.703125 L 6.933594 12 L 7.917969 12 C 8.6875 12 8.972656 12.050781 9.222656 12.226562 C 9.761719 12.605469 10.730469 13.054688 11.199219 13.144531 C 11.46875 13.195312 11.699219 13.328125 11.777344 13.476562 C 11.871094 13.648438 11.886719 14.652344 11.828125 16.851562 C 11.734375 20.46875 11.589844 22.335938 11.347656 23.019531 C 11.117188 23.671875 11.289062 23.804688 12.433594 23.863281 C 13.210938 23.902344 13.351562 23.875 13.667969 23.621094 C 13.867188 23.46875 14.03125 23.308594 14.035156 23.269531 C 14.050781 23.101562 13.378906 22.921875 12.757812 22.921875 L 12.082031 22.921875 L 12.160156 20.488281 C 12.203125 19.152344 12.289062 17.84375 12.355469 17.578125 C 12.421875 17.316406 12.476562 16.453125 12.476562 15.660156 C 12.480469 14.867188 12.515625 14.019531 12.554688 13.777344 C 12.621094 13.378906 12.671875 13.328125 13.085938 13.257812 C 13.800781 13.136719 15.132812 12.4375 15.625 11.925781 C 16.347656 11.164062 16.730469 10.199219 16.78125 8.980469 C 16.832031 7.71875 16.675781 7.121094 15.851562 5.4375 C 15.15625 4.015625 15.050781 3.582031 15.234375 2.90625 L 15.363281 2.417969 L 16.050781 2.488281 C 17.238281 2.609375 17.523438 3.023438 17.105469 4.019531 C 16.738281 4.902344 17.480469 4.5625 17.894531 3.660156 C 18.175781 3.042969 18.179688 2.203125 17.902344 1.738281 C 17.785156 1.542969 17.621094 1.152344 17.539062 0.871094 C 17.328125 0.152344 16.730469 -0.105469 15.921875 0.175781 "/>
</g>
</svg>
