<?xml version="1.0" encoding="UTF-8"?>
<svg xmlns="http://www.w3.org/2000/svg" xmlns:xlink="http://www.w3.org/1999/xlink" width="100px" height="100px" viewBox="0 0 100 100" version="1.1">
<g id="surface1">
<path style=" stroke:none;fill-rule:evenodd;fill:rgb(0%,0%,0%);fill-opacity:1;" d="M 49 5.726562 C 48.152344 6.195312 47.558594 6.257812 47.148438 5.914062 C 46.078125 5.027344 45.34375 6 46.296875 7.050781 C 47.082031 7.921875 47.085938 8 46.328125 8 C 45.871094 8 45.5 7.792969 45.5 7.539062 C 45.5 7.285156 44.824219 7.414062 44 7.824219 C 42.738281 8.453125 42.550781 8.777344 42.824219 9.863281 C 43.050781 10.761719 42.972656 11.042969 42.574219 10.796875 C 42.257812 10.601562 42 10.679688 42 10.96875 C 42 12.003906 39.675781 11.515625 39.054688 10.351562 C 38.171875 8.699219 36.535156 7.761719 35.816406 8.492188 C 35.394531 8.921875 35.476562 9.234375 36.140625 9.722656 C 36.917969 10.300781 36.933594 10.417969 36.253906 10.679688 C 35.78125 10.863281 35.050781 10.492188 34.398438 9.738281 C 33.308594 8.484375 32 8.082031 32 9 C 32 9.273438 32.195312 9.5 32.429688 9.5 C 32.667969 9.5 32.753906 10.0625 32.621094 10.75 C 32.453125 11.636719 32.601562 12 33.140625 12 C 33.742188 12 33.816406 12.347656 33.503906 13.726562 C 33.246094 14.882812 33.304688 15.523438 33.683594 15.664062 C 34.519531 15.972656 32.238281 18 31.050781 18 C 30.503906 18 29.921875 18.226562 29.75 18.5 C 29.578125 18.773438 28.988281 19 28.4375 19 C 27.636719 19 27.503906 19.21875 27.773438 20.074219 C 28.0625 20.980469 27.96875 21.089844 27.183594 20.769531 C 26.667969 20.558594 25.824219 20.265625 25.308594 20.117188 C 23.949219 19.730469 24.519531 21.09375 26.039062 21.867188 C 26.707031 22.207031 27.035156 22.488281 26.773438 22.492188 C 26.515625 22.496094 26.570312 22.769531 26.898438 23.101562 C 27.777344 23.976562 27.636719 24.5 26.523438 24.5 C 25.988281 24.5 25.371094 24.78125 25.148438 25.125 C 24.929688 25.46875 24.355469 26.058594 23.875 26.4375 C 23.144531 27.011719 22.867188 27.011719 22.195312 26.453125 C 21.496094 25.875 21.191406 26.003906 19.945312 27.398438 C 19.148438 28.289062 18.5 29.347656 18.5 29.757812 C 18.5 30.164062 18.257812 30.5 17.964844 30.5 C 17.671875 30.5 17.503906 31.007812 17.59375 31.625 C 17.710938 32.457031 18.046875 32.71875 18.875 32.632812 C 19.613281 32.550781 20 32.78125 20 33.296875 C 20 33.898438 20.332031 34.007812 21.421875 33.765625 C 22.394531 33.554688 23.042969 33.699219 23.480469 34.226562 C 24.023438 34.882812 23.960938 35 23.0625 35 C 22.476562 35 21.996094 35.28125 21.992188 35.625 C 21.988281 35.96875 21.851562 36.757812 21.683594 37.375 C 21.476562 38.15625 21.601562 38.5 22.09375 38.5 C 22.484375 38.5 23.507812 39.230469 24.367188 40.125 C 26.089844 41.910156 26.78125 44.75 25.5 44.75 C 25.085938 44.75 24.75 44.414062 24.75 44 C 24.75 43.210938 23.066406 42.898438 21.175781 43.335938 C 19.351562 43.757812 19.542969 47.5 21.386719 47.5 C 22.207031 47.5 22.402344 48.667969 21.699219 49.371094 C 21.355469 49.714844 20.734375 50 20.320312 50 C 19.90625 50 19.425781 50.449219 19.25 51 C 19.074219 51.550781 18.710938 52 18.4375 52 C 18.164062 52 18.078125 52.226562 18.25 52.5 C 18.421875 52.773438 18.261719 53 17.898438 53 C 17.535156 53 16.941406 53.480469 16.574219 54.066406 C 16.019531 54.957031 16.019531 55.203125 16.578125 55.558594 C 17.601562 56.207031 18 56.085938 18.007812 55.125 C 18.015625 54.402344 18.09375 54.375 18.472656 54.972656 C 18.78125 55.464844 18.617188 56.132812 17.960938 57.054688 C 17.242188 58.0625 17.15625 58.480469 17.621094 58.667969 C 18.019531 58.828125 17.945312 58.933594 17.421875 58.960938 C 16.847656 58.988281 16.671875 59.304688 16.851562 59.996094 C 16.996094 60.542969 17.3125 60.867188 17.558594 60.714844 C 17.800781 60.5625 18 61.03125 18 61.753906 C 18 62.796875 18.1875 63.007812 18.910156 62.777344 C 19.414062 62.617188 20.550781 62.851562 21.441406 63.296875 C 22.328125 63.738281 23.492188 63.988281 24.027344 63.847656 C 24.800781 63.644531 25 63.851562 25 64.855469 C 25 65.871094 24.804688 66.066406 24 65.855469 C 23.449219 65.710938 22.875 65.796875 22.722656 66.046875 C 22.566406 66.296875 23 66.5 23.683594 66.5 C 24.578125 66.5 24.976562 66.804688 25.089844 67.578125 C 25.230469 68.527344 25.59375 68.664062 28.160156 68.738281 C 30.542969 68.808594 31.191406 68.648438 31.757812 67.839844 C 32.339844 67.007812 32.828125 66.898438 34.90625 67.144531 C 36.417969 67.324219 37.574219 67.222656 37.914062 66.882812 C 38.710938 66.089844 41.835938 65.089844 42.410156 65.445312 C 42.679688 65.613281 42.976562 66.304688 43.074219 66.980469 C 43.175781 67.691406 43.671875 68.324219 44.25 68.480469 C 44.800781 68.628906 45.3125 69.046875 45.386719 69.414062 C 45.480469 69.859375 45.210938 69.976562 44.554688 69.765625 C 44.019531 69.597656 43.425781 69.710938 43.238281 70.023438 C 42.714844 70.863281 44.589844 74 45.613281 74 C 46.101562 74 46.5 74.207031 46.5 74.460938 C 46.5 74.710938 46.625 75.246094 46.777344 75.644531 C 46.96875 76.136719 46.640625 76.453125 45.777344 76.617188 C 44.777344 76.808594 44.5 76.660156 44.5 75.929688 C 44.5 75.179688 44.117188 75 42.53125 75 C 41.445312 75 40.421875 74.773438 40.25 74.5 C 39.863281 73.875 38.976562 73.871094 38.007812 74.484375 C 37.386719 74.875 37.550781 75.257812 38.964844 76.714844 C 40.808594 78.613281 42.351562 78.867188 44.371094 77.597656 C 45.78125 76.710938 46.875 77.109375 47.496094 78.738281 C 47.757812 79.429688 48.183594 80 48.4375 80 C 49.300781 80 50 83.132812 50 87.011719 C 50 92.066406 49.625 92.378906 43.25 92.683594 C 40.414062 92.820312 37.585938 93.753906 38.191406 94.359375 C 38.34375 94.507812 42.582031 94.609375 47.609375 94.582031 C 52.636719 94.554688 59.65625 94.523438 63.207031 94.515625 C 66.761719 94.507812 69.574219 94.40625 69.457031 94.292969 C 69.34375 94.179688 66.808594 93.96875 63.824219 93.824219 C 60.839844 93.679688 58.269531 93.4375 58.113281 93.28125 C 57.960938 93.125 57.128906 93 56.265625 93 C 53.703125 93 53.5 92.429688 53.5 85.242188 C 53.5 76.335938 54.652344 70.320312 55.957031 72.429688 C 56.183594 72.796875 56.960938 73.132812 57.683594 73.175781 C 58.40625 73.214844 59 73.519531 59 73.84375 C 59 74.796875 59.894531 75.089844 60.996094 74.503906 C 61.816406 74.0625 61.914062 73.769531 61.488281 72.980469 C 61.007812 72.082031 61.132812 72 62.953125 72 C 64.046875 72 65.09375 72.246094 65.277344 72.546875 C 65.464844 72.847656 66.152344 72.992188 66.808594 72.867188 C 67.464844 72.742188 68 72.835938 68 73.078125 C 68 73.320312 68.652344 73.464844 69.449219 73.40625 C 70.246094 73.34375 71.210938 73.554688 71.59375 73.867188 C 72.53125 74.648438 74 73.800781 73.160156 72.960938 C 72.839844 72.640625 72.695312 72.066406 72.84375 71.6875 C 72.996094 71.292969 72.789062 71 72.363281 71 C 71.25 71 70.847656 68.875 71.820312 68.148438 C 72.261719 67.820312 72.492188 67.199219 72.328125 66.777344 C 72.105469 66.191406 72.503906 65.929688 74.007812 65.691406 C 76.199219 65.339844 77.265625 64.410156 76.816406 63.242188 C 76.613281 62.710938 76.148438 62.570312 75.289062 62.785156 C 73.53125 63.226562 72.882812 62.6875 73.636719 61.410156 C 74.128906 60.578125 74.121094 60.324219 73.605469 60.136719 C 73.15625 59.976562 73.351562 59.539062 74.230469 58.726562 C 74.929688 58.078125 75.5 57.070312 75.5 56.484375 C 75.5 55.566406 75.753906 55.441406 77.390625 55.558594 C 78.429688 55.636719 79.609375 55.488281 80.015625 55.234375 C 80.417969 54.984375 81.144531 54.839844 81.625 54.917969 C 82.222656 55.015625 82.5 54.734375 82.5 54.03125 C 82.5 53.128906 82.808594 53 84.96875 53 C 87.519531 53 88.199219 52.601562 87.734375 51.390625 C 87.449219 50.644531 84.765625 49.5 83.296875 49.5 C 82.8125 49.5 82.507812 49.21875 82.625 48.875 C 82.804688 48.324219 83.621094 47.824219 86.5 46.492188 C 87.695312 45.9375 89.21875 43.019531 88.621094 42.421875 C 88.277344 42.078125 88.003906 42.085938 87.777344 42.457031 C 87.59375 42.753906 87.183594 43 86.871094 43 C 86.460938 43 86.46875 42.832031 86.898438 42.398438 C 87.734375 41.5625 87.648438 40.5 86.746094 40.5 C 86.117188 40.5 86.09375 40.335938 86.617188 39.5 C 86.960938 38.949219 87.773438 38.5 88.429688 38.5 C 89.371094 38.5 89.5625 38.292969 89.355469 37.5 C 89.160156 36.757812 89.339844 36.5 90.046875 36.5 C 90.710938 36.5 91 36.148438 91 35.332031 C 91 33.851562 90.515625 33.363281 89.714844 34.027344 C 88.453125 35.078125 88.546875 33.597656 89.828125 32.210938 C 91.121094 30.820312 90.699219 29.796875 89.308594 30.949219 C 88.335938 31.757812 86.730469 29.792969 86.914062 28.019531 C 87.035156 26.898438 86.824219 26.5625 85.847656 26.320312 C 84.886719 26.078125 84.683594 25.765625 84.867188 24.804688 C 84.996094 24.136719 85.527344 23.480469 86.050781 23.34375 C 87.308594 23.011719 87.273438 22 86 22 C 85.449219 22 84.972656 21.773438 84.9375 21.5 C 84.902344 21.226562 84.847656 20.738281 84.8125 20.417969 C 84.671875 19.09375 83.515625 19.539062 83.066406 21.089844 C 82.625 22.628906 82.585938 22.652344 82.546875 21.429688 C 82.519531 20.703125 82.148438 19.972656 81.71875 19.808594 C 81.289062 19.640625 81.078125 19.28125 81.246094 19.003906 C 81.417969 18.726562 81.082031 18.5 80.5 18.5 C 79.789062 18.5 79.5625 18.707031 79.804688 19.125 C 80.007812 19.46875 79.722656 19.355469 79.171875 18.875 C 77.945312 17.800781 76.824219 17.757812 76 18.75 C 75.65625 19.164062 75.039062 19.5 74.628906 19.5 C 74.050781 19.5 74.007812 19.34375 74.445312 18.816406 C 74.875 18.296875 74.835938 17.984375 74.277344 17.523438 C 73.875 17.1875 73.308594 17.058594 73.023438 17.238281 C 72.734375 17.414062 72.5 17.320312 72.5 17.03125 C 72.5 16.738281 72.96875 16.5 73.542969 16.5 C 74.933594 16.5 74.507812 15.355469 72.976562 14.996094 L 71.777344 14.710938 L 72.988281 13.863281 C 73.796875 13.296875 74.308594 13.195312 74.53125 13.550781 C 74.722656 13.859375 74.976562 13.644531 75.132812 13.042969 C 75.328125 12.304688 75.164062 11.988281 74.578125 11.960938 C 74.113281 11.9375 74.355469 11.699219 75.128906 11.417969 C 75.886719 11.140625 76.378906 10.710938 76.222656 10.457031 C 75.859375 9.871094 73.683594 9.867188 72.589844 10.449219 C 72.128906 10.699219 70.847656 10.972656 69.75 11.0625 C 67.992188 11.203125 67.769531 11.105469 67.921875 10.238281 C 68.144531 8.972656 68.574219 8.574219 68.859375 9.375 C 69.269531 10.519531 70.5 10.050781 70.5 8.75 C 70.5 8.0625 70.300781 7.5 70.058594 7.5 C 69.816406 7.5 69.5 7.050781 69.355469 6.503906 C 68.957031 4.976562 66.128906 5.699219 64.25 7.808594 C 63.050781 9.15625 62.449219 9.453125 61.25 9.304688 C 59.164062 9.039062 59.164062 9.039062 59.996094 8.511719 C 60.558594 8.15625 60.601562 7.902344 60.164062 7.464844 C 59.46875 6.769531 58.5 7.265625 58.5 8.3125 C 58.5 8.886719 58.046875 9.019531 56.625 8.875 C 55.347656 8.742188 54.785156 8.453125 54.867188 7.964844 C 54.996094 7.175781 52.105469 4.988281 50.96875 5.015625 C 50.574219 5.027344 49.6875 5.347656 49 5.726562 M 34 8 C 34 8.273438 34.226562 8.5 34.5 8.5 C 34.773438 8.5 35 8.273438 35 8 C 35 7.726562 34.773438 7.5 34.5 7.5 C 34.226562 7.5 34 7.726562 34 8 M 87.773438 35.964844 C 87.613281 36.222656 87.710938 36.570312 87.992188 36.746094 C 88.273438 36.917969 88.5 36.707031 88.5 36.28125 C 88.5 35.402344 88.199219 35.273438 87.773438 35.964844 M 48.222656 77.269531 C 48.371094 79.15625 48.78125 79.886719 49.359375 79.304688 C 49.558594 79.109375 49.390625 78.738281 48.984375 78.480469 C 48.488281 78.164062 48.453125 78.011719 48.875 78.007812 C 49.710938 77.996094 49.667969 77.097656 48.792969 76.21875 C 48.179688 75.609375 48.101562 75.753906 48.222656 77.269531 "/>
</g>
</svg>
