<?xml version="1.0" encoding="UTF-8"?>
<svg xmlns="http://www.w3.org/2000/svg" xmlns:xlink="http://www.w3.org/1999/xlink" width="24px" height="24px" viewBox="0 0 24 24" version="1.1">
<g id="surface1">
<path style=" stroke:none;fill-rule:evenodd;fill:rgb(0%,0%,0%);fill-opacity:1;" d="M 11.761719 1.375 C 11.554688 1.488281 11.414062 1.5 11.316406 1.417969 C 11.058594 1.207031 10.882812 1.441406 11.109375 1.691406 C 11.300781 1.902344 11.300781 1.921875 11.117188 1.921875 C 11.007812 1.921875 10.921875 1.871094 10.921875 1.808594 C 10.921875 1.75 10.757812 1.777344 10.558594 1.878906 C 10.257812 2.027344 10.210938 2.105469 10.277344 2.367188 C 10.332031 2.582031 10.3125 2.648438 10.21875 2.589844 C 10.140625 2.542969 10.078125 2.5625 10.078125 2.632812 C 10.078125 2.878906 9.523438 2.761719 9.375 2.484375 C 9.160156 2.089844 8.769531 1.863281 8.597656 2.039062 C 8.496094 2.140625 8.515625 2.214844 8.671875 2.332031 C 8.859375 2.472656 8.863281 2.5 8.699219 2.5625 C 8.585938 2.605469 8.414062 2.519531 8.253906 2.335938 C 7.992188 2.035156 7.679688 1.941406 7.679688 2.160156 C 7.679688 2.226562 7.726562 2.28125 7.785156 2.28125 C 7.839844 2.28125 7.859375 2.414062 7.828125 2.578125 C 7.789062 2.792969 7.824219 2.878906 7.953125 2.878906 C 8.097656 2.878906 8.117188 2.964844 8.042969 3.292969 C 7.980469 3.570312 7.992188 3.726562 8.082031 3.757812 C 8.285156 3.832031 7.738281 4.320312 7.453125 4.320312 C 7.320312 4.320312 7.179688 4.375 7.140625 4.441406 C 7.097656 4.507812 6.957031 4.558594 6.824219 4.558594 C 6.632812 4.558594 6.601562 4.613281 6.664062 4.816406 C 6.734375 5.035156 6.710938 5.0625 6.523438 4.984375 C 6.402344 4.933594 6.199219 4.863281 6.074219 4.828125 C 5.746094 4.734375 5.882812 5.0625 6.25 5.25 C 6.410156 5.328125 6.488281 5.398438 6.425781 5.398438 C 6.363281 5.398438 6.375 5.464844 6.457031 5.542969 C 6.667969 5.753906 6.632812 5.878906 6.367188 5.878906 C 6.238281 5.878906 6.089844 5.949219 6.035156 6.03125 C 5.984375 6.113281 5.84375 6.253906 5.730469 6.34375 C 5.554688 6.480469 5.488281 6.484375 5.328125 6.347656 C 5.160156 6.210938 5.085938 6.242188 4.785156 6.574219 C 4.597656 6.789062 4.441406 7.042969 4.441406 7.140625 C 4.441406 7.238281 4.382812 7.320312 4.3125 7.320312 C 4.242188 7.320312 4.199219 7.441406 4.222656 7.589844 C 4.25 7.789062 4.332031 7.851562 4.53125 7.832031 C 4.707031 7.8125 4.800781 7.867188 4.800781 7.992188 C 4.800781 8.136719 4.878906 8.160156 5.140625 8.105469 C 5.375 8.054688 5.53125 8.085938 5.636719 8.214844 C 5.765625 8.371094 5.75 8.398438 5.535156 8.398438 C 5.394531 8.398438 5.277344 8.46875 5.277344 8.550781 C 5.277344 8.632812 5.242188 8.820312 5.203125 8.96875 C 5.152344 9.15625 5.183594 9.238281 5.300781 9.238281 C 5.394531 9.238281 5.640625 9.414062 5.847656 9.628906 C 6.261719 10.058594 6.429688 10.738281 6.121094 10.738281 C 6.019531 10.738281 5.941406 10.660156 5.941406 10.558594 C 5.941406 10.371094 5.535156 10.296875 5.082031 10.398438 C 4.644531 10.5 4.691406 11.398438 5.132812 11.398438 C 5.328125 11.398438 5.375 11.679688 5.207031 11.847656 C 5.125 11.933594 4.976562 12 4.875 12 C 4.777344 12 4.660156 12.109375 4.621094 12.238281 C 4.578125 12.371094 4.492188 12.480469 4.425781 12.480469 C 4.359375 12.480469 4.339844 12.535156 4.378906 12.601562 C 4.421875 12.664062 4.382812 12.71875 4.296875 12.71875 C 4.207031 12.71875 4.066406 12.835938 3.976562 12.976562 C 3.84375 13.191406 3.84375 13.25 3.980469 13.335938 C 4.222656 13.488281 4.320312 13.460938 4.320312 13.230469 C 4.324219 13.054688 4.34375 13.050781 4.433594 13.195312 C 4.507812 13.3125 4.46875 13.472656 4.3125 13.691406 C 4.136719 13.933594 4.117188 14.035156 4.230469 14.082031 C 4.324219 14.117188 4.308594 14.144531 4.179688 14.152344 C 4.042969 14.15625 4 14.234375 4.042969 14.398438 C 4.078125 14.53125 4.15625 14.609375 4.214844 14.570312 C 4.273438 14.535156 4.320312 14.648438 4.320312 14.820312 C 4.320312 15.070312 4.363281 15.121094 4.539062 15.066406 C 4.660156 15.027344 4.933594 15.085938 5.144531 15.191406 C 5.359375 15.296875 5.636719 15.355469 5.765625 15.324219 C 5.953125 15.273438 6 15.324219 6 15.566406 C 6 15.808594 5.953125 15.855469 5.761719 15.804688 C 5.628906 15.769531 5.488281 15.792969 5.453125 15.851562 C 5.417969 15.910156 5.519531 15.960938 5.683594 15.960938 C 5.898438 15.960938 5.992188 16.035156 6.023438 16.21875 C 6.054688 16.445312 6.144531 16.480469 6.757812 16.496094 C 7.332031 16.515625 7.484375 16.476562 7.621094 16.28125 C 7.761719 16.082031 7.878906 16.054688 8.378906 16.113281 C 8.738281 16.15625 9.019531 16.132812 9.101562 16.050781 C 9.289062 15.863281 10.039062 15.621094 10.179688 15.707031 C 10.242188 15.746094 10.316406 15.914062 10.335938 16.074219 C 10.363281 16.246094 10.480469 16.398438 10.621094 16.433594 C 10.753906 16.472656 10.875 16.570312 10.894531 16.660156 C 10.914062 16.765625 10.851562 16.792969 10.691406 16.746094 C 10.566406 16.703125 10.421875 16.730469 10.375 16.804688 C 10.25 17.007812 10.703125 17.761719 10.945312 17.761719 C 11.0625 17.761719 11.160156 17.808594 11.160156 17.871094 C 11.160156 17.929688 11.191406 18.058594 11.226562 18.15625 C 11.273438 18.273438 11.195312 18.347656 10.988281 18.386719 C 10.746094 18.433594 10.679688 18.398438 10.679688 18.222656 C 10.679688 18.042969 10.589844 18 10.207031 18 C 9.945312 18 9.699219 17.945312 9.660156 17.878906 C 9.566406 17.730469 9.355469 17.730469 9.121094 17.875 C 8.972656 17.96875 9.011719 18.0625 9.351562 18.410156 C 9.792969 18.867188 10.164062 18.929688 10.648438 18.621094 C 10.988281 18.410156 11.25 18.507812 11.398438 18.898438 C 11.460938 19.0625 11.5625 19.199219 11.625 19.199219 C 11.832031 19.199219 12 19.953125 12 20.882812 C 12 22.097656 11.910156 22.171875 10.378906 22.246094 C 9.699219 22.277344 9.019531 22.5 9.164062 22.644531 C 9.203125 22.683594 10.21875 22.707031 11.425781 22.699219 C 12.632812 22.691406 14.316406 22.6875 15.171875 22.683594 C 16.023438 22.683594 16.699219 22.65625 16.671875 22.628906 C 16.640625 22.601562 16.035156 22.550781 15.316406 22.519531 C 14.601562 22.484375 13.984375 22.425781 13.949219 22.386719 C 13.910156 22.351562 13.710938 22.320312 13.503906 22.320312 C 12.890625 22.320312 12.839844 22.183594 12.839844 20.457031 C 12.839844 18.320312 13.117188 16.875 13.429688 17.382812 C 13.484375 17.472656 13.671875 17.550781 13.84375 17.5625 C 14.019531 17.570312 14.160156 17.644531 14.160156 17.722656 C 14.160156 17.949219 14.375 18.023438 14.640625 17.878906 C 14.835938 17.773438 14.859375 17.703125 14.757812 17.515625 C 14.640625 17.300781 14.671875 17.28125 15.109375 17.28125 C 15.371094 17.28125 15.621094 17.339844 15.667969 17.410156 C 15.710938 17.484375 15.875 17.519531 16.035156 17.488281 C 16.191406 17.457031 16.320312 17.480469 16.320312 17.539062 C 16.320312 17.597656 16.476562 17.632812 16.667969 17.617188 C 16.859375 17.601562 17.089844 17.652344 17.183594 17.730469 C 17.40625 17.914062 17.761719 17.710938 17.558594 17.511719 C 17.480469 17.433594 17.449219 17.296875 17.480469 17.207031 C 17.519531 17.109375 17.46875 17.039062 17.367188 17.039062 C 17.101562 17.039062 17.003906 16.53125 17.238281 16.355469 C 17.34375 16.277344 17.398438 16.128906 17.359375 16.027344 C 17.304688 15.886719 17.402344 15.824219 17.761719 15.765625 C 18.289062 15.683594 18.542969 15.457031 18.4375 15.179688 C 18.386719 15.050781 18.273438 15.015625 18.070312 15.070312 C 17.648438 15.175781 17.492188 15.042969 17.671875 14.738281 C 17.789062 14.539062 17.789062 14.476562 17.664062 14.433594 C 17.558594 14.394531 17.605469 14.289062 17.816406 14.09375 C 17.984375 13.9375 18.121094 13.695312 18.121094 13.554688 C 18.121094 13.335938 18.179688 13.304688 18.574219 13.335938 C 18.824219 13.351562 19.105469 13.316406 19.203125 13.257812 C 19.300781 13.195312 19.472656 13.160156 19.589844 13.179688 C 19.734375 13.203125 19.800781 13.136719 19.800781 12.96875 C 19.800781 12.75 19.875 12.71875 20.394531 12.71875 C 21.003906 12.71875 21.167969 12.625 21.054688 12.332031 C 20.988281 12.15625 20.34375 11.878906 19.992188 11.878906 C 19.875 11.878906 19.800781 11.8125 19.828125 11.730469 C 19.875 11.597656 20.070312 11.476562 20.761719 11.15625 C 21.046875 11.023438 21.414062 10.324219 21.269531 10.179688 C 21.1875 10.097656 21.121094 10.101562 21.066406 10.191406 C 21.023438 10.261719 20.925781 10.320312 20.847656 10.320312 C 20.75 10.320312 20.753906 10.28125 20.855469 10.175781 C 21.054688 9.976562 21.035156 9.71875 20.820312 9.71875 C 20.667969 9.71875 20.664062 9.679688 20.789062 9.480469 C 20.871094 9.347656 21.066406 9.238281 21.222656 9.238281 C 21.449219 9.238281 21.496094 9.191406 21.445312 9 C 21.398438 8.820312 21.441406 8.761719 21.609375 8.761719 C 21.769531 8.761719 21.839844 8.675781 21.839844 8.480469 C 21.839844 8.125 21.722656 8.007812 21.53125 8.167969 C 21.230469 8.417969 21.25 8.0625 21.558594 7.730469 C 21.867188 7.398438 21.765625 7.152344 21.433594 7.429688 C 21.199219 7.621094 20.816406 7.152344 20.859375 6.726562 C 20.886719 6.457031 20.835938 6.375 20.605469 6.316406 C 20.371094 6.257812 20.324219 6.183594 20.367188 5.953125 C 20.398438 5.792969 20.527344 5.636719 20.652344 5.601562 C 20.953125 5.523438 20.945312 5.28125 20.640625 5.28125 C 20.507812 5.28125 20.394531 5.226562 20.386719 5.160156 C 20.375 5.09375 20.363281 4.976562 20.355469 4.898438 C 20.320312 4.582031 20.042969 4.691406 19.9375 5.0625 C 19.828125 5.429688 19.820312 5.4375 19.8125 5.144531 C 19.804688 4.96875 19.714844 4.792969 19.613281 4.753906 C 19.507812 4.714844 19.457031 4.628906 19.5 4.5625 C 19.539062 4.496094 19.460938 4.441406 19.320312 4.441406 C 19.148438 4.441406 19.09375 4.488281 19.152344 4.589844 C 19.203125 4.671875 19.132812 4.644531 19 4.53125 C 18.707031 4.273438 18.4375 4.261719 18.238281 4.5 C 18.15625 4.597656 18.007812 4.679688 17.910156 4.679688 C 17.773438 4.679688 17.761719 4.640625 17.867188 4.515625 C 17.96875 4.390625 17.960938 4.316406 17.828125 4.207031 C 17.730469 4.125 17.59375 4.09375 17.523438 4.136719 C 17.457031 4.179688 17.398438 4.15625 17.398438 4.085938 C 17.398438 4.015625 17.511719 3.960938 17.648438 3.960938 C 17.984375 3.960938 17.882812 3.683594 17.515625 3.597656 L 17.226562 3.53125 L 17.515625 3.328125 C 17.710938 3.191406 17.835938 3.167969 17.886719 3.253906 C 17.933594 3.324219 17.996094 3.273438 18.03125 3.128906 C 18.078125 2.953125 18.039062 2.878906 17.898438 2.871094 C 17.789062 2.867188 17.84375 2.808594 18.03125 2.742188 C 18.210938 2.675781 18.332031 2.570312 18.292969 2.511719 C 18.207031 2.367188 17.683594 2.367188 17.421875 2.507812 C 17.3125 2.566406 17.003906 2.632812 16.738281 2.65625 C 16.316406 2.6875 16.265625 2.664062 16.300781 2.457031 C 16.355469 2.152344 16.457031 2.058594 16.527344 2.25 C 16.625 2.523438 16.921875 2.410156 16.921875 2.101562 C 16.921875 1.933594 16.871094 1.800781 16.8125 1.800781 C 16.753906 1.800781 16.679688 1.691406 16.644531 1.5625 C 16.550781 1.195312 15.871094 1.367188 15.421875 1.875 C 15.132812 2.199219 14.988281 2.269531 14.699219 2.234375 C 14.199219 2.167969 14.199219 2.167969 14.398438 2.042969 C 14.535156 1.957031 14.542969 1.894531 14.441406 1.792969 C 14.273438 1.625 14.039062 1.742188 14.039062 1.996094 C 14.039062 2.132812 13.929688 2.164062 13.589844 2.128906 C 13.28125 2.097656 13.148438 2.027344 13.167969 1.910156 C 13.199219 1.722656 12.503906 1.199219 12.234375 1.203125 C 12.136719 1.207031 11.925781 1.28125 11.761719 1.375 M 8.160156 1.921875 C 8.160156 1.984375 8.214844 2.039062 8.28125 2.039062 C 8.347656 2.039062 8.398438 1.984375 8.398438 1.921875 C 8.398438 1.855469 8.347656 1.800781 8.28125 1.800781 C 8.214844 1.800781 8.160156 1.855469 8.160156 1.921875 M 21.066406 8.632812 C 21.027344 8.691406 21.050781 8.777344 21.117188 8.820312 C 21.183594 8.859375 21.238281 8.808594 21.238281 8.707031 C 21.238281 8.496094 21.167969 8.464844 21.066406 8.632812 M 11.574219 18.546875 C 11.609375 18.996094 11.707031 19.171875 11.847656 19.035156 C 11.894531 18.984375 11.855469 18.898438 11.757812 18.835938 C 11.636719 18.757812 11.628906 18.722656 11.730469 18.722656 C 11.929688 18.71875 11.921875 18.503906 11.710938 18.292969 C 11.5625 18.144531 11.542969 18.179688 11.574219 18.546875 "/>
</g>
</svg>
