<?xml version="1.0" encoding="UTF-8"?>
<svg xmlns="http://www.w3.org/2000/svg" xmlns:xlink="http://www.w3.org/1999/xlink" width="100px" height="100px" viewBox="0 0 100 100" version="1.1">
<g id="surface1">
<path style=" stroke:none;fill-rule:evenodd;fill:rgb(0%,0%,0%);fill-opacity:1;" d="M 15.738281 14.015625 C 15.25 14.808594 17.183594 18.160156 18.59375 18.957031 C 21.683594 20.710938 22.601562 17.570312 19.734375 15.050781 C 17.949219 13.484375 16.328125 13.066406 15.738281 14.015625 M 23.128906 14.101562 C 22.839844 14.460938 22.4375 17.183594 22.238281 20.160156 C 21.8125 26.519531 22.1875 26.179688 15 26.703125 C 9.863281 27.078125 8.292969 27.792969 9.480469 29.226562 C 9.972656 29.820312 11.171875 30 14.652344 30 C 18.140625 30 19.652344 30.226562 21.21875 30.984375 C 23.949219 32.308594 44.984375 53.480469 46.570312 56.5 C 47.714844 58.679688 47.757812 59.203125 48 73.644531 C 48.210938 86.152344 48.371094 88.613281 49 89.011719 C 50.167969 89.746094 58.277344 89.621094 58.910156 88.859375 C 59.25 88.449219 59.496094 83.015625 59.597656 73.734375 C 59.742188 59.871094 59.800781 59.144531 60.894531 56.769531 C 62.214844 53.90625 75.121094 40.53125 77.789062 39.265625 C 78.890625 38.742188 80.929688 38.5 84.234375 38.5 C 89.160156 38.5 91 38.023438 91 36.75 C 91 35.582031 89.527344 35.148438 84.253906 34.777344 C 81.507812 34.582031 78.976562 34.1875 78.628906 33.898438 C 78.273438 33.605469 77.976562 32.15625 77.949219 30.5625 C 77.921875 29.015625 77.753906 26.511719 77.574219 25 C 77.277344 22.488281 77.140625 22.25 76 22.25 C 74.761719 22.25 74.746094 22.304688 74.480469 27.523438 C 74.265625 31.730469 73.992188 33.140625 73.132812 34.523438 C 72.542969 35.472656 68.375 39.90625 63.871094 44.375 C 53.515625 54.648438 53.960938 54.546875 47.433594 48.160156 C 44.996094 45.773438 43 43.460938 43 43.019531 C 43 41.828125 49.496094 35.710938 51.449219 35.0625 C 52.382812 34.753906 54.566406 34.5 56.296875 34.5 C 58.128906 34.5 59.589844 34.261719 59.796875 33.925781 C 60.410156 32.933594 58.417969 32 55.6875 32 C 54.246094 32 52.488281 31.78125 51.78125 31.511719 C 50.640625 31.078125 50.492188 30.734375 50.441406 28.386719 C 50.355469 24.660156 49.871094 22.785156 48.9375 22.609375 C 48.277344 22.480469 48.09375 23.09375 47.898438 26.101562 C 47.746094 28.394531 47.277344 30.496094 46.632812 31.753906 C 45.382812 34.183594 40.410156 39 39.148438 39 C 38.152344 39 27.515625 28.527344 26.453125 26.5 C 26.085938 25.796875 25.675781 22.734375 25.523438 19.503906 C 25.300781 14.789062 25.109375 13.734375 24.453125 13.609375 C 24.015625 13.527344 23.421875 13.746094 23.128906 14.101562 M 29.496094 14.425781 C 26.390625 16.082031 25.476562 19.5 28.140625 19.5 C 29.675781 19.5 32.011719 17.023438 32.144531 15.257812 C 32.28125 13.464844 31.660156 13.273438 29.496094 14.425781 M 9 21.300781 C 9 22.722656 11.882812 26 13.140625 26 C 13.546875 26 14.164062 25.65625 14.511719 25.234375 C 15.40625 24.15625 14.457031 22.261719 12.386719 21 C 10.085938 19.597656 9 19.695312 9 21.300781 M 41.230469 21.84375 C 41.695312 23.703125 43.324219 25.878906 44.535156 26.261719 C 45.738281 26.640625 47 25.734375 47 24.492188 C 47 23.222656 43.710938 20.5 42.179688 20.5 C 41.03125 20.5 40.929688 20.644531 41.230469 21.84375 M 53.613281 21.492188 C 51.542969 22.765625 50.59375 24.65625 51.488281 25.734375 C 51.835938 26.15625 52.503906 26.5 52.96875 26.5 C 54.242188 26.5 56.527344 23.84375 56.644531 22.222656 C 56.777344 20.402344 55.785156 20.160156 53.613281 21.492188 M 80.164062 23.238281 C 78.988281 24.410156 78.480469 25.339844 78.589844 26.113281 C 78.820312 27.753906 80.960938 27.890625 82.402344 26.351562 C 83.5625 25.117188 84.625 22.292969 84.121094 21.789062 C 83.386719 21.050781 81.746094 21.652344 80.164062 23.238281 M 67.5 23.550781 C 67.5 25.082031 70.703125 28.113281 72.113281 27.910156 C 73.964844 27.648438 73.898438 25.425781 71.988281 23.816406 C 70.007812 22.152344 67.5 22.003906 67.5 23.550781 M 87.121094 29.558594 C 84.585938 31.183594 84.289062 34.019531 86.65625 33.984375 C 87.929688 33.964844 88.957031 33.238281 90.148438 31.511719 C 92.117188 28.65625 90.332031 27.503906 87.121094 29.558594 M 39 30.5 C 37.753906 31.746094 37.714844 33.585938 38.914062 34.671875 C 40.828125 36.40625 44 35.101562 44 32.585938 C 44 31.226562 42.324219 29.5 41 29.5 C 40.449219 29.5 39.550781 29.949219 39 30.5 M 11.875 31.539062 C 10.78125 32.175781 9.5 34.597656 9.5 36.03125 C 9.5 36.949219 9.699219 37.0625 10.875 36.785156 C 11.632812 36.609375 12.988281 35.683594 13.886719 34.726562 C 15.25 33.277344 15.4375 32.816406 14.996094 31.992188 C 14.417969 30.910156 13.246094 30.742188 11.875 31.539062 M 66.402344 32.105469 C 64.976562 33.191406 64.765625 35.265625 65.957031 36.457031 C 67.675781 38.175781 69.796875 37.800781 70.976562 35.5625 C 72.222656 33.199219 68.578125 30.445312 66.402344 32.105469 M 56.332031 35.832031 C 55.160156 37.007812 56.660156 39.554688 59.34375 40.9375 C 61.035156 41.808594 61.5 41.621094 61.5 40.054688 C 61.5 37.535156 57.71875 34.445312 56.332031 35.832031 M 23.179688 38.289062 C 21.363281 41.058594 24.441406 44.136719 27.210938 42.320312 C 28.710938 41.339844 28.964844 39.035156 27.714844 37.785156 C 26.464844 36.535156 24.160156 36.789062 23.179688 38.289062 M 85.019531 39.726562 C 84.160156 40.761719 84.808594 42.300781 86.707031 43.75 C 88.558594 45.164062 90.5 45.40625 90.5 44.226562 C 90.5 42.277344 87.804688 39 86.199219 39 C 85.882812 39 85.351562 39.328125 85.019531 39.726562 M 49.113281 43.777344 C 47.792969 44.703125 47.621094 47.046875 48.785156 48.214844 C 49.953125 49.378906 52.296875 49.207031 53.222656 47.886719 C 54.296875 46.355469 54.199219 45.359375 52.84375 44.085938 C 51.46875 42.796875 50.613281 42.726562 49.113281 43.777344 M 34.59375 47.84375 C 34.230469 47.988281 33.730469 48.644531 33.480469 49.300781 C 32.09375 52.953125 37.308594 55.257812 38.925781 51.710938 C 40.132812 49.0625 37.472656 46.691406 34.59375 47.84375 M 67 50.5 C 66.449219 51.050781 66 51.949219 66 52.5 C 66 53.855469 67.738281 55.5 69.171875 55.5 C 71.65625 55.5 72.945312 52.011719 71.085938 50.328125 C 69.855469 49.214844 68.214844 49.285156 67 50.5 M 61.285156 64.785156 C 59.519531 66.550781 60.925781 70 63.414062 70 C 64.726562 70 66.5 68.339844 66.5 67.113281 C 66.5 64.507812 63.085938 62.984375 61.285156 64.785156 "/>
</g>
</svg>
