<?xml version="1.0" encoding="UTF-8"?>
<svg xmlns="http://www.w3.org/2000/svg" xmlns:xlink="http://www.w3.org/1999/xlink" width="24px" height="24px" viewBox="0 0 24 24" version="1.1">
<g id="surface1">
<path style=" stroke:none;fill-rule:evenodd;fill:rgb(0%,0%,0%);fill-opacity:1;" d="M 3.777344 3.363281 C 3.660156 3.554688 4.125 4.359375 4.460938 4.550781 C 5.203125 4.96875 5.425781 4.21875 4.734375 3.613281 C 4.308594 3.238281 3.917969 3.136719 3.777344 3.363281 M 5.550781 3.386719 C 5.480469 3.46875 5.386719 4.125 5.335938 4.839844 C 5.234375 6.363281 5.324219 6.28125 3.601562 6.410156 C 2.367188 6.5 1.988281 6.671875 2.273438 7.015625 C 2.394531 7.15625 2.679688 7.199219 3.515625 7.199219 C 4.351562 7.199219 4.71875 7.253906 5.09375 7.4375 C 5.746094 7.753906 10.796875 12.835938 11.175781 13.558594 C 11.453125 14.082031 11.460938 14.210938 11.519531 17.675781 C 11.570312 20.675781 11.609375 21.265625 11.761719 21.363281 C 12.039062 21.539062 13.984375 21.507812 14.136719 21.324219 C 14.21875 21.226562 14.28125 19.925781 14.304688 17.695312 C 14.339844 14.371094 14.351562 14.195312 14.613281 13.625 C 14.929688 12.9375 18.027344 9.726562 18.667969 9.421875 C 18.933594 9.296875 19.421875 9.238281 20.214844 9.238281 C 21.398438 9.238281 21.839844 9.125 21.839844 8.820312 C 21.839844 8.539062 21.488281 8.4375 20.222656 8.347656 C 19.5625 8.300781 18.953125 8.203125 18.871094 8.136719 C 18.785156 8.066406 18.714844 7.71875 18.707031 7.335938 C 18.703125 6.964844 18.660156 6.363281 18.617188 6 C 18.546875 5.398438 18.515625 5.339844 18.238281 5.339844 C 17.941406 5.339844 17.9375 5.351562 17.875 6.605469 C 17.824219 7.613281 17.757812 7.953125 17.550781 8.285156 C 17.410156 8.511719 16.410156 9.578125 15.328125 10.648438 C 12.84375 13.117188 12.949219 13.089844 11.382812 11.558594 C 10.800781 10.984375 10.320312 10.429688 10.320312 10.324219 C 10.320312 10.039062 11.878906 8.570312 12.347656 8.414062 C 12.574219 8.339844 13.09375 8.28125 13.511719 8.28125 C 13.949219 8.28125 14.300781 8.222656 14.351562 8.140625 C 14.5 7.902344 14.019531 7.679688 13.363281 7.679688 C 13.019531 7.679688 12.597656 7.628906 12.429688 7.5625 C 12.152344 7.457031 12.117188 7.375 12.105469 6.8125 C 12.085938 5.917969 11.96875 5.46875 11.746094 5.425781 C 11.585938 5.394531 11.542969 5.542969 11.496094 6.265625 C 11.460938 6.816406 11.347656 7.320312 11.191406 7.621094 C 10.890625 8.203125 9.699219 9.359375 9.394531 9.359375 C 9.15625 9.359375 6.605469 6.847656 6.347656 6.359375 C 6.261719 6.191406 6.164062 5.457031 6.125 4.679688 C 6.070312 3.550781 6.027344 3.296875 5.867188 3.265625 C 5.765625 3.246094 5.621094 3.300781 5.550781 3.386719 M 7.078125 3.460938 C 6.332031 3.859375 6.113281 4.679688 6.753906 4.679688 C 7.121094 4.679688 7.683594 4.085938 7.714844 3.660156 C 7.746094 3.230469 7.597656 3.183594 7.078125 3.460938 M 2.160156 5.113281 C 2.160156 5.453125 2.851562 6.238281 3.152344 6.238281 C 3.25 6.238281 3.398438 6.15625 3.484375 6.054688 C 3.699219 5.796875 3.46875 5.34375 2.972656 5.039062 C 2.421875 4.703125 2.160156 4.726562 2.160156 5.113281 M 9.894531 5.242188 C 10.007812 5.6875 10.398438 6.210938 10.6875 6.304688 C 10.976562 6.394531 11.28125 6.175781 11.28125 5.878906 C 11.28125 5.574219 10.492188 4.921875 10.121094 4.921875 C 9.847656 4.921875 9.824219 4.953125 9.894531 5.242188 M 12.867188 5.160156 C 12.371094 5.464844 12.140625 5.917969 12.355469 6.175781 C 12.441406 6.277344 12.601562 6.359375 12.710938 6.359375 C 13.019531 6.359375 13.566406 5.722656 13.59375 5.332031 C 13.625 4.894531 13.386719 4.839844 12.867188 5.160156 M 19.238281 5.578125 C 18.957031 5.859375 18.835938 6.082031 18.859375 6.265625 C 18.917969 6.660156 19.429688 6.695312 19.777344 6.324219 C 20.054688 6.027344 20.308594 5.351562 20.1875 5.230469 C 20.011719 5.050781 19.621094 5.195312 19.238281 5.578125 M 16.199219 5.652344 C 16.199219 6.019531 16.96875 6.746094 17.308594 6.699219 C 17.75 6.636719 17.734375 6.101562 17.277344 5.714844 C 16.800781 5.316406 16.199219 5.28125 16.199219 5.652344 M 20.910156 7.09375 C 20.300781 7.484375 20.230469 8.164062 20.796875 8.15625 C 21.105469 8.152344 21.351562 7.976562 21.636719 7.5625 C 22.109375 6.878906 21.679688 6.601562 20.910156 7.09375 M 9.359375 7.320312 C 9.058594 7.621094 9.050781 8.0625 9.339844 8.320312 C 9.796875 8.738281 10.558594 8.425781 10.558594 7.820312 C 10.558594 7.492188 10.15625 7.078125 9.839844 7.078125 C 9.707031 7.078125 9.492188 7.1875 9.359375 7.320312 M 2.851562 7.570312 C 2.585938 7.722656 2.28125 8.304688 2.28125 8.648438 C 2.28125 8.867188 2.328125 8.894531 2.609375 8.828125 C 2.792969 8.785156 3.117188 8.5625 3.332031 8.335938 C 3.660156 7.988281 3.703125 7.875 3.597656 7.679688 C 3.460938 7.417969 3.179688 7.378906 2.851562 7.570312 M 15.9375 7.703125 C 15.59375 7.964844 15.542969 8.464844 15.828125 8.75 C 16.242188 9.164062 16.75 9.070312 17.035156 8.535156 C 17.332031 7.96875 16.457031 7.304688 15.9375 7.703125 M 13.519531 8.601562 C 13.238281 8.882812 13.597656 9.492188 14.242188 9.824219 C 14.648438 10.035156 14.761719 9.988281 14.761719 9.613281 C 14.761719 9.007812 13.851562 8.265625 13.519531 8.601562 M 5.5625 9.1875 C 5.128906 9.855469 5.867188 10.59375 6.53125 10.15625 C 6.890625 9.921875 6.953125 9.367188 6.652344 9.070312 C 6.351562 8.769531 5.796875 8.828125 5.5625 9.1875 M 20.40625 9.535156 C 20.199219 9.78125 20.355469 10.152344 20.808594 10.5 C 21.253906 10.839844 21.71875 10.898438 21.71875 10.613281 C 21.71875 10.144531 21.074219 9.359375 20.6875 9.359375 C 20.613281 9.359375 20.484375 9.4375 20.40625 9.535156 M 11.785156 10.507812 C 11.46875 10.730469 11.429688 11.292969 11.707031 11.570312 C 11.988281 11.851562 12.550781 11.808594 12.773438 11.492188 C 13.03125 11.125 13.007812 10.886719 12.683594 10.582031 C 12.351562 10.273438 12.148438 10.253906 11.785156 10.507812 M 8.300781 11.480469 C 8.214844 11.515625 8.09375 11.675781 8.035156 11.832031 C 7.703125 12.707031 8.953125 13.261719 9.34375 12.410156 C 9.632812 11.773438 8.992188 11.207031 8.300781 11.480469 M 16.078125 12.121094 C 15.949219 12.253906 15.839844 12.46875 15.839844 12.601562 C 15.839844 12.925781 16.257812 13.320312 16.601562 13.320312 C 17.199219 13.320312 17.507812 12.484375 17.058594 12.078125 C 16.765625 11.8125 16.371094 11.828125 16.078125 12.121094 M 14.707031 15.546875 C 14.285156 15.972656 14.621094 16.800781 15.21875 16.800781 C 15.535156 16.800781 15.960938 16.402344 15.960938 16.105469 C 15.960938 15.480469 15.140625 15.117188 14.707031 15.546875 "/>
</g>
</svg>
