<?xml version="1.0" encoding="UTF-8"?>
<svg xmlns="http://www.w3.org/2000/svg" xmlns:xlink="http://www.w3.org/1999/xlink" width="100px" height="100px" viewBox="0 0 100 100" version="1.1">
<g id="surface1">
<path style=" stroke:none;fill-rule:evenodd;fill:rgb(0%,0%,0%);fill-opacity:1;" d="M 39.75 6.800781 C 34.800781 7.902344 29.824219 10.664062 26.21875 14.308594 C 23.277344 17.285156 23.148438 17.355469 21.859375 16.679688 C 18.054688 14.6875 13.101562 15.464844 9.710938 18.589844 C 2.316406 25.40625 7.199219 37.5 17.347656 37.5 C 18.804688 37.5 20 37.71875 20 37.984375 C 20 39.078125 23.160156 41.945312 25.460938 42.933594 C 28.238281 44.128906 27.675781 42.683594 30.179688 55.105469 L 31.359375 60.960938 L 35.054688 65.339844 C 37.085938 67.75 40.605469 71.929688 42.875 74.628906 L 47 79.535156 L 47 87.5 L 27.625 87.507812 C 16.96875 87.511719 8.003906 87.679688 7.699219 87.882812 C 7.035156 88.324219 6 90.21875 6 90.988281 C 6 91.296875 6.550781 92.097656 7.226562 92.773438 L 8.453125 94 L 66.546875 94 L 67.773438 92.773438 C 69.269531 91.277344 69.304688 90.523438 67.964844 88.816406 C 66.933594 87.507812 66.890625 87.5 59.953125 87.5 L 52.976562 87.5 L 53.25 70.75 L 65.101562 64.75 C 71.621094 61.449219 77.1875 58.515625 77.472656 58.226562 C 77.757812 57.941406 78.679688 54.230469 79.515625 49.976562 C 80.355469 45.726562 81.230469 41.785156 81.464844 41.21875 C 81.714844 40.617188 82.726562 39.941406 83.917969 39.582031 C 86.765625 38.730469 91.097656 34.617188 92.554688 31.386719 C 93.609375 29.042969 93.742188 28.023438 93.738281 22.25 C 93.734375 15.066406 93.324219 13.542969 90.539062 10.371094 C 88.230469 7.742188 84.949219 6.308594 81.273438 6.328125 C 76.25 6.355469 72.101562 8.90625 69.988281 13.273438 C 69.042969 15.226562 68.710938 15.5 67.300781 15.5 C 66.152344 15.5 65.261719 15.058594 64.21875 13.964844 C 58.445312 7.9375 48.171875 4.929688 39.75 6.800781 M 67.058594 41.789062 C 64.683594 43.476562 62.414062 43.992188 57.375 43.996094 L 53 44 L 53 53.75 C 53 59.113281 53.128906 63.5 53.289062 63.5 C 53.449219 63.5 57.722656 61.34375 62.789062 58.710938 C 69.703125 55.113281 72.066406 53.648438 72.253906 52.835938 C 72.933594 49.929688 74.5 41.808594 74.5 41.195312 C 74.5 39.933594 69.058594 40.367188 67.058594 41.789062 M 34.746094 45.125 C 34.890625 45.742188 35.539062 48.875 36.179688 52.085938 L 37.351562 57.921875 L 41.96875 63.460938 C 44.507812 66.507812 46.679688 69 46.792969 69 C 46.90625 69 47 63.375 47 56.5 L 47 44 L 40.742188 44 C 34.503906 44 34.480469 44.003906 34.746094 45.125 M 75.828125 88.414062 C 75.371094 88.917969 75.003906 89.875 75.007812 90.539062 C 75.027344 93.449219 76.570312 94 84.738281 94 C 91.300781 94 91.589844 93.957031 92.773438 92.773438 C 93.449219 92.097656 94 91.296875 94 90.988281 C 94 90.21875 92.964844 88.324219 92.300781 87.882812 C 91.996094 87.679688 88.351562 87.511719 84.203125 87.507812 C 77.519531 87.5 76.558594 87.605469 75.828125 88.414062 "/>
</g>
</svg>
