<?xml version="1.0" encoding="UTF-8"?>
<svg xmlns="http://www.w3.org/2000/svg" xmlns:xlink="http://www.w3.org/1999/xlink" width="24px" height="24px" viewBox="0 0 24 24" version="1.1">
<g id="surface1">
<path style=" stroke:none;fill-rule:evenodd;fill:rgb(0%,0%,0%);fill-opacity:1;" d="M 9.539062 1.632812 C 8.351562 1.894531 7.15625 2.558594 6.292969 3.433594 C 5.585938 4.148438 5.554688 4.164062 5.246094 4.003906 C 4.332031 3.523438 3.144531 3.710938 2.332031 4.460938 C 0.554688 6.097656 1.726562 9 4.164062 9 C 4.511719 9 4.800781 9.050781 4.800781 9.117188 C 4.800781 9.378906 5.558594 10.066406 6.109375 10.304688 C 6.777344 10.589844 6.640625 10.246094 7.242188 13.226562 L 7.527344 14.628906 L 8.414062 15.683594 C 8.902344 16.261719 9.746094 17.261719 10.289062 17.910156 L 11.28125 19.089844 L 11.28125 21 L 6.628906 21 C 4.074219 21.003906 1.921875 21.042969 1.847656 21.09375 C 1.6875 21.199219 1.441406 21.652344 1.441406 21.835938 C 1.441406 21.910156 1.574219 22.101562 1.734375 22.265625 L 2.027344 22.558594 L 15.972656 22.558594 L 16.265625 22.265625 C 16.625 21.90625 16.632812 21.726562 16.3125 21.316406 C 16.0625 21 16.054688 21 14.386719 21 L 12.714844 21 L 12.746094 18.988281 L 12.78125 16.980469 L 15.625 15.539062 C 17.1875 14.746094 18.523438 14.042969 18.59375 13.976562 C 18.664062 13.90625 18.882812 13.015625 19.082031 11.996094 C 19.285156 10.972656 19.496094 10.027344 19.550781 9.894531 C 19.613281 9.746094 19.855469 9.585938 20.140625 9.5 C 20.824219 9.296875 21.863281 8.308594 22.214844 7.53125 C 22.464844 6.96875 22.5 6.726562 22.496094 5.339844 C 22.496094 3.617188 22.398438 3.25 21.730469 2.488281 C 21.175781 1.859375 20.386719 1.515625 19.503906 1.519531 C 18.300781 1.523438 17.304688 2.136719 16.796875 3.183594 C 16.570312 3.652344 16.492188 3.71875 16.152344 3.71875 C 15.875 3.71875 15.664062 3.613281 15.414062 3.351562 C 14.027344 1.90625 11.5625 1.183594 9.539062 1.632812 M 16.09375 10.027344 C 15.523438 10.433594 14.980469 10.558594 13.769531 10.558594 L 12.71875 10.558594 L 12.71875 12.898438 C 12.71875 14.1875 12.75 15.238281 12.789062 15.238281 C 12.828125 15.238281 13.855469 14.722656 15.070312 14.089844 C 16.730469 13.226562 17.296875 12.875 17.339844 12.679688 C 17.503906 11.984375 17.878906 10.035156 17.878906 9.886719 C 17.878906 9.582031 16.574219 9.6875 16.09375 10.027344 M 8.339844 10.828125 C 8.375 10.976562 8.527344 11.730469 8.683594 12.5 L 8.964844 13.902344 L 10.070312 15.230469 C 10.683594 15.960938 11.203125 16.558594 11.230469 16.558594 C 11.257812 16.558594 11.28125 15.210938 11.28125 13.558594 L 11.28125 10.558594 L 9.777344 10.558594 C 8.28125 10.558594 8.277344 10.5625 8.339844 10.828125 M 18.199219 21.21875 C 18.089844 21.339844 18 21.570312 18 21.730469 C 18.007812 22.429688 18.378906 22.558594 20.335938 22.558594 C 21.910156 22.558594 21.980469 22.550781 22.265625 22.265625 C 22.425781 22.101562 22.558594 21.910156 22.558594 21.835938 C 22.558594 21.652344 22.3125 21.199219 22.152344 21.09375 C 22.078125 21.042969 21.203125 21.003906 20.207031 21 C 18.605469 21 18.375 21.023438 18.199219 21.21875 "/>
</g>
</svg>
