<?xml version="1.0" encoding="UTF-8"?>
<svg xmlns="http://www.w3.org/2000/svg" xmlns:xlink="http://www.w3.org/1999/xlink" width="100px" height="100px" viewBox="0 0 100 100" version="1.1">
<g id="surface1">
<path style=" stroke:none;fill-rule:evenodd;fill:rgb(0%,0%,0%);fill-opacity:1;" d="M 41.496094 7.441406 C 36.148438 9.175781 30.710938 14.445312 26.308594 22.171875 C 24.859375 24.714844 23.324219 26.605469 21.59375 27.972656 L 19.027344 30 L 18.230469 27.125 C 17.066406 22.941406 17.097656 23 16.296875 23 C 15.003906 23 15.003906 23.757812 16.296875 28.480469 C 16.996094 31.027344 17.453125 33.398438 17.316406 33.757812 C 17.179688 34.113281 16.40625 34.550781 15.59375 34.730469 C 13.753906 35.132812 11.121094 37.046875 9.910156 38.863281 C 8.550781 40.90625 6.191406 48.597656 4.695312 55.867188 C 3.136719 63.425781 2.6875 75.6875 3.9375 76.460938 C 4.316406 76.695312 4.46875 77.144531 4.277344 77.457031 C 3.621094 78.515625 4.507812 81 5.539062 81 C 6.667969 81 6.859375 79.183594 5.875 77.839844 C 5.402344 77.191406 5.332031 75.007812 5.582031 68.867188 C 5.941406 60.011719 6.984375 53.976562 9.578125 45.75 C 11.433594 39.875 13.371094 37.527344 17.164062 36.574219 C 22.144531 35.320312 25.1875 36.117188 28.304688 39.503906 C 29.375 40.664062 32.003906 42.972656 34.144531 44.636719 C 40.652344 49.679688 44.261719 55.214844 45.796875 62.5 C 48.414062 74.898438 43.105469 85.382812 32.121094 89.511719 C 26.539062 91.605469 18.792969 91.199219 13.578125 88.539062 C 11.78125 87.625 8.933594 84.8125 7.675781 82.710938 C 7.152344 81.839844 7.023438 81.824219 6.289062 82.527344 C 5.550781 83.238281 5.609375 83.492188 6.996094 85.585938 C 10.027344 90.164062 15.113281 92.507812 22.828125 92.882812 C 27.03125 93.085938 28.492188 92.949219 31.347656 92.082031 C 38.914062 89.78125 45.636719 83.40625 47.496094 76.765625 C 48.082031 74.675781 49 74.09375 49 75.8125 C 49 77.183594 51.113281 81.5 51.78125 81.5 C 53.027344 81.5 53.09375 80.433594 52.003906 77.898438 C 50.574219 74.578125 50.183594 69.007812 51.164062 66 L 51.902344 63.75 L 51.949219 65.785156 C 52.097656 71.859375 55.96875 77.292969 61.660156 79.421875 C 65.789062 80.96875 72.046875 80.902344 76.675781 79.269531 C 80.652344 77.867188 82.265625 76.671875 81.46875 75.714844 C 81.054688 75.210938 80.371094 75.34375 78.1875 76.34375 C 70.089844 80.050781 60.582031 78.554688 56.507812 72.929688 C 54.265625 69.835938 53.660156 66.292969 54.675781 62.183594 C 56.199219 56 60.140625 51.46875 66.882812 48.136719 C 70.089844 46.550781 71.175781 46.277344 74.917969 46.097656 C 77.300781 45.984375 80.183594 46.144531 81.328125 46.453125 C 86.894531 47.953125 91 52.953125 91 58.226562 C 91 62.699219 89.671875 65.84375 85.261719 71.8125 C 84.933594 72.253906 84.972656 72.671875 85.378906 73.078125 C 86.757812 74.460938 91.253906 68.175781 92.570312 63.027344 C 93.675781 58.699219 94.25 59.972656 94.25 66.75 C 94.25 71.347656 94.121094 72.023438 92.632812 75.164062 C 90.433594 79.804688 85.796875 84.417969 81.027344 86.703125 C 71.960938 91.046875 62.597656 89.917969 55.867188 83.660156 C 53.613281 81.566406 52.5 81.25 52.5 82.710938 C 52.5 83.679688 57.035156 87.742188 59.554688 89.03125 C 66.425781 92.542969 74.921875 92.324219 82.628906 88.4375 C 86.925781 86.265625 92.375 80.738281 94.386719 76.5 C 97.984375 68.921875 97.65625 62.75 93.226562 54.734375 C 90.070312 49.015625 89.109375 47.886719 85.78125 45.976562 C 77.945312 41.476562 67.441406 43.484375 58.429688 51.207031 C 54.164062 54.863281 51.316406 58.78125 49.71875 63.195312 L 48.648438 66.148438 L 48.3125 63.621094 C 47.230469 55.472656 42.566406 48.117188 34.746094 42.230469 C 32.75 40.730469 30.515625 38.710938 29.78125 37.746094 C 28.171875 35.636719 25.585938 34.253906 22.375 33.785156 C 20.957031 33.578125 20 33.179688 20 32.796875 C 20 32.234375 23.675781 28.828125 25.378906 27.8125 C 25.734375 27.597656 26.636719 27.882812 27.464844 28.472656 C 30.324219 30.511719 36.304688 32.972656 39.671875 33.5 C 43.617188 34.117188 47.464844 33.589844 50.796875 31.976562 C 53.324219 30.753906 57.5 27.183594 57.5 26.25 C 57.5 24.847656 56.160156 25.238281 53.757812 27.328125 C 50.628906 30.054688 49.179688 30.144531 46.785156 27.753906 C 45.824219 26.789062 44.796875 25.550781 44.5 24.996094 C 44.039062 24.136719 44.148438 23.917969 45.261719 23.496094 C 45.980469 23.222656 46.765625 23 47.007812 23 C 47.253906 23 49.222656 22.222656 51.386719 21.269531 C 55.296875 19.550781 59.5 18.511719 59.5 19.265625 C 59.5 19.484375 58.914062 20.660156 58.199219 21.882812 C 57.269531 23.464844 57.054688 24.253906 57.4375 24.636719 C 58.21875 25.421875 59.484375 24.105469 61.191406 20.738281 C 62.933594 17.292969 62.714844 16.683594 58.28125 12.671875 C 54.085938 8.875 50.628906 7.285156 46.25 7.148438 C 44.324219 7.085938 42.1875 7.21875 41.496094 7.441406 M 42.539062 10.0625 C 41.925781 10.714844 41.054688 11.867188 40.601562 12.625 C 39.300781 14.808594 37.347656 14.15625 38.535156 11.933594 L 39.117188 10.847656 L 37.613281 11.921875 C 35.335938 13.539062 31.480469 18.007812 29.332031 21.503906 L 27.417969 24.628906 L 29.082031 24.339844 C 30 24.179688 31.820312 23.902344 33.125 23.71875 L 35.5 23.386719 L 35.5 21.125 C 35.5 18.316406 36.464844 14.984375 37.378906 14.632812 C 38.683594 14.132812 38.984375 15.222656 38.234375 17.714844 C 37.199219 21.164062 37.25 23.136719 38.375 22.824219 C 38.855469 22.691406 41.015625 22.175781 43.175781 21.6875 L 47.105469 20.792969 L 48.3125 18.058594 C 48.976562 16.554688 50.300781 14.375 51.253906 13.214844 L 52.984375 11.101562 L 50.867188 10.253906 C 49.703125 9.785156 47.601562 9.285156 46.203125 9.140625 C 43.976562 8.910156 43.511719 9.027344 42.539062 10.0625 M 53.640625 13.640625 C 52.351562 15.070312 50 18.613281 50 19.128906 C 50 19.347656 50.640625 19.195312 51.425781 18.789062 C 52.207031 18.382812 53.953125 17.796875 55.300781 17.480469 C 59.339844 16.539062 59.25 16.605469 58.191406 15.433594 C 57.675781 14.863281 56.664062 13.972656 55.945312 13.464844 C 54.664062 12.546875 54.628906 12.550781 53.640625 13.640625 M 13.503906 17.375 C 13.507812 19.175781 14.570312 22 15.242188 22 C 16.414062 22 16.636719 21.023438 15.988281 18.710938 C 15.539062 17.105469 15.113281 16.5 14.433594 16.5 C 13.878906 16.5 13.5 16.851562 13.503906 17.375 M 34.335938 25.652344 L 28.417969 26.675781 L 30.335938 27.839844 C 33.851562 29.980469 37.621094 31.164062 41.625 31.390625 C 46.609375 31.667969 47.578125 31.347656 45.855469 29.992188 C 45.160156 29.445312 43.953125 27.988281 43.171875 26.75 C 42.390625 25.511719 41.414062 24.53125 41 24.5625 C 40.585938 24.597656 37.589844 25.085938 34.335938 25.652344 M 71.464844 51.164062 C 64.289062 53.160156 59.648438 58.816406 60.097656 65.023438 C 60.355469 68.578125 61.96875 70.910156 65.273438 72.511719 C 68.539062 74.09375 73.722656 73.757812 77.460938 71.722656 C 86.398438 66.859375 88.066406 55.738281 80.40625 52.09375 C 77.535156 50.730469 74.257812 50.386719 71.464844 51.164062 M 70.375 53.714844 C 67.910156 54.59375 65.152344 56.730469 63.957031 58.683594 C 63.007812 60.234375 63.007812 60.25 64 60.410156 C 65.089844 60.585938 65.347656 61.726562 64.425781 62.296875 C 64.109375 62.492188 63.566406 62.265625 63.222656 61.792969 C 62.660156 61.027344 62.558594 61.101562 62.25 62.507812 C 61.878906 64.191406 62.285156 67.308594 62.929688 67.707031 C 63.140625 67.839844 66.320312 65.597656 69.988281 62.722656 C 73.65625 59.851562 76.957031 57.5 77.328125 57.5 C 79.019531 57.5 77.757812 59.488281 74.496094 61.96875 C 71.421875 64.304688 71.09375 64.707031 71.820312 65.242188 C 72.738281 65.910156 72.359375 67 71.203125 67 C 70.800781 67 70.34375 66.675781 70.191406 66.277344 C 69.976562 65.71875 69.355469 65.976562 67.484375 67.402344 C 66.148438 68.417969 65.042969 69.429688 65.027344 69.652344 C 65.011719 69.871094 65.84375 70.402344 66.871094 70.832031 C 72 72.976562 79.96875 69.265625 82.324219 63.640625 C 83.183594 61.59375 83.195312 57.957031 82.347656 56.800781 C 81.757812 55.992188 81.636719 55.980469 81.039062 56.703125 C 80.226562 57.679688 78.5 57.753906 78.5 56.8125 C 78.5 56.433594 78.835938 55.84375 79.25 55.5 C 80.296875 54.632812 80.191406 54.25 78.726562 53.582031 C 77.035156 52.808594 72.710938 52.878906 70.375 53.714844 M 75.84375 53.824219 C 75.136719 54.53125 75.535156 55.5 76.535156 55.5 C 77.234375 55.5 77.519531 55.226562 77.410156 54.667969 C 77.234375 53.746094 76.378906 53.285156 75.84375 53.824219 M 38.199219 54.703125 C 37.832031 55.660156 39.910156 59.613281 40.652344 59.367188 C 41.679688 59.023438 41.617188 57.558594 40.496094 55.746094 C 39.347656 53.886719 38.636719 53.5625 38.199219 54.703125 M 69.667969 55.285156 C 69.273438 56.308594 70.066406 57.078125 70.953125 56.53125 C 71.707031 56.0625 71.359375 54.5 70.5 54.5 C 70.207031 54.5 69.832031 54.851562 69.667969 55.285156 M 72.046875 57.46875 C 71.292969 57.9375 71.640625 59.5 72.5 59.5 C 73.230469 59.5 73.734375 58.03125 73.1875 57.488281 C 72.9375 57.238281 72.4375 57.230469 72.046875 57.46875 M 66.738281 58.015625 C 66.546875 58.328125 66.621094 58.824219 66.910156 59.109375 C 67.582031 59.78125 69.148438 59.195312 68.875 58.375 C 68.597656 57.539062 67.183594 57.300781 66.738281 58.015625 M 80 59 C 80 59.753906 80.261719 60.023438 80.875 59.90625 C 81.355469 59.8125 81.75 59.40625 81.75 59 C 81.75 58.59375 81.355469 58.1875 80.875 58.09375 C 80.261719 57.976562 80 58.246094 80 59 M 40.734375 60.625 C 40.605469 60.96875 40.6875 62.792969 40.917969 64.679688 C 41.625 70.496094 40.410156 74.789062 36.945312 78.738281 C 35.519531 80.359375 35.257812 82 36.425781 82 C 37.324219 82 40.636719 77.824219 41.933594 75.058594 C 43.085938 72.597656 43.246094 71.632812 43.230469 67.25 C 43.210938 62.433594 42.617188 60 41.464844 60 C 41.191406 60 40.863281 60.28125 40.734375 60.625 M 78.167969 61.285156 C 77.714844 62.46875 78.78125 63.304688 79.734375 62.511719 C 80.328125 62.019531 80.378906 61.703125 79.945312 61.183594 C 79.195312 60.28125 78.539062 60.320312 78.167969 61.285156 M 66.554688 61.683594 C 66.125 62.199219 66.15625 62.507812 66.675781 62.941406 C 67.203125 63.378906 67.511719 63.339844 67.976562 62.777344 C 68.582031 62.050781 68.320312 61 67.53125 61 C 67.304688 61 66.867188 61.308594 66.554688 61.683594 M 74.167969 63.785156 C 73.75 64.871094 74.808594 65.890625 75.566406 65.132812 C 76.207031 64.492188 75.808594 63 75 63 C 74.707031 63 74.332031 63.351562 74.167969 63.785156 M 63.34375 63.824219 C 62.636719 64.53125 63.035156 65.5 64.035156 65.5 C 64.734375 65.5 65.019531 65.226562 64.910156 64.667969 C 64.734375 63.746094 63.878906 63.285156 63.34375 63.824219 M 77.25 65 C 76.832031 65.675781 77.394531 66.5 78.28125 66.5 C 78.675781 66.5 79 66.050781 79 65.5 C 79 64.464844 77.792969 64.121094 77.25 65 M 73.84375 67.824219 C 73.136719 68.53125 73.535156 69.5 74.535156 69.5 C 75.234375 69.5 75.519531 69.226562 75.410156 68.667969 C 75.234375 67.746094 74.378906 67.285156 73.84375 67.824219 M 68.34375 68.324219 C 67.636719 69.03125 68.035156 70 69.035156 70 C 69.734375 70 70.019531 69.726562 69.910156 69.167969 C 69.734375 68.246094 68.878906 67.785156 68.34375 68.324219 M 82.519531 73.726562 C 81.832031 74.554688 82.21875 75.5 83.242188 75.5 C 84.160156 75.5 85.582031 74.035156 85.226562 73.460938 C 84.789062 72.753906 83.195312 72.914062 82.519531 73.726562 "/>
</g>
</svg>
