<?xml version="1.0" encoding="UTF-8"?>
<svg xmlns="http://www.w3.org/2000/svg" xmlns:xlink="http://www.w3.org/1999/xlink" width="100px" height="100px" viewBox="0 0 100 100" version="1.1">
<g id="surface1">
<path style=" stroke:none;fill-rule:evenodd;fill:rgb(0%,0%,0%);fill-opacity:1;" d="M 48.152344 15.039062 C 46.167969 16.019531 43.152344 18.894531 41.5 21.378906 C 40.78125 22.457031 40.609375 22.480469 37.5 21.96875 C 31.832031 21.03125 27.039062 22.363281 24.125 25.683594 C 23.230469 26.703125 22.5 27.792969 22.5 28.109375 C 22.5 28.425781 22.003906 29.214844 21.394531 29.863281 C 20.515625 30.796875 20.398438 31.222656 20.832031 31.917969 C 21.132812 32.398438 21.535156 34.136719 21.726562 35.785156 L 22.074219 38.777344 L 19.835938 40.382812 C 12.210938 45.859375 12.171875 54.769531 19.746094 60.628906 L 22.410156 62.691406 L 22.136719 67.234375 C 21.902344 71.199219 22 72.039062 22.917969 73.839844 C 25.015625 77.953125 29.519531 79.863281 35.78125 79.296875 L 39.386719 78.96875 L 40.664062 81.148438 C 41.367188 82.347656 42.292969 83.621094 42.722656 83.976562 C 43.148438 84.332031 43.5 85.148438 43.5 85.792969 C 43.5 86.84375 45.042969 88.289062 45.585938 87.75 C 45.703125 87.632812 46.894531 88.089844 48.234375 88.765625 C 51.296875 90.320312 54.011719 90.335938 57.25 88.820312 C 59.824219 87.617188 63.070312 84.492188 64.777344 81.570312 C 65.746094 79.914062 65.761719 79.910156 68.65625 80.234375 C 78.523438 81.332031 84.890625 74.71875 83.066406 65.265625 C 82.628906 62.996094 82.679688 62.71875 83.667969 62.046875 C 88.660156 58.652344 91.203125 52.523438 89.429688 48.15625 C 89.113281 47.382812 88.832031 45.851562 88.804688 44.75 C 88.753906 42.910156 88.632812 42.738281 87.25 42.601562 C 86.425781 42.519531 85.222656 42.050781 84.578125 41.5625 C 83.503906 40.746094 83.449219 40.511719 83.949219 38.710938 C 84.25 37.632812 84.496094 35.390625 84.496094 33.730469 C 84.503906 28.40625 81.808594 24.804688 76.800781 23.441406 C 74.855469 22.910156 68.113281 23.101562 66.46875 23.734375 C 65.648438 24.050781 64.144531 21.578125 63.898438 19.503906 C 63.804688 18.722656 63.378906 18.191406 62.75 18.078125 C 62.199219 17.980469 61.074219 17.390625 60.25 16.773438 C 56.195312 13.734375 52.003906 13.132812 48.152344 15.039062 M 48.484375 15.949219 C 46.644531 16.953125 42 21.601562 42 22.441406 C 42 22.707031 42.84375 23.195312 43.875 23.53125 C 44.90625 23.867188 47.699219 25.113281 50.085938 26.304688 L 54.421875 28.472656 L 58.09375 26.773438 C 60.113281 25.839844 62.382812 24.921875 63.132812 24.734375 C 63.886719 24.546875 64.492188 24.132812 64.484375 23.820312 C 64.457031 22.910156 63.207031 21.5 62.421875 21.5 C 61.355469 21.5 60.5 20.457031 60.5 19.15625 C 60.5 16.003906 52.367188 13.835938 48.484375 15.949219 M 29.859375 23.179688 C 27.316406 23.894531 25.429688 25.34375 23.96875 27.699219 C 23.160156 29 23.148438 29.257812 23.820312 30.289062 C 24.507812 31.335938 24.480469 31.519531 23.476562 32.523438 C 22.597656 33.402344 22.4375 34.003906 22.648438 35.597656 C 22.796875 36.691406 23.027344 37.691406 23.160156 37.824219 C 23.292969 37.960938 24.382812 37.566406 25.578125 36.949219 C 26.773438 36.335938 29.613281 35.25 31.894531 34.539062 L 36.039062 33.25 L 37.792969 29 C 38.757812 26.664062 39.660156 24.496094 39.800781 24.191406 C 40.148438 23.425781 39.050781 23.074219 35.367188 22.769531 C 33.480469 22.613281 31.304688 22.773438 29.859375 23.179688 M 39.496094 27.179688 C 38.703125 28.925781 37.898438 30.984375 37.703125 31.753906 C 37.363281 33.109375 37.40625 33.144531 38.933594 32.839844 C 39.800781 32.664062 42.367188 32.367188 44.632812 32.179688 C 47.859375 31.914062 49.222656 31.546875 50.945312 30.476562 L 53.140625 29.113281 L 51.84375 28.265625 C 49.929688 27.011719 42.890625 24.011719 41.84375 24.007812 C 41.210938 24.003906 40.5 24.964844 39.496094 27.179688 M 68.5 24.359375 C 66.6875 24.683594 66.324219 25.238281 67.042969 26.570312 C 67.390625 27.21875 68.171875 29.210938 68.777344 31 L 69.871094 34.25 L 73.335938 35.53125 C 75.238281 36.238281 78.078125 37.507812 79.648438 38.359375 C 81.367188 39.289062 82.625 39.703125 82.8125 39.398438 C 83.328125 38.5625 83.652344 32.722656 83.289062 30.785156 C 82.351562 25.792969 75.96875 23.019531 68.5 24.359375 M 60.824219 26.734375 C 58.390625 27.652344 56.1875 28.613281 55.929688 28.871094 C 54.972656 29.828125 59.558594 32.214844 64 33.070312 C 66.335938 33.523438 68.328125 33.816406 68.425781 33.726562 C 68.65625 33.511719 66.636719 27.5625 65.855469 26.160156 L 65.25 25.070312 L 60.824219 26.734375 M 52.375 30.785156 C 51.617188 31.195312 51 31.636719 51 31.765625 C 51 31.894531 52.519531 32 54.375 31.996094 L 57.75 31.992188 L 56.25 31 C 54.476562 29.824219 54.175781 29.808594 52.375 30.785156 M 41 33.585938 C 39.210938 33.839844 37.5 34.316406 37.191406 34.648438 C 36.675781 35.203125 35.5 40.238281 35.5 41.886719 C 35.5 42.285156 36.988281 41.289062 38.875 39.628906 C 40.730469 37.992188 43.335938 35.832031 44.664062 34.828125 C 46.964844 33.082031 47.011719 33.003906 45.664062 33.0625 C 44.886719 33.09375 42.789062 33.332031 41 33.585938 M 45.5 35.398438 C 43.710938 36.742188 40.617188 39.363281 38.625 41.21875 L 35 44.59375 L 35 59.210938 L 38.375 62.511719 C 40.230469 64.328125 42.738281 66.53125 43.949219 67.40625 C 46.136719 68.988281 46.191406 69 52.199219 68.996094 L 58.25 68.996094 L 60.710938 67.121094 C 62.3125 65.902344 63.203125 64.839844 63.257812 64.078125 C 63.355469 62.703125 64.394531 61.914062 65.613281 62.289062 C 66.171875 62.464844 67.230469 61.855469 68.613281 60.566406 L 70.75 58.570312 L 70.929688 54.238281 C 71.027344 51.855469 70.949219 48.429688 70.753906 46.621094 C 70.40625 43.355469 70.386719 43.320312 66.742188 39.726562 C 60.285156 33.351562 60.152344 33.285156 54.046875 33.105469 L 48.75 32.953125 L 45.5 35.398438 M 65.9375 37.730469 C 68.035156 39.78125 69.835938 41.214844 69.941406 40.914062 C 70.042969 40.609375 69.863281 39.171875 69.535156 37.71875 L 68.945312 35.070312 L 66.449219 34.535156 C 61.914062 33.5625 61.882812 33.761719 65.9375 37.730469 M 31.75 35.695312 C 29.824219 36.328125 27.164062 37.363281 25.839844 37.992188 C 22.921875 39.386719 22.933594 39.578125 26.34375 46.433594 L 28.675781 51.117188 L 29.710938 49.683594 C 30.28125 48.894531 31.480469 47.433594 32.375 46.4375 C 33.742188 44.917969 34.121094 43.921875 34.761719 40.1875 C 35.179688 37.746094 35.621094 35.46875 35.746094 35.125 C 36.035156 34.316406 35.886719 34.335938 31.75 35.695312 M 70.882812 39.375 C 71.484375 42.609375 71.976562 43.746094 73.863281 46.25 C 75.105469 47.898438 76.230469 49.53125 76.363281 49.875 C 76.808594 51.019531 77.304688 50.527344 79.382812 46.875 C 82.625 41.164062 82.617188 40.96875 79.046875 39.066406 C 76.746094 37.839844 70.976562 35.5 70.253906 35.5 C 70.203125 35.5 70.484375 37.242188 70.882812 39.375 M 19.925781 41.695312 C 15.472656 45.09375 13.902344 50.414062 16.039062 54.832031 C 17.128906 57.082031 21.609375 61.5 22.804688 61.5 C 23.527344 61.5 23.625 61.089844 23.703125 57.75 C 23.742188 56.085938 23.933594 55.722656 24.855469 55.59375 C 25.464844 55.507812 26.429688 54.671875 27.011719 53.730469 L 28.066406 52.027344 L 25.53125 46.96875 C 24.140625 44.1875 23 41.605469 23 41.234375 C 23 39.90625 22.089844 40.042969 19.925781 41.695312 M 81.738281 44.519531 C 80.945312 46.183594 79.683594 48.46875 78.933594 49.597656 C 77.636719 51.558594 77.613281 51.710938 78.386719 52.949219 C 78.832031 53.664062 79.75 54.71875 80.429688 55.292969 C 81.320312 56.046875 81.578125 56.644531 81.363281 57.46875 C 81.125 58.378906 81.609375 60.378906 82.328125 61.433594 C 82.398438 61.535156 83.347656 60.914062 84.4375 60.050781 C 89.230469 56.253906 90.503906 48.257812 86.710938 45.773438 C 86.046875 45.335938 85.5 44.683594 85.5 44.324219 C 85.5 43.96875 84.980469 43.183594 84.34375 42.585938 L 83.183594 41.5 L 81.738281 44.519531 M 50 45.402344 C 45.035156 48.128906 45.238281 55.074219 50.355469 57.550781 C 56.214844 60.386719 62.394531 53.683594 59.023438 48.152344 C 57.027344 44.878906 53.121094 43.6875 50 45.402344 M 71.917969 51.125 L 72.085938 56.75 L 74.039062 54.5 C 75.117188 53.261719 75.996094 51.949219 76 51.582031 C 76 50.902344 72.457031 45.515625 72 45.503906 C 71.863281 45.5 71.824219 48.03125 71.917969 51.125 M 31.953125 48.507812 C 29.210938 51.925781 29.21875 51.792969 31.582031 54.859375 L 33.75 57.675781 L 33.898438 54.839844 C 33.984375 53.277344 33.984375 50.710938 33.898438 49.132812 L 33.75 46.265625 L 31.953125 48.507812 M 76.511719 52.757812 C 76.503906 53.039062 75.449219 54.46875 74.167969 55.933594 C 72.136719 58.257812 71.75 59.066406 71.191406 62.175781 C 70.273438 67.316406 70.148438 67.066406 73.136719 66.039062 C 75.246094 65.3125 80.785156 62.777344 81.382812 62.265625 C 81.871094 61.847656 79.84375 58.574219 78.949219 58.34375 C 78.027344 58.101562 77.902344 57.800781 78.132812 56.378906 C 78.324219 55.183594 78.132812 54.34375 77.464844 53.472656 C 76.945312 52.800781 76.515625 52.480469 76.511719 52.757812 M 27.710938 54.375 C 27.214844 55.132812 26.847656 56.246094 26.894531 56.851562 C 26.945312 57.457031 26.550781 58.257812 26.015625 58.632812 C 25.226562 59.1875 24 61.398438 24 62.273438 C 24 62.796875 34 67 35.25 67 C 35.289062 67 35.066406 65.359375 34.75 63.351562 C 34.242188 60.101562 33.890625 59.339844 31.542969 56.351562 C 30.09375 54.507812 28.84375 53 28.761719 53 C 28.679688 53 28.207031 53.617188 27.710938 54.375 M 68.679688 61.59375 C 67.816406 62.503906 66.953125 63.765625 66.765625 64.394531 C 66.554688 65.097656 65.90625 65.644531 65.085938 65.8125 C 64.351562 65.960938 63.074219 66.625 62.25 67.289062 C 60.464844 68.722656 60.925781 68.792969 66 67.847656 L 69.25 67.246094 L 69.863281 64.246094 C 70.71875 60.085938 70.523438 59.648438 68.679688 61.59375 M 35.730469 63.546875 C 36.324219 67.367188 36.273438 67.316406 39.863281 67.910156 C 41.699219 68.214844 43.230469 68.414062 43.265625 68.355469 C 43.300781 68.296875 41.539062 66.695312 39.355469 64.796875 L 35.386719 61.34375 L 35.730469 63.546875 M 23.242188 64.519531 C 22.625 66.472656 22.9375 71.46875 23.792969 73.273438 C 25.558594 76.992188 30.027344 78.882812 35.640625 78.28125 L 38.785156 77.945312 L 37.171875 73.097656 L 35.554688 68.25 L 31.402344 66.71875 C 29.117188 65.878906 26.53125 64.808594 25.648438 64.34375 C 23.644531 63.285156 23.636719 63.289062 23.242188 64.519531 M 78.25 65.046875 C 76.601562 65.859375 74.125 66.855469 72.75 67.265625 L 70.25 68.011719 L 68.703125 72.632812 C 67.851562 75.171875 66.996094 77.613281 66.800781 78.054688 C 66.011719 79.851562 73.441406 79.78125 77.0625 77.957031 C 79.660156 76.648438 81.328125 74.421875 81.976562 71.394531 C 82.515625 68.871094 82.234375 63.457031 81.566406 63.539062 C 81.394531 63.558594 79.898438 64.238281 78.25 65.046875 M 37 69.21875 C 37 69.863281 39.410156 77.015625 39.757812 77.40625 C 40.046875 77.730469 44.351562 76.347656 47.472656 74.933594 L 50.695312 73.472656 L 47.976562 71.640625 C 46.019531 70.324219 44.269531 69.632812 41.753906 69.179688 C 37.207031 68.367188 37 68.367188 37 69.21875 M 62.976562 69.300781 C 59.890625 69.777344 57.917969 70.417969 55.871094 71.605469 C 54.3125 72.511719 53.027344 73.386719 53.019531 73.554688 C 52.996094 73.917969 59.9375 77.109375 62.644531 77.980469 C 63.6875 78.316406 64.839844 78.476562 65.203125 78.335938 C 65.773438 78.117188 67.753906 73.265625 68.757812 69.625 C 69.117188 68.320312 69.238281 68.324219 62.976562 69.300781 M 49.484375 71.484375 L 51.71875 72.96875 L 53.984375 71.660156 C 55.230469 70.941406 56.34375 70.273438 56.457031 70.175781 C 56.574219 70.078125 54.546875 70 51.957031 70.003906 L 47.25 70.003906 L 49.484375 71.484375 M 50.449219 74.800781 C 49.789062 75.164062 47.28125 76.179688 44.875 77.050781 C 42.46875 77.921875 40.5 78.738281 40.5 78.859375 C 40.5 78.980469 41.300781 80.289062 42.28125 81.761719 C 43.460938 83.542969 44.304688 84.351562 44.785156 84.167969 C 45.75 83.796875 47 84.882812 47 86.085938 C 47 87.25 50.46875 88.972656 52.84375 88.988281 C 56.363281 89.011719 60.039062 86.664062 62.925781 82.546875 L 64.949219 79.664062 L 62.097656 78.785156 C 60.53125 78.296875 57.539062 77.054688 55.449219 76.015625 C 52.027344 74.320312 51.53125 74.199219 50.449219 74.800781 "/>
</g>
</svg>
