<?xml version="1.0" encoding="UTF-8"?>
<svg xmlns="http://www.w3.org/2000/svg" xmlns:xlink="http://www.w3.org/1999/xlink" width="24px" height="24px" viewBox="0 0 24 24" version="1.1">
<g id="surface1">
<path style=" stroke:none;fill-rule:evenodd;fill:rgb(0%,0%,0%);fill-opacity:1;" d="M 9.960938 1.785156 C 8.675781 2.203125 7.371094 3.46875 6.3125 5.320312 C 5.964844 5.933594 5.597656 6.386719 5.183594 6.714844 L 4.566406 7.199219 L 4.375 6.511719 C 4.097656 5.503906 4.101562 5.519531 3.910156 5.519531 C 3.601562 5.519531 3.601562 5.703125 3.910156 6.835938 C 4.078125 7.445312 4.1875 8.015625 4.15625 8.101562 C 4.125 8.1875 3.9375 8.292969 3.742188 8.335938 C 3.300781 8.433594 2.667969 8.890625 2.378906 9.328125 C 2.050781 9.816406 1.484375 11.664062 1.125 13.40625 C 0.753906 15.222656 0.644531 18.164062 0.945312 18.351562 C 1.035156 18.40625 1.074219 18.515625 1.027344 18.589844 C 0.871094 18.84375 1.082031 19.441406 1.328125 19.441406 C 1.601562 19.441406 1.648438 19.003906 1.410156 18.679688 C 1.296875 18.527344 1.28125 18.003906 1.339844 16.527344 C 1.425781 14.402344 1.675781 12.953125 2.300781 10.980469 C 2.742188 9.570312 3.210938 9.007812 4.121094 8.777344 C 5.316406 8.476562 6.046875 8.667969 6.792969 9.480469 C 7.050781 9.757812 7.679688 10.3125 8.195312 10.710938 C 9.757812 11.921875 10.621094 13.25 10.992188 15 C 11.621094 17.976562 10.34375 20.492188 7.707031 21.480469 C 6.371094 21.984375 4.511719 21.886719 3.257812 21.25 C 2.828125 21.03125 2.144531 20.355469 1.839844 19.851562 C 1.714844 19.640625 1.683594 19.636719 1.507812 19.804688 C 1.332031 19.976562 1.347656 20.039062 1.679688 20.539062 C 2.40625 21.640625 3.628906 22.203125 5.476562 22.292969 C 6.488281 22.339844 6.839844 22.308594 7.523438 22.097656 C 9.339844 21.546875 10.953125 20.019531 11.398438 18.425781 C 11.539062 17.921875 11.761719 17.78125 11.761719 18.195312 C 11.761719 18.523438 12.265625 19.558594 12.425781 19.558594 C 12.726562 19.558594 12.742188 19.304688 12.480469 18.695312 C 12.136719 17.898438 12.042969 16.5625 12.28125 15.839844 L 12.457031 15.300781 L 12.46875 15.789062 C 12.503906 17.246094 13.433594 18.550781 14.796875 19.0625 C 15.789062 19.433594 17.289062 19.417969 18.402344 19.023438 C 19.355469 18.6875 19.742188 18.402344 19.554688 18.171875 C 19.453125 18.050781 19.289062 18.082031 18.765625 18.320312 C 16.820312 19.210938 14.539062 18.851562 13.5625 17.503906 C 13.023438 16.761719 12.878906 15.910156 13.121094 14.925781 C 13.488281 13.441406 14.433594 12.351562 16.050781 11.550781 C 16.820312 11.171875 17.082031 11.105469 17.980469 11.0625 C 18.550781 11.035156 19.246094 11.074219 19.519531 11.148438 C 20.855469 11.507812 21.839844 12.707031 21.839844 13.972656 C 21.839844 15.046875 21.519531 15.804688 20.460938 17.234375 C 20.382812 17.339844 20.394531 17.441406 20.492188 17.539062 C 20.820312 17.871094 21.902344 16.363281 22.214844 15.125 C 22.480469 14.085938 22.621094 14.394531 22.621094 16.019531 C 22.621094 17.125 22.589844 17.285156 22.230469 18.039062 C 21.703125 19.152344 20.589844 20.261719 19.445312 20.808594 C 17.269531 21.851562 15.023438 21.578125 13.410156 20.078125 C 12.867188 19.574219 12.601562 19.5 12.601562 19.851562 C 12.601562 20.082031 13.6875 21.058594 14.292969 21.367188 C 15.941406 22.210938 17.980469 22.15625 19.832031 21.226562 C 20.863281 20.703125 22.167969 19.375 22.652344 18.359375 C 23.515625 16.542969 23.4375 15.058594 22.375 13.136719 C 21.617188 11.765625 21.386719 11.492188 20.585938 11.035156 C 18.707031 9.953125 16.1875 10.4375 14.023438 12.289062 C 13 13.167969 12.316406 14.109375 11.933594 15.167969 L 11.675781 15.875 L 11.59375 15.269531 C 11.335938 13.3125 10.214844 11.546875 8.339844 10.136719 C 7.859375 9.773438 7.324219 9.289062 7.148438 9.058594 C 6.761719 8.550781 6.140625 8.222656 5.371094 8.109375 C 5.03125 8.058594 4.800781 7.964844 4.800781 7.871094 C 4.800781 7.734375 5.683594 6.917969 6.089844 6.675781 C 6.175781 6.625 6.390625 6.691406 6.589844 6.832031 C 7.277344 7.324219 8.714844 7.914062 9.519531 8.039062 C 10.46875 8.1875 11.390625 8.0625 12.191406 7.675781 C 12.796875 7.378906 13.800781 6.523438 13.800781 6.300781 C 13.800781 5.964844 13.476562 6.058594 12.902344 6.558594 C 12.152344 7.214844 11.800781 7.234375 11.230469 6.660156 C 10.996094 6.429688 10.75 6.132812 10.679688 6 C 10.570312 5.792969 10.597656 5.742188 10.863281 5.640625 C 11.035156 5.574219 11.222656 5.519531 11.28125 5.519531 C 11.339844 5.519531 11.8125 5.332031 12.332031 5.105469 C 13.269531 4.691406 14.28125 4.441406 14.28125 4.625 C 14.28125 4.675781 14.140625 4.957031 13.96875 5.25 C 13.746094 5.632812 13.691406 5.820312 13.785156 5.914062 C 13.972656 6.101562 14.277344 5.785156 14.6875 4.976562 C 15.105469 4.148438 15.050781 4.003906 13.988281 3.042969 C 12.980469 2.128906 12.152344 1.75 11.101562 1.714844 C 10.636719 1.699219 10.125 1.734375 9.960938 1.785156 M 10.210938 2.414062 C 10.0625 2.570312 9.851562 2.847656 9.746094 3.03125 C 9.433594 3.554688 8.964844 3.398438 9.25 2.863281 L 9.386719 2.605469 L 9.027344 2.859375 C 8.480469 3.25 7.554688 4.320312 7.039062 5.160156 L 6.582031 5.910156 L 6.980469 5.839844 C 7.199219 5.804688 7.636719 5.734375 7.949219 5.691406 L 8.519531 5.613281 L 8.519531 5.070312 C 8.519531 4.394531 8.75 3.597656 8.972656 3.511719 C 9.285156 3.390625 9.355469 3.652344 9.175781 4.25 C 8.925781 5.078125 8.941406 5.554688 9.210938 5.476562 C 9.324219 5.445312 9.84375 5.324219 10.363281 5.203125 L 11.304688 4.988281 L 11.59375 4.335938 C 11.753906 3.972656 12.070312 3.449219 12.300781 3.171875 L 12.714844 2.664062 L 12.207031 2.460938 C 11.929688 2.347656 11.425781 2.230469 11.089844 2.195312 C 10.554688 2.136719 10.441406 2.167969 10.210938 2.414062 M 12.875 3.273438 C 12.566406 3.617188 12 4.46875 12 4.589844 C 12 4.644531 12.152344 4.605469 12.34375 4.507812 C 12.53125 4.414062 12.949219 4.269531 13.273438 4.195312 C 14.242188 3.96875 14.21875 3.984375 13.964844 3.703125 C 13.84375 3.566406 13.597656 3.355469 13.425781 3.230469 C 13.117188 3.011719 13.109375 3.011719 12.875 3.273438 M 3.242188 4.171875 C 3.242188 4.601562 3.496094 5.28125 3.660156 5.28125 C 3.941406 5.28125 3.992188 5.046875 3.835938 4.492188 C 3.730469 4.105469 3.628906 3.960938 3.464844 3.960938 C 3.332031 3.960938 3.242188 4.042969 3.242188 4.171875 M 8.238281 6.15625 L 6.820312 6.402344 L 7.28125 6.683594 C 8.125 7.195312 9.027344 7.480469 9.992188 7.535156 C 11.1875 7.601562 11.417969 7.523438 11.003906 7.199219 C 10.839844 7.066406 10.546875 6.71875 10.359375 6.421875 C 10.171875 6.125 9.9375 5.886719 9.839844 5.894531 C 9.742188 5.902344 9.019531 6.019531 8.238281 6.15625 M 17.152344 12.28125 C 15.429688 12.757812 14.316406 14.117188 14.421875 15.605469 C 14.484375 16.457031 14.871094 17.019531 15.664062 17.402344 C 16.449219 17.78125 17.695312 17.703125 18.589844 17.214844 C 20.734375 16.046875 21.136719 13.378906 19.296875 12.503906 C 18.609375 12.175781 17.820312 12.09375 17.152344 12.28125 M 16.890625 12.890625 C 16.296875 13.101562 15.636719 13.613281 15.351562 14.082031 C 15.121094 14.457031 15.121094 14.460938 15.359375 14.5 C 15.621094 14.539062 15.683594 14.816406 15.460938 14.953125 C 15.386719 15 15.253906 14.945312 15.171875 14.832031 C 15.039062 14.644531 15.015625 14.664062 14.941406 15 C 14.851562 15.40625 14.949219 16.152344 15.101562 16.25 C 15.152344 16.28125 15.917969 15.742188 16.796875 15.054688 C 17.675781 14.363281 18.46875 13.800781 18.558594 13.800781 C 18.964844 13.800781 18.660156 14.277344 17.878906 14.871094 C 17.140625 15.433594 17.0625 15.53125 17.238281 15.65625 C 17.457031 15.820312 17.367188 16.078125 17.089844 16.078125 C 16.992188 16.078125 16.882812 16 16.847656 15.90625 C 16.792969 15.773438 16.644531 15.835938 16.195312 16.175781 C 15.875 16.421875 15.609375 16.664062 15.605469 16.714844 C 15.601562 16.769531 15.800781 16.898438 16.050781 17 C 17.28125 17.515625 19.191406 16.625 19.757812 15.273438 C 19.964844 14.78125 19.96875 13.910156 19.761719 13.632812 C 19.621094 13.4375 19.59375 13.4375 19.449219 13.609375 C 19.253906 13.84375 18.839844 13.859375 18.839844 13.632812 C 18.839844 13.542969 18.921875 13.402344 19.019531 13.320312 C 19.269531 13.113281 19.246094 13.019531 18.894531 12.859375 C 18.488281 12.675781 17.449219 12.691406 16.890625 12.890625 M 18.203125 12.917969 C 18.03125 13.085938 18.128906 13.320312 18.367188 13.320312 C 18.535156 13.320312 18.605469 13.253906 18.578125 13.121094 C 18.535156 12.898438 18.332031 12.789062 18.203125 12.917969 M 9.167969 13.128906 C 9.078125 13.359375 9.578125 14.308594 9.757812 14.246094 C 10.003906 14.164062 9.988281 13.8125 9.71875 13.378906 C 9.445312 12.933594 9.273438 12.855469 9.167969 13.128906 M 16.71875 13.269531 C 16.625 13.515625 16.816406 13.699219 17.027344 13.566406 C 17.210938 13.453125 17.125 13.078125 16.921875 13.078125 C 16.851562 13.078125 16.761719 13.164062 16.71875 13.269531 M 17.292969 13.792969 C 17.109375 13.90625 17.195312 14.28125 17.398438 14.28125 C 17.574219 14.28125 17.695312 13.929688 17.566406 13.796875 C 17.503906 13.738281 17.386719 13.734375 17.292969 13.792969 M 16.019531 13.925781 C 15.972656 14 15.988281 14.117188 16.058594 14.1875 C 16.21875 14.347656 16.59375 14.207031 16.53125 14.011719 C 16.464844 13.808594 16.125 13.753906 16.019531 13.925781 M 19.199219 14.160156 C 19.199219 14.339844 19.261719 14.40625 19.410156 14.378906 C 19.527344 14.355469 19.621094 14.257812 19.621094 14.160156 C 19.621094 14.0625 19.527344 13.964844 19.410156 13.941406 C 19.261719 13.914062 19.199219 13.980469 19.199219 14.160156 M 9.777344 14.550781 C 9.746094 14.632812 9.765625 15.070312 9.820312 15.523438 C 9.988281 16.917969 9.699219 17.949219 8.867188 18.898438 C 8.523438 19.285156 8.460938 19.679688 8.742188 19.679688 C 8.957031 19.679688 9.753906 18.675781 10.0625 18.015625 C 10.339844 17.421875 10.378906 17.191406 10.375 16.140625 C 10.371094 14.984375 10.226562 14.398438 9.953125 14.398438 C 9.886719 14.398438 9.808594 14.46875 9.777344 14.550781 M 18.761719 14.707031 C 18.652344 14.992188 18.90625 15.191406 19.136719 15.003906 C 19.277344 14.886719 19.289062 14.808594 19.1875 14.683594 C 19.007812 14.46875 18.847656 14.476562 18.761719 14.707031 M 15.972656 14.804688 C 15.871094 14.929688 15.878906 15 16.003906 15.105469 C 16.128906 15.210938 16.203125 15.203125 16.3125 15.066406 C 16.460938 14.890625 16.394531 14.640625 16.207031 14.640625 C 16.152344 14.640625 16.046875 14.714844 15.972656 14.804688 M 17.800781 15.308594 C 17.699219 15.570312 17.953125 15.8125 18.136719 15.632812 C 18.289062 15.476562 18.195312 15.121094 18 15.121094 C 17.929688 15.121094 17.839844 15.203125 17.800781 15.308594 M 15.203125 15.316406 C 15.03125 15.488281 15.128906 15.71875 15.367188 15.71875 C 15.535156 15.71875 15.605469 15.65625 15.578125 15.519531 C 15.535156 15.300781 15.332031 15.1875 15.203125 15.316406 M 18.539062 15.601562 C 18.441406 15.761719 18.574219 15.960938 18.785156 15.960938 C 18.882812 15.960938 18.960938 15.851562 18.960938 15.71875 C 18.960938 15.472656 18.671875 15.390625 18.539062 15.601562 M 17.722656 16.277344 C 17.550781 16.449219 17.648438 16.679688 17.890625 16.679688 C 18.054688 16.679688 18.125 16.613281 18.097656 16.480469 C 18.054688 16.257812 17.851562 16.148438 17.722656 16.277344 M 16.402344 16.398438 C 16.234375 16.566406 16.328125 16.800781 16.570312 16.800781 C 16.738281 16.800781 16.804688 16.734375 16.777344 16.601562 C 16.734375 16.378906 16.53125 16.269531 16.402344 16.398438 M 19.804688 17.695312 C 19.640625 17.894531 19.734375 18.121094 19.980469 18.121094 C 20.199219 18.121094 20.539062 17.769531 20.453125 17.628906 C 20.347656 17.460938 19.964844 17.5 19.804688 17.695312 "/>
</g>
</svg>
