<?xml version="1.0" encoding="UTF-8"?>
<svg xmlns="http://www.w3.org/2000/svg" xmlns:xlink="http://www.w3.org/1999/xlink" width="24px" height="24px" viewBox="0 0 24 24" version="1.1">
<g id="surface1">
<path style=" stroke:none;fill-rule:evenodd;fill:rgb(0%,0%,0%);fill-opacity:1;" d="M 11.558594 3.609375 C 11.082031 3.84375 10.355469 4.535156 9.960938 5.128906 C 9.789062 5.390625 9.746094 5.394531 9 5.273438 C 7.640625 5.046875 6.488281 5.367188 5.789062 6.164062 C 5.574219 6.410156 5.398438 6.671875 5.398438 6.746094 C 5.398438 6.824219 5.28125 7.011719 5.132812 7.167969 C 4.921875 7.390625 4.894531 7.492188 5 7.660156 C 5.070312 7.773438 5.167969 8.191406 5.214844 8.589844 L 5.296875 9.308594 L 4.761719 9.691406 C 2.929688 11.007812 2.921875 13.144531 4.738281 14.550781 L 5.378906 15.046875 L 5.3125 16.136719 C 5.257812 17.085938 5.28125 17.289062 5.5 17.722656 C 6.003906 18.707031 7.085938 19.167969 8.585938 19.03125 L 9.453125 18.953125 L 9.757812 19.476562 C 9.929688 19.761719 10.148438 20.070312 10.253906 20.152344 C 10.355469 20.238281 10.441406 20.4375 10.441406 20.589844 C 10.441406 20.84375 10.808594 21.191406 10.941406 21.058594 C 10.96875 21.03125 11.253906 21.140625 11.578125 21.304688 C 12.3125 21.675781 12.964844 21.679688 13.738281 21.316406 C 14.359375 21.027344 15.136719 20.277344 15.546875 19.578125 C 15.777344 19.179688 15.78125 19.179688 16.476562 19.253906 C 18.84375 19.519531 20.375 17.933594 19.9375 15.664062 C 19.832031 15.117188 19.84375 15.050781 20.082031 14.890625 C 21.277344 14.078125 21.886719 12.605469 21.460938 11.558594 C 21.386719 11.371094 21.320312 11.003906 21.3125 10.738281 C 21.300781 10.296875 21.269531 10.257812 20.941406 10.222656 C 20.742188 10.203125 20.453125 10.09375 20.296875 9.976562 C 20.039062 9.78125 20.027344 9.722656 20.148438 9.289062 C 20.21875 9.03125 20.277344 8.492188 20.277344 8.09375 C 20.28125 6.816406 19.632812 5.953125 18.433594 5.625 C 17.964844 5.5 16.347656 5.542969 15.953125 5.695312 C 15.757812 5.773438 15.394531 5.179688 15.335938 4.679688 C 15.3125 4.492188 15.210938 4.367188 15.058594 4.339844 C 14.929688 4.316406 14.65625 4.175781 14.460938 4.027344 C 13.488281 3.296875 12.480469 3.152344 11.558594 3.609375 M 11.636719 3.828125 C 11.195312 4.070312 10.078125 5.183594 10.078125 5.386719 C 10.078125 5.449219 10.28125 5.566406 10.53125 5.648438 C 10.777344 5.726562 11.449219 6.027344 12.019531 6.3125 L 13.0625 6.832031 L 13.941406 6.425781 C 14.425781 6.203125 14.972656 5.980469 15.152344 5.9375 C 15.332031 5.890625 15.476562 5.792969 15.476562 5.71875 C 15.46875 5.5 15.167969 5.160156 14.980469 5.160156 C 14.726562 5.160156 14.519531 4.910156 14.519531 4.597656 C 14.519531 3.839844 12.570312 3.320312 11.636719 3.828125 M 7.167969 5.5625 C 6.554688 5.734375 6.101562 6.082031 5.753906 6.648438 C 5.558594 6.960938 5.554688 7.023438 5.71875 7.269531 C 5.882812 7.519531 5.875 7.566406 5.632812 7.804688 C 5.421875 8.015625 5.382812 8.160156 5.4375 8.542969 C 5.472656 8.804688 5.527344 9.046875 5.558594 9.078125 C 5.589844 9.109375 5.851562 9.015625 6.136719 8.867188 C 6.425781 8.71875 7.109375 8.460938 7.65625 8.289062 L 8.648438 7.980469 L 9.070312 6.960938 C 9.300781 6.398438 9.519531 5.878906 9.550781 5.804688 C 9.636719 5.621094 9.371094 5.539062 8.488281 5.464844 C 8.035156 5.425781 7.511719 5.464844 7.167969 5.5625 M 9.480469 6.523438 C 9.289062 6.941406 9.09375 7.4375 9.050781 7.621094 C 8.96875 7.945312 8.976562 7.953125 9.34375 7.882812 C 9.550781 7.839844 10.167969 7.769531 10.710938 7.722656 C 11.488281 7.660156 11.8125 7.570312 12.226562 7.316406 L 12.753906 6.988281 L 12.441406 6.785156 C 11.984375 6.484375 10.292969 5.761719 10.042969 5.761719 C 9.890625 5.761719 9.71875 5.992188 9.480469 6.523438 M 16.441406 5.847656 C 16.003906 5.925781 15.917969 6.058594 16.089844 6.378906 C 16.175781 6.53125 16.363281 7.011719 16.507812 7.441406 L 16.769531 8.21875 L 17.601562 8.527344 C 18.058594 8.695312 18.738281 9.003906 19.117188 9.207031 C 19.527344 9.429688 19.828125 9.527344 19.875 9.457031 C 20 9.253906 20.078125 7.851562 19.988281 7.390625 C 19.765625 6.191406 18.234375 5.523438 16.441406 5.847656 M 14.597656 6.417969 C 14.015625 6.636719 13.484375 6.867188 13.421875 6.929688 C 13.195312 7.160156 14.292969 7.730469 15.359375 7.9375 C 15.921875 8.046875 16.398438 8.117188 16.421875 8.09375 C 16.476562 8.042969 15.992188 6.613281 15.804688 6.277344 L 15.660156 6.015625 L 14.597656 6.417969 M 12.570312 7.386719 C 12.386719 7.488281 12.238281 7.59375 12.238281 7.625 C 12.238281 7.65625 12.605469 7.679688 13.050781 7.679688 L 13.859375 7.679688 L 13.5 7.441406 C 13.074219 7.15625 13.003906 7.152344 12.570312 7.386719 M 9.839844 8.058594 C 9.410156 8.121094 9 8.234375 8.925781 8.316406 C 8.800781 8.449219 8.519531 9.65625 8.519531 10.050781 C 8.519531 10.148438 8.878906 9.910156 9.328125 9.511719 C 9.777344 9.117188 10.402344 8.597656 10.71875 8.359375 C 11.273438 7.941406 11.28125 7.921875 10.960938 7.933594 C 10.773438 7.941406 10.269531 8 9.839844 8.058594 M 10.921875 8.496094 C 10.492188 8.816406 9.75 9.445312 9.269531 9.890625 L 8.398438 10.703125 L 8.398438 14.210938 L 9.210938 15.003906 C 9.65625 15.4375 10.257812 15.96875 10.546875 16.175781 C 11.074219 16.558594 11.085938 16.558594 12.527344 16.558594 L 13.980469 16.558594 L 14.570312 16.109375 C 14.957031 15.816406 15.167969 15.5625 15.183594 15.378906 C 15.203125 15.050781 15.453125 14.859375 15.746094 14.949219 C 15.878906 14.992188 16.136719 14.84375 16.46875 14.535156 L 16.980469 14.058594 L 17.023438 13.015625 C 17.046875 12.445312 17.027344 11.621094 16.980469 11.191406 C 16.898438 10.40625 16.890625 10.398438 16.019531 9.535156 C 14.46875 8.003906 14.4375 7.988281 12.972656 7.945312 L 11.699219 7.910156 L 10.921875 8.496094 M 15.824219 9.054688 C 16.328125 9.546875 16.761719 9.890625 16.785156 9.820312 C 16.808594 9.746094 16.765625 9.402344 16.6875 9.050781 L 16.546875 8.417969 L 15.949219 8.289062 C 14.859375 8.054688 14.851562 8.101562 15.824219 9.054688 M 7.621094 8.566406 C 7.15625 8.71875 6.519531 8.964844 6.203125 9.117188 C 5.5 9.453125 5.503906 9.5 6.324219 11.144531 L 6.882812 12.269531 L 7.132812 11.925781 C 7.269531 11.734375 7.554688 11.382812 7.769531 11.144531 C 8.097656 10.78125 8.1875 10.539062 8.34375 9.644531 C 8.441406 9.058594 8.550781 8.511719 8.578125 8.429688 C 8.648438 8.234375 8.613281 8.242188 7.621094 8.566406 M 17.011719 9.449219 C 17.15625 10.226562 17.273438 10.5 17.726562 11.101562 C 18.023438 11.496094 18.296875 11.886719 18.328125 11.96875 C 18.433594 12.246094 18.554688 12.125 19.050781 11.25 C 19.832031 9.878906 19.828125 9.832031 18.972656 9.375 C 18.417969 9.082031 17.035156 8.519531 16.859375 8.519531 C 16.847656 8.519531 16.917969 8.9375 17.011719 9.449219 M 4.78125 10.007812 C 3.714844 10.820312 3.335938 12.097656 3.847656 13.160156 C 4.109375 13.699219 5.1875 14.761719 5.472656 14.761719 C 5.644531 14.761719 5.671875 14.660156 5.6875 13.859375 C 5.699219 13.460938 5.746094 13.375 5.964844 13.34375 C 6.113281 13.320312 6.34375 13.121094 6.484375 12.894531 L 6.734375 12.488281 L 6.128906 11.273438 C 5.792969 10.605469 5.519531 9.984375 5.519531 9.894531 C 5.519531 9.578125 5.300781 9.609375 4.78125 10.007812 M 19.617188 10.683594 C 19.425781 11.082031 19.125 11.632812 18.945312 11.902344 C 18.632812 12.375 18.628906 12.410156 18.8125 12.707031 C 18.917969 12.878906 19.140625 13.132812 19.300781 13.269531 C 19.515625 13.453125 19.578125 13.59375 19.527344 13.792969 C 19.46875 14.011719 19.585938 14.492188 19.757812 14.746094 C 19.777344 14.769531 20.003906 14.621094 20.265625 14.410156 C 21.414062 13.5 21.722656 11.582031 20.8125 10.984375 C 20.652344 10.878906 20.519531 10.722656 20.519531 10.636719 C 20.519531 10.550781 20.394531 10.363281 20.242188 10.222656 L 19.964844 9.960938 L 19.617188 10.683594 M 12 10.898438 C 10.808594 11.550781 10.855469 13.21875 12.085938 13.8125 C 13.492188 14.492188 14.972656 12.882812 14.164062 11.554688 C 13.6875 10.769531 12.75 10.484375 12 10.898438 M 17.261719 12.269531 L 17.300781 13.621094 L 17.769531 13.078125 C 18.027344 12.78125 18.238281 12.46875 18.238281 12.378906 C 18.238281 12.214844 17.390625 10.925781 17.28125 10.921875 C 17.246094 10.921875 17.238281 11.527344 17.261719 12.269531 M 7.667969 11.640625 C 7.011719 12.460938 7.011719 12.429688 7.578125 13.167969 L 8.101562 13.84375 L 8.136719 13.160156 C 8.15625 12.785156 8.15625 12.171875 8.136719 11.792969 L 8.101562 11.105469 L 7.667969 11.640625 M 18.363281 12.660156 C 18.359375 12.730469 18.109375 13.070312 17.800781 13.425781 C 17.3125 13.980469 17.21875 14.175781 17.085938 14.921875 C 16.867188 16.15625 16.835938 16.097656 17.550781 15.847656 C 18.058594 15.675781 19.386719 15.066406 19.53125 14.945312 C 19.648438 14.84375 19.164062 14.058594 18.949219 14.003906 C 18.726562 13.945312 18.695312 13.871094 18.75 13.53125 C 18.796875 13.246094 18.75 13.042969 18.589844 12.832031 C 18.46875 12.671875 18.363281 12.59375 18.363281 12.660156 M 6.652344 13.050781 C 6.53125 13.230469 6.441406 13.5 6.453125 13.644531 C 6.46875 13.789062 6.371094 13.980469 6.242188 14.070312 C 6.054688 14.203125 5.761719 14.734375 5.761719 14.945312 C 5.761719 15.070312 8.160156 16.078125 8.460938 16.078125 C 8.46875 16.078125 8.414062 15.6875 8.339844 15.203125 C 8.21875 14.425781 8.132812 14.242188 7.570312 13.523438 C 7.222656 13.082031 6.921875 12.71875 6.902344 12.71875 C 6.882812 12.71875 6.769531 12.867188 6.652344 13.050781 M 16.484375 14.78125 C 16.277344 15 16.070312 15.304688 16.023438 15.453125 C 15.972656 15.625 15.816406 15.753906 15.621094 15.792969 C 15.445312 15.832031 15.136719 15.988281 14.941406 16.148438 C 14.511719 16.492188 14.621094 16.511719 15.839844 16.285156 L 16.621094 16.140625 L 16.769531 15.417969 C 16.972656 14.421875 16.925781 14.316406 16.484375 14.78125 M 8.574219 15.25 C 8.71875 16.167969 8.707031 16.15625 9.566406 16.296875 C 10.007812 16.371094 10.375 16.417969 10.382812 16.40625 C 10.390625 16.390625 9.96875 16.007812 9.445312 15.550781 L 8.492188 14.722656 L 8.574219 15.25 M 5.578125 15.484375 C 5.429688 15.953125 5.503906 17.152344 5.710938 17.585938 C 6.132812 18.476562 7.207031 18.929688 8.554688 18.789062 L 9.308594 18.707031 L 8.535156 16.378906 L 7.535156 16.011719 C 6.988281 15.8125 6.367188 15.554688 6.15625 15.441406 C 5.675781 15.1875 5.671875 15.1875 5.578125 15.484375 M 18.78125 15.613281 C 18.382812 15.804688 17.789062 16.046875 17.460938 16.144531 L 16.859375 16.324219 L 16.488281 17.429688 C 16.285156 18.042969 16.078125 18.628906 16.03125 18.734375 C 15.84375 19.164062 17.625 19.148438 18.496094 18.710938 C 19.117188 18.394531 19.519531 17.863281 19.675781 17.132812 C 19.804688 16.527344 19.738281 15.230469 19.578125 15.25 C 19.535156 15.253906 19.175781 15.417969 18.78125 15.613281 M 8.878906 16.613281 C 8.878906 16.765625 9.457031 18.484375 9.542969 18.578125 C 9.609375 18.65625 10.644531 18.324219 11.394531 17.984375 L 12.167969 17.632812 L 11.515625 17.195312 C 11.042969 16.878906 10.625 16.710938 10.019531 16.601562 C 8.929688 16.40625 8.878906 16.40625 8.878906 16.613281 M 15.113281 16.632812 C 14.375 16.746094 13.902344 16.902344 13.410156 17.1875 C 13.035156 17.402344 12.726562 17.613281 12.722656 17.652344 C 12.71875 17.742188 14.386719 18.507812 15.035156 18.714844 C 15.285156 18.796875 15.5625 18.835938 15.648438 18.800781 C 15.785156 18.75 16.261719 17.582031 16.5 16.710938 C 16.589844 16.394531 16.617188 16.398438 15.113281 16.632812 M 11.875 17.15625 L 12.410156 17.511719 L 12.957031 17.199219 C 13.253906 17.027344 13.523438 16.867188 13.550781 16.84375 C 13.578125 16.820312 13.089844 16.800781 12.46875 16.800781 L 11.339844 16.800781 L 11.875 17.15625 M 12.109375 17.953125 C 11.949219 18.039062 11.347656 18.28125 10.769531 18.492188 C 10.191406 18.703125 9.71875 18.898438 9.71875 18.925781 C 9.71875 18.957031 9.914062 19.269531 10.148438 19.625 C 10.429688 20.050781 10.632812 20.246094 10.75 20.199219 C 10.980469 20.109375 11.28125 20.371094 11.28125 20.660156 C 11.28125 20.941406 12.113281 21.351562 12.683594 21.355469 C 13.527344 21.363281 14.410156 20.800781 15.101562 19.8125 L 15.585938 19.121094 L 14.902344 18.90625 C 14.527344 18.792969 13.808594 18.492188 13.308594 18.246094 C 12.488281 17.835938 12.367188 17.808594 12.109375 17.953125 "/>
</g>
</svg>
