<?xml version="1.0" encoding="UTF-8"?>
<svg xmlns="http://www.w3.org/2000/svg" xmlns:xlink="http://www.w3.org/1999/xlink" width="100px" height="100px" viewBox="0 0 100 100" version="1.1">
<g id="surface1">
<path style=" stroke:none;fill-rule:evenodd;fill:rgb(0%,0%,0%);fill-opacity:1;" d="M 46.039062 10.792969 C 42.777344 11.976562 40.46875 13.582031 37.871094 16.472656 C 35.714844 18.867188 33.5 23.390625 33.5 25.394531 C 33.5 26.132812 32.929688 26.25 29.375 26.261719 C 25.8125 26.273438 24.796875 26.488281 21.925781 27.839844 C 17.707031 29.820312 14.824219 32.699219 12.832031 36.925781 C 11.453125 39.84375 11.261719 40.769531 11.265625 44.5 C 11.269531 48.085938 11.488281 49.21875 12.660156 51.75 C 14.152344 54.96875 17.167969 58.40625 20 60.117188 C 20.960938 60.699219 21.808594 61.210938 21.882812 61.257812 C 21.953125 61.308594 21.511719 62.449219 20.898438 63.796875 C 20.03125 65.707031 19.78125 67.191406 19.773438 70.5 C 19.761719 74.238281 19.949219 75.148438 21.332031 78.074219 C 23.324219 82.296875 26.203125 85.175781 30.425781 87.167969 C 33.34375 88.546875 34.269531 88.738281 38 88.734375 C 41.589844 88.730469 42.714844 88.511719 45.25 87.335938 C 46.898438 86.570312 48.953125 85.265625 49.8125 84.433594 L 51.378906 82.921875 L 54.0625 84.960938 C 57.71875 87.734375 60.847656 88.742188 65.773438 88.738281 C 69.304688 88.738281 70.203125 88.535156 73.109375 87.105469 C 77.308594 85.039062 81.015625 81.101562 82.503906 77.125 C 83.960938 73.226562 83.96875 67.726562 82.519531 64.054688 C 81.941406 62.578125 81.527344 61.324219 81.605469 61.265625 C 81.683594 61.210938 82.792969 60.457031 84.066406 59.597656 C 86.890625 57.6875 88.640625 55.667969 90.371094 52.304688 C 92.257812 48.632812 92.554688 41.972656 91.011719 37.875 C 89.515625 33.90625 85.800781 29.957031 81.628906 27.902344 C 78.734375 26.476562 77.835938 26.28125 74.199219 26.265625 L 70.058594 26.25 L 69.492188 24 C 68.128906 18.597656 64.25 13.976562 59.085938 11.609375 C 55.472656 9.953125 49.394531 9.574219 46.039062 10.792969 M 46.851562 14.222656 C 40.964844 16.320312 38.074219 20.222656 36.644531 28 C 36.253906 30.121094 36.144531 30.242188 34.742188 30.101562 C 29.46875 29.570312 25.660156 29.8125 23.472656 30.8125 C 20.15625 32.332031 17.726562 34.683594 16.144531 37.910156 C 14.988281 40.261719 14.753906 41.394531 14.761719 44.5 C 14.777344 50.808594 17.722656 55.332031 23.640625 58.132812 C 25.210938 58.878906 26.5 59.683594 26.5 59.921875 C 26.5 60.164062 25.769531 61.777344 24.875 63.511719 C 23.457031 66.261719 23.25 67.144531 23.261719 70.457031 C 23.277344 76.679688 26.039062 81.21875 31.410156 83.855469 C 33.761719 85.011719 34.894531 85.246094 38 85.238281 C 42.644531 85.226562 45.550781 84.015625 48.691406 80.785156 C 49.910156 79.527344 51.269531 78.5 51.707031 78.5 C 52.144531 78.5 53.308594 79.394531 54.296875 80.484375 C 57.121094 83.613281 60.96875 85.25 65.5 85.25 C 68.394531 85.25 69.777344 84.988281 71.5625 84.109375 C 79.347656 80.273438 82.347656 71.492188 78.527344 63.730469 C 77.640625 61.925781 77.035156 60.132812 77.179688 59.75 C 77.328125 59.363281 78.550781 58.574219 79.898438 57.996094 C 87.269531 54.824219 90.746094 45.746094 87.394531 38.421875 C 84.382812 31.847656 77.582031 28.433594 70.519531 29.949219 C 67.289062 30.640625 66.5 30.167969 66.5 27.527344 C 66.5 22.367188 61.855469 16.0625 56.785156 14.339844 C 53.84375 13.335938 49.472656 13.285156 46.851562 14.222656 M 46.75 41.1875 C 43.769531 42.59375 42.414062 43.976562 41.042969 47 C 38.054688 53.589844 41.914062 61.300781 49.058594 63.015625 C 57.324219 64.996094 64.996094 57.324219 63.015625 49.058594 C 61.261719 41.757812 53.507812 38.003906 46.75 41.1875 M 48.226562 44.175781 C 42.003906 46.996094 41.988281 56.226562 48.199219 59.046875 C 50.933594 60.289062 52.898438 60.234375 55.519531 58.847656 C 57.980469 57.546875 60.007812 54.347656 59.988281 51.796875 C 59.972656 49.488281 58.332031 46.304688 56.480469 44.984375 C 54.488281 43.566406 50.441406 43.167969 48.226562 44.175781 "/>
</g>
</svg>
