<?xml version="1.0" encoding="UTF-8"?>
<svg xmlns="http://www.w3.org/2000/svg" xmlns:xlink="http://www.w3.org/1999/xlink" width="24px" height="24px" viewBox="0 0 24 24" version="1.1">
<g id="surface1">
<path style=" stroke:none;fill-rule:evenodd;fill:rgb(0%,0%,0%);fill-opacity:1;" d="M 11.050781 2.589844 C 10.265625 2.875 9.710938 3.261719 9.089844 3.953125 C 8.570312 4.527344 8.039062 5.613281 8.039062 6.09375 C 8.039062 6.273438 7.902344 6.300781 7.050781 6.304688 C 6.195312 6.304688 5.953125 6.355469 5.261719 6.679688 C 4.25 7.15625 3.558594 7.847656 3.078125 8.863281 C 2.75 9.5625 2.703125 9.785156 2.703125 10.679688 C 2.703125 11.539062 2.757812 11.8125 3.039062 12.421875 C 3.394531 13.191406 4.121094 14.019531 4.800781 14.429688 C 5.03125 14.566406 5.234375 14.691406 5.25 14.703125 C 5.269531 14.714844 5.164062 14.988281 5.015625 15.3125 C 4.808594 15.769531 4.746094 16.125 4.746094 16.921875 C 4.742188 17.816406 4.789062 18.035156 5.121094 18.738281 C 5.597656 19.75 6.289062 20.441406 7.300781 20.921875 C 8.003906 21.25 8.222656 21.296875 9.121094 21.296875 C 9.980469 21.296875 10.253906 21.242188 10.859375 20.960938 C 11.257812 20.777344 11.75 20.464844 11.957031 20.265625 L 12.332031 19.902344 L 12.976562 20.390625 C 13.851562 21.054688 14.605469 21.296875 15.785156 21.296875 C 16.632812 21.296875 16.847656 21.25 17.546875 20.90625 C 18.554688 20.410156 19.445312 19.464844 19.800781 18.507812 C 20.152344 17.574219 20.152344 16.253906 19.804688 15.371094 C 19.664062 15.019531 19.566406 14.71875 19.585938 14.703125 C 19.605469 14.691406 19.871094 14.511719 20.175781 14.304688 C 20.855469 13.84375 21.273438 13.359375 21.6875 12.554688 C 22.140625 11.671875 22.214844 10.074219 21.84375 9.089844 C 21.484375 8.136719 20.59375 7.191406 19.589844 6.695312 C 18.894531 6.355469 18.679688 6.308594 17.808594 6.304688 L 16.8125 6.300781 L 16.679688 5.761719 C 16.351562 4.464844 15.417969 3.355469 14.179688 2.785156 C 13.3125 2.390625 11.855469 2.296875 11.050781 2.589844 M 11.246094 3.414062 C 9.832031 3.917969 9.136719 4.855469 8.792969 6.71875 C 8.703125 7.230469 8.675781 7.257812 8.335938 7.222656 C 7.074219 7.097656 6.160156 7.15625 5.632812 7.394531 C 4.835938 7.761719 4.253906 8.324219 3.875 9.097656 C 3.597656 9.664062 3.539062 9.933594 3.542969 10.679688 C 3.546875 12.195312 4.253906 13.28125 5.671875 13.953125 C 6.050781 14.128906 6.359375 14.324219 6.359375 14.382812 C 6.359375 14.4375 6.183594 14.828125 5.96875 15.242188 C 5.628906 15.902344 5.582031 16.113281 5.582031 16.910156 C 5.585938 18.402344 6.25 19.492188 7.539062 20.125 C 8.101562 20.402344 8.375 20.460938 9.121094 20.457031 C 10.234375 20.453125 10.933594 20.164062 11.6875 19.386719 C 11.980469 19.085938 12.304688 18.839844 12.410156 18.839844 C 12.515625 18.839844 12.792969 19.054688 13.03125 19.316406 C 13.710938 20.066406 14.632812 20.460938 15.71875 20.460938 C 16.414062 20.460938 16.746094 20.398438 17.175781 20.1875 C 19.042969 19.265625 19.765625 17.160156 18.847656 15.296875 C 18.632812 14.863281 18.488281 14.433594 18.523438 14.339844 C 18.558594 14.246094 18.851562 14.058594 19.175781 13.917969 C 20.945312 13.15625 21.777344 10.980469 20.972656 9.222656 C 20.253906 7.644531 18.621094 6.824219 16.925781 7.1875 C 16.148438 7.355469 15.960938 7.238281 15.960938 6.605469 C 15.960938 5.367188 14.84375 3.855469 13.628906 3.441406 C 12.921875 3.199219 11.875 3.1875 11.246094 3.414062 M 11.21875 9.886719 C 10.503906 10.222656 10.179688 10.554688 9.851562 11.28125 C 9.132812 12.863281 10.058594 14.710938 11.773438 15.125 C 13.757812 15.597656 15.597656 13.757812 15.125 11.773438 C 14.703125 10.019531 12.839844 9.121094 11.21875 9.886719 M 11.574219 10.601562 C 10.082031 11.28125 10.078125 13.496094 11.566406 14.171875 C 12.222656 14.46875 12.695312 14.457031 13.324219 14.125 C 13.914062 13.8125 14.402344 13.042969 14.398438 12.429688 C 14.394531 11.878906 14 11.113281 13.554688 10.796875 C 13.078125 10.457031 12.105469 10.359375 11.574219 10.601562 "/>
</g>
</svg>
