<?xml version="1.0" encoding="UTF-8"?>
<svg xmlns="http://www.w3.org/2000/svg" xmlns:xlink="http://www.w3.org/1999/xlink" width="100px" height="100px" viewBox="0 0 100 100" version="1.1">
<g id="surface1">
<path style=" stroke:none;fill-rule:evenodd;fill:rgb(0%,0%,0%);fill-opacity:1;" d="M 48.039062 24.894531 C 47 25.617188 45.652344 25.714844 38.539062 25.589844 C 29.367188 25.429688 26.054688 25.878906 22.074219 27.816406 C 14.375 31.570312 8.535156 42.492188 9.984375 50.421875 C 11.0625 56.324219 15.359375 62.648438 20.695312 66.191406 C 24.027344 68.402344 35.71875 73.0625 42.058594 74.703125 C 53.015625 77.539062 55.539062 77.089844 70.460938 69.648438 C 79.667969 65.058594 81.613281 63.886719 84.03125 61.46875 C 92.664062 52.835938 92.207031 42.074219 82.804688 32.707031 C 80.386719 30.300781 78.136719 28.621094 75.761719 27.457031 L 72.277344 25.75 L 62.660156 25.5 C 55.925781 25.324219 52.859375 25.0625 52.421875 24.625 C 51.5625 23.761719 49.488281 23.886719 48.039062 24.894531 "/>
</g>
</svg>
