<?xml version="1.0" encoding="UTF-8"?>
<svg xmlns="http://www.w3.org/2000/svg" xmlns:xlink="http://www.w3.org/1999/xlink" width="24px" height="24px" viewBox="0 0 24 24" version="1.1">
<g id="surface1">
<path style=" stroke:none;fill-rule:evenodd;fill:rgb(0%,0%,0%);fill-opacity:1;" d="M 11.527344 5.976562 C 11.28125 6.148438 10.957031 6.171875 9.25 6.140625 C 7.046875 6.101562 6.253906 6.210938 5.296875 6.675781 C 3.449219 7.578125 2.046875 10.199219 2.394531 12.101562 C 2.65625 13.519531 3.6875 15.035156 4.96875 15.886719 C 5.765625 16.417969 8.574219 17.535156 10.09375 17.929688 C 12.722656 18.609375 13.328125 18.5 16.910156 16.714844 C 19.121094 15.613281 19.585938 15.332031 20.167969 14.753906 C 22.238281 12.679688 22.128906 10.097656 19.875 7.851562 C 19.292969 7.273438 18.753906 6.867188 18.183594 6.589844 L 17.347656 6.179688 L 15.039062 6.121094 C 13.421875 6.078125 12.6875 6.015625 12.582031 5.910156 C 12.375 5.703125 11.875 5.734375 11.527344 5.976562 "/>
</g>
</svg>
