<?xml version="1.0" encoding="UTF-8"?>
<svg xmlns="http://www.w3.org/2000/svg" xmlns:xlink="http://www.w3.org/1999/xlink" width="24px" height="24px" viewBox="0 0 24 24" version="1.1">
<g id="surface1">
<path style=" stroke:none;fill-rule:evenodd;fill:rgb(0%,0%,0%);fill-opacity:1;" d="M 9.71875 0.832031 C 7.460938 1.3125 5.574219 2.335938 3.953125 3.953125 C -1.320312 9.226562 -0.191406 18.0625 6.238281 21.84375 C 11.617188 25.003906 18.695312 23.148438 21.832031 17.761719 C 25.316406 11.777344 22.714844 4.066406 16.335938 1.464844 C 14.265625 0.621094 11.820312 0.386719 9.71875 0.832031 M 7.199219 7.390625 C 6.652344 7.628906 6.15625 8.105469 5.863281 8.679688 C 5.570312 9.25 5.609375 9.570312 6.015625 9.871094 C 6.441406 10.1875 6.753906 10.066406 7.199219 9.421875 C 7.773438 8.589844 8.246094 8.589844 8.761719 9.421875 C 9.117188 9.996094 9.410156 10.140625 9.851562 9.953125 C 10.503906 9.683594 10.46875 9 9.761719 8.171875 C 9.011719 7.292969 8.078125 7.011719 7.199219 7.390625 M 15.171875 7.425781 C 14.644531 7.667969 13.832031 8.527344 13.722656 8.964844 C 13.46875 9.976562 14.683594 10.4375 15.160156 9.515625 C 15.640625 8.589844 16.207031 8.558594 16.800781 9.421875 C 17.117188 9.882812 17.230469 9.960938 17.582031 9.960938 C 18.078125 9.960938 18.429688 9.53125 18.3125 9.070312 C 18.1875 8.566406 17.476562 7.75 16.921875 7.46875 C 16.277344 7.144531 15.820312 7.132812 15.171875 7.425781 M 6.199219 14.019531 C 5.824219 14.433594 5.949219 14.808594 6.699219 15.5 C 8.050781 16.753906 10.035156 17.519531 11.929688 17.519531 L 12.898438 17.523438 L 13.238281 18.359375 C 13.660156 19.398438 14.046875 19.710938 14.992188 19.769531 C 16.542969 19.871094 17.320312 18.546875 16.675781 16.910156 L 16.433594 16.292969 L 17.214844 15.578125 C 18.023438 14.835938 18.148438 14.542969 17.875 14.03125 C 17.789062 13.871094 17.625 13.800781 17.335938 13.800781 C 17.007812 13.800781 16.785156 13.921875 16.261719 14.398438 C 15.082031 15.46875 13.765625 15.964844 12.109375 15.96875 C 11.542969 15.972656 10.8125 15.910156 10.488281 15.832031 C 9.570312 15.609375 8.421875 15.003906 7.734375 14.375 C 7.042969 13.742188 6.550781 13.628906 6.199219 14.019531 "/>
</g>
</svg>
