<?xml version="1.0" encoding="UTF-8"?>
<svg xmlns="http://www.w3.org/2000/svg" xmlns:xlink="http://www.w3.org/1999/xlink" width="100px" height="100px" viewBox="0 0 100 100" version="1.1">
<g id="surface1">
<path style=" stroke:none;fill-rule:evenodd;fill:rgb(0%,0%,0%);fill-opacity:1;" d="M 40.5 3.472656 C 31.082031 5.476562 23.230469 9.726562 16.480469 16.480469 C -5.492188 38.453125 -0.792969 75.257812 26 91.007812 C 48.402344 104.179688 77.890625 96.460938 90.96875 74 C 105.484375 49.078125 94.640625 16.941406 68.066406 6.105469 C 59.433594 2.585938 49.253906 1.613281 40.5 3.472656 M 30 30.796875 C 27.722656 31.785156 25.652344 33.777344 24.425781 36.164062 C 23.203125 38.542969 23.371094 39.867188 25.066406 41.128906 C 26.835938 42.445312 28.144531 41.945312 30 39.25 C 32.382812 35.785156 34.359375 35.785156 36.5 39.25 C 37.984375 41.648438 39.199219 42.246094 41.050781 41.476562 C 43.769531 40.351562 43.625 37.492188 40.671875 34.042969 C 37.546875 30.390625 33.664062 29.210938 30 30.796875 M 63.222656 30.941406 C 61.019531 31.945312 57.636719 35.535156 57.175781 37.363281 C 56.121094 41.566406 61.183594 43.492188 63.175781 39.644531 C 65.164062 35.796875 67.53125 35.664062 70.003906 39.253906 C 71.328125 41.179688 71.792969 41.5 73.261719 41.5 C 75.328125 41.5 76.789062 39.71875 76.304688 37.792969 C 75.777344 35.695312 72.824219 32.296875 70.511719 31.125 C 67.828125 29.765625 65.917969 29.71875 63.222656 30.941406 M 25.828125 58.414062 C 24.265625 60.140625 24.789062 61.695312 27.910156 64.585938 C 33.542969 69.800781 41.808594 72.992188 49.703125 73.007812 L 53.75 73.011719 L 55.160156 76.496094 C 56.914062 80.824219 58.527344 82.125 62.46875 82.378906 C 68.925781 82.789062 72.171875 77.28125 69.484375 70.464844 L 68.472656 67.894531 L 71.734375 64.902344 C 75.09375 61.824219 75.621094 60.59375 74.484375 58.46875 C 74.125 57.796875 73.433594 57.5 72.238281 57.5 C 70.867188 57.5 69.941406 58.015625 67.765625 59.988281 C 62.839844 64.445312 57.351562 66.523438 50.453125 66.542969 C 48.09375 66.550781 45.054688 66.289062 43.703125 65.964844 C 39.875 65.042969 35.097656 62.515625 32.230469 59.894531 C 29.347656 57.261719 27.300781 56.789062 25.828125 58.414062 "/>
</g>
</svg>
