<?xml version="1.0" encoding="UTF-8"?>
<svg xmlns="http://www.w3.org/2000/svg" xmlns:xlink="http://www.w3.org/1999/xlink" width="100px" height="100px" viewBox="0 0 100 100" version="1.1">
<g id="surface1">
<path style=" stroke:none;fill-rule:nonzero;fill:rgb(0.392157%,0.392157%,0.392157%);fill-opacity:1;" d="M 9.175781 42.691406 C 8.753906 42.082031 7.359375 39.570312 7.359375 35.273438 C 7.359375 26.914062 12.480469 21.242188 17.6875 21.242188 C 20.148438 21.242188 21.371094 21.707031 21.875 21.828125 C 23.050781 20.261719 37.246094 0.207031 60.5625 0.207031 C 79.960938 0.207031 100 9.003906 100 39.675781 C 100 56.207031 90.625 67.375 84.164062 70.054688 C 81.367188 71.210938 80.964844 73.378906 80.960938 75.109375 C 80.960938 76.871094 81.171875 80.839844 81.550781 83.898438 C 81.734375 85.410156 83.871094 86.3125 85.242188 88.449219 C 86.617188 90.585938 87.363281 92 87.601562 94.1875 C 87.789062 95.871094 87.601562 96.324219 86.5 94.734375 C 85.390625 93.128906 83.113281 89.171875 78.011719 89.171875 C 77.597656 89.171875 76.550781 88.828125 75.175781 90.335938 C 73.804688 91.84375 71.859375 94.351562 71.171875 94.609375 C 70.234375 94.960938 68.195312 96.996094 67.398438 98.378906 C 66.597656 99.761719 66.140625 100.546875 66.140625 98.757812 C 66.140625 96.992188 66.207031 95.644531 68.085938 92.976562 C 69.976562 90.289062 71.167969 88.726562 71.515625 88.324219 C 68.546875 89.320312 66.265625 89.203125 62.59375 91.59375 C 61.3125 92.425781 61.027344 92.167969 62.097656 90.566406 C 63.292969 88.773438 64.480469 87.636719 67.398438 86.3125 C 70.148438 85.066406 73.878906 84.5625 74.75 84.414062 C 75.554688 84.277344 76.421875 83.144531 76.625 80.988281 C 76.777344 79.363281 77.144531 74.242188 76.433594 72.359375 C 75.988281 71.175781 72.980469 70.613281 70.257812 64.1875 C 69.082031 64.984375 66.425781 66.179688 64.144531 66.832031 C 63.085938 67.128906 62.832031 71.042969 62.707031 73.867188 C 62.582031 76.757812 63.050781 80.90625 63.164062 82.039062 C 63.28125 83.167969 63.5 83.804688 62.300781 84.441406 C 59.058594 86.160156 59.226562 87.25 57.277344 89.414062 C 55.640625 91.234375 55.0625 92.648438 54.796875 93.355469 C 54.367188 94.496094 54.132812 93.839844 54.144531 92.804688 C 54.160156 91.066406 54.402344 88.820312 55.289062 87.046875 C 53.199219 88.042969 50.71875 89.214844 49.003906 89.71875 C 47.285156 90.222656 45.332031 89.898438 43.199219 90.734375 C 41.425781 91.433594 41.355469 91.617188 40.441406 91.996094 C 39.527344 92.371094 39.953125 91.527344 41.0625 90.359375 C 42.054688 89.308594 45.640625 87.328125 47.582031 86.699219 C 49.527344 86.070312 51.890625 84.59375 52.320312 84.316406 C 51.6875 83.507812 49.761719 83.0625 48.039062 83.0625 C 47.027344 83.0625 45.917969 83.179688 44.886719 83.304688 C 44.011719 83.410156 43.886719 83.074219 45.328125 82.023438 C 46.890625 80.894531 50.144531 80.917969 51.746094 80.917969 C 53.347656 80.917969 54.976562 81.027344 56.144531 81.027344 C 57.035156 81.027344 57.921875 80.117188 58.253906 77.730469 C 58.523438 75.777344 58.875 70.476562 58.882812 67.828125 C 56.917969 66.402344 51.136719 63.824219 51.136719 52.1875 C 48.53125 46.589844 45.199219 45.574219 41.738281 45.574219 C 36.625 45.574219 34.484375 50.292969 23.210938 46.222656 C 21.054688 45.445312 18.917969 45.863281 16.03125 48.566406 C 11.425781 52.871094 5.667969 63.21875 3.382812 72.3125 C 2.023438 77.71875 1.308594 83.101562 0.679688 83.101562 C -0.234375 83.101562 -0.0546875 78.558594 0.242188 76.21875 C 1.839844 63.695312 5.761719 50.792969 9.175781 42.691406 Z M 9.175781 42.691406 "/>
</g>
</svg>
