<?xml version="1.0" encoding="UTF-8"?>
<svg xmlns="http://www.w3.org/2000/svg" xmlns:xlink="http://www.w3.org/1999/xlink" width="24px" height="24px" viewBox="0 0 24 24" version="1.1">
<g id="surface1">
<path style=" stroke:none;fill-rule:nonzero;fill:rgb(0.392157%,0.392157%,0.392157%);fill-opacity:1;" d="M 2.203125 10.246094 C 2.101562 10.101562 1.765625 9.496094 1.765625 8.464844 C 1.765625 6.460938 2.996094 5.097656 4.246094 5.097656 C 4.835938 5.097656 5.128906 5.210938 5.25 5.238281 C 5.53125 4.863281 8.9375 0.0507812 14.535156 0.0507812 C 19.191406 0.0507812 24 2.160156 24 9.523438 C 24 13.488281 21.75 16.171875 20.199219 16.8125 C 19.527344 17.089844 19.429688 17.609375 19.429688 18.027344 C 19.429688 18.449219 19.480469 19.402344 19.570312 20.136719 C 19.617188 20.5 20.128906 20.714844 20.457031 21.226562 C 20.789062 21.742188 20.96875 22.078125 21.023438 22.605469 C 21.070312 23.007812 21.023438 23.117188 20.761719 22.734375 C 20.492188 22.351562 19.949219 21.402344 18.722656 21.402344 C 18.621094 21.402344 18.371094 21.320312 18.042969 21.679688 C 17.710938 22.042969 17.246094 22.644531 17.082031 22.707031 C 16.855469 22.789062 16.367188 23.28125 16.175781 23.609375 C 15.984375 23.941406 15.875 24.132812 15.875 23.703125 C 15.875 23.277344 15.890625 22.953125 16.339844 22.3125 C 16.792969 21.667969 17.082031 21.292969 17.164062 21.199219 C 16.449219 21.4375 15.902344 21.410156 15.023438 21.980469 C 14.714844 22.183594 14.648438 22.121094 14.902344 21.734375 C 15.191406 21.304688 15.476562 21.03125 16.175781 20.714844 C 16.835938 20.417969 17.730469 20.296875 17.941406 20.257812 C 18.132812 20.226562 18.339844 19.953125 18.390625 19.4375 C 18.425781 19.046875 18.515625 17.816406 18.34375 17.367188 C 18.238281 17.082031 17.515625 16.949219 16.863281 15.40625 C 16.578125 15.597656 15.941406 15.882812 15.394531 16.039062 C 15.140625 16.109375 15.078125 17.050781 15.050781 17.726562 C 15.019531 18.421875 15.132812 19.417969 15.160156 19.6875 C 15.1875 19.960938 15.238281 20.113281 14.953125 20.265625 C 14.171875 20.679688 14.214844 20.941406 13.746094 21.460938 C 13.351562 21.898438 13.214844 22.234375 13.152344 22.40625 C 13.046875 22.679688 12.992188 22.523438 12.996094 22.273438 C 13 21.855469 13.058594 21.316406 13.269531 20.890625 C 12.769531 21.128906 12.171875 21.410156 11.761719 21.53125 C 11.347656 21.652344 10.878906 21.574219 10.367188 21.777344 C 9.941406 21.945312 9.925781 21.988281 9.707031 22.078125 C 9.484375 22.167969 9.589844 21.96875 9.855469 21.6875 C 10.09375 21.433594 10.953125 20.957031 11.417969 20.808594 C 11.886719 20.65625 12.453125 20.300781 12.554688 20.234375 C 12.40625 20.042969 11.941406 19.933594 11.53125 19.933594 C 11.285156 19.933594 11.019531 19.960938 10.773438 19.992188 C 10.5625 20.019531 10.53125 19.9375 10.878906 19.6875 C 11.253906 19.414062 12.035156 19.421875 12.417969 19.421875 C 12.804688 19.421875 13.195312 19.445312 13.476562 19.445312 C 13.6875 19.445312 13.902344 19.226562 13.980469 18.65625 C 14.046875 18.1875 14.128906 16.914062 14.132812 16.277344 C 13.660156 15.9375 12.273438 15.316406 12.273438 12.523438 C 11.648438 11.183594 10.847656 10.9375 10.015625 10.9375 C 8.789062 10.9375 8.277344 12.070312 5.570312 11.09375 C 5.054688 10.90625 4.539062 11.007812 3.847656 11.65625 C 2.742188 12.6875 1.359375 15.171875 0.8125 17.355469 C 0.484375 18.652344 0.3125 19.945312 0.164062 19.945312 C -0.0546875 19.945312 -0.0117188 18.855469 0.0585938 18.292969 C 0.441406 15.285156 1.382812 12.191406 2.203125 10.246094 Z M 2.203125 10.246094 "/>
</g>
</svg>
