<?xml version="1.0" encoding="UTF-8"?>
<svg xmlns="http://www.w3.org/2000/svg" xmlns:xlink="http://www.w3.org/1999/xlink" width="24px" height="24px" viewBox="0 0 24 24" version="1.1">
<g id="surface1">
<path style=" stroke:none;fill-rule:evenodd;fill:rgb(0%,0%,0%);fill-opacity:1;" d="M 11.410156 3.917969 C 11.316406 3.960938 10.816406 4.28125 10.296875 4.636719 L 9.351562 5.28125 L 8.269531 5.28125 C 6.515625 5.28125 6.191406 5.519531 5.570312 7.296875 C 5.230469 8.269531 5.199219 8.3125 4.34375 8.957031 C 3.417969 9.652344 3 10.1875 3 10.675781 C 3 10.835938 3.144531 11.46875 3.320312 12.082031 L 3.644531 13.195312 L 3.296875 14.40625 C 2.832031 16.054688 2.917969 16.316406 4.273438 17.359375 C 5.238281 18.105469 5.246094 18.113281 5.621094 19.167969 C 5.832031 19.75 6.082031 20.339844 6.175781 20.480469 C 6.5 20.9375 7.09375 21.121094 8.28125 21.121094 L 9.382812 21.121094 L 10.476562 21.851562 C 11.496094 22.535156 11.613281 22.582031 12.125 22.53125 C 12.542969 22.492188 12.90625 22.320312 13.671875 21.800781 L 14.671875 21.121094 L 15.738281 21.121094 C 17.492188 21.121094 17.832031 20.875 18.421875 19.175781 L 18.804688 18.074219 L 19.753906 17.34375 C 21.078125 16.316406 21.167969 16.046875 20.703125 14.410156 L 20.359375 13.199219 L 20.703125 11.992188 C 21.167969 10.347656 21.082031 10.082031 19.726562 9.039062 C 18.761719 8.296875 18.753906 8.285156 18.378906 7.230469 C 18.167969 6.648438 17.917969 6.058594 17.824219 5.921875 C 17.5 5.460938 16.90625 5.28125 15.71875 5.28125 L 14.613281 5.28125 L 13.640625 4.601562 C 12.863281 4.054688 12.5625 3.914062 12.125 3.882812 C 11.824219 3.863281 11.503906 3.878906 11.410156 3.917969 M 10.746094 5.285156 C 9.75 6 9.367188 6.117188 8.070312 6.121094 C 6.871094 6.121094 6.746094 6.210938 6.359375 7.394531 C 5.945312 8.652344 5.824219 8.824219 4.84375 9.5625 C 4.34375 9.9375 3.886719 10.375 3.828125 10.53125 C 3.75 10.734375 3.816406 11.132812 4.074219 12.003906 L 4.429688 13.199219 L 4.070312 14.457031 C 3.792969 15.429688 3.738281 15.769531 3.835938 15.953125 C 3.90625 16.085938 4.390625 16.515625 4.910156 16.914062 C 5.855469 17.632812 5.859375 17.636719 6.25 18.730469 C 6.820312 20.328125 6.777344 20.296875 8.40625 20.386719 L 9.78125 20.460938 L 10.785156 21.152344 C 11.339844 21.53125 11.890625 21.839844 12.011719 21.839844 C 12.132812 21.839844 12.679688 21.535156 13.226562 21.160156 L 14.21875 20.476562 L 15.574219 20.390625 C 16.316406 20.34375 17.003906 20.242188 17.097656 20.160156 C 17.191406 20.082031 17.382812 19.710938 17.519531 19.339844 C 17.652344 18.964844 17.851562 18.429688 17.953125 18.148438 C 18.101562 17.738281 18.339844 17.484375 19.097656 16.90625 C 19.625 16.503906 20.113281 16.050781 20.183594 15.894531 C 20.285156 15.671875 20.246094 15.402344 19.996094 14.597656 C 19.609375 13.355469 19.605469 13.046875 19.976562 11.785156 C 20.179688 11.09375 20.238281 10.703125 20.167969 10.519531 C 20.109375 10.367188 19.65625 9.9375 19.15625 9.5625 C 18.175781 8.824219 18.054688 8.652344 17.640625 7.394531 C 17.25 6.203125 17.136719 6.121094 15.871094 6.113281 C 14.609375 6.109375 14.207031 5.976562 13.175781 5.242188 C 12.132812 4.496094 11.84375 4.5 10.746094 5.285156 M 10.460938 6.132812 C 10.148438 6.226562 10.074219 6.304688 10.101562 6.515625 C 10.132812 6.730469 10.230469 6.785156 10.621094 6.816406 C 11.234375 6.859375 11.640625 6.59375 11.449219 6.277344 C 11.289062 6.019531 11 5.976562 10.460938 6.132812 M 12.628906 6.078125 C 12.433594 6.160156 12.4375 6.535156 12.636719 6.699219 C 12.824219 6.855469 13.574219 6.921875 13.773438 6.796875 C 13.960938 6.679688 13.960938 6.421875 13.769531 6.269531 C 13.585938 6.125 12.832031 5.996094 12.628906 6.078125 M 8.371094 6.988281 C 8.054688 7.167969 7.921875 7.332031 7.921875 7.523438 C 7.921875 7.878906 8.285156 7.890625 8.835938 7.550781 C 9.261719 7.285156 9.332031 7.101562 9.097656 6.863281 C 8.910156 6.675781 8.898438 6.679688 8.371094 6.988281 M 14.804688 6.898438 C 14.695312 7.179688 14.816406 7.367188 15.269531 7.613281 C 16.050781 8.035156 16.445312 7.421875 15.691406 6.957031 C 15.226562 6.675781 14.898438 6.652344 14.804688 6.898438 M 6.492188 8.585938 C 6.082031 9.050781 6.066406 9.207031 6.40625 9.410156 C 6.582031 9.515625 6.679688 9.464844 6.972656 9.121094 C 7.640625 8.332031 7.167969 7.8125 6.492188 8.585938 M 16.761719 8.238281 C 16.484375 8.515625 17.171875 9.5625 17.539062 9.417969 C 17.894531 9.28125 17.882812 9.011719 17.503906 8.578125 C 17.148438 8.171875 16.925781 8.074219 16.761719 8.238281 M 11.105469 10.234375 C 10.480469 10.585938 10.078125 11.1875 10.078125 11.769531 C 10.078125 12.175781 10.046875 12.226562 9.75 12.261719 C 9.488281 12.292969 9.421875 12.363281 9.421875 12.601562 C 9.421875 12.839844 9.488281 12.90625 9.75 12.9375 C 9.980469 12.964844 10.078125 13.042969 10.078125 13.199219 C 10.078125 13.355469 9.980469 13.4375 9.75 13.460938 C 9.488281 13.492188 9.421875 13.5625 9.421875 13.800781 C 9.421875 14.035156 9.488281 14.109375 9.734375 14.136719 C 10.011719 14.167969 10.058594 14.238281 10.109375 14.695312 C 10.265625 16.097656 11.875 16.867188 13.195312 16.167969 C 13.492188 16.011719 13.8125 15.710938 13.960938 15.453125 C 14.195312 15.050781 14.203125 14.992188 14.03125 14.820312 C 13.789062 14.578125 13.550781 14.671875 13.300781 15.113281 C 13.070312 15.519531 12.324219 15.796875 11.816406 15.667969 C 11.320312 15.546875 10.800781 14.964844 10.800781 14.535156 L 10.800781 14.167969 L 12.089844 14.132812 C 13.375 14.101562 13.378906 14.097656 13.378906 13.800781 C 13.378906 13.5 13.375 13.5 12.089844 13.464844 C 10.90625 13.433594 10.800781 13.414062 10.800781 13.199219 C 10.800781 12.988281 10.90625 12.964844 12.089844 12.933594 C 13.375 12.898438 13.378906 12.898438 13.378906 12.601562 C 13.378906 12.300781 13.375 12.300781 12.089844 12.265625 L 10.800781 12.230469 L 10.800781 11.867188 C 10.800781 11.4375 11.320312 10.855469 11.816406 10.730469 C 12.324219 10.601562 13.070312 10.878906 13.300781 11.285156 C 13.550781 11.726562 13.789062 11.820312 14.03125 11.578125 C 14.203125 11.40625 14.195312 11.351562 13.960938 10.945312 C 13.429688 10.027344 12.066406 9.6875 11.105469 10.234375 M 18.054688 10.246094 C 17.871094 10.382812 17.867188 10.445312 18.011719 10.847656 C 18.203125 11.375 18.40625 11.574219 18.660156 11.476562 C 18.871094 11.394531 18.890625 11.097656 18.710938 10.585938 C 18.558594 10.152344 18.339844 10.039062 18.054688 10.246094 M 5.207031 10.753906 C 5.003906 11.289062 5.003906 11.316406 5.210938 11.46875 C 5.523438 11.699219 5.722656 11.5625 5.921875 10.984375 C 6.050781 10.605469 6.0625 10.429688 5.964844 10.332031 C 5.683594 10.050781 5.421875 10.195312 5.207031 10.753906 M 4.941406 12.582031 C 4.839844 12.648438 4.796875 12.882812 4.824219 13.273438 C 4.855469 13.808594 4.886719 13.859375 5.160156 13.859375 C 5.429688 13.859375 5.464844 13.804688 5.496094 13.339844 C 5.519531 13.054688 5.472656 12.746094 5.394531 12.652344 C 5.230469 12.453125 5.160156 12.445312 4.941406 12.582031 M 18.53125 12.636719 C 18.496094 12.734375 18.480469 13.046875 18.503906 13.335938 C 18.535156 13.804688 18.570312 13.859375 18.839844 13.859375 C 19.125 13.859375 19.140625 13.824219 19.140625 13.199219 C 19.140625 12.605469 19.113281 12.535156 18.871094 12.5 C 18.714844 12.480469 18.570312 12.539062 18.53125 12.636719 M 5.117188 15.0625 C 5.078125 15.164062 5.128906 15.460938 5.234375 15.722656 C 5.378906 16.085938 5.492188 16.199219 5.699219 16.199219 C 6.074219 16.199219 6.140625 15.945312 5.914062 15.367188 C 5.769531 15 5.65625 14.878906 5.453125 14.878906 C 5.308594 14.878906 5.152344 14.960938 5.117188 15.0625 M 18.066406 15.417969 C 17.835938 16.023438 17.886719 16.199219 18.292969 16.199219 C 18.507812 16.199219 18.617188 16.089844 18.765625 15.722656 C 18.988281 15.160156 18.917969 14.878906 18.542969 14.878906 C 18.332031 14.878906 18.226562 15 18.066406 15.417969 M 6.242188 17.15625 C 6.136719 17.355469 6.179688 17.46875 6.519531 17.839844 C 7.199219 18.582031 7.632812 18.128906 7.015625 17.320312 C 6.664062 16.863281 6.425781 16.8125 6.242188 17.15625 M 16.984375 17.320312 C 16.816406 17.542969 16.679688 17.8125 16.679688 17.925781 C 16.679688 18.261719 17.027344 18.292969 17.355469 17.984375 C 17.804688 17.566406 17.925781 17.296875 17.753906 17.09375 C 17.53125 16.824219 17.316406 16.886719 16.984375 17.320312 M 20.101562 17.828125 C 19.558594 18.109375 19.308594 18.371094 19.066406 18.898438 C 18.78125 19.519531 18.785156 20.007812 19.078125 20.488281 C 19.671875 21.460938 21.28125 20.941406 21.789062 19.617188 C 22.3125 18.246094 21.316406 17.195312 20.101562 17.828125 M 20.175781 18.664062 C 19.511719 19.222656 19.417969 20.28125 20.035156 20.28125 C 20.648438 20.28125 21.402344 19.125 21.125 18.605469 C 20.945312 18.277344 20.613281 18.296875 20.175781 18.664062 M 7.964844 18.78125 C 7.925781 18.878906 7.921875 19.027344 7.953125 19.109375 C 8.042969 19.335938 8.839844 19.71875 9.054688 19.640625 C 9.375 19.515625 9.265625 19.09375 8.851562 18.839844 C 8.382812 18.554688 8.058594 18.535156 7.964844 18.78125 M 15.148438 18.835938 C 14.730469 19.09375 14.632812 19.484375 14.957031 19.609375 C 15.238281 19.71875 16.105469 19.125 16.054688 18.863281 C 16 18.570312 15.601562 18.558594 15.148438 18.835938 M 10.183594 19.640625 C 9.925781 19.949219 10.210938 20.214844 10.84375 20.257812 C 11.449219 20.296875 11.710938 20.050781 11.386719 19.746094 C 11.117188 19.496094 10.359375 19.425781 10.183594 19.640625 M 13.140625 19.527344 C 12.695312 19.59375 12.480469 19.761719 12.480469 20.046875 C 12.480469 20.320312 12.785156 20.414062 13.308594 20.300781 C 13.8125 20.195312 14.03125 19.898438 13.808594 19.628906 C 13.722656 19.527344 13.617188 19.449219 13.574219 19.457031 C 13.535156 19.46875 13.339844 19.5 13.140625 19.527344 "/>
</g>
</svg>
