<?xml version="1.0" encoding="UTF-8"?>
<svg xmlns="http://www.w3.org/2000/svg" xmlns:xlink="http://www.w3.org/1999/xlink" width="100px" height="100px" viewBox="0 0 100 100" version="1.1">
<g id="surface1">
<path style=" stroke:none;fill-rule:evenodd;fill:rgb(0%,0%,0%);fill-opacity:1;" d="M 47.542969 16.332031 C 47.152344 16.5 45.0625 17.84375 42.898438 19.320312 L 38.960938 22 L 34.464844 22 C 27.140625 22 25.796875 23.003906 23.207031 30.40625 C 21.785156 34.460938 21.660156 34.632812 18.097656 37.3125 C 14.25 40.210938 12.503906 42.445312 12.503906 44.472656 C 12.5 45.148438 13.101562 47.785156 13.839844 50.335938 L 15.179688 54.972656 L 13.742188 60.023438 C 11.792969 66.886719 12.15625 67.984375 17.796875 72.335938 C 21.824219 75.4375 21.855469 75.476562 23.425781 79.871094 C 24.296875 82.300781 25.335938 84.753906 25.734375 85.328125 C 27.078125 87.246094 29.554688 88 34.5 88 L 39.09375 88 L 43.660156 91.054688 C 47.902344 93.890625 48.382812 94.089844 50.515625 93.886719 C 52.269531 93.71875 53.785156 93 56.96875 90.832031 L 61.125 88 L 65.578125 88 C 72.886719 88 74.300781 86.976562 76.757812 79.898438 L 78.355469 75.308594 L 82.300781 72.261719 C 87.832031 67.988281 88.199219 66.855469 86.261719 60.039062 L 84.828125 55 L 86.261719 49.960938 C 88.207031 43.113281 87.84375 42.011719 82.203125 37.664062 C 78.175781 34.5625 78.144531 34.523438 76.574219 30.128906 C 75.703125 27.699219 74.664062 25.246094 74.265625 24.671875 C 72.921875 22.753906 70.445312 22 65.488281 22 L 60.882812 22 L 56.839844 19.167969 C 53.601562 16.898438 52.339844 16.300781 50.523438 16.179688 C 49.273438 16.09375 47.933594 16.164062 47.542969 16.332031 M 44.777344 22.023438 C 40.617188 25 39.03125 25.492188 33.625 25.496094 C 28.628906 25.5 28.113281 25.886719 26.492188 30.8125 C 24.769531 36.054688 24.269531 36.773438 20.191406 39.84375 C 18.105469 41.414062 16.199219 43.226562 15.953125 43.871094 C 15.625 44.734375 15.90625 46.394531 16.984375 50.023438 L 18.460938 54.996094 L 16.957031 60.238281 C 15.796875 64.289062 15.574219 65.707031 15.988281 66.476562 C 16.28125 67.023438 18.292969 68.820312 20.464844 70.472656 C 24.40625 73.472656 24.410156 73.480469 26.042969 78.039062 C 28.425781 84.703125 28.242188 84.5625 35.03125 84.941406 L 40.75 85.257812 L 44.9375 88.128906 C 47.242188 89.707031 49.539062 91 50.042969 91 C 50.546875 91 52.828125 89.722656 55.105469 88.160156 L 59.25 85.320312 L 64.886719 84.964844 C 67.988281 84.765625 70.84375 84.335938 71.242188 84.007812 C 71.636719 83.679688 72.425781 82.136719 72.992188 80.578125 C 73.558594 79.023438 74.375 76.789062 74.804688 75.613281 C 75.429688 73.917969 76.417969 72.847656 79.578125 70.441406 C 81.769531 68.773438 83.804688 66.878906 84.097656 66.230469 C 84.523438 65.300781 84.363281 64.179688 83.316406 60.828125 C 81.703125 55.652344 81.695312 54.363281 83.238281 49.101562 C 84.082031 46.230469 84.324219 44.601562 84.027344 43.824219 C 83.792969 43.203125 81.894531 41.414062 79.808594 39.84375 C 75.730469 36.773438 75.230469 36.054688 73.507812 30.8125 C 71.875 25.847656 71.398438 25.503906 66.125 25.476562 C 60.878906 25.453125 59.203125 24.90625 54.902344 21.839844 C 50.550781 18.734375 49.34375 18.757812 44.777344 22.023438 M 43.59375 25.558594 C 42.28125 25.945312 41.96875 26.273438 42.09375 27.148438 C 42.21875 28.042969 42.625 28.277344 44.25 28.398438 C 46.804688 28.585938 48.507812 27.476562 47.699219 26.15625 C 47.039062 25.074219 45.835938 24.898438 43.59375 25.558594 M 52.625 25.332031 C 51.808594 25.660156 51.824219 27.230469 52.648438 27.917969 C 53.4375 28.570312 56.554688 28.832031 57.394531 28.316406 C 58.179688 27.832031 58.167969 26.757812 57.375 26.125 C 56.605469 25.515625 53.472656 24.992188 52.625 25.332031 M 34.875 29.109375 C 33.566406 29.867188 33 30.542969 33 31.347656 C 33 32.835938 34.515625 32.878906 36.816406 31.460938 C 38.59375 30.359375 38.886719 29.585938 37.898438 28.601562 C 37.125 27.824219 37.082031 27.828125 34.875 29.109375 M 61.679688 28.75 C 61.230469 29.921875 61.742188 30.703125 63.628906 31.71875 C 66.886719 33.472656 68.527344 30.917969 65.375 28.996094 C 63.4375 27.8125 62.074219 27.722656 61.679688 28.75 M 27.046875 35.773438 C 25.347656 37.710938 25.28125 38.355469 26.691406 39.214844 C 27.421875 39.65625 27.835938 39.441406 29.054688 38 C 31.828125 34.71875 29.875 32.554688 27.046875 35.773438 M 69.832031 34.332031 C 68.679688 35.488281 71.558594 39.839844 73.085938 39.246094 C 74.558594 38.675781 74.507812 37.546875 72.933594 35.75 C 71.445312 34.058594 70.527344 33.636719 69.832031 34.332031 M 46.265625 42.640625 C 43.675781 44.105469 42 46.621094 42 49.039062 C 42 50.734375 41.855469 50.949219 40.625 51.09375 C 39.535156 51.21875 39.25 51.507812 39.25 52.5 C 39.25 53.492188 39.535156 53.78125 40.625 53.90625 C 41.578125 54.019531 42 54.351562 42 55 C 42 55.648438 41.578125 55.980469 40.625 56.09375 C 39.535156 56.21875 39.25 56.507812 39.25 57.5 C 39.25 58.476562 39.535156 58.78125 40.5625 58.902344 C 41.710938 59.035156 41.90625 59.328125 42.121094 61.230469 C 42.78125 67.070312 49.488281 70.273438 54.972656 67.371094 C 56.214844 66.71875 57.554688 65.46875 58.179688 64.394531 C 59.152344 62.707031 59.179688 62.46875 58.464844 61.75 C 57.457031 60.742188 56.464844 61.140625 55.417969 62.976562 C 54.453125 64.664062 51.355469 65.824219 49.230469 65.289062 C 47.164062 64.769531 45 62.347656 45 60.554688 L 45 59.035156 L 50.375 58.890625 C 55.738281 58.75 55.75 58.746094 55.75 57.5 C 55.75 56.253906 55.738281 56.25 50.375 56.109375 C 45.445312 55.976562 45 55.886719 45 55 C 45 54.113281 45.445312 54.023438 50.375 53.890625 C 55.738281 53.75 55.75 53.746094 55.75 52.5 C 55.75 51.253906 55.738281 51.25 50.375 51.109375 L 45 50.964844 L 45 49.445312 C 45 47.652344 47.164062 45.230469 49.230469 44.710938 C 51.355469 44.175781 54.453125 45.335938 55.417969 47.023438 C 56.464844 48.859375 57.457031 49.257812 58.464844 48.25 C 59.179688 47.53125 59.152344 47.292969 58.179688 45.605469 C 55.964844 41.777344 50.285156 40.363281 46.265625 42.640625 M 75.234375 42.699219 C 74.464844 43.261719 74.445312 43.527344 75.046875 45.195312 C 75.84375 47.390625 76.695312 48.222656 77.742188 47.820312 C 78.632812 47.480469 78.707031 46.242188 77.964844 44.113281 C 77.332031 42.300781 76.425781 41.828125 75.234375 42.699219 M 21.699219 44.8125 C 20.851562 47.03125 20.851562 47.15625 21.707031 47.78125 C 23.019531 48.742188 23.84375 48.179688 24.667969 45.761719 C 25.203125 44.1875 25.253906 43.453125 24.851562 43.050781 C 23.675781 41.875 22.589844 42.484375 21.699219 44.8125 M 20.59375 52.429688 C 20.160156 52.707031 19.992188 53.675781 20.09375 55.296875 C 20.238281 57.539062 20.359375 57.75 21.5 57.75 C 22.617188 57.75 22.765625 57.519531 22.90625 55.589844 C 22.992188 54.398438 22.796875 53.105469 22.46875 52.714844 C 21.789062 51.894531 21.507812 51.851562 20.59375 52.429688 M 77.214844 52.65625 C 77.0625 53.058594 77.007812 54.367188 77.09375 55.566406 C 77.234375 57.519531 77.382812 57.75 78.5 57.75 C 79.683594 57.75 79.75 57.601562 79.75 55 C 79.75 52.527344 79.636719 52.234375 78.621094 52.089844 C 77.976562 52 77.375 52.242188 77.214844 52.65625 M 21.3125 62.765625 C 21.152344 63.183594 21.378906 64.421875 21.816406 65.515625 C 22.414062 67.015625 22.886719 67.5 23.75 67.5 C 25.316406 67.5 25.589844 66.4375 24.648438 64.03125 C 24.042969 62.496094 23.574219 62 22.726562 62 C 22.113281 62 21.476562 62.34375 21.3125 62.765625 M 75.28125 64.238281 C 74.320312 66.757812 74.53125 67.5 76.226562 67.5 C 77.117188 67.5 77.578125 67.035156 78.183594 65.515625 C 79.125 63.167969 78.820312 62 77.265625 62 C 76.386719 62 75.945312 62.5 75.28125 64.238281 M 26.003906 71.492188 C 25.5625 72.316406 25.757812 72.792969 27.160156 74.324219 C 29.996094 77.421875 31.796875 75.542969 29.222656 72.171875 C 27.773438 70.269531 26.773438 70.058594 26.003906 71.492188 M 70.777344 72.171875 C 70.074219 73.09375 69.5 74.222656 69.5 74.6875 C 69.5 76.089844 70.953125 76.21875 72.320312 74.9375 C 74.1875 73.195312 74.683594 72.074219 73.972656 71.21875 C 73.042969 70.097656 72.15625 70.359375 70.777344 72.171875 M 83.75 74.289062 C 81.496094 75.464844 80.453125 76.542969 79.441406 78.75 C 78.25 81.339844 78.265625 83.359375 79.488281 85.363281 C 81.960938 89.417969 88.671875 87.257812 90.785156 81.730469 C 92.964844 76.023438 88.824219 71.640625 83.75 74.289062 M 84.070312 77.765625 C 81.296875 80.101562 80.910156 84.5 83.480469 84.5 C 86.039062 84.5 89.167969 79.683594 88.011719 77.523438 C 87.277344 76.148438 85.894531 76.234375 84.070312 77.765625 M 33.179688 78.25 C 33.023438 78.664062 33.003906 79.28125 33.140625 79.625 C 33.519531 80.570312 36.839844 82.167969 37.722656 81.828125 C 39.0625 81.316406 38.613281 79.554688 36.875 78.496094 C 34.9375 77.3125 33.574219 77.222656 33.179688 78.25 M 63.125 78.484375 C 61.375 79.5625 60.972656 81.191406 62.328125 81.710938 C 63.488281 82.15625 67.109375 79.6875 66.902344 78.597656 C 66.667969 77.375 65.003906 77.328125 63.125 78.484375 M 42.433594 81.828125 C 41.363281 83.121094 42.546875 84.230469 45.179688 84.402344 C 47.710938 84.566406 48.800781 83.542969 47.445312 82.273438 C 46.324219 81.226562 43.167969 80.945312 42.433594 81.828125 M 54.75 81.367188 C 52.898438 81.640625 52 82.34375 52 83.527344 C 52 84.667969 53.265625 85.058594 55.453125 84.59375 C 57.558594 84.140625 58.46875 82.917969 57.535156 81.792969 C 57.171875 81.355469 56.738281 81.035156 56.5625 81.074219 C 56.390625 81.117188 55.574219 81.25 54.75 81.367188 "/>
</g>
</svg>
