<?xml version="1.0" encoding="UTF-8"?>
<svg xmlns="http://www.w3.org/2000/svg" xmlns:xlink="http://www.w3.org/1999/xlink" width="100px" height="100px" viewBox="0 0 100 100" version="1.1">
<g id="surface1">
<path style=" stroke:none;fill-rule:evenodd;fill:rgb(0%,0%,0%);fill-opacity:1;" d="M 3.195312 32.21875 C 3.042969 32.613281 3.167969 34.980469 3.46875 37.476562 C 6.886719 65.589844 33.449219 84.050781 61.003906 77.46875 C 65.996094 76.277344 72.488281 73.3125 76.671875 70.316406 C 80.246094 67.753906 86.089844 61.8125 88.457031 58.335938 C 92.628906 52.207031 95.574219 43.582031 96.296875 35.375 L 96.636719 31.5 L 93 31.5 L 93 34.269531 C 93 40.371094 90.636719 48.164062 86.792969 54.75 C 84.117188 59.335938 76.835938 66.617188 72.25 69.292969 C 55.21875 79.234375 34.628906 77.15625 20.417969 64.054688 C 12.398438 56.664062 7.46875 46.480469 6.660156 35.625 L 6.351562 31.5 L 4.910156 31.5 C 4.117188 31.5 3.34375 31.824219 3.195312 32.21875 M 9.210938 32.171875 C 8.53125 33.941406 11.449219 48 12.492188 48 C 12.6875 48 18.445312 45.542969 25.296875 42.539062 C 33.679688 38.863281 37.691406 36.863281 37.566406 36.414062 C 37.464844 36.050781 37.265625 34.792969 37.125 33.625 L 36.871094 31.5 L 23.167969 31.5 C 12.15625 31.5 9.417969 31.632812 9.210938 32.171875 M 62.34375 34.359375 C 62.183594 35.929688 62.09375 37.242188 62.148438 37.273438 C 63.421875 38.011719 87.054688 48.097656 87.171875 47.957031 C 88.328125 46.519531 90.5 36.890625 90.5 33.183594 L 90.5 31.5 L 62.640625 31.5 L 62.34375 34.359375 M 25.789062 44.042969 C 18.933594 47.046875 13.257812 49.574219 13.175781 49.660156 C 12.65625 50.175781 17.394531 56.855469 20.839844 60.464844 C 24.917969 64.738281 24.933594 64.746094 25.90625 63.75 C 27.105469 62.523438 41.019531 43.558594 41.277344 42.796875 C 41.382812 42.496094 40.742188 41.425781 39.859375 40.414062 L 38.25 38.578125 L 25.789062 44.042969 M 59.570312 40.484375 C 58.707031 41.5625 58 42.5625 58 42.714844 C 58 43.34375 73.644531 64.261719 74.214844 64.398438 C 75.21875 64.628906 83.089844 55.949219 84.867188 52.652344 L 86.484375 49.652344 L 74.117188 44.246094 C 67.316406 41.273438 61.613281 38.769531 61.445312 38.683594 C 61.28125 38.597656 60.4375 39.410156 59.570312 40.484375 M 35 54.203125 C 30.738281 60.078125 27.25 65.191406 27.25 65.566406 C 27.25 65.941406 29.289062 67.277344 31.785156 68.527344 C 36.179688 70.738281 40.949219 72.128906 46.375 72.777344 L 49 73.09375 L 49 45.167969 L 46.875 44.625 C 45.707031 44.328125 44.300781 43.957031 43.75 43.800781 C 42.914062 43.566406 41.488281 45.257812 35 54.203125 M 54.25 44.269531 C 53.425781 44.644531 52.242188 44.964844 51.625 44.976562 L 50.5 45 L 50.5 73.070312 L 53.375 72.746094 C 58.214844 72.195312 62.5625 70.976562 66.75 69.003906 C 73.632812 65.761719 73.863281 67.265625 64.539062 54.570312 C 60.070312 48.480469 56.265625 43.519531 56.082031 43.539062 C 55.898438 43.5625 55.074219 43.890625 54.25 44.269531 "/>
</g>
</svg>
