<?xml version="1.0" encoding="UTF-8"?>
<svg xmlns="http://www.w3.org/2000/svg" xmlns:xlink="http://www.w3.org/1999/xlink" width="24px" height="24px" viewBox="0 0 24 24" version="1.1">
<g id="surface1">
<path style=" stroke:none;fill-rule:evenodd;fill:rgb(0%,0%,0%);fill-opacity:1;" d="M 0.765625 7.730469 C 0.730469 7.828125 0.761719 8.394531 0.832031 8.996094 C 1.652344 15.742188 8.027344 20.171875 14.640625 18.59375 C 15.839844 18.304688 17.398438 17.59375 18.402344 16.875 C 19.257812 16.261719 20.660156 14.835938 21.230469 14 C 22.230469 12.53125 22.9375 10.460938 23.109375 8.488281 L 23.191406 7.558594 L 22.320312 7.558594 L 22.320312 8.226562 C 22.320312 9.6875 21.753906 11.558594 20.832031 13.140625 C 20.1875 14.238281 18.441406 15.988281 17.339844 16.628906 C 13.253906 19.015625 8.3125 18.515625 4.898438 15.375 C 2.976562 13.601562 1.792969 11.15625 1.597656 8.550781 L 1.523438 7.558594 L 1.179688 7.558594 C 0.988281 7.558594 0.804688 7.636719 0.765625 7.730469 M 2.210938 7.722656 C 2.046875 8.144531 2.746094 11.519531 3 11.519531 C 3.042969 11.519531 4.425781 10.929688 6.070312 10.210938 C 8.082031 9.328125 9.046875 8.847656 9.015625 8.738281 C 8.992188 8.652344 8.945312 8.351562 8.910156 8.070312 L 8.847656 7.558594 L 5.5625 7.558594 C 2.917969 7.558594 2.261719 7.589844 2.210938 7.722656 M 14.960938 8.246094 C 14.921875 8.625 14.902344 8.9375 14.914062 8.945312 C 15.222656 9.121094 20.894531 11.542969 20.921875 11.507812 C 21.199219 11.164062 21.71875 8.855469 21.71875 7.964844 L 21.71875 7.558594 L 15.035156 7.558594 L 14.960938 8.246094 M 6.1875 10.570312 C 4.542969 11.292969 3.183594 11.898438 3.160156 11.917969 C 3.039062 12.042969 4.175781 13.644531 5 14.511719 C 5.980469 15.535156 5.984375 15.539062 6.21875 15.300781 C 6.503906 15.003906 9.84375 10.453125 9.90625 10.269531 C 9.929688 10.199219 9.777344 9.941406 9.566406 9.699219 L 9.179688 9.257812 L 6.1875 10.570312 M 14.296875 9.714844 C 14.089844 9.976562 13.921875 10.214844 13.921875 10.25 C 13.921875 10.402344 17.675781 15.421875 17.8125 15.457031 C 18.050781 15.511719 19.941406 13.429688 20.367188 12.636719 L 20.757812 11.917969 L 17.789062 10.617188 C 16.15625 9.90625 14.789062 9.304688 14.746094 9.285156 C 14.707031 9.265625 14.503906 9.457031 14.296875 9.714844 M 8.398438 13.007812 C 7.378906 14.417969 6.539062 15.644531 6.539062 15.734375 C 6.539062 15.828125 7.03125 16.144531 7.628906 16.445312 C 8.683594 16.976562 9.828125 17.308594 11.128906 17.46875 L 11.761719 17.542969 L 11.761719 10.839844 L 11.25 10.710938 C 10.96875 10.640625 10.632812 10.550781 10.5 10.511719 C 10.300781 10.457031 9.957031 10.863281 8.398438 13.007812 M 13.019531 10.625 C 12.820312 10.714844 12.539062 10.792969 12.390625 10.792969 L 12.121094 10.800781 L 12.121094 17.539062 L 12.808594 17.457031 C 13.972656 17.328125 15.015625 17.035156 16.019531 16.5625 C 17.671875 15.78125 17.726562 16.144531 15.488281 13.097656 C 14.417969 11.636719 13.503906 10.445312 13.460938 10.449219 C 13.414062 10.457031 13.21875 10.535156 13.019531 10.625 "/>
</g>
</svg>
