<?xml version="1.0" encoding="UTF-8"?>
<svg xmlns="http://www.w3.org/2000/svg" xmlns:xlink="http://www.w3.org/1999/xlink" width="24px" height="24px" viewBox="0 0 24 24" version="1.1">
<g id="surface1">
<path style=" stroke:none;fill-rule:evenodd;fill:rgb(0%,0%,0%);fill-opacity:1;" d="M 13.96875 2.691406 C 13.097656 2.960938 12.117188 3.761719 11.339844 4.828125 L 11.101562 5.160156 L 10.324219 4.84375 C 9.6875 4.585938 9.421875 4.542969 8.808594 4.589844 C 6.707031 4.757812 4.671875 7.132812 3.671875 10.589844 C 3.195312 12.238281 3.078125 13.042969 3.074219 14.699219 C 3.070312 17.046875 3.519531 18.449219 4.683594 19.71875 C 6.742188 21.972656 10.949219 22.082031 13.195312 19.941406 L 13.738281 19.425781 L 15.117188 19.390625 C 17.089844 19.34375 18.203125 18.894531 19.328125 17.6875 C 20.632812 16.285156 21.195312 13.980469 20.878906 11.339844 C 20.484375 8.046875 19.320312 5.367188 17.574219 3.734375 C 16.40625 2.640625 15.21875 2.296875 13.96875 2.691406 M 13.726562 3.953125 C 13.390625 4.148438 12.898438 4.566406 12.636719 4.882812 C 11.835938 5.847656 11.839844 5.832031 12.4375 6.566406 C 13.476562 7.84375 14.40625 10.082031 14.824219 12.308594 C 15.191406 14.273438 15.03125 16.839844 14.460938 18.164062 C 14.367188 18.378906 14.421875 18.386719 15.429688 18.339844 C 18.304688 18.199219 19.910156 16.207031 19.917969 12.78125 C 19.921875 9.925781 18.742188 6.464844 17.191406 4.789062 C 16.042969 3.546875 14.910156 3.273438 13.726562 3.953125 M 7.980469 5.863281 C 7 6.332031 5.824219 7.867188 5.144531 9.558594 C 3.6875 13.199219 3.75 17.136719 5.296875 18.890625 C 6.210938 19.929688 7.378906 20.394531 9.066406 20.398438 C 11.578125 20.402344 13.113281 19.230469 13.742188 16.832031 C 13.984375 15.921875 13.980469 13.667969 13.738281 12.390625 C 13.226562 9.6875 11.945312 7.195312 10.542969 6.167969 C 10.007812 5.773438 9.8125 5.703125 9.1875 5.671875 C 8.65625 5.640625 8.332031 5.695312 7.980469 5.863281 M 17.054688 9.914062 C 16.714844 10.152344 16.734375 10.511719 17.09375 10.746094 C 17.519531 11.027344 17.90625 10.796875 17.855469 10.292969 C 17.8125 9.835938 17.425781 9.652344 17.054688 9.914062 M 6.308594 10.988281 C 6.042969 11.253906 6.074219 11.59375 6.382812 11.8125 C 6.609375 11.96875 6.6875 11.972656 6.894531 11.835938 C 7.246094 11.601562 7.265625 11.21875 6.941406 10.992188 C 6.601562 10.753906 6.542969 10.753906 6.308594 10.988281 M 10.5 14.324219 C 10.269531 14.671875 10.375 14.980469 10.753906 15.074219 C 11.105469 15.164062 11.398438 14.941406 11.398438 14.589844 C 11.398438 14.023438 10.8125 13.847656 10.5 14.324219 "/>
</g>
</svg>
