<?xml version="1.0" encoding="UTF-8"?>
<svg xmlns="http://www.w3.org/2000/svg" xmlns:xlink="http://www.w3.org/1999/xlink" width="100px" height="100px" viewBox="0 0 100 100" version="1.1">
<g id="surface1">
<path style=" stroke:none;fill-rule:evenodd;fill:rgb(0%,0%,0%);fill-opacity:1;" d="M 58.199219 11.210938 C 54.578125 12.339844 50.492188 15.667969 47.25 20.121094 L 46.25 21.492188 L 43.023438 20.1875 C 40.363281 19.105469 39.261719 18.921875 36.707031 19.128906 C 27.949219 19.832031 19.472656 29.726562 15.300781 44.121094 C 13.308594 51 12.820312 54.351562 12.8125 61.25 C 12.800781 71.023438 14.671875 76.871094 19.511719 82.164062 C 28.085938 91.546875 45.628906 92.007812 54.980469 83.09375 L 57.242188 80.941406 L 62.996094 80.800781 C 71.207031 80.597656 75.839844 78.722656 80.527344 73.691406 C 85.96875 67.855469 88.320312 58.25 87.003906 47.25 C 85.359375 33.535156 80.503906 22.359375 73.230469 15.554688 C 68.367188 11.003906 63.417969 9.574219 58.199219 11.210938 M 57.199219 16.472656 C 55.792969 17.277344 53.75 19.019531 52.652344 20.34375 C 49.324219 24.359375 49.328125 24.304688 51.824219 27.367188 C 56.15625 32.683594 60.03125 42.007812 61.773438 51.289062 C 63.304688 59.464844 62.636719 70.171875 60.25 75.691406 C 59.867188 76.578125 60.085938 76.617188 64.296875 76.414062 C 76.273438 75.832031 82.964844 67.535156 82.988281 53.25 C 83.007812 41.355469 78.089844 26.933594 71.632812 19.960938 C 66.839844 14.78125 62.128906 13.644531 57.199219 16.472656 M 33.25 24.425781 C 29.164062 26.386719 24.257812 32.777344 21.433594 39.832031 C 15.367188 54.988281 15.632812 71.398438 22.066406 78.707031 C 25.878906 83.039062 30.738281 84.984375 37.785156 84.992188 C 48.238281 85.007812 54.636719 80.132812 57.265625 70.140625 C 58.265625 66.335938 58.257812 56.945312 57.246094 51.625 C 55.105469 40.371094 49.769531 29.988281 43.921875 25.695312 C 41.699219 24.0625 40.886719 23.761719 38.289062 23.625 C 36.066406 23.511719 34.710938 23.726562 33.25 24.425781 M 71.058594 41.316406 C 69.652344 42.300781 69.71875 43.792969 71.214844 44.773438 C 73 45.941406 74.613281 44.988281 74.402344 42.894531 C 74.210938 40.980469 72.613281 40.226562 71.058594 41.316406 M 26.285156 45.785156 C 25.179688 46.890625 25.308594 48.308594 26.601562 49.214844 C 27.539062 49.871094 27.855469 49.886719 28.726562 49.3125 C 30.191406 48.34375 30.277344 46.75 28.917969 45.796875 C 27.503906 44.808594 27.265625 44.804688 26.285156 45.785156 M 43.75 59.679688 C 42.792969 61.136719 43.226562 62.410156 44.8125 62.808594 C 46.277344 63.179688 47.5 62.257812 47.5 60.789062 C 47.5 58.429688 45.042969 57.703125 43.75 59.679688 "/>
</g>
</svg>
