<?xml version="1.0" encoding="UTF-8"?>
<svg xmlns="http://www.w3.org/2000/svg" xmlns:xlink="http://www.w3.org/1999/xlink" width="24px" height="24px" viewBox="0 0 24 24" version="1.1">
<g id="surface1">
<path style=" stroke:none;fill-rule:evenodd;fill:rgb(0%,0%,0%);fill-opacity:1;" d="M 9.839844 0.417969 C 9.628906 0.675781 9.769531 1.101562 10.464844 2.324219 C 11.804688 4.664062 13.429688 6.285156 14.976562 6.8125 C 15.617188 7.03125 15.714844 6.960938 13.339844 7.972656 C 10.152344 9.332031 5.945312 10.773438 1.777344 11.933594 C 1.328125 12.058594 1.070312 12.199219 1.023438 12.34375 C 0.921875 12.664062 1.066406 12.953125 1.367188 13.027344 C 1.796875 13.136719 7.25 11.46875 10.65625 10.191406 C 11.347656 9.933594 11.929688 9.71875 11.949219 9.71875 C 12.042969 9.71875 11.847656 11.027344 11.6875 11.476562 L 11.511719 11.972656 L 10.75 12.054688 C 8.613281 12.285156 6.589844 14.144531 5.816406 16.59375 C 4.933594 19.390625 5.246094 21.84375 6.652344 23.140625 C 7.886719 24.277344 9.691406 24.050781 11.738281 22.5 C 13.347656 21.28125 14.878906 18.730469 14.878906 17.265625 C 14.878906 16.714844 15.0625 16.773438 15.542969 17.472656 C 16.585938 18.984375 18.402344 20.160156 19.699219 20.160156 C 20.554688 20.160156 21.050781 19.960938 21.5625 19.425781 C 22.234375 18.71875 22.476562 17.988281 22.535156 16.496094 C 22.59375 14.984375 22.421875 14.082031 21.835938 12.878906 C 20.878906 10.921875 18.785156 9.605469 17.136719 9.933594 C 16.570312 10.042969 16.542969 10.035156 16.382812 9.726562 C 16.292969 9.550781 16.179688 9.082031 16.136719 8.6875 L 16.054688 7.96875 L 17.355469 7.3125 C 19.816406 6.074219 22.808594 4.183594 22.96875 3.761719 C 23.054688 3.542969 22.746094 3 22.539062 3 C 22.464844 3 21.804688 3.398438 21.070312 3.882812 C 20.339844 4.367188 19.542969 4.882812 19.304688 5.023438 L 18.867188 5.28125 L 18.789062 4.769531 C 18.460938 2.558594 16.339844 1.054688 12.675781 0.421875 C 11.277344 0.183594 10.039062 0.179688 9.839844 0.417969 M 11.230469 1.582031 C 12.082031 3.238281 13.695312 5.035156 14.828125 5.589844 C 15.636719 5.984375 16.695312 6.0625 17.382812 5.769531 C 17.785156 5.601562 17.785156 5.597656 17.734375 4.910156 C 17.597656 3.019531 15.515625 1.78125 11.601562 1.257812 L 11.023438 1.183594 L 11.230469 1.582031 M 13.949219 8.855469 L 12.960938 9.289062 L 12.957031 10.195312 C 12.953125 10.738281 12.867188 11.34375 12.738281 11.714844 L 12.527344 12.332031 L 12.925781 12.546875 C 13.148438 12.664062 13.542969 12.996094 13.804688 13.277344 L 14.28125 13.792969 L 14.28125 13.449219 C 14.28125 12.816406 14.742188 11.582031 15.167969 11.089844 L 15.578125 10.605469 L 15.351562 9.953125 C 15.230469 9.59375 15.125 9.097656 15.125 8.851562 C 15.121094 8.601562 15.078125 8.40625 15.03125 8.410156 C 14.980469 8.417969 14.496094 8.617188 13.949219 8.855469 M 16.777344 11.082031 C 15.652344 11.582031 15.085938 12.941406 15.355469 14.496094 C 15.570312 15.726562 16.097656 16.699219 17.09375 17.710938 C 18.074219 18.707031 18.957031 19.195312 19.785156 19.199219 C 20.230469 19.199219 20.375 19.132812 20.761719 18.746094 C 21.332031 18.175781 21.527344 17.523438 21.519531 16.199219 C 21.511719 13.957031 20.523438 12.082031 18.9375 11.289062 C 18.144531 10.890625 17.375 10.816406 16.777344 11.082031 M 10.199219 13.1875 C 7.519531 14.058594 5.738281 17.84375 6.546875 20.941406 C 7.179688 23.371094 9.335938 23.429688 11.746094 21.089844 C 13.011719 19.859375 13.769531 18.359375 13.886719 16.855469 C 13.996094 15.394531 13.511719 14.214844 12.503906 13.511719 C 12.09375 13.21875 11.851562 13.144531 11.246094 13.121094 C 10.835938 13.101562 10.363281 13.132812 10.199219 13.1875 "/>
</g>
</svg>
