<?xml version="1.0" encoding="UTF-8"?>
<svg xmlns="http://www.w3.org/2000/svg" xmlns:xlink="http://www.w3.org/1999/xlink" width="100px" height="100px" viewBox="0 0 100 100" version="1.1">
<g id="surface1">
<path style=" stroke:none;fill-rule:evenodd;fill:rgb(0%,0%,0%);fill-opacity:1;" d="M 41.003906 1.742188 C 40.117188 2.8125 40.699219 4.59375 43.605469 9.675781 C 49.183594 19.441406 55.960938 26.183594 62.398438 28.378906 C 65.078125 29.289062 65.480469 29.003906 55.578125 33.226562 C 42.300781 38.886719 24.773438 44.886719 7.40625 49.71875 C 5.535156 50.238281 4.464844 50.824219 4.269531 51.433594 C 3.847656 52.769531 4.445312 53.96875 5.691406 54.28125 C 7.488281 54.730469 30.214844 47.792969 44.398438 42.46875 C 47.277344 41.386719 49.707031 40.5 49.792969 40.5 C 50.179688 40.5 49.359375 45.945312 48.695312 47.820312 L 47.960938 49.886719 L 44.785156 50.226562 C 35.886719 51.179688 27.460938 58.933594 24.234375 69.140625 C 20.550781 80.789062 21.855469 91.015625 27.714844 96.414062 C 32.859375 101.15625 40.375 100.214844 48.90625 93.757812 C 55.621094 88.675781 62 78.046875 62 71.9375 C 62 69.652344 62.757812 69.886719 64.765625 72.800781 C 69.105469 79.105469 76.675781 84 82.082031 84 C 85.636719 84 87.71875 83.179688 89.847656 80.933594 C 92.636719 77.996094 93.648438 74.949219 93.898438 68.742188 C 94.148438 62.441406 93.417969 58.671875 90.980469 53.667969 C 87.003906 45.503906 78.269531 40.023438 71.394531 41.382812 C 69.042969 41.847656 68.929688 41.816406 68.261719 40.527344 C 67.882812 39.789062 67.417969 37.839844 67.230469 36.191406 L 66.894531 33.195312 L 72.3125 30.472656 C 82.574219 25.316406 95.035156 17.433594 95.710938 15.671875 C 96.0625 14.757812 94.78125 12.5 93.914062 12.5 C 93.601562 12.5 90.851562 14.15625 87.800781 16.179688 C 84.746094 18.203125 81.433594 20.339844 80.433594 20.933594 L 78.613281 22.011719 L 78.296875 19.878906 C 76.914062 10.660156 68.089844 4.386719 52.808594 1.761719 C 46.984375 0.761719 41.828125 0.753906 41.003906 1.742188 M 46.792969 6.589844 C 50.347656 13.496094 57.066406 20.980469 61.78125 23.285156 C 65.160156 24.941406 69.558594 25.253906 72.429688 24.042969 C 74.097656 23.339844 74.105469 23.316406 73.902344 20.460938 C 73.332031 12.585938 64.640625 7.414062 48.34375 5.25 L 45.9375 4.929688 L 46.792969 6.589844 M 58.125 36.90625 L 54 38.710938 L 53.984375 42.480469 C 53.972656 44.75 53.613281 47.269531 53.082031 48.8125 L 52.195312 51.378906 L 53.863281 52.277344 C 54.785156 52.773438 56.425781 54.144531 57.515625 55.328125 L 59.5 57.476562 L 59.5 56.042969 C 59.5 53.402344 61.429688 48.261719 63.195312 46.199219 L 64.910156 44.195312 L 63.972656 41.472656 C 63.457031 39.976562 63.027344 37.90625 63.015625 36.875 C 63.007812 35.84375 62.832031 35.023438 62.625 35.050781 C 62.417969 35.078125 60.394531 35.910156 58.125 36.90625 M 69.898438 46.179688 C 65.214844 48.261719 62.863281 53.917969 63.988281 60.402344 C 64.878906 65.523438 67.070312 69.585938 71.222656 73.800781 C 75.304688 77.953125 78.988281 79.988281 82.433594 79.996094 C 84.296875 80 84.894531 79.722656 86.511719 78.105469 C 88.886719 75.730469 89.699219 73.007812 89.671875 67.5 C 89.625 58.152344 85.515625 50.335938 78.910156 47.035156 C 75.597656 45.378906 72.390625 45.074219 69.898438 46.179688 M 42.5 54.941406 C 31.335938 58.582031 23.910156 74.339844 27.269531 87.25 C 29.90625 97.371094 38.898438 97.628906 48.949219 87.871094 C 54.222656 82.75 57.378906 76.503906 57.859375 70.226562 C 58.324219 64.152344 56.296875 59.234375 52.109375 56.292969 C 50.382812 55.078125 49.390625 54.773438 46.863281 54.664062 C 45.152344 54.59375 43.1875 54.71875 42.5 54.941406 "/>
</g>
</svg>
