<?xml version="1.0" encoding="UTF-8"?>
<svg xmlns="http://www.w3.org/2000/svg" xmlns:xlink="http://www.w3.org/1999/xlink" width="24px" height="24px" viewBox="0 0 24 24" version="1.1">
<g id="surface1">
<path style=" stroke:none;fill-rule:evenodd;fill:rgb(0%,0%,0%);fill-opacity:1;" d="M 21.480469 3.210938 C 22.128906 4.496094 22.445312 5.707031 22.523438 7.203125 C 22.601562 8.660156 22.453125 9.34375 21.753906 10.734375 C 21.164062 11.90625 20.734375 12.503906 19.699219 13.585938 C 18.679688 14.652344 17.570312 15.425781 16.019531 16.144531 C 13.640625 17.25 11.257812 17.855469 8.878906 17.957031 C 6.195312 18.074219 4.089844 17.554688 1.90625 16.238281 C 1.308594 15.878906 0.789062 15.609375 0.753906 15.644531 C 0.402344 15.996094 2.023438 17.742188 3.792969 18.917969 C 8.574219 22.101562 15.675781 21.324219 19.582031 17.183594 C 22.988281 13.574219 24.207031 8.296875 22.496094 4.589844 C 22.160156 3.863281 21.167969 2.28125 21.050781 2.28125 C 21.03125 2.28125 21.226562 2.699219 21.480469 3.210938 M 13.605469 6.726562 C 10.378906 8.976562 7.6875 10.875 7.621094 10.953125 C 7.53125 11.050781 7.546875 11.054688 7.679688 10.960938 C 7.777344 10.894531 10.425781 9.066406 13.558594 6.898438 C 18.972656 3.160156 19.703125 2.640625 19.542969 2.640625 C 19.503906 2.640625 16.832031 4.480469 13.605469 6.726562 M 14.5 6.761719 C 12.148438 8.421875 8.570312 10.914062 6.554688 12.300781 C 4.542969 13.6875 2.90625 14.871094 2.925781 14.933594 C 2.972656 15.113281 4.359375 15.78125 5.292969 16.074219 C 9.042969 17.257812 12.898438 16.707031 16.273438 14.503906 C 18.5 13.050781 19.914062 11.085938 20.582031 8.519531 C 20.847656 7.503906 20.757812 6.652344 20.289062 5.710938 C 19.90625 4.941406 19.101562 3.816406 18.898438 3.769531 C 18.835938 3.753906 16.855469 5.101562 14.5 6.761719 M 16.417969 7.421875 C 14.394531 8.121094 12.75 8.710938 12.769531 8.730469 C 12.816406 8.773438 20.28125 6.757812 20.359375 6.679688 C 20.441406 6.597656 20.285156 6.117188 20.183594 6.136719 C 20.136719 6.144531 18.441406 6.722656 16.417969 7.421875 M 12.121094 10.234375 C 12.152344 10.269531 13.5 10.84375 15.117188 11.507812 C 18.035156 12.714844 18.054688 12.71875 18.289062 12.484375 C 18.480469 12.292969 18.492188 12.238281 18.351562 12.1875 C 18.167969 12.125 12.699219 10.367188 12.300781 10.242188 C 12.167969 10.203125 12.085938 10.199219 12.121094 10.234375 M 10.261719 12.238281 C 10.292969 13.066406 10.355469 14.351562 10.398438 15.101562 L 10.476562 16.460938 L 10.839844 16.390625 C 11.039062 16.351562 11.222656 16.296875 11.246094 16.273438 C 11.292969 16.226562 10.34375 11.070312 10.25 10.859375 C 10.222656 10.792969 10.226562 11.414062 10.261719 12.238281 M 6.792969 11.457031 C 6.472656 11.683594 6.148438 11.929688 6.074219 12.007812 C 6 12.089844 6.277344 11.929688 6.691406 11.652344 C 7.101562 11.375 7.441406 11.125 7.441406 11.09375 C 7.441406 11.011719 7.429688 11.019531 6.792969 11.457031 M 5.308594 12.492188 C 5.03125 12.691406 4.800781 12.878906 4.800781 12.914062 C 4.800781 12.945312 5.042969 12.804688 5.339844 12.601562 C 5.636719 12.394531 5.878906 12.203125 5.878906 12.175781 C 5.878906 12.089844 5.855469 12.105469 5.308594 12.492188 M 3.75 13.570312 C 3.46875 13.769531 3.238281 13.960938 3.238281 13.992188 C 3.238281 14.023438 3.484375 13.882812 3.78125 13.679688 C 4.078125 13.476562 4.320312 13.285156 4.320312 13.253906 C 4.320312 13.171875 4.296875 13.183594 3.75 13.570312 M 2.398438 14.53125 C 2.140625 14.742188 2.136719 14.757812 2.363281 14.648438 C 2.507812 14.578125 2.660156 14.464844 2.699219 14.398438 C 2.808594 14.222656 2.734375 14.257812 2.398438 14.53125 "/>
</g>
</svg>
