<?xml version="1.0" encoding="UTF-8"?>
<svg xmlns="http://www.w3.org/2000/svg" xmlns:xlink="http://www.w3.org/1999/xlink" width="100px" height="100px" viewBox="0 0 100 100" version="1.1">
<g id="surface1">
<path style=" stroke:none;fill-rule:evenodd;fill:rgb(0%,0%,0%);fill-opacity:1;" d="M 89.507812 13.375 C 92.203125 18.734375 93.519531 23.777344 93.851562 30.019531 C 94.175781 36.089844 93.554688 38.925781 90.640625 44.71875 C 88.183594 49.613281 86.394531 52.097656 82.089844 56.605469 C 77.835938 61.054688 73.203125 64.277344 66.753906 67.273438 C 56.832031 71.875 46.90625 74.394531 37 74.824219 C 25.808594 75.308594 17.046875 73.152344 7.945312 67.664062 C 5.449219 66.160156 3.289062 65.046875 3.144531 65.191406 C 1.683594 66.648438 8.429688 73.921875 15.800781 78.824219 C 35.734375 92.097656 65.320312 88.84375 81.59375 71.59375 C 95.78125 56.550781 100.867188 34.574219 93.738281 19.128906 C 92.339844 16.097656 88.207031 9.5 87.707031 9.5 C 87.628906 9.5 88.4375 11.242188 89.507812 13.375 M 56.691406 28.03125 C 43.25 37.398438 32.023438 45.320312 31.75 45.632812 C 31.382812 46.050781 31.445312 46.0625 32 45.675781 C 32.414062 45.386719 43.4375 37.769531 56.5 28.75 C 79.058594 13.167969 82.101562 11 81.421875 11 C 81.261719 11 70.132812 18.664062 56.691406 28.03125 M 60.417969 28.167969 C 50.609375 35.089844 35.714844 45.476562 27.320312 51.25 C 18.921875 57.023438 12.113281 61.964844 12.183594 62.222656 C 12.390625 62.972656 18.164062 65.753906 22.054688 66.984375 C 37.671875 71.910156 53.746094 69.609375 67.804688 60.433594 C 77.082031 54.378906 82.976562 46.191406 85.757812 35.5 C 86.859375 31.257812 86.492188 27.710938 84.542969 23.792969 C 82.945312 20.582031 79.59375 15.90625 78.75 15.707031 C 78.476562 15.640625 70.226562 21.25 60.417969 28.167969 M 68.40625 30.929688 C 59.96875 33.847656 53.128906 36.296875 53.207031 36.371094 C 53.394531 36.558594 84.511719 28.15625 84.835938 27.828125 C 85.179688 27.488281 84.523438 25.484375 84.089844 25.5625 C 83.902344 25.597656 76.847656 28.011719 68.40625 30.929688 M 50.5 42.640625 C 50.636719 42.785156 56.253906 45.179688 62.984375 47.957031 C 75.144531 52.972656 75.222656 53 76.199219 52.023438 C 76.996094 51.226562 77.046875 50.992188 76.464844 50.785156 C 75.695312 50.511719 52.914062 43.191406 51.25 42.683594 C 50.699219 42.511719 50.363281 42.496094 50.5 42.640625 M 42.75 51 C 42.890625 54.4375 43.152344 59.800781 43.332031 62.921875 L 43.652344 68.59375 L 45.164062 68.292969 C 45.996094 68.125 46.761719 67.90625 46.863281 67.804688 C 47.058594 67.609375 43.105469 46.128906 42.714844 45.25 C 42.59375 44.976562 42.609375 47.5625 42.75 51 M 28.308594 47.746094 C 26.964844 48.675781 25.613281 49.707031 25.308594 50.039062 C 25 50.371094 26.15625 49.699219 27.875 48.550781 C 29.59375 47.402344 31 46.359375 31 46.230469 C 31 45.886719 30.953125 45.914062 28.308594 47.746094 M 22.125 52.050781 C 20.957031 52.878906 20 53.664062 20 53.800781 C 20 53.9375 21.011719 53.351562 22.25 52.5 C 23.488281 51.648438 24.5 50.851562 24.5 50.726562 C 24.5 50.382812 24.40625 50.433594 22.125 52.050781 M 15.625 56.550781 C 14.457031 57.378906 13.5 58.164062 13.5 58.300781 C 13.5 58.4375 14.511719 57.851562 15.75 57 C 16.988281 56.148438 18 55.351562 18 55.226562 C 18 54.882812 17.90625 54.933594 15.625 56.550781 M 10 60.542969 C 8.921875 61.425781 8.902344 61.492188 9.847656 61.03125 C 10.449219 60.734375 11.082031 60.269531 11.25 59.996094 C 11.703125 59.265625 11.398438 59.398438 10 60.542969 "/>
</g>
</svg>
