<?xml version="1.0" encoding="UTF-8"?>
<svg xmlns="http://www.w3.org/2000/svg" xmlns:xlink="http://www.w3.org/1999/xlink" width="24px" height="24px" viewBox="0 0 24 24" version="1.1">
<g id="surface1">
<path style=" stroke:none;fill-rule:evenodd;fill:rgb(0%,0%,0%);fill-opacity:1;" d="M 9.109375 0.109375 C 8.378906 0.347656 7.679688 1.140625 7.679688 1.734375 C 7.679688 1.875 7.539062 1.921875 7.085938 1.921875 C 6.582031 1.921875 6.417969 1.980469 6.042969 2.308594 C 5.488281 2.796875 5.164062 3.523438 5.03125 4.566406 C 4.960938 5.136719 4.800781 5.609375 4.488281 6.175781 C 4.140625 6.8125 4.035156 7.152344 3.988281 7.789062 C 3.921875 8.71875 4.101562 9.191406 4.683594 9.621094 C 4.917969 9.792969 5.039062 9.992188 5.039062 10.191406 C 5.042969 10.921875 6.0625 11.859375 7.167969 12.136719 C 7.453125 12.210938 7.988281 12.519531 8.390625 12.839844 C 9.25 13.53125 10.054688 13.863281 10.859375 13.855469 L 11.460938 13.847656 L 11.460938 15.234375 C 11.460938 15.996094 11.5 16.9375 11.554688 17.324219 L 11.644531 18.03125 L 10.671875 17.117188 C 9.535156 16.046875 8.082031 15.261719 6.511719 14.871094 C 5.367188 14.585938 4.761719 14.597656 4.703125 14.910156 C 4.640625 15.226562 5.628906 16.535156 6.613281 17.445312 C 7.671875 18.425781 9.363281 19.316406 10.75 19.617188 C 11.273438 19.730469 11.78125 19.863281 11.878906 19.914062 C 12.152344 20.050781 12.191406 22.234375 11.9375 22.9375 C 11.671875 23.660156 11.667969 23.765625 11.917969 23.921875 C 12.101562 24.039062 12.207031 23.980469 12.613281 23.519531 C 13.457031 22.570312 14.175781 21.5625 14.589844 20.742188 C 14.960938 20.003906 15.027344 19.9375 15.457031 19.863281 C 16.101562 19.753906 16.613281 19.414062 16.992188 18.84375 C 17.273438 18.417969 17.328125 18.183594 17.40625 17.007812 C 17.457031 16.265625 17.535156 15.484375 17.582031 15.273438 C 17.648438 14.972656 17.625 14.867188 17.472656 14.808594 C 17.183594 14.699219 16.742188 14.84375 16.339844 15.183594 L 15.976562 15.484375 L 15.648438 14.882812 C 15.40625 14.4375 15.253906 14.28125 15.054688 14.28125 C 14.785156 14.28125 14.640625 14.484375 14.640625 14.863281 C 14.640625 14.976562 14.421875 15.492188 14.15625 16.011719 C 13.328125 17.632812 13.28125 18.46875 13.976562 19.292969 L 14.265625 19.636719 L 13.851562 20.46875 C 13.621094 20.925781 13.335938 21.429688 13.214844 21.585938 C 13 21.867188 12.996094 21.863281 12.917969 20.828125 C 12.875 20.253906 12.722656 19.289062 12.582031 18.683594 C 12.25 17.257812 12.175781 13.703125 12.480469 13.792969 C 13.351562 14.042969 14.578125 13.683594 15.480469 12.914062 C 15.816406 12.625 16.34375 12.320312 16.707031 12.207031 C 18 11.796875 18.957031 10.941406 18.960938 10.191406 C 18.960938 9.992188 19.082031 9.792969 19.316406 9.621094 C 19.898438 9.191406 20.078125 8.714844 20.011719 7.789062 C 19.964844 7.160156 19.859375 6.816406 19.53125 6.222656 C 19.269531 5.746094 19.082031 5.210938 19.03125 4.800781 C 18.898438 3.710938 18.613281 3.019531 18.054688 2.4375 L 17.539062 1.898438 L 16.765625 1.9375 L 15.992188 1.980469 L 15.851562 1.453125 C 15.578125 0.417969 14.574219 -0.101562 13.171875 0.0546875 C 12.253906 0.160156 11.632812 0.164062 10.378906 0.0742188 C 9.851562 0.0390625 9.28125 0.0507812 9.109375 0.109375 M 9.539062 0.832031 C 8.910156 0.984375 8.652344 1.191406 8.523438 1.652344 C 8.402344 2.078125 8.414062 2.113281 8.785156 2.398438 C 9.582031 3.011719 10.253906 3.679688 10.75 4.351562 C 11.03125 4.734375 11.289062 5.003906 11.316406 4.953125 C 11.347656 4.902344 11.410156 4.617188 11.460938 4.320312 C 11.574219 3.613281 11.71875 3.359375 12 3.359375 C 12.28125 3.359375 12.425781 3.613281 12.539062 4.320312 C 12.589844 4.617188 12.652344 4.902344 12.683594 4.953125 C 12.710938 5.003906 12.96875 4.730469 13.25 4.34375 C 13.535156 3.960938 14.070312 3.378906 14.441406 3.050781 C 15.050781 2.515625 15.117188 2.414062 15.113281 1.980469 C 15.113281 1.714844 15.046875 1.414062 14.964844 1.308594 C 14.582031 0.808594 13.710938 0.652344 12.667969 0.894531 C 11.96875 1.054688 11.785156 1.058594 11.03125 0.898438 C 10.113281 0.703125 10.074219 0.703125 9.539062 0.832031 M 6.625 2.828125 C 6.21875 3.113281 5.882812 3.875 5.769531 4.777344 C 5.699219 5.347656 5.53125 5.855469 5.210938 6.464844 C 4.667969 7.503906 4.574219 8.429688 4.96875 8.867188 C 5.277344 9.210938 5.429688 9.1875 6.054688 8.710938 C 6.746094 8.183594 8.230469 7.613281 9.574219 7.359375 L 10.636719 7.15625 L 10.824219 6.640625 L 11.007812 6.121094 L 10.425781 5.234375 C 9.480469 3.792969 8.058594 2.648438 7.195312 2.644531 C 7.03125 2.640625 6.773438 2.722656 6.625 2.828125 M 16.019531 2.863281 C 15.304688 3.1875 14.230469 4.230469 13.5625 5.25 L 12.96875 6.152344 L 13.152344 6.585938 C 13.257812 6.839844 13.320312 7.269531 13.296875 7.617188 L 13.261719 8.214844 L 14.1875 8.613281 C 15.414062 9.140625 16.65625 9.394531 17.667969 9.328125 C 19.023438 9.234375 19.453125 8.75 19.21875 7.574219 C 19.144531 7.222656 18.921875 6.675781 18.722656 6.363281 C 18.449219 5.941406 18.328125 5.566406 18.242188 4.878906 C 18.0625 3.460938 17.53125 2.636719 16.804688 2.644531 C 16.636719 2.644531 16.285156 2.742188 16.019531 2.863281 M 8.425781 4.824219 C 8.195312 5.054688 8.253906 5.246094 8.640625 5.519531 C 8.839844 5.660156 9 5.816406 9 5.863281 C 9 5.910156 8.761719 6.011719 8.472656 6.089844 C 7.90625 6.242188 7.734375 6.464844 7.957031 6.769531 C 8.089844 6.949219 8.167969 6.949219 8.941406 6.769531 C 10.109375 6.5 10.078125 6.511719 10.078125 6.261719 C 10.078125 5.824219 9.058594 4.679688 8.667969 4.679688 C 8.613281 4.679688 8.503906 4.746094 8.425781 4.824219 M 14.351562 5.816406 C 14.054688 6.121094 13.777344 6.476562 13.738281 6.609375 C 13.640625 6.914062 13.871094 7.199219 14.214844 7.199219 C 14.363281 7.199219 14.730469 7.273438 15.035156 7.367188 C 15.5 7.507812 15.625 7.507812 15.804688 7.375 C 16.097656 7.15625 15.890625 6.824219 15.355469 6.644531 C 14.839844 6.472656 14.792969 6.324219 15.183594 6.070312 C 15.570312 5.816406 15.550781 5.359375 15.152344 5.300781 C 14.964844 5.273438 14.726562 5.425781 14.351562 5.816406 M 11.667969 6.558594 C 11.367188 7.492188 11.445312 7.800781 12 7.800781 C 12.535156 7.800781 12.613281 7.515625 12.328125 6.570312 C 12.195312 6.125 12.050781 5.761719 12.007812 5.761719 C 11.964844 5.761719 11.8125 6.117188 11.667969 6.558594 M 10.039062 8.046875 C 7.96875 8.390625 5.878906 9.441406 5.878906 10.140625 C 5.878906 10.617188 6.503906 11.117188 7.515625 11.449219 C 7.851562 11.558594 8.445312 11.894531 8.832031 12.195312 C 9.21875 12.492188 9.71875 12.816406 9.941406 12.910156 C 10.34375 13.078125 11.179688 13.140625 11.304688 13.015625 C 11.339844 12.980469 11.226562 12.617188 11.054688 12.207031 C 10.773438 11.535156 10.746094 11.320312 10.765625 10.078125 C 10.777344 9.320312 10.800781 8.542969 10.824219 8.351562 C 10.867188 7.941406 10.804688 7.917969 10.039062 8.046875 M 8.886719 8.808594 C 8.410156 8.980469 8.207031 9.238281 8.320312 9.535156 C 8.398438 9.738281 8.621094 9.738281 9.144531 9.535156 C 9.273438 9.488281 9.300781 9.566406 9.265625 9.871094 C 9.210938 10.339844 9.492188 10.679688 9.753906 10.460938 C 9.957031 10.292969 10.367188 8.929688 10.265625 8.765625 C 10.160156 8.597656 9.402344 8.621094 8.886719 8.808594 M 11.589844 8.910156 C 11.355469 10.070312 11.46875 11.3125 11.882812 12.125 C 12.511719 13.359375 13.710938 13.40625 15.042969 12.253906 C 15.34375 11.992188 15.902344 11.667969 16.285156 11.527344 C 17.1875 11.199219 17.476562 11.046875 17.832031 10.71875 C 18.351562 10.238281 18.222656 10.101562 17.226562 10.09375 C 15.894531 10.078125 14.703125 9.757812 13.234375 9.015625 C 12.316406 8.554688 11.671875 8.511719 11.589844 8.910156 M 12.078125 9.441406 C 11.941406 9.582031 11.992188 10.257812 12.191406 10.839844 C 12.347656 11.300781 12.433594 11.398438 12.675781 11.398438 C 13.03125 11.398438 13.128906 11.1875 12.96875 10.761719 C 12.847656 10.449219 12.855469 10.441406 13.308594 10.441406 C 13.632812 10.441406 13.796875 10.378906 13.851562 10.238281 C 13.957031 9.96875 13.808594 9.847656 13.058594 9.589844 C 12.355469 9.34375 12.199219 9.320312 12.078125 9.441406 M 6.109375 15.820312 C 6.652344 16.570312 7.992188 17.671875 8.941406 18.152344 C 9.601562 18.484375 11.164062 18.996094 11.253906 18.90625 C 11.28125 18.878906 10.992188 18.519531 10.605469 18.113281 C 9.453125 16.902344 8.082031 16.078125 6.550781 15.679688 L 5.878906 15.503906 L 6.109375 15.820312 M 14.722656 16.628906 C 14.207031 17.667969 14.152344 18.285156 14.527344 18.765625 C 14.722656 19.011719 14.882812 19.078125 15.257812 19.078125 C 16.171875 19.078125 16.679688 18.226562 16.679688 16.6875 L 16.679688 15.917969 L 16.402344 16.179688 C 16.011719 16.546875 15.640625 16.511719 15.382812 16.085938 L 15.167969 15.734375 L 14.722656 16.628906 "/>
</g>
</svg>
