<?xml version="1.0" encoding="UTF-8"?>
<svg xmlns="http://www.w3.org/2000/svg" xmlns:xlink="http://www.w3.org/1999/xlink" width="100px" height="100px" viewBox="0 0 100 100" version="1.1">
<g id="surface1">
<path style=" stroke:none;fill-rule:evenodd;fill:rgb(0%,0%,0%);fill-opacity:1;" d="M 37.957031 0.449219 C 34.910156 1.441406 32 4.753906 32 7.230469 C 32 7.820312 31.417969 8 29.515625 8 C 27.429688 8 26.742188 8.257812 25.183594 9.625 C 22.867188 11.660156 21.507812 14.679688 20.964844 19.019531 C 20.664062 21.40625 20.003906 23.367188 18.699219 25.738281 C 17.25 28.382812 16.808594 29.796875 16.621094 32.453125 C 16.34375 36.320312 17.089844 38.296875 19.507812 40.085938 C 20.488281 40.808594 21 41.628906 21.003906 42.46875 C 21.007812 45.515625 25.269531 49.414062 29.863281 50.578125 C 31.046875 50.878906 33.285156 52.164062 34.953125 53.5 C 38.546875 56.382812 41.894531 57.757812 45.25 57.726562 L 47.75 57.703125 L 47.75 63.476562 C 47.75 66.652344 47.925781 70.570312 48.136719 72.1875 L 48.523438 75.125 L 44.472656 71.316406 C 39.734375 66.859375 33.683594 63.59375 27.136719 61.960938 C 22.367188 60.769531 19.839844 60.828125 19.589844 62.132812 C 19.34375 63.445312 23.457031 68.902344 27.546875 72.691406 C 31.964844 76.78125 39.015625 80.480469 44.800781 81.738281 C 46.972656 82.214844 49.085938 82.769531 49.5 82.976562 C 50.636719 83.550781 50.804688 92.648438 49.734375 95.570312 C 48.628906 98.585938 48.621094 99.03125 49.652344 99.679688 C 50.421875 100.164062 50.855469 99.914062 52.558594 98 C 56.074219 94.046875 59.0625 89.84375 60.785156 86.421875 C 62.335938 83.351562 62.617188 83.070312 64.398438 82.765625 C 67.089844 82.3125 69.226562 80.890625 70.800781 78.511719 C 71.972656 76.742188 72.195312 75.761719 72.527344 70.867188 C 72.734375 67.777344 73.066406 64.523438 73.265625 63.632812 C 73.542969 62.378906 73.441406 61.945312 72.808594 61.703125 C 71.597656 61.238281 69.761719 61.84375 68.078125 63.261719 L 66.574219 64.523438 L 65.207031 62.011719 C 64.195312 60.152344 63.550781 59.5 62.722656 59.5 C 61.601562 59.5 61 60.347656 61 61.929688 C 61 62.394531 60.09375 64.546875 58.988281 66.710938 C 55.53125 73.46875 55.339844 76.949219 58.234375 80.390625 L 59.441406 81.824219 L 57.707031 85.289062 C 56.753906 87.191406 55.566406 89.28125 55.066406 89.933594 C 54.160156 91.113281 54.15625 91.097656 53.824219 86.78125 C 53.640625 84.394531 53.007812 80.375 52.417969 77.847656 C 51.035156 71.914062 50.730469 57.101562 52 57.464844 C 55.625 58.507812 60.734375 57.007812 64.496094 53.800781 C 65.902344 52.597656 68.101562 51.335938 69.617188 50.859375 C 75.007812 49.160156 78.992188 45.59375 78.996094 42.46875 C 79 41.628906 79.511719 40.808594 80.492188 40.085938 C 82.90625 38.300781 83.65625 36.320312 83.382812 32.457031 C 83.195312 29.839844 82.753906 28.398438 81.386719 25.921875 C 80.289062 23.941406 79.503906 21.714844 79.296875 20 C 78.746094 15.464844 77.554688 12.574219 75.234375 10.15625 L 73.085938 7.910156 L 69.863281 8.082031 L 66.636719 8.25 L 66.054688 6.0625 C 64.902344 1.746094 60.734375 -0.429688 54.890625 0.234375 C 51.0625 0.667969 48.46875 0.683594 43.25 0.3125 C 41.050781 0.15625 38.667969 0.21875 37.957031 0.449219 M 39.75 3.464844 C 37.128906 4.097656 36.058594 4.960938 35.515625 6.882812 C 35.007812 8.664062 35.058594 8.808594 36.609375 10 C 39.929688 12.554688 42.722656 15.332031 44.796875 18.132812 C 45.972656 19.71875 47.03125 20.84375 47.15625 20.632812 C 47.28125 20.421875 47.550781 19.238281 47.75 18 C 48.230469 15.050781 48.820312 14 50 14 C 51.179688 14 51.769531 15.050781 52.25 18 C 52.449219 19.238281 52.71875 20.421875 52.84375 20.632812 C 52.96875 20.84375 54.035156 19.703125 55.214844 18.101562 C 56.398438 16.496094 58.628906 14.074219 60.175781 12.714844 C 62.71875 10.484375 62.988281 10.058594 62.976562 8.25 C 62.972656 7.148438 62.695312 5.894531 62.359375 5.457031 C 60.753906 3.367188 57.136719 2.714844 52.777344 3.726562 C 49.863281 4.402344 49.105469 4.402344 45.964844 3.742188 C 42.132812 2.9375 41.96875 2.929688 39.75 3.464844 M 27.605469 11.78125 C 25.90625 12.972656 24.515625 16.140625 24.042969 19.910156 C 23.746094 22.277344 23.042969 24.398438 21.710938 26.945312 C 19.445312 31.265625 19.058594 35.125 20.703125 36.945312 C 21.992188 38.375 22.621094 38.285156 25.226562 36.292969 C 28.105469 34.09375 34.289062 31.722656 39.898438 30.660156 L 44.320312 29.824219 L 45.097656 27.667969 L 45.871094 25.507812 L 43.445312 21.816406 C 39.496094 15.796875 33.570312 11.042969 29.988281 11.011719 C 29.289062 11.003906 28.21875 11.351562 27.605469 11.78125 M 66.75 11.933594 C 63.773438 13.285156 59.296875 17.632812 56.511719 21.878906 L 54.042969 25.636719 L 54.804688 27.445312 C 55.242188 28.492188 55.496094 30.292969 55.40625 31.738281 L 55.25 34.222656 L 59.113281 35.886719 C 64.222656 38.085938 69.402344 39.148438 73.609375 38.863281 C 79.261719 38.480469 81.058594 36.449219 80.070312 31.566406 C 79.773438 30.089844 78.84375 27.816406 78.011719 26.519531 C 76.878906 24.753906 76.371094 23.1875 76.011719 20.332031 C 75.261719 14.414062 73.054688 10.984375 70.011719 11.011719 C 69.320312 11.015625 67.851562 11.429688 66.75 11.933594 M 35.101562 20.101562 C 34.144531 21.054688 34.390625 21.855469 36 23 C 36.824219 23.585938 37.5 24.230469 37.5 24.429688 C 37.5 24.628906 36.515625 25.054688 35.308594 25.378906 C 32.933594 26.011719 32.230469 26.941406 33.160156 28.210938 C 33.707031 28.957031 34.027344 28.957031 37.25 28.210938 C 42.125 27.078125 42 27.136719 42 26.089844 C 42 24.265625 37.746094 19.5 36.117188 19.5 C 35.886719 19.5 35.429688 19.769531 35.101562 20.101562 M 59.792969 24.234375 C 58.5625 25.5 57.414062 26.988281 57.238281 27.539062 C 56.832031 28.816406 57.792969 30 59.230469 30 C 59.84375 30 61.378906 30.3125 62.648438 30.695312 C 64.578125 31.273438 65.109375 31.28125 65.855469 30.722656 C 67.070312 29.820312 66.214844 28.4375 63.972656 27.691406 C 61.824219 26.976562 61.640625 26.351562 63.261719 25.289062 C 64.871094 24.234375 64.796875 22.328125 63.136719 22.09375 C 62.355469 21.980469 61.367188 22.613281 59.792969 24.234375 M 48.625 27.324219 C 47.355469 31.222656 47.695312 32.5 50 32.5 C 52.230469 32.5 52.546875 31.308594 51.367188 27.375 C 50.808594 25.519531 50.207031 24 50.027344 24 C 49.847656 24 49.21875 25.496094 48.625 27.324219 M 41.828125 33.527344 C 33.195312 34.964844 24.5 39.339844 24.5 42.246094 C 24.5 44.242188 27.09375 46.316406 31.3125 47.699219 C 32.722656 48.160156 35.191406 49.558594 36.800781 50.808594 C 38.40625 52.058594 40.488281 53.398438 41.421875 53.789062 C 43.09375 54.488281 46.574219 54.757812 47.101562 54.230469 C 47.25 54.085938 46.785156 52.566406 46.066406 50.855469 C 44.894531 48.058594 44.773438 47.175781 44.851562 42 C 44.898438 38.835938 45.007812 35.597656 45.09375 34.800781 C 45.277344 33.09375 45.027344 32.996094 41.828125 33.527344 M 37.035156 36.695312 C 35.042969 37.414062 34.199219 38.5 34.675781 39.734375 C 34.996094 40.578125 35.914062 40.578125 38.105469 39.738281 C 38.636719 39.53125 38.757812 39.863281 38.609375 41.136719 C 38.382812 43.082031 39.554688 44.492188 40.648438 43.585938 C 41.488281 42.886719 43.191406 37.214844 42.765625 36.527344 C 42.335938 35.828125 39.179688 35.921875 37.035156 36.695312 M 48.289062 37.125 C 47.3125 41.957031 47.78125 47.132812 49.507812 50.511719 C 52.132812 55.660156 57.128906 55.867188 62.6875 51.054688 C 63.9375 49.972656 66.261719 48.613281 67.855469 48.03125 C 71.617188 46.65625 72.824219 46.027344 74.292969 44.667969 C 76.460938 42.65625 75.925781 42.097656 71.777344 42.054688 C 66.226562 41.996094 61.257812 40.65625 55.136719 37.570312 C 51.324219 35.644531 48.625 35.46875 48.289062 37.125 M 50.332031 39.332031 C 49.75 39.917969 49.972656 42.746094 50.796875 45.160156 C 51.453125 47.089844 51.808594 47.5 52.8125 47.5 C 54.300781 47.5 54.707031 46.609375 54.03125 44.835938 C 53.535156 43.53125 53.570312 43.5 55.460938 43.5 C 56.804688 43.5 57.492188 43.246094 57.714844 42.667969 C 58.148438 41.535156 57.53125 41.03125 54.410156 39.953125 C 51.472656 38.9375 50.828125 38.839844 50.332031 39.332031 M 25.460938 65.921875 C 27.710938 69.039062 33.300781 73.640625 37.25 75.628906 C 40.011719 77.019531 46.519531 79.148438 46.886719 78.78125 C 47.011719 78.652344 45.796875 77.160156 44.183594 75.464844 C 39.390625 70.421875 33.671875 66.988281 27.300781 65.328125 L 24.5 64.59375 L 25.460938 65.921875 M 61.347656 69.285156 C 59.203125 73.617188 58.96875 76.1875 60.535156 78.183594 C 61.347656 79.214844 62.007812 79.5 63.574219 79.5 C 67.382812 79.5 69.492188 75.949219 69.496094 69.539062 L 69.5 66.324219 L 68.34375 67.414062 C 66.714844 68.941406 65.167969 68.800781 64.089844 67.027344 L 63.191406 65.554688 L 61.347656 69.285156 "/>
</g>
</svg>
