<?xml version="1.0" encoding="UTF-8"?>
<svg xmlns="http://www.w3.org/2000/svg" xmlns:xlink="http://www.w3.org/1999/xlink" width="24px" height="24px" viewBox="0 0 24 24" version="1.1">
<g id="surface1">
<path style=" stroke:none;fill-rule:evenodd;fill:rgb(0%,0%,0%);fill-opacity:1;" d="M 10.1875 1.375 C 8.8125 1.753906 7.691406 2.691406 7.097656 3.960938 C 6.851562 4.488281 6.78125 4.851562 6.742188 5.800781 C 6.695312 6.84375 6.660156 7.011719 6.40625 7.261719 C 6.15625 7.511719 6.121094 7.664062 6.121094 8.425781 L 6.121094 9.304688 L 4.261719 11.160156 C 3.238281 12.179688 2.398438 13.070312 2.398438 13.140625 C 2.398438 13.207031 4.558594 15.421875 7.199219 18.058594 L 12 22.859375 L 16.800781 18.058594 C 19.441406 15.421875 21.601562 13.207031 21.601562 13.140625 C 21.601562 13.070312 20.761719 12.179688 19.738281 11.160156 L 17.878906 9.304688 L 17.878906 8.449219 C 17.878906 7.714844 17.839844 7.550781 17.59375 7.285156 C 17.34375 7.015625 17.300781 6.835938 17.257812 5.800781 C 17.21875 4.851562 17.148438 4.488281 16.902344 3.960938 C 16.296875 2.667969 15.183594 1.746094 13.757812 1.367188 C 12.996094 1.164062 10.933594 1.167969 10.1875 1.375 M 10.378906 1.730469 C 8.859375 2.105469 7.539062 3.328125 7.257812 4.621094 L 7.179688 4.980469 L 7.441406 4.589844 C 7.585938 4.375 7.75 4.199219 7.804688 4.199219 C 8.015625 4.199219 8.054688 4.464844 7.871094 4.667969 C 7.667969 4.894531 7.640625 5.195312 7.789062 5.578125 C 7.875 5.792969 7.914062 5.761719 8.140625 5.316406 C 8.285156 5.035156 8.398438 4.675781 8.398438 4.511719 C 8.398438 4.175781 8.929688 3.488281 9.074219 3.632812 C 9.125 3.683594 9.074219 3.882812 8.964844 4.070312 C 8.761719 4.414062 8.679688 5.519531 8.839844 5.679688 C 8.964844 5.804688 9.359375 5.136719 9.359375 4.800781 C 9.363281 3.992188 10.042969 2.792969 10.332031 3.082031 C 10.433594 3.183594 10.394531 3.320312 10.167969 3.621094 C 9.8125 4.089844 9.65625 4.707031 9.816406 4.992188 C 9.917969 5.175781 9.953125 5.160156 10.140625 4.878906 C 10.253906 4.703125 10.613281 4.386719 10.933594 4.179688 L 11.519531 3.800781 L 11.519531 2.679688 C 11.519531 1.402344 11.558594 1.4375 10.378906 1.730469 M 11.878906 2.816406 L 11.878906 4.074219 L 11.417969 4.308594 C 10.855469 4.597656 10.230469 5.289062 10.132812 5.730469 C 10.011719 6.285156 9.964844 6.378906 9.851562 6.304688 C 9.789062 6.269531 9.699219 6.066406 9.65625 5.859375 L 9.570312 5.480469 L 9.347656 5.769531 C 9.226562 5.929688 9.125 6.207031 9.121094 6.390625 C 9.117188 6.898438 8.792969 6.800781 8.625 6.238281 C 8.546875 5.976562 8.441406 5.761719 8.394531 5.761719 C 8.257812 5.761719 8.160156 6.273438 8.238281 6.574219 C 8.367188 7.070312 7.925781 6.878906 7.671875 6.328125 L 7.433594 5.820312 L 7.472656 8.699219 C 7.515625 12.066406 7.613281 12.476562 8.65625 13.617188 C 10.960938 16.136719 14.925781 15.335938 16.238281 12.085938 C 16.464844 11.523438 16.496094 11.179688 16.527344 8.640625 L 16.566406 5.820312 L 16.328125 6.328125 C 16.070312 6.886719 15.636719 7.066406 15.761719 6.566406 C 15.839844 6.261719 15.742188 5.761719 15.605469 5.761719 C 15.558594 5.761719 15.453125 5.976562 15.375 6.238281 C 15.222656 6.742188 14.878906 6.90625 14.878906 6.472656 C 14.878906 6.339844 14.789062 6.054688 14.679688 5.84375 L 14.480469 5.460938 L 14.351562 5.839844 C 14.117188 6.519531 14.035156 6.5 13.867188 5.730469 C 13.769531 5.289062 13.144531 4.597656 12.582031 4.308594 L 12.121094 4.074219 L 12.121094 2.816406 C 12.121094 2.058594 12.074219 1.558594 12 1.558594 C 11.925781 1.558594 11.878906 2.058594 11.878906 2.816406 M 12.480469 2.679688 L 12.480469 3.800781 L 13.066406 4.179688 C 13.386719 4.386719 13.746094 4.703125 13.859375 4.878906 C 14.046875 5.160156 14.082031 5.175781 14.183594 4.992188 C 14.34375 4.707031 14.1875 4.089844 13.832031 3.621094 C 13.601562 3.3125 13.566406 3.1875 13.675781 3.078125 C 13.78125 2.972656 13.859375 2.996094 14 3.179688 C 14.320312 3.59375 14.632812 4.363281 14.636719 4.738281 C 14.640625 5.125 15.023438 5.816406 15.160156 5.679688 C 15.203125 5.636719 15.238281 5.320312 15.238281 4.976562 C 15.238281 4.53125 15.171875 4.261719 14.996094 4.042969 C 14.824219 3.824219 14.796875 3.710938 14.898438 3.648438 C 15.109375 3.519531 15.601562 4.15625 15.601562 4.558594 C 15.601562 4.75 15.71875 5.105469 15.863281 5.351562 C 16.09375 5.738281 16.136719 5.765625 16.214844 5.566406 C 16.359375 5.195312 16.332031 4.890625 16.128906 4.667969 C 15.945312 4.464844 15.984375 4.199219 16.195312 4.199219 C 16.25 4.199219 16.414062 4.375 16.558594 4.589844 L 16.820312 4.980469 L 16.742188 4.621094 C 16.632812 4.117188 16.144531 3.3125 15.648438 2.816406 C 15.140625 2.308594 14.507812 1.976562 13.597656 1.738281 C 12.4375 1.4375 12.480469 1.398438 12.480469 2.679688 M 9.058594 7.128906 C 8.75 7.4375 8.660156 7.800781 8.894531 7.800781 C 8.964844 7.800781 9.128906 7.667969 9.257812 7.507812 C 9.445312 7.269531 9.617188 7.203125 10.144531 7.175781 C 11.054688 7.125 11.03125 6.90625 10.109375 6.863281 C 9.445312 6.832031 9.328125 6.863281 9.058594 7.128906 M 13.160156 6.921875 C 12.960938 7.121094 13.128906 7.199219 13.746094 7.199219 C 14.296875 7.199219 14.464844 7.253906 14.710938 7.5 C 15.019531 7.808594 15.238281 7.886719 15.238281 7.691406 C 15.238281 7.417969 15.066406 7.179688 14.75 7.015625 C 14.410156 6.839844 13.308594 6.773438 13.160156 6.921875 M 6.679688 7.539062 C 6.277344 7.984375 6.503906 9.71875 6.96875 9.71875 C 7.03125 9.71875 7.078125 9.191406 7.078125 8.519531 C 7.078125 7.859375 7.035156 7.320312 6.980469 7.320312 C 6.921875 7.320312 6.789062 7.417969 6.679688 7.539062 M 16.921875 8.519531 C 16.921875 9.191406 16.96875 9.71875 17.03125 9.71875 C 17.511719 9.71875 17.730469 7.910156 17.300781 7.519531 C 17.179688 7.410156 17.042969 7.320312 17 7.320312 C 16.957031 7.320312 16.921875 7.859375 16.921875 8.519531 M 9.601562 7.882812 C 9.285156 8 8.878906 8.433594 8.878906 8.652344 C 8.878906 9.015625 9.113281 9.03125 9.257812 8.675781 C 9.382812 8.378906 9.402344 8.367188 9.453125 8.578125 C 9.59375 9.203125 10.289062 9.339844 10.636719 8.8125 C 10.808594 8.546875 10.855469 8.527344 10.945312 8.691406 C 11.003906 8.792969 11.128906 8.878906 11.226562 8.878906 C 11.433594 8.878906 11.433594 8.867188 11.28125 8.460938 C 11.097656 7.984375 10.1875 7.671875 9.601562 7.882812 M 13.230469 7.972656 C 12.914062 8.117188 12.601562 8.539062 12.601562 8.828125 C 12.601562 8.96875 12.976562 8.855469 13.035156 8.699219 C 13.089844 8.558594 13.152344 8.582031 13.339844 8.820312 C 13.714844 9.292969 14.285156 9.203125 14.5 8.636719 L 14.617188 8.339844 L 14.746094 8.675781 C 14.886719 9.03125 15.121094 9.015625 15.121094 8.652344 C 15.121094 8.046875 13.976562 7.636719 13.230469 7.972656 M 9.96875 8.273438 C 9.769531 8.398438 9.886719 8.761719 10.125 8.761719 C 10.21875 8.761719 10.324219 8.683594 10.359375 8.589844 C 10.445312 8.363281 10.175781 8.144531 9.96875 8.273438 M 13.667969 8.351562 C 13.5625 8.480469 13.558594 8.566406 13.652344 8.660156 C 13.820312 8.828125 14.160156 8.703125 14.160156 8.476562 C 14.160156 8.226562 13.839844 8.144531 13.667969 8.351562 M 4.542969 11.480469 L 2.824219 13.199219 L 4.855469 15.238281 L 7.679688 15.238281 L 7.679688 14.128906 C 7.679688 13.296875 7.617188 12.855469 7.429688 12.363281 C 7.292969 12.003906 7.152344 11.355469 7.113281 10.925781 C 7.050781 10.183594 7.027344 10.128906 6.652344 9.949219 L 6.257812 9.757812 L 4.542969 11.480469 M 17.324219 9.953125 C 16.980469 10.125 16.945312 10.199219 16.882812 10.871094 C 16.84375 11.277344 16.703125 11.894531 16.566406 12.253906 C 16.378906 12.746094 16.320312 13.179688 16.320312 14.070312 L 16.320312 15.238281 L 19.144531 15.238281 L 21.175781 13.199219 L 19.4375 11.480469 L 17.699219 9.765625 L 17.324219 9.953125 M 11.242188 10.054688 C 10.820312 10.523438 11.113281 11.375 11.765625 11.582031 C 12.078125 11.679688 12.71875 11.429688 12.71875 11.207031 C 12.71875 11.007812 12.550781 10.996094 12.222656 11.167969 C 11.707031 11.445312 11.128906 10.640625 11.542969 10.222656 C 11.640625 10.125 11.648438 10.039062 11.566406 9.957031 C 11.480469 9.875 11.378906 9.90625 11.242188 10.054688 M 10.398438 12.320312 C 10.304688 12.414062 10.621094 12.949219 10.898438 13.171875 C 11.011719 13.261719 11.449219 13.320312 12 13.320312 C 12.550781 13.320312 12.988281 13.261719 13.101562 13.171875 C 13.378906 12.949219 13.695312 12.414062 13.601562 12.320312 C 13.496094 12.214844 10.503906 12.214844 10.398438 12.320312 M 11.039062 12.78125 C 11.144531 12.90625 11.425781 12.960938 12 12.960938 C 12.574219 12.960938 12.855469 12.90625 12.960938 12.78125 C 13.089844 12.621094 12.972656 12.601562 12 12.601562 C 11.027344 12.601562 10.910156 12.621094 11.039062 12.78125 M 15.542969 13.902344 C 13.800781 15.90625 10.488281 15.992188 8.582031 14.085938 L 8.039062 13.542969 L 8.039062 15.421875 L 11.34375 18.71875 L 12.664062 18.71875 L 15.96875 15.40625 L 15.933594 14.449219 L 15.898438 13.496094 L 15.542969 13.902344 M 11.398438 13.738281 C 11.398438 13.875 11.546875 13.921875 12 13.921875 C 12.453125 13.921875 12.601562 13.875 12.601562 13.738281 C 12.601562 13.605469 12.453125 13.558594 12 13.558594 C 11.546875 13.558594 11.398438 13.605469 11.398438 13.738281 M 5.398438 15.691406 C 5.398438 15.742188 6.695312 17.078125 8.28125 18.660156 L 11.160156 21.539062 L 11.160156 19.015625 L 7.738281 15.601562 L 6.570312 15.601562 C 5.925781 15.601562 5.398438 15.640625 5.398438 15.691406 M 14.546875 17.3125 L 12.839844 19.023438 L 12.839844 21.539062 L 15.71875 18.660156 C 17.304688 17.078125 18.601562 15.742188 18.601562 15.691406 C 18.601562 15.640625 18.074219 15.601562 17.429688 15.601562 L 16.257812 15.601562 L 14.546875 17.3125 M 11.519531 20.5 C 11.519531 21.769531 11.546875 21.945312 11.761719 22.140625 C 11.992188 22.351562 12.007812 22.351562 12.238281 22.140625 C 12.453125 21.945312 12.480469 21.769531 12.480469 20.5 L 12.480469 19.078125 L 11.519531 19.078125 L 11.519531 20.5 "/>
</g>
</svg>
