<?xml version="1.0" encoding="UTF-8"?>
<svg xmlns="http://www.w3.org/2000/svg" xmlns:xlink="http://www.w3.org/1999/xlink" width="100px" height="100px" viewBox="0 0 100 100" version="1.1">
<g id="surface1">
<path style=" stroke:none;fill-rule:evenodd;fill:rgb(0%,0%,0%);fill-opacity:1;" d="M 42.445312 5.722656 C 36.710938 7.304688 32.042969 11.214844 29.574219 16.5 C 28.546875 18.707031 28.25 20.222656 28.085938 24.160156 C 27.902344 28.519531 27.746094 29.207031 26.691406 30.265625 C 25.652344 31.300781 25.5 31.925781 25.5 35.109375 L 25.5 38.761719 L 17.75 46.5 C 13.488281 50.757812 10 54.464844 10 54.746094 C 10 55.027344 19 64.253906 30 75.25 L 50 95.246094 L 70 75.25 C 81 64.253906 90 55.027344 90 54.746094 C 90 54.464844 86.511719 50.757812 82.25 46.5 L 74.5 38.761719 L 74.5 35.203125 C 74.5 32.148438 74.332031 31.464844 73.308594 30.363281 C 72.261719 29.230469 72.09375 28.488281 71.914062 24.164062 C 71.75 20.222656 71.453125 18.707031 70.425781 16.5 C 67.90625 11.109375 63.261719 7.277344 57.324219 5.699219 C 54.144531 4.851562 45.558594 4.867188 42.445312 5.722656 M 43.25 7.203125 C 36.90625 8.777344 31.40625 13.871094 30.246094 19.25 L 29.921875 20.75 L 31.007812 19.125 C 31.609375 18.230469 32.289062 17.5 32.519531 17.5 C 33.40625 17.5 33.5625 18.601562 32.800781 19.445312 C 31.945312 20.390625 31.832031 21.640625 32.460938 23.25 C 32.804688 24.132812 32.976562 24 33.925781 22.144531 C 34.515625 20.988281 35 19.480469 35 18.796875 C 35 17.402344 37.199219 14.535156 37.804688 15.140625 C 38.023438 15.355469 37.816406 16.175781 37.347656 16.96875 C 36.511719 18.382812 36.160156 22.992188 36.835938 23.671875 C 37.355469 24.1875 38.992188 21.410156 39 20 C 39.015625 16.640625 41.839844 11.640625 43.042969 12.84375 C 43.472656 13.273438 43.304688 13.832031 42.363281 15.082031 C 40.890625 17.042969 40.234375 19.613281 40.902344 20.808594 C 41.324219 21.558594 41.472656 21.503906 42.246094 20.324219 C 42.726562 19.59375 44.21875 18.28125 45.558594 17.414062 L 48 15.832031 L 48 11.164062 C 48 5.851562 48.164062 5.988281 43.25 7.203125 M 49.5 11.738281 L 49.5 16.980469 L 47.578125 17.960938 C 45.226562 19.160156 42.617188 22.039062 42.214844 23.882812 C 41.710938 26.195312 41.523438 26.574219 41.042969 26.277344 C 40.785156 26.117188 40.421875 25.277344 40.230469 24.410156 L 39.882812 22.828125 L 38.953125 24.039062 C 38.441406 24.707031 38.015625 25.867188 38.011719 26.625 C 37.992188 28.738281 36.640625 28.328125 35.941406 26 C 35.613281 24.898438 35.175781 24 34.976562 24 C 34.410156 24 34 26.148438 34.328125 27.390625 C 34.867188 29.453125 33.027344 28.664062 31.964844 26.375 L 30.976562 24.25 L 31.132812 36.25 C 31.316406 50.273438 31.726562 51.976562 36.074219 56.738281 C 45.671875 67.238281 62.191406 63.902344 67.660156 50.359375 C 68.609375 48.011719 68.730469 46.578125 68.871094 36 L 69.023438 24.25 L 68.035156 26.375 C 66.960938 28.6875 65.15625 29.441406 65.675781 27.359375 C 65.996094 26.09375 65.585938 24 65.019531 24 C 64.820312 24 64.386719 24.898438 64.058594 26 C 63.429688 28.097656 62 28.777344 62 26.976562 C 62 26.410156 61.628906 25.230469 61.171875 24.351562 L 60.34375 22.75 L 59.796875 24.339844 C 58.828125 27.160156 58.484375 27.082031 57.785156 23.882812 C 57.382812 22.039062 54.773438 19.160156 52.421875 17.960938 L 50.5 16.980469 L 50.5 11.738281 C 50.5 8.578125 50.300781 6.5 50 6.5 C 49.699219 6.5 49.5 8.578125 49.5 11.738281 M 52 11.164062 L 52 15.832031 L 54.441406 17.414062 C 55.78125 18.28125 57.273438 19.59375 57.753906 20.324219 C 58.527344 21.503906 58.675781 21.558594 59.097656 20.808594 C 59.765625 19.613281 59.109375 17.042969 57.636719 15.082031 C 56.675781 13.800781 56.523438 13.28125 56.976562 12.832031 C 57.425781 12.386719 57.75 12.488281 58.339844 13.25 C 59.664062 14.96875 60.976562 18.1875 60.992188 19.75 C 61.007812 21.351562 62.601562 24.234375 63.164062 23.671875 C 63.347656 23.484375 63.5 22.164062 63.5 20.734375 C 63.5 18.882812 63.210938 17.765625 62.492188 16.851562 C 61.761719 15.925781 61.648438 15.46875 62.074219 15.203125 C 62.953125 14.660156 65 17.316406 65 19 C 65 19.792969 65.492188 21.277344 66.09375 22.296875 C 67.050781 23.917969 67.230469 24.027344 67.558594 23.199219 C 68.167969 21.640625 68.046875 20.382812 67.199219 19.445312 C 66.4375 18.601562 66.59375 17.5 67.480469 17.5 C 67.710938 17.5 68.390625 18.230469 68.992188 19.125 L 70.078125 20.75 L 69.753906 19.25 C 69.304688 17.164062 67.269531 13.804688 65.210938 11.742188 C 63.089844 9.621094 60.449219 8.234375 56.660156 7.246094 C 51.816406 5.984375 52 5.828125 52 11.164062 M 37.75 29.703125 C 36.457031 30.996094 36.082031 32.5 37.054688 32.5 C 37.355469 32.5 38.039062 31.949219 38.570312 31.273438 C 39.347656 30.285156 40.0625 30.019531 42.273438 29.898438 C 46.058594 29.691406 45.957031 28.785156 42.125 28.601562 C 39.355469 28.46875 38.863281 28.59375 37.75 29.703125 M 54.832031 28.832031 C 54.003906 29.664062 54.703125 30 57.273438 30 C 59.5625 30 60.261719 30.21875 61.296875 31.25 C 62.574219 32.527344 63.5 32.859375 63.5 32.039062 C 63.5 30.914062 62.773438 29.90625 61.464844 29.230469 C 60.035156 28.492188 55.449219 28.21875 54.832031 28.832031 M 27.828125 31.414062 C 26.148438 33.269531 27.105469 40.5 29.027344 40.5 C 29.292969 40.5 29.5 38.300781 29.5 35.5 C 29.5 32.75 29.308594 30.5 29.078125 30.5 C 28.84375 30.5 28.28125 30.910156 27.828125 31.414062 M 70.5 35.5 C 70.5 38.300781 70.707031 40.5 70.972656 40.5 C 72.964844 40.5 73.882812 32.953125 72.085938 31.328125 C 71.582031 30.871094 71.019531 30.5 70.835938 30.5 C 70.652344 30.5 70.5 32.75 70.5 35.5 M 40 32.851562 C 38.695312 33.332031 37 35.140625 37 36.058594 C 37 37.570312 37.972656 37.628906 38.578125 36.15625 C 39.089844 34.914062 39.183594 34.867188 39.382812 35.75 C 39.96875 38.347656 42.878906 38.914062 44.320312 36.710938 C 45.039062 35.613281 45.230469 35.539062 45.609375 36.210938 C 45.851562 36.644531 46.375 37 46.773438 37 C 47.636719 37 47.644531 36.941406 47.003906 35.257812 C 46.246094 33.269531 42.441406 31.960938 40 32.851562 M 55.121094 33.222656 C 53.804688 33.8125 52.5 35.585938 52.5 36.78125 C 52.5 37.363281 54.066406 36.90625 54.320312 36.25 C 54.546875 35.65625 54.808594 35.757812 55.589844 36.75 C 57.140625 38.722656 59.519531 38.347656 60.421875 35.984375 L 60.898438 34.75 L 61.449219 36.15625 C 62.027344 37.628906 63 37.570312 63 36.058594 C 63 33.527344 58.242188 31.8125 55.121094 33.222656 M 41.535156 34.476562 C 40.707031 34.988281 41.191406 36.5 42.179688 36.5 C 42.574219 36.5 43.015625 36.179688 43.167969 35.785156 C 43.53125 34.839844 42.40625 33.941406 41.535156 34.476562 M 56.957031 34.800781 C 56.511719 35.335938 56.492188 35.695312 56.886719 36.085938 C 57.578125 36.777344 59 36.261719 59 35.320312 C 59 34.277344 57.671875 33.941406 56.957031 34.800781 M 18.921875 47.828125 L 11.765625 54.996094 L 15.996094 59.246094 L 20.226562 63.5 L 32 63.5 L 32 58.875 C 32 55.40625 31.742188 53.570312 30.960938 51.519531 C 30.390625 50.019531 29.796875 47.320312 29.644531 45.519531 C 29.378906 42.425781 29.273438 42.207031 27.71875 41.457031 L 26.074219 40.664062 L 18.921875 47.828125 M 72.1875 41.46875 C 70.753906 42.183594 70.601562 42.503906 70.339844 45.300781 C 70.179688 46.980469 69.589844 49.570312 69.027344 51.050781 C 68.246094 53.101562 68 54.921875 68 58.625 L 68 63.5 L 79.773438 63.5 L 84.003906 59.246094 L 88.238281 54.992188 L 80.992188 47.839844 L 73.75 40.6875 L 72.1875 41.46875 M 46.839844 41.902344 C 45.085938 43.839844 46.304688 47.394531 49.019531 48.257812 C 50.328125 48.671875 53 47.621094 53 46.691406 C 53 45.863281 52.289062 45.808594 50.933594 46.535156 C 48.785156 47.683594 46.367188 44.332031 48.101562 42.601562 C 48.507812 42.191406 48.539062 41.835938 48.1875 41.488281 C 47.839844 41.140625 47.410156 41.269531 46.839844 41.902344 M 43.332031 51.335938 C 42.945312 51.722656 44.253906 53.960938 45.40625 54.875 C 45.878906 55.25 47.707031 55.5 50 55.5 C 52.292969 55.5 54.121094 55.25 54.59375 54.875 C 55.746094 53.960938 57.054688 51.722656 56.667969 51.335938 C 56.230469 50.898438 43.769531 50.898438 43.332031 51.335938 M 46 53.25 C 46.441406 53.78125 47.609375 54 50 54 C 52.390625 54 53.558594 53.78125 54 53.25 C 54.546875 52.59375 54.050781 52.5 50 52.5 C 45.949219 52.5 45.453125 52.59375 46 53.25 M 64.769531 57.933594 C 57.5 66.269531 43.707031 66.628906 35.765625 58.6875 L 33.5 56.421875 L 33.5 64.261719 L 40.382812 71.132812 L 47.261719 78 L 52.761719 78 L 66.542969 64.195312 L 66.398438 60.214844 L 66.25 56.234375 L 64.769531 57.933594 M 47.5 57.25 C 47.5 57.816406 48.109375 58 50 58 C 51.890625 58 52.5 57.816406 52.5 57.25 C 52.5 56.683594 51.890625 56.5 50 56.5 C 48.109375 56.5 47.5 56.683594 47.5 57.25 M 22.5 65.378906 C 22.5 65.585938 27.898438 71.15625 34.5 77.75 L 46.5 89.742188 L 46.5 79.238281 L 39.367188 72.117188 L 32.238281 65 L 27.367188 65 C 24.691406 65 22.5 65.171875 22.5 65.378906 M 60.617188 72.132812 L 53.5 79.261719 L 53.5 89.742188 L 65.5 77.75 C 72.101562 71.15625 77.5 65.585938 77.5 65.378906 C 77.5 65.171875 75.304688 65 72.617188 65 L 67.738281 65 L 60.617188 72.132812 M 48 85.421875 C 48 90.710938 48.105469 91.441406 49 92.25 C 49.964844 93.125 50.035156 93.125 51 92.25 C 51.894531 91.441406 52 90.710938 52 85.421875 L 52 79.5 L 48 79.5 L 48 85.421875 "/>
</g>
</svg>
