<?xml version="1.0" encoding="UTF-8"?>
<svg xmlns="http://www.w3.org/2000/svg" xmlns:xlink="http://www.w3.org/1999/xlink" width="100px" height="100px" viewBox="0 0 100 100" version="1.1">
<g id="surface1">
<path style=" stroke:none;fill-rule:evenodd;fill:rgb(0%,0%,0%);fill-opacity:1;" d="M 26.335938 3.523438 C 24.785156 4.742188 23.871094 7.59375 24.496094 9.242188 C 24.828125 10.113281 25.476562 10.488281 27.09375 10.75 C 30.339844 11.273438 40.15625 13.566406 40.929688 13.984375 C 41.335938 14.203125 40.632812 14.480469 39.179688 14.679688 C 30.101562 15.910156 20.394531 22.609375 16.339844 30.441406 C 14.371094 34.25 14.078125 35.28125 13.742188 39.683594 C 13.605469 41.449219 12.820312 45.082031 11.996094 47.757812 C 10.238281 53.476562 10.136719 55.648438 11.523438 57.917969 C 12.484375 59.496094 12.507812 59.859375 11.9375 64.425781 C 11.292969 69.582031 11.507812 71.496094 12.886719 72.90625 C 13.503906 73.53125 13.773438 74.710938 13.828125 77.015625 C 13.875 78.910156 14.558594 82.53125 15.476562 85.75 C 16.578125 89.628906 17.007812 92.125 16.929688 94.21875 C 16.800781 97.664062 17.039062 97.859375 20.40625 97.015625 C 26.710938 95.441406 37.019531 88.957031 40.378906 84.457031 L 42.164062 82.0625 L 44.957031 84.25 C 50.199219 88.355469 56.84375 90.191406 62.625 89.128906 C 74.882812 86.875 79.195312 85.226562 83.566406 81.136719 C 95.460938 70.015625 88.152344 48.46875 69.980469 41.09375 C 68 40.289062 67.058594 39.578125 66.601562 38.542969 C 66.25 37.753906 65.066406 36.515625 63.96875 35.789062 C 61.820312 34.367188 60.523438 32.078125 59.253906 27.480469 C 57.449219 20.933594 50.804688 12.917969 43.328125 8.273438 C 39.558594 5.929688 30.886719 2.515625 28.691406 2.503906 C 28.109375 2.503906 27.050781 2.960938 26.335938 3.523438 M 26.8125 5.125 C 25.53125 7.15625 25.347656 8.472656 26.292969 8.835938 C 27.445312 9.277344 29 7.332031 29 5.445312 C 29 3.679688 27.832031 3.507812 26.8125 5.125 M 30.496094 5.625 C 30.496094 6.242188 30.164062 7.378906 29.765625 8.148438 C 29.214844 9.203125 29.183594 9.589844 29.644531 9.722656 C 29.976562 9.820312 32.875 10.5 36.085938 11.230469 C 39.292969 11.960938 43.117188 13.148438 44.585938 13.871094 C 48.523438 15.816406 53.457031 21.007812 55.265625 25.109375 C 56.082031 26.957031 56.976562 28.398438 57.25 28.308594 C 57.964844 28.074219 57.628906 26.625 56.171875 23.6875 C 52.335938 15.957031 43.585938 8.710938 34.171875 5.472656 C 30.621094 4.253906 30.5 4.257812 30.496094 5.625 M 32 6.421875 C 32 6.652344 32.84375 7.117188 33.875 7.453125 C 34.90625 7.789062 36.03125 8.179688 36.375 8.324219 C 36.71875 8.464844 37 8.363281 37 8.097656 C 37 7.828125 36.09375 7.246094 34.988281 6.804688 C 32.730469 5.898438 32 5.804688 32 6.421875 M 41.152344 18.136719 C 35.34375 24.277344 33.371094 31.824219 30.996094 57 C 29.027344 77.871094 26.808594 86.589844 21.785156 93.167969 C 20.640625 94.667969 20.257812 95.5 20.710938 95.5 C 22.1875 95.5 32.382812 89.941406 35.359375 87.515625 C 37.070312 86.121094 39.039062 84.007812 39.734375 82.824219 L 40.996094 80.671875 L 39.242188 77.210938 C 36.242188 71.292969 35.960938 67.054688 38.109375 60 C 40.054688 53.597656 44.679688 47.203125 50.242188 43.238281 C 52.371094 41.71875 53.5 40.570312 53.5 39.921875 C 53.5 38.699219 54.300781 37.109375 55.664062 35.609375 C 56.617188 34.566406 56.652344 34.25 56.128906 31.738281 C 55.367188 28.117188 53.007812 23.265625 50.6875 20.558594 C 48.667969 18.203125 45.226562 15.5 44.246094 15.5 C 43.914062 15.5 42.523438 16.6875 41.152344 18.136719 M 34.25 17.410156 C 24.09375 20.949219 16.695312 28.972656 15.257812 38 L 14.898438 40.25 L 17.074219 38.171875 C 20.894531 34.523438 26 31.851562 26 33.496094 C 26 33.769531 24.929688 34.492188 23.625 35.097656 C 22.320312 35.703125 19.890625 37.5625 18.230469 39.226562 C 15.394531 42.070312 15.117188 42.5625 13.597656 47.5 C 12.707031 50.386719 11.984375 53.550781 11.988281 54.53125 C 12 56.503906 13.359375 58.742188 13.839844 57.578125 C 14.28125 56.503906 16.984375 53.582031 18.597656 52.429688 C 21.105469 50.644531 21.242188 52.085938 18.757812 54.160156 C 15.394531 56.972656 14.039062 59.671875 13.386719 64.84375 C 12.832031 69.230469 13.074219 72 14.011719 72 C 14.28125 72 15.324219 71.089844 16.328125 69.976562 C 17.546875 68.628906 18.324219 68.121094 18.65625 68.457031 C 18.988281 68.789062 18.554688 69.621094 17.355469 70.949219 C 14.480469 74.132812 14.355469 77.117188 16.78125 84.824219 C 17.460938 86.984375 18.160156 90.164062 18.332031 91.890625 L 18.648438 95.03125 L 20.542969 92.390625 C 25.863281 84.988281 27.652344 77.421875 30.027344 52.253906 C 31.945312 31.941406 34.1875 23.667969 39.324219 17.984375 L 41.117188 16 L 39.683594 16.007812 C 38.894531 16.011719 36.449219 16.640625 34.25 17.410156 M 57.5 30.5 C 57.5 31.050781 57.816406 31.5 58.203125 31.5 C 58.660156 31.5 58.816406 31.148438 58.644531 30.5 C 58.5 29.949219 58.183594 29.5 57.941406 29.5 C 57.699219 29.5 57.5 29.949219 57.5 30.5 M 58 34.1875 C 58 34.84375 57.648438 35.671875 57.21875 36.027344 C 56.242188 36.835938 55 39.191406 55 40.226562 C 55 40.863281 55.6875 40.992188 58.875 40.949219 C 65.230469 40.867188 66.78125 39.972656 64.199219 37.875 C 63.4375 37.257812 61.992188 35.90625 60.984375 34.875 C 58.871094 32.710938 58 32.507812 58 34.1875 M 60.714844 37.765625 C 61.167969 38.460938 61.414062 39.230469 61.261719 39.480469 C 61.109375 39.726562 61.1875 40.058594 61.441406 40.210938 C 61.691406 40.367188 62.035156 40.125 62.210938 39.675781 C 62.558594 38.769531 61.285156 36.5 60.429688 36.5 C 60.109375 36.5 60.226562 37.023438 60.714844 37.765625 M 63.5 42.050781 C 62.539062 42.300781 60 42.453125 57.859375 42.390625 L 53.972656 42.28125 L 50.773438 44.601562 C 44.945312 48.828125 40.21875 56.230469 38.707031 63.5 C 37.707031 68.292969 38.089844 71.417969 40.207031 75.839844 C 43.757812 83.246094 51.277344 87.976562 59.535156 87.992188 C 64.414062 88.003906 66.972656 86.898438 70.859375 83.101562 C 74.417969 79.628906 76 76.644531 76 73.410156 C 76 72.4375 76.253906 72 76.820312 72 C 77.511719 72 77.59375 72.398438 77.339844 74.519531 C 76.953125 77.804688 74.84375 81.605469 72.015625 84.125 L 69.75 86.144531 L 71.75 85.835938 C 75.171875 85.304688 80.699219 82.230469 83.171875 79.484375 C 86.332031 75.964844 87.613281 73.0625 87.886719 68.792969 C 88.558594 58.335938 81.324219 47.628906 70.296875 42.75 C 67.308594 41.429688 66.320312 41.328125 63.5 42.050781 M 60 44.195312 C 57.777344 44.527344 56.503906 44.921875 56.871094 45.15625 C 57.632812 45.644531 65.03125 44.667969 65.710938 43.988281 C 66.3125 43.386719 65.0625 43.429688 60 44.195312 M 40.996094 70.984375 C 41.707031 73.472656 44.117188 77.511719 45.664062 78.8125 C 47.878906 80.675781 47.898438 79.796875 45.695312 77.386719 C 43.972656 75.503906 42.707031 73.214844 41.808594 70.375 C 41.316406 68.816406 40.539062 69.398438 40.996094 70.984375 "/>
</g>
</svg>
