<?xml version="1.0" encoding="UTF-8"?>
<svg xmlns="http://www.w3.org/2000/svg" xmlns:xlink="http://www.w3.org/1999/xlink" width="24px" height="24px" viewBox="0 0 24 24" version="1.1">
<g id="surface1">
<path style=" stroke:none;fill-rule:evenodd;fill:rgb(0%,0%,0%);fill-opacity:1;" d="M 6.320312 0.84375 C 5.949219 1.136719 5.730469 1.824219 5.878906 2.21875 C 5.957031 2.425781 6.113281 2.515625 6.503906 2.578125 C 7.28125 2.707031 9.636719 3.257812 9.824219 3.355469 C 9.921875 3.410156 9.753906 3.476562 9.402344 3.523438 C 7.222656 3.820312 4.894531 5.425781 3.921875 7.304688 C 3.449219 8.21875 3.378906 8.46875 3.296875 9.523438 C 3.265625 9.949219 3.078125 10.820312 2.878906 11.460938 C 2.457031 12.835938 2.433594 13.355469 2.765625 13.902344 C 2.996094 14.277344 3 14.367188 2.863281 15.460938 C 2.710938 16.699219 2.761719 17.160156 3.09375 17.496094 C 3.242188 17.648438 3.304688 17.929688 3.320312 18.484375 C 3.332031 18.9375 3.496094 19.808594 3.714844 20.578125 C 3.980469 21.511719 4.082031 22.109375 4.0625 22.613281 C 4.03125 23.441406 4.089844 23.484375 4.898438 23.285156 C 6.410156 22.90625 8.882812 21.351562 9.691406 20.269531 L 10.121094 19.695312 L 10.789062 20.21875 C 12.046875 21.207031 13.644531 21.644531 15.03125 21.390625 C 17.972656 20.851562 19.007812 20.453125 20.054688 19.472656 C 22.910156 16.804688 21.15625 11.632812 16.796875 9.863281 C 16.320312 9.667969 16.09375 9.5 15.984375 9.25 C 15.898438 9.0625 15.617188 8.761719 15.351562 8.589844 C 14.835938 8.246094 14.523438 7.699219 14.222656 6.59375 C 13.789062 5.023438 12.191406 3.101562 10.398438 1.984375 C 9.492188 1.421875 7.414062 0.601562 6.886719 0.601562 C 6.746094 0.601562 6.492188 0.710938 6.320312 0.84375 M 6.433594 1.230469 C 6.128906 1.71875 6.082031 2.035156 6.308594 2.121094 C 6.585938 2.226562 6.960938 1.757812 6.960938 1.308594 C 6.960938 0.882812 6.679688 0.84375 6.433594 1.230469 M 7.320312 1.351562 C 7.320312 1.5 7.238281 1.769531 7.144531 1.957031 C 7.011719 2.207031 7.003906 2.300781 7.113281 2.332031 C 7.195312 2.355469 7.890625 2.519531 8.660156 2.695312 C 9.429688 2.871094 10.347656 3.15625 10.699219 3.328125 C 11.644531 3.796875 12.828125 5.042969 13.265625 6.027344 C 13.460938 6.46875 13.675781 6.816406 13.738281 6.792969 C 13.910156 6.738281 13.832031 6.390625 13.480469 5.683594 C 12.5625 3.828125 10.460938 2.089844 8.203125 1.3125 C 7.347656 1.019531 7.320312 1.023438 7.320312 1.351562 M 7.679688 1.542969 C 7.679688 1.597656 7.882812 1.707031 8.128906 1.789062 C 8.378906 1.871094 8.648438 1.964844 8.730469 1.996094 C 8.8125 2.03125 8.878906 2.007812 8.878906 1.941406 C 8.878906 1.878906 8.664062 1.738281 8.398438 1.632812 C 7.855469 1.414062 7.679688 1.394531 7.679688 1.542969 M 9.875 4.351562 C 8.480469 5.828125 8.007812 7.636719 7.4375 13.679688 C 6.96875 18.6875 6.433594 20.78125 5.230469 22.359375 C 4.953125 22.71875 4.863281 22.921875 4.972656 22.921875 C 5.324219 22.921875 7.773438 21.585938 8.488281 21.003906 C 8.898438 20.667969 9.371094 20.164062 9.535156 19.878906 L 9.839844 19.359375 L 9.417969 18.53125 C 8.699219 17.109375 8.632812 16.09375 9.144531 14.398438 C 9.613281 12.863281 10.722656 11.328125 12.058594 10.375 C 12.570312 10.011719 12.839844 9.738281 12.839844 9.582031 C 12.839844 9.289062 13.03125 8.90625 13.359375 8.546875 C 13.589844 8.296875 13.597656 8.21875 13.46875 7.617188 C 13.289062 6.746094 12.722656 5.582031 12.164062 4.933594 C 11.679688 4.367188 10.855469 3.71875 10.621094 3.71875 C 10.539062 3.71875 10.207031 4.003906 9.875 4.351562 M 8.21875 4.179688 C 5.78125 5.027344 4.007812 6.953125 3.660156 9.121094 L 3.574219 9.660156 L 4.097656 9.160156 C 5.015625 8.285156 6.238281 7.644531 6.238281 8.039062 C 6.238281 8.105469 5.984375 8.277344 5.671875 8.421875 C 5.355469 8.570312 4.773438 9.015625 4.375 9.414062 C 3.695312 10.097656 3.628906 10.214844 3.261719 11.398438 C 3.050781 12.09375 2.875 12.851562 2.878906 13.085938 C 2.878906 13.558594 3.207031 14.097656 3.320312 13.820312 C 3.425781 13.5625 4.074219 12.859375 4.464844 12.582031 C 5.066406 12.15625 5.097656 12.5 4.503906 13 C 3.695312 13.671875 3.371094 14.320312 3.210938 15.5625 C 3.078125 16.617188 3.136719 17.28125 3.363281 17.28125 C 3.425781 17.28125 3.679688 17.0625 3.917969 16.792969 C 4.210938 16.472656 4.398438 16.347656 4.476562 16.429688 C 4.558594 16.507812 4.453125 16.707031 4.164062 17.027344 C 3.476562 17.792969 3.445312 18.507812 4.027344 20.359375 C 4.191406 20.875 4.359375 21.640625 4.398438 22.054688 L 4.476562 22.808594 L 4.929688 22.171875 C 6.207031 20.398438 6.636719 18.582031 7.207031 12.542969 C 7.667969 7.664062 8.207031 5.679688 9.4375 4.316406 L 9.867188 3.839844 L 9.523438 3.839844 C 9.335938 3.84375 8.746094 3.992188 8.21875 4.179688 M 13.800781 7.320312 C 13.800781 7.453125 13.875 7.558594 13.96875 7.558594 C 14.078125 7.558594 14.117188 7.476562 14.074219 7.320312 C 14.039062 7.1875 13.964844 7.078125 13.90625 7.078125 C 13.847656 7.078125 13.800781 7.1875 13.800781 7.320312 M 13.921875 8.207031 C 13.921875 8.363281 13.835938 8.5625 13.730469 8.648438 C 13.5 8.839844 13.199219 9.40625 13.199219 9.652344 C 13.199219 9.808594 13.363281 9.835938 14.128906 9.828125 C 15.65625 9.808594 16.027344 9.59375 15.40625 9.089844 C 15.226562 8.941406 14.878906 8.617188 14.636719 8.371094 C 14.128906 7.851562 13.921875 7.800781 13.921875 8.207031 M 14.570312 9.0625 C 14.679688 9.230469 14.738281 9.414062 14.703125 9.476562 C 14.667969 9.535156 14.683594 9.613281 14.746094 9.652344 C 14.804688 9.6875 14.890625 9.628906 14.929688 9.523438 C 15.015625 9.304688 14.707031 8.761719 14.503906 8.761719 C 14.425781 8.761719 14.453125 8.886719 14.570312 9.0625 M 15.238281 10.09375 C 15.007812 10.152344 14.398438 10.1875 13.886719 10.175781 L 12.953125 10.148438 L 12.1875 10.703125 C 10.785156 11.71875 9.652344 13.496094 9.289062 15.238281 C 9.050781 16.390625 9.140625 17.140625 9.648438 18.203125 C 10.5 19.980469 12.308594 21.113281 14.289062 21.117188 C 15.460938 21.121094 16.074219 20.855469 17.007812 19.945312 C 17.859375 19.109375 18.238281 18.394531 18.238281 17.617188 C 18.238281 17.386719 18.300781 17.28125 18.4375 17.28125 C 18.601562 17.28125 18.621094 17.375 18.5625 17.882812 C 18.46875 18.671875 17.964844 19.585938 17.285156 20.191406 L 16.738281 20.675781 L 17.21875 20.601562 C 18.042969 20.472656 19.367188 19.734375 19.960938 19.074219 C 20.71875 18.230469 21.027344 17.535156 21.09375 16.511719 C 21.253906 14 19.519531 11.429688 16.871094 10.257812 C 16.15625 9.941406 15.917969 9.917969 15.238281 10.09375 M 14.398438 10.605469 C 13.867188 10.6875 13.5625 10.78125 13.648438 10.835938 C 13.832031 10.953125 15.609375 10.71875 15.769531 10.558594 C 15.914062 10.414062 15.617188 10.421875 14.398438 10.605469 M 9.839844 17.035156 C 10.011719 17.632812 10.589844 18.601562 10.960938 18.914062 C 11.492188 19.363281 11.496094 19.152344 10.964844 18.574219 C 10.554688 18.121094 10.25 17.570312 10.035156 16.890625 C 9.914062 16.515625 9.730469 16.65625 9.839844 17.035156 "/>
</g>
</svg>
