<?xml version="1.0" encoding="UTF-8"?>
<svg xmlns="http://www.w3.org/2000/svg" xmlns:xlink="http://www.w3.org/1999/xlink" width="100px" height="100px" viewBox="0 0 100 100" version="1.1">
<g id="surface1">
<path style=" stroke:none;fill-rule:evenodd;fill:rgb(0%,0%,0%);fill-opacity:1;" d="M 21.3125 0.734375 C 15.117188 2.945312 11.621094 10.097656 13.695312 16.335938 C 15.878906 22.90625 22.679688 26.402344 29.5625 24.492188 C 31.96875 23.824219 35.917969 20.28125 37.0625 17.769531 C 38.167969 15.332031 38.300781 10.183594 37.3125 7.824219 C 34.796875 1.804688 27.445312 -1.453125 21.3125 0.734375 M 66.5 0.359375 C 60.472656 2.625 59.589844 10.742188 64.976562 14.375 C 67.242188 15.902344 70.761719 15.902344 73.003906 14.375 C 75.769531 12.492188 76.75 10.757812 76.75 7.75 C 76.75 4.742188 75.769531 3.007812 73.003906 1.125 C 71.402344 0.0351562 68.328125 -0.328125 66.5 0.359375 M 39.625 17.625 C 39.347656 17.96875 38.757812 18.972656 38.3125 19.851562 C 37.863281 20.734375 36.675781 22.25 35.671875 23.226562 L 33.847656 25 L 58.5 25 L 58.5 60.523438 C 58.5 91.234375 58.601562 96.246094 59.253906 97.511719 C 60.761719 100.425781 64.171875 100.90625 66.539062 98.539062 L 68 97.078125 L 68 56.5 L 70.5 56.5 L 70.5 97.078125 L 71.960938 98.539062 C 73.84375 100.417969 76.339844 100.519531 78.347656 98.792969 L 79.75 97.585938 L 79.886719 63.292969 C 80.019531 29.496094 80.035156 29 81.011719 29 C 81.972656 29 82 29.378906 82 42.726562 C 82 52.152344 82.183594 56.855469 82.585938 57.738281 C 83.644531 60.058594 87.355469 60.058594 88.414062 57.738281 C 89.375 55.628906 89.214844 27.90625 88.222656 24.5625 C 87.140625 20.921875 84.429688 18.28125 81.027344 17.550781 C 77.1875 16.730469 40.289062 16.792969 39.625 17.625 M 23.015625 33.96875 C 22.710938 34.539062 22.496094 38.988281 22.488281 44.84375 L 22.480469 54.75 L 19.652344 57 C 13.777344 61.675781 11.375 67.269531 11.382812 76.25 C 11.390625 82.378906 12.328125 86.757812 15.027344 93.238281 C 16.859375 97.636719 18.3125 98.972656 20.285156 98.074219 C 20.96875 97.761719 21.660156 97.167969 21.820312 96.75 C 21.980469 96.332031 21.390625 92.941406 20.507812 89.210938 C 19.628906 85.476562 18.996094 82.339844 19.101562 82.230469 C 19.210938 82.121094 21.761719 84.5 24.765625 87.515625 C 30.425781 93.195312 31.59375 93.828125 33.171875 92.085938 C 34.417969 90.707031 34.210938 89.945312 31.699219 86.710938 C 27.453125 81.25 26.160156 77.453125 27.007812 72.910156 C 27.550781 70.003906 28.441406 67.5 28.933594 67.5 C 29.109375 67.5 30.242188 69.355469 31.453125 71.625 C 34.726562 77.746094 35.335938 78.5 37.023438 78.5 C 38.003906 78.5 38.730469 78.113281 39.257812 77.304688 C 40.003906 76.167969 39.898438 75.800781 37.019531 69.585938 C 35.359375 65.996094 34 62.960938 34 62.84375 C 34 62.722656 35.167969 62.515625 36.59375 62.378906 C 38.773438 62.167969 39.453125 61.839844 40.828125 60.339844 C 42.730469 58.261719 43.238281 56.683594 42.785156 54.261719 C 42.09375 50.578125 38.269531 48.070312 34.488281 48.828125 C 33.554688 49.011719 32.011719 49.988281 30.921875 51.078125 L 29 53 L 28.992188 51.125 C 28.972656 46.109375 27.90625 34.238281 27.421875 33.65625 C 26.566406 32.621094 23.625 32.828125 23.015625 33.96875 "/>
</g>
</svg>
