<?xml version="1.0" encoding="UTF-8"?>
<svg xmlns="http://www.w3.org/2000/svg" xmlns:xlink="http://www.w3.org/1999/xlink" width="24px" height="24px" viewBox="0 0 24 24" version="1.1">
<g id="surface1">
<path style=" stroke:none;fill-rule:evenodd;fill:rgb(0%,0%,0%);fill-opacity:1;" d="M 5.117188 0.175781 C 3.628906 0.707031 2.789062 2.421875 3.285156 3.921875 C 3.8125 5.496094 5.441406 6.335938 7.09375 5.878906 C 7.671875 5.71875 8.621094 4.867188 8.894531 4.265625 C 9.160156 3.679688 9.191406 2.445312 8.953125 1.878906 C 8.351562 0.433594 6.585938 -0.347656 5.117188 0.175781 M 15.960938 0.0859375 C 14.511719 0.628906 14.300781 2.578125 15.59375 3.449219 C 16.136719 3.816406 16.984375 3.816406 17.519531 3.449219 C 18.183594 3 18.421875 2.582031 18.421875 1.859375 C 18.421875 1.136719 18.183594 0.722656 17.519531 0.269531 C 17.136719 0.0078125 16.398438 -0.078125 15.960938 0.0859375 M 9.507812 4.230469 C 9.445312 4.3125 9.300781 4.554688 9.195312 4.765625 C 9.085938 4.976562 8.800781 5.339844 8.5625 5.574219 L 8.125 6 L 14.039062 6 L 14.039062 14.527344 C 14.039062 21.894531 14.066406 23.097656 14.222656 23.402344 C 14.582031 24.101562 15.402344 24.21875 15.96875 23.648438 L 16.320312 23.296875 L 16.320312 13.558594 L 16.921875 13.558594 L 16.921875 23.296875 L 17.269531 23.648438 C 17.722656 24.101562 18.320312 24.125 18.804688 23.710938 L 19.140625 23.421875 L 19.171875 15.191406 C 19.203125 7.078125 19.207031 6.960938 19.441406 6.960938 C 19.671875 6.960938 19.679688 7.050781 19.679688 10.253906 C 19.679688 12.515625 19.722656 13.644531 19.820312 13.855469 C 20.074219 14.414062 20.964844 14.414062 21.21875 13.855469 C 21.449219 13.351562 21.410156 6.699219 21.171875 5.894531 C 20.914062 5.023438 20.261719 4.386719 19.445312 4.210938 C 18.523438 4.015625 9.667969 4.03125 9.507812 4.230469 M 5.523438 8.152344 C 5.449219 8.289062 5.398438 9.355469 5.398438 10.761719 L 5.394531 13.140625 L 4.714844 13.679688 C 3.304688 14.800781 2.730469 16.144531 2.730469 18.300781 C 2.734375 19.769531 2.957031 20.820312 3.605469 22.378906 C 4.046875 23.433594 4.394531 23.753906 4.867188 23.539062 C 5.03125 23.464844 5.199219 23.320312 5.238281 23.21875 C 5.273438 23.121094 5.132812 22.304688 4.921875 21.410156 C 4.710938 20.515625 4.558594 19.761719 4.585938 19.734375 C 4.609375 19.710938 5.222656 20.28125 5.945312 21.003906 C 7.300781 22.367188 7.582031 22.519531 7.960938 22.101562 C 8.261719 21.769531 8.210938 21.585938 7.609375 20.8125 C 6.589844 19.5 6.277344 18.589844 6.480469 17.5 C 6.613281 16.800781 6.824219 16.199219 6.945312 16.199219 C 6.984375 16.199219 7.257812 16.644531 7.550781 17.191406 C 8.335938 18.660156 8.480469 18.839844 8.886719 18.839844 C 9.121094 18.839844 9.296875 18.746094 9.421875 18.554688 C 9.601562 18.28125 9.574219 18.191406 8.886719 16.699219 C 8.484375 15.839844 8.160156 15.109375 8.160156 15.082031 C 8.160156 15.054688 8.441406 15.003906 8.78125 14.972656 C 9.304688 14.921875 9.46875 14.84375 9.800781 14.480469 C 10.253906 13.984375 10.378906 13.605469 10.269531 13.023438 C 10.101562 12.136719 9.183594 11.539062 8.277344 11.71875 C 8.054688 11.761719 7.683594 11.996094 7.421875 12.257812 L 6.960938 12.71875 L 6.957031 12.269531 C 6.953125 11.066406 6.699219 8.21875 6.582031 8.078125 C 6.375 7.828125 5.671875 7.878906 5.523438 8.152344 "/>
</g>
</svg>
