<?xml version="1.0" encoding="UTF-8"?>
<svg xmlns="http://www.w3.org/2000/svg" xmlns:xlink="http://www.w3.org/1999/xlink" width="100px" height="100px" viewBox="0 0 100 100" version="1.1">
<g id="surface1">
<path style=" stroke:none;fill-rule:evenodd;fill:rgb(0%,0%,0%);fill-opacity:1;" d="M 31.832031 12.832031 C 31.648438 13.015625 31.5 13.871094 31.5 14.730469 C 31.5 16.171875 31.316406 16.34375 29.136719 16.925781 C 24.496094 18.164062 21.523438 22.707031 20.746094 29.75 C 20.535156 31.65625 19.140625 36 16.929688 41.652344 C 13.160156 51.28125 11.800781 55.921875 11.257812 61.011719 C 10.078125 72.011719 16.808594 81.433594 27.785156 84.164062 C 31.582031 85.105469 39.296875 84.925781 43.15625 83.800781 L 46.058594 82.953125 L 48.820312 84.261719 C 53.890625 86.660156 59.105469 87.667969 64.742188 87.339844 C 67.496094 87.183594 70.828125 86.710938 72.148438 86.292969 C 76.160156 85.023438 80.582031 82.390625 83.359375 79.617188 C 86.046875 76.929688 89.410156 71.164062 88.664062 70.519531 C 88.4375 70.324219 86.285156 69.460938 83.886719 68.601562 L 79.523438 67.046875 L 76.636719 68.382812 C 74.171875 69.527344 72.949219 69.746094 68.25 69.890625 C 64.585938 70 62 69.828125 60.5 69.375 L 58.25 68.691406 L 58.417969 65.835938 C 58.75 60.214844 57.105469 53.898438 51.515625 39.316406 C 50.292969 36.128906 49.15625 32.050781 48.769531 29.460938 C 47.679688 22.15625 44.957031 18.152344 40.222656 16.886719 C 38.085938 16.316406 38 16.21875 38 14.398438 L 38 12.5 L 35.082031 12.5 C 33.480469 12.5 32.015625 12.648438 31.832031 12.832031 M 34 15.75 C 34 16.167969 34.445312 16.5 35 16.5 C 35.554688 16.5 36 16.167969 36 15.75 C 36 15.332031 35.554688 15 35 15 C 34.445312 15 34 15.332031 34 15.75 M 29 19.332031 C 27.777344 19.808594 25.46875 22.140625 24.636719 23.730469 C 24.210938 24.546875 23.570312 27.171875 23.214844 29.566406 C 22.746094 32.6875 21.574219 36.449219 19.070312 42.835938 C 14.535156 54.414062 13.839844 57.097656 13.789062 63.25 C 13.753906 67.65625 13.90625 68.582031 15.066406 71.058594 C 18.5 78.378906 24.542969 82 33.75 82.253906 C 38.164062 82.375 43 81.800781 43 81.152344 C 43 81.027344 41.78125 79.8125 40.289062 78.449219 C 33.367188 72.121094 29.824219 62.378906 31.492188 54.246094 C 31.832031 52.597656 32.324219 50.984375 32.585938 50.660156 C 33.039062 50.101562 34.875 50.617188 41.007812 53.03125 C 41.820312 53.347656 42.691406 54.449219 43.460938 56.136719 C 44.867188 59.207031 50.292969 64.867188 53.3125 66.40625 C 54.449219 66.984375 55.515625 67.316406 55.6875 67.144531 C 56.335938 66.5 55.957031 61.097656 54.980469 57.03125 C 54.425781 54.707031 52.535156 48.972656 50.785156 44.28125 C 46.964844 34.050781 46.675781 33.09375 46.28125 29.289062 C 45.898438 25.621094 44.617188 22.710938 42.535156 20.75 C 40.972656 19.285156 40.804688 19.246094 35.34375 19.144531 C 32.265625 19.085938 29.414062 19.167969 29 19.332031 M 29.75 21.257812 C 27.90625 22.183594 26.117188 24.742188 25.90625 26.75 C 25.78125 27.949219 25.957031 28.28125 26.789062 28.398438 C 27.613281 28.515625 27.949219 28.140625 28.414062 26.582031 C 29.082031 24.359375 29.824219 23.59375 31.84375 23.054688 C 32.769531 22.804688 33.25 22.347656 33.25 21.714844 C 33.25 20.472656 31.710938 20.273438 29.75 21.257812 M 34.667969 21.785156 C 34.503906 22.214844 34.613281 22.8125 34.914062 23.113281 C 35.632812 23.835938 37.046875 22.707031 36.667969 21.714844 C 36.300781 20.761719 35.042969 20.804688 34.667969 21.785156 M 33.496094 52.390625 C 33.496094 52.589844 33.285156 54.027344 33.03125 55.585938 C 31.375 65.683594 38.257812 77.242188 49 82.398438 C 56.792969 86.140625 64.558594 86.839844 72.183594 84.484375 C 77.917969 82.714844 83.566406 78.203125 86.03125 73.421875 C 86.863281 71.808594 86.882812 71.5625 86.195312 71.296875 C 84.867188 70.789062 84.628906 70.941406 83.339844 73.140625 C 79.222656 80.164062 70.328125 84.449219 61.152344 83.828125 C 45.898438 82.800781 33.4375 69.699219 35.289062 56.648438 C 35.515625 55.054688 35.714844 53.550781 35.726562 53.308594 C 35.738281 53.0625 35.242188 52.675781 34.625 52.449219 C 34.007812 52.21875 33.5 52.195312 33.496094 52.390625 M 37.273438 54.671875 C 35.808594 61.828125 38.011719 68.605469 43.632812 74.226562 C 52.664062 83.257812 67.3125 84.839844 76.851562 77.820312 C 79.273438 76.039062 83 71.527344 83 70.378906 C 83 70.226562 82.292969 69.851562 81.429688 69.550781 C 80.105469 69.089844 79.308594 69.210938 76.304688 70.328125 C 71.429688 72.148438 63.414062 72.242188 58.5 70.542969 C 51.480469 68.113281 45.199219 63.035156 42.273438 57.429688 C 41.117188 55.214844 40.441406 54.496094 39.148438 54.097656 C 37.65625 53.640625 37.472656 53.695312 37.273438 54.671875 M 45.191406 55.726562 C 44.839844 56.632812 45.347656 57.5 46.226562 57.5 C 47.136719 57.5 47.546875 56.246094 46.859375 55.5625 C 46.097656 54.800781 45.523438 54.855469 45.191406 55.726562 M 47.5 59.445312 C 47.5 60.394531 48.640625 61.191406 49.199219 60.632812 C 49.917969 59.914062 49.453125 58.5 48.5 58.5 C 47.851562 58.5 47.5 58.832031 47.5 59.445312 M 50.496094 61.253906 C 50.023438 61.824219 49.992188 62.195312 50.386719 62.585938 C 51.144531 63.347656 52.609375 62.679688 52.410156 61.667969 C 52.1875 60.511719 51.277344 60.3125 50.496094 61.253906 M 53.550781 62.96875 C 52.699219 63.492188 53.183594 65 54.203125 65 C 55.300781 65 55.714844 64 54.933594 63.21875 C 54.503906 62.789062 53.992188 62.695312 53.550781 62.96875 M 59.21875 66.046875 C 59.035156 66.347656 59.191406 66.902344 59.566406 67.28125 C 60.433594 68.148438 61.765625 67.410156 61.339844 66.300781 C 60.988281 65.382812 59.722656 65.234375 59.21875 66.046875 M 63.050781 66.46875 C 62.199219 66.992188 62.683594 68.5 63.703125 68.5 C 64.800781 68.5 65.214844 67.5 64.433594 66.71875 C 64.003906 66.289062 63.492188 66.195312 63.050781 66.46875 M 73.660156 66.800781 C 73.234375 67.910156 74.566406 68.648438 75.433594 67.78125 C 75.808594 67.402344 75.964844 66.847656 75.78125 66.546875 C 75.277344 65.734375 74.011719 65.882812 73.660156 66.800781 M 66.160156 67.300781 C 65.734375 68.410156 67.066406 69.148438 67.933594 68.28125 C 68.308594 67.902344 68.464844 67.347656 68.28125 67.046875 C 67.777344 66.234375 66.511719 66.382812 66.160156 67.300781 M 69.71875 67.046875 C 69.191406 67.902344 70.859375 69.339844 71.5625 68.636719 C 71.875 68.324219 71.996094 67.714844 71.832031 67.285156 C 71.484375 66.382812 70.21875 66.242188 69.71875 67.046875 "/>
</g>
</svg>
