<?xml version="1.0" encoding="UTF-8"?>
<svg xmlns="http://www.w3.org/2000/svg" xmlns:xlink="http://www.w3.org/1999/xlink" width="24px" height="24px" viewBox="0 0 24 24" version="1.1">
<g id="surface1">
<path style=" stroke:none;fill-rule:evenodd;fill:rgb(0%,0%,0%);fill-opacity:1;" d="M 7.640625 3.078125 C 7.597656 3.125 7.558594 3.328125 7.558594 3.535156 C 7.558594 3.882812 7.515625 3.921875 6.992188 4.0625 C 5.878906 4.359375 5.164062 5.449219 4.980469 7.140625 C 4.929688 7.597656 4.59375 8.640625 4.0625 9.996094 C 3.160156 12.308594 2.832031 13.421875 2.703125 14.644531 C 2.417969 17.28125 4.035156 19.542969 6.667969 20.199219 C 7.578125 20.425781 9.429688 20.382812 10.355469 20.113281 L 11.054688 19.910156 L 11.71875 20.222656 C 12.933594 20.796875 14.183594 21.039062 15.539062 20.960938 C 16.199219 20.921875 17 20.808594 17.316406 20.710938 C 18.277344 20.40625 19.339844 19.773438 20.003906 19.109375 C 20.652344 18.464844 21.457031 17.078125 21.277344 16.925781 C 21.226562 16.878906 20.707031 16.671875 20.132812 16.464844 L 19.085938 16.089844 L 18.394531 16.410156 C 17.800781 16.6875 17.507812 16.738281 16.378906 16.773438 C 15.5 16.800781 14.878906 16.757812 14.519531 16.648438 L 13.980469 16.484375 L 14.019531 15.800781 C 14.101562 14.453125 13.707031 12.933594 12.363281 9.4375 C 12.070312 8.671875 11.796875 7.691406 11.703125 7.070312 C 11.441406 5.316406 10.789062 4.355469 9.652344 4.054688 C 9.140625 3.914062 9.121094 3.890625 9.121094 3.457031 L 9.121094 3 L 8.421875 3 C 8.035156 3 7.683594 3.035156 7.640625 3.078125 M 8.160156 3.78125 C 8.160156 3.878906 8.265625 3.960938 8.398438 3.960938 C 8.535156 3.960938 8.640625 3.878906 8.640625 3.78125 C 8.640625 3.679688 8.535156 3.601562 8.398438 3.601562 C 8.265625 3.601562 8.160156 3.679688 8.160156 3.78125 M 6.960938 4.640625 C 6.667969 4.753906 6.113281 5.3125 5.914062 5.695312 C 5.8125 5.890625 5.65625 6.519531 5.570312 7.097656 C 5.460938 7.84375 5.175781 8.746094 4.578125 10.28125 C 3.488281 13.058594 3.320312 13.703125 3.308594 15.179688 C 3.300781 16.238281 3.335938 16.460938 3.617188 17.054688 C 4.441406 18.8125 5.890625 19.679688 8.101562 19.742188 C 9.160156 19.769531 10.320312 19.632812 10.320312 19.476562 C 10.320312 19.445312 10.027344 19.15625 9.667969 18.828125 C 8.007812 17.308594 7.15625 14.96875 7.558594 13.019531 C 7.640625 12.625 7.757812 12.234375 7.820312 12.160156 C 7.929688 12.023438 8.371094 12.148438 9.84375 12.726562 C 10.039062 12.804688 10.246094 13.066406 10.429688 13.472656 C 10.769531 14.210938 12.070312 15.566406 12.796875 15.9375 C 13.066406 16.074219 13.324219 16.15625 13.363281 16.113281 C 13.519531 15.960938 13.429688 14.664062 13.195312 13.6875 C 13.0625 13.128906 12.609375 11.753906 12.1875 10.628906 C 11.273438 8.171875 11.203125 7.941406 11.105469 7.03125 C 11.015625 6.148438 10.707031 5.449219 10.207031 4.980469 C 9.832031 4.628906 9.792969 4.621094 8.484375 4.59375 C 7.742188 4.582031 7.058594 4.601562 6.960938 4.640625 M 7.140625 5.101562 C 6.699219 5.324219 6.269531 5.9375 6.21875 6.421875 C 6.1875 6.707031 6.230469 6.785156 6.429688 6.816406 C 6.628906 6.84375 6.707031 6.753906 6.820312 6.378906 C 6.980469 5.847656 7.15625 5.664062 7.640625 5.53125 C 7.863281 5.472656 7.980469 5.363281 7.980469 5.210938 C 7.980469 4.914062 7.609375 4.863281 7.140625 5.101562 M 8.320312 5.226562 C 8.28125 5.332031 8.308594 5.476562 8.378906 5.546875 C 8.550781 5.71875 8.890625 5.449219 8.800781 5.210938 C 8.710938 4.984375 8.410156 4.992188 8.320312 5.226562 M 8.039062 12.574219 C 8.039062 12.621094 7.988281 12.964844 7.925781 13.339844 C 7.53125 15.765625 9.183594 18.539062 11.761719 19.777344 C 13.628906 20.675781 15.492188 20.839844 17.324219 20.277344 C 18.699219 19.851562 20.054688 18.769531 20.648438 17.621094 C 20.847656 17.234375 20.851562 17.175781 20.6875 17.113281 C 20.367188 16.988281 20.3125 17.027344 20 17.554688 C 19.015625 19.238281 16.878906 20.269531 14.675781 20.117188 C 11.015625 19.871094 8.023438 16.726562 8.46875 13.59375 C 8.523438 13.214844 8.570312 12.851562 8.574219 12.792969 C 8.578125 12.734375 8.457031 12.644531 8.308594 12.585938 C 8.160156 12.53125 8.039062 12.527344 8.039062 12.574219 M 8.945312 13.121094 C 8.59375 14.839844 9.125 16.464844 10.472656 17.8125 C 12.640625 19.980469 16.15625 20.363281 18.445312 18.675781 C 19.023438 18.25 19.921875 17.167969 19.921875 16.890625 C 19.921875 16.855469 19.75 16.765625 19.542969 16.691406 C 19.226562 16.582031 19.035156 16.609375 18.3125 16.878906 C 17.144531 17.316406 15.21875 17.339844 14.039062 16.929688 C 12.355469 16.347656 10.847656 15.128906 10.144531 13.78125 C 9.867188 13.253906 9.707031 13.078125 9.394531 12.984375 C 9.039062 12.875 8.992188 12.886719 8.945312 13.121094 M 10.84375 13.375 C 10.761719 13.59375 10.882812 13.800781 11.09375 13.800781 C 11.3125 13.800781 11.410156 13.5 11.246094 13.335938 C 11.0625 13.152344 10.925781 13.164062 10.84375 13.375 M 11.398438 14.265625 C 11.398438 14.496094 11.675781 14.6875 11.808594 14.550781 C 11.980469 14.378906 11.867188 14.039062 11.640625 14.039062 C 11.484375 14.039062 11.398438 14.121094 11.398438 14.265625 M 12.117188 14.699219 C 12.003906 14.835938 12 14.925781 12.09375 15.019531 C 12.273438 15.203125 12.625 15.042969 12.578125 14.800781 C 12.523438 14.523438 12.304688 14.476562 12.117188 14.699219 M 12.851562 15.113281 C 12.648438 15.238281 12.765625 15.601562 13.007812 15.601562 C 13.273438 15.601562 13.371094 15.359375 13.183594 15.171875 C 13.082031 15.070312 12.957031 15.046875 12.851562 15.113281 M 14.214844 15.851562 C 14.167969 15.925781 14.207031 16.058594 14.296875 16.148438 C 14.503906 16.355469 14.824219 16.179688 14.722656 15.914062 C 14.636719 15.691406 14.332031 15.65625 14.214844 15.851562 M 15.132812 15.953125 C 14.929688 16.078125 15.042969 16.441406 15.289062 16.441406 C 15.550781 16.441406 15.652344 16.199219 15.464844 16.011719 C 15.359375 15.910156 15.238281 15.886719 15.132812 15.953125 M 17.679688 16.03125 C 17.578125 16.296875 17.894531 16.476562 18.105469 16.265625 C 18.195312 16.175781 18.230469 16.042969 18.1875 15.972656 C 18.066406 15.777344 17.761719 15.8125 17.679688 16.03125 M 15.878906 16.152344 C 15.777344 16.417969 16.097656 16.59375 16.304688 16.386719 C 16.394531 16.296875 16.433594 16.164062 16.386719 16.089844 C 16.265625 15.894531 15.964844 15.933594 15.878906 16.152344 M 16.734375 16.089844 C 16.605469 16.296875 17.007812 16.640625 17.175781 16.472656 C 17.25 16.398438 17.28125 16.25 17.238281 16.148438 C 17.15625 15.933594 16.851562 15.898438 16.734375 16.089844 "/>
</g>
</svg>
