<?xml version="1.0" encoding="UTF-8"?>
<svg xmlns="http://www.w3.org/2000/svg" xmlns:xlink="http://www.w3.org/1999/xlink" width="24px" height="24px" viewBox="0 0 24 24" version="1.1">
<g id="surface1">
<path style=" stroke:none;fill-rule:evenodd;fill:rgb(0%,0%,0%);fill-opacity:1;" d="M 3.601562 6.308594 C 3.601562 6.433594 3.875 6.898438 3.996094 6.976562 C 4.0625 7.019531 3.921875 7.226562 3.679688 7.4375 C 3.113281 7.933594 2.964844 8.46875 3.015625 9.796875 C 3.054688 10.769531 3.09375 10.925781 3.40625 11.332031 C 3.917969 12 4.640625 12.285156 5.660156 12.210938 C 7.234375 12.097656 7.914062 11.300781 7.917969 9.566406 C 7.921875 7.691406 7.300781 7 5.46875 6.835938 C 4.703125 6.769531 4.476562 6.703125 4.308594 6.496094 C 4.125 6.269531 3.601562 6.128906 3.601562 6.308594 M 16.738281 7 C 16.296875 7.199219 15.628906 7.9375 15.53125 8.335938 C 15.488281 8.5 15.476562 9.136719 15.5 9.753906 C 15.535156 10.777344 15.570312 10.921875 15.886719 11.332031 C 16.738281 12.449219 18.742188 12.570312 19.746094 11.5625 L 20.171875 11.140625 L 20.582031 11.453125 C 21.027344 11.792969 22.164062 12.355469 22.410156 12.359375 C 22.871094 12.363281 22.027344 10.714844 21.117188 9.839844 C 20.644531 9.382812 20.398438 9.050781 20.398438 8.863281 C 20.394531 8.371094 19.964844 7.605469 19.492188 7.246094 C 19.089844 6.941406 18.925781 6.894531 18.070312 6.867188 C 17.445312 6.847656 16.972656 6.894531 16.738281 7 M 4.078125 7.894531 L 3.601562 8.371094 L 3.601562 9.507812 C 3.601562 10.761719 3.746094 11.101562 4.445312 11.460938 C 4.949219 11.722656 6.09375 11.691406 6.5625 11.40625 C 7.1875 11.027344 7.347656 10.570312 7.300781 9.347656 C 7.261719 8.332031 7.242188 8.265625 6.867188 7.894531 C 6.503906 7.527344 6.414062 7.5 5.515625 7.457031 L 4.558594 7.414062 L 4.078125 7.894531 M 16.796875 7.644531 C 16.3125 7.976562 16.183594 8.207031 16.417969 8.300781 C 16.734375 8.429688 17.589844 8.414062 17.960938 8.273438 C 18.375 8.113281 18.855469 7.683594 18.769531 7.542969 C 18.648438 7.347656 17.113281 7.425781 16.796875 7.644531 M 18.871094 8.347656 C 18.394531 8.824219 17.5625 9.035156 16.59375 8.921875 L 15.925781 8.84375 L 15.984375 9.699219 C 16.085938 11.070312 16.648438 11.640625 17.914062 11.640625 C 19.289062 11.640625 19.800781 11.070312 19.796875 9.539062 C 19.796875 8.621094 19.636719 8.023438 19.378906 7.976562 C 19.3125 7.964844 19.085938 8.132812 18.871094 8.347656 M 11.980469 9.183594 C 11.796875 9.28125 11.601562 9.539062 11.519531 9.777344 C 11.421875 10.078125 11.308594 10.199219 11.136719 10.199219 C 10.789062 10.199219 10.0625 10.636719 9.78125 11.019531 C 9.585938 11.277344 9.53125 11.566406 9.5 12.539062 C 9.464844 13.632812 9.484375 13.777344 9.742188 14.148438 C 10.191406 14.808594 10.59375 15.039062 11.402344 15.097656 C 12.347656 15.164062 13.089844 14.890625 13.53125 14.308594 C 13.8125 13.941406 13.867188 13.742188 13.902344 12.921875 C 13.925781 12.394531 13.886719 11.761719 13.8125 11.511719 C 13.644531 10.957031 12.984375 10.359375 12.421875 10.253906 C 12.191406 10.210938 12 10.148438 12 10.117188 C 12 9.910156 12.289062 9.601562 12.484375 9.601562 C 12.65625 9.601562 12.71875 9.519531 12.71875 9.300781 C 12.71875 8.953125 12.476562 8.914062 11.980469 9.183594 M 4.441406 9.367188 C 4.441406 9.675781 4.835938 9.640625 4.898438 9.328125 C 4.925781 9.183594 4.859375 9.121094 4.6875 9.121094 C 4.515625 9.121094 4.441406 9.195312 4.441406 9.367188 M 6.121094 9.367188 C 6.121094 9.675781 6.515625 9.640625 6.578125 9.328125 C 6.605469 9.183594 6.539062 9.121094 6.367188 9.121094 C 6.195312 9.121094 6.121094 9.195312 6.121094 9.367188 M 16.859375 9.242188 C 16.8125 9.320312 16.828125 9.4375 16.898438 9.507812 C 17.058594 9.667969 17.4375 9.527344 17.371094 9.328125 C 17.304688 9.128906 16.964844 9.070312 16.859375 9.242188 M 18.539062 9.242188 C 18.492188 9.320312 18.507812 9.4375 18.578125 9.507812 C 18.738281 9.667969 19.117188 9.527344 19.050781 9.328125 C 18.984375 9.128906 18.644531 9.070312 18.539062 9.242188 M 20.398438 10.214844 C 20.398438 10.523438 20.835938 11.015625 21.34375 11.277344 L 21.628906 11.421875 L 21.40625 11.046875 C 21.285156 10.839844 21.007812 10.5 20.792969 10.292969 L 20.398438 9.914062 L 20.398438 10.214844 M 4.691406 10.550781 C 4.421875 10.71875 4.964844 11.160156 5.445312 11.160156 C 5.945312 11.160156 6.511719 10.746094 6.25 10.574219 C 6.136719 10.5 6.023438 10.519531 5.910156 10.632812 C 5.695312 10.847656 5.289062 10.847656 5.046875 10.625 C 4.929688 10.519531 4.792969 10.492188 4.691406 10.550781 M 17.179688 10.527344 C 16.882812 10.636719 17.519531 11.160156 17.949219 11.160156 C 18.417969 11.160156 18.964844 10.761719 18.769531 10.5625 C 18.671875 10.464844 18.597656 10.480469 18.484375 10.613281 C 18.292969 10.84375 17.78125 10.855469 17.53125 10.636719 C 17.425781 10.546875 17.269531 10.496094 17.179688 10.527344 M 10.460938 11.140625 C 10.035156 11.539062 9.898438 12.097656 10 13.0625 C 10.058594 13.644531 10.128906 13.796875 10.507812 14.144531 C 10.929688 14.535156 10.96875 14.542969 11.785156 14.5 C 12.554688 14.453125 12.65625 14.417969 12.972656 14.0625 C 13.296875 13.699219 13.320312 13.613281 13.320312 12.644531 C 13.320312 11.632812 13.3125 11.609375 12.910156 11.207031 C 12.527344 10.820312 12.460938 10.800781 11.664062 10.800781 C 10.910156 10.800781 10.789062 10.832031 10.460938 11.140625 M 10.824219 12.328125 C 10.882812 12.640625 11.28125 12.675781 11.28125 12.367188 C 11.28125 12.195312 11.203125 12.121094 11.03125 12.121094 C 10.859375 12.121094 10.792969 12.183594 10.824219 12.328125 M 12.140625 12.328125 C 12.203125 12.640625 12.601562 12.675781 12.601562 12.367188 C 12.601562 12.195312 12.523438 12.121094 12.351562 12.121094 C 12.179688 12.121094 12.113281 12.183594 12.140625 12.328125 M 1.945312 12.539062 C 1.277344 13.097656 1.199219 13.441406 1.199219 15.769531 C 1.199219 17.800781 1.210938 17.878906 1.441406 17.878906 C 1.667969 17.878906 1.679688 17.800781 1.683594 16.109375 C 1.6875 13.984375 1.78125 13.492188 2.28125 13.046875 C 2.546875 12.804688 2.632812 12.644531 2.578125 12.476562 C 2.480469 12.167969 2.371094 12.179688 1.945312 12.539062 M 20.707031 12.445312 C 20.652344 12.589844 20.722656 12.722656 20.9375 12.878906 C 21.53125 13.3125 21.601562 13.621094 21.601562 15.835938 L 21.601562 17.878906 L 22.199219 17.878906 L 22.199219 15.816406 C 22.199219 13.972656 22.171875 13.703125 21.949219 13.238281 C 21.714844 12.757812 21.175781 12.238281 20.90625 12.238281 C 20.839844 12.238281 20.75 12.332031 20.707031 12.445312 M 16.558594 12.882812 C 16.558594 12.972656 16.863281 13.332031 17.230469 13.679688 L 17.898438 14.3125 L 18.609375 13.609375 C 19.078125 13.144531 19.277344 12.871094 19.199219 12.789062 C 19.117188 12.710938 18.886719 12.859375 18.503906 13.234375 L 17.929688 13.800781 L 17.402344 13.261719 C 16.867188 12.71875 16.558594 12.578125 16.558594 12.882812 M 11.230469 13.269531 C 11.007812 13.488281 10.988281 13.722656 11.164062 14.046875 C 11.414062 14.511719 12.359375 14.203125 12.359375 13.660156 C 12.359375 13.40625 11.972656 13.078125 11.667969 13.078125 C 11.53125 13.078125 11.332031 13.164062 11.230469 13.269531 M 5.121094 13.289062 C 5.089844 13.339844 5 14.320312 4.917969 15.472656 L 4.769531 17.566406 L 5.050781 18.082031 C 5.207031 18.367188 5.402344 18.601562 5.484375 18.601562 C 5.5625 18.601562 5.761719 18.371094 5.925781 18.089844 L 6.222656 17.578125 L 6.0625 15.421875 C 5.972656 14.230469 5.894531 13.246094 5.890625 13.230469 C 5.867188 13.15625 5.167969 13.210938 5.121094 13.289062 M 5.402344 13.6875 C 5.402344 13.78125 5.339844 14.675781 5.265625 15.671875 C 5.152344 17.203125 5.160156 17.53125 5.304688 17.8125 L 5.476562 18.140625 L 5.667969 17.851562 C 5.832031 17.597656 5.839844 17.332031 5.730469 15.652344 C 5.664062 14.601562 5.558594 13.6875 5.503906 13.625 C 5.441406 13.558594 5.398438 13.582031 5.402344 13.6875 M 11.398438 13.777344 C 11.398438 13.871094 11.503906 13.921875 11.660156 13.898438 C 12.027344 13.84375 12.0625 13.621094 11.699219 13.621094 C 11.53125 13.621094 11.398438 13.691406 11.398438 13.777344 M 2.964844 14.355469 C 2.804688 14.515625 2.867188 17.121094 3.035156 17.257812 C 3.394531 17.558594 3.488281 17.230469 3.453125 15.773438 C 3.425781 14.59375 3.386719 14.335938 3.234375 14.308594 C 3.132812 14.289062 3.011719 14.308594 2.964844 14.355469 M 7.441406 15.757812 C 7.441406 16.945312 7.476562 17.269531 7.609375 17.320312 C 7.957031 17.453125 8.046875 17.089844 8.015625 15.703125 C 7.980469 14.394531 7.96875 14.339844 7.710938 14.300781 C 7.441406 14.265625 7.441406 14.277344 7.441406 15.757812 M 15.445312 14.355469 C 15.398438 14.402344 15.359375 15.046875 15.359375 15.785156 C 15.359375 16.777344 15.402344 17.167969 15.523438 17.265625 C 15.859375 17.546875 15.96875 17.128906 15.933594 15.703125 C 15.90625 14.589844 15.867188 14.335938 15.714844 14.308594 C 15.613281 14.289062 15.492188 14.308594 15.445312 14.355469 M 19.921875 15.78125 C 19.921875 17.199219 19.933594 17.28125 20.160156 17.28125 C 20.386719 17.28125 20.398438 17.199219 20.398438 15.78125 C 20.398438 14.359375 20.386719 14.28125 20.160156 14.28125 C 19.933594 14.28125 19.921875 14.359375 19.921875 15.78125 M 17.640625 15.121094 C 17.640625 15.296875 17.71875 15.359375 17.941406 15.359375 C 18.160156 15.359375 18.238281 15.296875 18.238281 15.121094 C 18.238281 14.945312 18.160156 14.878906 17.941406 14.878906 C 17.71875 14.878906 17.640625 14.945312 17.640625 15.121094 M 9.171875 15.609375 C 8.824219 15.972656 8.820312 15.988281 8.78125 17.585938 L 8.742188 19.199219 L 9.359375 19.199219 L 9.359375 17.695312 C 9.359375 16.28125 9.375 16.171875 9.636719 15.925781 C 9.917969 15.652344 9.941406 15.238281 9.671875 15.238281 C 9.59375 15.238281 9.367188 15.40625 9.171875 15.609375 M 13.511719 15.433594 C 13.46875 15.546875 13.5625 15.769531 13.738281 15.980469 C 14.023438 16.320312 14.039062 16.417969 14.039062 17.769531 L 14.039062 19.199219 L 14.640625 19.199219 L 14.640625 17.753906 C 14.640625 16.277344 14.578125 16.007812 14.125 15.511719 C 13.835938 15.191406 13.613281 15.164062 13.511719 15.433594 M 17.640625 16.078125 C 17.640625 16.257812 17.71875 16.320312 17.941406 16.320312 C 18.160156 16.320312 18.238281 16.257812 18.238281 16.078125 C 18.238281 15.902344 18.160156 15.839844 17.941406 15.839844 C 17.71875 15.839844 17.640625 15.902344 17.640625 16.078125 M 10.398438 16.519531 C 10.355469 16.5625 10.320312 17.070312 10.320312 17.648438 C 10.320312 18.425781 10.363281 18.710938 10.484375 18.757812 C 10.578125 18.792969 10.710938 18.761719 10.785156 18.6875 C 10.925781 18.546875 10.972656 16.960938 10.847656 16.628906 C 10.773438 16.433594 10.542969 16.378906 10.398438 16.519531 M 12.554688 16.625 C 12.414062 16.996094 12.472656 18.566406 12.632812 18.699219 C 12.972656 18.980469 13.089844 18.667969 13.054688 17.570312 C 13.027344 16.699219 12.984375 16.496094 12.824219 16.464844 C 12.71875 16.445312 12.597656 16.515625 12.554688 16.625 "/>
</g>
</svg>
