<?xml version="1.0" encoding="UTF-8"?>
<svg xmlns="http://www.w3.org/2000/svg" xmlns:xlink="http://www.w3.org/1999/xlink" width="100px" height="100px" viewBox="0 0 100 100" version="1.1">
<g id="surface1">
<path style=" stroke:none;fill-rule:evenodd;fill:rgb(0%,0%,0%);fill-opacity:1;" d="M 18.25 20.675781 L 15.839844 28.355469 L 7.917969 32.289062 L 0 36.226562 L 0 38.613281 C 0 39.925781 0.167969 41.011719 0.375 41.023438 C 0.582031 41.035156 4.441406 41.546875 8.953125 42.160156 L 17.15625 43.273438 L 22.945312 65.121094 C 26.128906 77.132812 28.878906 86.804688 29.054688 86.605469 C 29.230469 86.410156 30 81.582031 30.769531 75.878906 L 32.167969 65.511719 L 51.210938 65.832031 C 61.679688 66.007812 70.378906 66.351562 70.539062 66.59375 C 70.699219 66.835938 71.574219 71.359375 72.488281 76.640625 C 73.398438 81.925781 74.285156 86.414062 74.460938 86.613281 C 74.636719 86.8125 76.285156 78.851562 78.128906 68.917969 C 79.96875 58.984375 81.582031 50.75 81.707031 50.625 C 81.835938 50.496094 85.609375 53.191406 90.09375 56.605469 C 94.578125 60.023438 98.585938 63.015625 99 63.261719 C 99.785156 63.722656 99.511719 63.382812 88.328125 50.019531 L 81.410156 41.75 L 55.839844 41.5 L 30.265625 41.25 L 25.777344 27.125 C 23.304688 19.355469 21.144531 13 20.972656 13 C 20.800781 13 19.574219 16.453125 18.25 20.675781 "/>
</g>
</svg>
