<?xml version="1.0" encoding="UTF-8"?>
<svg xmlns="http://www.w3.org/2000/svg" xmlns:xlink="http://www.w3.org/1999/xlink" width="24px" height="24px" viewBox="0 0 24 24" version="1.1">
<g id="surface1">
<path style=" stroke:none;fill-rule:evenodd;fill:rgb(0%,0%,0%);fill-opacity:1;" d="M 4.378906 4.960938 L 3.800781 6.804688 L 1.902344 7.75 L 0 8.695312 L 0 9.265625 C 0 9.582031 0.0390625 9.84375 0.0898438 9.84375 C 0.140625 9.847656 1.066406 9.972656 2.148438 10.117188 L 4.117188 10.386719 L 5.507812 15.628906 C 6.269531 18.511719 6.929688 20.832031 6.972656 20.785156 C 7.015625 20.738281 7.199219 19.578125 7.386719 18.210938 L 7.71875 15.722656 L 12.289062 15.800781 C 14.804688 15.839844 16.890625 15.925781 16.929688 15.980469 C 16.96875 16.039062 17.179688 17.125 17.398438 18.394531 C 17.617188 19.664062 17.828125 20.738281 17.871094 20.789062 C 17.914062 20.835938 18.308594 18.925781 18.75 16.539062 C 19.191406 14.15625 19.578125 12.179688 19.609375 12.148438 C 19.640625 12.121094 20.546875 12.765625 21.621094 13.585938 C 22.699219 14.40625 23.660156 15.125 23.761719 15.183594 C 23.949219 15.292969 23.882812 15.210938 21.199219 12.003906 L 19.539062 10.019531 L 13.402344 9.960938 L 7.265625 9.898438 L 6.1875 6.511719 C 5.59375 4.644531 5.074219 3.121094 5.035156 3.121094 C 4.992188 3.121094 4.699219 3.949219 4.378906 4.960938 "/>
</g>
</svg>
