<?xml version="1.0" encoding="UTF-8"?>
<svg xmlns="http://www.w3.org/2000/svg" xmlns:xlink="http://www.w3.org/1999/xlink" width="100px" height="100px" viewBox="0 0 100 100" version="1.1">
<g id="surface1">
<path style=" stroke:none;fill-rule:evenodd;fill:rgb(0%,0%,0%);fill-opacity:1;" d="M 15 26.28125 C 15 26.808594 16.144531 28.746094 16.648438 29.074219 C 16.925781 29.257812 16.339844 30.109375 15.328125 30.996094 C 12.976562 33.0625 12.351562 35.289062 12.570312 40.828125 C 12.730469 44.878906 12.894531 45.519531 14.195312 47.222656 C 16.320312 50.007812 19.335938 51.183594 23.585938 50.878906 C 30.136719 50.410156 32.96875 47.09375 32.988281 39.859375 C 33.011719 32.050781 30.421875 29.164062 22.78125 28.484375 C 19.597656 28.203125 18.644531 27.921875 17.953125 27.066406 C 17.1875 26.121094 15 25.542969 15 26.28125 M 69.742188 29.171875 C 67.902344 30.003906 65.125 33.074219 64.707031 34.738281 C 64.539062 35.410156 64.480469 38.066406 64.574219 40.644531 C 64.734375 44.902344 64.882812 45.503906 66.191406 47.21875 C 69.746094 51.875 78.09375 52.375 82.285156 48.183594 L 84.046875 46.417969 L 85.765625 47.726562 C 87.617188 49.140625 92.355469 51.488281 93.375 51.496094 C 95.300781 51.511719 91.777344 44.640625 87.992188 40.992188 C 86.015625 39.089844 84.996094 37.707031 84.988281 36.929688 C 84.96875 34.886719 83.179688 31.6875 81.21875 30.191406 C 79.546875 28.914062 78.863281 28.734375 75.289062 28.621094 C 72.683594 28.535156 70.714844 28.730469 69.742188 29.171875 M 16.996094 32.886719 L 15 34.882812 L 15 39.625 C 15 44.847656 15.609375 46.253906 18.519531 47.761719 C 20.617188 48.84375 25.390625 48.714844 27.351562 47.519531 C 29.941406 45.941406 30.621094 44.046875 30.421875 38.941406 C 30.257812 34.714844 30.175781 34.445312 28.617188 32.886719 C 27.09375 31.363281 26.726562 31.246094 22.988281 31.074219 L 18.988281 30.894531 L 16.996094 32.886719 M 69.988281 31.851562 C 67.972656 33.242188 67.425781 34.191406 68.410156 34.589844 C 69.726562 35.121094 73.292969 35.054688 74.84375 34.464844 C 76.566406 33.8125 78.566406 32.007812 78.203125 31.425781 C 77.699219 30.609375 71.308594 30.941406 69.988281 31.851562 M 78.621094 34.785156 C 76.644531 36.769531 73.171875 37.644531 69.148438 37.171875 L 66.355469 36.84375 L 66.609375 40.40625 C 67.019531 46.128906 69.371094 48.496094 74.648438 48.496094 C 80.367188 48.503906 82.5 46.125 82.492188 39.75 C 82.484375 35.921875 81.820312 33.429688 80.75 33.238281 C 80.476562 33.191406 79.515625 33.886719 78.621094 34.785156 M 49.914062 38.265625 C 49.152344 38.679688 48.332031 39.742188 48 40.746094 C 47.589844 41.988281 47.125 42.5 46.40625 42.5 C 44.960938 42.5 41.929688 44.328125 40.75 45.910156 C 39.941406 46.996094 39.71875 48.199219 39.585938 52.25 C 39.4375 56.8125 39.523438 57.398438 40.585938 58.953125 C 42.460938 61.699219 44.144531 62.660156 47.511719 62.902344 C 51.441406 63.1875 54.535156 62.042969 56.382812 59.621094 C 57.554688 58.085938 57.777344 57.257812 57.929688 53.839844 C 58.03125 51.644531 57.859375 49.003906 57.550781 47.96875 C 56.855469 45.652344 54.109375 43.160156 51.761719 42.71875 C 50.792969 42.539062 50 42.285156 50 42.160156 C 50 41.289062 51.203125 40 52.015625 40 C 52.730469 40 53 39.660156 53 38.75 C 53 37.300781 51.984375 37.140625 49.914062 38.265625 M 18.5 39.035156 C 18.5 40.316406 20.15625 40.171875 20.40625 38.871094 C 20.523438 38.269531 20.253906 38 19.535156 38 C 18.820312 38 18.5 38.320312 18.5 39.035156 M 25.5 39.035156 C 25.5 40.316406 27.15625 40.171875 27.40625 38.871094 C 27.523438 38.269531 27.253906 38 26.535156 38 C 25.820312 38 25.5 38.320312 25.5 39.035156 M 70.238281 38.515625 C 70.046875 38.828125 70.121094 39.324219 70.410156 39.609375 C 71.082031 40.28125 72.648438 39.695312 72.375 38.875 C 72.097656 38.039062 70.683594 37.800781 70.238281 38.515625 M 77.238281 38.515625 C 77.046875 38.828125 77.121094 39.324219 77.410156 39.609375 C 78.082031 40.28125 79.648438 39.695312 79.375 38.875 C 79.097656 38.039062 77.683594 37.800781 77.238281 38.515625 M 85 42.558594 C 85 43.855469 86.808594 45.890625 88.929688 46.988281 L 90.113281 47.59375 L 89.191406 46.03125 C 88.683594 45.171875 87.53125 43.757812 86.632812 42.886719 L 85 41.304688 L 85 42.558594 M 19.554688 43.964844 C 18.421875 44.667969 20.691406 46.5 22.695312 46.5 C 24.777344 46.5 27.140625 44.777344 26.042969 44.054688 C 25.574219 43.746094 25.101562 43.824219 24.632812 44.296875 C 23.722656 45.207031 22.046875 45.195312 21.027344 44.277344 C 20.539062 43.835938 19.964844 43.714844 19.554688 43.964844 M 71.589844 43.867188 C 70.347656 44.316406 73 46.5 74.78125 46.5 C 76.742188 46.5 79.019531 44.84375 78.203125 44.015625 C 77.804688 43.605469 77.488281 43.664062 77.015625 44.230469 C 76.222656 45.183594 74.09375 45.230469 73.039062 44.316406 C 72.605469 43.9375 71.953125 43.738281 71.589844 43.867188 M 43.589844 46.414062 C 41.8125 48.078125 41.25 50.410156 41.660156 54.425781 C 41.910156 56.859375 42.203125 57.484375 43.777344 58.929688 C 45.546875 60.554688 45.707031 60.601562 49.109375 60.410156 C 52.316406 60.226562 52.742188 60.070312 54.058594 58.597656 C 55.410156 57.085938 55.5 56.714844 55.5 52.691406 C 55.5 48.476562 55.46875 48.371094 53.800781 46.699219 C 52.191406 45.089844 51.914062 45 48.601562 45 C 45.453125 45 44.953125 45.140625 43.589844 46.414062 M 45.09375 51.371094 C 45.34375 52.671875 47 52.816406 47 51.535156 C 47 50.820312 46.679688 50.5 45.964844 50.5 C 45.246094 50.5 44.976562 50.769531 45.09375 51.371094 M 50.59375 51.371094 C 50.84375 52.671875 52.5 52.816406 52.5 51.535156 C 52.5 50.820312 52.179688 50.5 51.464844 50.5 C 50.746094 50.5 50.476562 50.769531 50.59375 51.371094 M 8.097656 52.242188 C 5.328125 54.574219 5 55.996094 5 65.699219 C 5 74.167969 5.039062 74.5 6 74.5 C 6.953125 74.5 7 74.164062 7.011719 67.125 C 7.027344 58.269531 7.425781 56.214844 9.5 54.355469 C 10.617188 53.355469 10.96875 52.6875 10.746094 51.980469 C 10.335938 50.699219 9.882812 50.742188 8.097656 52.242188 M 86.277344 51.863281 C 86.050781 52.453125 86.351562 53.019531 87.238281 53.664062 C 89.710938 55.464844 90 56.75 90 65.976562 L 90 74.5 L 92.5 74.5 L 92.5 65.90625 C 92.5 58.21875 92.390625 57.089844 91.457031 55.160156 C 90.484375 53.152344 88.230469 51 87.101562 51 C 86.828125 51 86.457031 51.386719 86.277344 51.863281 M 69 53.675781 C 69 54.050781 70.257812 55.542969 71.792969 56.996094 L 74.582031 59.636719 L 77.535156 56.714844 C 79.5 54.769531 80.324219 53.625 79.992188 53.292969 C 79.660156 52.960938 78.691406 53.582031 77.101562 55.148438 L 74.710938 57.503906 L 72.503906 55.253906 C 70.285156 52.992188 69 52.414062 69 53.675781 M 46.785156 55.285156 C 45.871094 56.199219 45.792969 57.175781 46.515625 58.53125 C 47.550781 60.464844 51.5 59.179688 51.5 56.914062 C 51.5 55.859375 49.878906 54.5 48.621094 54.5 C 48.042969 54.5 47.21875 54.851562 46.785156 55.285156 M 21.335938 55.375 C 21.214844 55.582031 20.835938 59.675781 20.496094 64.46875 L 19.875 73.1875 L 21.050781 75.34375 C 21.699219 76.53125 22.503906 77.5 22.84375 77.5 C 23.179688 77.5 24.015625 76.542969 24.695312 75.375 L 25.929688 73.25 L 25.253906 64.25 C 24.878906 59.300781 24.558594 55.195312 24.539062 55.125 C 24.445312 54.8125 21.535156 55.039062 21.335938 55.375 M 22.503906 57.023438 C 22.503906 57.421875 22.253906 61.144531 21.945312 65.296875 C 21.46875 71.675781 21.496094 73.050781 22.105469 74.214844 L 22.824219 75.589844 L 23.613281 74.386719 C 24.304688 73.332031 24.339844 72.214844 23.878906 65.21875 C 23.59375 60.835938 23.164062 57.035156 22.929688 56.773438 C 22.667969 56.488281 22.5 56.585938 22.503906 57.023438 M 47.5 57.410156 C 47.5 57.800781 47.941406 58.003906 48.585938 57.910156 C 50.121094 57.683594 50.253906 56.75 48.75 56.75 C 48.046875 56.75 47.5 57.039062 47.5 57.410156 M 12.351562 59.816406 C 11.6875 60.480469 11.949219 71.335938 12.640625 71.910156 C 14.148438 73.160156 14.535156 71.792969 14.390625 65.714844 C 14.273438 60.8125 14.113281 59.734375 13.476562 59.613281 C 13.050781 59.53125 12.542969 59.621094 12.351562 59.816406 M 31 65.660156 C 31 70.597656 31.148438 71.949219 31.714844 72.167969 C 33.15625 72.722656 33.535156 71.199219 33.390625 65.429688 C 33.253906 59.96875 33.207031 59.742188 32.125 59.589844 C 31.011719 59.433594 31 59.484375 31 65.660156 M 64.351562 59.816406 C 64.15625 60.007812 64 62.6875 64 65.773438 C 64 69.902344 64.179688 71.527344 64.683594 71.945312 C 66.085938 73.109375 66.539062 71.371094 66.390625 65.433594 C 66.277344 60.785156 66.109375 59.734375 65.476562 59.613281 C 65.050781 59.53125 64.542969 59.621094 64.351562 59.816406 M 83 65.75 C 83 71.667969 83.054688 72 84 72 C 84.945312 72 85 71.667969 85 65.75 C 85 59.832031 84.945312 59.5 84 59.5 C 83.054688 59.5 83 59.832031 83 65.75 M 73.5 63 C 73.5 63.734375 73.832031 64 74.75 64 C 75.667969 64 76 63.734375 76 63 C 76 62.265625 75.667969 62 74.75 62 C 73.832031 62 73.5 62.265625 73.5 63 M 38.21875 65.03125 C 36.761719 66.546875 36.75 66.625 36.585938 73.28125 L 36.421875 80 L 39 80 L 39 73.726562 C 39 67.832031 39.070312 67.386719 40.148438 66.351562 C 41.324219 65.226562 41.421875 63.5 40.308594 63.5 C 39.964844 63.5 39.027344 64.1875 38.21875 65.03125 M 56.300781 64.300781 C 56.117188 64.773438 56.503906 65.703125 57.246094 66.585938 C 58.429688 67.996094 58.5 68.40625 58.5 74.039062 L 58.5 80 L 61 80 L 61 73.96875 C 61 67.828125 60.738281 66.699219 58.851562 64.625 C 57.644531 63.300781 56.726562 63.183594 56.300781 64.300781 M 73.5 67 C 73.5 67.734375 73.832031 68 74.75 68 C 75.667969 68 76 67.734375 76 67 C 76 66.265625 75.667969 66 74.75 66 C 73.832031 66 73.5 66.265625 73.5 67 M 43.332031 68.832031 C 43.148438 69.015625 43 71.128906 43 73.53125 C 43 76.777344 43.175781 77.960938 43.6875 78.15625 C 44.066406 78.304688 44.628906 78.167969 44.9375 77.859375 C 45.527344 77.273438 45.722656 70.664062 45.195312 69.289062 C 44.882812 68.476562 43.925781 68.242188 43.332031 68.832031 M 52.3125 69.265625 C 51.71875 70.808594 51.96875 77.351562 52.640625 77.910156 C 54.054688 79.085938 54.546875 77.777344 54.394531 73.214844 C 54.277344 69.574219 54.101562 68.734375 53.4375 68.605469 C 52.992188 68.519531 52.484375 68.816406 52.3125 69.265625 "/>
</g>
</svg>
