<?xml version="1.0" encoding="UTF-8"?>
<svg xmlns="http://www.w3.org/2000/svg" xmlns:xlink="http://www.w3.org/1999/xlink" width="100px" height="100px" viewBox="0 0 100 100" version="1.1">
<g id="surface1">
<path style=" stroke:none;fill-rule:evenodd;fill:rgb(0%,0%,0%);fill-opacity:1;" d="M 73.613281 16.835938 C 72.710938 17.199219 71.675781 19.40625 71.273438 21.832031 C 71.082031 22.972656 70.480469 24.316406 69.933594 24.808594 C 69.355469 25.335938 65.355469 26.597656 60.34375 27.84375 C 49.367188 30.570312 45.507812 32.410156 40.699219 37.207031 C 35.566406 42.332031 32.527344 49.171875 31.582031 57.734375 L 31.25 60.75 L 23.75 61.070312 C 12.066406 61.570312 4.960938 63.941406 1.804688 68.390625 C -1.21875 72.652344 -0.199219 78.53125 4.042969 81.339844 C 5.941406 82.59375 6.621094 82.75 10.214844 82.75 C 12.804688 82.75 15.234375 82.421875 17 81.828125 C 20.960938 80.503906 27.246094 77.253906 30.949219 74.621094 C 33.574219 72.75 34.289062 72.449219 34.949219 72.933594 C 35.390625 73.257812 36.464844 73.980469 37.339844 74.539062 C 38.777344 75.460938 38.882812 75.691406 38.433594 76.972656 C 37.6875 79.113281 38.996094 81.839844 41.214844 82.769531 C 43.542969 83.742188 74.441406 83.859375 75.398438 82.898438 C 76.273438 82.027344 76.132812 77.183594 75.175781 75.164062 C 74.167969 73.039062 72.5 71.886719 69.90625 71.523438 L 67.941406 71.25 L 70.34375 69.453125 C 71.667969 68.464844 74.996094 65.652344 77.738281 63.203125 L 82.730469 58.75 L 87.179688 58.472656 C 91.042969 58.230469 91.757812 58.042969 92.566406 57.042969 C 94.636719 54.484375 93.257812 51.234375 89.558594 49.945312 C 88.003906 49.402344 87.929688 49.269531 88.25 47.578125 C 88.648438 45.457031 89.839844 43 90.472656 43 C 90.722656 43 91.953125 42.214844 93.210938 41.253906 C 94.632812 40.167969 95.5 39.765625 95.5 40.191406 C 95.5 41.363281 96.96875 42.261719 97.917969 41.667969 C 98.527344 41.285156 98.851562 40.027344 99.132812 36.949219 C 99.339844 34.640625 99.640625 31.34375 99.796875 29.628906 C 100.070312 26.6875 100.003906 26.425781 98.667969 25.097656 C 96.742188 23.183594 90.265625 20.578125 84.507812 19.398438 C 81.890625 18.867188 79.050781 17.996094 78.191406 17.464844 C 76.691406 16.535156 74.949219 16.296875 73.613281 16.835938 M 83.285156 25.285156 C 82.851562 25.71875 82.5 26.378906 82.5 26.75 C 82.5 27.597656 83.863281 29 84.683594 29 C 86.503906 29 87.164062 25.890625 85.53125 25.015625 C 84.28125 24.347656 84.214844 24.355469 83.285156 25.285156 "/>
</g>
</svg>
