<?xml version="1.0" encoding="UTF-8"?>
<svg xmlns="http://www.w3.org/2000/svg" xmlns:xlink="http://www.w3.org/1999/xlink" width="24px" height="24px" viewBox="0 0 24 24" version="1.1">
<g id="surface1">
<path style=" stroke:none;fill-rule:evenodd;fill:rgb(0%,0%,0%);fill-opacity:1;" d="M 17.667969 4.039062 C 17.449219 4.128906 17.203125 4.65625 17.105469 5.238281 C 17.058594 5.515625 16.914062 5.835938 16.785156 5.953125 C 16.644531 6.082031 15.683594 6.382812 14.484375 6.683594 C 11.847656 7.335938 10.921875 7.777344 9.769531 8.929688 C 8.535156 10.160156 7.804688 11.800781 7.578125 13.855469 L 7.5 14.578125 L 5.699219 14.65625 C 2.894531 14.777344 1.191406 15.347656 0.433594 16.414062 C -0.292969 17.4375 -0.046875 18.847656 0.96875 19.519531 C 1.425781 19.824219 1.589844 19.859375 2.453125 19.859375 C 3.074219 19.859375 3.65625 19.78125 4.078125 19.640625 C 5.03125 19.320312 6.539062 18.542969 7.425781 17.910156 C 8.058594 17.460938 8.230469 17.386719 8.386719 17.503906 C 8.492188 17.582031 8.75 17.753906 8.960938 17.890625 C 9.308594 18.109375 9.332031 18.164062 9.222656 18.472656 C 9.046875 18.988281 9.359375 19.640625 9.890625 19.863281 C 10.449219 20.097656 17.867188 20.125 18.097656 19.894531 C 18.304688 19.6875 18.273438 18.523438 18.042969 18.039062 C 17.800781 17.53125 17.398438 17.253906 16.777344 17.164062 L 16.304688 17.101562 L 16.882812 16.667969 C 17.199219 16.429688 18 15.757812 18.65625 15.167969 L 19.855469 14.101562 L 20.921875 14.035156 C 21.851562 13.976562 22.023438 13.929688 22.214844 13.691406 C 22.710938 13.078125 22.382812 12.296875 21.496094 11.988281 C 21.121094 11.855469 21.105469 11.824219 21.179688 11.417969 C 21.277344 10.910156 21.5625 10.320312 21.714844 10.320312 C 21.773438 10.320312 22.070312 10.132812 22.371094 9.902344 C 22.710938 9.640625 22.921875 9.542969 22.921875 9.644531 C 22.921875 9.925781 23.273438 10.144531 23.5 10 C 23.648438 9.910156 23.722656 9.605469 23.792969 8.867188 C 23.84375 8.3125 23.914062 7.523438 23.953125 7.109375 C 24.015625 6.40625 24 6.34375 23.679688 6.023438 C 23.21875 5.5625 21.664062 4.9375 20.28125 4.65625 C 19.652344 4.527344 18.972656 4.320312 18.765625 4.191406 C 18.40625 3.96875 17.988281 3.910156 17.667969 4.039062 M 19.988281 6.070312 C 19.886719 6.171875 19.800781 6.332031 19.800781 6.421875 C 19.800781 6.625 20.128906 6.960938 20.324219 6.960938 C 20.761719 6.960938 20.917969 6.214844 20.527344 6.003906 C 20.226562 5.84375 20.210938 5.84375 19.988281 6.070312 "/>
</g>
</svg>
