<?xml version="1.0" encoding="UTF-8"?>
<svg xmlns="http://www.w3.org/2000/svg" xmlns:xlink="http://www.w3.org/1999/xlink" width="24px" height="24px" viewBox="0 0 24 24" version="1.1">
<g id="surface1">
<path style=" stroke:none;fill-rule:evenodd;fill:rgb(0%,0%,0%);fill-opacity:1;" d="M 8.789062 2.308594 C 8.722656 2.390625 8.632812 2.59375 8.585938 2.761719 C 8.539062 2.925781 8.253906 3.421875 7.957031 3.863281 C 7.277344 4.863281 7.179688 5.453125 7.539062 6.449219 C 7.675781 6.828125 7.867188 7.4375 7.972656 7.800781 C 8.074219 8.164062 8.34375 8.695312 8.574219 8.984375 C 8.804688 9.269531 9.03125 9.703125 9.074219 9.941406 C 9.117188 10.183594 9.257812 10.597656 9.390625 10.859375 L 9.625 11.339844 L 9.003906 10.738281 C 8.292969 10.054688 7.878906 9.40625 7.6875 8.671875 C 7.59375 8.316406 7.410156 8.050781 7.066406 7.773438 C 6.796875 7.558594 6.3125 7.152344 5.992188 6.875 C 5.367188 6.339844 4.824219 6.164062 4.125 6.28125 C 3.890625 6.316406 3.410156 6.289062 3.050781 6.21875 C 2.253906 6.058594 1.988281 6.207031 2.074219 6.773438 C 2.273438 8.046875 2.539062 9.191406 2.695312 9.429688 C 2.796875 9.582031 3.242188 9.941406 3.6875 10.230469 C 4.519531 10.769531 6.039062 12.121094 5.546875 11.882812 C 5.25 11.738281 3.570312 11.484375 2.855469 11.476562 C 2.539062 11.472656 2.253906 11.585938 1.871094 11.859375 C 1.574219 12.070312 1.105469 12.328125 0.828125 12.425781 C 0.210938 12.640625 0 12.804688 0 13.070312 C 0 13.3125 0.882812 14.183594 1.382812 14.4375 C 1.875 14.683594 3.003906 14.878906 3.921875 14.878906 C 4.382812 14.878906 4.96875 14.980469 5.421875 15.136719 C 6.058594 15.355469 6.335938 15.382812 7.371094 15.328125 L 8.578125 15.261719 L 7.921875 15.5 C 7.464844 15.664062 6.738281 15.769531 5.578125 15.839844 C 4.65625 15.894531 3.699219 16.007812 3.453125 16.089844 C 2.773438 16.316406 2.207031 16.851562 1.851562 17.613281 C 1.671875 17.992188 1.371094 18.488281 1.183594 18.71875 C 0.59375 19.433594 0.746094 19.71875 1.828125 19.933594 C 2.742188 20.117188 3.550781 19.925781 4.722656 19.25 C 5.347656 18.886719 5.929688 18.652344 6.460938 18.550781 C 7.410156 18.371094 7.855469 18.152344 8.339844 17.640625 C 8.894531 17.050781 9.578125 16.621094 10.585938 16.226562 C 11.34375 15.933594 11.519531 15.902344 11.574219 16.046875 C 11.609375 16.140625 11.640625 17.484375 11.640625 19.03125 C 11.640625 20.933594 11.679688 21.839844 11.765625 21.839844 C 11.855469 21.839844 11.882812 20.863281 11.855469 18.71875 C 11.824219 16.011719 11.84375 15.601562 12 15.601562 C 12.15625 15.601562 12.175781 16.011719 12.144531 18.71875 C 12.117188 20.863281 12.144531 21.839844 12.234375 21.839844 C 12.320312 21.839844 12.359375 20.933594 12.359375 19.03125 C 12.359375 17.484375 12.390625 16.140625 12.429688 16.042969 C 12.484375 15.894531 12.648438 15.925781 13.417969 16.234375 C 14.449219 16.648438 15.125 17.070312 15.660156 17.640625 C 16.144531 18.152344 16.589844 18.371094 17.539062 18.550781 C 18.070312 18.652344 18.652344 18.886719 19.277344 19.25 C 20.4375 19.921875 21.300781 20.125 22.207031 19.929688 C 23.289062 19.699219 23.382812 19.480469 22.757812 18.617188 C 22.539062 18.308594 22.238281 17.804688 22.089844 17.496094 C 21.769531 16.816406 21.167969 16.261719 20.554688 16.078125 C 20.304688 16.003906 19.34375 15.898438 18.421875 15.84375 C 17.25 15.773438 16.539062 15.667969 16.078125 15.5 L 15.421875 15.261719 L 16.628906 15.328125 C 17.664062 15.382812 17.941406 15.355469 18.578125 15.136719 C 19.03125 14.980469 19.617188 14.878906 20.078125 14.878906 C 20.996094 14.878906 22.125 14.683594 22.617188 14.4375 C 23.136719 14.175781 24.121094 13.1875 24.121094 12.925781 C 24.121094 12.804688 24.070312 12.738281 24.007812 12.773438 C 23.945312 12.8125 23.863281 12.792969 23.828125 12.730469 C 23.789062 12.667969 23.554688 12.554688 23.308594 12.476562 C 23.0625 12.402344 22.570312 12.140625 22.214844 11.902344 C 21.761719 11.597656 21.441406 11.472656 21.136719 11.476562 C 20.425781 11.484375 18.746094 11.738281 18.453125 11.882812 C 17.960938 12.121094 19.480469 10.769531 20.3125 10.230469 C 20.757812 9.941406 21.207031 9.582031 21.304688 9.425781 C 21.464844 9.1875 21.585938 8.652344 21.917969 6.773438 C 22.015625 6.207031 21.75 6.054688 20.949219 6.21875 C 20.589844 6.289062 20.109375 6.316406 19.875 6.28125 C 19.175781 6.164062 18.632812 6.339844 18.007812 6.875 C 17.6875 7.152344 17.203125 7.558594 16.933594 7.773438 C 16.558594 8.078125 16.398438 8.320312 16.257812 8.816406 C 16.09375 9.378906 15.46875 10.441406 15.296875 10.441406 C 15.265625 10.441406 15.363281 10.238281 15.515625 9.988281 C 15.945312 9.296875 16.078125 8.894531 16.191406 7.917969 C 16.246094 7.425781 16.40625 6.777344 16.542969 6.480469 C 16.871094 5.773438 16.871094 4.933594 16.546875 4.292969 C 16.40625 4.019531 16.167969 3.46875 16.019531 3.066406 C 15.859375 2.640625 15.664062 2.324219 15.550781 2.300781 C 15.441406 2.277344 15.160156 2.429688 14.925781 2.636719 C 14.691406 2.839844 14.15625 3.171875 13.734375 3.371094 C 12.777344 3.824219 12.515625 4.179688 12.363281 5.25 C 12.148438 6.757812 11.960938 6.847656 11.824219 5.496094 C 11.722656 4.449219 11.554688 4.097656 10.910156 3.578125 C 10.636719 3.359375 10.148438 2.949219 9.824219 2.671875 C 9.203125 2.136719 8.988281 2.0625 8.789062 2.308594 M 8.886719 2.800781 C 8.8125 3.019531 8.511719 3.542969 8.21875 3.960938 C 7.507812 4.972656 7.457031 5.308594 7.835938 6.457031 C 8.003906 6.964844 8.175781 7.546875 8.214844 7.75 C 8.257812 7.953125 8.503906 8.40625 8.765625 8.753906 C 9.046875 9.125 9.273438 9.582031 9.316406 9.863281 C 9.359375 10.125 9.664062 10.777344 9.992188 11.320312 C 10.320312 11.859375 10.6875 12.460938 10.808594 12.660156 C 11.160156 13.238281 11.40625 13.902344 11.292969 13.972656 C 11.234375 14.007812 11.03125 13.730469 10.84375 13.355469 C 10.625 12.925781 10.007812 12.15625 9.164062 11.269531 C 8.148438 10.203125 7.78125 9.730469 7.628906 9.285156 C 7.289062 8.316406 7.164062 8.132812 6.539062 7.6875 C 6.207031 7.453125 5.78125 7.113281 5.589844 6.929688 C 5.398438 6.75 5.183594 6.597656 5.113281 6.589844 C 4.558594 6.554688 2.28125 6.523438 2.28125 6.550781 C 2.28125 6.570312 2.359375 6.898438 2.460938 7.28125 C 2.558594 7.660156 2.640625 8.125 2.640625 8.316406 C 2.640625 8.949219 2.980469 9.429688 3.816406 9.992188 C 4.257812 10.289062 4.996094 10.867188 5.460938 11.273438 C 6.273438 11.988281 6.640625 12.195312 9.328125 13.445312 C 10.347656 13.917969 10.921875 14.316406 10.78125 14.457031 C 10.753906 14.488281 10.507812 14.40625 10.242188 14.273438 C 9.976562 14.140625 9.199219 13.894531 8.515625 13.726562 C 7.074219 13.371094 6.734375 13.214844 6.011719 12.578125 C 5.441406 12.078125 5.457031 12.085938 4.019531 11.890625 C 2.652344 11.703125 2.605469 11.710938 1.796875 12.230469 C 1.398438 12.492188 0.910156 12.738281 0.714844 12.78125 C 0.191406 12.894531 0.167969 13.054688 0.617188 13.527344 C 1.25 14.195312 1.902344 14.421875 3.480469 14.53125 C 4.269531 14.585938 5.175781 14.730469 5.597656 14.867188 C 6.253906 15.078125 6.542969 15.097656 8.347656 15.03125 C 10.367188 14.960938 10.597656 14.863281 9.101562 14.714844 C 8.660156 14.671875 7.351562 14.394531 6.1875 14.101562 C 5.023438 13.804688 3.574219 13.507812 2.964844 13.4375 C 0.984375 13.207031 0.816406 13.183594 0.882812 13.117188 C 1.0625 12.9375 3.976562 13.390625 6.097656 13.925781 C 7.785156 14.355469 8.839844 14.550781 9.976562 14.644531 C 10.839844 14.71875 11.5625 14.757812 11.589844 14.730469 C 11.613281 14.703125 11.273438 14.417969 10.828125 14.09375 C 10.382812 13.765625 8.859375 12.363281 7.4375 10.976562 C 6.019531 9.589844 4.382812 8.109375 3.804688 7.691406 C 3.226562 7.269531 2.777344 6.902344 2.8125 6.867188 C 2.992188 6.6875 6.0625 9.265625 7.363281 10.691406 C 8.699219 12.148438 11.5625 14.636719 11.722656 14.476562 C 11.75 14.449219 11.613281 13.894531 11.421875 13.246094 C 10.824219 11.234375 9.0625 3.257812 9.183594 3.136719 C 9.257812 3.0625 9.316406 3.277344 9.65625 4.980469 C 10.113281 7.234375 11.246094 12.179688 11.5 13.019531 L 11.71875 13.738281 L 11.796875 12.660156 C 11.839844 12.066406 11.957031 11.121094 12.058594 10.558594 C 12.335938 8.996094 12.300781 7.9375 11.933594 7.046875 C 11.765625 6.636719 11.582031 5.90625 11.527344 5.429688 C 11.40625 4.398438 11.246094 4.121094 10.410156 3.5 C 10.0625 3.246094 9.703125 2.945312 9.609375 2.832031 C 9.515625 2.71875 9.34375 2.574219 9.230469 2.515625 C 9.054688 2.421875 8.996094 2.472656 8.886719 2.800781 M 15.121094 2.820312 C 14.964844 2.984375 14.4375 3.320312 13.945312 3.5625 C 13.183594 3.9375 13.015625 4.078125 12.828125 4.492188 C 12.703125 4.761719 12.605469 5.179688 12.601562 5.425781 C 12.601562 5.671875 12.511719 6.097656 12.402344 6.367188 C 12.230469 6.796875 12.226562 6.917969 12.375 7.359375 C 12.589844 8.011719 12.570312 9.246094 12.316406 10.738281 C 12.203125 11.398438 12.097656 12.371094 12.082031 12.898438 C 12.0625 13.585938 12.015625 13.851562 11.90625 13.828125 C 11.726562 13.792969 11.726562 13.816406 11.890625 14.242188 L 12.019531 14.578125 L 12.175781 14.207031 C 12.261719 14.003906 12.617188 12.734375 12.960938 11.386719 C 13.535156 9.140625 14.414062 5.957031 15.015625 3.917969 C 15.148438 3.464844 15.285156 3.125 15.316406 3.15625 C 15.347656 3.1875 15.023438 4.449219 14.589844 5.957031 C 14.160156 7.464844 13.492188 9.914062 13.101562 11.398438 C 12.710938 12.886719 12.347656 14.207031 12.292969 14.339844 C 12.191406 14.578125 12.195312 14.578125 12.546875 14.351562 C 13.316406 13.859375 14.535156 12.785156 15.90625 11.398438 C 18.210938 9.058594 20.988281 6.667969 21.183594 6.863281 C 21.210938 6.890625 20.761719 7.261719 20.1875 7.6875 C 19.609375 8.109375 18.007812 9.566406 16.621094 10.917969 C 15.234375 12.273438 13.710938 13.675781 13.234375 14.035156 C 12.757812 14.394531 12.390625 14.710938 12.414062 14.734375 C 12.558594 14.878906 15.796875 14.464844 17.019531 14.140625 C 17.789062 13.941406 18.851562 13.675781 19.378906 13.554688 C 20.421875 13.3125 23.011719 13.011719 23.117188 13.117188 C 23.183594 13.183594 23.015625 13.207031 21.035156 13.4375 C 20.425781 13.507812 18.976562 13.804688 17.8125 14.101562 C 16.648438 14.394531 15.339844 14.671875 14.898438 14.714844 C 13.460938 14.855469 13.746094 14.960938 15.773438 15.039062 C 17.601562 15.113281 17.828125 15.097656 18.453125 14.871094 C 18.894531 14.714844 19.640625 14.589844 20.535156 14.53125 C 22.105469 14.421875 22.71875 14.203125 23.390625 13.511719 C 23.832031 13.054688 23.808594 12.894531 23.285156 12.78125 C 23.089844 12.738281 22.601562 12.492188 22.203125 12.230469 C 21.800781 11.972656 21.351562 11.757812 21.207031 11.757812 C 20.957031 11.757812 19.316406 11.964844 18.777344 12.066406 C 18.644531 12.089844 18.261719 12.347656 17.921875 12.632812 C 17.203125 13.25 17.007812 13.335938 15.421875 13.742188 C 14.761719 13.910156 14.007812 14.152344 13.746094 14.28125 C 13.484375 14.40625 13.242188 14.484375 13.207031 14.445312 C 13.082031 14.320312 13.742188 13.882812 14.878906 13.347656 C 15.507812 13.054688 16.398438 12.632812 16.859375 12.414062 C 17.328125 12.191406 18.066406 11.683594 18.527344 11.273438 C 18.984375 10.871094 19.722656 10.292969 20.171875 9.996094 C 21.023438 9.429688 21.359375 8.953125 21.359375 8.316406 C 21.359375 8.125 21.441406 7.652344 21.542969 7.265625 C 21.753906 6.453125 21.671875 6.320312 21.074219 6.496094 C 20.867188 6.554688 20.289062 6.589844 19.789062 6.570312 C 18.957031 6.542969 18.847656 6.566406 18.472656 6.867188 C 18.246094 7.046875 17.765625 7.429688 17.402344 7.710938 C 16.949219 8.070312 16.695312 8.375 16.582031 8.703125 C 16.488281 8.964844 16.355469 9.339844 16.28125 9.539062 C 16.207031 9.734375 15.578125 10.492188 14.882812 11.21875 C 14.128906 12.003906 13.472656 12.816406 13.261719 13.226562 C 13.058594 13.617188 12.859375 13.867188 12.796875 13.804688 C 12.644531 13.652344 13.183594 12.730469 14.332031 11.183594 C 15.550781 9.542969 15.78125 9.066406 15.898438 7.980469 C 15.945312 7.519531 16.113281 6.832031 16.273438 6.453125 C 16.648438 5.558594 16.636719 5.0625 16.214844 4.226562 C 16.023438 3.847656 15.796875 3.308594 15.714844 3.03125 C 15.628906 2.75 15.527344 2.519531 15.480469 2.519531 C 15.4375 2.519531 15.273438 2.65625 15.121094 2.820312 M 6.179688 12.351562 C 6.609375 12.816406 7.054688 13.0625 7.859375 13.277344 C 8.8125 13.53125 8.773438 13.46875 7.660156 12.972656 C 7.085938 12.71875 6.4375 12.386719 6.21875 12.234375 L 5.820312 11.960938 L 6.179688 12.351562 M 17.726562 12.253906 C 17.542969 12.390625 16.921875 12.71875 16.347656 12.976562 C 15.699219 13.273438 15.460938 13.421875 15.71875 13.371094 C 16.546875 13.210938 17.359375 12.832031 17.757812 12.421875 C 18.222656 11.945312 18.210938 11.894531 17.726562 12.253906 M 0.0195312 13.078125 C 0.0195312 13.246094 0.046875 13.3125 0.078125 13.230469 C 0.113281 13.148438 0.113281 13.011719 0.078125 12.929688 C 0.046875 12.847656 0.0195312 12.914062 0.0195312 13.078125 M 10.515625 15.058594 C 10.472656 15.171875 10.289062 15.238281 10.023438 15.238281 C 9.789062 15.238281 9.101562 15.40625 8.488281 15.609375 C 7.578125 15.914062 7.078125 15.996094 5.699219 16.082031 C 3.285156 16.226562 2.683594 16.496094 2.113281 17.707031 C 1.9375 18.078125 1.621094 18.597656 1.414062 18.855469 C 0.929688 19.460938 1.054688 19.597656 2.152344 19.660156 C 3.128906 19.714844 3.628906 19.574219 4.679688 18.953125 C 5.109375 18.699219 5.730469 18.429688 6.058594 18.355469 C 7.457031 18.035156 7.609375 17.964844 8.207031 17.410156 C 9.046875 16.632812 9.441406 16.375 10.269531 16.070312 C 10.660156 15.925781 11.199219 15.679688 11.46875 15.523438 L 11.957031 15.242188 L 12.429688 15.492188 C 12.6875 15.628906 13.246094 15.875 13.671875 16.035156 C 14.570312 16.382812 14.953125 16.632812 15.792969 17.410156 C 16.390625 17.964844 16.542969 18.035156 17.941406 18.355469 C 18.269531 18.429688 18.890625 18.699219 19.320312 18.953125 C 20.371094 19.574219 20.871094 19.714844 21.847656 19.660156 C 22.945312 19.597656 23.070312 19.460938 22.585938 18.855469 C 22.378906 18.597656 22.0625 18.078125 21.886719 17.707031 C 21.316406 16.496094 20.707031 16.222656 18.265625 16.082031 C 16.90625 16.003906 16.425781 15.921875 15.511719 15.613281 C 14.90625 15.40625 14.246094 15.238281 14.050781 15.238281 C 13.855469 15.238281 13.617188 15.160156 13.515625 15.058594 C 13.417969 14.960938 13.199219 14.878906 13.027344 14.878906 C 12.425781 14.878906 15.570312 16.378906 17.40625 16.96875 C 19.019531 17.484375 22.433594 19.007812 22.292969 19.144531 C 22.261719 19.179688 21.519531 18.855469 20.644531 18.429688 C 19.769531 18.003906 18.34375 17.433594 17.476562 17.160156 C 16.5625 16.867188 15.179688 16.300781 14.179688 15.804688 C 12.945312 15.1875 12.332031 14.945312 12 14.945312 C 11.671875 14.945312 11.050781 15.1875 9.820312 15.800781 C 8.832031 16.292969 7.433594 16.867188 6.53125 17.152344 C 5.667969 17.425781 4.246094 18 3.363281 18.425781 C 2.484375 18.855469 1.738281 19.179688 1.707031 19.144531 C 1.566406 19.007812 4.980469 17.484375 6.59375 16.96875 C 8.515625 16.351562 11.574219 14.878906 10.933594 14.878906 C 10.734375 14.878906 10.554688 14.957031 10.515625 15.058594 "/>
</g>
</svg>
