<?xml version="1.0" encoding="UTF-8"?>
<svg xmlns="http://www.w3.org/2000/svg" xmlns:xlink="http://www.w3.org/1999/xlink" width="100px" height="100px" viewBox="0 0 100 100" version="1.1">
<g id="surface1">
<path style=" stroke:none;fill-rule:evenodd;fill:rgb(0%,0%,0%);fill-opacity:1;" d="M 68.105469 6.777344 C 64.769531 7.675781 60.5 9.496094 60.5 10.023438 C 60.5 10.242188 62.75 12.402344 65.5 14.824219 C 70.019531 18.804688 71.371094 20.5 70.019531 20.5 C 69.757812 20.5 67.148438 18.367188 64.222656 15.757812 C 58.101562 10.308594 58.621094 10.347656 54.039062 15 C 50.679688 18.410156 47.984375 23.257812 46.53125 28.503906 C 45.503906 32.222656 44.503906 33.9375 39.910156 39.863281 C 38.585938 41.578125 37.5 43.164062 37.5 43.394531 C 37.5 43.621094 38.753906 44.890625 40.289062 46.214844 C 42.207031 47.871094 42.914062 48.785156 42.558594 49.140625 C 42.203125 49.496094 41.320312 49.046875 39.722656 47.703125 C 36.027344 44.59375 36.285156 44.636719 34.433594 46.769531 C 28.824219 53.234375 26.539062 55.441406 23.632812 57.179688 C 21.851562 58.246094 18.828125 60.59375 16.921875 62.394531 L 13.453125 65.667969 L 15.726562 67.976562 C 17.75 70.03125 18.570312 71.5 17.695312 71.5 C 17.527344 71.5 16.265625 70.558594 14.890625 69.410156 L 12.390625 67.316406 L 11.460938 68.535156 C 8.085938 72.941406 5.210938 80.703125 4.394531 87.59375 C 3.765625 92.9375 4.078125 94 6.300781 94 C 7.550781 94 12.789062 92.152344 15.46875 90.765625 L 17.070312 89.9375 L 15.285156 87.761719 C 13.628906 85.738281 12.980469 84 13.886719 84 C 14.097656 84 15.160156 85.125 16.25 86.5 C 17.339844 87.875 18.464844 89 18.75 89 C 19.695312 89 25.46875 85.347656 29.101562 82.453125 C 32.304688 79.902344 32.976562 79.578125 35.710938 79.285156 C 41.152344 78.703125 47.679688 76.292969 50.898438 73.679688 L 52.046875 72.75 L 47.523438 67.410156 C 45.035156 64.476562 43 61.832031 43 61.535156 C 43 60.148438 44.539062 61.363281 47.71875 65.253906 C 49.628906 67.589844 51.707031 69.992188 52.34375 70.589844 L 53.5 71.675781 L 54.792969 70.460938 C 56.691406 68.683594 60.171875 63.171875 61.46875 59.894531 C 62.589844 57.0625 62.707031 56.960938 74.613281 48.144531 C 81.21875 43.253906 87.777344 38.339844 89.1875 37.226562 C 91.859375 35.117188 95 30.542969 95 28.757812 C 95 28.140625 93.589844 26.324219 91.5 24.25 C 89.574219 22.339844 88 20.488281 88 20.136719 C 88 18.746094 89.457031 19.652344 92.195312 22.75 C 93.773438 24.539062 95.308594 26 95.605469 26 C 96.523438 26 95.640625 19.644531 94.320312 16.765625 C 92.023438 11.75 87.734375 8.136719 82.382812 6.710938 C 79.03125 5.820312 71.535156 5.855469 68.105469 6.777344 M 61.804688 29.910156 C 61.664062 30.136719 63.675781 32.433594 66.269531 35.019531 C 70.003906 38.738281 71.113281 39.585938 71.601562 39.097656 C 72.089844 38.609375 71.234375 37.554688 67.484375 34.015625 C 62.683594 29.484375 62.257812 29.179688 61.804688 29.910156 "/>
</g>
</svg>
