<?xml version="1.0" encoding="UTF-8"?>
<svg xmlns="http://www.w3.org/2000/svg" xmlns:xlink="http://www.w3.org/1999/xlink" width="24px" height="24px" viewBox="0 0 24 24" version="1.1">
<g id="surface1">
<path style=" stroke:none;fill-rule:evenodd;fill:rgb(0%,0%,0%);fill-opacity:1;" d="M 16.34375 1.625 C 15.542969 1.84375 14.519531 2.277344 14.519531 2.40625 C 14.519531 2.457031 15.058594 2.976562 15.71875 3.558594 C 16.804688 4.511719 17.128906 4.921875 16.804688 4.921875 C 16.742188 4.921875 16.117188 4.40625 15.414062 3.78125 C 13.945312 2.472656 14.070312 2.484375 12.96875 3.601562 C 12.164062 4.417969 11.515625 5.582031 11.167969 6.839844 C 10.921875 7.734375 10.679688 8.144531 9.578125 9.566406 C 9.261719 9.976562 9 10.359375 9 10.414062 C 9 10.46875 9.300781 10.773438 9.667969 11.09375 C 10.128906 11.488281 10.300781 11.707031 10.214844 11.792969 C 10.128906 11.878906 9.917969 11.769531 9.535156 11.449219 C 8.644531 10.703125 8.707031 10.714844 8.265625 11.226562 C 6.917969 12.777344 6.367188 13.304688 5.671875 13.722656 C 5.242188 13.980469 4.519531 14.542969 4.0625 14.972656 L 3.226562 15.761719 L 3.773438 16.3125 C 4.261719 16.808594 4.457031 17.160156 4.246094 17.160156 C 4.207031 17.160156 3.902344 16.933594 3.574219 16.65625 L 2.972656 16.15625 L 2.75 16.449219 C 1.941406 17.503906 1.25 19.367188 1.054688 21.023438 C 0.902344 22.304688 0.980469 22.558594 1.511719 22.558594 C 1.8125 22.558594 3.070312 22.117188 3.710938 21.785156 L 4.097656 21.585938 L 3.667969 21.0625 C 3.269531 20.578125 3.117188 20.160156 3.332031 20.160156 C 3.382812 20.160156 3.636719 20.429688 3.898438 20.761719 C 4.160156 21.089844 4.429688 21.359375 4.5 21.359375 C 4.726562 21.359375 6.113281 20.484375 6.984375 19.789062 C 7.753906 19.175781 7.914062 19.097656 8.570312 19.027344 C 9.875 18.886719 11.441406 18.308594 12.214844 17.683594 L 12.492188 17.460938 L 11.40625 16.179688 C 10.808594 15.472656 10.320312 14.839844 10.320312 14.769531 C 10.320312 14.4375 10.691406 14.726562 11.453125 15.660156 C 11.910156 16.222656 12.410156 16.796875 12.5625 16.941406 L 12.839844 17.203125 L 13.148438 16.910156 C 13.605469 16.484375 14.441406 15.160156 14.753906 14.375 C 15.023438 13.695312 15.050781 13.671875 17.90625 11.554688 C 19.492188 10.378906 21.066406 9.203125 21.40625 8.933594 C 22.046875 8.425781 22.800781 7.332031 22.800781 6.902344 C 22.800781 6.753906 22.460938 6.316406 21.960938 5.820312 C 21.496094 5.363281 21.121094 4.917969 21.121094 4.832031 C 21.121094 4.5 21.46875 4.714844 22.125 5.460938 C 22.503906 5.890625 22.875 6.238281 22.945312 6.238281 C 23.164062 6.238281 22.953125 4.714844 22.636719 4.023438 C 22.085938 2.820312 21.054688 1.953125 19.773438 1.609375 C 18.96875 1.398438 17.167969 1.40625 16.34375 1.625 M 14.832031 7.179688 C 14.800781 7.234375 15.28125 7.785156 15.90625 8.40625 C 16.800781 9.296875 17.066406 9.5 17.183594 9.382812 C 17.300781 9.265625 17.097656 9.011719 16.195312 8.164062 C 15.042969 7.078125 14.941406 7.003906 14.832031 7.179688 "/>
</g>
</svg>
