<?xml version="1.0" encoding="UTF-8"?>
<svg xmlns="http://www.w3.org/2000/svg" xmlns:xlink="http://www.w3.org/1999/xlink" width="24px" height="24px" viewBox="0 0 24 24" version="1.1">
<g id="surface1">
<path style=" stroke:none;fill-rule:evenodd;fill:rgb(0%,0%,0%);fill-opacity:1;" d="M 11.640625 5.757812 C 11.640625 6.574219 11.632812 6.597656 11.308594 6.675781 C 9.667969 7.070312 8.320312 8.566406 7.933594 10.414062 C 7.632812 11.84375 7.847656 13.921875 8.40625 15.015625 C 8.941406 16.058594 10.023438 16.964844 11.128906 17.289062 L 11.640625 17.4375 L 11.640625 18.132812 C 11.640625 18.511719 11.695312 18.859375 11.765625 18.902344 C 12.019531 19.058594 12.238281 18.695312 12.238281 18.117188 L 12.238281 17.542969 L 12.871094 17.460938 C 13.757812 17.34375 14.652344 16.910156 15.355469 16.253906 L 15.960938 15.6875 L 15.960938 16.53125 C 15.960938 17.191406 16 17.390625 16.152344 17.449219 C 16.253906 17.488281 16.390625 17.492188 16.449219 17.453125 C 16.511719 17.417969 16.558594 16.289062 16.558594 14.945312 C 16.558594 12.832031 16.535156 12.496094 16.371094 12.433594 C 16.265625 12.394531 15.515625 12.359375 14.703125 12.359375 C 13.558594 12.359375 13.195312 12.398438 13.085938 12.535156 C 12.800781 12.878906 13.078125 12.960938 14.527344 12.960938 L 15.960938 12.960938 L 15.960938 13.625 C 15.960938 15.183594 14.578125 16.605469 12.808594 16.855469 L 12.238281 16.933594 L 12.238281 7.167969 L 12.882812 7.234375 C 14.09375 7.359375 15.144531 8.105469 15.675781 9.21875 C 16.09375 10.089844 16.179688 10.199219 16.390625 10.121094 C 16.648438 10.019531 16.597656 9.714844 16.191406 8.902344 C 15.558594 7.632812 14.308594 6.753906 12.957031 6.632812 L 12.238281 6.566406 L 12.238281 5.933594 C 12.238281 5.144531 12.15625 4.921875 11.867188 4.921875 C 11.664062 4.921875 11.640625 5.015625 11.640625 5.757812 M 10.4375 7.710938 C 9.652344 8.179688 8.980469 9.039062 8.679688 9.949219 C 8.34375 10.96875 8.378906 13.371094 8.746094 14.304688 C 9.195312 15.453125 10.214844 16.398438 11.371094 16.738281 L 11.640625 16.816406 L 11.640625 7.320312 L 11.363281 7.320312 C 11.214844 7.320312 10.796875 7.496094 10.4375 7.710938 "/>
</g>
</svg>
