<?xml version="1.0" encoding="UTF-8"?>
<svg xmlns="http://www.w3.org/2000/svg" xmlns:xlink="http://www.w3.org/1999/xlink" width="100px" height="100px" viewBox="0 0 100 100" version="1.1">
<g id="surface1">
<path style=" stroke:none;fill-rule:evenodd;fill:rgb(0%,0%,0%);fill-opacity:1;" d="M 36.621094 9.625 C 36.347656 9.96875 35.960938 10.8125 35.765625 11.5 C 35.570312 12.1875 34.394531 14.253906 33.148438 16.089844 C 30.320312 20.265625 29.921875 22.726562 31.40625 26.867188 C 31.976562 28.453125 32.789062 30.988281 33.210938 32.5 C 33.636719 34.011719 34.769531 36.230469 35.730469 37.429688 C 36.691406 38.628906 37.625 40.429688 37.804688 41.429688 C 37.988281 42.429688 38.578125 44.148438 39.121094 45.25 L 40.105469 47.25 L 37.515625 44.75 C 34.558594 41.898438 32.828125 39.1875 32.027344 36.140625 C 31.632812 34.648438 30.875 33.550781 29.4375 32.390625 C 28.316406 31.488281 26.304688 29.804688 24.960938 28.648438 C 22.363281 26.410156 20.105469 25.691406 17.179688 26.164062 C 16.210938 26.320312 14.203125 26.207031 12.71875 25.90625 C 9.386719 25.238281 8.285156 25.867188 8.648438 28.222656 C 9.46875 33.523438 10.582031 38.300781 11.230469 39.292969 C 11.644531 39.925781 13.507812 41.429688 15.367188 42.632812 C 18.824219 44.871094 25.167969 50.5 23.113281 49.503906 C 21.882812 48.90625 14.878906 47.851562 11.898438 47.820312 C 10.585938 47.804688 9.390625 48.265625 7.796875 49.410156 C 6.558594 50.300781 4.601562 51.363281 3.441406 51.769531 C 0.878906 52.675781 0 53.359375 0 54.457031 C 0 55.472656 3.675781 59.101562 5.761719 60.148438 C 7.808594 61.175781 12.511719 62 16.339844 62 C 18.269531 62 20.699219 62.414062 22.589844 63.070312 C 25.238281 63.988281 26.398438 64.101562 30.714844 63.863281 L 35.75 63.585938 L 33 64.578125 C 31.101562 65.265625 28.082031 65.703125 23.25 65.992188 C 19.398438 66.222656 15.414062 66.695312 14.394531 67.035156 C 11.558594 67.984375 9.203125 70.222656 7.710938 73.386719 C 6.96875 74.960938 5.714844 77.03125 4.929688 77.988281 C 2.480469 80.96875 3.109375 82.152344 7.613281 83.058594 C 11.417969 83.824219 14.800781 83.023438 19.671875 80.203125 C 22.277344 78.695312 24.710938 77.71875 26.921875 77.296875 C 30.882812 76.539062 32.730469 75.640625 34.75 73.496094 C 37.0625 71.039062 39.914062 69.246094 44.109375 67.617188 C 47.273438 66.390625 47.992188 66.257812 48.222656 66.855469 C 48.375 67.253906 48.5 72.851562 48.5 79.289062 C 48.5 87.214844 48.671875 91 49.03125 91 C 49.394531 91 49.511719 86.933594 49.40625 78 C 49.269531 66.707031 49.347656 65 50 65 C 50.652344 65 50.730469 66.707031 50.59375 78 C 50.488281 86.933594 50.605469 91 50.96875 91 C 51.328125 91 51.5 87.214844 51.5 79.289062 C 51.5 72.851562 51.628906 67.246094 51.785156 66.839844 C 52.023438 66.21875 52.707031 66.351562 55.910156 67.636719 C 60.210938 69.363281 63.027344 71.132812 65.25 73.496094 C 67.269531 75.640625 69.117188 76.539062 73.078125 77.296875 C 75.296875 77.71875 77.710938 78.691406 80.328125 80.210938 C 85.15625 83.011719 88.757812 83.847656 92.523438 83.042969 C 97.042969 82.074219 97.421875 81.164062 94.828125 77.566406 C 93.910156 76.292969 92.660156 74.191406 92.046875 72.898438 C 90.703125 70.0625 88.199219 67.753906 85.636719 66.992188 C 84.601562 66.683594 80.601562 66.242188 76.75 66.007812 C 71.878906 65.714844 68.914062 65.285156 67 64.585938 L 64.25 63.585938 L 69.285156 63.863281 C 73.601562 64.101562 74.761719 63.988281 77.410156 63.070312 C 79.300781 62.414062 81.730469 62 83.660156 62 C 87.484375 62 92.191406 61.175781 94.238281 60.148438 C 96.40625 59.0625 100.5 54.953125 100.5 53.863281 C 100.5 53.355469 100.289062 53.070312 100.035156 53.226562 C 99.777344 53.386719 99.4375 53.304688 99.277344 53.042969 C 99.117188 52.785156 98.144531 52.308594 97.117188 51.988281 C 96.089844 51.667969 94.042969 50.59375 92.5625 49.601562 C 90.667969 48.324219 89.34375 47.800781 88.0625 47.816406 C 85.105469 47.855469 78.109375 48.910156 76.886719 49.503906 C 74.832031 50.5 81.175781 44.871094 84.632812 42.632812 C 86.492188 41.429688 88.359375 39.917969 88.777344 39.28125 C 89.429688 38.28125 89.941406 36.054688 91.320312 28.222656 C 91.730469 25.867188 90.628906 25.234375 87.28125 25.90625 C 85.796875 26.207031 83.789062 26.320312 82.820312 26.164062 C 79.894531 25.691406 77.636719 26.410156 75.039062 28.648438 C 73.695312 29.804688 71.679688 31.492188 70.554688 32.398438 C 68.996094 33.65625 68.332031 34.675781 67.734375 36.726562 C 67.050781 39.082031 64.445312 43.5 63.742188 43.5 C 63.601562 43.5 64.011719 42.65625 64.648438 41.625 C 66.4375 38.738281 66.984375 37.058594 67.460938 32.996094 C 67.699219 30.933594 68.363281 28.238281 68.9375 27 C 70.300781 24.054688 70.300781 20.550781 68.941406 17.886719 C 68.359375 16.742188 67.371094 14.445312 66.746094 12.78125 C 66.082031 11.011719 65.265625 9.679688 64.789062 9.585938 C 64.339844 9.496094 63.171875 10.121094 62.195312 10.980469 C 61.21875 11.835938 58.984375 13.21875 57.222656 14.050781 C 53.234375 15.933594 52.148438 17.421875 51.519531 21.871094 C 50.625 28.164062 49.828125 28.535156 49.277344 22.90625 C 48.84375 18.546875 48.144531 17.074219 45.453125 14.90625 C 44.324219 13.996094 42.292969 12.292969 40.933594 11.125 C 38.347656 8.898438 37.453125 8.585938 36.621094 9.625 M 37.027344 11.671875 C 36.722656 12.589844 35.472656 14.765625 34.242188 16.507812 C 31.285156 20.710938 31.070312 22.117188 32.652344 26.902344 C 33.355469 29.019531 34.066406 31.445312 34.234375 32.292969 C 34.40625 33.140625 35.433594 35.019531 36.523438 36.472656 C 37.6875 38.019531 38.636719 39.925781 38.824219 41.089844 C 38.996094 42.179688 40.257812 44.914062 41.628906 47.160156 C 42.996094 49.410156 44.53125 51.925781 45.035156 52.75 C 46.507812 55.164062 47.527344 57.925781 47.050781 58.21875 C 46.8125 58.367188 45.96875 57.210938 45.183594 55.644531 C 44.277344 53.851562 41.703125 50.652344 38.191406 46.964844 C 33.945312 42.507812 32.429688 40.546875 31.78125 38.6875 C 30.371094 34.648438 29.855469 33.894531 27.242188 32.035156 C 25.859375 31.050781 24.085938 29.632812 23.292969 28.875 C 22.5 28.117188 21.605469 27.484375 21.300781 27.464844 C 18.992188 27.308594 9.5 27.175781 9.5 27.296875 C 9.5 27.382812 9.835938 28.746094 10.25 30.332031 C 10.664062 31.914062 11 33.859375 11 34.65625 C 11 37.28125 12.414062 39.292969 15.90625 41.640625 C 17.746094 42.875 20.824219 45.273438 22.75 46.96875 C 26.132812 49.945312 27.664062 50.804688 38.871094 56.015625 C 43.113281 57.984375 45.507812 59.65625 44.929688 60.238281 C 44.800781 60.367188 43.789062 60.023438 42.679688 59.472656 C 41.570312 58.925781 38.328125 57.902344 35.476562 57.195312 C 29.472656 55.714844 28.066406 55.070312 25.042969 52.414062 C 22.667969 50.332031 22.738281 50.355469 16.75 49.539062 C 11.050781 48.761719 10.855469 48.789062 7.492188 50.964844 C 5.820312 52.046875 3.789062 53.078125 2.980469 53.253906 C 0.792969 53.734375 0.707031 54.394531 2.570312 56.355469 C 5.214844 59.140625 7.925781 60.09375 14.492188 60.554688 C 17.789062 60.78125 21.5625 61.378906 23.316406 61.945312 C 26.058594 62.832031 27.269531 62.90625 34.78125 62.636719 C 43.195312 62.339844 44.15625 61.933594 37.921875 61.3125 C 36.089844 61.132812 30.625 59.976562 25.777344 58.75 C 20.933594 57.523438 14.890625 56.28125 12.359375 55.988281 C 4.097656 55.035156 3.40625 54.929688 3.679688 54.652344 C 4.425781 53.910156 16.578125 55.800781 25.40625 58.03125 C 32.441406 59.808594 36.835938 60.621094 41.578125 61.023438 C 45.160156 61.328125 48.179688 61.488281 48.285156 61.378906 C 48.394531 61.269531 46.96875 60.070312 45.121094 58.714844 C 43.269531 57.359375 36.910156 51.519531 30.992188 45.738281 C 25.074219 39.957031 18.261719 33.796875 15.851562 32.046875 C 13.441406 30.292969 11.578125 28.753906 11.710938 28.621094 C 12.460938 27.871094 25.253906 38.605469 30.6875 44.539062 C 36.246094 50.617188 48.179688 60.988281 48.84375 60.324219 C 48.953125 60.210938 48.386719 57.898438 47.585938 55.183594 C 45.105469 46.8125 37.753906 13.578125 38.269531 13.0625 C 38.578125 12.753906 38.808594 13.652344 40.242188 20.75 C 42.136719 30.144531 46.855469 50.742188 47.914062 54.25 L 48.820312 57.25 L 49.152344 52.75 C 49.335938 50.273438 49.828125 46.335938 50.242188 44 C 51.402344 37.480469 51.246094 33.078125 49.722656 29.363281 C 49.019531 27.652344 48.257812 24.617188 48.027344 22.621094 C 47.53125 18.324219 46.863281 17.167969 43.371094 14.589844 C 41.929688 13.523438 40.429688 12.269531 40.039062 11.800781 C 39.652344 11.328125 38.9375 10.734375 38.453125 10.476562 C 37.730469 10.085938 37.480469 10.296875 37.027344 11.671875 M 63 11.75 C 62.355469 12.4375 60.148438 13.828125 58.097656 14.839844 C 54.929688 16.40625 54.230469 16.988281 53.445312 18.71875 C 52.9375 19.835938 52.515625 21.589844 52.511719 22.613281 C 52.503906 23.640625 52.132812 25.398438 51.679688 26.523438 C 50.960938 28.324219 50.945312 28.824219 51.554688 30.660156 C 52.460938 33.386719 52.371094 38.53125 51.3125 44.75 C 50.84375 47.5 50.410156 51.550781 50.347656 53.75 C 50.265625 56.609375 50.058594 57.714844 49.617188 57.625 C 48.863281 57.472656 48.859375 57.570312 49.539062 59.34375 L 50.078125 60.75 L 50.734375 59.195312 C 51.097656 58.34375 52.566406 53.054688 54.003906 47.445312 C 56.40625 38.089844 60.054688 24.816406 62.558594 16.328125 C 63.117188 14.445312 63.679688 13.015625 63.816406 13.148438 C 63.949219 13.28125 62.589844 18.535156 60.796875 24.820312 C 59.003906 31.105469 56.210938 41.3125 54.589844 47.5 C 52.964844 53.6875 51.449219 59.199219 51.21875 59.75 C 50.800781 60.738281 50.8125 60.738281 52.273438 59.800781 C 55.488281 57.742188 60.570312 53.273438 66.269531 47.488281 C 75.875 37.738281 87.457031 27.789062 88.261719 28.59375 C 88.378906 28.714844 86.515625 30.257812 84.113281 32.023438 C 81.714844 33.792969 75.023438 39.855469 69.25 45.496094 C 63.476562 51.136719 57.128906 56.980469 55.144531 58.480469 C 53.164062 59.980469 51.625 61.292969 51.726562 61.394531 C 52.332031 62 65.824219 60.265625 70.921875 58.925781 C 74.125 58.082031 78.550781 56.980469 80.75 56.472656 C 85.085938 55.472656 95.878906 54.210938 96.320312 54.652344 C 96.59375 54.929688 95.902344 55.035156 87.640625 55.988281 C 85.109375 56.28125 79.066406 57.523438 74.222656 58.75 C 69.375 59.976562 63.910156 61.128906 62.078125 61.304688 C 56.085938 61.890625 57.269531 62.335938 65.726562 62.667969 C 73.347656 62.96875 74.277344 62.910156 76.894531 61.964844 C 78.726562 61.304688 81.835938 60.792969 85.570312 60.539062 C 92.109375 60.09375 94.652344 59.1875 97.453125 56.296875 C 99.296875 54.398438 99.199219 53.734375 97.019531 53.253906 C 96.210938 53.078125 94.179688 52.046875 92.507812 50.964844 C 90.835938 49.882812 88.96875 49 88.359375 48.996094 C 87.320312 48.992188 80.480469 49.855469 78.242188 50.273438 C 77.691406 50.375 76.085938 51.441406 74.675781 52.644531 C 71.675781 55.207031 70.875 55.5625 64.25 57.253906 C 61.5 57.953125 58.363281 58.964844 57.277344 59.5 C 56.191406 60.035156 55.179688 60.347656 55.027344 60.191406 C 54.5 59.664062 57.265625 57.851562 62 55.621094 C 64.613281 54.390625 68.324219 52.636719 70.25 51.71875 C 72.195312 50.792969 75.285156 48.6875 77.203125 46.980469 C 79.101562 45.289062 82.179688 42.890625 84.046875 41.652344 C 87.589844 39.292969 89 37.304688 89 34.65625 C 89 33.859375 89.34375 31.886719 89.765625 30.269531 C 90.644531 26.894531 90.300781 26.335938 87.808594 27.0625 C 86.949219 27.3125 84.546875 27.457031 82.460938 27.382812 C 78.988281 27.261719 78.535156 27.363281 76.960938 28.617188 C 76.019531 29.367188 74.019531 30.949219 72.515625 32.132812 C 70.621094 33.625 69.566406 34.894531 69.085938 36.269531 C 68.703125 37.359375 68.140625 38.921875 67.835938 39.742188 C 67.53125 40.5625 64.910156 43.710938 62.011719 46.742188 C 58.875 50.023438 56.140625 53.40625 55.253906 55.105469 C 54.402344 56.734375 53.574219 57.773438 53.324219 57.527344 C 52.6875 56.886719 54.933594 53.042969 59.71875 46.601562 C 64.800781 39.757812 65.761719 37.78125 66.234375 33.25 C 66.4375 31.324219 67.140625 28.464844 67.800781 26.890625 C 69.367188 23.152344 69.3125 21.09375 67.558594 17.609375 C 66.761719 16.039062 65.828125 13.792969 65.476562 12.625 C 65.128906 11.457031 64.691406 10.5 64.507812 10.5 C 64.324219 10.5 63.644531 11.0625 63 11.75 M 25.75 51.460938 C 27.542969 53.40625 29.386719 54.425781 32.75 55.320312 C 36.722656 56.378906 36.546875 56.117188 31.914062 54.054688 C 29.53125 52.992188 26.828125 51.609375 25.914062 50.976562 L 24.25 49.828125 L 25.75 51.460938 M 73.863281 51.066406 C 73.101562 51.632812 70.515625 52.988281 68.113281 54.078125 C 65.414062 55.300781 64.417969 55.925781 65.5 55.71875 C 68.953125 55.050781 72.332031 53.472656 74 51.75 C 75.921875 49.765625 75.882812 49.558594 73.863281 51.066406 M 0.078125 54.5 C 0.078125 55.1875 0.191406 55.46875 0.332031 55.125 C 0.46875 54.78125 0.46875 54.21875 0.332031 53.875 C 0.191406 53.53125 0.078125 53.8125 0.078125 54.5 M 43.820312 62.75 C 43.636719 63.21875 42.875 63.5 41.765625 63.5 C 40.792969 63.5 37.917969 64.195312 35.375 65.042969 C 31.574219 66.308594 29.5 66.65625 23.75 67.003906 C 13.679688 67.605469 11.1875 68.734375 8.804688 73.773438 C 8.066406 75.328125 6.757812 77.484375 5.890625 78.5625 C 3.867188 81.078125 4.394531 81.65625 8.964844 81.914062 C 13.039062 82.144531 15.121094 81.5625 19.5 78.972656 C 21.289062 77.914062 23.875 76.792969 25.25 76.476562 C 31.074219 75.140625 31.707031 74.859375 34.199219 72.546875 C 37.6875 69.304688 39.34375 68.230469 42.796875 66.953125 C 44.421875 66.355469 46.664062 65.335938 47.78125 64.6875 L 49.816406 63.511719 L 51.78125 64.546875 C 52.863281 65.117188 55.195312 66.140625 56.964844 66.820312 C 60.703125 68.261719 62.300781 69.296875 65.800781 72.546875 C 68.292969 74.859375 68.925781 75.140625 74.75 76.476562 C 76.125 76.792969 78.710938 77.914062 80.5 78.972656 C 84.878906 81.5625 86.960938 82.144531 91.035156 81.914062 C 95.605469 81.65625 96.132812 81.078125 94.109375 78.5625 C 93.242188 77.484375 91.933594 75.328125 91.195312 73.773438 C 88.8125 68.734375 86.273438 67.597656 76.097656 67.007812 C 70.441406 66.679688 68.449219 66.339844 64.640625 65.054688 C 62.101562 64.199219 59.363281 63.5 58.550781 63.5 C 57.738281 63.5 56.734375 63.164062 56.320312 62.75 C 55.910156 62.335938 54.992188 62 54.289062 62 C 51.777344 62 64.878906 68.246094 72.53125 70.699219 C 79.242188 72.851562 93.476562 79.191406 92.894531 79.773438 C 92.757812 79.910156 89.664062 78.570312 86.019531 76.796875 C 82.375 75.023438 76.4375 72.636719 72.820312 71.496094 C 69.003906 70.289062 63.246094 67.921875 59.082031 65.84375 C 53.941406 63.28125 51.375 62.273438 50 62.273438 C 48.625 62.273438 46.050781 63.285156 40.917969 65.839844 C 36.796875 67.886719 30.972656 70.28125 27.21875 71.46875 C 23.625 72.605469 17.683594 74.992188 14.019531 76.777344 C 10.355469 78.5625 7.242188 79.910156 7.105469 79.773438 C 6.523438 79.191406 20.757812 72.851562 27.46875 70.699219 C 35.488281 68.128906 48.226562 62 45.550781 62 C 44.726562 62 43.984375 62.324219 43.820312 62.75 "/>
</g>
</svg>
