<?xml version="1.0" encoding="UTF-8"?>
<svg xmlns="http://www.w3.org/2000/svg" xmlns:xlink="http://www.w3.org/1999/xlink" width="100px" height="100px" viewBox="0 0 100 100" version="1.1">
<g id="surface1">
<path style=" stroke:none;fill-rule:evenodd;fill:rgb(0%,0%,0%);fill-opacity:1;" d="M 48.5 23.992188 C 48.5 27.382812 48.460938 27.488281 47.125 27.8125 C 40.289062 29.457031 34.660156 35.691406 33.050781 43.398438 C 31.8125 49.351562 32.707031 58.003906 35.035156 62.566406 C 37.253906 66.914062 41.769531 70.6875 46.375 72.035156 L 48.5 72.660156 L 48.5 75.550781 C 48.5 77.140625 48.734375 78.585938 49.023438 78.761719 C 50.078125 79.417969 51 77.890625 51 75.484375 L 51 73.09375 L 53.625 72.753906 C 57.324219 72.273438 61.050781 70.460938 63.984375 67.714844 L 66.5 65.363281 L 66.5 68.878906 C 66.5 71.628906 66.671875 72.460938 67.296875 72.699219 C 67.734375 72.867188 68.296875 72.875 68.546875 72.722656 C 68.796875 72.566406 69 67.867188 69 62.273438 C 69 53.464844 68.894531 52.066406 68.210938 51.804688 C 67.773438 51.636719 64.652344 51.5 61.269531 51.5 C 56.496094 51.5 54.988281 51.664062 54.519531 52.226562 C 53.332031 53.65625 54.492188 54 60.53125 54 L 66.5 54 L 66.5 56.765625 C 66.5 63.273438 60.734375 69.183594 53.375 70.226562 L 51 70.5625 L 51 29.859375 L 53.6875 30.136719 C 58.71875 30.65625 63.101562 33.777344 65.316406 38.410156 C 67.050781 42.039062 67.414062 42.5 68.285156 42.167969 C 69.363281 41.753906 69.15625 40.472656 67.46875 37.09375 C 64.820312 31.796875 59.617188 28.140625 53.992188 27.632812 L 51 27.359375 L 51 24.722656 C 51 21.4375 50.65625 20.5 49.445312 20.5 C 48.609375 20.5 48.5 20.898438 48.5 23.992188 M 43.496094 32.125 C 40.222656 34.085938 37.414062 37.660156 36.171875 41.449219 C 34.769531 45.710938 34.917969 55.71875 36.4375 59.601562 C 38.3125 64.390625 42.558594 68.324219 47.375 69.738281 L 48.5 70.066406 L 48.5 30.5 L 47.351562 30.5 C 46.722656 30.5 44.984375 31.230469 43.496094 32.125 "/>
</g>
</svg>
