<?xml version="1.0" encoding="UTF-8"?>
<svg xmlns="http://www.w3.org/2000/svg" xmlns:xlink="http://www.w3.org/1999/xlink" width="100px" height="100px" viewBox="0 0 100 100" version="1.1">
<g id="surface1">
<path style=" stroke:none;fill-rule:evenodd;fill:rgb(0%,0%,0%);fill-opacity:1;" d="M 73.460938 2.207031 C 69.199219 5.011719 64.257812 9.660156 61.484375 13.46875 C 60.039062 15.449219 59.011719 16.414062 58.511719 16.261719 C 51.648438 14.15625 42.101562 13.699219 36.5 15.210938 C 27.066406 17.753906 18.5625 25.191406 14.203125 34.710938 C 11.511719 40.59375 10.925781 44.332031 10.515625 58.25 C 10.195312 69.257812 9.980469 71.730469 9.121094 74.375 C 7.851562 78.277344 5.710938 81.644531 2.496094 84.804688 C -0.851562 88.089844 -0.785156 88.929688 3.042969 91.53125 C 9.949219 96.21875 19.40625 99.332031 28.25 99.835938 C 38.570312 100.417969 49.613281 97.144531 58.75 90.796875 C 63.222656 87.6875 63.070312 87.75 62.5 89.253906 C 61.710938 91.328125 61.90625 92.414062 63.226562 93.28125 C 64.355469 94.019531 64.683594 94.019531 67.351562 93.246094 C 73.105469 91.585938 76.886719 89.144531 82.808594 83.265625 C 102.222656 64.003906 104.730469 48.964844 92.683594 24.078125 C 90.347656 19.246094 89.371094 17.832031 86.09375 14.535156 C 83.28125 11.699219 81.242188 10.160156 78.5 8.800781 C 76.4375 7.777344 74.839844 6.785156 74.945312 6.597656 C 75.054688 6.40625 76.175781 5.574219 77.441406 4.746094 C 79.855469 3.164062 80.480469 1.933594 79.480469 0.726562 C 78.492188 -0.464844 76.9375 -0.078125 73.460938 2.207031 M 70.191406 11.21875 C 69.242188 13.691406 71.691406 21.699219 75.683594 29.171875 C 80.179688 37.589844 82.433594 46.671875 81.789062 53.804688 C 80.925781 63.425781 77.371094 73.636719 71.988281 81.984375 C 69.796875 85.386719 68.097656 88.265625 68.214844 88.382812 C 68.765625 88.933594 74.9375 84.984375 78.125 82.039062 C 82.554688 77.945312 88.644531 70.644531 91.136719 66.4375 C 96.871094 56.757812 97.066406 46.386719 91.773438 32.550781 C 87.6875 21.871094 82.972656 15.710938 76.5 12.597656 C 72.132812 10.5 70.597656 10.164062 70.191406 11.21875 M 64.570312 16.511719 C 63.933594 17.371094 63.488281 18.144531 63.582031 18.226562 C 63.675781 18.304688 64.488281 18.746094 65.390625 19.207031 L 67.03125 20.039062 L 66.683594 18.644531 C 65.675781 14.574219 65.863281 14.765625 64.570312 16.511719 M 37.5625 19.289062 C 28.113281 21.828125 19.765625 30.332031 16.488281 40.75 C 15.527344 43.800781 15.332031 45.949219 14.980469 57.5 C 14.546875 71.828125 14.152344 74.359375 11.507812 79.75 C 10.699219 81.398438 9.027344 83.972656 7.792969 85.46875 C 5.152344 88.664062 4.964844 88.378906 11.703125 91.535156 C 26.660156 98.542969 43.296875 96.644531 57.75 86.277344 C 65.320312 80.851562 72.371094 72.824219 74.449219 67.273438 C 76.453125 61.917969 77.625 54.679688 77.328125 49.5 C 76.859375 41.273438 73.585938 32.414062 69.230469 27.597656 C 66.976562 25.101562 61.4375 21.441406 61.160156 22.261719 C 60.601562 23.914062 58.878906 26 58.070312 26 C 56.097656 26 55.695312 24.550781 56.746094 21.210938 C 57.042969 20.261719 56.734375 20.097656 53.273438 19.335938 C 48.660156 18.320312 41.238281 18.300781 37.5625 19.289062 "/>
</g>
</svg>
