<?xml version="1.0" encoding="UTF-8"?>
<svg xmlns="http://www.w3.org/2000/svg" xmlns:xlink="http://www.w3.org/1999/xlink" width="24px" height="24px" viewBox="0 0 24 24" version="1.1">
<g id="surface1">
<path style=" stroke:none;fill-rule:evenodd;fill:rgb(0%,0%,0%);fill-opacity:1;" d="M 15.058594 5.417969 C 14.207031 5.5625 14.027344 5.703125 13.6875 6.488281 C 13.546875 6.8125 13.402344 7.078125 13.367188 7.078125 C 13.328125 7.078125 12.898438 6.9375 12.414062 6.765625 C 11.640625 6.492188 11.421875 6.460938 10.714844 6.539062 C 10 6.613281 9.859375 6.671875 9.511719 7.039062 C 9.128906 7.445312 9.121094 7.449219 9.121094 7.164062 C 9.121094 7.003906 9.203125 6.640625 9.300781 6.355469 C 9.402344 6.074219 9.46875 5.828125 9.449219 5.808594 C 9.429688 5.789062 9.152344 6.011719 8.835938 6.304688 C 8.277344 6.816406 8.261719 6.851562 8.34375 7.332031 C 8.425781 7.824219 8.421875 7.832031 8.121094 7.757812 C 7.75 7.664062 6.875 8.019531 6.539062 8.402344 L 6.300781 8.675781 L 6.601562 8.585938 C 7.535156 8.300781 8.09375 8.4375 7.3125 8.761719 C 6.886719 8.9375 6.695312 9.277344 6.222656 10.667969 C 5.867188 11.722656 5.792969 12.292969 6 12.421875 C 6.203125 12.546875 6.136719 12.660156 5.78125 12.796875 C 5.59375 12.867188 5.3125 13.101562 5.15625 13.324219 C 4.898438 13.683594 4.894531 13.714844 5.105469 13.628906 C 5.234375 13.574219 5.585938 13.503906 5.890625 13.472656 C 6.421875 13.414062 6.449219 13.429688 6.699219 13.855469 C 6.84375 14.09375 6.960938 14.417969 6.960938 14.570312 C 6.960938 14.867188 7.523438 15.714844 7.894531 15.976562 C 8.019531 16.066406 8.210938 16.308594 8.316406 16.511719 C 8.5625 16.988281 9.84375 18.175781 10.445312 18.480469 C 11.011719 18.773438 11.875 18.789062 12.4375 18.523438 C 12.921875 18.292969 14.640625 16.722656 14.640625 16.511719 C 14.640625 16.429688 14.808594 16.207031 15.011719 16.011719 C 15.601562 15.449219 15.886719 14.988281 15.957031 14.46875 C 16.011719 14.042969 16.066406 13.972656 16.378906 13.917969 C 16.726562 13.855469 16.738281 13.828125 16.71875 13.269531 L 16.699219 12.691406 L 17.234375 12.761719 C 17.53125 12.804688 18.050781 12.96875 18.390625 13.132812 C 18.734375 13.296875 19.03125 13.410156 19.054688 13.386719 C 19.121094 13.316406 18.414062 11.980469 18.023438 11.449219 C 17.75 11.074219 17.53125 10.921875 17.097656 10.800781 L 16.527344 10.640625 L 17.113281 10.339844 C 18.089844 9.84375 19.480469 9.382812 20.261719 9.292969 C 20.667969 9.246094 21 9.167969 21 9.117188 C 21 8.890625 19.597656 7.777344 18.824219 7.386719 C 17.789062 6.871094 17.261719 6.84375 16.425781 7.269531 C 16.089844 7.4375 15.789062 7.550781 15.757812 7.515625 C 15.617188 7.375 16.757812 6.34375 17.460938 5.980469 C 17.953125 5.726562 18.1875 5.539062 18.113281 5.464844 C 17.953125 5.304688 15.925781 5.273438 15.058594 5.417969 M 9.652344 11.289062 L 9.179688 11.769531 L 9.179688 12.773438 C 9.179688 13.898438 9.09375 13.929688 8.644531 12.96875 L 8.363281 12.367188 L 7.890625 12.839844 C 7.476562 13.257812 7.410156 13.398438 7.355469 14.007812 C 7.300781 14.644531 7.328125 14.742188 7.679688 15.222656 C 7.890625 15.511719 8.15625 15.773438 8.269531 15.800781 C 8.382812 15.832031 8.542969 16.042969 8.625 16.269531 C 8.78125 16.699219 9.914062 17.78125 10.589844 18.148438 C 11.078125 18.414062 11.78125 18.417969 12.332031 18.15625 C 12.945312 17.867188 14.398438 16.433594 14.398438 16.121094 C 14.398438 15.972656 14.496094 15.84375 14.628906 15.808594 C 14.753906 15.773438 15.023438 15.519531 15.230469 15.234375 C 15.625 14.691406 15.71875 14.007812 15.484375 13.386719 C 15.324219 12.96875 15.0625 13 14.625 13.5 C 14.109375 14.082031 13.839844 14.066406 14.160156 13.472656 C 14.394531 13.035156 14.476562 12.476562 14.324219 12.324219 C 14.285156 12.285156 13.9375 12.464844 13.550781 12.726562 C 12.796875 13.238281 12.574219 13.324219 12.867188 12.988281 C 13.199219 12.613281 13.441406 12.019531 13.441406 11.585938 C 13.441406 11.238281 13.394531 11.160156 13.195312 11.160156 C 12.570312 11.160156 11.441406 12.082031 10.578125 13.300781 C 10.234375 13.789062 10.207031 13.804688 10.152344 13.542969 C 9.984375 12.707031 9.972656 12.378906 10.085938 11.671875 C 10.152344 11.242188 10.191406 10.871094 10.167969 10.847656 C 10.144531 10.824219 9.910156 11.023438 9.652344 11.289062 "/>
</g>
</svg>
