<?xml version="1.0" encoding="UTF-8"?>
<svg xmlns="http://www.w3.org/2000/svg" xmlns:xlink="http://www.w3.org/1999/xlink" width="100px" height="100px" viewBox="0 0 100 100" version="1.1">
<g id="surface1">
<path style=" stroke:none;fill-rule:evenodd;fill:rgb(0%,0%,0%);fill-opacity:1;" d="M 62.75 22.570312 C 59.199219 23.171875 58.441406 23.765625 57.03125 27.035156 C 56.449219 28.390625 55.84375 29.5 55.691406 29.5 C 55.535156 29.5 53.746094 28.910156 51.71875 28.191406 C 48.511719 27.050781 47.585938 26.925781 44.648438 27.242188 C 41.664062 27.5625 41.078125 27.804688 39.636719 29.335938 C 38.039062 31.027344 38 31.042969 38 29.847656 C 38 29.175781 38.339844 27.664062 38.753906 26.484375 C 39.171875 25.308594 39.445312 24.277344 39.367188 24.199219 C 39.285156 24.121094 38.140625 25.050781 36.816406 26.265625 C 34.484375 28.40625 34.417969 28.542969 34.757812 30.554688 C 35.101562 32.59375 35.085938 32.628906 33.84375 32.320312 C 32.289062 31.929688 28.648438 33.414062 27.25 35.011719 L 26.25 36.15625 L 27.5 35.777344 C 31.398438 34.589844 33.726562 35.164062 30.476562 36.511719 C 28.699219 37.246094 27.890625 38.660156 25.933594 44.449219 C 24.445312 48.847656 24.140625 51.21875 25 51.75 C 25.84375 52.273438 25.5625 52.757812 24.089844 53.3125 C 23.3125 53.605469 22.144531 54.597656 21.488281 55.515625 C 20.414062 57.023438 20.394531 57.144531 21.277344 56.78125 C 21.8125 56.558594 23.28125 56.269531 24.542969 56.132812 C 26.75 55.898438 26.875 55.957031 27.917969 57.722656 C 28.511719 58.730469 29 60.074219 29 60.703125 C 29 61.945312 31.339844 65.480469 32.890625 66.570312 C 33.417969 66.945312 34.210938 67.945312 34.648438 68.792969 C 35.671875 70.785156 41.015625 75.730469 43.519531 77.011719 C 45.886719 78.21875 49.480469 78.292969 51.820312 77.183594 C 53.835938 76.226562 61 69.679688 61 68.792969 C 61 68.460938 61.695312 67.527344 62.546875 66.71875 C 65.011719 64.375 66.191406 62.449219 66.480469 60.28125 C 66.714844 58.511719 66.9375 58.226562 68.25 57.988281 C 69.6875 57.730469 69.746094 57.621094 69.664062 55.296875 L 69.578125 52.875 L 71.816406 53.179688 C 73.050781 53.351562 75.21875 54.042969 76.632812 54.722656 C 78.050781 55.402344 79.289062 55.875 79.386719 55.777344 C 79.675781 55.492188 76.71875 49.921875 75.101562 47.707031 C 73.960938 46.140625 73.054688 45.503906 71.242188 44.996094 L 68.871094 44.332031 L 71.308594 43.089844 C 75.371094 41.019531 81.167969 39.085938 84.421875 38.71875 C 86.113281 38.527344 87.5 38.199219 87.5 37.984375 C 87.5 37.035156 81.65625 32.398438 78.425781 30.78125 C 74.117188 28.625 71.921875 28.515625 68.433594 30.285156 C 67.039062 30.988281 65.789062 31.457031 65.65625 31.320312 C 65.066406 30.734375 69.832031 26.4375 72.753906 24.921875 C 74.8125 23.855469 75.785156 23.085938 75.476562 22.777344 C 74.800781 22.101562 66.351562 21.964844 62.75 22.570312 M 40.21875 47.03125 L 38.25 49.046875 L 38.25 53.230469 C 38.25 57.917969 37.894531 58.046875 36.015625 54.035156 L 34.847656 51.535156 L 32.878906 53.503906 C 31.148438 55.234375 30.875 55.824219 30.65625 58.363281 C 30.421875 61.015625 30.53125 61.425781 31.996094 63.433594 C 32.875 64.636719 33.980469 65.71875 34.457031 65.84375 C 34.933594 65.96875 35.601562 66.839844 35.945312 67.785156 C 36.59375 69.578125 41.304688 74.09375 44.121094 75.625 C 46.160156 76.730469 49.085938 76.742188 51.382812 75.65625 C 53.933594 74.441406 60 68.476562 60 67.175781 C 60 66.554688 60.394531 66.011719 60.953125 65.867188 C 61.480469 65.730469 62.605469 64.65625 63.453125 63.484375 C 65.101562 61.210938 65.492188 58.359375 64.511719 55.78125 C 63.847656 54.03125 62.757812 54.171875 60.933594 56.25 C 58.796875 58.683594 57.667969 58.613281 59 56.132812 C 59.976562 54.308594 60.3125 51.980469 59.691406 51.355469 C 59.519531 51.183594 58.066406 51.933594 56.464844 53.023438 C 53.328125 55.152344 52.394531 55.515625 53.613281 54.125 C 54.992188 52.550781 56 50.082031 56 48.273438 C 56 46.820312 55.816406 46.5 54.980469 46.5 C 52.378906 46.5 47.679688 50.347656 44.082031 55.421875 C 42.644531 57.449219 42.527344 57.515625 42.304688 56.421875 C 41.597656 52.941406 41.546875 51.585938 42.019531 48.625 C 42.304688 46.835938 42.460938 45.292969 42.363281 45.195312 C 42.265625 45.097656 41.300781 45.925781 40.21875 47.03125 "/>
</g>
</svg>
