<?xml version="1.0" encoding="UTF-8"?>
<svg xmlns="http://www.w3.org/2000/svg" xmlns:xlink="http://www.w3.org/1999/xlink" width="24px" height="24px" viewBox="0 0 24 24" version="1.1">
<g id="surface1">
<path style=" stroke:none;fill-rule:evenodd;fill:rgb(0%,0%,0%);fill-opacity:1;" d="M 17.632812 0.53125 C 16.605469 1.203125 15.421875 2.316406 14.753906 3.230469 C 14.410156 3.707031 14.164062 3.941406 14.042969 3.902344 C 12.394531 3.398438 10.105469 3.289062 8.761719 3.652344 C 6.496094 4.261719 4.453125 6.046875 3.410156 8.332031 C 2.761719 9.742188 2.621094 10.640625 2.523438 13.980469 C 2.445312 16.621094 2.394531 17.214844 2.1875 17.851562 C 1.882812 18.785156 1.371094 19.59375 0.597656 20.351562 C -0.203125 21.140625 -0.1875 21.34375 0.730469 21.96875 C 2.386719 23.09375 4.65625 23.839844 6.78125 23.960938 C 9.257812 24.101562 11.90625 23.316406 14.101562 21.789062 C 15.171875 21.046875 15.136719 21.058594 15 21.421875 C 14.808594 21.917969 14.859375 22.179688 15.175781 22.386719 C 15.445312 22.566406 15.523438 22.5625 16.164062 22.378906 C 17.546875 21.980469 18.453125 21.394531 19.875 19.984375 C 24.53125 15.359375 25.136719 11.75 22.246094 5.777344 C 21.683594 4.621094 21.449219 4.28125 20.664062 3.488281 C 19.988281 2.808594 19.5 2.4375 18.839844 2.113281 C 18.34375 1.867188 17.960938 1.628906 17.988281 1.582031 C 18.011719 1.539062 18.28125 1.335938 18.585938 1.140625 C 19.164062 0.761719 19.316406 0.464844 19.074219 0.175781 C 18.839844 -0.109375 18.464844 -0.0195312 17.632812 0.53125 M 16.847656 2.691406 C 16.617188 3.285156 17.207031 5.207031 18.164062 7 C 19.242188 9.019531 19.785156 11.203125 19.628906 12.914062 C 19.421875 15.222656 18.570312 17.671875 17.277344 19.675781 C 16.75 20.492188 16.34375 21.183594 16.371094 21.210938 C 16.503906 21.34375 17.984375 20.394531 18.75 19.6875 C 19.8125 18.707031 21.273438 16.953125 21.875 15.945312 C 23.25 13.621094 23.296875 11.132812 22.027344 7.8125 C 21.046875 5.25 19.914062 3.769531 18.359375 3.023438 C 17.3125 2.519531 16.945312 2.4375 16.847656 2.691406 M 15.496094 3.960938 C 15.34375 4.167969 15.238281 4.355469 15.257812 4.375 C 15.28125 4.394531 15.476562 4.5 15.695312 4.609375 L 16.085938 4.808594 L 16.003906 4.476562 C 15.761719 3.496094 15.808594 3.542969 15.496094 3.960938 M 9.015625 4.628906 C 6.746094 5.238281 4.742188 7.28125 3.957031 9.78125 C 3.726562 10.511719 3.679688 11.027344 3.59375 13.800781 C 3.492188 17.238281 3.394531 17.847656 2.761719 19.140625 C 2.566406 19.535156 2.167969 20.152344 1.871094 20.511719 C 1.234375 21.28125 1.191406 21.210938 2.808594 21.96875 C 6.398438 23.648438 10.390625 23.195312 13.859375 20.707031 C 15.675781 19.402344 17.367188 17.476562 17.867188 16.144531 C 18.347656 14.859375 18.628906 13.121094 18.558594 11.878906 C 18.445312 9.90625 17.660156 7.78125 16.617188 6.625 C 16.074219 6.023438 14.746094 5.144531 14.679688 5.34375 C 14.542969 5.738281 14.128906 6.238281 13.9375 6.238281 C 13.464844 6.238281 13.367188 5.890625 13.617188 5.089844 C 13.691406 4.863281 13.617188 4.824219 12.785156 4.640625 C 11.679688 4.398438 9.898438 4.390625 9.015625 4.628906 "/>
</g>
</svg>
