<?xml version="1.0" encoding="UTF-8"?>
<svg xmlns="http://www.w3.org/2000/svg" xmlns:xlink="http://www.w3.org/1999/xlink" width="100px" height="100px" viewBox="0 0 100 100" version="1.1">
<g id="surface1">
<path style=" stroke:none;fill-rule:evenodd;fill:rgb(0%,0%,0%);fill-opacity:1;" d="M 68.25 16.328125 C 65.449219 17.765625 63.5 19.378906 63.5 20.257812 C 63.5 20.582031 63.949219 21.253906 64.5 21.75 C 66.578125 23.632812 65.28125 25.273438 62.597656 24.15625 C 60.386719 23.230469 57.804688 23.574219 54.523438 25.238281 C 50.414062 27.320312 48.296875 30.722656 49.363281 33.539062 C 49.832031 34.789062 49.660156 35.140625 47.289062 37.683594 L 44.703125 40.464844 L 41.476562 39.144531 C 37.632812 37.570312 31.25 37.066406 26.828125 37.984375 C 22.027344 38.980469 16.191406 42.230469 12.375 46.035156 C -3.375 61.722656 7.753906 84.949219 31.046875 84.992188 C 35.449219 85 41.246094 83.652344 45.019531 81.742188 C 48.183594 80.136719 51.996094 76.660156 53.867188 73.667969 C 54.757812 72.25 55.519531 71.546875 56 71.699219 C 63.210938 73.957031 70.390625 74.546875 75.625 73.3125 C 85.09375 71.074219 91.625 64.933594 94.269531 55.777344 C 95.960938 49.921875 94.15625 42.5 90.199219 39.023438 L 88.441406 37.480469 L 89.472656 36.171875 C 90.746094 34.550781 90.765625 32.382812 89.527344 29.65625 C 88.390625 27.15625 86.425781 26 83.308594 26 C 81.472656 26 81.007812 25.8125 80.734375 24.949219 C 80.546875 24.359375 79.464844 23.484375 78.265625 22.957031 C 76.289062 22.082031 76.113281 21.84375 75.878906 19.761719 C 75.332031 14.910156 73.03125 13.875 68.25 16.328125 M 69.25 18.28125 C 66.347656 19.78125 66.164062 20.230469 67.492188 22.59375 C 68.257812 23.953125 68.695312 25.5625 68.714844 27.097656 C 68.742188 28.976562 68.910156 29.441406 69.5 29.265625 C 69.914062 29.148438 70.839844 28.90625 71.558594 28.734375 C 72.707031 28.464844 72.910156 28.101562 73.179688 25.835938 C 73.578125 22.53125 73.585938 19.300781 73.195312 18.289062 C 72.8125 17.289062 71.179688 17.285156 69.25 18.28125 M 75.355469 26.375 C 74.785156 28.304688 74.773438 28.882812 75.292969 29.449219 C 75.828125 30.035156 76.210938 29.847656 77.703125 28.265625 C 79.550781 26.304688 79.558594 25.011719 77.722656 24.308594 C 76.296875 23.761719 76.070312 23.960938 75.355469 26.375 M 65.738281 25.597656 C 65.566406 26.046875 65.769531 27.054688 66.191406 27.832031 L 66.960938 29.25 L 66.972656 27.75 C 66.980469 26.925781 66.773438 25.917969 66.519531 25.515625 C 66.117188 24.878906 66.011719 24.890625 65.738281 25.597656 M 57.394531 26.09375 C 54.65625 26.828125 51 30.21875 51 32.023438 C 51 33.765625 52.160156 34.5 54.90625 34.5 C 58.480469 34.5 60.039062 33.960938 60.550781 32.554688 C 61.449219 30.066406 62.21875 28.917969 63.402344 28.296875 L 64.589844 27.675781 L 63.414062 26.902344 C 61.742188 25.808594 59.550781 25.511719 57.394531 26.09375 M 80.164062 28.210938 C 77.804688 29.261719 77.375 30.429688 78.179688 33.589844 L 78.859375 36.25 L 81.152344 36.402344 C 83.417969 36.550781 86.597656 35.921875 87.941406 35.054688 C 88.976562 34.386719 88.214844 31.246094 86.597656 29.5 C 84.964844 27.738281 82.390625 27.222656 80.164062 28.210938 M 63.277344 30.660156 C 62.535156 31.210938 62.257812 32.148438 62.097656 34.621094 C 61.90625 37.640625 61.992188 37.976562 63.363281 39.507812 C 67.480469 44.117188 77.527344 39.816406 76.246094 33.992188 C 75.667969 31.347656 74.195312 30.429688 70.753906 30.566406 C 69.101562 30.632812 66.960938 30.519531 66 30.316406 C 64.773438 30.054688 63.957031 30.160156 63.277344 30.660156 M 50.507812 37.320312 C 49.710938 37.992188 48.589844 39.296875 48.019531 40.21875 L 46.984375 41.890625 L 50.148438 45.070312 C 55.425781 50.367188 57.960938 56.910156 57.296875 63.5 C 57.117188 65.289062 56.917969 67.3125 56.859375 68 C 56.761719 69.097656 57.082031 69.363281 59.5 70.183594 C 63.085938 71.398438 70.570312 71.8125 74.605469 71.019531 C 81.894531 69.585938 87.75 65.40625 90.609375 59.605469 C 91.972656 56.832031 92.28125 55.585938 92.425781 52.167969 C 92.660156 46.648438 91.636719 43.589844 88.503906 40.453125 C 86.183594 38.136719 86.113281 38.109375 83.914062 38.519531 C 82.6875 38.746094 80.835938 38.746094 79.800781 38.511719 C 78.027344 38.113281 77.816406 38.199219 76.1875 40.003906 C 74.363281 42.023438 70.996094 43.507812 68.285156 43.488281 C 64.746094 43.464844 60.933594 40.613281 60.246094 37.476562 C 59.90625 35.941406 59.871094 35.933594 56.5 36.78125 C 56.085938 36.882812 54.898438 36.773438 53.855469 36.53125 C 52.214844 36.15625 51.765625 36.261719 50.507812 37.320312 M 29.25 39.554688 C 22.304688 40.550781 14.804688 46.09375 11.632812 52.574219 C 7.574219 60.859375 8.546875 69.253906 14.285156 75.453125 C 19.007812 80.554688 25.660156 83.253906 33.25 83.152344 C 44.460938 83 53.433594 75.746094 55.511719 65.160156 C 57.53125 54.855469 49.660156 42.726562 39.242188 40.097656 C 36.019531 39.285156 32.457031 39.09375 29.25 39.554688 M 29.886719 42.78125 C 29.136719 43.1875 28.300781 43.9375 28.027344 44.449219 C 27.652344 45.148438 26.800781 45.429688 24.558594 45.59375 C 19.449219 45.960938 15.894531 49.152344 15.207031 53.984375 C 15.003906 55.40625 14.402344 56.765625 13.589844 57.632812 C 12.550781 58.742188 12.257812 59.636719 12.097656 62.140625 C 11.816406 66.527344 12.664062 69.183594 15.15625 71.761719 C 16.308594 72.949219 18.011719 74.726562 18.945312 75.710938 C 22.710938 79.675781 30.273438 81.652344 34.660156 79.820312 C 36.066406 79.230469 36.863281 79.164062 37.867188 79.542969 C 41.058594 80.757812 46.820312 77.796875 47.972656 74.351562 C 48.269531 73.460938 49.25 72.269531 50.175781 71.671875 C 52.171875 70.382812 53.585938 67.613281 53.898438 64.382812 C 54.074219 62.527344 53.839844 61.4375 52.8125 59.332031 C 51.949219 57.566406 51.496094 55.8125 51.488281 54.199219 C 51.460938 48.246094 46.835938 43.839844 41.507812 44.691406 C 40.125 44.910156 39.441406 44.785156 38.96875 44.214844 C 37.175781 42.054688 32.566406 41.324219 29.886719 42.78125 M 15.199219 44.914062 C 10.742188 48.144531 7.550781 53.460938 6.503906 59.382812 C 5.238281 66.570312 8.660156 74.328125 15.199219 79.082031 C 18.261719 81.308594 18.1875 80.75 15.023438 77.730469 C 10.058594 72.996094 7.507812 66.527344 8.25 60.566406 C 8.921875 55.210938 11.890625 49.140625 15.71875 45.3125 C 17.902344 43.132812 17.785156 43.039062 15.199219 44.914062 M 31.175781 43.824219 C 30.585938 43.953125 29.722656 44.476562 29.253906 44.992188 C 28.445312 45.890625 28.496094 45.976562 30.386719 46.941406 C 33.191406 48.375 35.453125 50.390625 37.023438 52.867188 L 38.378906 55.003906 L 39.050781 53.375 C 41.359375 47.8125 37.03125 42.5625 31.175781 43.824219 M 40.851562 48.84375 C 41.054688 51.070312 40.910156 52.226562 40.273438 53.453125 C 39.808594 54.355469 39.519531 55.183594 39.628906 55.296875 C 39.742188 55.410156 41.101562 55.246094 42.648438 54.933594 C 44.628906 54.539062 46.0625 54.523438 47.480469 54.882812 L 49.5 55.394531 L 49.5 53.679688 C 49.5 49.648438 46.917969 46.742188 42.835938 46.183594 L 40.582031 45.875 L 40.851562 48.84375 M 22 47.558594 C 19.457031 48.570312 16.5 52.242188 16.5 54.386719 C 16.5 55.203125 16.898438 55.320312 19.625 55.308594 C 21.34375 55.300781 25.96875 55.46875 29.90625 55.683594 L 37.0625 56.074219 L 36.3125 54.625 C 34.578125 51.265625 28.042969 46.976562 24.75 47.035156 C 23.925781 47.050781 22.6875 47.285156 22 47.558594 M 40.304688 56.414062 C 39.46875 56.765625 39.585938 56.976562 41.359375 58.28125 C 44.925781 60.90625 47.550781 64.851562 48.265625 68.660156 C 48.566406 70.269531 48.722656 70.4375 49.386719 69.886719 C 50.542969 68.933594 51.976562 65.46875 51.988281 63.609375 C 52.003906 61.4375 50.941406 59.035156 49.289062 57.515625 C 48.1875 56.496094 47.363281 56.257812 44.601562 56.148438 C 42.757812 56.078125 40.824219 56.195312 40.304688 56.414062 M 16.09375 57.476562 C 14.394531 58.550781 12.996094 61.09375 13.003906 63.109375 C 13.011719 66.425781 15.683594 71 17.609375 71 C 18.960938 71 25.875 66 30.273438 61.84375 C 32.734375 59.511719 34.636719 57.492188 34.5 57.351562 C 34.363281 57.210938 30.539062 56.945312 26 56.761719 C 18.1875 56.449219 17.664062 56.488281 16.09375 57.476562 M 32.742188 61.542969 C 28.171875 66.179688 23.753906 69.65625 20.5 71.175781 C 19.261719 71.757812 18.136719 72.3125 18 72.414062 C 17.574219 72.730469 21.902344 76.339844 23.761719 77.222656 C 26.628906 78.582031 30.6875 79.253906 32.824219 78.722656 C 36.300781 77.855469 37.851562 74.335938 38.324219 66.25 C 38.609375 61.34375 38.179688 57.976562 37.21875 57.65625 C 36.953125 57.566406 34.9375 59.316406 32.742188 61.542969 M 39.617188 64.355469 C 39.574219 69.605469 38.933594 73.835938 37.761719 76.625 C 37.445312 77.378906 37.683594 77.5 39.472656 77.5 C 41.933594 77.5 44.015625 76.523438 45.457031 74.691406 C 47.835938 71.667969 45.917969 64.453125 41.640625 60.355469 L 39.667969 58.460938 L 39.617188 64.355469 "/>
</g>
</svg>
