<?xml version="1.0" encoding="UTF-8"?>
<svg xmlns="http://www.w3.org/2000/svg" xmlns:xlink="http://www.w3.org/1999/xlink" width="24px" height="24px" viewBox="0 0 24 24" version="1.1">
<g id="surface1">
<path style=" stroke:none;fill-rule:evenodd;fill:rgb(0%,0%,0%);fill-opacity:1;" d="M 16.378906 3.917969 C 15.707031 4.265625 15.238281 4.652344 15.238281 4.863281 C 15.238281 4.941406 15.347656 5.101562 15.480469 5.21875 C 15.980469 5.671875 15.667969 6.066406 15.023438 5.796875 C 14.492188 5.574219 13.871094 5.660156 13.085938 6.058594 C 12.097656 6.558594 11.589844 7.375 11.847656 8.050781 C 11.960938 8.347656 11.917969 8.433594 11.347656 9.042969 L 10.726562 9.710938 L 9.953125 9.394531 C 9.03125 9.015625 7.5 8.894531 6.4375 9.117188 C 5.285156 9.355469 3.886719 10.136719 2.96875 11.046875 C -0.808594 14.8125 1.859375 20.386719 7.449219 20.398438 C 8.507812 20.398438 9.898438 20.078125 10.804688 19.617188 C 11.5625 19.234375 12.480469 18.398438 12.929688 17.679688 C 13.140625 17.339844 13.324219 17.171875 13.441406 17.207031 C 15.171875 17.75 16.894531 17.890625 18.148438 17.59375 C 20.421875 17.058594 21.992188 15.582031 22.625 13.386719 C 23.03125 11.980469 22.597656 10.199219 21.648438 9.367188 L 21.226562 8.996094 L 21.472656 8.679688 C 21.777344 8.292969 21.785156 7.773438 21.488281 7.117188 C 21.214844 6.515625 20.742188 6.238281 19.992188 6.238281 C 19.554688 6.238281 19.441406 6.195312 19.375 5.988281 C 19.332031 5.847656 19.070312 5.636719 18.785156 5.507812 C 18.308594 5.300781 18.265625 5.242188 18.210938 4.742188 C 18.078125 3.578125 17.527344 3.332031 16.378906 3.917969 M 16.621094 4.386719 C 15.921875 4.746094 15.878906 4.855469 16.199219 5.421875 C 16.382812 5.75 16.488281 6.132812 16.492188 6.503906 C 16.5 6.953125 16.539062 7.066406 16.679688 7.023438 C 16.777344 6.996094 17 6.9375 17.175781 6.898438 C 17.449219 6.832031 17.496094 6.746094 17.5625 6.199219 C 17.660156 5.40625 17.660156 4.632812 17.566406 4.390625 C 17.476562 4.148438 17.082031 4.148438 16.621094 4.386719 M 18.085938 6.328125 C 17.949219 6.792969 17.945312 6.929688 18.070312 7.066406 C 18.199219 7.207031 18.289062 7.164062 18.648438 6.785156 C 19.09375 6.3125 19.09375 6.003906 18.652344 5.835938 C 18.3125 5.703125 18.257812 5.75 18.085938 6.328125 M 15.777344 6.144531 C 15.734375 6.25 15.785156 6.492188 15.886719 6.679688 L 16.070312 7.019531 L 16.074219 6.660156 C 16.074219 6.460938 16.027344 6.21875 15.964844 6.125 C 15.867188 5.972656 15.84375 5.972656 15.777344 6.144531 M 13.773438 6.261719 C 13.117188 6.4375 12.238281 7.253906 12.238281 7.6875 C 12.238281 8.105469 12.519531 8.28125 13.175781 8.28125 C 14.035156 8.28125 14.410156 8.152344 14.53125 7.8125 C 14.746094 7.214844 14.933594 6.941406 15.214844 6.792969 L 15.5 6.640625 L 15.21875 6.457031 C 14.820312 6.195312 14.292969 6.125 13.773438 6.261719 M 19.238281 6.769531 C 18.671875 7.023438 18.570312 7.304688 18.761719 8.0625 L 18.925781 8.699219 L 19.476562 8.738281 C 20.019531 8.773438 20.785156 8.621094 21.105469 8.414062 C 21.355469 8.253906 21.171875 7.5 20.785156 7.078125 C 20.390625 6.65625 19.773438 6.53125 19.238281 6.769531 M 15.1875 7.359375 C 15.007812 7.492188 14.941406 7.714844 14.902344 8.308594 C 14.859375 9.035156 14.878906 9.113281 15.207031 9.480469 C 16.195312 10.589844 18.605469 9.554688 18.300781 8.15625 C 18.160156 7.523438 17.804688 7.304688 16.980469 7.335938 C 16.585938 7.351562 16.070312 7.324219 15.839844 7.277344 C 15.546875 7.214844 15.351562 7.238281 15.1875 7.359375 M 12.121094 8.957031 C 11.929688 9.117188 11.660156 9.429688 11.523438 9.652344 L 11.277344 10.054688 L 12.035156 10.816406 C 13.300781 12.089844 13.910156 13.660156 13.75 15.238281 C 13.707031 15.667969 13.660156 16.15625 13.644531 16.320312 C 13.625 16.582031 13.699219 16.648438 14.28125 16.84375 C 15.140625 17.136719 16.9375 17.234375 17.90625 17.042969 C 19.65625 16.699219 21.058594 15.699219 21.746094 14.304688 C 22.074219 13.640625 22.148438 13.339844 22.183594 12.519531 C 22.238281 11.195312 21.992188 10.460938 21.242188 9.710938 C 20.683594 9.152344 20.667969 9.144531 20.140625 9.246094 C 19.84375 9.300781 19.402344 9.296875 19.152344 9.242188 C 18.726562 9.148438 18.675781 9.167969 18.285156 9.601562 C 17.847656 10.085938 17.039062 10.441406 16.386719 10.4375 C 15.539062 10.429688 14.625 9.746094 14.457031 8.996094 C 14.378906 8.625 14.367188 8.625 13.558594 8.828125 C 13.460938 8.851562 13.175781 8.824219 12.925781 8.769531 C 12.53125 8.675781 12.425781 8.703125 12.121094 8.957031 M 7.019531 9.492188 C 5.351562 9.730469 3.554688 11.0625 2.792969 12.617188 C 1.816406 14.605469 2.050781 16.621094 3.429688 18.109375 C 4.5625 19.332031 6.160156 19.980469 7.980469 19.957031 C 10.671875 19.917969 12.824219 18.179688 13.324219 15.640625 C 13.808594 13.164062 11.917969 10.253906 9.417969 9.625 C 8.644531 9.429688 7.789062 9.382812 7.019531 9.492188 M 7.171875 10.265625 C 6.992188 10.363281 6.792969 10.542969 6.726562 10.667969 C 6.636719 10.835938 6.433594 10.902344 5.894531 10.941406 C 4.667969 11.03125 3.816406 11.796875 3.648438 12.957031 C 3.601562 13.296875 3.457031 13.625 3.261719 13.832031 C 3.011719 14.097656 2.941406 14.3125 2.902344 14.914062 C 2.835938 15.964844 3.039062 16.605469 3.636719 17.222656 C 3.914062 17.507812 4.324219 17.933594 4.546875 18.171875 C 5.449219 19.121094 7.265625 19.597656 8.320312 19.15625 C 8.65625 19.015625 8.847656 19 9.089844 19.089844 C 9.855469 19.382812 11.238281 18.671875 11.515625 17.84375 C 11.585938 17.632812 11.820312 17.34375 12.042969 17.203125 C 12.519531 16.890625 12.859375 16.226562 12.933594 15.453125 C 12.976562 15.007812 12.921875 14.746094 12.675781 14.238281 C 12.46875 13.816406 12.359375 13.394531 12.355469 13.007812 C 12.351562 11.578125 11.242188 10.519531 9.960938 10.726562 C 9.628906 10.777344 9.464844 10.746094 9.351562 10.609375 C 8.921875 10.09375 7.816406 9.917969 7.171875 10.265625 M 3.648438 10.78125 C 2.578125 11.554688 1.8125 12.832031 1.5625 14.253906 C 1.257812 15.976562 2.078125 17.839844 3.648438 18.980469 C 4.382812 19.515625 4.367188 19.378906 3.605469 18.65625 C 2.414062 17.519531 1.800781 15.96875 1.980469 14.535156 C 2.140625 13.25 2.855469 11.792969 3.773438 10.875 C 4.296875 10.351562 4.269531 10.328125 3.648438 10.78125 M 7.484375 10.519531 C 7.339844 10.546875 7.132812 10.675781 7.019531 10.796875 C 6.828125 11.011719 6.839844 11.035156 7.292969 11.265625 C 7.964844 11.609375 8.507812 12.09375 8.886719 12.6875 L 9.210938 13.199219 L 9.371094 12.808594 C 9.925781 11.476562 8.886719 10.214844 7.484375 10.519531 M 9.804688 11.722656 C 9.851562 12.257812 9.816406 12.535156 9.664062 12.828125 C 9.554688 13.046875 9.484375 13.246094 9.511719 13.269531 C 9.539062 13.296875 9.863281 13.257812 10.234375 13.183594 C 10.710938 13.089844 11.054688 13.085938 11.394531 13.171875 L 11.878906 13.292969 L 11.878906 12.882812 C 11.878906 11.914062 11.261719 11.21875 10.28125 11.085938 L 9.738281 11.011719 L 9.804688 11.722656 M 5.28125 11.414062 C 4.667969 11.65625 3.960938 12.539062 3.960938 13.054688 C 3.960938 13.25 4.054688 13.277344 4.710938 13.273438 C 5.121094 13.273438 6.234375 13.3125 7.175781 13.363281 L 8.894531 13.457031 L 8.714844 13.109375 C 8.296875 12.304688 6.730469 11.273438 5.941406 11.289062 C 5.742188 11.292969 5.445312 11.347656 5.28125 11.414062 M 9.671875 13.539062 C 9.472656 13.625 9.5 13.675781 9.925781 13.988281 C 10.78125 14.617188 11.414062 15.5625 11.582031 16.480469 C 11.65625 16.863281 11.695312 16.90625 11.851562 16.773438 C 12.128906 16.542969 12.472656 15.714844 12.476562 15.265625 C 12.480469 14.746094 12.226562 14.167969 11.828125 13.804688 C 11.566406 13.558594 11.367188 13.5 10.703125 13.476562 C 10.261719 13.457031 9.796875 13.488281 9.671875 13.539062 M 3.863281 13.792969 C 3.453125 14.050781 3.121094 14.664062 3.121094 15.144531 C 3.121094 15.941406 3.765625 17.039062 4.226562 17.039062 C 4.550781 17.039062 6.210938 15.839844 7.265625 14.84375 C 7.855469 14.285156 8.3125 13.796875 8.28125 13.765625 C 8.246094 13.730469 7.328125 13.667969 6.238281 13.625 C 4.363281 13.546875 4.238281 13.558594 3.863281 13.792969 M 7.859375 14.769531 C 6.761719 15.882812 5.703125 16.71875 4.921875 17.082031 C 4.621094 17.222656 4.351562 17.355469 4.320312 17.378906 C 4.21875 17.457031 5.257812 18.320312 5.703125 18.535156 C 6.390625 18.859375 7.367188 19.019531 7.878906 18.894531 C 8.710938 18.683594 9.085938 17.839844 9.199219 15.898438 C 9.265625 14.722656 9.164062 13.914062 8.933594 13.835938 C 8.867188 13.816406 8.386719 14.234375 7.859375 14.769531 M 9.507812 15.445312 C 9.496094 16.707031 9.34375 17.722656 9.0625 18.390625 C 8.988281 18.570312 9.042969 18.601562 9.472656 18.601562 C 10.0625 18.601562 10.5625 18.367188 10.910156 17.925781 C 11.480469 17.199219 11.019531 15.46875 9.996094 14.484375 L 9.519531 14.03125 L 9.507812 15.445312 "/>
</g>
</svg>
