<?xml version="1.0" encoding="UTF-8"?>
<svg xmlns="http://www.w3.org/2000/svg" xmlns:xlink="http://www.w3.org/1999/xlink" width="100px" height="100px" viewBox="0 0 100 100" version="1.1">
<g id="surface1">
<path style=" stroke:none;fill-rule:evenodd;fill:rgb(0%,0%,0%);fill-opacity:1;" d="M 20.476562 7.070312 C 15.808594 24.21875 16.203125 37.796875 21.578125 45.28125 L 23.109375 47.417969 L 25.117188 46.707031 C 26.222656 46.320312 27.546875 46 28.0625 46 C 29.203125 46 29.210938 46.265625 27.972656 42.703125 C 26.085938 37.28125 24.886719 31.488281 25.5 30.75 C 25.949219 30.210938 29.796875 29.332031 33.90625 28.828125 C 34.308594 28.78125 33.269531 26.71875 31.222656 23.5 C 27.359375 17.425781 27.152344 17 28.085938 17 C 28.464844 17 30.542969 19.8125 32.699219 23.25 C 34.859375 26.6875 36.8125 29.5 37.042969 29.5 C 38.472656 29.5 43.4375 31.898438 45.078125 33.378906 C 46.148438 34.347656 47.085938 35.050781 47.160156 34.945312 C 47.230469 34.839844 47.90625 33.789062 48.660156 32.613281 C 49.414062 31.4375 51.144531 29.675781 52.503906 28.699219 L 54.980469 26.921875 L 54.222656 25.085938 C 52.433594 20.742188 48.433594 16.210938 43.222656 12.621094 C 38.589844 9.433594 29.421875 5.929688 23.910156 5.246094 L 21.066406 4.894531 L 20.476562 7.070312 M 70.5 24.074219 C 64.617188 24.6875 59.046875 26.285156 55.632812 28.335938 C 52.019531 30.507812 50.722656 31.714844 49.199219 34.300781 L 47.992188 36.351562 L 49.054688 38.761719 C 49.820312 40.492188 50.140625 42.285156 50.1875 45.132812 L 50.25 49.09375 L 52.371094 48.859375 C 55.046875 48.5625 60.382812 45.257812 71.003906 37.328125 C 78.621094 31.640625 79.75 30.945312 79.75 31.960938 C 79.75 32.636719 71.128906 39.277344 63.621094 44.378906 L 57.078125 48.828125 L 58.847656 49.46875 C 61.101562 50.28125 64.039062 52.929688 65.28125 55.269531 C 66.222656 57.039062 66.3125 57.082031 68.5 56.792969 C 69.738281 56.632812 72.210938 55.785156 74 54.917969 C 82.53125 50.773438 89.191406 39.644531 90.300781 27.683594 L 90.628906 24.15625 L 86.441406 23.832031 C 81.199219 23.425781 75.984375 23.503906 70.5 24.074219 M 28.125 31.027344 C 27.230469 31.304688 26.5 31.722656 26.5 31.960938 C 26.5 33.355469 29.230469 42.527344 30.4375 45.195312 C 33.210938 51.308594 37.515625 54.476562 42.1875 53.835938 C 45.226562 53.417969 47 52.519531 47 51.390625 C 47 50.039062 42.71875 45.6875 36.683594 40.902344 C 33.5 38.375 31.683594 36.613281 31.96875 36.328125 C 32.566406 35.734375 40.054688 41.535156 44.84375 46.308594 C 46.824219 48.28125 48.566406 49.765625 48.71875 49.613281 C 49.300781 49.03125 48.96875 43.074219 48.210938 40.527344 C 47.195312 37.109375 43.886719 33.503906 40.367188 31.992188 C 37.421875 30.722656 30.796875 30.203125 28.125 31.027344 M 27.164062 47.480469 C 18.179688 49.621094 10.84375 61.066406 10.125 74.0625 L 9.859375 78.910156 L 12.804688 79.296875 C 14.425781 79.507812 18.898438 79.675781 22.75 79.667969 C 30.8125 79.648438 35.058594 78.828125 39.597656 76.40625 C 43 74.59375 44.679688 72.796875 46.335938 69.195312 C 47.457031 66.753906 47.472656 66.558594 46.710938 64.734375 C 46.191406 63.492188 45.917969 61.363281 45.925781 58.628906 L 45.9375 54.433594 L 44.34375 54.765625 C 40.613281 55.542969 34.054688 60.007812 24.34375 68.378906 C 19.765625 72.324219 18.488281 73.054688 19.148438 71.339844 C 19.5 70.414062 27.980469 63.332031 34.128906 58.828125 L 39.007812 55.25 L 37.488281 54.796875 C 35.492188 54.203125 31.964844 51.070312 30.742188 48.800781 C 29.71875 46.902344 29.667969 46.882812 27.164062 47.480469 M 51.5 50.359375 C 50.8125 50.484375 50.058594 50.765625 49.828125 50.988281 C 48.957031 51.824219 51.910156 55.859375 59.039062 63.585938 C 61.492188 66.242188 63.5 68.550781 63.5 68.710938 C 63.5 70.550781 53.34375 60.234375 49.851562 54.847656 C 48.359375 52.539062 48.273438 52.488281 47.832031 53.597656 C 47.578125 54.230469 47.34375 56.550781 47.308594 58.75 C 47.257812 62.191406 47.445312 63.148438 48.652344 65.601562 C 51.210938 70.816406 56.601562 73.929688 63.847656 74.382812 L 68.15625 74.652344 L 67.820312 70.625 C 67.636719 68.414062 67.054688 64.914062 66.527344 62.847656 C 63.960938 52.820312 59.316406 48.957031 51.5 50.359375 M 69.589844 57.890625 C 67.273438 58.5625 66.964844 58.800781 67.222656 59.707031 C 68.066406 62.675781 68.976562 67.691406 69.28125 71.082031 C 69.613281 74.707031 69.574219 74.925781 68.496094 75.503906 C 67.816406 75.867188 66.179688 76.023438 64.429688 75.898438 C 62.820312 75.78125 61.5 75.820312 61.5 75.984375 C 61.5 76.496094 67.082031 81.027344 70.625 83.394531 C 73.871094 85.5625 74.699219 86.496094 73.375 86.503906 C 72.328125 86.503906 64.949219 81.234375 61.523438 78.039062 C 59.75 76.382812 57.386719 74.664062 56.273438 74.222656 C 53.988281 73.3125 49 69.722656 49 68.984375 C 49 67.890625 48.191406 68.652344 47.296875 70.589844 C 46.773438 71.726562 45.476562 73.523438 44.421875 74.578125 C 43.363281 75.636719 42.5 76.75 42.5 77.054688 C 42.5 78.53125 45.960938 83.820312 48.363281 86.015625 C 51.636719 89.007812 57.851562 92.148438 63.25 93.53125 C 67.550781 94.636719 77.1875 95.359375 80.171875 94.796875 L 82 94.453125 L 81.988281 88.101562 C 81.980469 81.089844 81.027344 72.726562 79.71875 68.191406 C 78.707031 64.6875 76.296875 59.691406 74.859375 58.125 C 73.679688 56.84375 73.257812 56.824219 69.589844 57.890625 "/>
</g>
</svg>
