<?xml version="1.0" encoding="UTF-8"?>
<svg xmlns="http://www.w3.org/2000/svg" xmlns:xlink="http://www.w3.org/1999/xlink" width="24px" height="24px" viewBox="0 0 24 24" version="1.1">
<g id="surface1">
<path style=" stroke:none;fill-rule:evenodd;fill:rgb(0%,0%,0%);fill-opacity:1;" d="M 7.28125 5.128906 C 7.390625 6.371094 7.71875 8.148438 8.007812 9.058594 C 8.335938 10.101562 8.886719 11.277344 9.140625 11.480469 C 9.226562 11.550781 9.652344 11.640625 10.078125 11.683594 L 10.859375 11.761719 L 11.203125 10.675781 C 11.535156 9.617188 11.539062 9.582031 11.34375 9.085938 C 10.746094 7.570312 9.367188 5.832031 8.113281 5.019531 C 7.722656 4.765625 7.363281 4.558594 7.316406 4.558594 C 7.269531 4.558594 7.253906 4.816406 7.28125 5.128906 M 8.722656 5.089844 C 9.605469 5.753906 10.480469 6.820312 11.128906 8.015625 C 11.386719 8.492188 11.636719 8.84375 11.679688 8.800781 C 11.722656 8.757812 11.761719 8.242188 11.761719 7.660156 C 11.761719 7.078125 11.796875 6.601562 11.84375 6.601562 C 11.890625 6.601562 12.136719 6.746094 12.394531 6.921875 C 12.96875 7.324219 13.683594 8.300781 14.042969 9.183594 C 14.191406 9.550781 14.34375 9.832031 14.386719 9.8125 C 14.425781 9.792969 14.664062 9.699219 14.910156 9.605469 C 15.414062 9.410156 15.449219 9.304688 15.160156 8.875 C 14.214844 7.460938 13.308594 6.625 11.859375 5.828125 C 11.003906 5.355469 9.34375 4.757812 8.507812 4.617188 L 7.980469 4.53125 L 8.722656 5.089844 M 11.972656 8.484375 C 11.925781 9.207031 11.808594 9.796875 11.59375 10.363281 C 11.394531 10.890625 11.28125 11.425781 11.28125 11.847656 C 11.28125 12.433594 11.324219 12.546875 11.6875 12.910156 C 11.914062 13.136719 12.203125 13.320312 12.335938 13.320312 C 12.554688 13.320312 12.585938 13.214844 12.664062 12.285156 C 12.804688 10.597656 12.503906 7.894531 12.128906 7.523438 C 12.078125 7.46875 12.003906 7.902344 11.972656 8.484375 M 12.53125 7.621094 C 12.828125 8.417969 12.980469 9.863281 12.941406 11.535156 C 12.894531 13.484375 12.925781 13.554688 13.5625 13.117188 C 14.3125 12.601562 14.492188 11.941406 14.21875 10.71875 C 13.988281 9.683594 13.234375 8.101562 12.765625 7.675781 C 12.480469 7.414062 12.453125 7.410156 12.53125 7.621094 M 15.71875 9.585938 C 15.554688 9.640625 15.191406 9.800781 14.910156 9.945312 C 14.441406 10.183594 14.40625 10.234375 14.488281 10.535156 C 14.609375 10.964844 14.605469 12.109375 14.480469 12.453125 L 14.382812 12.722656 L 15.019531 12.464844 C 16.816406 11.742188 19.011719 11.238281 21.058594 11.085938 L 22.261719 11 L 21.402344 10.601562 C 19.722656 9.824219 18.773438 9.574219 17.339844 9.527344 C 16.613281 9.503906 15.886719 9.53125 15.71875 9.585938 M 20.761719 11.402344 C 18.796875 11.554688 16.714844 12.066406 14.78125 12.875 L 13.902344 13.242188 L 14.285156 13.539062 C 14.734375 13.890625 15.113281 14.652344 15.117188 15.210938 L 15.121094 15.601562 L 15.851562 15.601562 C 16.84375 15.601562 17.871094 15.316406 19.019531 14.726562 C 19.78125 14.335938 20.25 13.964844 21.269531 12.949219 C 21.980469 12.242188 22.558594 11.578125 22.558594 11.472656 C 22.558594 11.261719 22.589844 11.261719 20.761719 11.402344 M 7.667969 12.050781 C 6.003906 12.402344 4.402344 13.300781 2.863281 14.746094 C 2.273438 15.296875 1.8125 15.773438 1.835938 15.796875 C 1.863281 15.820312 2.390625 15.601562 3.011719 15.308594 C 4.976562 14.382812 7.816406 13.695312 10.535156 13.488281 L 11.625 13.40625 L 11.332031 13.023438 C 11.171875 12.808594 11.039062 12.550781 11.039062 12.441406 C 11.039062 12.335938 10.929688 12.1875 10.792969 12.117188 C 10.398438 11.90625 8.550781 11.867188 7.667969 12.050781 M 9.960938 13.816406 C 7.257812 14.089844 4.226562 14.929688 2.460938 15.886719 C 1.941406 16.171875 1.492188 16.457031 1.472656 16.523438 C 1.421875 16.675781 3.078125 17.433594 4.421875 17.875 C 7.71875 18.949219 10.421875 18.527344 11.519531 16.761719 C 11.710938 16.457031 11.714844 16.367188 11.566406 15.871094 C 11.339844 15.125 11.355469 14.65625 11.628906 14.125 L 11.855469 13.679688 L 11.417969 13.695312 C 11.175781 13.703125 10.519531 13.757812 9.960938 13.816406 M 12.070312 14.050781 C 11.65625 14.539062 11.65625 15.316406 12.070312 16.472656 C 12.246094 16.96875 12.40625 17.742188 12.445312 18.277344 C 12.484375 18.792969 12.554688 19.167969 12.605469 19.117188 C 12.828125 18.882812 13.347656 16.898438 13.40625 16.066406 C 13.488281 14.914062 13.394531 14.394531 13.023438 13.996094 C 12.644531 13.585938 12.449219 13.597656 12.070312 14.050781 M 13.371094 13.953125 C 13.933594 14.808594 13.851562 16.402344 13.132812 18.539062 L 12.734375 19.738281 L 13.222656 19.199219 C 14.222656 18.097656 15.035156 15.78125 14.769531 14.792969 C 14.582031 14.101562 14.148438 13.679688 13.621094 13.679688 C 13.207031 13.679688 13.199219 13.6875 13.371094 13.953125 "/>
</g>
</svg>
