<?xml version="1.0" encoding="UTF-8"?>
<svg xmlns="http://www.w3.org/2000/svg" xmlns:xlink="http://www.w3.org/1999/xlink" width="24px" height="24px" viewBox="0 0 24 24" version="1.1">
<g id="surface1">
<path style=" stroke:none;fill-rule:evenodd;fill:rgb(0%,0%,0%);fill-opacity:1;" d="M 4.914062 1.695312 C 3.792969 5.8125 3.886719 9.070312 5.179688 10.867188 L 5.546875 11.378906 L 6.027344 11.210938 C 6.292969 11.117188 6.613281 11.039062 6.734375 11.039062 C 7.007812 11.039062 7.011719 11.105469 6.714844 10.25 C 6.261719 8.949219 5.972656 7.558594 6.121094 7.378906 C 6.226562 7.25 7.152344 7.039062 8.136719 6.917969 C 8.234375 6.90625 7.984375 6.414062 7.492188 5.640625 C 6.566406 4.183594 6.515625 4.078125 6.742188 4.078125 C 6.832031 4.078125 7.332031 4.753906 7.847656 5.578125 C 8.367188 6.40625 8.835938 7.078125 8.890625 7.078125 C 9.234375 7.078125 10.425781 7.65625 10.820312 8.011719 C 11.074219 8.242188 11.300781 8.414062 11.316406 8.386719 C 11.335938 8.359375 11.496094 8.109375 11.679688 7.828125 C 11.859375 7.546875 12.273438 7.121094 12.601562 6.886719 L 13.195312 6.460938 L 13.015625 6.019531 C 12.585938 4.980469 11.625 3.890625 10.375 3.027344 C 9.261719 2.265625 7.0625 1.421875 5.738281 1.257812 L 5.054688 1.175781 L 4.914062 1.695312 M 16.921875 5.777344 C 15.507812 5.925781 14.171875 6.308594 13.351562 6.800781 C 12.484375 7.324219 12.171875 7.609375 11.808594 8.230469 L 11.519531 8.726562 L 11.773438 9.300781 C 11.957031 9.71875 12.035156 10.148438 12.042969 10.832031 L 12.058594 11.78125 L 12.570312 11.726562 C 13.210938 11.65625 14.492188 10.863281 17.039062 8.957031 C 18.867188 7.59375 19.140625 7.425781 19.140625 7.671875 C 19.140625 7.832031 17.070312 9.425781 15.269531 10.652344 L 13.699219 11.71875 L 14.125 11.871094 C 14.664062 12.066406 15.371094 12.703125 15.667969 13.265625 C 15.894531 13.691406 15.914062 13.699219 16.441406 13.628906 C 16.738281 13.589844 17.332031 13.390625 17.761719 13.179688 C 19.808594 12.183594 21.40625 9.515625 21.671875 6.644531 L 21.75 5.796875 L 20.746094 5.71875 C 19.488281 5.621094 18.234375 5.640625 16.921875 5.777344 M 6.75 7.445312 C 6.535156 7.511719 6.359375 7.613281 6.359375 7.671875 C 6.359375 8.003906 7.015625 10.207031 7.304688 10.847656 C 7.96875 12.3125 9.003906 13.074219 10.125 12.921875 C 10.855469 12.820312 11.28125 12.605469 11.28125 12.332031 C 11.28125 12.007812 10.253906 10.964844 8.804688 9.816406 C 8.039062 9.210938 7.605469 8.789062 7.671875 8.71875 C 7.816406 8.574219 9.613281 9.96875 10.761719 11.113281 C 11.238281 11.585938 11.65625 11.945312 11.691406 11.90625 C 11.832031 11.769531 11.753906 10.339844 11.570312 9.726562 C 11.328125 8.90625 10.53125 8.042969 9.6875 7.679688 C 8.980469 7.375 7.390625 7.25 6.75 7.445312 M 6.519531 11.394531 C 4.363281 11.910156 2.601562 14.65625 2.429688 17.773438 L 2.367188 18.9375 L 3.074219 19.03125 C 3.460938 19.082031 4.535156 19.121094 5.460938 19.121094 C 7.394531 19.117188 8.414062 18.917969 9.503906 18.335938 C 10.320312 17.902344 10.722656 17.472656 11.121094 16.605469 C 11.390625 16.019531 11.394531 15.972656 11.210938 15.535156 C 11.085938 15.238281 11.019531 14.726562 11.023438 14.070312 L 11.023438 13.0625 L 10.640625 13.144531 C 9.746094 13.332031 8.171875 14.402344 5.84375 16.410156 C 4.742188 17.359375 4.4375 17.53125 4.59375 17.121094 C 4.679688 16.898438 6.714844 15.199219 8.191406 14.117188 L 9.363281 13.261719 L 8.996094 13.152344 C 8.519531 13.007812 7.671875 12.257812 7.378906 11.710938 C 7.132812 11.257812 7.121094 11.253906 6.519531 11.394531 M 12.359375 12.085938 C 12.195312 12.117188 12.015625 12.183594 11.957031 12.238281 C 11.75 12.4375 12.457031 13.40625 14.167969 15.261719 C 14.757812 15.898438 15.238281 16.453125 15.238281 16.488281 C 15.238281 16.933594 12.800781 14.457031 11.964844 13.164062 C 11.605469 12.609375 11.585938 12.597656 11.480469 12.863281 C 11.417969 13.015625 11.363281 13.570312 11.355469 14.101562 C 11.34375 14.925781 11.386719 15.15625 11.675781 15.746094 C 12.289062 16.996094 13.585938 17.742188 15.324219 17.851562 L 16.359375 17.917969 L 16.277344 16.949219 C 16.234375 16.417969 16.09375 15.578125 15.964844 15.082031 C 15.351562 12.675781 14.234375 11.75 12.359375 12.085938 M 16.699219 13.894531 C 16.144531 14.054688 16.070312 14.113281 16.132812 14.328125 C 16.335938 15.042969 16.554688 16.246094 16.628906 17.058594 C 16.707031 17.929688 16.699219 17.980469 16.4375 18.121094 C 16.277344 18.207031 15.882812 18.246094 15.464844 18.214844 C 15.078125 18.1875 14.761719 18.195312 14.761719 18.238281 C 14.761719 18.359375 16.101562 19.445312 16.949219 20.015625 C 17.730469 20.535156 17.929688 20.757812 17.609375 20.761719 C 17.359375 20.761719 15.585938 19.496094 14.765625 18.730469 C 14.339844 18.332031 13.773438 17.917969 13.503906 17.8125 C 12.957031 17.59375 11.761719 16.734375 11.761719 16.554688 C 11.761719 16.292969 11.566406 16.476562 11.351562 16.941406 C 11.226562 17.214844 10.914062 17.644531 10.660156 17.898438 C 10.40625 18.152344 10.199219 18.421875 10.199219 18.492188 C 10.199219 18.847656 11.03125 20.117188 11.605469 20.644531 C 12.394531 21.363281 13.882812 22.117188 15.179688 22.449219 C 16.210938 22.714844 18.523438 22.886719 19.242188 22.75 L 19.679688 22.667969 L 19.675781 21.144531 C 19.675781 19.460938 19.445312 17.453125 19.132812 16.367188 C 18.890625 15.523438 18.3125 14.328125 17.964844 13.949219 C 17.683594 13.640625 17.582031 13.636719 16.699219 13.894531 "/>
</g>
</svg>
