<?xml version="1.0" encoding="UTF-8"?>
<svg xmlns="http://www.w3.org/2000/svg" xmlns:xlink="http://www.w3.org/1999/xlink" width="100px" height="100px" viewBox="0 0 100 100" version="1.1">
<g id="surface1">
<path style=" stroke:none;fill-rule:evenodd;fill:rgb(0%,0%,0%);fill-opacity:1;" d="M 30.335938 21.375 C 30.792969 26.539062 32.164062 33.949219 33.359375 37.75 C 34.726562 42.09375 37.023438 46.996094 38.085938 47.839844 C 38.449219 48.128906 40.210938 48.507812 42 48.683594 L 45.25 49 L 46.675781 44.488281 C 48.070312 40.078125 48.082031 39.933594 47.265625 37.863281 C 44.773438 31.535156 39.03125 24.308594 33.796875 20.914062 C 32.171875 19.863281 30.683594 19 30.484375 19 C 30.285156 19 30.21875 20.070312 30.335938 21.375 M 36.351562 21.214844 C 40.023438 23.980469 43.675781 28.414062 46.378906 33.398438 C 47.453125 35.378906 48.484375 36.851562 48.667969 36.667969 C 48.851562 36.484375 49 34.347656 49 31.917969 C 49 29.488281 49.15625 27.5 49.347656 27.5 C 49.539062 27.5 50.570312 28.105469 51.640625 28.847656 C 54.039062 30.507812 57.015625 34.59375 58.507812 38.269531 C 59.125 39.792969 59.769531 40.972656 59.941406 40.890625 C 60.109375 40.8125 61.09375 40.417969 62.125 40.023438 C 64.21875 39.214844 64.371094 38.777344 63.171875 36.988281 C 59.226562 31.089844 55.449219 27.601562 49.417969 24.285156 C 45.839844 22.320312 38.933594 19.828125 35.449219 19.246094 L 33.25 18.875 L 36.351562 21.214844 M 49.878906 35.347656 C 49.695312 38.371094 49.203125 40.824219 48.308594 43.183594 C 47.472656 45.371094 47 47.613281 47 49.359375 C 47 51.808594 47.179688 52.28125 48.699219 53.800781 C 49.636719 54.734375 50.851562 55.5 51.40625 55.5 C 52.304688 55.5 52.449219 55.054688 52.769531 51.191406 C 53.355469 44.160156 52.09375 32.894531 50.546875 31.347656 C 50.324219 31.125 50.023438 32.925781 49.878906 35.347656 M 52.210938 31.75 C 53.445312 35.066406 54.078125 41.101562 53.917969 48.066406 C 53.734375 56.183594 53.851562 56.484375 56.511719 54.648438 C 59.632812 52.5 60.382812 49.761719 59.246094 44.667969 C 58.289062 40.351562 55.140625 33.761719 53.195312 31.984375 C 52.003906 30.898438 51.882812 30.871094 52.210938 31.75 M 65.5 39.9375 C 64.8125 40.164062 63.289062 40.839844 62.117188 41.4375 C 60.175781 42.429688 60.023438 42.648438 60.367188 43.886719 C 60.875 45.691406 60.855469 50.460938 60.339844 51.882812 L 59.929688 53.011719 L 62.589844 51.9375 C 70.066406 48.917969 79.21875 46.828125 87.75 46.199219 L 92.75 45.828125 L 89.179688 44.175781 C 82.183594 40.941406 78.21875 39.894531 72.25 39.703125 C 69.226562 39.605469 66.1875 39.710938 65.5 39.9375 M 86.5 47.511719 C 78.3125 48.140625 69.640625 50.273438 61.589844 53.640625 L 57.929688 55.167969 L 59.527344 56.417969 C 61.390625 57.878906 62.972656 61.058594 62.988281 63.375 L 63 65 L 66.054688 65 C 70.1875 65 74.460938 63.820312 79.25 61.355469 C 82.414062 59.726562 84.371094 58.183594 88.625 53.953125 C 91.582031 51.015625 94 48.25 94 47.804688 C 94 46.917969 94.121094 46.925781 86.5 47.511719 M 31.945312 50.21875 C 25.023438 51.667969 18.335938 55.414062 11.921875 61.441406 C 9.46875 63.742188 7.546875 65.714844 7.652344 65.820312 C 7.757812 65.925781 9.960938 65.011719 12.546875 63.789062 C 20.742188 59.921875 32.574219 57.058594 43.894531 56.203125 L 48.445312 55.859375 L 47.222656 54.257812 C 46.550781 53.378906 46 52.289062 46 51.84375 C 46 51.398438 45.535156 50.785156 44.96875 50.484375 C 43.324219 49.601562 35.632812 49.445312 31.945312 50.21875 M 41.5 57.566406 C 30.246094 58.707031 17.613281 62.199219 10.261719 66.199219 C 8.082031 67.382812 6.226562 68.574219 6.132812 68.847656 C 5.921875 69.484375 12.820312 72.644531 18.421875 74.472656 C 32.15625 78.960938 43.425781 77.195312 48.003906 69.839844 C 48.792969 68.574219 48.8125 68.199219 48.191406 66.136719 C 47.253906 63.023438 47.324219 61.058594 48.445312 58.855469 L 49.390625 57 L 47.570312 57.066406 C 46.570312 57.101562 43.835938 57.328125 41.5 57.566406 M 50.292969 58.539062 C 48.574219 60.582031 48.570312 63.8125 50.285156 68.632812 C 51.019531 70.699219 51.695312 73.921875 51.859375 76.152344 C 52.015625 78.296875 52.316406 79.871094 52.523438 79.652344 C 53.441406 78.675781 55.613281 70.40625 55.863281 66.9375 C 56.203125 62.140625 55.804688 59.972656 54.261719 58.3125 C 52.6875 56.613281 51.875 56.65625 50.292969 58.539062 M 55.71875 58.132812 C 58.054688 61.699219 57.710938 68.339844 54.726562 77.25 L 53.054688 82.25 L 55.097656 80 C 59.261719 75.410156 62.648438 65.757812 61.535156 61.636719 C 60.761719 58.75 58.957031 57 56.761719 57 C 55.023438 57 54.996094 57.027344 55.71875 58.132812 "/>
</g>
</svg>
