<?xml version="1.0" encoding="UTF-8"?>
<svg xmlns="http://www.w3.org/2000/svg" xmlns:xlink="http://www.w3.org/1999/xlink" width="24px" height="24px" viewBox="0 0 24 24" version="1.1">
<g id="surface1">
<path style=" stroke:none;fill-rule:evenodd;fill:rgb(0%,0%,0%);fill-opacity:1;" d="M 9.894531 4.324219 C 9.757812 4.375 9.472656 4.613281 9.261719 4.851562 C 8.945312 5.214844 8.878906 5.386719 8.878906 5.871094 L 8.878906 6.453125 L 8.34375 6.535156 C 7.449219 6.667969 6.214844 7.363281 5.5 8.140625 C 4.117188 9.636719 3.578125 11.652344 4.015625 13.710938 C 4.703125 16.957031 7.882812 18.933594 10.804688 17.941406 L 11.347656 17.753906 L 11.988281 18.371094 C 13.902344 20.214844 16.695312 20.207031 18.660156 18.351562 C 20.621094 16.492188 20.621094 13.386719 18.660156 11.53125 C 17.574219 10.503906 16.089844 9.976562 14.785156 10.148438 L 14.207031 10.226562 L 13.820312 9.445312 C 13.5625 8.917969 13.191406 8.433594 12.679688 7.953125 C 11.808594 7.140625 11.152344 6.777344 10.171875 6.574219 L 9.480469 6.433594 L 9.484375 5.945312 C 9.484375 5.429688 9.722656 5.039062 10.171875 4.808594 C 10.664062 4.554688 10.421875 4.128906 9.894531 4.324219 M 7.808594 7.269531 C 5.355469 8.164062 3.925781 11.050781 4.621094 13.71875 C 5.101562 15.578125 6.296875 16.90625 7.949219 17.417969 C 8.757812 17.667969 9.332031 17.695312 10.164062 17.515625 C 11.046875 17.324219 11.054688 17.316406 10.777344 16.5 C 10.414062 15.425781 10.5 13.867188 10.976562 12.894531 C 11.378906 12.070312 12.332031 11.0625 13.058594 10.691406 C 13.335938 10.550781 13.558594 10.367188 13.558594 10.289062 C 13.554688 9.992188 12.804688 8.835938 12.285156 8.332031 C 11.441406 7.511719 10.597656 7.160156 9.371094 7.113281 C 8.644531 7.089844 8.183594 7.132812 7.808594 7.269531 M 11.214844 8.53125 C 11.085938 8.738281 11.484375 9.082031 11.65625 8.914062 C 11.730469 8.835938 11.757812 8.691406 11.71875 8.589844 C 11.636719 8.371094 11.332031 8.335938 11.214844 8.53125 M 11.8125 9.132812 C 11.769531 9.203125 11.804688 9.335938 11.894531 9.425781 C 12.105469 9.636719 12.421875 9.457031 12.320312 9.191406 C 12.238281 8.972656 11.933594 8.9375 11.8125 9.132812 M 10.964844 9.414062 C 10.882812 9.632812 11.003906 9.839844 11.21875 9.839844 C 11.46875 9.839844 11.5625 9.613281 11.394531 9.414062 C 11.210938 9.191406 11.050781 9.191406 10.964844 9.414062 M 12.402344 9.902344 C 12.3125 10.132812 12.554688 10.328125 12.804688 10.234375 C 13.03125 10.148438 12.949219 9.792969 12.6875 9.742188 C 12.574219 9.71875 12.445312 9.792969 12.402344 9.902344 M 11.566406 10.015625 C 11.480469 10.230469 11.601562 10.441406 11.8125 10.441406 C 12.035156 10.441406 12.132812 10.140625 11.964844 9.976562 C 11.785156 9.792969 11.644531 9.804688 11.566406 10.015625 M 13.929688 10.75 C 12.753906 11.175781 11.84375 12.011719 11.316406 13.140625 C 11.027344 13.761719 10.980469 14.007812 10.980469 14.941406 C 10.980469 15.875 11.027344 16.121094 11.324219 16.765625 C 11.730469 17.644531 12.671875 18.597656 13.523438 18.988281 C 13.992188 19.203125 14.324219 19.253906 15.300781 19.253906 C 16.355469 19.257812 16.582031 19.222656 17.183594 18.941406 C 20.523438 17.375 20.523438 12.480469 17.183594 10.945312 C 16.3125 10.546875 14.75 10.453125 13.929688 10.75 M 14.300781 11.570312 C 12.792969 12.0625 11.828125 13.398438 11.832031 14.996094 C 11.835938 15.96875 12.144531 16.703125 12.839844 17.398438 C 13.582031 18.140625 14.269531 18.417969 15.359375 18.410156 C 16.753906 18.402344 17.792969 17.761719 18.457031 16.5 C 18.722656 15.996094 18.773438 15.746094 18.773438 14.941406 C 18.773438 14.132812 18.722656 13.882812 18.457031 13.378906 C 17.847656 12.226562 16.828125 11.546875 15.566406 11.457031 C 15.101562 11.421875 14.621094 11.464844 14.300781 11.570312 M 14.800781 11.894531 C 13.269531 12.164062 12.246094 13.382812 12.246094 14.941406 C 12.246094 16.691406 13.554688 18.011719 15.296875 18.023438 C 16.191406 18.027344 16.921875 17.738281 17.511719 17.152344 C 18.976562 15.6875 18.589844 13.117188 16.757812 12.160156 C 16.285156 11.914062 15.394531 11.792969 14.800781 11.894531 M 15.128906 12.167969 C 14.960938 12.371094 15.050781 12.601562 15.300781 12.601562 C 15.558594 12.601562 15.644531 12.355469 15.453125 12.164062 C 15.300781 12.011719 15.261719 12.011719 15.128906 12.167969 M 14.0625 12.558594 C 14.113281 12.824219 14.578125 12.859375 14.578125 12.601562 C 14.578125 12.5 14.453125 12.402344 14.300781 12.378906 C 14.082031 12.347656 14.027344 12.390625 14.0625 12.558594 M 16.011719 12.492188 C 15.898438 12.675781 16.144531 12.886719 16.371094 12.800781 C 16.476562 12.761719 16.558594 12.644531 16.558594 12.542969 C 16.558594 12.335938 16.136719 12.292969 16.011719 12.492188 M 13.308594 13.03125 C 13.203125 13.160156 13.199219 13.246094 13.292969 13.339844 C 13.457031 13.507812 13.800781 13.382812 13.800781 13.15625 C 13.800781 12.90625 13.480469 12.824219 13.308594 13.03125 M 16.878906 13.011719 C 16.789062 13.25 17.128906 13.519531 17.300781 13.347656 C 17.464844 13.179688 17.34375 12.839844 17.117188 12.839844 C 17.023438 12.839844 16.917969 12.917969 16.878906 13.011719 M 14.445312 13.253906 C 14.363281 13.472656 14.484375 13.679688 14.695312 13.679688 C 14.914062 13.679688 15.011719 13.378906 14.847656 13.214844 C 14.664062 13.03125 14.527344 13.046875 14.445312 13.253906 M 15.800781 13.15625 C 15.625 13.335938 15.71875 13.699219 15.929688 13.65625 C 16.046875 13.636719 16.140625 13.515625 16.140625 13.386719 C 16.140625 13.148438 15.945312 13.015625 15.800781 13.15625 M 12.671875 13.875 C 12.628906 13.988281 12.644531 14.132812 12.707031 14.195312 C 12.882812 14.371094 13.222656 14.191406 13.175781 13.953125 C 13.125 13.671875 12.769531 13.617188 12.671875 13.875 M 17.445312 13.859375 C 17.402344 13.96875 17.425781 14.113281 17.496094 14.183594 C 17.679688 14.367188 18.023438 14.199219 17.976562 13.953125 C 17.925781 13.675781 17.539062 13.609375 17.445312 13.859375 M 13.492188 14.171875 C 13.367188 14.375 13.765625 14.722656 13.933594 14.554688 C 14.011719 14.476562 14.039062 14.332031 14 14.226562 C 13.917969 14.011719 13.613281 13.976562 13.492188 14.171875 M 16.613281 14.171875 C 16.566406 14.242188 16.605469 14.375 16.695312 14.46875 C 16.902344 14.675781 17.222656 14.5 17.121094 14.230469 C 17.035156 14.011719 16.734375 13.976562 16.613281 14.171875 M 14.5625 14.339844 C 14.523438 14.449219 14.546875 14.59375 14.617188 14.664062 C 14.800781 14.847656 15.144531 14.679688 15.097656 14.433594 C 15.042969 14.15625 14.660156 14.089844 14.5625 14.339844 M 15.558594 14.332031 C 15.46875 14.570312 15.808594 14.839844 15.980469 14.667969 C 16.148438 14.5 16.023438 14.160156 15.796875 14.160156 C 15.703125 14.160156 15.597656 14.238281 15.558594 14.332031 M 12.601562 14.757812 C 12.382812 14.894531 12.550781 15.265625 12.808594 15.21875 C 12.921875 15.195312 13.035156 15.089844 13.054688 14.984375 C 13.097656 14.757812 12.824219 14.621094 12.601562 14.757812 M 17.722656 14.71875 C 17.539062 14.902344 17.644531 15.238281 17.886719 15.238281 C 18.074219 15.238281 18.128906 15.175781 18.097656 14.980469 C 18.058594 14.707031 17.867188 14.574219 17.722656 14.71875 M 14.652344 15.230469 C 14.425781 15.375 14.582031 15.75 14.851562 15.695312 C 14.964844 15.675781 15.058594 15.554688 15.058594 15.429688 C 15.058594 15.164062 14.890625 15.078125 14.652344 15.230469 M 15.625 15.269531 C 15.445312 15.484375 15.640625 15.777344 15.898438 15.679688 C 16.113281 15.59375 16.105469 15.230469 15.886719 15.15625 C 15.816406 15.132812 15.695312 15.183594 15.625 15.269531 M 13.496094 15.484375 C 13.449219 15.558594 13.46875 15.675781 13.539062 15.746094 C 13.699219 15.90625 14.074219 15.765625 14.011719 15.570312 C 13.941406 15.371094 13.605469 15.3125 13.496094 15.484375 M 16.617188 15.484375 C 16.570312 15.558594 16.589844 15.675781 16.660156 15.746094 C 16.820312 15.90625 17.195312 15.765625 17.128906 15.570312 C 17.0625 15.371094 16.722656 15.3125 16.617188 15.484375 M 12.652344 15.851562 C 12.539062 16.035156 12.785156 16.246094 13.011719 16.160156 C 13.117188 16.121094 13.199219 16.003906 13.199219 15.902344 C 13.199219 15.695312 12.777344 15.652344 12.652344 15.851562 M 17.421875 15.921875 C 17.472656 16.183594 17.941406 16.21875 17.941406 15.960938 C 17.941406 15.859375 17.8125 15.761719 17.660156 15.742188 C 17.441406 15.710938 17.386719 15.75 17.421875 15.921875 M 14.445312 16.375 C 14.363281 16.59375 14.484375 16.800781 14.695312 16.800781 C 14.914062 16.800781 15.011719 16.5 14.847656 16.335938 C 14.664062 16.152344 14.527344 16.164062 14.445312 16.375 M 15.800781 16.277344 C 15.625 16.453125 15.71875 16.816406 15.929688 16.777344 C 16.046875 16.753906 16.140625 16.632812 16.140625 16.507812 C 16.140625 16.269531 15.945312 16.136719 15.800781 16.277344 M 13.332031 16.550781 C 13.105469 16.691406 13.265625 17.070312 13.53125 17.015625 C 13.644531 16.996094 13.738281 16.875 13.738281 16.75 C 13.738281 16.480469 13.570312 16.398438 13.332031 16.550781 M 16.859375 16.679688 C 16.75 16.859375 16.902344 17.039062 17.167969 17.039062 C 17.320312 17.039062 17.398438 16.957031 17.398438 16.800781 C 17.398438 16.546875 17 16.457031 16.859375 16.679688 M 14.085938 17.214844 C 14 17.433594 14.125 17.640625 14.339844 17.640625 C 14.585938 17.640625 14.679688 17.414062 14.515625 17.214844 C 14.332031 16.992188 14.171875 16.992188 14.085938 17.214844 M 16.078125 17.222656 C 15.964844 17.359375 15.957031 17.445312 16.054688 17.539062 C 16.234375 17.722656 16.585938 17.5625 16.539062 17.320312 C 16.484375 17.042969 16.265625 16.996094 16.078125 17.222656 M 15.054688 17.410156 C 15.007812 17.484375 15.050781 17.621094 15.144531 17.71875 C 15.296875 17.871094 15.339844 17.871094 15.46875 17.710938 C 15.554688 17.613281 15.585938 17.472656 15.542969 17.40625 C 15.441406 17.242188 15.15625 17.246094 15.054688 17.410156 "/>
</g>
</svg>
