<?xml version="1.0" encoding="UTF-8"?>
<svg xmlns="http://www.w3.org/2000/svg" xmlns:xlink="http://www.w3.org/1999/xlink" width="100px" height="100px" viewBox="0 0 100 100" version="1.1">
<g id="surface1">
<path style=" stroke:none;fill-rule:evenodd;fill:rgb(0%,0%,0%);fill-opacity:1;" d="M 34.28125 24.769531 C 26.253906 26.796875 19.140625 32.136719 17.058594 37.710938 C 15.804688 41.058594 15.644531 46.871094 16.699219 50.824219 C 18.339844 56.992188 23.4375 62.96875 28.75 64.957031 C 31.753906 66.082031 38.066406 66.367188 41.625 65.539062 C 43.03125 65.214844 43.5 65.261719 43.5 65.734375 C 43.5 67.214844 47.179688 73.546875 48.988281 75.179688 C 51.835938 77.753906 54.414062 78.910156 59.898438 80.070312 C 71.585938 82.546875 79.890625 79.164062 84.367188 70.113281 C 86.207031 66.390625 86.25 66.171875 86.234375 60.777344 C 86.222656 56.210938 86.023438 54.753906 85.078125 52.382812 C 81.636719 43.757812 75.617188 39.707031 65.375 39.128906 C 60.527344 38.855469 60.5 38.847656 60.503906 37.550781 C 60.503906 36.632812 60.945312 36 62.003906 35.398438 C 62.828125 34.929688 63.5 34.199219 63.5 33.773438 C 63.5 32.917969 61.742188 32.703125 61.25 33.5 C 60.621094 34.519531 59.605469 33.941406 58.238281 31.773438 C 56.589844 29.164062 53.714844 26.972656 49.949219 25.453125 C 46.417969 24.03125 38.570312 23.6875 34.28125 24.769531 M 35.535156 26.777344 C 27.53125 28.511719 20.351562 33.761719 18.792969 39.015625 C 17.089844 44.746094 18.363281 52.238281 21.824219 56.855469 C 24.007812 59.769531 25.023438 60.644531 28.25 62.386719 C 30.460938 63.578125 31.296875 63.734375 35.5 63.742188 C 38.113281 63.746094 40.828125 63.585938 41.53125 63.386719 C 42.765625 63.039062 42.816406 62.878906 42.839844 59.121094 C 42.902344 49.640625 47.214844 43.222656 55.375 40.472656 C 58.824219 39.308594 59.035156 38.871094 57.816406 35.453125 C 56.71875 32.390625 54.578125 30.101562 51.316406 28.507812 C 46.183594 25.996094 41.503906 25.484375 35.535156 26.777344 M 58.625 41.757812 C 49.191406 43.808594 44.5625 50.199219 45.117188 60.410156 C 45.441406 66.320312 46.886719 69.949219 50.261719 73.328125 C 52.289062 75.351562 53.515625 76.121094 55.773438 76.777344 C 62.4375 78.714844 69.84375 76.257812 76.054688 70.046875 C 87.398438 58.703125 84.257812 44.832031 69.640625 41.734375 C 65.511719 40.859375 62.730469 40.867188 58.625 41.757812 M 64 44.453125 C 61.183594 44.710938 60.75 44.882812 60.75 45.75 C 60.75 46.507812 61.039062 46.71875 61.941406 46.617188 C 62.953125 46.507812 63.039062 46.601562 62.503906 47.242188 C 62.160156 47.660156 61.640625 48 61.351562 48 C 61.066406 48 60.421875 48.371094 59.921875 48.820312 C 59.058594 49.601562 59.019531 49.546875 59.132812 47.714844 C 59.28125 45.273438 58.375 45.003906 55.824219 46.730469 C 54.796875 47.429688 53.609375 48 53.183594 48 C 52.734375 48 51.976562 49.03125 51.363281 50.484375 C 50.601562 52.285156 49.929688 53.101562 48.90625 53.457031 C 47.253906 54.035156 47.109375 54.992188 48.492188 56.242188 C 49.183594 56.867188 49.390625 57.503906 49.183594 58.339844 C 48.929688 59.34375 49.132812 59.636719 50.410156 60.117188 L 51.933594 60.695312 L 50.628906 61.90625 L 49.324219 63.113281 L 50.398438 63.933594 C 51.183594 64.53125 51.34375 64.953125 50.996094 65.5 C 50.167969 66.792969 50.429688 68.503906 51.507812 68.90625 C 52.0625 69.109375 52.90625 70.058594 53.382812 71.015625 C 54.015625 72.28125 54.585938 72.757812 55.5 72.777344 C 56.1875 72.792969 57.375 73.21875 58.140625 73.722656 C 59.316406 74.496094 60.109375 74.582031 63.320312 74.292969 C 67.039062 73.953125 71 72.773438 71 72 C 71 71.785156 71.5625 71.46875 72.25 71.292969 C 72.9375 71.121094 73.5 70.648438 73.5 70.242188 C 73.5 69.460938 73.089844 69.339844 70.925781 69.480469 C 70.195312 69.527344 69.464844 69.347656 69.300781 69.082031 C 69.128906 68.804688 70.273438 68.449219 72 68.25 C 74.933594 67.910156 77.949219 66.429688 78.378906 65.125 C 78.761719 63.957031 77.074219 63.914062 75.53125 65.054688 C 73.859375 66.292969 72.75 65.894531 73.089844 64.179688 C 73.230469 63.460938 73.722656 63.25 75.25 63.25 C 78.125 63.25 78.214844 61.894531 75.394531 60.960938 L 73.25 60.25 L 76.15625 60.097656 C 78.550781 59.976562 79.035156 59.800781 78.902344 59.117188 C 78.8125 58.648438 78.0625 58.152344 77.175781 57.96875 C 73.945312 57.308594 73.835938 57.179688 75.074219 55.507812 C 75.6875 54.679688 76.328125 54 76.5 54 C 76.675781 54 77.1875 54.78125 77.644531 55.738281 C 78.234375 56.980469 78.703125 57.390625 79.273438 57.171875 C 79.855469 56.949219 79.984375 56.507812 79.75 55.558594 C 79.367188 54.03125 77.203125 51.046875 76.195312 50.660156 C 75.8125 50.511719 75.5 49.863281 75.5 49.214844 C 75.5 48.019531 74.238281 47 72.757812 47 C 72.316406 47 71.457031 46.445312 70.851562 45.769531 C 69.535156 44.296875 68.300781 44.058594 64 44.453125 M 67.773438 47.207031 C 68.304688 47.59375 68.914062 47.804688 69.128906 47.671875 C 69.796875 47.257812 68.988281 46.5 67.875 46.5 C 66.835938 46.5 66.832031 46.515625 67.773438 47.207031 M 63.828125 48.914062 C 62.503906 50.378906 62.761719 51.269531 64.234375 50.308594 C 65.789062 49.289062 66.808594 49.28125 67.191406 50.28125 C 67.359375 50.710938 67.738281 50.914062 68.035156 50.726562 C 68.355469 50.53125 67.859375 49.90625 66.816406 49.195312 C 64.707031 47.765625 64.855469 47.777344 63.828125 48.914062 M 55.792969 49.433594 C 55.574219 49.78125 55.535156 50.203125 55.699219 50.367188 C 56.148438 50.8125 56.636719 50.15625 56.394531 49.429688 C 56.222656 48.921875 56.105469 48.921875 55.792969 49.433594 M 71.738281 49.988281 C 72.6875 51.039062 73.5 50.914062 73.5 49.71875 C 73.5 49.273438 72.996094 49 72.171875 49 C 70.882812 49 70.871094 49.027344 71.738281 49.988281 M 52.800781 52.292969 C 52.390625 53.371094 52.382812 53.351562 53.4375 53.628906 C 54.160156 53.816406 54.316406 53.65625 54.125 52.929688 C 53.789062 51.640625 53.167969 51.339844 52.800781 52.292969 M 60.085938 52.820312 C 59.722656 53.683594 59.5 55.035156 59.589844 55.820312 L 59.757812 57.25 L 60.40625 56.105469 C 60.765625 55.472656 60.988281 54.125 60.902344 53.105469 L 60.75 51.25 L 60.085938 52.820312 M 63.984375 53.625 C 62.726562 55.660156 62.886719 57.507812 64.367188 58.050781 C 65.238281 58.371094 65.605469 58.234375 66.039062 57.425781 C 66.667969 56.25 66.214844 52 65.460938 52 C 65.199219 52 64.535156 52.730469 63.984375 53.625 M 55.558594 53.359375 C 54.980469 53.980469 54.992188 54.207031 55.640625 54.855469 C 56.539062 55.753906 57.5 55.324219 57.5 54.023438 C 57.5 52.8125 56.417969 52.441406 55.558594 53.359375 M 68.863281 52.800781 C 68.664062 53.003906 68.507812 53.636719 68.515625 54.207031 C 68.527344 55.171875 68.570312 55.179688 69.050781 54.355469 C 69.609375 53.394531 69.46875 52.199219 68.863281 52.800781 M 71.785156 53.785156 C 70.824219 54.75 70.773438 55.5 71.671875 55.5 C 72.347656 55.5 74 53.964844 74 53.335938 C 74 52.707031 72.574219 52.996094 71.785156 53.785156 M 51.25 56 C 51.421875 56.273438 51.882812 56.5 52.28125 56.5 C 52.675781 56.5 53 56.273438 53 56 C 53 55.726562 52.535156 55.5 51.96875 55.5 C 51.40625 55.5 51.078125 55.726562 51.25 56 M 68.851562 57.3125 C 68.226562 57.9375 69.070312 58.5 70.628906 58.5 C 71.566406 58.5 72.007812 58.320312 71.726562 58.054688 C 71.027344 57.402344 69.226562 56.9375 68.851562 57.3125 M 53.570312 58.445312 C 53.101562 58.742188 53.488281 58.949219 54.820312 59.113281 C 56.921875 59.371094 58 59.144531 58 58.445312 C 58 57.875 54.46875 57.875 53.570312 58.445312 M 60.515625 58.992188 C 59.683594 59.503906 60.988281 61.613281 61.914062 61.257812 C 62.28125 61.113281 62.902344 61 63.289062 61 C 64.429688 61 64.109375 60.316406 62.558594 59.433594 C 61.765625 58.984375 60.847656 58.785156 60.515625 58.992188 M 67.226562 60.960938 C 67.59375 61.558594 70.472656 62.195312 70.898438 61.769531 C 71.074219 61.59375 70.890625 61.238281 70.484375 60.980469 C 69.53125 60.375 66.855469 60.359375 67.226562 60.960938 M 83.769531 62.410156 C 82.828125 66.6875 75.726562 74.34375 70.140625 77.09375 C 68.414062 77.941406 67 78.679688 67 78.734375 C 67 79.1875 73.675781 77.761719 75.347656 76.953125 C 79.71875 74.835938 83.542969 68.980469 84.335938 63.179688 C 84.667969 60.761719 84.253906 60.199219 83.769531 62.410156 M 54.082031 61.9375 C 53.585938 62.253906 53.710938 62.441406 54.582031 62.675781 C 56.78125 63.261719 59 63.050781 59 62.25 C 59 61.699219 58.433594 61.503906 56.875 61.507812 C 55.707031 61.511719 54.449219 61.707031 54.082031 61.9375 M 63.917969 63.003906 C 62.046875 63.335938 59.214844 64.882812 59.660156 65.328125 C 59.796875 65.460938 60.59375 65.21875 61.429688 64.785156 C 63.507812 63.710938 64 63.792969 64 65.214844 C 64 65.929688 64.542969 66.855469 65.328125 67.46875 C 67.089844 68.859375 67.449219 68.355469 66.050781 66.460938 C 64.964844 64.992188 64.921875 63.5 65.96875 63.5 C 66.246094 63.5 66.96875 64.175781 67.578125 65 C 68.625 66.414062 71 67.136719 71 66.039062 C 71 64.890625 70.308594 64 69.421875 64 C 68.886719 64 67.84375 63.703125 67.101562 63.335938 C 66.257812 62.921875 65.0625 62.796875 63.917969 63.003906 M 53.429688 65.984375 C 52.605469 66.671875 52.476562 66.96875 53 66.976562 C 54.433594 66.996094 55.933594 66.398438 56.199219 65.699219 C 56.605469 64.648438 54.816406 64.828125 53.429688 65.984375 M 60.5 67.644531 L 59.25 68.1875 L 60.671875 68.382812 C 62.242188 68.597656 62.933594 68.21875 62.214844 67.542969 C 61.945312 67.289062 61.222656 67.332031 60.5 67.644531 M 55.785156 68.785156 C 54.886719 69.683594 54.789062 70.308594 55.476562 70.738281 C 55.742188 70.898438 56.308594 70.351562 56.742188 69.515625 C 57.582031 67.890625 57.070312 67.5 55.785156 68.785156 M 64.007812 70.375 C 64.035156 71.652344 64.980469 72.113281 66.820312 71.753906 L 68.75 71.375 L 67 70.726562 C 64.949219 69.964844 63.996094 69.851562 64.007812 70.375 M 58.785156 70.945312 C 58.324219 71.691406 59.859375 72.582031 61.316406 72.410156 C 62.625 72.257812 62.648438 72.210938 61.808594 71.375 C 60.871094 70.441406 59.238281 70.210938 58.785156 70.945312 "/>
</g>
</svg>
