<?xml version="1.0" encoding="UTF-8"?>
<svg xmlns="http://www.w3.org/2000/svg" xmlns:xlink="http://www.w3.org/1999/xlink" width="100px" height="100px" viewBox="0 0 100 100" version="1.1">
<g id="surface1">
<path style=" stroke:none;fill-rule:evenodd;fill:rgb(0%,0%,0%);fill-opacity:1;" d="M 41.222656 18.011719 C 40.65625 18.222656 39.476562 19.214844 38.597656 20.214844 C 37.269531 21.726562 37 22.445312 37 24.460938 L 37 26.886719 L 34.757812 27.222656 C 31.046875 27.78125 25.894531 30.6875 22.914062 33.914062 C 17.148438 40.152344 14.914062 48.546875 16.734375 57.136719 C 19.597656 70.648438 32.851562 78.898438 45.027344 74.75 L 47.285156 73.976562 L 49.945312 76.539062 C 57.925781 84.234375 69.5625 84.199219 77.746094 76.457031 C 85.925781 68.722656 85.925781 55.777344 77.746094 48.042969 C 73.226562 43.765625 67.046875 41.5625 61.609375 42.28125 L 59.1875 42.605469 L 57.589844 39.355469 C 56.511719 37.164062 54.957031 35.140625 52.824219 33.144531 C 49.195312 29.75 46.460938 28.246094 42.375 27.398438 L 39.5 26.800781 L 39.511719 24.773438 C 39.523438 22.621094 40.503906 21 42.375 20.039062 C 44.4375 18.984375 43.417969 17.195312 41.222656 18.011719 M 32.539062 30.292969 C 22.308594 34.007812 16.351562 46.046875 19.246094 57.160156 C 21.265625 64.902344 26.242188 70.433594 33.121094 72.574219 C 36.484375 73.625 38.882812 73.730469 42.351562 72.984375 C 46.035156 72.191406 46.0625 72.144531 44.910156 68.742188 C 43.398438 64.277344 43.757812 57.777344 45.738281 53.722656 C 47.414062 50.292969 51.390625 46.085938 54.414062 44.542969 C 55.558594 43.960938 56.496094 43.203125 56.496094 42.863281 C 56.484375 41.632812 53.351562 36.816406 51.1875 34.714844 C 47.671875 31.296875 44.152344 29.828125 39.039062 29.644531 C 36.019531 29.535156 34.097656 29.726562 32.539062 30.292969 M 46.71875 35.546875 C 46.191406 36.402344 47.859375 37.839844 48.5625 37.136719 C 48.875 36.824219 48.996094 36.214844 48.832031 35.785156 C 48.484375 34.882812 47.21875 34.742188 46.71875 35.546875 M 49.21875 38.046875 C 49.035156 38.347656 49.191406 38.902344 49.566406 39.28125 C 50.433594 40.148438 51.765625 39.410156 51.339844 38.300781 C 50.988281 37.382812 49.722656 37.234375 49.21875 38.046875 M 45.691406 39.226562 C 45.339844 40.144531 45.851562 41 46.75 41 C 47.777344 41 48.167969 40.054688 47.480469 39.226562 C 46.710938 38.300781 46.046875 38.300781 45.691406 39.226562 M 51.675781 41.261719 C 51.308594 42.21875 52.3125 43.039062 53.355469 42.640625 C 54.296875 42.277344 53.945312 40.800781 52.867188 40.59375 C 52.390625 40.5 51.851562 40.804688 51.675781 41.261719 M 48.191406 41.726562 C 47.839844 42.632812 48.347656 43.5 49.226562 43.5 C 50.136719 43.5 50.546875 42.246094 49.859375 41.5625 C 49.097656 40.800781 48.523438 40.855469 48.191406 41.726562 M 58.039062 44.792969 C 53.148438 46.570312 49.351562 50.042969 47.152344 54.75 C 45.941406 57.339844 45.75 58.367188 45.75 62.25 C 45.75 66.152344 45.941406 67.164062 47.1875 69.859375 C 48.878906 73.527344 52.804688 77.488281 56.355469 79.117188 C 58.300781 80.007812 59.6875 80.21875 63.75 80.230469 C 68.144531 80.246094 69.09375 80.089844 71.597656 78.914062 C 85.515625 72.390625 85.515625 52.007812 71.597656 45.613281 C 67.96875 43.945312 61.457031 43.550781 58.039062 44.792969 M 59.585938 48.210938 C 53.296875 50.265625 49.28125 55.835938 49.304688 62.476562 C 49.320312 66.535156 50.601562 69.601562 53.5 72.5 C 56.589844 75.589844 59.453125 76.738281 64 76.714844 C 69.800781 76.679688 74.132812 74.007812 76.910156 68.75 C 78.019531 66.652344 78.230469 65.609375 78.230469 62.25 C 78.230469 58.890625 78.019531 57.847656 76.910156 55.75 C 74.371094 50.945312 70.117188 48.117188 64.855469 47.730469 C 62.929688 47.589844 60.925781 47.773438 59.585938 48.210938 M 61.671875 49.570312 C 55.289062 50.683594 51.023438 55.765625 51.023438 62.25 C 51.023438 69.542969 56.476562 75.050781 63.734375 75.09375 C 67.460938 75.113281 70.507812 73.914062 72.960938 71.460938 C 79.066406 65.359375 77.453125 54.660156 69.828125 50.667969 C 67.851562 49.636719 64.148438 49.136719 61.671875 49.570312 M 63.039062 50.703125 C 62.335938 51.550781 62.710938 52.5 63.75 52.5 C 64.832031 52.5 65.191406 51.476562 64.390625 50.675781 C 63.753906 50.039062 63.585938 50.042969 63.039062 50.703125 M 58.585938 52.335938 C 58.800781 53.433594 60.75 53.585938 60.75 52.5 C 60.75 52.085938 60.222656 51.675781 59.582031 51.585938 C 58.671875 51.457031 58.449219 51.625 58.585938 52.335938 M 66.722656 52.042969 C 66.25 52.808594 67.277344 53.691406 68.214844 53.332031 C 68.648438 53.167969 69 52.6875 69 52.265625 C 69 51.390625 67.234375 51.21875 66.722656 52.042969 M 55.457031 54.300781 C 55.011719 54.835938 54.992188 55.195312 55.386719 55.585938 C 56.078125 56.277344 57.5 55.761719 57.5 54.820312 C 57.5 53.777344 56.171875 53.441406 55.457031 54.300781 M 70.332031 54.214844 C 69.953125 55.207031 71.367188 56.335938 72.085938 55.613281 C 72.777344 54.921875 72.261719 53.5 71.320312 53.5 C 70.925781 53.5 70.484375 53.820312 70.332031 54.214844 M 60.191406 55.226562 C 59.839844 56.132812 60.347656 57 61.226562 57 C 62.136719 57 62.546875 55.746094 61.859375 55.0625 C 61.097656 54.300781 60.523438 54.355469 60.191406 55.226562 M 65.84375 54.824219 C 65.109375 55.558594 65.496094 57.074219 66.375 56.90625 C 66.855469 56.8125 67.25 56.308594 67.25 55.785156 C 67.25 54.789062 66.433594 54.230469 65.84375 54.824219 M 52.796875 57.808594 C 52.617188 58.28125 52.683594 58.882812 52.949219 59.148438 C 53.671875 59.871094 55.097656 59.128906 54.90625 58.132812 C 54.679688 56.960938 53.207031 56.738281 52.796875 57.808594 M 72.683594 57.746094 C 72.507812 58.199219 72.605469 58.808594 72.898438 59.101562 C 73.660156 59.863281 75.105469 59.164062 74.90625 58.132812 C 74.683594 56.980469 73.082031 56.703125 72.683594 57.746094 M 56.21875 59.046875 C 55.691406 59.902344 57.359375 61.339844 58.0625 60.636719 C 58.375 60.324219 58.496094 59.714844 58.332031 59.285156 C 57.984375 58.382812 56.71875 58.242188 56.21875 59.046875 M 69.21875 59.046875 C 69.035156 59.347656 69.191406 59.902344 69.566406 60.28125 C 70.433594 61.148438 71.765625 60.410156 71.339844 59.300781 C 70.988281 58.382812 69.722656 58.234375 69.21875 59.046875 M 60.683594 59.746094 C 60.507812 60.199219 60.605469 60.808594 60.898438 61.101562 C 61.660156 61.863281 63.105469 61.164062 62.90625 60.132812 C 62.683594 58.980469 61.082031 58.703125 60.683594 59.746094 M 64.832031 59.714844 C 64.453125 60.707031 65.867188 61.835938 66.585938 61.113281 C 67.277344 60.421875 66.761719 59 65.820312 59 C 65.425781 59 64.984375 59.320312 64.832031 59.714844 M 52.507812 61.496094 C 51.597656 62.054688 52.300781 63.613281 53.367188 63.40625 C 53.847656 63.3125 54.308594 62.875 54.394531 62.433594 C 54.578125 61.484375 53.441406 60.917969 52.507812 61.496094 M 73.84375 61.324219 C 73.074219 62.09375 73.519531 63.5 74.535156 63.5 C 75.3125 63.5 75.53125 63.230469 75.410156 62.414062 C 75.242188 61.285156 74.441406 60.726562 73.84375 61.324219 M 61.050781 63.457031 C 60.105469 64.054688 60.765625 65.617188 61.875 65.40625 C 62.355469 65.3125 62.75 64.808594 62.75 64.285156 C 62.75 63.175781 62.042969 62.832031 61.050781 63.457031 M 65.101562 63.625 C 64.363281 64.519531 65.171875 65.734375 66.238281 65.324219 C 67.132812 64.980469 67.109375 63.453125 66.199219 63.148438 C 65.898438 63.050781 65.402344 63.261719 65.101562 63.625 M 56.238281 64.515625 C 56.046875 64.828125 56.121094 65.324219 56.410156 65.609375 C 57.082031 66.28125 58.648438 65.695312 58.375 64.875 C 58.097656 64.039062 56.683594 63.800781 56.238281 64.515625 M 69.238281 64.515625 C 69.046875 64.828125 69.121094 65.324219 69.410156 65.609375 C 70.082031 66.28125 71.648438 65.695312 71.375 64.875 C 71.097656 64.039062 69.683594 63.800781 69.238281 64.515625 M 52.722656 66.042969 C 52.25 66.808594 53.277344 67.691406 54.214844 67.332031 C 54.648438 67.167969 55 66.6875 55 66.265625 C 55 65.390625 53.234375 65.21875 52.722656 66.042969 M 72.585938 66.335938 C 72.800781 67.433594 74.75 67.585938 74.75 66.5 C 74.75 66.085938 74.222656 65.675781 73.582031 65.585938 C 72.671875 65.457031 72.449219 65.625 72.585938 66.335938 M 60.191406 68.226562 C 59.839844 69.132812 60.347656 70 61.226562 70 C 62.136719 70 62.546875 68.746094 61.859375 68.0625 C 61.097656 67.300781 60.523438 67.355469 60.191406 68.226562 M 65.84375 67.824219 C 65.109375 68.558594 65.496094 70.074219 66.375 69.90625 C 66.855469 69.8125 67.25 69.308594 67.25 68.785156 C 67.25 67.789062 66.433594 67.230469 65.84375 67.824219 M 55.550781 68.957031 C 54.605469 69.554688 55.265625 71.117188 56.375 70.90625 C 56.855469 70.8125 57.25 70.308594 57.25 69.785156 C 57.25 68.675781 56.542969 68.332031 55.550781 68.957031 M 70.25 69.5 C 69.789062 70.246094 70.429688 71 71.53125 71 C 72.167969 71 72.5 70.65625 72.5 70 C 72.5 68.941406 70.828125 68.566406 70.25 69.5 M 58.691406 71.726562 C 58.339844 72.644531 58.851562 73.5 59.75 73.5 C 60.777344 73.5 61.167969 72.554688 60.480469 71.726562 C 59.710938 70.800781 59.046875 70.800781 58.691406 71.726562 M 66.996094 71.753906 C 66.523438 72.324219 66.492188 72.695312 66.886719 73.085938 C 67.644531 73.847656 69.109375 73.179688 68.910156 72.167969 C 68.6875 71.011719 67.777344 70.8125 66.996094 71.753906 M 62.71875 72.546875 C 62.535156 72.847656 62.710938 73.421875 63.109375 73.824219 C 63.746094 74.460938 63.914062 74.457031 64.460938 73.796875 C 64.804688 73.382812 64.941406 72.808594 64.761719 72.523438 C 64.339844 71.839844 63.148438 71.851562 62.71875 72.546875 "/>
</g>
</svg>
