<?xml version="1.0" encoding="UTF-8"?>
<svg xmlns="http://www.w3.org/2000/svg" xmlns:xlink="http://www.w3.org/1999/xlink" width="24px" height="24px" viewBox="0 0 24 24" version="1.1">
<g id="surface1">
<path style=" stroke:none;fill-rule:evenodd;fill:rgb(0%,0%,0%);fill-opacity:1;" d="M 8.226562 5.945312 C 6.300781 6.429688 4.59375 7.714844 4.09375 9.050781 C 3.792969 9.855469 3.753906 11.25 4.007812 12.199219 C 4.402344 13.679688 5.625 15.113281 6.898438 15.589844 C 7.621094 15.859375 9.136719 15.929688 9.988281 15.730469 C 10.328125 15.652344 10.441406 15.664062 10.441406 15.777344 C 10.441406 16.132812 11.324219 17.652344 11.757812 18.042969 C 12.441406 18.660156 13.058594 18.9375 14.375 19.21875 C 17.179688 19.8125 19.175781 19 20.25 16.828125 C 20.6875 15.933594 20.699219 15.882812 20.695312 14.585938 C 20.695312 13.488281 20.644531 13.140625 20.417969 12.570312 C 19.59375 10.5 18.148438 9.53125 15.691406 9.390625 C 14.527344 9.324219 14.519531 9.324219 14.519531 9.011719 C 14.519531 8.792969 14.625 8.640625 14.878906 8.496094 C 15.078125 8.382812 15.238281 8.207031 15.238281 8.105469 C 15.238281 7.898438 14.816406 7.847656 14.699219 8.039062 C 14.546875 8.285156 14.304688 8.144531 13.976562 7.625 C 13.582031 7 12.890625 6.472656 11.988281 6.109375 C 11.140625 5.769531 9.257812 5.683594 8.226562 5.945312 M 8.527344 6.425781 C 6.609375 6.84375 4.882812 8.101562 4.511719 9.363281 C 4.101562 10.738281 4.40625 12.539062 5.238281 13.644531 C 5.761719 14.34375 6.003906 14.554688 6.78125 14.972656 C 7.3125 15.257812 7.511719 15.296875 8.519531 15.296875 C 9.148438 15.300781 9.796875 15.261719 9.96875 15.214844 C 10.265625 15.128906 10.277344 15.089844 10.28125 14.1875 C 10.296875 11.914062 11.332031 10.375 13.289062 9.714844 C 14.117188 9.433594 14.167969 9.328125 13.875 8.507812 C 13.613281 7.773438 13.097656 7.222656 12.316406 6.839844 C 11.085938 6.238281 9.960938 6.117188 8.527344 6.425781 M 14.070312 10.023438 C 11.804688 10.515625 10.695312 12.046875 10.828125 14.5 C 10.90625 15.917969 11.253906 16.789062 12.0625 17.597656 C 12.550781 18.085938 12.84375 18.269531 13.386719 18.425781 C 14.984375 18.890625 16.761719 18.300781 18.253906 16.8125 C 20.976562 14.089844 20.222656 10.761719 16.714844 10.015625 C 15.722656 9.804688 15.054688 9.808594 14.070312 10.023438 M 15.359375 10.667969 C 14.683594 10.730469 14.578125 10.773438 14.578125 10.980469 C 14.578125 11.160156 14.648438 11.210938 14.867188 11.1875 C 15.109375 11.160156 15.128906 11.183594 15 11.339844 C 14.917969 11.4375 14.792969 11.519531 14.726562 11.519531 C 14.65625 11.519531 14.5 11.609375 14.382812 11.71875 C 14.175781 11.90625 14.164062 11.890625 14.191406 11.453125 C 14.226562 10.867188 14.007812 10.800781 13.398438 11.214844 C 13.152344 11.382812 12.867188 11.519531 12.765625 11.519531 C 12.65625 11.519531 12.472656 11.769531 12.328125 12.117188 C 12.144531 12.546875 11.984375 12.746094 11.738281 12.828125 C 11.339844 12.96875 11.304688 13.199219 11.636719 13.5 C 11.804688 13.648438 11.855469 13.800781 11.804688 14 C 11.742188 14.242188 11.792969 14.3125 12.097656 14.429688 L 12.464844 14.566406 L 12.152344 14.855469 L 11.839844 15.148438 L 12.097656 15.34375 C 12.285156 15.488281 12.324219 15.589844 12.238281 15.71875 C 12.039062 16.03125 12.101562 16.441406 12.363281 16.539062 C 12.496094 16.585938 12.699219 16.8125 12.8125 17.042969 C 12.964844 17.347656 13.101562 17.460938 13.320312 17.46875 C 13.484375 17.46875 13.769531 17.574219 13.953125 17.691406 C 14.234375 17.878906 14.425781 17.898438 15.195312 17.832031 C 16.089844 17.75 17.039062 17.464844 17.039062 17.28125 C 17.039062 17.226562 17.175781 17.152344 17.339844 17.109375 C 17.503906 17.070312 17.640625 16.957031 17.640625 16.859375 C 17.640625 16.671875 17.542969 16.640625 17.023438 16.675781 C 16.847656 16.6875 16.671875 16.644531 16.632812 16.578125 C 16.589844 16.511719 16.867188 16.429688 17.28125 16.378906 C 17.984375 16.296875 18.707031 15.945312 18.8125 15.628906 C 18.902344 15.347656 18.496094 15.339844 18.128906 15.613281 C 17.726562 15.910156 17.460938 15.816406 17.542969 15.402344 C 17.574219 15.230469 17.691406 15.179688 18.058594 15.179688 C 18.75 15.179688 18.769531 14.855469 18.09375 14.628906 L 17.578125 14.460938 L 18.277344 14.421875 C 18.851562 14.394531 18.96875 14.351562 18.9375 14.1875 C 18.914062 14.074219 18.734375 13.957031 18.523438 13.914062 C 17.746094 13.753906 17.71875 13.722656 18.019531 13.320312 C 18.164062 13.121094 18.320312 12.960938 18.359375 12.960938 C 18.402344 12.960938 18.523438 13.148438 18.632812 13.378906 C 18.777344 13.675781 18.890625 13.773438 19.027344 13.722656 C 19.164062 13.667969 19.195312 13.5625 19.140625 13.332031 C 19.046875 12.96875 18.527344 12.25 18.289062 12.160156 C 18.195312 12.125 18.121094 11.96875 18.121094 11.8125 C 18.121094 11.523438 17.816406 11.28125 17.460938 11.28125 C 17.355469 11.28125 17.148438 11.148438 17.003906 10.984375 C 16.6875 10.632812 16.390625 10.574219 15.359375 10.667969 M 16.265625 11.328125 C 16.394531 11.421875 16.539062 11.472656 16.589844 11.441406 C 16.75 11.339844 16.558594 11.160156 16.289062 11.160156 C 16.039062 11.160156 16.039062 11.164062 16.265625 11.328125 M 15.320312 11.738281 C 15 12.089844 15.0625 12.304688 15.414062 12.074219 C 15.789062 11.828125 16.035156 11.828125 16.125 12.066406 C 16.164062 12.171875 16.257812 12.21875 16.328125 12.175781 C 16.40625 12.128906 16.285156 11.976562 16.035156 11.808594 C 15.53125 11.464844 15.566406 11.464844 15.320312 11.738281 M 13.390625 11.863281 C 13.339844 11.949219 13.328125 12.046875 13.367188 12.089844 C 13.476562 12.195312 13.59375 12.039062 13.535156 11.863281 C 13.492188 11.742188 13.464844 11.742188 13.390625 11.863281 M 17.21875 11.996094 C 17.445312 12.25 17.640625 12.21875 17.640625 11.933594 C 17.640625 11.824219 17.519531 11.761719 17.320312 11.761719 C 17.011719 11.761719 17.007812 11.765625 17.21875 11.996094 M 12.671875 12.550781 C 12.574219 12.808594 12.570312 12.804688 12.824219 12.871094 C 13 12.917969 13.035156 12.878906 12.992188 12.703125 C 12.910156 12.394531 12.761719 12.320312 12.671875 12.550781 M 14.421875 12.675781 C 14.332031 12.882812 14.28125 13.207031 14.300781 13.398438 L 14.339844 13.738281 L 14.496094 13.464844 C 14.582031 13.3125 14.636719 12.988281 14.617188 12.746094 L 14.578125 12.300781 L 14.421875 12.675781 M 15.355469 12.871094 C 15.054688 13.359375 15.09375 13.800781 15.449219 13.933594 C 15.65625 14.007812 15.746094 13.976562 15.851562 13.78125 C 16 13.5 15.890625 12.480469 15.710938 12.480469 C 15.648438 12.480469 15.488281 12.65625 15.355469 12.871094 M 13.335938 12.804688 C 13.195312 12.953125 13.199219 13.007812 13.355469 13.164062 C 13.570312 13.378906 13.800781 13.277344 13.800781 12.964844 C 13.800781 12.675781 13.539062 12.585938 13.335938 12.804688 M 16.527344 12.671875 C 16.480469 12.71875 16.441406 12.871094 16.445312 13.011719 C 16.445312 13.242188 16.457031 13.242188 16.570312 13.046875 C 16.707031 12.816406 16.671875 12.527344 16.527344 12.671875 M 17.230469 12.910156 C 16.996094 13.140625 16.984375 13.320312 17.203125 13.320312 C 17.363281 13.320312 17.761719 12.953125 17.761719 12.800781 C 17.761719 12.648438 17.417969 12.71875 17.230469 12.910156 M 12.300781 13.441406 C 12.339844 13.507812 12.453125 13.558594 12.546875 13.558594 C 12.640625 13.558594 12.71875 13.507812 12.71875 13.441406 C 12.71875 13.375 12.609375 13.320312 12.472656 13.320312 C 12.335938 13.320312 12.257812 13.375 12.300781 13.441406 M 16.523438 13.753906 C 16.375 13.90625 16.578125 14.039062 16.949219 14.039062 C 17.175781 14.039062 17.28125 13.996094 17.214844 13.933594 C 17.046875 13.777344 16.613281 13.664062 16.523438 13.753906 M 12.855469 14.027344 C 12.742188 14.097656 12.835938 14.148438 13.15625 14.1875 C 13.660156 14.25 13.921875 14.195312 13.921875 14.027344 C 13.921875 13.890625 13.074219 13.890625 12.855469 14.027344 M 14.523438 14.15625 C 14.324219 14.28125 14.636719 14.785156 14.859375 14.703125 C 14.949219 14.667969 15.097656 14.640625 15.191406 14.640625 C 15.460938 14.640625 15.386719 14.476562 15.015625 14.265625 C 14.824219 14.15625 14.605469 14.109375 14.523438 14.15625 M 16.132812 14.628906 C 16.222656 14.773438 16.914062 14.925781 17.015625 14.824219 C 17.058594 14.78125 17.011719 14.695312 16.917969 14.636719 C 16.6875 14.492188 16.046875 14.488281 16.132812 14.628906 M 20.105469 14.976562 C 19.878906 16.003906 18.175781 17.84375 16.832031 18.503906 C 16.417969 18.707031 16.078125 18.882812 16.078125 18.898438 C 16.078125 19.003906 17.683594 18.664062 18.082031 18.46875 C 19.132812 17.960938 20.050781 16.554688 20.242188 15.164062 C 20.320312 14.582031 20.222656 14.449219 20.105469 14.976562 M 12.980469 14.867188 C 12.859375 14.941406 12.890625 14.984375 13.101562 15.042969 C 13.628906 15.183594 14.160156 15.132812 14.160156 14.941406 C 14.160156 14.808594 14.023438 14.761719 13.648438 14.761719 C 13.371094 14.761719 13.066406 14.808594 12.980469 14.867188 M 15.339844 15.121094 C 14.890625 15.199219 14.210938 15.570312 14.320312 15.679688 C 14.351562 15.710938 14.542969 15.652344 14.742188 15.550781 C 15.242188 15.289062 15.359375 15.3125 15.359375 15.652344 C 15.359375 15.824219 15.488281 16.046875 15.679688 16.191406 C 16.101562 16.527344 16.1875 16.40625 15.851562 15.949219 C 15.589844 15.597656 15.582031 15.238281 15.832031 15.238281 C 15.898438 15.238281 16.074219 15.402344 16.21875 15.601562 C 16.46875 15.9375 17.039062 16.113281 17.039062 15.851562 C 17.039062 15.574219 16.875 15.359375 16.660156 15.359375 C 16.53125 15.359375 16.28125 15.289062 16.105469 15.199219 C 15.902344 15.101562 15.613281 15.070312 15.339844 15.121094 M 12.824219 15.835938 C 12.625 16 12.59375 16.074219 12.71875 16.074219 C 13.0625 16.078125 13.421875 15.933594 13.488281 15.769531 C 13.585938 15.515625 13.15625 15.558594 12.824219 15.835938 M 14.519531 16.234375 L 14.21875 16.363281 L 14.5625 16.410156 C 14.9375 16.464844 15.105469 16.371094 14.933594 16.210938 C 14.867188 16.148438 14.691406 16.160156 14.519531 16.234375 M 13.386719 16.507812 C 13.171875 16.722656 13.148438 16.875 13.316406 16.976562 C 13.378906 17.015625 13.515625 16.882812 13.617188 16.683594 C 13.820312 16.292969 13.695312 16.199219 13.386719 16.507812 M 15.363281 16.890625 C 15.367188 17.195312 15.59375 17.308594 16.035156 17.222656 L 16.5 17.128906 L 16.078125 16.972656 C 15.585938 16.792969 15.359375 16.765625 15.363281 16.890625 M 14.109375 17.027344 C 13.996094 17.207031 14.367188 17.417969 14.714844 17.378906 C 15.03125 17.34375 15.035156 17.332031 14.835938 17.128906 C 14.609375 16.90625 14.21875 16.851562 14.109375 17.027344 "/>
</g>
</svg>
