<?xml version="1.0" encoding="UTF-8"?>
<svg xmlns="http://www.w3.org/2000/svg" xmlns:xlink="http://www.w3.org/1999/xlink" width="100px" height="100px" viewBox="0 0 100 100" version="1.1">
<g id="surface1">
<path style=" stroke:none;fill-rule:evenodd;fill:rgb(0%,0%,0%);fill-opacity:1;" d="M 48.507812 9.609375 C 47.402344 10.792969 45.675781 15.808594 45.203125 19.195312 C 44.710938 22.726562 44.558594 22.746094 42.476562 19.527344 C 40.210938 16.019531 35.90625 11.5 34.835938 11.5 C 34.441406 11.5 33.8125 11.871094 33.4375 12.328125 C 32.328125 13.664062 32.804688 21.1875 34.3125 26.15625 C 34.511719 26.820312 33.980469 26.597656 32.300781 25.316406 C 30.085938 23.625 24.863281 20.886719 22.675781 20.269531 C 21.140625 19.835938 19.914062 21.214844 20.320312 22.910156 C 20.792969 24.878906 22.871094 28.90625 24.84375 31.675781 C 25.792969 33.007812 26.496094 34.171875 26.410156 34.257812 C 26.320312 34.347656 25.011719 34.097656 23.5 33.703125 C 18.691406 32.453125 14.222656 32.238281 12.769531 33.191406 C 12.070312 33.648438 11.5 34.429688 11.5 34.929688 C 11.5 36.308594 14.339844 39.1875 18.445312 41.96875 C 22.339844 44.609375 22.335938 44.710938 18.351562 45.246094 C 12.484375 46.035156 8.304688 48.140625 8.597656 50.167969 C 8.6875 50.789062 9.574219 51.6875 10.75 52.347656 C 12.476562 53.320312 14.152344 53.785156 21.445312 55.304688 C 22.496094 55.523438 22.261719 55.773438 19.488281 57.402344 C 15.65625 59.652344 11.5 63.570312 11.5 64.9375 C 11.5 67.523438 14.941406 68.058594 22.125 66.589844 C 24.53125 66.097656 26.5 65.761719 26.5 65.84375 C 26.5 65.925781 25.679688 67.0625 24.671875 68.371094 C 23.667969 69.679688 22.183594 72.160156 21.371094 73.886719 C 19.773438 77.28125 19.800781 79.210938 21.449219 79.734375 C 22.855469 80.179688 27 78.425781 30.78125 75.785156 C 32.617188 74.5 34.183594 73.519531 34.269531 73.601562 C 34.351562 73.683594 34.097656 74.988281 33.703125 76.5 C 33.308594 78.011719 32.867188 80.710938 32.71875 82.5 C 32.058594 90.4375 36.039062 90.320312 41.441406 82.242188 C 42.828125 80.167969 44.136719 78.511719 44.355469 78.558594 C 44.574219 78.609375 45.015625 80.230469 45.34375 82.167969 C 46.808594 90.875 49.753906 93.847656 52.347656 89.246094 C 53.320312 87.527344 53.796875 85.800781 55.300781 78.570312 C 55.519531 77.519531 55.746094 77.714844 57.304688 80.304688 C 61.15625 86.703125 64.621094 89.59375 66.351562 87.863281 C 67.539062 86.675781 67.640625 82.757812 66.613281 77.875 C 66.109375 75.46875 65.761719 73.5 65.84375 73.5 C 65.925781 73.5 67.0625 74.320312 68.371094 75.328125 C 69.679688 76.332031 72.160156 77.816406 73.886719 78.628906 C 77.28125 80.226562 79.210938 80.199219 79.734375 78.550781 C 80.179688 77.144531 78.425781 73 75.785156 69.21875 C 74.5 67.382812 73.535156 65.800781 73.636719 65.699219 C 73.734375 65.597656 75.378906 65.84375 77.285156 66.25 C 83.457031 67.554688 88.5 67.09375 88.5 65.222656 C 88.5 64.035156 84.597656 60.125 81.160156 57.867188 C 79.421875 56.722656 78 55.65625 78 55.496094 C 78 55.335938 79.617188 54.925781 81.59375 54.585938 C 83.574219 54.246094 86.492188 53.386719 88.082031 52.671875 C 91.058594 51.335938 92.042969 50.007812 90.996094 48.746094 C 90.257812 47.859375 85.652344 46.117188 82.296875 45.453125 C 76.769531 44.367188 77.003906 44.605469 79.769531 42.894531 C 83.441406 40.625 86.9375 37.574219 87.816406 35.875 C 88.519531 34.511719 88.515625 34.300781 87.777344 33.5625 C 86.496094 32.285156 79.179688 32.6875 73.78125 34.332031 C 73.011719 34.566406 73.140625 34.214844 74.433594 32.582031 C 78.335938 27.65625 80.675781 21.058594 78.777344 20.328125 C 77.304688 19.765625 72.625 21.785156 68.324219 24.84375 C 66.992188 25.792969 65.816406 26.480469 65.707031 26.375 C 65.601562 26.269531 65.84375 24.621094 66.25 22.714844 C 67.558594 16.527344 67.09375 11.5 65.210938 11.5 C 64.011719 11.5 59.609375 15.921875 57.652344 19.09375 C 56.664062 20.691406 55.707031 22 55.527344 22 C 55.34375 22 54.917969 20.367188 54.578125 18.375 C 53.746094 13.449219 51.421875 8.5 49.941406 8.5 C 49.71875 8.5 49.074219 9 48.507812 9.609375 M 48.527344 15.140625 C 46.851562 20.542969 46.628906 26.761719 47.921875 32.007812 C 48.496094 34.339844 49.117188 37.429688 49.296875 38.875 C 49.480469 40.320312 49.792969 41.5 49.996094 41.5 C 50.195312 41.5 50.507812 40.082031 50.683594 38.351562 C 50.863281 36.621094 51.476562 33.527344 52.054688 31.476562 C 52.902344 28.46875 53.050781 26.882812 52.835938 23.25 C 52.585938 19.015625 50.972656 12.351562 50.058594 11.785156 C 49.832031 11.644531 49.140625 13.15625 48.527344 15.140625 M 35.214844 17.75 C 35.820312 25.445312 39.9375 35.277344 44.609375 40.171875 L 47.070312 42.75 L 46.792969 38.910156 C 46.242188 31.214844 42.421875 22.28125 37.363281 16.851562 L 34.9375 14.25 L 35.214844 17.75 M 61.777344 17.324219 C 56.988281 23.363281 53 33.625 53 39.90625 L 53 42.65625 L 54.058594 41.703125 C 55.578125 40.335938 59.164062 35.175781 60.640625 32.238281 C 63.148438 27.246094 65.613281 16.0625 64.484375 14.824219 C 64.269531 14.589844 63.050781 15.714844 61.777344 17.324219 M 23 23.625 C 23 24.597656 26.324219 29.96875 28.980469 33.289062 C 30.472656 35.15625 32.378906 36.753906 34.730469 38.105469 C 36.667969 39.21875 39.304688 41 40.589844 42.066406 C 42.707031 43.816406 44 44.449219 44 43.734375 C 44 43.589844 43.082031 42.308594 41.960938 40.890625 C 40.839844 39.472656 39.046875 36.722656 37.976562 34.78125 C 35.945312 31.105469 32.898438 28.222656 27.75 25.121094 C 24.546875 23.1875 23 22.699219 23 23.625 M 72.582031 24.875 C 67.105469 28.1875 63.789062 31.21875 62.035156 34.511719 C 61.140625 36.1875 59.300781 39.003906 57.941406 40.777344 C 55.210938 44.339844 55.480469 44.902344 58.664062 42.296875 C 59.8125 41.359375 62.59375 39.503906 64.84375 38.171875 C 67.871094 36.382812 69.605469 34.917969 71.496094 32.558594 C 73.632812 29.890625 77 24.207031 77 23.265625 C 77 22.582031 75.414062 23.160156 72.582031 24.875 M 16.367188 37.429688 C 19.710938 40.476562 26.859375 44.25 31.574219 45.453125 C 36.335938 46.671875 42 47.292969 42 46.597656 C 42 45.589844 36.191406 41.421875 31.75 39.242188 C 26.796875 36.8125 20.125 34.996094 16.25 35.027344 L 13.75 35.046875 L 16.367188 37.429688 M 77.75 35.828125 C 71.625 37.136719 64.980469 40.238281 60.25 43.996094 C 56.679688 46.832031 56.800781 47.207031 61.152344 46.839844 C 68.792969 46.191406 77.894531 42.269531 83.304688 37.289062 L 85.75 35.039062 L 83.5 35.058594 C 82.261719 35.070312 79.675781 35.417969 77.75 35.828125 M 47.707031 44.75 C 44.21875 46.757812 43.300781 50.234375 45.402344 53.484375 C 45.484375 53.613281 45.777344 53.390625 46.046875 52.984375 C 46.480469 52.34375 46.53125 52.34375 46.460938 53 C 46.261719 54.886719 47.039062 55.488281 50 55.722656 C 51.945312 55.878906 54.058594 54.519531 53.785156 53.296875 C 53.71875 52.996094 53.757812 52.917969 53.875 53.125 C 54.945312 55.042969 56.195312 50.113281 55.226562 47.789062 C 54.070312 45.011719 50.066406 43.394531 47.707031 44.75 M 17.25 47.742188 C 13.453125 48.582031 11.5 49.339844 11.5 49.96875 C 11.5 50.890625 18.207031 52.574219 23.003906 52.855469 C 26.863281 53.078125 28.550781 52.929688 31.972656 52.066406 C 34.292969 51.480469 36.992188 50.996094 37.96875 50.992188 C 38.949219 50.988281 40.085938 50.761719 40.5 50.492188 C 41.167969 50.054688 41.167969 49.945312 40.5 49.507812 C 40.085938 49.238281 38.960938 49.011719 38 49.003906 C 37.039062 48.996094 34.378906 48.542969 32.09375 47.996094 C 27.332031 46.855469 21.699219 46.757812 17.25 47.742188 M 49.5 47.5 C 49.5 47.773438 49.726562 48 50 48 C 50.273438 48 50.5 47.773438 50.5 47.5 C 50.5 47.226562 50.273438 47 50 47 C 49.726562 47 49.5 47.226562 49.5 47.5 M 67.5 47.984375 C 65.710938 48.496094 62.957031 49.0625 61.375 49.242188 C 59.792969 49.425781 58.5 49.75 58.5 49.96875 C 58.5 50.183594 59.917969 50.507812 61.648438 50.683594 C 63.378906 50.863281 66.414062 51.457031 68.390625 52.003906 C 70.367188 52.550781 73.324219 53 74.960938 53 C 78.398438 53 84.15625 51.882812 86.875 50.691406 L 88.75 49.867188 L 85 48.621094 C 79.910156 46.929688 72.167969 46.648438 67.5 47.984375 M 49.5 51 C 49.5 51.273438 49.726562 51.5 50 51.5 C 50.273438 51.5 50.5 51.273438 50.5 51 C 50.5 50.726562 50.273438 50.5 50 50.5 C 49.726562 50.5 49.5 50.726562 49.5 51 M 35.25 53.75 C 27.574219 55.203125 18.875 59.503906 15 63.761719 L 13.75 65.136719 L 17.5 64.84375 C 22.726562 64.441406 26.515625 63.355469 31.75 60.773438 C 35.875 58.734375 41.515625 54.699219 41.917969 53.496094 C 42.136719 52.839844 39.558594 52.9375 35.25 53.75 M 58.296875 54.058594 C 59.664062 55.578125 64.824219 59.164062 67.761719 60.640625 C 72.75 63.144531 83.390625 65.492188 85.0625 64.460938 C 85.957031 63.910156 80.261719 59.710938 75.25 57.222656 C 70.113281 54.675781 64.101562 53 60.09375 53 L 57.34375 53 L 58.296875 54.058594 M 41.589844 57.253906 C 40.769531 57.941406 38.109375 59.753906 35.675781 61.28125 C 30.957031 64.242188 28.378906 66.835938 25.085938 71.929688 C 22.992188 75.167969 22.21875 76.882812 22.652344 77.320312 C 23.070312 77.738281 28.667969 74.691406 31.277344 72.628906 C 35.0625 69.636719 36.933594 67.597656 38.21875 65.0625 C 38.867188 63.792969 40.429688 61.417969 41.695312 59.789062 C 42.964844 58.160156 44 56.640625 44 56.414062 C 44 55.667969 43.101562 55.980469 41.589844 57.253906 M 56 56.414062 C 56 56.640625 57.027344 58.148438 58.28125 59.765625 C 59.539062 61.382812 61.34375 64.09375 62.292969 65.792969 C 63.574219 68.085938 65.019531 69.675781 67.886719 71.957031 C 71.707031 74.996094 76.769531 77.894531 77.3125 77.351562 C 77.84375 76.820312 73.980469 70.242188 71.234375 67 C 69.394531 64.828125 67.363281 63.113281 65.113281 61.832031 C 63.265625 60.78125 60.605469 59.035156 59.203125 57.957031 C 56.621094 55.96875 56 55.671875 56 56.414062 M 43.765625 60.875 C 39.082031 66.695312 34.976562 77.433594 35.027344 83.75 L 35.046875 86.25 L 37.429688 83.632812 C 40.488281 80.28125 44.253906 73.128906 45.445312 68.425781 C 46.628906 63.742188 47.253906 58 46.582031 58 C 46.304688 58 45.039062 59.292969 43.765625 60.875 M 53.234375 61.265625 C 54.15625 69.902344 57.835938 78.519531 62.90625 83.941406 L 65.066406 86.25 L 64.808594 82.5 C 64.457031 77.335938 63.378906 73.53125 60.773438 68.25 C 58.6875 64.027344 54.691406 58.484375 53.433594 58.0625 C 53.027344 57.925781 52.972656 58.835938 53.234375 61.265625 M 49.28125 60.257812 C 49.113281 61.351562 48.609375 64.050781 48.164062 66.25 C 47.023438 71.851562 46.792969 77.152344 47.511719 81.25 C 48.183594 85.089844 49.367188 88.5 50.035156 88.5 C 50.902344 88.5 52.585938 81.632812 52.855469 76.996094 C 53.078125 73.136719 52.929688 71.449219 52.066406 68.027344 C 51.480469 65.707031 51 62.996094 51 62 C 51 61.003906 50.683594 59.757812 50.296875 59.226562 C 49.636719 58.328125 49.570312 58.394531 49.28125 60.257812 "/>
</g>
</svg>
