<?xml version="1.0" encoding="UTF-8"?>
<svg xmlns="http://www.w3.org/2000/svg" xmlns:xlink="http://www.w3.org/1999/xlink" width="24px" height="24px" viewBox="0 0 24 24" version="1.1">
<g id="surface1">
<path style=" stroke:none;fill-rule:evenodd;fill:rgb(0%,0%,0%);fill-opacity:1;" d="M 11.640625 2.304688 C 11.375 2.589844 10.960938 3.792969 10.847656 4.605469 C 10.730469 5.453125 10.695312 5.460938 10.195312 4.6875 C 9.652344 3.84375 8.617188 2.761719 8.359375 2.761719 C 8.265625 2.761719 8.117188 2.847656 8.023438 2.957031 C 7.757812 3.28125 7.871094 5.085938 8.234375 6.277344 C 8.285156 6.4375 8.15625 6.382812 7.753906 6.074219 C 7.21875 5.667969 5.96875 5.011719 5.441406 4.863281 C 5.074219 4.761719 4.777344 5.089844 4.878906 5.5 C 4.992188 5.972656 5.488281 6.9375 5.960938 7.601562 C 6.191406 7.921875 6.359375 8.199219 6.339844 8.222656 C 6.316406 8.242188 6.003906 8.183594 5.640625 8.089844 C 4.484375 7.789062 3.414062 7.738281 3.066406 7.964844 C 2.898438 8.074219 2.761719 8.261719 2.761719 8.382812 C 2.761719 8.714844 3.441406 9.40625 4.425781 10.074219 C 5.363281 10.707031 5.359375 10.730469 4.402344 10.859375 C 2.996094 11.046875 1.992188 11.554688 2.0625 12.039062 C 2.085938 12.1875 2.296875 12.40625 2.578125 12.5625 C 2.992188 12.796875 3.394531 12.910156 5.144531 13.273438 C 5.398438 13.324219 5.34375 13.386719 4.675781 13.777344 C 3.757812 14.316406 2.761719 15.257812 2.761719 15.585938 C 2.761719 16.207031 3.585938 16.332031 5.308594 15.980469 C 5.886719 15.863281 6.359375 15.78125 6.359375 15.800781 C 6.359375 15.820312 6.164062 16.09375 5.921875 16.410156 C 5.679688 16.722656 5.324219 17.320312 5.128906 17.730469 C 4.746094 18.546875 4.753906 19.011719 5.148438 19.136719 C 5.484375 19.242188 6.480469 18.824219 7.386719 18.1875 C 7.828125 17.878906 8.203125 17.644531 8.222656 17.664062 C 8.242188 17.683594 8.183594 17.996094 8.089844 18.359375 C 7.996094 18.722656 7.886719 19.371094 7.851562 19.800781 C 7.695312 21.707031 8.648438 21.675781 9.945312 19.738281 C 10.277344 19.242188 10.59375 18.84375 10.644531 18.855469 C 10.699219 18.867188 10.804688 19.253906 10.882812 19.71875 C 11.234375 21.808594 11.941406 22.523438 12.5625 21.417969 C 12.796875 21.007812 12.910156 20.59375 13.273438 18.855469 C 13.324219 18.605469 13.378906 18.652344 13.753906 19.273438 C 14.675781 20.808594 15.507812 21.503906 15.925781 21.085938 C 16.210938 20.800781 16.234375 19.863281 15.988281 18.691406 C 15.867188 18.113281 15.78125 17.640625 15.800781 17.640625 C 15.820312 17.640625 16.09375 17.835938 16.410156 18.078125 C 16.722656 18.320312 17.320312 18.675781 17.730469 18.871094 C 18.546875 19.253906 19.011719 19.246094 19.136719 18.851562 C 19.242188 18.515625 18.824219 17.519531 18.1875 16.613281 C 17.878906 16.171875 17.648438 15.792969 17.671875 15.769531 C 17.695312 15.742188 18.089844 15.800781 18.546875 15.898438 C 20.03125 16.214844 21.238281 16.101562 21.238281 15.652344 C 21.238281 15.367188 20.304688 14.429688 19.476562 13.886719 C 19.0625 13.613281 18.71875 13.359375 18.71875 13.320312 C 18.71875 13.28125 19.109375 13.183594 19.582031 13.101562 C 20.058594 13.019531 20.757812 12.8125 21.140625 12.640625 C 21.855469 12.320312 22.089844 12.003906 21.839844 11.699219 C 21.664062 11.484375 20.558594 11.066406 19.75 10.910156 C 18.425781 10.648438 18.480469 10.707031 19.144531 10.292969 C 20.027344 9.75 20.863281 9.019531 21.074219 8.609375 C 21.246094 8.28125 21.242188 8.234375 21.066406 8.054688 C 20.757812 7.75 19.003906 7.84375 17.707031 8.238281 C 17.523438 8.296875 17.554688 8.210938 17.863281 7.820312 C 18.800781 6.636719 19.363281 5.054688 18.90625 4.878906 C 18.554688 4.742188 17.429688 5.230469 16.398438 5.960938 C 16.078125 6.191406 15.796875 6.355469 15.769531 6.328125 C 15.746094 6.304688 15.800781 5.910156 15.898438 5.453125 C 16.214844 3.964844 16.101562 2.761719 15.652344 2.761719 C 15.363281 2.761719 14.304688 3.820312 13.835938 4.582031 C 13.597656 4.964844 13.371094 5.28125 13.328125 5.28125 C 13.28125 5.28125 13.179688 4.886719 13.097656 4.410156 C 12.898438 3.226562 12.339844 2.039062 11.984375 2.039062 C 11.933594 2.039062 11.777344 2.160156 11.640625 2.304688 M 11.644531 3.632812 C 11.246094 4.929688 11.191406 6.421875 11.5 7.683594 C 11.640625 8.242188 11.789062 8.984375 11.832031 9.328125 C 11.875 9.675781 11.949219 9.960938 12 9.960938 C 12.046875 9.960938 12.121094 9.621094 12.164062 9.203125 C 12.207031 8.789062 12.355469 8.046875 12.492188 7.554688 C 12.695312 6.832031 12.734375 6.453125 12.679688 5.578125 C 12.621094 4.5625 12.234375 2.964844 12.015625 2.828125 C 11.960938 2.796875 11.792969 3.15625 11.644531 3.632812 M 8.453125 4.261719 C 8.597656 6.105469 9.585938 8.464844 10.707031 9.640625 L 11.296875 10.261719 L 11.230469 9.339844 C 11.097656 7.492188 10.179688 5.347656 8.96875 4.042969 L 8.386719 3.421875 L 8.453125 4.261719 M 14.824219 4.15625 C 13.675781 5.605469 12.71875 8.070312 12.71875 9.578125 L 12.71875 10.238281 L 12.972656 10.007812 C 13.339844 9.679688 14.199219 8.441406 14.554688 7.738281 C 15.15625 6.539062 15.746094 3.855469 15.476562 3.558594 C 15.425781 3.5 15.132812 3.769531 14.824219 4.15625 M 5.519531 5.671875 C 5.519531 5.902344 6.316406 7.191406 6.957031 7.988281 C 7.3125 8.4375 7.769531 8.820312 8.335938 9.144531 C 8.800781 9.414062 9.433594 9.839844 9.742188 10.09375 C 10.25 10.515625 10.558594 10.667969 10.558594 10.496094 C 10.558594 10.460938 10.339844 10.15625 10.070312 9.8125 C 9.800781 9.472656 9.371094 8.8125 9.113281 8.347656 C 8.628906 7.464844 7.894531 6.773438 6.660156 6.027344 C 5.890625 5.566406 5.519531 5.449219 5.519531 5.671875 M 17.417969 5.96875 C 16.105469 6.765625 15.308594 7.492188 14.886719 8.28125 C 14.675781 8.683594 14.230469 9.359375 13.90625 9.785156 C 13.25 10.640625 13.316406 10.777344 14.078125 10.152344 C 14.355469 9.925781 15.023438 9.480469 15.5625 9.160156 C 16.289062 8.730469 16.707031 8.378906 17.160156 7.8125 C 17.671875 7.171875 18.480469 5.808594 18.480469 5.582031 C 18.480469 5.417969 18.101562 5.558594 17.417969 5.96875 M 3.929688 8.984375 C 4.730469 9.714844 6.445312 10.621094 7.578125 10.910156 C 8.71875 11.203125 10.078125 11.351562 10.078125 11.183594 C 10.078125 10.941406 8.6875 9.941406 7.621094 9.417969 C 6.429688 8.835938 4.828125 8.398438 3.898438 8.40625 L 3.300781 8.410156 L 3.929688 8.984375 M 18.660156 8.597656 C 17.191406 8.914062 15.59375 9.65625 14.460938 10.558594 C 13.601562 11.238281 13.632812 11.328125 14.675781 11.242188 C 16.511719 11.085938 18.695312 10.144531 19.992188 8.949219 L 20.578125 8.410156 L 20.039062 8.414062 C 19.742188 8.417969 19.121094 8.5 18.660156 8.597656 M 11.449219 10.738281 C 10.613281 11.222656 10.390625 12.054688 10.894531 12.835938 C 10.917969 12.867188 10.988281 12.8125 11.050781 12.714844 C 11.15625 12.5625 11.167969 12.5625 11.152344 12.71875 C 11.101562 13.171875 11.289062 13.316406 12 13.375 C 12.464844 13.410156 12.972656 13.085938 12.910156 12.789062 C 12.890625 12.71875 12.902344 12.699219 12.929688 12.75 C 13.1875 13.210938 13.488281 12.027344 13.253906 11.46875 C 12.976562 10.800781 12.015625 10.414062 11.449219 10.738281 M 4.140625 11.457031 C 3.230469 11.660156 2.761719 11.839844 2.761719 11.992188 C 2.761719 12.214844 4.371094 12.617188 5.519531 12.683594 C 6.449219 12.738281 6.851562 12.703125 7.675781 12.496094 C 8.230469 12.355469 8.878906 12.238281 9.113281 12.238281 C 9.347656 12.238281 9.621094 12.183594 9.71875 12.117188 C 9.878906 12.011719 9.878906 11.988281 9.71875 11.882812 C 9.621094 11.816406 9.351562 11.761719 9.121094 11.761719 C 8.890625 11.757812 8.25 11.652344 7.703125 11.519531 C 6.558594 11.246094 5.207031 11.222656 4.140625 11.457031 M 11.878906 11.398438 C 11.878906 11.464844 11.933594 11.519531 12 11.519531 C 12.066406 11.519531 12.121094 11.464844 12.121094 11.398438 C 12.121094 11.335938 12.066406 11.28125 12 11.28125 C 11.933594 11.28125 11.878906 11.335938 11.878906 11.398438 M 16.199219 11.515625 C 15.769531 11.640625 15.109375 11.773438 14.730469 11.816406 C 14.351562 11.863281 14.039062 11.941406 14.039062 11.992188 C 14.039062 12.042969 14.378906 12.121094 14.796875 12.164062 C 15.210938 12.207031 15.9375 12.347656 16.414062 12.480469 C 16.886719 12.613281 17.597656 12.71875 17.992188 12.71875 C 18.816406 12.71875 20.199219 12.453125 20.851562 12.164062 L 21.300781 11.96875 L 20.398438 11.667969 C 19.179688 11.261719 17.320312 11.195312 16.199219 11.515625 M 11.878906 12.238281 C 11.878906 12.304688 11.933594 12.359375 12 12.359375 C 12.066406 12.359375 12.121094 12.304688 12.121094 12.238281 C 12.121094 12.175781 12.066406 12.121094 12 12.121094 C 11.933594 12.121094 11.878906 12.175781 11.878906 12.238281 M 8.460938 12.898438 C 6.617188 13.25 4.53125 14.28125 3.601562 15.304688 L 3.300781 15.632812 L 4.199219 15.5625 C 5.453125 15.464844 6.363281 15.207031 7.621094 14.585938 C 8.609375 14.097656 9.964844 13.128906 10.058594 12.839844 C 10.113281 12.679688 9.492188 12.703125 8.460938 12.898438 M 13.992188 12.972656 C 14.320312 13.339844 15.558594 14.199219 16.261719 14.554688 C 17.460938 15.15625 20.015625 15.71875 20.414062 15.46875 C 20.628906 15.339844 19.261719 14.332031 18.058594 13.734375 C 16.828125 13.121094 15.382812 12.71875 14.421875 12.71875 L 13.761719 12.71875 L 13.992188 12.972656 M 9.980469 13.742188 C 9.785156 13.90625 9.144531 14.339844 8.5625 14.707031 C 7.429688 15.417969 6.808594 16.039062 6.019531 17.261719 C 5.519531 18.039062 5.332031 18.453125 5.4375 18.558594 C 5.535156 18.65625 6.878906 17.925781 7.507812 17.429688 C 8.414062 16.710938 8.863281 16.222656 9.171875 15.617188 C 9.328125 15.308594 9.703125 14.738281 10.007812 14.347656 C 10.3125 13.957031 10.558594 13.59375 10.558594 13.539062 C 10.558594 13.359375 10.34375 13.433594 9.980469 13.742188 M 13.441406 13.539062 C 13.441406 13.59375 13.6875 13.957031 13.988281 14.34375 C 14.289062 14.730469 14.722656 15.382812 14.949219 15.789062 C 15.257812 16.339844 15.605469 16.722656 16.292969 17.269531 C 17.210938 18 18.425781 18.695312 18.554688 18.566406 C 18.683594 18.4375 17.753906 16.859375 17.097656 16.078125 C 16.65625 15.558594 16.167969 15.148438 15.628906 14.839844 C 15.183594 14.585938 14.546875 14.167969 14.207031 13.910156 C 13.589844 13.433594 13.441406 13.359375 13.441406 13.539062 M 10.503906 14.609375 C 9.378906 16.007812 8.394531 18.585938 8.40625 20.101562 L 8.410156 20.699219 L 8.984375 20.070312 C 9.714844 19.265625 10.621094 17.550781 10.90625 16.421875 C 11.191406 15.296875 11.339844 13.921875 11.179688 13.921875 C 11.113281 13.921875 10.808594 14.230469 10.503906 14.609375 M 12.777344 14.703125 C 12.996094 16.777344 13.878906 18.84375 15.097656 20.144531 L 15.617188 20.699219 L 15.554688 19.800781 C 15.46875 18.558594 15.210938 17.648438 14.585938 16.378906 C 14.085938 15.367188 13.125 14.035156 12.824219 13.933594 C 12.726562 13.902344 12.714844 14.121094 12.777344 14.703125 M 11.828125 14.460938 C 11.789062 14.726562 11.667969 15.371094 11.558594 15.898438 C 11.285156 17.246094 11.230469 18.515625 11.402344 19.5 C 11.5625 20.421875 11.847656 21.238281 12.007812 21.238281 C 12.214844 21.238281 12.621094 19.59375 12.683594 18.480469 C 12.738281 17.550781 12.703125 17.148438 12.496094 16.324219 C 12.355469 15.769531 12.238281 15.117188 12.238281 14.878906 C 12.238281 14.640625 12.164062 14.339844 12.070312 14.214844 C 11.914062 14 11.898438 14.015625 11.828125 14.460938 "/>
</g>
</svg>
