<?xml version="1.0" encoding="UTF-8"?>
<svg xmlns="http://www.w3.org/2000/svg" xmlns:xlink="http://www.w3.org/1999/xlink" width="24px" height="24px" viewBox="0 0 24 24" version="1.1">
<g id="surface1">
<path style=" stroke:none;fill-rule:nonzero;fill:rgb(0.392157%,0.392157%,0.392157%);fill-opacity:1;" d="M 18.078125 5.523438 L 17.96875 7.765625 L 17.589844 7.726562 C 17.578125 7.722656 16.328125 7.585938 15.035156 7.585938 C 14.371094 7.585938 13.832031 7.625 13.402344 7.691406 C 13.40625 7.707031 13.421875 7.71875 13.421875 7.730469 C 13.421875 7.816406 13.328125 7.894531 13.179688 7.949219 C 13.472656 8.015625 13.757812 8.109375 13.890625 8.21875 C 14.109375 8.394531 14.414062 8.695312 14.238281 8.867188 C 14.070312 9.054688 13.808594 9.238281 13.714844 9.433594 C 13.589844 9.6875 14.652344 9.917969 14.058594 9.808594 C 12.511719 9.515625 12.527344 9.160156 13.042969 8.761719 C 13.449219 8.445312 13.210938 8.105469 13.09375 7.976562 C 12.945312 8.023438 12.761719 8.054688 12.554688 8.054688 C 12.3125 8.054688 12.09375 8.015625 11.933594 7.953125 C 11.828125 8.0625 11.53125 8.425781 11.964844 8.761719 C 12.476562 9.160156 12.496094 9.515625 10.949219 9.808594 C 10.355469 9.921875 11.515625 9.703125 11.390625 9.445312 C 11.296875 9.25 11.035156 9.066406 10.867188 8.878906 C 10.695312 8.707031 10.902344 8.394531 11.117188 8.21875 C 11.261719 8.101562 11.578125 8 11.898438 7.933594 C 11.773438 7.878906 11.6875 7.808594 11.6875 7.730469 C 11.6875 7.714844 11.707031 7.699219 11.714844 7.683594 C 11.292969 7.621094 10.78125 7.585938 10.152344 7.585938 C 8.859375 7.585938 7.605469 7.722656 7.59375 7.726562 L 7.21875 7.769531 L 7.109375 5.515625 C 6.847656 5.515625 6.625 5.515625 6.460938 5.515625 C 2.910156 5.515625 0.00390625 6.582031 0.00390625 7.894531 C 0.00390625 8.347656 0.00390625 10.605469 0.00390625 12.164062 L 4.367188 12.164062 C 4.367188 10.621094 4.367188 8.460938 4.367188 8.460938 L 5.5 8.460938 C 5.5 8.460938 5.5 10.871094 5.5 13.722656 L 18.503906 13.722656 C 18.503906 10.871094 18.503906 8.460938 18.503906 8.460938 L 19.636719 8.460938 C 19.636719 8.460938 19.636719 10.621094 19.636719 12.164062 L 24 12.164062 C 24 10.605469 24 8.347656 24 7.894531 C 23.996094 6.648438 21.378906 5.625 18.078125 5.523438 Z M 18.078125 5.523438 "/>
<path style=" stroke:none;fill-rule:nonzero;fill:rgb(0.392157%,0.392157%,0.392157%);fill-opacity:1;" d="M 5.496094 13.96875 C 5.496094 17.832031 5.496094 22.398438 5.496094 22.902344 C 5.496094 23.503906 6.828125 23.992188 8.453125 23.992188 C 10.078125 23.992188 11.394531 23.503906 11.394531 22.902344 C 11.394531 22.011719 11.394531 14.515625 11.394531 14.515625 L 12.601562 14.515625 C 12.601562 14.515625 12.601562 22.011719 12.601562 22.902344 C 12.601562 23.503906 13.921875 23.992188 15.546875 23.992188 C 17.167969 23.992188 18.5 23.503906 18.5 22.902344 C 18.5 22.398438 18.5 17.832031 18.5 13.96875 Z M 5.496094 13.96875 "/>
<path style=" stroke:none;fill-rule:nonzero;fill:rgb(0.392157%,0.392157%,0.392157%);fill-opacity:1;" d="M 11.703125 2.03125 C 9.867188 2.03125 8.320312 2.171875 7.46875 2.265625 C 7.046875 2.539062 6.789062 2.847656 6.789062 3.183594 C 6.789062 4.207031 9.035156 5.039062 11.804688 5.039062 C 14.578125 5.039062 16.824219 4.207031 16.824219 3.183594 C 16.824219 2.851562 16.566406 2.542969 16.152344 2.273438 C 15.261719 2.175781 13.585938 2.03125 11.703125 2.03125 Z M 11.703125 2.03125 "/>
<path style=" stroke:none;fill-rule:nonzero;fill:rgb(0.392157%,0.392157%,0.392157%);fill-opacity:1;" d="M 12 0.351562 C 12.949219 0.351562 13.765625 0.371094 14.464844 0.398438 C 13.695312 0.160156 12.710938 0.0078125 11.621094 0.0078125 C 10.460938 0.0078125 9.414062 0.175781 8.621094 0.449219 C 9.492188 0.390625 10.601562 0.351562 12 0.351562 Z M 12 0.351562 "/>
<path style=" stroke:none;fill-rule:nonzero;fill:rgb(0.392157%,0.392157%,0.392157%);fill-opacity:1;" d="M 18.128906 1.0625 C 18.128906 1.0625 16.617188 0.621094 12 0.621094 C 7.375 0.621094 5.867188 1.0625 5.867188 1.0625 L 6.773438 2.082031 C 6.773438 2.082031 8.933594 1.761719 11.703125 1.761719 C 14.476562 1.761719 16.839844 2.082031 16.839844 2.082031 Z M 18.128906 1.0625 "/>
<path style=" stroke:none;fill-rule:nonzero;fill:rgb(0.392157%,0.392157%,0.392157%);fill-opacity:1;" d="M 15.035156 7.363281 C 15.988281 7.363281 16.894531 7.433594 17.386719 7.476562 L 17.484375 5.515625 C 17.351562 5.515625 17.183594 5.515625 16.992188 5.515625 C 16.675781 6.152344 15.027344 6.933594 13.902344 7.402344 C 14.246094 7.378906 14.621094 7.363281 15.035156 7.363281 Z M 15.035156 7.363281 "/>
<path style=" stroke:none;fill-rule:nonzero;fill:rgb(0.392157%,0.392157%,0.392157%);fill-opacity:1;" d="M 7.796875 7.476562 C 8.5 7.414062 10.152344 7.320312 11.277344 7.402344 C 10.15625 6.933594 8.507812 6.152344 8.191406 5.515625 C 8.019531 5.515625 7.855469 5.515625 7.699219 5.515625 Z M 7.796875 7.476562 "/>
<path style=" stroke:none;fill-rule:nonzero;fill:rgb(0.392157%,0.392157%,0.392157%);fill-opacity:1;" d="M 12.550781 7.410156 C 12.703125 7.410156 12.839844 7.429688 12.964844 7.453125 C 13.9375 7.070312 16.007812 6.1875 16.398438 5.515625 C 14.480469 5.515625 11.140625 5.515625 8.785156 5.515625 C 9.171875 6.183594 11.207031 7.054688 12.1875 7.441406 C 12.300781 7.421875 12.421875 7.410156 12.550781 7.410156 Z M 12.550781 7.410156 "/>
<path style=" stroke:none;fill-rule:nonzero;fill:rgb(0.392157%,0.392157%,0.392157%);fill-opacity:1;" d="M 19.632812 12.824219 C 19.632812 13.234375 19.632812 13.535156 19.632812 13.648438 C 19.632812 14.097656 20.617188 14.460938 21.832031 14.460938 C 23.046875 14.460938 24 14.097656 24 13.648438 C 24 13.550781 24 13.242188 24 12.824219 Z M 19.632812 12.824219 "/>
<path style=" stroke:none;fill-rule:nonzero;fill:rgb(0.392157%,0.392157%,0.392157%);fill-opacity:1;" d="M 19.632812 12.414062 C 19.632812 12.46875 19.632812 12.523438 19.632812 12.578125 L 23.996094 12.578125 C 23.996094 12.523438 23.996094 12.46875 23.996094 12.414062 Z M 19.632812 12.414062 "/>
<path style=" stroke:none;fill-rule:nonzero;fill:rgb(0.392157%,0.392157%,0.392157%);fill-opacity:1;" d="M 4.363281 12.578125 C 4.363281 12.523438 4.363281 12.46875 4.363281 12.414062 L 0 12.414062 C 0 12.46875 0 12.523438 0 12.578125 Z M 4.363281 12.578125 "/>
<path style=" stroke:none;fill-rule:nonzero;fill:rgb(0.392157%,0.392157%,0.392157%);fill-opacity:1;" d="M 0 12.824219 C 0 13.246094 0 13.550781 0 13.648438 C 0 14.097656 0.953125 14.460938 2.167969 14.460938 C 3.378906 14.460938 4.363281 14.097656 4.363281 13.648438 C 4.363281 13.535156 4.363281 13.234375 4.363281 12.824219 Z M 0 12.824219 "/>
</g>
</svg>
