<?xml version="1.0" encoding="UTF-8"?>
<svg xmlns="http://www.w3.org/2000/svg" xmlns:xlink="http://www.w3.org/1999/xlink" width="100px" height="100px" viewBox="0 0 100 100" version="1.1">
<g id="surface1">
<path style=" stroke:none;fill-rule:nonzero;fill:rgb(0.392157%,0.392157%,0.392157%);fill-opacity:1;" d="M 75.328125 23.019531 L 74.871094 32.363281 L 73.300781 32.1875 C 73.242188 32.179688 68.027344 31.601562 62.648438 31.601562 C 59.882812 31.601562 57.628906 31.761719 55.835938 32.054688 C 55.855469 32.109375 55.921875 32.160156 55.921875 32.214844 C 55.921875 32.570312 55.53125 32.890625 54.921875 33.128906 C 56.144531 33.394531 57.316406 33.789062 57.875 34.238281 C 58.78125 34.976562 60.050781 36.222656 59.332031 36.9375 C 58.625 37.726562 57.53125 38.492188 57.140625 39.300781 C 56.628906 40.371094 61.046875 41.332031 58.585938 40.867188 C 52.136719 39.652344 52.207031 38.167969 54.347656 36.507812 C 56.03125 35.195312 55.050781 33.777344 54.558594 33.238281 C 53.9375 33.425781 53.175781 33.554688 52.3125 33.554688 C 51.296875 33.554688 50.386719 33.394531 49.722656 33.144531 C 49.285156 33.59375 48.050781 35.109375 49.851562 36.511719 C 51.988281 38.171875 52.058594 39.65625 45.613281 40.871094 C 43.148438 41.332031 47.976562 40.425781 47.460938 39.351562 C 47.074219 38.542969 45.976562 37.777344 45.273438 36.992188 C 44.5625 36.273438 45.429688 34.980469 46.324219 34.242188 C 46.925781 33.753906 48.25 33.332031 49.578125 33.0625 C 49.054688 32.832031 48.699219 32.542969 48.699219 32.21875 C 48.699219 32.144531 48.78125 32.085938 48.8125 32.015625 C 47.058594 31.753906 44.914062 31.605469 42.296875 31.605469 C 36.90625 31.605469 31.695312 32.183594 31.644531 32.1875 L 30.074219 32.363281 L 29.613281 22.984375 C 28.53125 22.984375 27.597656 22.984375 26.917969 22.984375 C 12.128906 22.984375 0.0117188 27.417969 0.0117188 32.890625 C 0.0117188 34.773438 0.0117188 44.191406 0.0117188 50.691406 L 18.195312 50.691406 C 18.195312 44.25 18.195312 35.253906 18.195312 35.253906 L 22.910156 35.253906 C 22.910156 35.253906 22.910156 45.289062 22.910156 57.175781 L 77.097656 57.175781 C 77.097656 45.289062 77.097656 35.253906 77.097656 35.253906 L 81.816406 35.253906 C 81.816406 35.253906 81.816406 44.25 81.816406 50.691406 L 100 50.691406 C 100 44.195312 100 34.773438 100 32.890625 C 99.988281 27.695312 89.070312 23.441406 75.328125 23.019531 Z M 75.328125 23.019531 "/>
<path style=" stroke:none;fill-rule:nonzero;fill:rgb(0.392157%,0.392157%,0.392157%);fill-opacity:1;" d="M 22.902344 58.203125 C 22.902344 74.304688 22.902344 93.324219 22.902344 95.425781 C 22.902344 97.933594 28.449219 99.964844 35.214844 99.964844 C 41.984375 99.964844 47.484375 97.933594 47.484375 95.425781 C 47.484375 91.714844 47.484375 60.484375 47.484375 60.484375 L 52.503906 60.484375 C 52.503906 60.484375 52.503906 91.71875 52.503906 95.425781 C 52.503906 97.933594 58 99.964844 64.777344 99.964844 C 71.539062 99.964844 77.089844 97.933594 77.089844 95.425781 C 77.089844 93.324219 77.089844 74.304688 77.089844 58.203125 Z M 22.902344 58.203125 "/>
<path style=" stroke:none;fill-rule:nonzero;fill:rgb(0.392157%,0.392157%,0.392157%);fill-opacity:1;" d="M 48.769531 8.464844 C 41.121094 8.464844 34.660156 9.042969 31.121094 9.441406 C 29.367188 10.574219 28.285156 11.867188 28.285156 13.261719 C 28.285156 17.535156 37.640625 20.996094 49.191406 20.996094 C 60.734375 20.996094 70.097656 17.535156 70.097656 13.261719 C 70.097656 11.875 69.027344 10.59375 67.308594 9.46875 C 63.585938 9.074219 56.613281 8.464844 48.769531 8.464844 Z M 48.769531 8.464844 "/>
<path style=" stroke:none;fill-rule:nonzero;fill:rgb(0.392157%,0.392157%,0.392157%);fill-opacity:1;" d="M 49.996094 1.464844 C 53.960938 1.464844 57.355469 1.542969 60.273438 1.667969 C 57.0625 0.664062 52.960938 0.0351562 48.425781 0.0351562 C 43.585938 0.0351562 39.21875 0.738281 35.925781 1.867188 C 39.558594 1.632812 44.171875 1.464844 49.996094 1.464844 Z M 49.996094 1.464844 "/>
<path style=" stroke:none;fill-rule:nonzero;fill:rgb(0.392157%,0.392157%,0.392157%);fill-opacity:1;" d="M 75.539062 4.425781 C 75.539062 4.425781 69.242188 2.589844 49.992188 2.589844 C 30.734375 2.589844 24.449219 4.425781 24.449219 4.425781 L 28.222656 8.675781 C 28.222656 8.675781 37.214844 7.339844 48.769531 7.339844 C 60.324219 7.339844 70.167969 8.675781 70.167969 8.675781 Z M 75.539062 4.425781 "/>
<path style=" stroke:none;fill-rule:nonzero;fill:rgb(0.392157%,0.392157%,0.392157%);fill-opacity:1;" d="M 62.644531 30.6875 C 66.613281 30.6875 70.390625 30.96875 72.445312 31.152344 L 72.851562 22.980469 C 72.292969 22.980469 71.59375 22.980469 70.804688 22.980469 C 69.476562 25.640625 62.613281 28.898438 57.929688 30.847656 C 59.359375 30.738281 60.925781 30.6875 62.644531 30.6875 Z M 62.644531 30.6875 "/>
<path style=" stroke:none;fill-rule:nonzero;fill:rgb(0.392157%,0.392157%,0.392157%);fill-opacity:1;" d="M 32.484375 31.152344 C 35.417969 30.886719 42.296875 30.496094 46.996094 30.84375 C 42.324219 28.894531 35.449219 25.640625 34.121094 22.980469 C 33.410156 22.980469 32.722656 22.980469 32.082031 22.980469 Z M 32.484375 31.152344 "/>
<path style=" stroke:none;fill-rule:nonzero;fill:rgb(0.392157%,0.392157%,0.392157%);fill-opacity:1;" d="M 52.300781 30.878906 C 52.9375 30.878906 53.503906 30.957031 54.015625 31.0625 C 58.078125 29.453125 66.707031 25.78125 68.328125 22.980469 C 60.34375 22.980469 46.417969 22.980469 36.605469 22.980469 C 38.214844 25.761719 46.691406 29.386719 50.785156 31.015625 C 51.25 30.929688 51.757812 30.878906 52.300781 30.878906 Z M 52.300781 30.878906 "/>
<path style=" stroke:none;fill-rule:nonzero;fill:rgb(0.392157%,0.392157%,0.392157%);fill-opacity:1;" d="M 81.808594 53.441406 C 81.808594 55.136719 81.808594 56.402344 81.808594 56.871094 C 81.808594 58.742188 85.902344 60.257812 90.960938 60.257812 C 96.023438 60.257812 99.992188 58.742188 99.992188 56.871094 C 99.992188 56.460938 99.992188 55.175781 99.992188 53.441406 Z M 81.808594 53.441406 "/>
<path style=" stroke:none;fill-rule:nonzero;fill:rgb(0.392157%,0.392157%,0.392157%);fill-opacity:1;" d="M 81.808594 51.71875 C 81.808594 51.949219 81.808594 52.1875 81.808594 52.40625 L 99.988281 52.40625 C 99.988281 52.1875 99.988281 51.949219 99.988281 51.71875 Z M 81.808594 51.71875 "/>
<path style=" stroke:none;fill-rule:nonzero;fill:rgb(0.392157%,0.392157%,0.392157%);fill-opacity:1;" d="M 18.183594 52.40625 C 18.183594 52.179688 18.183594 51.953125 18.183594 51.71875 L 0 51.71875 C 0 51.953125 0 52.179688 0 52.40625 Z M 18.183594 52.40625 "/>
<path style=" stroke:none;fill-rule:nonzero;fill:rgb(0.392157%,0.392157%,0.392157%);fill-opacity:1;" d="M 0 53.441406 C 0 55.183594 0 56.457031 0 56.871094 C 0 58.742188 3.976562 60.257812 9.027344 60.257812 C 14.082031 60.257812 18.179688 58.742188 18.179688 56.871094 C 18.179688 56.402344 18.179688 55.136719 18.179688 53.441406 Z M 0 53.441406 "/>
</g>
</svg>
