<?xml version="1.0" encoding="UTF-8"?>
<svg xmlns="http://www.w3.org/2000/svg" xmlns:xlink="http://www.w3.org/1999/xlink" width="24px" height="24px" viewBox="0 0 24 24" version="1.1">
<g id="surface1">
<path style=" stroke:none;fill-rule:evenodd;fill:rgb(0%,0%,0%);fill-opacity:1;" d="M 6.121094 0.132812 C 5.738281 0.285156 5.1875 0.808594 4.96875 1.222656 C 4.742188 1.664062 4.738281 3.460938 4.96875 3.785156 C 5.113281 3.992188 5.113281 4.058594 4.96875 4.257812 C 4.714844 4.601562 4.71875 22.292969 4.96875 22.777344 C 5.195312 23.210938 5.742188 23.714844 6.15625 23.871094 C 6.621094 24.046875 17.378906 24.046875 17.84375 23.871094 C 18.300781 23.699219 18.835938 23.179688 19.035156 22.714844 C 19.28125 22.136719 19.28125 4.605469 19.03125 4.253906 C 18.886719 4.046875 18.886719 3.980469 19.03125 3.785156 C 19.253906 3.480469 19.257812 1.804688 19.035156 1.285156 C 18.835938 0.820312 18.300781 0.300781 17.84375 0.128906 C 17.398438 -0.0390625 6.542969 -0.0351562 6.121094 0.132812 M 6.160156 0.984375 C 5.769531 1.171875 5.625 1.65625 5.664062 2.648438 L 5.699219 3.539062 L 6.261719 3.578125 L 6.828125 3.613281 L 6.863281 3.035156 C 6.898438 2.511719 6.925781 2.460938 7.199219 2.460938 C 7.472656 2.460938 7.503906 2.511719 7.535156 3.03125 C 7.574219 3.59375 7.578125 3.601562 7.988281 3.601562 C 8.398438 3.601562 8.398438 3.597656 8.398438 3.054688 C 8.398438 2.664062 8.453125 2.492188 8.597656 2.4375 C 8.929688 2.308594 9.175781 2.570312 9.21875 3.101562 C 9.25 3.5625 9.28125 3.601562 9.601562 3.601562 C 9.921875 3.601562 9.949219 3.5625 9.984375 3.101562 C 10.023438 2.570312 10.269531 2.308594 10.605469 2.4375 C 10.746094 2.492188 10.800781 2.664062 10.800781 3.054688 C 10.800781 3.597656 10.804688 3.601562 11.214844 3.601562 C 11.621094 3.601562 11.628906 3.59375 11.664062 3.03125 C 11.695312 2.511719 11.726562 2.460938 12 2.460938 C 12.273438 2.460938 12.304688 2.511719 12.335938 3.03125 C 12.371094 3.59375 12.378906 3.601562 12.785156 3.601562 C 13.195312 3.601562 13.199219 3.597656 13.199219 3.054688 C 13.199219 2.664062 13.253906 2.492188 13.394531 2.4375 C 13.730469 2.308594 13.976562 2.570312 14.015625 3.101562 C 14.050781 3.5625 14.078125 3.601562 14.398438 3.601562 C 14.71875 3.601562 14.75 3.5625 14.78125 3.101562 C 14.824219 2.570312 15.070312 2.308594 15.402344 2.4375 C 15.546875 2.492188 15.601562 2.664062 15.601562 3.054688 C 15.601562 3.597656 15.601562 3.601562 16.011719 3.601562 C 16.421875 3.601562 16.425781 3.59375 16.464844 3.03125 C 16.496094 2.511719 16.527344 2.460938 16.800781 2.460938 C 17.074219 2.460938 17.101562 2.511719 17.136719 3.035156 L 17.171875 3.613281 L 17.738281 3.578125 L 18.300781 3.539062 L 18.335938 2.648438 C 18.375 1.628906 18.230469 1.167969 17.804688 0.976562 C 17.40625 0.792969 6.535156 0.800781 6.160156 0.984375 M 5.691406 4.597656 C 5.65625 4.6875 5.644531 5.1875 5.664062 5.707031 L 5.699219 6.652344 L 6.300781 6.882812 C 7.058594 7.175781 9.332031 7.292969 10.167969 7.085938 C 10.480469 7.007812 11.199219 6.734375 11.761719 6.476562 C 12.320312 6.222656 13.101562 5.929688 13.496094 5.824219 C 14.761719 5.496094 16.980469 5.609375 18.15625 6.066406 C 18.351562 6.144531 18.367188 6.078125 18.335938 5.324219 L 18.300781 4.5 L 12.027344 4.46875 C 6.855469 4.445312 5.742188 4.464844 5.691406 4.597656 M 14.578125 6.433594 C 13.765625 6.546875 13.101562 6.757812 12.164062 7.207031 C 10.898438 7.8125 9.929688 8.035156 8.574219 8.039062 C 7.628906 8.039062 7.152344 7.960938 5.910156 7.609375 C 5.65625 7.535156 5.640625 7.566406 5.640625 8.144531 L 5.640625 8.761719 L 18.371094 8.761719 L 18.300781 7.019531 L 17.519531 6.761719 C 16.742188 6.503906 15.265625 6.339844 14.578125 6.433594 M 5.640625 14.578125 L 5.640625 19.558594 L 18.359375 19.558594 L 18.359375 9.601562 L 5.640625 9.601562 L 5.640625 14.578125 M 10.71875 11.015625 C 7.898438 12.023438 7.101562 15.507812 9.210938 17.617188 C 10.773438 19.179688 13.226562 19.179688 14.789062 17.617188 C 16.789062 15.617188 16.160156 12.273438 13.574219 11.128906 C 12.792969 10.78125 11.515625 10.730469 10.71875 11.015625 M 11.160156 11.71875 C 10.707031 11.867188 10.078125 12.164062 10.078125 12.230469 C 10.078125 12.273438 10.429688 12.65625 10.859375 13.078125 L 11.640625 13.851562 L 11.640625 12.746094 C 11.640625 11.617188 11.617188 11.570312 11.160156 11.71875 M 12.359375 12.738281 L 12.359375 13.851562 L 13.140625 13.078125 C 13.570312 12.65625 13.921875 12.273438 13.921875 12.234375 C 13.921875 12.132812 13.199219 11.804688 12.75 11.707031 L 12.359375 11.621094 L 12.359375 12.738281 M 9.132812 13.433594 C 8.722656 14.390625 8.726562 14.398438 9.925781 14.398438 L 10.972656 14.398438 L 10.199219 13.621094 C 9.773438 13.191406 9.417969 12.839844 9.410156 12.839844 C 9.398438 12.839844 9.273438 13.105469 9.132812 13.433594 M 13.804688 13.613281 L 13.027344 14.398438 L 14.074219 14.398438 C 15.277344 14.398438 15.300781 14.371094 14.847656 13.40625 L 14.578125 12.828125 L 13.804688 13.613281 M 8.882812 15.449219 C 8.886719 15.730469 9.324219 16.679688 9.449219 16.679688 C 9.503906 16.679688 9.867188 16.355469 10.261719 15.960938 L 10.972656 15.238281 L 9.925781 15.238281 C 9.007812 15.238281 8.878906 15.265625 8.882812 15.449219 M 13.738281 15.960938 C 14.132812 16.355469 14.496094 16.679688 14.550781 16.679688 C 14.675781 16.679688 15.113281 15.730469 15.117188 15.449219 C 15.121094 15.265625 14.992188 15.238281 14.074219 15.238281 L 13.027344 15.238281 L 13.738281 15.960938 M 10.816406 16.605469 L 10.050781 17.378906 L 10.449219 17.582031 C 11.089844 17.914062 11.523438 18.011719 11.589844 17.832031 C 11.625 17.75 11.636719 17.261719 11.617188 16.753906 L 11.578125 15.832031 L 10.816406 16.605469 M 12.386719 16.890625 C 12.417969 17.933594 12.421875 17.941406 12.71875 17.898438 C 12.882812 17.875 13.230469 17.746094 13.484375 17.617188 L 13.953125 17.378906 L 13.1875 16.609375 C 12.769531 16.1875 12.410156 15.839844 12.390625 15.839844 C 12.367188 15.839844 12.367188 16.3125 12.386719 16.890625 M 5.640625 21.355469 C 5.640625 22.429688 5.773438 22.832031 6.199219 23.027344 C 6.398438 23.117188 8.21875 23.160156 12 23.160156 C 15.78125 23.160156 17.601562 23.117188 17.800781 23.027344 C 18.226562 22.832031 18.359375 22.429688 18.359375 21.355469 L 18.359375 20.398438 L 5.640625 20.398438 L 5.640625 21.355469 "/>
</g>
</svg>
