<?xml version="1.0" encoding="UTF-8"?>
<svg xmlns="http://www.w3.org/2000/svg" xmlns:xlink="http://www.w3.org/1999/xlink" width="100px" height="100px" viewBox="0 0 100 100" version="1.1">
<g id="surface1">
<path style=" stroke:none;fill-rule:evenodd;fill:rgb(0%,0%,0%);fill-opacity:1;" d="M 25.5 0.558594 C 23.902344 1.195312 21.613281 3.363281 20.707031 5.101562 C 19.75 6.925781 19.746094 14.417969 20.699219 15.777344 C 21.300781 16.632812 21.300781 16.914062 20.699219 17.734375 C 19.652344 19.167969 19.65625 92.894531 20.707031 94.898438 C 21.652344 96.710938 23.933594 98.816406 25.65625 99.46875 C 27.59375 100.199219 72.40625 100.199219 74.34375 99.46875 C 76.257812 98.746094 78.480469 96.585938 79.3125 94.640625 C 80.34375 92.230469 80.332031 19.195312 79.300781 17.722656 C 78.699219 16.867188 78.699219 16.585938 79.300781 15.765625 C 80.226562 14.5 80.234375 7.515625 79.3125 5.359375 C 78.480469 3.414062 76.257812 1.253906 74.34375 0.53125 C 72.488281 -0.167969 27.265625 -0.140625 25.5 0.558594 M 25.660156 4.09375 C 24.035156 4.878906 23.433594 6.898438 23.601562 11.035156 L 23.75 14.75 L 26.097656 14.902344 L 28.441406 15.050781 L 28.597656 12.652344 C 28.738281 10.464844 28.863281 10.25 30 10.25 C 31.136719 10.25 31.265625 10.464844 31.402344 12.625 C 31.554688 14.96875 31.578125 15 33.277344 15 C 34.988281 15 35 14.984375 35 12.734375 C 35 11.097656 35.226562 10.382812 35.816406 10.15625 C 37.214844 9.617188 38.238281 10.71875 38.402344 12.925781 C 38.546875 14.84375 38.667969 15 40 15 C 41.332031 15 41.453125 14.84375 41.597656 12.925781 C 41.761719 10.71875 42.785156 9.617188 44.183594 10.15625 C 44.773438 10.382812 45 11.097656 45 12.734375 C 45 14.984375 45.011719 15 46.722656 15 C 48.421875 15 48.445312 14.96875 48.597656 12.625 C 48.734375 10.464844 48.863281 10.25 50 10.25 C 51.136719 10.25 51.265625 10.464844 51.402344 12.625 C 51.554688 14.96875 51.578125 15 53.277344 15 C 54.988281 15 55 14.984375 55 12.734375 C 55 11.097656 55.226562 10.382812 55.816406 10.15625 C 57.214844 9.617188 58.238281 10.71875 58.402344 12.925781 C 58.546875 14.84375 58.667969 15 60 15 C 61.332031 15 61.453125 14.84375 61.597656 12.925781 C 61.761719 10.71875 62.785156 9.617188 64.183594 10.15625 C 64.773438 10.382812 65 11.097656 65 12.734375 C 65 14.984375 65.011719 15 66.722656 15 C 68.421875 15 68.445312 14.96875 68.597656 12.625 C 68.734375 10.464844 68.863281 10.25 70 10.25 C 71.136719 10.25 71.261719 10.464844 71.402344 12.652344 L 71.558594 15.050781 L 73.902344 14.902344 L 76.25 14.75 L 76.398438 11.035156 C 76.570312 6.785156 75.964844 4.871094 74.191406 4.066406 C 72.527344 3.304688 27.234375 3.332031 25.660156 4.09375 M 23.714844 19.164062 C 23.570312 19.535156 23.523438 21.613281 23.601562 23.78125 L 23.75 27.722656 L 26.25 28.679688 C 29.417969 29.894531 38.886719 30.394531 42.363281 29.53125 C 43.675781 29.207031 46.664062 28.0625 49 26.992188 C 51.335938 25.921875 54.589844 24.699219 56.230469 24.273438 C 61.511719 22.902344 70.753906 23.378906 75.648438 25.277344 C 76.46875 25.59375 76.535156 25.324219 76.398438 22.1875 L 76.25 18.75 L 50.109375 18.621094 C 28.566406 18.515625 23.925781 18.609375 23.714844 19.164062 M 60.75 26.8125 C 57.359375 27.28125 54.59375 28.164062 50.691406 30.027344 C 45.410156 32.550781 41.375 33.484375 35.730469 33.492188 C 31.789062 33.5 29.796875 33.179688 24.625 31.703125 C 23.5625 31.402344 23.5 31.527344 23.5 33.941406 L 23.5 36.5 L 76.542969 36.5 L 76.398438 32.875 L 76.25 29.25 L 73 28.171875 C 69.765625 27.097656 63.609375 26.414062 60.75 26.8125 M 23.5 60.75 L 23.5 81.5 L 76.5 81.5 L 76.5 40 L 23.5 40 L 23.5 60.75 M 44.664062 45.894531 C 32.910156 50.09375 29.589844 64.617188 38.375 73.402344 C 44.882812 79.910156 55.117188 79.910156 61.625 73.402344 C 69.945312 65.078125 67.335938 51.140625 56.5625 46.363281 C 53.304688 44.917969 47.984375 44.710938 44.664062 45.894531 M 46.5 48.824219 C 44.609375 49.441406 42 50.683594 42 50.964844 C 42 51.136719 43.460938 52.726562 45.25 54.5 L 48.5 57.722656 L 48.5 53.109375 C 48.5 48.40625 48.40625 48.203125 46.5 48.824219 M 51.5 53.070312 L 51.5 57.722656 L 54.75 54.5 C 56.539062 52.726562 58 51.144531 58 50.980469 C 58 50.546875 54.996094 49.1875 53.121094 48.777344 L 51.5 48.421875 L 51.5 53.070312 M 38.0625 55.96875 C 36.339844 59.96875 36.367188 60 41.359375 60 L 45.722656 60 L 42.5 56.75 C 40.726562 54.960938 39.242188 53.5 39.199219 53.5 C 39.15625 53.5 38.644531 54.609375 38.0625 55.96875 M 57.515625 56.726562 L 54.277344 60 L 58.640625 60 C 63.660156 60 63.75 59.886719 61.867188 55.851562 L 60.75 53.457031 L 57.515625 56.726562 M 37.011719 64.375 C 37.027344 65.546875 38.84375 69.5 39.367188 69.5 C 39.59375 69.5 41.117188 68.148438 42.75 66.5 L 45.71875 63.5 L 41.359375 63.5 C 37.535156 63.5 37 63.609375 37.011719 64.375 M 57.25 66.5 C 58.882812 68.148438 60.40625 69.5 60.632812 69.5 C 61.15625 69.5 62.972656 65.546875 62.988281 64.375 C 63 63.609375 62.464844 63.5 58.640625 63.5 L 54.28125 63.5 L 57.25 66.5 M 45.058594 69.1875 L 41.871094 72.40625 L 43.53125 73.265625 C 46.203125 74.648438 48.015625 75.042969 48.296875 74.304688 C 48.433594 73.949219 48.476562 71.929688 48.398438 69.8125 L 48.25 65.964844 L 45.058594 69.1875 M 51.605469 70.375 C 51.75 74.722656 51.757812 74.75 52.996094 74.574219 C 53.683594 74.476562 55.117188 73.949219 56.1875 73.402344 L 58.132812 72.410156 L 54.957031 69.207031 C 53.207031 67.441406 51.707031 66 51.621094 66 C 51.53125 66 51.527344 67.96875 51.605469 70.375 M 23.5 88.976562 C 23.5 93.460938 24.058594 95.140625 25.828125 95.945312 C 26.664062 96.324219 34.242188 96.5 50 96.5 C 65.757812 96.5 73.335938 96.324219 74.171875 95.945312 C 75.941406 95.140625 76.5 93.460938 76.5 88.976562 L 76.5 85 L 23.5 85 L 23.5 88.976562 "/>
</g>
</svg>
