<?xml version="1.0" encoding="UTF-8"?>
<svg xmlns="http://www.w3.org/2000/svg" xmlns:xlink="http://www.w3.org/1999/xlink" width="100px" height="100px" viewBox="0 0 100 100" version="1.1">
<g id="surface1">
<path style=" stroke:none;fill-rule:evenodd;fill:rgb(0%,0%,0%);fill-opacity:1;" d="M 22.914062 7.910156 C 19.769531 11.304688 17.066406 16.210938 15.429688 21.5 C 13.9375 26.320312 13.820312 35.472656 15.1875 40.453125 C 16.421875 44.945312 19.511719 50.859375 22.5 54.453125 C 24.691406 57.085938 25.265625 57.5 26.734375 57.5 C 30.667969 57.5 31.125 54.1875 27.722656 50.332031 C 20.144531 41.742188 18.648438 28.601562 24.035156 17.929688 C 24.832031 16.347656 26.503906 13.808594 27.742188 12.285156 C 30.21875 9.246094 30.636719 7.230469 29.085938 5.828125 C 27.359375 4.265625 25.804688 4.789062 22.914062 7.910156 M 70.765625 5.984375 C 69.320312 7.582031 69.691406 9.191406 72.230469 12.304688 C 74.992188 15.695312 77.078125 19.644531 78.265625 23.734375 C 79.300781 27.285156 79.433594 34.199219 78.542969 38 C 77.617188 41.941406 74.851562 47.367188 72.246094 50.34375 C 68.808594 54.273438 69.382812 57.742188 73.417969 57.402344 C 74.929688 57.273438 75.605469 56.773438 77.667969 54.25 C 80.421875 50.882812 84.042969 43.65625 85.0625 39.5 C 86.023438 35.570312 85.914062 26.492188 84.855469 22.5 C 82.808594 14.773438 76.207031 5 73.035156 5 C 72.277344 5 71.253906 5.441406 70.765625 5.984375 M 32.757812 16.625 C 31.757812 17.792969 30.222656 20.207031 29.34375 21.988281 C 27.820312 25.085938 27.75 25.492188 27.75 31.238281 C 27.75 36.941406 27.832031 37.421875 29.320312 40.5625 C 30.984375 44.074219 33.953125 47.757812 35.519531 48.257812 C 36.496094 48.566406 38.472656 47.765625 39.117188 46.800781 C 39.917969 45.597656 39.40625 43.898438 37.488281 41.386719 C 32.664062 35.066406 32.902344 26.527344 38.066406 20.609375 C 40.570312 17.738281 39.539062 14.5 36.125 14.5 C 34.921875 14.5 34.171875 14.976562 32.757812 16.625 M 61.328125 15.414062 C 60.035156 16.84375 60.332031 18.703125 62.21875 20.960938 C 67.113281 26.820312 67.203125 35.160156 62.441406 41.453125 C 60.585938 43.910156 60.089844 45.609375 60.882812 46.800781 C 61.527344 47.765625 63.503906 48.566406 64.480469 48.257812 C 66.046875 47.757812 69.015625 44.074219 70.679688 40.5625 C 72.167969 37.421875 72.25 36.9375 72.25 31.25 C 72.25 25.519531 72.179688 25.105469 70.65625 22 C 68.3125 17.214844 65.828125 14.5 63.789062 14.5 C 62.839844 14.5 61.808594 14.882812 61.328125 15.414062 M 47.738281 24.03125 C 46.90625 24.273438 45.457031 25.261719 44.519531 26.230469 C 43.0625 27.734375 42.785156 28.40625 42.613281 30.871094 C 42.445312 33.273438 42.605469 34.03125 43.582031 35.449219 C 46.773438 40.089844 53.226562 40.089844 56.417969 35.449219 C 57.394531 34.03125 57.554688 33.273438 57.386719 30.871094 C 57.214844 28.410156 56.9375 27.730469 55.488281 26.238281 C 54.558594 25.277344 52.996094 24.269531 52.023438 23.996094 C 49.988281 23.433594 49.785156 23.433594 47.738281 24.03125 M 46 47.875 C 46 48.082031 44.085938 58.59375 41.75 71.234375 C 39.414062 83.878906 37.5 94.398438 37.5 94.609375 C 37.5 94.824219 43.125 95 50 95 C 56.875 95 62.5 94.832031 62.5 94.625 C 62.5 94.417969 60.585938 83.90625 58.25 71.265625 C 55.914062 58.621094 54 48.101562 54 47.890625 C 54 47.675781 52.199219 47.5 50 47.5 C 47.800781 47.5 46 47.667969 46 47.875 "/>
</g>
</svg>
