<?xml version="1.0" encoding="UTF-8"?>
<svg xmlns="http://www.w3.org/2000/svg" xmlns:xlink="http://www.w3.org/1999/xlink" width="24px" height="24px" viewBox="0 0 24 24" version="1.1">
<g id="surface1">
<path style=" stroke:none;fill-rule:evenodd;fill:rgb(0%,0%,0%);fill-opacity:1;" d="M 5.5 1.898438 C 4.746094 2.714844 4.097656 3.890625 3.703125 5.160156 C 3.34375 6.316406 3.316406 8.511719 3.644531 9.707031 C 3.941406 10.789062 4.683594 12.207031 5.398438 13.070312 C 5.925781 13.699219 6.0625 13.800781 6.414062 13.800781 C 7.359375 13.800781 7.46875 13.003906 6.652344 12.078125 C 4.835938 10.019531 4.476562 6.863281 5.769531 4.304688 C 5.960938 3.921875 6.359375 3.3125 6.660156 2.949219 C 7.253906 2.21875 7.351562 1.734375 6.980469 1.398438 C 6.566406 1.023438 6.191406 1.148438 5.5 1.898438 M 16.984375 1.4375 C 16.636719 1.820312 16.726562 2.207031 17.335938 2.953125 C 18 3.765625 18.5 4.714844 18.785156 5.695312 C 19.03125 6.550781 19.0625 8.207031 18.851562 9.121094 C 18.628906 10.066406 17.964844 11.367188 17.339844 12.082031 C 16.515625 13.027344 16.652344 13.859375 17.621094 13.777344 C 17.984375 13.746094 18.144531 13.625 18.640625 13.019531 C 19.300781 12.210938 20.171875 10.476562 20.414062 9.480469 C 20.644531 8.535156 20.621094 6.359375 20.367188 5.398438 C 19.875 3.546875 18.289062 1.199219 17.527344 1.199219 C 17.347656 1.199219 17.101562 1.304688 16.984375 1.4375 M 7.863281 3.988281 C 7.621094 4.269531 7.253906 4.851562 7.042969 5.277344 C 6.675781 6.019531 6.660156 6.117188 6.660156 7.496094 C 6.660156 8.867188 6.679688 8.980469 7.035156 9.734375 C 7.4375 10.578125 8.148438 11.460938 8.523438 11.582031 C 8.757812 11.65625 9.234375 11.464844 9.386719 11.230469 C 9.582031 10.945312 9.457031 10.535156 8.996094 9.933594 C 7.839844 8.414062 7.898438 6.367188 9.136719 4.945312 C 9.738281 4.257812 9.488281 3.480469 8.667969 3.480469 C 8.382812 3.480469 8.199219 3.59375 7.863281 3.988281 M 14.71875 3.699219 C 14.40625 4.042969 14.480469 4.488281 14.933594 5.03125 C 16.105469 6.4375 16.128906 8.4375 14.984375 9.949219 C 14.539062 10.539062 14.421875 10.945312 14.613281 11.230469 C 14.765625 11.464844 15.242188 11.65625 15.476562 11.582031 C 15.851562 11.460938 16.5625 10.578125 16.964844 9.734375 C 17.320312 8.980469 17.339844 8.867188 17.339844 7.5 C 17.339844 6.125 17.324219 6.023438 16.957031 5.28125 C 16.394531 4.132812 15.796875 3.480469 15.308594 3.480469 C 15.082031 3.480469 14.832031 3.570312 14.71875 3.699219 M 11.457031 5.765625 C 11.257812 5.824219 10.910156 6.0625 10.683594 6.296875 C 10.335938 6.65625 10.269531 6.816406 10.226562 7.410156 C 10.1875 7.984375 10.226562 8.167969 10.460938 8.507812 C 11.226562 9.621094 12.773438 9.621094 13.539062 8.507812 C 13.773438 8.167969 13.8125 7.984375 13.773438 7.410156 C 13.730469 6.820312 13.664062 6.65625 13.316406 6.296875 C 13.09375 6.066406 12.71875 5.824219 12.484375 5.757812 C 11.996094 5.625 11.949219 5.625 11.457031 5.765625 M 11.039062 11.488281 C 11.039062 11.539062 10.582031 14.0625 10.019531 17.097656 C 9.460938 20.128906 9 22.65625 9 22.707031 C 9 22.757812 10.351562 22.800781 12 22.800781 C 13.648438 22.800781 15 22.757812 15 22.710938 C 15 22.660156 14.539062 20.136719 13.980469 17.101562 C 13.417969 14.070312 12.960938 11.542969 12.960938 11.492188 C 12.960938 11.441406 12.527344 11.398438 12 11.398438 C 11.472656 11.398438 11.039062 11.441406 11.039062 11.488281 "/>
</g>
</svg>
