<?xml version="1.0" encoding="UTF-8"?>
<svg xmlns="http://www.w3.org/2000/svg" xmlns:xlink="http://www.w3.org/1999/xlink" width="24px" height="24px" viewBox="0 0 24 24" version="1.1">
<g id="surface1">
<path style=" stroke:none;fill-rule:evenodd;fill:rgb(0%,0%,0%);fill-opacity:1;" d="M 11.449219 1.691406 C 11.242188 1.75 10.820312 2.070312 10.511719 2.402344 C 7.96875 5.117188 6.925781 13.789062 8.300781 20.789062 C 8.570312 22.167969 8.761719 22.597656 9.003906 22.359375 C 9.113281 22.253906 9.085938 21.972656 8.898438 21.160156 C 8.621094 19.96875 8.359375 18.125 8.421875 17.804688 C 8.441406 17.6875 8.800781 18.65625 9.210938 19.953125 C 9.625 21.25 10.023438 22.34375 10.09375 22.386719 C 10.164062 22.429688 10.28125 22.40625 10.351562 22.335938 C 10.449219 22.238281 10.167969 21.230469 9.324219 18.621094 C 8.367188 15.679688 8.160156 14.90625 8.160156 14.300781 C 8.160156 13.246094 8.410156 9.925781 8.503906 9.757812 C 8.546875 9.683594 9.496094 12.453125 10.617188 15.914062 C 11.734375 19.378906 12.714844 22.265625 12.789062 22.328125 C 12.878906 22.402344 12.96875 22.390625 13.050781 22.292969 C 13.136719 22.183594 12.535156 20.1875 10.960938 15.359375 C 8.867188 8.929688 8.757812 8.542969 8.816406 7.871094 C 8.878906 7.15625 8.941406 6.980469 9.070312 7.109375 C 9.109375 7.148438 10.234375 10.5625 11.574219 14.699219 C 12.914062 18.835938 14.070312 22.28125 14.144531 22.355469 C 14.246094 22.453125 14.316406 22.453125 14.414062 22.355469 C 14.511719 22.257812 13.902344 20.234375 12.132812 14.769531 C 10.804688 10.667969 9.71875 7.261719 9.71875 7.199219 C 9.71875 7.128906 10.160156 7.078125 10.769531 7.078125 L 11.820312 7.078125 L 13.65625 12.75 C 14.664062 15.867188 15.488281 18.585938 15.484375 18.789062 C 15.480469 19.238281 15.296875 20.308594 15.042969 21.398438 C 14.894531 22.03125 14.882812 22.25 14.992188 22.359375 C 15.238281 22.597656 15.425781 22.175781 15.699219 20.789062 C 16.632812 16.042969 16.472656 10.132812 15.300781 6.058594 C 14.640625 3.761719 13.511719 2.003906 12.496094 1.699219 C 11.972656 1.542969 11.957031 1.542969 11.449219 1.691406 M 11.191406 2.410156 C 10.535156 2.832031 9.476562 4.835938 9.183594 6.210938 L 9.101562 6.601562 L 14.898438 6.601562 L 14.816406 6.210938 C 14.667969 5.503906 14.050781 4.03125 13.617188 3.335938 C 12.914062 2.210938 12.03125 1.875 11.191406 2.410156 M 12.390625 7.230469 C 12.421875 7.3125 13.082031 9.324219 13.851562 11.699219 C 14.625 14.074219 15.34375 16.289062 15.457031 16.621094 L 15.65625 17.21875 L 15.734375 16.261719 L 15.8125 15.300781 L 14.679688 11.761719 C 14.054688 9.8125 13.464844 7.964844 13.363281 7.648438 C 13.191406 7.113281 13.15625 7.078125 12.757812 7.078125 C 12.46875 7.078125 12.351562 7.128906 12.390625 7.230469 M 14.6875 10.105469 C 15.230469 11.773438 15.707031 13.222656 15.746094 13.320312 C 15.945312 13.84375 15.46875 8.988281 15.203125 7.800781 L 15.054688 7.140625 L 13.703125 7.070312 L 14.6875 10.105469 "/>
</g>
</svg>
