<?xml version="1.0" encoding="UTF-8"?>
<svg xmlns="http://www.w3.org/2000/svg" xmlns:xlink="http://www.w3.org/1999/xlink" width="100px" height="100px" viewBox="0 0 100 100" version="1.1">
<g id="surface1">
<path style=" stroke:none;fill-rule:evenodd;fill:rgb(0%,0%,0%);fill-opacity:1;" d="M 47.699219 7.039062 C 46.84375 7.289062 45.089844 8.621094 43.796875 10.003906 C 33.207031 21.324219 28.863281 57.460938 34.585938 86.625 C 35.714844 92.371094 36.515625 94.160156 37.519531 93.171875 C 37.96875 92.730469 37.863281 91.550781 37.078125 88.171875 C 35.921875 83.203125 34.828125 75.515625 35.082031 74.1875 C 35.175781 73.703125 36.664062 77.730469 38.386719 83.132812 C 40.109375 88.535156 41.761719 93.101562 42.054688 93.285156 C 42.347656 93.464844 42.835938 93.363281 43.136719 93.0625 C 43.539062 92.660156 42.375 88.457031 38.84375 77.585938 C 34.863281 65.324219 34 62.117188 34 59.59375 C 34 55.199219 35.042969 41.359375 35.425781 40.664062 C 35.605469 40.339844 39.566406 51.882812 44.234375 66.316406 C 48.898438 80.75 52.976562 92.773438 53.292969 93.035156 C 53.667969 93.347656 54.042969 93.292969 54.375 92.882812 C 54.738281 92.433594 52.230469 84.113281 45.675781 64 C 36.949219 37.214844 36.484375 35.597656 36.738281 32.789062 C 37.003906 29.820312 37.25 29.082031 37.792969 29.625 C 37.953125 29.785156 42.648438 44.015625 48.230469 61.25 C 53.8125 78.480469 58.632812 92.832031 58.941406 93.140625 C 59.351562 93.550781 59.648438 93.550781 60.054688 93.144531 C 60.464844 92.738281 57.933594 84.316406 50.554688 61.535156 C 45.023438 44.457031 40.5 30.261719 40.5 29.992188 C 40.5 29.707031 42.339844 29.5 44.875 29.5 L 49.253906 29.5 L 56.898438 53.125 C 61.101562 66.117188 64.535156 77.441406 64.523438 78.28125 C 64.496094 80.167969 63.738281 84.625 62.675781 89.160156 C 62.054688 91.804688 62.007812 92.707031 62.46875 93.160156 C 63.484375 94.164062 64.28125 92.394531 65.414062 86.625 C 69.296875 66.847656 68.632812 42.222656 63.757812 25.25 C 61.007812 15.667969 56.300781 8.347656 52.074219 7.082031 C 49.878906 6.425781 49.824219 6.421875 47.699219 7.039062 M 46.636719 10.050781 C 43.894531 11.804688 39.480469 20.152344 38.265625 25.875 L 37.921875 27.5 L 62.078125 27.5 L 61.734375 25.875 C 61.109375 22.925781 58.550781 16.796875 56.738281 13.902344 C 53.808594 9.21875 50.128906 7.8125 46.636719 10.050781 M 51.632812 30.125 C 51.765625 30.46875 54.503906 38.851562 57.71875 48.75 C 60.929688 58.648438 63.9375 67.875 64.398438 69.25 L 65.238281 71.75 L 65.566406 67.75 L 65.890625 63.75 L 61.167969 49 C 58.566406 40.886719 56.097656 33.179688 55.679688 31.875 C 54.960938 29.632812 54.820312 29.5 53.15625 29.5 C 51.949219 29.5 51.46875 29.699219 51.632812 30.125 M 61.207031 42.101562 C 63.464844 49.058594 65.445312 55.085938 65.601562 55.5 C 66.4375 57.679688 64.449219 37.445312 63.34375 32.5 L 62.730469 29.75 L 59.914062 29.601562 L 57.09375 29.453125 L 61.207031 42.101562 "/>
</g>
</svg>
