<?xml version="1.0" encoding="UTF-8"?>
<svg xmlns="http://www.w3.org/2000/svg" xmlns:xlink="http://www.w3.org/1999/xlink" width="100px" height="100px" viewBox="0 0 100 100" version="1.1">
<g id="surface1">
<path style=" stroke:none;fill-rule:evenodd;fill:rgb(0%,0%,0%);fill-opacity:1;" d="M 29.0625 35.1875 C 17.683594 46.566406 8.460938 56.109375 8.5625 56.394531 C 8.921875 57.386719 15.996094 62.953125 19.484375 64.988281 C 37.074219 75.261719 59.054688 75.980469 77.25 66.875 C 82.8125 64.089844 91.3125 58.011719 91.9375 56.371094 C 92.152344 55.808594 51.023438 14.5 50.25 14.5 C 49.972656 14.5 40.4375 23.808594 29.0625 35.1875 M 25.011719 50.816406 C 23.050781 52.464844 23.101562 54.175781 25.117188 54.40625 C 26.253906 54.539062 26.625 54.273438 27.3125 52.828125 C 28.125 51.125 28 49.5 27.054688 49.5 C 26.792969 49.5 25.871094 50.09375 25.011719 50.816406 M 72.703125 50.191406 C 72.558594 50.570312 72.785156 51.710938 73.207031 52.726562 C 73.867188 54.300781 74.179688 54.546875 75.363281 54.410156 C 77.398438 54.175781 77.457031 52.472656 75.488281 50.816406 C 73.722656 49.332031 73.089844 49.191406 72.703125 50.191406 M 32.511719 55.347656 C 31.222656 56.984375 31.332031 59.164062 32.71875 59.425781 C 34.039062 59.675781 35 58.195312 35 55.90625 C 35 53.597656 34.054688 53.386719 32.511719 55.347656 M 65.5 55.90625 C 65.5 58.195312 66.460938 59.675781 67.78125 59.425781 C 69.167969 59.164062 69.277344 56.984375 67.988281 55.347656 C 66.445312 53.386719 65.5 53.597656 65.5 55.90625 M 41.066406 57.78125 C 39.777344 59.417969 39.660156 61.761719 40.839844 62.214844 C 42.101562 62.699219 43.207031 61.261719 43.148438 59.207031 C 43.074219 56.644531 42.351562 56.148438 41.066406 57.78125 M 57.800781 56.867188 C 57.210938 57.457031 57.511719 61.386719 58.1875 61.949219 C 59.1875 62.777344 60.5 62.078125 60.5 60.71875 C 60.5 58.457031 58.730469 55.933594 57.800781 56.867188 M 49.050781 59.074219 C 48.316406 61.175781 48.355469 61.785156 49.285156 62.714844 C 50.253906 63.683594 52 62.941406 52 61.558594 C 52 59.984375 50.929688 57.5 50.25 57.5 C 49.890625 57.5 49.351562 58.207031 49.050781 59.074219 M 4.351562 59.894531 C 3.332031 60.9375 2.5 62.050781 2.5 62.363281 C 2.5 63.199219 8.605469 68.253906 13.378906 71.371094 C 24.503906 78.636719 36.542969 82.160156 50.25 82.160156 C 64.527344 82.160156 76.402344 78.546875 88.28125 70.589844 C 90.738281 68.941406 94.0625 66.390625 95.664062 64.921875 L 98.578125 62.25 L 94.0625 57.851562 L 91.40625 60.238281 C 70.621094 78.929688 39.441406 81.132812 16 65.570312 C 13.9375 64.199219 10.976562 61.9375 9.421875 60.539062 C 7.863281 59.144531 6.503906 58 6.398438 58 C 6.289062 58 5.371094 58.851562 4.351562 59.894531 "/>
</g>
</svg>
