<?xml version="1.0" encoding="UTF-8"?>
<svg xmlns="http://www.w3.org/2000/svg" xmlns:xlink="http://www.w3.org/1999/xlink" width="24px" height="24px" viewBox="0 0 24 24" version="1.1">
<g id="surface1">
<path style=" stroke:none;fill-rule:evenodd;fill:rgb(0%,0%,0%);fill-opacity:1;" d="M 13.929688 0.558594 C 13.351562 1.214844 12.65625 2.550781 12.542969 3.222656 C 12.453125 3.75 12.535156 3.714844 10.921875 3.910156 C 9.871094 4.035156 8.359375 4.515625 7.214844 5.09375 C 5.207031 6.101562 3.617188 7.636719 2.710938 9.441406 C 2.132812 10.59375 1.925781 11.566406 1.921875 13.109375 L 1.921875 14.398438 L 1.03125 14.398438 C 0.335938 14.398438 0.128906 14.441406 0.0742188 14.589844 C -0.0664062 14.949219 0 15.804688 0.238281 16.726562 C 0.703125 18.550781 1.878906 20.277344 3.488281 21.5 C 4.71875 22.429688 5.492188 22.839844 6.960938 23.328125 C 11.535156 24.847656 16.773438 23.675781 19.789062 20.453125 C 20.179688 20.035156 20.59375 19.535156 20.710938 19.335938 C 20.828125 19.136719 21.039062 18.945312 21.179688 18.910156 C 21.75 18.765625 23.191406 16.617188 23.648438 15.222656 C 23.898438 14.46875 23.9375 14.121094 23.929688 12.839844 C 23.921875 11.542969 23.878906 11.21875 23.609375 10.460938 C 23.175781 9.242188 22.640625 8.386719 21.660156 7.34375 C 19.660156 5.214844 17.722656 4.316406 13.949219 3.765625 C 13.640625 3.722656 13.558594 3.652344 13.558594 3.433594 C 13.558594 3.039062 14.191406 1.839844 14.75 1.164062 C 15.21875 0.601562 15.269531 0.3125 14.949219 0.09375 C 14.667969 -0.0976562 14.398438 0.0234375 13.929688 0.558594 M 11.675781 4.972656 C 9.835938 5.546875 8.117188 7.648438 7.496094 10.078125 C 6.855469 12.585938 7.207031 15.789062 8.34375 17.820312 C 9.101562 19.167969 9.140625 19.195312 10.453125 19.28125 C 11.085938 19.320312 11.800781 19.316406 12.042969 19.269531 L 12.480469 19.1875 L 12.480469 11.996094 C 12.480469 6.316406 12.449219 4.800781 12.328125 4.808594 C 12.246094 4.8125 11.953125 4.886719 11.675781 4.972656 M 13.441406 11.878906 L 13.441406 18.976562 L 13.710938 18.890625 C 14.242188 18.726562 15.191406 18.203125 15.800781 17.738281 C 16.566406 17.152344 17.226562 16.214844 17.570312 15.21875 C 17.8125 14.511719 17.859375 14.457031 18.246094 14.398438 L 18.660156 14.339844 L 18.695312 13.261719 C 18.792969 10.484375 17.929688 7.972656 16.320312 6.359375 C 15.550781 5.585938 14.636719 5.035156 13.828125 4.863281 L 13.441406 4.78125 L 13.441406 11.878906 M 7.597656 6.042969 C 5.648438 7.066406 4.40625 8.296875 3.578125 10.019531 C 3.019531 11.191406 2.777344 12.5625 2.949219 13.632812 L 3.058594 14.339844 L 3.597656 14.378906 C 4.195312 14.421875 4.441406 14.566406 4.441406 14.878906 C 4.441406 15.375 5.300781 16.792969 5.984375 17.421875 C 6.753906 18.125 7.53125 18.632812 7.40625 18.347656 C 6.375 15.957031 6.179688 15.085938 6.179688 12.898438 C 6.179688 11.039062 6.375 9.9375 6.957031 8.527344 C 7.351562 7.574219 8.027344 6.464844 8.554688 5.910156 C 9.0625 5.378906 8.792969 5.414062 7.597656 6.042969 M 17.644531 6.304688 C 17.976562 6.742188 18.402344 7.410156 18.589844 7.78125 C 19.394531 9.375 19.90625 11.929688 19.753906 13.566406 L 19.679688 14.390625 L 20.847656 14.425781 L 22.019531 14.460938 L 22.019531 15.394531 C 22.019531 16.523438 22.164062 16.421875 22.628906 14.949219 C 22.96875 13.875 23.035156 12.355469 22.792969 11.328125 C 22.296875 9.253906 20.457031 7.113281 18.179688 5.972656 C 17.023438 5.390625 16.972656 5.421875 17.644531 6.304688 M 1.082031 15.75 C 1.085938 15.964844 1.207031 16.492188 1.355469 16.925781 C 2.34375 19.824219 5.183594 22.0625 8.761719 22.753906 C 9.914062 22.980469 12.164062 22.980469 13.320312 22.757812 C 17.339844 21.980469 20.476562 19.222656 20.980469 16.019531 L 21.082031 15.359375 L 18.660156 15.367188 L 18.210938 16.316406 C 17.371094 18.09375 15.589844 19.464844 13.355469 20.054688 C 12.152344 20.371094 10.136719 20.398438 8.941406 20.113281 C 6.453125 19.515625 4.402344 17.816406 3.609375 15.691406 C 3.484375 15.359375 3.484375 15.359375 2.28125 15.359375 L 1.078125 15.359375 L 1.082031 15.75 "/>
</g>
</svg>
