<?xml version="1.0" encoding="UTF-8"?>
<svg xmlns="http://www.w3.org/2000/svg" xmlns:xlink="http://www.w3.org/1999/xlink" width="100px" height="100px" viewBox="0 0 100 100" version="1.1">
<g id="surface1">
<path style=" stroke:none;fill-rule:evenodd;fill:rgb(0%,0%,0%);fill-opacity:1;" d="M 58.039062 2.320312 C 55.628906 5.066406 52.738281 10.621094 52.261719 13.429688 C 51.890625 15.621094 52.222656 15.484375 45.5 16.289062 C 41.125 16.8125 34.835938 18.820312 30.058594 21.21875 C 21.691406 25.421875 15.070312 31.816406 11.292969 39.347656 C 8.890625 44.132812 8.015625 48.199219 8.007812 54.625 L 8 60 L 4.304688 60 C 1.394531 60 0.542969 60.167969 0.304688 60.789062 C -0.269531 62.289062 0.00390625 65.847656 0.984375 69.695312 C 2.929688 77.304688 7.828125 84.484375 14.535156 89.574219 C 19.65625 93.460938 22.878906 95.160156 29 97.195312 C 48.066406 103.539062 69.890625 98.648438 82.457031 85.21875 C 84.078125 83.484375 85.804688 81.390625 86.292969 80.5625 C 86.777344 79.738281 87.664062 78.941406 88.253906 78.792969 C 90.628906 78.199219 96.625 69.238281 98.539062 63.425781 C 99.570312 60.289062 99.742188 58.832031 99.710938 53.5 C 99.679688 48.101562 99.496094 46.75 98.371094 43.582031 C 96.570312 38.503906 94.34375 34.941406 90.253906 30.59375 C 81.910156 21.726562 73.851562 17.988281 58.125 15.691406 C 56.832031 15.503906 56.5 15.21875 56.5 14.308594 C 56.5 12.667969 59.125 7.660156 61.457031 4.851562 C 63.402344 2.507812 63.628906 1.300781 62.285156 0.382812 C 61.121094 -0.414062 60 0.0976562 58.039062 2.320312 M 48.644531 20.726562 C 40.984375 23.117188 33.828125 31.867188 31.234375 42 C 28.566406 52.4375 30.03125 65.789062 34.773438 74.25 C 37.925781 79.871094 38.082031 79.980469 43.546875 80.332031 C 46.183594 80.5 49.167969 80.484375 50.171875 80.296875 L 52 79.953125 L 52 49.976562 C 52 26.3125 51.867188 20.007812 51.375 20.035156 C 51.03125 20.050781 49.800781 20.363281 48.644531 20.726562 M 56 49.492188 L 56 79.066406 L 57.125 78.71875 C 59.347656 78.03125 63.296875 75.851562 65.835938 73.914062 C 69.03125 71.472656 71.777344 67.558594 73.203125 63.410156 C 74.21875 60.460938 74.40625 60.234375 76.019531 60 L 77.75 59.75 L 77.90625 55.25 C 78.304688 43.679688 74.703125 33.226562 68 26.488281 C 64.792969 23.265625 60.992188 20.988281 57.625 20.265625 L 56 19.921875 L 56 49.492188 M 31.65625 25.179688 C 23.539062 29.441406 18.359375 34.570312 14.914062 41.75 C 12.574219 46.632812 11.578125 52.339844 12.285156 56.804688 L 12.75 59.75 L 14.988281 59.910156 C 17.484375 60.085938 18.5 60.691406 18.5 61.992188 C 18.5 64.070312 22.085938 69.972656 24.933594 72.585938 C 28.140625 75.523438 31.371094 77.632812 30.863281 76.453125 C 26.566406 66.488281 25.75 62.867188 25.75 53.75 C 25.75 45.992188 26.566406 41.40625 28.988281 35.527344 C 30.625 31.558594 33.445312 26.941406 35.652344 24.625 C 37.757812 22.410156 36.632812 22.566406 31.65625 25.179688 M 73.511719 26.265625 C 74.902344 28.101562 76.675781 30.871094 77.460938 32.425781 C 80.804688 39.066406 82.949219 49.707031 82.316406 56.527344 L 81.996094 59.964844 L 86.871094 60.105469 L 91.75 60.25 L 91.75 64.136719 C 91.75 68.855469 92.351562 68.417969 94.285156 62.292969 C 95.699219 57.820312 95.988281 51.472656 94.96875 47.203125 C 92.910156 38.550781 85.238281 29.644531 75.75 24.882812 C 70.921875 22.460938 70.726562 22.585938 73.511719 26.265625 M 4.511719 65.625 C 4.519531 66.519531 5.027344 68.726562 5.644531 70.527344 C 9.761719 82.605469 21.601562 91.925781 36.5 94.816406 C 41.304688 95.746094 50.683594 95.75 55.5 94.820312 C 72.257812 91.582031 85.324219 80.089844 87.417969 66.75 L 87.847656 64 L 82.800781 64.011719 L 77.75 64.027344 L 75.878906 67.984375 C 72.371094 75.390625 64.960938 81.097656 55.644531 83.5625 C 50.628906 84.886719 42.242188 84.996094 37.25 83.800781 C 26.882812 81.316406 18.347656 74.234375 15.039062 65.375 C 14.523438 64 14.523438 64 9.511719 64 L 4.5 64 L 4.511719 65.625 "/>
</g>
</svg>
