<?xml version="1.0" encoding="UTF-8"?>
<svg xmlns="http://www.w3.org/2000/svg" xmlns:xlink="http://www.w3.org/1999/xlink" width="24px" height="24px" viewBox="0 0 24 24" version="1.1">
<g id="surface1">
<path style=" stroke:none;fill-rule:evenodd;fill:rgb(0%,0%,0%);fill-opacity:1;" d="M 6.976562 8.445312 C 4.246094 11.175781 2.03125 13.464844 2.054688 13.535156 C 2.140625 13.773438 3.839844 15.109375 4.675781 15.597656 C 8.898438 18.0625 14.171875 18.234375 18.539062 16.050781 C 19.875 15.382812 21.914062 13.921875 22.066406 13.527344 C 22.117188 13.394531 12.246094 3.480469 12.058594 3.480469 C 11.992188 3.480469 9.703125 5.714844 6.976562 8.445312 M 6.003906 12.195312 C 5.53125 12.589844 5.542969 13.003906 6.027344 13.058594 C 6.300781 13.089844 6.390625 13.023438 6.554688 12.679688 C 6.75 12.269531 6.71875 11.878906 6.492188 11.878906 C 6.429688 11.878906 6.210938 12.023438 6.003906 12.195312 M 17.449219 12.046875 C 17.414062 12.136719 17.46875 12.410156 17.570312 12.652344 C 17.726562 13.03125 17.804688 13.089844 18.085938 13.058594 C 18.574219 13.003906 18.589844 12.59375 18.117188 12.195312 C 17.695312 11.839844 17.542969 11.804688 17.449219 12.046875 M 7.804688 13.285156 C 7.492188 13.675781 7.519531 14.199219 7.851562 14.261719 C 8.167969 14.320312 8.398438 13.964844 8.398438 13.417969 C 8.398438 12.863281 8.171875 12.8125 7.804688 13.285156 M 15.71875 13.417969 C 15.71875 13.964844 15.949219 14.320312 16.269531 14.261719 C 16.601562 14.199219 16.625 13.675781 16.316406 13.285156 C 15.945312 12.8125 15.71875 12.863281 15.71875 13.417969 M 9.855469 13.867188 C 9.546875 14.261719 9.519531 14.824219 9.800781 14.929688 C 10.105469 15.046875 10.371094 14.703125 10.355469 14.210938 C 10.335938 13.59375 10.164062 13.476562 9.855469 13.867188 M 13.871094 13.648438 C 13.730469 13.789062 13.800781 14.734375 13.964844 14.867188 C 14.203125 15.066406 14.519531 14.898438 14.519531 14.574219 C 14.519531 14.03125 14.09375 13.425781 13.871094 13.648438 M 11.773438 14.179688 C 11.597656 14.683594 11.605469 14.828125 11.828125 15.050781 C 12.0625 15.285156 12.480469 15.105469 12.480469 14.773438 C 12.480469 14.394531 12.222656 13.800781 12.058594 13.800781 C 11.972656 13.800781 11.84375 13.96875 11.773438 14.179688 M 1.042969 14.375 C 0.800781 14.625 0.601562 14.890625 0.601562 14.96875 C 0.601562 15.167969 2.066406 16.382812 3.210938 17.128906 C 5.878906 18.871094 8.769531 19.71875 12.058594 19.71875 C 15.488281 19.71875 18.335938 18.851562 21.1875 16.941406 C 21.777344 16.546875 22.574219 15.933594 22.960938 15.582031 L 23.660156 14.941406 L 23.117188 14.414062 L 22.574219 13.882812 L 21.9375 14.457031 C 16.949219 18.941406 9.464844 19.472656 3.839844 15.738281 C 3.34375 15.40625 2.632812 14.863281 2.261719 14.53125 C 1.886719 14.195312 1.5625 13.921875 1.535156 13.921875 C 1.507812 13.921875 1.289062 14.125 1.042969 14.375 "/>
</g>
</svg>
