<?xml version="1.0" encoding="UTF-8"?>
<svg xmlns="http://www.w3.org/2000/svg" xmlns:xlink="http://www.w3.org/1999/xlink" width="24px" height="24px" viewBox="0 0 24 24" version="1.1">
<g id="surface1">
<path style=" stroke:none;fill-rule:evenodd;fill:rgb(0%,0%,0%);fill-opacity:1;" d="M 10.824219 1.222656 C 10.636719 1.410156 10.636719 2.070312 10.824219 2.257812 C 11.027344 2.460938 11.589844 2.433594 11.8125 2.210938 C 12.054688 1.96875 12.054688 1.511719 11.8125 1.269531 C 11.589844 1.046875 11.027344 1.019531 10.824219 1.222656 M 8.992188 3.128906 C 8.675781 3.445312 8.734375 3.8125 9.148438 4.117188 C 9.417969 4.320312 9.523438 4.339844 9.773438 4.226562 C 10.167969 4.046875 10.285156 3.566406 10.03125 3.179688 C 9.789062 2.808594 9.332031 2.785156 8.992188 3.128906 M 10.867188 3.070312 C 10.566406 3.371094 10.628906 3.921875 10.992188 4.160156 C 11.273438 4.34375 11.339844 4.347656 11.625 4.1875 C 11.824219 4.078125 11.953125 3.890625 11.980469 3.675781 C 12.054688 3.03125 11.308594 2.625 10.867188 3.070312 M 12.679688 3.097656 C 12.382812 3.425781 12.425781 3.917969 12.773438 4.148438 C 13.128906 4.378906 13.496094 4.289062 13.746094 3.90625 C 14.191406 3.230469 13.222656 2.496094 12.679688 3.097656 M 9.019531 4.957031 C 8.878906 5.109375 8.761719 5.328125 8.761719 5.4375 C 8.761719 5.714844 9.1875 6.121094 9.480469 6.121094 C 9.613281 6.121094 9.828125 6.011719 9.960938 5.878906 C 10.09375 5.746094 10.199219 5.53125 10.199219 5.398438 C 10.199219 5.101562 9.792969 4.679688 9.5 4.679688 C 9.378906 4.679688 9.164062 4.804688 9.019531 4.957031 M 10.945312 4.867188 C 10.4375 5.222656 10.730469 6.121094 11.359375 6.121094 C 11.953125 6.121094 12.222656 5.210938 11.734375 4.867188 C 11.585938 4.765625 11.410156 4.679688 11.339844 4.679688 C 11.269531 4.679688 11.09375 4.765625 10.945312 4.867188 M 12.746094 4.867188 C 12.242188 5.222656 12.53125 6.125 13.148438 6.117188 C 13.894531 6.113281 14.109375 5.15625 13.445312 4.804688 C 13.140625 4.640625 13.0625 4.648438 12.746094 4.867188 M 8.921875 6.914062 C 8.734375 7.195312 8.734375 7.261719 8.890625 7.542969 C 9.222656 8.140625 10.199219 7.929688 10.199219 7.261719 C 10.199219 6.613281 9.277344 6.367188 8.921875 6.914062 M 10.824219 6.742188 C 10.636719 6.929688 10.636719 7.589844 10.824219 7.777344 C 11.027344 7.980469 11.589844 7.953125 11.8125 7.730469 C 12.027344 7.515625 12.054688 7.164062 11.875 6.832031 C 11.734375 6.566406 11.058594 6.507812 10.824219 6.742188 M 12.667969 6.789062 C 12.425781 7.03125 12.425781 7.492188 12.675781 7.738281 C 12.96875 8.035156 13.574219 7.929688 13.789062 7.542969 C 13.945312 7.261719 13.945312 7.195312 13.761719 6.914062 C 13.523438 6.550781 12.96875 6.488281 12.667969 6.789062 M 6.386719 8.25 C 7.335938 10.113281 7.789062 11.496094 8.105469 13.503906 C 8.273438 14.589844 8.296875 15.222656 8.226562 17.101562 C 8.179688 18.355469 8.144531 19.617188 8.152344 19.910156 C 8.183594 21.269531 9.398438 22.578125 10.804688 22.769531 C 11.226562 22.824219 11.28125 22.796875 11.574219 22.351562 C 12.691406 20.660156 12.875 17.824219 12.058594 14.773438 C 11.253906 11.773438 9.652344 9.332031 7.925781 8.480469 C 7.328125 8.1875 6.273438 8.027344 6.386719 8.25 M 8.710938 8.738281 C 9.875 9.582031 10.964844 11.164062 11.707031 13.078125 C 12.386719 14.835938 12.609375 15.945312 12.683594 17.882812 C 12.742188 19.40625 12.71875 19.753906 12.492188 20.644531 C 12.351562 21.203125 12.078125 21.917969 11.882812 22.230469 C 11.535156 22.789062 11.535156 22.800781 11.792969 22.796875 C 12.21875 22.796875 13.226562 22.265625 13.644531 21.824219 C 14.273438 21.160156 14.515625 20.480469 14.515625 19.359375 C 14.523438 16.691406 13.625 13.398438 12.351562 11.449219 C 11.65625 10.382812 10.460938 9.296875 9.433594 8.804688 C 8.402344 8.3125 8.082031 8.28125 8.710938 8.738281 M 10.867188 8.589844 C 10.609375 8.847656 10.621094 8.898438 11.105469 9.363281 C 11.445312 9.695312 11.566406 9.75 11.734375 9.644531 C 11.847656 9.574219 11.957031 9.367188 11.980469 9.1875 C 12.054688 8.554688 11.308594 8.148438 10.867188 8.589844 M 12.679688 8.621094 C 12.410156 8.914062 12.429688 9.308594 12.71875 9.601562 C 13.039062 9.917969 13.269531 9.902344 13.632812 9.539062 C 13.851562 9.316406 13.914062 9.164062 13.855469 8.96875 C 13.6875 8.40625 13.042969 8.214844 12.679688 8.621094 M 12.707031 10.425781 L 12.425781 10.652344 L 12.664062 11.097656 C 12.949219 11.632812 13.015625 11.683594 13.367188 11.59375 C 13.953125 11.445312 14.007812 10.621094 13.445312 10.324219 C 13.128906 10.152344 13.027344 10.167969 12.707031 10.425781 M 16.167969 11.933594 C 15.597656 12.082031 14.503906 12.753906 14.097656 13.203125 C 13.894531 13.429688 13.894531 13.476562 14.152344 14.339844 C 14.300781 14.835938 14.515625 15.714844 14.628906 16.292969 L 14.835938 17.339844 L 14.921875 16.53125 C 15.144531 14.402344 16.140625 12.773438 17.539062 12.257812 C 17.800781 12.160156 17.804688 12.152344 17.574219 12.035156 C 17.140625 11.808594 16.742188 11.78125 16.167969 11.933594 M 13.324219 12.210938 C 13.328125 12.257812 13.425781 12.484375 13.546875 12.707031 C 13.726562 13.046875 13.777344 13.078125 13.84375 12.898438 C 13.929688 12.675781 13.640625 12.121094 13.4375 12.121094 C 13.371094 12.121094 13.324219 12.160156 13.324219 12.210938 "/>
</g>
</svg>
