<?xml version="1.0" encoding="UTF-8"?>
<svg xmlns="http://www.w3.org/2000/svg" xmlns:xlink="http://www.w3.org/1999/xlink" width="100px" height="100px" viewBox="0 0 100 100" version="1.1">
<g id="surface1">
<path style=" stroke:none;fill-rule:evenodd;fill:rgb(0%,0%,0%);fill-opacity:1;" d="M 45.101562 5.101562 C 44.324219 5.875 44.324219 8.625 45.101562 9.398438 C 45.949219 10.25 48.285156 10.144531 49.214844 9.214844 C 50.222656 8.207031 50.222656 6.292969 49.214844 5.285156 C 48.285156 4.355469 45.949219 4.25 45.101562 5.101562 M 37.46875 13.03125 C 36.148438 14.351562 36.386719 15.878906 38.109375 17.160156 C 39.246094 18.007812 39.679688 18.078125 40.722656 17.605469 C 42.363281 16.855469 42.851562 14.863281 41.792969 13.246094 C 40.785156 11.707031 38.886719 11.613281 37.46875 13.03125 M 45.285156 12.785156 C 44.027344 14.042969 44.292969 16.339844 45.808594 17.332031 C 46.980469 18.101562 47.253906 18.113281 48.433594 17.453125 C 49.269531 16.988281 49.808594 16.207031 49.914062 15.316406 C 50.222656 12.636719 47.125 10.945312 45.285156 12.785156 M 52.828125 12.914062 C 51.59375 14.28125 51.78125 16.332031 53.226562 17.28125 C 54.703125 18.246094 56.234375 17.871094 57.277344 16.28125 C 59.125 13.457031 55.09375 10.410156 52.828125 12.914062 M 37.585938 20.65625 C 36.988281 21.292969 36.5 22.195312 36.5 22.65625 C 36.5 23.8125 38.28125 25.5 39.5 25.5 C 40.050781 25.5 40.949219 25.050781 41.5 24.5 C 42.050781 23.949219 42.5 23.050781 42.5 22.5 C 42.5 21.25 40.800781 19.5 39.585938 19.5 C 39.085938 19.5 38.183594 20.019531 37.585938 20.65625 M 45.613281 20.277344 C 43.484375 21.769531 44.714844 25.5 47.335938 25.5 C 49.800781 25.5 50.929688 21.707031 48.886719 20.277344 C 48.277344 19.851562 47.539062 19.5 47.25 19.5 C 46.960938 19.5 46.222656 19.851562 45.613281 20.277344 M 53.113281 20.277344 C 51.003906 21.753906 52.214844 25.511719 54.789062 25.492188 C 57.886719 25.46875 58.78125 21.488281 56.023438 20.011719 C 54.75 19.332031 54.421875 19.363281 53.113281 20.277344 M 37.167969 28.808594 C 36.398438 29.980469 36.386719 30.253906 37.046875 31.433594 C 38.433594 33.917969 42.5 33.039062 42.5 30.25 C 42.5 27.558594 38.664062 26.523438 37.167969 28.808594 M 45.101562 28.101562 C 44.324219 28.875 44.324219 31.625 45.101562 32.398438 C 45.949219 33.25 48.285156 33.144531 49.214844 32.214844 C 50.121094 31.308594 50.226562 29.855469 49.484375 28.46875 C 48.890625 27.359375 46.078125 27.121094 45.101562 28.101562 M 52.785156 28.285156 C 51.769531 29.304688 51.78125 31.210938 52.8125 32.242188 C 54.042969 33.472656 56.558594 33.035156 57.453125 31.433594 C 58.113281 30.253906 58.101562 29.976562 57.332031 28.808594 C 56.339844 27.292969 54.042969 27.027344 52.785156 28.285156 M 26.609375 34.375 C 30.566406 42.136719 32.453125 47.90625 33.765625 56.265625 C 34.476562 60.785156 34.566406 63.421875 34.273438 71.25 C 34.078125 76.476562 33.941406 81.742188 33.96875 82.949219 C 34.101562 88.621094 39.167969 94.082031 45.023438 94.867188 C 46.777344 95.101562 47 94.980469 48.226562 93.125 C 52.886719 86.085938 53.640625 74.261719 50.242188 61.5625 C 46.890625 49.054688 40.214844 38.882812 33.027344 35.34375 C 30.542969 34.117188 26.136719 33.453125 26.609375 34.375 M 36.300781 36.414062 C 41.144531 39.921875 45.691406 46.511719 48.773438 54.488281 C 51.605469 61.824219 52.546875 66.4375 52.851562 74.511719 C 53.09375 80.863281 52.996094 82.304688 52.058594 86.011719 C 51.46875 88.34375 50.324219 91.320312 49.515625 92.625 C 48.066406 94.960938 48.058594 95 49.144531 94.996094 C 50.90625 94.988281 55.109375 92.773438 56.847656 90.9375 C 59.472656 88.164062 60.476562 85.328125 60.488281 80.660156 C 60.519531 69.546875 56.765625 55.832031 51.46875 47.703125 C 48.574219 43.257812 43.582031 38.742188 39.308594 36.691406 C 35.007812 34.632812 33.667969 34.507812 36.300781 36.414062 M 45.285156 35.785156 C 44.199219 36.871094 44.261719 37.074219 46.265625 39.015625 C 47.695312 40.402344 48.195312 40.625 48.890625 40.1875 C 49.363281 39.890625 49.824219 39.03125 49.914062 38.28125 C 50.226562 35.636719 47.113281 33.957031 45.285156 35.785156 M 52.828125 35.914062 C 51.714844 37.144531 51.785156 38.785156 53 40 C 54.324219 41.324219 55.285156 41.261719 56.804688 39.742188 C 57.722656 38.824219 57.972656 38.179688 57.730469 37.367188 C 57.035156 35.027344 54.351562 34.230469 52.828125 35.914062 M 52.945312 43.441406 L 51.78125 44.386719 L 52.765625 46.234375 C 53.957031 48.472656 54.238281 48.675781 55.691406 48.308594 C 58.144531 47.695312 58.359375 44.261719 56.023438 43.011719 C 54.699219 42.304688 54.28125 42.359375 52.945312 43.441406 M 67.363281 49.722656 C 64.988281 50.347656 60.425781 53.148438 58.734375 55.015625 C 57.890625 55.949219 57.898438 56.152344 58.96875 59.75 C 59.582031 61.820312 60.472656 65.476562 60.953125 67.878906 L 61.820312 72.25 L 62.175781 68.875 C 63.101562 60.007812 67.261719 53.222656 73.082031 51.066406 C 74.179688 50.660156 74.183594 50.632812 73.230469 50.144531 C 71.410156 49.207031 69.761719 49.089844 67.363281 49.722656 M 55.519531 50.875 C 55.53125 51.082031 55.945312 52.011719 56.441406 52.941406 C 57.195312 54.355469 57.398438 54.484375 57.683594 53.746094 C 58.039062 52.8125 56.835938 50.5 55.988281 50.5 C 55.71875 50.5 55.507812 50.667969 55.519531 50.875 "/>
</g>
</svg>
