<?xml version="1.0" encoding="UTF-8"?>
<svg xmlns="http://www.w3.org/2000/svg" xmlns:xlink="http://www.w3.org/1999/xlink" width="24px" height="24px" viewBox="0 0 24 24" version="1.1">
<g id="surface1">
<path style=" stroke:none;fill-rule:evenodd;fill:rgb(0%,0%,0%);fill-opacity:1;" d="M 10.304688 6.773438 C 8.882812 6.921875 8.074219 7.164062 7.9375 7.484375 C 7.808594 7.777344 6.097656 9.921875 5.886719 10.050781 C 5.753906 10.132812 5.058594 10.28125 4.347656 10.382812 C 2.535156 10.632812 1.039062 11.078125 0.726562 11.453125 C 0.449219 11.789062 0.34375 12.820312 0.546875 13.214844 C 0.710938 13.527344 0.703125 13.574219 0.480469 13.796875 C 0.347656 13.929688 0.238281 14.121094 0.238281 14.222656 C 0.238281 14.320312 0.179688 14.5 0.105469 14.617188 C 0 14.789062 0.0351562 14.960938 0.285156 15.449219 C 0.652344 16.175781 0.761719 16.261719 1 16.019531 C 1.285156 15.734375 1.5625 15.808594 1.699219 16.199219 C 1.777344 16.425781 1.90625 16.558594 2.046875 16.558594 C 2.171875 16.558594 2.507812 16.726562 2.796875 16.929688 C 3.675781 17.550781 4.714844 17.519531 5.511719 16.847656 L 5.855469 16.558594 L 11.691406 16.429688 L 17.527344 16.296875 L 17.785156 16.625 C 18.105469 17.03125 18.886719 17.394531 19.441406 17.394531 C 20.023438 17.394531 20.804688 17.015625 21.128906 16.570312 C 21.320312 16.3125 21.503906 16.199219 21.734375 16.199219 C 22.128906 16.199219 23.703125 15.636719 23.863281 15.4375 C 23.921875 15.363281 24.011719 15.125 24.054688 14.910156 C 24.132812 14.542969 24.117188 14.511719 23.753906 14.441406 L 23.371094 14.363281 L 23.453125 13.414062 C 23.515625 12.722656 23.496094 12.417969 23.386719 12.28125 C 23.300781 12.179688 23.136719 11.820312 23.015625 11.480469 C 22.878906 11.082031 22.617188 10.6875 22.289062 10.378906 C 21.6875 9.8125 20.519531 8.261719 20.515625 8.023438 C 20.507812 7.535156 19.761719 7.058594 18.65625 6.84375 C 17.5625 6.628906 12.101562 6.585938 10.304688 6.773438 M 11.339844 7.320312 C 10.945312 7.363281 12.265625 7.398438 14.28125 7.402344 C 16.472656 7.402344 17.578125 7.367188 17.039062 7.316406 C 15.921875 7.210938 12.308594 7.214844 11.339844 7.320312 M 8.558594 7.804688 C 8.457031 7.910156 8.453125 8.007812 8.542969 8.152344 C 8.644531 8.316406 8.511719 8.585938 7.855469 9.546875 C 7.40625 10.203125 7.019531 10.761719 7.003906 10.785156 C 6.984375 10.8125 6.808594 10.765625 6.613281 10.6875 C 6.339844 10.570312 6.203125 10.570312 5.992188 10.683594 C 5.84375 10.761719 5.15625 10.902344 4.457031 10.992188 C 3.761719 11.085938 2.746094 11.296875 2.199219 11.464844 C 1.105469 11.796875 0.972656 11.960938 1.132812 12.75 C 1.351562 13.820312 1.347656 13.890625 1.089844 14.148438 C 0.632812 14.609375 0.855469 14.875 1.699219 14.878906 C 1.957031 14.878906 2.035156 14.8125 2.097656 14.535156 C 2.203125 14.050781 2.949219 13.34375 3.515625 13.191406 C 4.964844 12.800781 6.402344 14.027344 6.207031 15.484375 L 6.140625 15.972656 L 7.421875 15.90625 C 8.125 15.871094 10.625 15.808594 12.976562 15.765625 L 17.25 15.691406 L 17.320312 15.097656 C 17.464844 13.886719 18.273438 13.144531 19.453125 13.144531 C 20.328125 13.144531 20.980469 13.554688 21.359375 14.34375 C 21.589844 14.8125 21.671875 14.886719 21.886719 14.820312 C 22.027344 14.773438 22.292969 14.707031 22.484375 14.671875 C 22.804688 14.613281 22.824219 14.582031 22.765625 14.140625 C 22.730469 13.882812 22.753906 13.476562 22.820312 13.238281 C 22.921875 12.878906 22.90625 12.78125 22.75 12.695312 C 22.644531 12.636719 22.558594 12.460938 22.558594 12.304688 C 22.558594 11.859375 22.128906 11.003906 21.777344 10.753906 C 21.515625 10.574219 21.402344 10.554688 21.164062 10.664062 C 21 10.738281 20.847656 10.800781 20.824219 10.800781 C 20.796875 10.800781 20.496094 10.28125 20.15625 9.648438 C 19.742188 8.882812 19.574219 8.460938 19.652344 8.378906 C 19.71875 8.3125 19.746094 8.15625 19.710938 8.03125 C 19.652344 7.808594 19.480469 7.800781 14.777344 7.800781 C 12.09375 7.796875 9.628906 7.765625 9.300781 7.726562 C 8.902344 7.683594 8.652344 7.707031 8.558594 7.804688 M 9.210938 8.316406 C 8.988281 8.414062 8.589844 8.921875 7.980469 9.894531 L 7.078125 11.324219 L 7.078125 13.207031 C 7.078125 14.757812 7.113281 15.117188 7.265625 15.242188 C 7.40625 15.359375 8.113281 15.390625 10.191406 15.371094 C 11.699219 15.359375 13.089844 15.304688 13.277344 15.253906 C 13.617188 15.164062 13.621094 15.152344 13.695312 14.03125 C 13.738281 13.410156 13.777344 11.921875 13.785156 10.730469 C 13.796875 8.765625 13.777344 8.539062 13.582031 8.359375 C 13.394531 8.191406 13.066406 8.160156 11.449219 8.164062 C 10.234375 8.167969 9.421875 8.222656 9.210938 8.316406 M 14.289062 8.417969 C 14.0625 8.664062 14.035156 8.8125 14.066406 9.71875 L 14.101562 10.738281 L 16.652344 10.773438 C 18.957031 10.800781 19.214844 10.785156 19.285156 10.601562 C 19.382812 10.339844 18.539062 8.679688 18.195312 8.464844 C 18.035156 8.363281 17.3125 8.277344 16.242188 8.226562 C 14.574219 8.144531 14.539062 8.148438 14.289062 8.417969 M 7.398438 9.269531 C 6.972656 9.8125 6.648438 10.300781 6.679688 10.351562 C 6.777344 10.507812 6.945312 10.332031 7.539062 9.441406 C 8.246094 8.390625 8.308594 8.28125 8.234375 8.28125 C 8.203125 8.28125 7.824219 8.726562 7.398438 9.269531 M 9.214844 8.671875 C 9.035156 8.808594 7.921875 10.492188 7.921875 10.621094 C 7.921875 10.707031 12.070312 10.691406 12.808594 10.601562 L 13.441406 10.527344 L 13.441406 8.519531 L 11.421875 8.519531 C 9.992188 8.519531 9.351562 8.5625 9.214844 8.671875 M 14.480469 8.601562 C 14.4375 8.644531 14.398438 9.101562 14.398438 9.621094 L 14.398438 10.558594 L 16.625 10.558594 C 18.34375 10.558594 18.859375 10.523438 18.90625 10.402344 C 18.941406 10.316406 18.769531 9.890625 18.53125 9.460938 L 18.09375 8.671875 L 17.296875 8.597656 C 16.242188 8.496094 14.582031 8.5 14.480469 8.601562 M 20.40625 9.449219 C 20.691406 9.996094 20.964844 10.441406 21.015625 10.441406 C 21.308594 10.441406 21.195312 10.09375 20.691406 9.441406 C 19.855469 8.359375 19.832031 8.359375 20.40625 9.449219 M 8.808594 11.007812 C 7.644531 11.046875 7.589844 11.0625 7.457031 11.347656 C 7.242188 11.824219 7.273438 14.8125 7.496094 14.996094 C 7.632812 15.109375 8.328125 15.121094 10.527344 15.042969 L 13.378906 14.941406 L 13.414062 12.929688 L 13.445312 10.921875 L 11.734375 10.945312 C 10.789062 10.960938 9.472656 10.988281 8.808594 11.007812 M 3.601562 13.816406 C 2.804688 14.132812 2.375 15.03125 2.679688 15.746094 C 3.066406 16.652344 3.996094 17.023438 4.789062 16.585938 C 5.957031 15.945312 5.847656 14.378906 4.59375 13.84375 C 4.148438 13.65625 4.011719 13.652344 3.601562 13.816406 M 18.890625 13.851562 C 18.058594 14.210938 17.730469 15.046875 18.09375 15.871094 C 18.625 17.074219 20.253906 17.078125 20.820312 15.882812 C 21.183594 15.121094 20.789062 14.191406 19.964844 13.84375 C 19.480469 13.644531 19.363281 13.644531 18.890625 13.851562 M 3.585938 14.335938 C 3.414062 14.429688 3.203125 14.679688 3.117188 14.882812 C 2.835938 15.566406 3.410156 16.320312 4.21875 16.320312 C 4.59375 16.320312 5.160156 15.679688 5.160156 15.257812 C 5.160156 14.496094 4.25 13.964844 3.585938 14.335938 M 18.945312 14.339844 C 18.773438 14.433594 18.570312 14.667969 18.488281 14.855469 C 18.078125 15.847656 19.234375 16.738281 20.074219 16.078125 C 20.671875 15.609375 20.597656 14.691406 19.929688 14.347656 C 19.496094 14.121094 19.351562 14.121094 18.945312 14.339844 M 3.601562 14.761719 C 3.132812 15.230469 3.4375 15.960938 4.101562 15.960938 C 4.714844 15.960938 5.035156 15.128906 4.582031 14.71875 C 4.285156 14.453125 3.890625 14.46875 3.601562 14.761719 M 18.917969 14.738281 C 18.488281 15.214844 18.820312 15.960938 19.460938 15.960938 C 20.074219 15.960938 20.394531 15.128906 19.941406 14.71875 C 19.652344 14.457031 19.164062 14.464844 18.917969 14.738281 M 0.0078125 14.828125 C 0.015625 14.96875 0.0429688 15 0.0820312 14.902344 C 0.117188 14.816406 0.113281 14.710938 0.0742188 14.671875 C 0.03125 14.632812 0.00390625 14.703125 0.0078125 14.828125 "/>
</g>
</svg>
