<?xml version="1.0" encoding="UTF-8"?>
<svg xmlns="http://www.w3.org/2000/svg" xmlns:xlink="http://www.w3.org/1999/xlink" width="100px" height="100px" viewBox="0 0 100 100" version="1.1">
<g id="surface1">
<path style=" stroke:none;fill-rule:evenodd;fill:rgb(0%,0%,0%);fill-opacity:1;" d="M 42.929688 28.21875 C 37.007812 28.835938 33.636719 29.847656 33.066406 31.175781 C 32.535156 32.410156 25.414062 41.339844 24.535156 41.878906 C 23.96875 42.222656 21.078125 42.84375 18.113281 43.257812 C 10.5625 44.308594 4.324219 46.152344 3.027344 47.71875 C 1.867188 49.113281 1.429688 53.414062 2.277344 55.054688 C 2.957031 56.371094 2.9375 56.5625 2.007812 57.492188 C 1.453125 58.046875 1 58.839844 1 59.257812 C 1 59.671875 0.75 60.414062 0.441406 60.90625 C -0.00390625 61.617188 0.152344 62.332031 1.183594 64.367188 C 2.71875 67.402344 3.167969 67.757812 4.175781 66.753906 C 5.359375 65.566406 6.503906 65.863281 7.074219 67.5 C 7.40625 68.445312 7.945312 69 8.535156 69 C 9.050781 69 10.453125 69.691406 11.648438 70.535156 C 15.316406 73.121094 19.648438 72.996094 22.960938 70.207031 L 24.398438 69 L 48.714844 68.453125 L 73.035156 67.910156 L 74.105469 69.269531 C 75.433594 70.960938 78.695312 72.476562 81 72.476562 C 83.425781 72.476562 86.679688 70.890625 88.042969 69.046875 C 88.839844 67.96875 89.605469 67.5 90.566406 67.5 C 92.199219 67.5 98.761719 65.148438 99.421875 64.324219 C 99.675781 64.007812 100.042969 63.015625 100.234375 62.121094 C 100.558594 60.589844 100.488281 60.472656 98.984375 60.171875 L 97.382812 59.851562 L 97.730469 55.898438 C 97.980469 53.003906 97.902344 51.734375 97.4375 51.175781 C 97.089844 50.757812 96.398438 49.25 95.902344 47.832031 C 95.324219 46.167969 94.246094 44.535156 92.875 43.246094 C 90.367188 40.878906 85.503906 34.425781 85.488281 33.4375 C 85.457031 31.390625 82.335938 29.40625 77.738281 28.511719 C 73.179688 27.628906 50.421875 27.433594 42.929688 28.21875 M 47.25 30.5 C 45.601562 30.683594 51.113281 30.832031 59.5 30.835938 C 68.644531 30.835938 73.25 30.695312 71 30.484375 C 66.335938 30.042969 51.28125 30.054688 47.25 30.5 M 35.660156 32.519531 C 35.238281 32.957031 35.222656 33.367188 35.597656 33.972656 C 36.023438 34.652344 35.46875 35.78125 32.722656 39.785156 C 30.851562 42.515625 29.253906 44.835938 29.175781 44.941406 C 29.097656 45.046875 28.371094 44.859375 27.5625 44.527344 C 26.417969 44.050781 25.84375 44.050781 24.972656 44.515625 C 24.355469 44.84375 21.480469 45.425781 18.578125 45.804688 C 15.679688 46.1875 11.4375 47.070312 9.15625 47.765625 C 4.609375 49.152344 4.046875 49.832031 4.71875 53.132812 C 5.625 57.585938 5.617188 57.882812 4.550781 58.949219 C 2.632812 60.867188 3.558594 61.976562 7.085938 61.992188 C 8.152344 62 8.484375 61.710938 8.738281 60.554688 C 9.179688 58.542969 12.292969 55.59375 14.644531 54.960938 C 20.679688 53.335938 26.675781 58.445312 25.859375 64.519531 L 25.589844 66.546875 L 30.917969 66.273438 C 33.851562 66.125 44.265625 65.863281 54.0625 65.695312 L 71.875 65.386719 L 72.167969 62.910156 C 72.765625 57.855469 76.132812 54.765625 81.046875 54.765625 C 84.695312 54.765625 87.410156 56.46875 89.003906 59.757812 C 89.953125 61.722656 90.292969 62.03125 91.191406 61.746094 C 91.773438 61.558594 92.894531 61.285156 93.683594 61.136719 C 95.027344 60.886719 95.097656 60.75 94.851562 58.917969 C 94.707031 57.84375 94.816406 56.148438 95.089844 55.152344 C 95.503906 53.664062 95.449219 53.261719 94.796875 52.894531 C 94.359375 52.652344 94 51.917969 94 51.265625 C 94 49.40625 92.195312 45.84375 90.734375 44.816406 C 89.652344 44.054688 89.179688 43.984375 88.179688 44.441406 C 87.503906 44.75 86.867188 45 86.761719 45 C 86.65625 45 85.402344 42.84375 83.976562 40.207031 C 82.25 37.015625 81.550781 35.246094 81.886719 34.914062 C 82.160156 34.640625 82.273438 33.984375 82.132812 33.457031 C 81.890625 32.535156 81.164062 32.5 61.566406 32.496094 C 50.390625 32.492188 40.125 32.359375 38.75 32.199219 C 37.09375 32.007812 36.050781 32.117188 35.660156 32.519531 M 38.375 34.648438 C 37.445312 35.054688 35.789062 37.179688 33.25 41.21875 L 29.5 47.191406 L 29.5 55.035156 C 29.5 61.484375 29.636719 62.992188 30.269531 63.515625 C 30.851562 64 33.800781 64.128906 42.46875 64.046875 C 48.753906 63.988281 54.539062 63.769531 55.324219 63.5625 C 56.734375 63.1875 56.753906 63.128906 57.070312 58.464844 C 57.246094 55.871094 57.414062 49.679688 57.445312 44.703125 C 57.496094 36.53125 57.410156 35.574219 56.585938 34.828125 C 55.8125 34.128906 54.4375 34.003906 47.710938 34.023438 C 42.640625 34.035156 39.25 34.265625 38.375 34.648438 M 59.53125 35.082031 C 58.585938 36.09375 58.480469 36.714844 58.605469 40.488281 L 58.75 44.75 L 69.386719 44.886719 C 78.996094 45.007812 80.054688 44.9375 80.347656 44.171875 C 80.765625 43.082031 77.242188 36.171875 75.808594 35.273438 C 75.140625 34.855469 72.140625 34.484375 67.675781 34.273438 C 60.734375 33.941406 60.578125 33.957031 59.53125 35.082031 M 30.828125 38.625 C 29.050781 40.894531 27.703125 42.921875 27.832031 43.132812 C 28.238281 43.789062 28.9375 43.050781 31.417969 39.339844 C 34.351562 34.960938 34.625 34.5 34.308594 34.5 C 34.171875 34.5 32.605469 36.355469 30.828125 38.625 M 38.394531 36.125 C 37.648438 36.710938 33 43.714844 33 44.253906 C 33 44.613281 50.292969 44.546875 53.375 44.175781 L 56 43.859375 L 56 35.5 L 47.59375 35.5 C 41.628906 35.5 38.960938 35.679688 38.394531 36.125 M 60.332031 35.832031 C 60.148438 36.015625 60 37.929688 60 40.082031 L 60 44 L 69.265625 44 C 76.4375 44 78.589844 43.851562 78.78125 43.347656 C 78.921875 42.984375 78.214844 41.214844 77.210938 39.414062 L 75.386719 36.132812 L 72.070312 35.820312 C 67.683594 35.40625 60.753906 35.414062 60.332031 35.832031 M 85.023438 39.375 C 86.21875 41.644531 87.359375 43.5 87.566406 43.5 C 88.777344 43.5 88.3125 42.066406 86.214844 39.34375 C 82.734375 34.824219 82.636719 34.828125 85.023438 39.375 M 36.699219 45.871094 C 31.855469 46.027344 31.621094 46.085938 31.074219 47.289062 C 30.171875 49.265625 30.308594 61.71875 31.238281 62.488281 C 31.804688 62.960938 34.703125 63.003906 43.863281 62.675781 L 55.75 62.25 L 56.023438 45.5 L 48.886719 45.605469 C 44.960938 45.664062 39.476562 45.785156 36.699219 45.871094 M 15 57.5625 C 11.683594 58.882812 9.902344 62.628906 11.171875 65.605469 C 12.78125 69.390625 16.65625 70.9375 19.960938 69.117188 C 24.824219 66.433594 24.359375 59.90625 19.140625 57.683594 C 17.285156 56.894531 16.71875 56.878906 15 57.5625 M 78.707031 57.710938 C 75.25 59.214844 73.878906 62.703125 75.398438 66.136719 C 77.609375 71.136719 84.386719 71.15625 86.753906 66.171875 C 88.257812 63.003906 86.625 59.128906 83.183594 57.691406 C 81.175781 56.851562 80.679688 56.851562 78.707031 57.710938 M 14.945312 59.730469 C 14.226562 60.132812 13.347656 61.160156 12.992188 62.015625 C 11.816406 64.863281 14.214844 68 17.570312 68 C 19.136719 68 21.5 65.332031 21.5 63.566406 C 21.5 60.402344 17.710938 58.183594 14.945312 59.730469 M 78.945312 59.75 C 78.226562 60.140625 77.367188 61.109375 77.039062 61.902344 C 75.328125 66.035156 80.144531 69.746094 83.644531 66.992188 C 86.140625 65.03125 85.824219 61.210938 83.046875 59.773438 C 81.230469 58.835938 80.632812 58.832031 78.945312 59.75 M 15 61.5 C 13.046875 63.453125 14.316406 66.5 17.085938 66.5 C 19.648438 66.5 20.984375 63.042969 19.085938 61.328125 C 17.855469 60.214844 16.214844 60.285156 15 61.5 M 78.828125 61.414062 C 77.035156 63.398438 78.414062 66.5 81.085938 66.5 C 83.648438 66.5 84.984375 63.042969 83.085938 61.328125 C 81.878906 60.234375 79.859375 60.277344 78.828125 61.414062 M 0.0390625 61.792969 C 0.0625 62.375 0.183594 62.492188 0.339844 62.09375 C 0.484375 61.734375 0.46875 61.300781 0.300781 61.136719 C 0.136719 60.96875 0.0195312 61.265625 0.0390625 61.792969 "/>
</g>
</svg>
