<?xml version="1.0" encoding="UTF-8"?>
<svg xmlns="http://www.w3.org/2000/svg" xmlns:xlink="http://www.w3.org/1999/xlink" width="100px" height="100px" viewBox="0 0 100 100" version="1.1">
<g id="surface1">
<path style=" stroke:none;fill-rule:evenodd;fill:rgb(0%,0%,0%);fill-opacity:1;" d="M 14.074219 4.027344 C 9.152344 6.027344 8.027344 8.554688 8.011719 17.609375 L 8 24.46875 L 11.601562 33.515625 L 15.203125 42.558594 L 11.601562 49.785156 L 8 57.007812 L 8 74.289062 C 8 92.253906 8.070312 92.902344 10.183594 94.613281 C 11.171875 95.414062 14.03125 95.476562 50 95.476562 C 85.96875 95.476562 88.828125 95.414062 89.816406 94.613281 C 91.929688 92.902344 92 92.253906 92 74.289062 L 92 57.007812 L 88.398438 49.785156 L 84.796875 42.558594 L 88.398438 33.515625 L 92 24.46875 L 92 17.640625 C 92 9.585938 91.261719 7.347656 87.851562 5.09375 L 85.824219 3.75 L 50.535156 3.648438 C 28.980469 3.589844 14.792969 3.734375 14.074219 4.027344 M 17.5 14.5 L 17.5 22.5 L 45 22.5 L 45 6.5 L 17.5 6.5 L 17.5 14.5 M 55 14.492188 L 55 22.5 L 82.527344 22.5 L 82.386719 14.625 L 82.25 6.75 L 55 6.484375 L 55 14.492188 M 13.558594 7.816406 C 11.628906 9.167969 11 11.484375 11 17.234375 L 11 22.5 L 16 22.5 L 16 14.75 C 16 6.453125 15.902344 6.175781 13.558594 7.816406 M 46.617188 19.09375 C 46.546875 26.65625 46.304688 31.558594 46 31.75 C 45.726562 31.921875 45.5 32.957031 45.5 34.050781 C 45.5 36.8125 47.207031 38.5 50 38.5 C 52.761719 38.5 54.5 36.808594 54.5 34.121094 C 54.5 33.066406 54.277344 31.980469 54.007812 31.710938 C 53.722656 31.425781 53.453125 26.191406 53.367188 19.234375 L 53.214844 7.25 L 53.292969 19.5 C 53.335938 26.238281 53.535156 32.582031 53.734375 33.597656 C 54.050781 35.179688 53.921875 35.625 52.824219 36.722656 C 49.539062 40.007812 44.3125 36.085938 46.507812 31.984375 C 46.824219 31.390625 46.964844 26.453125 46.875 18.890625 L 46.730469 6.75 L 46.617188 19.09375 M 84 14.75 L 84 22.5 L 89 22.5 L 89 17.234375 C 89 11.484375 88.371094 9.167969 86.441406 7.816406 C 84.097656 6.175781 84 6.453125 84 14.75 M 49.5 9.5 C 49.5 9.773438 49.726562 10 50 10 C 50.273438 10 50.5 9.773438 50.5 9.5 C 50.5 9.226562 50.273438 9 50 9 C 49.726562 9 49.5 9.226562 49.5 9.5 M 12.523438 12.222656 C 11.617188 13.316406 12.261719 14.601562 13.621094 14.410156 C 14.445312 14.292969 14.75 13.914062 14.75 13.007812 C 14.75 11.546875 13.460938 11.09375 12.523438 12.222656 M 85.179688 12.25 C 84.730469 13.417969 85.367188 14.5 86.5 14.5 C 87.773438 14.5 88.324219 13.246094 87.496094 12.242188 C 86.699219 11.285156 85.550781 11.289062 85.179688 12.25 M 49.5 12.5 C 49.5 12.773438 49.726562 13 50 13 C 50.273438 13 50.5 12.773438 50.5 12.5 C 50.5 12.226562 50.273438 12 50 12 C 49.726562 12 49.5 12.226562 49.5 12.5 M 49.5 15.5 C 49.5 15.773438 49.726562 16 50 16 C 50.273438 16 50.5 15.773438 50.5 15.5 C 50.5 15.226562 50.273438 15 50 15 C 49.726562 15 49.5 15.226562 49.5 15.5 M 12.179688 16.753906 C 12.003906 17.214844 12.207031 17.921875 12.644531 18.355469 C 13.703125 19.417969 15.113281 18.808594 14.910156 17.378906 C 14.714844 15.988281 12.652344 15.519531 12.179688 16.753906 M 85.179688 16.75 C 84.785156 17.78125 85.320312 19 86.171875 19 C 87.175781 19 88.164062 17.652344 87.820312 16.757812 C 87.445312 15.78125 85.554688 15.773438 85.179688 16.75 M 49.5 18.25 C 49.5 18.664062 49.726562 19 50 19 C 50.273438 19 50.5 18.664062 50.5 18.25 C 50.5 17.835938 50.273438 17.5 50 17.5 C 49.726562 17.5 49.5 17.835938 49.5 18.25 M 12 26.148438 C 12 26.230469 13.308594 29.550781 14.90625 33.523438 L 17.8125 40.75 L 82.1875 40.75 L 85.09375 33.523438 C 86.691406 29.550781 88 26.230469 88 26.148438 C 88 26.066406 80.574219 26 71.5 26 L 55 26 L 55 27.78125 C 55 28.761719 55.359375 30.664062 55.800781 32.011719 C 56.554688 34.3125 56.546875 34.570312 55.675781 36.324219 C 53.050781 41.605469 46.929688 41.570312 44.289062 36.25 C 43.375 34.40625 43.367188 34.207031 44.164062 31.964844 C 44.625 30.671875 45 28.800781 45 27.808594 L 45 26 L 28.5 26 C 19.425781 26 12 26.066406 12 26.148438 M 49.5 34.5 C 49.5 35.324219 49.726562 36 50 36 C 50.273438 36 50.5 35.324219 50.5 34.5 C 50.5 33.675781 50.273438 33 50 33 C 49.726562 33 49.5 33.675781 49.5 34.5 M 15 50 L 11.992188 56 L 88.007812 56 L 81.992188 44 L 18.007812 44 L 15 50 M 11 74.78125 C 11 84.707031 11.191406 90.925781 11.515625 91.53125 C 11.894531 92.238281 12.570312 92.5 14.015625 92.5 L 16 92.5 L 16 59 L 11 59 L 11 74.78125 M 17.5 59.5 C 17.5 59.820312 22.417969 60 31.25 60 C 40.082031 60 45 59.820312 45 59.5 C 45 59.179688 40.082031 59 31.25 59 C 22.417969 59 17.5 59.179688 17.5 59.5 M 46.316406 62.375 C 46.167969 64.230469 45.910156 66.761719 45.738281 68 C 45.480469 69.863281 45.609375 70.441406 46.476562 71.367188 C 47.054688 71.984375 48.085938 72.628906 48.765625 72.796875 C 50.484375 73.230469 52.285156 72.6875 53.523438 71.367188 C 54.390625 70.441406 54.519531 69.863281 54.261719 68 C 54.089844 66.761719 53.832031 64.230469 53.683594 62.375 L 53.417969 59 L 46.582031 59 L 46.316406 62.375 M 55 59.5 C 55 59.820312 59.917969 60 68.75 60 C 77.582031 60 82.5 59.820312 82.5 59.5 C 82.5 59.179688 77.582031 59 68.75 59 C 59.917969 59 55 59.179688 55 59.5 M 84 75.75 L 84 92.5 L 85.984375 92.5 C 87.429688 92.5 88.105469 92.238281 88.484375 91.53125 C 88.808594 90.925781 89 84.707031 89 74.78125 L 89 59 L 84 59 L 84 75.75 M 17.5 77.25 L 17.5 92.5 L 82.5 92.5 L 82.5 62 L 55 62 L 55 63.1875 C 55 63.84375 55.34375 65.199219 55.765625 66.207031 C 57.457031 70.261719 54.511719 74.5 50 74.5 C 45.488281 74.5 42.542969 70.261719 44.234375 66.207031 C 44.65625 65.199219 45 63.84375 45 63.1875 L 45 62 L 17.5 62 L 17.5 77.25 M 49.34375 67.324219 C 49.15625 67.511719 49 68.417969 49 69.332031 C 49 70.683594 49.195312 71 50.03125 71 C 50.910156 71 51.039062 70.734375 50.90625 69.164062 C 50.757812 67.402344 50.070312 66.59375 49.34375 67.324219 M 12.523438 83.722656 C 11.617188 84.816406 12.261719 86.101562 13.621094 85.910156 C 14.445312 85.792969 14.75 85.414062 14.75 84.507812 C 14.75 83.046875 13.460938 82.59375 12.523438 83.722656 M 85.179688 83.75 C 84.730469 84.917969 85.367188 86 86.5 86 C 87.773438 86 88.324219 84.746094 87.496094 83.742188 C 86.699219 82.785156 85.550781 82.789062 85.179688 83.75 M 12.179688 88.253906 C 12.003906 88.714844 12.207031 89.421875 12.644531 89.855469 C 13.703125 90.917969 15.113281 90.308594 14.910156 88.878906 C 14.714844 87.488281 12.652344 87.019531 12.179688 88.253906 M 85.179688 88.25 C 84.785156 89.28125 85.320312 90.5 86.171875 90.5 C 87.175781 90.5 88.164062 89.152344 87.820312 88.257812 C 87.445312 87.28125 85.554688 87.273438 85.179688 88.25 "/>
</g>
</svg>
