<?xml version="1.0" encoding="UTF-8"?>
<svg xmlns="http://www.w3.org/2000/svg" xmlns:xlink="http://www.w3.org/1999/xlink" width="24px" height="24px" viewBox="0 0 24 24" version="1.1">
<g id="surface1">
<path style=" stroke:none;fill-rule:evenodd;fill:rgb(0%,0%,0%);fill-opacity:1;" d="M 3.378906 0.964844 C 2.195312 1.445312 1.925781 2.054688 1.921875 4.226562 L 1.921875 5.871094 L 3.648438 10.214844 L 1.921875 13.683594 L 1.921875 17.828125 C 1.921875 22.140625 1.9375 22.296875 2.445312 22.707031 C 2.679688 22.898438 3.367188 22.914062 12 22.914062 C 20.632812 22.914062 21.320312 22.898438 21.554688 22.707031 C 22.0625 22.296875 22.078125 22.140625 22.078125 17.828125 L 22.078125 13.683594 L 20.351562 10.214844 L 22.078125 5.871094 L 22.078125 4.234375 C 22.078125 2.300781 21.902344 1.761719 21.085938 1.222656 L 20.597656 0.898438 L 12.128906 0.875 C 6.957031 0.859375 3.550781 0.898438 3.378906 0.964844 M 4.199219 3.480469 L 4.199219 5.398438 L 10.800781 5.398438 L 10.800781 1.558594 L 4.199219 1.558594 L 4.199219 3.480469 M 13.199219 3.476562 L 13.199219 5.398438 L 19.804688 5.398438 L 19.773438 3.511719 L 19.738281 1.621094 L 16.46875 1.589844 L 13.199219 1.554688 L 13.199219 3.476562 M 3.253906 1.875 C 2.792969 2.199219 2.640625 2.757812 2.640625 4.136719 L 2.640625 5.398438 L 3.839844 5.398438 L 3.839844 3.539062 C 3.839844 1.546875 3.816406 1.480469 3.253906 1.875 M 11.1875 4.582031 C 11.171875 6.398438 11.113281 7.574219 11.039062 7.621094 C 10.972656 7.660156 10.921875 7.910156 10.921875 8.171875 C 10.921875 8.835938 11.328125 9.238281 12 9.238281 C 12.664062 9.238281 13.078125 8.832031 13.078125 8.1875 C 13.078125 7.9375 13.027344 7.675781 12.960938 7.609375 C 12.894531 7.542969 12.828125 6.285156 12.808594 4.617188 L 12.773438 1.738281 L 12.789062 4.679688 C 12.800781 6.296875 12.847656 7.820312 12.898438 8.0625 C 12.972656 8.441406 12.941406 8.550781 12.679688 8.8125 C 11.890625 9.601562 10.636719 8.660156 11.164062 7.675781 C 11.238281 7.535156 11.269531 6.347656 11.25 4.535156 L 11.214844 1.621094 L 11.1875 4.582031 M 20.160156 3.539062 L 20.160156 5.398438 L 21.359375 5.398438 L 21.359375 4.136719 C 21.359375 2.757812 21.207031 2.199219 20.746094 1.875 C 20.183594 1.480469 20.160156 1.546875 20.160156 3.539062 M 11.878906 2.28125 C 11.878906 2.347656 11.933594 2.398438 12 2.398438 C 12.066406 2.398438 12.121094 2.347656 12.121094 2.28125 C 12.121094 2.214844 12.066406 2.160156 12 2.160156 C 11.933594 2.160156 11.878906 2.214844 11.878906 2.28125 M 3.003906 2.933594 C 2.789062 3.195312 2.941406 3.503906 3.269531 3.457031 C 3.46875 3.429688 3.539062 3.339844 3.539062 3.121094 C 3.539062 2.773438 3.230469 2.664062 3.003906 2.933594 M 20.445312 2.941406 C 20.335938 3.21875 20.488281 3.480469 20.761719 3.480469 C 21.066406 3.480469 21.199219 3.179688 21 2.9375 C 20.808594 2.707031 20.53125 2.710938 20.445312 2.941406 M 11.878906 3 C 11.878906 3.066406 11.933594 3.121094 12 3.121094 C 12.066406 3.121094 12.121094 3.066406 12.121094 3 C 12.121094 2.933594 12.066406 2.878906 12 2.878906 C 11.933594 2.878906 11.878906 2.933594 11.878906 3 M 11.878906 3.71875 C 11.878906 3.785156 11.933594 3.839844 12 3.839844 C 12.066406 3.839844 12.121094 3.785156 12.121094 3.71875 C 12.121094 3.652344 12.066406 3.601562 12 3.601562 C 11.933594 3.601562 11.878906 3.652344 11.878906 3.71875 M 2.921875 4.019531 C 2.878906 4.132812 2.929688 4.300781 3.035156 4.40625 C 3.289062 4.660156 3.628906 4.515625 3.578125 4.171875 C 3.53125 3.835938 3.035156 3.722656 2.921875 4.019531 M 20.445312 4.019531 C 20.347656 4.269531 20.476562 4.558594 20.679688 4.558594 C 20.921875 4.558594 21.160156 4.234375 21.078125 4.023438 C 20.988281 3.785156 20.53125 3.785156 20.445312 4.019531 M 11.878906 4.378906 C 11.878906 4.480469 11.933594 4.558594 12 4.558594 C 12.066406 4.558594 12.121094 4.480469 12.121094 4.378906 C 12.121094 4.28125 12.066406 4.199219 12 4.199219 C 11.933594 4.199219 11.878906 4.28125 11.878906 4.378906 M 2.878906 6.277344 C 2.878906 6.296875 3.195312 7.089844 3.578125 8.046875 L 4.273438 9.78125 L 19.726562 9.78125 L 20.421875 8.046875 C 20.804688 7.089844 21.121094 6.296875 21.121094 6.277344 C 21.121094 6.257812 19.339844 6.238281 17.160156 6.238281 L 13.199219 6.238281 L 13.199219 6.667969 C 13.199219 6.902344 13.285156 7.359375 13.390625 7.683594 C 13.574219 8.234375 13.570312 8.296875 13.363281 8.71875 C 12.730469 9.984375 11.261719 9.976562 10.628906 8.699219 C 10.410156 8.257812 10.410156 8.210938 10.597656 7.671875 C 10.710938 7.363281 10.800781 6.914062 10.800781 6.675781 L 10.800781 6.238281 L 6.839844 6.238281 C 4.660156 6.238281 2.878906 6.257812 2.878906 6.277344 M 11.878906 8.28125 C 11.878906 8.476562 11.933594 8.640625 12 8.640625 C 12.066406 8.640625 12.121094 8.476562 12.121094 8.28125 C 12.121094 8.082031 12.066406 7.921875 12 7.921875 C 11.933594 7.921875 11.878906 8.082031 11.878906 8.28125 M 3.601562 12 L 2.878906 13.441406 L 21.121094 13.441406 L 20.398438 12 L 19.679688 10.558594 L 4.320312 10.558594 L 3.601562 12 M 2.640625 17.949219 C 2.640625 20.328125 2.6875 21.820312 2.765625 21.96875 C 2.855469 22.136719 3.015625 22.199219 3.363281 22.199219 L 3.839844 22.199219 L 3.839844 14.160156 L 2.640625 14.160156 L 2.640625 17.949219 M 4.199219 14.28125 C 4.199219 14.355469 5.378906 14.398438 7.5 14.398438 C 9.621094 14.398438 10.800781 14.355469 10.800781 14.28125 C 10.800781 14.203125 9.621094 14.160156 7.5 14.160156 C 5.378906 14.160156 4.199219 14.203125 4.199219 14.28125 M 11.117188 14.96875 C 11.082031 15.414062 11.019531 16.023438 10.976562 16.320312 C 10.914062 16.765625 10.945312 16.90625 11.15625 17.128906 C 11.292969 17.277344 11.539062 17.429688 11.703125 17.472656 C 12.117188 17.574219 12.546875 17.445312 12.84375 17.128906 C 13.054688 16.90625 13.085938 16.765625 13.023438 16.320312 C 12.980469 16.023438 12.917969 15.414062 12.882812 14.96875 L 12.820312 14.160156 L 11.179688 14.160156 L 11.117188 14.96875 M 13.199219 14.28125 C 13.199219 14.355469 14.378906 14.398438 16.5 14.398438 C 18.621094 14.398438 19.800781 14.355469 19.800781 14.28125 C 19.800781 14.203125 18.621094 14.160156 16.5 14.160156 C 14.378906 14.160156 13.199219 14.203125 13.199219 14.28125 M 20.160156 18.179688 L 20.160156 22.199219 L 20.636719 22.199219 C 20.984375 22.199219 21.144531 22.136719 21.234375 21.96875 C 21.3125 21.820312 21.359375 20.328125 21.359375 17.949219 L 21.359375 14.160156 L 20.160156 14.160156 L 20.160156 18.179688 M 4.199219 18.539062 L 4.199219 22.199219 L 19.800781 22.199219 L 19.800781 14.878906 L 13.199219 14.878906 L 13.199219 15.164062 C 13.199219 15.324219 13.28125 15.648438 13.382812 15.890625 C 13.789062 16.863281 13.082031 17.878906 12 17.878906 C 10.917969 17.878906 10.210938 16.863281 10.617188 15.890625 C 10.71875 15.648438 10.800781 15.324219 10.800781 15.164062 L 10.800781 14.878906 L 4.199219 14.878906 L 4.199219 18.539062 M 11.84375 16.15625 C 11.796875 16.203125 11.761719 16.421875 11.761719 16.640625 C 11.761719 16.964844 11.808594 17.039062 12.007812 17.039062 C 12.21875 17.039062 12.25 16.976562 12.21875 16.597656 C 12.179688 16.175781 12.015625 15.984375 11.84375 16.15625 M 3.003906 20.09375 C 2.789062 20.355469 2.941406 20.664062 3.269531 20.617188 C 3.46875 20.589844 3.539062 20.5 3.539062 20.28125 C 3.539062 19.929688 3.230469 19.824219 3.003906 20.09375 M 20.445312 20.101562 C 20.335938 20.378906 20.488281 20.640625 20.761719 20.640625 C 21.066406 20.640625 21.199219 20.339844 21 20.097656 C 20.808594 19.867188 20.53125 19.871094 20.445312 20.101562 M 2.921875 21.179688 C 2.878906 21.292969 2.929688 21.460938 3.035156 21.566406 C 3.289062 21.820312 3.628906 21.675781 3.578125 21.332031 C 3.53125 20.996094 3.035156 20.882812 2.921875 21.179688 M 20.445312 21.179688 C 20.347656 21.425781 20.476562 21.71875 20.679688 21.71875 C 20.921875 21.71875 21.160156 21.394531 21.078125 21.179688 C 20.988281 20.945312 20.53125 20.945312 20.445312 21.179688 "/>
</g>
</svg>
