<?xml version="1.0" encoding="UTF-8"?>
<svg xmlns="http://www.w3.org/2000/svg" xmlns:xlink="http://www.w3.org/1999/xlink" width="100px" height="100px" viewBox="0 0 100 100" version="1.1">
<g id="surface1">
<path style=" stroke:none;fill-rule:evenodd;fill:rgb(0%,0%,0%);fill-opacity:1;" d="M 63.476562 1.882812 C 59.980469 4.324219 57.28125 7.9375 55.90625 12 C 55.019531 14.621094 54.820312 16.3125 54.859375 20.75 C 54.902344 25.089844 54.746094 26.433594 54.128906 27.125 C 52.304688 29.164062 47.386719 27.378906 46.609375 24.394531 C 46.0625 22.296875 47.050781 15.972656 48.777344 10.507812 C 49.488281 8.25 49.980469 6.3125 49.867188 6.199219 C 49.488281 5.824219 42.949219 11.058594 39.9375 14.144531 C 34.597656 19.621094 31.132812 25.910156 29.78125 32.605469 C 28.84375 37.222656 28.8125 39.054688 29.570312 44.046875 C 30.445312 49.78125 29.398438 52.03125 26.679688 50.25 C 23.007812 47.84375 21.363281 41.671875 22.675781 35.226562 C 23.113281 33.070312 23.378906 31.210938 23.261719 31.09375 C 22.816406 30.648438 18.195312 33.757812 15.933594 36.019531 C 13.023438 38.929688 11.230469 42.390625 10.457031 46.585938 C 9.945312 49.351562 9.992188 50.347656 10.785156 53.773438 C 12.070312 59.34375 11.964844 63.054688 10.410156 66.847656 C 9.097656 70.039062 6.054688 75.082031 2.363281 80.160156 C 0.335938 82.953125 0.25 83.222656 0.269531 86.660156 C 0.292969 90.832031 1.304688 93.179688 4.332031 96.097656 C 7.972656 99.605469 13.289062 100.945312 17.140625 99.324219 C 18.027344 98.953125 20.550781 97.351562 22.75 95.769531 C 27.746094 92.171875 33.765625 89.113281 37.207031 88.421875 C 39.441406 87.972656 40.507812 88.0625 44.285156 89.007812 C 47.671875 89.859375 49.507812 90.050781 51.992188 89.820312 C 56.386719 89.414062 61.726562 86.78125 64.46875 83.667969 C 66.398438 81.476562 69.734375 76.5 69.277344 76.5 C 69.160156 76.5 67.53125 76.859375 65.65625 77.300781 C 59.269531 78.796875 53.683594 77.628906 50.328125 74.09375 C 49.296875 73.007812 48.996094 72.304688 49.234375 71.546875 C 49.695312 70.09375 51.511719 69.773438 55.515625 70.433594 C 66.910156 72.316406 77.242188 68.644531 86.441406 59.441406 C 89.117188 56.769531 94.148438 50.484375 93.851562 50.1875 C 93.769531 50.101562 92.246094 50.476562 90.472656 51.019531 C 85.273438 52.613281 77.472656 54.074219 75.941406 53.738281 C 72.460938 52.972656 70.570312 47.457031 73.199219 45.734375 C 74.152344 45.113281 75.164062 45.015625 78.074219 45.277344 C 86.761719 46.054688 94.210938 42.683594 98.464844 36.054688 C 99.308594 34.738281 100 33.515625 100 33.339844 C 100 33.164062 99.042969 33.144531 97.875 33.300781 C 95.429688 33.625 90.144531 32.863281 88.132812 31.898438 C 86.527344 31.128906 85.308594 28.894531 85.742188 27.523438 C 86.308594 25.734375 89.96875 24.820312 95.292969 25.140625 L 100.0625 25.421875 L 99.71875 23.835938 C 99.148438 21.226562 98.699219 20.332031 96.804688 18.066406 C 94.480469 15.28125 94.496094 14.203125 96.980469 6.804688 C 98.136719 3.371094 98.710938 1.003906 98.355469 1.132812 C 98.023438 1.257812 95.148438 2.214844 91.96875 3.257812 C 85.507812 5.378906 84.507812 5.351562 81.816406 2.992188 C 80 1.398438 77.113281 0 75.628906 0 C 74.804688 0 74.738281 0.453125 74.890625 5.125 C 75.09375 11.414062 74.269531 13.652344 71.65625 13.90625 C 68.515625 14.207031 66.945312 10.921875 66.867188 3.90625 C 66.84375 1.757812 66.679688 0 66.5 0 C 66.316406 0 64.957031 0.847656 63.476562 1.882812 M 77.5 6.160156 C 77.5 12.636719 75.308594 16.5 71.632812 16.5 C 67.859375 16.5 65.488281 13.632812 64.480469 7.847656 C 64.113281 5.742188 63.671875 4.523438 63.320312 4.640625 C 62 5.070312 58.914062 9.960938 57.917969 13.191406 C 57.046875 16.035156 56.910156 17.433594 57.132812 21.203125 C 57.453125 26.542969 56.851562 28.535156 54.5625 29.71875 C 50.359375 31.890625 44.429688 28.707031 43.6875 23.878906 C 43.550781 22.984375 43.878906 20 44.417969 17.25 C 44.957031 14.5 45.339844 12.1875 45.265625 12.109375 C 45.195312 12.03125 43.300781 13.910156 41.058594 16.28125 C 37.859375 19.660156 36.507812 21.574219 34.78125 25.167969 C 31.484375 32.042969 30.773438 37.242188 32.085938 44.898438 C 32.613281 47.972656 32.574219 48.507812 31.710938 50.28125 C 30.429688 52.910156 28.617188 53.777344 26.398438 52.828125 C 22.324219 51.085938 19.863281 46.351562 19.796875 40.128906 C 19.769531 37.859375 19.609375 36.003906 19.433594 36.003906 C 18.664062 35.996094 15.273438 40.371094 14.15625 42.8125 C 12.324219 46.816406 12.152344 50.125 13.492188 55.617188 C 14.488281 59.695312 14.554688 60.585938 14.039062 63.058594 C 13.402344 66.121094 10.769531 71.96875 8.574219 75.207031 C 7.808594 76.332031 6.128906 78.78125 4.84375 80.65625 C 2.824219 83.59375 2.5 84.40625 2.5 86.550781 C 2.5 92.359375 7.671875 97.460938 13.585938 97.488281 C 15.683594 97.5 16.5 97.109375 21.492188 93.710938 C 28.117188 89.203125 33.175781 86.707031 37.195312 85.964844 C 39.746094 85.496094 40.714844 85.570312 44.441406 86.519531 C 49.632812 87.84375 53.222656 87.65625 57.15625 85.859375 C 59.621094 84.726562 64.003906 81.339844 63.996094 80.566406 C 63.996094 80.390625 62.140625 80.230469 59.871094 80.203125 C 55.210938 80.152344 52.363281 79.164062 49.410156 76.574219 C 46.957031 74.421875 46.1875 72.460938 47.011719 70.476562 C 48.203125 67.59375 50.925781 66.976562 57.492188 68.101562 C 63.738281 69.171875 71.0625 67.488281 77.820312 63.425781 C 80.570312 61.773438 87.824219 55.160156 87.378906 54.710938 C 87.253906 54.585938 85.527344 54.824219 83.542969 55.242188 C 81.558594 55.660156 78.765625 56 77.332031 56 C 72.730469 56 69.5 52.699219 69.5 48 C 69.5 46.261719 69.804688 45.59375 71.261719 44.136719 L 73.027344 42.371094 L 77.386719 42.707031 C 84.527344 43.25 89.421875 41.796875 93.578125 37.894531 L 95.75 35.855469 L 92.121094 35.222656 C 90.125 34.878906 87.664062 34.164062 86.652344 33.640625 C 83.058594 31.773438 82.011719 27.070312 84.644531 24.597656 C 86.214844 23.125 91.621094 21.816406 94.65625 22.175781 L 97.089844 22.464844 L 96.230469 21.105469 C 95.753906 20.359375 94.976562 19.300781 94.496094 18.75 C 92.113281 16.015625 91.949219 13.789062 93.75 8.5 C 94.4375 6.476562 95 4.765625 95 4.695312 C 95 4.621094 93.039062 5.226562 90.648438 6.035156 C 85.386719 7.8125 83.898438 7.652344 80.617188 4.941406 C 79.324219 3.875 78.09375 3 77.882812 3 C 77.671875 3 77.5 4.421875 77.5 6.160156 "/>
</g>
</svg>
