<?xml version="1.0" encoding="UTF-8"?>
<svg xmlns="http://www.w3.org/2000/svg" xmlns:xlink="http://www.w3.org/1999/xlink" width="24px" height="24px" viewBox="0 0 24 24" version="1.1">
<g id="surface1">
<path style=" stroke:none;fill-rule:evenodd;fill:rgb(0%,0%,0%);fill-opacity:1;" d="M 15.234375 0.453125 C 14.394531 1.039062 13.746094 1.90625 13.417969 2.878906 C 13.203125 3.507812 13.15625 3.914062 13.167969 4.980469 C 13.175781 6.023438 13.140625 6.34375 12.992188 6.511719 C 12.554688 7 11.371094 6.570312 11.1875 5.855469 C 11.054688 5.351562 11.292969 3.832031 11.707031 2.523438 C 11.878906 1.980469 11.996094 1.515625 11.96875 1.488281 C 11.878906 1.398438 10.308594 2.652344 9.585938 3.394531 C 8.304688 4.707031 7.472656 6.21875 7.148438 7.824219 C 6.921875 8.933594 6.914062 9.375 7.097656 10.570312 C 7.304688 11.949219 7.054688 12.488281 6.402344 12.058594 C 5.523438 11.480469 5.125 10 5.441406 8.453125 C 5.546875 7.9375 5.609375 7.492188 5.582031 7.460938 C 5.476562 7.355469 4.367188 8.101562 3.824219 8.644531 C 3.125 9.34375 2.695312 10.175781 2.507812 11.179688 C 2.386719 11.84375 2.398438 12.082031 2.589844 12.90625 C 2.898438 14.242188 2.871094 15.132812 2.5 16.042969 C 2.183594 16.808594 1.453125 18.019531 0.566406 19.238281 C 0.0820312 19.910156 0.0585938 19.972656 0.0664062 20.800781 C 0.0703125 21.800781 0.3125 22.363281 1.039062 23.0625 C 1.914062 23.90625 3.1875 24.226562 4.113281 23.835938 C 4.328125 23.75 4.933594 23.363281 5.460938 22.984375 C 6.660156 22.121094 8.105469 21.386719 8.929688 21.222656 C 9.464844 21.113281 9.722656 21.136719 10.628906 21.363281 C 11.441406 21.566406 11.882812 21.613281 12.476562 21.558594 C 13.53125 21.460938 14.816406 20.828125 15.472656 20.082031 C 15.933594 19.554688 16.738281 18.359375 16.625 18.359375 C 16.597656 18.359375 16.207031 18.445312 15.757812 18.550781 C 14.226562 18.910156 12.882812 18.632812 12.078125 17.78125 C 11.832031 17.523438 11.757812 17.351562 11.816406 17.171875 C 11.925781 16.824219 12.363281 16.746094 13.324219 16.902344 C 16.058594 17.355469 18.539062 16.472656 20.746094 14.265625 C 21.386719 13.625 22.597656 12.117188 22.523438 12.042969 C 22.503906 12.023438 22.140625 12.113281 21.714844 12.246094 C 20.464844 12.628906 18.59375 12.976562 18.226562 12.898438 C 17.390625 12.714844 16.9375 11.390625 17.566406 10.976562 C 17.796875 10.828125 18.039062 10.804688 18.738281 10.867188 C 20.824219 11.054688 22.609375 10.242188 23.632812 8.652344 C 23.835938 8.335938 24 8.042969 24 8 C 24 7.960938 23.769531 7.953125 23.488281 7.992188 C 22.902344 8.070312 21.632812 7.886719 21.152344 7.65625 C 20.765625 7.472656 20.472656 6.933594 20.578125 6.605469 C 20.714844 6.175781 21.59375 5.957031 22.871094 6.035156 L 24.015625 6.101562 L 23.933594 5.722656 C 23.796875 5.09375 23.6875 4.878906 23.234375 4.335938 C 22.675781 3.667969 22.679688 3.410156 23.277344 1.632812 C 23.550781 0.808594 23.691406 0.242188 23.605469 0.273438 C 23.527344 0.300781 22.835938 0.53125 22.074219 0.78125 C 20.523438 1.292969 20.28125 1.285156 19.636719 0.71875 C 19.199219 0.335938 18.507812 0 18.152344 0 C 17.953125 0 17.9375 0.109375 17.972656 1.230469 C 18.023438 2.738281 17.824219 3.277344 17.195312 3.335938 C 16.445312 3.410156 16.066406 2.621094 16.046875 0.9375 C 16.042969 0.421875 16.003906 0 15.960938 0 C 15.917969 0 15.589844 0.203125 15.234375 0.453125 M 18.601562 1.476562 C 18.601562 3.03125 18.074219 3.960938 17.191406 3.960938 C 16.285156 3.960938 15.71875 3.273438 15.476562 1.882812 C 15.386719 1.378906 15.28125 1.085938 15.195312 1.113281 C 14.878906 1.21875 14.140625 2.390625 13.902344 3.167969 C 13.691406 3.847656 13.65625 4.183594 13.710938 5.089844 C 13.789062 6.371094 13.644531 6.847656 13.09375 7.132812 C 12.085938 7.652344 10.664062 6.890625 10.484375 5.730469 C 10.453125 5.515625 10.53125 4.800781 10.660156 4.140625 C 10.789062 3.480469 10.882812 2.925781 10.863281 2.90625 C 10.847656 2.886719 10.390625 3.339844 9.855469 3.90625 C 9.085938 4.71875 8.761719 5.179688 8.347656 6.039062 C 7.554688 7.691406 7.386719 8.9375 7.699219 10.777344 C 7.828125 11.511719 7.816406 11.640625 7.609375 12.066406 C 7.300781 12.699219 6.867188 12.90625 6.335938 12.679688 C 5.359375 12.261719 4.765625 11.125 4.75 9.628906 C 4.746094 9.085938 4.707031 8.640625 4.664062 8.640625 C 4.480469 8.640625 3.664062 9.6875 3.398438 10.273438 C 2.957031 11.234375 2.917969 12.03125 3.238281 13.347656 C 3.476562 14.328125 3.492188 14.539062 3.371094 15.132812 C 3.21875 15.871094 2.585938 17.273438 2.058594 18.050781 C 1.875 18.320312 1.472656 18.90625 1.160156 19.359375 C 0.675781 20.0625 0.601562 20.257812 0.601562 20.773438 C 0.601562 22.167969 1.839844 23.390625 3.261719 23.398438 C 3.765625 23.398438 3.960938 23.304688 5.15625 22.492188 C 6.75 21.410156 7.960938 20.808594 8.925781 20.632812 C 9.539062 20.519531 9.773438 20.535156 10.664062 20.765625 C 11.910156 21.082031 12.773438 21.039062 13.71875 20.605469 C 14.308594 20.335938 15.359375 19.523438 15.359375 19.335938 C 15.359375 19.292969 14.914062 19.253906 14.371094 19.25 C 13.25 19.238281 12.566406 19 11.859375 18.378906 C 11.269531 17.859375 11.085938 17.390625 11.28125 16.914062 C 11.570312 16.222656 12.222656 16.074219 13.796875 16.34375 C 15.296875 16.601562 17.054688 16.195312 18.675781 15.222656 C 19.335938 14.824219 21.078125 13.238281 20.972656 13.132812 C 20.941406 13.101562 20.527344 13.15625 20.050781 13.257812 C 19.574219 13.359375 18.902344 13.441406 18.558594 13.441406 C 17.457031 13.441406 16.679688 12.648438 16.679688 11.519531 C 16.679688 11.101562 16.753906 10.941406 17.101562 10.59375 L 17.527344 10.167969 L 18.574219 10.25 C 20.285156 10.378906 21.460938 10.03125 22.457031 9.09375 L 22.980469 8.605469 L 22.109375 8.453125 C 21.628906 8.371094 21.039062 8.199219 20.796875 8.074219 C 19.933594 7.625 19.683594 6.496094 20.316406 5.902344 C 20.691406 5.550781 21.988281 5.234375 22.71875 5.320312 L 23.300781 5.390625 L 23.09375 5.066406 C 22.980469 4.886719 22.792969 4.632812 22.679688 4.5 C 22.105469 3.84375 22.066406 3.308594 22.5 2.039062 C 22.664062 1.554688 22.800781 1.144531 22.800781 1.125 C 22.800781 1.109375 22.328125 1.253906 21.753906 1.449219 C 20.492188 1.875 20.136719 1.835938 19.347656 1.1875 C 19.039062 0.929688 18.742188 0.71875 18.691406 0.71875 C 18.640625 0.71875 18.601562 1.0625 18.601562 1.476562 "/>
</g>
</svg>
