<?xml version="1.0" encoding="UTF-8"?>
<svg xmlns="http://www.w3.org/2000/svg" xmlns:xlink="http://www.w3.org/1999/xlink" width="100px" height="100px" viewBox="0 0 100 100" version="1.1">
<g id="surface1">
<path style=" stroke:none;fill-rule:evenodd;fill:rgb(0%,0%,0%);fill-opacity:1;" d="M 8.546875 10.785156 C 5.160156 13.636719 5.753906 19.320312 9.632812 21.160156 C 10.605469 21.621094 11.636719 22 11.925781 22 C 12.214844 22 12.832031 22.800781 13.296875 23.78125 C 13.761719 24.761719 14.949219 26.109375 15.9375 26.78125 C 17.71875 27.988281 17.828125 28 29.839844 28 L 41.949219 28 L 41.222656 29.734375 C 40.296875 31.960938 40.292969 36.539062 41.222656 38.761719 C 41.925781 40.445312 41.914062 40.503906 40.714844 40.804688 C 38.972656 41.242188 37.5 43.328125 37.5 45.355469 C 37.5 47.617188 39.773438 50 41.9375 50 L 43.449219 50 L 42.679688 51.839844 C 41.703125 54.179688 42.125 57.261719 43.691406 59.230469 L 44.859375 60.695312 L 43.179688 62.421875 C 42.257812 63.375 41.5 64.457031 41.5 64.828125 C 41.5 65.265625 40.878906 65.5 39.726562 65.5 C 37.355469 65.5 35.171875 66.695312 33.980469 68.648438 C 32.800781 70.582031 32.742188 72.265625 33.773438 74.726562 C 34.636719 76.792969 34.382812 78.203125 32.855469 79.875 C 31.535156 81.316406 30.742188 81.292969 28.910156 79.75 C 27.753906 78.78125 26.859375 78.5 24.910156 78.5 C 22.734375 78.5 22.179688 78.71875 20.738281 80.160156 C 18.6875 82.210938 18.136719 84.660156 19.171875 87.136719 C 20.34375 89.945312 22.277344 90.675781 27.722656 90.371094 C 35.617188 89.929688 40.546875 87.234375 42.984375 82.03125 C 43.636719 80.640625 44.359375 79.5 44.585938 79.5 C 44.8125 79.5 45 80.792969 45.003906 82.375 C 45.007812 88.113281 46.476562 90.5 50 90.5 C 53.523438 90.5 54.992188 88.113281 54.996094 82.375 C 55 80.792969 55.1875 79.5 55.414062 79.5 C 55.640625 79.5 56.363281 80.640625 57.015625 82.03125 C 59.453125 87.234375 64.382812 89.929688 72.277344 90.371094 C 77.648438 90.671875 79.402344 90.019531 80.730469 87.222656 C 81.902344 84.753906 81.386719 82.289062 79.261719 80.160156 C 77.820312 78.71875 77.265625 78.5 75.089844 78.5 C 73.140625 78.5 72.246094 78.78125 71.089844 79.75 C 69.257812 81.292969 68.464844 81.316406 67.144531 79.875 C 65.617188 78.203125 65.363281 76.792969 66.226562 74.726562 C 67.257812 72.265625 67.199219 70.582031 66.019531 68.648438 C 64.851562 66.730469 62.652344 65.5 60.398438 65.5 C 59.035156 65.5 58.625 65.230469 58.070312 63.976562 C 57.699219 63.140625 56.875 62.113281 56.234375 61.695312 L 55.074219 60.933594 L 56.273438 59.167969 C 57.894531 56.777344 58.21875 54.648438 57.34375 52.109375 L 56.617188 50 L 58.097656 50 C 60.222656 50 62.5 47.601562 62.5 45.355469 C 62.5 43.328125 61.027344 41.242188 59.285156 40.804688 C 58.085938 40.503906 58.074219 40.445312 58.777344 38.761719 C 59.707031 36.539062 59.703125 31.960938 58.777344 29.734375 L 58.050781 28 L 70.160156 28 C 82.171875 28 82.28125 27.988281 84.0625 26.78125 C 85.050781 26.109375 86.238281 24.761719 86.703125 23.78125 C 87.167969 22.800781 87.785156 22 88.074219 22 C 88.363281 22 89.394531 21.621094 90.367188 21.160156 C 92.863281 19.976562 94.34375 16.625 93.546875 13.960938 C 93.238281 12.921875 92.292969 11.496094 91.453125 10.785156 L 89.921875 9.5 L 10.078125 9.5 L 8.546875 10.785156 M 10.5 13.5 C 9.253906 14.746094 9.214844 16.585938 10.414062 17.671875 C 11.25 18.425781 14.722656 18.5 50.085938 18.5 C 87 18.5 88.882812 18.457031 89.671875 17.585938 C 90.785156 16.355469 90.714844 14.714844 89.5 13.5 C 88.515625 12.515625 87.832031 12.5 50 12.5 C 12.167969 12.5 11.484375 12.515625 10.5 13.5 M 16.328125 22.769531 C 17.167969 24.957031 17.804688 25 49.953125 25 C 70.570312 25 80.832031 24.828125 81.628906 24.464844 C 82.273438 24.171875 83.074219 23.496094 83.40625 22.964844 C 84 22.015625 83.464844 22 50.019531 22 C 19.648438 22 16.0625 22.082031 16.328125 22.769531 M 47.136719 28.324219 C 45.027344 28.785156 44 30.804688 44.015625 34.441406 C 44.039062 39.144531 45.378906 40.5 50 40.5 C 54.632812 40.5 55.960938 39.144531 55.984375 34.402344 C 56.003906 29.867188 54.917969 28.527344 51 28.265625 C 49.488281 28.164062 47.746094 28.191406 47.136719 28.324219 M 40.824219 44.734375 C 40.667969 45.140625 40.886719 45.816406 41.308594 46.234375 C 42.433594 47.359375 57.566406 47.359375 58.691406 46.234375 C 59.113281 45.816406 59.332031 45.140625 59.175781 44.734375 C 58.753906 43.640625 41.246094 43.640625 40.824219 44.734375 M 47.023438 51.398438 C 44.484375 53.941406 45.085938 57.460938 48.289062 58.800781 C 49.773438 59.417969 50.226562 59.417969 51.710938 58.800781 C 56.0625 56.980469 55.144531 50.925781 50.398438 50.171875 C 48.796875 49.917969 48.339844 50.085938 47.023438 51.398438 M 47.710938 62.984375 C 47.136719 63.214844 46.066406 64.117188 45.335938 64.992188 C 44.15625 66.390625 44 67 44.007812 70.164062 C 44.019531 75.019531 44.777344 76.046875 45.128906 71.679688 C 45.371094 68.675781 45.582031 68.121094 46.960938 66.890625 C 47.921875 66.03125 49.082031 65.5 50 65.5 C 50.917969 65.5 52.078125 66.03125 53.039062 66.890625 C 54.417969 68.121094 54.628906 68.675781 54.871094 71.679688 C 55.214844 75.976562 55.980469 75.050781 55.992188 70.328125 C 56 66.328125 55.101562 64.398438 52.695312 63.257812 C 50.945312 62.425781 49.308594 62.335938 47.710938 62.984375 M 37.003906 69.742188 C 36.609375 70.222656 36.507812 71.15625 36.722656 72.367188 C 37.652344 77.636719 37.609375 78.699219 36.402344 80.488281 C 33.808594 84.324219 29.335938 85.742188 27.699219 83.242188 C 25.964844 80.597656 22 81.46875 22 84.5 C 22 86.820312 23.785156 87.703125 27.632812 87.296875 C 35.136719 86.5 39.082031 84.015625 40.734375 79.046875 C 41.410156 77.011719 41.476562 76.148438 41.042969 74.914062 C 40.746094 74.054688 40.5 72.371094 40.5 71.175781 C 40.5 69.113281 40.425781 69 39.0625 69 C 38.269531 69 37.34375 69.335938 37.003906 69.742188 M 48.855469 69.3125 C 48.660156 69.507812 48.5 73.425781 48.5 78.023438 C 48.5 84.839844 48.636719 86.492188 49.25 87 C 49.847656 87.496094 50.152344 87.496094 50.761719 86.992188 C 51.398438 86.460938 51.5 84.972656 51.386719 77.804688 C 51.257812 69.625 51.203125 69.242188 50.230469 69.105469 C 49.667969 69.023438 49.050781 69.117188 48.855469 69.3125 M 59.496094 70.875 C 59.496094 71.90625 59.257812 73.605469 58.964844 74.652344 C 57.753906 79.023438 61.40625 84.566406 66.523438 86.132812 C 70.980469 87.496094 75.253906 87.777344 76.742188 86.800781 C 78.28125 85.792969 78.394531 83.894531 77 82.5 C 75.589844 81.089844 74.125 81.257812 72.59375 83 C 70.285156 85.628906 66.328125 84.523438 63.597656 80.488281 C 62.386719 78.695312 62.347656 77.679688 63.289062 72.289062 C 63.667969 70.097656 62.789062 69 60.65625 69 C 59.65625 69 59.5 69.25 59.496094 70.875 "/>
</g>
</svg>
