<?xml version="1.0" encoding="UTF-8"?>
<svg xmlns="http://www.w3.org/2000/svg" xmlns:xlink="http://www.w3.org/1999/xlink" width="24px" height="24px" viewBox="0 0 24 24" version="1.1">
<g id="surface1">
<path style=" stroke:none;fill-rule:evenodd;fill:rgb(0%,0%,0%);fill-opacity:1;" d="M 2.050781 2.589844 C 1.238281 3.273438 1.382812 4.636719 2.3125 5.078125 C 2.546875 5.1875 2.792969 5.28125 2.863281 5.28125 C 2.933594 5.28125 3.078125 5.472656 3.191406 5.707031 C 3.304688 5.941406 3.589844 6.265625 3.824219 6.425781 C 4.253906 6.71875 4.277344 6.71875 7.160156 6.71875 L 10.066406 6.71875 L 9.894531 7.136719 C 9.671875 7.671875 9.671875 8.769531 9.894531 9.304688 C 10.0625 9.707031 10.058594 9.722656 9.773438 9.792969 C 9.355469 9.898438 9 10.398438 9 10.886719 C 9 11.429688 9.546875 12 10.066406 12 L 10.429688 12 L 10.242188 12.441406 C 10.007812 13.003906 10.109375 13.742188 10.484375 14.214844 L 10.765625 14.566406 L 10.363281 14.980469 C 10.140625 15.210938 9.960938 15.46875 9.960938 15.558594 C 9.960938 15.664062 9.8125 15.71875 9.535156 15.71875 C 8.964844 15.71875 8.441406 16.007812 8.15625 16.476562 C 7.871094 16.941406 7.859375 17.34375 8.105469 17.933594 C 8.3125 18.429688 8.253906 18.769531 7.886719 19.171875 C 7.570312 19.515625 7.378906 19.511719 6.9375 19.140625 C 6.660156 18.90625 6.445312 18.839844 5.980469 18.839844 C 5.457031 18.839844 5.324219 18.894531 4.976562 19.238281 C 4.484375 19.730469 4.351562 20.320312 4.601562 20.914062 C 4.882812 21.585938 5.347656 21.761719 6.652344 21.6875 C 8.546875 21.582031 9.730469 20.9375 10.316406 19.6875 C 10.472656 19.355469 10.644531 19.078125 10.699219 19.078125 C 10.753906 19.078125 10.800781 19.390625 10.800781 19.769531 C 10.800781 21.148438 11.152344 21.71875 12 21.71875 C 12.847656 21.71875 13.199219 21.148438 13.199219 19.769531 C 13.199219 19.390625 13.246094 19.078125 13.300781 19.078125 C 13.355469 19.078125 13.527344 19.355469 13.683594 19.6875 C 14.269531 20.9375 15.453125 21.582031 17.347656 21.6875 C 18.636719 21.761719 19.054688 21.605469 19.375 20.933594 C 19.65625 20.339844 19.535156 19.75 19.023438 19.238281 C 18.675781 18.894531 18.542969 18.839844 18.019531 18.839844 C 17.554688 18.839844 17.339844 18.90625 17.0625 19.140625 C 16.621094 19.511719 16.429688 19.515625 16.113281 19.171875 C 15.746094 18.769531 15.6875 18.429688 15.894531 17.933594 C 16.140625 17.34375 16.128906 16.941406 15.84375 16.476562 C 15.5625 16.015625 15.035156 15.71875 14.496094 15.71875 C 14.167969 15.71875 14.070312 15.65625 13.9375 15.355469 C 13.847656 15.152344 13.648438 14.90625 13.496094 14.808594 L 13.21875 14.625 L 13.503906 14.199219 C 13.894531 13.625 13.972656 13.117188 13.761719 12.507812 L 13.589844 12 L 13.941406 12 C 14.453125 12 15 11.425781 15 10.886719 C 15 10.398438 14.644531 9.898438 14.226562 9.792969 C 13.941406 9.722656 13.9375 9.707031 14.105469 9.304688 C 14.328125 8.769531 14.328125 7.671875 14.105469 7.136719 L 13.933594 6.71875 L 16.839844 6.71875 C 19.722656 6.71875 19.746094 6.71875 20.175781 6.425781 C 20.410156 6.265625 20.695312 5.941406 20.808594 5.707031 C 20.921875 5.472656 21.066406 5.28125 21.136719 5.28125 C 21.207031 5.28125 21.453125 5.1875 21.6875 5.078125 C 22.289062 4.792969 22.644531 3.988281 22.453125 3.351562 C 22.375 3.101562 22.152344 2.757812 21.949219 2.589844 L 21.582031 2.28125 L 2.417969 2.28125 L 2.050781 2.589844 M 2.519531 3.238281 C 2.21875 3.539062 2.210938 3.980469 2.5 4.242188 C 2.699219 4.421875 3.535156 4.441406 12.019531 4.441406 C 20.878906 4.441406 21.332031 4.429688 21.519531 4.21875 C 21.789062 3.925781 21.773438 3.53125 21.480469 3.238281 C 21.246094 3.003906 21.078125 3 12 3 C 2.921875 3 2.753906 3.003906 2.519531 3.238281 M 3.917969 5.464844 C 4.121094 5.988281 4.273438 6 11.988281 6 C 16.9375 6 19.398438 5.957031 19.589844 5.871094 C 19.746094 5.800781 19.9375 5.640625 20.015625 5.511719 C 20.160156 5.285156 20.03125 5.28125 12.003906 5.28125 C 4.714844 5.28125 3.855469 5.300781 3.917969 5.464844 M 11.3125 6.796875 C 10.808594 6.90625 10.558594 7.394531 10.5625 8.265625 C 10.570312 9.394531 10.890625 9.71875 12 9.71875 C 13.113281 9.71875 13.429688 9.394531 13.4375 8.257812 C 13.441406 7.167969 13.179688 6.847656 12.238281 6.785156 C 11.878906 6.757812 11.460938 6.765625 11.3125 6.796875 M 9.796875 10.738281 C 9.761719 10.832031 9.8125 10.996094 9.914062 11.097656 C 10.183594 11.367188 13.816406 11.367188 14.085938 11.097656 C 14.1875 10.996094 14.238281 10.832031 14.203125 10.738281 C 14.101562 10.472656 9.898438 10.472656 9.796875 10.738281 M 11.285156 12.335938 C 10.675781 12.945312 10.820312 13.789062 11.589844 14.113281 C 11.945312 14.261719 12.054688 14.261719 12.410156 14.113281 C 13.457031 13.675781 13.234375 12.222656 12.09375 12.042969 C 11.710938 11.980469 11.601562 12.019531 11.285156 12.335938 M 11.449219 15.117188 C 11.3125 15.171875 11.054688 15.386719 10.878906 15.597656 C 10.597656 15.933594 10.558594 16.082031 10.5625 16.839844 C 10.5625 18.003906 10.746094 18.25 10.832031 17.203125 C 10.890625 16.480469 10.941406 16.347656 11.269531 16.054688 C 11.5 15.847656 11.78125 15.71875 12 15.71875 C 12.21875 15.71875 12.5 15.847656 12.730469 16.054688 C 13.058594 16.347656 13.109375 16.480469 13.167969 17.203125 C 13.25 18.234375 13.4375 18.011719 13.4375 16.878906 C 13.441406 15.917969 13.222656 15.457031 12.648438 15.183594 C 12.226562 14.980469 11.835938 14.960938 11.449219 15.117188 M 8.882812 16.738281 C 8.785156 16.851562 8.761719 17.078125 8.8125 17.367188 C 9.035156 18.632812 9.027344 18.886719 8.734375 19.316406 C 8.113281 20.238281 7.039062 20.578125 6.648438 19.980469 C 6.230469 19.34375 5.28125 19.554688 5.28125 20.28125 C 5.28125 20.835938 5.707031 21.050781 6.632812 20.949219 C 8.433594 20.761719 9.378906 20.164062 9.777344 18.972656 C 9.9375 18.484375 9.953125 18.277344 9.851562 17.980469 C 9.777344 17.773438 9.71875 17.371094 9.71875 17.082031 C 9.71875 16.585938 9.703125 16.558594 9.375 16.558594 C 9.183594 16.558594 8.960938 16.640625 8.882812 16.738281 M 11.726562 16.636719 C 11.679688 16.683594 11.640625 17.621094 11.640625 18.726562 C 11.640625 20.363281 11.671875 20.757812 11.820312 20.878906 C 11.964844 21 12.035156 21 12.183594 20.878906 C 12.335938 20.75 12.359375 20.394531 12.332031 18.671875 C 12.300781 16.710938 12.289062 16.617188 12.054688 16.585938 C 11.921875 16.566406 11.773438 16.589844 11.726562 16.636719 M 14.277344 17.011719 C 14.277344 17.257812 14.222656 17.664062 14.152344 17.917969 C 13.859375 18.964844 14.738281 20.296875 15.964844 20.671875 C 17.035156 21 18.0625 21.066406 18.417969 20.832031 C 18.789062 20.589844 18.816406 20.136719 18.480469 19.800781 C 18.140625 19.460938 17.789062 19.5 17.421875 19.921875 C 16.867188 20.550781 15.917969 20.285156 15.265625 19.316406 C 14.972656 18.886719 14.964844 18.644531 15.1875 17.351562 C 15.28125 16.824219 15.070312 16.558594 14.558594 16.558594 C 14.316406 16.558594 14.28125 16.621094 14.277344 17.011719 "/>
</g>
</svg>
