<?xml version="1.0" encoding="UTF-8"?>
<svg xmlns="http://www.w3.org/2000/svg" xmlns:xlink="http://www.w3.org/1999/xlink" width="24px" height="24px" viewBox="0 0 24 24" version="1.1">
<g id="surface1">
<path style=" stroke:none;fill-rule:nonzero;fill:rgb(0%,0%,0%);fill-opacity:1;" d="M 18.71875 7.558594 L 17.128906 7.960938 L 6.871094 7.960938 L 5.28125 7.558594 L 8.4375 6.527344 L 6.25 3.425781 L 10.699219 4.941406 L 11.996094 0.933594 L 13.300781 4.941406 L 17.753906 3.425781 L 15.5625 6.527344 Z M 18.71875 7.558594 "/>
<path style=" stroke:none;fill-rule:nonzero;fill:rgb(0%,0%,0%);fill-opacity:1;" d="M 7.210938 15.480469 C 7.453125 16.078125 7.644531 16.296875 7.785156 16.914062 C 7.921875 16.296875 8.113281 16.078125 8.359375 15.480469 C 8.589844 14.894531 8.242188 14.3125 7.785156 14.3125 C 7.324219 14.3125 6.980469 14.894531 7.210938 15.480469 Z M 15.640625 15.480469 C 15.886719 16.078125 16.078125 16.296875 16.21875 16.914062 C 16.355469 16.296875 16.546875 16.078125 16.789062 15.480469 C 17.023438 14.894531 16.675781 14.3125 16.21875 14.3125 C 15.757812 14.3125 15.410156 14.894531 15.640625 15.480469 Z M 12.429688 11.070312 C 12.660156 10.492188 12.316406 9.90625 11.855469 9.90625 C 11.398438 9.90625 11.050781 10.492188 11.28125 11.070312 C 11.527344 11.671875 11.71875 11.890625 11.855469 12.507812 C 11.996094 11.890625 12.1875 11.671875 12.429688 11.070312 Z M 13.664062 13.277344 C 13.90625 13.875 14.097656 14.09375 14.238281 14.710938 C 14.375 14.09375 14.566406 13.875 14.808594 13.277344 C 15.042969 12.695312 14.695312 12.109375 14.238281 12.109375 C 13.777344 12.109375 13.429688 12.695312 13.664062 13.277344 Z M 12.542969 15.496094 C 12.777344 14.914062 12.429688 14.328125 11.96875 14.328125 C 11.511719 14.328125 11.164062 14.914062 11.398438 15.496094 C 11.636719 16.09375 11.832031 16.3125 11.96875 16.933594 C 12.109375 16.3125 12.300781 16.09375 12.542969 15.496094 Z M 17.546875 11.070312 C 17.785156 10.492188 17.4375 9.90625 16.976562 9.90625 C 16.515625 9.90625 16.167969 10.492188 16.402344 11.070312 C 16.644531 11.671875 16.835938 11.890625 16.976562 12.507812 C 17.117188 11.890625 17.308594 11.671875 17.546875 11.070312 Z M 11.429688 19.898438 C 11.667969 20.496094 11.859375 20.71875 12 21.335938 C 12.140625 20.71875 12.332031 20.496094 12.570312 19.898438 C 12.808594 19.320312 12.460938 18.734375 12 18.734375 C 11.539062 18.734375 11.191406 19.320312 11.429688 19.898438 Z M 10.148438 17.695312 C 10.378906 17.117188 10.03125 16.53125 9.574219 16.53125 C 9.113281 16.53125 8.769531 17.117188 9 17.695312 C 9.246094 18.296875 9.433594 18.515625 9.574219 19.132812 C 9.714844 18.515625 9.90625 18.296875 10.148438 17.695312 Z M 9.191406 13.277344 C 9.433594 13.875 9.625 14.09375 9.761719 14.710938 C 9.902344 14.09375 10.09375 13.875 10.335938 13.277344 C 10.570312 12.695312 10.222656 12.109375 9.761719 12.109375 C 9.304688 12.109375 8.957031 12.695312 9.191406 13.277344 Z M 13.851562 17.695312 C 14.09375 18.296875 14.285156 18.515625 14.425781 19.132812 C 14.566406 18.515625 14.757812 18.296875 15 17.695312 C 15.230469 17.117188 14.886719 16.53125 14.425781 16.53125 C 13.964844 16.53125 13.621094 17.117188 13.851562 17.695312 Z M 6.453125 11.070312 C 6.691406 11.671875 6.882812 11.890625 7.023438 12.507812 C 7.164062 11.890625 7.355469 11.671875 7.59375 11.070312 C 7.832031 10.492188 7.484375 9.90625 7.023438 9.90625 C 6.5625 9.90625 6.214844 10.492188 6.453125 11.070312 Z M 17.257812 8.5625 C 17.726562 8.835938 19.304688 9.945312 19.277344 12.289062 C 19.246094 15.042969 15.164062 22.796875 12 22.796875 C 8.835938 22.796875 4.753906 15.042969 4.722656 12.289062 C 4.695312 9.945312 6.273438 8.835938 6.742188 8.5625 C 6.824219 8.515625 6.871094 8.492188 6.871094 8.492188 L 17.128906 8.492188 C 17.128906 8.492188 17.175781 8.515625 17.257812 8.5625 Z M 17.257812 8.5625 "/>
</g>
</svg>
