<?xml version="1.0" encoding="UTF-8"?>
<svg xmlns="http://www.w3.org/2000/svg" xmlns:xlink="http://www.w3.org/1999/xlink" width="100px" height="100px" viewBox="0 0 100 100" version="1.1">
<g id="surface1">
<path style=" stroke:none;fill-rule:nonzero;fill:rgb(0%,0%,0%);fill-opacity:1;" d="M 77.992188 31.496094 L 71.363281 33.171875 L 28.636719 33.171875 L 22.007812 31.496094 L 35.15625 27.203125 L 26.035156 14.269531 L 44.585938 20.589844 L 49.980469 3.890625 L 55.414062 20.589844 L 73.96875 14.269531 L 64.84375 27.203125 Z M 77.992188 31.496094 "/>
<path style=" stroke:none;fill-rule:nonzero;fill:rgb(0%,0%,0%);fill-opacity:1;" d="M 30.050781 64.492188 C 31.050781 66.984375 31.855469 67.902344 32.429688 70.472656 C 33.015625 67.902344 33.808594 66.988281 34.824219 64.492188 C 35.796875 62.066406 34.351562 59.632812 32.429688 59.632812 C 30.523438 59.632812 29.078125 62.066406 30.050781 64.492188 Z M 65.175781 64.492188 C 66.191406 66.984375 66.984375 67.902344 67.570312 70.472656 C 68.144531 67.902344 68.949219 66.988281 69.953125 64.492188 C 70.921875 62.066406 69.476562 59.632812 67.570312 59.632812 C 65.648438 59.632812 64.203125 62.066406 65.175781 64.492188 Z M 51.785156 46.132812 C 52.757812 43.714844 51.3125 41.277344 49.402344 41.277344 C 47.484375 41.277344 46.039062 43.714844 47.011719 46.132812 C 48.027344 48.632812 48.820312 49.539062 49.402344 52.121094 C 49.976562 49.539062 50.78125 48.636719 51.785156 46.132812 Z M 56.925781 55.316406 C 57.941406 57.8125 58.734375 58.726562 59.320312 61.296875 C 59.894531 58.726562 60.699219 57.8125 61.703125 55.316406 C 62.675781 52.890625 61.226562 50.453125 59.320312 50.453125 C 57.398438 50.453125 55.957031 52.894531 56.925781 55.316406 Z M 52.261719 64.5625 C 53.230469 62.136719 51.785156 59.707031 49.867188 59.707031 C 47.960938 59.707031 46.515625 62.136719 47.484375 64.5625 C 48.488281 67.054688 49.292969 67.96875 49.867188 70.550781 C 50.453125 67.96875 51.257812 67.054688 52.261719 64.5625 Z M 73.117188 46.132812 C 74.097656 43.714844 72.652344 41.277344 70.734375 41.277344 C 68.816406 41.277344 67.371094 43.714844 68.351562 46.132812 C 69.355469 48.632812 70.148438 49.539062 70.734375 52.121094 C 71.320312 49.539062 72.113281 48.636719 73.117188 46.132812 Z M 47.617188 82.914062 C 48.621094 85.40625 49.414062 86.320312 50 88.902344 C 50.585938 86.320312 51.378906 85.40625 52.382812 82.914062 C 53.363281 80.496094 51.917969 78.058594 50 78.058594 C 48.082031 78.058594 46.636719 80.496094 47.617188 82.914062 Z M 42.28125 73.734375 C 43.25 71.320312 41.804688 68.882812 39.898438 68.882812 C 37.980469 68.882812 36.535156 71.320312 37.503906 73.734375 C 38.519531 76.230469 39.3125 77.144531 39.898438 79.726562 C 40.472656 77.144531 41.277344 76.230469 42.28125 73.734375 Z M 38.296875 55.316406 C 39.300781 57.8125 40.105469 58.726562 40.679688 61.296875 C 41.265625 58.726562 42.058594 57.8125 43.074219 55.316406 C 44.042969 52.890625 42.597656 50.453125 40.679688 50.453125 C 38.773438 50.453125 37.328125 52.894531 38.296875 55.316406 Z M 57.722656 73.734375 C 58.726562 76.230469 59.527344 77.144531 60.101562 79.726562 C 60.6875 77.144531 61.492188 76.230469 62.496094 73.734375 C 63.46875 71.320312 62.023438 68.882812 60.101562 68.882812 C 58.195312 68.886719 56.75 71.320312 57.722656 73.734375 Z M 26.882812 46.132812 C 27.886719 48.632812 28.679688 49.539062 29.265625 52.121094 C 29.847656 49.539062 30.644531 48.636719 31.648438 46.132812 C 32.628906 43.714844 31.183594 41.277344 29.265625 41.277344 C 27.347656 41.277344 25.902344 43.714844 26.882812 46.132812 Z M 71.902344 35.675781 C 73.855469 36.824219 80.4375 41.433594 80.328125 51.203125 C 80.195312 62.6875 63.191406 94.988281 50 94.988281 C 36.808594 94.988281 19.804688 62.6875 19.671875 51.203125 C 19.558594 41.433594 26.144531 36.824219 28.097656 35.675781 C 28.4375 35.476562 28.636719 35.378906 28.636719 35.378906 L 71.363281 35.378906 C 71.363281 35.378906 71.5625 35.476562 71.902344 35.675781 Z M 71.902344 35.675781 "/>
</g>
</svg>
