<?xml version="1.0" encoding="UTF-8"?>
<svg xmlns="http://www.w3.org/2000/svg" xmlns:xlink="http://www.w3.org/1999/xlink" width="24px" height="24px" viewBox="0 0 24 24" version="1.1">
<g id="surface1">
<path style=" stroke:none;fill-rule:evenodd;fill:rgb(0%,0%,0%);fill-opacity:1;" d="M 21.03125 5.128906 C 20.902344 5.246094 20.601562 5.585938 20.363281 5.882812 C 19.957031 6.394531 19.882812 6.4375 19.082031 6.574219 C 18.125 6.738281 17.675781 6.941406 16.191406 7.875 C 15.320312 8.425781 12.949219 9.535156 10.039062 10.757812 C 9.640625 10.921875 8.765625 11.128906 8 11.234375 C 3.679688 11.832031 0.898438 13.835938 0.976562 16.289062 C 0.988281 16.703125 0.96875 17.070312 0.929688 17.109375 C 0.894531 17.144531 1.078125 17.605469 1.339844 18.128906 C 1.722656 18.898438 1.910156 19.132812 2.316406 19.371094 C 3.398438 19.996094 4.972656 20.203125 6.9375 19.972656 C 9.308594 19.695312 10.523438 19.339844 12.5625 18.320312 C 15.324219 16.9375 17.167969 15.429688 20.234375 12.054688 C 21.511719 10.648438 21.78125 10.179688 21.898438 9.121094 C 22 8.222656 22.152344 7.886719 22.886719 6.917969 L 23.417969 6.214844 L 23.171875 5.953125 C 23.011719 5.785156 22.953125 5.601562 22.996094 5.429688 C 23.089844 5.078125 22.597656 4.828125 22.214844 5.03125 C 22.035156 5.128906 21.890625 5.132812 21.726562 5.042969 C 21.410156 4.875 21.304688 4.886719 21.03125 5.128906 M 20.953125 6.050781 C 20.621094 6.488281 20.578125 6.601562 20.738281 6.601562 C 20.792969 6.601562 20.957031 6.382812 21.105469 6.121094 C 21.4375 5.53125 21.375 5.503906 20.953125 6.050781 M 22.121094 6.089844 C 21.421875 6.972656 21.425781 7.132812 22.125 6.292969 C 22.378906 5.992188 22.5625 5.722656 22.53125 5.691406 C 22.503906 5.664062 22.320312 5.84375 22.121094 6.089844 M 21.363281 6.253906 C 21.082031 6.644531 21.03125 6.796875 21.128906 6.972656 C 21.308594 7.3125 21.496094 7.25 21.40625 6.882812 C 21.351562 6.664062 21.382812 6.519531 21.503906 6.429688 C 21.6875 6.296875 21.914062 5.761719 21.789062 5.761719 C 21.75 5.761719 21.558594 5.980469 21.363281 6.253906 M 20.503906 6.089844 C 20.355469 6.28125 20.359375 6.285156 20.550781 6.136719 C 20.75 5.980469 20.8125 5.878906 20.714844 5.878906 C 20.691406 5.878906 20.59375 5.972656 20.503906 6.089844 M 22.019531 6.839844 C 21.71875 7.234375 21.539062 7.527344 21.625 7.492188 C 21.710938 7.457031 21.957031 7.1875 22.175781 6.894531 C 22.40625 6.578125 22.664062 6.359375 22.804688 6.359375 C 22.933594 6.359375 23.039062 6.304688 23.039062 6.238281 C 23.039062 6.175781 22.933594 6.121094 22.808594 6.121094 C 22.664062 6.121094 22.359375 6.398438 22.019531 6.839844 M 18.945312 6.929688 C 18.796875 7.121094 18.800781 7.125 18.988281 6.976562 C 19.191406 6.820312 19.253906 6.71875 19.15625 6.71875 C 19.128906 6.71875 19.035156 6.816406 18.945312 6.929688 M 22.203125 7.191406 C 22.046875 7.484375 22.046875 7.59375 22.199219 7.5 C 22.390625 7.382812 22.585938 6.960938 22.449219 6.960938 C 22.382812 6.960938 22.273438 7.0625 22.203125 7.191406 M 16.65625 7.839844 C 15.792969 8.386719 15.542969 8.578125 15.875 8.453125 C 16.222656 8.320312 16.101562 8.484375 15.660156 8.742188 C 15.246094 8.988281 15.101562 8.945312 15.386719 8.664062 C 15.464844 8.582031 14.332031 9.066406 12.863281 9.734375 C 11.394531 10.40625 10.21875 10.980469 10.246094 11.007812 C 10.328125 11.089844 12.472656 10.324219 13.226562 9.945312 C 13.605469 9.753906 13.957031 9.601562 14.007812 9.601562 C 14.152344 9.605469 13.519531 10.074219 13.363281 10.078125 C 13.289062 10.078125 13.15625 10.171875 13.066406 10.28125 C 12.914062 10.460938 12.941406 10.472656 13.34375 10.410156 C 13.585938 10.371094 13.804688 10.390625 13.824219 10.453125 C 13.84375 10.515625 13.96875 10.480469 14.101562 10.375 C 14.234375 10.269531 14.273438 10.214844 14.191406 10.257812 C 14.109375 10.300781 14.039062 10.285156 14.039062 10.226562 C 14.039062 10.089844 14.582031 9.839844 14.878906 9.839844 C 15.003906 9.839844 15.175781 9.742188 15.261719 9.621094 C 15.347656 9.5 15.609375 9.335938 15.839844 9.257812 C 16.652344 8.980469 18.320312 7.6875 18.101562 7.507812 C 18.078125 7.488281 17.925781 7.441406 17.761719 7.402344 C 17.535156 7.351562 17.253906 7.460938 16.65625 7.839844 M 18.300781 8.410156 C 16.628906 9.917969 15.40625 10.773438 13.800781 11.558594 C 12.382812 12.25 9.027344 13.441406 8.5 13.441406 C 8.0625 13.441406 5.90625 14.214844 5.496094 14.519531 C 5.300781 14.664062 5.070312 14.75 4.980469 14.71875 C 4.757812 14.628906 2.648438 16.082031 2.320312 16.550781 C 2.175781 16.757812 2.203125 16.769531 2.792969 16.734375 C 3.136719 16.714844 3.582031 16.632812 3.78125 16.550781 C 3.976562 16.472656 4.410156 16.390625 4.738281 16.375 C 5.625 16.328125 8.039062 15.644531 8.347656 15.355469 C 8.527344 15.183594 8.699219 15.128906 8.898438 15.179688 C 9.101562 15.230469 9.496094 15.09375 10.261719 14.699219 C 10.925781 14.355469 11.53125 14.132812 11.835938 14.113281 C 12.125 14.097656 12.472656 13.972656 12.675781 13.816406 C 12.863281 13.667969 13.398438 13.300781 13.859375 12.992188 C 15.191406 12.113281 17.890625 9.941406 18.1875 9.511719 C 18.363281 9.253906 18.359375 9.238281 18.097656 9.238281 C 17.882812 9.234375 17.953125 9.160156 18.410156 8.90625 C 19.054688 8.550781 19.21875 8.324219 18.878906 8.257812 C 18.714844 8.226562 18.769531 8.152344 19.113281 7.953125 C 19.359375 7.808594 19.558594 7.605469 19.558594 7.503906 C 19.558594 7.402344 19.546875 7.320312 19.53125 7.324219 C 19.511719 7.324219 18.960938 7.8125 18.300781 8.410156 M 17.625 7.769531 C 17.476562 7.960938 17.480469 7.964844 17.671875 7.816406 C 17.871094 7.660156 17.933594 7.558594 17.835938 7.558594 C 17.808594 7.558594 17.714844 7.65625 17.625 7.769531 M 19.921875 8.101562 C 19.921875 8.203125 19.792969 8.335938 19.632812 8.394531 C 19.476562 8.453125 19.292969 8.667969 19.222656 8.871094 C 19.148438 9.074219 19.027344 9.238281 18.945312 9.238281 C 18.867188 9.238281 18.828125 9.269531 18.863281 9.304688 C 19 9.441406 19.339844 9.1875 19.738281 8.640625 C 20.183594 8.035156 20.234375 7.921875 20.039062 7.921875 C 19.972656 7.921875 19.921875 8.003906 19.921875 8.101562 M 19.964844 8.609375 C 19.78125 8.859375 19.507812 9.234375 19.355469 9.445312 C 19.183594 9.683594 19.007812 9.804688 18.902344 9.761719 C 18.804688 9.726562 18.53125 9.816406 18.296875 9.960938 C 17.859375 10.234375 17.789062 10.441406 18.214844 10.214844 C 18.34375 10.144531 18.480469 10.121094 18.519531 10.160156 C 18.5625 10.203125 18.679688 10.164062 18.78125 10.078125 C 18.882812 9.996094 19 9.960938 19.042969 10.003906 C 19.132812 10.09375 17.941406 11.230469 16.320312 12.597656 C 14.488281 14.140625 10.855469 15.871094 6.839844 17.109375 C 5.183594 17.621094 4.851562 17.683594 3.808594 17.691406 C 3.167969 17.695312 2.640625 17.738281 2.640625 17.78125 C 2.640625 18.015625 4.738281 18.042969 5.761719 17.820312 L 6.058594 17.753906 L 5.777344 17.878906 C 5.5625 17.972656 5.523438 18.039062 5.621094 18.15625 C 5.816406 18.394531 7.292969 18.167969 8.6875 17.683594 C 9.515625 17.398438 10 17.292969 10.304688 17.335938 C 10.617188 17.378906 10.65625 17.367188 10.445312 17.304688 C 10.164062 17.214844 10.1875 17.191406 10.804688 16.84375 C 11.164062 16.640625 11.59375 16.433594 11.761719 16.378906 C 11.925781 16.328125 12.203125 16.167969 12.378906 16.019531 C 12.554688 15.875 12.914062 15.71875 13.175781 15.679688 C 13.4375 15.636719 13.941406 15.40625 14.296875 15.167969 C 14.652344 14.929688 15.066406 14.683594 15.21875 14.628906 C 15.695312 14.445312 17.875 12.601562 18.203125 12.105469 C 18.378906 11.84375 18.578125 11.652344 18.652344 11.679688 C 18.726562 11.707031 18.945312 11.597656 19.144531 11.4375 L 19.5 11.140625 L 19.105469 11.335938 L 18.707031 11.53125 L 18.890625 11.175781 C 18.992188 10.980469 19.347656 10.464844 19.679688 10.03125 C 20.378906 9.121094 20.601562 8.644531 20.390625 8.511719 C 20.3125 8.464844 20.285156 8.367188 20.332031 8.292969 C 20.53125 7.96875 20.261719 8.203125 19.964844 8.609375 M 17.316406 8.785156 C 17.054688 8.910156 16.84375 9.238281 17.023438 9.238281 C 17.074219 9.238281 17.246094 9.105469 17.398438 8.941406 C 17.710938 8.609375 17.703125 8.597656 17.316406 8.785156 M 21.078125 8.859375 C 20.859375 9.101562 20.8125 9.296875 21 9.179688 C 21.125 9.101562 21.402344 8.640625 21.324219 8.640625 C 21.296875 8.640625 21.1875 8.738281 21.078125 8.859375 M 21.5 9.304688 C 21.421875 9.472656 21.363281 9.703125 21.367188 9.816406 C 21.367188 9.929688 21.445312 9.804688 21.539062 9.542969 C 21.734375 9 21.707031 8.847656 21.5 9.304688 M 16.519531 9.199219 C 16.476562 9.242188 16.445312 9.390625 16.449219 9.53125 C 16.453125 9.761719 16.464844 9.757812 16.570312 9.492188 C 16.6875 9.199219 16.664062 9.054688 16.519531 9.199219 M 15.601562 9.6875 C 15.5 9.722656 15.285156 9.878906 15.121094 10.03125 C 14.953125 10.183594 14.664062 10.4375 14.46875 10.59375 C 14.277344 10.753906 14.171875 10.914062 14.238281 10.953125 C 14.300781 10.992188 14.695312 10.703125 15.117188 10.3125 C 15.539062 9.921875 15.859375 9.605469 15.832031 9.609375 C 15.804688 9.613281 15.699219 9.648438 15.601562 9.6875 M 20.804688 9.988281 C 20.671875 10.136719 20.472656 10.410156 20.355469 10.59375 C 20.242188 10.777344 20.089844 10.890625 20.019531 10.847656 C 19.941406 10.800781 19.914062 10.835938 19.949219 10.933594 C 20.019531 11.140625 19.601562 11.761719 19.386719 11.761719 C 19.300781 11.761719 19.15625 11.851562 19.066406 11.960938 C 18.914062 12.140625 18.925781 12.144531 19.171875 12.015625 C 19.566406 11.804688 19.503906 12.007812 18.917969 12.800781 C 18.375 13.539062 17.898438 13.960938 16.566406 14.886719 C 15.992188 15.285156 15.789062 15.492188 15.816406 15.664062 C 15.839844 15.84375 15.824219 15.859375 15.738281 15.734375 C 15.648438 15.601562 15.527344 15.636719 15.105469 15.925781 C 14.039062 16.648438 12.273438 17.621094 11.398438 17.96875 C 8.460938 19.132812 4.910156 19.664062 3.835938 19.101562 C 3.605469 18.980469 3.054688 18.6875 2.609375 18.445312 C 2.164062 18.207031 1.800781 18.039062 1.800781 18.070312 C 1.800781 18.261719 2.199219 18.855469 2.472656 19.070312 C 2.910156 19.414062 4.195312 19.792969 5.214844 19.878906 C 6.078125 19.953125 8.023438 19.714844 9.371094 19.375 C 10.246094 19.152344 12.285156 18.261719 13.296875 17.660156 C 13.738281 17.398438 14.246094 17.113281 14.421875 17.023438 C 15.121094 16.667969 16.53125 15.632812 17.097656 15.0625 C 17.425781 14.730469 17.839844 14.351562 18.015625 14.214844 C 18.191406 14.082031 18.738281 13.488281 19.234375 12.894531 C 19.726562 12.304688 20.378906 11.582031 20.683594 11.289062 C 21.105469 10.878906 21.203125 10.71875 21.101562 10.597656 C 21.03125 10.511719 21.003906 10.277344 21.042969 10.078125 C 21.128906 9.648438 21.109375 9.640625 20.804688 9.988281 M 14.460938 10.078125 C 14.417969 10.144531 14.441406 10.199219 14.503906 10.199219 C 14.570312 10.199219 14.660156 10.144531 14.699219 10.078125 C 14.742188 10.015625 14.71875 9.960938 14.652344 9.960938 C 14.589844 9.960938 14.5 10.015625 14.460938 10.078125 M 19.800781 10.328125 C 19.800781 10.398438 19.855469 10.421875 19.921875 10.378906 C 19.984375 10.339844 20.039062 10.28125 20.039062 10.253906 C 20.039062 10.222656 19.984375 10.199219 19.921875 10.199219 C 19.855469 10.199219 19.800781 10.257812 19.800781 10.328125 M 17.941406 10.558594 C 17.898438 10.625 17.921875 10.679688 17.992188 10.679688 C 18.0625 10.679688 18.121094 10.625 18.121094 10.558594 C 18.121094 10.492188 18.097656 10.441406 18.066406 10.441406 C 18.039062 10.441406 17.980469 10.492188 17.941406 10.558594 M 12.246094 10.8125 C 12.085938 10.875 11.878906 10.898438 11.789062 10.863281 C 11.601562 10.792969 7.460938 11.953125 7.234375 12.140625 C 7.144531 12.214844 7.019531 12.21875 6.894531 12.148438 C 6.738281 12.0625 6.90625 11.972656 7.621094 11.753906 C 8.128906 11.597656 8.480469 11.449219 8.40625 11.421875 C 7.984375 11.28125 4.902344 12.125 3.785156 12.6875 C 3.019531 13.074219 1.875 14.171875 1.5625 14.8125 C 1.316406 15.324219 1.230469 16.199219 1.429688 16.199219 C 1.488281 16.199219 1.671875 15.96875 1.839844 15.691406 C 2.171875 15.121094 3.070312 14.199219 2.929688 14.5625 C 2.855469 14.753906 2.875 14.769531 3.070312 14.664062 C 3.199219 14.59375 3.570312 14.34375 3.898438 14.109375 C 4.355469 13.78125 4.4375 13.679688 4.246094 13.679688 C 4.105469 13.679688 3.785156 13.816406 3.527344 13.984375 L 3.058594 14.289062 L 3.453125 13.925781 C 3.773438 13.625 3.945312 13.558594 4.414062 13.558594 C 4.753906 13.558594 5.164062 13.464844 5.429688 13.320312 C 5.675781 13.1875 6 13.078125 6.148438 13.078125 C 6.296875 13.078125 6.714844 12.96875 7.074219 12.832031 C 7.4375 12.695312 7.851562 12.605469 8.003906 12.632812 C 8.644531 12.757812 11.871094 11.558594 11.691406 11.261719 C 11.625 11.160156 11.722656 11.140625 12.042969 11.195312 C 12.3125 11.238281 12.644531 11.199219 12.894531 11.09375 C 13.5625 10.816406 13.511719 10.65625 12.839844 10.921875 C 12.5 11.054688 12.257812 11.109375 12.300781 11.042969 C 12.339844 10.972656 12.449219 10.921875 12.539062 10.921875 C 12.632812 10.921875 12.738281 10.867188 12.78125 10.800781 C 12.871094 10.652344 12.636719 10.65625 12.246094 10.8125 M 17.421875 10.925781 C 17.269531 10.988281 17.023438 11.125 16.882812 11.234375 C 16.625 11.421875 16.628906 11.425781 17.019531 11.355469 C 17.238281 11.316406 17.558594 11.171875 17.726562 11.042969 C 18.046875 10.789062 17.898438 10.734375 17.421875 10.925781 M 16.289062 11.71875 C 16.371094 11.753906 16.507812 11.753906 16.589844 11.71875 C 16.671875 11.6875 16.605469 11.660156 16.441406 11.660156 C 16.273438 11.660156 16.207031 11.6875 16.289062 11.71875 M 8.640625 11.878906 C 8.640625 11.945312 8.695312 12 8.761719 12 C 8.824219 12 8.878906 11.945312 8.878906 11.878906 C 8.878906 11.8125 8.824219 11.761719 8.761719 11.761719 C 8.695312 11.761719 8.640625 11.8125 8.640625 11.878906 M 12.1875 11.949219 C 11.992188 12.09375 11.984375 12.121094 12.148438 12.121094 C 12.257812 12.121094 12.382812 12.0625 12.425781 11.992188 C 12.550781 11.785156 12.4375 11.765625 12.1875 11.949219 M 16.378906 12.121094 C 16.261719 12.253906 16.21875 12.359375 16.28125 12.359375 C 16.347656 12.359375 16.5 12.253906 16.621094 12.121094 C 16.738281 11.988281 16.78125 11.878906 16.71875 11.878906 C 16.652344 11.878906 16.5 11.988281 16.378906 12.121094 M 10.398438 12.492188 C 10.144531 12.628906 9.964844 12.765625 9.996094 12.796875 C 10.0625 12.863281 11.039062 12.394531 11.039062 12.296875 C 11.039062 12.195312 10.867188 12.246094 10.398438 12.492188 M 4.75 12.703125 C 4.710938 12.769531 4.734375 12.859375 4.804688 12.902344 C 4.992188 13.019531 5.109375 12.863281 4.957031 12.707031 C 4.871094 12.621094 4.800781 12.621094 4.75 12.703125 M 14.859375 12.800781 C 14.945312 12.835938 15.046875 12.832031 15.085938 12.792969 C 15.128906 12.753906 15.054688 12.722656 14.929688 12.730469 C 14.789062 12.734375 14.761719 12.765625 14.859375 12.800781 M 3.839844 13.085938 C 3.839844 13.15625 3.894531 13.179688 3.960938 13.140625 C 4.027344 13.097656 4.078125 13.042969 4.078125 13.011719 C 4.078125 12.984375 4.027344 12.960938 3.960938 12.960938 C 3.894531 12.960938 3.839844 13.015625 3.839844 13.085938 M 14.617188 13.160156 C 14.703125 13.195312 14.808594 13.191406 14.847656 13.152344 C 14.886719 13.113281 14.816406 13.085938 14.691406 13.089844 C 14.550781 13.09375 14.523438 13.125 14.617188 13.160156 M 6.894531 13.386719 C 6.667969 13.566406 6.671875 13.566406 6.929688 13.441406 C 7.078125 13.371094 7.199219 13.285156 7.199219 13.253906 C 7.199219 13.164062 7.136719 13.191406 6.894531 13.386719 M 10.621094 13.558594 C 10.578125 13.625 10.65625 13.679688 10.792969 13.679688 C 10.929688 13.679688 11.039062 13.625 11.039062 13.558594 C 11.039062 13.492188 10.960938 13.441406 10.867188 13.441406 C 10.773438 13.441406 10.660156 13.492188 10.621094 13.558594 M 12.300781 13.558594 C 12.257812 13.625 12.28125 13.679688 12.351562 13.679688 C 12.421875 13.679688 12.480469 13.625 12.480469 13.558594 C 12.480469 13.492188 12.457031 13.441406 12.425781 13.441406 C 12.398438 13.441406 12.339844 13.492188 12.300781 13.558594 M 4.949219 13.804688 C 4.800781 13.863281 4.679688 13.941406 4.679688 13.976562 C 4.679688 14.09375 4.871094 14.042969 5.105469 13.863281 C 5.371094 13.664062 5.335938 13.648438 4.949219 13.804688 M 9.679688 13.992188 C 9.359375 14.160156 9.125 14.324219 9.160156 14.359375 C 9.238281 14.441406 10.441406 13.890625 10.441406 13.769531 C 10.441406 13.628906 10.304688 13.667969 9.679688 13.992188 M 13.539062 14.003906 C 13.625 14.035156 13.726562 14.03125 13.765625 13.992188 C 13.808594 13.953125 13.738281 13.925781 13.609375 13.929688 C 13.46875 13.933594 13.441406 13.964844 13.539062 14.003906 M 15.300781 14.9375 C 15.101562 15.097656 14.886719 15.234375 14.820312 15.238281 C 14.625 15.253906 13.484375 16.441406 13.667969 16.441406 C 13.917969 16.441406 14.640625 15.960938 14.640625 15.792969 C 14.640625 15.710938 14.917969 15.417969 15.257812 15.140625 C 15.59375 14.867188 15.824219 14.640625 15.765625 14.640625 C 15.707031 14.640625 15.496094 14.773438 15.300781 14.9375 M 4.683594 14.9375 C 4.585938 15.050781 4.578125 15.121094 4.660156 15.121094 C 4.804688 15.121094 4.972656 14.890625 4.890625 14.808594 C 4.859375 14.777344 4.765625 14.835938 4.683594 14.9375 M 11.191406 14.84375 C 11.308594 14.875 11.472656 14.871094 11.550781 14.839844 C 11.632812 14.804688 11.539062 14.78125 11.339844 14.785156 C 11.140625 14.785156 11.074219 14.8125 11.191406 14.84375 M 4.921875 15.460938 C 4.617188 15.578125 4.363281 15.757812 4.34375 15.871094 C 4.296875 16.113281 4.503906 16.15625 4.59375 15.921875 C 4.628906 15.835938 4.878906 15.691406 5.152344 15.601562 C 5.648438 15.4375 5.917969 15.234375 5.617188 15.246094 C 5.53125 15.25 5.21875 15.347656 4.921875 15.460938 M 9.808594 15.320312 C 9.890625 15.351562 10.027344 15.351562 10.109375 15.320312 C 10.191406 15.285156 10.125 15.257812 9.960938 15.257812 C 9.796875 15.257812 9.726562 15.285156 9.808594 15.320312 M 16.261719 15.359375 C 16.21875 15.425781 16.242188 15.480469 16.3125 15.480469 C 16.382812 15.480469 16.441406 15.425781 16.441406 15.359375 C 16.441406 15.292969 16.417969 15.238281 16.386719 15.238281 C 16.359375 15.238281 16.300781 15.292969 16.261719 15.359375 M 10.523438 16.210938 C 10.273438 16.34375 9.40625 16.671875 8.601562 16.941406 C 6.539062 17.625 6.378906 17.785156 8.148438 17.386719 C 8.667969 17.269531 10.992188 16.265625 11.214844 16.0625 C 11.425781 15.871094 10.992188 15.964844 10.523438 16.210938 M 13.070312 16.171875 C 12.578125 16.503906 11.398438 17.558594 11.453125 17.613281 C 11.53125 17.691406 13.078125 16.878906 13.078125 16.761719 C 13.078125 16.703125 13.214844 16.546875 13.378906 16.417969 C 13.925781 15.992188 13.65625 15.773438 13.070312 16.171875 M 5.039062 16.199219 C 4.933594 16.269531 4.917969 16.316406 5.003906 16.316406 C 5.082031 16.320312 5.179688 16.265625 5.21875 16.199219 C 5.3125 16.050781 5.269531 16.050781 5.039062 16.199219 M 14.820312 16.441406 C 14.777344 16.507812 14.800781 16.558594 14.867188 16.558594 C 14.933594 16.558594 15.019531 16.507812 15.058594 16.441406 C 15.101562 16.375 15.082031 16.320312 15.015625 16.320312 C 14.949219 16.320312 14.859375 16.375 14.820312 16.441406 M 5.914062 16.761719 C 6.027344 16.792969 6.191406 16.792969 6.273438 16.757812 C 6.355469 16.726562 6.257812 16.699219 6.058594 16.703125 C 5.863281 16.707031 5.796875 16.734375 5.914062 16.761719 M 5.347656 17.097656 C 5.609375 17.292969 5.878906 17.335938 5.878906 17.175781 C 5.878906 17.117188 5.757812 17.035156 5.609375 16.996094 C 5.175781 16.878906 5.097656 16.90625 5.347656 17.097656 M 3.300781 17.28125 C 3.433594 17.335938 3.863281 17.378906 4.261719 17.375 L 4.980469 17.371094 L 4.441406 17.273438 C 4.144531 17.222656 3.710938 17.175781 3.480469 17.175781 C 3.140625 17.175781 3.105469 17.195312 3.300781 17.28125 M 10.621094 17.761719 C 10.382812 18.007812 10.332031 18.121094 10.453125 18.121094 C 10.6875 18.121094 10.988281 17.875 11.078125 17.609375 C 11.1875 17.296875 11.007812 17.355469 10.621094 17.761719 M 8.734375 18 C 8.34375 18.246094 8.1875 18.414062 8.234375 18.539062 C 8.273438 18.636719 8.355469 18.71875 8.414062 18.71875 C 8.574219 18.71875 8.542969 18.507812 8.371094 18.4375 C 8.289062 18.40625 8.355469 18.375 8.523438 18.371094 C 8.691406 18.363281 8.917969 18.253906 9.03125 18.121094 C 9.144531 17.988281 9.316406 17.878906 9.410156 17.878906 C 9.507812 17.878906 9.621094 17.824219 9.660156 17.761719 C 9.808594 17.519531 9.285156 17.652344 8.734375 18 M 6.480469 18.511719 C 6.21875 18.589844 6.132812 18.65625 6.257812 18.6875 C 6.363281 18.710938 6.632812 18.652344 6.855469 18.554688 C 7.324219 18.351562 7.089844 18.324219 6.480469 18.511719 M 3.480469 18.582031 C 3.480469 18.699219 4.296875 18.960938 4.671875 18.960938 C 4.816406 18.960938 4.902344 18.90625 4.859375 18.839844 C 4.820312 18.773438 4.601562 18.71875 4.378906 18.71875 C 4.15625 18.71875 3.941406 18.664062 3.898438 18.601562 C 3.808594 18.453125 3.480469 18.441406 3.480469 18.582031 "/>
</g>
</svg>
