<?xml version="1.0" encoding="UTF-8"?>
<svg xmlns="http://www.w3.org/2000/svg" xmlns:xlink="http://www.w3.org/1999/xlink" width="100px" height="100px" viewBox="0 0 100 100" version="1.1">
<g id="surface1">
<path style=" stroke:none;fill-rule:evenodd;fill:rgb(0%,0%,0%);fill-opacity:1;" d="M 87.628906 21.375 C 87.085938 21.855469 85.835938 23.269531 84.847656 24.519531 C 83.160156 26.652344 82.839844 26.824219 79.5 27.398438 C 75.519531 28.078125 73.644531 28.921875 67.464844 32.816406 C 63.832031 35.105469 53.957031 39.726562 41.835938 44.816406 C 40.175781 45.515625 36.519531 46.371094 33.335938 46.8125 C 15.339844 49.300781 3.742188 57.644531 4.066406 67.875 C 4.121094 69.59375 4.039062 71.128906 3.878906 71.285156 C 3.722656 71.445312 4.484375 73.355469 5.574219 75.53125 C 7.183594 78.742188 7.957031 79.722656 9.652344 80.703125 C 14.164062 83.316406 20.722656 84.175781 28.898438 83.222656 C 38.792969 82.070312 43.847656 80.582031 52.34375 76.328125 C 63.84375 70.570312 71.53125 64.292969 84.308594 50.234375 C 89.640625 44.367188 90.75 42.410156 91.25 38 C 91.671875 34.253906 92.292969 32.867188 95.355469 28.820312 L 97.574219 25.890625 L 96.554688 24.808594 C 95.886719 24.097656 95.632812 23.34375 95.824219 22.625 C 96.207031 21.15625 94.160156 20.113281 92.5625 20.964844 C 91.816406 21.367188 91.210938 21.382812 90.53125 21.015625 C 89.207031 20.308594 88.765625 20.363281 87.628906 21.375 M 87.308594 25.214844 C 85.929688 27.027344 85.742188 27.5 86.40625 27.5 C 86.632812 27.5 87.320312 26.601562 87.941406 25.5 C 89.320312 23.046875 89.054688 22.925781 87.308594 25.214844 M 92.175781 25.375 C 89.25 29.054688 89.265625 29.722656 92.195312 26.21875 C 93.246094 24.964844 94.003906 23.839844 93.886719 23.71875 C 93.765625 23.597656 92.996094 24.34375 92.175781 25.375 M 89.015625 26.058594 C 87.839844 27.679688 87.632812 28.3125 88.03125 29.058594 C 88.785156 30.46875 89.570312 30.207031 89.1875 28.671875 C 88.957031 27.761719 89.089844 27.171875 89.601562 26.796875 C 90.359375 26.242188 91.308594 24 90.785156 24 C 90.632812 24 89.835938 24.925781 89.015625 26.058594 M 85.4375 25.375 C 84.816406 26.167969 84.832031 26.183594 85.625 25.5625 C 86.457031 24.910156 86.722656 24.5 86.3125 24.5 C 86.207031 24.5 85.8125 24.894531 85.4375 25.375 M 91.753906 28.492188 C 90.488281 30.140625 89.742188 31.367188 90.101562 31.21875 C 90.457031 31.070312 91.488281 29.949219 92.390625 28.722656 C 93.367188 27.402344 94.429688 26.5 95.015625 26.5 C 95.558594 26.5 96 26.273438 96 26 C 96 25.726562 95.5625 25.5 95.027344 25.5 C 94.433594 25.5 93.171875 26.65625 91.753906 28.492188 M 78.9375 28.875 C 78.316406 29.667969 78.332031 29.683594 79.125 29.0625 C 79.957031 28.410156 80.222656 28 79.8125 28 C 79.707031 28 79.3125 28.394531 78.9375 28.875 M 92.515625 29.96875 C 91.867188 31.1875 91.859375 31.648438 92.496094 31.25 C 93.300781 30.753906 94.109375 29 93.535156 29 C 93.261719 29 92.800781 29.433594 92.515625 29.96875 M 69.398438 32.667969 C 65.796875 34.945312 64.769531 35.75 66.140625 35.222656 C 67.59375 34.664062 67.09375 35.347656 65.25 36.433594 C 63.523438 37.453125 62.925781 37.273438 64.105469 36.09375 C 64.4375 35.761719 59.710938 37.773438 53.597656 40.566406 C 47.484375 43.363281 42.578125 45.742188 42.695312 45.863281 C 43.035156 46.203125 51.964844 43.023438 55.109375 41.4375 C 56.683594 40.648438 58.148438 40.003906 58.359375 40.011719 C 58.960938 40.027344 56.324219 41.976562 55.6875 41.988281 C 55.375 41.996094 54.8125 42.375 54.4375 42.832031 C 53.8125 43.589844 53.917969 43.640625 55.59375 43.371094 C 56.617188 43.203125 57.511719 43.289062 57.601562 43.554688 C 57.691406 43.816406 58.210938 43.671875 58.757812 43.230469 C 59.300781 42.789062 59.46875 42.570312 59.125 42.742188 C 58.78125 42.917969 58.5 42.855469 58.5 42.609375 C 58.5 42.039062 60.753906 41 61.996094 41 C 62.515625 41 63.238281 40.589844 63.597656 40.085938 C 63.957031 39.582031 65.039062 38.902344 66 38.574219 C 69.386719 37.417969 76.332031 32.035156 75.414062 31.277344 C 75.324219 31.203125 74.6875 31.007812 74 30.847656 C 73.070312 30.628906 71.890625 31.09375 69.398438 32.667969 M 76.25 35.039062 C 69.285156 41.328125 64.195312 44.890625 57.5 48.15625 C 51.589844 51.039062 37.621094 56 35.410156 56 C 33.601562 56 24.609375 59.230469 22.894531 60.496094 C 22.089844 61.09375 21.128906 61.464844 20.757812 61.324219 C 19.816406 60.960938 11.039062 67.007812 9.671875 68.960938 C 9.066406 69.824219 9.1875 69.871094 11.636719 69.730469 C 13.074219 69.648438 14.925781 69.304688 15.75 68.96875 C 16.574219 68.632812 18.375 68.296875 19.75 68.222656 C 23.433594 68.027344 33.492188 65.183594 34.777344 63.976562 C 35.53125 63.269531 36.242188 63.042969 37.070312 63.25 C 37.921875 63.464844 39.570312 62.882812 42.757812 61.242188 C 45.527344 59.820312 48.039062 58.886719 49.3125 58.808594 C 50.515625 58.734375 51.972656 58.21875 52.8125 57.566406 C 53.601562 56.957031 55.824219 55.414062 57.75 54.140625 C 63.289062 50.476562 74.539062 41.421875 75.78125 39.625 C 76.515625 38.558594 76.496094 38.5 75.402344 38.488281 C 74.511719 38.480469 74.808594 38.167969 76.714844 37.113281 C 79.386719 35.636719 80.074219 34.683594 78.660156 34.410156 C 77.976562 34.28125 78.207031 33.976562 79.632812 33.136719 C 80.660156 32.53125 81.5 31.6875 81.5 31.265625 C 81.5 30.84375 81.445312 30.503906 81.375 30.511719 C 81.304688 30.519531 79 32.554688 76.25 35.039062 M 73.4375 32.375 C 72.816406 33.167969 72.832031 33.183594 73.625 32.5625 C 74.457031 31.910156 74.722656 31.5 74.3125 31.5 C 74.207031 31.5 73.8125 31.894531 73.4375 32.375 M 83 33.761719 C 83 34.179688 82.464844 34.726562 81.8125 34.976562 C 81.15625 35.226562 80.382812 36.117188 80.085938 36.964844 C 79.792969 37.808594 79.277344 38.5 78.941406 38.5 C 78.609375 38.5 78.449219 38.617188 78.59375 38.761719 C 79.171875 39.339844 80.578125 38.273438 82.246094 36.007812 C 84.105469 33.472656 84.300781 33 83.5 33 C 83.226562 33 83 33.34375 83 33.761719 M 83.179688 35.875 C 82.425781 36.90625 81.285156 38.472656 80.644531 39.355469 C 79.929688 40.339844 79.199219 40.851562 78.753906 40.679688 C 78.351562 40.527344 77.21875 40.902344 76.238281 41.507812 C 74.40625 42.636719 74.125 43.503906 75.890625 42.558594 C 76.429688 42.269531 77.003906 42.171875 77.171875 42.339844 C 77.339844 42.507812 77.824219 42.351562 78.25 42 C 78.675781 41.648438 79.167969 41.503906 79.347656 41.679688 C 79.722656 42.054688 74.75 46.789062 68 52.484375 C 60.371094 58.917969 45.234375 66.125 28.5 71.285156 C 21.59375 73.414062 20.21875 73.675781 15.878906 73.710938 C 13.195312 73.734375 11.003906 73.902344 11.003906 74.089844 C 10.996094 75.070312 19.742188 75.175781 24 74.246094 L 25.25 73.972656 L 24.066406 74.492188 C 23.183594 74.878906 23.019531 75.171875 23.417969 75.648438 C 24.238281 76.640625 30.390625 75.695312 36.191406 73.6875 C 39.652344 72.492188 41.671875 72.054688 42.941406 72.230469 C 44.238281 72.40625 44.402344 72.371094 43.519531 72.097656 C 42.359375 71.734375 42.441406 71.628906 45.019531 70.175781 C 46.523438 69.332031 48.3125 68.464844 49 68.25 C 49.6875 68.039062 50.847656 67.363281 51.578125 66.753906 C 52.308594 66.140625 53.804688 65.5 54.898438 65.324219 C 55.996094 65.148438 58.097656 64.191406 59.570312 63.195312 C 61.042969 62.203125 62.769531 61.191406 63.402344 60.945312 C 65.394531 60.183594 74.476562 52.511719 75.851562 50.4375 C 76.574219 49.347656 77.414062 48.550781 77.71875 48.667969 C 78.027344 48.785156 78.945312 48.328125 79.765625 47.652344 L 81.25 46.417969 L 79.597656 47.234375 L 77.945312 48.054688 L 78.714844 46.566406 C 79.136719 45.75 80.617188 43.601562 82.003906 41.792969 C 84.910156 38.003906 85.835938 36.015625 84.957031 35.472656 C 84.632812 35.273438 84.527344 34.863281 84.714844 34.554688 C 85.546875 33.207031 84.421875 34.175781 83.179688 35.875 M 72.152344 36.597656 C 71.0625 37.125 70.175781 38.5 70.929688 38.5 C 71.148438 38.5 71.855469 37.9375 72.5 37.25 C 73.789062 35.875 73.761719 35.820312 72.152344 36.597656 M 87.828125 36.914062 C 86.914062 37.921875 86.714844 38.734375 87.496094 38.25 C 88.019531 37.929688 89.171875 36 88.84375 36 C 88.742188 36 88.28125 36.410156 87.828125 36.914062 M 89.582031 38.773438 C 89.261719 39.472656 89.011719 40.429688 89.023438 40.898438 C 89.035156 41.367188 89.363281 40.859375 89.75 39.769531 C 90.554688 37.503906 90.449219 36.867188 89.582031 38.773438 M 68.832031 38.332031 C 68.648438 38.515625 68.515625 39.136719 68.53125 39.707031 C 68.5625 40.664062 68.601562 40.652344 69.042969 39.550781 C 69.53125 38.328125 69.429688 37.734375 68.832031 38.332031 M 65 40.359375 C 64.585938 40.511719 63.6875 41.15625 63 41.792969 C 62.3125 42.429688 61.09375 43.488281 60.292969 44.144531 C 59.492188 44.800781 59.054688 45.472656 59.320312 45.636719 C 59.585938 45.804688 61.238281 44.601562 62.992188 42.96875 C 64.746094 41.335938 66.082031 40.019531 65.964844 40.039062 C 65.847656 40.0625 65.414062 40.203125 65 40.359375 M 86.679688 41.625 C 86.132812 42.242188 85.296875 43.375 84.820312 44.140625 C 84.34375 44.90625 83.710938 45.382812 83.414062 45.195312 C 83.09375 45 82.96875 45.144531 83.113281 45.554688 C 83.417969 46.417969 81.664062 49 80.777344 49 C 80.417969 49 79.8125 49.375 79.4375 49.832031 C 78.8125 50.585938 78.855469 50.609375 79.875 50.066406 C 81.535156 49.179688 81.257812 50.039062 78.828125 53.34375 C 76.570312 56.410156 74.574219 58.175781 69.027344 62.023438 C 66.628906 63.683594 65.789062 64.558594 65.894531 65.273438 C 66.007812 66.015625 65.929688 66.085938 65.578125 65.5625 C 65.203125 65.003906 64.699219 65.15625 62.929688 66.355469 C 58.492188 69.363281 51.140625 73.417969 47.5 74.863281 C 35.261719 79.71875 20.453125 81.941406 15.980469 79.589844 C 15.027344 79.089844 12.730469 77.863281 10.875 76.863281 C 9.019531 75.863281 7.5 75.15625 7.5 75.296875 C 7.5 76.089844 9.167969 78.558594 10.308594 79.457031 C 12.128906 80.890625 17.480469 82.46875 21.726562 82.828125 C 25.320312 83.128906 33.429688 82.144531 39.042969 80.722656 C 42.691406 79.796875 51.183594 76.097656 55.40625 73.59375 C 57.246094 72.5 59.351562 71.304688 60.085938 70.929688 C 62.996094 69.449219 68.882812 65.140625 71.242188 62.761719 C 72.613281 61.378906 74.335938 59.792969 75.066406 59.234375 C 75.800781 58.675781 78.082031 56.199219 80.140625 53.734375 C 82.199219 51.269531 84.914062 48.253906 86.175781 47.035156 C 87.941406 45.332031 88.34375 44.667969 87.925781 44.160156 C 87.621094 43.796875 87.511719 42.824219 87.675781 42 C 88.035156 40.203125 87.960938 40.175781 86.679688 41.625 M 60.25 42 C 60.078125 42.273438 60.164062 42.5 60.441406 42.5 C 60.714844 42.5 61.078125 42.273438 61.25 42 C 61.421875 41.726562 61.335938 41.5 61.058594 41.5 C 60.785156 41.5 60.421875 41.726562 60.25 42 M 82.5 43.03125 C 82.5 43.320312 82.726562 43.421875 83 43.25 C 83.273438 43.078125 83.5 42.84375 83.5 42.71875 C 83.5 42.597656 83.273438 42.5 83 42.5 C 82.726562 42.5 82.5 42.738281 82.5 43.03125 M 74.75 44 C 74.578125 44.273438 74.679688 44.5 74.96875 44.5 C 75.261719 44.5 75.5 44.273438 75.5 44 C 75.5 43.726562 75.402344 43.5 75.28125 43.5 C 75.15625 43.5 74.921875 43.726562 74.75 44 M 51.03125 45.050781 C 50.363281 45.316406 49.503906 45.414062 49.121094 45.269531 C 48.34375 44.972656 31.09375 49.804688 30.152344 50.582031 C 29.777344 50.894531 29.242188 50.90625 28.722656 50.613281 C 28.082031 50.257812 28.777344 49.878906 31.75 48.96875 C 33.871094 48.316406 35.34375 47.699219 35.023438 47.589844 C 33.261719 47.003906 20.417969 50.523438 15.777344 52.867188 C 12.585938 54.480469 7.8125 59.042969 6.515625 61.71875 C 5.484375 63.851562 5.128906 67.5 5.953125 67.5 C 6.203125 67.5 6.96875 66.542969 7.660156 65.375 C 9.054688 63.011719 12.785156 59.160156 12.203125 60.683594 C 11.898438 61.480469 11.988281 61.539062 12.800781 61.097656 C 13.320312 60.8125 14.875 59.773438 16.25 58.789062 C 18.152344 57.425781 18.496094 57 17.691406 57 C 17.113281 57 15.765625 57.570312 14.695312 58.269531 L 12.75 59.539062 L 14.382812 58.019531 C 15.726562 56.769531 16.4375 56.5 18.390625 56.5 C 19.808594 56.5 21.515625 56.097656 22.628906 55.5 C 23.65625 54.949219 25.003906 54.5 25.621094 54.5 C 26.242188 54.5 27.980469 54.03125 29.480469 53.460938 C 30.984375 52.890625 32.722656 52.519531 33.34375 52.640625 C 36.011719 53.152344 49.460938 48.152344 48.707031 46.929688 C 48.441406 46.503906 48.84375 46.425781 50.183594 46.640625 C 51.300781 46.824219 52.691406 46.660156 53.726562 46.226562 C 56.503906 45.066406 56.296875 44.398438 53.5 45.5 C 52.089844 46.054688 51.074219 46.285156 51.246094 46.003906 C 51.417969 45.726562 51.871094 45.5 52.25 45.5 C 52.628906 45.5 53.078125 45.273438 53.25 45 C 53.632812 44.382812 52.648438 44.40625 51.03125 45.050781 M 72.589844 45.53125 C 71.949219 45.785156 70.9375 46.359375 70.339844 46.804688 C 69.273438 47.59375 69.285156 47.605469 70.914062 47.308594 C 71.832031 47.144531 73.15625 46.558594 73.859375 46.003906 C 75.191406 44.957031 74.582031 44.730469 72.589844 45.53125 M 67.875 48.832031 C 68.21875 48.96875 68.78125 48.96875 69.125 48.832031 C 69.46875 48.691406 69.1875 48.578125 68.5 48.578125 C 67.8125 48.578125 67.53125 48.691406 67.875 48.832031 M 36 49.5 C 36 49.773438 36.226562 50 36.5 50 C 36.773438 50 37 49.773438 37 49.5 C 37 49.226562 36.773438 49 36.5 49 C 36.226562 49 36 49.226562 36 49.5 M 50.777344 49.789062 C 49.96875 50.382812 49.941406 50.5 50.625 50.5 C 51.074219 50.5 51.589844 50.261719 51.769531 49.964844 C 52.300781 49.109375 51.824219 49.023438 50.777344 49.789062 M 68.25 50.5 C 67.753906 51.050781 67.570312 51.5 67.84375 51.5 C 68.121094 51.5 68.753906 51.050781 69.25 50.5 C 69.746094 49.949219 69.929688 49.5 69.65625 49.5 C 69.378906 49.5 68.746094 49.949219 68.25 50.5 M 43.328125 52.058594 C 42.269531 52.617188 41.515625 53.183594 41.65625 53.320312 C 41.921875 53.589844 46 51.636719 46 51.238281 C 46 50.808594 45.28125 51.027344 43.328125 52.058594 M 19.796875 52.921875 C 19.625 53.203125 19.726562 53.582031 20.023438 53.765625 C 20.792969 54.242188 21.289062 53.589844 20.648438 52.949219 C 20.289062 52.589844 20.007812 52.582031 19.796875 52.921875 M 61.90625 53.339844 C 62.265625 53.484375 62.699219 53.46875 62.863281 53.300781 C 63.03125 53.136719 62.734375 53.019531 62.207031 53.039062 C 61.625 53.0625 61.507812 53.183594 61.90625 53.339844 M 16 54.53125 C 16 54.820312 16.226562 54.921875 16.5 54.75 C 16.773438 54.578125 17 54.34375 17 54.21875 C 17 54.097656 16.773438 54 16.5 54 C 16.226562 54 16 54.238281 16 54.53125 M 60.90625 54.839844 C 61.265625 54.984375 61.699219 54.96875 61.863281 54.800781 C 62.03125 54.636719 61.734375 54.519531 61.207031 54.539062 C 60.625 54.5625 60.507812 54.683594 60.90625 54.839844 M 28.71875 55.777344 C 27.789062 56.523438 27.792969 56.535156 28.875 56.011719 C 29.492188 55.710938 30 55.359375 30 55.234375 C 30 54.851562 29.742188 54.960938 28.71875 55.777344 M 44.25 56.5 C 44.078125 56.773438 44.40625 57 44.96875 57 C 45.535156 57 46 56.773438 46 56.5 C 46 56.226562 45.675781 56 45.28125 56 C 44.882812 56 44.421875 56.226562 44.25 56.5 M 51.25 56.5 C 51.078125 56.773438 51.179688 57 51.46875 57 C 51.761719 57 52 56.773438 52 56.5 C 52 56.226562 51.902344 56 51.78125 56 C 51.65625 56 51.421875 56.226562 51.25 56.5 M 20.625 57.515625 C 20.007812 57.765625 19.5 58.085938 19.5 58.234375 C 19.5 58.71875 20.296875 58.511719 21.28125 57.765625 C 22.386719 56.929688 22.230469 56.871094 20.625 57.515625 M 40.324219 58.308594 C 38.992188 59 38.019531 59.683594 38.160156 59.828125 C 38.5 60.164062 43.5 57.871094 43.5 57.378906 C 43.5 56.785156 42.929688 56.953125 40.324219 58.308594 M 56.40625 58.339844 C 56.765625 58.484375 57.199219 58.46875 57.363281 58.300781 C 57.53125 58.136719 57.234375 58.019531 56.707031 58.039062 C 56.125 58.0625 56.007812 58.183594 56.40625 58.339844 M 63.75 62.234375 C 62.925781 62.910156 62.023438 63.480469 61.75 63.496094 C 60.941406 63.554688 56.1875 68.5 56.941406 68.5 C 57.996094 68.5 61 66.5 61 65.796875 C 61 65.457031 62.15625 64.238281 63.566406 63.089844 C 64.980469 61.941406 65.933594 61 65.691406 61.003906 C 65.449219 61.003906 64.574219 61.558594 63.75 62.234375 M 19.511719 62.238281 C 19.117188 62.714844 19.078125 63 19.410156 63 C 20.011719 63 20.71875 62.050781 20.371094 61.703125 C 20.246094 61.578125 19.859375 61.820312 19.511719 62.238281 M 46.632812 61.847656 C 47.121094 61.972656 47.796875 61.964844 48.132812 61.828125 C 48.472656 61.691406 48.074219 61.585938 47.25 61.597656 C 46.425781 61.609375 46.148438 61.71875 46.632812 61.847656 M 20.503906 64.414062 C 19.234375 64.902344 18.1875 65.652344 18.09375 66.136719 C 17.898438 67.140625 18.773438 67.3125 19.144531 66.347656 C 19.28125 65.988281 20.328125 65.386719 21.472656 65.007812 C 23.539062 64.328125 24.652344 63.476562 23.40625 63.527344 C 23.042969 63.542969 21.738281 63.941406 20.503906 64.414062 M 40.875 63.832031 C 41.21875 63.96875 41.78125 63.96875 42.125 63.832031 C 42.46875 63.691406 42.1875 63.578125 41.5 63.578125 C 40.8125 63.578125 40.53125 63.691406 40.875 63.832031 M 67.75 64 C 67.578125 64.273438 67.679688 64.5 67.96875 64.5 C 68.261719 64.5 68.5 64.273438 68.5 64 C 68.5 63.726562 68.402344 63.5 68.28125 63.5 C 68.15625 63.5 67.921875 63.726562 67.75 64 M 43.84375 67.550781 C 42.796875 68.101562 39.199219 69.46875 35.84375 70.582031 C 27.25 73.445312 26.578125 74.105469 33.953125 72.441406 C 36.121094 71.953125 45.800781 67.78125 46.726562 66.933594 C 47.597656 66.132812 45.796875 66.519531 43.84375 67.550781 M 54.460938 67.378906 C 52.410156 68.769531 47.492188 73.160156 47.726562 73.394531 C 48.054688 73.71875 54.5 70.332031 54.5 69.835938 C 54.5 69.59375 55.0625 68.953125 55.75 68.410156 C 58.015625 66.628906 56.898438 65.730469 54.460938 67.378906 M 21 67.5 C 20.550781 67.789062 20.488281 67.988281 20.84375 67.992188 C 21.171875 67.996094 21.578125 67.773438 21.75 67.5 C 22.132812 66.878906 21.960938 66.878906 21 67.5 M 61.75 68.5 C 61.578125 68.773438 61.664062 69 61.941406 69 C 62.214844 69 62.578125 68.773438 62.75 68.5 C 62.921875 68.226562 62.835938 68 62.558594 68 C 62.285156 68 61.921875 68.226562 61.75 68.5 M 24.632812 69.847656 C 25.121094 69.972656 25.796875 69.964844 26.132812 69.828125 C 26.472656 69.691406 26.074219 69.585938 25.25 69.597656 C 24.425781 69.609375 24.148438 69.71875 24.632812 69.847656 M 22.28125 71.234375 C 23.371094 72.058594 24.5 72.226562 24.5 71.558594 C 24.5 71.316406 23.992188 70.980469 23.375 70.816406 C 21.5625 70.328125 21.242188 70.449219 22.28125 71.234375 M 13.75 72 C 14.300781 72.238281 16.101562 72.417969 17.75 72.402344 L 20.75 72.375 L 18.5 71.972656 C 17.261719 71.753906 15.460938 71.574219 14.5 71.570312 C 13.082031 71.570312 12.941406 71.652344 13.75 72 M 44.25 74 C 43.269531 75.023438 43.050781 75.5 43.5625 75.5 C 44.53125 75.5 45.78125 74.480469 46.164062 73.375 C 46.617188 72.070312 45.863281 72.316406 44.25 74 M 36.386719 75.003906 C 34.769531 76.019531 34.117188 76.722656 34.316406 77.242188 C 34.476562 77.660156 34.808594 78 35.054688 78 C 35.722656 78 35.589844 77.121094 34.875 76.832031 C 34.53125 76.691406 34.820312 76.5625 35.515625 76.539062 C 36.210938 76.519531 37.164062 76.050781 37.632812 75.5 C 38.105469 74.949219 38.816406 74.5 39.214844 74.5 C 39.613281 74.5 40.078125 74.273438 40.25 74 C 40.871094 72.992188 38.683594 73.558594 36.386719 75.003906 M 27 77.128906 C 25.917969 77.460938 25.5625 77.738281 26.066406 77.859375 C 26.515625 77.964844 27.640625 77.71875 28.566406 77.316406 C 30.523438 76.460938 29.546875 76.34375 27 77.128906 M 14.5 77.421875 C 14.5 77.917969 17.894531 79 19.460938 79 C 20.066406 79 20.421875 78.777344 20.25 78.5 C 20.078125 78.226562 19.179688 78 18.25 78 C 17.320312 78 16.421875 77.773438 16.25 77.5 C 15.875 76.894531 14.5 76.832031 14.5 77.421875 "/>
</g>
</svg>
