<?xml version="1.0" encoding="UTF-8"?>
<svg xmlns="http://www.w3.org/2000/svg" xmlns:xlink="http://www.w3.org/1999/xlink" width="100px" height="100px" viewBox="0 0 100 100" version="1.1">
<g id="surface1">
<path style=" stroke:none;fill-rule:evenodd;fill:rgb(0%,0%,0%);fill-opacity:1;" d="M 55.054688 12.273438 C 41.640625 15.183594 31.929688 22.5625 26.128906 34.25 C 22.203125 42.15625 17.875 59.097656 16.683594 71.203125 C 16.402344 74.09375 16.460938 74.585938 17.046875 74.234375 C 17.433594 74 20.957031 71.230469 24.875 68.074219 L 32 62.339844 L 32.09375 59.292969 L 32.183594 56.25 L 32.367188 58.875 C 32.46875 60.320312 32.664062 61.5 32.804688 61.5 C 32.941406 61.5 35.179688 59.808594 37.777344 57.742188 C 41.585938 54.710938 42.507812 53.71875 42.550781 52.617188 C 42.59375 51.398438 42.636719 51.367188 42.925781 52.332031 C 43.222656 53.328125 43.660156 53.082031 48.5 49.214844 C 52.210938 46.246094 53.84375 44.609375 54.066406 43.632812 C 54.238281 42.871094 54.410156 42.644531 54.441406 43.125 C 54.472656 43.605469 54.621094 44 54.769531 44 C 54.917969 44 57.167969 42.289062 59.769531 40.195312 C 63.484375 37.210938 64.511719 36.105469 64.558594 35.070312 C 64.601562 34.042969 64.667969 33.972656 64.851562 34.75 C 64.980469 35.300781 65.445312 36.03125 65.886719 36.375 C 66.613281 36.9375 66.601562 37 65.757812 37 C 64.976562 37 62.066406 39.160156 56.3125 44.011719 C 55.726562 44.503906 52.496094 47.164062 49.132812 49.917969 C 44.699219 53.550781 43.253906 54.992188 43.882812 55.15625 C 44.496094 55.316406 44.402344 55.402344 43.566406 55.441406 C 42.890625 55.476562 40.328125 57.167969 37.609375 59.375 C 32.921875 63.183594 32.867188 63.253906 34.296875 63.566406 C 35.652344 63.859375 35.621094 63.886719 33.84375 63.941406 C 32.179688 63.992188 31.023438 64.765625 24.617188 70.09375 L 17.292969 76.1875 L 18.769531 76.675781 C 19.585938 76.945312 26.871094 77.183594 35 77.207031 C 54.105469 77.261719 59.898438 76.289062 69.675781 71.375 C 76.03125 68.179688 81.820312 61.410156 86.886719 51.25 C 90.328125 44.34375 91.667969 39.484375 91.710938 33.75 C 91.757812 27.929688 90.886719 25.683594 87.582031 23.066406 C 86.445312 22.164062 85.511719 20.933594 85.347656 20.121094 C 84.339844 15.074219 75.1875 11.453125 63.644531 11.539062 C 60.679688 11.5625 56.8125 11.890625 55.054688 12.273438 M 78.203125 25.625 L 77.25 26.75 L 78.375 25.796875 C 78.992188 25.273438 79.5 24.765625 79.5 24.671875 C 79.5 24.273438 79.097656 24.566406 78.203125 25.625 M 74.75 28.265625 C 73.648438 29.214844 72.46875 29.886719 72.125 29.761719 C 71.78125 29.632812 71.5 29.828125 71.5 30.191406 C 71.5 30.554688 70.136719 31.921875 68.472656 33.230469 C 66.804688 34.539062 65.554688 35.71875 65.6875 35.851562 C 65.820312 35.988281 67.3125 34.945312 69 33.539062 C 70.6875 32.132812 72.285156 31.117188 72.546875 31.28125 C 72.808594 31.441406 72.964844 31.339844 72.886719 31.050781 C 72.8125 30.765625 73.761719 29.632812 75 28.535156 C 76.238281 27.441406 77.136719 26.542969 77 26.539062 C 76.863281 26.539062 75.851562 27.316406 74.75 28.265625 M 65.039062 31.792969 C 65.0625 32.375 65.183594 32.492188 65.339844 32.09375 C 65.484375 31.734375 65.46875 31.300781 65.300781 31.136719 C 65.136719 30.96875 65.019531 31.265625 65.039062 31.792969 M 54.625 38.75 C 54.632812 39.851562 54.734375 40.242188 54.851562 39.617188 C 54.972656 38.996094 54.96875 38.097656 54.84375 37.617188 C 54.71875 37.140625 54.621094 37.648438 54.625 38.75 M 67.90625 37.339844 C 68.265625 37.484375 68.699219 37.46875 68.863281 37.300781 C 69.03125 37.136719 68.734375 37.019531 68.207031 37.039062 C 67.625 37.0625 67.507812 37.183594 67.90625 37.339844 M 58.125 44.34375 C 58.605469 44.46875 59.394531 44.46875 59.875 44.34375 C 60.355469 44.21875 59.960938 44.117188 59 44.117188 C 58.039062 44.117188 57.644531 44.21875 58.125 44.34375 M 43.148438 47 C 43.148438 48.511719 43.242188 49.132812 43.359375 48.375 C 43.472656 47.617188 43.472656 46.382812 43.359375 45.625 C 43.242188 44.867188 43.148438 45.488281 43.148438 47 M 62.132812 44.847656 C 62.621094 44.972656 63.296875 44.964844 63.632812 44.828125 C 63.972656 44.691406 63.574219 44.585938 62.75 44.597656 C 61.925781 44.609375 61.648438 44.71875 62.132812 44.847656 M 65.90625 45.339844 C 66.265625 45.484375 66.699219 45.46875 66.863281 45.300781 C 67.03125 45.136719 66.734375 45.019531 66.207031 45.039062 C 65.625 45.0625 65.507812 45.183594 65.90625 45.339844 M 32.625 51.75 C 32.632812 52.851562 32.734375 53.242188 32.851562 52.617188 C 32.972656 51.996094 32.96875 51.097656 32.84375 50.617188 C 32.71875 50.140625 32.621094 50.648438 32.625 51.75 M 46.625 55.84375 C 47.105469 55.96875 47.894531 55.96875 48.375 55.84375 C 48.855469 55.71875 48.460938 55.617188 47.5 55.617188 C 46.539062 55.617188 46.144531 55.71875 46.625 55.84375 M 51.632812 56.347656 C 52.121094 56.472656 52.796875 56.464844 53.132812 56.328125 C 53.472656 56.191406 53.074219 56.085938 52.25 56.097656 C 51.425781 56.109375 51.148438 56.21875 51.632812 56.347656 M 56.90625 56.839844 C 57.265625 56.984375 57.699219 56.96875 57.863281 56.800781 C 58.03125 56.636719 57.734375 56.519531 57.207031 56.539062 C 56.625 56.5625 56.507812 56.683594 56.90625 56.839844 M 37.625 64.34375 C 38.105469 64.46875 38.894531 64.46875 39.375 64.34375 C 39.855469 64.21875 39.460938 64.117188 38.5 64.117188 C 37.539062 64.117188 37.144531 64.21875 37.625 64.34375 M 42.875 64.832031 C 43.21875 64.96875 43.78125 64.96875 44.125 64.832031 C 44.46875 64.691406 44.1875 64.578125 43.5 64.578125 C 42.8125 64.578125 42.53125 64.691406 42.875 64.832031 M 14.363281 76.375 C 13.195312 77.667969 10.972656 82.675781 11.390625 83.074219 C 11.589844 83.261719 12.1875 83.492188 12.726562 83.582031 C 13.527344 83.71875 13.769531 83.355469 14.09375 81.503906 C 14.3125 80.269531 14.90625 78.695312 15.414062 78.003906 C 16.878906 76.015625 15.96875 74.601562 14.363281 76.375 "/>
</g>
</svg>
