<?xml version="1.0" encoding="UTF-8"?>
<svg xmlns="http://www.w3.org/2000/svg" xmlns:xlink="http://www.w3.org/1999/xlink" width="24px" height="24px" viewBox="0 0 24 24" version="1.1">
<g id="surface1">
<path style=" stroke:none;fill-rule:evenodd;fill:rgb(0%,0%,0%);fill-opacity:1;" d="M 13.214844 2.945312 C 9.992188 3.644531 7.664062 5.414062 6.269531 8.21875 C 5.328125 10.117188 4.289062 14.183594 4.003906 17.089844 C 3.9375 17.78125 3.949219 17.902344 4.089844 17.816406 C 4.183594 17.761719 5.03125 17.09375 5.96875 16.339844 L 7.679688 14.960938 L 7.703125 14.230469 L 7.722656 13.5 L 7.769531 14.128906 C 7.792969 14.476562 7.839844 14.761719 7.871094 14.761719 C 7.90625 14.761719 8.441406 14.355469 9.066406 13.859375 C 9.980469 13.128906 10.203125 12.890625 10.210938 12.628906 C 10.222656 12.335938 10.230469 12.328125 10.300781 12.558594 C 10.375 12.796875 10.480469 12.738281 11.640625 11.8125 C 12.53125 11.097656 12.921875 10.707031 12.976562 10.472656 C 13.015625 10.289062 13.058594 10.234375 13.066406 10.351562 C 13.074219 10.464844 13.109375 10.558594 13.144531 10.558594 C 13.179688 10.558594 13.71875 10.148438 14.34375 9.648438 C 15.234375 8.929688 15.484375 8.664062 15.492188 8.417969 C 15.503906 8.171875 15.519531 8.152344 15.5625 8.339844 C 15.59375 8.472656 15.707031 8.648438 15.8125 8.730469 C 15.988281 8.867188 15.984375 8.878906 15.78125 8.878906 C 15.59375 8.878906 14.894531 9.398438 13.515625 10.5625 C 13.375 10.679688 12.597656 11.320312 11.792969 11.980469 C 10.726562 12.851562 10.378906 13.199219 10.53125 13.238281 C 10.679688 13.277344 10.65625 13.296875 10.457031 13.304688 C 10.292969 13.3125 9.679688 13.71875 9.027344 14.25 C 7.902344 15.164062 7.886719 15.179688 8.230469 15.253906 C 8.558594 15.328125 8.550781 15.332031 8.121094 15.347656 C 7.722656 15.359375 7.445312 15.542969 5.90625 16.824219 L 4.148438 18.285156 L 4.503906 18.402344 C 4.699219 18.46875 6.449219 18.523438 8.398438 18.53125 C 12.984375 18.542969 14.375 18.308594 16.722656 17.128906 C 18.246094 16.363281 19.636719 14.738281 20.851562 12.300781 C 21.679688 10.644531 22 9.476562 22.011719 8.101562 C 22.019531 6.703125 21.8125 6.164062 21.019531 5.535156 C 20.746094 5.320312 20.523438 5.023438 20.484375 4.828125 C 20.242188 3.617188 18.046875 2.75 15.273438 2.769531 C 14.5625 2.773438 13.636719 2.855469 13.214844 2.945312 M 18.769531 6.148438 L 18.539062 6.421875 L 18.808594 6.191406 C 18.957031 6.066406 19.078125 5.945312 19.078125 5.921875 C 19.078125 5.824219 18.984375 5.894531 18.769531 6.148438 M 17.941406 6.785156 C 17.675781 7.011719 17.390625 7.171875 17.308594 7.144531 C 17.226562 7.113281 17.160156 7.160156 17.160156 7.246094 C 17.160156 7.332031 16.832031 7.660156 16.433594 7.976562 C 16.035156 8.289062 15.734375 8.574219 15.765625 8.605469 C 15.796875 8.636719 16.15625 8.386719 16.558594 8.050781 C 16.964844 7.710938 17.347656 7.46875 17.410156 7.507812 C 17.472656 7.546875 17.511719 7.519531 17.492188 7.453125 C 17.476562 7.382812 17.703125 7.113281 18 6.847656 C 18.296875 6.585938 18.511719 6.371094 18.480469 6.371094 C 18.445312 6.371094 18.203125 6.554688 17.941406 6.785156 M 15.609375 7.628906 C 15.617188 7.769531 15.644531 7.796875 15.683594 7.703125 C 15.714844 7.617188 15.710938 7.511719 15.671875 7.472656 C 15.632812 7.433594 15.605469 7.503906 15.609375 7.628906 M 13.109375 9.300781 C 13.113281 9.5625 13.136719 9.65625 13.164062 9.507812 C 13.195312 9.359375 13.191406 9.144531 13.164062 9.027344 C 13.132812 8.914062 13.109375 9.035156 13.109375 9.300781 M 16.296875 8.960938 C 16.382812 8.996094 16.488281 8.992188 16.527344 8.953125 C 16.566406 8.914062 16.496094 8.882812 16.371094 8.890625 C 16.230469 8.894531 16.203125 8.921875 16.296875 8.960938 M 13.949219 10.644531 C 14.066406 10.671875 14.253906 10.671875 14.371094 10.644531 C 14.484375 10.613281 14.390625 10.585938 14.160156 10.585938 C 13.929688 10.585938 13.835938 10.613281 13.949219 10.644531 M 10.355469 11.28125 C 10.355469 11.644531 10.378906 11.792969 10.40625 11.609375 C 10.433594 11.429688 10.433594 11.132812 10.40625 10.949219 C 10.378906 10.769531 10.355469 10.917969 10.355469 11.28125 M 14.914062 10.761719 C 15.027344 10.792969 15.191406 10.792969 15.273438 10.757812 C 15.355469 10.726562 15.257812 10.699219 15.058594 10.703125 C 14.863281 10.707031 14.796875 10.734375 14.914062 10.761719 M 15.816406 10.882812 C 15.902344 10.917969 16.007812 10.914062 16.046875 10.871094 C 16.085938 10.832031 16.015625 10.804688 15.890625 10.808594 C 15.75 10.816406 15.722656 10.84375 15.816406 10.882812 M 7.832031 12.421875 C 7.832031 12.683594 7.855469 12.777344 7.886719 12.628906 C 7.914062 12.480469 7.914062 12.261719 7.882812 12.148438 C 7.851562 12.035156 7.828125 12.15625 7.832031 12.421875 M 11.191406 13.402344 C 11.304688 13.433594 11.496094 13.433594 11.609375 13.402344 C 11.726562 13.371094 11.632812 13.347656 11.398438 13.347656 C 11.167969 13.347656 11.074219 13.371094 11.191406 13.402344 M 12.390625 13.523438 C 12.507812 13.554688 12.671875 13.550781 12.753906 13.519531 C 12.832031 13.484375 12.738281 13.460938 12.539062 13.464844 C 12.34375 13.464844 12.277344 13.492188 12.390625 13.523438 M 13.65625 13.640625 C 13.742188 13.675781 13.847656 13.671875 13.886719 13.632812 C 13.925781 13.59375 13.855469 13.5625 13.730469 13.570312 C 13.589844 13.574219 13.5625 13.605469 13.65625 13.640625 M 9.03125 15.441406 C 9.144531 15.472656 9.335938 15.472656 9.449219 15.441406 C 9.566406 15.414062 9.472656 15.386719 9.238281 15.386719 C 9.007812 15.386719 8.914062 15.414062 9.03125 15.441406 M 10.289062 15.558594 C 10.371094 15.59375 10.507812 15.59375 10.589844 15.558594 C 10.671875 15.527344 10.605469 15.5 10.441406 15.5 C 10.273438 15.5 10.207031 15.527344 10.289062 15.558594 M 3.445312 18.332031 C 3.167969 18.640625 2.632812 19.84375 2.734375 19.9375 C 2.78125 19.984375 2.925781 20.039062 3.054688 20.058594 C 3.246094 20.09375 3.304688 20.003906 3.382812 19.5625 C 3.433594 19.265625 3.578125 18.886719 3.699219 18.722656 C 4.050781 18.242188 3.832031 17.90625 3.445312 18.332031 "/>
</g>
</svg>
