<?xml version="1.0" encoding="UTF-8"?>
<svg xmlns="http://www.w3.org/2000/svg" xmlns:xlink="http://www.w3.org/1999/xlink" width="100px" height="100px" viewBox="0 0 100 100" version="1.1">
<g id="surface1">
<path style=" stroke:none;fill-rule:evenodd;fill:rgb(0%,0%,0%);fill-opacity:1;" d="M 81.574219 8.234375 L 75.398438 12.40625 L 73.714844 11.703125 C 71.554688 10.800781 68.007812 10.800781 66.714844 11.703125 C 65.914062 12.265625 65.238281 12.300781 63.363281 11.871094 C 58.429688 10.742188 59.316406 10.027344 31.824219 37.417969 C 18.113281 51.074219 6.242188 63.128906 5.449219 64.199219 C 2.898438 67.632812 3.554688 72.90625 7.257812 78.75 C 13.085938 87.953125 23.863281 96 30.359375 96 C 31.863281 96 33.8125 95.660156 34.683594 95.25 C 35.554688 94.835938 47.777344 82.964844 61.84375 68.875 C 85.074219 45.605469 87.476562 43.042969 88.015625 41 C 88.441406 39.386719 88.464844 38.117188 88.097656 36.519531 C 87.699219 34.769531 87.742188 34.074219 88.296875 33.285156 C 89.199219 31.992188 89.199219 28.445312 88.296875 26.285156 L 87.59375 24.601562 L 91.796875 18.308594 C 96.96875 10.570312 97.085938 9.78125 93.609375 6.355469 C 90.121094 2.921875 89.238281 3.058594 81.574219 8.234375 M 82.25 12.78125 C 78.398438 15.371094 75.175781 17.835938 75.085938 18.253906 C 74.683594 20.125 79.34375 25 81.539062 25 C 82.019531 25 84.296875 22.066406 87.210938 17.695312 L 92.074219 10.394531 L 90.949219 9.195312 C 90.332031 8.539062 89.695312 8.015625 89.539062 8.03125 C 89.378906 8.050781 86.101562 10.183594 82.25 12.78125 M 65.964844 17.824219 C 63.683594 20 63 20.984375 63 22.09375 C 63 27.230469 72.769531 37 77.90625 37 C 79.800781 37 85 31.730469 85 29.808594 C 85 28.59375 84.910156 28.558594 82.578125 28.835938 C 79.375 29.214844 77.199219 28.15625 74.015625 24.671875 C 71.390625 21.800781 70.664062 19.773438 71.15625 16.722656 C 71.414062 15.140625 71.332031 15 70.179688 15 C 69.339844 15 67.953125 15.929688 65.964844 17.824219 M 33.617188 41.636719 C 8.195312 67.078125 8 67.289062 8 69.304688 C 8 76.980469 23.019531 92 30.695312 92 C 32.710938 92 32.921875 91.804688 58.363281 66.382812 C 77.351562 47.40625 84 40.464844 84 39.613281 L 84 38.464844 L 82.132812 39.730469 C 77.792969 42.683594 72.28125 40.855469 65.714844 34.285156 C 59.144531 27.71875 57.316406 22.207031 60.269531 17.867188 L 61.535156 16 L 60.386719 16 C 59.535156 16 52.59375 22.648438 33.617188 41.636719 "/>
</g>
</svg>
