<?xml version="1.0" encoding="UTF-8"?>
<svg xmlns="http://www.w3.org/2000/svg" xmlns:xlink="http://www.w3.org/1999/xlink" width="24px" height="24px" viewBox="0 0 24 24" version="1.1">
<g id="surface1">
<path style=" stroke:none;fill-rule:evenodd;fill:rgb(0%,0%,0%);fill-opacity:1;" d="M 19.578125 1.976562 L 18.09375 2.976562 L 17.691406 2.808594 C 17.171875 2.59375 16.320312 2.59375 16.011719 2.808594 C 15.820312 2.945312 15.65625 2.953125 15.207031 2.847656 C 14.023438 2.578125 14.234375 2.40625 7.636719 8.980469 C 4.347656 12.257812 1.5 15.152344 1.308594 15.40625 C 0.695312 16.230469 0.851562 17.496094 1.742188 18.898438 C 3.140625 21.109375 5.726562 23.039062 7.285156 23.039062 C 7.648438 23.039062 8.113281 22.957031 8.324219 22.859375 C 8.53125 22.761719 11.464844 19.910156 14.84375 16.53125 C 20.417969 10.945312 20.996094 10.332031 21.125 9.839844 C 21.226562 9.453125 21.230469 9.148438 21.144531 8.765625 C 21.046875 8.34375 21.058594 8.175781 21.191406 7.988281 C 21.40625 7.679688 21.40625 6.828125 21.191406 6.308594 L 21.023438 5.90625 L 22.03125 4.394531 C 23.273438 2.535156 23.300781 2.347656 22.464844 1.527344 C 21.628906 0.699219 21.417969 0.734375 19.578125 1.976562 M 19.738281 3.066406 C 18.816406 3.691406 18.042969 4.28125 18.019531 4.378906 C 17.925781 4.832031 19.042969 6 19.570312 6 C 19.683594 6 20.230469 5.296875 20.929688 4.246094 L 22.097656 2.496094 L 21.828125 2.207031 C 21.679688 2.050781 21.527344 1.921875 21.488281 1.925781 C 21.449219 1.933594 20.664062 2.445312 19.738281 3.066406 M 15.832031 4.277344 C 15.285156 4.800781 15.121094 5.035156 15.121094 5.300781 C 15.121094 6.535156 17.464844 8.878906 18.699219 8.878906 C 19.152344 8.878906 20.398438 7.613281 20.398438 7.15625 C 20.398438 6.863281 20.378906 6.855469 19.820312 6.921875 C 19.050781 7.011719 18.527344 6.757812 17.765625 5.921875 C 17.132812 5.230469 16.960938 4.746094 17.078125 4.011719 C 17.140625 3.632812 17.121094 3.601562 16.84375 3.601562 C 16.640625 3.601562 16.308594 3.824219 15.832031 4.277344 M 8.070312 9.992188 C 1.964844 16.097656 1.921875 16.148438 1.921875 16.632812 C 1.921875 18.476562 5.523438 22.078125 7.367188 22.078125 C 7.851562 22.078125 7.902344 22.035156 14.007812 15.929688 C 18.5625 11.378906 20.160156 9.710938 20.160156 9.507812 L 20.160156 9.230469 L 19.710938 9.535156 C 18.671875 10.242188 17.347656 9.804688 15.769531 8.230469 C 14.195312 6.652344 13.757812 5.328125 14.464844 4.289062 L 14.769531 3.839844 L 14.492188 3.839844 C 14.289062 3.839844 12.621094 5.4375 8.070312 9.992188 "/>
</g>
</svg>
