<?xml version="1.0" encoding="UTF-8"?>
<svg xmlns="http://www.w3.org/2000/svg" xmlns:xlink="http://www.w3.org/1999/xlink" width="24px" height="24px" viewBox="0 0 24 24" version="1.1">
<g id="surface1">
<path style=" stroke:none;fill-rule:evenodd;fill:rgb(0%,0%,0%);fill-opacity:1;" d="M 11.582031 4.316406 C 11.417969 4.585938 11.039062 5.820312 11.035156 6.109375 C 11.03125 6.328125 10.914062 6.492188 10.644531 6.660156 C 10.433594 6.792969 10.179688 7.070312 10.078125 7.277344 C 9.941406 7.566406 9.800781 7.671875 9.476562 7.726562 C 8.832031 7.828125 7.960938 8.449219 7.554688 9.085938 C 6.804688 10.269531 6.777344 11.332031 7.476562 11.941406 L 7.894531 12.300781 L 7.941406 14.160156 C 7.980469 15.859375 8.011719 16.078125 8.300781 16.695312 C 8.699219 17.558594 9.308594 18.230469 10.0625 18.640625 C 10.390625 18.816406 10.847656 19.152344 11.078125 19.382812 C 11.421875 19.726562 11.585938 19.800781 12 19.800781 C 12.414062 19.800781 12.578125 19.726562 12.921875 19.382812 C 13.152344 19.152344 13.609375 18.816406 13.9375 18.640625 C 14.691406 18.230469 15.300781 17.558594 15.699219 16.695312 C 15.988281 16.078125 16.019531 15.859375 16.058594 14.160156 L 16.105469 12.300781 L 16.523438 11.941406 C 16.828125 11.675781 16.953125 11.453125 17 11.097656 C 17.1875 9.679688 15.898438 7.945312 14.492188 7.722656 C 14.199219 7.675781 14.039062 7.585938 14.039062 7.464844 C 14.039062 7.367188 13.820312 7.074219 13.550781 6.816406 L 13.058594 6.351562 L 13.25 5.792969 C 13.550781 4.910156 13.519531 4.820312 12.777344 4.492188 C 12.070312 4.179688 11.699219 4.125 11.582031 4.316406 M 11.894531 5.570312 C 11.710938 6.304688 11.71875 6.359375 12.035156 6.359375 C 12.261719 6.359375 12.335938 6.261719 12.460938 5.804688 C 12.625 5.183594 12.632812 5.21875 12.285156 5.113281 C 12.0625 5.042969 12.011719 5.101562 11.894531 5.570312 M 11.066406 7.265625 C 10.921875 7.371094 10.800781 7.503906 10.800781 7.566406 C 10.800781 7.628906 11.328125 7.679688 12 7.679688 C 12.671875 7.679688 13.199219 7.628906 13.199219 7.566406 C 13.199219 7.304688 12.640625 7.078125 12 7.078125 C 11.589844 7.078125 11.230469 7.152344 11.066406 7.265625 M 9.363281 8.53125 C 8.230469 8.996094 7.382812 10.507812 7.851562 11.226562 L 8.046875 11.519531 L 15.953125 11.519531 L 16.144531 11.230469 C 16.523438 10.652344 16.019531 9.445312 15.140625 8.824219 L 14.621094 8.460938 L 12.140625 8.433594 C 10.675781 8.417969 9.539062 8.457031 9.363281 8.53125 M 8.761719 14.070312 C 8.761719 15.734375 8.789062 15.953125 9.042969 16.5 C 9.382812 17.226562 10.09375 17.894531 10.832031 18.175781 C 11.210938 18.320312 11.402344 18.46875 11.449219 18.664062 C 11.582031 19.1875 12.394531 19.195312 12.527344 18.671875 C 12.574219 18.480469 12.765625 18.328125 13.15625 18.179688 C 13.90625 17.894531 14.617188 17.230469 14.957031 16.5 C 15.210938 15.953125 15.238281 15.734375 15.238281 14.070312 L 15.238281 12.238281 L 8.761719 12.238281 L 8.761719 14.070312 "/>
</g>
</svg>
