<?xml version="1.0" encoding="UTF-8"?>
<svg xmlns="http://www.w3.org/2000/svg" xmlns:xlink="http://www.w3.org/1999/xlink" width="100px" height="100px" viewBox="0 0 100 100" version="1.1">
<g id="surface1">
<path style=" stroke:none;fill-rule:evenodd;fill:rgb(0%,0%,0%);fill-opacity:1;" d="M 22.601562 16.101562 C 22.191406 16.507812 22 18.878906 22 23.5 L 22 30.300781 L 14.800781 34.164062 C 10.839844 36.289062 7.324219 38.359375 6.988281 38.765625 C 6.121094 39.808594 6.226562 41.941406 7.195312 42.910156 C 7.769531 43.484375 9.152344 43.789062 11.757812 43.921875 L 15.5 44.109375 L 15.5 81.578125 L 18.421875 84.5 L 40.5 84.5 L 40.5 69.578125 C 40.5 55.757812 40.566406 54.59375 41.414062 53.828125 C 42.183594 53.132812 43.570312 53 50.085938 53 C 56.96875 53 57.9375 53.101562 58.671875 53.914062 C 59.402344 54.722656 59.5 56.5625 59.5 69.664062 L 59.5 84.5 L 81.578125 84.5 L 84.5 81.578125 L 84.5 44 L 87.46875 44 C 91.226562 44 92.886719 43.367188 93.523438 41.691406 C 93.902344 40.691406 93.84375 40.089844 93.292969 39.246094 C 92.628906 38.234375 59.628906 20.050781 53.6875 17.421875 C 50.101562 15.835938 48.1875 16.296875 39.683594 20.808594 C 35.59375 22.976562 32.082031 24.824219 31.875 24.917969 C 31.667969 25.007812 31.5 23.28125 31.5 21.078125 C 31.5 15.945312 31.105469 15.5 26.566406 15.5 C 24.613281 15.5 22.949219 15.753906 22.601562 16.101562 "/>
</g>
</svg>
