<?xml version="1.0" encoding="UTF-8"?>
<svg xmlns="http://www.w3.org/2000/svg" xmlns:xlink="http://www.w3.org/1999/xlink" width="24px" height="24px" viewBox="0 0 24 24" version="1.1">
<g id="surface1">
<path style=" stroke:none;fill-rule:evenodd;fill:rgb(0%,0%,0%);fill-opacity:1;" d="M 5.425781 3.863281 C 5.324219 3.960938 5.28125 4.53125 5.28125 5.640625 L 5.28125 7.273438 L 3.550781 8.199219 C 2.601562 8.710938 1.757812 9.207031 1.675781 9.304688 C 1.46875 9.554688 1.496094 10.066406 1.726562 10.296875 C 1.863281 10.4375 2.195312 10.507812 2.820312 10.539062 L 3.71875 10.585938 L 3.71875 19.578125 L 4.421875 20.28125 L 9.71875 20.28125 L 9.71875 16.699219 C 9.71875 13.382812 9.734375 13.101562 9.941406 12.917969 C 10.125 12.75 10.457031 12.71875 12.019531 12.71875 C 13.671875 12.71875 13.90625 12.746094 14.082031 12.941406 C 14.257812 13.132812 14.28125 13.574219 14.28125 16.71875 L 14.28125 20.28125 L 19.578125 20.28125 L 20.28125 19.578125 L 20.28125 10.558594 L 20.992188 10.558594 C 21.894531 10.558594 22.292969 10.40625 22.445312 10.007812 C 22.535156 9.765625 22.523438 9.621094 22.390625 9.417969 C 22.230469 9.175781 14.3125 4.8125 12.882812 4.179688 C 12.023438 3.800781 11.566406 3.910156 9.523438 4.992188 C 8.542969 5.515625 7.699219 5.957031 7.648438 5.980469 C 7.601562 6.003906 7.558594 5.585938 7.558594 5.058594 C 7.558594 3.828125 7.464844 3.71875 6.375 3.71875 C 5.90625 3.71875 5.507812 3.78125 5.425781 3.863281 "/>
</g>
</svg>
