<?xml version="1.0" encoding="UTF-8"?>
<svg xmlns="http://www.w3.org/2000/svg" xmlns:xlink="http://www.w3.org/1999/xlink" width="100px" height="100px" viewBox="0 0 100 100" version="1.1">
<g id="surface1">
<path style=" stroke:none;fill-rule:evenodd;fill:rgb(0%,0%,0%);fill-opacity:1;" d="M 48.257812 17.992188 C 47.566406 19.105469 46 24.25 45.980469 25.453125 C 45.96875 26.359375 45.480469 27.050781 44.355469 27.75 C 43.472656 28.300781 42.414062 29.460938 42 30.328125 C 41.425781 31.53125 40.835938 31.972656 39.492188 32.1875 C 36.808594 32.625 33.167969 35.203125 31.480469 37.859375 C 28.359375 42.785156 28.238281 47.214844 31.15625 49.753906 L 32.886719 51.257812 L 33.082031 59.003906 C 33.257812 66.078125 33.386719 66.992188 34.578125 69.558594 C 36.25 73.152344 38.789062 75.953125 41.933594 77.664062 C 43.300781 78.410156 45.199219 79.800781 46.160156 80.757812 C 47.59375 82.195312 48.269531 82.5 50 82.5 C 51.730469 82.5 52.40625 82.195312 53.839844 80.757812 C 54.800781 79.800781 56.699219 78.410156 58.066406 77.664062 C 61.210938 75.953125 63.75 73.152344 65.421875 69.558594 C 66.613281 66.992188 66.742188 66.078125 66.917969 59.003906 L 67.113281 51.257812 L 68.84375 49.753906 C 70.117188 48.644531 70.640625 47.71875 70.835938 46.242188 C 71.613281 40.335938 66.242188 33.109375 60.382812 32.171875 C 59.160156 31.976562 58.5 31.605469 58.5 31.109375 C 58.5 30.6875 57.582031 29.472656 56.460938 28.402344 L 54.417969 26.460938 L 55.210938 24.140625 C 56.460938 20.464844 56.324219 20.089844 53.234375 18.722656 C 50.292969 17.421875 48.746094 17.195312 48.257812 17.992188 M 49.5625 23.207031 C 48.792969 26.265625 48.835938 26.5 50.148438 26.5 C 51.085938 26.5 51.402344 26.085938 51.914062 24.183594 C 52.605469 21.597656 52.640625 21.742188 51.1875 21.296875 C 50.261719 21.015625 50.054688 21.257812 49.5625 23.207031 M 46.113281 30.277344 C 45.5 30.707031 45 31.269531 45 31.527344 C 45 31.792969 47.199219 32 50 32 C 52.800781 32 55 31.792969 55 31.527344 C 55 30.441406 52.675781 29.5 50 29.5 C 48.296875 29.5 46.792969 29.800781 46.113281 30.277344 M 39.015625 35.542969 C 34.300781 37.476562 30.761719 43.785156 32.71875 46.769531 L 33.523438 48 L 66.476562 48 L 67.269531 46.792969 C 68.847656 44.382812 66.742188 39.347656 63.078125 36.769531 L 60.917969 35.25 L 50.582031 35.140625 C 44.476562 35.078125 39.746094 35.242188 39.015625 35.542969 M 36.503906 58.625 C 36.507812 65.558594 36.617188 66.476562 37.675781 68.75 C 39.09375 71.78125 42.050781 74.554688 45.132812 75.730469 C 46.71875 76.335938 47.507812 76.960938 47.710938 77.769531 C 48.257812 79.949219 51.648438 79.976562 52.191406 77.804688 C 52.394531 76.992188 53.191406 76.371094 54.820312 75.75 C 57.945312 74.554688 60.902344 71.800781 62.324219 68.75 C 63.382812 66.476562 63.492188 65.558594 63.496094 58.625 L 63.5 51 L 36.5 51 L 36.503906 58.625 "/>
</g>
</svg>
