<?xml version="1.0" encoding="UTF-8"?>
<svg xmlns="http://www.w3.org/2000/svg" xmlns:xlink="http://www.w3.org/1999/xlink" width="100px" height="100px" viewBox="0 0 100 100" version="1.1">
<g id="surface1">
<path style=" stroke:none;fill-rule:evenodd;fill:rgb(0%,0%,0%);fill-opacity:1;" d="M 67 19.585938 C 64.9375 19.839844 63.023438 20.316406 62.75 20.648438 C 62.476562 20.976562 59.210938 21.859375 55.5 22.609375 C 46.648438 24.386719 36.152344 27.296875 24.230469 31.273438 C 15.476562 34.195312 14.175781 34.5 10.410156 34.511719 C 5.398438 34.523438 2.519531 35.621094 1.011719 38.097656 C 0.0507812 39.675781 0.00390625 40.582031 0.00390625 57.800781 C 0 75.738281 0.0078125 75.863281 1.136719 77.550781 C 3.574219 81.203125 0.648438 81 50 81 C 99.710938 81 96.347656 81.253906 99.09375 77.25 L 100.46875 75.25 L 100.484375 57.042969 C 100.492188 47.027344 100.351562 38.984375 100.167969 39.164062 C 99.984375 39.347656 99.417969 38.808594 98.90625 37.96875 C 97.898438 36.308594 94.550781 34.527344 92.402344 34.511719 L 91.058594 34.5 L 91.316406 31.125 C 91.523438 28.398438 91.386719 27.414062 90.609375 26 C 89.222656 23.480469 86.273438 21.59375 82.527344 20.832031 C 80.757812 20.46875 79.21875 19.910156 79.113281 19.585938 C 78.878906 18.890625 72.691406 18.890625 67 19.585938 M 78.75 27.5 C 78.578125 27.773438 76.261719 28.011719 73.59375 28.023438 C 70.929688 28.035156 67.800781 28.226562 66.644531 28.453125 C 65.28125 28.714844 64.476562 28.675781 64.363281 28.34375 C 64.25 28.003906 62.65625 28.121094 59.722656 28.691406 C 54.769531 29.652344 37.945312 33.886719 37.566406 34.269531 C 37.433594 34.402344 47.757812 34.453125 60.515625 34.378906 L 83.707031 34.25 L 84.339844 32.066406 C 85.105469 29.417969 84.644531 28.320312 82.4375 27.550781 C 80.46875 26.867188 79.152344 26.847656 78.75 27.5 M 0.226562 57.75 C 0.226562 67.925781 0.292969 72.015625 0.375 66.84375 C 0.457031 61.667969 0.457031 53.34375 0.375 48.34375 C 0.292969 43.339844 0.226562 47.574219 0.226562 57.75 M 6.5 57.75 L 6.5 74 L 15.5 74 L 15.5 41.5 L 13 41.5 L 13 69.5 L 9.5 69.5 L 9.5 41.5 L 6.5 41.5 L 6.5 57.75 M 21 57.75 L 21 74 L 78.5 74 L 78.5 41.5 L 21 41.5 L 21 57.75 M 85 57.75 L 85 74 L 93.5 74 L 93.5 41.5 L 91 41.5 L 91 69.5 L 87.5 69.5 L 87.5 41.5 L 85 41.5 L 85 57.75 M 25 45.5 L 25 47.507812 L 74.25 47.25 L 74.25 43.75 L 25 43.492188 L 25 45.5 "/>
</g>
</svg>
