<?xml version="1.0" encoding="UTF-8"?>
<svg xmlns="http://www.w3.org/2000/svg" xmlns:xlink="http://www.w3.org/1999/xlink" width="100px" height="100px" viewBox="0 0 100 100" version="1.1">
<g id="surface1">
<path style=" stroke:none;fill-rule:evenodd;fill:rgb(0%,0%,0%);fill-opacity:1;" d="M 63.492188 0.761719 C 63.039062 1.304688 62.9375 2.695312 63.140625 5.617188 C 63.492188 10.785156 62.761719 20.617188 61.703125 24.9375 C 60.480469 29.917969 58.324219 34.070312 55.714844 36.476562 C 53.179688 38.816406 53.230469 38.816406 48.25 36.921875 C 44.207031 35.390625 34.707031 35.261719 30.5 36.683594 C 22.515625 39.382812 15.949219 45.027344 12.578125 52.089844 C 10.203125 57.0625 9.5 60.160156 9.5 65.667969 C 9.5 70.515625 10.429688 74.535156 12.570312 78.929688 C 13.871094 81.605469 14.078125 82.53125 13.890625 84.808594 C 13.511719 89.386719 9.867188 92.800781 4 94.070312 C 0.671875 94.789062 0 95.253906 0 96.839844 C 0 97.804688 0.472656 98.265625 2.277344 99.0625 C 4.296875 99.957031 5.40625 100.050781 12.152344 99.910156 C 20.371094 99.738281 19.742188 99.910156 26.257812 96.070312 L 29.765625 94.003906 L 33.507812 94.800781 C 42.914062 96.796875 52.867188 93.695312 60.03125 86.53125 C 66.046875 80.515625 68.699219 74.101562 68.726562 65.5 C 68.75 59.21875 67.617188 55.027344 64.511719 49.882812 L 62.476562 46.515625 L 64.050781 43.382812 C 66.660156 38.191406 67.214844 37.628906 70.828125 36.511719 C 76.757812 34.679688 83.535156 35.359375 89.058594 38.339844 C 91.839844 39.84375 93.679688 39.746094 93.914062 38.085938 C 94.140625 36.476562 92.96875 35.347656 89.421875 33.753906 C 84.796875 31.679688 79.160156 30.722656 74.960938 31.304688 L 71.5 31.78125 L 74.125 29.109375 C 79.9375 23.183594 87.316406 19.613281 94.734375 19.128906 C 99.167969 18.839844 100 18.453125 100 16.679688 C 100 14.675781 98.203125 14.226562 92.980469 14.921875 C 87.800781 15.613281 83.199219 17.160156 79.191406 19.5625 C 75.550781 21.742188 69.523438 27.355469 66.425781 31.445312 C 65.085938 33.214844 63.523438 34.988281 62.957031 35.386719 L 61.921875 36.109375 L 62.894531 34.179688 C 64.09375 31.789062 65.730469 26.71875 66.578125 22.75 C 66.964844 20.929688 67.226562 16.050781 67.234375 10.359375 C 67.246094 2.542969 67.125 0.886719 66.5 0.492188 C 65.394531 -0.210938 64.207031 -0.101562 63.492188 0.761719 M 35.746094 40.058594 C 21.335938 41.761719 11.164062 56.101562 14.195312 70.445312 C 14.625 72.480469 15.792969 75.742188 16.792969 77.695312 C 18.484375 81.011719 18.589844 81.472656 18.335938 84.585938 C 18.023438 88.449219 17.203125 90.257812 14.394531 93.308594 L 12.371094 95.5 L 15.59375 95.5 C 18.480469 95.5 19.167969 95.285156 22.226562 93.441406 C 24.109375 92.308594 26.605469 90.953125 27.78125 90.433594 C 29.773438 89.554688 30.109375 89.539062 32.8125 90.246094 C 48.777344 94.402344 64.5 82.007812 64.5 65.257812 C 64.5 49.933594 51.152344 38.238281 35.746094 40.058594 "/>
</g>
</svg>
