<?xml version="1.0" encoding="UTF-8"?>
<svg xmlns="http://www.w3.org/2000/svg" xmlns:xlink="http://www.w3.org/1999/xlink" width="24px" height="24px" viewBox="0 0 24 24" version="1.1">
<g id="surface1">
<path style=" stroke:none;fill-rule:evenodd;fill:rgb(0%,0%,0%);fill-opacity:1;" d="M 16.078125 4.699219 C 15.585938 4.761719 15.125 4.875 15.058594 4.957031 C 14.992188 5.035156 14.210938 5.246094 13.320312 5.425781 C 11.195312 5.851562 8.675781 6.550781 5.816406 7.507812 C 3.714844 8.207031 3.402344 8.28125 2.5 8.28125 C 1.296875 8.285156 0.605469 8.550781 0.242188 9.144531 C 0.0117188 9.523438 0 9.738281 0 13.871094 C 0 18.175781 0 18.207031 0.273438 18.613281 C 0.859375 19.488281 0.15625 19.441406 12 19.441406 C 23.929688 19.441406 23.125 19.5 23.78125 18.539062 L 24.113281 18.058594 L 24.117188 13.691406 C 24.117188 11.285156 24.085938 9.355469 24.039062 9.398438 C 23.996094 9.441406 23.859375 9.3125 23.738281 9.113281 C 23.496094 8.714844 22.691406 8.285156 22.175781 8.28125 L 21.855469 8.28125 L 21.914062 7.46875 C 21.964844 6.816406 21.933594 6.578125 21.746094 6.238281 C 21.414062 5.636719 20.707031 5.183594 19.808594 5 C 19.382812 4.914062 19.011719 4.777344 18.988281 4.699219 C 18.929688 4.535156 17.445312 4.535156 16.078125 4.699219 M 18.898438 6.601562 C 18.859375 6.664062 18.304688 6.722656 17.664062 6.726562 C 17.023438 6.726562 16.273438 6.773438 15.996094 6.828125 C 15.667969 6.890625 15.472656 6.882812 15.449219 6.800781 C 15.421875 6.71875 15.039062 6.75 14.332031 6.886719 C 13.144531 7.117188 9.105469 8.132812 9.015625 8.222656 C 8.984375 8.257812 11.460938 8.269531 14.523438 8.25 L 20.089844 8.21875 L 20.242188 7.695312 C 20.425781 7.058594 20.3125 6.796875 19.785156 6.613281 C 19.3125 6.449219 18.996094 6.445312 18.898438 6.601562 M 0.0546875 13.859375 C 0.0546875 16.300781 0.0703125 17.285156 0.0898438 16.042969 C 0.109375 14.800781 0.109375 12.800781 0.0898438 11.601562 C 0.0703125 10.402344 0.0546875 11.417969 0.0546875 13.859375 M 1.558594 13.859375 L 1.558594 17.761719 L 3.71875 17.761719 L 3.71875 9.960938 L 3.121094 9.960938 L 3.121094 16.679688 L 2.28125 16.679688 L 2.28125 9.960938 L 1.558594 9.960938 L 1.558594 13.859375 M 5.039062 13.859375 L 5.039062 17.761719 L 18.839844 17.761719 L 18.839844 9.960938 L 5.039062 9.960938 L 5.039062 13.859375 M 20.398438 13.859375 L 20.398438 17.761719 L 22.441406 17.761719 L 22.441406 9.960938 L 21.839844 9.960938 L 21.839844 16.679688 L 21 16.679688 L 21 9.960938 L 20.398438 9.960938 L 20.398438 13.859375 M 6 10.921875 L 6 11.402344 L 17.820312 11.339844 L 17.820312 10.5 L 6 10.4375 L 6 10.921875 "/>
</g>
</svg>
