<?xml version="1.0" encoding="UTF-8"?>
<svg xmlns="http://www.w3.org/2000/svg" xmlns:xlink="http://www.w3.org/1999/xlink" width="24px" height="24px" viewBox="0 0 24 24" version="1.1">
<g id="surface1">
<path style=" stroke:none;fill-rule:evenodd;fill:rgb(0%,0%,0%);fill-opacity:1;" d="M 15.238281 0.183594 C 15.128906 0.3125 15.105469 0.648438 15.152344 1.347656 C 15.238281 2.589844 15.0625 4.949219 14.808594 5.984375 C 14.515625 7.179688 14 8.175781 13.371094 8.753906 C 12.761719 9.316406 12.777344 9.316406 11.578125 8.863281 C 10.609375 8.492188 8.328125 8.460938 7.320312 8.804688 C 5.402344 9.453125 3.828125 10.804688 3.019531 12.5 C 2.449219 13.695312 2.28125 14.4375 2.28125 15.761719 C 2.28125 16.921875 2.503906 17.886719 3.015625 18.941406 C 3.328125 19.585938 3.378906 19.808594 3.332031 20.355469 C 3.242188 21.453125 2.367188 22.273438 0.960938 22.578125 C 0.160156 22.75 0 22.859375 0 23.242188 C 0 23.472656 0.113281 23.582031 0.546875 23.773438 C 1.03125 23.988281 1.296875 24.011719 2.917969 23.976562 C 4.890625 23.9375 4.738281 23.976562 6.300781 23.058594 L 7.144531 22.5625 L 8.042969 22.753906 C 10.300781 23.230469 12.6875 22.488281 14.40625 20.765625 C 15.851562 19.324219 16.488281 17.785156 16.496094 15.71875 C 16.5 14.210938 16.226562 13.207031 15.480469 11.972656 L 14.996094 11.164062 L 15.371094 10.410156 C 16 9.164062 16.132812 9.03125 17 8.761719 C 18.421875 8.324219 20.046875 8.488281 21.375 9.203125 C 22.042969 9.5625 22.484375 9.539062 22.539062 9.140625 C 22.59375 8.753906 22.3125 8.484375 21.460938 8.101562 C 20.351562 7.601562 19 7.375 17.988281 7.511719 L 17.160156 7.628906 L 17.789062 6.984375 C 19.183594 5.5625 20.957031 4.707031 22.734375 4.589844 C 23.800781 4.523438 24 4.429688 24 4.003906 C 24 3.523438 23.570312 3.414062 22.316406 3.582031 C 21.070312 3.746094 19.96875 4.117188 19.003906 4.695312 C 18.132812 5.21875 16.683594 6.566406 15.941406 7.546875 C 15.621094 7.972656 15.246094 8.398438 15.109375 8.492188 L 14.863281 8.667969 L 15.09375 8.203125 C 15.382812 7.628906 15.773438 6.414062 15.980469 5.460938 C 16.070312 5.023438 16.132812 3.851562 16.136719 2.484375 C 16.140625 0.609375 16.109375 0.210938 15.960938 0.117188 C 15.695312 -0.0507812 15.410156 -0.0234375 15.238281 0.183594 M 8.578125 9.613281 C 5.121094 10.023438 2.679688 13.464844 3.40625 16.90625 C 3.511719 17.394531 3.789062 18.179688 4.03125 18.648438 C 4.4375 19.441406 4.460938 19.554688 4.402344 20.300781 C 4.324219 21.226562 4.128906 21.664062 3.453125 22.394531 L 2.96875 22.921875 L 3.742188 22.921875 C 4.433594 22.921875 4.601562 22.867188 5.335938 22.425781 C 5.785156 22.152344 6.386719 21.828125 6.667969 21.703125 C 7.144531 21.492188 7.226562 21.488281 7.875 21.660156 C 11.707031 22.65625 15.480469 19.679688 15.480469 15.664062 C 15.480469 11.984375 12.277344 9.175781 8.578125 9.613281 "/>
</g>
</svg>
