<?xml version="1.0" encoding="UTF-8"?>
<svg xmlns="http://www.w3.org/2000/svg" xmlns:xlink="http://www.w3.org/1999/xlink" width="100px" height="100px" viewBox="0 0 100 100" version="1.1">
<g id="surface1">
<path style=" stroke:none;fill-rule:evenodd;fill:rgb(0%,0%,0%);fill-opacity:1;" d="M 33.75 15.246094 C 33.476562 15.339844 32.625 15.550781 31.863281 15.71875 C 29.804688 16.171875 26.675781 19.257812 25.710938 21.78125 C 24.132812 25.917969 25.683594 30.730469 29.417969 33.265625 L 31.230469 34.5 L 29.441406 34.5 C 27.21875 34.5 24.648438 36.167969 23.277344 38.5 C 22.308594 40.148438 22.242188 41.164062 22.097656 55.871094 C 21.933594 73.074219 22.234375 76.152344 24.390625 79.234375 C 29.046875 85.898438 37.824219 86.722656 43.515625 81.03125 C 47.335938 77.214844 47.5 76.21875 47.5 57.144531 C 47.5 44.519531 47.347656 40.613281 46.8125 39.359375 C 45.75 36.882812 43.40625 34.960938 41.058594 34.644531 L 39.007812 34.371094 L 41.21875 32.421875 C 46.546875 27.730469 45.539062 19.492188 39.25 16.378906 C 37.675781 15.597656 34.601562 14.964844 33.75 15.246094 M 62.570312 15.59375 C 59.515625 16.273438 56.28125 19.566406 55.617188 22.664062 C 54.757812 26.707031 55.738281 29.789062 58.726562 32.414062 L 60.492188 33.964844 L 58.5625 34.484375 C 56.035156 35.164062 54.046875 36.769531 53.191406 38.816406 C 52.269531 41.023438 52.1875 73.085938 53.09375 76.117188 C 53.894531 78.785156 57.488281 82.6875 60.121094 83.742188 C 62.84375 84.835938 67.15625 84.835938 69.878906 83.742188 C 72.511719 82.6875 76.105469 78.785156 76.90625 76.117188 C 77.316406 74.75 77.5 68.765625 77.5 56.890625 C 77.5 39.769531 77.492188 39.636719 76.359375 37.949219 C 75.320312 36.402344 73.175781 34.972656 70.863281 34.285156 C 70.113281 34.0625 70.285156 33.714844 71.957031 32.042969 C 75.882812 28.117188 75.941406 22.375 72.097656 18.332031 C 69.566406 15.664062 66.375 14.746094 62.570312 15.59375 M 30.996094 18.625 C 28.335938 20.433594 27.308594 22.1875 27.308594 24.910156 C 27.308594 27.867188 28.644531 30.339844 30.976562 31.703125 C 37.558594 35.546875 45.066406 28.359375 41.625 21.511719 C 39.691406 17.660156 34.484375 16.25 30.996094 18.625 M 61.121094 18.496094 C 54.6875 22.421875 57.429688 32.691406 64.910156 32.691406 C 67.867188 32.691406 70.339844 31.355469 71.703125 29.023438 C 73.042969 26.730469 73.027344 22.949219 71.675781 21.121094 C 69.039062 17.566406 64.503906 16.433594 61.121094 18.496094 M 31.050781 22.457031 C 30.105469 23.054688 30.765625 24.617188 31.875 24.40625 C 32.355469 24.3125 32.75 23.808594 32.75 23.285156 C 32.75 22.175781 32.042969 21.832031 31.050781 22.457031 M 37.140625 22.5625 C 36.378906 23.320312 36.902344 24.5 38 24.5 C 39.097656 24.5 39.621094 23.320312 38.859375 22.5625 C 38.550781 22.253906 38.164062 22 38 22 C 37.835938 22 37.449219 22.253906 37.140625 22.5625 M 61.140625 22.5625 C 60.378906 23.320312 60.902344 24.5 62 24.5 C 63.097656 24.5 63.621094 23.320312 62.859375 22.5625 C 62.550781 22.253906 62.164062 22 62 22 C 61.835938 22 61.449219 22.253906 61.140625 22.5625 M 67.191406 22.726562 C 66.832031 23.660156 67.355469 24.5 68.296875 24.5 C 69.316406 24.5 69.796875 22.996094 68.949219 22.457031 C 67.953125 21.828125 67.507812 21.894531 67.191406 22.726562 M 30.652344 27.824219 C 29.660156 30.40625 37.125 31.394531 38.691406 28.890625 C 39.5625 27.488281 38.375 26.679688 36.929688 27.691406 C 35.496094 28.695312 33.984375 28.722656 32.71875 27.765625 C 31.457031 26.808594 31.035156 26.820312 30.652344 27.824219 M 61.042969 27.699219 C 60.160156 28.761719 62.636719 30.5 65.039062 30.5 C 67.324219 30.5 69.78125 28.683594 69.042969 27.539062 C 68.652344 26.933594 68.398438 26.953125 67.308594 27.664062 C 65.738281 28.695312 64.488281 28.726562 63.21875 27.765625 C 62 26.84375 61.757812 26.835938 61.042969 27.699219 M 27.382812 37.28125 C 25.210938 38.460938 24.5 40.417969 24.5 45.226562 L 24.5 49.5 L 45.5 49.5 L 45.5 45.484375 C 45.5 40.707031 44.664062 38.367188 42.5625 37.28125 C 40.472656 36.203125 29.375 36.203125 27.382812 37.28125 M 57.414062 37.335938 C 55.457031 38.578125 55 40.03125 55 45.023438 L 55 49.5 L 75.5 49.5 L 75.5 44.757812 C 75.5 40.226562 75.433594 39.945312 74.042969 38.382812 L 72.585938 36.75 L 65.667969 36.617188 C 59.859375 36.507812 58.535156 36.621094 57.414062 37.335938 M 29.542969 51.691406 C 29.65625 51.796875 33.011719 53.167969 37 54.738281 C 40.988281 56.3125 44.53125 57.714844 44.875 57.851562 C 45.335938 58.039062 45.5 57.25 45.5 54.804688 L 45.5 51.5 L 37.417969 51.5 C 32.972656 51.5 29.425781 51.585938 29.542969 51.691406 M 65.5 54.027344 C 68.9375 55.382812 72.59375 56.828125 73.625 57.242188 L 75.5 57.992188 L 75.5 51.5 L 67.375 51.527344 L 59.25 51.558594 L 65.5 54.027344 M 24.5 55.253906 L 24.5 58.5 L 32.625 58.472656 L 40.75 58.441406 L 34.5 55.972656 C 31.0625 54.617188 27.40625 53.171875 26.375 52.757812 L 24.5 52.007812 L 24.5 55.253906 M 54.5 55.195312 L 54.5 58.5 L 62.582031 58.5 C 67.027344 58.5 70.574219 58.40625 70.457031 58.296875 C 70.34375 58.183594 66.988281 56.8125 63 55.25 C 59.011719 53.683594 55.46875 52.289062 55.125 52.148438 C 54.660156 51.960938 54.5 52.75 54.5 55.195312 M 29.5625 60.730469 C 29.835938 61.003906 44.894531 67 45.304688 67 C 45.4375 67 45.480469 65.59375 45.398438 63.875 L 45.25 60.75 L 37.277344 60.613281 C 32.894531 60.535156 29.421875 60.589844 29.5625 60.730469 M 59.542969 60.703125 C 59.65625 60.816406 63.011719 62.1875 67 63.75 C 70.988281 65.316406 74.53125 66.710938 74.875 66.851562 C 75.339844 67.039062 75.5 66.25 75.5 63.804688 L 75.5 60.5 L 67.417969 60.5 C 62.972656 60.5 59.425781 60.59375 59.542969 60.703125 M 24.5 64.308594 L 24.5 67.5 L 32.332031 67.5 C 36.640625 67.5 40.070312 67.40625 39.957031 67.289062 C 39.839844 67.175781 36.316406 65.738281 32.121094 64.097656 L 24.5 61.113281 L 24.5 64.308594 M 54.5 64.257812 L 54.5 67.5 L 70.75 67.445312 L 65.25 65.277344 C 62.226562 64.085938 58.570312 62.636719 57.125 62.0625 L 54.5 61.015625 L 54.5 64.257812 M 24.597656 72.671875 C 25.042969 78.054688 28.554688 81.910156 33.4375 82.382812 C 37.238281 82.746094 39.152344 82.183594 41.683594 79.953125 C 44.042969 77.875 45.5 74.617188 45.5 71.410156 L 45.5 70 L 24.375 70 L 24.597656 72.671875 M 54.5 71.410156 C 54.5 74.617188 55.957031 77.875 58.316406 79.953125 C 60.847656 82.183594 62.761719 82.746094 66.5625 82.382812 C 71.445312 81.910156 74.957031 78.054688 75.402344 72.671875 L 75.625 70 L 54.5 70 L 54.5 71.410156 "/>
</g>
</svg>
