<?xml version="1.0" encoding="UTF-8"?>
<svg xmlns="http://www.w3.org/2000/svg" xmlns:xlink="http://www.w3.org/1999/xlink" width="24px" height="24px" viewBox="0 0 24 24" version="1.1">
<g id="surface1">
<path style=" stroke:none;fill-rule:evenodd;fill:rgb(0%,0%,0%);fill-opacity:1;" d="M 8.101562 3.660156 C 8.035156 3.679688 7.832031 3.730469 7.648438 3.773438 C 7.152344 3.882812 6.402344 4.621094 6.171875 5.226562 C 5.792969 6.21875 6.164062 7.375 7.058594 7.984375 L 7.496094 8.28125 L 7.066406 8.28125 C 6.53125 8.28125 5.914062 8.679688 5.585938 9.242188 C 5.355469 9.636719 5.335938 9.878906 5.304688 13.410156 C 5.265625 17.539062 5.335938 18.277344 5.855469 19.015625 C 6.972656 20.617188 9.078125 20.8125 10.445312 19.449219 C 11.359375 18.53125 11.398438 18.292969 11.398438 13.714844 C 11.398438 10.683594 11.363281 9.746094 11.234375 9.445312 C 10.980469 8.851562 10.417969 8.390625 9.855469 8.316406 L 9.363281 8.25 L 9.890625 7.78125 C 11.171875 6.65625 10.929688 4.679688 9.421875 3.929688 C 9.042969 3.742188 8.304688 3.589844 8.101562 3.660156 M 15.015625 3.742188 C 14.285156 3.90625 13.507812 4.695312 13.347656 5.441406 C 13.140625 6.410156 13.378906 7.148438 14.09375 7.777344 L 14.519531 8.152344 L 14.054688 8.277344 C 13.449219 8.4375 12.972656 8.824219 12.765625 9.316406 C 12.542969 9.84375 12.523438 17.539062 12.742188 18.269531 C 12.933594 18.910156 13.796875 19.84375 14.429688 20.097656 C 15.082031 20.359375 16.117188 20.359375 16.769531 20.097656 C 17.402344 19.84375 18.265625 18.910156 18.457031 18.269531 C 18.554688 17.941406 18.601562 16.503906 18.601562 13.652344 C 18.601562 9.542969 18.597656 9.511719 18.328125 9.109375 C 18.078125 8.738281 17.5625 8.394531 17.007812 8.230469 C 16.828125 8.175781 16.867188 8.089844 17.269531 7.691406 C 18.210938 6.75 18.226562 5.371094 17.304688 4.398438 C 16.695312 3.757812 15.929688 3.539062 15.015625 3.742188 M 7.4375 4.46875 C 6.800781 4.90625 6.554688 5.324219 6.554688 5.980469 C 6.554688 6.6875 6.875 7.28125 7.433594 7.609375 C 9.015625 8.53125 10.816406 6.804688 9.988281 5.164062 C 9.527344 4.238281 8.277344 3.898438 7.4375 4.46875 M 14.667969 4.4375 C 13.125 5.382812 13.78125 7.847656 15.578125 7.847656 C 16.289062 7.847656 16.882812 7.527344 17.207031 6.964844 C 17.53125 6.414062 17.527344 5.507812 17.203125 5.070312 C 16.570312 4.214844 15.480469 3.945312 14.667969 4.4375 M 7.453125 5.390625 C 7.226562 5.535156 7.382812 5.910156 7.648438 5.855469 C 7.765625 5.835938 7.859375 5.714844 7.859375 5.589844 C 7.859375 5.320312 7.691406 5.238281 7.453125 5.390625 M 8.914062 5.414062 C 8.730469 5.597656 8.855469 5.878906 9.121094 5.878906 C 9.382812 5.878906 9.507812 5.597656 9.328125 5.414062 C 9.253906 5.339844 9.160156 5.28125 9.121094 5.28125 C 9.082031 5.28125 8.988281 5.339844 8.914062 5.414062 M 14.671875 5.414062 C 14.492188 5.597656 14.617188 5.878906 14.878906 5.878906 C 15.144531 5.878906 15.269531 5.597656 15.085938 5.414062 C 15.011719 5.339844 14.917969 5.28125 14.878906 5.28125 C 14.839844 5.28125 14.746094 5.339844 14.671875 5.414062 M 16.125 5.453125 C 16.039062 5.679688 16.164062 5.878906 16.390625 5.878906 C 16.636719 5.878906 16.75 5.519531 16.546875 5.390625 C 16.308594 5.238281 16.203125 5.253906 16.125 5.453125 M 7.355469 6.675781 C 7.117188 7.296875 8.910156 7.535156 9.285156 6.933594 C 9.496094 6.597656 9.210938 6.402344 8.863281 6.644531 C 8.519531 6.886719 8.15625 6.894531 7.851562 6.664062 C 7.550781 6.433594 7.449219 6.4375 7.355469 6.675781 M 14.648438 6.648438 C 14.4375 6.902344 15.03125 7.320312 15.609375 7.320312 C 16.160156 7.320312 16.746094 6.882812 16.570312 6.609375 C 16.476562 6.464844 16.414062 6.46875 16.15625 6.640625 C 15.777344 6.886719 15.476562 6.894531 15.171875 6.664062 C 14.878906 6.441406 14.820312 6.441406 14.648438 6.648438 M 6.570312 8.949219 C 6.050781 9.230469 5.878906 9.699219 5.878906 10.855469 L 5.878906 11.878906 L 10.921875 11.878906 L 10.921875 10.917969 C 10.921875 9.769531 10.71875 9.207031 10.214844 8.949219 C 9.714844 8.6875 7.050781 8.6875 6.570312 8.949219 M 13.777344 8.960938 C 13.308594 9.257812 13.199219 9.609375 13.199219 10.804688 L 13.199219 11.878906 L 18.121094 11.878906 L 18.121094 10.742188 C 18.121094 9.652344 18.105469 9.585938 17.769531 9.210938 L 17.421875 8.820312 L 15.761719 8.789062 C 14.367188 8.761719 14.046875 8.789062 13.777344 8.960938 M 7.089844 12.40625 C 7.117188 12.429688 7.921875 12.761719 8.878906 13.136719 C 9.835938 13.515625 10.6875 13.851562 10.769531 13.882812 C 10.882812 13.929688 10.921875 13.738281 10.921875 13.152344 L 10.921875 12.359375 L 8.980469 12.359375 C 7.914062 12.359375 7.0625 12.378906 7.089844 12.40625 M 15.71875 12.964844 C 16.546875 13.292969 17.421875 13.640625 17.671875 13.738281 L 18.121094 13.917969 L 18.121094 12.359375 L 16.171875 12.367188 L 14.21875 12.375 L 15.71875 12.964844 M 5.878906 13.261719 L 5.878906 14.039062 L 7.828125 14.03125 L 9.78125 14.027344 L 8.28125 13.433594 C 7.453125 13.109375 6.578125 12.761719 6.328125 12.660156 L 5.878906 12.480469 L 5.878906 13.261719 M 13.078125 13.246094 L 13.078125 14.039062 L 15.019531 14.039062 C 16.085938 14.039062 16.9375 14.019531 16.910156 13.992188 C 16.882812 13.964844 16.078125 13.632812 15.121094 13.257812 C 14.164062 12.882812 13.3125 12.550781 13.230469 12.515625 C 13.117188 12.46875 13.078125 12.660156 13.078125 13.246094 M 7.09375 14.574219 C 7.160156 14.640625 10.773438 16.078125 10.875 16.078125 C 10.90625 16.078125 10.914062 15.742188 10.894531 15.328125 L 10.859375 14.578125 L 8.945312 14.546875 C 7.894531 14.527344 7.0625 14.542969 7.09375 14.574219 M 14.289062 14.570312 C 14.316406 14.597656 15.121094 14.925781 16.078125 15.300781 C 17.035156 15.675781 17.886719 16.011719 17.96875 16.042969 C 18.082031 16.089844 18.121094 15.898438 18.121094 15.3125 L 18.121094 14.519531 L 16.179688 14.519531 C 15.113281 14.519531 14.261719 14.542969 14.289062 14.570312 M 5.878906 15.433594 L 5.878906 16.199219 L 7.761719 16.199219 C 8.792969 16.199219 9.617188 16.175781 9.589844 16.148438 C 9.5625 16.121094 8.714844 15.777344 7.710938 15.382812 L 5.878906 14.667969 L 5.878906 15.433594 M 13.078125 15.421875 L 13.078125 16.199219 L 15.03125 16.195312 L 16.980469 16.1875 L 15.660156 15.667969 C 14.933594 15.378906 14.054688 15.035156 13.710938 14.894531 L 13.078125 14.644531 L 13.078125 15.421875 M 5.902344 17.441406 C 6.011719 18.734375 6.855469 19.660156 8.023438 19.769531 C 8.9375 19.859375 9.394531 19.722656 10.003906 19.1875 C 10.570312 18.691406 10.921875 17.90625 10.921875 17.136719 L 10.921875 16.800781 L 5.851562 16.800781 L 5.902344 17.441406 M 13.078125 17.136719 C 13.078125 17.90625 13.429688 18.691406 13.996094 19.1875 C 14.605469 19.722656 15.0625 19.859375 15.976562 19.769531 C 17.144531 19.660156 17.988281 18.734375 18.097656 17.441406 L 18.148438 16.800781 L 13.078125 16.800781 L 13.078125 17.136719 "/>
</g>
</svg>
