<?xml version="1.0" encoding="UTF-8"?>
<svg xmlns="http://www.w3.org/2000/svg" xmlns:xlink="http://www.w3.org/1999/xlink" width="100px" height="100px" viewBox="0 0 100 100" version="1.1">
<g id="surface1">
<path style=" stroke:none;fill-rule:evenodd;fill:rgb(0%,0%,0%);fill-opacity:1;" d="M 24.917969 16.5 L 7.085938 16.75 L 4.917969 18.253906 C 3.5 19.238281 2.273438 20.691406 1.375 22.46875 L 0 25.179688 L 0 74.886719 L 1.398438 77.558594 C 2.269531 79.226562 3.601562 80.800781 4.941406 81.742188 L 7.085938 83.25 L 92.914062 83.25 L 95.050781 81.746094 C 96.417969 80.785156 97.773438 79.164062 98.8125 77.246094 L 100.433594 74.25 L 100.46875 49.292969 C 100.484375 35.566406 100.359375 24.472656 100.191406 24.644531 C 100.019531 24.816406 99.3125 23.820312 98.621094 22.429688 C 97.226562 19.632812 94.277344 17.171875 91.816406 16.761719 C 89.535156 16.378906 45.695312 16.207031 24.917969 16.5 M 7.15625 19.472656 C 5.84375 20.070312 4.542969 21.210938 3.65625 22.546875 C 2.261719 24.65625 2.25 24.746094 2.085938 33.867188 L 1.921875 43.058594 L 21.335938 42.984375 C 32.011719 42.945312 41.257812 42.792969 41.875 42.652344 C 42.851562 42.425781 43 42.070312 43 39.945312 C 43 38.601562 42.773438 37.5 42.5 37.5 C 42.226562 37.5 42 36.992188 41.996094 36.375 C 41.996094 35.757812 41.433594 34.144531 40.746094 32.789062 C 38.921875 29.191406 39.066406 26.832031 41.25 24.648438 C 42.71875 23.179688 43 22.546875 43 20.699219 L 43 18.5 L 26.125 18.511719 C 10.628906 18.519531 9.078125 18.597656 7.15625 19.472656 M 45 21 C 45 23.421875 45.046875 23.5 46.4375 23.5 C 47.230469 23.5 48.15625 23.164062 48.5 22.75 C 48.84375 22.335938 49.515625 22 50 22 C 50.484375 22 51.15625 22.335938 51.5 22.75 C 51.84375 23.164062 52.769531 23.5 53.5625 23.5 C 54.953125 23.5 55 23.421875 55 21 L 55 18.5 L 45 18.5 L 45 21 M 57 20.785156 C 57 22.746094 57.246094 23.300781 58.75 24.71875 C 60.9375 26.78125 61.085938 29.171875 59.253906 32.789062 C 58.566406 34.144531 58.003906 35.757812 58.003906 36.375 C 58 36.992188 57.773438 37.5 57.5 37.5 C 57.226562 37.5 57 38.601562 57 39.945312 C 57 42.070312 57.148438 42.425781 58.125 42.652344 C 58.742188 42.792969 67.988281 42.945312 78.664062 42.984375 L 98.078125 43.058594 L 97.914062 33.867188 C 97.75 24.746094 97.738281 24.65625 96.34375 22.546875 C 93.738281 18.617188 93.210938 18.523438 73.875 18.511719 L 57 18.5 L 57 20.785156 M 0.230469 50 C 0.230469 63.886719 0.296875 69.570312 0.375 62.625 C 0.453125 55.679688 0.453125 44.320312 0.375 37.375 C 0.296875 30.429688 0.230469 36.113281 0.230469 50 M 42.328125 26.414062 C 41.082031 27.792969 41.324219 29.609375 43.082031 32.035156 C 44.769531 34.363281 44.730469 34.375 45.734375 31.261719 C 46.023438 30.371094 46.160156 30.4375 47.101562 31.925781 C 48.449219 34.058594 48.980469 33.289062 48.992188 29.1875 C 49 26.15625 48.984375 26.121094 47.4375 25.8125 C 44.765625 25.277344 43.1875 25.464844 42.328125 26.414062 M 52.125 25.839844 C 51.101562 26.046875 51 26.351562 51.007812 29.160156 C 51.015625 33.195312 51.613281 34.199219 52.722656 32.054688 C 53.683594 30.195312 54.238281 30.351562 54.714844 32.613281 L 55.058594 34.25 L 56.546875 32.5 C 58.441406 30.277344 58.851562 28.671875 57.9375 27.035156 C 57.367188 26.015625 56.808594 25.734375 55.234375 25.683594 C 54.144531 25.644531 52.742188 25.714844 52.125 25.839844 M 45 39.5 C 45 41.148438 45.199219 42.5 45.441406 42.5 C 45.683594 42.5 46.6875 41.148438 47.671875 39.5 L 49.457031 36.5 L 45 36.5 L 45 39.5 M 51.257812 37.832031 C 51.738281 38.566406 52.574219 39.914062 53.113281 40.832031 C 53.65625 41.75 54.300781 42.5 54.550781 42.5 C 54.796875 42.5 55 41.148438 55 39.5 L 55 36.5 L 50.386719 36.5 L 51.257812 37.832031 M 48.328125 42.535156 L 46.941406 45 L 44.222656 45 C 42.722656 45 41.5 45.128906 41.5 45.285156 C 41.5 45.441406 42.078125 46.558594 42.785156 47.761719 L 44.070312 49.953125 L 42.785156 52.148438 C 42.078125 53.351562 41.5 54.488281 41.5 54.667969 C 41.5 54.851562 42.71875 55 44.207031 55 L 46.917969 55 L 48.417969 57.597656 L 49.917969 60.199219 L 51.535156 57.597656 L 53.148438 55 L 55.824219 55 C 57.296875 55 58.5 54.871094 58.5 54.714844 C 58.5 54.558594 57.914062 53.433594 57.203125 52.214844 L 55.90625 50 L 57.203125 47.785156 C 57.914062 46.566406 58.5 45.441406 58.5 45.285156 C 58.5 45.128906 57.285156 45 55.796875 45 C 53.128906 45 53.078125 44.972656 51.792969 42.777344 C 51.074219 41.550781 50.3125 40.445312 50.101562 40.3125 C 49.886719 40.179688 49.089844 41.179688 48.328125 42.535156 M 49.375 43.84375 C 48.894531 43.96875 48.5 44.40625 48.5 44.816406 C 48.5 45.222656 48.292969 45.429688 48.039062 45.273438 C 47.316406 44.828125 46.761719 51.503906 47.433594 52.578125 C 47.746094 53.078125 48 53.941406 48 54.492188 C 48 55.335938 48.328125 55.5 50 55.5 C 51.425781 55.5 52 55.289062 52 54.765625 C 52 54.363281 52.429688 53.179688 52.953125 52.140625 C 54.257812 49.554688 54.671875 48 54.058594 48 C 53.777344 48 53.320312 48.394531 53.039062 48.875 C 52.640625 49.5625 52.527344 49.265625 52.515625 47.484375 C 52.503906 45.847656 52.222656 44.984375 51.496094 44.359375 C 50.941406 43.886719 50.433594 43.527344 50.371094 43.558594 C 50.304688 43.589844 49.855469 43.71875 49.375 43.84375 M 2 50 L 2 55 L 38.839844 55 L 40.203125 52.5 L 41.5625 50 L 40.203125 47.5 L 38.839844 45 L 2 45 L 2 50 M 59.796875 47.5 L 58.4375 50 L 59.796875 52.5 L 61.160156 55 L 98 55 L 98 45 L 61.160156 45 L 59.796875 47.5 M 2.085938 66.140625 C 2.246094 75.140625 2.277344 75.367188 3.59375 77.351562 C 4.398438 78.570312 5.804688 79.800781 7.125 80.441406 C 9.222656 81.457031 10.015625 81.5 26.15625 81.5 L 43 81.5 L 43 69.554688 C 43 60.15625 42.859375 57.554688 42.34375 57.355469 C 41.984375 57.21875 32.738281 57.070312 21.804688 57.027344 L 1.921875 56.953125 L 2.085938 66.140625 M 57.625 57.355469 C 57.148438 57.53125 57 60.429688 57 69.542969 L 57 81.5 L 73.84375 81.5 C 89.984375 81.5 90.777344 81.457031 92.875 80.441406 C 94.195312 79.800781 95.601562 78.570312 96.40625 77.351562 C 97.722656 75.367188 97.753906 75.140625 97.914062 66.140625 L 98.078125 56.957031 L 78.164062 57.042969 C 67.210938 57.09375 57.96875 57.234375 57.625 57.355469 M 45 69.5 L 45 81.5 L 55 81.5 L 55 69.5 C 55 62.164062 54.8125 57.5 54.519531 57.5 C 54.257812 57.5 53.1875 58.957031 52.144531 60.742188 C 51.101562 62.523438 50.128906 63.984375 49.980469 63.992188 C 49.828125 63.996094 48.851562 62.539062 47.804688 60.75 C 46.761719 58.960938 45.703125 57.5 45.453125 57.5 C 45.195312 57.5 45 62.667969 45 69.5 "/>
</g>
</svg>
