<?xml version="1.0" encoding="UTF-8"?>
<svg xmlns="http://www.w3.org/2000/svg" xmlns:xlink="http://www.w3.org/1999/xlink" width="24px" height="24px" viewBox="0 0 24 24" version="1.1">
<g id="surface1">
<path style=" stroke:none;fill-rule:evenodd;fill:rgb(0%,0%,0%);fill-opacity:1;" d="M 5.980469 3.960938 L 1.699219 4.019531 L 1.179688 4.378906 C 0.839844 4.617188 0.546875 4.964844 0.328125 5.390625 L 0 6.042969 L 0 17.972656 L 0.335938 18.613281 C 0.542969 19.015625 0.863281 19.390625 1.1875 19.617188 L 1.699219 19.980469 L 22.300781 19.980469 L 22.8125 19.621094 C 23.140625 19.390625 23.464844 19 23.714844 18.539062 L 24.105469 17.820312 L 24.113281 11.828125 C 24.117188 8.535156 24.085938 5.875 24.046875 5.914062 C 24.003906 5.957031 23.835938 5.714844 23.667969 5.382812 C 23.335938 4.710938 22.625 4.121094 22.035156 4.023438 C 21.488281 3.929688 10.964844 3.890625 5.980469 3.960938 M 1.71875 4.671875 C 1.402344 4.816406 1.089844 5.089844 0.878906 5.410156 C 0.542969 5.917969 0.539062 5.9375 0.5 8.128906 L 0.460938 10.335938 L 5.121094 10.316406 C 7.683594 10.308594 9.902344 10.269531 10.050781 10.238281 C 10.285156 10.183594 10.320312 10.097656 10.320312 9.585938 C 10.320312 9.265625 10.265625 9 10.199219 9 C 10.132812 9 10.078125 8.878906 10.078125 8.730469 C 10.078125 8.582031 9.945312 8.195312 9.78125 7.871094 C 9.339844 7.003906 9.375 6.441406 9.898438 5.914062 C 10.253906 5.5625 10.320312 5.410156 10.320312 4.96875 L 10.320312 4.441406 L 6.269531 4.441406 C 2.550781 4.445312 2.179688 4.464844 1.71875 4.671875 M 10.800781 5.039062 C 10.800781 5.621094 10.8125 5.640625 11.144531 5.640625 C 11.335938 5.640625 11.558594 5.558594 11.640625 5.460938 C 11.722656 5.359375 11.882812 5.28125 12 5.28125 C 12.117188 5.28125 12.277344 5.359375 12.359375 5.460938 C 12.441406 5.558594 12.664062 5.640625 12.855469 5.640625 C 13.1875 5.640625 13.199219 5.621094 13.199219 5.039062 L 13.199219 4.441406 L 10.800781 4.441406 L 10.800781 5.039062 M 13.679688 4.988281 C 13.679688 5.457031 13.738281 5.59375 14.101562 5.933594 C 14.625 6.425781 14.660156 7 14.21875 7.871094 C 14.054688 8.195312 13.921875 8.582031 13.921875 8.730469 C 13.921875 8.878906 13.867188 9 13.800781 9 C 13.734375 9 13.679688 9.265625 13.679688 9.585938 C 13.679688 10.097656 13.714844 10.183594 13.949219 10.238281 C 14.097656 10.269531 16.316406 10.308594 18.878906 10.316406 L 23.539062 10.335938 L 23.5 8.128906 C 23.460938 5.9375 23.457031 5.917969 23.121094 5.410156 C 22.496094 4.46875 22.371094 4.445312 17.730469 4.441406 L 13.679688 4.441406 L 13.679688 4.988281 M 0.0546875 12 C 0.0546875 15.332031 0.0703125 16.695312 0.0898438 15.03125 C 0.109375 13.363281 0.109375 10.636719 0.0898438 8.96875 C 0.0703125 7.304688 0.0546875 8.667969 0.0546875 12 M 10.160156 6.339844 C 9.859375 6.671875 9.917969 7.105469 10.339844 7.6875 C 10.746094 8.246094 10.734375 8.25 10.976562 7.503906 C 11.046875 7.289062 11.078125 7.304688 11.304688 7.660156 C 11.628906 8.171875 11.753906 7.988281 11.757812 7.003906 C 11.761719 6.277344 11.757812 6.269531 11.386719 6.195312 C 10.742188 6.066406 10.363281 6.113281 10.160156 6.339844 M 12.511719 6.203125 C 12.265625 6.25 12.238281 6.324219 12.242188 7 C 12.246094 7.96875 12.386719 8.207031 12.652344 7.695312 C 12.882812 7.246094 13.015625 7.285156 13.132812 7.828125 L 13.214844 8.21875 L 13.570312 7.800781 C 14.027344 7.265625 14.125 6.878906 13.90625 6.488281 C 13.769531 6.242188 13.632812 6.175781 13.257812 6.164062 C 12.996094 6.15625 12.660156 6.171875 12.511719 6.203125 M 10.800781 9.480469 C 10.800781 9.875 10.847656 10.199219 10.90625 10.199219 C 10.964844 10.199219 11.203125 9.875 11.441406 9.480469 L 11.871094 8.761719 L 10.800781 8.761719 L 10.800781 9.480469 M 12.300781 9.078125 C 12.417969 9.253906 12.617188 9.578125 12.746094 9.800781 C 12.878906 10.019531 13.03125 10.199219 13.09375 10.199219 C 13.152344 10.199219 13.199219 9.875 13.199219 9.480469 L 13.199219 8.761719 L 12.09375 8.761719 L 12.300781 9.078125 M 11.597656 10.207031 L 11.265625 10.800781 L 10.613281 10.800781 C 10.253906 10.800781 9.960938 10.832031 9.960938 10.867188 C 9.960938 10.90625 10.097656 11.175781 10.269531 11.464844 L 10.578125 11.988281 L 10.269531 12.515625 C 10.097656 12.804688 9.960938 13.078125 9.960938 13.121094 C 9.960938 13.164062 10.253906 13.199219 10.609375 13.199219 L 11.261719 13.199219 L 11.980469 14.449219 L 12.367188 13.824219 L 12.757812 13.199219 L 13.398438 13.199219 C 13.75 13.199219 14.039062 13.167969 14.039062 13.132812 C 14.039062 13.09375 13.898438 12.824219 13.730469 12.53125 L 13.417969 12 L 13.730469 11.46875 C 13.898438 11.175781 14.039062 10.90625 14.039062 10.867188 C 14.039062 10.832031 13.75 10.800781 13.390625 10.800781 C 12.75 10.800781 12.738281 10.792969 12.429688 10.265625 C 12.257812 9.972656 12.074219 9.707031 12.023438 9.675781 C 11.972656 9.644531 11.78125 9.882812 11.597656 10.207031 M 11.851562 10.523438 C 11.734375 10.554688 11.640625 10.65625 11.640625 10.753906 C 11.640625 10.855469 11.589844 10.902344 11.53125 10.867188 C 11.355469 10.757812 11.222656 12.359375 11.382812 12.617188 C 11.457031 12.738281 11.519531 12.945312 11.519531 13.078125 C 11.519531 13.28125 11.597656 13.320312 12 13.320312 C 12.34375 13.320312 12.480469 13.269531 12.480469 13.144531 C 12.480469 13.046875 12.582031 12.761719 12.707031 12.515625 C 13.023438 11.894531 13.121094 11.519531 12.972656 11.519531 C 12.90625 11.519531 12.796875 11.613281 12.730469 11.730469 C 12.632812 11.894531 12.605469 11.824219 12.605469 11.398438 C 12.601562 11.003906 12.53125 10.796875 12.359375 10.648438 C 12.226562 10.53125 12.105469 10.445312 12.089844 10.453125 C 12.074219 10.460938 11.964844 10.492188 11.851562 10.523438 M 0.480469 12 L 0.480469 13.199219 L 9.320312 13.199219 L 9.648438 12.601562 L 9.976562 12 L 9.648438 11.398438 L 9.320312 10.800781 L 0.480469 10.800781 L 0.480469 12 M 14.351562 11.398438 L 14.023438 12 L 14.351562 12.601562 L 14.679688 13.199219 L 23.519531 13.199219 L 23.519531 10.800781 L 14.679688 10.800781 L 14.351562 11.398438 M 0.5 15.875 C 0.539062 18.035156 0.546875 18.089844 0.863281 18.566406 C 1.054688 18.855469 1.394531 19.152344 1.710938 19.304688 C 2.214844 19.550781 2.402344 19.558594 6.277344 19.558594 L 10.320312 19.558594 L 10.320312 16.691406 C 10.320312 14.4375 10.285156 13.8125 10.164062 13.765625 C 10.074219 13.730469 7.859375 13.695312 5.234375 13.6875 L 0.460938 13.667969 L 0.5 15.875 M 13.828125 13.765625 C 13.714844 13.808594 13.679688 14.503906 13.679688 16.691406 L 13.679688 19.558594 L 17.722656 19.558594 C 21.597656 19.558594 21.785156 19.550781 22.289062 19.304688 C 22.605469 19.152344 22.945312 18.855469 23.136719 18.566406 C 23.453125 18.089844 23.460938 18.035156 23.5 15.875 L 23.539062 13.667969 L 18.757812 13.691406 C 16.132812 13.703125 13.914062 13.734375 13.828125 13.765625 M 10.800781 16.679688 L 10.800781 19.558594 L 13.199219 19.558594 L 13.199219 16.679688 C 13.199219 14.917969 13.15625 13.800781 13.085938 13.800781 C 13.019531 13.800781 12.765625 14.148438 12.515625 14.578125 C 12.265625 15.003906 12.03125 15.355469 11.996094 15.359375 C 11.960938 15.359375 11.722656 15.007812 11.472656 14.578125 C 11.222656 14.152344 10.96875 13.800781 10.910156 13.800781 C 10.847656 13.800781 10.800781 15.039062 10.800781 16.679688 "/>
</g>
</svg>
