<?xml version="1.0" encoding="UTF-8"?>
<svg xmlns="http://www.w3.org/2000/svg" xmlns:xlink="http://www.w3.org/1999/xlink" width="100px" height="100px" viewBox="0 0 100 100" version="1.1">
<g id="surface1">
<path style=" stroke:none;fill-rule:evenodd;fill:rgb(0%,0%,0%);fill-opacity:1;" d="M 13.75 0.820312 C 9.351562 1.199219 5.507812 1.597656 5.210938 1.707031 C 4.878906 1.824219 4.320312 6.328125 3.785156 13.171875 C 3.054688 22.476562 3.003906 25.058594 3.5 28.003906 C 4.652344 34.832031 9.328125 41.753906 15.054688 45.109375 C 22.859375 49.683594 33.011719 49.894531 40.371094 45.636719 L 42.496094 44.40625 L 43.550781 46.828125 C 45.125 50.4375 46.792969 54.917969 47.671875 57.878906 C 48.425781 60.4375 48.421875 60.492188 47.488281 59.992188 C 46.960938 59.710938 45.433594 59.273438 44.097656 59.019531 C 42.472656 58.710938 41.101562 58.027344 39.957031 56.953125 C 37.507812 54.648438 34.398438 53.414062 30.816406 53.324219 C 24.335938 53.164062 19.390625 56.019531 16.621094 61.519531 C 15.191406 64.359375 14.914062 65.597656 14.316406 71.75 C 13.941406 75.601562 13.703125 78.828125 13.78125 78.921875 C 14.226562 79.453125 27.621094 82.476562 29.566406 82.488281 C 35.277344 82.515625 41.222656 78.636719 43.519531 73.386719 C 44.820312 70.410156 45.113281 65.027344 44.078125 63.125 C 43.363281 61.8125 43.566406 61.746094 45.398438 62.703125 C 47.070312 63.570312 48.636719 65.261719 49.675781 67.316406 C 50.808594 69.566406 52.476562 81.925781 52.890625 91.195312 C 53.195312 97.941406 53.382812 99.226562 54.117188 99.6875 C 54.777344 100.105469 55.167969 100.046875 55.78125 99.433594 C 56.492188 98.722656 56.523438 97.675781 56.046875 89.691406 C 55.753906 84.773438 55.164062 78.078125 54.730469 74.808594 L 53.949219 68.871094 L 55.097656 67.617188 C 56.457031 66.140625 59.96875 63.5 60.574219 63.5 C 60.808594 63.5 61 64.136719 61 64.910156 C 61 67.886719 62.617188 71.191406 65.46875 74.046875 C 69.011719 77.589844 71.964844 78.6875 77.265625 78.417969 C 80.648438 78.25 81.472656 77.964844 87.277344 74.992188 C 90.757812 73.207031 93.71875 71.464844 93.859375 71.113281 C 94.191406 70.285156 90.148438 58.777344 88.707031 56.457031 C 83.851562 48.640625 72.078125 47.175781 65.488281 53.570312 C 64.339844 54.683594 62.972656 56.566406 62.445312 57.757812 C 61.71875 59.402344 61.136719 60 60.03125 60.242188 C 59.230469 60.417969 57.304688 61.472656 55.753906 62.582031 C 54.203125 63.691406 52.816406 64.484375 52.675781 64.339844 C 51.976562 63.640625 56.679688 50.1875 59.785156 44 C 63.039062 37.515625 62.8125 37.679688 65.609375 39.671875 C 69.214844 42.238281 72.808594 43.183594 77.792969 42.871094 C 87.480469 42.269531 94.84375 35.714844 96.578125 26.148438 C 96.972656 23.976562 96.914062 21.015625 96.347656 14.335938 C 95.929688 9.433594 95.511719 5.34375 95.414062 5.246094 C 94.964844 4.796875 79.996094 3.902344 76.113281 4.09375 C 72.519531 4.273438 71.171875 4.589844 68.457031 5.890625 C 58.179688 10.824219 53.917969 24.261719 59.714844 33.445312 L 60.867188 35.269531 L 58.878906 38.761719 C 56.546875 42.84375 53.519531 49.597656 52.261719 53.5 C 51.777344 55.011719 51.222656 56.417969 51.039062 56.625 C 50.851562 56.832031 50.171875 55.371094 49.53125 53.378906 C 48.890625 51.386719 47.609375 48.097656 46.683594 46.070312 L 45.003906 42.378906 L 46.519531 40.652344 C 50.484375 36.132812 52.5 30.988281 52.5 25.371094 C 52.5 13.453125 44.742188 3.429688 33.453125 0.769531 C 29.660156 -0.125 24.621094 -0.113281 13.75 0.820312 M 17.25 3.824219 C 12.574219 4.207031 8.511719 4.601562 8.222656 4.707031 C 7.644531 4.910156 6.496094 17.859375 6.496094 24.140625 C 6.503906 36.582031 15.714844 45.5 28.550781 45.5 C 32.25 45.5 37.515625 44.070312 39.5 42.527344 L 40.75 41.554688 L 39.75 39.667969 C 35.753906 32.128906 26.453125 22.777344 19.375 19.1875 C 16.910156 17.9375 16.464844 17.066406 17.75 16 C 18.347656 15.503906 18.816406 15.511719 20.078125 16.03125 C 23.3125 17.371094 29.015625 21.53125 32.78125 25.296875 C 35.601562 28.117188 36.570312 28.847656 36.328125 27.964844 C 35.699219 25.699219 35.382812 17.757812 35.847656 16 C 36.21875 14.605469 36.5625 14.25 37.53125 14.25 C 38.746094 14.25 38.75 14.265625 39.070312 21 C 39.242188 24.710938 39.734375 28.992188 40.15625 30.507812 C 41.277344 34.519531 43.011719 39 43.449219 39 C 45.046875 39 48.378906 32.664062 49.113281 28.226562 C 50.664062 18.867188 45.769531 9.394531 37.363281 5.488281 C 34.480469 4.152344 29.101562 2.925781 26.75 3.070312 C 26.199219 3.101562 21.925781 3.441406 17.25 3.824219 M 72.464844 7.683594 C 64.824219 9.742188 60.492188 15.617188 60.507812 23.894531 C 60.511719 26.835938 60.78125 28.328125 61.644531 30.191406 L 62.773438 32.636719 L 64.9375 29.828125 C 69.1875 24.324219 76.839844 17.929688 81.488281 16.003906 C 82.84375 15.445312 83.175781 15.460938 83.851562 16.136719 C 84.855469 17.140625 84.378906 18.378906 82.75 19 C 78.683594 20.546875 71.859375 26.269531 67.398438 31.878906 L 64.796875 35.148438 L 66.496094 36.566406 C 69.605469 39.164062 75.101562 40.402344 79.730469 39.546875 C 85.386719 38.5 89.320312 35.660156 91.925781 30.75 C 93.1875 28.367188 93.25 27.914062 93.214844 21 C 93.195312 17.011719 93.015625 12.492188 92.8125 10.949219 L 92.445312 8.152344 L 85.574219 7.574219 C 77.214844 6.875 75.40625 6.890625 72.464844 7.683594 M 73 52.96875 C 69.269531 54.105469 65.5 57.113281 65.5 58.953125 C 65.5 59.265625 66.425781 59.5 67.660156 59.5 C 70.375 59.5 74.375 60.675781 78.25 62.613281 C 83.875 65.421875 85.652344 67.347656 83.617188 68.4375 C 82.949219 68.792969 81.953125 68.4375 79.492188 66.957031 C 75.363281 64.46875 70.566406 62.867188 67.042969 62.800781 C 63.886719 62.742188 63.597656 63.144531 64.464844 66.367188 C 65.394531 69.824219 67.792969 72.824219 70.800781 74.296875 C 74.917969 76.308594 78.21875 75.902344 84.875 72.5625 C 87.695312 71.148438 90 69.699219 90 69.339844 C 90 68.414062 87.289062 60.507812 86.347656 58.691406 C 85.203125 56.476562 81.859375 53.644531 79.660156 53.035156 C 77.492188 52.433594 74.839844 52.40625 73 52.96875 M 25 57.269531 C 20.433594 59.316406 18.632812 62.601562 17.769531 70.445312 C 17.417969 73.636719 17.183594 76.316406 17.25 76.394531 C 17.316406 76.472656 19.480469 77.121094 22.058594 77.832031 C 31.773438 80.519531 37.183594 79.09375 40.246094 73.042969 C 42.140625 69.300781 41.625 62 39.464844 62 C 36.773438 62 31.28125 65.015625 27.265625 68.703125 C 26.171875 69.703125 24.972656 70.40625 24.597656 70.261719 C 24.222656 70.117188 23.824219 70 23.710938 70 C 23.59375 70 23.5 69.449219 23.5 68.777344 C 23.5 67.894531 24.300781 66.902344 26.375 65.203125 C 29.105469 62.972656 35.488281 59.5 36.859375 59.5 C 38.097656 59.5 37.480469 58.605469 35.625 57.703125 C 33.082031 56.46875 27.316406 56.234375 25 57.269531 "/>
</g>
</svg>
