<?xml version="1.0" encoding="UTF-8"?>
<svg xmlns="http://www.w3.org/2000/svg" xmlns:xlink="http://www.w3.org/1999/xlink" width="24px" height="24px" viewBox="0 0 24 24" version="1.1">
<g id="surface1">
<path style=" stroke:none;fill-rule:evenodd;fill:rgb(0%,0%,0%);fill-opacity:1;" d="M 3.300781 0.195312 C 2.242188 0.289062 1.320312 0.382812 1.25 0.410156 C 1.171875 0.4375 1.035156 1.519531 0.90625 3.160156 C 0.734375 5.394531 0.722656 6.015625 0.839844 6.722656 C 1.117188 8.359375 2.238281 10.019531 3.613281 10.828125 C 5.484375 11.921875 7.921875 11.972656 9.691406 10.953125 L 10.199219 10.65625 L 10.453125 11.238281 C 10.828125 12.105469 11.230469 13.179688 11.441406 13.890625 C 11.621094 14.503906 11.621094 14.519531 11.398438 14.398438 C 11.269531 14.332031 10.902344 14.226562 10.582031 14.164062 C 10.191406 14.089844 9.863281 13.925781 9.589844 13.667969 C 9 13.117188 8.253906 12.820312 7.394531 12.796875 C 5.839844 12.757812 4.652344 13.445312 3.988281 14.765625 C 3.644531 15.445312 3.578125 15.742188 3.4375 17.21875 C 3.347656 18.144531 3.289062 18.917969 3.308594 18.941406 C 3.414062 19.070312 6.628906 19.792969 7.097656 19.796875 C 8.464844 19.804688 9.894531 18.871094 10.445312 17.613281 C 10.757812 16.898438 10.828125 15.605469 10.578125 15.148438 C 10.40625 14.835938 10.457031 14.820312 10.894531 15.046875 C 11.296875 15.257812 11.671875 15.664062 11.921875 16.15625 C 12.195312 16.695312 12.59375 19.660156 12.695312 21.886719 C 12.765625 23.507812 12.8125 23.8125 12.988281 23.925781 C 13.148438 24.023438 13.242188 24.011719 13.386719 23.863281 C 13.558594 23.691406 13.566406 23.441406 13.453125 21.527344 C 13.382812 20.347656 13.238281 18.738281 13.136719 17.953125 L 12.949219 16.527344 L 13.222656 16.226562 C 13.550781 15.875 14.390625 15.238281 14.539062 15.238281 C 14.59375 15.238281 14.640625 15.390625 14.640625 15.578125 C 14.640625 16.292969 15.027344 17.085938 15.710938 17.769531 C 16.5625 18.621094 17.269531 18.886719 18.542969 18.820312 C 19.355469 18.78125 19.554688 18.710938 20.945312 17.996094 C 21.78125 17.570312 22.492188 17.152344 22.527344 17.066406 C 22.605469 16.867188 21.636719 14.105469 21.289062 13.550781 C 20.125 11.675781 17.296875 11.320312 15.71875 12.855469 C 15.441406 13.125 15.113281 13.578125 14.988281 13.863281 C 14.8125 14.257812 14.671875 14.398438 14.40625 14.457031 C 14.214844 14.5 13.753906 14.753906 13.382812 15.019531 C 13.007812 15.285156 12.675781 15.476562 12.640625 15.441406 C 12.472656 15.273438 13.601562 12.042969 14.347656 10.558594 C 15.128906 9.003906 15.074219 9.042969 15.746094 9.523438 C 16.609375 10.136719 17.472656 10.363281 18.671875 10.289062 C 20.996094 10.144531 22.761719 8.570312 23.179688 6.277344 C 23.273438 5.753906 23.257812 5.042969 23.125 3.441406 C 23.023438 2.265625 22.921875 1.28125 22.898438 1.257812 C 22.792969 1.152344 19.199219 0.9375 18.265625 0.984375 C 17.40625 1.027344 17.082031 1.101562 16.429688 1.414062 C 13.964844 2.597656 12.941406 5.824219 14.332031 8.027344 L 14.609375 8.464844 L 14.128906 9.300781 C 13.570312 10.28125 12.84375 11.902344 12.542969 12.839844 C 12.425781 13.203125 12.292969 13.539062 12.25 13.589844 C 12.203125 13.640625 12.042969 13.289062 11.886719 12.8125 C 11.734375 12.332031 11.425781 11.542969 11.203125 11.054688 L 10.800781 10.171875 L 11.164062 9.757812 C 12.117188 8.671875 12.601562 7.4375 12.601562 6.089844 C 12.601562 3.230469 10.738281 0.824219 8.027344 0.183594 C 7.117188 -0.03125 5.910156 -0.0273438 3.300781 0.195312 M 4.140625 0.917969 C 3.019531 1.007812 2.042969 1.105469 1.972656 1.128906 C 1.835938 1.179688 1.558594 4.285156 1.558594 5.792969 C 1.5625 8.78125 3.769531 10.921875 6.851562 10.921875 C 7.738281 10.921875 9.003906 10.578125 9.480469 10.207031 L 9.78125 9.972656 L 9.539062 9.519531 C 8.582031 7.710938 6.347656 5.46875 4.648438 4.605469 C 4.058594 4.304688 3.953125 4.09375 4.261719 3.839844 C 4.402344 3.722656 4.515625 3.722656 4.820312 3.847656 C 5.59375 4.167969 6.964844 5.167969 7.867188 6.070312 C 8.542969 6.746094 8.777344 6.921875 8.71875 6.710938 C 8.566406 6.167969 8.492188 4.261719 8.605469 3.839844 C 8.691406 3.503906 8.773438 3.421875 9.007812 3.421875 C 9.300781 3.421875 9.300781 3.425781 9.375 5.039062 C 9.417969 5.929688 9.535156 6.957031 9.636719 7.320312 C 9.90625 8.285156 10.324219 9.359375 10.429688 9.359375 C 10.8125 9.359375 11.609375 7.839844 11.789062 6.773438 C 12.160156 4.527344 10.984375 2.253906 8.964844 1.316406 C 8.273438 0.996094 6.984375 0.703125 6.421875 0.738281 C 6.289062 0.746094 5.261719 0.828125 4.140625 0.917969 M 17.390625 1.84375 C 15.558594 2.339844 14.519531 3.746094 14.523438 5.734375 C 14.523438 6.441406 14.585938 6.800781 14.792969 7.246094 L 15.066406 7.832031 L 15.585938 7.160156 C 16.605469 5.835938 18.441406 4.304688 19.558594 3.839844 C 19.882812 3.707031 19.960938 3.710938 20.125 3.871094 C 20.367188 4.113281 20.25 4.410156 19.859375 4.558594 C 18.882812 4.929688 17.246094 6.304688 16.175781 7.652344 L 15.550781 8.433594 L 15.957031 8.777344 C 16.707031 9.398438 18.023438 9.695312 19.136719 9.492188 C 20.492188 9.238281 21.4375 8.558594 22.0625 7.378906 C 22.367188 6.808594 22.378906 6.699219 22.371094 5.039062 C 22.367188 4.082031 22.324219 2.996094 22.273438 2.628906 L 22.1875 1.957031 L 20.539062 1.816406 C 18.53125 1.648438 18.097656 1.652344 17.390625 1.84375 M 17.519531 12.710938 C 16.625 12.984375 15.71875 13.707031 15.71875 14.148438 C 15.71875 14.222656 15.941406 14.28125 16.238281 14.28125 C 16.890625 14.28125 17.851562 14.5625 18.78125 15.027344 C 20.128906 15.699219 20.554688 16.164062 20.070312 16.425781 C 19.90625 16.511719 19.667969 16.425781 19.078125 16.070312 C 18.085938 15.472656 16.9375 15.089844 16.089844 15.074219 C 15.332031 15.058594 15.261719 15.15625 15.472656 15.929688 C 15.695312 16.757812 16.269531 17.476562 16.992188 17.832031 C 17.980469 18.316406 18.773438 18.21875 20.371094 17.414062 C 21.046875 17.074219 21.601562 16.726562 21.601562 16.640625 C 21.601562 16.417969 20.949219 14.523438 20.722656 14.085938 C 20.449219 13.554688 19.644531 12.875 19.117188 12.730469 C 18.597656 12.585938 17.960938 12.578125 17.519531 12.710938 M 6 13.746094 C 4.902344 14.234375 4.472656 15.023438 4.265625 16.90625 C 4.179688 17.671875 4.125 18.316406 4.140625 18.335938 C 4.15625 18.355469 4.675781 18.507812 5.292969 18.679688 C 7.625 19.324219 8.925781 18.984375 9.660156 17.53125 C 10.113281 16.632812 9.992188 14.878906 9.472656 14.878906 C 8.824219 14.878906 7.507812 15.605469 6.542969 16.488281 C 6.28125 16.730469 5.992188 16.898438 5.902344 16.863281 C 5.8125 16.828125 5.71875 16.800781 5.691406 16.800781 C 5.664062 16.800781 5.640625 16.667969 5.640625 16.507812 C 5.640625 16.292969 5.832031 16.054688 6.328125 15.648438 C 6.984375 15.113281 8.515625 14.28125 8.847656 14.28125 C 9.144531 14.28125 8.996094 14.066406 8.550781 13.847656 C 7.941406 13.550781 6.554688 13.496094 6 13.746094 "/>
</g>
</svg>
