<?xml version="1.0" encoding="UTF-8"?>
<svg xmlns="http://www.w3.org/2000/svg" xmlns:xlink="http://www.w3.org/1999/xlink" width="24px" height="24px" viewBox="0 0 24 24" version="1.1">
<g id="surface1">
<path style=" stroke:none;fill-rule:evenodd;fill:rgb(0%,0%,0%);fill-opacity:1;" d="M 14.042969 1.394531 C 13.679688 1.488281 13.203125 1.675781 12.984375 1.804688 C 12.601562 2.03125 12.550781 2.03125 12.019531 1.851562 C 10.480469 1.328125 8.800781 2.578125 8.390625 4.546875 C 8.125 5.816406 8.296875 6.707031 9.140625 8.433594 C 9.554688 9.28125 9.964844 10.035156 10.050781 10.105469 C 10.285156 10.300781 10.480469 10.03125 10.730469 9.175781 C 10.980469 8.324219 10.980469 8.304688 10.859375 6.34375 C 10.769531 4.929688 10.78125 4.792969 11.023438 4.292969 C 11.164062 4 11.421875 3.628906 11.597656 3.46875 L 11.910156 3.179688 L 11.695312 3.601562 C 11.554688 3.875 11.488281 4.25 11.5 4.679688 C 11.535156 5.753906 11.53125 5.917969 11.453125 6.421875 C 11.410156 6.71875 11.476562 7.324219 11.632812 8.023438 L 11.886719 9.144531 L 11.632812 10.542969 C 11.28125 12.496094 10.863281 13.148438 9.703125 13.5625 C 9.316406 13.699219 9.171875 13.6875 8.40625 13.441406 C 6.078125 12.695312 4.328125 13.414062 3.167969 15.59375 C 2.976562 15.953125 2.539062 16.515625 2.191406 16.84375 C 1.742188 17.273438 1.511719 17.613281 1.367188 18.050781 C 1.261719 18.386719 1.09375 18.785156 0.996094 18.941406 C 0.777344 19.292969 0.855469 19.382812 1.21875 19.195312 C 1.980469 18.800781 2.261719 18.476562 2.539062 17.671875 L 2.816406 16.859375 L 2.894531 18.019531 C 3.015625 19.863281 3.609375 20.894531 5.078125 21.8125 C 6.476562 22.6875 7.5 22.929688 8.710938 22.675781 C 9.664062 22.472656 11.089844 22.46875 11.792969 22.667969 C 12.304688 22.816406 12.386719 22.8125 12.589844 22.628906 C 12.898438 22.351562 12.96875 21.859375 12.773438 21.390625 C 12.582031 20.925781 12.316406 20.890625 11.703125 21.253906 C 11.199219 21.550781 9.941406 21.6875 9.453125 21.496094 L 9.125 21.367188 L 9.425781 21.0625 C 9.703125 20.789062 9.773438 20.769531 10.234375 20.878906 C 11.34375 21.132812 12.457031 20.878906 13.210938 20.195312 C 13.65625 19.792969 13.699219 19.78125 13.84375 19.980469 C 14.085938 20.3125 14.660156 21.847656 14.730469 22.351562 L 14.792969 22.800781 L 15.617188 22.800781 C 16.070312 22.800781 16.441406 22.78125 16.441406 22.761719 C 16.441406 22.738281 16.203125 22.308594 15.917969 21.800781 C 15.175781 20.503906 14.800781 19.273438 14.648438 17.640625 C 14.476562 15.765625 14.480469 15.359375 14.6875 15.359375 C 14.800781 15.359375 14.851562 15.488281 14.835938 15.75 L 14.820312 16.140625 L 16.738281 16.140625 L 16.707031 15.78125 C 16.675781 15.425781 16.691406 15.417969 17.539062 15.210938 C 18.613281 14.953125 19.214844 14.5625 19.632812 13.851562 C 20.058594 13.121094 20.148438 11.941406 19.875 10.597656 C 19.625 9.355469 19.628906 9.066406 19.929688 7.65625 C 20.160156 6.578125 20.167969 6.457031 19.992188 6.109375 C 19.859375 5.84375 19.839844 5.671875 19.921875 5.515625 C 20.097656 5.1875 20.0625 4.25 19.859375 3.757812 C 19.601562 3.148438 19.71875 3.128906 20.144531 3.71875 C 20.675781 4.449219 20.828125 5.285156 20.660156 6.507812 C 20.582031 7.054688 20.519531 7.707031 20.519531 7.960938 C 20.519531 8.476562 20.960938 10.042969 21.136719 10.152344 C 21.351562 10.285156 21.625 9.910156 22.359375 8.464844 L 23.101562 7.019531 L 23.101562 5.640625 C 23.101562 4.488281 23.058594 4.167969 22.847656 3.714844 C 22.140625 2.183594 20.757812 1.421875 19.460938 1.851562 C 18.886719 2.042969 18.855469 2.042969 18.425781 1.785156 C 17.457031 1.21875 15.386719 1.03125 14.042969 1.394531 M 14.941406 1.511719 C 14.113281 1.632812 13.472656 1.832031 13.058594 2.105469 C 12.640625 2.378906 12.589844 2.382812 12.191406 2.21875 C 11.660156 1.996094 10.910156 1.988281 10.402344 2.203125 C 9.847656 2.433594 9.050781 3.390625 8.8125 4.101562 C 8.664062 4.554688 8.625 4.992188 8.664062 5.863281 C 8.714844 6.976562 8.738281 7.066406 9.351562 8.28125 C 10.214844 9.992188 10.207031 9.984375 10.429688 9.21875 C 10.609375 8.585938 10.628906 8.066406 10.542969 5.878906 C 10.503906 4.824219 10.523438 4.6875 10.839844 4.050781 C 11.179688 3.355469 11.789062 2.761719 12.160156 2.761719 C 12.429688 2.761719 12.414062 2.886719 12.054688 3.5625 C 11.8125 4.015625 11.757812 4.273438 11.785156 4.796875 C 11.824219 5.5625 11.78125 5.550781 13.042969 5.105469 C 13.734375 4.859375 13.96875 4.824219 14.230469 4.925781 C 14.878906 5.171875 15.074219 5.804688 14.640625 6.238281 C 14.3125 6.566406 13.8125 6.542969 13.039062 6.164062 C 12.269531 5.785156 11.804688 5.835938 11.6875 6.304688 C 11.644531 6.472656 11.734375 7.128906 11.878906 7.769531 C 12.144531 8.910156 12.152344 9.480469 11.925781 10.558594 L 11.839844 10.972656 L 12.355469 10.53125 C 13.171875 9.832031 13.832031 9.660156 15.71875 9.660156 C 17.558594 9.660156 18.253906 9.828125 19.125 10.496094 L 19.636719 10.886719 L 19.472656 10.03125 C 19.328125 9.253906 19.332031 9.082031 19.554688 8.066406 C 19.691406 7.453125 19.800781 6.777344 19.800781 6.5625 C 19.800781 5.8125 19.328125 5.6875 18.359375 6.179688 C 17.675781 6.527344 17.320312 6.554688 16.945312 6.292969 C 16.59375 6.046875 16.585938 5.402344 16.929688 5.089844 C 17.269531 4.78125 17.886719 4.820312 18.832031 5.203125 C 19.253906 5.378906 19.628906 5.488281 19.664062 5.453125 C 19.703125 5.417969 19.730469 5.101562 19.730469 4.75 C 19.730469 4.292969 19.640625 3.9375 19.410156 3.492188 C 19.132812 2.960938 19.113281 2.859375 19.273438 2.796875 C 19.738281 2.621094 20.808594 3.953125 20.953125 4.894531 C 21 5.203125 20.980469 6.070312 20.90625 6.820312 C 20.777344 8.097656 20.785156 8.226562 21.039062 9.035156 L 21.308594 9.894531 L 22.085938 8.359375 L 22.859375 6.824219 L 22.859375 5.722656 C 22.859375 4.445312 22.628906 3.644531 22.066406 2.960938 C 21.359375 2.101562 20.195312 1.800781 19.273438 2.238281 C 18.878906 2.425781 18.847656 2.421875 18.535156 2.175781 C 17.929688 1.703125 16.054688 1.355469 14.941406 1.511719 M 13.523438 5.355469 C 13.371094 5.507812 13.4375 5.972656 13.621094 6.042969 C 13.941406 6.167969 14.175781 5.988281 14.136719 5.65625 C 14.101562 5.34375 13.71875 5.160156 13.523438 5.355469 M 17.316406 5.476562 C 17.238281 5.679688 17.390625 6.015625 17.59375 6.085938 C 17.839844 6.167969 18.152344 5.808594 18.066406 5.539062 C 17.964844 5.226562 17.429688 5.179688 17.316406 5.476562 M 12.753906 5.496094 C 12.648438 5.5625 12.675781 5.628906 12.84375 5.734375 C 13.050781 5.863281 13.078125 5.851562 13.078125 5.640625 C 13.078125 5.386719 12.992188 5.347656 12.753906 5.496094 M 18.359375 5.636719 C 18.359375 5.847656 18.394531 5.859375 18.664062 5.738281 C 18.882812 5.636719 18.925781 5.570312 18.8125 5.5 C 18.550781 5.332031 18.359375 5.390625 18.359375 5.636719 M 13.613281 10.828125 C 13.78125 10.976562 13.996094 11.316406 14.089844 11.578125 C 14.21875 11.929688 14.265625 11.988281 14.273438 11.785156 C 14.285156 11.335938 13.828125 10.558594 13.550781 10.558594 C 13.324219 10.558594 13.328125 10.578125 13.613281 10.828125 M 17.414062 11.039062 C 17.265625 11.304688 17.164062 11.644531 17.191406 11.789062 C 17.234375 12.050781 17.242188 12.050781 17.328125 11.820312 C 17.601562 11.09375 17.773438 10.800781 17.9375 10.800781 C 18.039062 10.800781 18.121094 10.746094 18.121094 10.679688 C 18.121094 10.367188 17.660156 10.601562 17.414062 11.039062 M 10.800781 13.097656 C 10.453125 13.449219 10.070312 13.707031 9.746094 13.808594 C 9.28125 13.945312 9.152344 13.933594 8.4375 13.679688 C 6.304688 12.929688 4.402344 13.644531 3.441406 15.566406 C 3.179688 16.085938 3.152344 16.28125 3.167969 17.640625 C 3.179688 18.992188 3.210938 19.207031 3.496094 19.8125 C 3.90625 20.691406 4.648438 21.386719 5.777344 21.953125 C 6.957031 22.546875 7.5625 22.625 9.144531 22.386719 C 9.839844 22.285156 10.578125 22.234375 10.785156 22.273438 C 11.121094 22.34375 11.160156 22.320312 11.160156 22.066406 C 11.160156 21.792969 11.125 21.78125 10.289062 21.78125 C 9.320312 21.78125 8.496094 21.457031 8.417969 21.046875 C 8.375 20.832031 8.382812 20.828125 8.601562 21.027344 C 8.8125 21.214844 8.859375 21.21875 9.097656 21.050781 C 9.757812 20.585938 10.019531 19.222656 9.621094 18.320312 C 9.328125 17.652344 9.480469 17.449219 9.792969 18.089844 C 9.996094 18.507812 10.0625 19.542969 9.9375 20.339844 C 9.90625 20.542969 9.996094 20.59375 10.535156 20.6875 C 11.363281 20.828125 12.304688 20.621094 12.949219 20.152344 C 13.507812 19.75 13.527344 19.664062 13.203125 19.03125 C 12.902344 18.4375 12.765625 17.546875 12.945312 17.367188 C 13.046875 17.265625 13.082031 17.324219 13.082031 17.585938 C 13.082031 18.179688 13.304688 18.796875 13.765625 19.464844 C 14.003906 19.8125 14.378906 20.558594 14.59375 21.121094 C 14.964844 22.09375 15 22.136719 15.320312 22.097656 C 15.507812 22.074219 15.675781 22.039062 15.699219 22.019531 C 15.71875 22 15.597656 21.710938 15.429688 21.378906 C 14.789062 20.109375 14.527344 19.066406 14.378906 17.160156 C 14.296875 16.070312 14.1875 15.324219 14.109375 15.300781 C 13.441406 15.121094 12.742188 14.789062 12.398438 14.488281 C 11.964844 14.101562 11.519531 13.355469 11.519531 12.996094 C 11.515625 12.527344 11.324219 12.554688 10.800781 13.097656 M 15.238281 14.671875 C 15.238281 14.820312 15.203125 15.140625 15.164062 15.390625 C 15.097656 15.792969 15.117188 15.839844 15.34375 15.839844 C 15.578125 15.839844 15.601562 15.773438 15.601562 15.121094 C 15.601562 14.558594 15.558594 14.398438 15.421875 14.398438 C 15.3125 14.398438 15.238281 14.511719 15.238281 14.671875 M 15.839844 15.121094 C 15.839844 15.8125 15.851562 15.839844 16.148438 15.839844 C 16.382812 15.839844 16.441406 15.789062 16.398438 15.628906 C 16.363281 15.515625 16.300781 15.191406 16.257812 14.910156 C 16.207031 14.589844 16.117188 14.398438 16.007812 14.398438 C 15.882812 14.398438 15.839844 14.578125 15.839844 15.121094 M 2.160156 17.199219 C 1.9375 17.421875 1.660156 17.878906 1.546875 18.21875 L 1.335938 18.839844 L 1.667969 18.664062 C 1.921875 18.535156 2.074219 18.289062 2.304688 17.644531 C 2.472656 17.179688 2.597656 16.800781 2.585938 16.800781 C 2.578125 16.800781 2.386719 16.980469 2.160156 17.199219 M 11.398438 21.945312 C 11.398438 22.15625 11.476562 22.324219 11.59375 22.367188 C 11.734375 22.421875 11.765625 22.390625 11.714844 22.25 C 11.671875 22.144531 11.640625 21.957031 11.640625 21.832031 C 11.640625 21.703125 11.585938 21.601562 11.519531 21.601562 C 11.453125 21.601562 11.398438 21.757812 11.398438 21.945312 "/>
</g>
</svg>
