<?xml version="1.0" encoding="UTF-8"?>
<svg xmlns="http://www.w3.org/2000/svg" xmlns:xlink="http://www.w3.org/1999/xlink" width="100px" height="100px" viewBox="0 0 100 100" version="1.1">
<g id="surface1">
<path style=" stroke:none;fill-rule:evenodd;fill:rgb(0%,0%,0%);fill-opacity:1;" d="M 58.507812 5.800781 C 57 6.207031 55.011719 6.984375 54.09375 7.527344 C 52.507812 8.460938 52.300781 8.472656 50.085938 7.71875 C 43.671875 5.539062 36.664062 10.738281 34.960938 18.941406 C 33.859375 24.234375 34.574219 27.9375 38.089844 35.140625 C 39.808594 38.671875 41.515625 41.804688 41.882812 42.109375 C 42.859375 42.921875 43.675781 41.804688 44.714844 38.234375 C 45.746094 34.683594 45.753906 34.59375 45.246094 26.433594 C 44.878906 20.542969 44.925781 19.96875 45.929688 17.890625 C 46.523438 16.667969 47.597656 15.121094 48.316406 14.457031 L 49.628906 13.25 L 48.734375 15 C 48.152344 16.140625 47.871094 17.703125 47.925781 19.5 C 48.058594 23.980469 48.039062 24.652344 47.726562 26.75 C 47.542969 27.996094 47.824219 30.507812 48.476562 33.425781 L 49.527344 38.105469 L 48.476562 43.925781 C 47.007812 52.066406 45.265625 54.789062 40.429688 56.511719 C 38.816406 57.089844 38.210938 57.03125 35.035156 56.011719 C 25.332031 52.890625 18.027344 55.890625 13.199219 64.976562 C 12.402344 66.476562 10.574219 68.820312 9.136719 70.1875 C 7.253906 71.980469 6.292969 73.382812 5.703125 75.210938 C 5.253906 76.609375 4.554688 78.277344 4.152344 78.917969 C 3.234375 80.378906 3.570312 80.757812 5.082031 79.976562 C 8.253906 78.339844 9.421875 76.988281 10.574219 73.632812 L 11.730469 70.25 L 12.054688 75.074219 C 12.574219 82.765625 15.042969 87.0625 21.152344 90.882812 C 26.984375 94.53125 31.257812 95.546875 36.289062 94.476562 C 40.261719 93.632812 46.210938 93.625 49.136719 94.457031 C 51.273438 95.066406 51.617188 95.046875 52.457031 94.289062 C 53.738281 93.128906 54.042969 91.074219 53.230469 89.125 C 52.421875 87.191406 51.320312 87.050781 48.761719 88.558594 C 46.664062 89.796875 41.425781 90.359375 39.382812 89.5625 L 38.015625 89.03125 L 39.277344 87.765625 C 40.429688 86.617188 40.726562 86.546875 42.644531 86.988281 C 47.261719 88.054688 51.898438 86.992188 55.046875 84.148438 C 56.898438 82.476562 57.078125 82.414062 57.683594 83.246094 C 58.695312 84.628906 61.089844 91.035156 61.375 93.125 L 61.632812 95 L 65.066406 95 C 66.953125 95 68.5 94.925781 68.5 94.835938 C 68.5 94.746094 67.519531 92.949219 66.320312 90.84375 C 63.234375 85.429688 61.675781 80.308594 61.039062 73.5 C 60.3125 65.695312 60.339844 64 61.199219 64 C 61.667969 64 61.875 64.53125 61.824219 65.625 L 61.75 67.25 L 69.75 67.25 L 69.613281 65.75 C 69.480469 64.277344 69.546875 64.234375 73.070312 63.386719 C 77.558594 62.308594 80.058594 60.683594 81.800781 57.707031 C 83.578125 54.675781 83.945312 49.75 82.8125 44.152344 C 81.765625 38.988281 81.789062 37.777344 83.042969 31.90625 C 84.007812 27.402344 84.027344 26.910156 83.304688 25.460938 C 82.75 24.347656 82.664062 23.625 83.011719 22.980469 C 83.742188 21.613281 83.601562 17.707031 82.742188 15.65625 C 81.679688 13.113281 82.164062 13.046875 83.933594 15.492188 C 86.144531 18.539062 86.789062 22.027344 86.078125 27.113281 C 85.757812 29.390625 85.5 32.113281 85.5 33.171875 C 85.5 35.320312 87.339844 41.839844 88.070312 42.292969 C 88.964844 42.847656 90.097656 41.285156 93.171875 35.277344 L 96.25 29.25 L 96.25 23.5 C 96.25 18.707031 96.074219 17.371094 95.195312 15.472656 C 92.246094 9.097656 86.484375 5.929688 81.089844 7.71875 C 78.695312 8.515625 78.570312 8.507812 76.765625 7.445312 C 72.746094 5.070312 64.117188 4.296875 58.507812 5.800781 M 62.25 6.304688 C 58.796875 6.796875 56.140625 7.628906 54.40625 8.765625 C 52.664062 9.90625 52.460938 9.933594 50.796875 9.238281 C 48.589844 8.316406 45.464844 8.292969 43.335938 9.179688 C 41.035156 10.140625 37.703125 14.125 36.722656 17.089844 C 36.09375 18.972656 35.941406 20.796875 36.101562 24.421875 C 36.308594 29.074219 36.410156 29.441406 38.964844 34.5 C 42.566406 41.636719 42.527344 41.605469 43.449219 38.410156 C 44.214844 35.765625 44.289062 33.601562 43.933594 24.5 C 43.761719 20.101562 43.855469 19.535156 45.164062 16.871094 C 46.582031 13.980469 49.128906 11.5 50.671875 11.5 C 51.789062 11.5 51.71875 12.035156 50.226562 14.839844 C 49.222656 16.730469 48.988281 17.804688 49.101562 19.988281 C 49.273438 23.171875 49.082031 23.125 54.339844 21.265625 C 57.234375 20.246094 58.199219 20.101562 59.300781 20.519531 C 61.996094 21.542969 62.816406 24.183594 61 26 C 59.640625 27.359375 57.546875 27.257812 54.328125 25.679688 C 51.128906 24.109375 49.191406 24.316406 48.699219 26.273438 C 48.527344 26.964844 48.886719 29.707031 49.5 32.367188 C 50.597656 37.117188 50.640625 39.507812 49.695312 43.988281 L 49.332031 45.722656 L 51.484375 43.878906 C 54.890625 40.964844 57.640625 40.253906 65.5 40.25 C 73.167969 40.25 76.058594 40.957031 79.683594 43.726562 L 81.820312 45.355469 L 81.140625 41.800781 C 80.527344 38.5625 80.558594 37.839844 81.484375 33.609375 C 82.042969 31.058594 82.5 28.234375 82.5 27.335938 C 82.5 24.222656 80.535156 23.703125 76.5 25.75 C 73.648438 27.195312 72.167969 27.3125 70.613281 26.222656 C 69.140625 25.191406 69.101562 22.511719 70.542969 21.210938 C 71.960938 19.929688 74.527344 20.082031 78.460938 21.6875 C 80.222656 22.410156 81.789062 22.875 81.941406 22.726562 C 82.089844 22.574219 82.214844 21.257812 82.214844 19.796875 C 82.214844 17.886719 81.835938 16.410156 80.871094 14.550781 C 79.722656 12.332031 79.636719 11.914062 80.300781 11.660156 C 82.25 10.914062 86.703125 16.46875 87.304688 20.386719 C 87.5 21.6875 87.410156 25.296875 87.105469 28.410156 C 86.578125 33.742188 86.609375 34.28125 87.667969 37.652344 L 88.789062 41.234375 L 92.019531 34.828125 L 95.25 28.425781 L 95.25 23.839844 C 95.25 18.515625 94.296875 15.191406 91.949219 12.34375 C 88.988281 8.753906 84.140625 7.496094 80.3125 9.320312 C 78.660156 10.109375 78.53125 10.097656 77.226562 9.070312 C 74.707031 7.089844 66.886719 5.648438 62.25 6.304688 M 56.355469 22.3125 C 55.714844 22.949219 55.984375 24.886719 56.75 25.179688 C 58.085938 25.695312 59.0625 24.957031 58.902344 23.5625 C 58.753906 22.273438 57.167969 21.496094 56.355469 22.3125 M 72.15625 22.816406 C 71.828125 23.667969 72.464844 25.070312 73.304688 25.351562 C 74.332031 25.695312 75.632812 24.199219 75.277344 23.085938 C 74.859375 21.773438 72.628906 21.582031 72.15625 22.816406 M 53.144531 22.898438 C 52.707031 23.175781 52.8125 23.453125 53.519531 23.898438 C 54.371094 24.429688 54.5 24.375 54.5 23.503906 C 54.5 22.4375 54.128906 22.273438 53.144531 22.898438 M 76.5 23.488281 C 76.5 24.367188 76.644531 24.414062 77.765625 23.902344 C 78.679688 23.484375 78.851562 23.214844 78.390625 22.921875 C 77.289062 22.222656 76.5 22.460938 76.5 23.488281 M 56.71875 45.125 C 57.421875 45.742188 58.320312 47.148438 58.714844 48.25 C 59.238281 49.714844 59.4375 49.945312 59.464844 49.105469 C 59.523438 47.230469 57.621094 44 56.460938 44 C 55.515625 44 55.53125 44.078125 56.71875 45.125 M 72.558594 46.003906 C 71.9375 47.105469 71.519531 48.511719 71.628906 49.128906 C 71.816406 50.203125 71.839844 50.210938 72.199219 49.25 C 73.332031 46.222656 74.0625 45 74.742188 45 C 75.160156 45 75.5 44.773438 75.5 44.5 C 75.5 43.195312 73.585938 44.175781 72.558594 46.003906 M 44.996094 54.570312 C 43.5625 56.046875 41.964844 57.121094 40.601562 57.527344 C 38.667969 58.109375 38.136719 58.054688 35.148438 57.003906 C 26.269531 53.867188 18.347656 56.855469 14.335938 64.855469 C 13.25 67.023438 13.140625 67.835938 13.191406 73.5 C 13.246094 79.132812 13.378906 80.027344 14.558594 82.542969 C 16.28125 86.214844 19.371094 89.117188 24.074219 91.472656 C 28.992188 93.9375 31.503906 94.261719 38.097656 93.285156 C 41 92.851562 44.078125 92.640625 44.9375 92.8125 C 46.335938 93.09375 46.5 93 46.5 91.9375 C 46.5 90.796875 46.359375 90.75 42.875 90.75 C 38.835938 90.75 35.394531 89.40625 35.066406 87.703125 C 34.890625 86.796875 34.929688 86.792969 35.84375 87.613281 C 36.71875 88.402344 36.90625 88.410156 37.90625 87.710938 C 40.664062 85.777344 41.753906 80.097656 40.089844 76.339844 C 38.859375 73.558594 39.496094 72.707031 40.808594 75.378906 C 41.65625 77.113281 41.933594 81.425781 41.40625 84.746094 C 41.273438 85.589844 41.652344 85.808594 43.898438 86.195312 C 47.351562 86.785156 51.273438 85.917969 53.964844 83.96875 C 56.289062 82.285156 56.367188 81.933594 55.019531 79.289062 C 53.765625 76.828125 53.183594 73.117188 53.9375 72.363281 C 54.355469 71.945312 54.5 72.183594 54.503906 73.273438 C 54.507812 75.75 55.445312 78.320312 57.351562 81.097656 C 58.355469 82.558594 59.90625 85.664062 60.800781 88 C 62.359375 92.058594 62.492188 92.242188 63.839844 92.078125 C 64.617188 91.980469 65.320312 91.835938 65.410156 91.75 C 65.496094 91.667969 64.992188 90.464844 64.289062 89.078125 C 61.613281 83.796875 60.53125 79.449219 59.917969 71.496094 C 59.566406 66.953125 59.113281 63.84375 58.789062 63.757812 C 56 63 53.09375 61.613281 51.667969 60.359375 C 49.84375 58.761719 48.003906 55.648438 47.992188 54.144531 C 47.976562 52.199219 47.191406 52.3125 44.996094 54.570312 M 63.496094 61.125 C 63.492188 61.742188 63.347656 63.09375 63.179688 64.125 C 62.902344 65.800781 62.980469 66 63.933594 66 C 64.902344 66 65 65.726562 65 63 C 65 60.667969 64.832031 60 64.25 60 C 63.808594 60 63.496094 60.460938 63.496094 61.125 M 66 63 C 66 65.886719 66.046875 66 67.285156 66 C 68.265625 66 68.507812 65.796875 68.320312 65.125 C 68.183594 64.644531 67.925781 63.292969 67.742188 62.125 C 67.535156 60.785156 67.152344 60 66.707031 60 C 66.175781 60 66 60.75 66 63 M 9.007812 71.671875 C 8.078125 72.589844 6.921875 74.5 6.4375 75.917969 L 5.5625 78.492188 L 6.957031 77.773438 C 8.011719 77.226562 8.652344 76.203125 9.605469 73.527344 C 10.296875 71.585938 10.824219 70 10.78125 70 C 10.738281 70 9.941406 70.753906 9.007812 71.671875 M 47.5 91.445312 C 47.5 92.316406 47.820312 93.015625 48.304688 93.203125 C 48.894531 93.429688 49.03125 93.296875 48.804688 92.714844 C 48.636719 92.277344 48.5 91.488281 48.5 90.960938 C 48.5 90.429688 48.273438 90 48 90 C 47.726562 90 47.5 90.652344 47.5 91.445312 "/>
</g>
</svg>
