<?xml version="1.0" encoding="UTF-8"?>
<svg xmlns="http://www.w3.org/2000/svg" xmlns:xlink="http://www.w3.org/1999/xlink" width="24px" height="24px" viewBox="0 0 24 24" version="1.1">
<g id="surface1">
<path style=" stroke:none;fill-rule:evenodd;fill:rgb(0%,0%,0%);fill-opacity:1;" d="M 0 7.199219 L 0 12 L 8.371094 11.996094 L 16.738281 11.992188 L 18.421875 10.625 C 19.96875 9.363281 20.101562 9.28125 20.136719 9.546875 L 20.175781 9.839844 L 23.992188 9.839844 L 24.03125 10.890625 C 24.050781 11.46875 24.070312 9.753906 24.070312 7.078125 C 24.070312 4.40625 24.050781 2.691406 24.03125 3.269531 L 23.992188 4.320312 L 20.160156 4.320312 L 20.160156 5.152344 L 18.453125 3.777344 L 16.746094 2.398438 L 0 2.398438 L 0 7.199219 M 0.0546875 7.199219 C 0.0546875 9.871094 0.0703125 10.964844 0.0898438 9.628906 C 0.109375 8.292969 0.109375 6.105469 0.0898438 4.769531 C 0.0703125 3.433594 0.0546875 4.527344 0.0546875 7.199219 M 1.441406 7.199219 L 1.441406 10.558594 L 2.398438 10.558594 L 2.398438 3.839844 L 1.441406 3.839844 L 1.441406 7.199219 M 3.839844 7.199219 L 3.839844 10.558594 L 15.03125 10.558594 L 14.957031 10.230469 C 14.292969 7.195312 14.285156 7.046875 14.699219 5.222656 C 14.867188 4.496094 15 3.890625 15 3.871094 C 15 3.855469 12.488281 3.839844 9.421875 3.839844 L 3.839844 3.839844 L 3.839844 7.199219 M 16.097656 5.011719 C 15.675781 6.847656 15.671875 7.117188 16.015625 8.816406 C 16.191406 9.671875 16.351562 10.394531 16.378906 10.417969 C 16.40625 10.445312 17.253906 9.796875 18.261719 8.976562 C 19.628906 7.867188 20.109375 7.410156 20.128906 7.191406 C 20.152344 6.945312 19.871094 6.671875 18.359375 5.460938 C 17.371094 4.667969 16.515625 4.003906 16.453125 3.984375 C 16.394531 3.964844 16.234375 4.425781 16.097656 5.011719 M 21.601562 6.960938 L 21.601562 8.398438 L 22.558594 8.398438 L 22.558594 5.519531 L 21.601562 5.519531 L 21.601562 6.960938 M 19.863281 12.734375 C 19.601562 12.796875 19.246094 12.980469 19.074219 13.144531 L 18.765625 13.441406 L 0 13.441406 L 0 15.359375 L 9.339844 15.359375 C 18.683594 15.359375 18.683594 15.359375 18.910156 15.613281 C 19.3125 16.054688 19.800781 16.226562 20.691406 16.234375 C 21.636719 16.246094 21.941406 16.117188 23.21875 15.183594 L 23.941406 14.65625 L 24.015625 14.980469 C 24.058594 15.15625 24.089844 14.839844 24.085938 14.28125 C 24.082031 13.71875 24.058594 13.460938 24.03125 13.710938 C 24.007812 13.957031 23.957031 14.160156 23.917969 14.160156 C 23.882812 14.160156 23.433594 13.867188 22.925781 13.511719 C 21.667969 12.628906 21.019531 12.464844 19.863281 12.734375 M 0.0429688 14.398438 C 0.0429688 14.960938 0.0625 15.191406 0.0859375 14.910156 C 0.113281 14.628906 0.113281 14.171875 0.0859375 13.890625 C 0.0625 13.609375 0.0429688 13.839844 0.0429688 14.398438 M 19.863281 17.054688 C 19.601562 17.117188 19.246094 17.300781 19.074219 17.464844 L 18.765625 17.761719 L 0 17.761719 L 0 19.679688 L 9.339844 19.679688 C 18.683594 19.679688 18.683594 19.679688 18.910156 19.933594 C 19.3125 20.375 19.800781 20.546875 20.691406 20.554688 C 21.636719 20.566406 21.941406 20.4375 23.21875 19.503906 L 23.941406 18.976562 L 24.015625 19.300781 C 24.058594 19.476562 24.089844 19.160156 24.085938 18.601562 C 24.082031 18.039062 24.058594 17.78125 24.03125 18.03125 C 24.007812 18.277344 23.957031 18.480469 23.917969 18.480469 C 23.882812 18.480469 23.433594 18.1875 22.925781 17.832031 C 21.667969 16.949219 21.019531 16.785156 19.863281 17.054688 M 0.0429688 18.71875 C 0.0429688 19.28125 0.0625 19.511719 0.0859375 19.230469 C 0.113281 18.949219 0.113281 18.492188 0.0859375 18.210938 C 0.0625 17.929688 0.0429688 18.160156 0.0429688 18.71875 M 0.71875 18.71875 C 0.71875 18.957031 0.800781 18.960938 9.359375 18.960938 C 17.921875 18.960938 18 18.957031 18 18.71875 C 18 18.480469 17.921875 18.480469 9.359375 18.480469 C 0.800781 18.480469 0.71875 18.480469 0.71875 18.71875 "/>
</g>
</svg>
