<?xml version="1.0" encoding="UTF-8"?>
<svg xmlns="http://www.w3.org/2000/svg" xmlns:xlink="http://www.w3.org/1999/xlink" width="100px" height="100px" viewBox="0 0 100 100" version="1.1">
<g id="surface1">
<path style=" stroke:none;fill-rule:evenodd;fill:rgb(0%,0%,0%);fill-opacity:1;" d="M 0 30 L 0 50 L 69.75 49.976562 L 76.75 44.273438 C 83.195312 39.023438 83.761719 38.664062 83.90625 39.785156 L 84.066406 41 L 99.960938 41 L 100.128906 45.375 C 100.21875 47.78125 100.292969 40.636719 100.292969 29.5 C 100.292969 18.363281 100.21875 11.21875 100.128906 13.625 L 99.960938 18 L 84 18 L 84 21.464844 L 76.890625 15.730469 L 69.78125 10 L 0 10 L 0 30 M 0.226562 30 C 0.226562 41.136719 0.292969 45.695312 0.375 40.125 C 0.453125 34.554688 0.453125 25.445312 0.375 19.875 C 0.292969 14.304688 0.226562 18.863281 0.226562 30 M 6 30 L 6 44 L 10 44 L 10 16 L 6 16 L 6 30 M 16 30 L 16 44 L 62.625 44 L 62.324219 42.625 C 59.5625 29.976562 59.53125 29.363281 61.253906 21.757812 C 61.941406 18.738281 62.5 16.207031 62.5 16.132812 C 62.5 16.058594 52.039062 16 39.25 16 L 16 16 L 16 30 M 67.078125 20.886719 C 65.320312 28.535156 65.292969 29.660156 66.730469 36.734375 C 67.457031 40.300781 68.136719 43.304688 68.246094 43.414062 C 68.355469 43.523438 71.886719 40.816406 76.097656 37.402344 C 81.789062 32.785156 83.78125 30.882812 83.871094 29.972656 C 83.972656 28.945312 82.804688 27.796875 76.503906 22.753906 C 72.382812 19.453125 68.808594 16.683594 68.554688 16.601562 C 68.304688 16.519531 67.640625 18.445312 67.078125 20.886719 M 90 29 L 90 35 L 94 35 L 94 23 L 90 23 L 90 29 M 82.761719 53.066406 C 81.667969 53.324219 80.191406 54.085938 79.484375 54.765625 L 78.195312 56 L 0 56 L 0 64 L 38.921875 64 C 77.84375 64 77.84375 64 78.796875 65.050781 C 80.46875 66.898438 82.5 67.609375 86.207031 67.648438 C 90.152344 67.691406 91.429688 67.160156 96.75 63.269531 L 99.75 61.074219 L 100.066406 62.410156 C 100.238281 63.148438 100.371094 61.835938 100.355469 59.5 C 100.34375 57.164062 100.242188 56.09375 100.136719 57.125 C 100.027344 58.15625 99.8125 59 99.660156 59 C 99.507812 59 97.644531 57.78125 95.523438 56.296875 C 90.285156 52.625 87.574219 51.941406 82.761719 53.066406 M 0.175781 60 C 0.175781 62.335938 0.261719 63.292969 0.367188 62.125 C 0.472656 60.957031 0.472656 59.042969 0.367188 57.875 C 0.261719 56.707031 0.175781 57.664062 0.175781 60 M 82.761719 71.066406 C 81.667969 71.324219 80.191406 72.085938 79.484375 72.765625 L 78.195312 74 L 0 74 L 0 82 L 38.921875 82 C 77.84375 82 77.84375 82 78.796875 83.050781 C 80.46875 84.898438 82.5 85.609375 86.207031 85.648438 C 90.152344 85.691406 91.429688 85.160156 96.75 81.269531 L 99.75 79.074219 L 100.066406 80.410156 C 100.238281 81.148438 100.371094 79.835938 100.355469 77.5 C 100.34375 75.164062 100.242188 74.09375 100.136719 75.125 C 100.027344 76.15625 99.8125 77 99.660156 77 C 99.507812 77 97.644531 75.78125 95.523438 74.296875 C 90.285156 70.625 87.574219 69.941406 82.761719 71.066406 M 0.175781 78 C 0.175781 80.335938 0.261719 81.292969 0.367188 80.125 C 0.472656 78.957031 0.472656 77.042969 0.367188 75.875 C 0.261719 74.707031 0.175781 75.664062 0.175781 78 M 3 78 C 3 78.992188 3.332031 79 39 79 C 74.667969 79 75 78.992188 75 78 C 75 77.007812 74.667969 77 39 77 C 3.332031 77 3 77.007812 3 78 "/>
</g>
</svg>
