<?xml version="1.0" encoding="UTF-8"?>
<svg xmlns="http://www.w3.org/2000/svg" xmlns:xlink="http://www.w3.org/1999/xlink" width="24px" height="24px" viewBox="0 0 24 24" version="1.1">
<g id="surface1">
<path style=" stroke:none;fill-rule:evenodd;fill:rgb(0%,0%,0%);fill-opacity:1;" d="M 15.75 0.898438 C 14.386719 1.28125 13.5 1.941406 13.03125 2.917969 C 12.5625 3.894531 12.46875 5.640625 12.882812 5.640625 C 12.960938 5.640625 13.304688 5.449219 13.652344 5.214844 C 14.148438 4.882812 14.28125 4.726562 14.285156 4.464844 C 14.289062 4.289062 14.394531 3.949219 14.519531 3.71875 L 14.75 3.300781 L 14.753906 3.808594 C 14.757812 4.089844 14.789062 4.320312 14.828125 4.320312 C 14.867188 4.320312 15.128906 4.183594 15.417969 4.015625 C 15.824219 3.777344 15.953125 3.621094 16.011719 3.296875 C 16.097656 2.835938 16.257812 2.753906 16.355469 3.117188 C 16.414062 3.347656 16.460938 3.335938 17.359375 2.925781 C 18.390625 2.457031 19.851562 2.039062 20.480469 2.039062 C 21.242188 2.039062 20.8125 1.492188 19.722656 1.082031 C 18.804688 0.730469 16.6875 0.632812 15.75 0.898438 M 6.820312 2.046875 C 5.820312 2.195312 4.800781 2.679688 4.800781 3.003906 C 4.800781 3.054688 5.085938 3.128906 5.4375 3.171875 C 5.785156 3.214844 6.53125 3.414062 7.085938 3.613281 C 8.554688 4.140625 8.492188 4.128906 8.550781 3.882812 C 8.59375 3.707031 8.636719 3.742188 8.753906 4.042969 C 8.871094 4.355469 9.539062 4.921875 9.785156 4.921875 C 9.816406 4.921875 9.84375 4.746094 9.84375 4.53125 L 9.847656 4.140625 L 10.019531 4.441406 C 10.113281 4.605469 10.195312 4.859375 10.195312 5.003906 C 10.199219 5.1875 10.359375 5.363281 10.71875 5.574219 C 11.472656 6.015625 11.519531 5.988281 11.519531 5.128906 C 11.515625 3.3125 10.308594 2.1875 8.160156 2 C 7.796875 1.96875 7.195312 1.992188 6.820312 2.046875 M 15.089844 5.332031 C 14.464844 5.554688 13.871094 6.03125 13.4375 6.664062 L 13.066406 7.203125 L 13.382812 7.320312 C 13.859375 7.503906 14.589844 7.464844 14.765625 7.253906 C 14.921875 7.066406 15.511719 6.71875 15.675781 6.71875 C 15.722656 6.71875 15.636719 6.855469 15.480469 7.019531 C 15.144531 7.378906 15.1875 7.441406 15.832031 7.527344 C 16.175781 7.570312 16.390625 7.539062 16.53125 7.414062 C 16.917969 7.082031 17.007812 7.074219 16.953125 7.367188 C 16.902344 7.621094 16.953125 7.65625 17.472656 7.734375 C 18.195312 7.84375 19.585938 8.339844 20.25 8.726562 C 20.757812 9.023438 20.761719 9.023438 20.761719 8.765625 C 20.761719 8.113281 19.875 6.957031 18.777344 6.171875 C 17.472656 5.242188 16.171875 4.945312 15.089844 5.332031 M 11.828125 5.707031 C 11.585938 5.949219 11.589844 6.035156 11.867188 6.371094 C 12.066406 6.617188 12.128906 6.632812 12.40625 6.507812 C 12.613281 6.414062 12.71875 6.269531 12.71875 6.085938 C 12.71875 5.558594 12.199219 5.335938 11.828125 5.707031 M 10.769531 6.128906 C 10.511719 6.277344 10.496094 6.757812 10.738281 6.957031 C 10.839844 7.042969 11.046875 7.074219 11.210938 7.03125 C 11.601562 6.933594 11.722656 6.53125 11.453125 6.230469 C 11.21875 5.972656 11.078125 5.949219 10.769531 6.128906 M 7.78125 6.304688 C 7.054688 6.53125 6.121094 7.535156 5.746094 8.492188 C 5.441406 9.261719 5.339844 10.980469 5.597656 10.980469 C 5.675781 10.980469 5.960938 10.644531 6.238281 10.234375 C 6.511719 9.824219 6.972656 9.277344 7.261719 9.023438 C 7.664062 8.671875 7.757812 8.523438 7.652344 8.417969 C 7.546875 8.3125 7.597656 8.28125 7.867188 8.28125 C 8.0625 8.277344 8.382812 8.148438 8.578125 7.988281 L 8.941406 7.699219 L 8.59375 7.613281 C 8.332031 7.546875 8.292969 7.503906 8.429688 7.425781 C 8.527344 7.371094 8.769531 7.375 8.96875 7.429688 C 9.28125 7.519531 9.398438 7.484375 9.765625 7.179688 C 10.003906 6.984375 10.199219 6.777344 10.199219 6.722656 C 10.199219 6.585938 9.398438 6.28125 8.820312 6.199219 C 8.539062 6.160156 8.109375 6.203125 7.78125 6.304688 M 11.667969 6.859375 C 11.324219 7.203125 11.632812 7.734375 12.132812 7.660156 C 12.496094 7.605469 12.699219 7.261719 12.527344 6.988281 C 12.367188 6.730469 11.871094 6.65625 11.667969 6.859375 M 10.183594 8.128906 C 8.027344 10.375 5.9375 13.789062 5.054688 16.503906 C 4.507812 18.191406 4.273438 19.839844 4.351562 21.441406 C 4.390625 22.191406 4.378906 22.777344 4.328125 22.746094 C 4.277344 22.714844 4.261719 22.835938 4.292969 23.011719 L 4.355469 23.339844 L 4.09375 23.105469 C 3.832031 22.875 3.832031 22.875 3.914062 23.105469 C 3.996094 23.328125 3.988281 23.328125 3.769531 23.136719 C 3.550781 22.945312 3.539062 22.953125 3.523438 23.230469 L 3.503906 23.519531 L 5.800781 23.53125 C 8.09375 23.546875 9.046875 23.546875 9.328125 23.527344 C 9.558594 23.515625 9.507812 23.222656 9.238281 22.980469 C 9.089844 22.84375 9 22.816406 9 22.910156 C 9 22.988281 8.945312 23.019531 8.878906 22.980469 C 8.8125 22.9375 8.761719 22.972656 8.761719 23.050781 C 8.761719 23.140625 8.664062 23.113281 8.515625 22.976562 C 8.277344 22.757812 8.273438 22.757812 8.351562 22.988281 C 8.425781 23.195312 8.414062 23.203125 8.242188 23.039062 C 7.792969 22.617188 7.882812 18.375 8.40625 15.484375 C 8.851562 13.003906 9.769531 10.378906 10.785156 8.675781 C 11.105469 8.132812 11.34375 7.660156 11.304688 7.625 C 11.105469 7.425781 10.671875 7.621094 10.183594 8.128906 M 11.789062 8 C 11.382812 8.164062 12.054688 9.117188 12.582031 9.121094 C 12.757812 9.121094 12.980469 9.175781 13.078125 9.238281 C 13.226562 9.335938 13.214844 9.355469 13.011719 9.359375 C 12.871094 9.359375 12.726562 9.394531 12.683594 9.4375 C 12.550781 9.570312 13.085938 10.132812 13.480469 10.28125 C 13.691406 10.359375 13.765625 10.425781 13.648438 10.429688 C 13.535156 10.4375 13.441406 10.460938 13.441406 10.488281 C 13.441406 10.515625 13.652344 10.949219 13.910156 11.453125 C 14.167969 11.960938 14.445312 12.640625 14.523438 12.972656 C 14.679688 13.632812 14.839844 13.675781 15.121094 13.132812 C 15.246094 12.882812 15.300781 12.40625 15.300781 11.519531 C 15.300781 10.453125 15.253906 10.164062 15.015625 9.632812 C 14.675781 8.878906 13.988281 8.222656 13.359375 8.046875 C 12.886719 7.917969 12.054688 7.890625 11.789062 8 "/>
</g>
</svg>
