<?xml version="1.0" encoding="UTF-8"?>
<svg xmlns="http://www.w3.org/2000/svg" xmlns:xlink="http://www.w3.org/1999/xlink" width="100px" height="100px" viewBox="0 0 100 100" version="1.1">
<g id="surface1">
<path style=" stroke:none;fill-rule:evenodd;fill:rgb(0%,0%,0%);fill-opacity:1;" d="M 47.1875 5.957031 C 46.328125 6.480469 45.316406 7.617188 44.9375 8.476562 C 44.394531 9.714844 44.039062 9.976562 43.25 9.71875 C 39.464844 8.492188 36.164062 9.386719 34.511719 12.09375 C 33.578125 13.628906 33.503906 14.597656 33.503906 25.375 C 33.5 31.769531 33.421875 37 33.328125 37 C 33.230469 37 32.421875 36.636719 31.53125 36.191406 C 28.335938 34.597656 24.3125 36.054688 22.25 39.550781 C 21.3125 41.144531 21.25 42.140625 21.261719 55.75 C 21.269531 67.960938 21.410156 70.753906 22.140625 73.445312 C 24.65625 82.652344 31.980469 90.515625 40.90625 93.589844 C 43.640625 94.535156 45.296875 94.742188 50 94.742188 C 54.703125 94.742188 56.359375 94.535156 59.09375 93.589844 C 68.015625 90.515625 75.324219 82.671875 77.863281 73.445312 C 78.640625 70.628906 78.746094 67.726562 78.746094 49 C 78.75 24.644531 78.851562 25.261719 74.59375 23.378906 C 72.402344 22.410156 72.125 22.394531 70.128906 23.109375 L 68 23.875 L 67.996094 19.5625 C 67.996094 14.671875 67.140625 12.613281 64.546875 11.273438 C 62.828125 10.386719 59.882812 10.261719 58.46875 11.015625 C 57.773438 11.386719 57.5 11.375 57.5 10.96875 C 57.5 10.65625 57.136719 9.640625 56.695312 8.707031 C 55.082031 5.304688 50.453125 3.964844 47.1875 5.957031 M 48 9 C 47.035156 9.964844 47 10.667969 47 28.75 L 47 47.5 L 48.125 47.503906 C 48.742188 47.507812 50.429688 47.652344 51.875 47.824219 L 54.5 48.140625 L 54.5 29.070312 C 54.5 10.667969 54.464844 9.964844 53.5 9 C 52.882812 8.382812 51.832031 8 50.75 8 C 49.667969 8 48.617188 8.382812 48 9 M 37.5 13 C 36.539062 13.960938 36.5 14.667969 36.5 31.070312 L 36.5 48.140625 L 39.125 47.824219 C 40.570312 47.652344 42.257812 47.507812 42.875 47.503906 L 44 47.5 L 44 14.453125 L 42.773438 13.226562 C 41.257812 11.710938 38.890625 11.609375 37.5 13 M 58.535156 14.816406 C 57.535156 16.089844 57.5 16.699219 57.503906 32.441406 L 57.507812 48.75 L 65 50.828125 L 65 33.164062 C 65 16.167969 64.960938 15.460938 64 14.5 C 62.511719 13.011719 59.835938 13.167969 58.535156 14.816406 M 70.183594 26.085938 C 68.203125 27.042969 68 28.480469 68 41.539062 C 68 51.933594 67.878906 54.078125 67.28125 54.308594 C 66.886719 54.457031 64.917969 54.015625 62.90625 53.328125 C 55.742188 50.867188 44.820312 49.753906 38.351562 50.824219 C 36.453125 51.136719 36.449219 51.140625 36.601562 53.363281 L 36.75 55.585938 L 41 56.960938 C 47.726562 59.136719 57.90625 64.734375 58.648438 66.664062 C 58.925781 67.386719 58.152344 68.5 57.371094 68.5 C 57.136719 68.5 55.578125 67.570312 53.910156 66.4375 C 49.871094 63.695312 42.601562 60.300781 38.132812 59.066406 C 36.140625 58.515625 34.285156 57.925781 34.007812 57.753906 C 33.699219 57.566406 33.5 54.472656 33.5 49.945312 C 33.5 42.027344 33.066406 40.105469 31.027344 39.015625 C 29.796875 38.355469 27.703125 38.355469 26.472656 39.015625 C 24.230469 40.214844 24 41.703125 24.003906 54.851562 C 24.007812 69.097656 24.394531 72.253906 26.757812 77.371094 C 28.75 81.683594 33.671875 86.921875 37.789062 89.113281 C 45.425781 93.183594 55.867188 92.910156 63.285156 88.449219 C 69.390625 84.773438 74.332031 77.480469 75.472656 70.460938 C 76.195312 65.988281 76.175781 29.429688 75.445312 27.828125 C 74.902344 26.640625 73.0625 25.464844 71.851562 25.535156 C 71.519531 25.550781 70.769531 25.800781 70.183594 26.085938 "/>
</g>
</svg>
