<?xml version="1.0" encoding="UTF-8"?>
<svg xmlns="http://www.w3.org/2000/svg" xmlns:xlink="http://www.w3.org/1999/xlink" width="24px" height="24px" viewBox="0 0 24 24" version="1.1">
<g id="surface1">
<path style=" stroke:none;fill-rule:evenodd;fill:rgb(0%,0%,0%);fill-opacity:1;" d="M 11.324219 1.429688 C 11.117188 1.554688 10.875 1.828125 10.785156 2.035156 C 10.65625 2.332031 10.570312 2.394531 10.378906 2.332031 C 9.472656 2.039062 8.679688 2.253906 8.28125 2.902344 C 8.058594 3.269531 8.039062 3.503906 8.039062 6.089844 C 8.039062 7.625 8.019531 8.878906 8 8.878906 C 7.976562 8.878906 7.78125 8.792969 7.566406 8.6875 C 6.800781 8.304688 5.835938 8.652344 5.339844 9.492188 C 5.113281 9.875 5.101562 10.113281 5.101562 13.378906 C 5.105469 16.3125 5.136719 16.980469 5.3125 17.625 C 5.917969 19.835938 7.675781 21.722656 9.816406 22.460938 C 10.472656 22.6875 10.871094 22.738281 12 22.738281 C 13.128906 22.738281 13.527344 22.6875 14.183594 22.460938 C 16.324219 21.722656 18.078125 19.839844 18.6875 17.625 C 18.875 16.949219 18.898438 16.253906 18.898438 11.761719 C 18.898438 5.914062 18.925781 6.0625 17.902344 5.609375 C 17.375 5.378906 17.308594 5.375 16.832031 5.546875 L 16.320312 5.730469 L 16.320312 4.695312 C 16.320312 3.519531 16.113281 3.027344 15.492188 2.707031 C 15.078125 2.492188 14.371094 2.460938 14.03125 2.644531 C 13.867188 2.734375 13.800781 2.730469 13.800781 2.632812 C 13.800781 2.558594 13.714844 2.3125 13.605469 2.089844 C 13.21875 1.273438 12.109375 0.953125 11.324219 1.429688 M 11.519531 2.160156 C 11.289062 2.390625 11.28125 2.558594 11.28125 6.898438 L 11.28125 11.398438 L 11.550781 11.402344 C 11.699219 11.402344 12.101562 11.4375 12.449219 11.476562 L 13.078125 11.554688 L 13.078125 6.976562 C 13.078125 2.558594 13.070312 2.390625 12.839844 2.160156 C 12.691406 2.011719 12.441406 1.921875 12.179688 1.921875 C 11.921875 1.921875 11.667969 2.011719 11.519531 2.160156 M 9 3.121094 C 8.769531 3.351562 8.761719 3.519531 8.761719 7.457031 L 8.761719 11.554688 L 9.390625 11.476562 C 9.738281 11.4375 10.140625 11.402344 10.289062 11.402344 L 10.558594 11.398438 L 10.558594 3.46875 L 10.265625 3.175781 C 9.902344 2.8125 9.332031 2.785156 9 3.121094 M 14.046875 3.554688 C 13.808594 3.863281 13.800781 4.007812 13.800781 7.785156 L 13.800781 11.699219 L 14.699219 11.949219 L 15.601562 12.199219 L 15.601562 7.960938 C 15.601562 3.878906 15.589844 3.710938 15.359375 3.480469 C 15.003906 3.121094 14.359375 3.160156 14.046875 3.554688 M 16.84375 6.261719 C 16.367188 6.492188 16.320312 6.835938 16.320312 9.96875 C 16.320312 12.464844 16.292969 12.980469 16.148438 13.035156 C 16.054688 13.070312 15.582031 12.964844 15.097656 12.796875 C 13.378906 12.207031 10.757812 11.941406 9.203125 12.199219 C 8.75 12.273438 8.75 12.273438 8.785156 12.808594 L 8.820312 13.339844 L 9.839844 13.671875 C 11.453125 14.191406 13.898438 15.535156 14.074219 16 C 14.140625 16.171875 13.957031 16.441406 13.769531 16.441406 C 13.714844 16.441406 13.339844 16.21875 12.9375 15.945312 C 11.96875 15.285156 10.222656 14.472656 9.152344 14.175781 C 8.675781 14.042969 8.230469 13.902344 8.160156 13.859375 C 8.089844 13.816406 8.039062 13.074219 8.039062 11.988281 C 8.039062 10.085938 7.9375 9.625 7.445312 9.363281 C 7.152344 9.207031 6.648438 9.207031 6.351562 9.363281 C 5.816406 9.652344 5.761719 10.007812 5.761719 13.164062 C 5.761719 16.582031 5.855469 17.339844 6.421875 18.570312 C 6.898438 19.605469 8.082031 20.859375 9.070312 21.386719 C 10.902344 22.363281 13.40625 22.296875 15.1875 21.226562 C 16.652344 20.34375 17.839844 18.59375 18.113281 16.910156 C 18.289062 15.835938 18.28125 7.0625 18.105469 6.679688 C 17.976562 6.394531 17.535156 6.113281 17.246094 6.128906 C 17.164062 6.132812 16.984375 6.191406 16.84375 6.261719 "/>
</g>
</svg>
