<?xml version="1.0" encoding="UTF-8"?>
<svg xmlns="http://www.w3.org/2000/svg" xmlns:xlink="http://www.w3.org/1999/xlink" width="100px" height="100px" viewBox="0 0 100 100" version="1.1">
<g id="surface1">
<path style=" stroke:none;fill-rule:evenodd;fill:rgb(0%,0%,0%);fill-opacity:1;" d="M 65.625 3.738281 C 59.941406 5.339844 56.25 8.085938 54.300781 12.160156 C 52.351562 16.230469 51.949219 23.5 53.671875 23.5 C 53.996094 23.5 55.441406 22.707031 56.882812 21.738281 C 58.945312 20.347656 59.503906 19.6875 59.519531 18.613281 C 59.53125 17.863281 59.972656 16.460938 60.5 15.5 L 61.457031 13.75 L 61.480469 15.875 C 61.492188 17.042969 61.628906 18 61.785156 18 C 61.941406 18 63.042969 17.429688 64.234375 16.734375 C 65.929688 15.738281 66.464844 15.09375 66.71875 13.734375 C 67.082031 11.8125 67.742188 11.464844 68.144531 12.992188 C 68.390625 13.941406 68.589844 13.902344 72.328125 12.195312 C 76.628906 10.230469 82.714844 8.5 85.328125 8.5 C 88.511719 8.5 86.722656 6.226562 82.183594 4.5 C 78.347656 3.042969 69.53125 2.636719 65.625 3.738281 M 28.414062 8.527344 C 24.246094 9.15625 20 11.167969 20 12.519531 C 20 12.71875 21.195312 13.035156 22.652344 13.214844 C 24.113281 13.398438 27.207031 14.226562 29.527344 15.058594 C 35.652344 17.246094 35.382812 17.199219 35.632812 16.171875 C 35.8125 15.445312 35.992188 15.589844 36.46875 16.847656 C 36.960938 18.140625 39.746094 20.5 40.777344 20.5 C 40.902344 20.5 41.007812 19.769531 41.015625 18.875 L 41.035156 17.25 L 41.75 18.5 C 42.144531 19.1875 42.472656 20.246094 42.484375 20.855469 C 42.496094 21.617188 43.167969 22.347656 44.667969 23.230469 C 47.800781 25.066406 48 24.953125 47.996094 21.375 C 47.984375 13.804688 42.945312 9.113281 34 8.339844 C 32.488281 8.210938 29.972656 8.292969 28.414062 8.527344 M 62.875 22.214844 C 60.265625 23.144531 57.800781 25.132812 55.988281 27.765625 L 54.449219 30.003906 L 55.757812 30.503906 C 57.75 31.261719 60.785156 31.109375 61.527344 30.21875 C 62.175781 29.433594 64.625 28 65.3125 28 C 65.511719 28 65.148438 28.5625 64.503906 29.246094 C 63.101562 30.738281 63.28125 31 65.96875 31.359375 C 67.390625 31.550781 68.289062 31.40625 68.886719 30.894531 C 70.492188 29.515625 70.867188 29.476562 70.632812 30.703125 C 70.429688 31.761719 70.632812 31.90625 72.796875 32.230469 C 75.820312 32.683594 81.605469 34.746094 84.375 36.359375 C 86.496094 37.59375 86.5 37.59375 86.5 36.523438 C 86.5 33.808594 82.808594 28.984375 78.234375 25.722656 C 72.804688 21.847656 67.378906 20.605469 62.875 22.214844 M 49.285156 23.785156 C 48.277344 24.792969 48.296875 25.136719 49.441406 26.550781 C 50.273438 27.578125 50.535156 27.644531 51.691406 27.117188 C 52.554688 26.722656 53 26.128906 53 25.359375 C 53 23.152344 50.835938 22.234375 49.285156 23.785156 M 44.875 25.539062 C 43.804688 26.164062 43.730469 28.152344 44.742188 28.996094 C 45.160156 29.339844 46.023438 29.476562 46.710938 29.304688 C 48.335938 28.898438 48.84375 27.210938 47.71875 25.964844 C 46.742188 24.882812 46.152344 24.796875 44.875 25.539062 M 32.425781 26.273438 C 29.394531 27.222656 25.507812 31.394531 23.941406 35.375 C 22.675781 38.59375 22.253906 45.75 23.328125 45.75 C 23.648438 45.75 24.84375 44.351562 25.984375 42.640625 C 27.128906 40.929688 29.050781 38.660156 30.261719 37.59375 C 31.929688 36.128906 32.320312 35.519531 31.878906 35.078125 C 31.441406 34.640625 31.65625 34.5 32.773438 34.496094 C 33.585938 34.496094 34.925781 33.953125 35.75 33.289062 L 37.25 32.085938 L 35.8125 31.722656 C 34.710938 31.445312 34.546875 31.261719 35.117188 30.945312 C 35.523438 30.714844 36.542969 30.726562 37.375 30.964844 C 38.671875 31.335938 39.15625 31.183594 40.695312 29.914062 C 41.6875 29.097656 42.5 28.242188 42.5 28.019531 C 42.5 27.449219 39.152344 26.175781 36.75 25.832031 C 35.582031 25.667969 33.78125 25.851562 32.425781 26.273438 M 48.621094 28.578125 C 47.191406 30.011719 48.464844 32.222656 50.546875 31.914062 C 52.066406 31.6875 52.910156 30.261719 52.195312 29.125 C 51.523438 28.050781 49.464844 27.734375 48.621094 28.578125 M 42.429688 33.875 C 33.441406 43.226562 24.730469 57.453125 21.0625 68.773438 C 18.785156 75.796875 17.808594 82.664062 18.140625 89.34375 C 18.292969 92.460938 18.242188 94.902344 18.03125 94.769531 C 17.820312 94.636719 17.757812 95.140625 17.894531 95.890625 L 18.144531 97.25 L 17.050781 96.277344 C 15.96875 95.316406 15.960938 95.316406 16.3125 96.277344 C 16.652344 97.199219 16.617188 97.203125 15.710938 96.410156 C 14.796875 95.613281 14.746094 95.632812 14.679688 96.785156 L 14.605469 98 L 24.179688 98.054688 C 33.730469 98.109375 37.695312 98.105469 38.875 98.035156 C 39.824219 97.980469 39.625 96.765625 38.5 95.75 C 37.878906 95.1875 37.5 95.074219 37.5 95.453125 C 37.5 95.785156 37.273438 95.921875 37 95.75 C 36.726562 95.578125 36.5 95.714844 36.5 96.046875 C 36.5 96.421875 36.105469 96.296875 35.476562 95.730469 C 34.484375 94.828125 34.464844 94.828125 34.800781 95.777344 C 35.105469 96.652344 35.058594 96.671875 34.34375 96 C 32.46875 94.242188 32.851562 76.558594 35.019531 64.511719 C 36.878906 54.179688 40.703125 43.246094 44.933594 36.148438 C 46.28125 33.894531 47.257812 31.925781 47.105469 31.773438 C 46.273438 30.941406 44.472656 31.746094 42.429688 33.875 M 49.125 33.332031 C 47.421875 34.019531 50.222656 37.996094 52.417969 38.007812 C 53.152344 38.011719 54.085938 38.234375 54.5 38.5 C 55.117188 38.898438 55.0625 38.984375 54.207031 38.992188 C 53.636719 38.996094 53.023438 39.140625 52.847656 39.316406 C 52.296875 39.871094 54.515625 42.226562 56.164062 42.835938 C 57.050781 43.164062 57.363281 43.441406 56.875 43.460938 C 56.394531 43.484375 56 43.589844 56 43.699219 C 56 43.808594 56.878906 45.621094 57.957031 47.726562 C 59.03125 49.828125 60.183594 52.675781 60.511719 54.050781 C 61.171875 56.800781 61.839844 56.976562 63 54.714844 C 63.527344 53.6875 63.75 51.6875 63.746094 48 C 63.746094 43.554688 63.566406 42.347656 62.5625 40.128906 C 61.152344 37 58.289062 34.265625 55.660156 33.535156 C 53.699219 32.992188 50.234375 32.882812 49.125 33.332031 "/>
</g>
</svg>
