<?xml version="1.0" encoding="UTF-8"?>
<svg xmlns="http://www.w3.org/2000/svg" xmlns:xlink="http://www.w3.org/1999/xlink" width="24px" height="24px" viewBox="0 0 24 24" version="1.1">
<g id="surface1">
<path style=" stroke:none;fill-rule:evenodd;fill:rgb(0%,0%,0%);fill-opacity:1;" d="M 9.898438 6.710938 C 9.214844 6.90625 8.761719 7.589844 8.761719 8.433594 C 8.757812 10.332031 10.5625 11.039062 11.324219 9.433594 C 11.933594 8.15625 11.011719 6.394531 9.898438 6.710938 M 13.621094 6.695312 C 12.710938 6.882812 12.1875 8.40625 12.675781 9.433594 C 13.429688 11.027344 15.238281 10.335938 15.238281 8.449219 C 15.238281 7.375 14.453125 6.519531 13.621094 6.695312 M 9.726562 7.554688 C 9.367188 7.914062 9.296875 8.550781 9.558594 9.085938 C 9.832031 9.648438 10.308594 9.765625 10.609375 9.339844 C 10.886719 8.941406 10.859375 8.027344 10.550781 7.636719 C 10.253906 7.257812 10.042969 7.238281 9.726562 7.554688 M 13.449219 7.636719 C 13.140625 8.027344 13.113281 8.941406 13.390625 9.339844 C 13.871094 10.027344 14.753906 9.183594 14.570312 8.210938 C 14.480469 7.738281 14.152344 7.320312 13.867188 7.320312 C 13.773438 7.320312 13.585938 7.460938 13.449219 7.636719 M 6.949219 9.339844 C 6.117188 9.765625 5.789062 10.816406 6.175781 11.832031 C 6.65625 13.078125 7.980469 13.160156 8.589844 11.980469 C 8.945312 11.292969 8.742188 9.914062 8.21875 9.480469 C 7.875 9.195312 7.347656 9.136719 6.949219 9.339844 M 16.238281 9.261719 C 15.328125 9.5 14.902344 11.042969 15.460938 12.082031 C 15.664062 12.464844 16.191406 12.839844 16.523438 12.839844 C 17.929688 12.839844 18.527344 10.539062 17.386719 9.527344 C 17.023438 9.207031 16.71875 9.136719 16.238281 9.261719 M 6.96875 10.15625 C 6.683594 10.519531 6.636719 11.289062 6.875 11.761719 C 7.058594 12.128906 7.5 12.210938 7.808594 11.933594 C 8.425781 11.375 8.078125 9.839844 7.335938 9.839844 C 7.269531 9.839844 7.105469 9.980469 6.96875 10.15625 M 16.300781 9.964844 C 16.1875 10.027344 16.035156 10.273438 15.957031 10.511719 C 15.699219 11.285156 16.054688 12.121094 16.636719 12.121094 C 17.234375 12.121094 17.507812 10.761719 17.03125 10.15625 C 16.765625 9.816406 16.617188 9.777344 16.300781 9.964844 M 10.890625 10.6875 C 10.640625 10.820312 10.292969 11.152344 10.117188 11.433594 C 9.640625 12.179688 9.253906 12.578125 8.566406 13.019531 C 6.792969 14.164062 7.195312 16.808594 9.210938 17.261719 C 9.742188 17.378906 10.101562 17.324219 11.082031 16.976562 C 11.761719 16.734375 12.714844 16.789062 13.316406 17.097656 C 13.800781 17.347656 14.863281 17.355469 15.332031 17.113281 C 15.851562 16.847656 16.410156 16.152344 16.5625 15.589844 C 16.84375 14.542969 16.441406 13.6875 15.289062 12.898438 C 14.847656 12.597656 14.414062 12.160156 14.132812 11.734375 C 13.539062 10.839844 12.875 10.4375 11.988281 10.445312 C 11.582031 10.449219 11.171875 10.539062 10.890625 10.6875 M 11.550781 11.121094 C 11.226562 11.1875 10.621094 11.773438 10.171875 12.460938 C 9.988281 12.738281 9.539062 13.15625 9.171875 13.390625 C 8.808594 13.625 8.402344 13.988281 8.273438 14.199219 C 7.726562 15.097656 8.222656 16.285156 9.265625 16.566406 C 9.65625 16.671875 9.863281 16.644531 10.613281 16.386719 C 11.738281 15.996094 12.1875 16 13.394531 16.398438 L 14.371094 16.71875 L 14.953125 16.429688 C 15.4375 16.191406 15.578125 16.042969 15.769531 15.578125 C 15.988281 15.035156 15.992188 14.996094 15.789062 14.464844 C 15.625 14.035156 15.441406 13.828125 14.957031 13.515625 C 14.296875 13.09375 13.675781 12.453125 13.386719 11.894531 C 13.082031 11.308594 12.285156 10.96875 11.550781 11.121094 "/>
</g>
</svg>
