<?xml version="1.0" encoding="UTF-8"?>
<svg xmlns="http://www.w3.org/2000/svg" xmlns:xlink="http://www.w3.org/1999/xlink" width="100px" height="100px" viewBox="0 0 100 100" version="1.1">
<g id="surface1">
<path style=" stroke:none;fill-rule:evenodd;fill:rgb(0%,0%,0%);fill-opacity:1;" d="M 41.25 27.964844 C 38.390625 28.777344 36.503906 31.628906 36.503906 35.140625 C 36.496094 43.050781 44.019531 45.988281 47.1875 39.3125 C 49.714844 33.980469 45.878906 26.652344 41.25 27.964844 M 56.75 27.890625 C 52.96875 28.675781 50.78125 35.03125 52.8125 39.3125 C 55.964844 45.953125 63.5 43.058594 63.5 35.210938 C 63.5 30.722656 60.222656 27.171875 56.75 27.890625 M 40.527344 31.472656 C 39.023438 32.976562 38.734375 35.621094 39.824219 37.851562 C 40.972656 40.207031 42.960938 40.691406 44.203125 38.917969 C 45.367188 37.25 45.242188 33.441406 43.964844 31.816406 C 42.730469 30.25 41.839844 30.160156 40.527344 31.472656 M 56.035156 31.816406 C 54.757812 33.441406 54.632812 37.25 55.796875 38.917969 C 57.800781 41.777344 61.46875 38.257812 60.710938 34.210938 C 60.339844 32.246094 58.964844 30.5 57.785156 30.5 C 57.394531 30.5 56.605469 31.09375 56.035156 31.816406 M 28.945312 38.921875 C 25.484375 40.6875 24.128906 45.074219 25.738281 49.292969 C 27.726562 54.496094 33.246094 54.84375 35.789062 49.925781 C 37.277344 47.050781 36.429688 41.308594 34.253906 39.503906 C 32.8125 38.304688 30.621094 38.066406 28.945312 38.921875 M 67.65625 38.59375 C 63.867188 39.589844 62.097656 46.015625 64.417969 50.347656 C 65.269531 51.933594 67.464844 53.5 68.84375 53.5 C 74.699219 53.5 77.195312 43.917969 72.441406 39.695312 C 70.929688 38.355469 69.664062 38.0625 67.65625 38.59375 M 29.035156 42.316406 C 27.847656 43.828125 27.660156 47.042969 28.644531 49 C 29.417969 50.53125 31.257812 50.875 32.53125 49.722656 C 35.101562 47.394531 33.664062 41 30.570312 41 C 30.296875 41 29.605469 41.59375 29.035156 42.316406 M 67.914062 41.519531 C 67.453125 41.789062 66.808594 42.8125 66.484375 43.796875 C 65.417969 47.023438 66.886719 50.5 69.316406 50.5 C 71.8125 50.5 72.953125 44.84375 70.964844 42.316406 C 69.855469 40.90625 69.238281 40.746094 67.914062 41.519531 M 45.375 44.535156 C 44.34375 45.078125 42.890625 46.476562 42.152344 47.636719 C 40.167969 50.753906 38.550781 52.410156 35.695312 54.25 C 28.300781 59.019531 29.976562 70.03125 38.386719 71.917969 C 40.589844 72.414062 42.089844 72.183594 46.175781 70.734375 C 49 69.730469 52.980469 69.949219 55.488281 71.242188 C 57.496094 72.28125 61.933594 72.320312 63.882812 71.3125 C 66.046875 70.191406 68.382812 67.300781 69.011719 64.949219 C 70.1875 60.589844 68.5 57.03125 63.699219 53.742188 C 61.859375 52.484375 60.066406 50.675781 58.882812 48.890625 C 56.417969 45.160156 53.640625 43.492188 49.957031 43.523438 C 48.261719 43.535156 46.550781 43.914062 45.375 44.535156 M 48.125 46.339844 C 46.773438 46.617188 44.261719 49.054688 42.375 51.921875 C 41.621094 53.070312 39.75 54.8125 38.222656 55.789062 C 36.695312 56.765625 35.007812 58.28125 34.472656 59.15625 C 32.191406 62.90625 34.265625 67.859375 38.609375 69.03125 C 40.242188 69.46875 41.101562 69.351562 44.226562 68.273438 C 48.910156 66.65625 50.785156 66.664062 55.8125 68.324219 L 59.878906 69.664062 L 62.3125 68.457031 C 64.320312 67.460938 64.914062 66.839844 65.703125 64.90625 C 66.625 62.648438 66.628906 62.476562 65.78125 60.265625 C 65.097656 58.472656 64.34375 57.609375 62.328125 56.320312 C 59.574219 54.558594 56.980469 51.878906 55.785156 49.566406 C 54.515625 47.113281 51.183594 45.710938 48.125 46.339844 "/>
</g>
</svg>
