<?xml version="1.0" encoding="UTF-8"?>
<svg xmlns="http://www.w3.org/2000/svg" xmlns:xlink="http://www.w3.org/1999/xlink" width="24px" height="24px" viewBox="0 0 24 24" version="1.1">
<g id="surface1">
<path style=" stroke:none;fill-rule:evenodd;fill:rgb(0%,0%,0%);fill-opacity:1;" d="M 8.910156 0.125 C 6.246094 0.605469 4.425781 2.273438 3.382812 5.195312 C 3.113281 5.957031 3.074219 6.25 3.070312 7.679688 C 3.070312 9.144531 3.101562 9.390625 3.402344 10.261719 C 3.785156 11.359375 4.339844 12.402344 5.035156 13.332031 C 5.621094 14.109375 5.679688 14.433594 5.152344 13.992188 C 4.667969 13.585938 4.039062 13.566406 3.785156 13.957031 C 3.578125 14.273438 3.523438 16.527344 3.695312 17.640625 C 3.796875 18.285156 3.804688 18.292969 3.941406 17.960938 C 4.113281 17.539062 4.285156 17.636719 4.394531 18.214844 L 4.476562 18.660156 L 4.867188 17.730469 L 5.039062 18.074219 L 5.210938 18.421875 L 5.253906 18.035156 C 5.285156 17.746094 5.339844 17.671875 5.480469 17.722656 C 5.628906 17.78125 5.648438 17.738281 5.578125 17.519531 L 5.492188 17.242188 L 5.855469 17.503906 C 6.054688 17.644531 6.328125 17.761719 6.460938 17.761719 C 6.75 17.761719 7.132812 17.300781 7.324219 16.730469 L 7.460938 16.3125 L 7.792969 16.765625 C 8.273438 17.429688 9.074219 18.125 9.960938 18.652344 C 10.390625 18.910156 10.761719 19.136719 10.789062 19.160156 C 10.816406 19.179688 10.777344 19.335938 10.699219 19.503906 C 10.589844 19.746094 10.59375 19.882812 10.730469 20.144531 C 10.953125 20.570312 11.828125 21.449219 12.128906 21.542969 C 12.394531 21.628906 12.425781 21.839844 12.210938 22.070312 C 12.097656 22.1875 12.097656 22.242188 12.199219 22.28125 C 12.296875 22.316406 12.308594 22.445312 12.230469 22.710938 C 12.109375 23.140625 12.285156 23.460938 12.417969 23.050781 C 12.511719 22.753906 12.71875 22.832031 12.71875 23.160156 C 12.71875 23.285156 12.785156 23.527344 12.859375 23.699219 C 13.03125 24.074219 13.195312 23.890625 13.199219 23.308594 C 13.199219 22.839844 13.472656 22.785156 13.832031 23.191406 L 14.070312 23.460938 L 13.992188 22.828125 C 13.917969 22.242188 13.933594 22.1875 14.1875 22.089844 C 14.449219 21.988281 14.441406 21.972656 14.011719 21.789062 C 13.742188 21.675781 13.441406 21.410156 13.265625 21.128906 C 13.101562 20.871094 12.914062 20.625 12.84375 20.582031 C 12.371094 20.289062 13.269531 19.851562 13.800781 20.121094 C 13.964844 20.203125 14.238281 20.296875 14.40625 20.332031 C 14.574219 20.363281 14.953125 20.582031 15.25 20.8125 C 15.894531 21.3125 16.648438 21.601562 17.328125 21.601562 C 17.601562 21.601562 18.214844 21.707031 18.691406 21.839844 C 19.730469 22.128906 21.105469 22.15625 21.601562 21.898438 C 21.90625 21.742188 22.195312 21.171875 22.199219 20.726562 C 22.199219 20.515625 21.164062 19.53125 20.765625 19.367188 C 20.332031 19.1875 19.199219 18.164062 19.199219 17.953125 C 19.199219 17.890625 19.34375 17.96875 19.519531 18.128906 C 19.808594 18.394531 19.828125 18.398438 19.769531 18.179688 C 19.734375 18.046875 19.664062 17.835938 19.613281 17.710938 C 19.527344 17.5 19.5625 17.488281 20.097656 17.5625 C 20.667969 17.640625 20.675781 17.636719 20.464844 17.402344 C 20.34375 17.273438 20.148438 17.132812 20.023438 17.09375 C 19.742188 17.003906 19.847656 16.800781 20.175781 16.800781 C 20.304688 16.800781 20.378906 16.746094 20.339844 16.679688 C 20.300781 16.613281 20.050781 16.558594 19.785156 16.558594 C 19.476562 16.558594 19.335938 16.515625 19.382812 16.433594 C 19.4375 16.347656 19.328125 16.328125 19.0625 16.371094 C 18.671875 16.4375 18.640625 16.410156 18 15.480469 C 17.023438 14.066406 16.46875 13.9375 16.1875 15.066406 L 16.054688 15.582031 L 15.183594 14.71875 C 14.707031 14.246094 14.128906 13.707031 13.90625 13.519531 C 13.554688 13.226562 13.539062 13.1875 13.777344 13.242188 C 14.160156 13.324219 14.058594 13.082031 13.585938 12.78125 C 13.175781 12.519531 13.070312 12.320312 13.410156 12.445312 C 13.59375 12.515625 13.597656 12.5 13.457031 12.324219 C 13.367188 12.214844 13.097656 12.09375 12.859375 12.050781 C 12.617188 12.011719 11.988281 11.84375 11.464844 11.683594 C 10.855469 11.496094 10.394531 11.417969 10.203125 11.46875 C 10.035156 11.515625 9.628906 11.5625 9.300781 11.574219 L 8.699219 11.597656 L 7.609375 10.507812 C 6.753906 9.652344 6.417969 9.21875 6.050781 8.46875 C 5.632812 7.617188 5.582031 7.425781 5.582031 6.605469 C 5.582031 5.804688 5.636719 5.582031 5.992188 4.855469 C 6.5625 3.6875 7.84375 2.414062 8.808594 2.054688 C 9.980469 1.617188 11.210938 1.511719 13.316406 1.664062 C 16.988281 1.933594 18.652344 1.800781 20.378906 1.109375 C 21.09375 0.824219 21.136719 0.789062 20.925781 0.632812 C 20.746094 0.5 20.34375 0.480469 18.898438 0.539062 C 17.4375 0.601562 16.742188 0.570312 15.179688 0.363281 C 12.996094 0.0742188 9.847656 -0.0429688 8.910156 0.125 "/>
</g>
</svg>
