<?xml version="1.0" encoding="UTF-8"?>
<svg xmlns="http://www.w3.org/2000/svg" xmlns:xlink="http://www.w3.org/1999/xlink" width="100px" height="100px" viewBox="0 0 100 100" version="1.1">
<g id="surface1">
<path style=" stroke:none;fill-rule:evenodd;fill:rgb(0%,0%,0%);fill-opacity:1;" d="M 43.324219 13.292969 C 38.945312 14.351562 33.796875 17.285156 30.46875 20.613281 C 27.226562 23.851562 24.238281 29.285156 23.683594 32.941406 L 23.351562 35.136719 L 24.800781 34.886719 C 25.597656 34.753906 26.644531 34.472656 27.125 34.265625 C 27.710938 34.015625 28 34.117188 28 34.570312 C 28 34.945312 29.039062 37.386719 30.3125 40 C 31.585938 42.613281 33.3125 46.164062 34.148438 47.894531 C 36.082031 51.890625 40.605469 56.847656 44.066406 58.765625 C 46.375 60.039062 47.277344 60.25 50.5 60.25 C 53.714844 60.25 54.628906 60.039062 56.910156 58.777344 C 60.777344 56.632812 65.066406 51.808594 67.242188 47.148438 C 68.246094 45.003906 69.949219 41.523438 71.03125 39.414062 C 72.113281 37.308594 73 35.203125 73 34.738281 C 73 34.125 73.238281 33.996094 73.875 34.265625 C 74.355469 34.472656 75.402344 34.753906 76.199219 34.886719 C 77.648438 35.136719 77.648438 35.128906 77.363281 32.988281 C 76.898438 29.523438 73.726562 23.726562 70.570312 20.570312 C 67.273438 17.277344 61.996094 14.339844 57.449219 13.269531 C 53.503906 12.339844 47.214844 12.347656 43.324219 13.292969 M 43.625 15.773438 C 36.214844 17.769531 29.957031 23.082031 27.230469 29.691406 C 26.46875 31.542969 26.472656 31.617188 27.339844 31.25 C 29.976562 30.136719 37.769531 28.492188 42.90625 27.960938 C 52.183594 27.007812 63.9375 28.039062 71.238281 30.453125 C 72.882812 30.996094 74.28125 31.386719 74.347656 31.316406 C 74.417969 31.25 73.800781 29.773438 72.980469 28.039062 C 70.230469 22.226562 64.289062 17.605469 57.183594 15.753906 C 53.605469 14.820312 47.121094 14.832031 43.625 15.773438 M 49.5 20.25 C 49.5 20.726562 49.019531 21 48.171875 21 C 46.894531 21 46.875 21.035156 47.71875 21.964844 C 48.289062 22.59375 48.472656 23.296875 48.25 23.996094 C 47.941406 24.972656 48 25.007812 48.957031 24.410156 C 49.8125 23.875 50.1875 23.875 51.042969 24.410156 C 52 25.007812 52.058594 24.972656 51.75 23.996094 C 51.527344 23.296875 51.710938 22.59375 52.28125 21.964844 C 53.125 21.035156 53.105469 21 51.828125 21 C 50.980469 21 50.5 20.726562 50.5 20.25 C 50.5 19.835938 50.273438 19.5 50 19.5 C 49.726562 19.5 49.5 19.835938 49.5 20.25 M 43.5 30.320312 C 42.8125 30.421875 40.5625 30.75 38.5 31.054688 C 32.9375 31.867188 32.730469 32.253906 37.285156 33.320312 C 42.945312 34.648438 58.054688 34.648438 63.714844 33.320312 C 66.742188 32.609375 67.484375 32.28125 66.839844 31.921875 C 64.59375 30.660156 48.628906 29.566406 43.5 30.320312 M 30.5 34.402344 C 30.5 34.6875 31.457031 36.804688 32.625 39.101562 C 33.792969 41.402344 35.375 44.675781 36.136719 46.375 C 38.953125 52.664062 45.546875 58.003906 50.472656 57.996094 C 55.613281 57.984375 61.882812 52.863281 64.992188 46.136719 C 65.851562 44.273438 67.492188 40.902344 68.632812 38.644531 C 69.773438 36.386719 70.570312 34.402344 70.402344 34.234375 C 70.234375 34.066406 68.667969 34.371094 66.921875 34.910156 C 61.199219 36.675781 56.566406 37.148438 47.894531 36.855469 C 40.109375 36.589844 38.59375 36.34375 31.625 34.226562 C 30.960938 34.023438 30.5 34.097656 30.5 34.402344 M 34.554688 60.789062 C 30.804688 61.800781 26.289062 64.308594 23.289062 67.054688 C 18.574219 71.367188 14.765625 79.621094 15.09375 84.8125 L 15.25 87.25 L 84.75 87.25 L 84.90625 84.8125 C 85.101562 81.707031 83.582031 76.664062 81.269531 72.75 C 77.96875 67.164062 71.652344 62.4375 65.265625 60.773438 L 62.359375 60.019531 L 60.582031 61.582031 C 55 66.480469 47.199219 66.652344 41.113281 62.011719 C 38.171875 59.765625 38.285156 59.785156 34.554688 60.789062 M 34.5 63.441406 C 30.078125 64.871094 27.488281 66.433594 24.386719 69.53125 C 21.027344 72.890625 18.226562 78.273438 17.707031 82.375 L 17.371094 85 L 82.628906 85 L 82.292969 82.375 C 81.441406 75.679688 75.742188 67.992188 69.410156 64.996094 C 64.589844 62.714844 63.460938 62.632812 60.898438 64.398438 C 54.179688 69.019531 46.789062 69.039062 40.234375 64.445312 C 38.707031 63.375 37.410156 62.511719 37.351562 62.527344 C 37.296875 62.542969 36.011719 62.953125 34.5 63.441406 M 61.625 74.832031 C 61.28125 74.96875 61 75.515625 61 76.042969 C 61 76.929688 61.414062 77 66.71875 77 C 72.617188 77 74.070312 76.519531 72.230469 75.175781 C 71.328125 74.515625 63.070312 74.246094 61.625 74.832031 "/>
</g>
</svg>
