<?xml version="1.0" encoding="UTF-8"?>
<svg xmlns="http://www.w3.org/2000/svg" xmlns:xlink="http://www.w3.org/1999/xlink" width="100px" height="100px" viewBox="0 0 100 100" version="1.1">
<g id="surface1">
<path style=" stroke:none;fill-rule:evenodd;fill:rgb(0%,0%,0%);fill-opacity:1;" d="M 8.285156 8.285156 C 7.585938 8.988281 7.5 13.460938 7.5 50 C 7.5 86.539062 7.585938 91.011719 8.285156 91.714844 C 8.988281 92.414062 13.460938 92.5 50 92.5 C 86.539062 92.5 91.011719 92.414062 91.714844 91.714844 C 92.414062 91.011719 92.5 86.539062 92.5 50 C 92.5 13.460938 92.414062 8.988281 91.714844 8.285156 C 91.011719 7.585938 86.539062 7.5 50 7.5 C 13.460938 7.5 8.988281 7.585938 8.285156 8.285156 M 12.5 50 L 12.5 87.5 L 87.5 87.5 L 87.5 12.5 L 12.5 12.5 L 12.5 50 M 58.285156 18.285156 C 57.851562 18.71875 57.5 19.488281 57.5 20 C 57.5 22.265625 58.503906 22.5 68.285156 22.5 L 77.5 22.5 L 77.5 31.714844 C 77.5 41.496094 77.734375 42.5 80 42.5 C 82.324219 42.5 82.5 41.625 82.5 30 C 82.5 20.730469 82.378906 18.953125 81.714844 18.285156 C 80.539062 17.113281 59.460938 17.113281 58.285156 18.285156 "/>
</g>
</svg>
