<?xml version="1.0" encoding="UTF-8"?>
<svg xmlns="http://www.w3.org/2000/svg" xmlns:xlink="http://www.w3.org/1999/xlink" width="100px" height="100px" viewBox="0 0 100 100" version="1.1">
<g id="surface1">
<path style=" stroke:none;fill-rule:evenodd;fill:rgb(0%,0%,0%);fill-opacity:1;" d="M 45.542969 19.199219 C 44.941406 19.925781 42.488281 38.804688 42.863281 39.835938 C 43.195312 40.746094 44.324219 40.992188 45.15625 40.339844 C 46.261719 39.472656 48.394531 20.324219 47.503906 19.253906 C 46.726562 18.316406 46.285156 18.304688 45.542969 19.199219 M 8.804688 27.289062 C 8.636719 27.726562 8.5 28.183594 8.5 28.304688 C 8.5 28.574219 23.203125 44.375 24.609375 45.617188 C 25.355469 46.277344 25.824219 46.363281 26.546875 45.976562 C 27.070312 45.695312 27.5 45.171875 27.5 44.816406 C 27.5 43.746094 11.046875 26.5 10.027344 26.5 C 9.519531 26.5 8.96875 26.855469 8.804688 27.289062 M 30.089844 27.140625 C 29.703125 27.609375 30.035156 29.488281 31.308594 34.015625 C 33.117188 40.460938 33.863281 41.851562 35.210938 41.335938 C 36.210938 40.949219 36.210938 39.40625 35.214844 35.964844 C 32.488281 26.550781 32.46875 26.5 31.539062 26.5 C 31.035156 26.5 30.382812 26.789062 30.089844 27.140625 M 58.601562 35.625 C 52.257812 43.492188 52.128906 43.699219 52.964844 44.710938 C 53.328125 45.144531 53.898438 45.5 54.234375 45.5 C 54.574219 45.5 57.351562 42.320312 60.410156 38.4375 C 65.058594 32.53125 65.886719 31.222656 65.464844 30.4375 C 65.191406 29.921875 64.644531 29.5 64.253906 29.5 C 63.859375 29.5 61.316406 32.257812 58.601562 35.625 M 34.882812 44.757812 C 26.871094 47.699219 21.800781 56.566406 23.484375 64.683594 C 23.804688 66.222656 24.066406 67.644531 24.066406 67.839844 C 24.066406 68.03125 22.757812 68.65625 21.160156 69.222656 C 18.90625 70.015625 18.214844 70.503906 18.089844 71.378906 C 17.847656 73.09375 19.015625 73.195312 23.328125 71.84375 C 30.402344 69.628906 29.886719 69.570312 33.609375 72.984375 C 35.8125 75 37.171875 75.902344 37.703125 75.699219 C 39.097656 75.164062 38.582031 73.28125 36.472656 71.226562 L 34.445312 69.25 L 35.847656 68.964844 C 37.355469 68.660156 39.59375 70.109375 43.851562 74.164062 C 45.628906 75.855469 46.070312 76.0625 46.726562 75.519531 C 48.039062 74.429688 47.605469 73.386719 44.703125 70.644531 L 41.910156 68 L 43.488281 68 C 45.308594 68 47.996094 69.71875 51.996094 73.441406 C 53.503906 74.847656 54.882812 76 55.058594 76 C 55.234375 76 55.664062 75.65625 56.015625 75.234375 C 56.9375 74.121094 55.90625 72.457031 52.601562 69.734375 L 49.886719 67.5 L 51.617188 67.5 C 53.605469 67.5 56.222656 69.199219 60.613281 73.34375 C 63.085938 75.679688 63.613281 75.972656 64.488281 75.507812 C 65.042969 75.207031 65.5 74.671875 65.5 74.3125 C 65.5 73.953125 64.058594 72.273438 62.292969 70.578125 L 59.085938 67.5 L 60.71875 67.5 C 62.59375 67.5 65.3125 69.285156 69.585938 73.320312 C 72.421875 75.996094 73.578125 76.320312 74.230469 74.621094 C 74.441406 74.074219 73.644531 72.914062 71.757812 71.007812 L 68.976562 68.199219 L 70.863281 68.414062 C 73.015625 68.65625 74.558594 69.644531 78.609375 73.359375 C 81.414062 75.929688 82.59375 76.273438 83.199219 74.699219 C 83.359375 74.289062 82.714844 73.132812 81.703125 72.015625 L 79.933594 70.054688 L 84.589844 71.335938 C 87.152344 72.042969 89.714844 72.722656 90.28125 72.847656 C 91.484375 73.121094 92.644531 71.953125 92.230469 70.882812 C 91.648438 69.355469 77.96875 66.003906 68.222656 65 C 65.214844 64.6875 61.824219 64.328125 60.695312 64.195312 L 58.640625 63.960938 L 58.34375 60.382812 C 57.765625 53.488281 53.273438 47.296875 47.207031 45.027344 C 43.972656 43.816406 37.808594 43.679688 34.882812 44.757812 M 65.5 47.949219 C 60.003906 50.464844 59.25 50.953125 59.25 52.023438 C 59.25 52.742188 59.578125 53.300781 60.058594 53.390625 C 61.128906 53.597656 73.117188 48.273438 73.722656 47.324219 C 74.242188 46.507812 73.292969 44.96875 72.3125 45.042969 C 72.003906 45.066406 68.9375 46.375 65.5 47.949219 M 37 47.46875 C 30.492188 49.453125 26.5 54.792969 26.5 61.515625 C 26.5 64.453125 27.320312 67.671875 27.96875 67.269531 C 28.988281 66.640625 40.398438 64.964844 47.246094 64.4375 L 55 63.839844 L 55 60.769531 C 55 53.195312 48.363281 46.894531 40.535156 47.042969 C 39.277344 47.066406 37.6875 47.257812 37 47.46875 M 8.796875 49.3125 C 8.28125 50.648438 9.285156 51.316406 14.757812 53.265625 C 20.257812 55.222656 21.675781 55.246094 21.410156 53.378906 C 21.277344 52.453125 20.371094 51.929688 16.25 50.398438 C 10.671875 48.328125 9.25 48.125 8.796875 49.3125 M 11.964844 58.792969 C 10.765625 60.238281 12.011719 61.25 15 61.25 C 16.921875 61.25 17.785156 61.023438 18.167969 60.417969 C 19.050781 59.011719 17.722656 58 15 58 C 13.441406 58 12.398438 58.273438 11.964844 58.792969 M 61.464844 58.792969 C 60.265625 60.238281 61.511719 61.25 64.5 61.25 C 66.421875 61.25 67.285156 61.023438 67.667969 60.417969 C 68.550781 59.011719 67.222656 58 64.5 58 C 62.941406 58 61.898438 58.273438 61.464844 58.792969 "/>
</g>
</svg>
