<?xml version="1.0" encoding="UTF-8"?>
<svg xmlns="http://www.w3.org/2000/svg" xmlns:xlink="http://www.w3.org/1999/xlink" width="24px" height="24px" viewBox="0 0 24 24" version="1.1">
<g id="surface1">
<path style=" stroke:none;fill-rule:evenodd;fill:rgb(0%,0%,0%);fill-opacity:1;" d="M 10.929688 4.609375 C 10.785156 4.78125 10.199219 9.3125 10.289062 9.5625 C 10.367188 9.777344 10.636719 9.839844 10.835938 9.683594 C 11.101562 9.472656 11.613281 4.878906 11.402344 4.621094 C 11.214844 4.394531 11.109375 4.394531 10.929688 4.609375 M 2.113281 6.550781 C 2.074219 6.652344 2.039062 6.765625 2.039062 6.792969 C 2.039062 6.859375 5.570312 10.648438 5.90625 10.949219 C 6.085938 11.105469 6.199219 11.125 6.371094 11.035156 C 6.496094 10.964844 6.601562 10.839844 6.601562 10.753906 C 6.601562 10.5 2.652344 6.359375 2.40625 6.359375 C 2.285156 6.359375 2.152344 6.445312 2.113281 6.550781 M 7.222656 6.515625 C 7.128906 6.625 7.207031 7.078125 7.515625 8.164062 C 7.949219 9.710938 8.125 10.042969 8.449219 9.921875 C 8.691406 9.828125 8.691406 9.457031 8.453125 8.632812 C 7.796875 6.371094 7.792969 6.359375 7.570312 6.359375 C 7.449219 6.359375 7.292969 6.429688 7.222656 6.515625 M 14.0625 8.550781 C 12.542969 10.4375 12.511719 10.488281 12.710938 10.730469 C 12.796875 10.835938 12.9375 10.921875 13.015625 10.921875 C 13.097656 10.921875 13.765625 10.15625 14.5 9.226562 C 15.613281 7.808594 15.8125 7.492188 15.710938 7.304688 C 15.644531 7.179688 15.515625 7.078125 15.421875 7.078125 C 15.328125 7.078125 14.714844 7.742188 14.0625 8.550781 M 8.371094 10.742188 C 6.449219 11.449219 5.230469 13.574219 5.636719 15.523438 C 5.714844 15.894531 5.777344 16.234375 5.777344 16.28125 C 5.777344 16.328125 5.460938 16.476562 5.078125 16.613281 C 4.539062 16.804688 4.371094 16.921875 4.339844 17.128906 C 4.28125 17.542969 4.5625 17.566406 5.597656 17.242188 C 7.296875 16.710938 7.171875 16.695312 8.066406 17.515625 C 8.59375 18 8.921875 18.214844 9.050781 18.167969 C 9.382812 18.039062 9.257812 17.585938 8.753906 17.09375 L 8.265625 16.621094 L 8.601562 16.550781 C 8.964844 16.476562 9.503906 16.828125 10.523438 17.800781 C 10.949219 18.207031 11.058594 18.253906 11.214844 18.125 C 11.53125 17.863281 11.425781 17.613281 10.730469 16.953125 L 10.058594 16.320312 L 10.4375 16.320312 C 10.875 16.320312 11.519531 16.734375 12.480469 17.625 C 12.839844 17.964844 13.171875 18.238281 13.214844 18.238281 C 13.257812 18.238281 13.359375 18.15625 13.445312 18.054688 C 13.664062 17.789062 13.417969 17.390625 12.625 16.738281 L 11.972656 16.199219 L 12.386719 16.199219 C 12.867188 16.199219 13.492188 16.609375 14.546875 17.601562 C 15.140625 18.164062 15.265625 18.234375 15.476562 18.121094 C 15.609375 18.050781 15.71875 17.921875 15.71875 17.835938 C 15.71875 17.75 15.375 17.34375 14.949219 16.9375 L 14.179688 16.199219 L 14.574219 16.199219 C 15.023438 16.199219 15.675781 16.628906 16.699219 17.597656 C 17.382812 18.238281 17.660156 18.316406 17.816406 17.910156 C 17.867188 17.777344 17.675781 17.5 17.222656 17.042969 L 16.554688 16.367188 L 17.007812 16.417969 C 17.523438 16.476562 17.894531 16.714844 18.867188 17.605469 C 19.539062 18.222656 19.824219 18.304688 19.96875 17.929688 C 20.007812 17.828125 19.851562 17.550781 19.609375 17.285156 L 19.183594 16.8125 L 20.300781 17.121094 C 20.917969 17.289062 21.53125 17.453125 21.667969 17.484375 C 21.957031 17.546875 22.234375 17.269531 22.136719 17.011719 C 21.996094 16.644531 18.710938 15.839844 16.375 15.601562 C 15.652344 15.523438 14.839844 15.4375 14.566406 15.40625 L 14.074219 15.351562 L 14.003906 14.492188 C 13.863281 12.835938 12.785156 11.351562 11.328125 10.804688 C 10.554688 10.515625 9.074219 10.484375 8.371094 10.742188 M 15.71875 11.507812 C 14.402344 12.113281 14.21875 12.230469 14.21875 12.484375 C 14.21875 12.660156 14.300781 12.792969 14.414062 12.8125 C 14.671875 12.863281 17.546875 11.585938 17.691406 11.359375 C 17.816406 11.160156 17.589844 10.792969 17.355469 10.808594 C 17.28125 10.816406 16.546875 11.128906 15.71875 11.507812 M 8.878906 11.390625 C 7.316406 11.867188 6.359375 13.152344 6.359375 14.761719 C 6.359375 15.46875 6.558594 16.242188 6.710938 16.144531 C 6.957031 15.992188 9.695312 15.589844 11.339844 15.464844 L 13.199219 15.320312 L 13.199219 14.585938 C 13.199219 12.765625 11.605469 11.253906 9.726562 11.289062 C 9.425781 11.296875 9.046875 11.34375 8.878906 11.390625 M 2.109375 11.835938 C 1.988281 12.15625 2.230469 12.316406 3.542969 12.785156 C 4.863281 13.253906 5.203125 13.257812 5.136719 12.8125 C 5.105469 12.589844 4.890625 12.460938 3.898438 12.097656 C 2.5625 11.597656 2.21875 11.550781 2.109375 11.835938 M 2.871094 14.109375 C 2.582031 14.457031 2.882812 14.699219 3.601562 14.699219 C 4.0625 14.699219 4.269531 14.644531 4.359375 14.5 C 4.574219 14.164062 4.253906 13.921875 3.601562 13.921875 C 3.226562 13.921875 2.976562 13.984375 2.871094 14.109375 M 14.75 14.109375 C 14.464844 14.457031 14.761719 14.699219 15.480469 14.699219 C 15.941406 14.699219 16.148438 14.644531 16.238281 14.5 C 16.453125 14.164062 16.132812 13.921875 15.480469 13.921875 C 15.105469 13.921875 14.855469 13.984375 14.75 14.109375 "/>
</g>
</svg>
