<?xml version="1.0" encoding="UTF-8"?>
<svg xmlns="http://www.w3.org/2000/svg" xmlns:xlink="http://www.w3.org/1999/xlink" width="100px" height="100px" viewBox="0 0 100 100" version="1.1">
<g id="surface1">
<path style=" stroke:none;fill-rule:evenodd;fill:rgb(0%,0%,0%);fill-opacity:1;" d="M 78.78125 6.125 C 77.59375 14.582031 77.183594 27.582031 77.996094 31.050781 C 78.34375 32.535156 79.828125 36.363281 81.296875 39.558594 C 82.765625 42.753906 84.183594 46.335938 84.449219 47.519531 C 84.898438 49.511719 84.417969 59.925781 83.742188 62.863281 C 83.539062 63.75 83.894531 64.238281 85.484375 65.238281 C 86.582031 65.933594 87.679688 66.5 87.925781 66.5 C 88.496094 66.5 88.851562 64.285156 89.578125 56.121094 C 90.292969 48.128906 90.011719 46.554688 86.503906 38.914062 C 82.65625 30.527344 82.296875 28.871094 82.695312 21.25 C 82.878906 17.675781 83.425781 11.429688 83.910156 7.375 L 84.785156 0 L 79.640625 0 L 78.78125 6.125 M 89.777344 1.125 C 89.097656 4.320312 87.917969 15.542969 87.652344 21.355469 C 87.320312 28.664062 87.699219 30.363281 91.246094 37.5 C 94.15625 43.355469 94.6875 45.65625 94.601562 52.03125 C 94.558594 55.214844 94.179688 60.257812 93.761719 63.246094 C 93.34375 66.230469 93 68.914062 93.003906 69.210938 C 93.007812 69.984375 97.027344 72.175781 97.511719 71.671875 C 98.050781 71.109375 99.398438 60.441406 99.789062 53.667969 C 100.203125 46.507812 99.371094 42.742188 95.65625 34.886719 L 92.75 28.75 L 92.804688 21.75 C 92.851562 15.808594 93.765625 6.496094 94.800781 1.375 C 95.074219 0.0195312 95.042969 0 92.550781 0 C 90.328125 0 89.988281 0.136719 89.777344 1.125 M 6.722656 33.414062 C 2.433594 35.421875 -0.582031 40.980469 0.238281 45.367188 C 0.683594 47.738281 2.089844 50.464844 3.578125 51.828125 C 4.835938 52.988281 80.910156 97.523438 84.25 99.058594 C 89.433594 101.441406 95.851562 99.101562 98.617188 93.828125 C 100.851562 89.558594 99.691406 83.429688 96.066406 80.382812 C 95.25 79.695312 76.734375 68.710938 54.917969 55.96875 L 15.25 32.804688 L 12 32.636719 C 9.585938 32.511719 8.226562 32.710938 6.722656 33.414062 M 8 38.597656 C 6.828125 39.386719 6.03125 40.464844 5.589844 41.851562 C 5.003906 43.683594 5.035156 44.167969 5.84375 46.019531 C 6.679688 47.941406 7.429688 48.507812 14.753906 52.769531 L 22.75 57.421875 L 23.171875 55.835938 C 24.050781 52.535156 25.230469 50.40625 27.128906 48.695312 C 28.207031 47.71875 29.011719 46.84375 28.914062 46.746094 C 28.816406 46.652344 25.371094 44.609375 21.257812 42.210938 C 12.671875 37.210938 10.800781 36.699219 8 38.597656 M 31.382812 51.78125 C 28.304688 53.453125 27.488281 58.40625 29.875 60.953125 C 31.003906 62.160156 71.832031 86.5 72.722656 86.5 C 72.875 86.5 73.003906 85.882812 73.011719 85.125 C 73.027344 82.949219 74.664062 79.910156 76.914062 77.882812 L 78.988281 76.015625 L 77.867188 75.3125 C 75.671875 73.929688 39.03125 52.539062 37.554688 51.777344 C 35.679688 50.808594 33.171875 50.808594 31.382812 51.78125 "/>
</g>
</svg>
