<?xml version="1.0" encoding="UTF-8"?>
<svg xmlns="http://www.w3.org/2000/svg" xmlns:xlink="http://www.w3.org/1999/xlink" width="100px" height="100px" viewBox="0 0 100 100" version="1.1">
<g id="surface1">
<path style=" stroke:none;fill-rule:evenodd;fill:rgb(0%,0%,0%);fill-opacity:1;" d="M 8.109375 10.636719 C 5.984375 12.785156 5 14.167969 5 15.011719 C 5 15.96875 9.082031 20.328125 23.117188 34.367188 L 41.238281 52.492188 L 31.269531 62.5 L 19.945312 62.5 C 11.484375 62.5 8.496094 62.65625 8.125 63.125 C 7.855469 63.46875 6.988281 66.402344 6.207031 69.648438 C 5.136719 74.085938 4.914062 75.753906 5.320312 76.398438 C 5.804688 77.160156 7.289062 77.261719 19.761719 77.382812 L 33.664062 77.515625 L 41.839844 69.394531 L 50.015625 61.277344 L 58.136719 69.386719 L 66.261719 77.5 L 79.84375 77.5 C 96.925781 77.5 95.925781 78.085938 93.71875 69.371094 C 93.011719 66.589844 92.21875 63.90625 91.949219 63.40625 C 91.503906 62.570312 90.5625 62.5 80.097656 62.5 L 68.730469 62.5 L 58.769531 52.5 L 76.882812 34.359375 C 91.027344 20.199219 95 15.945312 95 14.96875 C 95 13.25 89.21875 7.5 87.488281 7.5 C 86.53125 7.5 82.167969 11.585938 68.128906 25.621094 L 50 43.746094 L 31.871094 25.621094 C 17.613281 11.367188 13.476562 7.5 12.484375 7.5 C 11.597656 7.5 10.292969 8.4375 8.109375 10.636719 M 11.714844 14.558594 C 11.511719 14.886719 23.070312 26.816406 40.058594 43.808594 L 68.746094 72.5 L 78.875 72.5 C 89.9375 72.5 89.390625 72.679688 88.472656 69.375 L 87.953125 67.5 L 66.246094 67.5 L 39.5 40.75 C 24.789062 26.039062 12.597656 14 12.40625 14 C 12.214844 14 11.902344 14.25 11.714844 14.558594 M 70.511719 30.738281 C 57.164062 44.089844 53.902344 47.601562 54.398438 48.101562 C 54.898438 48.597656 58.410156 45.335938 71.761719 31.988281 C 80.96875 22.785156 88.429688 15.042969 88.34375 14.785156 C 88.257812 14.523438 87.976562 14.242188 87.714844 14.15625 C 87.457031 14.070312 79.714844 21.53125 70.511719 30.738281 M 39.207031 62.007812 L 33.660156 67.5 L 12.046875 67.5 L 11.527344 69.375 C 10.609375 72.679688 10.0625 72.5 21.132812 72.5 L 31.261719 72.5 L 38.695312 65.054688 C 45.179688 58.558594 46.738281 56.476562 45.09375 56.507812 C 44.90625 56.507812 42.253906 58.984375 39.207031 62.007812 M 45.75 78.085938 C 40.566406 80.011719 38.503906 84.652344 41.125 88.507812 C 42.894531 91.113281 45.59375 92.25 50 92.25 C 54.40625 92.25 57.105469 91.113281 58.875 88.507812 C 61.148438 85.164062 59.769531 80.878906 55.75 78.804688 C 53.429688 77.605469 48.074219 77.21875 45.75 78.085938 M 47 83.375 C 46.039062 83.855469 45.25 84.585938 45.25 85 C 45.25 85.910156 48.269531 87.5 50 87.5 C 51.730469 87.5 54.75 85.910156 54.75 85 C 54.75 84.089844 51.730469 82.5 50 82.5 C 49.3125 82.5 47.960938 82.894531 47 83.375 "/>
</g>
</svg>
