<?xml version="1.0" encoding="UTF-8"?>
<svg xmlns="http://www.w3.org/2000/svg" xmlns:xlink="http://www.w3.org/1999/xlink" width="24px" height="24px" viewBox="0 0 24 24" version="1.1">
<g id="surface1">
<path style=" stroke:none;fill-rule:evenodd;fill:rgb(0%,0%,0%);fill-opacity:1;" d="M 1.988281 1.988281 C 1.820312 2.15625 1.800781 3.230469 1.800781 12 C 1.800781 20.769531 1.820312 21.84375 1.988281 22.011719 C 2.15625 22.179688 3.230469 22.199219 12 22.199219 C 20.769531 22.199219 21.84375 22.179688 22.011719 22.011719 C 22.179688 21.84375 22.199219 20.769531 22.199219 12 C 22.199219 3.230469 22.179688 2.15625 22.011719 1.988281 C 21.84375 1.820312 20.769531 1.800781 12 1.800781 C 3.230469 1.800781 2.15625 1.820312 1.988281 1.988281 M 3 12 L 3 21 L 21 21 L 21 3 L 3 3 L 3 12 M 13.988281 4.386719 C 13.886719 4.492188 13.800781 4.675781 13.800781 4.800781 C 13.800781 5.34375 14.042969 5.398438 16.386719 5.398438 L 18.601562 5.398438 L 18.601562 7.613281 C 18.601562 9.957031 18.65625 10.199219 19.199219 10.199219 C 19.757812 10.199219 19.800781 9.988281 19.800781 7.199219 C 19.800781 4.976562 19.769531 4.546875 19.613281 4.386719 C 19.328125 4.105469 14.269531 4.105469 13.988281 4.386719 "/>
</g>
</svg>
