<?xml version="1.0" encoding="UTF-8"?>
<svg xmlns="http://www.w3.org/2000/svg" xmlns:xlink="http://www.w3.org/1999/xlink" width="100px" height="100px" viewBox="0 0 100 100" version="1.1">
<g id="surface1">
<path style=" stroke:none;fill-rule:evenodd;fill:rgb(0%,0%,0%);fill-opacity:1;" d="M 37.125 0.519531 C 26.019531 2.519531 18.445312 9.46875 14.097656 21.65625 C 12.964844 24.828125 12.8125 26.039062 12.800781 32 C 12.789062 38.109375 12.917969 39.128906 14.175781 42.75 C 15.765625 47.328125 18.082031 51.679688 20.984375 55.542969 C 23.425781 58.789062 23.660156 60.144531 21.460938 58.292969 C 19.449219 56.601562 16.828125 56.53125 15.773438 58.148438 C 14.90625 59.46875 14.683594 68.859375 15.40625 73.5 C 15.824219 76.1875 15.847656 76.21875 16.414062 74.84375 C 17.144531 73.085938 17.855469 73.480469 18.308594 75.890625 L 18.660156 77.75 L 19.472656 75.816406 L 20.285156 73.878906 L 21 75.316406 L 21.71875 76.75 L 21.886719 75.152344 C 22.015625 73.945312 22.25 73.628906 22.835938 73.851562 C 23.457031 74.089844 23.542969 73.917969 23.25 73 L 22.886719 71.851562 L 24.394531 72.925781 C 25.226562 73.515625 26.359375 74 26.914062 74 C 28.128906 74 29.726562 72.089844 30.515625 69.703125 L 31.085938 67.96875 L 32.464844 69.859375 C 34.476562 72.617188 37.800781 75.515625 41.5 77.722656 C 43.289062 78.792969 44.84375 79.742188 44.957031 79.832031 C 45.070312 79.921875 44.902344 80.570312 44.582031 81.273438 C 44.121094 82.28125 44.148438 82.835938 44.714844 83.929688 C 45.628906 85.703125 49.285156 89.363281 50.535156 89.761719 C 51.644531 90.113281 51.78125 91.003906 50.875 91.960938 C 50.410156 92.453125 50.398438 92.679688 50.832031 92.839844 C 51.242188 92.992188 51.28125 93.523438 50.960938 94.632812 C 50.453125 96.414062 51.191406 97.761719 51.738281 96.042969 C 52.128906 94.808594 53 95.128906 53 96.507812 C 53 97.027344 53.265625 98.03125 53.585938 98.742188 C 54.304688 100.316406 54.980469 99.539062 54.992188 97.125 C 55 95.160156 56.136719 94.941406 57.632812 96.625 L 58.632812 97.75 L 58.296875 95.117188 C 57.988281 92.683594 58.050781 92.449219 59.105469 92.039062 C 60.199219 91.613281 60.167969 91.558594 58.378906 90.792969 C 57.253906 90.308594 56.011719 89.210938 55.273438 88.035156 C 54.59375 86.960938 53.804688 85.941406 53.519531 85.761719 C 51.546875 84.542969 55.296875 82.722656 57.5 83.832031 C 58.1875 84.175781 59.324219 84.574219 60.023438 84.714844 C 60.722656 84.851562 62.304688 85.753906 63.542969 86.71875 C 66.226562 88.808594 69.363281 90 72.199219 90 C 73.335938 90 75.894531 90.449219 77.878906 91 C 82.214844 92.203125 87.933594 92.320312 90 91.25 C 91.269531 90.59375 92.484375 88.214844 92.496094 86.363281 C 92.503906 85.488281 88.183594 81.382812 86.53125 80.695312 C 84.722656 79.941406 80 75.683594 80 74.804688 C 80 74.542969 80.597656 74.871094 81.324219 75.539062 C 82.53125 76.640625 82.625 76.660156 82.382812 75.75 C 82.234375 75.199219 81.9375 74.320312 81.722656 73.796875 C 81.359375 72.910156 81.507812 72.863281 83.746094 73.171875 C 86.125 73.496094 86.144531 73.488281 85.261719 72.515625 C 84.769531 71.96875 83.945312 71.390625 83.425781 71.226562 C 82.261719 70.855469 82.703125 70 84.058594 70 C 84.609375 70 84.921875 69.773438 84.75 69.5 C 84.578125 69.226562 83.539062 69 82.441406 69 C 81.15625 69 80.558594 68.808594 80.769531 68.46875 C 80.988281 68.113281 80.539062 68.03125 79.425781 68.214844 C 77.800781 68.488281 77.664062 68.375 75 64.507812 C 70.933594 58.609375 68.625 58.078125 67.441406 62.78125 L 66.902344 64.917969 L 63.273438 61.335938 C 61.273438 59.363281 58.878906 57.113281 57.945312 56.335938 C 56.484375 55.113281 56.410156 54.953125 57.402344 55.167969 C 58.996094 55.515625 58.574219 54.5 56.609375 53.25 C 54.90625 52.164062 54.464844 51.332031 55.875 51.859375 C 56.636719 52.144531 56.660156 52.078125 56.074219 51.355469 C 55.703125 50.898438 54.578125 50.386719 53.574219 50.214844 C 52.570312 50.042969 49.957031 49.347656 47.765625 48.675781 C 45.238281 47.894531 43.316406 47.574219 42.515625 47.789062 C 41.820312 47.980469 40.125 48.179688 38.75 48.230469 L 36.25 48.328125 L 31.707031 43.789062 C 28.136719 40.21875 26.746094 38.402344 25.214844 35.289062 C 23.464844 31.734375 23.261719 30.9375 23.261719 27.515625 C 23.261719 24.191406 23.480469 23.253906 24.964844 20.226562 C 27.347656 15.359375 32.683594 10.050781 36.699219 8.558594 C 41.585938 6.738281 46.707031 6.296875 55.492188 6.9375 C 70.777344 8.050781 77.722656 7.507812 84.914062 4.628906 C 87.894531 3.4375 88.066406 3.285156 87.195312 2.636719 C 86.4375 2.074219 84.769531 2 78.75 2.25 C 72.652344 2.507812 69.753906 2.367188 63.25 1.511719 C 54.15625 0.316406 41.023438 -0.183594 37.125 0.519531 "/>
</g>
</svg>
