<?xml version="1.0" encoding="UTF-8"?>
<svg xmlns="http://www.w3.org/2000/svg" xmlns:xlink="http://www.w3.org/1999/xlink" width="24px" height="24px" viewBox="0 0 24 24" version="1.1">
<g id="surface1">
<path style=" stroke:none;fill-rule:evenodd;fill:rgb(0%,0%,0%);fill-opacity:1;" d="M 18.90625 1.46875 C 18.621094 3.5 18.523438 6.621094 18.71875 7.453125 C 18.800781 7.808594 19.160156 8.726562 19.511719 9.492188 C 19.863281 10.261719 20.203125 11.121094 20.269531 11.40625 C 20.375 11.882812 20.261719 14.382812 20.097656 15.085938 C 20.050781 15.300781 20.136719 15.417969 20.515625 15.65625 C 20.78125 15.824219 21.042969 15.960938 21.101562 15.960938 C 21.238281 15.960938 21.324219 15.429688 21.5 13.46875 C 21.671875 11.550781 21.601562 11.171875 20.761719 9.339844 C 19.835938 7.328125 19.75 6.929688 19.847656 5.101562 C 19.890625 4.242188 20.023438 2.742188 20.136719 1.769531 L 20.347656 0 L 19.113281 0 L 18.90625 1.46875 M 21.546875 0.269531 C 21.382812 1.035156 21.101562 3.730469 21.035156 5.125 C 20.957031 6.878906 21.046875 7.289062 21.898438 9 C 22.597656 10.40625 22.726562 10.957031 22.703125 12.488281 C 22.695312 13.25 22.605469 14.460938 22.503906 15.179688 C 22.402344 15.894531 22.320312 16.539062 22.320312 16.609375 C 22.324219 16.796875 23.285156 17.320312 23.402344 17.199219 C 23.53125 17.066406 23.855469 14.507812 23.949219 12.878906 C 24.046875 11.160156 23.847656 10.257812 22.957031 8.371094 L 22.261719 6.898438 L 22.273438 5.21875 C 22.285156 3.792969 22.503906 1.558594 22.753906 0.328125 C 22.816406 0.00390625 22.808594 0 22.210938 0 C 21.679688 0 21.597656 0.03125 21.546875 0.269531 M 1.613281 8.019531 C 0.585938 8.5 -0.140625 9.835938 0.0585938 10.886719 C 0.164062 11.457031 0.5 12.109375 0.859375 12.4375 C 1.160156 12.71875 19.417969 23.40625 20.21875 23.773438 C 21.464844 24.347656 23.003906 23.785156 23.667969 22.519531 C 24.203125 21.492188 23.925781 20.023438 23.054688 19.292969 C 22.859375 19.128906 18.417969 16.492188 13.179688 13.433594 L 3.660156 7.871094 L 2.878906 7.832031 C 2.300781 7.804688 1.976562 7.851562 1.613281 8.019531 M 1.921875 9.261719 C 1.640625 9.453125 1.449219 9.710938 1.339844 10.042969 C 1.203125 10.484375 1.207031 10.601562 1.402344 11.042969 C 1.601562 11.507812 1.78125 11.640625 3.539062 12.664062 L 5.460938 13.78125 L 5.5625 13.402344 C 5.773438 12.609375 6.054688 12.097656 6.511719 11.6875 C 6.769531 11.453125 6.960938 11.242188 6.9375 11.21875 C 6.917969 11.195312 6.089844 10.707031 5.101562 10.132812 C 3.042969 8.929688 2.59375 8.808594 1.921875 9.261719 M 7.53125 12.429688 C 6.792969 12.828125 6.597656 14.015625 7.171875 14.628906 C 7.441406 14.917969 17.238281 20.761719 17.453125 20.761719 C 17.492188 20.761719 17.519531 20.613281 17.523438 20.429688 C 17.527344 19.90625 17.917969 19.179688 18.460938 18.691406 L 18.957031 18.242188 L 18.6875 18.074219 C 18.160156 17.742188 9.367188 12.609375 9.011719 12.425781 C 8.5625 12.195312 7.960938 12.195312 7.53125 12.429688 "/>
</g>
</svg>
