<?xml version="1.0" encoding="UTF-8"?>
<svg xmlns="http://www.w3.org/2000/svg" xmlns:xlink="http://www.w3.org/1999/xlink" width="24px" height="24px" viewBox="0 0 24 24" version="1.1">
<g id="surface1">
<path style=" stroke:none;fill-rule:evenodd;fill:rgb(0%,0%,0%);fill-opacity:1;" d="M 10.398438 3.191406 C 9.347656 3.445312 8.109375 4.148438 7.3125 4.945312 C 6.535156 5.722656 5.816406 7.027344 5.683594 7.90625 L 5.605469 8.433594 L 5.953125 8.375 C 6.144531 8.339844 6.394531 8.273438 6.511719 8.222656 C 6.652344 8.164062 6.71875 8.1875 6.71875 8.296875 C 6.71875 8.386719 6.96875 8.972656 7.273438 9.601562 C 7.582031 10.226562 7.996094 11.078125 8.195312 11.496094 C 8.660156 12.453125 9.746094 13.644531 10.578125 14.101562 C 11.128906 14.410156 11.347656 14.460938 12.121094 14.460938 C 12.890625 14.460938 13.109375 14.410156 13.660156 14.105469 C 14.585938 13.59375 15.617188 12.433594 16.136719 11.316406 C 16.378906 10.800781 16.789062 9.964844 17.046875 9.460938 C 17.308594 8.953125 17.519531 8.449219 17.519531 8.335938 C 17.519531 8.191406 17.578125 8.160156 17.730469 8.222656 C 17.84375 8.273438 18.097656 8.339844 18.289062 8.375 C 18.636719 8.433594 18.636719 8.429688 18.566406 7.917969 C 18.457031 7.085938 17.695312 5.695312 16.9375 4.9375 C 16.144531 4.148438 14.878906 3.441406 13.789062 3.183594 C 12.839844 2.960938 11.332031 2.964844 10.398438 3.191406 M 10.46875 3.785156 C 8.691406 4.265625 7.191406 5.539062 6.535156 7.125 C 6.351562 7.570312 6.355469 7.585938 6.5625 7.5 C 7.195312 7.234375 9.066406 6.839844 10.296875 6.710938 C 12.523438 6.480469 15.34375 6.730469 17.097656 7.308594 C 17.492188 7.4375 17.828125 7.53125 17.84375 7.515625 C 17.859375 7.5 17.710938 7.144531 17.515625 6.730469 C 16.855469 5.335938 15.429688 4.226562 13.722656 3.78125 C 12.867188 3.558594 11.308594 3.558594 10.46875 3.785156 M 11.878906 4.859375 C 11.878906 4.976562 11.765625 5.039062 11.5625 5.039062 C 11.253906 5.039062 11.25 5.046875 11.453125 5.269531 C 11.589844 5.421875 11.632812 5.589844 11.582031 5.757812 C 11.507812 5.992188 11.519531 6 11.75 5.859375 C 11.957031 5.730469 12.042969 5.730469 12.25 5.859375 C 12.480469 6 12.492188 5.992188 12.417969 5.757812 C 12.367188 5.589844 12.410156 5.421875 12.546875 5.269531 C 12.75 5.046875 12.746094 5.039062 12.4375 5.039062 C 12.234375 5.039062 12.121094 4.976562 12.121094 4.859375 C 12.121094 4.761719 12.066406 4.679688 12 4.679688 C 11.933594 4.679688 11.878906 4.761719 11.878906 4.859375 M 10.441406 7.277344 C 10.273438 7.300781 9.734375 7.378906 9.238281 7.453125 C 7.90625 7.648438 7.855469 7.742188 8.949219 7.996094 C 10.308594 8.316406 13.933594 8.316406 15.292969 7.996094 C 16.019531 7.828125 16.195312 7.746094 16.042969 7.660156 C 15.503906 7.359375 11.671875 7.097656 10.441406 7.277344 M 7.320312 8.257812 C 7.320312 8.324219 7.550781 8.832031 7.828125 9.382812 C 8.109375 9.9375 8.488281 10.722656 8.671875 11.128906 C 9.347656 12.640625 10.929688 13.921875 12.113281 13.917969 C 13.347656 13.917969 14.851562 12.6875 15.597656 11.074219 C 15.804688 10.625 16.199219 9.816406 16.472656 9.273438 C 16.746094 8.734375 16.9375 8.257812 16.894531 8.214844 C 16.855469 8.175781 16.480469 8.25 16.0625 8.378906 C 14.6875 8.800781 13.578125 8.914062 11.496094 8.84375 C 9.625 8.78125 9.261719 8.722656 7.589844 8.214844 C 7.429688 8.164062 7.320312 8.183594 7.320312 8.257812 M 8.292969 14.589844 C 7.394531 14.832031 6.308594 15.433594 5.589844 16.09375 C 4.457031 17.128906 3.542969 19.109375 3.621094 20.355469 L 3.660156 20.941406 L 20.339844 20.941406 L 20.378906 20.355469 C 20.425781 19.609375 20.058594 18.398438 19.503906 17.460938 C 18.710938 16.117188 17.195312 14.984375 15.664062 14.585938 L 14.964844 14.40625 L 14.539062 14.78125 C 13.199219 15.957031 11.328125 15.996094 9.867188 14.882812 C 9.160156 14.34375 9.1875 14.347656 8.292969 14.589844 M 8.28125 15.226562 C 7.21875 15.570312 6.597656 15.945312 5.851562 16.6875 C 5.046875 17.492188 4.375 18.785156 4.25 19.769531 L 4.167969 20.398438 L 19.832031 20.398438 L 19.75 19.769531 C 19.546875 18.164062 18.179688 16.316406 16.660156 15.597656 C 15.5 15.050781 15.230469 15.03125 14.617188 15.457031 C 13.003906 16.566406 11.230469 16.570312 9.65625 15.46875 C 9.289062 15.210938 8.976562 15.003906 8.964844 15.007812 C 8.949219 15.011719 8.644531 15.109375 8.28125 15.226562 M 14.789062 17.960938 C 14.707031 17.992188 14.640625 18.125 14.640625 18.25 C 14.640625 18.464844 14.738281 18.480469 16.011719 18.480469 C 17.429688 18.480469 17.777344 18.363281 17.335938 18.042969 C 17.117188 17.882812 15.136719 17.820312 14.789062 17.960938 "/>
</g>
</svg>
