<?xml version="1.0" encoding="UTF-8"?>
<svg xmlns="http://www.w3.org/2000/svg" xmlns:xlink="http://www.w3.org/1999/xlink" width="24px" height="24px" viewBox="0 0 24 24" version="1.1">
<g id="surface1">
<path style=" stroke:none;fill-rule:evenodd;fill:rgb(0%,0%,0%);fill-opacity:1;" d="M 8.714844 0.09375 C 8.675781 0.160156 8.589844 0.585938 8.527344 1.039062 C 8.460938 1.496094 8.164062 2.558594 7.863281 3.40625 L 7.316406 4.941406 L 7.617188 5.300781 C 7.820312 5.542969 7.9375 5.605469 7.972656 5.5 C 8 5.410156 8.289062 4.558594 8.613281 3.601562 C 8.9375 2.644531 9.242188 1.65625 9.289062 1.410156 C 9.332031 1.164062 9.425781 0.960938 9.488281 0.960938 C 9.796875 0.960938 10.902344 1.644531 11.480469 2.1875 C 12.132812 2.808594 12.773438 3.898438 12.910156 4.632812 C 12.953125 4.855469 13.003906 5.039062 13.027344 5.039062 C 13.050781 5.039062 13.207031 4.910156 13.378906 4.753906 L 13.6875 4.464844 L 13.457031 3.851562 C 13.082031 2.867188 12.660156 2.238281 11.886719 1.523438 C 10.878906 0.589844 8.945312 -0.277344 8.714844 0.09375 M 15.632812 4.246094 C 14.9375 4.476562 14.171875 4.945312 13.71875 5.417969 C 13.511719 5.640625 12.878906 6.496094 12.316406 7.320312 C 11.453125 8.582031 11.324219 8.832031 11.496094 8.902344 C 11.984375 9.097656 12.121094 8.984375 13.078125 7.566406 C 14.578125 5.359375 15.3125 4.847656 16.851562 4.945312 C 17.828125 5.011719 18.546875 5.320312 19.230469 5.976562 C 19.476562 6.214844 19.679688 6.441406 19.679688 6.480469 C 19.679688 6.523438 19.429688 6.566406 19.128906 6.582031 C 17.898438 6.648438 16.855469 7.277344 15.765625 8.617188 C 15.046875 9.5 14.625 9.800781 13.859375 9.96875 L 13.234375 10.109375 L 13.367188 10.464844 C 13.492188 10.796875 13.53125 10.816406 13.960938 10.746094 C 14.898438 10.597656 15.441406 10.199219 16.660156 8.78125 C 17.042969 8.335938 17.546875 7.902344 17.917969 7.707031 C 18.476562 7.414062 18.664062 7.378906 19.738281 7.378906 C 21.148438 7.378906 21.238281 7.289062 20.65625 6.441406 C 20.078125 5.601562 19.035156 4.726562 18.277344 4.441406 C 17.398438 4.113281 16.289062 4.03125 15.632812 4.246094 M 3.484375 4.566406 C 2.570312 4.753906 1.738281 5.246094 1.019531 6.023438 C 0.644531 6.425781 0.25 6.9375 0.144531 7.160156 C -0.0273438 7.523438 -0.0273438 7.582031 0.136719 7.746094 C 0.277344 7.890625 0.390625 7.902344 0.648438 7.804688 C 1.117188 7.625 1.777344 7.648438 2.527344 7.871094 C 3.097656 8.039062 3.328125 8.21875 4.378906 9.292969 C 5.039062 9.972656 5.800781 10.636719 6.074219 10.777344 C 6.542969 11.015625 8.105469 11.378906 8.207031 11.269531 C 8.230469 11.242188 8.289062 11.050781 8.332031 10.84375 L 8.414062 10.46875 L 7.714844 10.417969 C 6.683594 10.34375 6.003906 9.960938 5.144531 8.964844 C 4.738281 8.492188 4.21875 7.957031 3.992188 7.777344 C 3.457031 7.355469 2.402344 6.960938 1.796875 6.960938 C 1.535156 6.960938 1.320312 6.917969 1.320312 6.863281 C 1.320312 6.679688 2.226562 5.902344 2.75 5.640625 C 3.402344 5.3125 4.445312 5.207031 5.136719 5.394531 C 5.863281 5.589844 6.5 6.214844 7.324219 7.550781 C 7.714844 8.183594 8.21875 8.910156 8.4375 9.171875 L 8.839844 9.640625 L 9.144531 9.410156 L 9.453125 9.179688 L 9.007812 8.640625 C 8.761719 8.34375 8.285156 7.640625 7.949219 7.078125 C 6.933594 5.394531 5.972656 4.652344 4.621094 4.515625 C 4.289062 4.480469 3.78125 4.503906 3.484375 4.566406 M 10.238281 7.46875 C 10.1875 7.550781 10.140625 7.902344 10.140625 8.25 L 10.140625 8.878906 L 10.921875 8.878906 L 10.921875 8.242188 C 10.921875 7.621094 10.777344 7.320312 10.484375 7.320312 C 10.402344 7.320312 10.292969 7.386719 10.238281 7.46875 M 12.996094 8.871094 C 12.632812 9.425781 12.625 9.464844 12.828125 9.648438 C 13.148438 9.941406 13.265625 9.886719 13.671875 9.273438 C 14.101562 8.625 14.105469 8.351562 13.679688 8.3125 C 13.441406 8.289062 13.304688 8.402344 12.996094 8.871094 M 7.160156 8.71875 C 6.957031 8.921875 7.128906 9.261719 7.691406 9.769531 C 8.03125 10.070312 8.34375 10.320312 8.394531 10.320312 C 8.441406 10.320312 8.542969 10.179688 8.621094 10.011719 C 8.753906 9.722656 8.722656 9.664062 8.191406 9.175781 C 7.648438 8.675781 7.339844 8.539062 7.160156 8.71875 M 17.160156 9.300781 C 17.003906 9.464844 16.902344 9.617188 16.929688 9.640625 C 16.957031 9.660156 17.277344 9.742188 17.640625 9.820312 C 18.441406 9.996094 19.460938 10.457031 19.941406 10.859375 C 20.265625 11.132812 21.839844 13.019531 21.839844 13.132812 C 21.839844 13.160156 21.476562 13.078125 21.03125 12.953125 C 19.953125 12.644531 18.859375 12.660156 17.039062 13.011719 C 14.925781 13.417969 14.191406 13.480469 13.183594 13.332031 C 12.503906 13.234375 12.164062 13.242188 11.710938 13.363281 L 11.125 13.519531 L 11.597656 13.710938 C 12.992188 14.269531 14.820312 14.28125 17.386719 13.746094 C 18.203125 13.578125 19.105469 13.441406 19.390625 13.441406 C 19.671875 13.441406 20.753906 13.683594 21.789062 13.980469 C 23.226562 14.394531 23.710938 14.488281 23.835938 14.386719 C 24.101562 14.167969 24.027344 13.96875 23.558594 13.609375 C 22.914062 13.121094 22.261719 12.425781 21.46875 11.382812 C 20.648438 10.308594 19.667969 9.597656 18.515625 9.242188 C 17.53125 8.9375 17.5 8.9375 17.160156 9.300781 M 10.078125 9.683594 C 9.742188 9.808594 9.246094 10.359375 9.113281 10.753906 C 9.007812 11.082031 9.027344 11.242188 9.222656 11.6875 C 9.933594 13.292969 12.78125 12.933594 12.78125 11.242188 C 12.78125 10.628906 12.414062 10.070312 11.835938 9.792969 C 11.441406 9.609375 10.457031 9.546875 10.078125 9.683594 M 10.15625 10.570312 C 9.769531 10.875 9.746094 11.304688 10.101562 11.632812 C 10.613281 12.113281 11.582031 12.046875 11.917969 11.507812 C 12.105469 11.203125 11.910156 10.703125 11.523438 10.503906 C 11.035156 10.25 10.53125 10.273438 10.15625 10.570312 M 4.800781 11.53125 C 2.761719 12.75 2.175781 15.050781 3.316406 17.359375 C 4.015625 18.78125 4.519531 18.972656 4.703125 17.886719 C 4.824219 17.175781 5.324219 16.375 5.917969 15.941406 C 6.503906 15.515625 6.730469 15.417969 7.84375 15.101562 C 8.296875 14.976562 8.839844 14.785156 9.042969 14.683594 C 9.449219 14.480469 10.320312 13.695312 10.320312 13.53125 C 10.320312 13.476562 10.179688 13.382812 10.011719 13.316406 C 9.742188 13.214844 9.632812 13.253906 9.230469 13.601562 C 8.902344 13.878906 8.421875 14.105469 7.648438 14.335938 C 5.820312 14.882812 4.988281 15.441406 4.429688 16.496094 C 4.269531 16.796875 4.105469 17.039062 4.058594 17.039062 C 4.015625 17.039062 3.867188 16.742188 3.730469 16.375 C 3.074219 14.625 3.8125 12.847656 5.535156 12.019531 L 6.238281 11.683594 L 5.816406 11.480469 C 5.289062 11.230469 5.304688 11.230469 4.800781 11.53125 M 13.433594 11.835938 C 13.367188 12.011719 13.289062 12.191406 13.261719 12.238281 C 13.234375 12.285156 13.597656 12.316406 14.074219 12.308594 C 14.875 12.300781 14.941406 12.28125 14.976562 12.03125 C 15.023438 11.714844 14.636719 11.519531 13.96875 11.519531 C 13.628906 11.519531 13.53125 11.578125 13.433594 11.835938 M 8.21875 12.140625 C 7.84375 12.347656 7.441406 12.746094 7.441406 12.917969 C 7.441406 13.277344 7.859375 13.304688 8.367188 12.980469 C 8.644531 12.804688 8.871094 12.632812 8.871094 12.601562 C 8.875 12.566406 8.78125 12.421875 8.667969 12.277344 C 8.496094 12.058594 8.417969 12.035156 8.21875 12.140625 M 10.199219 14.34375 C 10.199219 14.960938 10.582031 15.617188 11.285156 16.203125 C 11.625 16.488281 12.296875 17.242188 12.78125 17.882812 C 13.710938 19.105469 14.605469 19.921875 15.4375 20.296875 C 16.023438 20.5625 16.917969 20.695312 17.128906 20.550781 C 17.507812 20.292969 17.660156 17.394531 17.355469 16.261719 C 17.269531 15.929688 17.078125 15.425781 16.929688 15.136719 C 16.679688 14.652344 16.632812 14.617188 16.289062 14.6875 C 15.789062 14.789062 15.773438 14.820312 16.058594 15.179688 C 16.546875 15.800781 16.734375 16.640625 16.730469 18.152344 C 16.726562 19.023438 16.671875 19.613281 16.589844 19.695312 C 16.210938 20.078125 14.644531 19.035156 13.703125 17.777344 C 13.328125 17.273438 12.578125 16.421875 12.042969 15.882812 C 11.429688 15.269531 11.035156 14.769531 10.984375 14.546875 C 10.9375 14.332031 10.789062 14.140625 10.609375 14.054688 C 10.195312 13.867188 10.199219 13.867188 10.199219 14.34375 M 12.480469 14.894531 C 12.480469 14.9375 12.566406 15.042969 12.671875 15.128906 C 12.773438 15.214844 13.019531 15.519531 13.214844 15.804688 C 13.589844 16.347656 13.796875 16.433594 14.039062 16.140625 C 14.15625 16 14.125 15.863281 13.875 15.433594 C 13.589844 14.949219 13.519531 14.902344 13.023438 14.863281 C 12.722656 14.835938 12.480469 14.851562 12.480469 14.894531 M 8.308594 15.6875 C 7.976562 15.75 7.976562 15.785156 8.296875 16.449219 C 8.730469 17.34375 8.730469 18.34375 8.292969 19.652344 C 7.863281 20.9375 7.820312 21.824219 8.136719 23.027344 C 8.367188 23.898438 8.667969 24.203125 8.9375 23.839844 C 9.054688 23.683594 9.070312 23.527344 8.992188 23.300781 C 8.789062 22.707031 8.675781 21.46875 8.773438 20.859375 C 8.886719 20.136719 9.15625 19.601562 9.90625 18.582031 C 10.214844 18.160156 10.574219 17.609375 10.703125 17.355469 L 10.941406 16.886719 L 10.34375 16.289062 L 10.011719 16.964844 C 9.550781 17.90625 9.359375 18.042969 9.355469 17.445312 C 9.351562 16.941406 8.894531 15.691406 8.699219 15.65625 C 8.632812 15.644531 8.457031 15.65625 8.308594 15.6875 "/>
</g>
</svg>
