<?xml version="1.0" encoding="UTF-8"?>
<svg xmlns="http://www.w3.org/2000/svg" xmlns:xlink="http://www.w3.org/1999/xlink" width="100px" height="100px" viewBox="0 0 100 100" version="1.1">
<g id="surface1">
<path style=" stroke:none;fill-rule:evenodd;fill:rgb(0%,0%,0%);fill-opacity:1;" d="M 36.3125 0.398438 C 36.148438 0.664062 35.792969 2.4375 35.523438 4.332031 C 35.253906 6.230469 34.011719 10.664062 32.761719 14.1875 L 30.488281 20.59375 L 31.746094 22.085938 C 32.589844 23.089844 33.074219 23.359375 33.21875 22.914062 C 33.339844 22.550781 34.542969 18.988281 35.894531 15 C 37.246094 11.011719 38.507812 6.90625 38.699219 5.875 C 38.890625 4.84375 39.265625 4 39.539062 4 C 40.8125 4 45.433594 6.851562 47.828125 9.117188 C 50.558594 11.699219 53.21875 16.246094 53.792969 19.304688 C 53.96875 20.238281 54.1875 21 54.28125 21 C 54.371094 21 55.03125 20.460938 55.742188 19.800781 L 57.035156 18.601562 L 56.066406 16.054688 C 54.503906 11.945312 52.746094 9.335938 49.519531 6.347656 C 45.320312 2.460938 37.277344 -1.164062 36.3125 0.398438 M 65.144531 17.695312 C 62.238281 18.644531 59.050781 20.597656 57.167969 22.582031 C 56.296875 23.5 53.664062 27.0625 51.316406 30.5 C 47.726562 35.753906 47.183594 36.804688 47.898438 37.089844 C 49.9375 37.90625 50.5 37.433594 54.496094 31.535156 C 60.738281 22.328125 63.808594 20.191406 70.207031 20.609375 C 74.285156 20.878906 77.277344 22.171875 80.125 24.90625 C 81.15625 25.894531 82 26.839844 82 27.007812 C 82 27.175781 80.964844 27.367188 79.699219 27.433594 C 74.574219 27.699219 70.234375 30.324219 65.683594 35.910156 C 62.695312 39.578125 60.929688 40.832031 57.746094 41.542969 L 55.136719 42.128906 L 55.691406 43.609375 C 56.210938 44.984375 56.386719 45.066406 58.171875 44.78125 C 62.074219 44.15625 64.347656 42.5 69.414062 36.585938 C 71.007812 34.726562 73.117188 32.929688 74.664062 32.113281 C 76.980469 30.894531 77.773438 30.75 82.242188 30.75 C 88.113281 30.75 88.488281 30.363281 86.0625 26.839844 C 83.652344 23.339844 79.316406 19.691406 76.15625 18.507812 C 72.5 17.140625 67.878906 16.800781 65.144531 17.695312 M 14.523438 19.023438 C 10.707031 19.808594 7.234375 21.863281 4.242188 25.097656 C 2.683594 26.777344 1.050781 28.910156 0.609375 29.835938 C -0.109375 31.34375 -0.113281 31.597656 0.566406 32.28125 C 1.164062 32.875 1.621094 32.929688 2.695312 32.519531 C 4.648438 31.777344 7.398438 31.875 10.535156 32.800781 C 12.910156 33.5 13.875 34.238281 18.25 38.726562 C 21 41.546875 24.175781 44.324219 25.304688 44.902344 C 27.257812 45.898438 33.777344 47.410156 34.1875 46.960938 C 34.296875 46.84375 34.535156 46.046875 34.71875 45.1875 L 35.050781 43.625 L 32.144531 43.414062 C 27.847656 43.101562 25.023438 41.503906 21.4375 37.347656 C 19.742188 35.382812 17.582031 33.160156 16.632812 32.40625 C 14.410156 30.640625 10.003906 29 7.480469 29 C 6.390625 29 5.5 28.820312 5.5 28.601562 C 5.5 27.824219 9.28125 24.589844 11.464844 23.496094 C 14.175781 22.140625 18.519531 21.691406 21.402344 22.472656 C 24.429688 23.289062 27.082031 25.902344 30.519531 31.457031 C 32.152344 34.09375 34.238281 37.132812 35.160156 38.210938 L 36.832031 40.171875 L 38.109375 39.210938 L 39.382812 38.25 L 37.527344 36 C 36.507812 34.761719 34.523438 31.835938 33.121094 29.5 C 28.898438 22.472656 24.886719 19.382812 19.25 18.8125 C 17.875 18.675781 15.746094 18.769531 14.523438 19.023438 M 42.660156 31.125 C 42.441406 31.46875 42.257812 32.929688 42.257812 34.375 L 42.25 36.996094 L 43.875 37 L 45.5 37 L 45.5 34.351562 C 45.5 31.746094 44.910156 30.5 43.679688 30.5 C 43.339844 30.5 42.878906 30.78125 42.660156 31.125 M 54.15625 36.960938 C 52.640625 39.277344 52.605469 39.441406 53.445312 40.199219 C 54.789062 41.414062 55.273438 41.203125 56.96875 38.640625 C 58.761719 35.933594 58.769531 34.796875 56.996094 34.636719 C 56 34.546875 55.429688 35.015625 54.15625 36.960938 M 29.832031 36.332031 C 28.988281 37.179688 29.703125 38.589844 32.054688 40.703125 C 33.460938 41.964844 34.773438 43 34.972656 43 C 35.175781 43 35.601562 42.421875 35.925781 41.710938 C 36.472656 40.515625 36.34375 40.269531 34.132812 38.230469 C 31.875 36.15625 30.582031 35.585938 29.832031 36.332031 M 71.503906 38.746094 C 70.855469 39.433594 70.425781 40.070312 70.539062 40.164062 C 70.65625 40.253906 71.988281 40.597656 73.5 40.925781 C 76.835938 41.644531 81.085938 43.5625 83.09375 45.253906 C 84.445312 46.390625 91 54.242188 91 54.726562 C 91 54.835938 89.480469 54.496094 87.625 53.964844 C 83.136719 52.679688 78.578125 52.746094 71 54.207031 C 62.195312 55.90625 59.136719 56.160156 54.929688 55.558594 C 52.101562 55.152344 50.683594 55.179688 48.804688 55.679688 L 46.355469 56.335938 L 48.324219 57.121094 C 54.140625 59.449219 61.746094 59.5 72.445312 57.28125 C 75.851562 56.578125 79.605469 56 80.789062 56 C 81.96875 56 86.472656 57.015625 90.789062 58.253906 C 96.773438 59.96875 98.800781 60.371094 99.320312 59.941406 C 100.417969 59.03125 100.121094 58.210938 98.152344 56.710938 C 95.476562 54.667969 92.765625 51.777344 89.449219 47.429688 C 86.035156 42.949219 81.957031 39.988281 77.148438 38.503906 C 73.042969 37.238281 72.914062 37.242188 71.503906 38.746094 M 42 40.351562 C 40.59375 40.863281 38.523438 43.160156 37.980469 44.8125 C 37.53125 46.175781 37.609375 46.847656 38.425781 48.699219 C 41.382812 55.382812 53.253906 53.890625 53.25 46.835938 C 53.25 44.289062 51.722656 41.957031 49.308594 40.8125 C 47.671875 40.035156 43.578125 39.777344 42 40.351562 M 42.316406 44.035156 C 40.703125 45.304688 40.613281 47.097656 42.085938 48.472656 C 44.226562 50.46875 48.265625 50.191406 49.652344 47.953125 C 50.441406 46.679688 49.625 44.589844 48.015625 43.757812 C 45.984375 42.707031 43.875 42.808594 42.316406 44.035156 M 20 48.050781 C 11.515625 53.128906 9.070312 62.714844 13.8125 72.332031 C 16.734375 78.261719 18.828125 79.054688 19.601562 74.523438 C 20.109375 71.5625 22.183594 68.238281 24.660156 66.429688 C 27.089844 64.652344 28.035156 64.238281 32.6875 62.929688 C 34.574219 62.398438 36.824219 61.609375 37.6875 61.175781 C 39.371094 60.328125 43 57.058594 43 56.386719 C 43 56.160156 42.417969 55.753906 41.707031 55.484375 C 40.597656 55.0625 40.144531 55.226562 38.460938 56.667969 C 37.097656 57.835938 35.09375 58.765625 31.875 59.730469 C 24.257812 62.011719 20.78125 64.34375 18.449219 68.742188 C 17.789062 69.984375 17.097656 71 16.910156 71 C 16.726562 71 16.105469 69.753906 15.535156 68.230469 C 12.808594 60.9375 15.878906 53.535156 23.0625 50.085938 L 25.992188 48.679688 L 24.226562 47.839844 C 22.03125 46.792969 22.109375 46.789062 20 48.050781 M 55.972656 49.320312 C 55.695312 50.050781 55.375 50.800781 55.257812 50.992188 C 55.136719 51.179688 56.664062 51.316406 58.644531 51.292969 C 61.988281 51.253906 62.261719 51.167969 62.410156 50.125 C 62.59375 48.816406 60.984375 48 58.203125 48 C 56.796875 48 56.382812 48.246094 55.972656 49.320312 M 34.25 50.59375 C 32.675781 51.449219 31 53.113281 31 53.820312 C 31 55.324219 32.742188 55.445312 34.871094 54.085938 C 36.019531 53.351562 36.964844 52.636719 36.96875 52.5 C 36.972656 52.363281 36.589844 51.753906 36.113281 51.148438 C 35.40625 50.25 35.070312 50.148438 34.25 50.59375 M 42.5 59.769531 C 42.5 62.339844 44.089844 65.0625 47.023438 67.519531 C 48.4375 68.703125 51.242188 71.851562 53.261719 74.515625 C 57.121094 79.613281 60.863281 83.011719 64.328125 84.570312 C 66.769531 85.667969 70.488281 86.222656 71.367188 85.621094 C 72.941406 84.546875 73.585938 72.484375 72.320312 67.75 C 71.953125 66.375 71.152344 64.269531 70.539062 63.070312 C 69.503906 61.046875 69.3125 60.914062 67.875 61.199219 C 65.785156 61.617188 65.726562 61.746094 66.910156 63.253906 C 68.941406 65.828125 69.730469 69.335938 69.710938 75.632812 C 69.695312 79.257812 69.472656 81.726562 69.128906 82.070312 C 67.542969 83.660156 61.019531 79.320312 57.097656 74.066406 C 55.53125 71.972656 52.414062 68.417969 50.175781 66.175781 C 47.621094 63.617188 45.980469 61.542969 45.777344 60.617188 C 45.578125 59.71875 44.960938 58.914062 44.203125 58.570312 C 42.488281 57.789062 42.5 57.777344 42.5 59.769531 M 52 62.058594 C 52 62.234375 52.355469 62.671875 52.792969 63.035156 C 53.226562 63.398438 54.25 64.660156 55.066406 65.847656 C 56.632812 68.121094 57.484375 68.472656 58.492188 67.257812 C 58.988281 66.660156 58.863281 66.101562 57.8125 64.308594 C 56.625 62.285156 56.328125 62.085938 54.257812 61.921875 C 53.015625 61.824219 52 61.886719 52 62.058594 M 34.625 65.355469 C 33.242188 65.617188 33.238281 65.773438 34.574219 68.53125 C 36.378906 72.261719 36.371094 76.429688 34.550781 81.882812 C 32.757812 87.234375 32.589844 90.929688 33.910156 95.953125 C 34.859375 99.574219 36.113281 100.847656 37.238281 99.335938 C 37.722656 98.683594 37.789062 98.035156 37.460938 97.085938 C 36.613281 94.605469 36.15625 89.460938 36.558594 86.917969 C 37.035156 83.898438 38.144531 81.664062 41.273438 77.417969 C 42.554688 75.675781 44.050781 73.375 44.597656 72.304688 L 45.589844 70.363281 L 43.09375 67.867188 L 41.710938 70.695312 C 39.796875 74.601562 39.003906 75.183594 38.984375 72.6875 C 38.96875 70.582031 37.058594 65.382812 36.25 65.234375 C 35.976562 65.183594 35.242188 65.238281 34.625 65.355469 "/>
</g>
</svg>
