<?xml version="1.0" encoding="UTF-8"?>
<svg xmlns="http://www.w3.org/2000/svg" xmlns:xlink="http://www.w3.org/1999/xlink" width="24px" height="24px" viewBox="0 0 24 24" version="1.1">
<g id="surface1">
<path style=" stroke:none;fill-rule:evenodd;fill:rgb(0%,0%,0%);fill-opacity:1;" d="M 1.945312 2.554688 C 1.4375 3.066406 1.199219 3.398438 1.199219 3.601562 C 1.199219 3.832031 2.179688 4.878906 5.546875 8.25 L 9.898438 12.597656 L 8.699219 13.800781 L 7.503906 15 L 4.785156 15 C 2.757812 15 2.039062 15.039062 1.949219 15.148438 C 1.886719 15.234375 1.675781 15.9375 1.488281 16.714844 C 1.230469 17.78125 1.179688 18.179688 1.277344 18.335938 C 1.394531 18.519531 1.75 18.542969 4.742188 18.570312 L 8.078125 18.605469 L 10.042969 16.65625 L 12.003906 14.707031 L 13.953125 16.652344 L 15.902344 18.601562 L 19.164062 18.601562 C 23.261719 18.601562 23.023438 18.742188 22.492188 16.648438 C 22.324219 15.980469 22.132812 15.335938 22.066406 15.21875 C 21.960938 15.015625 21.734375 15 19.222656 15 L 16.496094 15 L 14.105469 12.601562 L 18.453125 8.246094 C 21.847656 4.847656 22.800781 3.828125 22.800781 3.59375 C 22.800781 3.179688 21.414062 1.800781 20.996094 1.800781 C 20.769531 1.800781 19.71875 2.78125 16.351562 6.148438 L 12 10.5 L 7.648438 6.148438 C 4.226562 2.726562 3.234375 1.800781 2.996094 1.800781 C 2.785156 1.800781 2.46875 2.023438 1.945312 2.554688 M 2.8125 3.492188 C 2.761719 3.574219 5.535156 6.4375 9.613281 10.515625 L 16.5 17.398438 L 18.929688 17.398438 C 21.585938 17.398438 21.453125 17.441406 21.234375 16.648438 L 21.109375 16.199219 L 15.898438 16.199219 L 9.480469 9.78125 C 5.949219 6.25 3.023438 3.359375 2.976562 3.359375 C 2.933594 3.359375 2.855469 3.421875 2.8125 3.492188 M 16.921875 7.378906 C 13.71875 10.582031 12.9375 11.425781 13.054688 11.542969 C 13.175781 11.664062 14.019531 10.878906 17.222656 7.675781 C 19.433594 5.46875 21.222656 3.609375 21.203125 3.546875 C 21.183594 3.484375 21.113281 3.417969 21.050781 3.398438 C 20.988281 3.375 19.132812 5.167969 16.921875 7.378906 M 9.410156 14.882812 L 8.078125 16.199219 L 2.890625 16.199219 L 2.765625 16.648438 C 2.546875 17.441406 2.414062 17.398438 5.070312 17.398438 L 7.503906 17.398438 L 9.285156 15.613281 C 10.84375 14.054688 11.21875 13.554688 10.824219 13.5625 C 10.777344 13.5625 10.140625 14.15625 9.410156 14.882812 M 10.980469 18.742188 C 9.734375 19.203125 9.242188 20.316406 9.871094 21.242188 C 10.292969 21.867188 10.941406 22.140625 12 22.140625 C 13.058594 22.140625 13.707031 21.867188 14.128906 21.242188 C 14.675781 20.4375 14.34375 19.410156 13.378906 18.914062 C 12.824219 18.625 11.539062 18.53125 10.980469 18.742188 M 11.28125 20.011719 C 11.050781 20.125 10.859375 20.300781 10.859375 20.398438 C 10.859375 20.617188 11.585938 21 12 21 C 12.414062 21 13.140625 20.617188 13.140625 20.398438 C 13.140625 20.183594 12.414062 19.800781 12 19.800781 C 11.835938 19.800781 11.511719 19.894531 11.28125 20.011719 "/>
</g>
</svg>
