<?xml version="1.0" encoding="UTF-8"?>
<svg xmlns="http://www.w3.org/2000/svg" xmlns:xlink="http://www.w3.org/1999/xlink" width="24px" height="24px" viewBox="0 0 24 24" version="1.1">
<g id="surface1">
<path style=" stroke:none;fill-rule:evenodd;fill:rgb(0%,0%,0%);fill-opacity:1;" d="M 3.445312 1.707031 C 2.976562 1.832031 2.511719 2.226562 1.820312 3.101562 C 1.601562 3.375 1.136719 3.789062 0.78125 4.011719 C -0.164062 4.617188 -0.28125 5.292969 0.605469 5.039062 C 1.195312 4.871094 1.980469 4.890625 2.460938 5.09375 C 3.09375 5.355469 3.105469 5.683594 2.53125 6.933594 C 1.117188 10.007812 0.984375 11.875 2.027344 13.980469 C 2.96875 15.875 5.148438 17.597656 7.691406 18.460938 C 8.296875 18.667969 8.34375 18.714844 8.425781 19.152344 C 8.625 20.253906 8.195312 21.300781 7.4375 21.5625 C 7.207031 21.640625 6.386719 21.710938 5.609375 21.714844 C 4.203125 21.71875 4.199219 21.722656 4.199219 22.007812 C 4.199219 22.164062 4.285156 22.328125 4.390625 22.367188 C 4.683594 22.480469 9.519531 22.449219 9.703125 22.332031 C 9.929688 22.1875 9.824219 21.792969 9.539062 21.738281 C 9.140625 21.664062 9 21.472656 9 21.015625 C 9.003906 20.386719 9.234375 20.019531 9.832031 19.691406 C 10.453125 19.347656 10.84375 19.332031 13.140625 19.539062 C 14.1875 19.632812 15.390625 19.660156 16.335938 19.609375 L 17.851562 19.527344 L 18.859375 20.136719 C 20.355469 21.039062 22.289062 21.945312 23.070312 22.105469 C 24.222656 22.347656 24.164062 22.128906 22.773438 21 C 22.09375 20.453125 21.492188 19.960938 21.4375 19.910156 C 21.378906 19.863281 21.507812 19.832031 21.722656 19.839844 C 22.257812 19.867188 22.300781 19.617188 21.820312 19.324219 L 21.421875 19.078125 L 21.960938 19.144531 C 23.09375 19.28125 23.511719 18.597656 22.753906 17.84375 C 22.324219 17.410156 21.441406 17.058594 20.160156 16.804688 C 19.34375 16.644531 18.367188 16.199219 17.714844 15.691406 C 17.441406 15.480469 16.4375 14.589844 15.480469 13.71875 C 13.308594 11.734375 11.902344 10.609375 9.871094 9.222656 C 7.355469 7.503906 6.773438 6.703125 6.480469 4.550781 C 6.40625 3.996094 6.292969 3.34375 6.230469 3.101562 C 6.089844 2.5625 5.34375 1.863281 4.71875 1.6875 C 4.1875 1.539062 4.058594 1.542969 3.445312 1.707031 "/>
</g>
</svg>
