<?xml version="1.0" encoding="UTF-8"?>
<svg xmlns="http://www.w3.org/2000/svg" xmlns:xlink="http://www.w3.org/1999/xlink" width="100px" height="100px" viewBox="0 0 100 100" version="1.1">
<g id="surface1">
<path style=" stroke:none;fill-rule:evenodd;fill:rgb(0%,0%,0%);fill-opacity:1;" d="M 14.351562 7.105469 C 12.394531 7.625 10.46875 9.28125 7.59375 12.914062 C 6.679688 14.070312 4.730469 15.78125 3.261719 16.722656 C -0.675781 19.238281 -1.164062 22.050781 2.515625 20.996094 C 4.976562 20.289062 8.253906 20.382812 10.25 21.21875 C 12.894531 22.324219 12.945312 23.6875 10.550781 28.894531 C 4.648438 41.703125 4.09375 49.476562 8.453125 58.25 C 12.378906 66.140625 21.449219 73.324219 32.039062 76.925781 C 34.570312 77.785156 34.773438 77.972656 35.101562 79.796875 C 35.929688 84.390625 34.140625 88.757812 30.984375 89.847656 C 30.03125 90.175781 26.605469 90.457031 23.375 90.472656 C 17.519531 90.5 17.5 90.503906 17.5 91.695312 C 17.5 92.355469 17.855469 93.03125 18.289062 93.195312 C 19.515625 93.664062 39.664062 93.539062 40.425781 93.058594 C 41.382812 92.449219 40.925781 90.796875 39.746094 90.578125 C 38.09375 90.269531 37.5 89.46875 37.507812 87.5625 C 37.519531 84.949219 38.476562 83.421875 40.960938 82.050781 C 43.554688 80.617188 45.1875 80.542969 54.75 81.410156 C 59.121094 81.808594 64.125 81.917969 68.070312 81.707031 L 74.386719 81.363281 L 78.582031 83.898438 C 84.808594 87.660156 92.867188 91.429688 96.121094 92.109375 C 100.933594 93.109375 100.691406 92.199219 94.890625 87.503906 C 92.0625 85.214844 89.554688 83.171875 89.320312 82.964844 C 89.085938 82.761719 89.621094 82.625 90.515625 82.671875 C 92.734375 82.777344 92.925781 81.746094 90.910156 80.511719 L 89.25 79.496094 L 91.5 79.769531 C 96.21875 80.339844 97.960938 77.496094 94.816406 74.347656 C 93.011719 72.546875 89.332031 71.074219 84 70.023438 C 80.59375 69.351562 76.539062 67.503906 73.816406 65.382812 C 72.679688 64.496094 68.488281 60.792969 64.5 57.15625 C 55.449219 48.898438 49.589844 44.199219 41.132812 38.425781 C 30.644531 31.265625 28.226562 27.929688 27.003906 18.960938 C 26.691406 16.644531 26.21875 13.929688 25.960938 12.929688 C 25.378906 10.671875 22.265625 7.757812 19.660156 7.035156 C 17.441406 6.421875 16.914062 6.425781 14.351562 7.105469 "/>
</g>
</svg>
