<?xml version="1.0" encoding="UTF-8"?>
<svg xmlns="http://www.w3.org/2000/svg" xmlns:xlink="http://www.w3.org/1999/xlink" width="24px" height="24px" viewBox="0 0 24 24" version="1.1">
<g id="surface1">
<path style=" stroke:none;fill-rule:evenodd;fill:rgb(0%,0%,0%);fill-opacity:1;" d="M 8.578125 0.0742188 C 6.625 0.546875 5.011719 1.484375 3.347656 3.121094 C 0.992188 5.433594 -0.136719 7.796875 0.0273438 10.078125 C 0.140625 11.632812 0.640625 12.289062 3.992188 15.261719 C 11.25 21.707031 18.566406 25.125 21.925781 23.640625 C 26.410156 21.664062 23.378906 13.078125 14.816406 3.5 C 12.085938 0.441406 11.589844 0.0976562 9.839844 0.046875 C 9.277344 0.0273438 8.710938 0.0390625 8.578125 0.0742188 M 9.046875 1.082031 C 7.367188 1.324219 5.710938 2.222656 4.097656 3.773438 C -0.03125 7.734375 0.0273438 12.789062 4.199219 12.441406 C 7.195312 12.195312 10.914062 9.03125 12.09375 5.730469 C 12.332031 5.0625 12.40625 4.621094 12.414062 3.832031 C 12.417969 2.890625 12.390625 2.75 12.058594 2.21875 C 11.480469 1.28125 10.425781 0.882812 9.046875 1.082031 M 13.503906 4.230469 C 13.351562 5.265625 13.160156 5.957031 12.824219 6.707031 C 12.636719 7.128906 12.480469 7.511719 12.480469 7.5625 C 12.480469 7.609375 12.980469 8.058594 13.59375 8.554688 C 15.65625 10.234375 18.601562 13.496094 18.601562 14.109375 C 18.601562 14.3125 18.265625 14.640625 18.054688 14.640625 C 17.964844 14.640625 17.582031 14.222656 17.207031 13.710938 C 16.328125 12.515625 14.40625 10.550781 12.976562 9.382812 L 11.855469 8.46875 L 11.601562 8.824219 C 11.082031 9.558594 9.40625 11.179688 8.570312 11.757812 C 7.144531 12.742188 6.035156 13.191406 4.199219 13.523438 L 3.660156 13.621094 L 4.964844 14.761719 C 8.53125 17.871094 12.535156 20.554688 15.414062 21.761719 C 16.972656 22.414062 17.039062 22.398438 16.046875 21.609375 C 13.363281 19.480469 10.558594 16.800781 10.558594 16.363281 C 10.558594 16.066406 10.871094 15.839844 11.160156 15.929688 C 11.257812 15.960938 11.90625 16.539062 12.601562 17.214844 C 14.511719 19.082031 16.410156 20.667969 18.488281 22.140625 C 19.558594 22.898438 19.613281 22.917969 20.324219 22.917969 C 21.5625 22.914062 22.464844 22.320312 22.804688 21.285156 C 23.058594 20.515625 22.890625 18.605469 22.445312 17.21875 C 21.636719 14.703125 19.765625 11.363281 17.421875 8.25 C 16.308594 6.769531 13.949219 3.945312 13.695312 3.789062 C 13.632812 3.75 13.546875 3.949219 13.503906 4.230469 M 8.09375 4.132812 C 7.679688 4.546875 7.71875 5.082031 8.167969 5.136719 C 8.589844 5.183594 9.144531 4.628906 9.097656 4.207031 C 9.042969 3.761719 8.507812 3.722656 8.09375 4.132812 M 4.636719 5.648438 C 4.273438 5.933594 4.195312 6.558594 4.507812 6.679688 C 4.96875 6.855469 5.734375 6.121094 5.582031 5.644531 C 5.480469 5.324219 5.046875 5.324219 4.636719 5.648438 M 7.296875 7.3125 C 6.917969 7.609375 6.816406 7.960938 7.019531 8.242188 C 7.226562 8.523438 7.738281 8.351562 8.085938 7.886719 C 8.535156 7.28125 7.914062 6.828125 7.296875 7.3125 M 3.773438 9.175781 C 3.363281 9.585938 3.402344 10.125 3.847656 10.175781 C 4.285156 10.226562 4.828125 9.699219 4.777344 9.269531 C 4.722656 8.800781 4.199219 8.75 3.773438 9.175781 "/>
</g>
</svg>
