<?xml version="1.0" encoding="UTF-8"?>
<svg xmlns="http://www.w3.org/2000/svg" xmlns:xlink="http://www.w3.org/1999/xlink" width="100px" height="100px" viewBox="0 0 100 100" version="1.1">
<g id="surface1">
<path style=" stroke:none;fill-rule:evenodd;fill:rgb(0%,0%,0%);fill-opacity:1;" d="M 35.75 0.300781 C 27.601562 2.273438 20.875 6.191406 13.945312 13 C 4.136719 22.636719 -0.5625 32.492188 0.113281 41.988281 C 0.578125 48.46875 2.667969 51.199219 16.632812 63.597656 C 46.878906 90.441406 77.363281 104.679688 91.359375 98.503906 C 110.035156 90.265625 97.410156 54.488281 61.738281 14.578125 C 50.359375 1.84375 48.289062 0.410156 41 0.1875 C 38.664062 0.117188 36.300781 0.167969 35.75 0.300781 M 37.699219 4.507812 C 30.699219 5.511719 23.789062 9.265625 17.070312 15.71875 C -0.128906 32.230469 0.121094 53.289062 17.5 51.84375 C 29.988281 50.808594 45.480469 37.636719 50.390625 23.882812 C 51.386719 21.09375 51.695312 19.253906 51.71875 15.960938 C 51.746094 12.039062 51.621094 11.464844 50.246094 9.238281 C 47.839844 5.34375 43.4375 3.683594 37.699219 4.507812 M 56.269531 17.621094 C 55.628906 21.933594 54.832031 24.828125 53.433594 27.945312 C 52.644531 29.699219 52 31.304688 52 31.507812 C 52 31.710938 54.085938 33.574219 56.636719 35.644531 C 65.242188 42.636719 77.5 56.238281 77.5 58.792969 C 77.5 59.640625 76.101562 61 75.234375 61 C 74.851562 61 73.257812 59.257812 71.691406 57.125 C 68.03125 52.140625 60.03125 43.960938 54.070312 39.101562 L 49.390625 35.289062 L 48.34375 36.769531 C 46.179688 39.828125 39.199219 46.582031 35.703125 49 C 29.773438 53.101562 25.152344 54.964844 17.5 56.347656 L 15.253906 56.753906 L 20.691406 61.503906 C 35.546875 74.472656 52.222656 85.644531 64.21875 90.667969 C 70.726562 93.390625 71.003906 93.324219 66.863281 90.042969 C 55.671875 81.171875 44 70.007812 44 68.179688 C 44 66.933594 45.304688 65.992188 46.5 66.375 C 46.914062 66.503906 49.613281 68.917969 52.5 71.734375 C 60.460938 79.503906 68.375 86.117188 77.039062 92.253906 C 81.492188 95.402344 81.722656 95.5 84.691406 95.488281 C 89.847656 95.46875 93.597656 93.003906 95.019531 88.691406 C 96.078125 85.480469 95.375 77.523438 93.523438 71.75 C 90.15625 61.269531 82.359375 47.339844 72.597656 34.371094 C 67.953125 28.203125 58.121094 16.441406 57.058594 15.785156 C 56.800781 15.625 56.445312 16.453125 56.269531 17.621094 M 33.726562 17.226562 C 32.007812 18.949219 32.167969 21.183594 34.03125 21.398438 C 35.785156 21.601562 38.101562 19.285156 37.898438 17.53125 C 37.683594 15.667969 35.449219 15.507812 33.726562 17.226562 M 19.316406 23.535156 C 17.808594 24.722656 17.480469 27.332031 18.78125 27.832031 C 20.703125 28.570312 23.886719 25.507812 23.257812 23.523438 C 22.832031 22.1875 21.027344 22.191406 19.316406 23.535156 M 30.40625 30.464844 C 28.828125 31.707031 28.394531 33.164062 29.253906 34.339844 C 30.113281 35.511719 32.238281 34.800781 33.683594 32.855469 C 35.558594 30.339844 32.96875 28.449219 30.40625 30.464844 M 15.726562 38.226562 C 14.007812 39.945312 14.167969 42.183594 16.027344 42.398438 C 17.859375 42.613281 20.113281 40.414062 19.90625 38.617188 C 19.683594 36.667969 17.492188 36.464844 15.726562 38.226562 "/>
</g>
</svg>
