<?xml version="1.0" encoding="UTF-8"?>
<svg xmlns="http://www.w3.org/2000/svg" xmlns:xlink="http://www.w3.org/1999/xlink" width="100px" height="100px" viewBox="0 0 100 100" version="1.1">
<g id="surface1">
<path style=" stroke:none;fill-rule:evenodd;fill:rgb(0%,0%,0%);fill-opacity:1;" d="M 45 26.539062 C 40.753906 27.253906 35.316406 30.171875 32.0625 33.476562 C 24.550781 41.105469 22.875 52.382812 27.808594 62.121094 C 29.617188 65.683594 34.550781 70.46875 38.390625 72.375 C 53.289062 79.777344 70.960938 70.640625 73.503906 54.21875 C 75.285156 42.683594 68.308594 31.246094 57.25 27.585938 C 53.515625 26.347656 48.601562 25.929688 45 26.539062 M 42.742188 29.898438 C 36.902344 31.917969 32.246094 36.023438 29.710938 41.378906 C 23.59375 54.3125 31.566406 69.433594 45.914062 72.101562 C 55.015625 73.796875 65.007812 68.4375 69.117188 59.660156 C 71.953125 53.59375 71.570312 45.460938 68.171875 39.660156 C 65.503906 35.105469 60.949219 31.507812 55.832031 29.910156 C 52.078125 28.742188 46.109375 28.734375 42.742188 29.898438 M 47.5 45.5 L 47.5 52.5 L 61.5 52.5 L 61.5 50 L 50 50 L 50 38.5 L 47.5 38.5 L 47.5 45.5 "/>
</g>
</svg>
