<?xml version="1.0" encoding="UTF-8"?>
<svg xmlns="http://www.w3.org/2000/svg" xmlns:xlink="http://www.w3.org/1999/xlink" width="24px" height="24px" viewBox="0 0 24 24" version="1.1">
<g id="surface1">
<path style=" stroke:none;fill-rule:evenodd;fill:rgb(0%,0%,0%);fill-opacity:1;" d="M 10.800781 6.367188 C 9.78125 6.542969 8.476562 7.242188 7.695312 8.035156 C 5.890625 9.867188 5.488281 12.570312 6.675781 14.910156 C 7.109375 15.765625 8.292969 16.910156 9.214844 17.371094 C 12.789062 19.148438 17.03125 16.953125 17.640625 13.011719 C 18.070312 10.242188 16.394531 7.5 13.738281 6.621094 C 12.84375 6.324219 11.664062 6.222656 10.800781 6.367188 M 10.257812 7.175781 C 8.855469 7.660156 7.738281 8.644531 7.128906 9.929688 C 5.660156 13.035156 7.578125 16.664062 11.019531 17.304688 C 13.203125 17.710938 15.601562 16.425781 16.585938 14.316406 C 17.269531 12.863281 17.175781 10.910156 16.359375 9.519531 C 15.71875 8.425781 14.628906 7.5625 13.398438 7.179688 C 12.5 6.898438 11.066406 6.894531 10.257812 7.175781 M 11.398438 10.921875 L 11.398438 12.601562 L 14.761719 12.601562 L 14.761719 12 L 12 12 L 12 9.238281 L 11.398438 9.238281 L 11.398438 10.921875 "/>
</g>
</svg>
