<?xml version="1.0" encoding="UTF-8"?>
<svg xmlns="http://www.w3.org/2000/svg" xmlns:xlink="http://www.w3.org/1999/xlink" width="100px" height="100px" viewBox="0 0 100 100" version="1.1">
<g id="surface1">
<path style=" stroke:none;fill-rule:evenodd;fill:rgb(0%,0%,0%);fill-opacity:1;" d="M 66.660156 8.21875 C 65.511719 8.578125 63.78125 9.363281 62.808594 9.964844 C 60.191406 11.582031 54.914062 17.503906 53.132812 20.820312 C 51.585938 23.699219 51.574219 23.710938 51.269531 22.238281 C 49.746094 14.871094 48.175781 11.5 46.261719 11.5 C 44.535156 11.5 44.394531 12.703125 45.796875 15.40625 C 47.296875 18.300781 48.457031 24.355469 48.484375 29.429688 C 48.5 32.75 48.414062 33.070312 47.625 32.722656 C 45.726562 31.886719 35.769531 31.875 32.460938 32.703125 C 20.796875 35.632812 11.371094 45.402344 8.722656 57.308594 C 7.585938 62.40625 7.929688 70.386719 9.476562 75 C 12.785156 84.855469 20.972656 93.050781 30.5 96.046875 C 35.085938 97.492188 41.867188 97.816406 46.175781 96.796875 C 49.339844 96.050781 49.914062 96.054688 53.660156 96.8125 C 73.03125 100.738281 90.964844 86.394531 91.867188 66.25 C 92.308594 56.417969 89.21875 48.21875 82.511719 41.453125 C 76.058594 34.9375 69.0625 32 60.007812 32 C 57.386719 32 54.511719 32.210938 53.621094 32.464844 C 52.117188 32.898438 52 32.84375 52 31.742188 C 52 29.246094 57.25 27.386719 67.441406 26.28125 C 76 25.351562 78.324219 24.296875 83.5 19.007812 C 85.5625 16.902344 87.761719 14.242188 88.382812 13.097656 L 89.519531 11.019531 L 87.632812 10.226562 C 81.722656 7.742188 71.367188 6.75 66.660156 8.21875 M 68.476562 11.179688 C 67.222656 11.519531 65.371094 12.308594 64.359375 12.933594 C 61.839844 14.492188 57.898438 19.015625 56.0625 22.460938 L 54.542969 25.3125 L 57.898438 24.460938 C 59.742188 23.992188 63.8125 23.375 66.9375 23.09375 C 74.171875 22.4375 77.597656 20.898438 81.703125 16.460938 C 83.242188 14.800781 84.5 13.238281 84.5 12.992188 C 84.5 12.140625 76.542969 10.476562 72.75 10.535156 C 71.648438 10.554688 69.726562 10.84375 68.476562 11.179688 M 34.25 35.582031 C 30.476562 36.289062 23.957031 39.65625 20.839844 42.503906 C 17.160156 45.867188 14.632812 49.792969 12.804688 54.976562 C 9.207031 65.183594 11.8125 77.5 19.183594 85.152344 C 24.929688 91.113281 31.6875 94.042969 39.796875 94.089844 C 42.609375 94.105469 45.425781 93.800781 47.171875 93.292969 C 49.792969 92.53125 50.207031 92.53125 52.816406 93.289062 C 56.5 94.359375 63.570312 94.339844 67.359375 93.246094 C 83.089844 88.703125 92.085938 72.429688 87.671875 56.5 C 85.792969 49.71875 80.4375 42.535156 74.808594 39.253906 C 68.75 35.71875 61.507812 34.320312 55.3125 35.488281 C 52.164062 36.082031 52 36.183594 52 37.515625 C 52 39.671875 51.503906 40.5 50.207031 40.5 C 49.039062 40.5 48.820312 40.113281 48.386719 37.253906 C 48.105469 35.390625 40.226562 34.457031 34.25 35.582031 M 27.5 55.210938 C 27.5 56.613281 29.738281 59.5 30.824219 59.5 C 31.410156 59.5 31.496094 59.945312 31.238281 61.652344 C 30.988281 63.332031 31.097656 63.960938 31.75 64.5 C 32.957031 65.503906 34.183594 64.542969 34.546875 62.316406 C 34.710938 61.308594 35.003906 60.332031 35.195312 60.136719 C 35.933594 59.398438 37.261719 60.933594 37.5 62.800781 C 37.714844 64.480469 37.921875 64.75 39 64.75 C 40.089844 64.75 40.269531 64.503906 40.410156 62.808594 C 40.753906 58.585938 38.71875 56.644531 34.53125 57.199219 C 31.578125 57.589844 30.246094 57.042969 29.796875 55.261719 C 29.367188 53.539062 27.5 53.496094 27.5 55.210938 M 70.089844 55.453125 C 69.449219 57.296875 67.976562 57.773438 66.03125 56.765625 C 61.386719 54.363281 57.246094 61.242188 60.792969 65.460938 C 63.996094 69.269531 69.96875 65.5625 68.664062 60.574219 C 68.46875 59.820312 68.613281 59.5 69.148438 59.5 C 70.253906 59.5 72.5 56.628906 72.5 55.210938 C 72.5 53.417969 70.738281 53.59375 70.089844 55.453125 M 47.828125 75.914062 C 45.960938 77.976562 47.28125 81.167969 50 81.167969 C 51.886719 81.167969 53 79.984375 53 77.980469 C 53 75.359375 49.570312 73.988281 47.828125 75.914062 "/>
</g>
</svg>
