<?xml version="1.0" encoding="UTF-8"?>
<svg xmlns="http://www.w3.org/2000/svg" xmlns:xlink="http://www.w3.org/1999/xlink" width="100px" height="100px" viewBox="0 0 100 100" version="1.1">
<g id="surface1">
<path style=" stroke:none;fill-rule:evenodd;fill:rgb(0%,0%,0%);fill-opacity:1;" d="M 75 0.941406 C 65.457031 4.027344 58.222656 11.75 53.859375 23.5 C 52.449219 27.300781 50.769531 33.9375 51.128906 34.296875 C 51.375 34.542969 54.683594 30.472656 62.347656 20.5 C 64.566406 17.613281 67.328125 14.238281 68.480469 13 L 70.582031 10.75 L 68.414062 13.425781 C 64.5 18.265625 52.09375 34.746094 52.246094 34.90625 C 52.605469 35.28125 62.148438 30.101562 66.230469 27.3125 C 72.628906 22.9375 77.003906 18.394531 79.316406 13.710938 C 80.964844 10.375 81.210938 9.421875 81.21875 6.316406 C 81.234375 1.261719 80.8125 -0.0078125 79.117188 0.0273438 C 78.363281 0.0429688 76.511719 0.453125 75 0.941406 M 73.234375 7.625 L 70.25 10.75 L 73.375 7.765625 C 76.277344 4.992188 76.730469 4.5 76.359375 4.5 C 76.28125 4.5 74.875 5.90625 73.234375 7.625 M 31.171875 33.492188 C 24.246094 34.957031 18.273438 41.878906 14.992188 52.25 C 13.308594 57.5625 13.046875 67.304688 14.425781 73.082031 C 16.996094 83.835938 22.933594 91.628906 31.75 95.808594 C 35.46875 97.574219 41.589844 98.804688 44.125 98.300781 C 45.078125 98.109375 46.398438 98.351562 47.804688 98.972656 C 49.976562 99.933594 50.023438 99.933594 52.195312 98.972656 C 53.601562 98.351562 54.921875 98.109375 55.875 98.300781 C 58.722656 98.871094 64.539062 97.59375 68.941406 95.4375 C 77.402344 91.292969 83.261719 83.230469 85.789062 72.25 C 86.785156 67.929688 86.527344 57.75 85.304688 53.25 C 83.984375 48.371094 80.265625 41.335938 77.507812 38.507812 C 71.675781 32.519531 64.601562 31.636719 54.417969 35.625 C 49.988281 37.355469 50.265625 37.378906 43.25 34.824219 C 39.308594 33.394531 34.273438 32.835938 31.171875 33.492188 M 29.738281 35.402344 C 25.019531 37.03125 21.402344 40.671875 18.542969 46.664062 C 15.695312 52.625 14.773438 57.015625 14.789062 64.5 C 14.804688 70.785156 14.917969 71.574219 16.425781 75.972656 C 21.109375 89.621094 30.039062 96.816406 42.890625 97.304688 C 46.074219 97.425781 48.039062 97.738281 48.824219 98.253906 C 49.878906 98.945312 50.117188 98.945312 51.167969 98.257812 C 51.945312 97.75 53.996094 97.421875 57.292969 97.277344 C 62.535156 97.050781 66.472656 95.992188 70.210938 93.796875 C 79.941406 88.085938 86.210938 74.796875 85.328125 61.75 C 84.554688 50.292969 79.046875 39.554688 72.242188 36.222656 C 67.203125 33.757812 62.15625 34.109375 53.125 37.558594 L 50 38.75 L 46.875 37.554688 C 38.800781 34.472656 34.125 33.882812 29.738281 35.402344 M 30.976562 35.65625 C 29.722656 36.007812 27.875 36.804688 26.863281 37.429688 C 19.1875 42.171875 13.851562 56.953125 15.488281 68.925781 C 16.640625 77.332031 19.574219 83.539062 25.003906 89.054688 C 30.019531 94.148438 35.566406 96.5 42.574219 96.5 C 45.191406 96.5 47.042969 96.777344 48.234375 97.34375 C 49.890625 98.132812 50.109375 98.132812 51.765625 97.34375 C 52.960938 96.773438 54.8125 96.5 57.464844 96.5 C 71.335938 96.5 82.257812 85.3125 84.535156 68.773438 C 85.851562 59.214844 82.460938 46.957031 76.742188 40.597656 C 71.871094 35.179688 65.378906 33.867188 57.5 36.707031 C 49.515625 39.585938 50.523438 39.578125 42.75 36.816406 C 38.34375 35.246094 33.964844 34.816406 30.976562 35.65625 M 46.75 46.921875 C 39.660156 51.261719 35.792969 63.414062 38.929688 71.5 C 40.261719 74.929688 44.242188 80.273438 47.5 83 L 49.972656 85.070312 L 52.019531 83.425781 C 53.144531 82.519531 55.179688 80.425781 56.546875 78.765625 C 61.203125 73.109375 62.910156 67.945312 62 62.25 C 61.101562 56.628906 59.507812 53.074219 56.359375 49.65625 C 52.921875 45.925781 49.820312 45.042969 46.75 46.921875 "/>
</g>
</svg>
