<?xml version="1.0" encoding="UTF-8"?>
<svg xmlns="http://www.w3.org/2000/svg" xmlns:xlink="http://www.w3.org/1999/xlink" width="24px" height="24px" viewBox="0 0 24 24" version="1.1">
<g id="surface1">
<path style=" stroke:none;fill-rule:evenodd;fill:rgb(0%,0%,0%);fill-opacity:1;" d="M 16 1.972656 C 15.722656 2.058594 15.308594 2.246094 15.074219 2.390625 C 14.445312 2.78125 13.179688 4.199219 12.753906 4.996094 C 12.382812 5.6875 12.378906 5.691406 12.304688 5.335938 C 11.9375 3.570312 11.5625 2.761719 11.101562 2.761719 C 10.6875 2.761719 10.65625 3.046875 10.992188 3.699219 C 11.351562 4.390625 11.628906 5.84375 11.636719 7.0625 C 11.640625 7.859375 11.621094 7.9375 11.429688 7.851562 C 10.972656 7.652344 8.585938 7.648438 7.789062 7.847656 C 4.992188 8.550781 2.730469 10.898438 2.09375 13.753906 C 1.820312 14.976562 1.902344 16.894531 2.273438 18 C 3.066406 20.363281 5.035156 22.332031 7.320312 23.050781 C 8.421875 23.398438 10.046875 23.476562 11.082031 23.230469 C 11.839844 23.050781 11.980469 23.054688 12.878906 23.234375 C 17.527344 24.175781 21.832031 20.734375 22.046875 15.898438 C 22.15625 13.539062 21.414062 11.574219 19.804688 9.949219 C 18.253906 8.386719 16.574219 7.679688 14.402344 7.679688 C 13.773438 7.679688 13.082031 7.730469 12.871094 7.792969 C 12.507812 7.894531 12.480469 7.882812 12.480469 7.617188 C 12.480469 7.019531 13.742188 6.574219 16.1875 6.308594 C 18.238281 6.085938 18.796875 5.832031 20.039062 4.5625 C 20.535156 4.054688 21.0625 3.417969 21.210938 3.144531 L 21.484375 2.644531 L 21.03125 2.453125 C 19.613281 1.859375 17.128906 1.621094 16 1.972656 M 16.433594 2.683594 C 16.132812 2.765625 15.6875 2.953125 15.445312 3.105469 C 14.839844 3.476562 13.894531 4.5625 13.453125 5.390625 L 13.089844 6.074219 L 13.894531 5.871094 C 14.339844 5.757812 15.316406 5.609375 16.066406 5.542969 C 17.800781 5.386719 18.625 5.015625 19.609375 3.949219 C 19.976562 3.550781 20.28125 3.175781 20.28125 3.117188 C 20.28125 2.914062 18.371094 2.515625 17.460938 2.527344 C 17.195312 2.53125 16.734375 2.601562 16.433594 2.683594 M 8.21875 8.539062 C 7.316406 8.710938 5.75 9.519531 5.003906 10.199219 C 4.117188 11.007812 3.511719 11.949219 3.074219 13.195312 C 2.210938 15.644531 2.835938 18.601562 4.605469 20.4375 C 5.984375 21.867188 7.605469 22.570312 9.550781 22.582031 C 10.226562 22.585938 10.902344 22.511719 11.320312 22.390625 C 11.949219 22.207031 12.050781 22.207031 12.675781 22.390625 C 13.558594 22.648438 15.257812 22.640625 16.164062 22.378906 C 19.941406 21.289062 22.101562 17.382812 21.042969 13.558594 C 20.589844 11.933594 19.304688 10.207031 17.953125 9.421875 C 16.5 8.570312 14.761719 8.238281 13.273438 8.515625 C 12.519531 8.660156 12.480469 8.683594 12.480469 9.003906 C 12.480469 9.523438 12.359375 9.71875 12.050781 9.71875 C 11.769531 9.71875 11.71875 9.625 11.613281 8.941406 C 11.546875 8.492188 9.652344 8.269531 8.21875 8.539062 M 6.601562 13.25 C 6.601562 13.585938 7.136719 14.28125 7.398438 14.28125 C 7.539062 14.28125 7.558594 14.386719 7.496094 14.796875 C 7.4375 15.199219 7.464844 15.351562 7.621094 15.480469 C 7.910156 15.71875 8.203125 15.492188 8.292969 14.957031 C 8.332031 14.714844 8.402344 14.480469 8.445312 14.433594 C 8.625 14.257812 8.941406 14.625 9 15.070312 C 9.050781 15.476562 9.101562 15.539062 9.359375 15.539062 C 9.621094 15.539062 9.664062 15.480469 9.699219 15.074219 C 9.78125 14.058594 9.292969 13.59375 8.285156 13.726562 C 7.578125 13.820312 7.257812 13.691406 7.152344 13.261719 C 7.046875 12.847656 6.601562 12.839844 6.601562 13.25 M 16.820312 13.308594 C 16.667969 13.75 16.316406 13.867188 15.847656 13.625 C 14.734375 13.046875 13.738281 14.699219 14.589844 15.710938 C 15.359375 16.625 16.792969 15.734375 16.480469 14.539062 C 16.433594 14.355469 16.46875 14.28125 16.59375 14.28125 C 16.859375 14.28125 17.398438 13.589844 17.398438 13.25 C 17.398438 12.820312 16.976562 12.863281 16.820312 13.308594 M 11.480469 18.21875 C 11.03125 18.714844 11.347656 19.480469 12 19.480469 C 12.453125 19.480469 12.71875 19.195312 12.71875 18.714844 C 12.71875 18.085938 11.898438 17.757812 11.480469 18.21875 "/>
</g>
</svg>
