<?xml version="1.0" encoding="UTF-8"?>
<svg xmlns="http://www.w3.org/2000/svg" xmlns:xlink="http://www.w3.org/1999/xlink" width="24px" height="24px" viewBox="0 0 24 24" version="1.1">
<g id="surface1">
<path style=" stroke:none;fill-rule:evenodd;fill:rgb(0%,0%,0%);fill-opacity:1;" d="M 18 0.226562 C 15.710938 0.964844 13.972656 2.820312 12.925781 5.640625 C 12.589844 6.550781 12.183594 8.144531 12.269531 8.230469 C 12.332031 8.289062 13.125 7.3125 14.964844 4.921875 C 15.496094 4.226562 16.160156 3.417969 16.4375 3.121094 L 16.941406 2.578125 L 16.417969 3.222656 C 15.480469 4.382812 12.503906 8.339844 12.539062 8.378906 C 12.625 8.46875 14.914062 7.222656 15.894531 6.554688 C 17.429688 5.503906 18.480469 4.414062 19.035156 3.289062 C 19.433594 2.488281 19.492188 2.261719 19.492188 1.515625 C 19.496094 0.300781 19.394531 0 18.988281 0.0078125 C 18.808594 0.0117188 18.363281 0.109375 18 0.226562 M 17.578125 1.828125 L 16.859375 2.578125 L 17.609375 1.863281 C 18.308594 1.199219 18.414062 1.078125 18.328125 1.078125 C 18.308594 1.078125 17.96875 1.417969 17.578125 1.828125 M 7.480469 8.039062 C 5.820312 8.390625 4.386719 10.050781 3.597656 12.539062 C 3.195312 13.816406 3.128906 16.152344 3.460938 17.539062 C 4.078125 20.121094 5.503906 21.992188 7.621094 22.996094 C 8.511719 23.417969 9.980469 23.714844 10.589844 23.59375 C 10.820312 23.546875 11.136719 23.605469 11.472656 23.753906 C 11.996094 23.984375 12.003906 23.984375 12.527344 23.753906 C 12.863281 23.605469 13.179688 23.546875 13.410156 23.59375 C 14.09375 23.730469 15.488281 23.421875 16.546875 22.90625 C 18.578125 21.910156 19.984375 19.976562 20.589844 17.339844 C 20.828125 16.304688 20.765625 13.859375 20.472656 12.78125 C 20.15625 11.609375 19.261719 9.921875 18.601562 9.242188 C 17.203125 7.804688 15.503906 7.59375 13.058594 8.550781 C 11.996094 8.964844 12.0625 8.96875 10.378906 8.359375 C 9.433594 8.015625 8.226562 7.882812 7.480469 8.039062 M 7.136719 8.496094 C 6.003906 8.886719 5.136719 9.761719 4.449219 11.199219 C 3.765625 12.628906 3.546875 13.683594 3.550781 15.480469 C 3.554688 16.988281 3.578125 17.179688 3.941406 18.234375 C 5.066406 21.507812 7.210938 23.234375 10.292969 23.351562 C 11.058594 23.382812 11.53125 23.457031 11.71875 23.582031 C 11.972656 23.746094 12.027344 23.746094 12.28125 23.582031 C 12.464844 23.460938 12.960938 23.382812 13.75 23.347656 C 15.007812 23.292969 15.953125 23.039062 16.851562 22.511719 C 19.1875 21.140625 20.691406 17.949219 20.480469 14.820312 C 20.292969 12.070312 18.972656 9.492188 17.335938 8.695312 C 16.128906 8.101562 14.917969 8.1875 12.75 9.015625 L 12 9.300781 L 11.25 9.011719 C 9.3125 8.273438 8.191406 8.132812 7.136719 8.496094 M 7.433594 8.558594 C 7.132812 8.640625 6.691406 8.832031 6.449219 8.984375 C 4.605469 10.121094 3.324219 13.667969 3.71875 16.542969 C 3.992188 18.558594 4.699219 20.050781 6 21.375 C 7.203125 22.597656 8.535156 23.160156 10.21875 23.160156 C 10.847656 23.160156 11.289062 23.226562 11.574219 23.363281 C 11.972656 23.550781 12.027344 23.550781 12.425781 23.363281 C 12.710938 23.226562 13.15625 23.160156 13.792969 23.160156 C 17.121094 23.160156 19.742188 20.476562 20.289062 16.503906 C 20.605469 14.210938 19.789062 11.269531 18.417969 9.742188 C 17.25 8.441406 15.691406 8.128906 13.800781 8.808594 C 11.882812 9.5 12.125 9.5 10.261719 8.835938 C 9.203125 8.460938 8.152344 8.355469 7.433594 8.558594 M 11.21875 11.261719 C 9.519531 12.304688 8.589844 15.21875 9.34375 17.160156 C 9.664062 17.984375 10.617188 19.265625 11.398438 19.917969 L 11.992188 20.417969 L 12.484375 20.023438 C 12.753906 19.804688 13.242188 19.300781 13.570312 18.902344 C 14.6875 17.546875 15.097656 16.304688 14.878906 14.941406 C 14.664062 13.589844 14.28125 12.738281 13.527344 11.917969 C 12.699219 11.023438 11.957031 10.808594 11.21875 11.261719 "/>
</g>
</svg>
