<?xml version="1.0" encoding="UTF-8"?>
<svg xmlns="http://www.w3.org/2000/svg" xmlns:xlink="http://www.w3.org/1999/xlink" width="100px" height="100px" viewBox="0 0 100 100" version="1.1">
<g id="surface1">
<path style=" stroke:none;fill-rule:evenodd;fill:rgb(0%,0%,0%);fill-opacity:1;" d="M 36.773438 16.464844 C 36.613281 16.71875 37.472656 18.351562 38.679688 20.089844 C 39.882812 21.828125 41.21875 23.933594 41.644531 24.769531 L 42.414062 26.289062 L 39.574219 24.878906 C 34.601562 22.414062 27.121094 21.089844 26.238281 22.519531 C 26.0625 22.804688 27.960938 25.175781 30.460938 27.789062 C 32.957031 30.402344 35 32.726562 35 32.957031 C 35 33.183594 33.957031 33.394531 32.679688 33.421875 C 25.160156 33.570312 19 39.367188 18.058594 47.179688 L 17.6875 50.25 L 12.828125 45.355469 C 10.15625 42.660156 7.753906 40.59375 7.484375 40.757812 C 6.066406 41.636719 7.449219 49.960938 9.78125 54.558594 L 11.070312 57.101562 L 9.074219 55.984375 C 7.980469 55.367188 5.933594 53.992188 4.53125 52.929688 C 3.128906 51.867188 1.757812 51 1.488281 51 C -1.660156 51 11 65 18.902344 70.253906 C 30.789062 78.160156 40.574219 74.664062 45.175781 60.875 C 45.335938 60.394531 45.871094 59.996094 46.359375 59.996094 C 46.847656 59.992188 48.453125 59.429688 49.925781 58.746094 C 51.394531 58.058594 52.660156 57.5 52.738281 57.5 C 52.816406 57.5 52.558594 59.015625 52.171875 60.871094 C 51.054688 66.203125 49.945312 74.136719 50.21875 74.847656 C 50.40625 75.335938 52.085938 75.5 56.929688 75.5 C 81.203125 75.5 94.140625 69.679688 94.117188 58.773438 C 94.109375 54.988281 92.707031 50.933594 90 46.882812 L 87.933594 43.785156 L 89.339844 42.808594 C 91.457031 41.339844 95.898438 36.613281 96.269531 35.433594 C 96.453125 34.863281 96.335938 34.140625 96.015625 33.824219 C 95.570312 33.390625 95.191406 33.554688 94.457031 34.5 C 91.578125 38.207031 90.449219 39.398438 88.578125 40.695312 L 86.515625 42.125 L 83.402344 39.242188 C 77.121094 33.425781 70.554688 31.898438 65.152344 35 C 63.722656 35.820312 61.765625 37.519531 60.808594 38.777344 L 59.058594 41.066406 L 57.722656 38.234375 C 55.617188 33.792969 51.023438 28.101562 44.449219 21.800781 C 38.683594 16.277344 37.425781 15.40625 36.773438 16.464844 M 32.824219 27.125 C 39.304688 34.007812 43.429688 43.328125 45.332031 55.394531 L 45.75 58.039062 L 48.480469 56.394531 C 49.984375 55.488281 51.894531 53.773438 52.730469 52.582031 C 56.039062 47.859375 54.140625 40.394531 47.945312 33.773438 C 43.261719 28.761719 35.785156 24.5 31.691406 24.5 C 30.386719 24.5 30.414062 24.5625 32.824219 27.125 M 44.726562 26.171875 C 45.144531 27.226562 47.019531 29.734375 48.894531 31.742188 C 52.480469 35.582031 55.011719 39.761719 56 43.476562 C 56.492188 45.320312 56.679688 45.554688 57.082031 44.835938 C 58.339844 42.589844 53.550781 34.121094 47.507812 27.898438 C 44.101562 24.394531 43.992188 24.328125 44.726562 26.171875 M 29.496094 35.96875 C 23.699219 37.730469 19.65625 43.582031 20.09375 49.566406 C 20.246094 51.609375 20.347656 51.722656 23.5 53.339844 C 27.328125 55.308594 34.710938 57.746094 38.25 58.210938 C 39.625 58.390625 41.378906 58.660156 42.148438 58.8125 L 43.546875 59.089844 L 43.214844 56.421875 C 42.375 49.621094 39.78125 40.867188 37.503906 37.125 C 36.566406 35.582031 36.367188 35.503906 33.632812 35.542969 C 32.046875 35.566406 30.1875 35.757812 29.496094 35.96875 M 66.609375 36.558594 C 62.65625 38.515625 58.65625 44.933594 56.34375 53.039062 C 54.339844 60.050781 54.3125 60.554688 56.128906 57.230469 C 61.296875 47.777344 70.246094 40.097656 77.273438 39.09375 L 79.699219 38.746094 L 78.3125 37.839844 C 74.535156 35.359375 70.027344 34.867188 66.609375 36.558594 M 75 41.804688 C 67.171875 44.632812 58.867188 54.324219 54.652344 65.550781 C 53.714844 68.046875 53.023438 70.3125 53.113281 70.589844 C 53.277344 71.085938 84.414062 44.074219 84.46875 43.386719 C 84.535156 42.597656 82 41.457031 79.6875 41.230469 C 78.132812 41.078125 76.433594 41.285156 75 41.804688 M 9.335938 46.625 C 10.859375 54.65625 17.734375 63.839844 24.804688 67.300781 C 28.089844 68.90625 32.851562 69.457031 35.605469 68.546875 C 37.496094 67.925781 40.246094 65.253906 41.964844 62.375 L 43.082031 60.5 L 41.996094 60.5 C 41.398438 60.5 38.648438 60.039062 35.890625 59.476562 C 26.761719 57.617188 18.324219 53.445312 12.261719 47.789062 C 10.617188 46.253906 9.21875 45 9.148438 45 C 9.082031 45 9.164062 45.730469 9.335938 46.625 M 69.910156 59.152344 C 61.472656 66.625 54.625 72.792969 54.691406 72.859375 C 54.757812 72.925781 56.925781 72.410156 59.511719 71.71875 C 71.152344 68.605469 82.925781 60.679688 86.011719 53.882812 C 87.417969 50.78125 87.296875 45.445312 85.820312 45.535156 C 85.507812 45.554688 78.347656 51.683594 69.910156 59.152344 M 89 51.503906 C 89 57.117188 77.46875 67.476562 66.628906 71.601562 C 64.359375 72.464844 62.558594 73.210938 62.628906 73.257812 C 62.695312 73.304688 65 73.148438 67.75 72.902344 C 76.675781 72.113281 84.109375 69.875 88.21875 66.742188 C 91.886719 63.941406 92.96875 58.628906 90.964844 53.269531 C 89.917969 50.476562 89 49.652344 89 51.503906 M 13.3125 62.882812 C 21.523438 70.742188 29.128906 74 34.195312 71.839844 C 35.507812 71.277344 35.304688 71.222656 31.890625 71.222656 C 28.550781 71.222656 27.71875 71.011719 24.25 69.300781 C 21.585938 67.980469 19.160156 66.230469 16.554688 63.746094 C 14.460938 61.746094 11.851562 59.753906 10.75 59.316406 C 8.886719 58.570312 9.0625 58.816406 13.3125 62.882812 "/>
</g>
</svg>
