<?xml version="1.0" encoding="UTF-8"?>
<svg xmlns="http://www.w3.org/2000/svg" xmlns:xlink="http://www.w3.org/1999/xlink" width="24px" height="24px" viewBox="0 0 24 24" version="1.1">
<g id="surface1">
<path style=" stroke:none;fill-rule:evenodd;fill:rgb(0%,0%,0%);fill-opacity:1;" d="M 8.824219 3.953125 C 8.789062 4.011719 8.992188 4.40625 9.28125 4.820312 C 9.574219 5.238281 9.890625 5.742188 9.996094 5.945312 L 10.179688 6.308594 L 9.496094 5.972656 C 8.304688 5.378906 6.507812 5.0625 6.296875 5.40625 C 6.253906 5.472656 6.710938 6.042969 7.308594 6.667969 C 7.910156 7.296875 8.398438 7.855469 8.398438 7.910156 C 8.398438 7.964844 8.148438 8.015625 7.84375 8.019531 C 6.039062 8.058594 4.558594 9.449219 4.332031 11.324219 L 4.246094 12.058594 L 3.078125 10.886719 C 2.4375 10.238281 1.859375 9.742188 1.796875 9.78125 C 1.457031 9.992188 1.789062 11.992188 2.347656 13.09375 L 2.65625 13.703125 L 2.179688 13.4375 C 1.914062 13.289062 1.425781 12.957031 1.085938 12.703125 C 0.75 12.449219 0.421875 12.238281 0.359375 12.238281 C -0.398438 12.238281 2.640625 15.601562 4.535156 16.859375 C 7.390625 18.757812 9.738281 17.917969 10.84375 14.609375 C 10.882812 14.496094 11.007812 14.398438 11.125 14.398438 C 11.242188 14.398438 11.628906 14.261719 11.980469 14.097656 C 12.335938 13.933594 12.640625 13.800781 12.65625 13.800781 C 12.675781 13.800781 12.613281 14.164062 12.519531 14.609375 C 12.253906 15.890625 11.988281 17.792969 12.050781 17.964844 C 12.097656 18.082031 12.5 18.121094 13.664062 18.121094 C 19.488281 18.121094 22.59375 16.722656 22.589844 14.105469 C 22.585938 13.195312 22.25 12.222656 21.601562 11.25 L 21.105469 10.507812 L 21.441406 10.273438 C 21.949219 9.921875 23.015625 8.789062 23.105469 8.503906 C 23.148438 8.367188 23.121094 8.195312 23.042969 8.117188 C 22.9375 8.011719 22.847656 8.054688 22.671875 8.28125 C 21.980469 9.167969 21.707031 9.457031 21.257812 9.765625 L 20.765625 10.109375 L 20.015625 9.417969 C 18.507812 8.023438 16.933594 7.65625 15.636719 8.398438 C 15.292969 8.597656 14.824219 9.003906 14.59375 9.304688 L 14.175781 9.855469 L 13.851562 9.175781 C 13.347656 8.109375 12.246094 6.746094 10.667969 5.234375 C 9.285156 3.90625 8.980469 3.699219 8.824219 3.953125 M 7.878906 6.511719 C 9.433594 8.160156 10.421875 10.398438 10.878906 13.292969 L 10.980469 13.929688 L 11.636719 13.535156 C 11.996094 13.316406 12.453125 12.90625 12.65625 12.621094 C 13.449219 11.484375 12.996094 9.695312 11.507812 8.105469 C 10.382812 6.902344 8.589844 5.878906 7.605469 5.878906 C 7.292969 5.878906 7.300781 5.894531 7.878906 6.511719 M 10.734375 6.28125 C 10.835938 6.535156 11.285156 7.136719 11.734375 7.617188 C 12.59375 8.539062 13.203125 9.542969 13.441406 10.433594 C 13.558594 10.875 13.601562 10.933594 13.699219 10.761719 C 14 10.222656 12.851562 8.1875 11.402344 6.695312 C 10.585938 5.855469 10.558594 5.839844 10.734375 6.28125 M 7.078125 8.632812 C 5.6875 9.054688 4.71875 10.460938 4.824219 11.894531 C 4.859375 12.386719 4.882812 12.414062 5.640625 12.800781 C 6.558594 13.273438 8.332031 13.859375 9.179688 13.96875 C 9.511719 14.011719 9.929688 14.078125 10.117188 14.117188 L 10.449219 14.179688 L 10.371094 13.539062 C 10.167969 11.910156 9.546875 9.808594 9 8.910156 C 8.777344 8.539062 8.726562 8.519531 8.070312 8.53125 C 7.691406 8.535156 7.246094 8.582031 7.078125 8.632812 M 15.984375 8.773438 C 15.039062 9.242188 14.078125 10.785156 13.523438 12.730469 C 13.042969 14.414062 13.035156 14.53125 13.472656 13.734375 C 14.710938 11.464844 16.859375 9.625 18.546875 9.382812 L 19.128906 9.296875 L 18.796875 9.082031 C 17.886719 8.488281 16.804688 8.367188 15.984375 8.773438 M 18 10.03125 C 16.121094 10.710938 14.128906 13.039062 13.117188 15.730469 C 12.890625 16.332031 12.726562 16.875 12.746094 16.941406 C 12.785156 17.058594 20.257812 10.578125 20.273438 10.414062 C 20.289062 10.222656 19.679688 9.949219 19.125 9.894531 C 18.753906 9.859375 18.34375 9.910156 18 10.03125 M 2.238281 11.191406 C 2.605469 13.117188 4.257812 15.320312 5.953125 16.152344 C 6.742188 16.539062 7.882812 16.667969 8.546875 16.453125 C 9 16.300781 9.660156 15.660156 10.070312 14.96875 L 10.339844 14.519531 L 10.078125 14.519531 C 9.933594 14.519531 9.277344 14.410156 8.613281 14.273438 C 6.421875 13.828125 4.398438 12.828125 2.941406 11.46875 C 2.546875 11.101562 2.210938 10.800781 2.195312 10.800781 C 2.179688 10.800781 2.199219 10.976562 2.238281 11.191406 M 16.777344 14.195312 C 14.753906 15.988281 13.109375 17.46875 13.125 17.484375 C 13.140625 17.5 13.664062 17.378906 14.285156 17.210938 C 17.078125 16.464844 19.902344 14.5625 20.640625 12.933594 C 20.980469 12.1875 20.953125 10.90625 20.597656 10.929688 C 20.523438 10.933594 18.804688 12.402344 16.777344 14.195312 M 21.359375 12.359375 C 21.359375 13.707031 18.59375 16.195312 15.992188 17.183594 C 15.445312 17.390625 15.015625 17.570312 15.03125 17.582031 C 15.046875 17.59375 15.601562 17.554688 16.261719 17.496094 C 18.402344 17.308594 20.1875 16.769531 21.171875 16.019531 C 22.054688 15.347656 22.3125 14.070312 21.832031 12.785156 C 21.582031 12.113281 21.359375 11.917969 21.359375 12.359375 M 3.195312 15.09375 C 5.164062 16.976562 6.992188 17.761719 8.207031 17.242188 C 8.523438 17.105469 8.472656 17.09375 7.652344 17.09375 C 6.851562 17.09375 6.652344 17.042969 5.820312 16.632812 C 5.179688 16.316406 4.597656 15.894531 3.972656 15.296875 C 3.472656 14.820312 2.84375 14.339844 2.578125 14.234375 C 2.132812 14.058594 2.175781 14.117188 3.195312 15.09375 "/>
</g>
</svg>
