<?xml version="1.0" encoding="UTF-8"?>
<svg xmlns="http://www.w3.org/2000/svg" xmlns:xlink="http://www.w3.org/1999/xlink" width="100px" height="100px" viewBox="0 0 100 100" version="1.1">
<g id="surface1">
<path style=" stroke:none;fill-rule:evenodd;fill:rgb(0%,0%,0%);fill-opacity:1;" d="M 60.710938 16.375 C 60.269531 17.40625 59.546875 19.96875 59.101562 22.070312 L 58.292969 25.894531 L 56.175781 26.132812 C 53.5 26.433594 49.925781 28.507812 48.207031 30.761719 C 46.296875 33.269531 45.546875 35.769531 45.519531 39.75 C 45.488281 44.445312 44.597656 51.449219 43.472656 55.851562 C 42.109375 61.183594 39.546875 65.984375 34.183594 73.25 C 31.546875 76.824219 29.195312 80.257812 28.957031 80.878906 C 28.390625 82.351562 29.253906 84.226562 30.828125 84.945312 C 39.023438 88.679688 56.183594 73.59375 65.972656 54.046875 C 71.253906 43.496094 72.328125 38.0625 70.066406 33.382812 C 69.023438 31.234375 66.414062 28.460938 64.269531 27.234375 C 63.414062 26.742188 63.410156 26.566406 64.171875 23.945312 C 64.617188 22.417969 65.546875 20.335938 66.238281 19.3125 C 66.933594 18.292969 67.5 17.285156 67.5 17.078125 C 67.5 16.597656 63.21875 14.5 62.242188 14.5 C 61.84375 14.5 61.152344 15.34375 60.710938 16.375 M 61.785156 18.625 C 61.347656 19.792969 60.703125 22.210938 60.347656 24 L 59.707031 27.25 L 57.613281 27.53125 C 56.460938 27.6875 55.386719 27.945312 55.226562 28.105469 C 55.066406 28.265625 55.746094 29.019531 56.738281 29.773438 C 58.648438 31.230469 62.277344 31.914062 64.777344 31.289062 C 66.042969 30.96875 66.070312 30.90625 65.269531 30.023438 C 64.804688 29.511719 63.769531 28.820312 62.964844 28.484375 C 62.160156 28.152344 61.503906 27.738281 61.507812 27.566406 C 61.53125 26.320312 63.121094 21.628906 64.136719 19.808594 L 65.371094 17.601562 L 64.164062 17.050781 C 62.546875 16.316406 62.6875 16.222656 61.785156 18.625 M 50.078125 31.28125 C 47.730469 33.945312 47 36.601562 47 42.460938 C 47 47.066406 45.894531 53.941406 44.425781 58.5 C 42.839844 63.410156 40.453125 67.652344 35.695312 74 C 30.945312 80.335938 30.230469 81.574219 30.65625 82.691406 C 31.132812 83.925781 34.386719 84.257812 36.890625 83.328125 C 42.898438 81.101562 52.367188 72.445312 58.316406 63.738281 C 64.5625 54.59375 69.511719 43.453125 69.488281 38.585938 C 69.484375 37.300781 69.050781 35.3125 68.53125 34.167969 L 67.585938 32.085938 L 65.417969 32.839844 C 61.859375 34.074219 56.785156 32.804688 54.296875 30.054688 C 52.933594 28.542969 52.332031 28.71875 50.078125 31.28125 "/>
</g>
</svg>
