<?xml version="1.0" encoding="UTF-8"?>
<svg xmlns="http://www.w3.org/2000/svg" xmlns:xlink="http://www.w3.org/1999/xlink" width="24px" height="24px" viewBox="0 0 24 24" version="1.1">
<g id="surface1">
<path style=" stroke:none;fill-rule:evenodd;fill:rgb(0%,0%,0%);fill-opacity:1;" d="M 13.535156 0.246094 C 12.433594 0.828125 11.519531 3.328125 11.519531 5.769531 C 11.519531 6.25 11.480469 6.359375 11.308594 6.359375 C 10.945312 6.363281 9.886719 6.917969 9.386719 7.371094 L 8.90625 7.804688 L 8.269531 7.472656 C 7.722656 7.1875 7.488281 7.140625 6.664062 7.144531 C 5.460938 7.148438 4.617188 7.515625 3.789062 8.402344 C 1.402344 10.953125 1.480469 17.144531 3.949219 20.90625 C 4.636719 21.957031 5.566406 22.847656 6.320312 23.179688 C 7.054688 23.507812 8.34375 23.453125 8.851562 23.078125 C 9.191406 22.828125 9.199219 22.828125 9.488281 23.058594 C 9.648438 23.183594 10.050781 23.433594 10.378906 23.613281 C 10.898438 23.890625 11.121094 23.9375 12 23.9375 C 12.878906 23.9375 13.101562 23.890625 13.621094 23.613281 C 13.949219 23.433594 14.351562 23.183594 14.511719 23.058594 C 14.800781 22.828125 14.808594 22.828125 15.152344 23.082031 C 15.441406 23.296875 15.664062 23.339844 16.480469 23.335938 C 17.628906 23.332031 17.972656 23.1875 18.921875 22.285156 C 22.300781 19.09375 23.015625 11.402344 20.214844 8.40625 C 19.382812 7.515625 18.542969 7.148438 17.335938 7.144531 C 16.511719 7.140625 16.277344 7.1875 15.730469 7.472656 L 15.09375 7.804688 L 14.613281 7.371094 C 14.109375 6.914062 13.054688 6.363281 12.683594 6.359375 C 12.484375 6.359375 12.472656 6.277344 12.542969 5.488281 C 12.671875 4.09375 12.949219 2.875 13.324219 2.066406 C 13.601562 1.460938 13.753906 1.277344 14.09375 1.136719 C 14.460938 0.980469 14.578125 0.980469 15.019531 1.132812 C 15.65625 1.351562 15.992188 1.210938 15.9375 0.742188 C 15.859375 0.0664062 14.433594 -0.230469 13.535156 0.246094 M 10.828125 7.621094 C 9.582031 8.257812 8.542969 9.867188 7.960938 12.074219 C 7.699219 13.074219 7.648438 13.535156 7.640625 15 C 7.621094 18.027344 8.390625 20.410156 9.875 21.933594 C 10.546875 22.621094 11.195312 22.921875 12.007812 22.917969 C 12.832031 22.914062 13.476562 22.617188 14.121094 21.945312 C 16.640625 19.316406 17.164062 13.667969 15.230469 9.953125 C 14.335938 8.238281 13.421875 7.464844 12.148438 7.359375 C 11.570312 7.3125 11.359375 7.351562 10.828125 7.621094 M 5.390625 8.457031 C 3.898438 9.234375 3.117188 11.085938 3.105469 13.863281 C 3.097656 15.464844 3.234375 16.378906 3.683594 17.816406 C 4.296875 19.773438 5.539062 21.65625 6.527344 22.125 C 6.988281 22.34375 8.164062 22.386719 8.363281 22.191406 C 8.453125 22.097656 8.375 21.871094 8.085938 21.386719 C 6.152344 18.175781 6.003906 13.078125 7.746094 9.539062 C 7.972656 9.078125 8.160156 8.664062 8.160156 8.621094 C 8.160156 8.582031 7.976562 8.460938 7.75 8.355469 C 7.136719 8.0625 6.058594 8.109375 5.390625 8.457031 M 16.261719 8.347656 C 16.066406 8.449219 15.882812 8.554688 15.855469 8.582031 C 15.828125 8.609375 16 9.027344 16.238281 9.507812 C 17.816406 12.71875 17.875 17.246094 16.378906 20.488281 C 16.15625 20.96875 15.867188 21.515625 15.730469 21.703125 C 15.398438 22.171875 15.585938 22.320312 16.507812 22.320312 C 17.128906 22.320312 17.320312 22.265625 17.71875 21.976562 C 18.773438 21.214844 19.738281 19.667969 20.316406 17.816406 C 20.765625 16.382812 20.898438 15.484375 20.890625 13.871094 C 20.882812 11.0625 20.097656 9.21875 18.585938 8.453125 C 17.898438 8.105469 16.820312 8.058594 16.261719 8.347656 "/>
</g>
</svg>
