<?xml version="1.0" encoding="UTF-8"?>
<svg xmlns="http://www.w3.org/2000/svg" xmlns:xlink="http://www.w3.org/1999/xlink" width="24px" height="24px" viewBox="0 0 24 24" version="1.1">
<g id="surface1">
<path style=" stroke:none;fill-rule:evenodd;fill:rgb(0%,0%,0%);fill-opacity:1;" d="M 2.253906 0.578125 C 1.546875 0.886719 0.917969 1.195312 0.859375 1.261719 C 0.800781 1.324219 0.578125 2.109375 0.363281 3 L -0.0195312 4.621094 L 0.792969 6.988281 L 2.210938 7.816406 C 2.992188 8.269531 3.691406 8.636719 3.765625 8.636719 C 3.839844 8.632812 4.519531 8.445312 5.277344 8.21875 L 6.652344 7.808594 L 9.035156 5.425781 L 8.890625 4.0625 C 8.617188 1.433594 8.78125 1.78125 7.371094 0.832031 L 6.128906 0 L 4.832031 0.0078125 C 3.5625 0.015625 3.515625 0.0273438 2.253906 0.578125 M 3.917969 0.808594 C 3.828125 0.960938 3.101562 3.503906 3.144531 3.539062 C 3.292969 3.671875 4.476562 4.203125 4.519531 4.160156 C 4.589844 4.089844 5.039062 1.351562 5.039062 0.988281 C 5.039062 0.75 4.980469 0.71875 4.507812 0.71875 C 4.214844 0.71875 3.949219 0.761719 3.917969 0.808594 M 5.773438 1.828125 C 5.691406 2.375 5.59375 2.953125 5.5625 3.121094 C 5.5 3.40625 5.515625 3.398438 5.816406 3.035156 C 6.050781 2.746094 6.34375 2.582031 6.964844 2.398438 C 7.425781 2.261719 7.800781 2.125 7.800781 2.097656 C 7.800781 2.046875 6.042969 0.839844 5.964844 0.839844 C 5.941406 0.839844 5.855469 1.285156 5.773438 1.828125 M 2.074219 1.503906 C 1.527344 1.753906 1.4375 1.847656 1.324219 2.273438 C 1.257812 2.542969 1.140625 2.980469 1.070312 3.253906 C 1 3.523438 0.964844 3.765625 0.988281 3.789062 C 1.011719 3.8125 1.3125 3.742188 1.660156 3.632812 L 2.285156 3.433594 L 2.515625 2.644531 C 3 1 3.027344 1.070312 2.074219 1.503906 M 7.175781 3.199219 C 6.761719 3.324219 6.492188 3.519531 6.148438 3.933594 C 5.890625 4.246094 5.644531 4.5625 5.597656 4.640625 C 5.546875 4.730469 5.855469 4.984375 6.421875 5.332031 C 6.921875 5.632812 7.371094 5.878906 7.421875 5.878906 C 7.472656 5.878906 7.667969 5.722656 7.851562 5.53125 C 8.183594 5.179688 8.1875 5.171875 8.101562 4.089844 C 8.046875 3.390625 7.964844 3.003906 7.878906 3.011719 C 7.800781 3.019531 7.488281 3.101562 7.175781 3.199219 M 14.878906 4.988281 C 12.992188 6.492188 13.078125 6.390625 13.078125 7.140625 C 13.078125 7.503906 13.039062 7.800781 12.988281 7.800781 C 12.941406 7.800781 12.429688 7.679688 11.859375 7.535156 L 10.816406 7.269531 L 9.652344 7.828125 L 8.488281 8.390625 L 7.664062 9.765625 C 7.210938 10.519531 6.839844 11.242188 6.839844 11.367188 C 6.839844 11.492188 7.027344 12.0625 7.261719 12.636719 C 7.492188 13.207031 7.679688 13.703125 7.679688 13.738281 C 7.679688 13.773438 7.261719 13.800781 6.75 13.800781 C 6.238281 13.804688 5.761719 13.84375 5.695312 13.890625 C 5.539062 14 3.691406 16.289062 3.492188 16.621094 C 3.375 16.8125 3.402344 17.132812 3.640625 18.285156 L 3.933594 19.707031 L 4.792969 20.574219 C 5.59375 21.378906 5.742188 21.472656 6.996094 21.957031 C 7.734375 22.246094 8.398438 22.480469 8.472656 22.480469 C 8.546875 22.480469 9.238281 22.109375 10.015625 21.65625 L 11.421875 20.832031 L 12.007812 19.667969 L 12.589844 18.503906 L 12.304688 17.472656 L 12.023438 16.441406 L 12.324219 16.441406 C 12.523438 16.441406 13.097656 16.058594 14.050781 15.285156 L 15.480469 14.128906 L 15.480469 13.417969 C 15.480469 12.792969 15.507812 12.710938 15.691406 12.765625 C 15.804688 12.800781 16.316406 12.941406 16.820312 13.082031 L 17.742188 13.332031 L 20.101562 12.144531 L 20.910156 10.777344 C 21.355469 10.023438 21.71875 9.332031 21.71875 9.242188 C 21.71875 9.148438 21.496094 8.503906 21.226562 7.808594 C 20.804688 6.722656 20.628906 6.425781 19.996094 5.761719 C 19.589844 5.332031 19.15625 4.902344 19.03125 4.808594 C 18.859375 4.683594 16.578125 4.125 16.078125 4.085938 C 16.046875 4.082031 15.507812 4.488281 14.878906 4.988281 M 1.738281 4.464844 C 1.34375 4.601562 0.996094 4.734375 0.96875 4.757812 C 0.9375 4.785156 1.035156 5.183594 1.183594 5.644531 L 1.453125 6.480469 L 2.375 7.019531 C 2.882812 7.3125 3.355469 7.554688 3.425781 7.558594 C 3.527344 7.558594 4.320312 5.402344 4.320312 5.125 C 4.320312 5.035156 2.699219 4.195312 2.554688 4.210938 C 2.5 4.214844 2.136719 4.332031 1.738281 4.464844 M 16.199219 4.972656 C 16.199219 5.003906 16.394531 5.359375 16.632812 5.765625 C 16.996094 6.386719 17.058594 6.585938 17.003906 6.988281 C 16.929688 7.539062 16.90625 7.558594 17.804688 6.328125 C 18.246094 5.722656 18.433594 5.378906 18.332031 5.34375 C 18.183594 5.296875 16.339844 4.921875 16.246094 4.921875 C 16.222656 4.921875 16.199219 4.945312 16.199219 4.972656 M 4.765625 6.515625 C 4.585938 7.066406 4.441406 7.546875 4.441406 7.585938 C 4.441406 7.757812 6.304688 7.070312 6.570312 6.804688 L 6.855469 6.515625 L 6.015625 6.019531 C 5.554688 5.746094 5.15625 5.519531 5.132812 5.519531 C 5.109375 5.519531 4.941406 5.96875 4.765625 6.515625 M 14.664062 6.140625 L 13.910156 6.75 L 13.945312 7.359375 L 13.980469 7.964844 L 14.820312 8.179688 C 16.082031 8.503906 16.035156 8.523438 16.132812 7.570312 C 16.203125 6.820312 16.179688 6.675781 15.90625 6.128906 C 15.734375 5.792969 15.554688 5.523438 15.507812 5.523438 C 15.460938 5.527344 15.078125 5.804688 14.664062 6.140625 M 18.058594 7.335938 C 17.53125 8.066406 17.113281 8.699219 17.132812 8.742188 C 17.164062 8.824219 18.207031 9.214844 18.4375 9.230469 C 18.515625 9.234375 18.878906 8.691406 19.25 8.015625 L 19.921875 6.792969 L 19.539062 6.398438 C 19.324219 6.179688 19.121094 6 19.085938 6.003906 C 19.050781 6.003906 18.589844 6.605469 18.058594 7.335938 M 19.773438 8.75 L 19.222656 9.757812 L 19.847656 11.03125 L 20.363281 10.167969 C 20.644531 9.691406 20.875 9.21875 20.871094 9.121094 C 20.867188 9.019531 20.742188 8.671875 20.59375 8.339844 L 20.324219 7.742188 L 19.773438 8.75 M 10.109375 8.433594 C 9.699219 8.640625 9.363281 8.867188 9.363281 8.9375 C 9.367188 9.003906 9.539062 9.378906 9.753906 9.773438 C 10.128906 10.460938 10.164062 10.492188 10.972656 10.761719 C 11.433594 10.914062 11.851562 11.039062 11.902344 11.039062 C 12 11.039062 13.078125 8.964844 13.078125 8.777344 C 13.078125 8.714844 12.640625 8.546875 12.101562 8.402344 C 11.5625 8.257812 11.0625 8.121094 10.992188 8.097656 C 10.917969 8.074219 10.523438 8.222656 10.109375 8.433594 M 13.917969 9.222656 C 13.914062 9.613281 14.585938 11.15625 14.765625 11.160156 C 14.859375 11.160156 15.742188 9.339844 15.675781 9.277344 C 15.644531 9.246094 15.238281 9.125 14.769531 9.003906 L 13.921875 8.785156 L 13.917969 9.222656 M 15.96875 10.660156 L 15.367188 11.863281 L 15.992188 12.042969 C 17.679688 12.523438 17.550781 12.519531 18.414062 12.097656 C 18.84375 11.882812 19.199219 11.664062 19.199219 11.609375 C 19.199219 11.558594 19.039062 11.195312 18.84375 10.808594 C 18.496094 10.121094 18.46875 10.09375 17.675781 9.832031 C 17.226562 9.6875 16.796875 9.542969 16.714844 9.511719 C 16.632812 9.480469 16.328125 9.949219 15.96875 10.660156 M 8.164062 10.417969 C 7.898438 10.867188 7.679688 11.316406 7.679688 11.421875 C 7.679688 11.523438 7.796875 11.886719 7.9375 12.230469 L 8.195312 12.851562 L 8.777344 11.816406 L 9.355469 10.78125 L 9.054688 10.191406 C 8.890625 9.867188 8.730469 9.601562 8.703125 9.601562 C 8.675781 9.601562 8.433594 9.96875 8.164062 10.417969 M 13.046875 10.734375 C 12.765625 11.324219 12.777344 11.363281 13.269531 11.453125 C 13.503906 11.496094 13.777344 11.566406 13.878906 11.605469 C 14.027344 11.660156 14.015625 11.582031 13.820312 11.207031 C 13.6875 10.949219 13.503906 10.640625 13.414062 10.523438 C 13.261719 10.320312 13.238281 10.335938 13.046875 10.734375 M 9.316406 12.523438 C 8.679688 13.679688 8.660156 13.742188 8.910156 13.78125 C 9.054688 13.804688 9.28125 13.898438 9.414062 13.992188 C 9.546875 14.085938 9.6875 14.160156 9.734375 14.160156 C 9.777344 14.160156 10.152344 13.6875 10.566406 13.109375 C 10.980469 12.53125 11.363281 12.003906 11.414062 11.933594 C 11.476562 11.851562 11.238281 11.71875 10.746094 11.558594 L 9.984375 11.308594 L 9.316406 12.523438 M 12.425781 13.007812 C 12.347656 13.84375 12.363281 13.933594 12.683594 14.496094 L 13.027344 15.097656 L 13.832031 14.441406 C 14.625 13.796875 14.640625 13.777344 14.640625 13.207031 L 14.640625 12.628906 L 13.625 12.375 C 13.066406 12.234375 12.585938 12.121094 12.558594 12.121094 C 12.53125 12.121094 12.472656 12.519531 12.425781 13.007812 M 11.011719 13.878906 C 10.761719 14.214844 10.558594 14.523438 10.558594 14.558594 C 10.558594 14.597656 10.828125 14.777344 11.160156 14.964844 C 11.488281 15.148438 11.757812 15.367188 11.761719 15.449219 C 11.761719 15.53125 11.894531 15.601562 12.058594 15.601562 L 12.355469 15.601562 L 11.976562 14.96875 C 11.765625 14.625 11.566406 14.097656 11.527344 13.800781 L 11.460938 13.265625 L 11.011719 13.878906 M 5.410156 15.40625 C 5.074219 15.828125 4.800781 16.203125 4.800781 16.234375 C 4.800781 16.269531 5.050781 16.445312 5.359375 16.625 C 5.871094 16.925781 5.984375 16.945312 6.761719 16.871094 C 7.226562 16.828125 7.625 16.773438 7.648438 16.753906 C 7.671875 16.730469 7.574219 16.246094 7.429688 15.675781 L 7.171875 14.640625 L 6.59375 14.640625 C 6.03125 14.640625 6.007812 14.65625 5.410156 15.40625 M 8.082031 14.910156 C 8.121094 15.058594 8.21875 15.464844 8.296875 15.808594 C 8.375 16.15625 8.496094 16.4375 8.570312 16.433594 C 8.640625 16.429688 9.097656 16.222656 9.585938 15.972656 L 10.472656 15.519531 L 9.6875 15.078125 C 8.730469 14.546875 7.964844 14.464844 8.082031 14.910156 M 19.140625 15.132812 C 18.679688 15.1875 18.015625 15.265625 17.667969 15.304688 L 17.03125 15.378906 L 15.359375 17.871094 L 15.359375 19.113281 C 15.359375 20.332031 15.371094 20.378906 15.941406 21.703125 C 16.261719 22.445312 16.574219 23.097656 16.632812 23.152344 C 16.691406 23.207031 17.46875 23.421875 18.359375 23.636719 L 19.980469 24.019531 L 22.378906 23.199219 L 22.925781 22.25 C 23.226562 21.726562 23.597656 21.074219 23.753906 20.796875 L 24.039062 20.292969 L 23.640625 18.875 L 23.246094 17.460938 L 22.035156 16.230469 C 20.683594 14.859375 20.859375 14.925781 19.140625 15.132812 M 18.925781 15.929688 C 18.453125 15.964844 18.359375 16.011719 18.40625 16.175781 C 18.4375 16.289062 18.53125 16.609375 18.613281 16.890625 C 18.75 17.367188 19 17.636719 20.003906 18.390625 C 20.148438 18.5 20.34375 18.242188 21.007812 17.078125 L 21.296875 16.574219 L 20.945312 16.207031 C 20.574219 15.816406 20.484375 15.804688 18.925781 15.929688 M 9.898438 16.761719 C 9.304688 17.0625 8.800781 17.324219 8.777344 17.347656 C 8.753906 17.367188 8.867188 17.78125 9.023438 18.261719 C 9.308594 19.121094 9.328125 19.148438 10.027344 19.527344 C 10.417969 19.738281 10.796875 19.914062 10.863281 19.917969 C 10.933594 19.917969 11.160156 19.574219 11.367188 19.148438 L 11.75 18.375 L 11.507812 17.5 C 11.164062 16.234375 11.152344 16.199219 11.0625 16.207031 C 11.015625 16.210938 10.492188 16.457031 9.898438 16.761719 M 16.796875 17.105469 C 16.457031 17.609375 16.199219 18.035156 16.21875 18.050781 C 16.242188 18.070312 16.691406 18.152344 17.21875 18.230469 C 17.746094 18.3125 18.316406 18.410156 18.480469 18.445312 C 18.761719 18.507812 18.753906 18.484375 18.355469 18.105469 C 18.035156 17.804688 17.886719 17.523438 17.761719 17.003906 C 17.671875 16.621094 17.558594 16.28125 17.503906 16.25 C 17.453125 16.21875 17.132812 16.605469 16.796875 17.105469 M 4.199219 17.015625 C 4.199219 17.148438 4.59375 19.136719 4.628906 19.179688 C 4.644531 19.203125 5.109375 18.890625 5.65625 18.488281 L 6.648438 17.761719 L 6.136719 17.761719 C 5.765625 17.761719 5.421875 17.644531 4.910156 17.34375 C 4.519531 17.113281 4.199219 16.964844 4.199219 17.015625 M 21.382812 18.019531 C 21.101562 18.488281 20.886719 18.882812 20.90625 18.898438 C 20.960938 18.945312 22.855469 19.558594 22.941406 19.558594 C 23.035156 19.558594 22.652344 18.15625 22.464844 17.804688 C 22.398438 17.679688 22.242188 17.484375 22.117188 17.375 C 21.902344 17.179688 21.871094 17.207031 21.382812 18.019531 M 6.570312 18.8125 L 5.160156 19.847656 L 5.542969 20.246094 C 5.753906 20.460938 5.96875 20.640625 6.023438 20.640625 C 6.265625 20.640625 8.527344 19.273438 8.484375 19.15625 C 8.457031 19.082031 8.34375 18.738281 8.226562 18.390625 C 8.113281 18.042969 8.011719 17.765625 8 17.769531 C 7.988281 17.773438 7.34375 18.242188 6.570312 18.8125 M 16.101562 19.527344 L 16.140625 20.09375 L 17.511719 20.484375 C 18.265625 20.699219 18.894531 20.863281 18.90625 20.847656 C 19.039062 20.691406 19.5625 19.523438 19.519531 19.480469 C 19.449219 19.410156 16.710938 18.960938 16.34375 18.960938 C 16.089844 18.960938 16.070312 19.003906 16.101562 19.527344 M 19.976562 20.527344 L 19.550781 21.375 L 19.820312 22.207031 C 20.121094 23.148438 20.121094 23.148438 21.175781 22.761719 C 21.867188 22.507812 21.90625 22.46875 22.460938 21.503906 C 22.84375 20.839844 22.984375 20.492188 22.886719 20.457031 C 22.328125 20.25 20.578125 19.679688 20.5 19.679688 C 20.445312 19.679688 20.210938 20.0625 19.976562 20.527344 M 8.058594 20.484375 C 7.511719 20.785156 7.105469 21.074219 7.160156 21.125 C 7.214844 21.179688 7.53125 21.328125 7.863281 21.460938 L 8.46875 21.695312 L 9.226562 21.238281 C 10.3125 20.585938 10.316406 20.582031 9.640625 20.242188 L 9.050781 19.941406 L 8.058594 20.484375 M 16.742188 21.554688 C 16.851562 21.8125 16.984375 22.132812 17.039062 22.273438 C 17.117188 22.46875 17.371094 22.582031 18.136719 22.777344 C 18.6875 22.914062 19.152344 23.003906 19.179688 22.980469 C 19.203125 22.957031 19.132812 22.664062 19.023438 22.332031 C 18.824219 21.726562 18.820312 21.722656 18.019531 21.488281 C 17.582031 21.359375 17.066406 21.21875 16.882812 21.171875 L 16.542969 21.089844 L 16.742188 21.554688 "/>
</g>
</svg>
