<?xml version="1.0" encoding="UTF-8"?>
<svg xmlns="http://www.w3.org/2000/svg" xmlns:xlink="http://www.w3.org/1999/xlink" width="24px" height="24px" viewBox="0 0 24 24" version="1.1">
<g id="surface1">
<path style=" stroke:none;fill-rule:evenodd;fill:rgb(0%,0%,0%);fill-opacity:1;" d="M 14.570312 3.929688 C 14.464844 4.175781 14.289062 4.792969 14.183594 5.296875 L 13.992188 6.214844 L 13.480469 6.273438 C 12.839844 6.34375 11.980469 6.84375 11.570312 7.382812 C 11.109375 7.984375 10.929688 8.585938 10.925781 9.539062 C 10.917969 10.667969 10.703125 12.347656 10.433594 13.40625 C 10.105469 14.683594 9.492188 15.835938 8.203125 17.578125 C 7.570312 18.4375 7.007812 19.261719 6.949219 19.410156 C 6.8125 19.765625 7.019531 20.214844 7.398438 20.386719 C 9.367188 21.28125 13.484375 17.660156 15.832031 12.972656 C 17.101562 10.4375 17.359375 9.136719 16.816406 8.011719 C 16.566406 7.496094 15.9375 6.832031 15.425781 6.535156 C 15.21875 6.417969 15.21875 6.375 15.402344 5.746094 C 15.507812 5.378906 15.730469 4.878906 15.898438 4.636719 C 16.0625 4.390625 16.199219 4.148438 16.199219 4.097656 C 16.199219 3.984375 15.171875 3.480469 14.9375 3.480469 C 14.84375 3.480469 14.675781 3.683594 14.570312 3.929688 M 14.828125 4.46875 C 14.722656 4.75 14.570312 5.332031 14.484375 5.761719 L 14.328125 6.539062 L 13.828125 6.609375 C 13.550781 6.644531 13.292969 6.707031 13.253906 6.746094 C 13.214844 6.785156 13.378906 6.964844 13.617188 7.144531 C 14.074219 7.496094 14.945312 7.660156 15.546875 7.507812 C 15.851562 7.433594 15.855469 7.417969 15.664062 7.207031 C 15.554688 7.082031 15.304688 6.917969 15.113281 6.835938 C 14.917969 6.757812 14.761719 6.65625 14.761719 6.617188 C 14.765625 6.316406 15.148438 5.191406 15.394531 4.753906 L 15.6875 4.222656 L 15.398438 4.09375 C 15.011719 3.914062 15.042969 3.894531 14.828125 4.46875 M 12.019531 7.507812 C 11.457031 8.148438 11.28125 8.785156 11.28125 10.191406 C 11.28125 11.296875 11.015625 12.945312 10.660156 14.039062 C 10.28125 15.21875 9.707031 16.238281 8.566406 17.761719 C 7.425781 19.28125 7.253906 19.578125 7.359375 19.847656 C 7.472656 20.140625 8.253906 20.222656 8.855469 20 C 10.296875 19.464844 12.566406 17.386719 13.996094 15.296875 C 15.496094 13.101562 16.683594 10.429688 16.675781 9.261719 C 16.675781 8.953125 16.574219 8.476562 16.449219 8.199219 L 16.222656 7.699219 L 15.699219 7.882812 C 14.847656 8.179688 13.628906 7.871094 13.03125 7.210938 C 12.703125 6.851562 12.558594 6.890625 12.019531 7.507812 "/>
</g>
</svg>
