<?xml version="1.0" encoding="UTF-8"?>
<svg xmlns="http://www.w3.org/2000/svg" xmlns:xlink="http://www.w3.org/1999/xlink" width="100px" height="100px" viewBox="0 0 100 100" version="1.1">
<g id="surface1">
<path style=" stroke:none;fill-rule:evenodd;fill:rgb(0%,0%,0%);fill-opacity:1;" d="M 9.390625 2.410156 C 6.445312 3.695312 3.828125 4.976562 3.578125 5.25 C 3.328125 5.523438 2.402344 8.789062 1.519531 12.5 L -0.0820312 19.25 L 1.605469 24.1875 L 3.296875 29.125 L 9.214844 32.5625 C 12.46875 34.453125 15.382812 35.992188 15.691406 35.984375 C 15.996094 35.976562 18.828125 35.195312 21.980469 34.25 L 27.714844 32.53125 L 32.675781 27.566406 L 37.640625 22.601562 L 37.046875 16.925781 C 35.902344 5.96875 36.585938 7.414062 30.707031 3.46875 L 25.535156 0 L 20.140625 0.0351562 C 14.851562 0.0703125 14.648438 0.113281 9.390625 2.410156 M 16.328125 3.375 C 15.941406 4.007812 12.929688 14.597656 13.09375 14.742188 C 13.722656 15.296875 18.648438 17.519531 18.832031 17.332031 C 19.128906 17.039062 21 5.632812 21 4.125 C 21 3.128906 20.75 3 18.78125 3 C 17.558594 3 16.457031 3.167969 16.328125 3.375 M 24.054688 7.625 C 23.710938 9.894531 23.316406 12.3125 23.171875 13 C 22.921875 14.183594 22.976562 14.167969 24.230469 12.636719 C 25.21875 11.433594 26.429688 10.765625 29.027344 9.992188 C 30.9375 9.421875 32.5 8.863281 32.5 8.742188 C 32.5 8.519531 25.183594 3.5 24.859375 3.5 C 24.757812 3.5 24.394531 5.355469 24.054688 7.625 M 8.648438 6.269531 C 6.367188 7.3125 5.984375 7.707031 5.523438 9.480469 C 5.234375 10.589844 4.761719 12.421875 4.46875 13.550781 C 4.175781 14.679688 4.015625 15.683594 4.117188 15.785156 C 4.222656 15.886719 5.476562 15.59375 6.910156 15.136719 L 9.515625 14.304688 L 10.480469 11.027344 C 12.496094 4.160156 12.613281 4.460938 8.648438 6.269531 M 29.902344 13.324219 C 28.171875 13.851562 27.050781 14.65625 25.613281 16.394531 C 24.546875 17.691406 23.515625 19.011719 23.332031 19.335938 C 23.117188 19.703125 24.390625 20.769531 26.761719 22.210938 C 28.839844 23.46875 30.710938 24.5 30.925781 24.5 C 31.136719 24.5 31.941406 23.84375 32.710938 23.039062 C 34.101562 21.589844 34.109375 21.542969 33.753906 17.039062 C 33.523438 14.121094 33.191406 12.519531 32.820312 12.550781 C 32.507812 12.582031 31.195312 12.925781 29.902344 13.324219 M 62 20.789062 C 54.140625 27.054688 54.5 26.625 54.5 29.753906 C 54.5 31.265625 54.332031 32.5 54.125 32.5 C 53.917969 32.503906 51.796875 32.003906 49.410156 31.394531 L 45.070312 30.285156 L 40.21875 32.625 L 35.363281 34.964844 L 31.929688 40.6875 C 30.042969 43.835938 28.5 46.835938 28.5 47.359375 C 28.5 47.878906 29.289062 50.257812 30.25 52.644531 C 31.210938 55.03125 32 57.101562 32 57.242188 C 32 57.382812 30.257812 57.503906 28.125 57.507812 C 25.992188 57.511719 24.015625 57.679688 23.726562 57.882812 C 23.082031 58.335938 15.386719 67.871094 14.554688 69.25 C 14.066406 70.058594 14.183594 71.382812 15.171875 76.183594 L 16.390625 82.117188 L 19.96875 85.71875 C 23.304688 89.078125 23.929688 89.46875 29.148438 91.492188 C 32.230469 92.6875 35 93.664062 35.304688 93.664062 C 35.609375 93.664062 38.5 92.121094 41.726562 90.230469 L 47.59375 86.796875 L 50.027344 81.949219 L 52.460938 77.097656 L 51.277344 72.800781 L 50.09375 68.5 L 51.347656 68.5 C 52.1875 68.5 54.566406 66.910156 58.550781 63.6875 L 64.5 58.875 L 64.5 55.90625 C 64.5 53.308594 64.609375 52.964844 65.375 53.195312 C 65.855469 53.34375 67.980469 53.929688 70.09375 54.5 L 73.933594 55.542969 L 78.84375 53.070312 L 83.75 50.597656 L 87.125 44.898438 C 88.980469 41.761719 90.5 38.882812 90.5 38.503906 C 90.5 38.117188 89.574219 35.429688 88.445312 32.527344 C 86.6875 28.011719 85.945312 26.78125 83.320312 24 C 81.632812 22.210938 79.820312 20.429688 79.296875 20.039062 C 78.589844 19.515625 69.070312 17.179688 67 17.023438 C 66.863281 17.011719 64.613281 18.707031 62 20.789062 M 7.25 18.609375 C 5.601562 19.175781 4.152344 19.722656 4.03125 19.828125 C 3.910156 19.9375 4.316406 21.59375 4.933594 23.511719 L 6.058594 27 L 9.902344 29.242188 C 12.019531 30.472656 13.984375 31.484375 14.269531 31.492188 C 14.695312 31.5 18 22.515625 18 21.355469 C 18 20.976562 11.25 17.476562 10.636719 17.539062 C 10.425781 17.5625 8.898438 18.042969 7.25 18.609375 M 67.5 20.722656 C 67.5 20.847656 68.3125 22.335938 69.308594 24.03125 C 70.820312 26.613281 71.070312 27.441406 70.847656 29.117188 C 70.539062 31.417969 70.441406 31.496094 74.1875 26.363281 C 76.027344 23.839844 76.800781 22.40625 76.386719 22.269531 C 75.761719 22.0625 68.078125 20.5 67.695312 20.5 C 67.589844 20.5 67.5 20.601562 67.5 20.722656 M 19.851562 27.15625 C 19.109375 29.441406 18.5 31.449219 18.5 31.617188 C 18.5 32.316406 26.265625 29.464844 27.371094 28.355469 L 28.570312 27.15625 L 25.074219 25.078125 C 23.148438 23.933594 21.492188 23 21.390625 23 C 21.289062 23 20.597656 24.871094 19.851562 27.15625 M 61.101562 25.585938 L 57.953125 28.132812 L 58.101562 30.660156 L 58.25 33.191406 L 61.75 34.085938 C 67.011719 35.425781 66.820312 35.515625 67.210938 31.535156 C 67.519531 28.425781 67.421875 27.8125 66.269531 25.535156 C 65.5625 24.140625 64.816406 23.007812 64.617188 23.019531 C 64.414062 23.027344 62.832031 24.183594 61.101562 25.585938 M 75.25 30.558594 C 73.050781 33.605469 71.308594 36.246094 71.378906 36.425781 C 71.515625 36.773438 75.859375 38.398438 76.824219 38.460938 C 77.140625 38.484375 78.664062 36.207031 80.207031 33.40625 L 83.011719 28.308594 L 81.40625 26.65625 C 80.527344 25.746094 79.679688 25.003906 79.527344 25.011719 C 79.375 25.015625 77.449219 27.515625 75.25 30.558594 M 82.390625 36.464844 L 80.089844 40.664062 L 82.691406 45.96875 L 84.839844 42.359375 C 86.023438 40.375 86.976562 38.414062 86.964844 38 C 86.949219 37.585938 86.433594 36.128906 85.8125 34.757812 L 84.6875 32.261719 L 82.390625 36.464844 M 42.125 35.136719 C 40.40625 36.003906 39.007812 36.945312 39.015625 37.230469 C 39.023438 37.515625 39.753906 39.085938 40.640625 40.714844 C 42.199219 43.589844 42.355469 43.71875 45.722656 44.839844 C 47.632812 45.476562 49.375 46 49.59375 46 C 50.007812 46 54.5 37.363281 54.5 36.566406 C 54.5 36.316406 52.664062 35.613281 50.421875 35.007812 C 48.179688 34.402344 46.097656 33.828125 45.796875 33.734375 C 45.496094 33.636719 43.84375 34.269531 42.125 35.136719 M 57.984375 38.425781 C 57.972656 40.0625 60.78125 46.484375 61.515625 46.496094 C 61.910156 46.503906 65.585938 38.921875 65.320312 38.652344 C 65.195312 38.527344 63.496094 38.011719 61.546875 37.511719 L 58 36.597656 L 57.984375 38.425781 M 66.539062 44.425781 L 64.023438 49.4375 L 66.636719 50.179688 C 73.667969 52.183594 73.132812 52.171875 76.71875 50.402344 C 78.523438 49.511719 80 48.601562 80 48.378906 C 80 48.15625 79.332031 46.648438 78.515625 45.03125 C 77.070312 42.164062 76.945312 42.0625 73.640625 40.972656 C 71.777344 40.359375 69.980469 39.753906 69.652344 39.632812 C 69.296875 39.503906 68.027344 41.457031 66.539062 44.425781 M 34.023438 43.402344 C 32.910156 45.277344 32 47.160156 32 47.585938 C 32 48.015625 32.484375 49.53125 33.078125 50.957031 L 34.152344 53.550781 L 36.566406 49.234375 L 38.976562 44.917969 L 37.730469 42.460938 C 37.042969 41.105469 36.382812 40 36.265625 40 C 36.144531 40 35.132812 41.53125 34.023438 43.402344 M 54.359375 44.734375 C 53.191406 47.179688 53.242188 47.339844 55.285156 47.722656 C 56.265625 47.90625 57.414062 48.191406 57.832031 48.351562 C 58.441406 48.585938 58.390625 48.253906 57.585938 46.695312 C 57.03125 45.625 56.273438 44.339844 55.898438 43.84375 C 55.265625 43 55.15625 43.0625 54.359375 44.734375 M 38.8125 52.1875 C 36.160156 57.003906 36.078125 57.257812 37.125 57.425781 C 37.726562 57.519531 38.671875 57.914062 39.222656 58.300781 C 39.773438 58.683594 40.371094 59 40.554688 59 C 40.734375 59 42.296875 57.03125 44.023438 54.625 C 45.753906 52.21875 47.347656 50.011719 47.566406 49.722656 C 47.820312 49.382812 46.824219 48.820312 44.78125 48.15625 L 41.597656 47.121094 L 38.8125 52.1875 M 51.769531 54.199219 C 51.445312 57.675781 51.511719 58.054688 52.851562 60.402344 L 54.28125 62.90625 L 57.640625 60.175781 C 60.945312 57.492188 61 57.410156 61 55.035156 L 61 52.621094 L 56.769531 51.5625 C 54.441406 50.976562 52.441406 50.5 52.328125 50.5 C 52.210938 50.5 51.960938 52.164062 51.769531 54.199219 M 45.875 57.828125 C 44.84375 59.234375 44 60.507812 44 60.664062 C 44 60.816406 45.125 61.574219 46.5 62.347656 C 47.875 63.117188 49 64.03125 49 64.375 C 49 64.71875 49.554688 65 50.238281 65 L 51.472656 65 L 49.894531 62.375 C 49.027344 60.929688 48.1875 58.742188 48.03125 57.507812 L 47.75 55.269531 L 45.875 57.828125 M 22.542969 64.195312 C 21.144531 65.953125 20 67.507812 20 67.648438 C 20 67.789062 21.046875 68.519531 22.324219 69.265625 C 24.464844 70.523438 24.929688 70.601562 28.171875 70.300781 C 30.105469 70.121094 31.769531 69.898438 31.867188 69.800781 C 31.960938 69.703125 31.554688 67.683594 30.960938 65.3125 L 29.878906 61 L 27.480469 61 C 25.136719 61 25.03125 61.066406 22.542969 64.195312 M 33.679688 62.125 C 33.84375 62.742188 34.242188 64.429688 34.570312 65.875 C 34.894531 67.320312 35.40625 68.488281 35.703125 68.476562 C 36.003906 68.460938 37.914062 67.597656 39.945312 66.558594 L 43.640625 64.664062 L 40.363281 62.832031 C 36.382812 60.605469 33.191406 60.269531 33.679688 62.125 M 79.75 63.046875 C 77.824219 63.28125 75.0625 63.605469 73.609375 63.773438 L 70.972656 64.074219 L 67.484375 69.269531 L 64 74.464844 L 64 79.636719 C 64 84.71875 64.042969 84.910156 66.425781 90.429688 C 67.761719 93.523438 69.054688 96.238281 69.300781 96.464844 C 69.546875 96.691406 72.789062 97.597656 76.5 98.480469 L 83.25 100.082031 L 88.25 98.371094 L 93.246094 96.660156 L 95.523438 92.707031 C 96.777344 90.53125 98.332031 87.804688 98.976562 86.652344 L 100.15625 84.550781 L 98.507812 78.652344 L 96.855469 72.75 L 91.8125 67.625 C 86.1875 61.910156 86.910156 62.183594 79.75 63.046875 M 78.851562 66.367188 C 76.878906 66.523438 76.492188 66.707031 76.695312 67.402344 C 76.828125 67.867188 77.210938 69.210938 77.550781 70.382812 C 78.117188 72.359375 79.164062 73.484375 83.34375 76.625 C 83.945312 77.074219 84.757812 76.011719 87.539062 71.152344 L 88.742188 69.054688 L 87.277344 67.527344 C 85.726562 65.910156 85.355469 65.859375 78.851562 66.367188 M 41.25 69.832031 C 38.773438 71.089844 36.671875 72.1875 36.574219 72.277344 C 36.476562 72.363281 36.941406 74.082031 37.601562 76.09375 C 38.789062 79.675781 38.871094 79.78125 41.78125 81.359375 C 43.414062 82.246094 44.984375 82.976562 45.265625 82.984375 C 45.550781 82.992188 46.5 81.554688 47.371094 79.785156 L 48.957031 76.570312 L 47.957031 72.910156 C 46.519531 67.648438 46.46875 67.496094 46.089844 67.527344 C 45.902344 67.539062 43.726562 68.578125 41.25 69.832031 M 69.980469 71.277344 C 68.570312 73.367188 67.488281 75.144531 67.582031 75.21875 C 67.675781 75.292969 69.550781 75.628906 71.75 75.964844 C 73.949219 76.304688 76.3125 76.703125 77 76.851562 C 78.167969 77.109375 78.132812 77.015625 76.472656 75.4375 C 75.148438 74.179688 74.523438 73.011719 74.011719 70.851562 C 73.636719 69.257812 73.152344 67.84375 72.941406 67.710938 C 72.726562 67.578125 71.394531 69.183594 69.980469 71.277344 M 17.5 70.890625 C 17.5 71.457031 19.136719 79.730469 19.285156 79.917969 C 19.359375 80.011719 21.285156 78.714844 23.5625 77.042969 L 27.710938 74 L 25.5625 74 C 24.015625 74 22.59375 73.515625 20.460938 72.265625 C 18.832031 71.3125 17.5 70.691406 17.5 70.890625 M 89.089844 75.085938 C 87.917969 77.03125 87.023438 78.679688 87.105469 78.746094 C 87.34375 78.941406 95.226562 81.5 95.589844 81.5 C 95.972656 81.5 94.382812 75.644531 93.601562 74.191406 C 93.320312 73.667969 92.671875 72.859375 92.15625 72.390625 C 91.257812 71.578125 91.128906 71.691406 89.089844 75.085938 M 27.375 78.386719 L 21.5 82.703125 L 23.097656 84.351562 C 23.976562 85.257812 24.875 86 25.09375 86 C 26.101562 86 35.535156 80.308594 35.351562 79.8125 C 35.238281 79.503906 34.757812 78.070312 34.28125 76.625 C 33.808594 75.179688 33.382812 74.015625 33.335938 74.035156 C 33.289062 74.058594 30.605469 76.015625 27.375 78.386719 M 67.097656 81.359375 L 67.25 83.71875 L 72.96875 85.351562 C 76.113281 86.246094 78.726562 86.929688 78.78125 86.867188 C 79.328125 86.214844 81.511719 81.34375 81.332031 81.167969 C 81.035156 80.867188 69.625 79 68.097656 79 C 67.035156 79 66.957031 79.183594 67.097656 81.359375 M 83.234375 85.527344 L 81.460938 89.054688 L 82.578125 92.527344 C 83.84375 96.457031 83.84375 96.457031 88.226562 94.84375 C 91.113281 93.78125 91.273438 93.625 93.589844 89.605469 C 95.183594 86.835938 95.773438 85.382812 95.363281 85.230469 C 93.039062 84.371094 85.738281 82 85.414062 82 C 85.191406 82 84.214844 83.585938 83.234375 85.527344 M 33.570312 85.359375 C 31.292969 86.605469 29.609375 87.804688 29.839844 88.027344 C 30.066406 88.246094 31.382812 88.871094 32.765625 89.414062 L 35.28125 90.398438 L 38.445312 88.496094 C 42.972656 85.773438 42.976562 85.757812 40.167969 84.335938 L 37.71875 83.09375 L 33.570312 85.359375 M 69.761719 89.8125 C 70.214844 90.878906 70.773438 92.222656 71.003906 92.804688 C 71.324219 93.613281 72.378906 94.097656 75.574219 94.898438 C 77.855469 95.472656 79.808594 95.855469 79.914062 95.753906 C 80.015625 95.648438 79.726562 94.429688 79.265625 93.042969 C 78.429688 90.53125 78.414062 90.515625 75.089844 89.539062 C 73.253906 89 71.117188 88.402344 70.34375 88.214844 L 68.933594 87.875 L 69.761719 89.8125 "/>
</g>
</svg>
