<?xml version="1.0" encoding="UTF-8"?>
<svg xmlns="http://www.w3.org/2000/svg" xmlns:xlink="http://www.w3.org/1999/xlink" width="24px" height="24px" viewBox="0 0 24 24" version="1.1">
<g id="surface1">
<path style=" stroke:none;fill-rule:evenodd;fill:rgb(0%,0%,0%);fill-opacity:1;" d="M 10.207031 3.601562 C 9.722656 3.714844 9.480469 3.996094 9.480469 4.445312 C 9.480469 4.6875 9.597656 4.847656 9.957031 5.085938 C 10.644531 5.539062 11.070312 6.238281 11.125 6.996094 C 11.1875 7.859375 11.117188 7.925781 10.320312 7.777344 C 9.46875 7.617188 8.058594 7.722656 7.542969 7.984375 C 6.53125 8.492188 6 9.425781 6 10.6875 C 6 11.8125 7.234375 15.886719 8.101562 17.617188 C 8.742188 18.894531 9.277344 19.59375 9.976562 20.066406 C 10.421875 20.367188 10.578125 20.410156 11.039062 20.351562 C 11.734375 20.269531 11.695312 20.265625 12.566406 20.355469 C 13.613281 20.457031 14.09375 20.339844 14.574219 19.855469 C 14.855469 19.578125 15.144531 19.417969 15.480469 19.367188 C 16.085938 19.269531 16.660156 18.898438 16.9375 18.417969 C 17.277344 17.832031 17.734375 16.078125 17.886719 14.75 C 18.0625 13.253906 17.96875 11.457031 17.628906 9.792969 C 17.292969 8.140625 17.167969 7.882812 16.480469 7.480469 C 15.953125 7.171875 15.796875 7.140625 14.761719 7.140625 C 14.132812 7.140625 13.425781 7.179688 13.191406 7.230469 L 12.765625 7.324219 L 12.558594 6.445312 C 12.277344 5.253906 11.679688 4.097656 11.171875 3.753906 C 10.949219 3.601562 10.730469 3.484375 10.691406 3.492188 C 10.652344 3.5 10.433594 3.546875 10.207031 3.601562 "/>
</g>
</svg>
