<?xml version="1.0" encoding="UTF-8"?>
<svg xmlns="http://www.w3.org/2000/svg" xmlns:xlink="http://www.w3.org/1999/xlink" width="100px" height="100px" viewBox="0 0 100 100" version="1.1">
<g id="surface1">
<path style=" stroke:none;fill-rule:evenodd;fill:rgb(0%,0%,0%);fill-opacity:1;" d="M 42.523438 15.007812 C 40.507812 15.484375 39.5 16.65625 39.5 18.527344 C 39.5 19.535156 39.996094 20.195312 41.496094 21.1875 C 44.347656 23.074219 46.132812 26 46.359375 29.15625 C 46.613281 32.738281 46.328125 33.015625 43 32.398438 C 39.445312 31.742188 33.578125 32.179688 31.433594 33.261719 C 27.21875 35.390625 25 39.273438 25 44.535156 C 25 49.226562 30.148438 66.199219 33.757812 73.410156 C 36.417969 78.722656 38.65625 81.644531 41.566406 83.605469 C 43.429688 84.859375 44.082031 85.035156 46 84.800781 C 48.902344 84.449219 48.726562 84.449219 52.359375 84.808594 C 56.71875 85.242188 58.71875 84.746094 60.730469 82.734375 C 61.894531 81.570312 63.105469 80.914062 64.5 80.691406 C 67.023438 80.289062 69.410156 78.738281 70.566406 76.75 C 71.996094 74.292969 73.886719 66.996094 74.53125 61.457031 C 75.253906 55.230469 74.863281 47.738281 73.453125 40.800781 C 72.058594 33.925781 71.527344 32.851562 68.671875 31.171875 C 66.46875 29.878906 65.820312 29.75 61.5 29.75 C 58.886719 29.75 55.949219 29.921875 54.96875 30.128906 L 53.183594 30.511719 L 52.324219 26.863281 C 51.152344 21.890625 48.671875 17.066406 46.550781 15.640625 C 45.617188 15.015625 44.714844 14.523438 44.550781 14.550781 C 44.386719 14.578125 43.472656 14.785156 42.523438 15.007812 "/>
</g>
</svg>
