<?xml version="1.0" encoding="UTF-8"?>
<svg xmlns="http://www.w3.org/2000/svg" xmlns:xlink="http://www.w3.org/1999/xlink" width="100px" height="100px" viewBox="0 0 100 100" version="1.1">
<g id="surface1">
<path style=" stroke:none;fill-rule:evenodd;fill:rgb(0%,0%,0%);fill-opacity:1;" d="M 56.398438 1.023438 C 51.800781 3.449219 48 13.863281 48 24.035156 C 48 26.046875 47.839844 26.5 47.125 26.503906 C 45.609375 26.511719 41.191406 28.832031 39.113281 30.707031 L 37.117188 32.511719 L 34.449219 31.132812 C 32.175781 29.953125 31.195312 29.753906 27.769531 29.765625 C 22.753906 29.78125 19.238281 31.320312 15.78125 35.015625 C 5.84375 45.644531 6.171875 71.445312 16.449219 87.105469 C 19.320312 91.484375 23.199219 95.203125 26.332031 96.589844 C 29.398438 97.945312 34.769531 97.726562 36.886719 96.164062 C 38.300781 95.117188 38.328125 95.117188 39.53125 96.070312 C 40.203125 96.601562 41.875 97.644531 43.25 98.386719 C 45.40625 99.550781 46.332031 99.734375 50 99.734375 C 53.667969 99.734375 54.59375 99.550781 56.75 98.386719 C 58.125 97.644531 59.796875 96.601562 60.46875 96.070312 C 61.675781 95.113281 61.699219 95.117188 63.136719 96.179688 C 64.34375 97.070312 65.269531 97.246094 68.667969 97.238281 C 73.460938 97.222656 74.882812 96.613281 78.847656 92.863281 C 92.914062 79.5625 95.898438 47.503906 84.234375 35.035156 C 80.761719 31.320312 77.253906 29.78125 72.230469 29.765625 C 68.804688 29.753906 67.824219 29.953125 65.550781 31.132812 L 62.882812 32.511719 L 60.886719 30.707031 C 58.792969 28.816406 54.386719 26.511719 52.84375 26.503906 C 52.023438 26.5 51.96875 26.160156 52.269531 22.875 C 52.796875 17.058594 53.953125 11.984375 55.511719 8.605469 C 56.679688 6.082031 57.308594 5.320312 58.71875 4.730469 C 60.257812 4.089844 60.738281 4.085938 62.574219 4.71875 C 65.234375 5.636719 66.628906 5.042969 66.40625 3.089844 C 66.078125 0.277344 60.136719 -0.953125 56.398438 1.023438 M 45.125 31.757812 C 39.921875 34.398438 35.59375 41.117188 33.175781 50.316406 C 32.078125 54.476562 31.867188 56.386719 31.832031 62.5 C 31.753906 75.113281 34.953125 85.042969 41.144531 91.386719 C 43.941406 94.25 46.652344 95.503906 50.03125 95.488281 C 53.472656 95.476562 56.148438 94.242188 58.84375 91.433594 C 69.339844 80.492188 71.511719 56.957031 63.453125 41.46875 C 59.738281 34.324219 55.917969 31.109375 50.625 30.664062 C 48.207031 30.460938 47.332031 30.636719 45.125 31.757812 M 22.453125 35.242188 C 16.242188 38.476562 12.980469 46.195312 12.9375 57.757812 C 12.910156 64.429688 13.46875 68.253906 15.34375 74.226562 C 17.902344 82.398438 23.074219 90.234375 27.195312 92.191406 C 29.125 93.105469 34.023438 93.277344 34.839844 92.460938 C 35.226562 92.074219 34.898438 91.121094 33.6875 89.113281 C 25.628906 75.730469 25.023438 54.496094 32.277344 39.746094 C 33.222656 37.816406 34 36.101562 34 35.925781 C 34 35.753906 33.234375 35.25 32.300781 34.808594 C 29.734375 33.589844 25.242188 33.789062 22.453125 35.242188 M 67.761719 34.78125 C 66.945312 35.207031 66.183594 35.648438 66.070312 35.761719 C 65.957031 35.875 66.671875 37.605469 67.65625 39.609375 C 74.242188 53 74.484375 71.859375 68.242188 85.367188 C 67.316406 87.371094 66.105469 89.648438 65.550781 90.429688 C 64.164062 92.375 64.949219 93 68.773438 93 C 71.367188 93 72.160156 92.773438 73.828125 91.566406 C 78.214844 88.390625 82.238281 81.945312 84.65625 74.226562 C 86.527344 68.257812 87.074219 64.523438 87.050781 57.800781 C 87.011719 46.089844 83.742188 38.414062 77.4375 35.21875 C 74.585938 33.773438 70.085938 33.570312 67.761719 34.78125 "/>
</g>
</svg>
