<?xml version="1.0" encoding="UTF-8"?>
<svg xmlns="http://www.w3.org/2000/svg" xmlns:xlink="http://www.w3.org/1999/xlink" width="100px" height="100px" viewBox="0 0 100 100" version="1.1">
<g id="surface1">
<path style=" stroke:none;fill-rule:evenodd;fill:rgb(0%,0%,0%);fill-opacity:1;" d="M 48 4.558594 C 43.550781 11.199219 40.46875 14.972656 36.546875 18.597656 C 32.167969 22.644531 27.964844 25.101562 22.425781 26.851562 C 19.992188 27.621094 18 28.449219 18 28.691406 C 18 28.933594 18.757812 29.84375 19.679688 30.71875 C 21.714844 32.636719 25.035156 33.765625 31.71875 34.808594 C 38.699219 35.902344 38.59375 35.828125 35.742188 37.609375 C 30.394531 40.945312 21.5625 43.960938 13.371094 45.25 C 11.613281 45.527344 11.527344 45.621094 12.078125 46.648438 C 14.039062 50.3125 21.855469 55.695312 27.15625 57.027344 L 29.566406 57.636719 L 27.96875 59.28125 C 26.136719 61.175781 21.878906 63.527344 18.25 64.65625 C 14.066406 65.953125 11.03125 66.125 6.992188 65.28125 C 4.933594 64.851562 3.164062 64.5 3.0625 64.5 C 2.550781 64.5 3.628906 67.777344 4.597656 69.167969 C 8.535156 74.8125 13.648438 79.324219 19.347656 82.183594 C 22.746094 83.890625 29.714844 85.890625 33.675781 86.296875 L 36.828125 86.621094 L 36.375 89.433594 C 35.695312 93.648438 36.117188 97.339844 37.433594 98.65625 C 38.476562 99.699219 38.988281 99.757812 48.886719 99.890625 C 60.425781 100.046875 61.144531 99.898438 62.660156 96.992188 C 63.414062 95.542969 63.515625 94.527344 63.269531 90.9375 C 62.945312 86.195312 63.054688 86.023438 66.546875 86.007812 C 71.445312 85.980469 81.777344 81.746094 86.804688 77.699219 C 92.035156 73.496094 97 66.988281 97 64.34375 C 97 63.308594 96.347656 63.289062 93.203125 64.246094 C 91.855469 64.652344 89.882812 64.992188 88.820312 64.996094 C 85.996094 65.003906 81.15625 63.632812 77.898438 61.902344 C 74.953125 60.335938 71 57.242188 71 56.5 C 71 56.269531 72.179688 55.695312 73.625 55.226562 C 78 53.808594 83.023438 50.925781 85.582031 48.371094 C 86.910156 47.039062 88 45.636719 88 45.25 C 88 44.816406 87.273438 44.4375 86.125 44.269531 C 78.023438 43.078125 68.949219 40.261719 64 37.398438 L 61.25 35.804688 L 64.988281 35.167969 C 70.011719 34.308594 75.296875 32.683594 77.839844 31.210938 C 79.789062 30.078125 82 27.839844 82 26.992188 C 82 26.785156 80.929688 26.351562 79.625 26.023438 C 75.992188 25.109375 71.828125 22.667969 68.152344 19.300781 C 65.5 16.875 57.902344 8.226562 51.949219 0.859375 C 51.175781 -0.09375 51.03125 0.0429688 48 4.558594 M 49.085938 9.15625 C 46.835938 11.554688 48.550781 15.5 51.839844 15.5 C 53.390625 15.5 55.5 13.390625 55.5 11.839844 C 55.5 8.492188 51.34375 6.753906 49.085938 9.15625 M 49.710938 20.914062 C 45.207031 23.742188 47.078125 31 52.3125 31 C 55.867188 31 58 28.839844 58 25.234375 C 58 21.316406 53.117188 18.773438 49.710938 20.914062 M 63.179688 21.496094 C 60.253906 22.675781 59.605469 26.683594 61.960938 29.039062 C 65.648438 32.722656 71.476562 28.773438 69.476562 23.945312 C 68.492188 21.5625 65.699219 20.480469 63.179688 21.496094 M 33.09375 24.25 C 31.203125 25.839844 30.785156 27.519531 31.722656 29.765625 C 33.015625 32.859375 36.816406 33.65625 39.347656 31.367188 C 41.675781 29.265625 41.191406 25.140625 38.453125 23.726562 C 36.414062 22.671875 34.777344 22.832031 33.09375 24.25 M 40.554688 37.699219 C 39.898438 38.0625 39.0625 38.898438 38.699219 39.554688 C 36.148438 44.15625 42.277344 48.722656 46 45 C 48.160156 42.839844 47.625 39.105469 44.953125 37.726562 C 43.238281 36.839844 42.117188 36.832031 40.554688 37.699219 M 56.046875 38.664062 C 52.578125 39.855469 51.160156 44.460938 53.355469 47.414062 C 55.320312 50.0625 60.066406 50.414062 62.191406 48.066406 C 66.222656 43.609375 61.71875 36.71875 56.046875 38.664062 M 71.65625 43.230469 C 68.226562 44.722656 67.636719 49.265625 70.554688 51.71875 C 72.566406 53.410156 74.933594 53.410156 76.945312 51.71875 C 79.914062 49.222656 79.265625 44.6875 75.734375 43.210938 C 73.691406 42.359375 73.667969 42.359375 71.65625 43.230469 M 28.660156 43.804688 C 27.773438 44.246094 26.703125 45.363281 26.238281 46.34375 C 23.96875 51.128906 28.875 56.03125 33.664062 53.757812 C 35.390625 52.9375 37 50.523438 37 48.75 C 37 47.027344 35.390625 44.5625 33.761719 43.789062 C 31.691406 42.808594 30.679688 42.8125 28.660156 43.804688 M 59.226562 54.226562 C 58.453125 55 58 56.027344 58 57 C 58 57.972656 58.453125 59 59.226562 59.773438 C 60 60.546875 61.027344 61 62 61 C 62.972656 61 64 60.546875 64.773438 59.773438 C 65.546875 59 66 57.972656 66 57 C 66 56.027344 65.546875 55 64.773438 54.226562 C 64 53.453125 62.972656 53 62 53 C 61.027344 53 60 53.453125 59.226562 54.226562 M 42.152344 55.039062 C 40.652344 55.78125 39.757812 56.683594 39.027344 58.199219 C 37.734375 60.863281 37.738281 62.140625 39.03125 64.8125 C 40.117188 67.058594 43.117188 69 45.5 69 C 47.882812 69 50.882812 67.058594 51.96875 64.8125 C 52.535156 63.640625 53 62.152344 53 61.5 C 53 59.117188 51.058594 56.117188 48.8125 55.03125 C 46.132812 53.734375 44.785156 53.734375 42.152344 55.039062 M 66.75 63.445312 C 58.074219 67.449219 60.726562 79.984375 70.25 79.984375 C 79.589844 79.984375 82.316406 67.320312 73.808594 63.457031 C 71.210938 62.277344 69.285156 62.273438 66.75 63.445312 M 24.226562 64.703125 C 22.246094 65.566406 20.171875 68.054688 19.464844 70.417969 C 17.71875 76.25 23.785156 82.171875 29.785156 80.488281 C 32.105469 79.839844 34.636719 77.546875 35.46875 75.34375 C 37.984375 68.675781 30.773438 61.851562 24.226562 64.703125 M 46.660156 72.804688 C 45.769531 73.246094 44.703125 74.363281 44.234375 75.351562 C 41.996094 80.074219 46.9375 85 51.664062 82.757812 C 53.390625 81.9375 55 79.523438 55 77.75 C 55 76.027344 53.390625 73.5625 51.761719 72.789062 C 49.691406 71.808594 48.679688 71.8125 46.660156 72.804688 "/>
</g>
</svg>
