<?xml version="1.0" encoding="UTF-8"?>
<svg xmlns="http://www.w3.org/2000/svg" xmlns:xlink="http://www.w3.org/1999/xlink" width="100px" height="100px" viewBox="0 0 100 100" version="1.1">
<g id="surface1">
<path style=" stroke:none;fill-rule:evenodd;fill:rgb(0%,0%,0%);fill-opacity:1;" d="M 38.726562 13.203125 C 36.917969 13.992188 34.625 16.574219 34.1875 18.320312 C 33.71875 20.183594 34.308594 23.5 35.363281 24.957031 C 36.890625 27.0625 40.589844 28.65625 43.003906 28.25 C 46.835938 27.601562 49.5 24.304688 49.5 20.210938 C 49.5 14.648438 43.847656 10.972656 38.726562 13.203125 M 38.199219 16.699219 C 36.148438 18.753906 35.867188 21.5625 37.507812 23.648438 C 38.71875 25.1875 41.410156 26.167969 43.199219 25.71875 C 45.246094 25.203125 47 22.761719 47 20.429688 C 47 17.914062 46.359375 16.710938 44.511719 15.753906 C 42.070312 14.492188 40.113281 14.785156 38.199219 16.699219 M 47.75 27.472656 C 43.464844 29.21875 41.808594 35.75 44.8125 39.070312 C 45.960938 40.335938 45.265625 40.988281 42.167969 41.554688 C 39.480469 42.046875 38 43.398438 38 45.363281 C 38 46.207031 37.308594 47.230469 35.875 48.5 L 33.75 50.382812 L 33.578125 55.207031 L 33.402344 60.027344 L 31.742188 60.722656 C 27.78125 62.375 28.183594 67.453125 32.375 68.726562 C 33.378906 69.03125 33.5 69.390625 33.5 72.050781 C 33.5 74.90625 33.453125 75.011719 32.476562 74.488281 C 31.910156 74.183594 31.199219 73.390625 30.894531 72.71875 C 30.199219 71.191406 28.5 71.070312 28.5 72.550781 C 28.5 73.78125 31.539062 77 32.699219 77 C 33.382812 77 33.5 77.785156 33.5 82.398438 C 33.5 87.820312 33.898438 89.199219 35.3125 88.65625 C 35.839844 88.453125 36 87.074219 36 82.695312 C 36 77.886719 36.121094 77 36.773438 77 C 39.15625 77 41.5 74.417969 41.5 71.792969 C 41.5 70.3125 39.351562 68.15625 37.464844 67.742188 C 36.085938 67.4375 36 67.277344 36 64.921875 C 36 62.820312 36.136719 62.453125 36.871094 62.59375 C 37.351562 62.6875 38.027344 63.355469 38.375 64.082031 C 38.835938 65.042969 39.28125 65.332031 40.003906 65.144531 C 40.550781 65 41 64.621094 41 64.304688 C 41 63.183594 39.351562 61.386719 37.683594 60.691406 L 36 59.988281 L 36 55.832031 C 36 50.390625 36.765625 49.539062 42.101562 49.011719 C 44.179688 48.808594 46.636719 48.199219 47.8125 47.597656 L 49.875 46.542969 L 50.183594 48.398438 C 51.246094 54.839844 50.085938 67.203125 47.472656 77.28125 C 45.65625 84.277344 45.640625 85.144531 47.316406 86.464844 C 48.925781 87.730469 50.539062 87.785156 51.953125 86.625 C 53.011719 85.757812 54.921875 79.179688 56.53125 70.859375 C 56.894531 68.992188 57.34375 67.753906 57.535156 68.109375 C 57.722656 68.460938 58.40625 72.460938 59.054688 77 C 60.039062 83.925781 60.40625 85.429688 61.339844 86.375 C 62.742188 87.789062 64.472656 87.808594 66.226562 86.429688 C 67.453125 85.464844 67.5625 85.128906 67.308594 83.054688 C 67.15625 81.785156 66.808594 73.210938 66.535156 64 C 66.003906 45.953125 65.554688 42.414062 63.15625 37.507812 C 61.554688 34.242188 58.121094 30.398438 55.027344 28.421875 C 52.753906 26.96875 49.898438 26.59375 47.75 27.472656 M 47.652344 30.386719 C 45.488281 32.085938 45.003906 36.050781 46.785156 37.527344 C 47.378906 38.023438 47.683594 37.695312 48.550781 35.601562 C 49.84375 32.492188 51.828125 31.367188 53.945312 32.554688 C 54.660156 32.957031 55.535156 33.882812 55.886719 34.609375 C 56.425781 35.734375 56.375 36.316406 55.535156 38.53125 C 54.992188 39.960938 53.980469 41.988281 53.285156 43.035156 C 52.097656 44.832031 52.054688 45.113281 52.570312 47.847656 C 53.261719 51.519531 52.824219 63.808594 51.804688 69.363281 C 51.390625 71.625 50.453125 75.734375 49.726562 78.496094 C 48.363281 83.664062 48.386719 85.195312 49.820312 84.910156 C 50.851562 84.710938 51.359375 82.976562 54.265625 69.742188 C 55.53125 63.972656 56.738281 59.074219 56.949219 58.859375 C 57.160156 58.644531 57.667969 58.597656 58.078125 58.753906 C 58.640625 58.96875 59.320312 62.265625 60.792969 71.894531 C 62.601562 83.746094 62.832031 84.75 63.753906 84.75 C 64.617188 84.75 64.734375 84.449219 64.644531 82.5 C 64.585938 81.261719 64.328125 72.824219 64.066406 63.75 C 63.464844 42.664062 62.609375 38.859375 57.222656 33.320312 C 53.566406 29.5625 50.066406 28.488281 47.652344 30.386719 M 50.527344 37.625 C 48.8125 41.144531 46.351562 43.316406 43.558594 43.777344 C 40.777344 44.238281 40.5 44.394531 40.5 45.484375 C 40.5 47.105469 44.105469 46.859375 47.308594 45.023438 C 51.035156 42.886719 54.515625 37.050781 53.269531 35.03125 C 52.621094 33.984375 52.027344 34.546875 50.527344 37.625 M 31.5 63.5 C 30.863281 64.691406 31.625 66.5 32.765625 66.5 C 33.289062 66.5 33.5 65.921875 33.5 64.5 C 33.5 62.273438 32.441406 61.746094 31.5 63.5 M 36 72.5 C 36 75.117188 36.550781 75.609375 38.085938 74.375 C 39.402344 73.3125 39.550781 72.050781 38.488281 70.988281 C 36.75 69.25 36 69.703125 36 72.5 "/>
</g>
</svg>
