<?xml version="1.0" encoding="UTF-8"?>
<svg xmlns="http://www.w3.org/2000/svg" xmlns:xlink="http://www.w3.org/1999/xlink" width="24px" height="24px" viewBox="0 0 24 24" version="1.1">
<g id="surface1">
<path style=" stroke:none;fill-rule:evenodd;fill:rgb(0%,0%,0%);fill-opacity:1;" d="M 11.519531 1.09375 C 10.453125 2.6875 9.714844 3.59375 8.769531 4.464844 C 7.71875 5.433594 6.710938 6.023438 5.382812 6.445312 C 4.796875 6.628906 4.320312 6.828125 4.320312 6.886719 C 4.320312 6.945312 4.5 7.164062 4.722656 7.371094 C 5.210938 7.832031 6.007812 8.105469 7.613281 8.355469 C 9.289062 8.617188 9.261719 8.597656 8.578125 9.027344 C 7.292969 9.828125 5.175781 10.550781 3.207031 10.859375 C 2.789062 10.925781 2.765625 10.949219 2.898438 11.195312 C 3.371094 12.074219 5.246094 13.367188 6.519531 13.6875 L 7.09375 13.832031 L 6.710938 14.226562 C 6.273438 14.683594 5.25 15.246094 4.378906 15.515625 C 3.375 15.828125 2.648438 15.871094 1.679688 15.667969 C 1.183594 15.566406 0.757812 15.480469 0.734375 15.480469 C 0.613281 15.480469 0.871094 16.265625 1.101562 16.601562 C 2.046875 17.953125 3.273438 19.039062 4.644531 19.722656 C 5.460938 20.132812 7.132812 20.613281 8.082031 20.710938 L 8.839844 20.789062 L 8.730469 21.464844 C 8.566406 22.476562 8.667969 23.363281 8.984375 23.675781 C 9.234375 23.929688 9.355469 23.941406 11.734375 23.972656 C 14.503906 24.011719 14.675781 23.976562 15.039062 23.277344 C 15.21875 22.929688 15.246094 22.6875 15.183594 21.824219 C 15.105469 20.6875 15.132812 20.644531 15.972656 20.640625 C 17.148438 20.636719 19.625 19.617188 20.832031 18.648438 C 22.089844 17.640625 23.28125 16.078125 23.28125 15.441406 C 23.28125 15.195312 23.125 15.191406 22.367188 15.417969 C 22.046875 15.515625 21.570312 15.597656 21.316406 15.597656 C 20.640625 15.601562 19.476562 15.273438 18.695312 14.855469 C 17.988281 14.480469 17.039062 13.738281 17.039062 13.558594 C 17.039062 13.503906 17.324219 13.367188 17.671875 13.253906 C 18.71875 12.914062 19.925781 12.222656 20.539062 11.609375 C 20.859375 11.289062 21.121094 10.953125 21.121094 10.859375 C 21.121094 10.757812 20.945312 10.664062 20.671875 10.625 C 18.726562 10.339844 16.546875 9.664062 15.359375 8.976562 L 14.699219 8.59375 L 15.597656 8.441406 C 16.804688 8.234375 18.070312 7.84375 18.679688 7.492188 C 19.148438 7.21875 19.679688 6.679688 19.679688 6.476562 C 19.679688 6.429688 19.421875 6.324219 19.109375 6.246094 C 18.238281 6.027344 17.238281 5.441406 16.355469 4.632812 C 15.71875 4.050781 13.894531 1.972656 12.46875 0.207031 C 12.28125 -0.0234375 12.246094 0.0117188 11.519531 1.09375 M 11.78125 2.199219 C 11.242188 2.773438 11.652344 3.71875 12.441406 3.71875 C 12.8125 3.71875 13.320312 3.214844 13.320312 2.839844 C 13.320312 2.039062 12.324219 1.621094 11.78125 2.199219 M 11.929688 5.019531 C 10.851562 5.699219 11.300781 7.441406 12.554688 7.441406 C 13.410156 7.441406 13.921875 6.921875 13.921875 6.054688 C 13.921875 5.117188 12.75 4.503906 11.929688 5.019531 M 15.164062 5.160156 C 14.460938 5.441406 14.304688 6.402344 14.871094 6.96875 C 15.753906 7.855469 17.15625 6.90625 16.675781 5.746094 C 16.4375 5.175781 15.769531 4.914062 15.164062 5.160156 M 7.941406 5.820312 C 7.488281 6.199219 7.386719 6.605469 7.613281 7.144531 C 7.925781 7.886719 8.835938 8.078125 9.445312 7.527344 C 10.003906 7.023438 9.886719 6.035156 9.230469 5.695312 C 8.738281 5.441406 8.347656 5.480469 7.941406 5.820312 M 9.734375 9.046875 C 9.574219 9.136719 9.375 9.335938 9.289062 9.492188 C 8.675781 10.597656 10.144531 11.695312 11.039062 10.800781 C 11.558594 10.28125 11.429688 9.386719 10.789062 9.054688 C 10.378906 8.839844 10.109375 8.839844 9.734375 9.046875 M 13.453125 9.28125 C 12.617188 9.566406 12.277344 10.671875 12.804688 11.378906 C 13.277344 12.015625 14.414062 12.097656 14.925781 11.535156 C 15.894531 10.464844 14.8125 8.8125 13.453125 9.28125 M 17.199219 10.375 C 16.375 10.734375 16.234375 11.824219 16.933594 12.414062 C 17.414062 12.820312 17.984375 12.820312 18.464844 12.414062 C 19.179688 11.8125 19.023438 10.726562 18.175781 10.371094 C 17.6875 10.164062 17.679688 10.164062 17.199219 10.375 M 6.878906 10.511719 C 6.664062 10.617188 6.410156 10.886719 6.296875 11.121094 C 5.753906 12.269531 6.929688 13.445312 8.078125 12.902344 C 8.492188 12.707031 8.878906 12.125 8.878906 11.699219 C 8.878906 11.285156 8.492188 10.695312 8.101562 10.507812 C 7.605469 10.273438 7.363281 10.273438 6.878906 10.511719 M 14.214844 13.015625 C 14.027344 13.199219 13.921875 13.445312 13.921875 13.679688 C 13.921875 13.914062 14.027344 14.160156 14.214844 14.34375 C 14.398438 14.53125 14.644531 14.640625 14.878906 14.640625 C 15.113281 14.640625 15.359375 14.53125 15.546875 14.34375 C 15.730469 14.160156 15.839844 13.914062 15.839844 13.679688 C 15.839844 13.445312 15.730469 13.199219 15.546875 13.015625 C 15.359375 12.828125 15.113281 12.71875 14.878906 12.71875 C 14.644531 12.71875 14.398438 12.828125 14.214844 13.015625 M 10.117188 13.210938 C 9.757812 13.386719 9.542969 13.605469 9.367188 13.96875 C 9.054688 14.605469 9.058594 14.914062 9.367188 15.554688 C 9.628906 16.09375 10.347656 16.558594 10.921875 16.558594 C 11.492188 16.558594 12.210938 16.09375 12.472656 15.554688 C 12.609375 15.273438 12.71875 14.917969 12.71875 14.761719 C 12.71875 14.1875 12.253906 13.46875 11.714844 13.207031 C 11.070312 12.894531 10.75 12.894531 10.117188 13.210938 M 16.019531 15.226562 C 13.9375 16.1875 14.574219 19.195312 16.859375 19.195312 C 19.101562 19.195312 19.757812 16.15625 17.714844 15.230469 C 17.089844 14.945312 16.628906 14.945312 16.019531 15.226562 M 5.8125 15.527344 C 5.339844 15.734375 4.839844 16.332031 4.671875 16.898438 C 4.253906 18.300781 5.707031 19.722656 7.148438 19.316406 C 7.707031 19.160156 8.3125 18.609375 8.511719 18.082031 C 9.117188 16.480469 7.386719 14.84375 5.8125 15.527344 M 11.199219 17.472656 C 10.984375 17.578125 10.730469 17.847656 10.617188 18.085938 C 10.078125 19.21875 11.265625 20.398438 12.398438 19.863281 C 12.8125 19.664062 13.199219 19.085938 13.199219 18.660156 C 13.199219 18.246094 12.8125 17.65625 12.421875 17.46875 C 11.925781 17.234375 11.683594 17.234375 11.199219 17.472656 "/>
</g>
</svg>
