<?xml version="1.0" encoding="UTF-8"?>
<svg xmlns="http://www.w3.org/2000/svg" xmlns:xlink="http://www.w3.org/1999/xlink" width="24px" height="24px" viewBox="0 0 24 24" version="1.1">
<g id="surface1">
<path style=" stroke:none;fill-rule:evenodd;fill:rgb(0%,0%,0%);fill-opacity:1;" d="M 9.292969 3.167969 C 8.859375 3.359375 8.308594 3.976562 8.207031 4.394531 C 8.09375 4.84375 8.234375 5.640625 8.488281 5.988281 C 8.855469 6.496094 9.742188 6.878906 10.320312 6.78125 C 11.242188 6.625 11.878906 5.832031 11.878906 4.851562 C 11.878906 3.515625 10.523438 2.632812 9.292969 3.167969 M 9.167969 4.007812 C 8.675781 4.5 8.609375 5.175781 9 5.675781 C 9.292969 6.042969 9.9375 6.28125 10.367188 6.171875 C 10.859375 6.050781 11.28125 5.460938 11.28125 4.902344 C 11.28125 4.300781 11.125 4.011719 10.683594 3.78125 C 10.097656 3.476562 9.628906 3.546875 9.167969 4.007812 M 11.460938 6.59375 C 10.429688 7.011719 10.035156 8.582031 10.753906 9.378906 C 11.03125 9.679688 10.863281 9.835938 10.121094 9.972656 C 9.476562 10.089844 9.121094 10.414062 9.121094 10.886719 C 9.121094 11.089844 8.953125 11.335938 8.609375 11.640625 L 8.101562 12.09375 L 8.015625 14.40625 L 7.617188 14.574219 C 6.667969 14.96875 6.765625 16.1875 7.769531 16.496094 C 8.011719 16.566406 8.039062 16.652344 8.039062 17.292969 C 8.039062 17.976562 8.027344 18.003906 7.792969 17.875 C 7.660156 17.804688 7.488281 17.613281 7.414062 17.453125 C 7.246094 17.085938 6.839844 17.058594 6.839844 17.410156 C 6.839844 17.707031 7.570312 18.480469 7.847656 18.480469 C 8.011719 18.480469 8.039062 18.667969 8.039062 19.777344 C 8.039062 21.078125 8.136719 21.40625 8.476562 21.277344 C 8.601562 21.230469 8.640625 20.898438 8.640625 19.847656 C 8.640625 18.691406 8.667969 18.480469 8.824219 18.480469 C 9.398438 18.480469 9.960938 17.859375 9.960938 17.230469 C 9.960938 16.875 9.445312 16.359375 8.992188 16.257812 C 8.660156 16.183594 8.640625 16.148438 8.640625 15.582031 C 8.640625 15.078125 8.671875 14.988281 8.847656 15.023438 C 8.964844 15.042969 9.125 15.207031 9.210938 15.378906 C 9.320312 15.609375 9.425781 15.679688 9.601562 15.632812 C 9.734375 15.601562 9.839844 15.507812 9.839844 15.433594 C 9.839844 15.164062 9.445312 14.734375 9.042969 14.566406 L 8.640625 14.398438 L 8.640625 13.398438 C 8.640625 12.09375 8.824219 11.890625 10.105469 11.761719 C 10.601562 11.714844 11.191406 11.566406 11.476562 11.421875 L 11.96875 11.171875 L 12.042969 11.613281 C 12.300781 13.160156 12.019531 16.128906 11.394531 18.546875 C 10.957031 20.226562 10.953125 20.433594 11.355469 20.75 C 11.742188 21.054688 12.128906 21.070312 12.46875 20.789062 C 12.722656 20.582031 13.179688 19.003906 13.566406 17.003906 C 13.65625 16.558594 13.761719 16.261719 13.808594 16.347656 C 13.855469 16.429688 14.019531 17.390625 14.171875 18.480469 C 14.410156 20.140625 14.496094 20.503906 14.722656 20.730469 C 15.058594 21.070312 15.472656 21.074219 15.894531 20.742188 C 16.1875 20.511719 16.214844 20.429688 16.152344 19.933594 C 16.117188 19.628906 16.035156 17.570312 15.96875 15.359375 C 15.839844 11.027344 15.734375 10.179688 15.15625 9.003906 C 14.773438 8.21875 13.949219 7.296875 13.207031 6.820312 C 12.660156 6.472656 11.976562 6.382812 11.460938 6.59375 M 11.4375 7.292969 C 10.917969 7.699219 10.800781 8.652344 11.226562 9.007812 C 11.371094 9.125 11.445312 9.046875 11.652344 8.542969 C 11.960938 7.796875 12.4375 7.527344 12.945312 7.8125 C 13.117188 7.910156 13.328125 8.132812 13.414062 8.304688 C 13.542969 8.578125 13.53125 8.714844 13.328125 9.246094 C 13.199219 9.589844 12.953125 10.078125 12.789062 10.328125 C 12.503906 10.761719 12.492188 10.828125 12.617188 11.484375 C 12.78125 12.363281 12.679688 15.3125 12.433594 16.648438 C 12.332031 17.191406 12.109375 18.175781 11.933594 18.839844 C 11.605469 20.078125 11.613281 20.445312 11.957031 20.378906 C 12.203125 20.332031 12.328125 19.914062 13.023438 16.738281 C 13.328125 15.351562 13.617188 14.179688 13.667969 14.125 C 13.71875 14.074219 13.839844 14.0625 13.9375 14.101562 C 14.074219 14.152344 14.238281 14.945312 14.589844 17.253906 C 15.023438 20.097656 15.078125 20.339844 15.300781 20.339844 C 15.507812 20.339844 15.535156 20.269531 15.515625 19.800781 C 15.5 19.503906 15.4375 17.476562 15.375 15.300781 C 15.230469 10.238281 15.027344 9.324219 13.734375 7.996094 C 12.855469 7.09375 12.015625 6.835938 11.4375 7.292969 M 12.125 9.03125 C 11.714844 9.875 11.125 10.394531 10.453125 10.507812 C 9.785156 10.617188 9.71875 10.65625 9.71875 10.917969 C 9.71875 11.304688 10.585938 11.246094 11.355469 10.804688 C 12.246094 10.292969 13.082031 8.890625 12.785156 8.40625 C 12.628906 8.15625 12.488281 8.289062 12.125 9.03125 M 7.558594 15.238281 C 7.40625 15.527344 7.589844 15.960938 7.863281 15.960938 C 7.988281 15.960938 8.039062 15.820312 8.039062 15.480469 C 8.039062 14.945312 7.785156 14.820312 7.558594 15.238281 M 8.640625 17.398438 C 8.640625 18.027344 8.773438 18.148438 9.140625 17.851562 C 9.457031 17.59375 9.492188 17.292969 9.238281 17.039062 C 8.820312 16.621094 8.640625 16.730469 8.640625 17.398438 "/>
</g>
</svg>
