<?xml version="1.0" encoding="UTF-8"?>
<svg xmlns="http://www.w3.org/2000/svg" xmlns:xlink="http://www.w3.org/1999/xlink" width="24px" height="24px" viewBox="0 0 24 24" version="1.1">
<g id="surface1">
<path style=" stroke:none;fill-rule:evenodd;fill:rgb(0%,0%,0%);fill-opacity:1;" d="M 13.222656 4.15625 C 12.480469 5.585938 11.886719 6.839844 11.90625 6.945312 C 11.925781 7.050781 12.09375 7.164062 12.277344 7.199219 C 12.585938 7.253906 12.597656 7.277344 12.4375 7.496094 C 12.285156 7.707031 12.285156 7.777344 12.4375 8.070312 C 12.53125 8.257812 12.660156 8.375 12.722656 8.339844 C 12.785156 8.300781 13.085938 7.941406 13.394531 7.539062 C 14.023438 6.726562 14.011719 6.46875 13.347656 6.359375 L 12.976562 6.300781 L 13.789062 4.765625 C 14.589844 3.257812 14.609375 3.234375 14.789062 3.507812 C 14.988281 3.8125 16.199219 6.203125 16.199219 6.289062 C 16.199219 6.320312 16.023438 6.363281 15.808594 6.382812 C 15.128906 6.449219 15.238281 6.78125 16.449219 8.289062 L 17.546875 9.660156 L 17.023438 9.71875 C 16.125 9.824219 16.222656 10.09375 17.808594 11.847656 L 19.195312 13.378906 L 17.097656 13.414062 L 15 13.445312 L 15 13.996094 C 15 14.4375 15.070312 14.628906 15.359375 14.957031 L 15.71875 15.367188 L 15.71875 14.285156 L 18.355469 14.253906 L 20.988281 14.21875 L 19.375 12.421875 L 17.757812 10.621094 L 18.429688 10.582031 C 18.945312 10.554688 19.085938 10.507812 19.035156 10.378906 C 19 10.289062 18.457031 9.566406 17.828125 8.773438 C 17.195312 7.984375 16.679688 7.304688 16.679688 7.265625 C 16.679688 7.230469 16.867188 7.199219 17.101562 7.199219 C 17.332031 7.199219 17.519531 7.167969 17.519531 7.128906 C 17.519531 7.007812 14.703125 1.566406 14.640625 1.5625 C 14.605469 1.5625 13.96875 2.730469 13.222656 4.15625 M 7.921875 6.507812 C 7.160156 7.972656 6.523438 9.210938 6.503906 9.261719 C 6.480469 9.308594 6.683594 9.363281 6.949219 9.382812 L 7.4375 9.421875 L 6.179688 11.007812 C 5.484375 11.882812 4.921875 12.625 4.921875 12.660156 C 4.921875 12.691406 5.21875 12.71875 5.578125 12.71875 C 5.941406 12.71875 6.238281 12.761719 6.234375 12.808594 C 6.234375 12.859375 5.5 13.710938 4.609375 14.699219 L 2.984375 16.5 L 5.632812 16.53125 L 8.28125 16.566406 L 8.28125 22.570312 L 10.5 22.5 L 10.53125 19.53125 L 10.5625 16.558594 L 13.140625 16.558594 C 14.558594 16.558594 15.71875 16.527344 15.71875 16.488281 C 15.71875 16.453125 14.992188 15.621094 14.101562 14.640625 C 13.210938 13.660156 12.480469 12.832031 12.480469 12.796875 C 12.480469 12.761719 12.796875 12.714844 13.183594 12.695312 L 13.886719 12.660156 L 12.59375 11.039062 L 11.304688 9.421875 L 11.773438 9.382812 C 12.03125 9.363281 12.238281 9.316406 12.238281 9.28125 C 12.238281 9.152344 9.4375 3.839844 9.371094 3.839844 C 9.332031 3.839844 8.679688 5.039062 7.921875 6.507812 M 8.550781 6.992188 C 8.136719 7.800781 7.800781 8.496094 7.800781 8.542969 C 7.800781 8.589844 7.976562 8.640625 8.191406 8.664062 C 8.859375 8.726562 8.75 9.050781 7.5625 10.527344 C 6.96875 11.265625 6.480469 11.898438 6.480469 11.929688 C 6.480469 11.960938 6.710938 12.003906 6.988281 12.023438 C 7.859375 12.085938 7.753906 12.355469 6.179688 14.109375 L 4.785156 15.660156 L 6.894531 15.691406 L 9 15.726562 L 9 21.71875 L 9.71875 21.71875 L 9.71875 15.726562 L 11.84375 15.691406 L 13.964844 15.660156 L 12.558594 14.101562 C 10.953125 12.316406 10.867188 12.082031 11.789062 12.023438 L 12.355469 11.988281 L 11.207031 10.558594 C 10.507812 9.6875 10.078125 9.042969 10.101562 8.914062 C 10.128906 8.761719 10.273438 8.6875 10.597656 8.664062 L 11.050781 8.625 L 10.238281 7.074219 C 9.789062 6.21875 9.398438 5.519531 9.363281 5.519531 C 9.328125 5.523438 8.960938 6.183594 8.550781 6.992188 M 13.441406 18.78125 L 13.441406 20.28125 L 15.71875 20.28125 L 15.71875 17.28125 L 15 17.28125 L 15 19.441406 L 14.28125 19.441406 L 14.28125 17.28125 L 13.441406 17.28125 L 13.441406 18.78125 "/>
</g>
</svg>
