<?xml version="1.0" encoding="UTF-8"?>
<svg xmlns="http://www.w3.org/2000/svg" xmlns:xlink="http://www.w3.org/1999/xlink" width="100px" height="100px" viewBox="0 0 100 100" version="1.1">
<g id="surface1">
<path style=" stroke:none;fill-rule:evenodd;fill:rgb(0%,0%,0%);fill-opacity:1;" d="M 55.101562 17.316406 C 51.996094 23.265625 49.523438 28.496094 49.609375 28.9375 C 49.691406 29.378906 50.390625 29.855469 51.15625 29.996094 C 52.445312 30.230469 52.496094 30.324219 51.820312 31.242188 C 51.1875 32.105469 51.183594 32.410156 51.820312 33.632812 C 52.214844 34.402344 52.753906 34.902344 53.007812 34.746094 C 53.265625 34.585938 54.53125 33.085938 55.816406 31.410156 C 58.425781 28.023438 58.382812 26.949219 55.609375 26.5 L 54.070312 26.25 L 57.460938 19.851562 C 60.785156 13.574219 60.867188 13.472656 61.621094 14.621094 C 62.453125 15.894531 67.5 25.839844 67.5 26.210938 C 67.5 26.335938 66.769531 26.507812 65.875 26.59375 C 63.035156 26.867188 63.5 28.253906 68.53125 34.535156 L 73.109375 40.25 L 70.929688 40.5 C 67.179688 40.929688 67.597656 42.058594 74.210938 49.367188 L 79.984375 55.75 L 62.5 56.023438 L 62.5 58.320312 C 62.5 60.160156 62.800781 60.957031 64 62.328125 L 65.5 64.035156 L 65.5 59.519531 L 76.472656 59.382812 L 87.449219 59.25 L 73.996094 44.25 L 76.789062 44.097656 C 78.933594 43.984375 79.523438 43.785156 79.320312 43.25 C 79.171875 42.867188 76.902344 39.855469 74.277344 36.558594 C 71.648438 33.261719 69.5 30.433594 69.5 30.28125 C 69.5 30.125 70.289062 30 71.25 30 C 72.210938 30 73 29.867188 73 29.703125 C 73 29.195312 61.265625 6.519531 61 6.511719 C 60.863281 6.503906 58.207031 11.367188 55.101562 17.316406 M 33 27.113281 C 29.835938 33.226562 27.179688 38.386719 27.09375 38.582031 C 27.007812 38.777344 27.847656 39.007812 28.960938 39.09375 L 30.984375 39.25 L 25.742188 45.875 C 22.859375 49.515625 20.5 52.609375 20.5 52.75 C 20.5 52.886719 21.738281 53 23.25 53 C 24.761719 53 25.992188 53.167969 25.984375 53.375 C 25.972656 53.582031 22.925781 57.125 19.203125 61.25 L 12.441406 68.75 L 23.46875 68.882812 L 34.5 69.019531 L 34.5 94.039062 L 43.75 93.75 L 44.015625 69 L 54.757812 69 C 60.667969 69 65.5 68.867188 65.5 68.710938 C 65.5 68.550781 62.460938 65.078125 58.75 61 C 55.039062 56.921875 52 53.460938 52 53.316406 C 52 53.167969 53.316406 52.980469 54.925781 52.898438 L 57.851562 52.75 L 52.480469 46 L 47.105469 39.25 L 49.054688 39.097656 C 50.125 39.011719 51 38.824219 51 38.679688 C 51 38.140625 39.324219 16 39.042969 16 C 38.882812 16.003906 36.164062 21.003906 33 27.113281 M 35.625 29.132812 C 33.90625 32.5 32.5 35.40625 32.5 35.59375 C 32.5 35.78125 33.230469 36.007812 34.125 36.09375 C 36.910156 36.363281 36.453125 37.71875 31.511719 43.859375 C 29.03125 46.945312 27 49.574219 27 49.703125 C 27 49.835938 27.957031 50.011719 29.125 50.097656 C 32.742188 50.359375 32.304688 51.484375 25.742188 58.789062 L 19.941406 65.25 L 28.71875 65.386719 L 37.5 65.523438 L 37.5 90.5 L 40.5 90.5 L 40.5 65.523438 L 49.34375 65.386719 L 58.191406 65.25 L 52.332031 58.75 C 45.636719 51.324219 45.273438 50.34375 49.117188 50.097656 L 51.480469 49.945312 L 46.699219 43.988281 C 43.789062 40.363281 41.988281 37.683594 42.089844 37.140625 C 42.210938 36.507812 42.808594 36.203125 44.152344 36.09375 L 46.042969 35.9375 L 42.65625 29.46875 C 40.796875 25.910156 39.15625 23.003906 39.011719 23.007812 C 38.867188 23.007812 37.34375 25.765625 35.625 29.132812 M 56 78.25 L 56 84.5 L 65.5 84.5 L 65.5 72 L 62.5 72 L 62.5 81 L 59.5 81 L 59.5 72 L 56 72 L 56 78.25 "/>
</g>
</svg>
