<?xml version="1.0" encoding="UTF-8"?>
<svg xmlns="http://www.w3.org/2000/svg" xmlns:xlink="http://www.w3.org/1999/xlink" width="100px" height="100px" viewBox="0 0 100 100" version="1.1">
<g id="surface1">
<path style=" stroke:none;fill-rule:evenodd;fill:rgb(0%,0%,0%);fill-opacity:1;" d="M 76.144531 13.25 C 68.242188 17.28125 62.703125 22.371094 58.480469 29.472656 L 56.390625 32.996094 L 54.90625 31.746094 C 54.089844 31.0625 53.242188 30.5 53.023438 30.5 C 52.804688 30.5 52.496094 29.855469 52.339844 29.070312 C 51.648438 25.613281 47.78125 23.128906 43.902344 23.648438 C 42.726562 23.808594 41.230469 23.628906 40.226562 23.207031 C 36.707031 21.738281 32.628906 22.875 30.898438 25.808594 C 30.3125 26.800781 29.394531 27.554688 28.539062 27.742188 C 25.332031 28.445312 22.585938 32.882812 23.230469 36.316406 C 23.445312 37.460938 23.269531 38.824219 22.71875 40.261719 C 21.460938 43.554688 22.054688 45.695312 25.042969 48.636719 C 26.394531 49.96875 27.5 51.351562 27.5 51.710938 C 27.5 52.070312 27.976562 52.96875 28.558594 53.710938 C 29.136719 54.449219 29.460938 55.207031 29.269531 55.394531 C 29.082031 55.585938 27.808594 55.761719 26.4375 55.789062 C 24.796875 55.824219 23.488281 56.183594 22.601562 56.84375 C 20.8125 58.167969 19 60.882812 19 62.238281 C 19 62.835938 18.410156 63.871094 17.683594 64.539062 C 14.859375 67.144531 14.222656 71.214844 16.191406 74.117188 C 16.96875 75.265625 17.300781 76.320312 17.140625 77.148438 C 16.527344 80.371094 19.578125 84.695312 22.894531 85.300781 C 24.027344 85.507812 25.386719 86.285156 26.378906 87.296875 C 28.785156 89.753906 33.78125 90.257812 35.976562 88.273438 C 36.460938 87.832031 37.738281 87.5 38.933594 87.5 C 42.890625 87.5 46.125 85.007812 46.84375 81.398438 C 47.019531 80.519531 47.910156 79.058594 48.816406 78.148438 L 50.46875 76.496094 L 52.109375 77.496094 C 53.011719 78.046875 54.566406 78.496094 55.5625 78.496094 C 56.597656 78.5 57.65625 78.835938 58.027344 79.28125 C 60.238281 81.945312 65.898438 82.246094 68.414062 79.832031 C 69.367188 78.917969 70.34375 78.5 71.527344 78.496094 C 75.058594 78.496094 78.496094 75.011719 78.496094 71.4375 C 78.5 70.402344 78.835938 69.34375 79.28125 68.972656 C 82.195312 66.554688 82.195312 60.445312 79.28125 58.027344 C 78.851562 57.671875 78.5 56.671875 78.5 55.804688 C 78.5 52.304688 74.785156 48.527344 71.320312 48.507812 C 70.535156 48.503906 69.226562 47.9375 68.410156 47.25 C 67.59375 46.5625 66.601562 46 66.210938 46 C 64.929688 46 65.480469 45.28125 68.320312 43.25 C 76.148438 37.652344 82.195312 28.195312 84.207031 18.394531 C 86.039062 9.480469 84.929688 8.773438 76.144531 13.25 M 71.988281 20.445312 C 68.097656 23.316406 65.15625 26.449219 62.503906 30.554688 C 60.734375 33.292969 58.234375 38.902344 58.613281 39.28125 C 58.695312 39.363281 62.546875 34.699219 67.171875 28.921875 C 71.796875 23.140625 75.5 18.332031 75.402344 18.234375 C 75.304688 18.136719 73.765625 19.132812 71.988281 20.445312 M 70.558594 31.207031 C 65.851562 37.125 62 42.097656 62 42.257812 C 62 42.417969 63.070312 41.820312 64.375 40.925781 C 68.046875 38.421875 72.753906 33.695312 74.976562 30.285156 C 76.980469 27.210938 79.753906 21.085938 79.335938 20.667969 C 79.210938 20.546875 75.261719 25.289062 70.558594 31.207031 M 35.269531 27.175781 C 34.761719 27.546875 33.988281 28.609375 33.546875 29.539062 C 32.910156 30.890625 32.375 31.292969 30.902344 31.535156 C 29.882812 31.699219 28.703125 32.125 28.277344 32.476562 C 27.410156 33.199219 27.203125 36.757812 28 37.25 C 28.828125 37.761719 28.566406 39.285156 27.476562 40.273438 C 26.703125 40.972656 26.488281 41.691406 26.601562 43.222656 C 26.738281 45.066406 26.941406 45.339844 28.875 46.238281 C 30.34375 46.917969 31.003906 47.535156 31.007812 48.238281 C 31.019531 50.289062 31.660156 51.558594 33.046875 52.273438 C 34.304688 52.925781 34.691406 52.914062 36.507812 52.1875 C 38.46875 51.402344 38.59375 51.414062 39.648438 52.398438 C 41.386719 54.019531 43.085938 54.222656 44.648438 52.992188 C 45.390625 52.40625 46 51.539062 46 51.0625 C 46 49.792969 47.007812 49 48.621094 49 C 50.734375 49 52.691406 46.859375 52.300781 44.96875 C 52.136719 44.160156 51.871094 42.875 51.710938 42.113281 C 51.496094 41.09375 51.695312 40.476562 52.460938 39.785156 C 54.433594 38 53.121094 34 50.5625 34 C 49.285156 34 48.613281 33.074219 48.414062 31.046875 C 48.304688 29.894531 47.804688 29.019531 46.863281 28.320312 C 45.441406 27.261719 45.398438 27.265625 41.941406 28.71875 C 41.484375 28.90625 40.820312 28.75 40.429688 28.359375 C 38.609375 26.539062 36.730469 26.105469 35.269531 27.175781 M 38.996094 39.253906 C 38.660156 39.65625 38.519531 40.328125 38.679688 40.742188 C 39.058594 41.738281 40.808594 41.714844 41.195312 40.710938 C 41.617188 39.609375 41.613281 39.597656 40.550781 39.027344 C 39.851562 38.652344 39.449219 38.710938 38.996094 39.253906 M 60.8125 51.214844 C 59.402344 52.757812 58.992188 52.921875 56.824219 52.839844 C 54.808594 52.765625 54.25 52.949219 53.425781 53.964844 C 52.65625 54.921875 52.511719 55.601562 52.773438 57.132812 C 53.074219 58.921875 52.953125 59.222656 51.300781 60.734375 C 48.921875 62.914062 48.921875 64.453125 51.300781 66.414062 C 52.988281 67.804688 53.082031 68.027344 52.761719 69.929688 C 52.460938 71.707031 52.585938 72.128906 53.746094 73.289062 C 54.878906 74.425781 55.351562 74.570312 57.019531 74.304688 C 58.792969 74.023438 59.113281 74.152344 60.566406 75.746094 C 62.992188 78.410156 64.609375 78.1875 67.382812 74.796875 C 67.859375 74.21875 68.566406 74.097656 70.179688 74.316406 C 72.121094 74.585938 72.449219 74.472656 73.445312 73.207031 C 74.320312 72.09375 74.488281 71.410156 74.242188 69.949219 C 74.007812 68.570312 74.136719 67.933594 74.75 67.425781 C 77.039062 65.539062 77.5 64.886719 77.5 63.527344 C 77.5 62.425781 77.050781 61.707031 75.730469 60.699219 C 74.074219 59.441406 73.980469 59.21875 74.273438 57.28125 C 74.734375 54.195312 73.390625 52.71875 70.226562 52.839844 C 68.128906 52.917969 67.683594 52.738281 66.25 51.214844 C 64.191406 49.035156 62.8125 49.035156 60.8125 51.214844 M 31.886719 58.945312 C 30.300781 60.339844 29.933594 60.445312 27.636719 60.171875 C 25.472656 59.917969 24.96875 60.03125 24.007812 60.992188 C 23.152344 61.847656 22.949219 62.496094 23.148438 63.722656 C 23.464844 65.675781 23.207031 66.125 21.167969 67.171875 C 18.535156 68.519531 18.441406 72.132812 21.003906 73.5 C 21.859375 73.960938 21.945312 74.382812 21.679688 76.902344 C 21.320312 80.351562 21.914062 81.078125 25.417969 81.484375 C 27.230469 81.691406 27.855469 82.015625 28.339844 82.992188 C 29.777344 85.878906 32.214844 86.257812 34.609375 83.96875 C 35.761719 82.871094 36.5 82.53125 37.230469 82.761719 C 40 83.632812 40.457031 83.589844 41.71875 82.324219 C 42.667969 81.375 43 80.527344 43 79.035156 C 43 77.3125 43.210938 76.914062 44.484375 76.257812 C 47.398438 74.75 47.757812 72.359375 45.414062 70.066406 C 43.921875 68.609375 43.859375 68.410156 44.382812 66.707031 C 44.738281 65.546875 44.773438 64.46875 44.476562 63.691406 C 43.953125 62.316406 41.839844 61.324219 40.398438 61.78125 C 39.359375 62.113281 37.5 60.796875 37.5 59.734375 C 37.5 58.90625 36.515625 58.148438 34.933594 57.75 C 33.90625 57.492188 33.246094 57.753906 31.886719 58.945312 M 62.496094 63.753906 C 61.945312 64.421875 61.964844 64.679688 62.628906 65.34375 C 63.703125 66.414062 65.113281 65.820312 64.910156 64.382812 C 64.714844 63.011719 63.398438 62.667969 62.496094 63.753906 M 31.679688 71.75 C 31.285156 72.78125 31.820312 74 32.671875 74 C 33.058594 74 33.65625 73.664062 34 73.25 C 34.496094 72.652344 34.496094 72.347656 34 71.75 C 33.65625 71.335938 33.058594 71 32.671875 71 C 32.285156 71 31.839844 71.335938 31.679688 71.75 "/>
</g>
</svg>
