<?xml version="1.0" encoding="UTF-8"?>
<svg xmlns="http://www.w3.org/2000/svg" xmlns:xlink="http://www.w3.org/1999/xlink" width="100px" height="100px" viewBox="0 0 100 100" version="1.1">
<g id="surface1">
<path style=" stroke:none;fill-rule:nonzero;fill:rgb(0%,0%,0%);fill-opacity:1;" d="M 41.933594 61.175781 C 41.378906 61.910156 28.101562 59.882812 26.074219 73.34375 C 23.347656 80.234375 37.8125 105.839844 56.132812 95.84375 C 64.5625 91.246094 74.761719 73.054688 65.171875 61.910156 C 61.730469 57.554688 57.511719 54.011719 50.046875 55.273438 C 46.175781 55.457031 41.933594 61.175781 41.933594 61.175781 Z M 41.933594 61.175781 "/>
<path style=" stroke:none;fill-rule:nonzero;fill:rgb(0%,0%,0%);fill-opacity:1;" d="M 58.898438 27.792969 C 59.585938 19.03125 62.785156 14.867188 68.304688 13.777344 C 84.246094 13.195312 89.699219 27.425781 90.066406 28.347656 C 93.746094 36.839844 92.289062 40.808594 90.4375 45.5 C 76.03125 67.703125 51.421875 53.722656 50.417969 41.074219 C 49.316406 35.9375 56.023438 32.1875 58.898438 27.792969 Z M 58.898438 27.792969 "/>
<path style=" stroke:none;fill-rule:nonzero;fill:rgb(0%,0%,0%);fill-opacity:1;" d="M 18.140625 7.050781 C 17.371094 7.644531 17.058594 8.511719 16.921875 9.363281 C 16.785156 10.210938 16.800781 11.136719 16.921875 12.175781 C 17.164062 14.253906 17.824219 16.796875 18.765625 19.707031 C 25.003906 36.550781 30.617188 47.769531 42.078125 64.519531 C 42.765625 65.21875 43.421875 65.757812 44.140625 66.144531 C 44.855469 66.53125 45.808594 66.804688 46.734375 66.394531 L 45.515625 63.644531 C 45.753906 63.539062 45.859375 63.671875 45.578125 63.519531 C 45.296875 63.367188 44.800781 62.96875 44.234375 62.394531 C 34.492188 49.480469 25.066406 29.917969 21.640625 18.800781 C 20.734375 15.996094 20.125 13.5625 19.921875 11.832031 C 19.820312 10.964844 19.820312 10.285156 19.890625 9.863281 C 19.957031 9.441406 20.066406 9.359375 19.984375 9.425781 Z M 18.140625 7.050781 "/>
<path style=" stroke:none;fill-rule:nonzero;fill:rgb(0%,0%,0%);fill-opacity:1;" d="M 20.421875 8.175781 L 17.703125 9.425781 C 27.71875 30.398438 45.316406 31.242188 63.296875 29.425781 L 62.984375 26.425781 C 41.742188 27.613281 29.230469 27.28125 20.421875 8.175781 Z M 20.421875 8.175781 "/>
<path style=" stroke:none;fill-rule:nonzero;fill:rgb(0%,0%,0%);fill-opacity:1;" d="M 17.175781 12.605469 C 17.941406 12.9375 21.652344 10.859375 21.652344 10.859375 C 21.652344 10.859375 20.402344 3.867188 19.039062 3.699219 C 16.707031 3.433594 14.945312 4.671875 14.144531 5.769531 C 13.8125 8.964844 17.175781 12.605469 17.175781 12.605469 Z M 17.175781 12.605469 "/>
</g>
</svg>
