<?xml version="1.0" encoding="UTF-8"?>
<svg xmlns="http://www.w3.org/2000/svg" xmlns:xlink="http://www.w3.org/1999/xlink" width="24px" height="24px" viewBox="0 0 24 24" version="1.1">
<g id="surface1">
<path style=" stroke:none;fill-rule:nonzero;fill:rgb(0%,0%,0%);fill-opacity:1;" d="M 10.0625 14.683594 C 9.929688 14.859375 6.746094 14.371094 6.257812 17.601562 C 5.605469 19.257812 9.074219 25.402344 13.472656 23.003906 C 15.496094 21.898438 17.941406 17.53125 15.640625 14.859375 C 14.816406 13.8125 13.804688 12.960938 12.011719 13.265625 C 11.082031 13.308594 10.0625 14.683594 10.0625 14.683594 Z M 10.0625 14.683594 "/>
<path style=" stroke:none;fill-rule:nonzero;fill:rgb(0%,0%,0%);fill-opacity:1;" d="M 14.136719 6.671875 C 14.300781 4.566406 15.070312 3.566406 16.394531 3.308594 C 20.21875 3.167969 21.527344 6.582031 21.617188 6.804688 C 22.5 8.839844 22.148438 9.792969 21.703125 10.917969 C 18.246094 16.25 12.339844 12.894531 12.101562 9.855469 C 11.835938 8.625 13.445312 7.726562 14.136719 6.671875 Z M 14.136719 6.671875 "/>
<path style=" stroke:none;fill-rule:nonzero;fill:rgb(0%,0%,0%);fill-opacity:1;" d="M 4.355469 1.691406 C 4.167969 1.835938 4.09375 2.042969 4.0625 2.246094 C 4.027344 2.449219 4.03125 2.671875 4.0625 2.921875 C 4.121094 3.421875 4.277344 4.03125 4.503906 4.730469 C 6 8.773438 7.347656 11.464844 10.097656 15.484375 C 10.265625 15.652344 10.421875 15.78125 10.59375 15.875 C 10.765625 15.96875 10.996094 16.03125 11.214844 15.933594 L 10.921875 15.273438 C 10.980469 15.25 11.007812 15.28125 10.9375 15.246094 C 10.871094 15.207031 10.753906 15.113281 10.617188 14.972656 C 8.277344 11.875 6.015625 7.179688 5.195312 4.511719 C 4.976562 3.839844 4.828125 3.253906 4.78125 2.839844 C 4.757812 2.632812 4.757812 2.46875 4.773438 2.367188 C 4.789062 2.265625 4.816406 2.246094 4.796875 2.261719 Z M 4.355469 1.691406 "/>
<path style=" stroke:none;fill-rule:nonzero;fill:rgb(0%,0%,0%);fill-opacity:1;" d="M 4.902344 1.960938 L 4.25 2.261719 C 6.652344 7.296875 10.875 7.496094 15.191406 7.0625 L 15.117188 6.34375 C 10.019531 6.628906 7.015625 6.546875 4.902344 1.960938 Z M 4.902344 1.960938 "/>
<path style=" stroke:none;fill-rule:nonzero;fill:rgb(0%,0%,0%);fill-opacity:1;" d="M 4.121094 3.023438 C 4.304688 3.105469 5.195312 2.605469 5.195312 2.605469 C 5.195312 2.605469 4.898438 0.929688 4.570312 0.886719 C 4.011719 0.824219 3.585938 1.121094 3.394531 1.382812 C 3.316406 2.152344 4.121094 3.023438 4.121094 3.023438 Z M 4.121094 3.023438 "/>
</g>
</svg>
