<?xml version="1.0" encoding="UTF-8"?>
<svg xmlns="http://www.w3.org/2000/svg" xmlns:xlink="http://www.w3.org/1999/xlink" width="24px" height="24px" viewBox="0 0 24 24" version="1.1">
<g id="surface1">
<path style=" stroke:none;fill-rule:evenodd;fill:rgb(0%,0%,0%);fill-opacity:1;" d="M 13.964844 1.503906 C 13.753906 1.824219 13.289062 3.441406 13.082031 4.570312 C 13.011719 4.9375 12.847656 6.261719 12.71875 7.511719 C 12.585938 8.757812 12.421875 10.097656 12.351562 10.484375 C 12.160156 11.539062 11.675781 13.140625 11.34375 13.789062 L 11.054688 14.367188 L 10.332031 14.007812 C 9.328125 13.511719 8.332031 13.503906 7.4375 13.992188 C 6.382812 14.566406 5.902344 15.441406 5.636719 17.265625 C 5.386719 18.96875 5.683594 20.25 6.492188 20.933594 C 6.714844 21.121094 7.292969 21.464844 7.773438 21.695312 C 8.535156 22.054688 8.734375 22.101562 9.351562 22.058594 C 9.917969 22.015625 10.195312 21.917969 10.730469 21.5625 L 11.394531 21.121094 L 11.90625 21.679688 C 12.609375 22.441406 13.402344 22.796875 14.410156 22.796875 C 15.429688 22.800781 16.171875 22.539062 16.855469 21.941406 C 17.511719 21.359375 18.160156 20.085938 18.359375 18.984375 C 18.640625 17.394531 17.871094 16.1875 16.230469 15.65625 C 15.882812 15.542969 15.601562 15.445312 15.601562 15.433594 C 15.601562 15.425781 15.652344 15.234375 15.71875 15.007812 C 16.164062 13.449219 16.09375 10.605469 15.539062 7.679688 C 15.082031 5.285156 15.023438 3.875 15.34375 2.808594 C 15.683594 1.671875 15.675781 1.578125 15.183594 1.375 C 14.5625 1.113281 14.195312 1.152344 13.964844 1.503906 M 14 2.789062 C 13.527344 4.472656 13.46875 4.804688 13.203125 7.324219 C 12.828125 10.902344 12.484375 12.46875 11.746094 13.960938 C 11.414062 14.632812 11.390625 14.878906 11.65625 14.878906 C 11.820312 14.878906 12.519531 13.328125 12.820312 12.300781 C 13.203125 10.980469 13.414062 9.808594 13.617188 7.800781 C 13.824219 5.753906 14.136719 3.707031 14.261719 3.578125 C 14.304688 3.53125 14.347656 4.019531 14.355469 4.65625 C 14.367188 5.410156 14.511719 6.5625 14.769531 7.921875 C 15.105469 9.707031 15.164062 10.296875 15.171875 11.878906 C 15.175781 13.53125 15.074219 14.472656 14.816406 15.148438 C 14.753906 15.304688 14.796875 15.359375 14.972656 15.359375 C 15.359375 15.359375 15.542969 14.207031 15.53125 11.820312 C 15.527344 10.109375 15.472656 9.515625 15.199219 8.136719 C 14.625 5.222656 14.582031 3.777344 15.03125 2.378906 C 15.230469 1.761719 15.175781 1.679688 14.585938 1.679688 C 14.34375 1.679688 14.277344 1.804688 14 2.789062 M 13.992188 8.039062 C 13.722656 10.75 13.257812 12.71875 12.511719 14.316406 C 12.117188 15.160156 12.09375 15.265625 12.265625 15.4375 C 12.410156 15.582031 12.507812 15.59375 12.695312 15.496094 C 12.828125 15.421875 13.234375 15.328125 13.601562 15.285156 C 14.210938 15.214844 14.277344 15.175781 14.398438 14.835938 C 14.839844 13.570312 14.792969 10.8125 14.292969 8.21875 L 14.082031 7.140625 L 13.992188 8.039062 M 7.859375 14.207031 C 7.027344 14.578125 6.597656 15.21875 6.234375 16.644531 C 5.847656 18.152344 5.984375 19.597656 6.574219 20.300781 C 6.949219 20.746094 8.660156 21.601562 9.171875 21.597656 C 9.75 21.597656 10.6875 21.089844 11.316406 20.441406 C 12.65625 19.050781 13.113281 18.015625 12.824219 17.023438 C 12.621094 16.316406 11.089844 14.765625 10.1875 14.34375 C 9.453125 14.003906 8.457031 13.945312 7.859375 14.207031 M 13.199219 15.820312 C 12.847656 15.925781 12.84375 15.984375 13.132812 16.621094 C 13.613281 17.675781 13.285156 19.003906 12.25 20.183594 L 11.777344 20.714844 L 12.011719 21.082031 C 12.265625 21.480469 12.9375 21.992188 13.476562 22.191406 C 13.972656 22.378906 15.179688 22.347656 15.6875 22.136719 C 16.496094 21.800781 16.929688 21.363281 17.355469 20.46875 C 17.929688 19.257812 18.089844 18.269531 17.824219 17.574219 C 17.5625 16.886719 16.933594 16.371094 15.996094 16.082031 C 15.160156 15.824219 13.65625 15.683594 13.199219 15.820312 "/>
</g>
</svg>
