<?xml version="1.0" encoding="UTF-8"?>
<svg xmlns="http://www.w3.org/2000/svg" xmlns:xlink="http://www.w3.org/1999/xlink" width="24px" height="24px" viewBox="0 0 24 24" version="1.1">
<g id="surface1">
<path style=" stroke:none;fill-rule:evenodd;fill:rgb(0%,0%,0%);fill-opacity:1;" d="M 18.273438 3.179688 C 16.378906 4.148438 15.046875 5.367188 14.035156 7.074219 L 13.535156 7.917969 L 13.175781 7.621094 C 12.980469 7.453125 12.777344 7.320312 12.726562 7.320312 C 12.671875 7.320312 12.597656 7.164062 12.5625 6.976562 C 12.394531 6.148438 11.46875 5.550781 10.535156 5.675781 C 10.253906 5.714844 9.894531 5.671875 9.652344 5.570312 C 8.808594 5.21875 7.832031 5.488281 7.414062 6.195312 C 7.273438 6.433594 7.054688 6.613281 6.847656 6.65625 C 6.078125 6.828125 5.421875 7.890625 5.574219 8.714844 C 5.625 8.992188 5.585938 9.316406 5.453125 9.664062 C 5.152344 10.453125 5.292969 10.96875 6.011719 11.671875 C 6.335938 11.992188 6.601562 12.324219 6.601562 12.410156 C 6.601562 12.496094 6.714844 12.710938 6.855469 12.890625 C 6.992188 13.066406 7.070312 13.25 7.023438 13.296875 C 6.980469 13.339844 6.671875 13.382812 6.34375 13.390625 C 5.953125 13.398438 5.636719 13.484375 5.425781 13.640625 C 4.996094 13.960938 4.558594 14.613281 4.558594 14.9375 C 4.558594 15.082031 4.417969 15.328125 4.246094 15.488281 C 3.566406 16.113281 3.414062 17.09375 3.886719 17.789062 C 4.074219 18.0625 4.152344 18.316406 4.113281 18.515625 C 3.964844 19.289062 4.699219 20.328125 5.496094 20.472656 C 5.765625 20.523438 6.09375 20.707031 6.332031 20.953125 C 6.910156 21.539062 8.109375 21.660156 8.632812 21.183594 C 8.75 21.078125 9.058594 21 9.34375 21 C 10.292969 21 11.070312 20.402344 11.242188 19.535156 C 11.285156 19.324219 11.496094 18.972656 11.714844 18.757812 L 12.113281 18.359375 L 12.507812 18.597656 C 12.722656 18.730469 13.097656 18.839844 13.335938 18.839844 C 13.582031 18.839844 13.835938 18.921875 13.925781 19.027344 C 14.457031 19.667969 15.816406 19.738281 16.417969 19.160156 C 16.648438 18.941406 16.882812 18.839844 17.167969 18.839844 C 18.015625 18.839844 18.839844 18.003906 18.839844 17.144531 C 18.839844 16.894531 18.921875 16.640625 19.027344 16.554688 C 19.726562 15.972656 19.726562 14.507812 19.027344 13.925781 C 18.925781 13.839844 18.839844 13.601562 18.839844 13.394531 C 18.839844 12.554688 17.949219 11.648438 17.117188 11.640625 C 16.929688 11.640625 16.613281 11.503906 16.417969 11.339844 C 16.222656 11.175781 15.984375 11.039062 15.890625 11.039062 C 15.582031 11.039062 15.714844 10.867188 16.394531 10.378906 C 18.277344 9.035156 19.726562 6.765625 20.210938 4.414062 C 20.648438 2.277344 20.382812 2.105469 18.273438 3.179688 M 17.277344 4.90625 C 16.34375 5.597656 15.636719 6.347656 15 7.332031 C 14.574219 7.992188 13.976562 9.335938 14.066406 9.425781 C 14.085938 9.445312 15.011719 8.328125 16.121094 6.941406 C 17.230469 5.554688 18.121094 4.398438 18.097656 4.375 C 18.074219 4.351562 17.703125 4.589844 17.277344 4.90625 M 16.933594 7.488281 C 15.804688 8.910156 14.878906 10.105469 14.878906 10.140625 C 14.878906 10.179688 15.136719 10.035156 15.449219 9.824219 C 16.332031 9.222656 17.460938 8.085938 17.996094 7.269531 C 18.476562 6.53125 19.140625 5.0625 19.039062 4.960938 C 19.011719 4.929688 18.0625 6.070312 16.933594 7.488281 M 8.464844 6.523438 C 8.34375 6.609375 8.15625 6.867188 8.050781 7.089844 C 7.898438 7.414062 7.769531 7.511719 7.417969 7.566406 C 7.171875 7.609375 6.890625 7.710938 6.785156 7.792969 C 6.578125 7.96875 6.527344 8.820312 6.71875 8.941406 C 6.917969 9.0625 6.855469 9.429688 6.59375 9.664062 C 6.410156 9.832031 6.355469 10.007812 6.382812 10.375 C 6.417969 10.816406 6.464844 10.882812 6.929688 11.097656 C 7.28125 11.261719 7.441406 11.410156 7.441406 11.578125 C 7.445312 12.070312 7.597656 12.375 7.929688 12.546875 C 8.234375 12.703125 8.324219 12.699219 8.761719 12.523438 C 9.234375 12.335938 9.261719 12.339844 9.515625 12.574219 C 9.933594 12.964844 10.339844 13.011719 10.714844 12.71875 C 10.894531 12.578125 11.039062 12.371094 11.039062 12.253906 C 11.039062 11.949219 11.28125 11.761719 11.667969 11.761719 C 12.175781 11.761719 12.644531 11.246094 12.550781 10.792969 C 12.511719 10.597656 12.449219 10.289062 12.410156 10.105469 C 12.359375 9.863281 12.40625 9.714844 12.589844 9.546875 C 13.0625 9.121094 12.75 8.160156 12.132812 8.160156 C 11.828125 8.160156 11.667969 7.9375 11.621094 7.453125 C 11.59375 7.175781 11.472656 6.964844 11.246094 6.796875 C 10.90625 6.542969 10.894531 6.542969 10.066406 6.890625 C 9.957031 6.9375 9.796875 6.898438 9.703125 6.804688 C 9.265625 6.367188 8.816406 6.265625 8.464844 6.523438 M 9.359375 9.421875 C 9.277344 9.519531 9.246094 9.679688 9.28125 9.777344 C 9.375 10.019531 9.792969 10.011719 9.886719 9.769531 C 9.988281 9.507812 9.988281 9.503906 9.734375 9.367188 C 9.5625 9.277344 9.46875 9.289062 9.359375 9.421875 M 14.59375 12.292969 C 14.257812 12.660156 14.15625 12.703125 13.636719 12.683594 C 13.15625 12.664062 13.019531 12.707031 12.824219 12.953125 C 12.636719 13.179688 12.601562 13.34375 12.664062 13.710938 C 12.738281 14.140625 12.707031 14.214844 12.3125 14.578125 C 11.742188 15.097656 11.742188 15.46875 12.3125 15.9375 C 12.71875 16.273438 12.738281 16.328125 12.664062 16.785156 C 12.589844 17.210938 12.621094 17.3125 12.898438 17.589844 C 13.171875 17.863281 13.285156 17.898438 13.683594 17.832031 C 14.109375 17.765625 14.1875 17.796875 14.535156 18.179688 C 15.117188 18.820312 15.507812 18.765625 16.171875 17.949219 C 16.285156 17.8125 16.457031 17.78125 16.84375 17.835938 C 17.308594 17.898438 17.386719 17.875 17.628906 17.570312 C 17.835938 17.300781 17.878906 17.136719 17.816406 16.789062 C 17.761719 16.457031 17.792969 16.304688 17.941406 16.183594 C 18.488281 15.730469 18.601562 15.574219 18.601562 15.246094 C 18.601562 14.980469 18.492188 14.808594 18.175781 14.566406 C 17.777344 14.265625 17.753906 14.210938 17.824219 13.746094 C 17.9375 13.007812 17.613281 12.652344 16.855469 12.679688 C 16.351562 12.699219 16.246094 12.65625 15.898438 12.292969 C 15.40625 11.769531 15.074219 11.769531 14.59375 12.292969 M 7.652344 14.148438 C 7.273438 14.480469 7.183594 14.507812 6.632812 14.441406 C 6.113281 14.378906 5.992188 14.40625 5.761719 14.636719 C 5.558594 14.84375 5.507812 15 5.554688 15.292969 C 5.632812 15.761719 5.570312 15.871094 5.078125 16.121094 C 4.449219 16.445312 4.425781 17.3125 5.039062 17.640625 C 5.246094 17.75 5.265625 17.851562 5.203125 18.457031 C 5.117188 19.285156 5.257812 19.457031 6.101562 19.554688 C 6.535156 19.605469 6.683594 19.683594 6.800781 19.917969 C 7.144531 20.609375 7.730469 20.703125 8.304688 20.152344 C 8.582031 19.890625 8.761719 19.808594 8.933594 19.863281 C 9.601562 20.070312 9.710938 20.0625 10.011719 19.757812 C 10.242188 19.53125 10.320312 19.324219 10.320312 18.96875 C 10.320312 18.554688 10.371094 18.460938 10.675781 18.300781 C 11.375 17.941406 11.460938 17.367188 10.898438 16.816406 C 10.542969 16.464844 10.527344 16.417969 10.652344 16.011719 C 10.738281 15.730469 10.746094 15.472656 10.675781 15.285156 C 10.550781 14.957031 10.042969 14.71875 9.695312 14.828125 C 9.445312 14.90625 9 14.589844 9 14.335938 C 9 14.136719 8.765625 13.957031 8.382812 13.859375 C 8.136719 13.796875 7.980469 13.859375 7.652344 14.148438 M 15 15.300781 C 14.867188 15.460938 14.871094 15.523438 15.03125 15.683594 C 15.289062 15.941406 15.628906 15.796875 15.578125 15.453125 C 15.53125 15.125 15.214844 15.039062 15 15.300781 M 7.601562 17.21875 C 7.507812 17.46875 7.636719 17.761719 7.839844 17.761719 C 7.933594 17.761719 8.078125 17.679688 8.160156 17.578125 C 8.277344 17.4375 8.277344 17.363281 8.160156 17.21875 C 8.078125 17.121094 7.933594 17.039062 7.839844 17.039062 C 7.75 17.039062 7.640625 17.121094 7.601562 17.21875 "/>
</g>
</svg>
