<?xml version="1.0" encoding="UTF-8"?>
<svg xmlns="http://www.w3.org/2000/svg" xmlns:xlink="http://www.w3.org/1999/xlink" width="100px" height="100px" viewBox="0 0 100 100" version="1.1">
<g id="surface1">
<path style=" stroke:none;fill-rule:evenodd;fill:rgb(0%,0%,0%);fill-opacity:1;" d="M 58.191406 6.269531 C 57.316406 7.605469 55.367188 14.34375 54.5 19.042969 C 54.21875 20.578125 53.535156 26.089844 52.988281 31.292969 C 52.4375 36.492188 51.753906 42.066406 51.460938 43.679688 C 50.671875 48.078125 48.640625 54.753906 47.273438 57.457031 L 46.054688 59.855469 L 43.046875 58.367188 C 38.871094 56.296875 34.722656 56.273438 30.996094 58.300781 C 26.597656 60.695312 24.589844 64.332031 23.480469 71.933594 C 22.441406 79.039062 23.6875 84.378906 27.050781 87.222656 C 27.984375 88.011719 30.386719 89.4375 32.382812 90.390625 C 35.558594 91.902344 36.386719 92.09375 38.96875 91.90625 C 41.328125 91.734375 42.484375 91.320312 44.703125 89.847656 L 47.480469 88.003906 L 49.617188 90.328125 C 52.53125 93.503906 55.847656 94.988281 60.035156 94.996094 C 64.289062 95 67.390625 93.914062 70.226562 91.417969 C 72.96875 89.003906 75.671875 83.6875 76.492188 79.097656 C 77.671875 72.480469 74.457031 67.457031 67.625 65.238281 C 66.179688 64.769531 65 64.351562 65 64.3125 C 65 64.273438 65.222656 63.46875 65.492188 62.523438 C 67.355469 56.03125 67.0625 44.191406 64.738281 32 C 62.839844 22.023438 62.605469 16.144531 63.9375 11.695312 C 65.351562 6.964844 65.308594 6.578125 63.265625 5.722656 C 60.675781 4.640625 59.152344 4.804688 58.191406 6.269531 M 58.335938 11.625 C 56.367188 18.632812 56.121094 20.019531 55.019531 30.523438 C 53.453125 45.433594 52.019531 51.960938 48.945312 58.175781 C 47.566406 60.96875 47.460938 62 48.5625 62 C 49.25 62 52.171875 55.53125 53.417969 51.25 C 55.019531 45.75 55.886719 40.863281 56.738281 32.5 C 57.609375 23.96875 58.910156 15.441406 59.421875 14.910156 C 59.601562 14.722656 59.78125 16.746094 59.816406 19.410156 C 59.859375 22.535156 60.46875 27.347656 61.535156 33 C 62.941406 40.453125 63.191406 42.902344 63.214844 49.5 C 63.238281 56.386719 62.808594 60.308594 61.726562 63.125 C 61.480469 63.777344 61.644531 64 62.378906 64 C 63.992188 64 64.753906 59.1875 64.71875 49.25 C 64.691406 42.117188 64.46875 39.652344 63.335938 33.90625 C 60.933594 21.757812 60.757812 15.738281 62.628906 9.90625 C 63.457031 7.339844 63.238281 7 60.777344 7 C 59.765625 7 59.488281 7.523438 58.335938 11.625 M 58.300781 33.5 C 57.171875 44.796875 55.242188 52.992188 52.140625 59.644531 C 50.496094 63.171875 50.398438 63.613281 51.105469 64.316406 C 51.707031 64.921875 52.113281 64.976562 52.890625 64.558594 C 53.441406 64.261719 55.144531 63.875 56.671875 63.695312 C 59.210938 63.398438 59.496094 63.234375 59.988281 61.816406 C 61.828125 56.542969 61.644531 45.050781 59.550781 34.25 L 58.675781 29.75 L 58.300781 33.5 M 32.75 59.203125 C 29.273438 60.746094 27.492188 63.410156 25.972656 69.359375 C 24.367188 75.636719 24.929688 81.648438 27.394531 84.582031 C 28.960938 86.441406 36.082031 90.003906 38.222656 89.996094 C 40.625 89.988281 44.53125 87.875 47.144531 85.167969 C 52.734375 79.382812 54.640625 75.066406 53.4375 70.929688 C 52.582031 67.984375 46.214844 61.519531 42.445312 59.765625 C 39.394531 58.34375 35.230469 58.105469 32.75 59.203125 M 55 65.917969 C 53.535156 66.359375 53.515625 66.597656 54.722656 69.25 C 56.726562 73.65625 55.351562 79.1875 51.035156 84.09375 L 49.078125 86.3125 L 50.050781 87.84375 C 51.101562 89.503906 53.902344 91.625 56.15625 92.472656 C 58.21875 93.246094 63.253906 93.117188 65.363281 92.234375 C 68.726562 90.828125 70.542969 89.015625 72.316406 85.28125 C 74.707031 80.246094 75.375 76.125 74.269531 73.226562 C 73.171875 70.355469 70.550781 68.21875 66.644531 67.007812 C 63.167969 65.929688 56.90625 65.34375 55 65.917969 "/>
</g>
</svg>
