<?xml version="1.0" encoding="UTF-8"?>
<svg xmlns="http://www.w3.org/2000/svg" xmlns:xlink="http://www.w3.org/1999/xlink" width="100px" height="100px" viewBox="0 0 100 100" version="1.1">
<g id="surface1">
<path style=" stroke:none;fill-rule:evenodd;fill:rgb(0%,0%,0%);fill-opacity:1;" d="M 45.21875 18.179688 C 44.652344 18.765625 43.800781 19.476562 43.328125 19.75 C 41.601562 20.761719 40.835938 31.996094 42.230469 35.945312 C 43.308594 38.996094 45.277344 41.300781 48.519531 43.304688 C 51.386719 45.070312 51.980469 45.976562 51.992188 48.585938 C 52.003906 50.605469 51.523438 51.460938 49.910156 52.296875 C 48 53.285156 48.058594 55.328125 49.984375 55.113281 C 51.859375 54.902344 53.125 53.867188 55.199219 50.859375 C 58.328125 46.3125 58.992188 39.441406 57.695312 25.078125 C 57.5 22.941406 57.027344 21.347656 56.238281 20.1875 C 55.597656 19.242188 55 18.253906 54.910156 17.996094 C 54.699219 17.375 52.5 17.964844 52.5 18.644531 C 52.5 18.933594 52.105469 19.605469 51.625 20.136719 C 50.851562 20.992188 50.761719 22.117188 50.863281 29.679688 L 50.972656 38.25 L 49.941406 36.058594 C 48.808594 33.664062 48.457031 27.308594 49.214844 22.941406 C 49.484375 21.378906 49.433594 20.519531 49.058594 20.285156 C 48.75 20.097656 48.5 19.414062 48.5 18.773438 C 48.5 17.746094 47.558594 16.898438 46.585938 17.054688 C 46.402344 17.082031 45.785156 17.589844 45.21875 18.179688 M 46.5 18.484375 C 46.5 18.75 45.882812 19.304688 45.125 19.714844 L 43.75 20.460938 L 45.335938 20.480469 C 46.207031 20.492188 47.332031 20.644531 47.835938 20.824219 C 48.582031 21.089844 48.636719 21.023438 48.125 20.472656 C 47.78125 20.101562 47.5 19.394531 47.5 18.898438 C 47.5 18.40625 47.273438 18 47 18 C 46.726562 18 46.5 18.21875 46.5 18.484375 M 53.015625 19.46875 C 52.265625 20.875 52.34375 21 53.988281 21 C 55.398438 21 55.445312 20.929688 54.910156 19.75 C 54.226562 18.25 53.710938 18.171875 53.015625 19.46875 M 42.683594 24.375 C 42.09375 28.742188 42.207031 33.527344 42.957031 35.707031 C 43.328125 36.785156 44.53125 38.640625 45.628906 39.832031 C 47.527344 41.890625 52.222656 45 53.4375 45 C 54.453125 45 54.027344 43.714844 52.546875 42.292969 C 49.113281 39.003906 46.8125 30.355469 47.980469 25.132812 C 48.710938 21.886719 48.421875 21.519531 45.160156 21.507812 L 43.070312 21.5 L 42.683594 24.375 M 53.5 21.855469 L 51.75 22.046875 L 51.613281 30.839844 C 51.496094 38.105469 51.609375 39.839844 52.25 40.816406 C 52.675781 41.46875 53.238281 42 53.5 42 C 54.035156 42 53.636719 30.441406 52.996094 27.371094 C 52.78125 26.339844 52.796875 25.375 53.027344 25.234375 C 53.699219 24.816406 54.21875 29.992188 54.703125 41.882812 C 54.839844 45.257812 54.773438 45.539062 53.765625 45.789062 C 52.824219 46.027344 52.683594 46.398438 52.714844 48.585938 C 52.746094 50.839844 52.578125 51.253906 51.125 52.464844 C 50.230469 53.210938 49.5 53.976562 49.5 54.160156 C 49.5 55.636719 53.542969 52.207031 55.261719 49.277344 C 56.199219 47.671875 56.675781 45.660156 57.316406 40.574219 C 58.089844 34.421875 58.089844 33.664062 57.324219 29.765625 C 56.871094 27.457031 56.5 24.65625 56.5 23.535156 C 56.5 22.195312 56.285156 21.527344 55.875 21.585938 C 55.53125 21.628906 54.460938 21.753906 53.5 21.855469 M 44.285156 23.625 C 43.542969 27.203125 43.535156 30.476562 44.253906 33.210938 C 45.097656 36.414062 47.371094 41 48.121094 41 C 48.375 41 48.496094 40.832031 48.394531 40.625 C 44.636719 33.175781 44.746094 33.5625 44.804688 27.875 C 44.863281 22.535156 44.734375 21.472656 44.285156 23.625 "/>
</g>
</svg>
