<?xml version="1.0" encoding="UTF-8"?>
<svg xmlns="http://www.w3.org/2000/svg" xmlns:xlink="http://www.w3.org/1999/xlink" width="24px" height="24px" viewBox="0 0 24 24" version="1.1">
<g id="surface1">
<path style=" stroke:none;fill-rule:evenodd;fill:rgb(0%,0%,0%);fill-opacity:1;" d="M 10.851562 4.363281 C 10.714844 4.503906 10.511719 4.675781 10.398438 4.738281 C 9.984375 4.980469 9.800781 7.679688 10.136719 8.625 C 10.394531 9.359375 10.867188 9.914062 11.644531 10.394531 C 12.332031 10.816406 12.476562 11.035156 12.476562 11.660156 C 12.480469 12.144531 12.367188 12.351562 11.976562 12.550781 C 11.519531 12.789062 11.535156 13.277344 11.996094 13.226562 C 12.445312 13.175781 12.75 12.929688 13.246094 12.207031 C 14 11.117188 14.15625 9.464844 13.847656 6.019531 C 13.800781 5.503906 13.6875 5.121094 13.496094 4.84375 C 13.34375 4.617188 13.199219 4.382812 13.179688 4.320312 C 13.128906 4.167969 12.601562 4.3125 12.601562 4.472656 C 12.601562 4.542969 12.503906 4.707031 12.390625 4.832031 C 12.203125 5.039062 12.183594 5.308594 12.207031 7.121094 L 12.234375 9.179688 L 11.984375 8.65625 C 11.714844 8.078125 11.628906 6.554688 11.8125 5.503906 C 11.875 5.128906 11.863281 4.925781 11.773438 4.867188 C 11.699219 4.824219 11.640625 4.660156 11.640625 4.503906 C 11.640625 4.257812 11.414062 4.054688 11.179688 4.09375 C 11.136719 4.101562 10.988281 4.222656 10.851562 4.363281 M 11.160156 4.4375 C 11.160156 4.5 11.011719 4.632812 10.828125 4.730469 L 10.5 4.910156 L 10.878906 4.914062 C 11.089844 4.917969 11.359375 4.953125 11.480469 4.996094 C 11.660156 5.0625 11.671875 5.046875 11.550781 4.914062 C 11.46875 4.824219 11.398438 4.65625 11.398438 4.535156 C 11.398438 4.417969 11.347656 4.320312 11.28125 4.320312 C 11.214844 4.320312 11.160156 4.371094 11.160156 4.4375 M 12.722656 4.671875 C 12.542969 5.007812 12.5625 5.039062 12.957031 5.039062 C 13.296875 5.039062 13.308594 5.023438 13.179688 4.738281 C 13.015625 4.378906 12.890625 4.359375 12.722656 4.671875 M 10.242188 5.851562 C 10.101562 6.898438 10.128906 8.046875 10.308594 8.570312 C 10.398438 8.828125 10.6875 9.273438 10.949219 9.558594 C 11.40625 10.054688 12.535156 10.800781 12.824219 10.800781 C 13.070312 10.800781 12.96875 10.492188 12.609375 10.152344 C 11.789062 9.359375 11.234375 7.285156 11.515625 6.03125 C 11.691406 5.253906 11.621094 5.164062 10.839844 5.160156 L 10.335938 5.160156 L 10.242188 5.851562 M 12.839844 5.246094 L 12.421875 5.289062 L 12.386719 7.402344 C 12.359375 9.144531 12.386719 9.5625 12.539062 9.796875 C 12.640625 9.953125 12.777344 10.078125 12.839844 10.078125 C 12.96875 10.078125 12.875 7.304688 12.71875 6.570312 C 12.667969 6.320312 12.671875 6.089844 12.726562 6.054688 C 12.886719 5.957031 13.011719 7.199219 13.128906 10.050781 C 13.160156 10.863281 13.144531 10.929688 12.902344 10.988281 C 12.675781 11.046875 12.644531 11.136719 12.652344 11.660156 C 12.660156 12.203125 12.617188 12.300781 12.269531 12.589844 C 12.054688 12.769531 11.878906 12.953125 11.878906 13 C 11.878906 13.351562 12.851562 12.53125 13.261719 11.828125 C 13.488281 11.441406 13.601562 10.957031 13.753906 9.738281 C 13.941406 8.261719 13.941406 8.078125 13.757812 7.144531 C 13.648438 6.589844 13.558594 5.917969 13.558594 5.648438 C 13.558594 5.328125 13.507812 5.167969 13.410156 5.179688 C 13.328125 5.191406 13.070312 5.222656 12.839844 5.246094 M 10.628906 5.671875 C 10.449219 6.527344 10.449219 7.3125 10.621094 7.972656 C 10.824219 8.738281 11.371094 9.839844 11.550781 9.839844 C 11.609375 9.839844 11.640625 9.800781 11.613281 9.75 C 10.714844 7.960938 10.738281 8.054688 10.753906 6.691406 C 10.765625 5.40625 10.734375 5.152344 10.628906 5.671875 "/>
</g>
</svg>
