<?xml version="1.0" encoding="UTF-8"?>
<svg xmlns="http://www.w3.org/2000/svg" xmlns:xlink="http://www.w3.org/1999/xlink" width="24px" height="24px" viewBox="0 0 24 24" version="1.1">
<g id="surface1">
<path style=" stroke:none;fill-rule:evenodd;fill:rgb(0%,0%,0%);fill-opacity:1;" d="M 19.71875 0.160156 C 19.507812 0.238281 19.296875 0.339844 19.25 0.390625 C 19.199219 0.441406 18.832031 0.480469 18.429688 0.484375 C 17.488281 0.484375 16.839844 0.78125 16.261719 1.472656 C 15.851562 1.964844 15.757812 2.015625 15.171875 2.066406 C 13.949219 2.167969 12.964844 3.152344 12.863281 4.378906 C 12.816406 4.96875 12.769531 5.054688 12.351562 5.347656 C 11.730469 5.777344 11.28125 6.6875 11.28125 7.515625 L 11.28125 8.144531 L 10.609375 8.335938 C 10.125 8.476562 9.792969 8.679688 9.40625 9.066406 C 9.039062 9.4375 8.773438 9.601562 8.546875 9.601562 C 7.175781 9.601562 6 10.777344 5.929688 12.214844 C 5.902344 12.769531 5.835938 12.917969 5.425781 13.367188 C 5.164062 13.648438 4.882812 14.085938 4.800781 14.335938 C 4.601562 14.941406 4.714844 15.976562 5.039062 16.5 L 5.296875 16.917969 L 4.410156 17.96875 C 2.605469 20.109375 0.71875 22.808594 0.71875 23.246094 C 0.71875 23.542969 1.203125 24 1.515625 24 C 1.824219 24 2.074219 23.71875 2.992188 22.34375 C 3.730469 21.234375 5.917969 18.4375 6.285156 18.132812 C 6.449219 17.996094 6.519531 18.03125 6.800781 18.363281 C 6.984375 18.578125 7.402344 18.882812 7.734375 19.035156 C 8.835938 19.550781 9.832031 19.359375 10.726562 18.464844 C 11.175781 18.019531 11.402344 17.878906 11.6875 17.878906 C 12.632812 17.871094 13.800781 16.890625 14.050781 15.902344 C 14.128906 15.605469 14.234375 15.359375 14.289062 15.359375 C 14.5 15.359375 15.261719 14.585938 15.492188 14.136719 C 15.621094 13.882812 15.746094 13.441406 15.769531 13.15625 C 15.800781 12.726562 15.902344 12.542969 16.363281 12.082031 C 16.671875 11.777344 16.921875 11.472656 16.921875 11.402344 C 16.921875 11.335938 17.148438 11.277344 17.429688 11.277344 C 18.679688 11.269531 19.921875 10.085938 19.921875 8.902344 C 19.921875 8.574219 19.957031 8.550781 20.511719 8.484375 C 22.359375 8.265625 23.464844 6.566406 22.863281 4.871094 C 22.710938 4.445312 22.71875 4.359375 22.925781 3.953125 C 23.496094 2.828125 23.324219 1.714844 22.445312 0.835938 C 21.667969 0.0625 20.660156 -0.1875 19.71875 0.160156 M 19.800781 1.859375 C 19.429688 2.132812 19.316406 2.152344 18.640625 2.085938 C 17.921875 2.011719 17.878906 2.023438 17.527344 2.375 C 17.324219 2.578125 17.160156 2.839844 17.160156 2.964844 C 17.160156 3.59375 16.53125 3.886719 15.78125 3.601562 C 15.027344 3.3125 14.113281 4.226562 14.402344 4.980469 C 14.671875 5.699219 14.363281 6.359375 13.757812 6.359375 C 13.601562 6.359375 13.332031 6.492188 13.15625 6.652344 C 12.90625 6.886719 12.839844 7.058594 12.839844 7.472656 C 12.839844 7.910156 12.90625 8.058594 13.261719 8.398438 C 13.722656 8.847656 13.773438 9.132812 13.492188 9.703125 C 13.152344 10.382812 12.722656 10.476562 12.046875 10.019531 C 11.804688 9.855469 11.503906 9.71875 11.378906 9.71875 C 10.914062 9.71875 10.441406 10.085938 10.171875 10.652344 L 9.898438 11.21875 L 9.03125 11.179688 C 8.195312 11.144531 8.144531 11.15625 7.789062 11.515625 C 7.46875 11.832031 7.425781 11.945312 7.488281 12.304688 C 7.527344 12.53125 7.59375 12.910156 7.632812 13.144531 C 7.710938 13.597656 7.453125 14.039062 7.113281 14.039062 C 6.773438 14.039062 6.238281 14.71875 6.238281 15.152344 C 6.238281 15.375 6.273438 15.59375 6.316406 15.636719 C 6.359375 15.679688 6.96875 15.1875 7.667969 14.542969 C 9.585938 12.777344 9.964844 12.480469 10.324219 12.480469 C 10.71875 12.480469 11.039062 12.816406 11.039062 13.238281 C 11.039062 13.453125 10.898438 13.679688 10.597656 13.945312 C 7.941406 16.300781 7.660156 16.589844 7.734375 16.90625 C 7.933594 17.753906 8.984375 18.035156 9.609375 17.410156 C 9.800781 17.214844 9.960938 16.976562 9.960938 16.875 C 9.960938 16.773438 10.074219 16.582031 10.214844 16.449219 C 10.433594 16.246094 10.582031 16.222656 11.210938 16.28125 C 11.933594 16.347656 11.960938 16.339844 12.277344 15.964844 C 12.519531 15.675781 12.601562 15.453125 12.601562 15.058594 C 12.601562 14.636719 12.660156 14.488281 12.917969 14.289062 C 13.089844 14.152344 13.296875 14.039062 13.378906 14.039062 C 13.660156 14.039062 14.140625 13.554688 14.222656 13.191406 C 14.269531 12.980469 14.238281 12.671875 14.15625 12.464844 C 13.941406 11.953125 14.152344 11.585938 14.84375 11.253906 C 15.324219 11.023438 15.449219 10.890625 15.613281 10.445312 C 15.882812 9.707031 16.175781 9.527344 16.832031 9.710938 C 17.433594 9.878906 17.875 9.757812 18.167969 9.339844 C 18.441406 8.953125 18.410156 8.257812 18.105469 7.867188 C 17.757812 7.425781 17.785156 7.011719 18.1875 6.59375 C 18.5625 6.199219 19.074219 6.125 19.328125 6.429688 C 19.554688 6.703125 20.101562 6.960938 20.464844 6.960938 C 20.652344 6.960938 20.917969 6.820312 21.128906 6.609375 C 21.578125 6.160156 21.597656 5.605469 21.179688 5.039062 C 20.761719 4.472656 20.792969 4.085938 21.300781 3.5625 C 21.855469 2.992188 21.878906 2.421875 21.371094 1.910156 C 20.917969 1.460938 20.363281 1.441406 19.800781 1.859375 "/>
</g>
</svg>
