<?xml version="1.0" encoding="UTF-8"?>
<svg xmlns="http://www.w3.org/2000/svg" xmlns:xlink="http://www.w3.org/1999/xlink" width="100px" height="100px" viewBox="0 0 100 100" version="1.1">
<g id="surface1">
<path style=" stroke:none;fill-rule:evenodd;fill:rgb(0%,0%,0%);fill-opacity:1;" d="M 82.160156 0.664062 C 81.285156 0.984375 80.40625 1.417969 80.203125 1.625 C 80 1.832031 78.464844 2.003906 76.792969 2.011719 C 72.867188 2.023438 70.171875 3.257812 67.765625 6.136719 C 66.046875 8.191406 65.65625 8.40625 63.222656 8.605469 C 58.128906 9.027344 54.027344 13.140625 53.605469 18.253906 C 53.402344 20.710938 53.210938 21.0625 51.457031 22.28125 C 48.871094 24.070312 47 27.867188 47 31.3125 L 47 33.929688 L 44.210938 34.738281 C 42.195312 35.324219 40.808594 36.164062 39.199219 37.773438 C 37.65625 39.316406 36.554688 40 35.613281 40.003906 C 29.894531 40.015625 25 44.90625 24.710938 50.898438 C 24.597656 53.203125 24.324219 53.828125 22.605469 55.691406 C 21.519531 56.871094 20.347656 58.691406 20.003906 59.738281 C 19.171875 62.261719 19.648438 66.5625 21.003906 68.753906 L 22.074219 70.492188 L 18.382812 74.871094 C 10.863281 83.789062 3 95.035156 3 96.863281 C 3 98.097656 5.015625 100 6.320312 100 C 7.605469 100 8.644531 98.832031 12.46875 93.09375 C 15.542969 88.472656 24.65625 76.824219 26.183594 75.554688 C 26.863281 74.988281 27.171875 75.128906 28.34375 76.519531 C 29.09375 77.414062 30.84375 78.671875 32.230469 79.316406 C 36.820312 81.453125 40.96875 80.664062 44.695312 76.945312 C 46.5625 75.078125 47.511719 74.496094 48.695312 74.488281 C 52.628906 74.460938 57.511719 70.382812 58.550781 66.257812 C 58.863281 65.015625 59.308594 64 59.542969 64 C 60.421875 64 63.597656 60.769531 64.546875 58.910156 C 65.089844 57.847656 65.609375 56.003906 65.703125 54.816406 C 65.84375 53.019531 66.265625 52.257812 68.1875 50.339844 C 69.460938 49.066406 70.5 47.796875 70.5 47.511719 C 70.5 47.230469 71.457031 46.996094 72.625 46.988281 C 77.832031 46.960938 83 42.027344 83 37.085938 C 83 35.726562 83.148438 35.621094 85.464844 35.347656 C 93.167969 34.433594 97.773438 27.355469 95.257812 20.292969 C 94.628906 18.527344 94.652344 18.160156 95.519531 16.464844 C 97.90625 11.785156 97.191406 7.136719 93.527344 3.488281 C 90.28125 0.257812 86.082031 -0.785156 82.160156 0.664062 M 82.496094 7.753906 C 80.960938 8.886719 80.492188 8.976562 77.675781 8.6875 C 74.675781 8.378906 74.496094 8.425781 73.027344 9.894531 C 72.1875 10.734375 71.5 11.839844 71.5 12.351562 C 71.5 14.976562 68.878906 16.1875 65.757812 15.003906 C 62.605469 13.804688 58.804688 17.605469 60.003906 20.757812 C 61.136719 23.742188 59.851562 26.5 57.324219 26.5 C 56.675781 26.5 55.550781 27.050781 54.824219 27.726562 C 53.78125 28.691406 53.5 29.417969 53.5 31.128906 C 53.5 32.957031 53.777344 33.574219 55.25 35 C 57.183594 36.871094 57.390625 38.058594 56.210938 40.425781 C 54.800781 43.257812 53.003906 43.652344 50.203125 41.75 C 49.191406 41.0625 47.929688 40.5 47.40625 40.5 C 45.476562 40.5 43.511719 42.019531 42.378906 44.386719 L 41.25 46.75 L 37.625 46.585938 C 34.140625 46.425781 33.941406 46.480469 32.449219 47.976562 C 31.117188 49.304688 30.9375 49.78125 31.195312 51.265625 C 31.363281 52.21875 31.636719 53.796875 31.808594 54.773438 C 32.132812 56.65625 31.058594 58.5 29.632812 58.5 C 28.21875 58.5 26 61.328125 26 63.128906 C 26 64.066406 26.144531 64.976562 26.320312 65.15625 C 26.5 65.332031 29.03125 63.28125 31.945312 60.59375 C 39.941406 53.230469 41.527344 52 43.011719 52 C 44.667969 52 46 53.40625 46 55.152344 C 46 56.050781 45.40625 57.003906 44.152344 58.113281 C 33.09375 67.921875 31.925781 69.128906 32.234375 70.449219 C 33.058594 73.972656 37.429688 75.144531 40.039062 72.539062 C 40.84375 71.734375 41.5 70.730469 41.5 70.308594 C 41.5 69.886719 41.980469 69.089844 42.566406 68.542969 C 43.476562 67.695312 44.085938 67.59375 46.71875 67.839844 C 49.722656 68.117188 49.839844 68.085938 51.152344 66.523438 C 52.164062 65.324219 52.5 64.382812 52.5 62.746094 C 52.5 60.992188 52.753906 60.371094 53.816406 59.535156 C 54.542969 58.964844 55.410156 58.5 55.75 58.5 C 56.921875 58.5 58.925781 56.480469 59.257812 54.960938 C 59.449219 54.089844 59.328125 52.792969 58.976562 51.945312 C 58.089844 49.804688 58.960938 48.277344 61.855469 46.894531 C 63.851562 45.9375 64.378906 45.382812 65.054688 43.523438 C 66.179688 40.4375 67.402344 39.703125 70.136719 40.46875 C 72.640625 41.167969 74.484375 40.65625 75.699219 38.921875 C 76.835938 37.296875 76.714844 34.40625 75.4375 32.785156 C 73.992188 30.945312 74.101562 29.21875 75.78125 27.46875 C 77.347656 25.832031 79.484375 25.523438 80.527344 26.78125 C 81.480469 27.933594 83.761719 29 85.261719 29 C 86.046875 29 87.164062 28.410156 88.039062 27.539062 C 89.910156 25.664062 89.984375 23.351562 88.25 21 C 86.511719 18.644531 86.644531 17.019531 88.75 14.851562 C 91.058594 12.472656 91.160156 10.082031 89.039062 7.960938 C 87.164062 6.085938 84.851562 6.011719 82.496094 7.753906 "/>
</g>
</svg>
