<?xml version="1.0" encoding="UTF-8"?>
<svg xmlns="http://www.w3.org/2000/svg" xmlns:xlink="http://www.w3.org/1999/xlink" width="24px" height="24px" viewBox="0 0 24 24" version="1.1">
<g id="surface1">
<path style=" stroke:none;fill-rule:evenodd;fill:rgb(0%,0%,0%);fill-opacity:1;" d="M 11.328125 0.945312 C 10.953125 1.117188 10.769531 1.3125 10.5625 1.738281 C 10.316406 2.242188 10.296875 2.421875 10.351562 3.460938 C 10.421875 4.722656 11.082031 7.308594 11.480469 7.898438 C 11.675781 8.183594 11.707031 8.582031 11.761719 11.398438 C 11.8125 14.121094 11.847656 14.578125 12 14.578125 C 12.15625 14.578125 12.183594 14.132812 12.210938 11.386719 C 12.242188 8.375 12.257812 8.179688 12.484375 7.976562 C 12.742188 7.742188 13.015625 6.914062 13.507812 4.859375 C 13.871094 3.359375 13.851562 2.488281 13.441406 1.679688 C 13.007812 0.835938 12.183594 0.546875 11.328125 0.945312 M 11.28125 1.53125 C 10.863281 1.910156 10.625 2.867188 10.746094 3.660156 C 10.839844 4.253906 11.226562 5.835938 11.496094 6.71875 L 11.699219 7.378906 L 11.761719 4.800781 C 11.8125 2.46875 11.839844 2.21875 12.03125 2.183594 C 12.226562 2.144531 12.242188 2.335938 12.242188 4.820312 C 12.246094 6.632812 12.285156 7.433594 12.363281 7.296875 C 12.429688 7.1875 12.675781 6.351562 12.910156 5.4375 C 13.390625 3.582031 13.421875 2.515625 13.015625 1.828125 C 12.609375 1.136719 11.855469 1.007812 11.28125 1.53125 M 4.472656 4.15625 C 3.992188 4.394531 3.601562 5 3.601562 5.507812 C 3.601562 6.65625 4.484375 7.53125 6.792969 8.65625 C 7.730469 9.117188 8.6875 9.523438 8.925781 9.5625 C 9.164062 9.597656 9.40625 9.691406 9.46875 9.765625 C 9.773438 10.132812 10.207031 11.84375 10.34375 13.191406 C 10.464844 14.394531 10.523438 14.640625 10.675781 14.609375 C 11.078125 14.527344 10.71875 11.558594 10.136719 10.175781 C 9.960938 9.757812 9.808594 9.257812 9.792969 9.058594 C 9.753906 8.554688 9.410156 7.941406 8.296875 6.402344 C 6.785156 4.320312 5.578125 3.609375 4.472656 4.15625 M 17.984375 4.1875 C 17.175781 4.59375 16.667969 5.074219 15.789062 6.289062 C 14.542969 8.007812 14.25 8.511719 14.210938 8.996094 C 14.195312 9.230469 14.035156 9.757812 13.863281 10.175781 C 13.476562 11.09375 13.230469 12.335938 13.179688 13.621094 C 13.148438 14.40625 13.171875 14.578125 13.316406 14.578125 C 13.457031 14.578125 13.527344 14.273438 13.640625 13.199219 C 13.785156 11.808594 14.273438 9.96875 14.550781 9.75 C 14.632812 9.6875 14.890625 9.597656 15.121094 9.554688 C 15.351562 9.511719 16.296875 9.101562 17.226562 8.648438 C 19.515625 7.53125 20.398438 6.652344 20.398438 5.507812 C 20.398438 4.714844 19.589844 3.953125 18.761719 3.964844 C 18.574219 3.96875 18.222656 4.066406 17.984375 4.1875 M 4.449219 4.75 C 3.792969 5.300781 3.976562 6.140625 4.949219 7.039062 C 5.425781 7.476562 7.976562 8.828125 8.761719 9.058594 C 9.167969 9.175781 7.6875 7.664062 6.503906 6.753906 C 5.894531 6.28125 5.667969 6.042969 5.757812 5.953125 C 5.976562 5.738281 6.695312 6.226562 8.03125 7.5 C 9.339844 8.746094 9.34375 8.699219 8.09375 6.898438 C 6.539062 4.65625 5.375 3.972656 4.449219 4.75 M 18 4.671875 C 17.375 5.003906 16.777344 5.632812 15.921875 6.871094 C 14.652344 8.703125 14.65625 8.75 15.96875 7.5 C 17.3125 6.21875 18.023438 5.734375 18.246094 5.957031 C 18.335938 6.050781 18.140625 6.261719 17.558594 6.695312 C 16.464844 7.511719 14.828125 9.179688 15.238281 9.054688 C 16.027344 8.824219 18.585938 7.46875 19.054688 7.035156 C 20.023438 6.140625 20.207031 5.300781 19.550781 4.75 C 19.109375 4.378906 18.601562 4.355469 18 4.671875 M 11.039062 15.519531 C 9.894531 15.785156 9.042969 16.371094 8.628906 17.183594 C 8.355469 17.714844 8.308594 18.589844 8.515625 19.140625 C 8.722656 19.675781 9.453125 20.378906 10.21875 20.765625 C 10.878906 21.101562 11.332031 21.535156 11.449219 21.941406 C 11.480469 22.050781 11.566406 22.371094 11.636719 22.648438 C 11.734375 23.027344 11.828125 23.160156 12 23.160156 C 12.171875 23.160156 12.265625 23.027344 12.363281 22.648438 C 12.433594 22.371094 12.523438 22.046875 12.554688 21.929688 C 12.675781 21.519531 13.230469 20.992188 13.808594 20.746094 C 14.425781 20.480469 15.285156 19.648438 15.484375 19.132812 C 15.546875 18.960938 15.601562 18.542969 15.601562 18.195312 C 15.601562 16.375 13.265625 15.007812 11.039062 15.519531 M 10.894531 16 C 9.320312 16.445312 8.460938 17.734375 8.945312 18.933594 C 9.1875 19.542969 9.742188 20.050781 10.617188 20.464844 C 11.265625 20.769531 11.648438 21.164062 11.8125 21.691406 C 11.902344 21.976562 12.121094 22.0625 12.121094 21.808594 C 12.121094 21.414062 12.742188 20.777344 13.492188 20.402344 C 14.824219 19.742188 15.402344 18.8125 15.125 17.785156 C 14.960938 17.171875 14.320312 16.496094 13.597656 16.175781 C 12.921875 15.878906 11.628906 15.792969 10.894531 16 M 11.519531 19.164062 C 10.855469 19.273438 10.425781 19.464844 10.464844 19.636719 C 10.507812 19.851562 10.523438 19.851562 11.359375 19.664062 C 11.945312 19.535156 12.105469 19.542969 12.617188 19.722656 C 13.1875 19.925781 13.441406 19.910156 13.441406 19.667969 C 13.441406 19.402344 12.136719 19.0625 11.519531 19.164062 "/>
</g>
</svg>
