<?xml version="1.0" encoding="UTF-8"?>
<svg xmlns="http://www.w3.org/2000/svg" xmlns:xlink="http://www.w3.org/1999/xlink" width="100px" height="100px" viewBox="0 0 100 100" version="1.1">
<g id="surface1">
<path style=" stroke:none;fill-rule:evenodd;fill:rgb(0%,0%,0%);fill-opacity:1;" d="M 47.195312 3.9375 C 45.644531 4.65625 44.867188 5.460938 44.007812 7.234375 C 42.988281 9.335938 42.898438 10.089844 43.136719 14.417969 C 43.429688 19.671875 46.167969 30.445312 47.835938 32.90625 C 48.648438 34.097656 48.777344 35.753906 49 47.5 C 49.214844 58.832031 49.359375 60.75 50 60.75 C 50.644531 60.75 50.769531 58.878906 50.882812 47.445312 C 51.007812 34.890625 51.070312 34.089844 52.011719 33.242188 C 53.089844 32.265625 54.226562 28.816406 56.289062 20.25 C 57.792969 14.003906 57.714844 10.359375 56 7 C 54.203125 3.476562 50.773438 2.285156 47.195312 3.9375 M 47.003906 6.375 C 45.261719 7.960938 44.261719 11.941406 44.777344 15.25 C 45.160156 17.722656 46.78125 24.324219 47.90625 28 L 48.75 30.75 L 49 20.007812 C 49.226562 10.289062 49.332031 9.246094 50.125 9.09375 C 50.9375 8.9375 51 9.730469 51.015625 20.089844 C 51.027344 27.628906 51.191406 30.976562 51.519531 30.410156 C 51.789062 29.945312 52.816406 26.460938 53.796875 22.660156 C 55.796875 14.929688 55.929688 10.476562 54.238281 7.617188 C 52.539062 4.738281 49.398438 4.199219 47.003906 6.375 M 18.628906 17.324219 C 16.632812 18.304688 15 20.839844 15 22.949219 C 15 27.738281 18.683594 31.375 28.296875 36.074219 C 32.203125 37.984375 36.207031 39.675781 37.191406 39.835938 C 38.175781 39.996094 39.195312 40.382812 39.457031 40.699219 C 40.714844 42.214844 42.535156 49.347656 43.097656 54.96875 C 43.597656 59.972656 43.839844 61.007812 44.476562 60.878906 C 46.160156 60.535156 44.65625 48.15625 42.234375 42.394531 C 41.507812 40.664062 40.863281 38.574219 40.800781 37.75 C 40.644531 35.636719 39.207031 33.085938 34.566406 26.679688 C 28.277344 17.996094 23.25 15.042969 18.628906 17.324219 M 74.941406 17.445312 C 71.558594 19.136719 69.457031 21.148438 65.792969 26.203125 C 60.597656 33.367188 59.375 35.464844 59.214844 37.480469 C 59.140625 38.453125 58.484375 40.664062 57.761719 42.394531 C 56.15625 46.222656 55.128906 51.40625 54.914062 56.75 C 54.78125 60.023438 54.882812 60.75 55.492188 60.75 C 56.070312 60.75 56.367188 59.476562 56.835938 54.992188 C 57.445312 49.210938 59.46875 41.539062 60.628906 40.628906 C 60.96875 40.359375 62.035156 39.992188 62.996094 39.808594 C 63.960938 39.625 67.910156 37.929688 71.773438 36.039062 C 81.308594 31.375 85 27.722656 85 22.949219 C 85 19.652344 81.625 16.472656 78.175781 16.519531 C 77.390625 16.53125 75.933594 16.945312 74.941406 17.445312 M 18.539062 19.792969 C 15.808594 22.09375 16.570312 25.59375 20.617188 29.324219 C 22.601562 31.152344 33.238281 36.789062 36.5 37.742188 C 38.203125 38.238281 32.035156 31.925781 27.109375 28.136719 C 24.558594 26.175781 23.621094 25.175781 23.992188 24.808594 C 24.898438 23.902344 27.902344 25.945312 33.46875 31.25 C 38.914062 36.441406 38.9375 36.246094 33.730469 28.75 C 27.238281 19.398438 22.398438 16.546875 18.539062 19.792969 M 75 19.472656 C 72.386719 20.855469 69.910156 23.476562 66.347656 28.625 C 61.054688 36.265625 61.070312 36.453125 66.53125 31.25 C 72.136719 25.910156 75.101562 23.902344 76.023438 24.820312 C 76.40625 25.207031 75.589844 26.085938 73.15625 27.898438 C 68.601562 31.292969 61.78125 38.242188 63.5 37.734375 C 66.777344 36.765625 77.441406 31.117188 79.402344 29.308594 C 83.429688 25.59375 84.1875 22.089844 81.460938 19.792969 C 79.628906 18.253906 77.5 18.148438 75 19.472656 M 46 64.671875 C 41.21875 65.769531 37.675781 68.214844 35.949219 71.597656 C 34.820312 73.8125 34.613281 77.453125 35.488281 79.75 C 36.339844 81.988281 39.390625 84.90625 42.574219 86.527344 C 45.324219 87.925781 47.210938 89.726562 47.699219 91.414062 C 47.832031 91.875 48.1875 93.207031 48.488281 94.375 C 48.894531 95.949219 49.289062 96.5 50 96.5 C 50.710938 96.5 51.105469 95.949219 51.511719 94.375 C 51.8125 93.207031 52.175781 91.855469 52.316406 91.371094 C 52.808594 89.664062 55.132812 87.46875 57.539062 86.433594 C 60.105469 85.332031 63.691406 81.875 64.515625 79.714844 C 64.78125 79.011719 65 77.257812 65 75.816406 C 65 68.234375 55.28125 62.53125 46 64.671875 M 45.402344 66.667969 C 38.828125 68.527344 35.261719 73.886719 37.265625 78.890625 C 38.28125 81.433594 40.585938 83.539062 44.238281 85.265625 C 46.941406 86.546875 48.539062 88.183594 49.21875 90.375 C 49.589844 91.574219 50.5 91.921875 50.5 90.867188 C 50.5 89.21875 53.089844 86.574219 56.214844 85.015625 C 61.769531 82.253906 64.183594 78.390625 63.027344 74.101562 C 62.339844 71.546875 59.664062 68.738281 56.652344 67.40625 C 53.839844 66.160156 48.445312 65.808594 45.402344 66.667969 M 48 79.847656 C 45.234375 80.308594 43.449219 81.109375 43.597656 81.824219 C 43.785156 82.714844 43.84375 82.71875 47.324219 81.941406 C 49.773438 81.390625 50.441406 81.421875 52.574219 82.179688 C 54.957031 83.027344 56 82.953125 56 81.945312 C 56 80.84375 50.566406 79.421875 48 79.847656 "/>
</g>
</svg>
