<?xml version="1.0" encoding="UTF-8"?>
<svg xmlns="http://www.w3.org/2000/svg" xmlns:xlink="http://www.w3.org/1999/xlink" width="100px" height="100px" viewBox="0 0 100 100" version="1.1">
<g id="surface1">
<path style=" stroke:none;fill-rule:evenodd;fill:rgb(0%,0%,0%);fill-opacity:1;" d="M 2.199219 0.382812 C 0.671875 1.402344 0.5 3.136719 0.5 17.5 C 0.5 31.863281 0.671875 33.597656 2.199219 34.617188 C 2.503906 34.820312 9.738281 34.988281 18.28125 34.992188 C 30.910156 35 33.988281 34.867188 34.78125 34.289062 C 35.707031 33.613281 35.75 32.839844 35.75 17.5 C 35.75 2.160156 35.707031 1.386719 34.78125 0.710938 C 33.988281 0.132812 30.910156 0 18.28125 0.0078125 C 9.738281 0.0117188 2.503906 0.179688 2.199219 0.382812 M 10.910156 6.25 C 10.503906 7.140625 10.492188 7.832031 10.867188 8.65625 C 11.15625 9.289062 11.785156 12.214844 12.269531 15.15625 L 13.148438 20.5 L 21.914062 20.5 L 26.53125 28.507812 L 28.046875 27.726562 C 29.722656 26.859375 29.742188 25.683594 28.074219 25.867188 C 27.226562 25.960938 26.632812 25.28125 25.128906 22.5 L 23.25 19.015625 L 18.875 19.007812 C 14.542969 19 14.5 18.988281 14.5 17.75 C 14.5 16.535156 14.601562 16.5 18 16.5 C 20.777344 16.5 21.5 16.34375 21.5 15.75 C 21.5 15.152344 20.753906 15 17.78125 15 L 14.058594 15 L 13.613281 12.875 C 13.195312 10.894531 13.261719 10.671875 14.582031 9.589844 C 15.363281 8.949219 16 8.011719 16 7.5 C 16 4.984375 11.941406 3.988281 10.910156 6.25 M 9.128906 16.179688 C 4.277344 21.707031 8.070312 30.003906 15.449219 29.996094 C 19.746094 29.996094 23.574219 27.09375 22.742188 24.472656 C 22.417969 23.449219 22.355469 23.472656 21.453125 24.953125 C 18.835938 29.257812 13.148438 29.636719 10.058594 25.710938 C 8.292969 23.464844 8.207031 21.347656 9.75 18.292969 C 11.496094 14.84375 11.195312 13.828125 9.128906 16.179688 M 57 14.820312 C 57 15.832031 61.113281 28 61.457031 28 C 61.851562 28 58.921875 16.085938 58.261719 15.019531 C 57.910156 14.453125 57 14.308594 57 14.820312 M 48.71875 20.050781 C 48.53125 20.351562 48.800781 20.988281 49.316406 21.460938 C 55.039062 26.714844 58.910156 29.921875 59.191406 29.644531 C 59.53125 29.300781 50.085938 19.5 49.414062 19.5 C 49.21875 19.5 48.90625 19.746094 48.71875 20.050781 M 44 28.480469 C 44 28.746094 44.84375 29.1875 45.875 29.460938 C 46.90625 29.738281 49.875 30.527344 52.46875 31.21875 C 56.5625 32.3125 58.214844 32.507812 57.457031 31.808594 C 57.066406 31.445312 45.613281 28 44.804688 28 C 44.363281 28 44 28.214844 44 28.480469 M 64.207031 30.710938 C 57.679688 33.554688 59.703125 43.503906 66.808594 43.496094 C 74.179688 43.492188 75.980469 33.597656 69.140625 30.683594 C 67.160156 29.84375 66.191406 29.847656 64.207031 30.710938 M 16.5 67.25 L 16.5 97.5 L 12.75 97.5 C 9.75 97.5 9 97.648438 9 98.25 C 9 98.890625 10.359375 99 18.25 99 C 26.140625 99 27.5 98.890625 27.5 98.25 C 27.5 97.648438 26.75 97.5 23.75 97.5 L 20 97.5 L 20 37 L 16.5 37 L 16.5 67.25 M 62 39.179688 C 62 40.5 64.203125 41.578125 66.546875 41.40625 C 69.488281 41.191406 69.539062 40.25 66.644531 39.613281 C 65.328125 39.320312 63.742188 38.925781 63.125 38.734375 C 62.28125 38.472656 62 38.582031 62 39.179688 M 54.75 40.597656 C 49.320312 41.324219 39.410156 42.921875 39.261719 43.09375 C 39.191406 43.179688 37.285156 48.1875 35.03125 54.222656 C 30.214844 67.113281 30.324219 66.882812 28.875 67.089844 C 27.777344 67.246094 27.746094 67.414062 27.613281 74.375 L 27.472656 81.5 L 48.84375 81.5 L 49.164062 74.808594 C 49.34375 71.128906 49.597656 67.808594 49.730469 67.433594 C 49.867188 67.058594 49.328125 65.96875 48.539062 65.015625 L 47.101562 63.285156 L 42.445312 63.871094 C 39.886719 64.195312 37.703125 64.371094 37.597656 64.265625 C 37.488281 64.15625 38.738281 60.507812 40.371094 56.160156 C 43.070312 48.984375 43.480469 48.203125 44.800781 47.75 C 45.605469 47.476562 47.089844 46.613281 48.101562 45.839844 C 50.375 44.09375 54.066406 42.660156 57.421875 42.214844 C 59.714844 41.910156 59.917969 41.78125 59.464844 40.9375 C 59.191406 40.421875 58.804688 40.027344 58.609375 40.0625 C 58.410156 40.097656 56.675781 40.339844 54.75 40.597656 M 72.703125 42.691406 L 71.160156 44.3125 L 73.203125 45.46875 C 74.328125 46.101562 77.015625 46.917969 79.175781 47.28125 C 81.335938 47.640625 83.183594 48.019531 83.285156 48.117188 C 83.671875 48.503906 89.460938 64.207031 89.28125 64.382812 C 89.179688 64.488281 86.960938 64.257812 84.351562 63.878906 L 79.605469 63.183594 L 78.378906 64.714844 C 77.703125 65.558594 75.773438 67.039062 74.089844 68 L 71.027344 69.75 L 71.339844 72.203125 C 71.511719 73.550781 72.023438 76.140625 72.480469 77.953125 L 73.3125 81.25 L 99.5 81.515625 L 99.5 67.578125 L 97.875 67.027344 C 96.300781 66.496094 96.117188 66.121094 92 54.925781 C 88.828125 46.304688 87.496094 43.265625 86.75 42.953125 C 85.863281 42.582031 75.523438 40.945312 74.609375 41.035156 C 74.410156 41.054688 73.554688 41.796875 72.703125 42.691406 M 56.175781 44.019531 C 51.179688 45.007812 46.613281 48.589844 45.464844 52.417969 C 44.601562 55.304688 45.832031 58.976562 48.980469 62.878906 L 51.503906 66.011719 L 50.914062 73.242188 C 50.019531 84.265625 51.492188 96.082031 54.113281 98.867188 C 55.527344 100.375 57.710938 100.335938 59.273438 98.773438 C 60.683594 97.359375 60.78125 96.417969 59.789062 93.613281 C 58.574219 90.167969 57.871094 82.195312 58.25 76.125 L 58.597656 70.5 L 60.242188 70.5 C 61.867188 70.5 61.886719 70.527344 62.230469 73.375 C 63.636719 85.121094 70.730469 99.5 75.117188 99.5 C 76.820312 99.5 79 97.519531 79 95.96875 C 79 95.375 77.898438 93.242188 76.546875 91.226562 C 73.597656 86.8125 71.363281 81.226562 70.292969 75.570312 C 69.046875 68.988281 69.097656 68.71875 71.929688 67.285156 C 80.875 62.753906 82.203125 55.464844 75.253906 49.058594 C 72.371094 46.402344 69.484375 45.09375 64.558594 44.214844 C 60.300781 43.453125 59.164062 43.429688 56.175781 44.019531 M 52.410156 50.738281 C 49.601562 52.648438 49.277344 54.546875 51.214844 57.746094 C 52.390625 59.6875 52.429688 59.707031 52.710938 58.496094 C 53.546875 54.925781 54.496094 49.832031 54.355469 49.6875 C 54.265625 49.597656 53.390625 50.070312 52.410156 50.738281 M 70.332031 51.875 C 70.203125 52.082031 69.953125 53.824219 69.777344 55.75 C 69.597656 57.675781 69.328125 60.09375 69.179688 61.125 C 68.8125 63.707031 69.851562 63.605469 72.808594 60.773438 C 74.859375 58.808594 75.097656 58.359375 74.824219 57.003906 C 74.363281 54.695312 70.972656 50.824219 70.332031 51.875 M 36.238281 69.710938 C 34.777344 70.335938 33.5 72.242188 33.5 73.796875 C 33.5 75.269531 34.976562 77.367188 36.441406 77.976562 C 39.335938 79.175781 42.5 77.066406 42.5 73.941406 C 42.5 70.511719 39.347656 68.378906 36.238281 69.710938 M 86.691406 69.804688 C 84.191406 71.019531 83.421875 73.429688 84.726562 75.953125 C 86.863281 80.089844 93 78.453125 93 73.75 C 93 70.300781 89.796875 68.296875 86.691406 69.804688 M 60.050781 76.875 C 60.003906 81.183594 60.070312 81.5 61 81.5 C 62.1875 81.5 62.183594 81.808594 61.027344 76.5 L 60.101562 72.25 L 60.050781 76.875 M 27.5 87 L 27.5 91 L 30.5 91 L 30.5 94.648438 C 30.5 96.820312 30.742188 98.542969 31.101562 98.898438 C 31.46875 99.269531 33.273438 99.5 35.773438 99.5 C 40.972656 99.5 41.5 99.027344 41.5 94.335938 L 41.5 91 L 45.5 91 C 50.027344 91 49.734375 91.394531 49.179688 86.074219 L 48.859375 83 L 27.5 83 L 27.5 87 M 60 84.648438 C 60 85.589844 60.144531 87.40625 60.316406 88.679688 L 60.636719 91 L 63.121094 91 C 65.296875 91 65.558594 90.890625 65.234375 90.125 C 65.027344 89.644531 64.355469 87.898438 63.738281 86.25 C 62.800781 83.738281 62.402344 83.222656 61.308594 83.09375 C 60.121094 82.949219 60 83.09375 60 84.648438 M 74.769531 84.71875 C 75.164062 85.664062 76.109375 87.464844 76.867188 88.71875 L 78.242188 91 L 85.5 91 L 85.5 94.464844 C 85.5 99.097656 85.9375 99.5 90.957031 99.5 C 95.953125 99.5 96.5 98.988281 96.5 94.335938 L 96.5 91 L 99.5 91 L 99.5 83 L 74.050781 83 L 74.769531 84.71875 "/>
</g>
</svg>
