<?xml version="1.0" encoding="UTF-8"?>
<svg xmlns="http://www.w3.org/2000/svg" xmlns:xlink="http://www.w3.org/1999/xlink" width="24px" height="24px" viewBox="0 0 24 24" version="1.1">
<g id="surface1">
<path style=" stroke:none;fill-rule:evenodd;fill:rgb(0%,0%,0%);fill-opacity:1;" d="M 0.527344 0.09375 C 0.160156 0.335938 0.121094 0.753906 0.121094 4.199219 C 0.121094 7.648438 0.160156 8.0625 0.527344 8.308594 C 0.601562 8.355469 2.335938 8.398438 4.386719 8.398438 C 7.417969 8.398438 8.15625 8.367188 8.347656 8.230469 C 8.570312 8.066406 8.578125 7.882812 8.578125 4.199219 C 8.578125 0.519531 8.570312 0.332031 8.347656 0.171875 C 8.15625 0.03125 7.417969 0 4.386719 0 C 2.335938 0.00390625 0.601562 0.0429688 0.527344 0.09375 M 2.617188 1.5 C 2.519531 1.714844 2.519531 1.878906 2.609375 2.078125 C 2.675781 2.230469 2.828125 2.933594 2.945312 3.636719 L 3.15625 4.921875 L 5.257812 4.921875 L 6.367188 6.84375 L 6.730469 6.652344 C 7.132812 6.445312 7.136719 6.164062 6.738281 6.207031 C 6.535156 6.230469 6.390625 6.066406 6.03125 5.398438 L 5.578125 4.5625 L 4.53125 4.5625 C 3.492188 4.558594 3.480469 4.558594 3.480469 4.261719 C 3.480469 3.96875 3.503906 3.960938 4.320312 3.960938 C 4.988281 3.960938 5.160156 3.921875 5.160156 3.78125 C 5.160156 3.636719 4.980469 3.601562 4.265625 3.601562 L 3.375 3.601562 L 3.265625 3.089844 C 3.167969 2.613281 3.183594 2.5625 3.5 2.300781 C 3.6875 2.148438 3.839844 1.921875 3.839844 1.800781 C 3.839844 1.195312 2.867188 0.957031 2.617188 1.5 M 2.191406 3.882812 C 1.027344 5.210938 1.9375 7.199219 3.707031 7.199219 C 4.738281 7.199219 5.65625 6.503906 5.457031 5.875 C 5.378906 5.628906 5.367188 5.632812 5.148438 5.988281 C 4.519531 7.023438 3.15625 7.113281 2.414062 6.171875 C 1.992188 5.632812 1.96875 5.125 2.339844 4.390625 C 2.757812 3.5625 2.6875 3.320312 2.191406 3.882812 M 13.679688 3.554688 C 13.679688 3.800781 14.667969 6.71875 14.75 6.71875 C 14.84375 6.71875 14.140625 3.859375 13.984375 3.605469 C 13.898438 3.46875 13.679688 3.433594 13.679688 3.554688 M 11.691406 4.8125 C 11.648438 4.882812 11.710938 5.035156 11.835938 5.152344 C 13.210938 6.410156 14.136719 7.179688 14.207031 7.113281 C 14.289062 7.03125 12.019531 4.679688 11.859375 4.679688 C 11.8125 4.679688 11.738281 4.738281 11.691406 4.8125 M 10.558594 6.835938 C 10.558594 6.898438 10.761719 7.003906 11.011719 7.070312 C 11.257812 7.136719 11.96875 7.328125 12.59375 7.492188 C 13.574219 7.753906 13.972656 7.800781 13.789062 7.632812 C 13.695312 7.546875 10.945312 6.71875 10.753906 6.71875 C 10.648438 6.71875 10.558594 6.773438 10.558594 6.835938 M 15.410156 7.371094 C 13.84375 8.050781 14.328125 10.441406 16.035156 10.441406 C 17.804688 10.4375 18.234375 8.0625 16.59375 7.363281 C 16.117188 7.164062 15.886719 7.164062 15.410156 7.371094 M 3.960938 16.140625 L 3.960938 23.398438 L 3.058594 23.398438 C 2.339844 23.398438 2.160156 23.4375 2.160156 23.578125 C 2.160156 23.734375 2.488281 23.761719 4.378906 23.761719 C 6.273438 23.761719 6.601562 23.734375 6.601562 23.578125 C 6.601562 23.4375 6.421875 23.398438 5.699219 23.398438 L 4.800781 23.398438 L 4.800781 8.878906 L 3.960938 8.878906 L 3.960938 16.140625 M 14.878906 9.402344 C 14.878906 9.71875 15.410156 9.980469 15.972656 9.9375 C 16.675781 9.886719 16.6875 9.660156 15.996094 9.507812 C 15.679688 9.4375 15.296875 9.34375 15.148438 9.296875 C 14.949219 9.234375 14.878906 9.261719 14.878906 9.402344 M 13.140625 9.742188 C 11.835938 9.917969 9.457031 10.300781 9.421875 10.34375 C 9.40625 10.363281 8.949219 11.566406 8.40625 13.011719 C 7.25 16.105469 7.277344 16.050781 6.929688 16.101562 C 6.667969 16.140625 6.660156 16.179688 6.625 17.851562 L 6.59375 19.558594 L 11.722656 19.558594 L 11.800781 17.953125 C 11.84375 17.070312 11.902344 16.273438 11.9375 16.183594 C 11.96875 16.09375 11.839844 15.832031 11.648438 15.605469 L 11.304688 15.1875 L 10.1875 15.328125 C 9.574219 15.40625 9.050781 15.449219 9.023438 15.421875 C 8.996094 15.398438 9.296875 14.523438 9.6875 13.476562 C 10.335938 11.757812 10.433594 11.570312 10.753906 11.460938 C 10.945312 11.394531 11.300781 11.1875 11.542969 11 C 12.089844 10.582031 12.976562 10.238281 13.78125 10.132812 C 14.332031 10.058594 14.378906 10.027344 14.273438 9.824219 C 14.207031 9.703125 14.113281 9.605469 14.066406 9.617188 C 14.019531 9.625 13.601562 9.679688 13.140625 9.742188 M 17.449219 10.246094 L 17.078125 10.636719 L 17.570312 10.914062 C 17.839844 11.066406 18.484375 11.261719 19.003906 11.347656 C 19.519531 11.433594 19.964844 11.523438 19.988281 11.546875 C 20.082031 11.640625 21.46875 15.410156 21.425781 15.453125 C 21.402344 15.476562 20.871094 15.421875 20.242188 15.332031 L 19.105469 15.164062 L 18.8125 15.53125 C 18.648438 15.734375 18.1875 16.089844 17.78125 16.320312 L 17.046875 16.738281 L 17.121094 17.328125 C 17.164062 17.652344 17.285156 18.273438 17.394531 18.707031 L 17.59375 19.5 L 20.738281 19.53125 L 23.878906 19.5625 L 23.878906 16.21875 L 23.488281 16.085938 C 23.113281 15.960938 23.066406 15.867188 22.078125 13.183594 C 21.320312 11.113281 21 10.382812 20.820312 10.308594 C 20.605469 10.21875 18.125 9.828125 17.90625 9.847656 C 17.859375 9.851562 17.652344 10.03125 17.449219 10.246094 M 13.484375 10.566406 C 12.285156 10.800781 11.1875 11.660156 10.910156 12.582031 C 10.703125 13.273438 11 14.15625 11.753906 15.089844 L 12.359375 15.84375 L 12.21875 17.578125 C 12.003906 20.222656 12.359375 23.058594 12.988281 23.730469 C 13.328125 24.089844 13.851562 24.082031 14.226562 23.707031 C 14.5625 23.367188 14.585938 23.140625 14.347656 22.464844 C 14.058594 21.640625 13.890625 19.726562 13.980469 18.269531 L 14.0625 16.921875 L 14.457031 16.921875 C 14.847656 16.921875 14.851562 16.925781 14.933594 17.609375 C 15.273438 20.429688 16.976562 23.878906 18.027344 23.878906 C 18.4375 23.878906 18.960938 23.40625 18.960938 23.03125 C 18.960938 22.890625 18.695312 22.378906 18.371094 21.894531 C 17.664062 20.835938 17.128906 19.496094 16.871094 18.136719 C 16.570312 16.558594 16.582031 16.492188 17.261719 16.148438 C 19.410156 15.0625 19.730469 13.3125 18.0625 11.773438 C 17.371094 11.136719 16.675781 10.820312 15.492188 10.613281 C 14.472656 10.429688 14.199219 10.421875 13.484375 10.566406 M 12.578125 12.175781 C 11.90625 12.636719 11.828125 13.089844 12.292969 13.859375 C 12.574219 14.324219 12.582031 14.328125 12.652344 14.039062 C 12.851562 13.183594 13.078125 11.960938 13.046875 11.925781 C 13.023438 11.902344 12.8125 12.015625 12.578125 12.175781 M 16.878906 12.449219 C 16.847656 12.5 16.789062 12.917969 16.746094 13.378906 C 16.703125 13.84375 16.640625 14.421875 16.605469 14.671875 C 16.515625 15.289062 16.765625 15.265625 17.472656 14.585938 C 17.964844 14.113281 18.023438 14.007812 17.957031 13.679688 C 17.847656 13.125 17.03125 12.199219 16.878906 12.449219 M 8.695312 16.730469 C 8.347656 16.878906 8.039062 17.339844 8.039062 17.710938 C 8.039062 18.066406 8.394531 18.570312 8.746094 18.714844 C 9.441406 19 10.199219 18.496094 10.199219 17.746094 C 10.199219 16.921875 9.441406 16.410156 8.695312 16.730469 M 20.804688 16.753906 C 20.207031 17.042969 20.019531 17.625 20.335938 18.230469 C 20.847656 19.222656 22.320312 18.828125 22.320312 17.699219 C 22.320312 16.871094 21.550781 16.390625 20.804688 16.753906 M 14.414062 18.449219 C 14.402344 19.484375 14.417969 19.558594 14.640625 19.558594 C 14.925781 19.558594 14.925781 19.632812 14.648438 18.359375 L 14.425781 17.339844 L 14.414062 18.449219 M 6.601562 20.878906 L 6.601562 21.839844 L 7.320312 21.839844 L 7.320312 22.714844 C 7.320312 23.238281 7.378906 23.648438 7.464844 23.734375 C 7.550781 23.824219 7.984375 23.878906 8.585938 23.878906 C 9.832031 23.878906 9.960938 23.765625 9.960938 22.640625 L 9.960938 21.839844 L 10.921875 21.839844 C 12.007812 21.839844 11.9375 21.933594 11.804688 20.65625 L 11.726562 19.921875 L 6.601562 19.921875 L 6.601562 20.878906 M 14.398438 20.316406 C 14.398438 20.542969 14.433594 20.976562 14.476562 21.28125 L 14.550781 21.839844 L 15.148438 21.839844 C 15.671875 21.839844 15.734375 21.8125 15.65625 21.628906 C 15.605469 21.515625 15.445312 21.097656 15.296875 20.699219 C 15.070312 20.097656 14.976562 19.972656 14.714844 19.941406 C 14.429688 19.90625 14.398438 19.941406 14.398438 20.316406 M 17.945312 20.332031 C 18.039062 20.558594 18.265625 20.992188 18.449219 21.292969 L 18.777344 21.839844 L 20.519531 21.839844 L 20.519531 22.671875 C 20.519531 23.785156 20.625 23.878906 21.828125 23.878906 C 23.027344 23.878906 23.160156 23.757812 23.160156 22.640625 L 23.160156 21.839844 L 23.878906 21.839844 L 23.878906 19.921875 L 17.773438 19.921875 L 17.945312 20.332031 "/>
</g>
</svg>
