<?xml version="1.0" encoding="UTF-8"?>
<svg xmlns="http://www.w3.org/2000/svg" xmlns:xlink="http://www.w3.org/1999/xlink" width="24px" height="24px" viewBox="0 0 24 24" version="1.1">
<g id="surface1">
<path style=" stroke:none;fill-rule:evenodd;fill:rgb(0%,0%,0%);fill-opacity:1;" d="M 18.5625 1.335938 C 18.464844 1.492188 16.535156 4.96875 14.277344 9.058594 C 12.019531 13.152344 10.050781 16.703125 9.90625 16.949219 L 9.644531 17.394531 L 7.613281 12.179688 C 6.496094 9.3125 5.519531 6.964844 5.441406 6.964844 C 5.273438 6.960938 1.328125 7.992188 1.261719 8.058594 C 1.214844 8.105469 1.410156 9.851562 1.46875 9.90625 C 1.484375 9.921875 1.894531 9.851562 2.371094 9.746094 C 2.90625 9.632812 3.289062 9.601562 3.355469 9.667969 C 3.417969 9.730469 4.542969 12.613281 5.863281 16.078125 L 8.261719 22.378906 L 10.941406 22.378906 L 16.820312 11.839844 C 20.054688 6.046875 22.683594 1.285156 22.660156 1.265625 C 22.636719 1.242188 21.746094 1.1875 20.679688 1.140625 L 18.742188 1.054688 L 18.5625 1.335938 M 14.46875 10.148438 C 11.898438 14.742188 9.734375 18.574219 9.664062 18.671875 C 9.566406 18.808594 9.035156 17.609375 7.324219 13.378906 C 6.109375 10.367188 5.066406 7.875 5.007812 7.839844 C 4.945312 7.800781 4.226562 7.953125 3.402344 8.175781 C 1.9375 8.566406 1.910156 8.582031 1.984375 8.878906 C 2.023438 9.042969 2.074219 9.195312 2.09375 9.214844 C 2.117188 9.234375 2.476562 9.171875 2.894531 9.074219 C 3.316406 8.976562 3.699219 8.933594 3.742188 8.976562 C 3.789062 9.023438 4.902344 11.839844 6.214844 15.238281 L 8.605469 21.421875 L 10.707031 21.421875 L 16.109375 11.820312 C 19.078125 6.539062 21.535156 2.125 21.566406 2.011719 C 21.621094 1.820312 21.511719 1.800781 20.382812 1.800781 L 19.140625 1.800781 L 14.46875 10.148438 "/>
</g>
</svg>
