<?xml version="1.0" encoding="UTF-8"?>
<svg xmlns="http://www.w3.org/2000/svg" xmlns:xlink="http://www.w3.org/1999/xlink" width="100px" height="100px" viewBox="0 0 100 100" version="1.1">
<g id="surface1">
<path style=" stroke:none;fill-rule:evenodd;fill:rgb(0%,0%,0%);fill-opacity:1;" d="M 77.351562 5.570312 C 76.941406 6.21875 68.902344 20.699219 59.488281 37.75 C 50.078125 54.800781 41.882812 69.589844 41.277344 70.617188 L 40.183594 72.484375 L 31.714844 50.753906 C 27.058594 38.800781 22.992188 29.019531 22.675781 29.011719 C 21.972656 28.996094 5.527344 33.304688 5.257812 33.574219 C 5.0625 33.769531 5.882812 41.054688 6.121094 41.277344 C 6.191406 41.34375 7.886719 41.042969 9.886719 40.609375 C 12.113281 40.128906 13.703125 40.003906 13.984375 40.289062 C 14.234375 40.542969 18.9375 52.5625 24.429688 67 L 34.421875 93.25 L 45.585938 93.25 L 70.089844 49.339844 C 83.566406 25.1875 94.515625 5.355469 94.421875 5.269531 C 94.328125 5.183594 90.613281 4.949219 86.171875 4.75 L 78.09375 4.390625 L 77.351562 5.570312 M 60.277344 42.285156 C 49.570312 61.417969 40.566406 77.402344 40.273438 77.804688 C 39.859375 78.371094 37.652344 73.378906 30.523438 55.738281 C 25.453125 43.199219 21.105469 32.816406 20.859375 32.664062 C 20.609375 32.507812 17.605469 33.136719 14.179688 34.058594 C 8.070312 35.699219 7.957031 35.757812 8.265625 36.988281 C 8.4375 37.683594 8.648438 38.316406 8.730469 38.398438 C 8.8125 38.480469 10.3125 38.214844 12.066406 37.808594 C 13.816406 37.398438 15.40625 37.222656 15.597656 37.410156 C 15.789062 37.597656 20.425781 49.335938 25.898438 63.5 L 35.855469 89.25 L 44.613281 89.25 L 67.113281 49.25 C 79.488281 27.25 89.726562 8.855469 89.867188 8.375 C 90.09375 7.582031 89.632812 7.5 84.933594 7.5 L 79.75 7.503906 L 60.277344 42.285156 "/>
</g>
</svg>
