<?xml version="1.0" encoding="UTF-8"?>
<svg xmlns="http://www.w3.org/2000/svg" xmlns:xlink="http://www.w3.org/1999/xlink" width="24px" height="24px" viewBox="0 0 24 24" version="1.1">
<g id="surface1">
<path style=" stroke:none;fill-rule:evenodd;fill:rgb(0%,0%,0%);fill-opacity:1;" d="M 8.347656 0.746094 C 8.246094 0.890625 8.101562 1.3125 8.03125 1.683594 L 7.898438 2.355469 L 7.144531 2.484375 C 6.730469 2.554688 6.054688 2.761719 5.648438 2.945312 C 5.089844 3.195312 4.875 3.242188 4.769531 3.140625 C 4.4375 2.804688 3.75 3.238281 3.871094 3.703125 C 3.914062 3.871094 3.761719 4.105469 3.347656 4.511719 L 2.765625 5.085938 L 2.46875 4.808594 C 2.089844 4.453125 1.597656 4.542969 1.488281 4.992188 C 1.425781 5.230469 1.488281 5.382812 1.769531 5.679688 L 2.128906 6.058594 L 1.710938 6.929688 C 1.320312 7.746094 1.269531 7.800781 0.90625 7.800781 C 0.496094 7.800781 0.121094 8.101562 0.121094 8.429688 C 0.121094 8.703125 0.453125 9 0.757812 9 C 0.996094 9 1.015625 9.050781 0.980469 9.59375 C 0.941406 10.125 0.894531 10.214844 0.527344 10.429688 C -0.0820312 10.792969 0.0078125 11.519531 0.664062 11.519531 C 0.886719 11.519531 0.953125 11.65625 1.167969 12.511719 C 1.300781 13.054688 1.558594 13.808594 1.734375 14.179688 L 2.058594 14.863281 L 1.75 15.320312 C 1.382812 15.859375 1.363281 16.09375 1.660156 16.363281 C 1.960938 16.632812 2.117188 16.613281 2.476562 16.253906 L 2.78125 15.949219 L 3.550781 16.671875 C 3.976562 17.070312 4.476562 17.476562 4.660156 17.570312 C 4.984375 17.738281 4.996094 17.769531 4.914062 18.382812 C 4.820312 19.09375 4.917969 19.386719 5.289062 19.503906 C 5.636719 19.613281 5.964844 19.277344 6.058594 18.722656 L 6.136719 18.269531 L 6.699219 18.441406 C 7.191406 18.597656 8.691406 18.652344 9.875 18.566406 C 10.125 18.546875 10.261719 18.621094 10.40625 18.855469 C 10.585938 19.152344 10.582031 19.191406 10.339844 19.535156 C 10.023438 19.976562 10.015625 20.183594 10.300781 20.441406 C 10.59375 20.707031 10.863281 20.691406 11.140625 20.394531 L 11.367188 20.148438 L 12.246094 20.808594 C 12.730469 21.171875 13.410156 21.585938 13.757812 21.726562 L 14.390625 21.984375 L 14.324219 22.488281 C 14.199219 23.398438 14.976562 23.597656 15.421875 22.769531 L 15.660156 22.320312 L 16.5 22.3125 C 16.960938 22.308594 17.703125 22.210938 18.144531 22.097656 C 18.914062 21.894531 18.953125 21.894531 19.132812 22.105469 C 19.507812 22.542969 20.234375 22.203125 20.125 21.636719 C 20.085938 21.429688 20.160156 21.292969 20.40625 21.117188 C 20.816406 20.824219 20.832031 20.824219 21.207031 21.121094 C 21.605469 21.433594 21.902344 21.425781 22.132812 21.09375 C 22.375 20.746094 22.371094 20.71875 22.03125 20.316406 L 21.746094 19.976562 L 22.039062 19.632812 L 22.332031 19.292969 L 22.78125 19.605469 C 23.316406 19.980469 23.421875 19.988281 23.679688 19.699219 C 23.996094 19.351562 23.917969 19.015625 23.4375 18.628906 L 22.996094 18.277344 L 23.265625 17.621094 C 23.644531 16.683594 23.863281 15.789062 23.949219 14.820312 C 24.035156 13.871094 23.890625 13.617188 23.226562 13.539062 C 22.890625 13.5 22.867188 13.460938 22.71875 12.660156 C 22.632812 12.179688 22.355469 11.394531 22.078125 10.832031 C 20.921875 8.492188 18.578125 7.078125 16.109375 7.230469 L 15.234375 7.285156 L 15.003906 6.757812 C 14.875 6.46875 14.660156 6.078125 14.527344 5.890625 L 14.289062 5.554688 L 14.585938 5.296875 C 14.960938 4.972656 14.960938 4.617188 14.589844 4.375 C 14.324219 4.199219 14.265625 4.199219 13.921875 4.378906 C 13.5625 4.5625 13.535156 4.5625 13.203125 4.28125 L 12.859375 3.992188 L 13.089844 3.648438 C 13.367188 3.222656 13.375 3.074219 13.132812 2.828125 C 12.84375 2.539062 12.410156 2.597656 12.144531 2.960938 L 11.910156 3.285156 L 11.199219 2.976562 C 10.808594 2.808594 10.175781 2.597656 9.792969 2.511719 C 9.101562 2.359375 9.097656 2.355469 9.175781 1.988281 C 9.375 1.066406 9.382812 0.832031 9.242188 0.660156 C 9.019531 0.398438 8.5625 0.441406 8.347656 0.746094 M 6.539062 3.855469 C 5.695312 4.144531 5.671875 4.160156 5.859375 4.347656 C 6.078125 4.566406 6.023438 5.007812 5.753906 5.199219 C 5.449219 5.414062 5.074219 5.332031 4.90625 5.011719 C 4.785156 4.785156 4.75 4.800781 4.261719 5.277344 C 3.792969 5.738281 3.75 5.828125 3.808594 6.242188 C 3.859375 6.621094 3.824219 6.71875 3.605469 6.835938 C 3.460938 6.914062 3.261719 6.949219 3.164062 6.910156 C 3.042969 6.863281 2.921875 7 2.769531 7.351562 C 2.582031 7.785156 2.574219 7.886719 2.714844 8.050781 C 2.992188 8.371094 2.914062 8.753906 2.519531 8.976562 C 2.082031 9.226562 2.058594 9.515625 2.460938 9.699219 C 2.882812 9.890625 2.875 10.457031 2.445312 10.738281 C 2.148438 10.933594 2.132812 10.984375 2.203125 11.640625 C 2.277344 12.378906 2.71875 13.683594 3.074219 14.222656 L 3.28125 14.542969 L 3.503906 14.117188 C 3.804688 13.527344 4.128906 13.367188 4.507812 13.613281 C 4.667969 13.71875 4.800781 13.886719 4.800781 13.988281 C 4.800781 14.234375 4.46875 14.878906 4.179688 15.195312 C 3.949219 15.445312 3.949219 15.449219 4.574219 16.011719 C 5.050781 16.441406 5.269531 16.558594 5.472656 16.507812 C 5.839844 16.414062 6.121094 16.542969 6.238281 16.859375 C 6.378906 17.222656 7.257812 17.457031 8.488281 17.449219 C 9.03125 17.449219 9.507812 17.414062 9.550781 17.371094 C 9.589844 17.328125 9.539062 17.035156 9.433594 16.71875 C 9.328125 16.398438 9.183594 15.6875 9.113281 15.136719 C 8.960938 13.902344 9.105469 13.558594 9.78125 13.558594 C 10.136719 13.558594 10.199219 13.519531 10.199219 13.285156 C 10.199219 12.792969 10.554688 11.597656 10.933594 10.824219 C 11.390625 9.886719 12.519531 8.660156 13.457031 8.078125 L 14.164062 7.644531 L 13.765625 6.921875 C 13.546875 6.523438 13.277344 6.15625 13.164062 6.097656 C 13.050781 6.042969 12.867188 5.953125 12.75 5.898438 C 12.632812 5.839844 12.519531 5.667969 12.5 5.507812 C 12.4375 5.082031 12.234375 4.894531 11.921875 4.972656 C 11.621094 5.050781 11.160156 4.695312 11.160156 4.394531 C 11.160156 4.195312 10.1875 3.757812 9.496094 3.648438 L 9 3.570312 L 9 4.828125 L 9.296875 4.632812 C 10.136719 4.082031 10.734375 4.910156 9.964844 5.558594 C 9.183594 6.214844 8.148438 6.273438 7.328125 5.707031 C 6.742188 5.300781 6.53125 4.914062 6.707031 4.582031 C 6.898438 4.226562 7.289062 4.136719 7.570312 4.386719 C 7.792969 4.589844 7.800781 4.582031 7.800781 4.097656 C 7.800781 3.660156 7.765625 3.601562 7.53125 3.605469 C 7.382812 3.605469 6.9375 3.71875 6.539062 3.855469 M 4.117188 7.8125 C 3.457031 8.066406 3.257812 8.347656 3.46875 8.742188 C 3.65625 9.089844 3.890625 9.128906 4.523438 8.917969 C 5.472656 8.601562 5.761719 8.179688 5.332031 7.75 C 5.089844 7.507812 4.882812 7.519531 4.117188 7.8125 M 15.027344 8.621094 C 13.179688 9.277344 11.707031 11.09375 11.4375 13.035156 L 11.367188 13.558594 L 21.722656 13.558594 L 21.648438 13.230469 C 21.296875 11.652344 20.839844 10.746094 19.972656 9.875 C 19.03125 8.933594 18 8.484375 16.683594 8.433594 C 15.910156 8.402344 15.503906 8.449219 15.027344 8.621094 M 5.34375 10.152344 C 5.015625 10.484375 4.664062 11.28125 4.742188 11.527344 C 4.820312 11.765625 5.28125 11.949219 5.554688 11.847656 C 5.636719 11.816406 5.859375 11.507812 6.042969 11.167969 C 6.363281 10.582031 6.371094 10.535156 6.1875 10.253906 C 5.964844 9.914062 5.621094 9.875 5.34375 10.152344 M 2.851562 11.695312 C 2.371094 12.132812 2.308594 12.324219 2.550781 12.621094 C 2.828125 12.96875 3.089844 12.957031 3.5625 12.582031 C 4.15625 12.109375 4.257812 11.921875 4.097656 11.566406 C 3.902344 11.136719 3.398438 11.191406 2.851562 11.695312 M 5.664062 14.3125 C 5.460938 14.558594 5.367188 15.09375 5.453125 15.546875 C 5.550781 16.058594 5.945312 16.300781 6.34375 16.089844 C 6.566406 15.96875 6.601562 15.84375 6.601562 15.179688 C 6.601562 14.539062 6.558594 14.386719 6.367188 14.285156 C 6.058594 14.117188 5.816406 14.128906 5.664062 14.3125 M 10.285156 15.089844 C 10.3125 15.273438 10.390625 15.679688 10.460938 16 L 10.589844 16.578125 L 10.96875 16.210938 C 11.546875 15.648438 12.238281 15.75 12.238281 16.394531 C 12.238281 16.695312 11.46875 17.398438 11.140625 17.398438 C 10.960938 17.398438 10.972656 17.46875 11.234375 17.929688 C 11.644531 18.664062 12.46875 19.566406 12.476562 19.289062 C 12.480469 19.003906 13.417969 18 13.675781 18 C 13.933594 18 14.28125 18.371094 14.28125 18.644531 C 14.28125 18.757812 14.011719 19.117188 13.6875 19.445312 L 13.09375 20.039062 L 13.597656 20.332031 C 14.050781 20.597656 14.6875 20.878906 14.832031 20.878906 C 14.859375 20.878906 14.9375 20.746094 15 20.582031 C 15.164062 20.144531 15.699219 20.046875 15.984375 20.398438 C 16.113281 20.558594 16.175781 20.765625 16.132812 20.898438 C 16.074219 21.09375 16.132812 21.121094 16.605469 21.121094 C 17.199219 21.121094 18.207031 20.929688 18.464844 20.769531 C 18.597656 20.6875 18.601562 20.585938 18.488281 20.238281 C 18.285156 19.632812 18.480469 19.292969 18.996094 19.34375 C 19.296875 19.371094 19.421875 19.46875 19.570312 19.785156 L 19.761719 20.1875 L 20.53125 19.46875 C 21.707031 18.367188 22.457031 16.921875 22.738281 15.210938 L 22.8125 14.761719 L 10.234375 14.761719 L 10.285156 15.089844 M 15.148438 16.578125 C 14.898438 16.832031 14.964844 17.601562 15.253906 17.804688 C 15.820312 18.203125 16.433594 17.46875 16.070312 16.820312 C 15.875 16.46875 15.390625 16.339844 15.148438 16.578125 M 19.890625 17.046875 C 19.488281 17.285156 19.753906 18.320312 20.289062 18.605469 C 20.480469 18.707031 20.601562 18.695312 20.828125 18.546875 C 21.1875 18.308594 21.191406 18.074219 20.84375 17.460938 C 20.5625 16.960938 20.257812 16.828125 19.890625 17.046875 M 16.53125 18.847656 C 16.363281 18.945312 16.320312 19.136719 16.320312 19.78125 C 16.320312 20.675781 16.433594 20.878906 16.941406 20.878906 C 17.359375 20.878906 17.519531 20.589844 17.519531 19.835938 C 17.519531 18.925781 17.105469 18.515625 16.53125 18.847656 "/>
</g>
</svg>
