<?xml version="1.0" encoding="UTF-8"?>
<svg xmlns="http://www.w3.org/2000/svg" xmlns:xlink="http://www.w3.org/1999/xlink" width="100px" height="100px" viewBox="0 0 100 100" version="1.1">
<g id="surface1">
<path style=" stroke:none;fill-rule:evenodd;fill:rgb(0%,0%,0%);fill-opacity:1;" d="M 34.78125 3.105469 C 34.359375 3.710938 33.761719 5.46875 33.457031 7.011719 L 32.90625 9.8125 L 29.765625 10.351562 C 28.035156 10.648438 25.234375 11.511719 23.539062 12.273438 C 21.207031 13.320312 20.316406 13.515625 19.878906 13.078125 C 18.492188 11.691406 15.621094 13.5 16.128906 15.4375 C 16.308594 16.121094 15.675781 17.097656 13.949219 18.796875 L 11.519531 21.191406 L 10.289062 20.035156 C 8.703125 18.546875 6.664062 18.925781 6.195312 20.792969 C 5.945312 21.789062 6.207031 22.425781 7.375 23.660156 L 8.875 25.25 L 7.132812 28.875 C 5.503906 32.269531 5.289062 32.5 3.773438 32.5 C 2.0625 32.5 0.5 33.753906 0.5 35.128906 C 0.5 36.269531 1.882812 37.5 3.160156 37.5 C 4.15625 37.5 4.234375 37.710938 4.078125 39.976562 C 3.925781 42.1875 3.722656 42.566406 2.203125 43.460938 C -0.34375 44.964844 0.0351562 48 2.769531 48 C 3.691406 48 3.976562 48.5625 4.859375 52.125 C 5.421875 54.394531 6.492188 57.527344 7.234375 59.089844 L 8.585938 61.929688 L 7.292969 63.832031 C 5.761719 66.082031 5.679688 67.054688 6.914062 68.171875 C 8.164062 69.300781 8.828125 69.214844 10.3125 67.730469 L 11.582031 66.460938 L 14.800781 69.472656 C 16.570312 71.128906 18.652344 72.8125 19.425781 73.210938 C 20.777344 73.910156 20.816406 74.035156 20.476562 76.59375 C 20.085938 79.550781 20.492188 80.773438 22.035156 81.261719 C 23.476562 81.71875 24.855469 80.328125 25.246094 78.015625 L 25.566406 76.117188 L 27.910156 76.84375 C 29.96875 77.484375 36.214844 77.722656 41.148438 77.355469 C 42.183594 77.277344 42.753906 77.589844 43.351562 78.5625 C 44.109375 79.796875 44.09375 79.964844 43.078125 81.390625 C 41.761719 83.242188 41.722656 84.09375 42.914062 85.171875 C 44.136719 86.277344 45.261719 86.214844 46.414062 84.976562 L 47.371094 83.953125 L 51.035156 86.707031 C 53.046875 88.222656 55.882812 89.945312 57.332031 90.53125 L 59.96875 91.601562 L 59.679688 93.695312 C 59.160156 97.488281 62.410156 98.328125 64.25 94.875 L 65.25 93.003906 L 68.75 92.972656 C 70.675781 92.957031 73.757812 92.550781 75.597656 92.070312 C 78.808594 91.230469 78.976562 91.234375 79.71875 92.097656 C 81.285156 93.929688 84.308594 92.511719 83.859375 90.15625 C 83.691406 89.285156 83.996094 88.714844 85.019531 87.988281 C 86.730469 86.769531 86.796875 86.769531 88.363281 88 C 90.019531 89.300781 91.257812 89.265625 92.222656 87.886719 C 93.230469 86.445312 93.21875 86.335938 91.800781 84.652344 L 90.605469 83.230469 L 93.042969 80.394531 L 94.921875 81.695312 C 97.15625 83.246094 97.582031 83.289062 98.671875 82.085938 C 99.984375 80.636719 99.664062 79.230469 97.660156 77.621094 L 95.824219 76.148438 L 96.933594 73.414062 C 98.511719 69.523438 99.429688 65.785156 99.796875 61.75 C 100.152344 57.800781 99.546875 56.730469 96.777344 56.417969 C 95.375 56.257812 95.273438 56.082031 94.664062 52.75 C 94.300781 50.753906 93.152344 47.476562 91.992188 45.132812 C 87.175781 35.382812 77.410156 29.492188 67.117188 30.125 L 63.480469 30.351562 L 62.507812 28.152344 C 61.972656 26.945312 61.085938 25.324219 60.535156 24.550781 L 59.539062 23.148438 L 60.769531 22.078125 C 62.332031 20.71875 62.339844 19.246094 60.789062 18.230469 C 59.679688 17.503906 59.441406 17.503906 58.015625 18.242188 C 56.515625 19.019531 56.398438 19.003906 55.019531 17.84375 L 53.589844 16.640625 L 54.539062 15.195312 C 55.699219 13.433594 55.734375 12.804688 54.714844 11.785156 C 53.507812 10.582031 51.710938 10.824219 50.605469 12.34375 L 49.628906 13.6875 L 46.664062 12.402344 C 45.039062 11.695312 42.402344 10.824219 40.808594 10.46875 C 37.929688 9.824219 37.914062 9.808594 38.238281 8.285156 C 39.054688 4.449219 39.101562 3.472656 38.503906 2.753906 C 37.589844 1.652344 35.671875 1.832031 34.78125 3.105469 M 27.25 16.0625 C 23.726562 17.273438 23.636719 17.335938 24.410156 18.109375 C 25.332031 19.03125 25.105469 20.871094 23.96875 21.667969 C 22.699219 22.554688 21.148438 22.210938 20.4375 20.878906 C 19.933594 19.941406 19.785156 20 17.757812 21.992188 C 15.808594 23.90625 15.632812 24.277344 15.863281 26 C 16.078125 27.589844 15.941406 27.996094 15.019531 28.488281 C 14.414062 28.8125 13.589844 28.949219 13.1875 28.796875 C 12.679688 28.601562 12.171875 29.164062 11.539062 30.632812 C 10.753906 32.441406 10.722656 32.863281 11.308594 33.539062 C 12.472656 34.871094 12.140625 36.46875 10.503906 37.398438 C 8.675781 38.4375 8.574219 39.644531 10.25 40.410156 C 12.011719 41.210938 11.976562 43.574219 10.183594 44.746094 C 8.945312 45.558594 8.886719 45.773438 9.171875 48.511719 C 9.492188 51.570312 11.328125 57.011719 12.800781 59.257812 L 13.679688 60.597656 L 14.59375 58.8125 C 15.847656 56.371094 17.207031 55.695312 18.785156 56.726562 C 19.453125 57.164062 20 57.867188 20 58.285156 C 20 59.304688 18.617188 61.992188 17.417969 63.308594 C 16.453125 64.363281 16.457031 64.367188 19.066406 66.714844 C 21.050781 68.496094 21.949219 68.996094 22.800781 68.78125 C 24.335938 68.398438 25.496094 68.925781 25.996094 70.242188 C 26.578125 71.769531 30.242188 72.734375 35.363281 72.710938 C 37.625 72.699219 39.617188 72.550781 39.789062 72.378906 C 39.960938 72.207031 39.742188 70.980469 39.300781 69.65625 C 38.863281 68.332031 38.265625 65.371094 37.980469 63.070312 C 37.335938 57.933594 37.941406 56.5 40.761719 56.5 C 42.238281 56.5 42.5 56.328125 42.5 55.355469 C 42.5 53.308594 43.984375 48.324219 45.558594 45.09375 C 47.453125 41.199219 52.164062 36.074219 56.070312 33.664062 L 59.007812 31.851562 L 57.355469 28.839844 C 56.449219 27.183594 55.320312 25.644531 54.851562 25.414062 C 54.382812 25.1875 53.605469 24.808594 53.125 24.574219 C 52.644531 24.339844 52.171875 23.609375 52.078125 22.949219 C 51.820312 21.167969 50.984375 20.394531 49.667969 20.726562 C 48.425781 21.039062 46.5 19.570312 46.5 18.3125 C 46.5 17.480469 42.449219 15.664062 39.574219 15.203125 L 37.5 14.871094 L 37.5 20.113281 L 38.734375 19.308594 C 42.234375 17.011719 44.722656 20.460938 41.511719 23.164062 C 38.265625 25.894531 33.945312 26.136719 30.539062 23.777344 C 28.09375 22.082031 27.207031 20.480469 27.949219 19.097656 C 28.746094 17.605469 30.378906 17.234375 31.535156 18.28125 C 32.472656 19.132812 32.5 19.097656 32.5 17.078125 C 32.5 15.25 32.363281 15.003906 31.375 15.015625 C 30.757812 15.027344 28.898438 15.496094 27.25 16.0625 M 17.152344 32.550781 C 14.398438 33.609375 13.582031 34.785156 14.457031 36.421875 C 15.234375 37.867188 16.21875 38.035156 18.855469 37.15625 C 22.800781 35.847656 24.015625 34.085938 22.214844 32.285156 C 21.207031 31.277344 20.34375 31.324219 17.152344 32.550781 M 62.605469 35.917969 C 54.921875 38.65625 48.773438 46.230469 47.664062 54.320312 L 47.363281 56.5 L 90.519531 56.5 L 90.210938 55.125 C 88.730469 48.554688 86.835938 44.769531 83.214844 41.148438 C 79.296875 37.230469 74.996094 35.34375 69.507812 35.136719 C 66.289062 35.015625 64.605469 35.203125 62.605469 35.917969 M 22.269531 42.300781 C 20.890625 43.679688 19.433594 47.003906 19.757812 48.027344 C 20.078125 49.03125 22.011719 49.792969 23.136719 49.363281 C 23.488281 49.226562 24.410156 47.957031 25.183594 46.535156 C 26.511719 44.09375 26.542969 43.890625 25.78125 42.726562 C 24.855469 41.316406 23.429688 41.144531 22.269531 42.300781 M 11.875 48.726562 C 9.878906 50.558594 9.625 51.34375 10.625 52.585938 C 11.789062 54.03125 12.875 53.988281 14.84375 52.429688 C 17.324219 50.460938 17.738281 49.671875 17.066406 48.195312 C 16.253906 46.410156 14.164062 46.621094 11.875 48.726562 M 23.601562 59.628906 C 22.75 60.65625 22.367188 62.886719 22.722656 64.777344 C 23.121094 66.914062 24.78125 67.921875 26.4375 67.035156 C 27.351562 66.542969 27.5 66.015625 27.5 63.25 C 27.5 60.582031 27.335938 59.945312 26.53125 59.515625 C 25.242188 58.828125 24.234375 58.863281 23.601562 59.628906 M 42.851562 62.875 C 42.96875 63.632812 43.300781 65.335938 43.589844 66.664062 L 44.117188 69.082031 L 45.707031 67.539062 C 48.113281 65.207031 51 65.628906 51 68.3125 C 51 69.566406 47.789062 72.5 46.421875 72.5 C 45.679688 72.5 45.726562 72.777344 46.804688 74.707031 C 48.515625 77.769531 51.953125 81.527344 51.980469 80.363281 C 52.007812 79.175781 55.90625 75 56.984375 75 C 58.058594 75 59.5 76.542969 59.5 77.6875 C 59.5 78.160156 58.386719 79.660156 57.027344 81.019531 L 54.554688 83.492188 L 56.652344 84.714844 C 58.546875 85.820312 61.203125 87 61.796875 87 C 61.921875 87 62.234375 86.445312 62.496094 85.765625 C 63.1875 83.941406 65.40625 83.527344 66.597656 84.996094 C 67.136719 85.660156 67.398438 86.527344 67.226562 87.070312 C 66.96875 87.882812 67.214844 88 69.191406 88 C 71.667969 88 75.855469 87.210938 76.933594 86.542969 C 77.488281 86.199219 77.503906 85.78125 77.027344 84.335938 C 76.191406 81.804688 77 80.386719 79.15625 80.597656 C 80.402344 80.714844 80.917969 81.117188 81.539062 82.4375 L 82.332031 84.121094 L 85.542969 81.121094 C 90.441406 76.53125 93.566406 70.507812 94.738281 63.375 L 95.046875 61.5 L 42.636719 61.5 L 42.851562 62.875 M 63.121094 69.078125 C 62.074219 70.125 62.347656 73.335938 63.558594 74.183594 C 65.921875 75.839844 68.472656 72.78125 66.96875 70.089844 C 66.140625 68.613281 64.121094 68.082031 63.121094 69.078125 M 82.875 71.03125 C 81.207031 72.023438 82.308594 76.328125 84.539062 77.519531 C 85.335938 77.949219 85.839844 77.890625 86.785156 77.273438 C 88.289062 76.289062 88.304688 75.316406 86.851562 72.75 C 85.679688 70.675781 84.402344 70.121094 82.875 71.03125 M 68.875 78.539062 C 68.179688 78.945312 68 79.738281 68 82.425781 C 68 86.152344 68.476562 87 70.582031 87 C 72.332031 87 73 85.796875 73 82.644531 C 73 78.859375 71.273438 77.144531 68.875 78.539062 "/>
</g>
</svg>
