<?xml version="1.0" encoding="UTF-8"?>
<svg xmlns="http://www.w3.org/2000/svg" xmlns:xlink="http://www.w3.org/1999/xlink" width="24px" height="24px" viewBox="0 0 24 24" version="1.1">
<g id="surface1">
<path style=" stroke:none;fill-rule:evenodd;fill:rgb(0%,0%,0%);fill-opacity:1;" d="M 11.339844 0.929688 C 9.457031 1.019531 7.328125 1.734375 5.761719 2.796875 C 4.964844 3.335938 3.527344 4.753906 2.941406 5.578125 C 1.582031 7.488281 0.949219 9.53125 0.949219 12 C 0.949219 15.28125 2.054688 17.828125 4.46875 20.109375 C 6.578125 22.097656 8.996094 23.039062 12 23.039062 C 15.210938 23.039062 17.519531 22.082031 19.800781 19.800781 C 22.082031 17.519531 23.039062 15.210938 23.039062 12 C 23.039062 9.832031 22.625 8.230469 21.585938 6.40625 C 20.976562 5.328125 19.476562 3.6875 18.425781 2.945312 C 16.394531 1.503906 13.933594 0.804688 11.339844 0.929688 M 9.839844 1.730469 C 8.335938 2.066406 6.648438 2.867188 5.480469 3.796875 L 4.777344 4.355469 L 6.664062 6.246094 C 8.515625 8.097656 8.5625 8.132812 9.164062 8.210938 C 9.503906 8.253906 9.945312 8.316406 10.148438 8.351562 C 10.484375 8.414062 10.523438 8.382812 10.644531 8 C 10.761719 7.605469 10.746094 7.554688 10.367188 7.1875 C 9.921875 6.757812 9.855469 6.511719 10.148438 6.398438 C 10.269531 6.355469 10.5 6.488281 10.78125 6.761719 C 11.1875 7.15625 11.265625 7.1875 11.613281 7.085938 C 11.832031 7.027344 12.152344 7.019531 12.347656 7.078125 C 12.652344 7.164062 12.746094 7.125 13.089844 6.769531 C 13.523438 6.324219 13.765625 6.253906 13.878906 6.546875 C 13.925781 6.664062 13.808594 6.882812 13.578125 7.121094 C 13.253906 7.457031 13.214844 7.5625 13.28125 7.964844 C 13.351562 8.402344 13.371094 8.417969 13.726562 8.347656 C 15.511719 7.980469 19.121094 7.886719 19.820312 8.191406 C 21.011719 8.703125 20.878906 10.710938 19.597656 11.519531 C 19.308594 11.703125 18.898438 11.886719 18.679688 11.929688 C 18.339844 11.992188 18.269531 12.070312 18.148438 12.523438 C 17.980469 13.15625 17.351562 13.753906 16.738281 13.867188 C 16.207031 13.96875 15.53125 13.722656 14.523438 13.074219 C 14.121094 12.8125 13.765625 12.601562 13.734375 12.601562 C 13.707031 12.601562 13.679688 12.75 13.679688 12.929688 C 13.679688 13.203125 14.207031 13.789062 16.660156 16.238281 L 19.636719 19.214844 L 20.269531 18.398438 C 20.988281 17.46875 21.851562 15.765625 22.140625 14.699219 C 22.449219 13.574219 22.511719 11.171875 22.269531 9.953125 C 21.871094 7.96875 20.941406 6.214844 19.5 4.734375 C 17.992188 3.1875 16.164062 2.152344 14.179688 1.734375 C 13.210938 1.527344 10.757812 1.527344 9.839844 1.730469 M 3.9375 5.300781 C 2.871094 6.605469 2.066406 8.257812 1.734375 9.820312 C 1.515625 10.847656 1.515625 13.152344 1.734375 14.179688 C 2.578125 18.15625 5.851562 21.421875 9.835938 22.257812 C 10.308594 22.359375 11.304688 22.441406 12.050781 22.441406 C 14.402344 22.441406 16.40625 21.761719 18.355469 20.304688 L 19.253906 19.636719 L 16.4375 16.890625 L 13.621094 14.148438 L 13.527344 14.964844 C 13.019531 19.546875 12.035156 21.175781 11.164062 18.882812 C 10.785156 17.882812 10.089844 13.011719 10.28125 12.691406 C 10.382812 12.515625 10.203125 12.601562 9.476562 13.074219 C 8.472656 13.722656 7.789062 13.96875 7.269531 13.871094 C 6.554688 13.734375 5.761719 12.886719 5.761719 12.257812 C 5.761719 12.074219 5.625 11.992188 5.140625 11.875 C 4.257812 11.664062 3.558594 10.945312 3.355469 10.046875 C 3.222656 9.457031 3.230469 9.335938 3.433594 8.925781 C 3.820312 8.140625 4.230469 7.996094 6.015625 8.015625 C 6.867188 8.027344 7.558594 8.019531 7.558594 8.003906 C 7.558594 7.988281 6.839844 7.257812 5.960938 6.378906 L 4.363281 4.785156 L 3.9375 5.300781 M 11.488281 7.808594 C 11.125 8.023438 11.257812 8.101562 12 8.101562 C 12.746094 8.101562 12.882812 8.015625 12.488281 7.804688 C 12.195312 7.648438 11.761719 7.652344 11.488281 7.808594 M 4.320312 8.789062 C 4.078125 8.914062 4.011719 9.054688 3.980469 9.484375 C 3.929688 10.152344 4.210938 10.714844 4.773438 11.058594 C 5.136719 11.285156 5.300781 11.304688 6.222656 11.242188 C 7.1875 11.179688 9.667969 10.640625 9.867188 10.453125 C 9.917969 10.40625 9.578125 9.996094 9.117188 9.535156 L 8.273438 8.699219 L 6.445312 8.667969 C 5.128906 8.644531 4.535156 8.679688 4.320312 8.789062 M 11.488281 8.769531 C 11.011719 9.046875 10.765625 10.046875 11.046875 10.570312 C 11.144531 10.753906 11.21875 10.777344 11.398438 10.679688 C 11.695312 10.523438 12.3125 10.527344 12.617188 10.691406 C 12.929688 10.855469 12.976562 10.800781 13.046875 10.164062 C 13.171875 9.074219 12.304688 8.296875 11.488281 8.769531 M 15.960938 8.71875 C 15.730469 8.742188 15.089844 8.820312 14.539062 8.894531 C 13.605469 9.019531 13.542969 9.042969 13.609375 9.285156 C 13.644531 9.425781 13.675781 9.710938 13.679688 9.917969 C 13.679688 10.238281 13.746094 10.320312 14.132812 10.472656 C 14.621094 10.667969 16.988281 11.210938 17.90625 11.335938 C 19.101562 11.5 20.039062 10.71875 20.039062 9.5625 C 20.039062 9.019531 20.015625 8.976562 19.625 8.8125 C 19.230469 8.648438 17.191406 8.597656 15.960938 8.71875 M 9.777344 9.351562 L 10.257812 9.847656 L 10.355469 9.472656 C 10.410156 9.265625 10.4375 9.078125 10.417969 9.0625 C 10.398438 9.042969 10.136719 8.988281 9.839844 8.941406 L 9.300781 8.855469 L 9.777344 9.351562 M 9.519531 11.230469 C 9.042969 11.382812 8.207031 11.597656 7.660156 11.710938 C 6.238281 11.992188 6.0625 12.203125 6.710938 12.847656 C 7.316406 13.453125 8.035156 13.300781 9.601562 12.238281 C 9.964844 11.992188 10.363281 11.671875 10.492188 11.53125 C 10.691406 11.308594 10.699219 11.25 10.550781 11.113281 C 10.410156 10.980469 10.238281 11 9.519531 11.230469 M 13.394531 11.101562 C 13.265625 11.4375 13.296875 11.472656 14.21875 12.109375 C 15.390625 12.921875 16.332031 13.351562 16.71875 13.253906 C 17.242188 13.125 17.757812 12.367188 17.546875 12.046875 C 17.5 11.972656 17 11.820312 16.441406 11.707031 C 15.5625 11.535156 14.105469 11.148438 13.621094 10.964844 C 13.539062 10.933594 13.4375 10.996094 13.394531 11.101562 M 11.761719 11.253906 C 11.761719 11.304688 12.0625 11.644531 12.433594 12.003906 C 12.980469 12.535156 13.089844 12.601562 13.019531 12.359375 C 12.863281 11.839844 12.605469 11.410156 12.367188 11.285156 C 12.09375 11.136719 11.761719 11.121094 11.761719 11.253906 M 11.035156 12.066406 C 10.871094 12.507812 10.890625 13.453125 11.105469 15.082031 C 11.390625 17.257812 11.796875 19.078125 12 19.078125 C 12.207031 19.078125 12.613281 17.246094 12.902344 15.011719 L 13.097656 13.523438 L 12.222656 12.640625 C 11.738281 12.15625 11.304688 11.761719 11.25 11.761719 C 11.195312 11.761719 11.101562 11.898438 11.035156 12.066406 "/>
</g>
</svg>
