<?xml version="1.0" encoding="UTF-8"?>
<svg xmlns="http://www.w3.org/2000/svg" xmlns:xlink="http://www.w3.org/1999/xlink" width="100px" height="100px" viewBox="0 0 100 100" version="1.1">
<g id="surface1">
<path style=" stroke:none;fill-rule:evenodd;fill:rgb(0%,0%,0%);fill-opacity:1;" d="M 47.25 3.871094 C 39.40625 4.253906 30.539062 7.222656 24 11.660156 C 20.691406 13.902344 14.699219 19.816406 12.253906 23.25 C 6.597656 31.195312 3.953125 39.722656 3.953125 50 C 3.953125 63.675781 8.558594 74.285156 18.621094 83.78125 C 27.410156 92.074219 37.488281 96 50 96 C 63.378906 96 72.996094 92.007812 82.5 82.5 C 92.007812 72.996094 96 63.378906 96 50 C 96 40.960938 94.265625 34.289062 89.945312 26.691406 C 87.398438 22.207031 81.15625 15.367188 76.78125 12.265625 C 68.316406 6.265625 58.050781 3.347656 47.25 3.871094 M 41 7.214844 C 34.730469 8.609375 27.699219 11.9375 22.832031 15.820312 L 19.910156 18.152344 L 27.769531 26.019531 C 35.476562 33.738281 35.675781 33.894531 38.1875 34.210938 C 39.597656 34.390625 41.4375 34.65625 42.28125 34.804688 C 43.679688 35.050781 43.855469 34.925781 44.34375 33.328125 C 44.847656 31.6875 44.777344 31.480469 43.191406 29.941406 C 41.347656 28.15625 41.066406 27.136719 42.285156 26.667969 C 42.785156 26.476562 43.746094 27.027344 44.925781 28.179688 C 46.613281 29.824219 46.933594 29.949219 48.390625 29.53125 C 49.292969 29.273438 50.636719 29.253906 51.449219 29.484375 C 52.710938 29.847656 53.113281 29.679688 54.546875 28.199219 C 56.34375 26.347656 57.363281 26.0625 57.832031 27.28125 C 58.019531 27.765625 57.539062 28.675781 56.578125 29.667969 C 55.21875 31.074219 55.0625 31.507812 55.335938 33.183594 C 55.632812 35.015625 55.710938 35.082031 57.199219 34.777344 C 64.632812 33.25 79.667969 32.863281 82.59375 34.125 C 87.550781 36.269531 86.992188 44.625 81.664062 48.003906 C 80.457031 48.769531 78.738281 49.53125 77.839844 49.699219 C 76.417969 49.96875 76.128906 50.289062 75.625 52.183594 C 74.921875 54.8125 72.300781 57.304688 69.738281 57.785156 C 67.535156 58.199219 64.710938 57.183594 60.515625 54.472656 C 58.839844 53.386719 57.363281 52.5 57.234375 52.5 C 57.105469 52.5 57 53.121094 57 53.878906 C 57 55.011719 59.195312 57.453125 69.414062 67.664062 L 81.828125 80.070312 L 84.460938 76.660156 C 87.457031 72.785156 91.046875 65.6875 92.257812 61.25 C 93.535156 56.5625 93.800781 46.546875 92.78125 41.464844 C 91.128906 33.199219 87.25 25.886719 81.25 19.722656 C 74.972656 13.273438 67.347656 8.976562 59.074219 7.222656 C 55.042969 6.367188 44.828125 6.363281 41 7.214844 M 16.40625 22.09375 C 11.960938 27.527344 8.601562 34.414062 7.222656 40.925781 C 6.316406 45.199219 6.316406 54.800781 7.222656 59.074219 C 10.734375 75.648438 24.375 89.253906 40.980469 92.746094 C 42.960938 93.160156 47.097656 93.5 50.21875 93.5 C 60.015625 93.5 68.363281 90.671875 76.484375 84.601562 L 80.21875 81.8125 L 56.75 58.960938 L 56.371094 62.355469 C 54.246094 81.445312 50.152344 88.230469 46.523438 78.679688 C 44.941406 74.519531 42.039062 54.214844 42.835938 52.875 C 43.261719 52.15625 42.511719 52.511719 39.484375 54.472656 C 35.308594 57.171875 32.460938 58.199219 30.285156 57.789062 C 27.304688 57.230469 24 53.699219 24 51.074219 C 24 50.3125 23.433594 49.964844 21.417969 49.480469 C 17.738281 48.597656 14.820312 45.609375 13.984375 41.867188 C 13.429688 39.40625 13.464844 38.902344 14.308594 37.195312 C 15.921875 33.914062 17.628906 33.3125 25.074219 33.398438 C 28.609375 33.441406 31.5 33.421875 31.5 33.355469 C 31.5 33.289062 28.5 30.242188 24.835938 26.585938 L 18.171875 19.9375 L 16.40625 22.09375 M 47.875 32.539062 C 46.347656 33.429688 46.914062 33.75 50 33.75 C 53.113281 33.75 53.6875 33.402344 52.03125 32.515625 C 50.816406 31.867188 49.011719 31.878906 47.875 32.539062 M 18 36.625 C 17 37.144531 16.71875 37.71875 16.585938 39.511719 C 16.378906 42.304688 17.550781 44.640625 19.882812 46.082031 C 21.402344 47.023438 22.085938 47.109375 25.921875 46.847656 C 29.953125 46.574219 40.285156 44.335938 41.117188 43.558594 C 41.320312 43.367188 39.910156 41.644531 37.980469 39.730469 L 34.476562 36.25 L 26.863281 36.113281 C 21.375 36.015625 18.902344 36.160156 18 36.625 M 47.875 36.539062 C 45.882812 37.703125 44.851562 41.859375 46.019531 44.039062 C 46.433594 44.808594 46.742188 44.90625 47.488281 44.507812 C 48.726562 43.84375 51.304688 43.859375 52.574219 44.539062 C 53.875 45.238281 54.066406 45.003906 54.363281 42.359375 C 54.878906 37.808594 51.261719 34.566406 47.875 36.539062 M 66.5 36.335938 C 65.539062 36.429688 62.875 36.757812 60.582031 37.0625 C 56.683594 37.578125 56.433594 37.683594 56.699219 38.683594 C 56.859375 39.269531 56.988281 40.457031 56.992188 41.320312 C 57 42.667969 57.269531 43 58.878906 43.644531 C 60.914062 44.457031 70.777344 46.707031 74.613281 47.234375 C 79.589844 47.914062 83.496094 44.667969 83.496094 39.847656 C 83.5 37.582031 83.402344 37.410156 81.765625 36.722656 C 80.132812 36.042969 71.632812 35.824219 66.5 36.335938 M 40.746094 38.96875 L 42.742188 41.039062 L 43.148438 39.464844 C 43.375 38.597656 43.488281 37.828125 43.402344 37.753906 C 43.320312 37.675781 42.238281 37.453125 41 37.253906 L 38.75 36.898438 L 40.746094 38.96875 M 39.660156 46.800781 C 37.6875 47.433594 34.199219 48.328125 31.910156 48.789062 C 25.992188 49.972656 25.265625 50.84375 27.960938 53.539062 C 30.480469 56.054688 33.480469 55.421875 40 50.992188 C 41.511719 49.960938 43.183594 48.636719 43.714844 48.046875 C 44.550781 47.117188 44.585938 46.878906 43.964844 46.308594 C 43.367188 45.757812 42.652344 45.839844 39.660156 46.800781 M 55.816406 46.261719 C 55.277344 47.660156 55.398438 47.804688 59.242188 50.460938 C 64.121094 53.835938 68.050781 55.632812 69.664062 55.226562 C 71.835938 54.683594 73.988281 51.539062 73.113281 50.191406 C 72.914062 49.882812 70.835938 49.25 68.5 48.785156 C 64.839844 48.058594 58.765625 46.453125 56.75 45.679688 C 56.410156 45.550781 55.988281 45.8125 55.816406 46.261719 M 49 46.890625 C 49 47.109375 50.261719 48.515625 51.804688 50.015625 C 54.078125 52.234375 54.539062 52.515625 54.242188 51.5 C 53.605469 49.335938 52.523438 47.546875 51.527344 47.015625 C 50.390625 46.40625 49 46.339844 49 46.890625 M 45.988281 50.28125 C 45.292969 52.109375 45.382812 56.050781 46.273438 62.847656 C 47.457031 71.90625 49.15625 79.5 50 79.5 C 50.859375 79.5 52.554688 71.855469 53.765625 62.546875 L 54.570312 56.34375 L 50.921875 52.671875 C 48.917969 50.652344 47.09375 49 46.875 49 C 46.65625 49 46.257812 49.578125 45.988281 50.28125 "/>
</g>
</svg>
