<?xml version="1.0" encoding="UTF-8"?>
<svg xmlns="http://www.w3.org/2000/svg" xmlns:xlink="http://www.w3.org/1999/xlink" width="100px" height="100px" viewBox="0 0 100 100" version="1.1">
<g id="surface1">
<path style=" stroke:none;fill-rule:evenodd;fill:rgb(0%,0%,0%);fill-opacity:1;" d="M 50.25 11.785156 C 49.425781 12.214844 48.148438 13.140625 47.410156 13.84375 C 46.359375 14.84375 45.339844 15.199219 42.710938 15.46875 C 39.875 15.761719 39.183594 16.03125 38.269531 17.175781 C 37.101562 18.640625 35.21875 23.386719 35.636719 23.804688 C 35.78125 23.945312 36.742188 23.316406 37.78125 22.40625 C 39.421875 20.964844 40.019531 20.75 42.390625 20.75 C 44.898438 20.75 45.238281 20.894531 46.683594 22.558594 C 47.542969 23.550781 49.65625 25.074219 51.375 25.941406 C 53.578125 27.050781 54.5 27.796875 54.5 28.476562 C 54.5 29.28125 54.761719 29.394531 56.132812 29.171875 C 57.324219 28.980469 57.988281 29.15625 58.601562 29.835938 C 59.316406 30.625 59.960938 30.726562 62.882812 30.507812 C 67.402344 30.167969 67.632812 30.238281 68.71875 32.253906 C 69.226562 33.199219 70.035156 34.332031 70.515625 34.765625 C 71.320312 35.492188 71.464844 35.425781 72.429688 33.863281 C 73.003906 32.933594 74.042969 31.914062 74.738281 31.597656 C 75.433594 31.28125 76 30.714844 76 30.339844 C 76 29.960938 76.449219 29.246094 77 28.75 C 77.707031 28.109375 78 27.210938 78 25.667969 C 78 23.507812 77.976562 23.480469 75.058594 22.070312 C 73.445312 21.285156 71.167969 19.882812 70.007812 18.949219 C 67.96875 17.3125 67.734375 17.25 63.574219 17.25 L 59.253906 17.25 L 57.472656 14.589844 C 56.496094 13.125 55.371094 11.722656 54.972656 11.472656 C 53.882812 10.785156 51.929688 10.914062 50.25 11.785156 M 55.378906 17.496094 C 57.265625 18.648438 58.863281 21.042969 59.304688 23.378906 C 59.472656 24.277344 59.84375 25.152344 60.125 25.328125 C 60.808594 25.75 60.148438 22.238281 59.203125 20.40625 C 58.503906 19.058594 55.265625 16.496094 54.257812 16.503906 C 53.980469 16.503906 54.484375 16.949219 55.378906 17.496094 M 51.6875 20.402344 C 52.476562 21.242188 53.648438 22.789062 54.296875 23.839844 C 55.1875 25.292969 55.472656 25.507812 55.484375 24.738281 C 55.503906 23.558594 52.914062 20.246094 51.335938 19.433594 C 50.445312 18.972656 50.507812 19.148438 51.6875 20.402344 M 65.039062 22.292969 C 64.023438 23.148438 63.503906 24.039062 63.507812 24.917969 C 63.515625 26.167969 63.585938 26.128906 64.644531 24.257812 C 65.265625 23.164062 66.328125 21.988281 67.011719 21.640625 C 67.859375 21.210938 67.988281 21.011719 67.414062 21.007812 C 66.953125 21.003906 65.882812 21.582031 65.039062 22.292969 M 38.546875 24 C 35.984375 26.644531 34.128906 27.203125 32.539062 25.804688 C 31.910156 25.253906 30.785156 25.191406 27.007812 25.515625 C 22.761719 25.875 22.152344 26.054688 21.132812 27.238281 C 20.511719 27.960938 20 29.121094 20 29.8125 C 20 30.890625 20.160156 31.015625 21.125 30.695312 C 22.511719 30.238281 27.261719 30.292969 28.039062 30.777344 C 28.355469 30.96875 29.125 32.28125 29.753906 33.6875 C 31.273438 37.105469 32.5625 38.199219 37.546875 40.296875 C 43.832031 42.945312 44.730469 44.015625 46.441406 50.890625 C 47.003906 53.136719 47.832031 55.542969 48.289062 56.238281 C 49.058594 57.414062 54.636719 60.5 55.992188 60.5 C 56.410156 60.5 56.488281 59.910156 56.257812 58.535156 C 55.859375 56.183594 57.046875 51.097656 58.574219 48.628906 C 59.445312 47.21875 59.53125 46.714844 59.0625 45.691406 C 58.753906 45.007812 58.5 43.933594 58.5 43.300781 C 58.5 42.667969 57.945312 41.382812 57.269531 40.449219 C 54.253906 36.292969 53.007812 33.726562 53.003906 31.664062 C 52.996094 28.613281 52.667969 28.136719 49.9375 27.230469 C 48.386719 26.714844 47.050781 25.851562 46.363281 24.921875 C 45.230469 23.386719 42.574219 21.5 41.550781 21.5 C 41.230469 21.5 39.878906 22.625 38.546875 24 M 69 26 C 68.449219 26.550781 68 27.355469 68 27.789062 C 68 28.316406 68.417969 28.078125 69.269531 27.070312 C 70.066406 26.121094 71.132812 25.484375 72.144531 25.359375 C 73.703125 25.164062 73.695312 25.15625 71.875 25.078125 C 70.589844 25.023438 69.6875 25.3125 69 26 M 42.804688 26.789062 C 42.636719 27.226562 42.5 28.464844 42.5 29.539062 L 42.5 31.5 L 40.375 31.535156 C 39.207031 31.554688 37.804688 31.742188 37.265625 31.957031 C 36.667969 32.1875 37.640625 32.324219 39.734375 32.296875 C 43.140625 32.25 43.207031 32.273438 44.382812 34 L 45.574219 35.75 L 42.414062 36.039062 L 39.25 36.328125 L 42 36.421875 C 43.511719 36.472656 45.046875 36.703125 45.40625 36.929688 C 45.765625 37.160156 46.484375 38.675781 47.003906 40.296875 C 47.535156 41.964844 47.957031 42.738281 47.972656 42.070312 C 48 40.960938 49.703125 39.175781 51.46875 38.410156 C 52.082031 38.144531 52.027344 38.0625 51.21875 38.035156 C 50.65625 38.015625 49.753906 38.332031 49.21875 38.734375 C 47.863281 39.761719 47.78125 39.71875 47.050781 37.699219 C 46.421875 35.964844 46.457031 35.84375 48.046875 34.199219 C 49.988281 32.199219 49.539062 31.96875 47.1875 33.761719 L 45.535156 35.027344 L 44.464844 32.929688 C 43.867188 31.761719 43.363281 29.765625 43.324219 28.417969 C 43.28125 27.089844 43.21875 26 43.179688 26 C 43.140625 26 42.96875 26.355469 42.804688 26.789062 M 55 31.351562 C 55 33.382812 56.652344 37.03125 58.539062 39.175781 C 59.828125 40.640625 60.503906 41.890625 60.507812 42.828125 C 60.523438 45.648438 61.089844 45.640625 65.082031 42.757812 C 67.160156 41.257812 69.242188 39.457031 69.699219 38.753906 C 70.511719 37.515625 70.492188 37.421875 69.023438 35.613281 C 68.191406 34.589844 67.09375 33.207031 66.582031 32.542969 C 65.742188 31.445312 65.261719 31.324219 61.453125 31.257812 C 59.140625 31.214844 56.742188 31.003906 56.125 30.78125 C 55.207031 30.457031 55 30.5625 55 31.351562 M 21.628906 31.851562 C 19.933594 32.179688 17.839844 34.554688 16.019531 38.207031 C 14.257812 41.75 14.804688 41.40625 8.398438 43.050781 C 4.886719 43.953125 4.363281 45.410156 5.792969 50.324219 C 6.464844 52.628906 6.488281 53.457031 5.96875 55.632812 L 5.351562 58.207031 L 8.050781 60.644531 C 9.535156 61.984375 11.449219 63.390625 12.308594 63.769531 C 13.542969 64.316406 13.929688 64.847656 14.171875 66.351562 C 14.609375 69.082031 15.835938 70.648438 17.253906 70.292969 C 18.222656 70.050781 18.515625 70.3125 19.191406 72.003906 C 19.632812 73.101562 20.253906 74 20.574219 74 C 21.765625 74 27.292969 76.941406 28.460938 78.199219 C 29.601562 79.421875 29.957031 79.5 34.460938 79.519531 C 37.09375 79.527344 40.589844 79.855469 42.230469 80.246094 C 43.867188 80.636719 45.332031 80.832031 45.480469 80.675781 C 45.628906 80.519531 44.761719 79.574219 43.554688 78.570312 C 38.472656 74.355469 37.5 73.203125 37.5 71.382812 C 37.5 69.433594 39.136719 67.304688 41.253906 66.496094 C 41.964844 66.226562 45.070312 66.046875 48.148438 66.101562 C 54.066406 66.199219 55.523438 65.820312 56.539062 63.925781 C 57.226562 62.640625 57.132812 62.570312 51.792969 60.375 C 45.789062 57.910156 44.5 56.195312 44.5 50.671875 C 44.5 45.964844 42.53125 43.757812 35.890625 41.015625 C 31.957031 39.386719 30.304688 37.980469 28.039062 34.3125 C 26.496094 31.816406 24.933594 31.214844 21.628906 31.851562 M 75.1875 33.082031 C 74.601562 33.363281 73.605469 34.710938 72.96875 36.070312 C 71.78125 38.605469 69.320312 41.125 64.347656 44.898438 C 59.386719 48.660156 57.472656 53.636719 58.566406 59.914062 C 59.058594 62.757812 59.023438 63.378906 58.269531 64.777344 C 57.015625 67.105469 55.457031 67.621094 49.859375 67.554688 C 44.308594 67.484375 40.96875 68.152344 39.671875 69.585938 C 38.863281 70.476562 38.851562 70.691406 39.535156 71.910156 C 39.949219 72.648438 41.742188 74.335938 43.519531 75.664062 C 47.285156 78.472656 47.617188 78.960938 47.738281 81.800781 C 47.855469 84.652344 49.789062 87.148438 52.769531 88.285156 C 54.867188 89.085938 55.664062 89.105469 62.402344 88.511719 C 70.585938 87.789062 71.640625 87.515625 73.644531 85.605469 C 74.410156 84.875 76.886719 83.371094 79.144531 82.261719 C 82.332031 80.699219 83.417969 79.890625 84 78.648438 C 84.476562 77.628906 85.234375 76.933594 86.074219 76.742188 C 88.210938 76.257812 89.167969 74.769531 89.398438 71.566406 C 89.59375 68.855469 89.71875 68.609375 91.347656 67.730469 C 94.917969 65.808594 95.878906 63.089844 94 60.25 C 92.800781 58.441406 92.730469 56.476562 93.78125 54.4375 C 95.359375 51.390625 93.886719 49.113281 88.820312 46.742188 C 85.699219 45.285156 85.195312 44.546875 82.769531 37.855469 C 81.503906 34.359375 79.769531 32.492188 77.832031 32.535156 C 76.960938 32.550781 75.773438 32.800781 75.1875 33.082031 M 61.296875 34.625 C 60.703125 35.539062 60.671875 36.199219 61.117188 38.125 C 61.632812 40.34375 62.5 41.386719 62.5 39.785156 C 62.5 39.394531 63.09375 38.605469 63.816406 38.035156 C 64.542969 37.464844 64.839844 37 64.480469 37 C 64.121094 37 63.453125 37.339844 62.996094 37.753906 C 62.246094 38.433594 62.109375 38.386719 61.613281 37.292969 C 61.140625 36.265625 61.242188 35.886719 62.253906 34.789062 C 63.085938 33.898438 63.234375 33.5 62.738281 33.5 C 62.34375 33.5 61.695312 34.007812 61.296875 34.625 M 24.171875 41.800781 C 23.703125 42.515625 23.0625 44.113281 22.746094 45.355469 L 22.175781 47.613281 L 20.246094 45.429688 C 18.480469 43.429688 18.597656 43.828125 20.777344 47.203125 C 21.535156 48.378906 21.515625 48.417969 19.902344 48.765625 C 17.390625 49.308594 14.914062 50.726562 13.25 52.578125 C 12.121094 53.832031 12.0625 53.980469 13 53.179688 C 15.226562 51.285156 17.679688 50.320312 20.367188 50.285156 C 22.789062 50.253906 23.136719 50.40625 25.0625 52.328125 L 27.140625 54.40625 L 25.113281 55.441406 C 22.988281 56.527344 21.386719 58.386719 20.757812 60.5 C 20.453125 61.519531 20.605469 61.429688 21.582031 60.011719 C 23.136719 57.742188 25.769531 56 27.636719 56 C 28.652344 56 29.789062 56.59375 31.191406 57.84375 C 33.550781 59.960938 33.886719 60.5 32.835938 60.5 C 31.753906 60.5 29.621094 63.230469 29.023438 65.390625 C 28.1875 68.398438 28.46875 68.949219 29.496094 66.320312 C 31.390625 61.464844 33.683594 60.53125 38.058594 62.828125 C 41.921875 64.859375 41.960938 64.847656 39.695312 62.4375 C 38.566406 61.234375 37.503906 59.855469 37.335938 59.371094 C 36.945312 58.25 37.761719 56.074219 39.121094 54.625 C 40.0625 53.621094 40.078125 53.5 39.296875 53.5 C 38.207031 53.5 35.5 56.148438 35.5 57.210938 C 35.5 58.4375 34.542969 58.15625 32.195312 56.234375 C 28.832031 53.476562 28.738281 49.296875 32 47.648438 L 33.25 47.015625 L 31.710938 47.007812 C 29.835938 47 28.144531 48.644531 27.691406 50.925781 L 27.363281 52.554688 L 25.933594 51.183594 C 24.714844 50.019531 24.503906 49.429688 24.523438 47.28125 C 24.535156 45.890625 24.726562 43.792969 24.953125 42.625 C 25.179688 41.457031 25.289062 40.5 25.195312 40.5 C 25.101562 40.5 24.640625 41.085938 24.171875 41.800781 M 73.949219 45.511719 C 74.75 46.617188 76.011719 49.183594 76.753906 51.214844 L 78.101562 54.90625 L 76.902344 56.664062 L 75.707031 58.425781 L 74.871094 56.066406 C 73.714844 52.816406 72.117188 51.441406 69.15625 51.144531 L 66.75 50.90625 L 68.996094 52.078125 C 71.5 53.382812 73.199219 55.910156 73.707031 59.089844 C 73.984375 60.839844 73.820312 61.300781 72.199219 63.277344 C 70.296875 65.601562 69.5 66.027344 69.5 64.726562 C 69.5 63.28125 67.960938 60.960938 66.351562 59.980469 C 63.917969 58.496094 63.40625 58.808594 65.25 60.648438 C 67.054688 62.453125 68.027344 65.132812 67.632812 67.203125 C 67.410156 68.351562 61.382812 74.5 60.472656 74.5 C 60.316406 74.5 59.714844 73.429688 59.140625 72.125 L 58.097656 69.75 L 58.050781 72.878906 C 58 75.953125 57.964844 76.035156 55.988281 77.378906 C 53.066406 79.367188 50.316406 81.5 50.667969 81.5 C 50.835938 81.5 52.203125 80.953125 53.714844 80.289062 C 59.09375 77.90625 69.058594 76.496094 72.367188 77.644531 C 73.53125 78.046875 74.371094 78.195312 74.234375 77.976562 C 73.652344 77.03125 69.941406 76.28125 65.863281 76.289062 L 61.472656 76.296875 L 63.113281 75.023438 C 64.011719 74.324219 66.027344 72.585938 67.585938 71.15625 C 71.777344 67.324219 76.191406 66.203125 81.171875 67.699219 C 83.980469 68.546875 84.179688 68.316406 81.625 67.175781 C 80.378906 66.617188 78.382812 66.332031 75.679688 66.324219 L 71.613281 66.308594 L 73.609375 63.664062 C 76.101562 60.359375 79.609375 58.503906 83.53125 58.40625 C 85.027344 58.371094 86.8125 58.488281 87.5 58.664062 C 88.226562 58.855469 88.019531 58.65625 87.003906 58.195312 C 85.234375 57.386719 80.746094 57.433594 78.03125 58.285156 L 76.8125 58.664062 L 77.796875 56.976562 C 79.078125 54.78125 81.148438 53.613281 85.074219 52.859375 C 88.214844 52.257812 88.226562 52.25 86.140625 52.097656 C 84.980469 52.011719 83.195312 52.175781 82.167969 52.457031 C 81.144531 52.742188 80.222656 52.890625 80.121094 52.785156 C 80.019531 52.683594 80.625 51.234375 81.46875 49.566406 C 82.308594 47.894531 82.988281 46.351562 82.976562 46.140625 C 82.960938 45.925781 82.136719 47.324219 81.140625 49.25 L 79.328125 52.75 L 78.539062 50.253906 C 77.757812 47.78125 74.296875 43.5 73.082031 43.5 C 72.757812 43.5 73.148438 44.40625 73.949219 45.511719 "/>
</g>
</svg>
