<?xml version="1.0" encoding="UTF-8"?>
<svg xmlns="http://www.w3.org/2000/svg" xmlns:xlink="http://www.w3.org/1999/xlink" width="24px" height="24px" viewBox="0 0 24 24" version="1.1">
<g id="surface1">
<path style=" stroke:none;fill-rule:evenodd;fill:rgb(0%,0%,0%);fill-opacity:1;" d="M 4.800781 5.898438 C 3.757812 6.492188 2.808594 7.292969 2.34375 7.964844 L 1.921875 8.582031 L 1.921875 12.101562 L 2.730469 11.636719 C 3.71875 11.066406 5.328125 10.523438 6.808594 10.25 C 7.421875 10.140625 7.917969 10.015625 7.917969 9.976562 C 7.914062 9.816406 5.660156 5.585938 5.5625 5.554688 C 5.507812 5.539062 5.164062 5.691406 4.800781 5.898438 M 4.019531 9.347656 C 3.171875 9.757812 2.789062 10.027344 2.902344 10.144531 C 2.949219 10.1875 3.273438 10.0625 3.621094 9.867188 C 3.972656 9.671875 4.460938 9.445312 4.710938 9.363281 C 5.175781 9.214844 5.316406 9 4.949219 9 C 4.835938 9 4.414062 9.15625 4.019531 9.347656 M 6.695312 10.558594 C 4.933594 10.929688 3.601562 11.417969 2.550781 12.082031 L 1.921875 12.476562 L 1.921875 13.992188 C 1.921875 15.503906 1.921875 15.503906 2.191406 15.4375 C 2.921875 15.253906 5.554688 14.984375 7.71875 14.871094 C 9.050781 14.804688 10.179688 14.734375 10.230469 14.722656 C 10.277344 14.710938 9.835938 13.714844 9.246094 12.511719 C 8.429688 10.847656 8.121094 10.320312 7.957031 10.328125 C 7.835938 10.332031 7.269531 10.4375 6.695312 10.558594 M 12.390625 11.03125 C 12.175781 11.421875 12 11.773438 12 11.8125 C 12 11.847656 12.371094 11.878906 12.828125 11.878906 L 13.65625 11.878906 L 14.839844 14.894531 C 15.488281 16.550781 16.097656 17.9375 16.191406 17.972656 C 16.515625 18.101562 20.09375 17.566406 21.578125 17.167969 L 22.085938 17.03125 L 22.050781 14.496094 L 22.019531 11.964844 L 21.304688 11.570312 C 19.910156 10.796875 17.300781 10.328125 14.339844 10.324219 L 12.78125 10.324219 L 12.390625 11.03125 M 14.878906 11.941406 L 14.878906 12.71875 L 17.878906 12.71875 L 17.878906 11.160156 L 14.878906 11.160156 L 14.878906 11.941406 M 5.441406 12.175781 C 4.503906 12.347656 3.367188 12.6875 3.1875 12.851562 C 2.960938 13.0625 3.242188 13.105469 3.683594 12.929688 C 3.933594 12.828125 4.597656 12.65625 5.160156 12.550781 C 6.695312 12.25 6.71875 12.246094 6.71875 12.117188 C 6.71875 11.972656 6.527344 11.980469 5.441406 12.175781 M 9.480469 12.210938 C 9.480469 12.429688 12.335938 18.292969 12.464844 18.335938 C 12.558594 18.367188 12.601562 18.007812 12.601562 17.101562 C 12.601562 15.847656 12.605469 15.816406 12.949219 15.472656 C 13.347656 15.074219 13.542969 15.042969 14.042969 15.300781 C 14.464844 15.519531 14.511719 15.6875 14.550781 17.097656 L 14.578125 18.175781 L 15.121094 18.136719 C 15.417969 18.117188 15.683594 18.078125 15.707031 18.050781 C 15.734375 18.023438 15.242188 16.691406 14.609375 15.089844 L 13.464844 12.179688 L 11.472656 12.148438 C 10.375 12.128906 9.480469 12.160156 9.480469 12.210938 M 6.238281 13.558594 C 4.777344 13.769531 3.289062 14.101562 3 14.28125 C 2.628906 14.511719 3.03125 14.542969 3.746094 14.339844 C 4.160156 14.222656 5.238281 14.011719 6.144531 13.871094 C 7.234375 13.703125 7.761719 13.570312 7.703125 13.488281 C 7.644531 13.398438 7.203125 13.417969 6.238281 13.558594 M 16.640625 13.878906 C 16.445312 14.074219 16.648438 14.109375 18.089844 14.128906 C 18.929688 14.144531 19.957031 14.226562 20.371094 14.316406 C 20.964844 14.445312 21.121094 14.449219 21.121094 14.328125 C 21.121094 14.164062 20.882812 14.101562 19.621094 13.921875 C 18.660156 13.789062 16.757812 13.761719 16.640625 13.878906 M 5.398438 15.300781 C 4.574219 15.382812 3.453125 15.519531 2.910156 15.597656 L 1.921875 15.746094 L 1.921875 17.632812 L 2.59375 17.828125 C 4.164062 18.285156 5.09375 18.382812 8.550781 18.445312 C 10.449219 18.476562 12 18.460938 12 18.402344 C 12 18.347656 11.667969 17.585938 11.253906 16.710938 L 10.507812 15.121094 L 8.703125 15.132812 C 7.710938 15.140625 6.226562 15.214844 5.398438 15.300781 M 16.558594 15.609375 C 16.5625 15.746094 16.84375 15.785156 17.910156 15.808594 C 18.652344 15.824219 19.65625 15.894531 20.140625 15.96875 C 20.96875 16.089844 21.265625 16.0625 21.082031 15.882812 C 20.941406 15.742188 19.898438 15.613281 18.210938 15.527344 C 16.832031 15.457031 16.558594 15.46875 16.558594 15.609375 M 5.21875 16.449219 C 3.964844 16.59375 3.601562 16.675781 3.601562 16.820312 C 3.601562 16.90625 3.792969 16.925781 4.171875 16.875 C 5.449219 16.707031 7.191406 16.566406 8.070312 16.5625 C 8.609375 16.5625 9 16.507812 9 16.441406 C 9 16.296875 6.476562 16.304688 5.21875 16.449219 "/>
</g>
</svg>
