<?xml version="1.0" encoding="UTF-8"?>
<svg xmlns="http://www.w3.org/2000/svg" xmlns:xlink="http://www.w3.org/1999/xlink" width="100px" height="100px" viewBox="0 0 100 100" version="1.1">
<g id="surface1">
<path style=" stroke:none;fill-rule:evenodd;fill:rgb(0%,0%,0%);fill-opacity:1;" d="M 20 24.578125 C 15.664062 27.054688 11.695312 30.390625 9.773438 33.1875 L 8 35.757812 L 8 50.421875 L 11.375 48.484375 C 15.496094 46.113281 22.191406 43.839844 28.375 42.714844 C 30.917969 42.253906 32.996094 41.734375 32.992188 41.5625 C 32.972656 40.898438 23.578125 23.277344 23.175781 23.148438 C 22.941406 23.070312 21.511719 23.714844 20 24.578125 M 16.75 38.945312 C 13.210938 40.652344 11.617188 41.785156 12.097656 42.261719 C 12.285156 42.453125 13.636719 41.933594 15.09375 41.113281 C 16.554688 40.292969 18.59375 39.347656 19.625 39.019531 C 21.566406 38.402344 22.160156 37.5 20.625 37.5 C 20.144531 37.5 18.398438 38.152344 16.75 38.945312 M 27.890625 43.988281 C 20.5625 45.535156 15.015625 47.574219 10.625 50.335938 L 8 51.988281 L 8 58.296875 C 8 64.59375 8.003906 64.609375 9.125 64.328125 C 12.179688 63.5625 23.144531 62.441406 32.167969 61.96875 C 37.714844 61.679688 42.414062 61.398438 42.617188 61.34375 C 42.820312 61.292969 40.976562 57.144531 38.523438 52.125 C 35.132812 45.199219 33.835938 43.007812 33.152344 43.035156 C 32.65625 43.054688 30.289062 43.484375 27.890625 43.988281 M 51.625 45.96875 C 50.730469 47.597656 50 49.058594 50 49.214844 C 50 49.371094 51.554688 49.5 53.453125 49.5 L 56.90625 49.5 L 61.828125 62.054688 C 64.535156 68.960938 67.070312 74.738281 67.464844 74.890625 C 68.8125 75.425781 83.722656 73.191406 89.902344 71.527344 L 92.019531 70.957031 L 91.886719 60.402344 L 91.75 49.847656 L 88.777344 48.203125 C 82.953125 44.980469 72.085938 43.039062 59.75 43.023438 L 53.25 43.011719 L 51.625 45.96875 M 62 49.75 L 62 53 L 74.5 53 L 74.5 46.5 L 62 46.5 L 62 49.75 M 22.671875 50.738281 C 18.773438 51.449219 14.023438 52.871094 13.285156 53.554688 C 12.339844 54.425781 13.511719 54.601562 15.355469 53.867188 C 16.398438 53.453125 19.164062 52.742188 21.5 52.289062 C 27.890625 51.046875 28 51.019531 28 50.492188 C 28 49.882812 27.191406 49.917969 22.671875 50.738281 M 39.5 50.882812 C 39.5 51.792969 51.398438 76.214844 51.929688 76.394531 C 52.332031 76.527344 52.5 75.027344 52.5 71.253906 C 52.5 66.027344 52.527344 65.894531 53.960938 64.460938 C 55.617188 62.804688 56.429688 62.679688 58.515625 63.757812 C 60.261719 64.660156 60.460938 65.367188 60.625 71.242188 L 60.75 75.734375 L 63 75.570312 C 64.238281 75.480469 65.339844 75.320312 65.453125 75.210938 C 65.566406 75.101562 63.507812 69.550781 60.878906 62.878906 L 56.097656 50.75 L 47.800781 50.613281 C 43.234375 50.539062 39.5 50.660156 39.5 50.882812 M 26 56.496094 C 19.902344 57.378906 13.699219 58.757812 12.5 59.5 C 10.945312 60.460938 12.628906 60.59375 15.613281 59.75 C 17.335938 59.261719 21.832031 58.378906 25.601562 57.792969 C 30.136719 57.089844 32.332031 56.550781 32.101562 56.195312 C 31.855469 55.824219 30.011719 55.914062 26 56.496094 M 69.332031 57.832031 C 68.527344 58.640625 69.367188 58.785156 75.375 58.878906 C 78.882812 58.929688 83.15625 59.277344 84.875 59.652344 C 87.347656 60.1875 88 60.199219 88 59.703125 C 88 59.019531 87.007812 58.75 81.75 58.011719 C 77.75 57.449219 69.832031 57.335938 69.332031 57.832031 M 22.5 63.75 C 19.0625 64.09375 14.394531 64.65625 12.125 64.996094 L 8 65.613281 L 8 73.472656 L 10.804688 74.285156 C 17.347656 76.191406 21.226562 76.589844 35.625 76.851562 C 43.53125 76.992188 50.003906 76.917969 50.003906 76.679688 C 50.007812 76.445312 48.609375 73.269531 46.898438 69.625 L 43.789062 63 L 36.269531 63.058594 C 32.132812 63.089844 25.9375 63.402344 22.5 63.75 M 69 65.046875 C 69.003906 65.601562 70.1875 65.773438 74.625 65.867188 C 77.71875 65.933594 81.902344 66.234375 83.917969 66.535156 C 87.363281 67.046875 88.601562 66.933594 87.839844 66.171875 C 87.253906 65.589844 82.914062 65.054688 75.875 64.695312 C 70.136719 64.402344 69 64.460938 69 65.046875 M 21.75 68.535156 C 16.519531 69.136719 15 69.488281 15 70.085938 C 15 70.445312 15.8125 70.519531 17.386719 70.3125 C 22.710938 69.605469 29.972656 69.023438 33.625 69.011719 C 35.867188 69.003906 37.5 68.789062 37.5 68.5 C 37.5 67.910156 26.980469 67.929688 21.75 68.535156 "/>
</g>
</svg>
