<?xml version="1.0" encoding="UTF-8"?>
<svg xmlns="http://www.w3.org/2000/svg" xmlns:xlink="http://www.w3.org/1999/xlink" width="24px" height="24px" viewBox="0 0 24 24" version="1.1">
<g id="surface1">
<path style=" stroke:none;fill-rule:evenodd;fill:rgb(0%,0%,0%);fill-opacity:1;" d="M 11.507812 0.269531 C 11.046875 0.753906 10.582031 1.566406 10.425781 2.171875 C 10.34375 2.496094 10.230469 2.761719 10.171875 2.761719 C 10.117188 2.761719 9.867188 2.65625 9.617188 2.527344 C 9.097656 2.261719 8.074219 1.984375 6.972656 1.808594 C 5.566406 1.585938 5.386719 2.035156 6.453125 3.09375 C 7.148438 3.785156 7.621094 4.597656 8.054688 5.867188 C 8.183594 6.234375 8.242188 6.550781 8.1875 6.570312 C 7.621094 6.757812 6.34375 7.691406 5.515625 8.519531 C 3.847656 10.1875 3.027344 12.058594 2.917969 14.460938 C 2.722656 18.730469 5.308594 22.351562 9.484375 23.65625 C 10.238281 23.894531 10.636719 23.9375 12 23.9375 C 13.363281 23.9375 13.761719 23.894531 14.515625 23.65625 C 17.625 22.683594 19.808594 20.503906 20.777344 17.398438 C 21.007812 16.652344 21.054688 16.234375 21.054688 14.941406 C 21.058594 13.0625 20.878906 12.300781 20.074219 10.679688 C 19.609375 9.742188 19.324219 9.355469 18.484375 8.519531 C 17.652344 7.691406 16.378906 6.757812 15.8125 6.570312 C 15.667969 6.523438 16.113281 5.300781 16.632812 4.308594 C 16.914062 3.773438 17.296875 3.273438 17.660156 2.957031 C 18.28125 2.425781 18.40625 2.019531 18.015625 1.808594 C 17.632812 1.601562 15.285156 2.066406 14.382812 2.527344 C 14.132812 2.65625 13.882812 2.761719 13.828125 2.761719 C 13.769531 2.761719 13.65625 2.496094 13.574219 2.171875 C 13.328125 1.207031 12.453125 0 12 0 C 11.875 0 11.652344 0.121094 11.507812 0.269531 M 11.640625 1.863281 C 11.496094 2.160156 11.3125 2.769531 11.238281 3.210938 C 11.160156 3.65625 11.054688 4.085938 11.003906 4.171875 C 10.851562 4.40625 10.378906 4.347656 10.128906 4.0625 C 9.894531 3.796875 8.714844 3.214844 8.128906 3.074219 L 7.800781 2.996094 L 8.171875 3.601562 C 8.660156 4.394531 9.382812 6.425781 9.335938 6.878906 C 9.316406 7.074219 9.21875 7.273438 9.121094 7.316406 C 7.675781 7.972656 7.179688 8.296875 6.289062 9.179688 C 5.523438 9.941406 5.214844 10.355469 4.820312 11.160156 C 4.144531 12.542969 3.949219 13.371094 3.949219 14.878906 C 3.949219 16.339844 4.140625 17.210938 4.738281 18.421875 C 6.140625 21.265625 8.816406 22.929688 12 22.929688 C 16.558594 22.929688 20.046875 19.441406 20.046875 14.878906 C 20.046875 12.554688 19.324219 10.796875 17.703125 9.179688 C 16.816406 8.296875 16.328125 7.972656 14.878906 7.316406 C 14.78125 7.273438 14.683594 7.074219 14.664062 6.878906 C 14.617188 6.425781 15.339844 4.390625 15.832031 3.59375 C 16.195312 3.003906 16.199219 2.984375 15.933594 3.066406 C 15.015625 3.347656 14.332031 3.667969 13.984375 3.972656 C 13.566406 4.339844 13.160156 4.421875 12.996094 4.171875 C 12.945312 4.085938 12.839844 3.65625 12.761719 3.210938 C 12.625 2.40625 12.1875 1.320312 12 1.320312 C 11.945312 1.320312 11.785156 1.5625 11.640625 1.863281 M 11.667969 10.867188 C 11.304688 11.121094 11.320312 11.582031 11.699219 11.832031 C 11.976562 12.011719 12.023438 12.011719 12.300781 11.832031 C 12.679688 11.582031 12.695312 11.121094 12.332031 10.867188 C 12.1875 10.765625 12.035156 10.679688 12 10.679688 C 11.964844 10.679688 11.8125 10.765625 11.667969 10.867188 M 8.480469 14.621094 C 8.21875 14.90625 8.226562 15.15625 8.5 15.402344 C 8.9375 15.796875 9.480469 15.578125 9.480469 15 C 9.480469 14.414062 8.871094 14.183594 8.480469 14.621094 M 14.664062 14.542969 C 14.476562 14.730469 14.476562 15.269531 14.664062 15.457031 C 14.992188 15.785156 15.71875 15.457031 15.71875 14.980469 C 15.71875 14.539062 14.976562 14.230469 14.664062 14.542969 M 11.667969 18.1875 C 11.304688 18.441406 11.320312 18.902344 11.699219 19.152344 C 11.976562 19.332031 12.023438 19.332031 12.300781 19.152344 C 12.679688 18.902344 12.695312 18.441406 12.332031 18.1875 C 12.1875 18.085938 12.035156 18 12 18 C 11.964844 18 11.8125 18.085938 11.667969 18.1875 "/>
</g>
</svg>
