<?xml version="1.0" encoding="UTF-8"?>
<svg xmlns="http://www.w3.org/2000/svg" xmlns:xlink="http://www.w3.org/1999/xlink" width="100px" height="100px" viewBox="0 0 100 100" version="1.1">
<g id="surface1">
<path style=" stroke:none;fill-rule:evenodd;fill:rgb(0%,0%,0%);fill-opacity:1;" d="M 47.957031 1.125 C 46.019531 3.132812 44.085938 6.527344 43.441406 9.042969 C 43.09375 10.394531 42.621094 11.5 42.386719 11.5 C 42.152344 11.5 41.113281 11.066406 40.074219 10.539062 C 37.902344 9.429688 33.644531 8.273438 29.058594 7.542969 C 23.195312 6.609375 22.4375 8.472656 26.882812 12.886719 C 29.792969 15.777344 31.746094 19.15625 33.570312 24.449219 C 34.097656 25.984375 34.34375 27.300781 34.113281 27.378906 C 31.761719 28.164062 26.441406 32.042969 22.988281 35.492188 C 16.023438 42.445312 12.609375 50.25 12.152344 60.25 C 11.34375 78.035156 22.117188 93.128906 39.511719 98.574219 C 42.65625 99.558594 44.320312 99.742188 50 99.742188 C 55.679688 99.742188 57.34375 99.558594 60.488281 98.574219 C 73.445312 94.515625 82.535156 85.425781 86.566406 72.488281 C 87.535156 69.382812 87.734375 67.648438 87.734375 62.25 C 87.738281 54.433594 87.003906 51.246094 83.640625 44.5 C 81.699219 40.601562 80.511719 38.988281 77.011719 35.492188 C 73.558594 32.042969 68.238281 28.164062 65.886719 27.378906 C 65.289062 27.179688 67.140625 22.082031 69.308594 17.953125 C 70.480469 15.722656 72.070312 13.636719 73.585938 12.328125 C 76.171875 10.101562 76.695312 8.40625 75.066406 7.535156 C 73.464844 6.679688 63.691406 8.617188 59.925781 10.539062 C 58.886719 11.066406 57.847656 11.5 57.613281 11.5 C 57.378906 11.5 56.90625 10.394531 56.558594 9.042969 C 55.53125 5.03125 51.882812 0 50 0 C 49.472656 0 48.550781 0.507812 47.957031 1.125 M 48.496094 7.757812 C 47.894531 9.003906 47.140625 11.535156 46.824219 13.382812 C 46.503906 15.234375 46.0625 17.03125 45.84375 17.375 C 45.214844 18.351562 43.253906 18.109375 42.203125 16.925781 C 41.222656 15.820312 36.316406 13.394531 33.875 12.808594 L 32.496094 12.480469 L 34.046875 15 C 36.078125 18.304688 39.089844 26.78125 38.898438 28.664062 C 38.816406 29.480469 38.414062 30.300781 38 30.488281 C 31.988281 33.214844 29.921875 34.574219 26.207031 38.257812 C 23.011719 41.425781 21.730469 43.152344 20.089844 46.507812 C 17.265625 52.269531 16.460938 55.707031 16.453125 62 C 16.449219 68.085938 17.253906 71.703125 19.738281 76.75 C 25.578125 88.609375 36.734375 95.535156 50 95.535156 C 69 95.535156 83.535156 81 83.535156 62 C 83.535156 52.316406 80.515625 44.984375 73.761719 38.25 C 70.066406 34.566406 68.03125 33.222656 62 30.488281 C 61.585938 30.300781 61.183594 29.480469 61.101562 28.664062 C 60.910156 26.773438 63.921875 18.296875 65.972656 14.96875 C 67.484375 12.511719 67.5 12.433594 66.394531 12.773438 C 62.566406 13.957031 59.710938 15.285156 58.269531 16.550781 C 56.527344 18.078125 54.828125 18.417969 54.15625 17.375 C 53.9375 17.03125 53.496094 15.234375 53.175781 13.382812 C 52.597656 10.023438 50.777344 5.5 50 5.5 C 49.773438 5.5 49.097656 6.515625 48.496094 7.757812 M 48.613281 45.277344 C 47.105469 46.332031 47.175781 48.261719 48.75 49.296875 C 49.90625 50.054688 50.09375 50.054688 51.25 49.296875 C 52.824219 48.261719 52.894531 46.332031 51.386719 45.277344 C 50.777344 44.851562 50.152344 44.5 50 44.5 C 49.847656 44.5 49.222656 44.851562 48.613281 45.277344 M 35.328125 60.914062 C 34.253906 62.101562 34.28125 63.144531 35.414062 64.171875 C 37.242188 65.824219 39.5 64.902344 39.5 62.5 C 39.5 60.058594 36.96875 59.097656 35.328125 60.914062 M 61.101562 60.601562 C 60.328125 61.375 60.328125 63.625 61.101562 64.398438 C 62.46875 65.765625 65.5 64.398438 65.5 62.414062 C 65.5 60.578125 62.398438 59.300781 61.101562 60.601562 M 48.613281 75.777344 C 47.105469 76.832031 47.175781 78.761719 48.75 79.796875 C 49.90625 80.554688 50.09375 80.554688 51.25 79.796875 C 52.824219 78.761719 52.894531 76.832031 51.386719 75.777344 C 50.777344 75.351562 50.152344 75 50 75 C 49.847656 75 49.222656 75.351562 48.613281 75.777344 "/>
</g>
</svg>
