<?xml version="1.0" encoding="UTF-8"?>
<svg xmlns="http://www.w3.org/2000/svg" xmlns:xlink="http://www.w3.org/1999/xlink" width="100px" height="100px" viewBox="0 0 100 100" version="1.1">
<g id="surface1">
<path style=" stroke:none;fill-rule:evenodd;fill:rgb(0%,0%,0%);fill-opacity:1;" d="M 75.820312 8.558594 L 73.46875 10.113281 L 72.257812 8.808594 C 71.550781 8.042969 70.507812 7.5 69.75 7.5 C 67.675781 7.5 66.957031 9.992188 66.558594 18.59375 C 66.371094 22.65625 65.984375 26.214844 65.703125 26.496094 C 65.351562 26.847656 64.453125 26.523438 62.859375 25.46875 C 60.097656 23.640625 58.527344 23.691406 57.589844 25.648438 C 56.832031 27.234375 57.367188 30.539062 59.523438 37.625 C 60.265625 40.066406 60.523438 41.671875 60.226562 41.96875 C 59.929688 42.261719 58.867188 42.25 57.40625 41.933594 C 54.621094 41.335938 53.167969 41.910156 52.695312 43.789062 C 52.507812 44.535156 53.019531 47.652344 53.941406 51.40625 C 54.796875 54.90625 55.5 58.027344 55.5 58.34375 C 55.5 58.660156 54.769531 59.078125 53.875 59.269531 C 49.425781 60.226562 47.527344 62.847656 48.527344 66.644531 C 48.832031 67.800781 49.511719 69.492188 50.039062 70.402344 C 50.566406 71.3125 51 72.148438 51 72.261719 C 51 72.378906 48.132812 72.53125 44.625 72.609375 L 38.25 72.75 L 38.25 75.25 L 44.082031 75.390625 L 49.910156 75.53125 L 48.625 78.515625 L 47.335938 81.5 L 38.917969 81.5 C 33.722656 81.5 30.5 81.3125 30.5 81.007812 C 30.5 80.734375 30.78125 79.441406 31.121094 78.132812 C 31.90625 75.125 35.347656 71.558594 40.25 68.667969 C 44.265625 66.300781 45.160156 65.429688 46.226562 62.878906 C 47.152344 60.671875 46.660156 58.957031 44.753906 57.707031 C 43.71875 57.027344 42.761719 56.917969 39.992188 57.148438 C 37.898438 57.324219 36.398438 57.242188 36.214844 56.941406 C 35.84375 56.339844 40.03125 52.191406 44.496094 48.742188 C 46.28125 47.363281 47.824219 45.800781 47.925781 45.273438 C 48.191406 43.878906 46.648438 43 43.933594 43 C 42.628906 43 41.425781 42.78125 41.257812 42.515625 C 40.808594 41.785156 42.0625 39.722656 45.96875 34.789062 C 47.910156 32.335938 49.5 29.933594 49.5 29.449219 C 49.5 27.472656 48.042969 26.855469 44.023438 27.128906 L 40.25 27.386719 L 40.25 21.25 C 40.25 15.914062 40.125 14.972656 39.296875 14.054688 C 38.050781 12.675781 35.941406 12.707031 34.640625 14.125 C 33.238281 15.65625 31.367188 19.539062 30.011719 23.75 C 28.375 28.816406 28.136719 28.984375 24.429688 27.632812 C 18.539062 25.488281 18.039062 27.710938 22.484375 36.257812 C 24.125 39.417969 25.417969 41.996094 25.359375 41.996094 C 25.300781 41.992188 24.144531 41.652344 22.796875 41.246094 C 19.835938 40.347656 16.421875 40.277344 15.601562 41.101562 C 14.4375 42.261719 15.035156 43.546875 18.445312 47.222656 C 20.339844 49.269531 22.351562 51.589844 22.917969 52.382812 L 23.945312 53.824219 L 21.101562 52.867188 C 16.71875 51.386719 12.9375 52.445312 13.726562 54.929688 C 13.910156 55.503906 15.960938 57.347656 18.289062 59.027344 C 23.242188 62.605469 25.542969 66 23.011719 66 C 21.421875 66 20.347656 68.128906 20.746094 70.484375 L 21.089844 72.5 L 13.5 72.5 L 13.5 75.5 L 17.941406 75.5 C 22.128906 75.5 22.402344 75.566406 22.675781 76.625 C 22.839844 77.242188 22.835938 78.59375 22.671875 79.625 L 22.371094 81.5 L 7 81.5 L 7 84 L 14.5 84 C 18.625 84 21.996094 84.167969 21.992188 84.375 C 21.964844 85.632812 20.898438 85.96875 16.484375 86.105469 L 11.75 86.25 L 11.59375 87.625 L 11.433594 89 L 21.113281 89 L 20.777344 90.875 C 20.597656 91.90625 20.332031 93.144531 20.191406 93.625 C 19.964844 94.394531 20.324219 94.5 23.191406 94.5 L 26.449219 94.5 L 28.183594 89 L 35.871094 89 C 40.113281 89 43.4375 89.195312 43.289062 89.4375 C 43.140625 89.675781 44.308594 90.558594 45.886719 91.398438 L 48.75 92.921875 L 50.15625 90.960938 L 51.566406 89 L 83.5 89 L 83.5 86 L 68.496094 86 C 53.617188 86 53.496094 85.992188 54.117188 85 C 54.722656 84.027344 55.28125 84 73.371094 84 L 92 84 L 92 81.5 L 74.5 81.5 C 64.304688 81.5 57 81.308594 57 81.042969 C 57 80.792969 57.652344 80.042969 58.445312 79.371094 C 59.59375 78.40625 60.691406 78.089844 63.792969 77.824219 C 66.042969 77.636719 68.5625 77.074219 69.753906 76.5 C 71.496094 75.65625 72.839844 75.5 78.40625 75.5 L 85 75.5 L 85 72.5 L 78.625 72.480469 L 72.25 72.464844 L 70.875 70.292969 C 70.117188 69.097656 69.5 67.828125 69.5 67.472656 C 69.5 67.117188 71.414062 65 73.75 62.765625 C 79.148438 57.601562 79.296875 56.367188 74.867188 53.363281 L 73 52.09375 L 75.320312 51.304688 C 80.574219 49.511719 87 43.824219 87 40.964844 C 87 38.882812 85.730469 38.425781 80.882812 38.757812 L 76.75 39.042969 L 81.601562 36.597656 C 88.667969 33.039062 92.5 29.921875 92.5 27.730469 C 92.5 26.242188 91.425781 25.902344 87.949219 26.296875 C 86.359375 26.476562 84.265625 26.472656 83.296875 26.292969 L 81.539062 25.960938 L 85.242188 22.441406 C 89.269531 18.617188 91.511719 14.929688 90.652344 13.554688 C 90.304688 13.003906 89.140625 12.671875 86.949219 12.5 L 83.75 12.25 L 83.460938 10.082031 C 83.300781 8.890625 82.851562 7.710938 82.460938 7.464844 C 80.972656 6.523438 78.203125 6.980469 75.820312 8.558594 M 76.949219 10.992188 C 74.375 12.738281 72.515625 12.898438 71.238281 11.488281 C 69.875 9.980469 69.515625 11.015625 69.503906 16.5 C 69.492188 22.90625 68.792969 26.875 67.425781 28.328125 C 66.007812 29.835938 64.859375 29.804688 62.089844 28.183594 L 59.84375 26.867188 L 60.136719 29.308594 C 60.296875 30.652344 61.003906 33.550781 61.707031 35.75 C 63.28125 40.664062 63.339844 42.660156 61.957031 44.042969 C 61.039062 44.960938 60.554688 45.046875 57.933594 44.742188 L 54.953125 44.398438 L 55.289062 45.824219 C 55.46875 46.609375 56.15625 49.355469 56.808594 51.929688 C 58.636719 59.121094 58.34375 61.15625 55.378906 61.742188 C 51.863281 62.433594 51 63.015625 51.011719 64.683594 C 51.023438 66.371094 52.585938 70.210938 53.808594 71.566406 C 54.488281 72.316406 54.40625 72.714844 52.992188 75.515625 C 48.460938 84.492188 46.605469 88.933594 47.28125 89.191406 C 47.726562 89.363281 49.421875 87.339844 52.1875 83.324219 C 54.511719 79.953125 56.761719 76.90625 57.1875 76.550781 C 57.613281 76.195312 59.714844 75.707031 61.855469 75.457031 C 66.847656 74.882812 69.5 74.132812 69.5 73.296875 C 69.5 72.933594 69.046875 72.058594 68.496094 71.359375 C 67.132812 69.625 66.746094 67.320312 67.507812 65.476562 C 67.859375 64.636719 69.796875 62.59375 71.820312 60.941406 C 73.84375 59.289062 75.5 57.761719 75.5 57.546875 C 75.5 56.804688 73.742188 55.585938 70.839844 54.304688 C 68.429688 53.246094 67.957031 52.835938 68.089844 51.933594 C 68.21875 51.058594 69.050781 50.582031 72.417969 49.46875 C 77.09375 47.914062 81.34375 45.328125 82.976562 43.03125 L 84.066406 41.5 L 79.839844 41.5 C 74.910156 41.5 73.113281 40.613281 73.65625 38.445312 C 73.898438 37.476562 75.179688 36.640625 79.855469 34.394531 C 83.097656 32.835938 86.425781 30.96875 87.25 30.242188 C 88.074219 29.515625 88.390625 29.03125 87.953125 29.164062 C 87.515625 29.296875 85.414062 29.210938 83.277344 28.972656 C 76.613281 28.226562 76.425781 27.058594 82.125 21.867188 C 84.394531 19.800781 86.636719 17.445312 87.109375 16.632812 L 87.964844 15.15625 L 85.835938 15.203125 C 82.667969 15.273438 81 13.992188 81 11.488281 C 81 8.992188 80.070312 8.878906 76.949219 10.992188 M 35.902344 16.625 C 34.949219 18.128906 33.371094 21.996094 32.015625 26.136719 C 31.152344 28.78125 30.597656 29.679688 29.480469 30.261719 C 27.800781 31.128906 26.09375 31.199219 24.214844 30.484375 C 23.46875 30.203125 22.753906 30.078125 22.625 30.207031 C 22.496094 30.335938 23.988281 33.476562 25.945312 37.179688 C 30.65625 46.109375 30.597656 47.832031 25.667969 45.335938 C 22.992188 43.980469 19.050781 42.78125 18.632812 43.199219 C 18.488281 43.34375 19.953125 45.164062 21.890625 47.238281 C 26.757812 52.449219 28.824219 57.023438 26.683594 57.84375 C 26.210938 58.027344 24.636719 57.480469 22.933594 56.546875 C 21.148438 55.566406 19.472656 54.996094 18.652344 55.089844 C 17.320312 55.25 17.328125 55.265625 19.363281 56.605469 C 22.722656 58.820312 24.996094 61.027344 26.058594 63.117188 C 27.386719 65.71875 27.128906 67.074219 25.136719 68 C 23.152344 68.921875 23.039062 70.230469 24.578125 74.347656 L 25.660156 77.234375 L 24.511719 84.382812 C 23.453125 90.980469 23.4375 93.21875 24.460938 91.5625 C 24.683594 91.199219 25.855469 87.269531 27.058594 82.828125 L 29.25 74.75 L 32.5 71.488281 C 34.289062 69.695312 37.265625 67.347656 39.121094 66.28125 C 42.746094 64.1875 44.152344 62.589844 43.90625 60.84375 C 43.757812 59.808594 43.535156 59.757812 39.816406 59.894531 C 30.828125 60.226562 31.378906 55.664062 41.25 48.0625 L 44.25 45.75 L 42.167969 45.472656 C 41.023438 45.320312 39.730469 44.898438 39.292969 44.535156 C 37.332031 42.90625 39.054688 38.820312 44.300781 32.671875 C 45.511719 31.25 46.5 29.957031 46.5 29.796875 C 46.5 29.269531 43.722656 29.480469 41.394531 30.179688 C 37.550781 31.339844 37.34375 30.972656 37.757812 23.769531 C 38.207031 16.015625 37.648438 13.867188 35.902344 16.625 M 65.691406 43.539062 C 57.390625 69.773438 57.167969 70.59375 58.191406 70.988281 C 58.773438 71.210938 59.394531 71.25 59.570312 71.074219 C 59.96875 70.675781 76.5 18.46875 76.5 17.613281 C 76.5 17.277344 76.292969 17 76.039062 17 C 75.789062 17 75.28125 16.886719 74.914062 16.746094 C 74.425781 16.558594 72.011719 23.570312 65.691406 43.539062 M 33.296875 31.375 C 32.792969 33.824219 27.507812 69.175781 27.632812 69.277344 C 27.695312 69.332031 28.25 69.527344 28.859375 69.714844 C 29.746094 69.988281 30.015625 69.828125 30.222656 68.902344 C 30.539062 67.492188 36 31.167969 36 30.488281 C 36 30.21875 35.457031 30 34.789062 30 C 33.871094 30 33.511719 30.332031 33.296875 31.375 M 29.304688 84.789062 C 29.136719 85.226562 29 85.675781 29 85.789062 C 29 85.90625 32.59375 86 36.984375 86 C 44.453125 86 45 85.9375 45.5 85 C 46.023438 84.019531 45.878906 84 37.820312 84 C 30.792969 84 29.5625 84.113281 29.304688 84.789062 "/>
</g>
</svg>
