<?xml version="1.0" encoding="UTF-8"?>
<svg xmlns="http://www.w3.org/2000/svg" xmlns:xlink="http://www.w3.org/1999/xlink" width="24px" height="24px" viewBox="0 0 24 24" version="1.1">
<g id="surface1">
<path style=" stroke:none;fill-rule:evenodd;fill:rgb(0%,0%,0%);fill-opacity:1;" d="M 18.195312 2.054688 L 17.632812 2.425781 L 17.34375 2.113281 C 17.171875 1.929688 16.921875 1.800781 16.738281 1.800781 C 16.242188 1.800781 16.070312 2.398438 15.972656 4.460938 C 15.929688 5.4375 15.835938 6.292969 15.769531 6.359375 C 15.683594 6.445312 15.46875 6.367188 15.085938 6.113281 C 14.421875 5.671875 14.046875 5.6875 13.820312 6.15625 C 13.640625 6.535156 13.769531 7.328125 14.285156 9.03125 C 14.464844 9.617188 14.527344 10 14.453125 10.074219 C 14.382812 10.144531 14.128906 10.140625 13.777344 10.0625 C 13.109375 9.921875 12.761719 10.058594 12.648438 10.507812 C 12.601562 10.6875 12.722656 11.4375 12.945312 12.335938 C 13.152344 13.175781 13.320312 13.925781 13.320312 14.003906 C 13.320312 14.078125 13.144531 14.179688 12.929688 14.226562 C 11.863281 14.453125 11.40625 15.082031 11.644531 15.996094 C 11.71875 16.273438 11.882812 16.679688 12.007812 16.898438 C 12.136719 17.113281 12.238281 17.316406 12.238281 17.34375 C 12.238281 17.371094 11.550781 17.40625 10.710938 17.425781 L 9.179688 17.460938 L 9.179688 18.058594 L 10.578125 18.09375 L 11.980469 18.128906 L 11.667969 18.84375 L 11.359375 19.558594 L 9.339844 19.558594 C 8.09375 19.558594 7.320312 19.515625 7.320312 19.441406 C 7.320312 19.375 7.386719 19.066406 7.46875 18.75 C 7.65625 18.03125 8.484375 17.175781 9.660156 16.480469 C 10.625 15.914062 10.839844 15.703125 11.09375 15.089844 C 11.316406 14.5625 11.199219 14.148438 10.742188 13.847656 C 10.492188 13.6875 10.261719 13.660156 9.597656 13.714844 C 9.09375 13.757812 8.734375 13.738281 8.691406 13.664062 C 8.601562 13.523438 9.609375 12.527344 10.679688 11.699219 C 11.105469 11.367188 11.476562 10.992188 11.5 10.867188 C 11.566406 10.53125 11.195312 10.320312 10.542969 10.320312 C 10.230469 10.320312 9.941406 10.265625 9.902344 10.203125 C 9.792969 10.027344 10.09375 9.535156 11.03125 8.347656 C 11.5 7.761719 11.878906 7.183594 11.878906 7.066406 C 11.878906 6.59375 11.53125 6.445312 10.566406 6.511719 L 9.660156 6.574219 L 9.660156 5.101562 C 9.660156 3.820312 9.628906 3.59375 9.429688 3.375 C 9.132812 3.042969 8.625 3.050781 8.3125 3.390625 C 7.976562 3.757812 7.527344 4.691406 7.203125 5.699219 C 6.808594 6.917969 6.753906 6.957031 5.863281 6.632812 C 4.449219 6.117188 4.328125 6.648438 5.394531 8.703125 C 5.789062 9.460938 6.101562 10.078125 6.085938 10.078125 C 6.070312 10.078125 5.792969 9.996094 5.472656 9.898438 C 4.761719 9.683594 3.941406 9.667969 3.742188 9.863281 C 3.464844 10.144531 3.609375 10.449219 4.425781 11.332031 C 4.882812 11.824219 5.363281 12.382812 5.5 12.570312 L 5.746094 12.917969 L 5.066406 12.6875 C 4.011719 12.332031 3.105469 12.585938 3.292969 13.183594 C 3.339844 13.320312 3.832031 13.761719 4.390625 14.167969 C 5.578125 15.023438 6.128906 15.839844 5.523438 15.839844 C 5.140625 15.839844 4.882812 16.351562 4.980469 16.917969 L 5.0625 17.398438 L 3.238281 17.398438 L 3.238281 18.121094 L 4.304688 18.121094 C 5.3125 18.121094 5.375 18.136719 5.441406 18.390625 C 5.480469 18.539062 5.480469 18.863281 5.441406 19.109375 L 5.371094 19.558594 L 1.679688 19.558594 L 1.679688 20.160156 L 3.480469 20.160156 C 4.46875 20.160156 5.277344 20.199219 5.277344 20.25 C 5.273438 20.550781 5.015625 20.632812 3.957031 20.664062 L 2.820312 20.699219 L 2.78125 21.03125 L 2.742188 21.359375 L 5.066406 21.359375 L 4.988281 21.808594 C 4.941406 22.058594 4.878906 22.355469 4.84375 22.46875 C 4.792969 22.65625 4.878906 22.679688 5.566406 22.679688 L 6.347656 22.679688 L 6.554688 22.019531 L 6.765625 21.359375 L 8.609375 21.359375 C 9.628906 21.359375 10.425781 21.40625 10.390625 21.464844 C 10.355469 21.523438 10.632812 21.734375 11.011719 21.933594 L 11.699219 22.300781 L 12.039062 21.832031 L 12.375 21.359375 L 20.039062 21.359375 L 20.039062 20.640625 L 16.4375 20.640625 C 12.867188 20.640625 12.839844 20.636719 12.988281 20.398438 C 13.132812 20.167969 13.269531 20.160156 17.609375 20.160156 L 22.078125 20.160156 L 22.078125 19.558594 L 17.878906 19.558594 C 15.433594 19.558594 13.679688 19.515625 13.679688 19.449219 C 13.679688 19.390625 13.835938 19.210938 14.027344 19.050781 C 14.304688 18.816406 14.566406 18.742188 15.308594 18.679688 C 15.851562 18.632812 16.457031 18.496094 16.742188 18.359375 C 17.160156 18.15625 17.480469 18.121094 18.816406 18.121094 L 20.398438 18.121094 L 20.398438 17.398438 L 18.871094 17.394531 L 17.339844 17.390625 L 17.011719 16.871094 C 16.828125 16.582031 16.679688 16.277344 16.679688 16.195312 C 16.679688 16.109375 17.140625 15.601562 17.699219 15.0625 C 18.996094 13.824219 19.03125 13.527344 17.96875 12.808594 L 17.519531 12.503906 L 18.078125 12.3125 C 19.335938 11.882812 20.878906 10.519531 20.878906 9.832031 C 20.878906 9.332031 20.574219 9.222656 19.414062 9.300781 L 18.421875 9.371094 L 19.585938 8.785156 C 21.28125 7.929688 22.199219 7.179688 22.199219 6.65625 C 22.199219 6.296875 21.941406 6.214844 21.109375 6.3125 C 20.726562 6.355469 20.222656 6.355469 19.992188 6.308594 L 19.570312 6.230469 L 20.457031 5.386719 C 21.425781 4.46875 21.964844 3.582031 21.757812 3.253906 C 21.671875 3.121094 21.394531 3.042969 20.867188 3 L 20.101562 2.941406 L 20.03125 2.417969 C 19.992188 2.132812 19.882812 1.851562 19.789062 1.792969 C 19.433594 1.566406 18.769531 1.675781 18.195312 2.054688 M 18.46875 2.636719 C 17.851562 3.058594 17.402344 3.09375 17.097656 2.757812 C 16.769531 2.394531 16.683594 2.644531 16.679688 3.960938 C 16.675781 5.496094 16.511719 6.449219 16.183594 6.800781 C 15.84375 7.160156 15.566406 7.152344 14.902344 6.765625 L 14.363281 6.449219 L 14.433594 7.035156 C 14.472656 7.355469 14.640625 8.050781 14.808594 8.578125 C 15.1875 9.757812 15.203125 10.238281 14.871094 10.570312 C 14.648438 10.789062 14.53125 10.8125 13.902344 10.738281 L 13.1875 10.65625 L 13.269531 10.996094 C 13.3125 11.1875 13.476562 11.84375 13.632812 12.464844 C 14.074219 14.1875 14.003906 14.675781 13.289062 14.816406 C 12.445312 14.984375 12.238281 15.125 12.242188 15.523438 C 12.246094 15.929688 12.621094 16.851562 12.914062 17.175781 C 13.078125 17.355469 13.058594 17.453125 12.71875 18.125 C 11.628906 20.277344 11.183594 21.34375 11.347656 21.40625 C 11.453125 21.449219 11.859375 20.960938 12.523438 19.996094 C 13.082031 19.1875 13.625 18.457031 13.726562 18.371094 C 13.828125 18.289062 14.332031 18.167969 14.84375 18.109375 C 16.042969 17.972656 16.679688 17.792969 16.679688 17.589844 C 16.679688 17.503906 16.570312 17.292969 16.4375 17.125 C 16.113281 16.710938 16.019531 16.15625 16.203125 15.714844 C 16.285156 15.511719 16.75 15.023438 17.238281 14.625 C 17.722656 14.230469 18.121094 13.863281 18.121094 13.8125 C 18.121094 13.632812 17.699219 13.339844 17 13.03125 C 16.421875 12.777344 16.308594 12.679688 16.339844 12.464844 C 16.371094 12.253906 16.574219 12.140625 17.378906 11.871094 C 18.503906 11.5 19.523438 10.878906 19.914062 10.328125 L 20.175781 9.960938 L 19.160156 9.960938 C 17.976562 9.960938 17.546875 9.746094 17.675781 9.226562 C 17.734375 8.996094 18.042969 8.792969 19.164062 8.253906 C 19.945312 7.878906 20.742188 7.433594 20.941406 7.257812 C 21.136719 7.082031 21.214844 6.96875 21.109375 7 C 21.003906 7.03125 20.5 7.011719 19.988281 6.953125 C 18.386719 6.773438 18.34375 6.492188 19.710938 5.246094 C 20.253906 4.75 20.792969 4.1875 20.90625 3.992188 L 21.113281 3.636719 L 20.601562 3.648438 C 19.839844 3.664062 19.441406 3.359375 19.441406 2.757812 C 19.441406 2.15625 19.214844 2.128906 18.46875 2.636719 M 8.617188 3.988281 C 8.386719 4.351562 8.007812 5.28125 7.683594 6.273438 C 7.476562 6.90625 7.34375 7.125 7.074219 7.261719 C 6.671875 7.472656 6.261719 7.488281 5.8125 7.316406 C 5.632812 7.25 5.460938 7.21875 5.429688 7.25 C 5.398438 7.28125 5.757812 8.035156 6.226562 8.921875 C 7.359375 11.066406 7.34375 11.480469 6.160156 10.878906 C 5.519531 10.554688 4.570312 10.269531 4.472656 10.367188 C 4.4375 10.402344 4.789062 10.839844 5.253906 11.335938 C 6.421875 12.585938 6.917969 13.683594 6.402344 13.882812 C 6.289062 13.925781 5.914062 13.796875 5.503906 13.570312 C 5.074219 13.335938 4.675781 13.199219 4.476562 13.222656 C 4.15625 13.257812 4.160156 13.261719 4.648438 13.585938 C 5.453125 14.117188 6 14.648438 6.253906 15.148438 C 6.574219 15.773438 6.511719 16.097656 6.03125 16.320312 C 5.558594 16.542969 5.527344 16.855469 5.898438 17.84375 L 6.160156 18.535156 L 5.882812 20.253906 C 5.628906 21.835938 5.625 22.371094 5.871094 21.976562 C 5.925781 21.886719 6.207031 20.945312 6.496094 19.878906 L 7.019531 17.941406 L 7.800781 17.15625 C 8.230469 16.726562 8.945312 16.164062 9.390625 15.90625 C 10.257812 15.40625 10.597656 15.019531 10.539062 14.601562 C 10.503906 14.355469 10.449219 14.34375 9.554688 14.375 C 7.398438 14.453125 7.53125 13.359375 9.898438 11.535156 L 10.621094 10.980469 L 10.121094 10.914062 C 9.84375 10.875 9.535156 10.777344 9.429688 10.6875 C 8.960938 10.296875 9.375 9.316406 10.632812 7.839844 C 10.921875 7.5 11.160156 7.191406 11.160156 7.152344 C 11.160156 7.023438 10.492188 7.074219 9.933594 7.242188 C 9.011719 7.519531 8.960938 7.433594 9.0625 5.703125 C 9.167969 3.84375 9.035156 3.328125 8.617188 3.988281 M 15.765625 10.449219 C 13.773438 16.746094 13.71875 16.941406 13.964844 17.039062 C 14.105469 17.089844 14.253906 17.101562 14.296875 17.058594 C 14.390625 16.960938 18.359375 4.433594 18.359375 4.226562 C 18.359375 4.144531 18.308594 4.078125 18.25 4.078125 C 18.1875 4.078125 18.066406 4.050781 17.980469 4.019531 C 17.863281 3.972656 17.28125 5.65625 15.765625 10.449219 M 7.992188 7.53125 C 7.871094 8.117188 6.601562 16.601562 6.632812 16.625 C 6.648438 16.640625 6.78125 16.6875 6.925781 16.730469 C 7.140625 16.796875 7.203125 16.757812 7.253906 16.535156 C 7.328125 16.199219 8.640625 7.480469 8.640625 7.316406 C 8.640625 7.253906 8.507812 7.199219 8.347656 7.199219 C 8.128906 7.199219 8.042969 7.28125 7.992188 7.53125 M 7.03125 20.351562 C 6.992188 20.453125 6.960938 20.5625 6.960938 20.589844 C 6.960938 20.617188 7.820312 20.640625 8.875 20.640625 C 10.667969 20.640625 10.800781 20.625 10.921875 20.398438 C 11.046875 20.164062 11.011719 20.160156 9.078125 20.160156 C 7.390625 20.160156 7.09375 20.1875 7.03125 20.351562 "/>
</g>
</svg>
