<?xml version="1.0" encoding="UTF-8"?>
<svg xmlns="http://www.w3.org/2000/svg" xmlns:xlink="http://www.w3.org/1999/xlink" width="24px" height="24px" viewBox="0 0 24 24" version="1.1">
<g id="surface1">
<path style=" stroke:none;fill-rule:evenodd;fill:rgb(0%,0%,0%);fill-opacity:1;" d="M 11.410156 2.351562 C 10.984375 2.707031 10.972656 2.804688 11.230469 3.597656 C 11.414062 4.15625 11.40625 4.25 11.046875 6.140625 C 10.386719 9.625 10.128906 12.101562 9.972656 16.511719 C 9.839844 20.269531 9.945312 20.921875 10.804688 21.644531 C 11.101562 21.894531 11.304688 21.960938 11.785156 21.960938 C 12.339844 21.960938 12.4375 21.914062 12.902344 21.449219 C 13.207031 21.144531 13.464844 20.746094 13.546875 20.460938 C 13.722656 19.816406 13.710938 17.867188 13.5 14.101562 C 13.402344 12.382812 13.324219 9.652344 13.324219 8.03125 L 13.320312 5.085938 L 13.738281 4.253906 C 13.96875 3.792969 14.160156 3.351562 14.160156 3.269531 C 14.160156 3 13.710938 2.652344 13.449219 2.722656 C 13.28125 2.765625 13.199219 2.730469 13.199219 2.613281 C 13.199219 2.003906 12.023438 1.832031 11.410156 2.351562 M 12.292969 2.871094 C 12.304688 3.777344 12.027344 3.890625 11.890625 3.03125 C 11.839844 2.722656 11.746094 2.570312 11.589844 2.539062 C 11.410156 2.503906 11.382812 2.539062 11.460938 2.71875 C 11.511719 2.839844 11.640625 3.242188 11.742188 3.613281 C 11.917969 4.257812 11.910156 4.371094 11.605469 6.074219 C 10.9375 9.796875 10.613281 12.972656 10.484375 17.007812 L 10.402344 19.554688 L 10.835938 19.738281 C 11.078125 19.839844 11.546875 19.921875 11.886719 19.921875 C 12.410156 19.921875 12.550781 19.867188 12.867188 19.550781 L 13.234375 19.183594 L 13.15625 18.023438 C 12.925781 14.457031 12.804688 11.210938 12.792969 8.28125 C 12.78125 5.0625 12.785156 4.964844 13.0625 4.359375 C 13.214844 4.015625 13.445312 3.644531 13.570312 3.53125 C 13.695312 3.417969 13.800781 3.277344 13.800781 3.222656 C 13.800781 3.019531 13.324219 3.125 13.085938 3.382812 L 12.839844 3.644531 L 12.839844 3.195312 C 12.839844 2.679688 12.664062 2.28125 12.4375 2.28125 C 12.332031 2.28125 12.285156 2.464844 12.292969 2.871094 M 10.558594 20.285156 C 10.558594 20.53125 10.925781 21.113281 11.152344 21.238281 C 11.492188 21.417969 12.148438 21.386719 12.453125 21.171875 C 12.71875 20.984375 13.140625 20.300781 13.046875 20.207031 C 13.019531 20.179688 12.734375 20.207031 12.410156 20.269531 C 12.0625 20.335938 11.597656 20.335938 11.28125 20.277344 C 10.574219 20.136719 10.558594 20.136719 10.558594 20.285156 "/>
</g>
</svg>
