<?xml version="1.0" encoding="UTF-8"?>
<svg xmlns="http://www.w3.org/2000/svg" xmlns:xlink="http://www.w3.org/1999/xlink" width="100px" height="100px" viewBox="0 0 100 100" version="1.1">
<g id="surface1">
<path style=" stroke:none;fill-rule:evenodd;fill:rgb(0%,0%,0%);fill-opacity:1;" d="M 47.539062 9.792969 C 45.769531 11.28125 45.710938 11.683594 46.792969 14.984375 C 47.554688 17.320312 47.527344 17.707031 46.035156 25.578125 C 43.277344 40.101562 42.207031 50.425781 41.554688 68.800781 C 40.996094 84.457031 41.4375 87.175781 45.019531 90.191406 C 46.25 91.226562 47.105469 91.5 49.105469 91.5 C 51.410156 91.5 51.816406 91.316406 53.757812 89.375 C 55.023438 88.109375 56.109375 86.4375 56.441406 85.25 C 57.183594 82.574219 57.125 74.441406 56.246094 58.75 C 55.847656 51.601562 55.515625 40.222656 55.511719 33.472656 L 55.5 21.191406 L 57.25 17.722656 C 58.210938 15.8125 58.996094 13.96875 59 13.625 C 59 12.496094 57.132812 11.058594 56.035156 11.34375 C 55.335938 11.527344 55 11.378906 55 10.886719 C 55 8.355469 50.097656 7.640625 47.539062 9.792969 M 51.214844 11.957031 C 51.269531 15.746094 50.121094 16.210938 49.539062 12.636719 C 49.328125 11.34375 48.941406 10.703125 48.292969 10.578125 C 47.546875 10.433594 47.433594 10.585938 47.753906 11.324219 C 47.972656 11.832031 48.496094 13.515625 48.921875 15.058594 C 49.660156 17.738281 49.632812 18.214844 48.359375 25.308594 C 45.582031 40.820312 44.222656 54.058594 43.683594 70.867188 L 43.34375 81.484375 L 45.15625 82.242188 C 46.152344 82.660156 48.117188 83 49.523438 83 C 51.707031 83 52.300781 82.777344 53.609375 81.46875 L 55.136719 79.9375 L 54.824219 75.09375 C 53.863281 60.230469 53.359375 46.710938 53.308594 34.5 C 53.25 21.089844 53.277344 20.6875 54.421875 18.160156 C 55.066406 16.738281 56.023438 15.183594 56.546875 14.707031 C 57.070312 14.234375 57.5 13.65625 57.5 13.421875 C 57.5 12.578125 55.515625 13.027344 54.519531 14.09375 L 53.5 15.1875 L 53.5 13.3125 C 53.5 11.167969 52.765625 9.5 51.820312 9.5 C 51.378906 9.5 51.1875 10.265625 51.214844 11.957031 M 44 84.523438 C 44 85.539062 45.519531 87.976562 46.472656 88.484375 C 47.890625 89.246094 50.617188 89.109375 51.890625 88.21875 C 53.003906 87.441406 54.757812 84.59375 54.367188 84.199219 C 54.253906 84.089844 53.054688 84.203125 51.707031 84.457031 C 50.261719 84.726562 48.320312 84.738281 47 84.480469 C 44.058594 83.910156 44 83.910156 44 84.523438 "/>
</g>
</svg>
