<?xml version="1.0" encoding="UTF-8"?>
<svg xmlns="http://www.w3.org/2000/svg" xmlns:xlink="http://www.w3.org/1999/xlink" width="24px" height="24px" viewBox="0 0 24 24" version="1.1">
<g id="surface1">
<path style=" stroke:none;fill-rule:evenodd;fill:rgb(0%,0%,0%);fill-opacity:1;" d="M 15.195312 1.523438 C 15.15625 1.566406 15.121094 2.054688 15.121094 2.609375 C 15.121094 4.429688 14.492188 6.917969 13.703125 8.21875 C 12.835938 9.652344 10.253906 12.464844 8.589844 13.78125 C 7.425781 14.710938 6.617188 15.125 4.886719 15.679688 C 3.015625 16.28125 1.570312 17.027344 0.753906 17.816406 C 0.113281 18.441406 0.0898438 18.484375 0.152344 18.964844 C 0.191406 19.242188 0.339844 19.589844 0.492188 19.753906 C 0.941406 20.230469 1.988281 20.402344 2.65625 20.109375 C 2.796875 20.046875 2.871094 20.101562 2.921875 20.3125 C 2.960938 20.46875 3.132812 20.660156 3.304688 20.738281 C 3.6875 20.914062 4.398438 20.921875 4.503906 20.753906 C 4.550781 20.679688 4.691406 20.75 4.863281 20.933594 C 5.078125 21.160156 5.269531 21.238281 5.621094 21.238281 C 5.988281 21.238281 6.105469 21.292969 6.15625 21.480469 C 6.238281 21.796875 6.785156 21.992188 7.40625 21.925781 C 7.804688 21.882812 7.941406 21.917969 8.066406 22.09375 C 8.277344 22.40625 9.265625 22.574219 9.984375 22.421875 C 10.546875 22.304688 11.519531 21.707031 11.519531 21.480469 C 11.519531 21.414062 11.765625 21.359375 12.066406 21.359375 C 12.6875 21.359375 12.925781 21.25 14.328125 20.335938 C 16.242188 19.089844 16.683594 18.945312 19.617188 18.597656 C 21.660156 18.355469 22.917969 17.832031 23.503906 16.980469 C 23.941406 16.339844 23.949219 15.554688 23.527344 13.390625 C 22.832031 9.804688 22.792969 8.074219 23.324219 4.40625 C 23.5625 2.769531 23.566406 2.195312 23.332031 2.425781 C 23.304688 2.453125 23.148438 3.410156 22.980469 4.550781 C 22.5 7.859375 22.566406 10.199219 23.238281 13.609375 C 23.738281 16.140625 23.574219 16.878906 22.371094 17.546875 C 21.628906 17.953125 20.625 18.1875 18.648438 18.40625 C 16.984375 18.589844 16.152344 18.84375 15.113281 19.476562 C 14.753906 19.699219 14.054688 20.125 13.558594 20.425781 C 12.5 21.074219 12.09375 21.195312 11.835938 20.941406 C 11.59375 20.695312 11.53125 20.710938 11.402344 21.054688 C 11.238281 21.484375 10.386719 22.054688 9.773438 22.148438 C 9.125 22.246094 8.355469 22.074219 8.304688 21.824219 C 8.285156 21.71875 8.605469 21.34375 9.054688 20.949219 C 9.488281 20.570312 9.839844 20.179688 9.839844 20.078125 C 9.839844 19.949219 9.707031 20.007812 9.390625 20.273438 C 7.816406 21.59375 7.804688 21.601562 7.214844 21.601562 C 6.65625 21.601562 6.359375 21.449219 6.359375 21.167969 C 6.359375 20.957031 7.414062 19.917969 8.101562 19.449219 C 8.429688 19.226562 8.632812 19.019531 8.546875 18.988281 C 8.292969 18.90625 7.359375 19.53125 6.613281 20.285156 C 6.226562 20.679688 5.816406 21 5.707031 21 C 5.378906 21 5.039062 20.765625 5.039062 20.542969 C 5.039062 19.964844 6.160156 18.917969 7.109375 18.609375 C 7.59375 18.449219 7.710938 18.238281 7.316406 18.238281 C 7.035156 18.238281 6.054688 18.730469 5.699219 19.046875 C 5.566406 19.167969 5.25 19.523438 4.996094 19.839844 C 4.738281 20.15625 4.398438 20.46875 4.238281 20.527344 C 3.828125 20.683594 3.363281 20.539062 3.214844 20.210938 C 3.101562 19.964844 3.160156 19.84375 3.734375 19.1875 C 4.171875 18.675781 4.578125 18.347656 5.007812 18.152344 C 5.601562 17.878906 5.832031 17.636719 5.488281 17.644531 C 5.058594 17.648438 4.214844 18.210938 3.425781 19.015625 C 2.554688 19.910156 2.539062 19.921875 1.925781 19.921875 C 0.953125 19.921875 0.492188 19.578125 0.484375 18.855469 C 0.480469 18.535156 0.578125 18.359375 0.972656 18 C 1.726562 17.3125 3.28125 16.507812 4.679688 16.078125 C 7.691406 15.152344 9.195312 14.0625 12.261719 10.570312 C 13.570312 9.085938 14.164062 8.214844 14.570312 7.199219 C 15.3125 5.335938 15.800781 0.917969 15.195312 1.523438 M 20.75 7.828125 C 20.664062 8.152344 20.644531 8.707031 20.691406 9.328125 C 20.789062 10.511719 20.546875 11.226562 19.933594 11.589844 C 19.535156 11.824219 19.449219 12 19.730469 12 C 19.976562 12 20.617188 11.429688 20.828125 11.019531 C 20.957031 10.777344 21.019531 10.230469 21.039062 9.207031 C 21.054688 8.398438 21.113281 7.644531 21.167969 7.53125 C 21.238281 7.378906 21.214844 7.320312 21.078125 7.320312 C 20.957031 7.320312 20.839844 7.503906 20.75 7.828125 "/>
</g>
</svg>
