<?xml version="1.0" encoding="UTF-8"?>
<svg xmlns="http://www.w3.org/2000/svg" xmlns:xlink="http://www.w3.org/1999/xlink" width="100px" height="100px" viewBox="0 0 100 100" version="1.1">
<g id="surface1">
<path style=" stroke:none;fill-rule:evenodd;fill:rgb(0%,0%,0%);fill-opacity:1;" d="M 63.320312 6.347656 C 63.144531 6.523438 63 8.5625 63 10.878906 C 63 18.453125 60.378906 28.828125 57.101562 34.238281 C 53.476562 40.21875 42.71875 51.929688 35.796875 57.429688 C 30.941406 61.289062 27.570312 63.015625 20.363281 65.328125 C 12.5625 67.835938 6.542969 70.953125 3.148438 74.242188 C 0.464844 76.839844 0.371094 77.019531 0.640625 79.019531 C 0.796875 80.179688 1.417969 81.632812 2.050781 82.304688 C 3.914062 84.289062 8.285156 85.011719 11.0625 83.796875 C 11.65625 83.535156 11.957031 83.761719 12.175781 84.632812 C 12.339844 85.289062 13.054688 86.09375 13.761719 86.414062 C 15.359375 87.140625 18.332031 87.179688 18.765625 86.476562 C 18.960938 86.15625 19.554688 86.453125 20.269531 87.226562 C 21.152344 88.175781 21.953125 88.5 23.417969 88.5 C 24.960938 88.5 25.441406 88.714844 25.644531 89.492188 C 25.992188 90.824219 28.273438 91.640625 30.855469 91.355469 C 32.523438 91.175781 33.097656 91.324219 33.605469 92.066406 C 34.496094 93.359375 38.609375 94.0625 41.597656 93.425781 C 43.945312 92.929688 48 90.4375 48 89.496094 C 48 89.222656 49.023438 89 50.273438 89 C 52.855469 89 53.859375 88.546875 59.703125 84.738281 C 67.675781 79.539062 69.523438 78.933594 81.730469 77.492188 C 90.253906 76.484375 95.492188 74.304688 97.925781 70.753906 C 99.757812 68.082031 99.78125 64.816406 98.03125 55.800781 C 95.128906 40.851562 94.96875 33.652344 97.1875 18.355469 C 98.179688 11.539062 98.1875 9.144531 97.222656 10.109375 C 97.109375 10.226562 96.445312 14.207031 95.757812 18.957031 C 93.75 32.75 94.027344 42.503906 96.832031 56.710938 C 98.914062 67.253906 98.234375 70.335938 93.210938 73.105469 C 90.125 74.808594 85.933594 75.777344 77.703125 76.695312 C 70.769531 77.464844 67.304688 78.515625 62.96875 81.160156 C 61.472656 82.074219 58.5625 83.847656 56.5 85.109375 C 52.089844 87.800781 50.382812 88.3125 49.320312 87.25 C 48.300781 86.230469 48.050781 86.296875 47.507812 87.734375 C 46.828125 89.515625 43.277344 91.898438 40.726562 92.28125 C 38.019531 92.683594 34.808594 91.980469 34.605469 90.9375 C 34.519531 90.492188 35.851562 88.9375 37.726562 87.289062 C 39.527344 85.707031 41 84.074219 41 83.660156 C 41 83.128906 40.441406 83.371094 39.125 84.472656 C 32.5625 89.96875 32.511719 90 30.054688 90 C 27.738281 90 26.5 89.375 26.5 88.207031 C 26.5 87.324219 30.890625 82.984375 33.75 81.039062 C 35.125 80.101562 35.964844 79.242188 35.617188 79.125 C 34.558594 78.769531 30.664062 81.375 27.558594 84.519531 C 25.941406 86.160156 24.238281 87.5 23.777344 87.5 C 22.414062 87.5 21 86.53125 21 85.597656 C 21 83.1875 25.664062 78.824219 29.625 77.535156 C 31.644531 76.875 32.136719 76 30.484375 76 C 29.320312 76 25.234375 78.042969 23.75 79.367188 C 23.199219 79.859375 21.878906 81.34375 20.8125 82.667969 C 19.746094 83.992188 18.324219 85.28125 17.652344 85.539062 C 15.945312 86.1875 14.015625 85.585938 13.390625 84.210938 C 12.921875 83.179688 13.171875 82.6875 15.550781 79.941406 C 17.386719 77.820312 19.078125 76.449219 20.871094 75.628906 C 23.332031 74.503906 24.296875 73.484375 22.875 73.511719 C 21.070312 73.542969 17.558594 75.882812 14.28125 79.234375 C 10.636719 82.960938 10.574219 83 8.015625 83 C 3.96875 83 2.042969 81.578125 2.015625 78.566406 C 2.003906 77.222656 2.414062 76.503906 4.054688 75.007812 C 7.1875 72.144531 13.664062 68.78125 19.5 66.988281 C 32.054688 63.136719 38.3125 58.589844 51.089844 44.050781 C 56.539062 37.851562 59.015625 34.230469 60.703125 30 C 63.800781 22.234375 65.835938 3.828125 63.320312 6.347656 M 86.464844 32.625 C 86.101562 33.964844 86.011719 36.277344 86.21875 38.871094 C 86.617188 43.800781 85.613281 46.785156 83.054688 48.296875 C 81.402344 49.273438 81.039062 50 82.210938 50 C 83.242188 50 85.910156 47.621094 86.789062 45.921875 C 87.316406 44.902344 87.582031 42.621094 87.667969 38.355469 C 87.734375 34.996094 87.972656 31.855469 88.199219 31.375 C 88.496094 30.738281 88.390625 30.5 87.824219 30.5 C 87.324219 30.5 86.828125 31.273438 86.464844 32.625 "/>
</g>
</svg>
