<?xml version="1.0" encoding="UTF-8"?>
<svg xmlns="http://www.w3.org/2000/svg" xmlns:xlink="http://www.w3.org/1999/xlink" width="24px" height="24px" viewBox="0 0 24 24" version="1.1">
<g id="surface1">
<path style=" stroke:none;fill-rule:evenodd;fill:rgb(0%,0%,0%);fill-opacity:1;" d="M 0 12 L 0 24 L 12.03125 23.96875 L 24.058594 23.941406 L 24.089844 11.96875 L 24.121094 0 L 14.28125 0 L 14.28125 3 L 16.53125 3.003906 L 18.78125 3.003906 L 11.722656 10.042969 L 4.660156 17.078125 L 6.828125 19.246094 L 13.832031 12.261719 C 17.679688 8.421875 20.871094 5.28125 20.914062 5.28125 C 20.960938 5.28125 21 6.226562 21 7.378906 L 21 9.480469 L 24 9.480469 L 24 12.480469 L 21.003906 12.480469 L 20.941406 20.941406 L 3.058594 20.941406 L 3.058594 3.058594 L 7.230469 3.027344 L 11.398438 2.996094 L 11.398438 0 L 0 0 L 0 12 M 0.0585938 12.058594 C 0.0585938 18.660156 0.0703125 21.378906 0.0898438 18.097656 C 0.109375 14.820312 0.109375 9.421875 0.0898438 6.097656 C 0.0703125 2.777344 0.0585938 5.460938 0.0585938 12.058594 "/>
</g>
</svg>
