<?xml version="1.0" encoding="UTF-8"?>
<svg xmlns="http://www.w3.org/2000/svg" xmlns:xlink="http://www.w3.org/1999/xlink" width="100px" height="100px" viewBox="0 0 100 100" version="1.1">
<g id="surface1">
<path style=" stroke:none;fill-rule:evenodd;fill:rgb(0%,0%,0%);fill-opacity:1;" d="M 0 50.003906 L 0 100.003906 L 50.125 99.878906 L 100.25 99.75 L 100.378906 49.875 L 100.503906 0 L 59.5 0 L 59.5 12.5 L 78.25 12.523438 L 48.835938 41.84375 L 19.421875 71.167969 L 23.9375 75.679688 L 28.453125 80.195312 L 57.625 51.097656 C 73.671875 35.09375 86.957031 22 87.148438 22 C 87.34375 22 87.5 25.9375 87.5 30.75 L 87.5 39.5 L 100 39.5 L 100 52 L 87.511719 52 L 87.382812 69.625 L 87.25 87.25 L 12.75 87.25 L 12.75 12.75 L 30.125 12.617188 L 47.5 12.488281 L 47.5 0 L 0 0 L 0 50.003906 M 0.242188 50.25 C 0.242188 77.75 0.300781 89.074219 0.375 75.414062 C 0.449219 61.753906 0.449219 39.253906 0.375 25.414062 C 0.300781 11.574219 0.242188 22.75 0.242188 50.25 "/>
</g>
</svg>
