<?xml version="1.0" encoding="UTF-8"?>
<svg xmlns="http://www.w3.org/2000/svg" xmlns:xlink="http://www.w3.org/1999/xlink" width="24px" height="24px" viewBox="0 0 24 24" version="1.1">
<g id="surface1">
<path style=" stroke:none;fill-rule:evenodd;fill:rgb(0%,0%,0%);fill-opacity:1;" d="M 11.703125 1.964844 C 11.445312 2.339844 11.234375 2.8125 11.195312 3.101562 C 11.132812 3.570312 11.117188 3.585938 10.878906 3.417969 C 10.738281 3.320312 10.585938 3.238281 10.535156 3.238281 C 10.367188 3.238281 10.4375 4.117188 10.679688 5.039062 C 10.984375 6.207031 10.980469 6.28125 10.617188 5.679688 C 10.335938 5.207031 9.679688 4.679688 9.375 4.679688 C 9.113281 4.679688 9.246094 5.261719 9.824219 6.675781 C 10.414062 8.109375 10.855469 9.464844 10.765625 9.554688 C 10.738281 9.582031 10.484375 8.953125 10.195312 8.160156 C 9.726562 6.871094 9.484375 6.433594 9.476562 6.871094 C 9.476562 6.953125 9.328125 6.851562 9.148438 6.648438 C 8.773438 6.21875 7.996094 5.726562 7.878906 5.839844 C 7.726562 5.992188 7.808594 6.785156 8.027344 7.265625 L 8.246094 7.753906 L 7.902344 7.703125 C 7.714844 7.675781 7.558594 7.683594 7.558594 7.722656 C 7.558594 7.816406 9.378906 10.320312 10.144531 11.28125 C 10.488281 11.710938 10.859375 12.234375 10.964844 12.445312 C 11.226562 12.960938 11.636719 14.703125 11.636719 15.300781 L 11.636719 15.78125 L 11.308594 15.371094 C 10.625 14.523438 10.351562 14.035156 10.269531 13.535156 C 10.097656 12.445312 8.613281 10.078125 8.101562 10.078125 C 7.71875 10.078125 7.691406 11.191406 8.054688 11.914062 C 8.195312 12.191406 8.285156 12.394531 8.253906 12.359375 C 8.222656 12.328125 7.882812 11.949219 7.496094 11.519531 C 6.820312 10.765625 6.292969 10.324219 6.078125 10.320312 C 5.960938 10.320312 6.03125 10.976562 6.179688 11.324219 C 6.257812 11.503906 6.179688 11.484375 5.765625 11.207031 C 5.371094 10.949219 5.078125 10.859375 4.515625 10.828125 C 3.449219 10.773438 3.347656 10.886719 3.859375 11.597656 C 4.089844 11.917969 4.488281 12.296875 4.746094 12.445312 C 5.148438 12.671875 5.179688 12.71875 4.976562 12.78125 C 4.597656 12.902344 4.410156 13.019531 4.394531 13.144531 C 4.378906 13.28125 6.085938 13.65625 6.785156 13.667969 C 7.054688 13.675781 7.378906 13.761719 7.507812 13.863281 C 7.726562 14.03125 7.71875 14.039062 7.378906 13.953125 C 7.183594 13.902344 6.695312 13.859375 6.300781 13.859375 C 5.722656 13.859375 5.503906 13.917969 5.191406 14.152344 C 4.976562 14.3125 4.800781 14.511719 4.800781 14.597656 C 4.800781 14.875 5.679688 15.023438 7.859375 15.105469 C 9.871094 15.183594 10.0625 15.210938 10.621094 15.5 C 10.953125 15.671875 11.355469 15.925781 11.519531 16.058594 L 11.820312 16.300781 L 11.785156 19.351562 C 11.757812 21.972656 11.777344 22.425781 11.9375 22.558594 C 12.101562 22.691406 12.121094 22.382812 12.121094 19.664062 C 12.121094 16.199219 12.152344 16.058594 13.050781 15.429688 C 13.550781 15.078125 13.613281 15.070312 15.871094 14.925781 C 18.304688 14.773438 19.199219 14.664062 19.199219 14.523438 C 19.199219 14.367188 18.777344 14.050781 18.308594 13.855469 C 17.980469 13.71875 17.664062 13.683594 17.234375 13.734375 C 16.644531 13.804688 16.632812 13.800781 16.921875 13.625 C 17.085938 13.523438 17.597656 13.328125 18.058594 13.183594 C 19.136719 12.851562 19.558594 12.636719 19.558594 12.417969 C 19.558594 12.21875 19.066406 12.0625 18.71875 12.15625 C 18.375 12.246094 18.421875 12.175781 18.90625 11.875 C 19.390625 11.578125 19.890625 10.855469 20 10.300781 L 20.078125 9.929688 L 19.351562 9.980469 C 18.792969 10.019531 18.523438 10.109375 18.1875 10.367188 L 17.75 10.699219 L 17.828125 10.390625 C 17.871094 10.21875 17.875 9.996094 17.832031 9.894531 C 17.71875 9.59375 17.125 10.015625 16.476562 10.859375 C 15.738281 11.8125 15.652344 11.894531 15.898438 11.414062 C 16.121094 10.96875 16.070312 10.320312 15.785156 10.085938 C 15.65625 9.976562 15.53125 10.035156 15.199219 10.371094 C 14.796875 10.769531 14.421875 11.464844 13.34375 13.800781 C 13.085938 14.359375 12.703125 15.03125 12.496094 15.285156 L 12.121094 15.753906 L 12.121094 15.210938 C 12.121094 14.453125 12.65625 12.429688 13.011719 11.835938 C 13.175781 11.5625 13.746094 10.855469 14.28125 10.261719 C 14.8125 9.664062 15.386719 8.949219 15.558594 8.667969 C 15.949219 8.015625 16.457031 6.570312 16.335938 6.449219 C 16.207031 6.320312 15.46875 6.644531 15.015625 7.027344 C 14.796875 7.210938 14.640625 7.277344 14.640625 7.1875 C 14.640625 6.878906 13.886719 7.769531 13.316406 8.757812 C 12.316406 10.488281 12.621094 9.246094 13.742188 7.019531 C 14.441406 5.632812 14.71875 4.558594 14.375 4.558594 C 14.0625 4.558594 13.246094 5.238281 13.085938 5.628906 C 12.820312 6.265625 12.816406 5.960938 13.074219 5.027344 C 13.449219 3.683594 13.390625 3.027344 12.941406 3.4375 C 12.730469 3.628906 12.722656 3.613281 12.738281 3.164062 C 12.757812 2.691406 12.425781 1.496094 12.246094 1.382812 C 12.191406 1.351562 11.949219 1.613281 11.703125 1.964844 "/>
</g>
</svg>
