<?xml version="1.0" encoding="UTF-8"?>
<svg xmlns="http://www.w3.org/2000/svg" xmlns:xlink="http://www.w3.org/1999/xlink" width="24px" height="24px" viewBox="0 0 24 24" version="1.1">
<g id="surface1">
<path style=" stroke:none;fill-rule:evenodd;fill:rgb(0%,0%,0%);fill-opacity:1;" d="M 10.542969 1.117188 C 7.8125 2.269531 5.023438 6.625 3.886719 11.519531 C 3.242188 14.292969 3.390625 16.285156 4.398438 18.359375 C 4.871094 19.332031 5.113281 19.660156 6.050781 20.589844 C 7.804688 22.335938 9.585938 23.085938 12 23.089844 C 13.535156 23.089844 14.257812 22.925781 15.660156 22.257812 C 17.554688 21.355469 18.777344 20.15625 19.679688 18.300781 C 20.296875 17.039062 20.515625 16.054688 20.519531 14.539062 C 20.523438 10.71875 18.292969 5.316406 15.605469 2.640625 C 14.351562 1.390625 13.453125 0.925781 12.179688 0.871094 C 11.378906 0.839844 11.109375 0.878906 10.542969 1.117188 M 11.265625 2.320312 C 10.554688 2.585938 10.046875 2.949219 9.277344 3.75 C 7.457031 5.648438 5.820312 9.03125 5.148438 12.28125 C 4.824219 13.851562 4.878906 15.757812 5.277344 16.886719 C 5.964844 18.84375 7.675781 20.554688 9.632812 21.242188 C 10.683594 21.613281 12.726562 21.699219 13.800781 21.421875 C 15.480469 20.984375 17.0625 19.859375 17.972656 18.457031 C 19.429688 16.214844 19.507812 13.757812 18.242188 9.949219 C 16.589844 4.972656 13.429688 1.515625 11.265625 2.320312 M 10.964844 10.546875 C 9.882812 10.824219 8.785156 11.625 8.183594 12.566406 C 6.386719 15.394531 8.070312 19.132812 11.382812 19.667969 C 15.058594 20.257812 17.90625 16.375 16.261719 13.011719 C 15.871094 12.21875 14.832031 11.234375 13.949219 10.832031 C 13.210938 10.492188 11.726562 10.351562 10.964844 10.546875 "/>
</g>
</svg>
