<?xml version="1.0" encoding="UTF-8"?>
<svg xmlns="http://www.w3.org/2000/svg" xmlns:xlink="http://www.w3.org/1999/xlink" width="100px" height="100px" viewBox="0 0 100 100" version="1.1">
<g id="surface1">
<path style=" stroke:none;fill-rule:evenodd;fill:rgb(0%,0%,0%);fill-opacity:1;" d="M 43.933594 4.652344 C 32.554688 9.453125 20.933594 27.613281 16.195312 48 C 13.507812 59.554688 14.128906 67.851562 18.328125 76.5 C 20.296875 80.554688 21.304688 81.917969 25.207031 85.796875 C 32.519531 93.066406 39.945312 96.183594 50 96.203125 C 56.394531 96.214844 59.398438 95.53125 65.25 92.746094 C 73.144531 88.984375 78.230469 83.976562 82.003906 76.25 C 84.570312 71 85.484375 66.890625 85.492188 60.578125 C 85.515625 44.667969 76.21875 22.15625 65.019531 10.996094 C 59.800781 5.796875 56.054688 3.863281 50.75 3.636719 C 47.410156 3.492188 46.285156 3.660156 43.933594 4.652344 M 46.941406 9.664062 C 43.972656 10.769531 41.867188 12.285156 38.652344 15.632812 C 31.070312 23.527344 24.242188 37.632812 21.453125 51.175781 C 20.101562 57.71875 20.324219 65.648438 21.984375 70.363281 C 24.863281 78.519531 31.980469 85.636719 40.136719 88.515625 C 44.507812 90.054688 53.03125 90.421875 57.5 89.257812 C 64.5 87.441406 71.097656 82.753906 74.890625 76.90625 C 80.953125 67.558594 81.277344 57.320312 76.011719 41.453125 C 69.128906 20.71875 55.953125 6.3125 46.941406 9.664062 M 45.691406 43.945312 C 41.1875 45.105469 36.601562 48.433594 34.101562 52.363281 C 26.605469 64.140625 33.621094 79.726562 47.425781 81.949219 C 62.742188 84.414062 74.609375 68.226562 67.757812 54.222656 C 66.136719 50.90625 61.796875 46.808594 58.125 45.128906 C 55.050781 43.71875 48.863281 43.128906 45.691406 43.945312 "/>
</g>
</svg>
