<?xml version="1.0" encoding="UTF-8"?>
<svg xmlns="http://www.w3.org/2000/svg" xmlns:xlink="http://www.w3.org/1999/xlink" width="100px" height="100px" viewBox="0 0 100 100" version="1.1">
<g id="surface1">
<path style=" stroke:none;fill-rule:evenodd;fill:rgb(0%,0%,0%);fill-opacity:1;" d="M 48.769531 8.191406 C 47.691406 9.753906 46.808594 11.726562 46.648438 12.917969 C 46.382812 14.882812 46.328125 14.9375 45.324219 14.234375 C 44.75 13.828125 44.101562 13.5 43.886719 13.5 C 43.195312 13.5 43.492188 17.160156 44.5 21 C 45.773438 25.863281 45.742188 26.171875 44.238281 23.660156 C 43.0625 21.699219 40.328125 19.5 39.066406 19.5 C 37.976562 19.5 38.519531 21.917969 40.933594 27.808594 C 43.386719 33.792969 45.230469 39.433594 44.855469 39.808594 C 44.746094 39.921875 43.675781 37.308594 42.480469 34.007812 C 40.535156 28.625 39.527344 26.8125 39.488281 28.625 C 39.480469 28.96875 38.859375 28.550781 38.113281 27.695312 C 36.550781 25.914062 33.3125 23.855469 32.828125 24.339844 C 32.191406 24.976562 32.535156 28.277344 33.445312 30.277344 L 34.363281 32.308594 L 32.933594 32.097656 C 32.144531 31.980469 31.5 32.015625 31.5 32.175781 C 31.5 32.570312 39.082031 43 42.277344 47 C 43.703125 48.789062 45.242188 50.972656 45.691406 51.855469 C 46.785156 54.011719 48.492188 61.265625 48.492188 63.75 L 48.488281 65.75 L 47.121094 64.050781 C 44.277344 60.523438 43.125 58.488281 42.792969 56.402344 C 42.066406 51.859375 35.886719 42 33.765625 42 C 32.167969 42 32.046875 46.636719 33.5625 49.644531 C 34.144531 50.800781 34.519531 51.636719 34.394531 51.5 C 34.265625 51.363281 32.847656 49.789062 31.238281 48 C 28.410156 44.863281 26.21875 43.011719 25.320312 43.003906 C 24.84375 43 25.125 45.730469 25.75 47.183594 C 26.078125 47.941406 25.753906 47.851562 24.015625 46.703125 C 22.386719 45.621094 21.164062 45.25 18.816406 45.125 C 14.363281 44.882812 13.953125 45.367188 16.078125 48.328125 C 17.035156 49.660156 18.695312 51.242188 19.769531 51.847656 C 21.460938 52.796875 21.589844 52.988281 20.734375 53.257812 C 19.160156 53.757812 18.371094 54.25 18.308594 54.769531 C 18.238281 55.335938 25.351562 56.898438 28.28125 56.957031 C 29.394531 56.980469 30.746094 57.339844 31.28125 57.757812 C 32.191406 58.46875 32.160156 58.492188 30.75 58.132812 C 29.925781 57.921875 27.898438 57.75 26.25 57.75 C 23.847656 57.75 22.925781 57.992188 21.625 58.96875 C 20.730469 59.640625 20 60.472656 20 60.820312 C 20 61.980469 23.671875 62.59375 32.75 62.941406 C 41.121094 63.261719 41.925781 63.375 44.253906 64.589844 C 45.632812 65.308594 47.320312 66.351562 48.003906 66.90625 L 49.25 67.917969 L 49.109375 80.632812 C 48.988281 91.554688 49.078125 93.441406 49.734375 93.988281 C 50.417969 94.554688 50.5 93.265625 50.5 81.9375 C 50.5 67.496094 50.632812 66.90625 54.382812 64.289062 C 56.46875 62.832031 56.71875 62.789062 66.132812 62.195312 C 76.273438 61.558594 80 61.105469 80 60.511719 C 80 59.863281 78.246094 58.550781 76.285156 57.730469 C 74.921875 57.164062 73.601562 57.015625 71.800781 57.230469 C 69.355469 57.523438 69.300781 57.503906 70.5 56.773438 C 71.1875 56.355469 73.324219 55.527344 75.25 54.933594 C 79.738281 53.554688 81.5 52.65625 81.5 51.746094 C 81.5 50.910156 79.449219 50.265625 77.992188 50.648438 C 76.5625 51.019531 76.761719 50.730469 78.78125 49.480469 C 80.792969 48.238281 82.878906 45.238281 83.339844 42.921875 L 83.652344 41.367188 L 80.625 41.589844 C 78.300781 41.757812 77.175781 42.128906 75.777344 43.195312 L 73.960938 44.582031 L 74.285156 43.292969 C 74.460938 42.582031 74.472656 41.652344 74.308594 41.21875 C 73.828125 39.96875 71.355469 41.726562 68.644531 45.246094 C 65.582031 49.222656 65.226562 49.570312 66.238281 47.566406 C 67.179688 45.699219 66.953125 43 65.78125 42.023438 C 65.230469 41.570312 64.71875 41.816406 63.324219 43.210938 C 61.652344 44.878906 60.09375 47.769531 55.601562 57.5 C 54.523438 59.835938 52.933594 62.625 52.070312 63.695312 L 50.5 65.636719 L 50.5 63.382812 C 50.5 60.222656 52.726562 51.792969 54.214844 49.320312 C 54.898438 48.179688 57.277344 45.226562 59.5 42.75 C 61.722656 40.273438 64.117188 37.292969 64.820312 36.121094 C 66.460938 33.390625 68.570312 27.371094 68.066406 26.867188 C 67.535156 26.332031 64.457031 27.679688 62.558594 29.277344 C 61.648438 30.042969 61 30.324219 61 29.949219 C 61 28.65625 57.867188 32.371094 55.484375 36.496094 C 51.320312 43.699219 52.59375 38.515625 57.261719 29.25 C 60.175781 23.460938 61.324219 19 59.894531 19 C 58.597656 19 55.195312 21.820312 54.515625 23.457031 C 53.421875 26.101562 53.402344 24.832031 54.480469 20.949219 C 56.03125 15.351562 55.800781 12.621094 53.914062 14.324219 C 53.042969 15.117188 53.003906 15.0625 53.078125 13.191406 C 53.15625 11.214844 51.773438 6.226562 51.019531 5.761719 C 50.796875 5.625 49.785156 6.71875 48.769531 8.191406 "/>
</g>
</svg>
