<?xml version="1.0" encoding="UTF-8"?>
<svg xmlns="http://www.w3.org/2000/svg" xmlns:xlink="http://www.w3.org/1999/xlink" width="100px" height="100px" viewBox="0 0 100 100" version="1.1">
<g id="surface1">
<path style=" stroke:none;fill-rule:evenodd;fill:rgb(0%,0%,0%);fill-opacity:1;" d="M 38.5 14.6875 C 38.5 15.613281 38.835938 17.332031 39.25 18.5 C 40.351562 21.621094 40.269531 22.246094 38.886719 21.277344 C 37.792969 20.511719 35.5 20.199219 35.5 20.816406 C 35.5 21.890625 37.902344 24.683594 39.550781 25.527344 C 42.085938 26.820312 42.023438 27.460938 39.375 27.34375 C 36.34375 27.210938 36.496094 28.523438 39.617188 29.460938 C 41.097656 29.90625 42.101562 30.53125 42.289062 31.125 C 42.707031 32.4375 42.40625 32.589844 40.617188 31.964844 C 39.765625 31.667969 38.4375 31.5 37.660156 31.589844 L 36.25 31.75 L 37.296875 32.796875 C 37.871094 33.371094 39.390625 34.152344 40.671875 34.53125 C 42.730469 35.136719 43 35.382812 43 36.625 C 43 37.863281 42.882812 37.972656 42.03125 37.515625 C 40.859375 36.890625 37.664062 36.832031 37.292969 37.433594 C 36.78125 38.261719 38.972656 39.621094 41.230469 39.875 C 43.359375 40.113281 43.5 40.222656 43.5 41.617188 C 43.5 42.84375 43.347656 43.039062 42.625 42.734375 C 41.101562 42.082031 39 41.867188 39 42.367188 C 39 43.148438 40.785156 44.53125 42.320312 44.9375 C 43.398438 45.222656 43.789062 45.660156 43.914062 46.71875 C 44.078125 48.121094 44.070312 48.125 41.789062 47.78125 C 39.921875 47.503906 39.5 47.578125 39.5 48.203125 C 39.5 49.214844 41.324219 50.148438 42.769531 49.875 C 43.625 49.710938 43.996094 49.925781 44.203125 50.703125 C 44.65625 52.382812 44.550781 52.664062 43.730469 51.984375 C 43.164062 51.515625 42.808594 51.492188 42.40625 51.894531 C 41.851562 52.449219 42.75 54.3125 44.339844 55.910156 C 44.703125 56.273438 44.996094 57.175781 44.996094 57.910156 L 44.988281 59.25 L 43.703125 57.621094 C 42.328125 55.875 41.5 55.886719 41.503906 57.65625 C 41.503906 59.140625 43.308594 62 44.242188 62 C 44.761719 62 45 62.503906 45 63.601562 C 45 64.84375 44.867188 65.066406 44.398438 64.601562 C 44.070312 64.269531 43.507812 64 43.148438 64 C 42.054688 64 42.421875 65.378906 44 67.171875 C 45.324219 68.679688 45.5 69.25 45.5 71.996094 C 45.5 74.761719 45.402344 75.066406 44.625 74.746094 C 41.335938 73.390625 41.023438 74.585938 44 77.132812 C 45.929688 78.785156 46 78.953125 46 81.921875 C 46 83.769531 46.214844 85 46.535156 85 C 46.871094 85 47.027344 83.738281 46.957031 81.578125 C 46.863281 78.703125 47.007812 77.992188 47.871094 77.128906 C 48.917969 76.082031 49.839844 73.171875 49.296875 72.628906 C 49.132812 72.464844 48.433594 72.855469 47.746094 73.503906 C 46.570312 74.609375 46.5 74.621094 46.5 73.6875 C 46.5 73.144531 47.117188 71.730469 47.875 70.546875 C 49.191406 68.484375 49.363281 68.390625 51.859375 68.3125 C 55.96875 68.183594 57.007812 66 52.960938 66 L 50.976562 66 L 51.789062 64.761719 C 52.539062 63.613281 52.804688 63.546875 55.480469 63.828125 C 58.578125 64.152344 59.605469 63.582031 58.445312 62.183594 C 58.007812 61.65625 57.335938 61.507812 56.320312 61.710938 C 54.890625 61.996094 54.867188 61.972656 55.699219 61.054688 C 56.371094 60.3125 57.003906 60.164062 58.558594 60.371094 C 60.671875 60.65625 63 59.789062 63 58.71875 C 63 58.015625 61.902344 57.507812 60.335938 57.484375 C 59.261719 57.46875 59.261719 57.460938 60.242188 56.71875 C 60.863281 56.25 61.742188 56.082031 62.605469 56.273438 C 65.464844 56.902344 67.492188 54.894531 64.703125 54.195312 C 62.925781 53.746094 64.128906 53.019531 66.65625 53.007812 C 68.6875 53 70.5 52.28125 70.5 51.484375 C 70.5 51.21875 69.675781 51 68.671875 51 C 66.875 51 66.859375 50.984375 67.75 50 C 68.34375 49.34375 69.289062 49 70.5 49 C 71.652344 49 72.65625 48.65625 73.171875 48.085938 C 74.390625 46.738281 74.1875 46.335938 72.460938 46.683594 L 70.925781 46.988281 L 72.011719 45.234375 C 73.183594 43.332031 73.039062 41.429688 71.796875 42.460938 C 71.417969 42.777344 70.832031 43.699219 70.492188 44.515625 C 69.75 46.316406 69 46.445312 69 44.78125 C 69 44.109375 68.800781 43.4375 68.558594 43.285156 C 67.980469 42.929688 67.515625 44.714844 67.507812 47.296875 C 67.503906 48.703125 67.1875 49.628906 66.5 50.25 C 65.523438 51.132812 65.5 51.125 65.5 49.859375 C 65.5 48.046875 64.601562 45.878906 64 46.25 C 63.726562 46.417969 63.5 47.972656 63.5 49.703125 C 63.5 52.300781 63.3125 53.011719 62.414062 53.796875 C 61.492188 54.609375 61.375 54.625 61.636719 53.914062 C 62.066406 52.726562 61.058594 49.394531 60.34375 49.640625 C 59.976562 49.765625 59.742188 51.007812 59.730469 52.914062 C 59.710938 56.304688 58.835938 58.035156 58.351562 55.65625 C 58.191406 54.882812 57.714844 53.800781 57.289062 53.25 C 56.09375 51.699219 55.503906 53.144531 55.84375 56.785156 C 56.109375 59.609375 56.039062 59.917969 54.941406 60.6875 C 53.761719 61.511719 53.746094 61.5 53.375 59.730469 C 52.886719 57.390625 52.070312 55.898438 51.476562 56.265625 C 50.828125 56.664062 50.875 59.496094 51.5625 61.464844 C 52.371094 63.789062 51.363281 64.652344 50.28125 62.558594 C 49.835938 61.699219 49.253906 61 48.988281 61 C 48.347656 61 48.367188 62.96875 49.027344 64.863281 C 49.488281 66.183594 49.367188 66.675781 48.085938 68.691406 C 46.742188 70.8125 46.59375 70.914062 46.316406 69.878906 C 46.148438 69.257812 46.011719 67.152344 46.007812 65.203125 C 46 62.296875 46.179688 61.492188 46.988281 60.757812 C 48.027344 59.820312 48.878906 56.707031 48.265625 56.101562 C 48.070312 55.910156 47.367188 56.425781 46.707031 57.25 L 45.503906 58.75 L 45.503906 57.238281 C 45.496094 54.480469 46.589844 53.601562 49.96875 53.632812 C 53.011719 53.660156 54.5 53.007812 54.5 51.640625 C 54.5 51.066406 53.949219 50.941406 52 51.078125 C 50.625 51.171875 49.5 51.082031 49.5 50.875 C 49.5 50.046875 51.570312 48.5 52.675781 48.5 C 53.96875 48.5 57.054688 46.613281 57.378906 45.625 C 57.664062 44.757812 55.582031 44.832031 53.816406 45.753906 C 52.390625 46.496094 52.386719 46.496094 53.117188 45.375 C 53.519531 44.757812 54.164062 43.738281 54.546875 43.113281 C 54.957031 42.453125 56.089844 41.761719 57.25 41.46875 C 60.386719 40.679688 61.5 40.085938 61.5 39.207031 C 61.5 38.574219 61.136719 38.441406 59.875 38.617188 C 58.980469 38.746094 57.800781 39.039062 57.25 39.273438 C 56.296875 39.679688 56.289062 39.644531 57.039062 38.511719 C 57.496094 37.820312 58.941406 36.941406 60.476562 36.417969 C 63.453125 35.40625 64.5 34.695312 64.5 33.6875 C 64.5 32.746094 63.554688 32.824219 61.355469 33.945312 C 60.191406 34.539062 59.507812 34.679688 59.515625 34.320312 C 59.542969 33.300781 60.710938 32.167969 62.859375 31.070312 C 65.730469 29.605469 67.109375 27.171875 64.820312 27.609375 C 63.699219 27.824219 63.652344 27.726562 63.886719 25.667969 C 64.214844 22.742188 63.253906 22.828125 61.964844 25.832031 L 60.964844 28.167969 L 60.085938 26.527344 C 59.601562 25.628906 58.992188 24.859375 58.726562 24.820312 C 57.871094 24.695312 57.90625 27.515625 58.789062 29.972656 C 59.589844 32.203125 59.59375 32.449219 58.824219 33.546875 C 58.144531 34.515625 58 34.566406 58 33.835938 C 58 32.660156 56.601562 30 55.988281 30 C 55.25 30 55.398438 31.976562 56.324219 34.558594 C 57.074219 36.660156 57.078125 36.96875 56.363281 37.988281 C 55.589844 39.09375 55.574219 39.082031 55.148438 36.929688 C 54.875 35.542969 54.453125 34.75 53.984375 34.75 C 52.976562 34.75 52.78125 36.738281 53.484375 39.867188 C 53.980469 42.089844 53.949219 42.652344 53.285156 43.601562 L 52.5 44.722656 L 52.5 43.636719 C 52.5 42.039062 51.449219 40 50.625 40 C 50.0625 40 49.933594 40.808594 50.007812 43.875 C 50.058594 46.007812 50.078125 47.996094 50.050781 48.292969 C 50.023438 48.59375 49.058594 50.148438 47.910156 51.753906 C 46.117188 54.257812 45.769531 54.535156 45.445312 53.710938 C 45.238281 53.183594 45.054688 52.023438 45.035156 51.136719 C 45.007812 49.828125 45.285156 49.378906 46.523438 48.738281 C 48.023438 47.960938 49.453125 45.785156 48.855469 45.1875 C 48.683594 45.019531 47.636719 45.601562 46.523438 46.480469 L 44.5 48.085938 L 44.519531 46.417969 C 44.535156 45.046875 44.894531 44.503906 46.519531 43.378906 C 48.15625 42.25 48.496094 41.726562 48.480469 40.378906 L 48.460938 38.75 L 46.535156 40.875 C 45.480469 42.042969 44.476562 43 44.308594 43 C 44.136719 43 44 42.226562 44 41.277344 C 44 40.085938 44.328125 39.328125 45.070312 38.804688 C 46.558594 37.765625 47.992188 35.46875 47.996094 34.125 C 48 32.453125 47.160156 32.757812 45.621094 34.980469 C 44.023438 37.289062 43.5 37.480469 43.5 35.75 C 43.5 35.0625 43.722656 34.5 43.992188 34.5 C 44.703125 34.5 46.976562 30.738281 47.328125 28.984375 C 47.75 26.875 46.765625 27.101562 45.277344 29.457031 C 43.6875 31.976562 43 32.390625 43 30.832031 C 43 30.160156 43.335938 29.476562 43.746094 29.320312 C 44.992188 28.84375 46.496094 25.867188 46.496094 23.875 C 46.5 21.589844 46.097656 21.539062 44.601562 23.640625 C 43.96875 24.523438 43.132812 25.699219 42.742188 26.25 C 42.054688 27.21875 42.03125 27.207031 42.015625 25.933594 C 42.007812 25.210938 42.789062 23.3125 43.75 21.714844 C 45.679688 18.507812 45.671875 18.542969 45.042969 17.550781 C 44.339844 16.4375 43.152344 17.269531 42.488281 19.339844 C 41.519531 22.375 41.1875 22.234375 41.398438 18.875 C 41.566406 16.242188 41.425781 15.535156 40.511719 14.375 C 39.074219 12.550781 38.5 12.640625 38.5 14.6875 M 39.558594 15.75 C 39.582031 16.300781 39.78125 17.3125 40 18 C 40.390625 19.226562 40.402344 19.21875 40.441406 17.75 C 40.464844 16.925781 40.265625 15.914062 40 15.5 C 39.601562 14.882812 39.523438 14.925781 39.558594 15.75 M 43.515625 19.214844 C 42.769531 21.167969 42.917969 21.476562 43.808594 19.832031 C 44.230469 19.050781 44.453125 18.289062 44.304688 18.136719 C 44.152344 17.984375 43.796875 18.46875 43.515625 19.214844 M 37.351562 22.714844 C 37.84375 23.382812 38.761719 24.171875 39.390625 24.460938 C 40.425781 24.945312 40.484375 24.902344 40.011719 24.023438 C 39.472656 23.015625 37.582031 21.5 36.867188 21.5 C 36.640625 21.5 36.859375 22.046875 37.351562 22.714844 M 44.09375 26.09375 C 42.878906 28.0625 42.769531 28.5 43.488281 28.5 C 44.113281 28.5 45.621094 25.609375 45.375 24.878906 C 45.273438 24.574219 44.699219 25.121094 44.09375 26.09375 M 59.058594 27.25 C 59.082031 27.800781 59.28125 28.8125 59.5 29.5 C 59.890625 30.726562 59.902344 30.71875 59.941406 29.25 C 59.964844 28.425781 59.765625 27.414062 59.5 27 C 59.101562 26.382812 59.023438 26.425781 59.058594 27.25 M 38.042969 28.179688 C 38.15625 28.277344 38.925781 28.511719 39.75 28.695312 C 40.84375 28.941406 41.046875 28.894531 40.5 28.523438 C 39.824219 28.066406 37.539062 27.746094 38.042969 28.179688 M 63.28125 29.265625 C 62.746094 29.667969 62.550781 30 62.84375 30 C 63.136719 30 63.65625 29.664062 64 29.25 C 64.777344 28.3125 64.535156 28.316406 63.28125 29.265625 M 44.089844 32.109375 C 43.390625 32.808594 43.320312 33.5 43.945312 33.5 C 44.40625 33.5 45.160156 31.992188 44.851562 31.6875 C 44.761719 31.59375 44.417969 31.78125 44.089844 32.109375 M 39.433594 33.269531 C 40.359375 33.671875 41.371094 33.992188 41.683594 33.984375 C 42.671875 33.953125 39.796875 32.535156 38.75 32.539062 C 38.058594 32.539062 38.269531 32.765625 39.433594 33.269531 M 61.5 34.75 C 60.8125 35.144531 60.488281 35.472656 60.78125 35.484375 C 61.070312 35.492188 61.746094 35.167969 62.28125 34.765625 C 63.515625 33.832031 63.121094 33.824219 61.5 34.75 M 46.140625 35.625 C 45.160156 36.886719 44.828125 37.664062 45.421875 37.300781 C 46.011719 36.933594 47.195312 35 46.828125 35 C 46.714844 35 46.40625 35.28125 46.140625 35.625 M 54.117188 37.5 C 54.117188 38.460938 54.21875 38.855469 54.34375 38.375 C 54.46875 37.894531 54.46875 37.105469 54.34375 36.625 C 54.21875 36.144531 54.117188 36.539062 54.117188 37.5 M 39 38.5 C 39.414062 38.765625 40.425781 38.984375 41.25 38.984375 C 42.402344 38.984375 42.574219 38.871094 42 38.5 C 41.585938 38.234375 40.574219 38.015625 39.75 38.015625 C 38.597656 38.015625 38.425781 38.128906 39 38.5 M 58.277344 39.953125 C 58.125 40.203125 58.449219 40.289062 59 40.144531 C 60.167969 39.839844 60.316406 39.5 59.28125 39.5 C 58.882812 39.5 58.433594 39.703125 58.277344 39.953125 M 46.5 41.75 C 46.148438 42.175781 45.96875 42.636719 46.109375 42.773438 C 46.246094 42.910156 46.648438 42.675781 47 42.25 C 47.351562 41.824219 47.53125 41.363281 47.390625 41.226562 C 47.253906 41.089844 46.851562 41.324219 46.5 41.75 M 50.703125 42.6875 C 50.558594 43.066406 50.65625 44.136719 50.925781 45.0625 L 51.410156 46.75 L 51.453125 44.375 C 51.5 42.015625 51.210938 41.367188 50.703125 42.6875 M 41 43.5 C 41.414062 43.765625 42.085938 43.984375 42.5 43.984375 C 43.167969 43.984375 43.167969 43.929688 42.5 43.5 C 42.085938 43.234375 41.414062 43.015625 41 43.015625 C 40.332031 43.015625 40.332031 43.070312 41 43.5 M 53.375 46.785156 C 52.617188 47.195312 52 47.625 52 47.738281 C 52 48.046875 55.171875 46.933594 55.726562 46.433594 C 56.503906 45.722656 54.882812 45.96875 53.375 46.785156 M 70.25 48 C 69.355469 48.382812 69.394531 48.433594 70.59375 48.464844 C 71.335938 48.484375 72.078125 48.273438 72.25 48 C 72.617188 47.402344 71.640625 47.402344 70.25 48 M 41.40625 48.839844 C 41.765625 48.984375 42.199219 48.96875 42.363281 48.800781 C 42.53125 48.636719 42.234375 48.519531 41.707031 48.539062 C 41.125 48.5625 41.007812 48.683594 41.40625 48.839844 M 64.097656 49.75 C 64.109375 50.574219 64.21875 50.851562 64.347656 50.367188 C 64.472656 49.878906 64.464844 49.203125 64.328125 48.867188 C 64.191406 48.527344 64.085938 48.925781 64.097656 49.75 M 60.035156 53.023438 C 60.066406 54.644531 60.101562 54.679688 60.617188 53.609375 C 61.023438 52.765625 61.015625 52.316406 60.582031 51.882812 C 60.140625 51.4375 60.007812 51.710938 60.035156 53.023438 M 49.25 52.5 C 48.875 53.109375 51.335938 53.109375 52.75 52.5 C 53.527344 52.164062 53.285156 52.0625 51.65625 52.035156 C 50.503906 52.015625 49.421875 52.226562 49.25 52.5 M 66.132812 52.347656 C 66.621094 52.472656 67.296875 52.464844 67.632812 52.328125 C 67.972656 52.191406 67.574219 52.085938 66.75 52.097656 C 65.925781 52.109375 65.648438 52.21875 66.132812 52.347656 M 43 53.1875 C 43 53.292969 43.34375 53.660156 43.761719 54.007812 C 44.398438 54.539062 44.472656 54.507812 44.207031 53.820312 C 43.9375 53.121094 43 52.628906 43 53.1875 M 56.875 55.285156 C 56.667969 55.496094 56.5 56.238281 56.5 56.933594 C 56.5 57.84375 56.652344 58.046875 57.042969 57.65625 C 57.339844 57.359375 57.507812 56.617188 57.417969 56.011719 C 57.324219 55.402344 57.082031 55.078125 56.875 55.285156 M 62.875 55.332031 C 63.21875 55.46875 63.78125 55.46875 64.125 55.332031 C 64.46875 55.191406 64.1875 55.078125 63.5 55.078125 C 62.8125 55.078125 62.53125 55.191406 62.875 55.332031 M 42 57.816406 C 42 58.46875 44.101562 61.5 44.550781 61.5 C 44.808594 61.5 44.5625 60.601562 44 59.5 C 43.121094 57.773438 42 56.832031 42 57.816406 M 46.65625 58.875 C 46.484375 59.355469 46.25 59.976562 46.136719 60.25 C 46.019531 60.523438 46.28125 60.3125 46.714844 59.78125 C 47.5 58.808594 47.738281 58 47.234375 58 C 47.089844 58 46.828125 58.394531 46.65625 58.875 M 51.515625 58.75 C 51.515625 59.300781 51.734375 60.085938 52 60.5 C 52.402344 61.121094 52.484375 61.078125 52.484375 60.25 C 52.484375 59.699219 52.265625 58.914062 52 58.5 C 51.597656 57.878906 51.515625 57.921875 51.515625 58.75 M 58.25 59 C 57.476562 59.332031 57.730469 59.4375 59.375 59.464844 C 60.542969 59.484375 61.5 59.273438 61.5 59 C 61.5 58.402344 59.644531 58.402344 58.25 59 M 49.042969 62.75 C 49.09375 63.695312 49.929688 65.292969 49.957031 64.5 C 49.972656 64.085938 49.765625 63.414062 49.5 63 C 49.234375 62.585938 49.027344 62.476562 49.042969 62.75 M 55.890625 63.117188 C 56.734375 63.523438 57.183594 63.515625 57.617188 63.082031 C 58.0625 62.640625 57.789062 62.507812 56.476562 62.535156 C 54.855469 62.566406 54.820312 62.601562 55.890625 63.117188 M 44 66 C 44 66.273438 44.238281 66.5 44.53125 66.5 C 44.820312 66.5 44.921875 66.273438 44.75 66 C 44.578125 65.726562 44.34375 65.5 44.21875 65.5 C 44.097656 65.5 44 65.726562 44 66 M 51.5 67 L 49.75 67.367188 L 51.625 67.433594 C 52.65625 67.46875 53.5 67.273438 53.5 67 C 53.5 66.726562 53.445312 66.53125 53.375 66.566406 C 53.304688 66.601562 52.460938 66.796875 51.5 67 M 47.292969 75.320312 C 46.816406 76.5625 47.339844 76.734375 47.976562 75.542969 C 48.285156 74.96875 48.328125 74.5 48.070312 74.5 C 47.816406 74.5 47.464844 74.871094 47.292969 75.320312 M 43.929688 76.015625 C 44.578125 76.558594 45.367188 76.992188 45.679688 76.984375 C 45.992188 76.972656 45.71875 76.523438 45.070312 75.984375 C 44.421875 75.441406 43.632812 75.007812 43.320312 75.015625 C 43.007812 75.027344 43.28125 75.476562 43.929688 76.015625 "/>
</g>
</svg>
