<?xml version="1.0" encoding="UTF-8"?>
<svg xmlns="http://www.w3.org/2000/svg" xmlns:xlink="http://www.w3.org/1999/xlink" width="24px" height="24px" viewBox="0 0 24 24" version="1.1">
<g id="surface1">
<path style=" stroke:none;fill-rule:evenodd;fill:rgb(0%,0%,0%);fill-opacity:1;" d="M 9.238281 3.523438 C 9.238281 3.746094 9.320312 4.160156 9.421875 4.441406 C 9.683594 5.1875 9.664062 5.339844 9.332031 5.105469 C 9.070312 4.921875 8.519531 4.847656 8.519531 4.996094 C 8.519531 5.253906 9.097656 5.925781 9.492188 6.125 C 10.101562 6.4375 10.085938 6.589844 9.449219 6.5625 C 8.722656 6.53125 8.757812 6.84375 9.507812 7.070312 C 9.863281 7.175781 10.105469 7.328125 10.148438 7.46875 C 10.25 7.785156 10.175781 7.820312 9.746094 7.671875 C 9.542969 7.601562 9.226562 7.558594 9.039062 7.582031 L 8.699219 7.621094 L 8.949219 7.871094 C 9.089844 8.007812 9.453125 8.195312 9.761719 8.289062 C 10.253906 8.433594 10.320312 8.492188 10.320312 8.789062 C 10.320312 9.085938 10.292969 9.113281 10.089844 9.003906 C 9.804688 8.851562 9.039062 8.839844 8.949219 8.984375 C 8.828125 9.183594 9.351562 9.507812 9.894531 9.570312 C 10.40625 9.628906 10.441406 9.652344 10.441406 9.988281 C 10.441406 10.28125 10.402344 10.328125 10.230469 10.257812 C 9.863281 10.097656 9.359375 10.046875 9.359375 10.167969 C 9.359375 10.355469 9.789062 10.6875 10.15625 10.785156 C 10.414062 10.855469 10.507812 10.957031 10.539062 11.214844 C 10.578125 11.550781 10.578125 11.550781 10.03125 11.46875 C 9.582031 11.402344 9.480469 11.417969 9.480469 11.570312 C 9.480469 11.8125 9.917969 12.035156 10.265625 11.96875 C 10.46875 11.929688 10.558594 11.980469 10.609375 12.167969 C 10.71875 12.570312 10.691406 12.640625 10.496094 12.476562 C 10.359375 12.363281 10.273438 12.359375 10.175781 12.453125 C 10.042969 12.585938 10.261719 13.035156 10.640625 13.417969 C 10.730469 13.503906 10.800781 13.722656 10.796875 13.898438 L 10.796875 14.21875 L 10.488281 13.828125 C 10.160156 13.410156 9.960938 13.414062 9.960938 13.835938 C 9.960938 14.195312 10.394531 14.878906 10.617188 14.878906 C 10.742188 14.878906 10.800781 15 10.800781 15.265625 C 10.800781 15.5625 10.769531 15.617188 10.65625 15.503906 C 10.578125 15.425781 10.441406 15.359375 10.355469 15.359375 C 10.09375 15.359375 10.179688 15.691406 10.558594 16.121094 C 10.878906 16.484375 10.921875 16.621094 10.921875 17.277344 C 10.921875 17.941406 10.898438 18.015625 10.710938 17.9375 C 9.921875 17.613281 9.84375 17.902344 10.558594 18.511719 C 11.023438 18.910156 11.039062 18.949219 11.039062 19.660156 C 11.039062 20.105469 11.089844 20.398438 11.167969 20.398438 C 11.25 20.398438 11.285156 20.097656 11.269531 19.578125 C 11.246094 18.886719 11.28125 18.71875 11.488281 18.511719 C 11.738281 18.261719 11.960938 17.5625 11.832031 17.429688 C 11.792969 17.390625 11.625 17.484375 11.460938 17.640625 C 11.175781 17.90625 11.160156 17.910156 11.160156 17.683594 C 11.160156 17.554688 11.308594 17.214844 11.488281 16.929688 C 11.804688 16.4375 11.847656 16.414062 12.445312 16.394531 C 13.433594 16.363281 13.679688 15.839844 12.710938 15.839844 L 12.234375 15.839844 L 12.429688 15.542969 C 12.609375 15.265625 12.671875 15.25 13.316406 15.320312 C 14.058594 15.394531 14.304688 15.257812 14.027344 14.925781 C 13.921875 14.796875 13.761719 14.761719 13.515625 14.808594 C 13.171875 14.878906 13.167969 14.875 13.367188 14.652344 C 13.527344 14.476562 13.679688 14.4375 14.054688 14.488281 C 14.5625 14.558594 15.121094 14.347656 15.121094 14.09375 C 15.121094 13.921875 14.855469 13.800781 14.480469 13.796875 C 14.222656 13.792969 14.222656 13.789062 14.457031 13.613281 C 14.605469 13.5 14.816406 13.460938 15.023438 13.503906 C 15.710938 13.65625 16.199219 13.175781 15.527344 13.007812 C 15.101562 12.898438 15.390625 12.722656 15.996094 12.722656 C 16.484375 12.71875 16.921875 12.546875 16.921875 12.355469 C 16.921875 12.292969 16.722656 12.238281 16.480469 12.238281 C 16.050781 12.238281 16.046875 12.234375 16.261719 12 C 16.402344 11.84375 16.628906 11.761719 16.921875 11.761719 C 17.195312 11.761719 17.4375 11.675781 17.5625 11.539062 C 17.855469 11.21875 17.804688 11.121094 17.390625 11.203125 L 17.023438 11.277344 L 17.28125 10.855469 C 17.5625 10.398438 17.527344 9.941406 17.230469 10.191406 C 17.140625 10.265625 17 10.488281 16.917969 10.683594 C 16.738281 11.117188 16.558594 11.148438 16.558594 10.746094 C 16.558594 10.585938 16.511719 10.425781 16.453125 10.386719 C 16.316406 10.304688 16.203125 10.730469 16.203125 11.351562 C 16.199219 11.6875 16.125 11.910156 15.960938 12.058594 C 15.726562 12.273438 15.71875 12.269531 15.71875 11.964844 C 15.71875 11.53125 15.503906 11.011719 15.359375 11.101562 C 15.292969 11.140625 15.238281 11.511719 15.238281 11.929688 C 15.238281 12.550781 15.195312 12.722656 14.980469 12.910156 C 14.757812 13.105469 14.730469 13.109375 14.792969 12.9375 C 14.894531 12.652344 14.65625 11.855469 14.480469 11.914062 C 14.394531 11.945312 14.339844 12.242188 14.335938 12.699219 C 14.332031 13.511719 14.121094 13.929688 14.003906 13.359375 C 13.964844 13.171875 13.851562 12.910156 13.75 12.78125 C 13.464844 12.410156 13.320312 12.753906 13.402344 13.628906 C 13.464844 14.304688 13.449219 14.378906 13.1875 14.566406 C 12.902344 14.761719 12.898438 14.761719 12.808594 14.335938 C 12.691406 13.773438 12.496094 13.414062 12.355469 13.503906 C 12.199219 13.597656 12.210938 14.277344 12.375 14.75 C 12.570312 15.308594 12.328125 15.515625 12.066406 15.015625 C 11.960938 14.808594 11.820312 14.640625 11.757812 14.640625 C 11.601562 14.640625 11.609375 15.113281 11.765625 15.566406 C 11.878906 15.882812 11.847656 16.003906 11.539062 16.484375 C 11.21875 16.996094 11.183594 17.019531 11.117188 16.769531 C 11.074219 16.621094 11.042969 16.117188 11.042969 15.648438 C 11.039062 14.949219 11.082031 14.757812 11.277344 14.582031 C 11.527344 14.355469 11.730469 13.609375 11.582031 13.464844 C 11.535156 13.417969 11.367188 13.542969 11.210938 13.738281 L 10.921875 14.101562 L 10.921875 13.738281 C 10.917969 13.074219 11.179688 12.863281 11.992188 12.871094 C 12.722656 12.878906 13.078125 12.722656 13.078125 12.394531 C 13.078125 12.257812 12.949219 12.226562 12.480469 12.257812 C 12.148438 12.28125 11.878906 12.257812 11.878906 12.210938 C 11.878906 12.011719 12.378906 11.640625 12.640625 11.640625 C 12.953125 11.640625 13.691406 11.1875 13.769531 10.949219 C 13.839844 10.742188 13.339844 10.757812 12.917969 10.980469 C 12.574219 11.160156 12.574219 11.160156 12.746094 10.890625 C 12.84375 10.742188 13 10.496094 13.089844 10.347656 C 13.1875 10.1875 13.460938 10.023438 13.738281 9.953125 C 14.492188 9.761719 14.761719 9.621094 14.761719 9.410156 C 14.761719 9.257812 14.671875 9.226562 14.371094 9.269531 C 14.15625 9.296875 13.871094 9.371094 13.738281 9.425781 C 13.511719 9.523438 13.507812 9.515625 13.6875 9.242188 C 13.796875 9.078125 14.144531 8.867188 14.515625 8.742188 C 15.230469 8.496094 15.480469 8.328125 15.480469 8.085938 C 15.480469 7.859375 15.253906 7.878906 14.726562 8.148438 C 14.445312 8.289062 14.28125 8.324219 14.285156 8.238281 C 14.289062 7.992188 14.570312 7.71875 15.085938 7.457031 C 15.777344 7.105469 16.105469 6.519531 15.558594 6.625 C 15.289062 6.675781 15.277344 6.652344 15.332031 6.160156 C 15.410156 5.457031 15.179688 5.476562 14.871094 6.199219 L 14.632812 6.761719 L 14.421875 6.367188 C 14.304688 6.152344 14.15625 5.964844 14.09375 5.957031 C 13.890625 5.925781 13.898438 6.605469 14.109375 7.191406 C 14.300781 7.726562 14.300781 7.789062 14.117188 8.050781 C 13.953125 8.285156 13.921875 8.296875 13.921875 8.121094 C 13.921875 7.839844 13.585938 7.199219 13.4375 7.199219 C 13.261719 7.199219 13.296875 7.675781 13.515625 8.292969 C 13.699219 8.796875 13.699219 8.871094 13.527344 9.117188 C 13.339844 9.382812 13.339844 9.378906 13.234375 8.863281 C 13.171875 8.53125 13.070312 8.339844 12.957031 8.339844 C 12.714844 8.339844 12.667969 8.816406 12.835938 9.566406 C 12.957031 10.101562 12.949219 10.238281 12.789062 10.464844 L 12.601562 10.734375 L 12.601562 10.472656 C 12.601562 10.089844 12.347656 9.601562 12.148438 9.601562 C 12.015625 9.601562 11.984375 9.792969 12.003906 10.53125 C 12.015625 11.042969 12.019531 11.519531 12.011719 11.589844 C 12.003906 11.664062 11.773438 12.035156 11.5 12.421875 C 11.070312 13.023438 10.984375 13.089844 10.90625 12.890625 C 10.859375 12.765625 10.8125 12.484375 10.808594 12.273438 C 10.800781 11.960938 10.867188 11.851562 11.164062 11.699219 C 11.527344 11.511719 11.867188 10.988281 11.726562 10.84375 C 11.683594 10.804688 11.433594 10.945312 11.164062 11.15625 L 10.679688 11.539062 L 10.683594 11.140625 C 10.6875 10.8125 10.773438 10.679688 11.164062 10.410156 C 11.558594 10.140625 11.640625 10.015625 11.636719 9.691406 L 11.628906 9.300781 L 11.167969 9.808594 C 10.914062 10.089844 10.675781 10.320312 10.632812 10.320312 C 10.59375 10.320312 10.558594 10.132812 10.558594 9.90625 C 10.558594 9.621094 10.640625 9.4375 10.816406 9.3125 C 11.175781 9.0625 11.519531 8.511719 11.519531 8.191406 C 11.519531 7.789062 11.316406 7.863281 10.949219 8.394531 C 10.566406 8.949219 10.441406 8.996094 10.441406 8.578125 C 10.441406 8.414062 10.492188 8.28125 10.558594 8.28125 C 10.730469 8.28125 11.273438 7.378906 11.359375 6.957031 C 11.460938 6.449219 11.222656 6.503906 10.867188 7.070312 C 10.484375 7.675781 10.320312 7.773438 10.320312 7.398438 C 10.320312 7.238281 10.402344 7.074219 10.5 7.035156 C 10.796875 6.921875 11.160156 6.207031 11.160156 5.730469 C 11.160156 5.179688 11.0625 5.167969 10.703125 5.671875 C 10.554688 5.886719 10.351562 6.167969 10.257812 6.300781 C 10.09375 6.53125 10.085938 6.53125 10.082031 6.222656 C 10.082031 6.050781 10.269531 5.59375 10.5 5.210938 C 10.964844 4.441406 10.960938 4.449219 10.808594 4.210938 C 10.640625 3.945312 10.355469 4.144531 10.199219 4.640625 C 9.964844 5.371094 9.886719 5.335938 9.9375 4.53125 C 9.976562 3.898438 9.941406 3.726562 9.722656 3.449219 C 9.378906 3.011719 9.238281 3.035156 9.238281 3.523438 M 9.492188 3.78125 C 9.5 3.910156 9.546875 4.15625 9.601562 4.320312 C 9.695312 4.613281 9.695312 4.613281 9.707031 4.261719 C 9.710938 4.0625 9.664062 3.820312 9.601562 3.71875 C 9.503906 3.570312 9.484375 3.582031 9.492188 3.78125 M 10.445312 4.609375 C 10.265625 5.082031 10.300781 5.152344 10.515625 4.757812 C 10.617188 4.570312 10.667969 4.390625 10.632812 4.351562 C 10.597656 4.316406 10.511719 4.433594 10.445312 4.609375 M 8.964844 5.453125 C 9.082031 5.613281 9.304688 5.800781 9.453125 5.871094 C 9.703125 5.988281 9.714844 5.976562 9.601562 5.765625 C 9.472656 5.523438 9.019531 5.160156 8.847656 5.160156 C 8.792969 5.160156 8.847656 5.292969 8.964844 5.453125 M 10.582031 6.261719 C 10.292969 6.734375 10.265625 6.839844 10.4375 6.839844 C 10.585938 6.839844 10.949219 6.144531 10.890625 5.96875 C 10.867188 5.898438 10.726562 6.027344 10.582031 6.261719 M 14.171875 6.539062 C 14.179688 6.671875 14.226562 6.914062 14.28125 7.078125 C 14.375 7.375 14.375 7.371094 14.386719 7.019531 C 14.390625 6.820312 14.34375 6.578125 14.28125 6.480469 C 14.183594 6.332031 14.164062 6.34375 14.171875 6.539062 M 9.128906 6.761719 C 9.15625 6.785156 9.34375 6.84375 9.539062 6.886719 C 9.804688 6.945312 9.851562 6.933594 9.71875 6.84375 C 9.558594 6.734375 9.007812 6.660156 9.128906 6.761719 M 15.1875 7.023438 C 15.058594 7.121094 15.011719 7.199219 15.082031 7.199219 C 15.152344 7.199219 15.277344 7.117188 15.359375 7.019531 C 15.546875 6.792969 15.488281 6.796875 15.1875 7.023438 M 10.582031 7.707031 C 10.414062 7.875 10.398438 8.039062 10.546875 8.039062 C 10.65625 8.039062 10.839844 7.679688 10.765625 7.605469 C 10.742188 7.582031 10.660156 7.628906 10.582031 7.707031 M 9.464844 7.984375 C 9.6875 8.082031 9.929688 8.15625 10.003906 8.15625 C 10.242188 8.148438 9.550781 7.808594 9.300781 7.808594 C 9.132812 7.808594 9.183594 7.863281 9.464844 7.984375 M 14.761719 8.339844 C 14.59375 8.433594 14.515625 8.511719 14.585938 8.515625 C 14.65625 8.519531 14.820312 8.441406 14.945312 8.34375 C 15.242188 8.121094 15.148438 8.117188 14.761719 8.339844 M 11.074219 8.550781 C 10.839844 8.851562 10.757812 9.039062 10.902344 8.953125 C 11.042969 8.863281 11.328125 8.398438 11.238281 8.398438 C 11.210938 8.398438 11.136719 8.46875 11.074219 8.550781 M 12.988281 9 C 12.988281 9.230469 13.011719 9.324219 13.042969 9.210938 C 13.074219 9.09375 13.074219 8.90625 13.042969 8.789062 C 13.011719 8.675781 12.988281 8.769531 12.988281 9 M 9.359375 9.238281 C 9.460938 9.304688 9.703125 9.355469 9.898438 9.355469 C 10.175781 9.355469 10.21875 9.328125 10.078125 9.238281 C 9.980469 9.175781 9.738281 9.125 9.539062 9.125 C 9.265625 9.125 9.222656 9.152344 9.359375 9.238281 M 13.988281 9.589844 C 13.949219 9.648438 14.027344 9.667969 14.160156 9.636719 C 14.441406 9.5625 14.476562 9.480469 14.226562 9.480469 C 14.132812 9.480469 14.023438 9.527344 13.988281 9.589844 M 11.160156 10.019531 C 11.074219 10.121094 11.03125 10.234375 11.066406 10.265625 C 11.097656 10.296875 11.195312 10.242188 11.28125 10.140625 C 11.363281 10.039062 11.40625 9.925781 11.375 9.894531 C 11.339844 9.859375 11.246094 9.917969 11.160156 10.019531 M 12.167969 10.246094 C 12.132812 10.335938 12.15625 10.59375 12.222656 10.816406 L 12.339844 11.21875 L 12.347656 10.648438 C 12.359375 10.082031 12.289062 9.929688 12.167969 10.246094 M 9.839844 10.441406 C 9.9375 10.503906 10.101562 10.554688 10.199219 10.554688 C 10.359375 10.554688 10.359375 10.542969 10.199219 10.441406 C 10.101562 10.375 9.9375 10.324219 9.839844 10.324219 C 9.679688 10.324219 9.679688 10.335938 9.839844 10.441406 M 12.808594 11.230469 C 12.628906 11.328125 12.480469 11.429688 12.480469 11.457031 C 12.480469 11.53125 13.242188 11.265625 13.375 11.144531 C 13.5625 10.972656 13.171875 11.03125 12.808594 11.230469 M 16.859375 11.519531 C 16.644531 11.613281 16.65625 11.625 16.941406 11.632812 C 17.121094 11.636719 17.300781 11.585938 17.339844 11.519531 C 17.429688 11.375 17.195312 11.375 16.859375 11.519531 M 9.9375 11.722656 C 10.023438 11.757812 10.128906 11.753906 10.167969 11.710938 C 10.207031 11.671875 10.136719 11.644531 10.011719 11.648438 C 9.871094 11.65625 9.84375 11.683594 9.9375 11.722656 M 15.382812 11.941406 C 15.386719 12.136719 15.414062 12.203125 15.441406 12.085938 C 15.472656 11.972656 15.472656 11.808594 15.4375 11.726562 C 15.40625 11.644531 15.382812 11.742188 15.382812 11.941406 M 14.40625 12.726562 C 14.414062 13.113281 14.425781 13.125 14.546875 12.867188 C 14.644531 12.664062 14.644531 12.554688 14.539062 12.453125 C 14.433594 12.34375 14.402344 12.410156 14.40625 12.726562 M 11.820312 12.601562 C 11.730469 12.746094 12.320312 12.746094 12.660156 12.601562 C 12.847656 12.519531 12.789062 12.496094 12.398438 12.488281 C 12.121094 12.484375 11.859375 12.535156 11.820312 12.601562 M 15.871094 12.5625 C 15.988281 12.59375 16.152344 12.589844 16.230469 12.558594 C 16.3125 12.527344 16.21875 12.5 16.019531 12.503906 C 15.820312 12.503906 15.753906 12.53125 15.871094 12.5625 M 10.320312 12.765625 C 10.320312 12.789062 10.402344 12.878906 10.503906 12.960938 C 10.65625 13.089844 10.671875 13.082031 10.609375 12.917969 C 10.546875 12.75 10.320312 12.628906 10.320312 12.765625 M 13.648438 13.269531 C 13.601562 13.320312 13.558594 13.496094 13.558594 13.664062 C 13.558594 13.882812 13.597656 13.929688 13.691406 13.835938 C 13.761719 13.765625 13.800781 13.589844 13.78125 13.441406 C 13.757812 13.296875 13.699219 13.21875 13.648438 13.269531 M 15.089844 13.28125 C 15.171875 13.3125 15.308594 13.3125 15.390625 13.28125 C 15.472656 13.246094 15.40625 13.21875 15.238281 13.21875 C 15.074219 13.21875 15.007812 13.246094 15.089844 13.28125 M 10.078125 13.875 C 10.078125 14.03125 10.585938 14.761719 10.691406 14.761719 C 10.753906 14.761719 10.695312 14.542969 10.558594 14.28125 C 10.347656 13.867188 10.078125 13.640625 10.078125 13.875 M 11.199219 14.128906 C 11.15625 14.246094 11.101562 14.394531 11.074219 14.460938 C 11.042969 14.527344 11.105469 14.476562 11.210938 14.347656 C 11.398438 14.113281 11.457031 13.921875 11.335938 13.921875 C 11.300781 13.921875 11.238281 14.015625 11.199219 14.128906 M 12.363281 14.101562 C 12.363281 14.230469 12.417969 14.421875 12.480469 14.519531 C 12.578125 14.667969 12.597656 14.660156 12.597656 14.460938 C 12.597656 14.328125 12.542969 14.140625 12.480469 14.039062 C 12.382812 13.890625 12.363281 13.902344 12.363281 14.101562 M 13.980469 14.160156 C 13.792969 14.238281 13.855469 14.265625 14.25 14.273438 C 14.53125 14.277344 14.761719 14.226562 14.761719 14.160156 C 14.761719 14.015625 14.316406 14.015625 13.980469 14.160156 M 11.769531 15.058594 C 11.78125 15.289062 11.984375 15.671875 11.988281 15.480469 C 11.992188 15.382812 11.945312 15.21875 11.878906 15.121094 C 11.816406 15.019531 11.765625 14.992188 11.769531 15.058594 M 13.414062 15.148438 C 13.617188 15.246094 13.722656 15.242188 13.828125 15.140625 C 13.933594 15.035156 13.871094 15 13.554688 15.007812 C 13.164062 15.015625 13.15625 15.023438 13.414062 15.148438 M 10.558594 15.839844 C 10.558594 15.90625 10.617188 15.960938 10.6875 15.960938 C 10.757812 15.960938 10.78125 15.90625 10.738281 15.839844 C 10.699219 15.773438 10.640625 15.71875 10.613281 15.71875 C 10.582031 15.71875 10.558594 15.773438 10.558594 15.839844 M 12.359375 16.078125 L 11.941406 16.167969 L 12.390625 16.183594 C 12.636719 16.191406 12.839844 16.144531 12.839844 16.078125 C 12.839844 16.015625 12.828125 15.96875 12.808594 15.976562 C 12.792969 15.984375 12.589844 16.03125 12.359375 16.078125 M 11.351562 18.078125 C 11.234375 18.375 11.363281 18.414062 11.515625 18.128906 C 11.589844 17.992188 11.597656 17.878906 11.535156 17.878906 C 11.476562 17.878906 11.390625 17.96875 11.351562 18.078125 M 10.542969 18.242188 C 10.699219 18.375 10.886719 18.476562 10.964844 18.476562 C 11.039062 18.472656 10.972656 18.367188 10.816406 18.234375 C 10.660156 18.105469 10.472656 18 10.398438 18.003906 C 10.320312 18.007812 10.386719 18.113281 10.542969 18.242188 "/>
</g>
</svg>
