<?xml version="1.0" encoding="UTF-8"?>
<svg xmlns="http://www.w3.org/2000/svg" xmlns:xlink="http://www.w3.org/1999/xlink" width="24px" height="24px" viewBox="0 0 24 24" version="1.1">
<g id="surface1">
<path style=" stroke:none;fill-rule:evenodd;fill:rgb(0%,0%,0%);fill-opacity:1;" d="M 10.519531 1.867188 C 8.058594 2.28125 6.847656 2.738281 5.324219 3.820312 C 4.285156 4.554688 3.609375 5.515625 2.8125 7.363281 C 1.585938 10.222656 1.519531 12.390625 2.546875 15.960938 C 3.066406 17.753906 3.058594 17.652344 2.652344 18.164062 C 2.292969 18.617188 2.1875 18.953125 2.128906 19.800781 C 2.101562 20.183594 2.125 20.21875 2.398438 20.1875 C 3.671875 20.054688 4.523438 20.28125 5.925781 21.128906 C 6.851562 21.6875 7.410156 21.902344 8.558594 22.148438 C 9.601562 22.367188 10.097656 22.363281 10.921875 22.128906 C 11.28125 22.023438 11.714844 21.917969 11.878906 21.894531 C 12.046875 21.871094 12.585938 21.683594 13.078125 21.476562 L 13.980469 21.101562 L 17.28125 21.113281 C 20.328125 21.125 20.609375 21.105469 20.949219 20.898438 C 21.425781 20.601562 21.765625 19.894531 21.683594 19.371094 C 21.640625 19.121094 21.722656 18.679688 21.902344 18.15625 C 22.160156 17.414062 22.175781 17.257812 22.0625 16.5 C 21.996094 16.039062 21.863281 15.507812 21.769531 15.320312 C 21.546875 14.871094 21.558594 14.519531 21.839844 13.441406 C 22.199219 12.050781 22.265625 10.714844 21.996094 10.203125 C 21.613281 9.460938 20.847656 9.414062 20.1875 10.089844 C 19.738281 10.550781 19.238281 12.003906 19.136719 13.148438 C 19.011719 14.597656 19.191406 14.460938 17.402344 14.460938 C 16.101562 14.460938 15.839844 14.429688 15.867188 14.289062 C 15.886719 14.191406 16.078125 14.070312 16.292969 14.011719 C 16.800781 13.882812 17.640625 13.050781 17.640625 12.683594 C 17.640625 12.527344 17.476562 12.25 17.269531 12.050781 C 16.289062 11.121094 15.707031 8.921875 15.660156 5.941406 C 15.621094 3.699219 15.308594 2.953125 14.15625 2.371094 C 13.628906 2.105469 11.78125 1.632812 11.519531 1.695312 C 11.488281 1.703125 11.035156 1.78125 10.519531 1.867188 M 11.035156 2.503906 C 10.355469 2.941406 9.480469 3.910156 9.480469 4.226562 C 9.480469 4.464844 9.84375 4.28125 10.0625 3.929688 C 10.355469 3.457031 10.933594 2.902344 11.578125 2.476562 C 11.941406 2.234375 12 2.160156 11.8125 2.160156 C 11.675781 2.160156 11.328125 2.316406 11.035156 2.503906 M 9.773438 2.699219 C 9.335938 3.160156 8.460938 4.542969 8.550781 4.628906 C 8.691406 4.773438 8.988281 4.5 9.191406 4.042969 C 9.316406 3.765625 9.679688 3.257812 10.003906 2.910156 C 10.4375 2.449219 10.539062 2.28125 10.382812 2.28125 C 10.265625 2.28125 9.992188 2.46875 9.773438 2.699219 M 12.15625 2.632812 C 11.488281 2.9375 11.003906 3.304688 10.671875 3.761719 C 10.429688 4.097656 10.457031 4.082031 10.9375 3.644531 C 11.246094 3.363281 11.785156 3.042969 12.191406 2.894531 C 13.347656 2.472656 13.441406 2.417969 13.019531 2.410156 C 12.820312 2.40625 12.433594 2.507812 12.15625 2.632812 M 8.730469 3.148438 C 8.242188 3.765625 7.410156 5.167969 7.488281 5.246094 C 7.601562 5.363281 7.78125 5.144531 8.28125 4.292969 C 8.5625 3.8125 8.898438 3.246094 9.027344 3.03125 C 9.351562 2.488281 9.214844 2.542969 8.730469 3.148438 M 12.683594 3.078125 C 12.125 3.253906 11.59375 3.515625 11.363281 3.722656 C 10.757812 4.277344 11.289062 4.179688 12.226562 3.570312 C 12.960938 3.09375 13.0625 3.0625 13.828125 3.070312 C 14.671875 3.078125 14.785156 2.960938 14.039062 2.847656 C 13.769531 2.808594 13.28125 2.890625 12.683594 3.078125 M 6.015625 4.371094 C 5.152344 5.457031 3.824219 8.132812 3.847656 8.734375 C 3.855469 8.847656 3.953125 8.671875 4.070312 8.339844 C 4.449219 7.285156 5.230469 5.851562 6.058594 4.699219 C 6.5 4.085938 6.835938 3.554688 6.800781 3.519531 C 6.765625 3.488281 6.414062 3.871094 6.015625 4.371094 M 12.6875 3.757812 C 12.117188 4.101562 12.230469 4.269531 12.820312 3.953125 C 13.390625 3.648438 14.226562 3.652344 14.730469 3.957031 C 15.023438 4.136719 15.121094 4.15625 15.121094 4.03125 C 15.121094 3.460938 13.484375 3.273438 12.6875 3.757812 M 7.414062 4.230469 C 6.902344 5.003906 6.566406 5.644531 6.632812 5.714844 C 6.664062 5.742188 6.738281 5.695312 6.804688 5.613281 C 6.980469 5.382812 7.933594 3.601562 7.878906 3.601562 C 7.855469 3.601562 7.644531 3.882812 7.414062 4.230469 M 6.378906 4.828125 C 5.617188 5.832031 4.730469 7.507812 4.308594 8.730469 C 4.183594 9.097656 4.015625 9.875 3.9375 10.457031 C 3.816406 11.359375 3.828125 11.722656 4.007812 12.925781 C 4.296875 14.847656 4.742188 17.144531 4.910156 17.566406 C 5.148438 18.167969 5.152344 17.847656 4.917969 17.148438 C 4.792969 16.78125 4.632812 15.917969 4.566406 15.230469 C 4.496094 14.542969 4.363281 13.414062 4.265625 12.71875 C 3.949219 10.441406 4.476562 7.992188 5.546875 6.777344 C 5.796875 6.492188 6.085938 6.027344 6.1875 5.742188 C 6.363281 5.242188 6.582031 4.828125 7.019531 4.160156 C 7.433594 3.523438 7.113281 3.859375 6.378906 4.828125 M 13.230469 4.179688 C 13.019531 4.3125 13.851562 4.597656 14.164062 4.5 C 14.316406 4.449219 14.570312 4.519531 14.835938 4.671875 C 15.09375 4.824219 15.242188 4.863281 15.210938 4.773438 C 15.066406 4.328125 13.65625 3.90625 13.230469 4.179688 M 9.789062 4.632812 C 9.09375 4.800781 7.730469 5.429688 7.019531 5.914062 C 4.976562 7.300781 4.125 9.777344 4.605469 12.953125 C 4.847656 14.554688 5.257812 15.960938 5.484375 15.960938 C 5.59375 15.960938 5.632812 16.039062 5.585938 16.175781 C 5.5 16.453125 7.097656 18.722656 8.125 19.777344 C 8.910156 20.585938 9.28125 20.757812 10.335938 20.820312 C 10.644531 20.835938 10.945312 20.882812 11.011719 20.921875 C 11.457031 21.199219 13.75 20.28125 13.890625 19.769531 C 13.921875 19.65625 14.007812 19.558594 14.085938 19.554688 C 14.253906 19.550781 14.6875 18.96875 14.59375 18.875 C 14.554688 18.835938 13.941406 18.730469 13.230469 18.640625 C 11.039062 18.359375 10.648438 18.15625 10.082031 16.984375 C 9.820312 16.441406 9.671875 14.984375 9.84375 14.640625 C 9.894531 14.542969 10.09375 14.082031 10.285156 13.621094 C 10.488281 13.136719 10.710938 12.78125 10.808594 12.78125 C 10.902344 12.78125 11.101562 13.039062 11.253906 13.355469 C 11.585938 14.050781 11.980469 14.304688 13.1875 14.621094 C 14.507812 14.960938 14.878906 15.015625 14.878906 14.863281 C 14.878906 14.773438 14.933594 14.773438 15.050781 14.871094 C 15.292969 15.074219 15.5 14.65625 15.402344 14.167969 C 15.335938 13.832031 15.355469 13.800781 15.644531 13.800781 C 15.816406 13.800781 15.960938 13.746094 15.960938 13.679688 C 15.960938 13.613281 16.074219 13.558594 16.210938 13.558594 C 16.574219 13.558594 17.160156 13.105469 17.160156 12.824219 C 17.160156 12.691406 16.972656 12.339844 16.742188 12.035156 C 16.507812 11.734375 16.207031 11.167969 16.0625 10.78125 C 15.921875 10.394531 15.789062 10.078125 15.765625 10.078125 C 15.746094 10.078125 15.484375 10.253906 15.183594 10.460938 C 14.191406 11.164062 12.566406 11 11.742188 10.117188 L 11.460938 9.816406 L 11.929688 9.40625 C 12.230469 9.148438 12.710938 8.90625 13.238281 8.75 C 14.046875 8.507812 14.105469 8.507812 14.789062 8.699219 C 15.179688 8.808594 15.527344 8.871094 15.558594 8.839844 C 15.589844 8.808594 15.578125 8.585938 15.53125 8.34375 C 15.457031 7.941406 15.375 7.863281 14.65625 7.515625 C 14.210938 7.300781 13.859375 7.054688 13.859375 6.957031 C 13.859375 6.722656 14.335938 6.789062 14.863281 7.09375 C 15.089844 7.222656 15.296875 7.300781 15.332031 7.269531 C 15.464844 7.136719 15.078125 6.121094 14.738281 5.710938 C 13.839844 4.625 11.730469 4.164062 9.789062 4.632812 M 14.8125 5.265625 C 15.007812 5.472656 15.21875 5.640625 15.28125 5.640625 C 15.4375 5.640625 15.003906 5.167969 14.703125 5.011719 C 14.527344 4.925781 14.5625 4.996094 14.8125 5.265625 M 3.863281 7.105469 C 3.046875 8.773438 2.808594 9.957031 2.847656 12.15625 C 2.875 13.632812 2.929688 14.019531 3.375 15.8125 C 3.648438 16.917969 3.890625 17.84375 3.917969 17.871094 C 4.054688 18.027344 4.082031 17.714844 3.964844 17.351562 C 3.886719 17.117188 3.691406 16.347656 3.535156 15.644531 C 2.714844 12.019531 2.855469 9.832031 4.085938 7.027344 C 4.34375 6.4375 4.535156 5.9375 4.511719 5.910156 C 4.488281 5.886719 4.195312 6.421875 3.863281 7.105469 M 7.035156 7.664062 C 6.496094 8.050781 6.296875 8.347656 6.488281 8.464844 C 6.558594 8.507812 6.773438 8.398438 6.964844 8.214844 C 7.21875 7.972656 7.46875 7.871094 7.921875 7.828125 C 8.402344 7.78125 8.523438 7.726562 8.496094 7.574219 C 8.429688 7.226562 7.574219 7.28125 7.035156 7.664062 M 3.664062 9.253906 C 3.335938 10.613281 3.269531 11.367188 3.375 12.582031 C 3.546875 14.589844 4.238281 17.753906 4.527344 17.847656 C 4.621094 17.882812 4.597656 17.65625 4.449219 17.136719 C 4.332031 16.722656 4.140625 15.8125 4.027344 15.121094 C 3.914062 14.425781 3.769531 13.601562 3.710938 13.285156 C 3.570312 12.542969 3.574219 10.164062 3.714844 9.542969 C 3.777344 9.28125 3.804688 9.046875 3.777344 9.019531 C 3.753906 8.992188 3.699219 9.097656 3.664062 9.253906 M 10.035156 9.308594 C 9.839844 9.480469 9.582031 9.597656 9.4375 9.574219 C 9.296875 9.554688 9.125 9.605469 9.058594 9.683594 C 8.917969 9.859375 8.15625 9.910156 7.53125 9.78125 C 7.167969 9.710938 7.078125 9.730469 7.078125 9.878906 C 7.078125 10.371094 8.90625 10.4375 9.8125 9.972656 C 10.351562 9.699219 10.734375 9.300781 10.625 9.128906 C 10.511719 8.945312 10.421875 8.972656 10.035156 9.308594 M 5.945312 9.230469 C 5.90625 9.292969 5.929688 9.378906 6 9.417969 C 6.066406 9.460938 6.121094 9.410156 6.121094 9.308594 C 6.121094 9.097656 6.046875 9.066406 5.945312 9.230469 M 15.066406 9.582031 C 14.933594 10 14.304688 10.441406 13.839844 10.441406 C 13.425781 10.441406 12.835938 10.011719 12.703125 9.613281 C 12.660156 9.476562 12.597656 9.472656 12.375 9.589844 C 12.226562 9.671875 12.125 9.800781 12.148438 9.878906 C 12.226562 10.128906 13.234375 10.558594 13.734375 10.558594 C 14.546875 10.554688 15.613281 9.804688 15.277344 9.472656 C 15.179688 9.371094 15.125 9.398438 15.066406 9.582031 M 20.4375 10.351562 C 19.933594 10.882812 19.679688 11.746094 19.519531 13.476562 L 19.378906 14.941406 L 19 14.976562 C 18.789062 14.996094 18.546875 15.097656 18.460938 15.203125 C 18.316406 15.375 18.390625 15.386719 19.214844 15.308594 C 20.019531 15.234375 20.136719 15.246094 20.207031 15.429688 C 20.25 15.546875 20.246094 15.679688 20.195312 15.730469 C 20.035156 15.886719 18.34375 15.882812 17.585938 15.722656 C 16.902344 15.578125 16.863281 15.585938 16.65625 15.839844 C 16.367188 16.199219 16.378906 16.859375 16.679688 17.160156 C 16.878906 17.359375 17.09375 17.402344 17.910156 17.417969 C 20 17.449219 20.15625 17.476562 19.980469 17.757812 C 19.894531 17.898438 16.933594 17.855469 16.695312 17.710938 C 16.535156 17.609375 16.199219 18.105469 16.199219 18.445312 C 16.199219 18.933594 16.683594 19.113281 18.210938 19.191406 C 19.164062 19.238281 19.617188 19.308594 19.648438 19.410156 C 19.6875 19.523438 19.332031 19.558594 18.128906 19.558594 L 16.558594 19.558594 L 16.558594 19.855469 C 16.558594 20.351562 17.128906 20.554688 18.78125 20.640625 C 20.5 20.730469 20.898438 20.621094 21.203125 19.984375 C 21.355469 19.660156 21.378906 19.480469 21.285156 19.230469 C 21.1875 18.960938 21.230469 18.761719 21.519531 18.136719 C 21.851562 17.421875 21.867188 17.339844 21.726562 16.816406 C 21.648438 16.511719 21.550781 16.082031 21.515625 15.867188 C 21.480469 15.652344 21.40625 15.449219 21.347656 15.410156 C 21.167969 15.300781 21.230469 14.390625 21.484375 13.441406 C 21.839844 12.101562 21.929688 10.652344 21.675781 10.265625 C 21.386719 9.824219 20.902344 9.859375 20.4375 10.351562 M 2.414062 12.96875 C 2.421875 13.394531 2.46875 13.902344 2.519531 14.101562 C 2.566406 14.296875 2.582031 13.972656 2.546875 13.378906 C 2.476562 12.113281 2.394531 11.859375 2.414062 12.96875 M 10.925781 14.699219 C 10.925781 15.210938 11.324219 16.023438 11.78125 16.441406 C 12.15625 16.785156 12.601562 16.917969 12.601562 16.691406 C 12.601562 16.628906 12.628906 16.5 12.667969 16.402344 C 12.714844 16.28125 12.578125 16.132812 12.25 15.949219 C 11.8125 15.707031 11.429688 15.265625 11.058594 14.578125 C 10.9375 14.363281 10.925781 14.375 10.925781 14.699219 M 11.515625 14.632812 C 11.589844 14.769531 11.699219 14.878906 11.765625 14.878906 C 11.96875 14.878906 11.886719 14.652344 11.632812 14.515625 C 11.402344 14.394531 11.394531 14.402344 11.515625 14.632812 M 2.640625 14.589844 C 2.640625 14.652344 2.804688 15.347656 3 16.140625 C 3.195312 16.933594 3.359375 17.59375 3.359375 17.609375 C 3.359375 17.625 3.414062 17.640625 3.484375 17.640625 C 3.566406 17.640625 3.570312 17.566406 3.492188 17.421875 C 3.425781 17.300781 3.238281 16.621094 3.074219 15.910156 C 2.816406 14.777344 2.636719 14.242188 2.640625 14.589844 M 10.398438 14.71875 C 10.273438 14.847656 10.308594 15.480469 10.441406 15.480469 C 10.507812 15.480469 10.558594 15.289062 10.558594 15.058594 C 10.558594 14.628906 10.539062 14.582031 10.398438 14.71875 M 15.675781 15.148438 C 15.644531 15.363281 15.558594 16.121094 15.484375 16.828125 C 15.410156 17.535156 15.269531 18.347656 15.167969 18.628906 C 14.925781 19.296875 14.894531 20.1875 15.105469 20.441406 C 15.222656 20.582031 15.460938 20.640625 15.921875 20.640625 L 16.578125 20.640625 L 16.335938 20.332031 C 16.140625 20.085938 16.117188 19.960938 16.210938 19.714844 C 16.304688 19.464844 16.28125 19.355469 16.082031 19.144531 C 15.800781 18.84375 15.769531 18.316406 16.011719 17.855469 C 16.125 17.636719 16.160156 17.3125 16.113281 16.828125 C 16.066406 16.3125 16.101562 16.023438 16.246094 15.742188 C 16.457031 15.34375 16.644531 15.261719 17.519531 15.210938 C 17.921875 15.1875 18.066406 15.125 18.097656 14.96875 C 18.132812 14.78125 18.015625 14.761719 16.933594 14.761719 L 15.730469 14.761719 L 15.675781 15.148438 M 12.136719 15.15625 C 11.941406 15.394531 12.414062 15.835938 12.628906 15.617188 C 12.734375 15.515625 12.738281 15.417969 12.648438 15.273438 C 12.476562 15 12.300781 14.960938 12.136719 15.15625 M 13 15.542969 C 12.910156 15.78125 13.234375 16.078125 13.582031 16.078125 C 13.734375 16.078125 13.800781 15.988281 13.800781 15.78125 C 13.800781 15.601562 13.730469 15.480469 13.628906 15.480469 C 13.535156 15.480469 13.375 15.449219 13.269531 15.40625 C 13.152344 15.363281 13.050781 15.414062 13 15.542969 M 14.160156 15.898438 C 14.160156 16.160156 14.214844 16.199219 14.554688 16.199219 C 14.96875 16.199219 15.238281 16.023438 15.238281 15.757812 C 15.238281 15.652344 15.0625 15.601562 14.699219 15.601562 C 14.203125 15.601562 14.160156 15.625 14.160156 15.898438 M 10.480469 16.027344 C 10.398438 16.238281 10.617188 16.800781 10.78125 16.800781 C 10.84375 16.800781 10.953125 16.722656 11.035156 16.628906 C 11.144531 16.492188 11.132812 16.390625 10.972656 16.148438 C 10.742188 15.796875 10.585938 15.757812 10.480469 16.027344 M 5.054688 16.320312 C 5.058594 16.417969 5.105469 16.636719 5.160156 16.800781 L 5.257812 17.101562 L 5.265625 16.800781 C 5.273438 16.636719 5.222656 16.417969 5.160156 16.320312 C 5.054688 16.160156 5.042969 16.160156 5.054688 16.320312 M 13.078125 16.625 C 12.996094 16.71875 12.960938 16.871094 12.996094 16.960938 C 13.074219 17.164062 14.027344 17.304688 14.660156 17.203125 C 15.074219 17.136719 15.128906 17.089844 15.097656 16.839844 C 15.0625 16.566406 15.003906 16.546875 14.140625 16.5 C 13.4375 16.460938 13.1875 16.492188 13.078125 16.625 M 11.25 16.96875 C 10.941406 17.199219 10.988281 17.332031 11.457031 17.554688 C 11.855469 17.746094 11.878906 17.742188 12 17.523438 C 12.097656 17.339844 12.066406 17.242188 11.859375 17.046875 C 11.550781 16.757812 11.527344 16.757812 11.25 16.96875 M 12.402344 17.578125 C 12.308594 17.828125 12.539062 17.996094 12.988281 18 C 13.242188 18 13.320312 17.941406 13.320312 17.761719 C 13.320312 17.601562 13.238281 17.519531 13.089844 17.519531 C 12.964844 17.519531 12.773438 17.488281 12.671875 17.449219 C 12.554688 17.402344 12.453125 17.453125 12.402344 17.578125 M 13.738281 17.761719 C 13.59375 17.996094 13.824219 18.121094 14.40625 18.121094 C 14.921875 18.121094 15 18.085938 15 17.878906 C 15 17.671875 14.921875 17.640625 14.40625 17.640625 C 14.082031 17.640625 13.78125 17.695312 13.738281 17.761719 M 2.96875 18.328125 C 2.773438 18.542969 2.398438 19.332031 2.398438 19.53125 C 2.398438 19.582031 2.863281 19.691406 3.425781 19.765625 C 4.265625 19.882812 4.640625 20.007812 5.496094 20.46875 C 7.210938 21.398438 7.429688 21.492188 8.324219 21.683594 C 9.457031 21.925781 10.257812 21.917969 11.023438 21.664062 C 11.371094 21.550781 11.636719 21.4375 11.617188 21.417969 C 11.597656 21.398438 11.109375 21.328125 10.535156 21.257812 C 9.101562 21.082031 8.414062 20.765625 7.726562 19.957031 C 6.804688 18.878906 6.171875 18.558594 4.558594 18.359375 C 4.066406 18.296875 3.550781 18.214844 3.414062 18.175781 C 3.261719 18.132812 3.097656 18.1875 2.96875 18.328125 M 13.800781 20.414062 C 13.503906 20.683594 13.359375 20.871094 13.480469 20.832031 C 13.601562 20.792969 13.914062 20.726562 14.171875 20.683594 C 14.632812 20.609375 14.714844 20.492188 14.566406 20.109375 C 14.464844 19.84375 14.40625 19.867188 13.800781 20.414062 "/>
</g>
</svg>
