<?xml version="1.0" encoding="UTF-8"?>
<svg xmlns="http://www.w3.org/2000/svg" xmlns:xlink="http://www.w3.org/1999/xlink" width="100px" height="100px" viewBox="0 0 100 100" version="1.1">
<g id="surface1">
<path style=" stroke:none;fill-rule:evenodd;fill:rgb(0%,0%,0%);fill-opacity:1;" d="M 35 13.808594 C 23.542969 15.066406 14.640625 19.875 8.265625 28.25 C 5.078125 32.441406 3.492188 35.507812 1.929688 40.511719 C 0.246094 45.898438 0.246094 55.597656 1.925781 60.984375 C 5.921875 73.753906 15.699219 83.21875 28.355469 86.558594 C 33.3125 87.867188 51.015625 88.492188 55.65625 87.523438 C 60.941406 86.417969 64.246094 82.222656 63.886719 77.0625 C 63.777344 75.515625 63.519531 73.882812 63.316406 73.4375 C 63.03125 72.820312 63.277344 72.539062 64.34375 72.273438 C 69.410156 71.007812 72.617188 64.113281 70.507812 59.023438 C 69.890625 57.53125 69.917969 57.335938 70.789062 56.859375 C 74.695312 54.722656 77.035156 48.789062 75.53125 44.832031 L 75.0625 43.597656 L 83.65625 43.425781 C 92.003906 43.253906 92.316406 43.210938 94.613281 41.863281 C 97.179688 40.351562 99.179688 37.449219 99.699219 34.476562 C 100.394531 30.480469 97.203125 24.984375 93.34375 23.53125 C 92.46875 23.203125 86.433594 23 77.46875 23 C 69 23 63 22.808594 63 22.539062 C 63 21.390625 57.847656 16.582031 55.167969 15.234375 C 52.339844 13.808594 52.015625 13.761719 44.5 13.691406 C 40.238281 13.652344 35.960938 13.703125 35 13.808594 M 29.679688 20.492188 C 19.054688 23.277344 10.847656 31.136719 7.488281 41.75 C 5.789062 47.105469 5.882812 54.894531 7.710938 60.246094 C 11.066406 70.082031 18.351562 77.390625 28 80.609375 C 30.890625 81.574219 32.585938 81.714844 43.375 81.886719 L 55.5 82.078125 L 57 80.578125 C 59.003906 78.570312 59.019531 76.441406 57.039062 74.460938 C 55.824219 73.246094 55.164062 73 53.148438 73 C 50.296875 73 48.5 71.941406 48.5 70.257812 C 48.5 67.929688 49.601562 67.5 55.550781 67.5 C 61.453125 67.5 64.015625 66.839844 64.960938 65.074219 C 65.851562 63.40625 65.585938 61.15625 64.316406 59.679688 C 63.230469 58.414062 62.765625 58.28125 58.546875 58.027344 C 53.75 57.738281 53.023438 57.367188 53.007812 55.203125 C 52.992188 52.988281 54.382812 52.5 60.6875 52.5 C 67.265625 52.5 68.980469 51.964844 69.957031 49.601562 C 70.734375 47.730469 70.214844 45.742188 68.625 44.492188 C 67.527344 43.628906 66.59375 43.5 61.410156 43.5 C 55.753906 43.5 55.394531 43.4375 54.226562 42.273438 C 52.734375 40.78125 52.71875 40.492188 54.035156 38.816406 L 55.074219 37.5 L 82.269531 37.5 L 83.925781 34.484375 C 85.894531 30.902344 87.445312 29.667969 88.953125 30.476562 C 90.828125 31.476562 91.132812 32.777344 90.015625 34.972656 C 88.738281 37.476562 88.738281 37.5 90.273438 37.5 C 92.25 37.5 94 35.417969 94 33.066406 C 94 31.472656 93.703125 30.839844 92.460938 29.792969 L 90.921875 28.5 L 69.003906 28.5 C 56.945312 28.5 46.707031 28.355469 46.253906 28.183594 C 44.878906 27.65625 44.351562 25.550781 45.246094 24.183594 C 45.976562 23.070312 46.316406 23 51.074219 23 C 55.609375 23 56.054688 22.921875 55.46875 22.214844 C 55.109375 21.78125 53.96875 20.992188 52.929688 20.464844 C 51.265625 19.617188 49.972656 19.503906 42.144531 19.527344 C 35.125 19.550781 32.496094 19.753906 29.679688 20.492188 M 85.75 46.078125 C 84.21875 46.914062 83.5 48.046875 83.5 49.617188 C 83.5 51.417969 85.511719 53.5 87.25 53.5 C 88.890625 53.5 91 51.425781 91 49.8125 C 91 47.90625 90.5 47.027344 88.964844 46.230469 C 87.296875 45.371094 87.066406 45.359375 85.75 46.078125 M 84.347656 58.601562 C 81.503906 61.589844 77.777344 67.476562 77.023438 70.167969 C 74.128906 80.503906 87.074219 87.960938 94.679688 80.34375 C 97.9375 77.082031 98.722656 73.414062 97.085938 69.101562 C 95.3125 64.433594 89.121094 56.5 87.25 56.5 C 86.753906 56.5 85.445312 57.445312 84.347656 58.601562 M 85.140625 66.84375 C 82.167969 71.445312 81.746094 72.683594 82.523438 74.558594 C 83.222656 76.242188 85.632812 77.996094 87.25 77.996094 C 89.027344 77.996094 91.367188 76.171875 91.984375 74.300781 C 92.519531 72.679688 92.433594 72.265625 91.03125 69.636719 C 90.183594 68.046875 88.957031 66.082031 88.304688 65.265625 L 87.121094 63.78125 L 85.140625 66.84375 "/>
</g>
</svg>
