<?xml version="1.0" encoding="UTF-8"?>
<svg xmlns="http://www.w3.org/2000/svg" xmlns:xlink="http://www.w3.org/1999/xlink" width="24px" height="24px" viewBox="0 0 24 24" version="1.1">
<g id="surface1">
<path style=" stroke:none;fill-rule:evenodd;fill:rgb(0%,0%,0%);fill-opacity:1;" d="M 8.398438 3.3125 C 5.648438 3.617188 3.515625 4.769531 1.984375 6.78125 C 1.21875 7.785156 0.839844 8.523438 0.464844 9.722656 C 0.0585938 11.015625 0.0585938 13.34375 0.460938 14.636719 C 1.421875 17.703125 3.769531 19.972656 6.804688 20.773438 C 7.996094 21.085938 12.246094 21.238281 13.355469 21.003906 C 14.625 20.742188 15.417969 19.734375 15.332031 18.496094 C 15.308594 18.125 15.246094 17.730469 15.195312 17.625 C 15.128906 17.476562 15.1875 17.410156 15.441406 17.34375 C 16.660156 17.042969 17.429688 15.386719 16.921875 14.164062 C 16.773438 13.808594 16.78125 13.761719 16.988281 13.644531 C 17.925781 13.132812 18.488281 11.710938 18.128906 10.757812 L 18.015625 10.464844 L 20.078125 10.421875 C 22.082031 10.382812 22.15625 10.371094 22.707031 10.046875 C 23.324219 9.683594 23.804688 8.988281 23.925781 8.273438 C 24.09375 7.316406 23.328125 5.996094 22.402344 5.648438 C 22.191406 5.570312 20.746094 5.519531 18.59375 5.519531 C 16.558594 5.519531 15.121094 5.472656 15.121094 5.410156 C 15.121094 5.132812 13.882812 3.980469 13.242188 3.65625 C 12.5625 3.3125 12.484375 3.300781 10.679688 3.285156 C 9.65625 3.277344 8.632812 3.289062 8.398438 3.3125 M 7.125 4.917969 C 4.574219 5.585938 2.605469 7.472656 1.796875 10.019531 C 1.390625 11.304688 1.414062 13.175781 1.851562 14.457031 C 2.65625 16.820312 4.402344 18.574219 6.71875 19.347656 C 7.414062 19.578125 7.820312 19.613281 10.410156 19.652344 L 13.320312 19.699219 L 13.679688 19.339844 C 14.160156 18.855469 14.164062 18.347656 13.6875 17.871094 C 13.398438 17.578125 13.238281 17.519531 12.757812 17.519531 C 12.070312 17.519531 11.640625 17.265625 11.640625 16.863281 C 11.640625 16.304688 11.90625 16.199219 13.332031 16.199219 C 14.75 16.199219 15.363281 16.042969 15.589844 15.617188 C 15.804688 15.21875 15.742188 14.675781 15.4375 14.324219 C 15.175781 14.019531 15.0625 13.988281 14.050781 13.925781 C 12.898438 13.855469 12.726562 13.769531 12.722656 13.25 C 12.71875 12.71875 13.050781 12.601562 14.566406 12.601562 C 16.144531 12.601562 16.554688 12.472656 16.789062 11.902344 C 16.976562 11.457031 16.851562 10.976562 16.46875 10.679688 C 16.207031 10.472656 15.980469 10.441406 14.738281 10.441406 C 13.378906 10.441406 13.292969 10.425781 13.015625 10.144531 C 12.65625 9.789062 12.652344 9.71875 12.96875 9.316406 L 13.21875 9 L 19.746094 9 L 20.144531 8.277344 C 20.613281 7.417969 20.988281 7.121094 21.347656 7.3125 C 21.800781 7.554688 21.871094 7.867188 21.601562 8.394531 C 21.296875 8.992188 21.296875 9 21.664062 9 C 22.140625 9 22.558594 8.5 22.558594 7.9375 C 22.558594 7.554688 22.488281 7.402344 22.191406 7.152344 L 21.820312 6.839844 L 16.5625 6.839844 C 13.667969 6.839844 11.210938 6.804688 11.101562 6.765625 C 10.769531 6.636719 10.644531 6.132812 10.859375 5.804688 C 11.035156 5.535156 11.117188 5.519531 12.257812 5.519531 C 13.347656 5.519531 13.453125 5.5 13.3125 5.332031 C 13.226562 5.226562 12.953125 5.039062 12.703125 4.910156 C 12.304688 4.707031 11.992188 4.679688 10.113281 4.6875 C 8.429688 4.691406 7.800781 4.742188 7.125 4.917969 M 20.578125 11.058594 C 20.214844 11.257812 20.039062 11.53125 20.039062 11.910156 C 20.039062 12.339844 20.523438 12.839844 20.941406 12.839844 C 21.332031 12.839844 21.839844 12.34375 21.839844 11.957031 C 21.839844 11.496094 21.71875 11.285156 21.351562 11.09375 C 20.953125 10.890625 20.894531 10.886719 20.578125 11.058594 M 20.242188 14.0625 C 19.5625 14.78125 18.667969 16.195312 18.484375 16.839844 C 17.792969 19.320312 20.898438 21.109375 22.722656 19.28125 C 23.503906 18.5 23.695312 17.621094 23.300781 16.585938 C 22.875 15.464844 21.390625 13.558594 20.941406 13.558594 C 20.820312 13.558594 20.507812 13.785156 20.242188 14.0625 M 20.433594 16.042969 C 19.71875 17.148438 19.621094 17.445312 19.804688 17.894531 C 19.972656 18.296875 20.550781 18.71875 20.941406 18.71875 C 21.367188 18.71875 21.929688 18.28125 22.074219 17.832031 C 22.203125 17.441406 22.183594 17.34375 21.847656 16.710938 C 21.644531 16.332031 21.351562 15.859375 21.191406 15.664062 L 20.910156 15.308594 L 20.433594 16.042969 "/>
</g>
</svg>
