<?xml version="1.0" encoding="UTF-8"?>
<svg xmlns="http://www.w3.org/2000/svg" xmlns:xlink="http://www.w3.org/1999/xlink" width="100px" height="100px" viewBox="0 0 100 100" version="1.1">
<g id="surface1">
<path style=" stroke:none;fill-rule:evenodd;fill:rgb(0%,0%,0%);fill-opacity:1;" d="M 43.824219 7.78125 C 33.574219 9.507812 28.527344 11.402344 22.179688 15.910156 C 17.863281 18.980469 15.03125 22.976562 11.726562 30.671875 C 6.605469 42.589844 6.324219 51.632812 10.613281 66.5 C 12.769531 73.972656 12.75 73.550781 11.050781 75.6875 C 9.558594 77.566406 9.109375 78.972656 8.867188 82.5 C 8.761719 84.09375 8.859375 84.238281 10 84.121094 C 15.292969 83.566406 18.847656 84.511719 24.683594 88.03125 C 28.546875 90.363281 30.875 91.265625 35.65625 92.277344 C 40 93.199219 42.082031 93.179688 45.5 92.195312 C 47.011719 91.761719 48.8125 91.324219 49.5 91.230469 C 50.1875 91.136719 52.4375 90.351562 54.5 89.488281 L 58.25 87.914062 L 72 87.96875 C 84.691406 88.015625 85.867188 87.945312 87.289062 87.070312 C 89.277344 85.84375 90.695312 82.894531 90.34375 80.71875 C 90.171875 79.667969 90.503906 77.839844 91.261719 75.65625 C 92.339844 72.558594 92.402344 71.914062 91.933594 68.746094 C 91.648438 66.824219 91.097656 64.613281 90.707031 63.835938 C 89.769531 61.960938 89.824219 60.492188 90.992188 56 C 92.496094 50.203125 92.773438 44.652344 91.65625 42.503906 C 90.050781 39.417969 86.871094 39.21875 84.117188 42.035156 C 82.238281 43.957031 80.160156 50.011719 79.742188 54.789062 C 79.214844 60.820312 79.96875 60.25 72.507812 60.25 C 67.097656 60.25 66 60.125 66.113281 59.53125 C 66.191406 59.136719 66.992188 58.621094 67.894531 58.386719 C 69.996094 57.84375 73.5 54.378906 73.5 52.84375 C 73.5 52.199219 72.8125 51.035156 71.953125 50.21875 C 67.863281 46.335938 65.449219 37.175781 65.246094 24.75 C 65.09375 15.414062 63.785156 12.3125 58.984375 9.886719 C 56.792969 8.777344 49.085938 6.796875 48 7.0625 C 47.863281 7.09375 45.984375 7.417969 43.824219 7.78125 M 45.972656 10.433594 C 43.144531 12.257812 39.5 16.296875 39.5 17.613281 C 39.5 18.609375 41.023438 17.832031 41.925781 16.375 C 43.144531 14.410156 45.554688 12.097656 48.242188 10.320312 C 49.761719 9.308594 49.992188 9 49.214844 9 C 48.652344 9 47.195312 9.644531 45.972656 10.433594 M 40.726562 11.242188 C 38.90625 13.171875 35.257812 18.925781 35.625 19.289062 C 36.21875 19.882812 37.460938 18.75 38.304688 16.84375 C 38.8125 15.691406 40.335938 13.570312 41.6875 12.125 C 43.492188 10.199219 43.910156 9.5 43.257812 9.5 C 42.769531 9.5 41.628906 10.285156 40.726562 11.242188 M 50.65625 10.972656 C 47.871094 12.238281 45.855469 13.769531 44.464844 15.679688 C 43.449219 17.070312 43.578125 17.015625 45.574219 15.191406 C 46.867188 14.015625 49.097656 12.675781 50.789062 12.058594 C 55.621094 10.296875 56.011719 10.070312 54.25 10.046875 C 53.425781 10.03125 51.808594 10.449219 50.65625 10.972656 M 36.375 13.125 C 34.335938 15.6875 30.871094 21.539062 31.199219 21.867188 C 31.671875 22.339844 32.421875 21.4375 34.503906 17.882812 C 35.675781 15.886719 37.070312 13.519531 37.609375 12.625 C 38.964844 10.363281 38.386719 10.597656 36.375 13.125 M 52.84375 12.828125 C 50.515625 13.5625 48.308594 14.644531 47.351562 15.515625 C 44.820312 17.816406 47.03125 17.421875 50.945312 14.875 C 54.007812 12.882812 54.425781 12.753906 57.621094 12.789062 C 61.128906 12.828125 61.597656 12.332031 58.496094 11.867188 C 57.371094 11.695312 55.34375 12.042969 52.84375 12.828125 M 25.058594 18.214844 C 21.460938 22.742188 15.929688 33.886719 16.035156 36.394531 C 16.054688 36.863281 16.476562 36.125 16.964844 34.75 C 18.535156 30.351562 21.792969 24.382812 25.238281 19.585938 C 27.082031 17.023438 28.476562 14.808594 28.335938 14.667969 C 28.195312 14.527344 26.722656 16.125 25.058594 18.214844 M 52.855469 15.652344 C 50.484375 17.085938 50.96875 17.789062 53.421875 16.472656 C 55.789062 15.203125 59.273438 15.210938 61.375 16.496094 C 62.601562 17.242188 63 17.316406 63 16.800781 C 63 14.414062 56.179688 13.640625 52.855469 15.652344 M 30.898438 17.628906 C 28.761719 20.839844 27.351562 23.519531 27.640625 23.808594 C 27.761719 23.925781 28.078125 23.738281 28.347656 23.386719 C 29.078125 22.429688 33.054688 15 32.832031 15 C 32.726562 15 31.855469 16.183594 30.898438 17.628906 M 26.582031 20.125 C 23.410156 24.304688 19.707031 31.285156 17.957031 36.375 C 17.429688 37.914062 16.730469 41.152344 16.410156 43.574219 C 15.910156 47.328125 15.953125 48.847656 16.707031 53.863281 C 17.90625 61.867188 19.761719 71.4375 20.457031 73.195312 C 21.445312 75.699219 21.46875 74.367188 20.484375 71.453125 C 19.96875 69.921875 19.308594 66.324219 19.023438 63.457031 C 18.738281 60.59375 18.175781 55.886719 17.773438 53 C 16.457031 43.503906 18.65625 33.300781 23.113281 28.242188 C 24.160156 27.050781 25.359375 25.109375 25.777344 23.925781 C 26.511719 21.839844 27.417969 20.113281 29.242188 17.332031 C 30.976562 14.683594 29.640625 16.085938 26.582031 20.125 M 55.128906 17.410156 C 54.253906 17.964844 57.722656 19.15625 59.019531 18.742188 C 59.644531 18.546875 60.714844 18.824219 61.8125 19.46875 C 62.890625 20.105469 63.507812 20.269531 63.382812 19.882812 C 62.773438 18.039062 56.90625 16.28125 55.128906 17.410156 M 40.796875 19.296875 C 37.894531 20 32.207031 22.628906 29.25 24.636719 C 20.734375 30.417969 17.195312 40.742188 19.1875 53.96875 C 20.195312 60.640625 21.910156 66.5 22.855469 66.5 C 23.3125 66.5 23.464844 66.820312 23.28125 67.398438 C 22.914062 68.554688 29.578125 78.011719 33.855469 82.40625 C 37.132812 85.773438 38.675781 86.496094 43.070312 86.746094 C 44.347656 86.816406 45.609375 87.007812 45.875 87.171875 C 47.734375 88.320312 57.296875 84.5 57.878906 82.375 C 58.007812 81.894531 58.371094 81.492188 58.683594 81.484375 C 59.390625 81.464844 61.203125 79.039062 60.808594 78.640625 C 60.648438 78.484375 58.097656 78.042969 55.132812 77.664062 C 45.988281 76.496094 44.371094 75.648438 42.007812 70.765625 C 40.914062 68.503906 40.300781 62.4375 41.023438 61.003906 C 41.230469 60.589844 42.058594 58.675781 42.863281 56.75 C 43.703125 54.730469 44.621094 53.25 45.035156 53.25 C 45.429688 53.25 46.265625 54.328125 46.894531 55.644531 C 48.277344 58.539062 49.914062 59.609375 54.949219 60.917969 C 60.449219 62.34375 62 62.566406 62 61.925781 C 62 61.550781 62.222656 61.5625 62.714844 61.972656 C 63.71875 62.804688 64.589844 61.070312 64.183594 59.039062 C 63.902344 57.632812 63.988281 57.5 65.1875 57.5 C 65.910156 57.5 66.5 57.273438 66.5 57 C 66.5 56.726562 66.972656 56.5 67.546875 56.5 C 69.054688 56.5 71.5 54.605469 71.5 53.4375 C 71.5 52.886719 70.714844 51.410156 69.75 50.148438 C 68.789062 48.890625 67.523438 46.539062 66.933594 44.929688 C 66.347656 43.320312 65.789062 42 65.699219 42 C 65.605469 42 64.511719 42.714844 63.269531 43.59375 C 59.128906 46.511719 52.351562 45.835938 48.925781 42.160156 L 47.75 40.902344 L 49.714844 39.195312 C 50.960938 38.113281 52.953125 37.109375 55.167969 36.449219 C 58.523438 35.449219 58.765625 35.441406 61.621094 36.246094 C 63.253906 36.703125 64.695312 36.96875 64.828125 36.839844 C 64.957031 36.710938 64.910156 35.773438 64.71875 34.761719 C 64.40625 33.089844 64.066406 32.769531 61.0625 31.316406 C 59.210938 30.421875 57.75 29.394531 57.75 28.984375 C 57.75 28.007812 59.734375 28.28125 61.9375 29.558594 C 62.867188 30.097656 63.742188 30.425781 63.882812 30.285156 C 64.433594 29.734375 62.820312 25.511719 61.402344 23.789062 C 57.671875 19.261719 48.867188 17.34375 40.796875 19.296875 M 61.71875 21.933594 C 62.527344 22.796875 63.40625 23.5 63.671875 23.5 C 64.328125 23.5 62.507812 21.535156 61.253906 20.890625 C 60.539062 20.519531 60.671875 20.816406 61.71875 21.933594 M 16.097656 29.597656 C 12.699219 36.554688 11.710938 41.492188 11.871094 50.644531 C 11.980469 56.808594 12.210938 58.414062 14.066406 65.894531 C 15.207031 70.488281 16.21875 74.34375 16.320312 74.457031 C 16.894531 75.121094 17.015625 73.808594 16.515625 72.296875 C 16.195312 71.320312 15.386719 68.121094 14.722656 65.179688 C 11.308594 50.078125 11.894531 40.960938 17.023438 29.285156 C 18.101562 26.828125 18.902344 24.734375 18.800781 24.632812 C 18.695312 24.53125 17.480469 26.765625 16.097656 29.597656 M 29.320312 31.941406 C 27.074219 33.550781 26.234375 34.777344 27.035156 35.273438 C 27.335938 35.457031 28.226562 34.988281 29.015625 34.234375 C 30.082031 33.214844 31.113281 32.792969 33 32.613281 C 35.003906 32.421875 35.515625 32.195312 35.394531 31.558594 C 35.121094 30.113281 31.558594 30.335938 29.320312 31.941406 M 15.261719 38.566406 C 13.894531 44.222656 13.621094 47.367188 14.054688 52.421875 C 14.773438 60.785156 17.660156 73.96875 18.859375 74.371094 C 19.261719 74.503906 19.164062 73.566406 18.546875 71.40625 C 18.050781 69.671875 17.257812 65.886719 16.78125 63 C 16.304688 60.113281 15.710938 56.671875 15.457031 55.351562 C 14.871094 52.265625 14.886719 42.34375 15.484375 39.765625 C 15.738281 38.671875 15.855469 37.6875 15.746094 37.578125 C 15.636719 37.472656 15.421875 37.914062 15.261719 38.566406 M 41.816406 38.792969 C 41.003906 39.507812 39.917969 39.988281 39.316406 39.898438 C 38.730469 39.8125 38.023438 40.015625 37.75 40.351562 C 37.152344 41.082031 33.988281 41.285156 31.375 40.761719 C 29.859375 40.460938 29.5 40.535156 29.5 41.15625 C 29.5 43.214844 37.109375 43.484375 40.882812 41.558594 C 43.132812 40.410156 44.71875 38.757812 44.269531 38.03125 C 43.796875 37.265625 43.421875 37.378906 41.816406 38.792969 M 24.773438 38.464844 C 24.613281 38.722656 24.710938 39.070312 24.992188 39.246094 C 25.273438 39.417969 25.5 39.207031 25.5 38.78125 C 25.5 37.902344 25.199219 37.773438 24.773438 38.464844 M 62.773438 39.925781 C 62.21875 41.667969 59.605469 43.5 57.671875 43.5 C 55.9375 43.5 53.488281 41.71875 52.933594 40.046875 C 52.746094 39.488281 52.488281 39.472656 51.570312 39.960938 C 50.949219 40.296875 50.519531 40.832031 50.621094 41.160156 C 50.9375 42.199219 55.136719 44 57.230469 43.992188 C 60.609375 43.976562 65.050781 40.851562 63.664062 39.464844 C 63.246094 39.042969 63.015625 39.164062 62.773438 39.925781 M 85.160156 43.125 C 83.0625 45.339844 82.003906 48.941406 81.324219 56.15625 L 80.75 62.25 L 79.160156 62.402344 C 78.289062 62.488281 77.277344 62.914062 76.917969 63.347656 C 76.324219 64.0625 76.628906 64.105469 80.0625 63.785156 C 83.414062 63.46875 83.90625 63.53125 84.199219 64.296875 C 84.382812 64.777344 84.355469 65.339844 84.140625 65.550781 C 83.480469 66.199219 76.425781 66.171875 73.273438 65.511719 C 70.425781 64.914062 70.261719 64.933594 69.398438 66 C 68.191406 67.492188 68.238281 70.238281 69.5 71.5 C 70.324219 72.324219 71.222656 72.511719 74.625 72.566406 C 83.335938 72.710938 83.980469 72.816406 83.253906 73.992188 C 82.894531 74.578125 70.550781 74.398438 69.570312 73.792969 C 68.898438 73.378906 67.5 75.441406 67.5 76.847656 C 67.5 78.890625 69.519531 79.636719 75.875 79.957031 C 79.847656 80.160156 81.734375 80.445312 81.875 80.875 C 82.035156 81.351562 80.550781 81.5 75.542969 81.5 L 69 81.5 L 69 82.738281 C 69 84.804688 71.367188 85.640625 78.25 86 C 85.414062 86.375 87.074219 85.925781 88.339844 83.273438 C 88.988281 81.914062 89.070312 81.164062 88.695312 80.121094 C 88.289062 78.996094 88.464844 78.179688 89.671875 75.570312 C 91.050781 72.589844 91.105469 72.25 90.535156 70.070312 C 90.199219 68.796875 89.804688 67.015625 89.65625 66.121094 C 89.507812 65.222656 89.191406 64.367188 88.945312 64.214844 C 88.199219 63.753906 88.464844 59.953125 89.515625 56 C 91.003906 50.425781 91.367188 44.382812 90.3125 42.773438 C 89.109375 40.941406 87.09375 41.078125 85.160156 43.125 M 10.058594 54.042969 C 10.089844 55.804688 10.285156 57.925781 10.492188 58.75 C 10.699219 59.574219 10.753906 58.226562 10.613281 55.75 C 10.320312 50.476562 9.972656 49.417969 10.058594 54.042969 M 45.527344 61.25 C 45.519531 63.382812 47.183594 66.765625 49.089844 68.511719 C 50.660156 69.941406 52.5 70.5 52.5 69.539062 C 52.5 69.289062 52.628906 68.75 52.785156 68.34375 C 52.972656 67.84375 52.402344 67.226562 51.039062 66.464844 C 49.21875 65.4375 47.632812 63.613281 46.074219 60.75 C 45.582031 59.84375 45.53125 59.890625 45.527344 61.25 M 47.980469 60.960938 C 48.285156 61.53125 48.753906 62 49.015625 62 C 49.875 62 49.527344 61.050781 48.460938 60.480469 C 47.511719 59.972656 47.472656 60.011719 47.980469 60.960938 M 11.003906 60.792969 C 11.007812 61.042969 11.679688 63.949219 12.5 67.25 C 13.320312 70.550781 13.992188 73.304688 13.996094 73.375 C 13.996094 73.445312 14.234375 73.5 14.515625 73.5 C 14.863281 73.5 14.875 73.199219 14.546875 72.585938 C 14.277344 72.085938 13.5 69.253906 12.816406 66.289062 C 11.730469 61.578125 10.992188 59.339844 11.003906 60.792969 M 43.332031 61.332031 C 42.804688 61.859375 42.945312 64.5 43.5 64.5 C 43.773438 64.5 44 63.710938 44 62.75 C 44 60.953125 43.910156 60.757812 43.332031 61.332031 M 65.308594 63.125 C 65.179688 64.019531 64.824219 67.164062 64.515625 70.117188 C 64.210938 73.070312 63.613281 76.445312 63.191406 77.617188 C 62.183594 80.40625 62.058594 84.113281 62.9375 85.171875 C 63.421875 85.757812 64.421875 86 66.347656 86 L 69.074219 86 L 68.0625 84.714844 C 67.253906 83.6875 67.148438 83.171875 67.542969 82.140625 C 67.9375 81.09375 67.839844 80.640625 67.015625 79.765625 C 65.835938 78.507812 65.710938 76.320312 66.707031 74.402344 C 67.1875 73.484375 67.324219 72.128906 67.144531 70.121094 C 66.949219 67.964844 67.09375 66.765625 67.699219 65.601562 C 68.5625 63.929688 69.355469 63.59375 72.996094 63.382812 C 74.671875 63.285156 75.285156 63.027344 75.40625 62.375 C 75.554688 61.589844 75.066406 61.5 70.558594 61.5 L 65.546875 61.5 L 65.308594 63.125 M 50.578125 63.15625 C 49.761719 64.136719 51.726562 65.976562 52.625 65.074219 C 53.058594 64.644531 53.078125 64.238281 52.703125 63.640625 C 51.984375 62.5 51.257812 62.335938 50.578125 63.15625 M 54.171875 64.769531 C 53.792969 65.761719 55.140625 67 56.59375 67 C 57.226562 67 57.5 66.621094 57.5 65.75 C 57.5 65.003906 57.214844 64.5 56.789062 64.5 C 56.402344 64.5 55.726562 64.363281 55.296875 64.199219 C 54.808594 64.011719 54.378906 64.230469 54.171875 64.769531 M 59 66.25 C 59 67.332031 59.222656 67.5 60.648438 67.5 C 62.367188 67.5 63.5 66.765625 63.5 65.648438 C 63.5 65.214844 62.761719 65 61.25 65 C 59.183594 65 59 65.101562 59 66.25 M 43.667969 66.78125 C 43.328125 67.664062 44.242188 70 44.929688 70 C 45.175781 70 45.644531 69.675781 45.972656 69.285156 C 46.4375 68.722656 46.386719 68.289062 45.726562 67.285156 C 44.765625 65.816406 44.101562 65.65625 43.667969 66.78125 M 21.058594 68 C 21.082031 68.414062 21.28125 69.3125 21.5 70 L 21.902344 71.25 L 21.941406 70 C 21.964844 69.3125 21.765625 68.414062 21.5 68 C 21.070312 67.332031 21.019531 67.332031 21.058594 68 M 54.488281 69.265625 C 54.15625 69.664062 54.007812 70.292969 54.148438 70.667969 C 54.476562 71.519531 58.449219 72.101562 61.078125 71.679688 C 62.804688 71.402344 63.035156 71.210938 62.902344 70.160156 C 62.757812 69.027344 62.523438 68.945312 58.917969 68.75 C 55.996094 68.59375 54.941406 68.714844 54.488281 69.265625 M 46.875 70.695312 C 45.597656 71.667969 45.789062 72.214844 47.738281 73.144531 C 49.398438 73.9375 49.503906 73.929688 49.992188 73.011719 C 50.402344 72.246094 50.28125 71.835938 49.410156 71.023438 C 48.128906 69.832031 48.03125 69.816406 46.875 70.695312 M 51.679688 73.25 C 51.28125 74.289062 52.253906 74.980469 54.125 74.992188 C 55.167969 74.996094 55.5 74.757812 55.5 74 C 55.5 73.347656 55.167969 73 54.539062 73 C 54.011719 73 53.226562 72.863281 52.796875 72.699219 C 52.3125 72.511719 51.882812 72.726562 51.679688 73.25 M 57.25 74 C 56.640625 74.984375 57.597656 75.5 60.03125 75.5 C 62.167969 75.5 62.5 75.363281 62.5 74.5 C 62.5 73.636719 62.167969 73.5 60.03125 73.5 C 58.671875 73.5 57.421875 73.726562 57.25 74 M 12.375 76.363281 C 11.5625 77.261719 10 80.554688 10 81.371094 C 10 81.597656 11.921875 82.039062 14.273438 82.363281 C 17.78125 82.839844 19.332031 83.367188 22.898438 85.292969 C 30.046875 89.15625 30.957031 89.542969 34.679688 90.339844 C 39.40625 91.351562 42.742188 91.332031 45.9375 90.269531 C 47.382812 89.789062 48.492188 89.332031 48.40625 89.25 C 48.320312 89.164062 46.289062 88.859375 43.886719 88.570312 C 37.929688 87.84375 35.066406 86.519531 32.191406 83.15625 C 28.359375 78.667969 25.710938 77.332031 19 76.492188 C 16.9375 76.234375 14.789062 75.890625 14.230469 75.730469 C 13.582031 75.546875 12.90625 75.777344 12.375 76.363281 M 57.5 85.058594 C 56.261719 86.175781 55.664062 86.957031 56.167969 86.792969 C 56.675781 86.632812 57.96875 86.355469 59.042969 86.183594 C 60.96875 85.878906 61.308594 85.386719 60.695312 83.789062 C 60.269531 82.679688 60.035156 82.773438 57.5 85.058594 "/>
</g>
</svg>
