<?xml version="1.0" encoding="UTF-8"?>
<svg xmlns="http://www.w3.org/2000/svg" xmlns:xlink="http://www.w3.org/1999/xlink" width="24px" height="24px" viewBox="0 0 24 24" version="1.1">
<g id="surface1">
<path style=" stroke:none;fill-rule:evenodd;fill:rgb(0%,0%,0%);fill-opacity:1;" d="M 18.441406 0.796875 C 18.398438 0.84375 18.359375 1.074219 18.359375 1.308594 C 18.359375 1.722656 18.300781 1.777344 17.050781 2.640625 L 15.742188 3.539062 L 17.171875 3.574219 C 17.957031 3.59375 19.246094 3.59375 20.035156 3.574219 L 21.472656 3.539062 L 20.164062 2.640625 C 18.90625 1.777344 18.851562 1.722656 18.816406 1.269531 C 18.78125 0.820312 18.621094 0.617188 18.441406 0.796875 M 15.839844 4.800781 L 15.839844 5.640625 L 17.039062 5.640625 L 17.039062 5.160156 C 17.039062 4.8125 17.089844 4.679688 17.21875 4.679688 C 17.351562 4.679688 17.398438 4.8125 17.398438 5.160156 L 17.398438 5.640625 L 18.480469 5.640625 L 18.480469 5.160156 C 18.480469 4.894531 18.535156 4.679688 18.601562 4.679688 C 18.664062 4.679688 18.71875 4.894531 18.71875 5.160156 L 18.71875 5.640625 L 19.800781 5.640625 L 19.800781 5.160156 C 19.800781 4.8125 19.851562 4.679688 19.980469 4.679688 C 20.109375 4.679688 20.160156 4.8125 20.160156 5.160156 L 20.160156 5.640625 L 21.359375 5.640625 L 21.359375 3.960938 L 15.839844 3.960938 L 15.839844 4.800781 M 15.40625 6.171875 C 15.371094 6.269531 15.359375 6.445312 15.382812 6.5625 C 15.421875 6.765625 15.644531 6.78125 18.542969 6.8125 C 21.328125 6.839844 21.675781 6.824219 21.804688 6.644531 C 21.90625 6.507812 21.914062 6.378906 21.832031 6.222656 C 21.71875 6.015625 21.511719 6 18.59375 6 C 15.984375 6 15.460938 6.027344 15.40625 6.171875 M 5.820312 8.285156 C 3.972656 9.394531 2.230469 10.441406 1.949219 10.609375 C 1.480469 10.890625 1.449219 10.9375 1.589844 11.164062 C 1.675781 11.304688 1.828125 11.386719 1.9375 11.359375 C 2.050781 11.332031 3.722656 10.375 5.660156 9.234375 C 7.59375 8.09375 9.234375 7.160156 9.300781 7.164062 C 9.367188 7.164062 11.039062 8.125 13.019531 9.292969 C 16.625 11.421875 16.910156 11.546875 17.011719 11.027344 C 17.035156 10.917969 15.683594 10.042969 13.292969 8.617188 C 11.230469 7.382812 9.460938 6.347656 9.359375 6.316406 C 9.261719 6.285156 7.667969 7.171875 5.820312 8.285156 M 15.839844 8.488281 L 15.84375 9.78125 L 16.679688 10.261719 C 17.140625 10.523438 17.519531 10.78125 17.519531 10.832031 C 17.523438 11.070312 16.867188 11.886719 16.71875 11.824219 C 16.164062 11.597656 16.199219 11.277344 16.199219 16.667969 C 16.199219 19.917969 16.15625 21.71875 16.082031 21.71875 C 16.003906 21.71875 15.953125 19.855469 15.929688 16.546875 L 15.898438 11.371094 L 13.558594 9.992188 C 12.273438 9.230469 10.785156 8.355469 10.253906 8.042969 L 9.289062 7.472656 L 5.996094 9.417969 L 2.699219 11.359375 L 2.636719 21.71875 L 1.789062 21.71875 C 1.164062 21.71875 0.953125 21.757812 0.988281 21.871094 C 1.03125 21.988281 3.339844 22.019531 12 22.019531 C 20.660156 22.019531 22.96875 21.988281 23.011719 21.871094 C 23.046875 21.757812 22.835938 21.71875 22.210938 21.71875 L 21.359375 21.71875 L 21.359375 7.199219 L 15.839844 7.199219 L 15.839844 8.488281 M 18.121094 8.761719 L 18.121094 9.238281 L 19.078125 9.238281 L 19.078125 8.28125 L 18.121094 8.28125 L 18.121094 8.761719 M 8.804688 8.878906 C 8.546875 8.984375 8.039062 9.550781 8.039062 9.734375 C 8.039062 9.792969 8.28125 9.839844 8.578125 9.839844 L 9.121094 9.839844 L 9.121094 9.300781 C 9.121094 9.003906 9.105469 8.761719 9.089844 8.765625 C 9.074219 8.773438 8.945312 8.820312 8.804688 8.878906 M 9.480469 9.296875 L 9.480469 9.839844 L 10.015625 9.839844 C 10.476562 9.839844 10.542969 9.808594 10.476562 9.628906 C 10.363281 9.304688 10.1875 9.121094 9.820312 8.929688 L 9.480469 8.753906 L 9.480469 9.296875 M 8.039062 10.265625 C 8.039062 10.457031 8.433594 11.050781 8.632812 11.15625 C 9.035156 11.371094 9.121094 11.296875 9.121094 10.738281 L 9.121094 10.199219 L 8.578125 10.199219 C 8.28125 10.199219 8.039062 10.230469 8.039062 10.265625 M 9.480469 10.738281 C 9.480469 11.332031 9.613281 11.410156 10.035156 11.066406 C 10.269531 10.878906 10.558594 10.433594 10.558594 10.269531 C 10.558594 10.230469 10.316406 10.199219 10.019531 10.199219 L 9.480469 10.199219 L 9.480469 10.738281 M 18.121094 11.101562 L 18.121094 11.640625 L 19.078125 11.640625 L 19.078125 10.558594 L 18.121094 10.558594 L 18.121094 11.101562 M 4.558594 12.480469 C 4.328125 12.710938 4.320312 12.878906 4.320312 17.21875 C 4.320312 20.140625 4.363281 21.71875 4.441406 21.71875 C 4.519531 21.71875 4.558594 20.1875 4.558594 17.363281 C 4.558594 14.066406 4.597656 12.957031 4.710938 12.800781 C 4.847656 12.613281 5.234375 12.597656 9.359375 12.628906 L 13.859375 12.660156 L 13.921875 17.148438 C 13.964844 20.59375 14.015625 21.652344 14.128906 21.691406 C 14.25 21.730469 14.28125 20.789062 14.28125 17.25 L 14.28125 12.761719 L 14.003906 12.5 C 13.726562 12.242188 13.679688 12.238281 9.261719 12.238281 C 4.960938 12.238281 4.792969 12.25 4.558594 12.480469 M 18.121094 13.378906 L 18.121094 13.921875 L 19.078125 13.921875 L 19.078125 12.839844 L 18.121094 12.839844 L 18.121094 13.378906 M 18.121094 15.71875 L 18.121094 16.199219 L 19.078125 16.199219 L 19.078125 15.238281 L 18.121094 15.238281 L 18.121094 15.71875 M 8.460938 15.953125 C 8.195312 16.089844 7.84375 16.398438 7.679688 16.640625 C 7.386719 17.074219 7.378906 17.125 7.378906 19.371094 L 7.378906 21.660156 L 9.269531 21.691406 L 11.160156 21.726562 L 11.160156 19.402344 C 11.160156 17.1875 11.148438 17.054688 10.890625 16.679688 C 10.289062 15.796875 9.328125 15.507812 8.460938 15.953125 M 17.917969 17.515625 C 17.378906 17.839844 17.257812 18.367188 17.304688 20.160156 L 17.339844 21.660156 L 19.859375 21.660156 L 19.898438 20.160156 C 19.917969 19.296875 19.878906 18.46875 19.800781 18.203125 C 19.652344 17.699219 19.105469 17.28125 18.601562 17.28125 C 18.433594 17.28125 18.128906 17.386719 17.917969 17.515625 M 1.859375 23.039062 C 1.820312 23.105469 1.855469 23.191406 1.945312 23.222656 C 2.25 23.339844 6.71875 23.226562 6.71875 23.101562 C 6.71875 22.933594 1.964844 22.871094 1.859375 23.039062 M 7.800781 23.101562 C 7.800781 23.261719 8.234375 23.28125 11.238281 23.25 C 13.863281 23.226562 14.691406 23.183594 14.730469 23.070312 C 14.769531 22.953125 14.027344 22.921875 11.289062 22.921875 C 8.253906 22.921875 7.800781 22.945312 7.800781 23.101562 M 15.902344 23.039062 C 15.859375 23.105469 15.898438 23.1875 15.984375 23.222656 C 16.289062 23.339844 22.078125 23.222656 22.109375 23.101562 C 22.152344 22.933594 16.003906 22.871094 15.902344 23.039062 "/>
</g>
</svg>
