<?xml version="1.0" encoding="UTF-8"?>
<svg xmlns="http://www.w3.org/2000/svg" xmlns:xlink="http://www.w3.org/1999/xlink" width="100px" height="100px" viewBox="0 0 100 100" version="1.1">
<g id="surface1">
<path style=" stroke:none;fill-rule:evenodd;fill:rgb(0%,0%,0%);fill-opacity:1;" d="M 76.84375 3.324219 C 76.65625 3.511719 76.5 4.472656 76.496094 5.457031 C 76.492188 7.175781 76.261719 7.410156 71.042969 11 L 65.59375 14.75 L 71.546875 14.890625 C 74.820312 14.96875 80.195312 14.96875 83.488281 14.890625 L 89.472656 14.75 L 84.015625 11 C 78.773438 7.398438 78.550781 7.171875 78.402344 5.289062 C 78.257812 3.421875 77.589844 2.578125 76.84375 3.324219 M 66 20 L 66 23.5 L 71 23.5 L 71 21.5 C 71 20.054688 71.207031 19.5 71.75 19.5 C 72.292969 19.5 72.5 20.054688 72.5 21.5 L 72.5 23.5 L 77 23.5 L 77 21.5 C 77 20.398438 77.226562 19.5 77.5 19.5 C 77.773438 19.5 78 20.398438 78 21.5 L 78 23.5 L 82.5 23.5 L 82.5 21.5 C 82.5 20.054688 82.707031 19.5 83.25 19.5 C 83.792969 19.5 84 20.054688 84 21.5 L 84 23.5 L 89 23.5 L 89 16.5 L 66 16.5 L 66 20 M 64.191406 25.722656 C 64.039062 26.117188 63.992188 26.847656 64.089844 27.347656 C 64.25 28.1875 65.179688 28.257812 77.257812 28.382812 C 88.871094 28.503906 90.316406 28.429688 90.855469 27.691406 C 91.277344 27.113281 91.308594 26.578125 90.964844 25.929688 C 90.496094 25.058594 89.632812 25 77.464844 25 C 66.609375 25 64.421875 25.117188 64.191406 25.722656 M 24.25 34.515625 C 16.550781 39.148438 9.289062 43.511719 8.117188 44.210938 C 6.171875 45.371094 6.039062 45.578125 6.617188 46.515625 C 6.972656 47.09375 7.609375 47.449219 8.082031 47.328125 C 8.539062 47.210938 15.511719 43.226562 23.582031 38.476562 C 31.648438 33.722656 38.476562 29.84375 38.75 29.851562 C 39.023438 29.859375 46 33.847656 54.25 38.722656 C 69.277344 47.59375 70.460938 48.109375 70.886719 45.945312 C 70.976562 45.496094 65.347656 41.851562 55.386719 35.898438 C 46.785156 30.757812 39.414062 26.449219 39 26.320312 C 38.585938 26.195312 31.949219 29.882812 24.25 34.515625 M 66.003906 35.375 L 66.007812 40.75 L 69.5 42.75 C 71.421875 43.851562 72.992188 44.921875 72.996094 45.136719 C 73.007812 46.128906 70.277344 49.519531 69.667969 49.273438 C 67.355469 48.328125 67.5 46.980469 67.5 69.445312 C 67.5 82.996094 67.324219 90.5 67.003906 90.5 C 66.6875 90.5 66.464844 82.738281 66.378906 68.9375 L 66.25 47.375 L 56.5 41.628906 C 51.136719 38.464844 44.9375 34.8125 42.726562 33.507812 L 38.703125 31.136719 L 24.976562 39.238281 L 11.25 47.335938 L 11.121094 68.917969 L 10.988281 90.5 L 7.453125 90.5 C 4.847656 90.5 3.972656 90.664062 4.125 91.125 C 4.289062 91.617188 13.910156 91.75 50 91.75 C 86.089844 91.75 95.710938 91.617188 95.875 91.125 C 96.027344 90.664062 95.152344 90.5 92.542969 90.5 L 89 90.5 L 89 30 L 66 30 L 66.003906 35.375 M 75.5 36.5 L 75.5 38.5 L 79.5 38.5 L 79.5 34.5 L 75.5 34.5 L 75.5 36.5 M 36.695312 36.988281 C 35.613281 37.425781 33.5 39.792969 33.5 40.566406 C 33.5 40.804688 34.511719 41 35.75 41 L 38 41 L 38 38.75 C 38 37.511719 37.945312 36.515625 37.875 36.53125 C 37.804688 36.550781 37.273438 36.753906 36.695312 36.988281 M 39.5 38.738281 L 39.5 41 L 41.734375 41 C 43.648438 41 43.925781 40.875 43.65625 40.125 C 43.175781 38.773438 42.449219 38 40.910156 37.203125 L 39.5 36.472656 L 39.5 38.738281 M 33.5 42.773438 C 33.5 43.578125 35.140625 46.039062 35.972656 46.484375 C 37.640625 47.378906 38 47.070312 38 44.75 L 38 42.5 L 35.75 42.5 C 34.511719 42.5 33.5 42.625 33.5 42.773438 M 39.5 44.75 C 39.5 47.21875 40.050781 47.542969 41.816406 46.113281 C 42.789062 45.324219 44 43.476562 44 42.78125 C 44 42.628906 42.988281 42.5 41.75 42.5 L 39.5 42.5 L 39.5 44.75 M 75.5 46.25 L 75.5 48.5 L 79.5 48.5 L 79.5 44 L 75.5 44 L 75.5 46.25 M 19 52 C 18.035156 52.964844 18 53.667969 18 71.75 C 18 83.917969 18.175781 90.5 18.5 90.5 C 18.824219 90.5 19 84.113281 19 72.34375 C 19 58.609375 19.152344 53.984375 19.625 53.339844 C 20.199219 52.558594 21.816406 52.496094 39 52.617188 L 57.75 52.75 L 58 71.457031 C 58.191406 85.800781 58.394531 90.214844 58.875 90.375 C 59.367188 90.539062 59.5 86.621094 59.5 71.878906 L 59.5 53.175781 L 58.34375 52.085938 C 57.199219 51.011719 56.996094 51 38.59375 51 C 20.667969 51 19.964844 51.035156 19 52 M 75.5 55.75 L 75.5 58 L 79.5 58 L 79.5 53.5 L 75.5 53.5 L 75.5 55.75 M 75.5 65.5 L 75.5 67.5 L 79.5 67.5 L 79.5 63.5 L 75.5 63.5 L 75.5 65.5 M 35.25 66.46875 C 34.148438 67.03125 32.6875 68.320312 32 69.335938 C 30.773438 71.136719 30.75 71.363281 30.75 80.710938 L 30.75 90.25 L 38.625 90.386719 L 46.5 90.527344 L 46.5 80.835938 C 46.5 71.613281 46.445312 71.070312 45.375 69.496094 C 42.871094 65.820312 38.859375 64.621094 35.25 66.46875 M 74.652344 72.976562 C 72.417969 74.339844 71.914062 76.523438 72.097656 84 L 72.25 90.25 L 82.75 90.25 L 82.902344 84 C 82.992188 80.398438 82.820312 76.945312 82.5 75.851562 C 81.886719 73.753906 79.613281 72.003906 77.5 72.003906 C 76.8125 72.003906 75.53125 72.441406 74.652344 72.976562 M 7.753906 95.992188 C 7.578125 96.277344 7.738281 96.621094 8.109375 96.765625 C 9.375 97.25 28 96.769531 28 96.25 C 28 95.554688 8.179688 95.304688 7.753906 95.992188 M 32.5 96.257812 C 32.5 96.921875 34.304688 97 46.832031 96.882812 C 57.761719 96.78125 61.214844 96.601562 61.375 96.125 C 61.539062 95.632812 58.453125 95.5 47.042969 95.5 C 34.382812 95.5 32.5 95.597656 32.5 96.257812 M 66.253906 95.996094 C 66.078125 96.277344 66.234375 96.621094 66.601562 96.761719 C 67.875 97.25 91.996094 96.765625 92.125 96.25 C 92.300781 95.554688 66.683594 95.300781 66.253906 95.996094 "/>
</g>
</svg>
