<?xml version="1.0" encoding="UTF-8"?>
<svg xmlns="http://www.w3.org/2000/svg" xmlns:xlink="http://www.w3.org/1999/xlink" width="100px" height="100px" viewBox="0 0 100 100" version="1.1">
<g id="surface1">
<path style=" stroke:none;fill-rule:evenodd;fill:rgb(0%,0%,0%);fill-opacity:1;" d="M 44.25 10.199219 C 36.179688 12.761719 30.402344 19.875 28.761719 29.269531 C 28.378906 31.464844 27.714844 33.933594 27.285156 34.757812 C 26.855469 35.578125 26.503906 36.761719 26.503906 37.390625 C 26.496094 39.234375 27.824219 41.871094 29.082031 42.527344 C 29.722656 42.863281 31.292969 44.292969 32.566406 45.707031 C 35.449219 48.90625 38.917969 50.828125 43.5625 51.796875 C 45.535156 52.207031 47.550781 52.757812 48.042969 53.023438 C 50.105469 54.128906 52.5 52.859375 52.5 50.664062 C 52.5 48.746094 49.152344 47.039062 48.25 48.5 C 47.796875 49.238281 45.125 49.054688 42.007812 48.078125 C 39.316406 47.234375 39.242188 47.160156 37.902344 43.9375 C 37.152344 42.132812 36.386719 39.726562 36.207031 38.589844 L 35.875 36.523438 L 39.0625 35.152344 C 45.230469 32.5 53.277344 28.390625 55.675781 26.671875 C 57.007812 25.714844 58.15625 25.003906 58.226562 25.089844 C 58.300781 25.179688 58.96875 26.488281 59.714844 28 C 60.457031 29.511719 61.878906 31.585938 62.867188 32.605469 C 64.386719 34.175781 64.652344 34.777344 64.585938 36.515625 C 64.453125 39.878906 61.011719 47.632812 56.398438 54.972656 C 55.628906 56.195312 55 57.6875 55 58.289062 C 55 59.195312 56.519531 61.761719 59.71875 66.253906 C 60.402344 67.210938 58.675781 70.742188 56.667969 72.503906 C 52.101562 76.511719 44.464844 75.324219 40.976562 70.058594 C 39.328125 67.570312 39.109375 65.945312 40.292969 64.964844 C 41.527344 63.941406 43.90625 60.289062 44.261719 58.878906 C 44.746094 56.949219 43.34375 54.691406 41.226562 53.992188 C 40.238281 53.667969 39.324219 53.507812 39.195312 53.640625 C 39.0625 53.773438 39.457031 54.917969 40.074219 56.183594 L 41.195312 58.492188 L 39.707031 60.613281 C 38.089844 62.914062 37.199219 63.492188 32.957031 65.011719 C 26.449219 67.339844 19.5625 72.773438 15.59375 78.707031 C 13.050781 82.511719 10.683594 88.453125 11.1875 89.769531 C 11.433594 90.410156 16.488281 90.488281 50.109375 90.378906 L 88.75 90.25 L 88.703125 88.484375 C 88.589844 84.328125 82.941406 75.636719 77.332031 70.992188 C 74.277344 68.464844 66.640625 64.371094 63.75 63.714844 C 61.921875 63.296875 59.78125 61.382812 58.976562 59.445312 C 58.4375 58.136719 58.5625 57.699219 60.378906 54.628906 C 61.480469 52.769531 63.195312 49.621094 64.191406 47.628906 C 65.925781 44.175781 66.101562 43.996094 68.082031 43.679688 C 72.195312 43.019531 74.339844 39.363281 73.109375 35.09375 C 72.816406 34.082031 72.320312 31.6875 72.007812 29.777344 C 70.5 20.578125 63.972656 12.617188 56.035156 10.292969 C 52.824219 9.355469 47.0625 9.308594 44.25 10.199219 M 45.597656 13.25 C 42.097656 14.230469 41.265625 14.710938 38.355469 17.433594 C 35.246094 20.339844 32.984375 24.714844 31.785156 30.125 C 31.207031 32.730469 32.761719 31.597656 33.75 28.6875 C 35.65625 23.078125 40.308594 18.300781 45.21875 16.914062 C 48.085938 16.105469 53.347656 16.257812 56 17.222656 C 60.96875 19.03125 64.890625 23.214844 66.75 28.6875 C 67.632812 31.28125 69 32.527344 69 30.734375 C 69 29.167969 66.890625 23.777344 65.308594 21.304688 C 60.917969 14.449219 52.9375 11.1875 45.597656 13.25 M 62.976562 68.363281 C 61.695312 71.882812 61.246094 72.601562 59.011719 74.6875 C 56.316406 77.214844 54.089844 78.003906 49.75 77.976562 C 44.054688 77.9375 39.976562 75.417969 37.648438 70.5 C 36.878906 68.878906 35.949219 67.539062 35.578125 67.523438 C 35.210938 67.511719 32.871094 68.550781 30.382812 69.839844 C 24.597656 72.824219 19.550781 77.671875 16.863281 82.824219 C 15.839844 84.789062 15 86.644531 15 86.949219 C 15 87.34375 24.875 87.5 50.257812 87.5 L 85.515625 87.5 L 84.191406 84.875 C 81.226562 79.003906 77.34375 74.664062 72 71.242188 C 70.210938 70.097656 68.414062 69.035156 68 68.878906 C 67.585938 68.71875 66.402344 68.226562 65.367188 67.785156 L 63.484375 66.980469 L 62.976562 68.363281 "/>
</g>
</svg>
