<?xml version="1.0" encoding="UTF-8"?>
<svg xmlns="http://www.w3.org/2000/svg" xmlns:xlink="http://www.w3.org/1999/xlink" width="24px" height="24px" viewBox="0 0 24 24" version="1.1">
<g id="surface1">
<path style=" stroke:none;fill-rule:evenodd;fill:rgb(0%,0%,0%);fill-opacity:1;" d="M 10.621094 2.449219 C 8.683594 3.0625 7.296875 4.769531 6.902344 7.023438 C 6.8125 7.550781 6.652344 8.144531 6.546875 8.339844 C 6.445312 8.539062 6.359375 8.824219 6.359375 8.972656 C 6.359375 9.414062 6.675781 10.050781 6.980469 10.207031 C 7.132812 10.289062 7.511719 10.628906 7.816406 10.96875 C 8.507812 11.738281 9.339844 12.199219 10.453125 12.429688 C 10.929688 12.53125 11.414062 12.664062 11.53125 12.726562 C 12.023438 12.992188 12.601562 12.6875 12.601562 12.160156 C 12.601562 11.699219 11.796875 11.289062 11.578125 11.640625 C 11.472656 11.816406 10.828125 11.773438 10.082031 11.539062 C 9.4375 11.335938 9.417969 11.320312 9.097656 10.546875 C 8.917969 10.113281 8.734375 9.535156 8.691406 9.261719 L 8.609375 8.765625 L 9.375 8.4375 C 10.855469 7.800781 12.785156 6.8125 13.363281 6.402344 C 13.683594 6.171875 13.957031 6 13.976562 6.023438 C 13.992188 6.042969 14.152344 6.355469 14.332031 6.71875 C 14.511719 7.082031 14.851562 7.582031 15.089844 7.824219 C 15.453125 8.203125 15.515625 8.347656 15.5 8.765625 C 15.46875 9.570312 14.644531 11.433594 13.535156 13.195312 C 13.351562 13.488281 13.199219 13.84375 13.199219 13.988281 C 13.199219 14.207031 13.566406 14.824219 14.332031 15.902344 C 14.496094 16.128906 14.082031 16.976562 13.601562 17.402344 C 12.503906 18.363281 10.671875 18.078125 9.835938 16.8125 C 9.4375 16.214844 9.386719 15.828125 9.671875 15.589844 C 9.964844 15.347656 10.539062 14.46875 10.621094 14.132812 C 10.738281 13.667969 10.402344 13.125 9.894531 12.957031 C 9.65625 12.878906 9.4375 12.84375 9.40625 12.875 C 9.375 12.90625 9.46875 13.179688 9.617188 13.484375 L 9.886719 14.039062 L 9.53125 14.546875 C 9.140625 15.097656 8.929688 15.238281 7.910156 15.601562 C 6.347656 16.160156 4.695312 17.464844 3.742188 18.890625 C 3.132812 19.800781 2.5625 21.230469 2.683594 21.546875 C 2.746094 21.699219 3.957031 21.71875 12.027344 21.691406 L 21.300781 21.660156 L 21.289062 21.234375 C 21.261719 20.238281 19.90625 18.152344 18.558594 17.039062 C 17.828125 16.433594 15.992188 15.449219 15.300781 15.292969 C 14.859375 15.191406 14.347656 14.730469 14.15625 14.265625 C 14.023438 13.953125 14.054688 13.847656 14.492188 13.109375 C 14.753906 12.664062 15.167969 11.910156 15.40625 11.429688 C 15.820312 10.601562 15.863281 10.558594 16.339844 10.484375 C 17.328125 10.324219 17.839844 9.445312 17.546875 8.421875 C 17.476562 8.179688 17.355469 7.605469 17.28125 7.144531 C 16.921875 4.9375 15.355469 3.027344 13.449219 2.46875 C 12.675781 2.246094 11.292969 2.234375 10.621094 2.449219 M 10.945312 3.179688 C 10.101562 3.414062 9.902344 3.53125 9.203125 4.183594 C 8.460938 4.882812 7.914062 5.933594 7.628906 7.230469 C 7.488281 7.855469 7.863281 7.582031 8.101562 6.886719 C 8.558594 5.539062 9.675781 4.390625 10.851562 4.058594 C 11.539062 3.867188 12.804688 3.902344 13.441406 4.132812 C 14.632812 4.566406 15.574219 5.570312 16.019531 6.886719 C 16.230469 7.507812 16.558594 7.804688 16.558594 7.375 C 16.558594 7 16.054688 5.707031 15.671875 5.113281 C 14.621094 3.46875 12.703125 2.683594 10.945312 3.179688 M 15.113281 16.40625 C 14.808594 17.25 14.699219 17.425781 14.164062 17.925781 C 13.515625 18.53125 12.980469 18.722656 11.941406 18.714844 C 10.574219 18.707031 9.59375 18.101562 9.035156 16.921875 C 8.851562 16.53125 8.628906 16.210938 8.539062 16.207031 C 8.449219 16.203125 7.890625 16.453125 7.292969 16.761719 C 5.902344 17.476562 4.691406 18.640625 4.046875 19.878906 C 3.800781 20.347656 3.601562 20.792969 3.601562 20.867188 C 3.601562 20.964844 5.96875 21 12.0625 21 L 20.523438 21 L 20.207031 20.371094 C 19.496094 18.960938 18.5625 17.917969 17.28125 17.097656 C 16.851562 16.824219 16.417969 16.566406 16.320312 16.53125 C 16.222656 16.492188 15.9375 16.375 15.6875 16.269531 L 15.234375 16.074219 L 15.113281 16.40625 "/>
</g>
</svg>
