<?xml version="1.0" encoding="UTF-8"?>
<svg xmlns="http://www.w3.org/2000/svg" xmlns:xlink="http://www.w3.org/1999/xlink" width="100px" height="100px" viewBox="0 0 100 100" version="1.1">
<g id="surface1">
<path style=" stroke:none;fill-rule:evenodd;fill:rgb(0%,0%,0%);fill-opacity:1;" d="M 43.742188 13.726562 C 42.476562 14.789062 42.023438 15.457031 42.414062 15.695312 C 43.847656 16.582031 42.210938 19.878906 40.640625 19.277344 C 38.117188 18.308594 37.691406 18.449219 33.875 21.496094 C 30.328125 24.328125 30.082031 24.648438 30.523438 25.808594 C 31.464844 28.285156 29.558594 29.835938 26.324219 29.230469 C 24.691406 28.925781 24.136719 29.277344 15.554688 36.078125 L 6.503906 43.25 L 6.5 51.8125 L 6.5 60.375 L 8.09375 60.695312 C 10.449219 61.164062 11.5 62.351562 11.5 64.539062 C 11.5 66.691406 9.746094 68.5 7.664062 68.5 C 6.46875 68.5 6.464844 68.511719 6.609375 73.585938 C 6.746094 78.550781 6.777344 78.671875 7.949219 78.757812 C 10.660156 78.953125 10.988281 82.589844 8.320312 82.90625 C 7.09375 83.054688 7 83.238281 7 85.53125 L 7 88 L 16.625 87.988281 C 35.84375 87.960938 61.074219 86.765625 74.515625 85.246094 C 82.820312 84.304688 85.855469 83.613281 86.984375 82.402344 C 88.8125 80.441406 91.203125 68.546875 93.492188 50 C 95.535156 33.460938 95.898438 28.832031 95.242188 27.753906 C 94.566406 26.644531 89.441406 24.320312 79.394531 20.554688 C 70.984375 17.402344 63.9375 15.375 56 13.820312 C 46.003906 11.863281 45.960938 11.863281 43.742188 13.726562 M 45.113281 14.277344 C 44.335938 14.820312 44 15.566406 44 16.742188 C 44 19.132812 42.816406 20.136719 40.292969 19.886719 C 38.441406 19.703125 37.933594 19.933594 34.890625 22.351562 C 31.890625 24.730469 31.558594 25.167969 31.804688 26.402344 C 32.273438 28.746094 30.621094 30.238281 27.511719 30.28125 C 25 30.320312 24.742188 30.46875 17.695312 36.007812 C 10.417969 41.730469 8.699219 43.253906 10.054688 42.78125 C 10.4375 42.648438 16.179688 41.496094 22.820312 40.222656 L 34.890625 37.90625 L 35.785156 35.921875 C 37.171875 32.847656 38.957031 31.839844 42.558594 32.101562 C 45.058594 32.28125 45.792969 32.5625 47.046875 33.816406 L 48.546875 35.316406 L 69.808594 31.207031 C 81.5 28.949219 91.175781 26.988281 91.308594 26.855469 C 91.582031 26.582031 82.886719 22.847656 76.5 20.496094 C 70.988281 18.46875 60.753906 15.804688 53.539062 14.515625 C 46.683594 13.296875 46.519531 13.292969 45.113281 14.277344 M 62 24.355469 C 59.773438 25.171875 58.769531 27.570312 60.101562 28.898438 C 60.851562 29.652344 64.835938 29.679688 66.9375 28.949219 C 69.558594 28.03125 70.117188 25.632812 67.972656 24.484375 C 67.011719 23.972656 63.265625 23.890625 62 24.355469 M 62.007812 25.152344 C 60.164062 25.785156 59.410156 27.316406 60.574219 28.058594 C 61.554688 28.675781 65.246094 28.59375 66.726562 27.917969 C 68.234375 27.230469 68.390625 25.746094 67.03125 25.015625 C 65.796875 24.355469 64.207031 24.398438 62.007812 25.152344 M 65.886719 26.289062 C 66.011719 26.949219 66.3125 27.363281 66.558594 27.214844 C 67.230469 26.800781 67.085938 25.640625 66.328125 25.347656 C 65.847656 25.164062 65.722656 25.433594 65.886719 26.289062 M 70.25 32.699219 L 49.25 36.785156 L 48.113281 39.175781 C 47.195312 41.109375 46.539062 41.761719 44.664062 42.589844 C 41.027344 44.199219 36.0625 43.0625 35.230469 40.433594 C 35.035156 39.828125 34.601562 39.542969 34.085938 39.683594 C 33.625 39.808594 27.679688 40.972656 20.875 42.265625 L 8.5 44.621094 L 8.5 59.488281 L 10.183594 60.191406 C 12.117188 60.996094 13.5 62.722656 13.5 64.324219 C 13.5 65.773438 11.328125 68.308594 9.75 68.703125 C 8.53125 69.011719 8.5 69.136719 8.5 73.507812 C 8.5 77.136719 8.640625 78 9.238281 78 C 9.644531 78 10.328125 78.539062 10.761719 79.195312 C 11.78125 80.753906 11.257812 82.90625 9.6875 83.621094 C 8.898438 83.976562 8.5 84.582031 8.5 85.40625 L 8.5 86.652344 L 29.875 86.34375 C 61.417969 85.890625 85.074219 83.664062 86.492188 81.011719 C 88.019531 78.160156 93.273438 44.660156 93.847656 34.125 L 94.152344 28.5 L 92.703125 28.554688 C 91.902344 28.585938 81.800781 30.453125 70.25 32.699219 M 39.65625 33.214844 C 36.699219 34.53125 35.503906 39.003906 37.554688 41.054688 C 38.457031 41.957031 39.050781 42.082031 41.628906 41.894531 C 44.257812 41.703125 44.832031 41.46875 46.074219 40.078125 C 47.914062 38.019531 47.933594 36.097656 46.125 34.382812 C 44.402344 32.75 41.769531 32.273438 39.65625 33.214844 M 45.164062 36.515625 C 45.195312 37.746094 45.035156 39.199219 44.816406 39.75 C 44.515625 40.492188 44.746094 40.386719 45.707031 39.347656 C 47.246094 37.675781 47.308594 36.992188 46.058594 35.445312 L 45.113281 34.28125 L 45.164062 36.515625 M 66.585938 40.65625 C 65.261719 42.070312 65.183594 44.058594 66.414062 45.171875 C 68.257812 46.839844 70.542969 45.777344 71.253906 42.917969 C 71.5 41.933594 71.316406 41.316406 70.542969 40.542969 C 69.1875 39.1875 67.933594 39.222656 66.585938 40.65625 M 67.414062 41.125 C 66.082031 42.199219 65.949219 43.449219 67.046875 44.546875 C 67.96875 45.46875 68.183594 45.5 69.160156 44.855469 C 70.433594 44.011719 70.832031 42.25 69.976562 41.222656 C 69.242188 40.335938 68.433594 40.304688 67.414062 41.125 M 13.015625 50.96875 C 12.226562 52.441406 12.398438 54.253906 13.414062 55.171875 C 14.484375 56.140625 16.542969 56.257812 17.398438 55.398438 C 18.175781 54.625 18.175781 51.375 17.398438 50.601562 C 16.421875 49.621094 13.609375 49.859375 13.015625 50.96875 M 27.621094 52.496094 C 25.179688 53.984375 24.003906 56.261719 24.003906 59.5 C 24.003906 64.054688 26.257812 66.742188 30.53125 67.265625 C 33.097656 67.582031 35.929688 66.226562 37.703125 63.835938 C 39.035156 62.039062 39.097656 57.515625 37.820312 55.101562 C 36.007812 51.671875 31.054688 50.40625 27.621094 52.496094 M 45.761719 53.257812 C 43.875 54.273438 43.515625 54.851562 43.507812 56.914062 C 43.503906 58.09375 43.925781 59.003906 44.960938 60.039062 C 46.878906 61.953125 49.308594 62.015625 51.460938 60.207031 C 55.609375 56.714844 50.628906 50.640625 45.761719 53.257812 M 27.710938 53.914062 C 25.660156 55.203125 24.8125 57.386719 25.121094 60.601562 C 25.324219 62.691406 25.667969 63.457031 26.914062 64.570312 C 29.957031 67.289062 34.445312 66.695312 36.585938 63.289062 C 38.089844 60.898438 37.636719 56.90625 35.628906 54.898438 C 33.625 52.890625 30.039062 52.449219 27.710938 53.914062 M 77.699219 54.636719 C 76.148438 56.058594 75.917969 56.570312 75.917969 58.574219 C 75.917969 61.105469 76.65625 62.667969 78.226562 63.449219 C 82.136719 65.398438 86.5 63.054688 86.5 59.003906 C 86.5 53.484375 81.605469 51.054688 77.699219 54.636719 M 45.328125 54.914062 C 43.464844 56.972656 45.160156 60.5 48.011719 60.5 C 49.410156 60.5 49.535156 60.230469 49.644531 56.898438 C 49.691406 55.441406 49.839844 55.160156 50.351562 55.585938 C 51.15625 56.253906 51.183594 57.722656 50.417969 59.15625 C 49.890625 60.144531 49.914062 60.183594 50.667969 59.5625 C 51.910156 58.539062 51.746094 55.730469 50.386719 54.777344 C 48.882812 53.722656 46.34375 53.792969 45.328125 54.914062 M 79.75 54.472656 C 77.832031 55.257812 76.75 56.992188 76.75 59.285156 C 76.75 61.9375 77.667969 62.984375 80.304688 63.335938 C 81.90625 63.550781 82.492188 63.371094 83.625 62.324219 C 84.382812 61.621094 84.992188 60.53125 84.980469 59.898438 C 84.964844 58.914062 84.859375 58.980469 84.253906 60.375 C 83.449219 62.234375 82.1875 62.675781 82.839844 60.875 C 83.0625 60.257812 83.203125 58.738281 83.148438 57.5 C 83.058594 55.429688 83.109375 55.328125 83.773438 56.21875 C 84.171875 56.753906 84.5 57.523438 84.5 57.929688 C 84.5 58.335938 84.644531 58.523438 84.816406 58.347656 C 85.410156 57.757812 83.9375 55.132812 82.691406 54.566406 C 81.277344 53.917969 81.113281 53.914062 79.75 54.472656 M 35.644531 58.582031 C 35.703125 59.773438 35.566406 61.417969 35.335938 62.238281 C 34.925781 63.714844 34.929688 63.71875 35.960938 62.785156 C 37.214844 61.648438 37.414062 57.964844 36.269531 57.015625 C 35.648438 56.5 35.554688 56.730469 35.644531 58.582031 M 40.75 68.105469 C 39.207031 68.988281 38.535156 70.105469 38.515625 71.796875 C 38.480469 75.410156 43.058594 76.265625 44.769531 72.964844 C 45.789062 70.992188 45.6875 70.144531 44.273438 68.726562 C 42.914062 67.371094 42.238281 67.25 40.75 68.105469 M 53.1875 70.6875 C 49.71875 72.265625 48.835938 76.683594 51.414062 79.570312 C 52.605469 80.902344 53.273438 81.191406 55.597656 81.382812 C 59.152344 81.679688 61.769531 80.519531 62.898438 78.152344 C 63.617188 76.640625 63.625 76.234375 62.976562 74.398438 C 62.578125 73.265625 61.683594 71.921875 60.992188 71.410156 C 59.304688 70.160156 55.191406 69.78125 53.1875 70.6875 M 54.320312 71.558594 C 52.0625 72.164062 51 73.429688 51 75.511719 C 51 80.285156 57.324219 82.574219 61.09375 79.167969 C 62.410156 77.976562 62.289062 74.890625 60.859375 73.230469 C 59.574219 71.738281 56.550781 70.964844 54.320312 71.558594 M 60.300781 75.378906 C 60.464844 76.203125 60.34375 77.355469 60.03125 77.9375 C 59.679688 78.601562 59.652344 79 59.964844 79 C 61.351562 79 61.960938 75.507812 60.75 74.5 C 60.105469 73.964844 60.042969 74.085938 60.300781 75.378906 M 18.855469 79.308594 C 18.277344 79.886719 18.449219 82.75 19.101562 83.398438 C 20.035156 84.335938 22.25 84.105469 23.28125 82.964844 C 24.136719 82.023438 24.152344 81.816406 23.46875 80.589844 C 22.914062 79.601562 22.261719 79.210938 20.964844 79.101562 C 20.003906 79.019531 19.054688 79.113281 18.855469 79.308594 "/>
</g>
</svg>
