<?xml version="1.0" encoding="UTF-8"?>
<svg xmlns="http://www.w3.org/2000/svg" xmlns:xlink="http://www.w3.org/1999/xlink" width="24px" height="24px" viewBox="0 0 24 24" version="1.1">
<g id="surface1">
<path style=" stroke:none;fill-rule:evenodd;fill:rgb(0%,0%,0%);fill-opacity:1;" d="M 10.5 3.292969 C 10.195312 3.550781 10.085938 3.710938 10.179688 3.765625 C 10.523438 3.980469 10.132812 4.769531 9.753906 4.625 C 9.148438 4.394531 9.046875 4.425781 8.128906 5.160156 C 7.277344 5.839844 7.21875 5.914062 7.324219 6.195312 C 7.550781 6.789062 7.09375 7.160156 6.316406 7.015625 C 5.925781 6.941406 5.792969 7.027344 3.734375 8.660156 L 1.5625 10.378906 L 1.558594 12.433594 L 1.558594 14.488281 L 1.941406 14.566406 C 2.507812 14.679688 2.761719 14.964844 2.761719 15.488281 C 2.761719 16.003906 2.339844 16.441406 1.839844 16.441406 C 1.550781 16.441406 1.550781 16.441406 1.585938 17.660156 C 1.621094 18.851562 1.625 18.882812 1.90625 18.902344 C 2.558594 18.949219 2.636719 19.820312 1.996094 19.898438 C 1.703125 19.933594 1.679688 19.976562 1.679688 20.527344 L 1.679688 21.121094 L 3.988281 21.117188 C 8.601562 21.109375 14.65625 20.824219 17.882812 20.457031 C 19.875 20.234375 20.605469 20.066406 20.875 19.777344 C 21.316406 19.304688 21.886719 16.453125 22.4375 12 C 22.929688 8.03125 23.015625 6.917969 22.859375 6.660156 C 22.695312 6.394531 21.464844 5.835938 19.054688 4.933594 C 17.035156 4.175781 15.34375 3.691406 13.441406 3.316406 C 11.042969 2.847656 11.03125 2.847656 10.5 3.292969 M 10.828125 3.425781 C 10.640625 3.558594 10.558594 3.734375 10.558594 4.019531 C 10.558594 4.589844 10.277344 4.832031 9.671875 4.773438 C 9.226562 4.730469 9.105469 4.785156 8.375 5.363281 C 7.652344 5.9375 7.574219 6.039062 7.632812 6.335938 C 7.746094 6.898438 7.347656 7.257812 6.601562 7.269531 C 6 7.277344 5.9375 7.3125 4.246094 8.640625 C 2.5 10.015625 2.085938 10.378906 2.414062 10.265625 C 2.503906 10.234375 3.882812 9.957031 5.476562 9.652344 L 8.375 9.097656 L 8.589844 8.621094 C 8.921875 7.882812 9.347656 7.640625 10.214844 7.703125 C 10.8125 7.746094 10.992188 7.816406 11.292969 8.117188 L 11.652344 8.476562 L 16.753906 7.488281 C 19.558594 6.949219 21.882812 6.476562 21.914062 6.445312 C 21.980469 6.378906 19.890625 5.484375 18.359375 4.917969 C 17.039062 4.433594 14.582031 3.792969 12.847656 3.484375 C 11.203125 3.191406 11.164062 3.191406 10.828125 3.425781 M 14.878906 5.84375 C 14.34375 6.042969 14.105469 6.617188 14.425781 6.9375 C 14.605469 7.117188 15.558594 7.125 16.066406 6.949219 C 16.695312 6.726562 16.828125 6.152344 16.3125 5.875 C 16.082031 5.753906 15.183594 5.734375 14.878906 5.84375 M 14.882812 6.035156 C 14.441406 6.1875 14.257812 6.554688 14.539062 6.734375 C 14.773438 6.882812 15.660156 6.863281 16.015625 6.699219 C 16.375 6.535156 16.414062 6.179688 16.089844 6.003906 C 15.792969 5.84375 15.410156 5.855469 14.882812 6.035156 M 15.8125 6.308594 C 15.84375 6.46875 15.914062 6.566406 15.972656 6.53125 C 16.136719 6.433594 16.101562 6.152344 15.917969 6.082031 C 15.804688 6.039062 15.773438 6.105469 15.8125 6.308594 M 16.859375 7.847656 L 11.820312 8.828125 L 11.546875 9.402344 C 11.328125 9.867188 11.167969 10.023438 10.71875 10.222656 C 9.847656 10.609375 8.65625 10.335938 8.453125 9.703125 C 8.410156 9.558594 8.304688 9.492188 8.179688 9.523438 C 8.070312 9.554688 6.644531 9.832031 5.011719 10.144531 L 2.039062 10.710938 L 2.039062 14.277344 L 2.445312 14.445312 C 2.90625 14.640625 3.238281 15.054688 3.238281 15.4375 C 3.238281 15.785156 2.71875 16.394531 2.339844 16.488281 C 2.046875 16.5625 2.039062 16.59375 2.039062 17.640625 C 2.039062 18.511719 2.074219 18.71875 2.21875 18.71875 C 2.316406 18.71875 2.480469 18.847656 2.582031 19.007812 C 2.828125 19.378906 2.703125 19.898438 2.324219 20.070312 C 2.136719 20.15625 2.039062 20.300781 2.039062 20.496094 L 2.039062 20.796875 L 7.171875 20.722656 C 14.738281 20.613281 20.417969 20.078125 20.757812 19.441406 C 21.125 18.757812 22.386719 10.71875 22.523438 8.191406 L 22.597656 6.839844 L 22.25 6.855469 C 22.058594 6.859375 19.632812 7.308594 16.859375 7.847656 M 9.519531 7.972656 C 8.808594 8.289062 8.519531 9.359375 9.011719 9.851562 C 9.230469 10.070312 9.371094 10.097656 9.992188 10.054688 C 10.621094 10.007812 10.761719 9.953125 11.058594 9.621094 C 11.5 9.125 11.503906 8.664062 11.070312 8.25 C 10.65625 7.859375 10.023438 7.746094 9.519531 7.972656 M 10.839844 8.765625 C 10.847656 9.058594 10.808594 9.40625 10.753906 9.539062 C 10.683594 9.71875 10.738281 9.691406 10.96875 9.441406 C 11.339844 9.042969 11.355469 8.878906 11.054688 8.507812 L 10.828125 8.226562 L 10.839844 8.765625 M 15.980469 9.757812 C 15.664062 10.097656 15.644531 10.574219 15.941406 10.839844 C 16.382812 11.242188 16.929688 10.984375 17.101562 10.300781 C 17.160156 10.0625 17.117188 9.914062 16.929688 9.730469 C 16.605469 9.40625 16.304688 9.414062 15.980469 9.757812 M 16.179688 9.871094 C 15.859375 10.128906 15.828125 10.429688 16.089844 10.691406 C 16.3125 10.914062 16.363281 10.921875 16.597656 10.765625 C 16.90625 10.5625 17 10.140625 16.792969 9.894531 C 16.617188 9.679688 16.425781 9.671875 16.179688 9.871094 M 3.125 12.230469 C 2.933594 12.585938 2.976562 13.019531 3.21875 13.242188 C 3.476562 13.472656 3.96875 13.5 4.175781 13.296875 C 4.363281 13.109375 4.363281 12.332031 4.175781 12.144531 C 3.941406 11.910156 3.265625 11.964844 3.125 12.230469 M 6.628906 12.597656 C 6.042969 12.957031 5.761719 13.503906 5.761719 14.28125 C 5.761719 15.375 6.300781 16.019531 7.328125 16.144531 C 7.945312 16.21875 8.625 15.894531 9.046875 15.320312 C 9.367188 14.890625 9.382812 13.804688 9.078125 13.226562 C 8.640625 12.402344 7.453125 12.097656 6.628906 12.597656 M 10.984375 12.78125 C 10.53125 13.027344 10.445312 13.164062 10.441406 13.660156 C 10.441406 13.941406 10.542969 14.160156 10.789062 14.410156 C 11.25 14.867188 11.835938 14.882812 12.351562 14.449219 C 13.347656 13.613281 12.152344 12.152344 10.984375 12.78125 M 6.652344 12.9375 C 6.160156 13.25 5.957031 13.773438 6.03125 14.542969 C 6.078125 15.046875 6.160156 15.230469 6.460938 15.496094 C 7.191406 16.148438 8.265625 16.007812 8.78125 15.191406 C 9.140625 14.617188 9.03125 13.65625 8.550781 13.175781 C 8.070312 12.695312 7.210938 12.585938 6.652344 12.9375 M 18.648438 13.113281 C 18.277344 13.453125 18.21875 13.578125 18.21875 14.058594 C 18.21875 14.664062 18.398438 15.039062 18.773438 15.226562 C 19.714844 15.695312 20.761719 15.132812 20.761719 14.160156 C 20.761719 12.835938 19.585938 12.253906 18.648438 13.113281 M 10.878906 13.179688 C 10.433594 13.671875 10.839844 14.519531 11.523438 14.519531 C 11.859375 14.519531 11.886719 14.453125 11.914062 13.65625 C 11.925781 13.304688 11.960938 13.238281 12.085938 13.339844 C 12.277344 13.5 12.285156 13.851562 12.101562 14.199219 C 11.972656 14.433594 11.980469 14.445312 12.160156 14.296875 C 12.457031 14.050781 12.417969 13.375 12.09375 13.148438 C 11.730469 12.894531 11.121094 12.910156 10.878906 13.179688 M 19.140625 13.074219 C 18.679688 13.261719 18.421875 13.679688 18.421875 14.226562 C 18.421875 14.863281 18.640625 15.117188 19.273438 15.199219 C 19.65625 15.253906 19.796875 15.210938 20.070312 14.957031 C 20.25 14.789062 20.398438 14.527344 20.394531 14.375 C 20.390625 14.140625 20.367188 14.15625 20.222656 14.488281 C 20.027344 14.9375 19.726562 15.042969 19.882812 14.609375 C 19.933594 14.460938 19.96875 14.097656 19.957031 13.800781 C 19.933594 13.304688 19.945312 13.277344 20.105469 13.492188 C 20.203125 13.621094 20.28125 13.804688 20.28125 13.902344 C 20.28125 14 20.3125 14.046875 20.355469 14.003906 C 20.5 13.863281 20.144531 13.230469 19.847656 13.09375 C 19.507812 12.941406 19.46875 12.9375 19.140625 13.074219 M 8.554688 14.058594 C 8.570312 14.347656 8.535156 14.742188 8.480469 14.9375 C 8.382812 15.292969 8.382812 15.292969 8.632812 15.066406 C 8.933594 14.796875 8.980469 13.910156 8.703125 13.683594 C 8.554688 13.558594 8.535156 13.613281 8.554688 14.058594 M 9.78125 16.34375 C 9.410156 16.558594 9.246094 16.824219 9.242188 17.230469 C 9.234375 18.097656 10.335938 18.304688 10.746094 17.511719 C 10.988281 17.039062 10.964844 16.835938 10.625 16.496094 C 10.300781 16.167969 10.136719 16.140625 9.78125 16.34375 M 12.765625 16.964844 C 11.933594 17.34375 11.722656 18.402344 12.339844 19.097656 C 12.625 19.417969 12.785156 19.484375 13.34375 19.53125 C 14.195312 19.601562 14.824219 19.324219 15.09375 18.757812 C 15.269531 18.394531 15.269531 18.296875 15.113281 17.855469 C 15.019531 17.585938 14.804688 17.261719 14.636719 17.136719 C 14.234375 16.839844 13.246094 16.746094 12.765625 16.964844 M 13.035156 17.175781 C 12.496094 17.320312 12.238281 17.621094 12.238281 18.121094 C 12.238281 19.269531 13.757812 19.816406 14.664062 19 C 14.976562 18.714844 14.949219 17.972656 14.605469 17.574219 C 14.296875 17.214844 13.570312 17.03125 13.035156 17.175781 M 14.472656 18.089844 C 14.511719 18.289062 14.484375 18.566406 14.40625 18.707031 C 14.324219 18.863281 14.316406 18.960938 14.390625 18.960938 C 14.722656 18.960938 14.871094 18.121094 14.582031 17.878906 C 14.425781 17.75 14.410156 17.78125 14.472656 18.089844 M 4.527344 19.035156 C 4.386719 19.171875 4.425781 19.859375 4.585938 20.015625 C 4.808594 20.242188 5.339844 20.183594 5.585938 19.910156 C 5.792969 19.683594 5.796875 19.636719 5.632812 19.34375 C 5.5 19.105469 5.34375 19.011719 5.03125 18.984375 C 4.800781 18.964844 4.574219 18.988281 4.527344 19.035156 "/>
</g>
</svg>
