<?xml version="1.0" encoding="UTF-8"?>
<svg xmlns="http://www.w3.org/2000/svg" xmlns:xlink="http://www.w3.org/1999/xlink" width="24px" height="24px" viewBox="0 0 24 24" version="1.1">
<g id="surface1">
<path style=" stroke:none;fill-rule:evenodd;fill:rgb(0%,0%,0%);fill-opacity:1;" d="M 8.050781 0.164062 C 7.953125 0.285156 7.933594 0.746094 7.992188 1.789062 C 8.039062 2.585938 8.109375 3.238281 8.148438 3.238281 C 8.1875 3.238281 8.789062 3.023438 9.480469 2.761719 C 10.902344 2.21875 10.953125 2.210938 11.164062 2.464844 C 11.398438 2.746094 11.199219 2.875 9.5625 3.492188 C 8.148438 4.027344 8.097656 4.054688 8.0625 4.421875 L 8.023438 4.800781 L 9.023438 4.429688 C 11.019531 3.683594 10.898438 3.714844 11.09375 3.910156 C 11.191406 4.007812 11.242188 4.160156 11.207031 4.25 C 11.171875 4.339844 10.445312 4.667969 9.59375 4.984375 C 8.097656 5.53125 8.039062 5.566406 8.039062 5.898438 C 8.039062 6.085938 8.082031 6.238281 8.128906 6.238281 C 8.179688 6.238281 8.789062 6.023438 9.480469 5.761719 C 10.902344 5.21875 10.953125 5.210938 11.164062 5.464844 C 11.398438 5.746094 11.199219 5.875 9.5625 6.492188 L 8.101562 7.042969 L 8.066406 7.570312 L 8.03125 8.101562 L 8.460938 8.109375 C 8.941406 8.121094 9.242188 8.359375 9.582031 9.003906 C 9.742188 9.308594 10.144531 9.628906 11.078125 10.199219 C 12.640625 11.160156 12.949219 11.453125 13.5 12.496094 L 13.933594 13.320312 L 15.179688 13.320312 L 15.085938 11.191406 C 15.035156 10.019531 15.011719 7.035156 15.027344 4.558594 L 15.058594 0.0585938 L 11.625 0.0273438 C 8.789062 0 8.167969 0.0273438 8.050781 0.164062 M 8.167969 8.929688 C 7.773438 9.40625 8.691406 10.539062 10.183594 11.414062 C 11.234375 12.03125 11.808594 12.488281 12.015625 12.875 C 12.101562 13.027344 12.0625 13.210938 11.867188 13.558594 C 11.605469 14.023438 11.59375 14.03125 10.8125 14.066406 L 10.019531 14.101562 L 9.984375 14.53125 C 9.890625 15.664062 11.039062 17.347656 12.277344 17.886719 C 13.164062 18.277344 14.242188 18.265625 15.128906 17.859375 C 16.390625 17.28125 17.304688 15.992188 17.328125 14.761719 L 17.339844 14.101562 L 15.421875 14.039062 L 13.5 13.980469 L 12.996094 13.09375 C 12.332031 11.921875 12.023438 11.617188 10.722656 10.847656 C 9.730469 10.261719 8.878906 9.523438 8.878906 9.246094 C 8.878906 9.109375 8.535156 8.761719 8.40625 8.761719 C 8.351562 8.761719 8.246094 8.835938 8.167969 8.929688 M 7.992188 11.308594 C 7.957031 11.589844 7.898438 12.710938 7.859375 13.800781 C 7.734375 17.363281 7.367188 20.503906 6.824219 22.648438 C 6.6875 23.191406 6.605469 23.71875 6.644531 23.820312 C 6.703125 23.976562 7.363281 24 11.679688 24 C 15.773438 24 16.675781 23.96875 16.789062 23.832031 C 16.894531 23.707031 16.871094 23.527344 16.691406 23.066406 C 16.363281 22.238281 16.089844 21.160156 15.839844 19.738281 C 15.683594 18.851562 15.585938 18.550781 15.464844 18.582031 C 15.375 18.601562 14.980469 18.703125 14.59375 18.800781 C 13.015625 19.207031 11.195312 18.496094 10.140625 17.070312 C 9.65625 16.414062 9.238281 15.207031 9.238281 14.457031 C 9.238281 13.738281 9.726562 13.320312 10.5625 13.320312 C 11.644531 13.320312 11.476562 13 9.90625 12.09375 C 9.441406 11.824219 8.832031 11.421875 8.558594 11.199219 L 8.054688 10.796875 L 7.992188 11.308594 M 12.359375 14.277344 C 12.117188 14.863281 12.46875 15.269531 12.832031 14.828125 C 12.945312 14.695312 12.933594 14.574219 12.785156 14.289062 C 12.679688 14.085938 12.574219 13.921875 12.550781 13.921875 C 12.527344 13.921875 12.441406 14.082031 12.359375 14.277344 M 10.800781 15 C 10.800781 15.34375 11.371094 16.261719 11.851562 16.679688 C 13.050781 17.738281 14.683594 17.640625 15.761719 16.445312 C 16.1875 15.972656 16.558594 15.300781 16.558594 15.003906 C 16.558594 14.925781 16.039062 14.878906 15.148438 14.878906 L 13.738281 14.878906 L 13.40625 15.300781 C 13.125 15.648438 12.992188 15.71875 12.609375 15.71875 C 12.121094 15.71875 11.519531 15.351562 11.519531 15.050781 C 11.519531 14.941406 11.390625 14.878906 11.160156 14.878906 C 10.960938 14.878906 10.800781 14.933594 10.800781 15 "/>
</g>
</svg>
