<?xml version="1.0" encoding="UTF-8"?>
<svg xmlns="http://www.w3.org/2000/svg" xmlns:xlink="http://www.w3.org/1999/xlink" width="100px" height="100px" viewBox="0 0 100 100" version="1.1">
<g id="surface1">
<path style=" stroke:none;fill-rule:evenodd;fill:rgb(0%,0%,0%);fill-opacity:1;" d="M 33.550781 0.6875 C 33.132812 1.195312 33.0625 3.113281 33.308594 7.445312 C 33.496094 10.777344 33.785156 13.5 33.953125 13.5 C 34.117188 13.5 36.613281 12.601562 39.5 11.5 C 45.421875 9.242188 45.632812 9.207031 46.515625 10.269531 C 47.496094 11.449219 46.664062 11.980469 39.851562 14.550781 C 33.945312 16.777344 33.746094 16.902344 33.59375 18.425781 L 33.4375 19.996094 L 37.59375 18.449219 C 45.90625 15.351562 45.40625 15.476562 46.21875 16.289062 C 46.625 16.695312 46.839844 17.332031 46.699219 17.703125 C 46.554688 18.078125 43.527344 19.453125 39.96875 20.761719 C 33.742188 23.050781 33.5 23.195312 33.5 24.570312 C 33.5 25.355469 33.667969 26 33.875 26 C 34.082031 26 36.613281 25.101562 39.5 24 C 45.421875 21.742188 45.632812 21.707031 46.515625 22.769531 C 47.496094 23.949219 46.664062 24.480469 39.851562 27.050781 L 33.75 29.351562 L 33.605469 31.550781 L 33.457031 33.75 L 35.253906 33.789062 C 37.25 33.832031 38.507812 34.839844 39.929688 37.519531 C 40.597656 38.785156 42.269531 40.121094 46.152344 42.5 C 52.675781 46.492188 53.964844 47.714844 56.25 52.070312 L 58.054688 55.5 L 63.25 55.5 L 62.867188 46.625 C 62.652344 41.742188 62.542969 29.3125 62.617188 19 L 62.75 0.25 L 48.441406 0.117188 C 36.628906 0.0078125 34.03125 0.109375 33.550781 0.6875 M 34.039062 37.203125 C 32.390625 39.191406 36.210938 43.910156 42.429688 47.5625 C 46.8125 50.132812 49.195312 52.03125 50.066406 53.636719 C 50.421875 54.289062 50.253906 55.054688 49.445312 56.492188 C 48.351562 58.4375 48.304688 58.460938 45.042969 58.605469 L 41.75 58.75 L 41.601562 60.539062 C 41.203125 65.261719 45.992188 72.28125 51.148438 74.535156 C 54.851562 76.15625 59.347656 76.113281 63.035156 74.417969 C 68.289062 72.003906 72.101562 66.625 72.199219 61.5 L 72.25 58.75 L 56.25 58.25 L 54.15625 54.558594 C 51.382812 49.675781 50.101562 48.40625 44.679688 45.203125 C 40.539062 42.761719 37 39.679688 37 38.519531 C 37 37.960938 35.570312 36.5 35.027344 36.5 C 34.804688 36.5 34.359375 36.816406 34.039062 37.203125 M 33.304688 47.117188 C 33.160156 48.289062 32.914062 52.960938 32.753906 57.5 C 32.226562 72.34375 30.691406 85.4375 28.433594 94.371094 C 27.859375 96.636719 27.519531 98.832031 27.679688 99.246094 C 27.929688 99.902344 30.675781 100 48.671875 100 C 65.726562 100 69.480469 99.878906 69.953125 99.304688 C 70.394531 98.773438 70.300781 98.03125 69.539062 96.101562 C 68.183594 92.65625 67.035156 88.171875 66 82.25 C 65.355469 78.554688 64.949219 77.292969 64.4375 77.417969 C 64.058594 77.507812 62.425781 77.921875 60.804688 78.339844 C 54.238281 80.023438 46.640625 77.066406 42.253906 71.121094 C 40.234375 68.382812 38.5 63.359375 38.5 60.242188 C 38.5 57.246094 40.527344 55.5 44.007812 55.5 C 48.527344 55.5 47.8125 54.167969 41.273438 50.390625 C 39.335938 49.273438 36.808594 47.597656 35.65625 46.671875 L 33.5625 44.984375 L 33.304688 47.117188 M 51.503906 59.492188 C 50.492188 61.929688 51.945312 63.621094 53.46875 61.785156 C 53.933594 61.230469 53.886719 60.734375 53.269531 59.535156 C 52.832031 58.691406 52.394531 58 52.296875 58 C 52.199219 58 51.84375 58.671875 51.503906 59.492188 M 45 62.503906 C 45 63.9375 47.386719 67.753906 49.375 69.503906 C 54.378906 73.910156 61.1875 73.5 65.671875 68.523438 C 67.449219 66.554688 69 63.753906 69 62.515625 C 69 62.191406 66.828125 62 63.125 62 L 57.25 62 L 55.851562 63.75 C 54.695312 65.203125 54.132812 65.5 52.546875 65.5 C 50.503906 65.5 48 63.964844 48 62.714844 C 48 62.253906 47.464844 62 46.5 62 C 45.675781 62 45 62.226562 45 62.503906 "/>
</g>
</svg>
