<?xml version="1.0" encoding="UTF-8"?>
<svg xmlns="http://www.w3.org/2000/svg" xmlns:xlink="http://www.w3.org/1999/xlink" width="100px" height="100px" viewBox="0 0 100 100" version="1.1">
<g id="surface1">
<path style=" stroke:none;fill-rule:evenodd;fill:rgb(0%,0%,0%);fill-opacity:1;" d="M 41.550781 11.523438 C 39.519531 12.054688 36.226562 13.371094 34.238281 14.441406 C 32.246094 15.515625 29.859375 16.558594 28.933594 16.757812 C 22.703125 18.105469 17.882812 23.511719 18.660156 28.28125 C 18.847656 29.457031 18.574219 30.699219 17.734375 32.433594 C 16.019531 35.988281 14.660156 40.242188 13.953125 44.257812 C 13.5625 46.488281 12.9375 48.203125 12.230469 49 C 8.058594 53.707031 8.316406 57.882812 13.070312 62.582031 C 14.644531 64.136719 16.429688 66.386719 17.035156 67.582031 C 24.742188 82.761719 44.5625 92.277344 61.15625 88.761719 C 76.074219 85.601562 88.289062 70.363281 90.433594 52.25 C 92.695312 33.109375 79.152344 15.652344 58.78125 11.449219 C 52.914062 10.238281 46.355469 10.265625 41.550781 11.523438 M 52.9375 18.585938 C 56.511719 19.957031 60.222656 23.554688 60.972656 26.375 C 62.339844 31.5 58.300781 38.316406 52.25 41.101562 C 50.078125 42.097656 48.960938 42.25 43.75 42.242188 C 35.613281 42.234375 28.386719 40.253906 23.835938 36.78125 C 22.910156 36.074219 22.019531 35.5 21.847656 35.5 C 21.507812 35.5 19 43.171875 19 44.21875 C 19 44.761719 19.382812 44.75 21.105469 44.15625 C 22.265625 43.757812 24.964844 43.175781 27.105469 42.863281 C 34.46875 41.789062 43.367188 44.105469 46.503906 47.910156 L 47.945312 49.660156 L 52.347656 45.636719 C 58.03125 40.445312 72.5 25.660156 72.5 25.042969 C 72.5 23.722656 64.789062 19.789062 59.617188 18.464844 C 57.539062 17.933594 54.582031 17.511719 53.046875 17.527344 L 50.25 17.550781 L 52.9375 18.585938 M 32 19.492188 C 27.660156 20.035156 24.832031 21.242188 23.007812 23.320312 C 21.378906 25.175781 21.210938 26.027344 22.03125 28.371094 C 22.441406 29.550781 22.785156 29.832031 23.570312 29.625 C 24.453125 29.394531 24.5625 29.566406 24.414062 30.992188 C 24.1875 33.238281 25.636719 34.238281 26.773438 32.617188 C 27.203125 32.003906 27.769531 31.5 28.027344 31.5 C 28.671875 31.5 28.628906 33.863281 27.976562 34.265625 C 27.617188 34.488281 27.636719 34.8125 28.035156 35.292969 C 28.976562 36.429688 29.828125 36.121094 30.933594 34.25 C 31.5 33.289062 32.199219 32.5 32.484375 32.5 C 33.273438 32.5 33.097656 34.636719 32.199219 35.921875 C 31.300781 37.203125 31.3125 37.242188 32.867188 37.71875 C 33.804688 38.007812 34.125 37.769531 34.839844 36.273438 C 35.308594 35.285156 35.929688 34.558594 36.222656 34.65625 C 36.96875 34.898438 37.179688 36.929688 36.542969 37.699219 C 35.910156 38.460938 36.324219 39 37.550781 39 C 38.035156 39 38.578125 38.535156 38.757812 37.972656 C 39.203125 36.570312 40.789062 36.929688 40.632812 38.394531 C 40.515625 39.445312 40.695312 39.5 44.164062 39.5 C 48.921875 39.5 52.570312 38.382812 55.003906 36.1875 C 58.601562 32.9375 59.015625 27.859375 55.941406 24.6875 C 53.917969 22.601562 50.214844 20.792969 46.5 20.078125 C 42.457031 19.296875 35.710938 19.023438 32 19.492188 M 43.75 25.355469 C 42 25.777344 41.703125 26.5 43.273438 26.503906 C 45.867188 26.507812 48.542969 27.527344 50.375 29.207031 C 53.316406 31.898438 51.527344 32.734375 46 31.25 C 41.304688 29.988281 40.300781 30.375 43.898438 32.054688 C 48.015625 33.976562 51.054688 34.40625 52.738281 33.304688 C 54.441406 32.1875 54.355469 30.4375 52.484375 28.308594 C 50.390625 25.925781 46.648438 24.660156 43.75 25.355469 M 67.882812 39.355469 L 58.011719 49.25 L 62.632812 49.25 C 66.925781 49.25 67.523438 49.378906 71.113281 51.09375 C 73.242188 52.109375 76.074219 53.964844 77.410156 55.214844 C 79.597656 57.261719 80.292969 58.394531 81.847656 62.453125 C 82.261719 63.535156 82.421875 63.308594 83.449219 60.203125 C 85.347656 54.4375 85.832031 48.886719 84.859375 43.949219 C 83.980469 39.484375 81.460938 33.816406 79.152344 31.105469 L 77.75 29.457031 L 67.882812 39.355469 M 25.75 45.488281 C 18.226562 47.148438 13.007812 51.207031 13.003906 55.398438 C 12.996094 58.621094 15.703125 61.910156 19.445312 63.230469 C 21.65625 64.011719 29.152344 64.226562 31.339844 63.574219 C 33.097656 63.050781 44.5 52.980469 44.5 51.949219 C 44.5 50.4375 41.679688 47.699219 38.878906 46.496094 C 35.945312 45.230469 29.242188 44.71875 25.75 45.488281 M 58.691406 52.71875 C 56.984375 53.460938 54.882812 55.925781 54.019531 58.199219 C 52.859375 61.246094 55.105469 64.445312 59.984375 66.699219 C 62.714844 67.960938 62.726562 67.960938 63.773438 66.976562 C 64.90625 65.914062 65.5 66.121094 65.5 67.582031 C 65.5 68.835938 66.71875 68.738281 67.597656 67.414062 C 68.402344 66.203125 69.5 66.527344 69.5 67.984375 C 69.5 69.46875 71.21875 68.660156 71.921875 66.84375 C 72.507812 65.328125 72.574219 65.296875 73.25 66.195312 C 73.644531 66.714844 74.03125 67.347656 74.117188 67.597656 C 74.199219 67.851562 74.65625 67.910156 75.132812 67.726562 C 75.734375 67.496094 75.90625 67.054688 75.707031 66.253906 C 75.339844 64.792969 76.433594 64.046875 77.265625 65.1875 C 77.828125 65.953125 77.910156 65.957031 78.191406 65.222656 C 79.695312 61.304688 74.742188 54.910156 68.535156 52.765625 C 65.820312 51.828125 60.792969 51.800781 58.691406 52.71875 M 23.859375 53.546875 C 21.53125 54.09375 19.398438 55.171875 18.503906 56.246094 C 17.433594 57.535156 19.246094 58.925781 22.773438 59.519531 C 27.453125 60.300781 31.808594 59.230469 33.003906 56.996094 C 33.671875 55.742188 33.480469 55.75 31.242188 57.070312 C 29.65625 58.007812 28.957031 58.101562 25.671875 57.824219 C 21.558594 57.476562 20.503906 57.121094 21.570312 56.445312 C 22.480469 55.867188 26.746094 54.667969 29.378906 54.25 C 30.546875 54.0625 31.378906 53.707031 31.222656 53.457031 C 30.875 52.890625 26.40625 52.945312 23.859375 53.546875 M 60.265625 54.578125 C 57.773438 56.539062 56.507812 61.652344 58.339844 62.355469 C 58.941406 62.585938 59.6875 62.046875 60.964844 60.464844 C 61.945312 59.246094 63.640625 57.414062 64.726562 56.394531 C 65.816406 55.375 66.570312 54.402344 66.398438 54.234375 C 65.941406 53.773438 62.976562 55.402344 61.039062 57.179688 L 59.332031 58.75 L 60.710938 56.335938 C 61.46875 55.007812 61.988281 53.824219 61.871094 53.703125 C 61.75 53.585938 61.027344 53.976562 60.265625 54.578125 M 44.710938 61.125 C 39.121094 66.027344 31.492188 74.003906 31.503906 74.933594 C 31.515625 75.671875 37.683594 79.140625 41.554688 80.582031 C 45.101562 81.90625 46.640625 82.183594 51.511719 82.382812 C 58.238281 82.65625 61.773438 81.953125 67.28125 79.261719 C 70.484375 77.699219 77.5 72.027344 77.5 71.003906 C 77.5 70.777344 76.207031 70.9375 74.625 71.351562 C 70.667969 72.394531 63.734375 71.992188 59.789062 70.492188 C 56.433594 69.214844 52.871094 66.191406 51.457031 63.417969 C 50.414062 61.367188 50.199219 57.996094 51.015625 56.46875 C 51.300781 55.933594 51.441406 55.5 51.328125 55.5 C 51.21875 55.5 48.238281 58.03125 44.710938 61.125 M 26.125 66.949219 L 24.003906 67.25 L 25.230469 68.75 L 26.460938 70.25 L 27.710938 68.75 C 28.976562 67.234375 29.3125 66.4375 28.625 66.574219 C 28.417969 66.617188 27.292969 66.785156 26.125 66.949219 "/>
</g>
</svg>
