<?xml version="1.0" encoding="UTF-8"?>
<svg xmlns="http://www.w3.org/2000/svg" xmlns:xlink="http://www.w3.org/1999/xlink" width="24px" height="24px" viewBox="0 0 24 24" version="1.1">
<g id="surface1">
<path style=" stroke:none;fill-rule:evenodd;fill:rgb(0%,0%,0%);fill-opacity:1;" d="M 9.972656 2.765625 C 9.484375 2.894531 8.695312 3.207031 8.214844 3.464844 C 7.738281 3.722656 7.167969 3.972656 6.945312 4.023438 C 5.449219 4.34375 4.292969 5.644531 4.476562 6.789062 C 4.523438 7.070312 4.457031 7.367188 4.257812 7.785156 C 3.84375 8.636719 3.519531 9.65625 3.347656 10.621094 C 3.253906 11.15625 3.105469 11.570312 2.933594 11.761719 C 1.933594 12.890625 1.996094 13.890625 3.136719 15.019531 C 3.515625 15.394531 3.941406 15.933594 4.089844 16.21875 C 5.9375 19.863281 10.695312 22.144531 14.679688 21.300781 C 18.257812 20.542969 21.191406 16.886719 21.703125 12.539062 C 22.246094 7.945312 18.996094 3.757812 14.109375 2.746094 C 12.699219 2.457031 11.125 2.464844 9.972656 2.765625 M 12.703125 4.460938 C 13.5625 4.789062 14.453125 5.652344 14.632812 6.328125 C 14.960938 7.558594 13.992188 9.195312 12.539062 9.863281 C 12.019531 10.105469 11.75 10.140625 10.5 10.136719 C 8.546875 10.136719 6.8125 9.660156 5.71875 8.828125 C 5.5 8.660156 5.285156 8.519531 5.242188 8.519531 C 5.160156 8.519531 4.558594 10.363281 4.558594 10.613281 C 4.558594 10.742188 4.652344 10.742188 5.066406 10.597656 C 5.34375 10.5 5.992188 10.363281 6.503906 10.289062 C 8.273438 10.03125 10.40625 10.585938 11.160156 11.5 L 11.507812 11.917969 L 12.5625 10.953125 C 13.929688 9.707031 17.398438 6.160156 17.398438 6.011719 C 17.398438 5.695312 15.550781 4.75 14.308594 4.433594 C 13.808594 4.304688 13.101562 4.203125 12.730469 4.207031 L 12.058594 4.210938 L 12.703125 4.460938 M 7.679688 4.679688 C 6.640625 4.808594 5.960938 5.097656 5.523438 5.597656 C 5.128906 6.042969 5.089844 6.246094 5.289062 6.808594 C 5.386719 7.09375 5.46875 7.160156 5.65625 7.109375 C 5.871094 7.054688 5.894531 7.097656 5.859375 7.4375 C 5.804688 7.976562 6.152344 8.21875 6.425781 7.828125 C 6.527344 7.679688 6.664062 7.558594 6.726562 7.558594 C 6.882812 7.558594 6.871094 8.125 6.714844 8.222656 C 6.628906 8.277344 6.632812 8.355469 6.730469 8.46875 C 6.953125 8.742188 7.160156 8.667969 7.425781 8.21875 C 7.558594 7.988281 7.726562 7.800781 7.796875 7.800781 C 7.984375 7.800781 7.945312 8.3125 7.726562 8.621094 C 7.511719 8.929688 7.515625 8.9375 7.886719 9.050781 C 8.113281 9.121094 8.191406 9.066406 8.363281 8.707031 C 8.472656 8.46875 8.625 8.292969 8.691406 8.316406 C 8.871094 8.375 8.921875 8.863281 8.769531 9.046875 C 8.617188 9.230469 8.71875 9.359375 9.011719 9.359375 C 9.128906 9.359375 9.257812 9.25 9.300781 9.113281 C 9.410156 8.777344 9.789062 8.863281 9.75 9.214844 C 9.722656 9.46875 9.765625 9.480469 10.597656 9.480469 C 11.742188 9.480469 12.617188 9.210938 13.199219 8.683594 C 14.0625 7.90625 14.164062 6.6875 13.425781 5.925781 C 12.941406 5.425781 12.050781 4.992188 11.160156 4.820312 C 10.191406 4.632812 8.570312 4.566406 7.679688 4.679688 M 10.5 6.085938 C 10.082031 6.1875 10.007812 6.359375 10.386719 6.359375 C 11.007812 6.363281 11.652344 6.605469 12.089844 7.007812 C 12.796875 7.65625 12.367188 7.855469 11.039062 7.5 C 9.914062 7.199219 9.671875 7.289062 10.535156 7.695312 C 11.523438 8.152344 12.253906 8.257812 12.65625 7.992188 C 13.066406 7.726562 13.046875 7.304688 12.597656 6.792969 C 12.09375 6.222656 11.195312 5.917969 10.5 6.085938 M 16.292969 9.445312 L 13.921875 11.820312 L 15.03125 11.820312 C 16.0625 11.820312 16.207031 11.851562 17.066406 12.261719 C 17.578125 12.507812 18.257812 12.953125 18.578125 13.25 C 19.105469 13.742188 19.269531 14.015625 19.644531 14.988281 C 19.742188 15.25 19.78125 15.195312 20.027344 14.449219 C 20.484375 13.066406 20.601562 11.730469 20.367188 10.546875 C 20.15625 9.476562 19.550781 8.117188 18.996094 7.464844 L 18.660156 7.070312 L 16.292969 9.445312 M 6.179688 10.917969 C 4.375 11.316406 3.121094 12.289062 3.121094 13.296875 C 3.121094 14.070312 3.769531 14.859375 4.667969 15.175781 C 5.199219 15.363281 6.996094 15.414062 7.519531 15.257812 C 7.945312 15.132812 10.679688 12.714844 10.679688 12.46875 C 10.679688 12.105469 10.003906 11.449219 9.332031 11.160156 C 8.628906 10.855469 7.019531 10.730469 6.179688 10.917969 M 14.085938 12.652344 C 13.675781 12.832031 13.171875 13.421875 12.964844 13.96875 C 12.6875 14.699219 13.226562 15.46875 14.398438 16.007812 C 15.050781 16.3125 15.054688 16.3125 15.304688 16.074219 C 15.578125 15.820312 15.71875 15.871094 15.71875 16.21875 C 15.71875 16.519531 16.011719 16.496094 16.222656 16.179688 C 16.417969 15.886719 16.679688 15.96875 16.679688 16.316406 C 16.679688 16.671875 17.09375 16.476562 17.261719 16.042969 C 17.402344 15.679688 17.417969 15.671875 17.582031 15.886719 C 17.675781 16.011719 17.769531 16.164062 17.789062 16.222656 C 17.808594 16.285156 17.917969 16.296875 18.03125 16.253906 C 18.175781 16.199219 18.21875 16.09375 18.167969 15.902344 C 18.082031 15.550781 18.34375 15.371094 18.542969 15.644531 C 18.679688 15.828125 18.699219 15.828125 18.765625 15.652344 C 19.125 14.714844 17.9375 13.179688 16.449219 12.664062 C 15.796875 12.4375 14.589844 12.433594 14.085938 12.652344 M 5.726562 12.851562 C 5.167969 12.984375 4.65625 13.242188 4.441406 13.5 C 4.183594 13.808594 4.617188 14.140625 5.464844 14.285156 C 6.589844 14.472656 7.632812 14.214844 7.921875 13.679688 C 8.082031 13.378906 8.035156 13.378906 7.5 13.695312 C 7.117188 13.921875 6.949219 13.945312 6.160156 13.878906 C 5.175781 13.792969 4.921875 13.710938 5.175781 13.546875 C 5.394531 13.410156 6.417969 13.121094 7.050781 13.019531 C 7.332031 12.976562 7.53125 12.890625 7.492188 12.828125 C 7.410156 12.695312 6.335938 12.707031 5.726562 12.851562 M 14.464844 13.097656 C 13.867188 13.570312 13.5625 14.796875 14 14.964844 C 14.144531 15.019531 14.324219 14.890625 14.632812 14.511719 C 14.867188 14.21875 15.273438 13.78125 15.535156 13.535156 C 15.796875 13.289062 15.976562 13.054688 15.9375 13.015625 C 15.824219 12.90625 15.113281 13.296875 14.648438 13.722656 L 14.238281 14.101562 L 14.570312 13.519531 C 14.753906 13.203125 14.878906 12.917969 14.847656 12.890625 C 14.820312 12.859375 14.648438 12.953125 14.464844 13.097656 M 10.730469 14.671875 C 9.390625 15.847656 7.558594 17.761719 7.5625 17.984375 C 7.5625 18.160156 9.042969 18.992188 9.972656 19.339844 C 10.824219 19.65625 11.195312 19.722656 12.363281 19.769531 C 13.976562 19.835938 14.824219 19.667969 16.148438 19.023438 C 16.917969 18.648438 18.601562 17.285156 18.601562 17.039062 C 18.601562 16.988281 18.289062 17.023438 17.910156 17.125 C 16.960938 17.375 15.296875 17.277344 14.351562 16.917969 C 13.542969 16.609375 12.691406 15.886719 12.351562 15.21875 C 12.097656 14.730469 12.046875 13.917969 12.246094 13.550781 C 12.3125 13.425781 12.347656 13.320312 12.320312 13.320312 C 12.292969 13.320312 11.578125 13.925781 10.730469 14.671875 M 6.269531 16.066406 L 5.761719 16.140625 L 6.054688 16.5 L 6.351562 16.859375 L 6.652344 16.5 C 6.953125 16.136719 7.035156 15.945312 6.871094 15.976562 C 6.820312 15.988281 6.550781 16.027344 6.269531 16.066406 "/>
</g>
</svg>
