<?xml version="1.0" encoding="UTF-8"?>
<svg xmlns="http://www.w3.org/2000/svg" xmlns:xlink="http://www.w3.org/1999/xlink" width="24px" height="24px" viewBox="0 0 24 24" version="1.1">
<g id="surface1">
<path style=" stroke:none;fill-rule:evenodd;fill:rgb(0%,0%,0%);fill-opacity:1;" d="M 9.644531 3.117188 C 8.304688 3.46875 7.367188 4.007812 6.414062 4.964844 C 5.4375 5.953125 4.835938 7.015625 4.398438 8.523438 C 4.070312 9.667969 3.839844 11.296875 3.839844 12.523438 C 3.839844 13.257812 3.816406 13.335938 3.628906 13.261719 C 2.410156 12.78125 1.238281 13.296875 0.640625 14.578125 C -0.136719 16.246094 0.703125 17.742188 3.242188 19.214844 C 4.355469 19.859375 6.296875 20.535156 7.921875 20.839844 C 9.5625 21.144531 14.457031 21.152344 16.074219 20.84375 C 17.691406 20.539062 19.648438 19.859375 20.757812 19.214844 C 23.285156 17.75 24.132812 16.242188 23.359375 14.578125 C 22.761719 13.296875 21.589844 12.78125 20.371094 13.261719 C 20.183594 13.335938 20.160156 13.261719 20.160156 12.578125 C 20.160156 12.160156 20.105469 11.355469 20.035156 10.796875 C 19.515625 6.527344 17.597656 3.953125 14.308594 3.113281 C 13.085938 2.800781 10.847656 2.800781 9.644531 3.117188 M 10.363281 4.257812 C 7.375 4.800781 5.480469 7.386719 5.199219 11.296875 L 5.125 12.332031 L 5.714844 12.597656 C 6.957031 13.152344 8.664062 13.453125 11.039062 13.523438 C 14.175781 13.621094 16.566406 13.308594 18.253906 12.582031 L 18.871094 12.316406 L 18.800781 11.289062 C 18.582031 8.210938 17.257812 5.773438 15.289062 4.804688 C 13.941406 4.140625 12.117188 3.9375 10.363281 4.257812 M 2.058594 14.679688 C 1.683594 15.082031 1.53125 15.6875 1.6875 16.167969 C 1.996094 17.09375 4.4375 18.636719 6.480469 19.1875 C 10.160156 20.183594 14.640625 20.113281 18.058594 19.007812 C 20.078125 18.351562 22.066406 17.007812 22.308594 16.132812 C 22.640625 14.917969 21.5 13.9375 20.589844 14.652344 C 20.277344 14.898438 20.273438 14.914062 20.480469 15.144531 C 20.609375 15.285156 20.695312 15.566406 20.695312 15.847656 C 20.695312 17.027344 18.472656 18.160156 15.257812 18.621094 C 13.917969 18.816406 10.082031 18.816406 8.742188 18.621094 C 6.523438 18.304688 4.746094 17.664062 3.867188 16.867188 C 3.269531 16.328125 3.148438 15.890625 3.433594 15.289062 C 3.640625 14.851562 3.640625 14.84375 3.367188 14.621094 C 2.980469 14.308594 2.382812 14.335938 2.058594 14.679688 M 4.871094 15.554688 C 4.46875 15.910156 4.464844 15.90625 5.578125 16.445312 C 7.070312 17.167969 9.179688 17.519531 12 17.519531 C 14.820312 17.519531 16.929688 17.167969 18.421875 16.445312 C 19.53125 15.910156 19.53125 15.90625 19.140625 15.570312 L 18.800781 15.277344 L 17.863281 15.550781 C 16.078125 16.070312 14.523438 16.253906 12 16.238281 C 9.269531 16.222656 7.078125 15.917969 5.398438 15.3125 C 5.300781 15.277344 5.0625 15.386719 4.871094 15.554688 "/>
</g>
</svg>
