<?xml version="1.0" encoding="UTF-8"?>
<svg xmlns="http://www.w3.org/2000/svg" xmlns:xlink="http://www.w3.org/1999/xlink" width="100px" height="100px" viewBox="0 0 100 100" version="1.1">
<g id="surface1">
<path style=" stroke:none;fill-rule:evenodd;fill:rgb(0%,0%,0%);fill-opacity:1;" d="M 40.1875 12.988281 C 34.609375 14.453125 30.6875 16.695312 26.730469 20.695312 C 22.660156 24.804688 20.152344 29.226562 18.332031 35.519531 C 16.953125 40.28125 16.003906 47.0625 16 52.179688 C 16 55.242188 15.90625 55.570312 15.125 55.261719 C 10.046875 53.253906 5.164062 55.40625 2.675781 60.746094 C -0.5625 67.699219 2.929688 73.933594 13.503906 80.0625 C 18.140625 82.753906 26.230469 85.558594 33 86.828125 C 39.84375 88.109375 60.242188 88.128906 66.976562 86.855469 C 73.71875 85.585938 81.859375 82.75 86.496094 80.0625 C 97.023438 73.960938 100.546875 67.667969 97.324219 60.746094 C 94.835938 55.40625 89.953125 53.253906 84.875 55.261719 C 84.097656 55.570312 84 55.253906 84 52.414062 C 84 50.660156 83.769531 47.316406 83.484375 44.988281 C 81.320312 27.195312 73.328125 16.472656 59.617188 12.964844 C 54.519531 11.664062 45.203125 11.675781 40.1875 12.988281 M 43.175781 17.738281 C 30.730469 19.996094 22.828125 30.773438 21.664062 47.070312 L 21.359375 51.390625 L 23.804688 52.488281 C 28.980469 54.808594 36.101562 56.046875 46.003906 56.351562 C 59.074219 56.75 69.027344 55.453125 76.050781 52.429688 L 78.636719 51.316406 L 78.332031 47.035156 C 77.417969 34.21875 71.914062 24.058594 63.699219 20.011719 C 58.097656 17.253906 50.488281 16.410156 43.175781 17.738281 M 8.574219 61.171875 C 7.011719 62.835938 6.378906 65.371094 7.035156 67.363281 C 8.3125 71.230469 18.496094 77.652344 27 79.953125 C 42.339844 84.101562 61.007812 83.808594 75.25 79.195312 C 83.664062 76.472656 91.9375 70.871094 92.945312 67.214844 C 94.339844 62.164062 89.585938 58.070312 85.792969 61.058594 C 84.492188 62.078125 84.476562 62.148438 85.335938 63.097656 C 85.871094 63.683594 86.226562 64.863281 86.226562 66.023438 C 86.226562 70.949219 76.976562 75.675781 63.578125 77.597656 C 58 78.394531 42 78.394531 36.421875 77.597656 C 27.1875 76.273438 19.78125 73.605469 16.105469 70.285156 C 13.613281 68.035156 13.117188 66.210938 14.304688 63.703125 C 15.171875 61.882812 15.167969 61.84375 14.035156 60.929688 C 12.421875 59.621094 9.925781 59.730469 8.574219 61.171875 M 20.292969 64.808594 C 18.613281 66.289062 18.605469 66.277344 23.25 68.523438 C 29.453125 71.527344 38.242188 72.996094 50 72.996094 C 61.757812 72.996094 70.546875 71.527344 76.75 68.523438 C 81.378906 66.285156 81.382812 66.28125 79.75 64.878906 L 78.339844 63.664062 L 74.433594 64.796875 C 66.984375 66.964844 60.519531 67.722656 50 67.664062 C 38.628906 67.601562 29.492188 66.316406 22.5 63.796875 C 22.085938 63.648438 21.09375 64.105469 20.292969 64.808594 "/>
</g>
</svg>
