<?xml version="1.0" encoding="UTF-8"?>
<svg xmlns="http://www.w3.org/2000/svg" xmlns:xlink="http://www.w3.org/1999/xlink" width="24px" height="24px" viewBox="0 0 24 24" version="1.1">
<g id="surface1">
<path style=" stroke:none;fill-rule:evenodd;fill:rgb(0%,0%,0%);fill-opacity:1;" d="M 11.097656 1.722656 C 10.726562 2.109375 10.488281 2.535156 10.203125 3.3125 C 9.746094 4.554688 9.210938 7.074219 8.992188 8.96875 L 8.839844 10.300781 L 8.433594 10.378906 C 7.558594 10.542969 6.425781 12.019531 5.519531 14.1875 C 5.257812 14.820312 5.039062 15.394531 5.039062 15.460938 C 5.039062 15.527344 5.351562 15.425781 5.730469 15.234375 C 6.113281 15.046875 6.71875 14.8125 7.082031 14.71875 L 7.738281 14.550781 L 7.824219 15.347656 C 8.132812 18.316406 8.363281 19.378906 8.945312 20.527344 C 9.28125 21.195312 10.082031 21.941406 10.566406 22.039062 C 10.859375 22.097656 10.921875 22.167969 10.921875 22.453125 L 10.921875 22.800781 L 13.199219 22.800781 L 13.203125 22.46875 C 13.210938 22.195312 13.304688 22.09375 13.785156 21.871094 C 14.46875 21.550781 15.003906 20.863281 15.410156 19.777344 C 15.789062 18.757812 15.949219 17.929688 16.117188 16.09375 L 16.261719 14.550781 L 16.910156 14.71875 C 17.265625 14.808594 17.875 15.035156 18.257812 15.222656 C 18.644531 15.40625 18.960938 15.527344 18.960938 15.488281 C 18.960938 15.289062 18.386719 13.960938 17.863281 12.941406 C 17.019531 11.292969 16.101562 10.320312 15.390625 10.320312 C 15.195312 10.320312 15.140625 10.085938 14.910156 8.363281 C 14.300781 3.847656 13.21875 1.199219 11.976562 1.199219 C 11.6875 1.199219 11.480469 1.324219 11.097656 1.722656 M 11.613281 1.808594 C 10.847656 2.253906 9.851562 5.65625 9.472656 9.121094 L 9.335938 10.378906 L 9.816406 10.898438 C 10.601562 11.742188 11.457031 13.769531 11.855469 15.71875 C 11.914062 16.015625 11.992188 16.179688 12.027344 16.078125 C 12.058594 15.980469 12.257812 15.277344 12.46875 14.519531 C 12.941406 12.824219 13.535156 11.5625 14.175781 10.890625 L 14.664062 10.378906 L 14.527344 9.121094 C 14.347656 7.476562 13.871094 5.105469 13.484375 3.898438 C 12.886719 2.050781 12.308594 1.402344 11.613281 1.808594 M 8.078125 11.03125 C 7.617188 11.316406 6.832031 12.449219 6.296875 13.605469 C 6.078125 14.074219 5.910156 14.472656 5.925781 14.484375 C 5.9375 14.5 6.289062 14.40625 6.707031 14.273438 C 7.121094 14.144531 7.664062 14.039062 7.914062 14.039062 L 8.367188 14.039062 L 8.4375 15.691406 C 8.546875 18.316406 9.007812 19.988281 9.878906 20.945312 C 10.28125 21.390625 10.480469 21.511719 10.890625 21.566406 C 11.355469 21.625 11.398438 21.660156 11.398438 21.976562 C 11.398438 22.238281 11.457031 22.320312 11.640625 22.320312 C 11.867188 22.320312 11.878906 22.238281 11.878906 20.765625 C 11.878906 17.480469 11.066406 13.695312 9.988281 11.941406 C 9.285156 10.796875 8.824219 10.578125 8.078125 11.03125 M 14.65625 11.105469 C 13.902344 11.738281 13.089844 13.652344 12.597656 15.945312 C 12.3125 17.269531 12.285156 17.746094 12.332031 20.488281 C 12.347656 21.609375 12.40625 22.320312 12.480469 22.320312 C 12.546875 22.320312 12.601562 22.15625 12.601562 21.960938 C 12.601562 21.625 12.628906 21.601562 13.042969 21.601562 C 13.414062 21.601562 13.574219 21.507812 14.046875 21.015625 C 14.964844 20.0625 15.449219 18.382812 15.582031 15.660156 L 15.660156 14.101562 L 16.023438 14.066406 C 16.21875 14.046875 16.730469 14.136719 17.15625 14.269531 C 17.582031 14.402344 17.957031 14.480469 17.992188 14.449219 C 18.140625 14.296875 16.839844 12.03125 16.261719 11.433594 C 15.550781 10.703125 15.214844 10.632812 14.65625 11.105469 "/>
</g>
</svg>
