<?xml version="1.0" encoding="UTF-8"?>
<svg xmlns="http://www.w3.org/2000/svg" xmlns:xlink="http://www.w3.org/1999/xlink" width="100px" height="100px" viewBox="0 0 100 100" version="1.1">
<g id="surface1">
<path style=" stroke:none;fill-rule:evenodd;fill:rgb(0%,0%,0%);fill-opacity:1;" d="M 46.234375 7.183594 C 44.703125 8.785156 43.707031 10.558594 42.515625 13.808594 C 40.617188 18.984375 38.371094 29.46875 37.46875 37.375 L 36.835938 42.917969 L 35.136719 43.238281 C 31.488281 43.921875 26.78125 50.082031 23.003906 59.117188 C 21.902344 61.753906 21 64.140625 21 64.417969 C 21 64.695312 22.296875 64.273438 23.882812 63.480469 C 25.46875 62.6875 28 61.722656 29.507812 61.335938 L 32.25 60.628906 L 32.597656 63.941406 C 33.886719 76.3125 34.847656 80.75 37.269531 85.53125 C 38.675781 88.3125 42.015625 91.429688 44.019531 91.828125 C 45.246094 92.074219 45.5 92.371094 45.5 93.5625 L 45.5 95 L 55 95 L 55.019531 93.625 C 55.039062 92.480469 55.441406 92.0625 57.429688 91.128906 C 60.28125 89.796875 62.511719 86.921875 64.207031 82.402344 C 65.796875 78.160156 66.460938 74.703125 67.160156 67.0625 L 67.75 60.632812 L 70.457031 61.328125 C 71.945312 61.710938 74.476562 62.652344 76.082031 63.421875 C 77.6875 64.191406 79 64.695312 79 64.535156 C 79 63.710938 76.617188 58.171875 74.429688 53.917969 C 70.910156 47.054688 67.082031 43 64.128906 43 C 63.320312 43 63.082031 42.03125 62.117188 34.851562 C 59.59375 16.03125 55.078125 5 49.898438 5 C 48.699219 5 47.835938 5.515625 46.234375 7.183594 M 48.382812 7.535156 C 45.195312 9.390625 41.054688 23.5625 39.476562 38 L 38.902344 43.25 L 40.902344 45.40625 C 44.164062 48.921875 47.738281 57.375 49.394531 65.5 C 49.648438 66.738281 49.96875 67.414062 50.109375 67 C 50.246094 66.585938 51.078125 63.664062 51.957031 60.5 C 53.921875 53.429688 56.390625 48.179688 59.066406 45.378906 L 61.101562 43.25 L 60.527344 38 C 59.777344 31.152344 57.800781 21.277344 56.179688 16.25 C 53.6875 8.539062 51.28125 5.847656 48.382812 7.535156 M 33.664062 45.96875 C 31.738281 47.144531 28.464844 51.863281 26.234375 56.679688 C 25.324219 58.644531 24.628906 60.296875 24.6875 60.351562 C 24.746094 60.410156 26.210938 60.019531 27.941406 59.480469 C 29.671875 58.941406 31.9375 58.5 32.972656 58.5 L 34.859375 58.5 L 35.152344 65.375 C 35.621094 76.320312 37.527344 83.285156 41.15625 87.273438 C 42.84375 89.128906 43.660156 89.628906 45.375 89.851562 C 47.316406 90.109375 47.5 90.253906 47.5 91.566406 C 47.5 92.667969 47.734375 93 48.5 93 C 49.449219 93 49.5 92.667969 49.5 86.527344 C 49.5 72.839844 46.117188 57.070312 41.609375 49.75 C 38.679688 44.992188 36.765625 44.078125 33.664062 45.96875 M 61.058594 46.277344 C 57.921875 48.917969 54.535156 56.882812 52.488281 66.4375 C 51.304688 71.960938 51.191406 73.945312 51.375 85.375 C 51.453125 90.042969 51.695312 93 52 93 C 52.273438 93 52.5 92.324219 52.5 91.5 C 52.5 90.105469 52.628906 90 54.34375 90 C 55.890625 90 56.558594 89.613281 58.53125 87.5625 C 62.363281 83.589844 64.367188 76.589844 64.929688 65.25 L 65.25 58.75 L 66.757812 58.601562 C 67.585938 58.519531 69.714844 58.90625 71.484375 59.457031 C 73.257812 60.007812 74.824219 60.339844 74.96875 60.199219 C 75.59375 59.574219 70.164062 50.132812 67.75 47.640625 C 64.800781 44.59375 63.398438 44.308594 61.058594 46.277344 "/>
</g>
</svg>
