<?xml version="1.0" encoding="UTF-8"?>
<svg xmlns="http://www.w3.org/2000/svg" xmlns:xlink="http://www.w3.org/1999/xlink" width="100px" height="100px" viewBox="0 0 100 100" version="1.1">
<g id="surface1">
<path style=" stroke:none;fill-rule:evenodd;fill:rgb(0%,0%,0%);fill-opacity:1;" d="M 40.925781 0.78125 C 21.902344 4.222656 6.734375 18.472656 1.382812 37.914062 C -0.144531 43.472656 -0.144531 56.527344 1.382812 62.085938 C 4.804688 74.515625 12.414062 85.152344 22.710938 91.886719 C 35.742188 100.410156 52.375 102.324219 67.113281 96.992188 C 83.296875 91.136719 96.351562 75.863281 99.03125 59.640625 C 99.335938 57.777344 99.792969 55.859375 100.046875 55.382812 C 100.628906 54.269531 100.644531 43.851562 100.0625 44.210938 C 99.824219 44.359375 99.480469 43.1875 99.300781 41.609375 C 99.125 40.03125 98.230469 36.566406 97.316406 33.90625 C 89.257812 10.457031 65.28125 -3.625 40.925781 0.78125 M 44.25 1.558594 C 34.878906 2.71875 22.640625 8.597656 17.167969 14.570312 L 16.085938 15.75 L 48.644531 51 C 66.550781 70.386719 81.386719 86.25 81.613281 86.25 C 82.539062 86.25 88.257812 79.988281 90.773438 76.222656 C 96.28125 67.972656 98.691406 59.9375 98.714844 49.75 C 98.746094 36.628906 94.582031 25.972656 85.78125 16.628906 C 80.9375 11.488281 77.058594 8.664062 70.925781 5.808594 C 65.484375 3.277344 61.886719 2.242188 56.011719 1.519531 C 51.234375 0.933594 49.257812 0.941406 44.25 1.558594 M 36.332031 11.332031 C 36.148438 11.515625 36 13.429688 36 15.582031 L 36 19.5 L 33.785156 19.5 C 31.992188 19.5 31.378906 19.75 30.535156 20.816406 C 28.796875 23.03125 29.214844 29.5 31.101562 29.5 C 31.320312 29.5 31.5 27.722656 31.5 25.554688 C 31.5 21.265625 31.679688 21 34.539062 21 L 36 21 L 36 28.1875 C 36 33.96875 36.148438 35.5 36.75 36 C 37.410156 36.546875 37.5 35.78125 37.5 29.5625 L 37.5 22.5 L 42 22.5 L 42 32.171875 C 42 41.210938 42.066406 41.90625 43 42.75 C 43.996094 43.652344 44 43.625 44 32.328125 L 44 21 L 56 21 L 56 32.75 C 56 44.125 55.96875 44.5 55.011719 44.5 C 54.058594 44.5 54.015625 44.085938 53.886719 34.125 L 53.75 23.75 L 46.25 23.75 L 46.113281 33.976562 C 46.03125 40.257812 45.78125 44.324219 45.46875 44.519531 C 45.1875 44.695312 50.648438 50.984375 57.601562 58.503906 L 70.25 72.167969 L 70.382812 54.3125 C 70.46875 42.574219 70.332031 36.121094 69.988281 35.480469 C 69.566406 34.691406 68.933594 34.5 66.734375 34.5 L 64 34.5 L 64 21 L 65.625 21.007812 C 68.121094 21.019531 68.4375 21.472656 68.597656 25.257812 C 68.722656 28.105469 68.910156 28.769531 69.625 28.90625 C 70.390625 29.050781 70.5 28.636719 70.5 25.605469 C 70.5 21.015625 69.441406 19.5 66.234375 19.5 L 64.039062 19.5 L 63.75 11.25 L 60.296875 11.101562 C 57.867188 10.996094 56.71875 11.144531 56.425781 11.601562 C 56.199219 11.957031 56.011719 13.882812 56.007812 15.875 L 56 19.5 L 44 19.5 L 44 16.039062 C 44 11.03125 43.972656 11 40.03125 11 C 38.179688 11 36.515625 11.148438 36.332031 11.332031 M 37.5 16.75 L 37.5 21 L 42 21 L 42 12.5 L 37.5 12.5 L 37.5 16.75 M 58 16.75 L 58 21 L 62.5 21 L 62.5 12.5 L 58 12.5 L 58 16.75 M 12.839844 19.125 C 1.367188 33.25 -1.386719 52.128906 5.585938 68.875 C 7.75 74.082031 12.203125 80.574219 16.332031 84.558594 C 31.515625 99.195312 53.914062 102.46875 72.355469 92.746094 C 76.851562 90.375 80.113281 88.082031 79.890625 87.449219 C 79.675781 86.835938 15.300781 17.082031 14.910156 17.039062 C 14.71875 17.015625 13.789062 17.957031 12.839844 19.125 M 58 33.5 L 58 44.5 L 59.734375 44.5 C 60.933594 44.5 61.625 44.203125 61.984375 43.53125 C 62.289062 42.957031 62.5 38.492188 62.5 32.53125 L 62.5 22.5 L 58 22.5 L 58 33.5 M 47.5 29.25 L 47.5 33.5 L 52.5 33.5 L 52.5 25 L 47.5 25 L 47.5 29.25 M 68.722656 31.542969 C 68.207031 32.378906 69.367188 33.332031 70.054688 32.644531 C 70.632812 32.066406 70.273438 31 69.5 31 C 69.257812 31 68.90625 31.246094 68.722656 31.542969 M 47.855469 35.308594 C 47.660156 35.507812 47.5 37.652344 47.5 40.082031 L 47.5 44.5 L 52.539062 44.5 L 52.25 35.25 L 50.230469 35.101562 C 49.121094 35.019531 48.054688 35.113281 47.855469 35.308594 M 29.816406 35.851562 C 29.640625 36.023438 29.5 47.699219 29.5 61.796875 C 29.5 84.433594 29.59375 87.519531 30.285156 88.214844 C 30.972656 88.902344 33.453125 89 49.957031 89 C 72.171875 89 70.5 89.472656 70.5 83.210938 L 70.5 79.246094 L 65.375 73.675781 L 60.25 68.097656 L 59.941406 70.445312 C 59.21875 75.960938 55.332031 79.5 50 79.5 C 42.449219 79.5 37.707031 71.746094 41.125 64.988281 C 42.660156 61.953125 45.628906 59.964844 49.21875 59.5625 L 52.035156 59.25 L 44.429688 51 C 30.972656 36.402344 30.132812 35.53125 29.816406 35.851562 M 0.1875 50 C 0.1875 53.164062 0.269531 54.457031 0.371094 52.875 C 0.46875 51.292969 0.46875 48.707031 0.371094 47.125 C 0.269531 45.542969 0.1875 46.835938 0.1875 50 M 49.117188 67.195312 C 48.65625 68.207031 48.160156 68.5 46.921875 68.5 L 45.324219 68.5 L 46.4375 69.683594 C 47.265625 70.566406 47.46875 71.207031 47.222656 72.183594 C 46.847656 73.675781 46.957031 73.726562 48.726562 72.917969 C 49.683594 72.484375 50.3125 72.480469 51.25 72.910156 C 52.425781 73.445312 52.5 73.390625 52.5 72.050781 C 52.5 71.265625 52.835938 70.34375 53.25 70 C 54.320312 69.109375 54.175781 68.5 52.894531 68.5 C 52.285156 68.5 51.320312 67.914062 50.75 67.195312 L 49.710938 65.894531 L 49.117188 67.195312 M 33.832031 80.832031 C 33.417969 81.25 33.398438 83.15625 33.804688 84.210938 C 34.070312 84.90625 35.949219 85 49.785156 85 C 65.085938 85 65.476562 84.976562 66.015625 83.972656 C 66.683594 82.71875 66.472656 80.902344 65.625 80.621094 C 65.214844 80.488281 65 80.949219 65 81.957031 L 65 83.5 L 35 83.5 L 35 82 C 35 80.566406 34.550781 80.117188 33.832031 80.832031 "/>
</g>
</svg>
