<?xml version="1.0" encoding="UTF-8"?>
<svg xmlns="http://www.w3.org/2000/svg" xmlns:xlink="http://www.w3.org/1999/xlink" width="24px" height="24px" viewBox="0 0 24 24" version="1.1">
<g id="surface1">
<path style=" stroke:none;fill-rule:evenodd;fill:rgb(0%,0%,0%);fill-opacity:1;" d="M 9.820312 0.1875 C 5.257812 1.015625 1.617188 4.433594 0.332031 9.097656 C -0.0351562 10.433594 -0.0351562 13.566406 0.332031 14.902344 C 1.152344 17.882812 2.980469 20.4375 5.449219 22.054688 C 8.578125 24.097656 12.570312 24.558594 16.105469 23.277344 C 19.992188 21.871094 23.125 18.207031 23.765625 14.3125 C 23.839844 13.867188 23.949219 13.40625 24.011719 13.292969 C 24.152344 13.023438 24.15625 10.523438 24.015625 10.609375 C 23.957031 10.644531 23.875 10.367188 23.832031 9.988281 C 23.789062 9.609375 23.574219 8.777344 23.355469 8.136719 C 21.421875 2.507812 15.667969 -0.871094 9.820312 0.1875 M 10.621094 0.375 C 8.371094 0.652344 5.433594 2.0625 4.121094 3.496094 L 3.859375 3.78125 L 11.675781 12.238281 C 15.972656 16.894531 19.53125 20.699219 19.585938 20.699219 C 19.808594 20.699219 21.183594 19.195312 21.785156 18.292969 C 23.109375 16.3125 23.6875 14.382812 23.691406 11.941406 C 23.699219 8.792969 22.699219 6.234375 20.585938 3.992188 C 19.425781 2.757812 18.496094 2.078125 17.023438 1.394531 C 15.714844 0.785156 14.851562 0.539062 13.441406 0.363281 C 12.296875 0.222656 11.820312 0.226562 10.621094 0.375 M 8.71875 2.71875 C 8.675781 2.765625 8.640625 3.222656 8.640625 3.738281 L 8.640625 4.679688 L 8.109375 4.679688 C 7.675781 4.679688 7.53125 4.738281 7.328125 4.996094 C 6.910156 5.527344 7.011719 7.078125 7.464844 7.078125 C 7.515625 7.078125 7.558594 6.652344 7.558594 6.132812 C 7.558594 5.105469 7.601562 5.039062 8.289062 5.039062 L 8.640625 5.039062 L 8.640625 6.765625 C 8.640625 8.152344 8.675781 8.519531 8.820312 8.640625 C 8.980469 8.773438 9 8.585938 9 7.09375 L 9 5.398438 L 10.078125 5.398438 L 10.078125 7.722656 C 10.078125 9.890625 10.097656 10.058594 10.320312 10.261719 C 10.558594 10.476562 10.558594 10.46875 10.558594 7.757812 L 10.558594 5.039062 L 13.441406 5.039062 L 13.441406 7.859375 C 13.441406 10.589844 13.433594 10.679688 13.203125 10.679688 C 12.972656 10.679688 12.964844 10.582031 12.933594 8.191406 L 12.898438 5.699219 L 11.101562 5.699219 L 11.066406 8.15625 C 11.046875 9.660156 10.988281 10.636719 10.914062 10.683594 C 10.84375 10.726562 12.15625 12.238281 13.824219 14.039062 L 16.859375 17.320312 L 16.890625 13.035156 C 16.914062 10.21875 16.878906 8.667969 16.796875 8.515625 C 16.695312 8.324219 16.542969 8.28125 16.015625 8.28125 L 15.359375 8.28125 L 15.359375 5.039062 L 15.75 5.042969 C 16.347656 5.042969 16.425781 5.152344 16.464844 6.0625 C 16.492188 6.746094 16.539062 6.90625 16.710938 6.9375 C 16.894531 6.972656 16.921875 6.875 16.921875 6.144531 C 16.921875 5.042969 16.664062 4.679688 15.894531 4.679688 L 15.371094 4.679688 L 15.335938 3.691406 L 15.300781 2.699219 L 14.472656 2.664062 C 13.886719 2.640625 13.613281 2.675781 13.542969 2.785156 C 13.488281 2.871094 13.441406 3.332031 13.441406 3.808594 L 13.441406 4.679688 L 10.558594 4.679688 L 10.558594 3.851562 C 10.558594 2.648438 10.554688 2.640625 9.605469 2.640625 C 9.164062 2.640625 8.765625 2.675781 8.71875 2.71875 M 9 4.019531 L 9 5.039062 L 10.078125 5.039062 L 10.078125 3 L 9 3 L 9 4.019531 M 13.921875 4.019531 L 13.921875 5.039062 L 15 5.039062 L 15 3 L 13.921875 3 L 13.921875 4.019531 M 3.082031 4.589844 C 0.328125 7.980469 -0.332031 12.511719 1.339844 16.53125 C 1.859375 17.78125 2.929688 19.339844 3.921875 20.292969 C 7.5625 23.808594 12.9375 24.59375 17.363281 22.257812 C 18.445312 21.691406 19.226562 21.140625 19.175781 20.988281 C 19.121094 20.839844 3.671875 4.097656 3.578125 4.089844 C 3.53125 4.085938 3.308594 4.308594 3.082031 4.589844 M 13.921875 8.039062 L 13.921875 10.679688 L 14.335938 10.679688 C 14.625 10.679688 14.789062 10.609375 14.875 10.449219 C 14.949219 10.308594 15 9.238281 15 7.808594 L 15 5.398438 L 13.921875 5.398438 L 13.921875 8.039062 M 11.398438 7.019531 L 11.398438 8.039062 L 12.601562 8.039062 L 12.601562 6 L 11.398438 6 L 11.398438 7.019531 M 16.492188 7.570312 C 16.371094 7.769531 16.648438 8 16.8125 7.835938 C 16.953125 7.695312 16.867188 7.441406 16.679688 7.441406 C 16.621094 7.441406 16.539062 7.5 16.492188 7.570312 M 11.484375 8.472656 C 11.4375 8.519531 11.398438 9.035156 11.398438 9.621094 L 11.398438 10.679688 L 12.609375 10.679688 L 12.539062 8.460938 L 12.054688 8.425781 C 11.789062 8.40625 11.53125 8.425781 11.484375 8.472656 M 7.15625 8.605469 C 7.113281 8.644531 7.078125 11.449219 7.078125 14.832031 C 7.078125 20.265625 7.101562 21.003906 7.269531 21.171875 C 7.433594 21.335938 8.027344 21.359375 11.988281 21.359375 C 17.320312 21.359375 16.921875 21.472656 16.921875 19.96875 L 16.921875 19.019531 L 15.691406 17.683594 L 14.460938 16.34375 L 14.386719 16.90625 C 14.210938 18.230469 13.28125 19.078125 12 19.078125 C 10.1875 19.078125 9.050781 17.21875 9.871094 15.597656 C 10.238281 14.871094 10.953125 14.390625 11.8125 14.296875 L 12.488281 14.21875 L 10.664062 12.238281 C 7.433594 8.738281 7.230469 8.527344 7.15625 8.605469 M 0.046875 12 C 0.046875 12.757812 0.0664062 13.070312 0.0898438 12.691406 C 0.113281 12.308594 0.113281 11.6875 0.0898438 11.308594 C 0.0664062 10.929688 0.046875 11.242188 0.046875 12 M 11.789062 16.128906 C 11.675781 16.371094 11.558594 16.441406 11.261719 16.441406 L 10.878906 16.441406 L 11.144531 16.722656 C 11.34375 16.9375 11.390625 17.089844 11.332031 17.324219 C 11.242188 17.683594 11.269531 17.695312 11.695312 17.5 C 11.925781 17.394531 12.074219 17.394531 12.300781 17.5 C 12.582031 17.625 12.601562 17.613281 12.601562 17.292969 C 12.601562 17.105469 12.679688 16.882812 12.78125 16.800781 C 13.039062 16.585938 13.003906 16.441406 12.695312 16.441406 C 12.546875 16.441406 12.316406 16.300781 12.179688 16.128906 L 11.929688 15.8125 L 11.789062 16.128906 M 8.121094 19.398438 C 8.019531 19.5 8.015625 19.957031 8.113281 20.210938 C 8.175781 20.378906 8.628906 20.398438 11.949219 20.398438 C 15.621094 20.398438 15.714844 20.394531 15.84375 20.152344 C 16.003906 19.851562 15.953125 19.417969 15.75 19.347656 C 15.652344 19.316406 15.601562 19.425781 15.601562 19.671875 L 15.601562 20.039062 L 8.398438 20.039062 L 8.398438 19.679688 C 8.398438 19.335938 8.292969 19.226562 8.121094 19.398438 "/>
</g>
</svg>
