<?xml version="1.0" encoding="UTF-8"?>
<svg xmlns="http://www.w3.org/2000/svg" xmlns:xlink="http://www.w3.org/1999/xlink" width="24px" height="24px" viewBox="0 0 24 24" version="1.1">
<g id="surface1">
<path style=" stroke:none;fill-rule:evenodd;fill:rgb(0%,0%,0%);fill-opacity:1;" d="M 1.238281 1.390625 C 1.183594 1.53125 2.601562 3.019531 6.371094 6.789062 C 10.503906 10.925781 11.542969 12.023438 11.425781 12.144531 C 11.308594 12.261719 11.042969 12.058594 10.136719 11.15625 L 9 10.023438 L 9 14.582031 L 7.011719 16.5625 L 5.023438 18.539062 L 4.601562 18.058594 C 3.128906 16.378906 2.261719 13.691406 2.441406 11.351562 C 2.578125 9.601562 3.265625 7.726562 4.292969 6.320312 L 4.714844 5.738281 L 3.863281 4.886719 L 3.296875 5.652344 C 2.550781 6.667969 1.992188 7.796875 1.601562 9.085938 C 1.308594 10.035156 1.277344 10.324219 1.277344 12 C 1.277344 13.683594 1.308594 13.960938 1.605469 14.941406 C 1.996094 16.222656 2.773438 17.730469 3.558594 18.730469 L 4.125 19.453125 L 2.644531 20.933594 C 1.605469 21.980469 1.1875 22.472656 1.238281 22.609375 C 1.28125 22.714844 1.382812 22.800781 1.464844 22.800781 C 1.550781 22.800781 3.953125 20.464844 6.808594 17.609375 L 12 12.421875 L 17.207031 17.628906 C 22.257812 22.675781 22.800781 23.152344 22.800781 22.535156 C 22.800781 22.453125 22.144531 21.726562 21.34375 20.921875 L 19.886719 19.460938 L 20.503906 18.640625 C 21.332031 17.535156 22 16.234375 22.394531 14.933594 C 22.691406 13.960938 22.722656 13.683594 22.722656 12 C 22.722656 10.324219 22.691406 10.035156 22.402344 9.085938 C 22.003906 7.785156 21.304688 6.375 20.636719 5.53125 L 20.132812 4.890625 L 19.285156 5.738281 L 19.707031 6.320312 C 21.148438 8.296875 21.847656 11.03125 21.492188 13.3125 C 21.210938 15.097656 20.414062 16.90625 19.398438 18.058594 L 18.976562 18.539062 L 16.988281 16.5625 L 15 14.582031 L 15 10.023438 L 13.863281 11.15625 C 12.957031 12.058594 12.691406 12.261719 12.574219 12.144531 C 12.457031 12.023438 13.496094 10.925781 17.628906 6.789062 C 22.683594 1.734375 23.152344 1.199219 22.53125 1.199219 C 22.445312 1.199219 21.730469 1.847656 20.941406 2.640625 C 20.148438 3.433594 19.445312 4.078125 19.371094 4.078125 C 19.296875 4.078125 19.132812 3.964844 19.007812 3.824219 C 18.355469 3.097656 16.476562 2.078125 14.914062 1.601562 C 13.964844 1.308594 13.675781 1.277344 12 1.277344 C 10.316406 1.277344 10.039062 1.308594 9.058594 1.605469 C 7.777344 1.996094 6.269531 2.773438 5.269531 3.558594 L 4.546875 4.125 L 3.082031 2.664062 C 2.277344 1.859375 1.546875 1.199219 1.464844 1.199219 C 1.378906 1.199219 1.28125 1.285156 1.238281 1.390625 M 10.261719 2.574219 C 8.691406 2.863281 6.472656 3.945312 5.703125 4.796875 L 5.472656 5.050781 L 9.355469 8.933594 L 10.027344 8.277344 C 10.871094 7.449219 11.011719 7.183594 11.113281 6.195312 C 11.179688 5.535156 11.160156 5.355469 10.988281 5.171875 C 10.839844 5.003906 10.796875 4.777344 10.824219 4.304688 L 10.859375 3.660156 L 13.140625 3.660156 L 13.175781 4.308594 C 13.195312 4.664062 13.15625 5.011719 13.085938 5.082031 C 12.902344 5.265625 12.929688 6.78125 13.125 7.234375 C 13.21875 7.445312 13.597656 7.914062 13.96875 8.277344 L 14.644531 8.933594 L 18.527344 5.050781 L 18.296875 4.796875 C 17.878906 4.335938 16.429688 3.449219 15.496094 3.085938 C 13.820312 2.433594 12 2.257812 10.261719 2.574219 M 11.398438 4.476562 C 11.398438 4.628906 11.457031 4.808594 11.527344 4.882812 C 11.609375 4.960938 11.644531 5.433594 11.617188 6.105469 L 11.578125 7.199219 L 12.332031 7.199219 L 12.269531 6.183594 C 12.21875 5.367188 12.246094 5.109375 12.402344 4.867188 C 12.75 4.335938 12.667969 4.199219 12 4.199219 C 11.453125 4.199219 11.398438 4.226562 11.398438 4.476562 M 10.46875 14.550781 L 9 16.023438 L 9 18.019531 C 9 19.726562 9.027344 20.023438 9.191406 20.085938 C 9.292969 20.128906 10.558594 20.160156 12 20.160156 C 13.441406 20.160156 14.707031 20.128906 14.808594 20.085938 C 14.972656 20.023438 15 19.726562 15 18.015625 L 15 16.015625 L 13.527344 14.546875 C 12.71875 13.742188 12.03125 13.078125 11.996094 13.078125 C 11.964844 13.078125 11.277344 13.742188 10.46875 14.550781 M 5.289062 19.730469 L 4.890625 20.140625 L 5.65625 20.703125 C 6.667969 21.449219 7.796875 22.007812 9.085938 22.398438 C 10.035156 22.691406 10.324219 22.722656 12 22.722656 C 13.675781 22.722656 13.964844 22.691406 14.914062 22.402344 C 16.214844 22.003906 17.625 21.304688 18.46875 20.636719 L 19.109375 20.132812 L 18.261719 19.285156 L 17.679688 19.707031 C 16.84375 20.320312 15.511719 20.957031 14.433594 21.265625 C 13.109375 21.644531 10.890625 21.644531 9.566406 21.265625 C 8.5 20.960938 7.160156 20.320312 6.34375 19.726562 C 6.039062 19.503906 5.765625 19.320312 5.738281 19.320312 C 5.710938 19.320312 5.507812 19.503906 5.289062 19.730469 "/>
</g>
</svg>
