<?xml version="1.0" encoding="UTF-8"?>
<svg xmlns="http://www.w3.org/2000/svg" xmlns:xlink="http://www.w3.org/1999/xlink" width="100px" height="100px" viewBox="0 0 100 100" version="1.1">
<g id="surface1">
<path style=" stroke:none;fill-rule:evenodd;fill:rgb(0%,0%,0%);fill-opacity:1;" d="M 5.160156 5.800781 C 4.9375 6.378906 10.832031 12.578125 26.539062 28.289062 C 43.773438 45.527344 48.097656 50.105469 47.605469 50.597656 C 47.113281 51.089844 46.011719 50.246094 42.242188 46.492188 L 37.5 41.769531 L 37.5 60.761719 L 29.21875 69.003906 L 20.933594 77.25 L 19.179688 75.25 C 13.03125 68.246094 9.425781 57.039062 10.175781 47.300781 C 10.742188 40 13.613281 32.1875 17.882812 26.332031 L 19.648438 23.914062 L 17.871094 22.140625 L 16.097656 20.363281 L 13.746094 23.558594 C 10.632812 27.777344 8.304688 32.480469 6.664062 37.855469 C 5.457031 41.8125 5.324219 43.019531 5.324219 50 C 5.324219 57.015625 5.453125 58.175781 6.691406 62.25 C 8.316406 67.597656 11.550781 73.875 14.820312 78.035156 L 17.1875 81.050781 L 11.023438 87.226562 C 6.683594 91.578125 4.949219 93.644531 5.164062 94.203125 C 5.332031 94.640625 5.757812 95 6.105469 95 C 6.457031 95 16.476562 85.269531 28.371094 73.378906 L 50 51.753906 L 71.699219 73.449219 C 92.738281 94.484375 95 96.46875 95 93.898438 C 95 93.550781 92.265625 90.523438 88.925781 87.175781 L 82.851562 81.089844 L 85.425781 77.667969 C 88.886719 73.070312 91.660156 67.636719 93.308594 62.226562 C 94.546875 58.175781 94.675781 57.011719 94.675781 50 C 94.675781 43.019531 94.542969 41.8125 93.335938 37.859375 C 91.679688 32.433594 88.765625 26.558594 85.988281 23.046875 L 83.882812 20.382812 L 80.351562 23.914062 L 82.117188 26.332031 C 88.121094 34.566406 91.027344 45.964844 89.542969 55.46875 C 88.378906 62.910156 85.058594 70.445312 80.828125 75.25 L 79.066406 77.25 L 70.78125 69.003906 L 62.5 60.761719 L 62.5 41.769531 L 57.757812 46.492188 C 53.988281 50.246094 52.886719 51.089844 52.394531 50.597656 C 51.902344 50.105469 56.226562 45.527344 73.460938 28.289062 C 94.511719 7.234375 96.472656 5 93.882812 5 C 93.527344 5 90.542969 7.699219 87.25 11 C 83.957031 14.300781 81.015625 17 80.710938 17 C 80.40625 17 79.726562 16.523438 79.203125 15.9375 C 76.480469 12.90625 68.65625 8.652344 62.148438 6.667969 C 58.183594 5.457031 56.984375 5.324219 50 5.324219 C 42.984375 5.324219 41.824219 5.453125 37.75 6.691406 C 32.402344 8.316406 26.125 11.550781 21.964844 14.820312 L 18.949219 17.1875 L 12.84375 11.09375 C 9.484375 7.742188 6.449219 5 6.101562 5 C 5.753906 5 5.332031 5.359375 5.160156 5.800781 M 42.75 10.730469 C 36.222656 11.925781 26.976562 16.433594 23.757812 19.992188 L 22.800781 21.046875 L 38.984375 37.230469 L 41.78125 34.492188 C 45.296875 31.046875 45.878906 29.929688 46.300781 25.804688 C 46.582031 23.058594 46.492188 22.320312 45.792969 21.546875 C 45.164062 20.855469 44.984375 19.90625 45.097656 17.929688 L 45.25 15.25 L 54.75 15.25 L 54.902344 17.945312 C 54.988281 19.429688 54.820312 20.878906 54.527344 21.171875 C 53.761719 21.9375 53.878906 28.253906 54.695312 30.140625 C 55.078125 31.027344 56.65625 32.984375 58.203125 34.492188 L 61.015625 37.230469 L 77.199219 21.046875 L 76.242188 19.992188 C 74.503906 18.070312 68.449219 14.375 64.570312 12.863281 C 57.578125 10.144531 50 9.402344 42.75 10.730469 M 47.5 18.648438 C 47.5 19.28125 47.742188 20.042969 48.035156 20.335938 C 48.367188 20.667969 48.511719 22.636719 48.410156 25.4375 L 48.25 30.003906 L 49.820312 30 L 51.390625 30 L 51.125 25.769531 C 50.914062 22.367188 51.023438 21.289062 51.679688 20.285156 C 53.128906 18.074219 52.785156 17.5 50 17.5 C 47.722656 17.5 47.5 17.601562 47.5 18.648438 M 43.617188 60.632812 L 37.5 66.765625 L 37.5 75.078125 C 37.5 82.199219 37.613281 83.4375 38.289062 83.695312 C 38.726562 83.863281 43.996094 84 50 84 C 56.003906 84 61.273438 83.863281 61.710938 83.695312 C 62.386719 83.4375 62.5 82.199219 62.5 75.0625 L 62.5 66.734375 L 56.367188 60.617188 C 52.996094 57.253906 50.121094 54.5 49.984375 54.5 C 49.847656 54.5 46.980469 57.257812 43.617188 60.632812 M 22.039062 82.207031 L 20.382812 83.917969 L 23.566406 86.261719 C 27.777344 89.367188 32.484375 91.695312 37.855469 93.335938 C 41.8125 94.542969 43.019531 94.675781 50 94.675781 C 56.980469 94.675781 58.1875 94.542969 62.140625 93.335938 C 67.566406 91.679688 73.441406 88.765625 76.953125 85.988281 L 79.617188 83.882812 L 76.085938 80.351562 L 73.667969 82.117188 C 70.175781 84.664062 64.628906 87.324219 60.144531 88.601562 C 54.621094 90.179688 45.378906 90.179688 39.855469 88.601562 C 35.417969 87.335938 29.832031 84.667969 26.433594 82.191406 C 25.160156 81.261719 24.023438 80.5 23.90625 80.5 C 23.789062 80.5 22.949219 81.269531 22.039062 82.207031 "/>
</g>
</svg>
