<?xml version="1.0" encoding="UTF-8"?>
<svg xmlns="http://www.w3.org/2000/svg" xmlns:xlink="http://www.w3.org/1999/xlink" width="100px" height="100px" viewBox="0 0 100 100" version="1.1">
<g id="surface1">
<path style=" stroke:none;fill-rule:evenodd;fill:rgb(0%,0%,0%);fill-opacity:1;" d="M 60.691406 15.34375 L 57.628906 17.140625 L 59.496094 21.195312 C 62.328125 27.34375 62.320312 27.042969 59.730469 28.679688 C 55.535156 31.335938 53.257812 35.988281 53.574219 41.261719 C 53.746094 44.167969 53.71875 44.238281 51.660156 46.136719 C 50.433594 47.269531 49.105469 49.183594 48.441406 50.78125 C 47.59375 52.828125 47.058594 53.5 46.28125 53.503906 C 44.558594 53.511719 40.351562 55.769531 38.566406 57.648438 C 36.964844 59.332031 36.761719 59.402344 34.28125 59.148438 C 26.164062 58.308594 19.011719 64.796875 19.011719 73 C 19.011719 85.347656 33.960938 91.503906 42.710938 82.757812 C 44.546875 80.921875 44.652344 80.886719 48.664062 80.816406 C 52.179688 80.75 53.125 80.535156 55.441406 79.257812 C 58.328125 77.660156 61.097656 74.480469 62.011719 71.714844 C 62.371094 70.625 62.898438 70 63.460938 70 C 63.945312 70 65.71875 69.3125 67.402344 68.46875 C 72.40625 65.96875 75.066406 61.753906 75.085938 56.300781 C 75.09375 54.621094 75.019531 53.011719 74.925781 52.722656 C 74.828125 52.433594 75.585938 51.464844 76.605469 50.566406 C 81.128906 46.582031 82.507812 39.828125 79.890625 34.484375 C 78.257812 31.15625 76.519531 29.410156 73.042969 27.605469 C 70.535156 26.304688 70.351562 26.0625 68.546875 21.75 C 65.910156 15.449219 64.898438 13.496094 64.28125 13.523438 C 63.988281 13.539062 62.371094 14.355469 60.691406 15.34375 M 64.441406 35.222656 C 62.992188 36.042969 61.5 38.757812 61.503906 40.574219 C 61.503906 41.222656 61.953125 42.488281 62.503906 43.386719 C 64.441406 46.570312 63.410156 49.582031 60.074219 50.480469 C 57.167969 51.261719 55.875 52.96875 55.609375 56.371094 C 55.28125 60.5625 54.261719 61.5 50.023438 61.5 C 45.953125 61.5 44.785156 62.230469 43.234375 65.742188 C 41.574219 69.488281 40.054688 70.027344 36.246094 68.226562 C 33.683594 67.015625 33.191406 66.933594 31.472656 67.449219 C 26.265625 69.007812 25.730469 75.773438 30.621094 78.164062 C 33.921875 79.777344 37.476562 78.109375 38.578125 74.4375 C 39.613281 70.980469 42.296875 70.085938 45.871094 72 C 48.097656 73.195312 49.550781 73.257812 51.496094 72.253906 C 53.617188 71.15625 54.5 69.589844 54.5 66.917969 C 54.5 65.148438 54.800781 64.207031 55.699219 63.164062 C 56.800781 61.882812 57.183594 61.769531 60.488281 61.761719 C 63.910156 61.75 64.152344 61.671875 65.539062 60.117188 C 67.335938 58.109375 67.527344 55.054688 66 52.75 C 64.054688 49.8125 65.125 46.910156 68.480469 46.003906 C 74.824219 44.296875 74.425781 35.296875 67.984375 34.691406 C 66.578125 34.5625 65.261719 34.757812 64.441406 35.222656 "/>
</g>
</svg>
