<?xml version="1.0" encoding="UTF-8"?>
<svg xmlns="http://www.w3.org/2000/svg" xmlns:xlink="http://www.w3.org/1999/xlink" width="24px" height="24px" viewBox="0 0 24 24" version="1.1">
<g id="surface1">
<path style=" stroke:none;fill-rule:evenodd;fill:rgb(0%,0%,0%);fill-opacity:1;" d="M 14.566406 3.683594 L 13.832031 4.113281 L 14.277344 5.085938 C 14.957031 6.5625 14.957031 6.492188 14.335938 6.882812 C 13.328125 7.519531 12.78125 8.636719 12.859375 9.902344 C 12.898438 10.601562 12.894531 10.617188 12.398438 11.074219 C 12.105469 11.34375 11.785156 11.804688 11.625 12.1875 C 11.421875 12.679688 11.292969 12.839844 11.109375 12.839844 C 10.695312 12.84375 9.683594 13.386719 9.257812 13.835938 C 8.871094 14.238281 8.824219 14.257812 8.226562 14.195312 C 6.277344 13.996094 4.5625 15.550781 4.5625 17.519531 C 4.5625 20.484375 8.152344 21.960938 10.25 19.863281 C 10.691406 19.421875 10.714844 19.414062 11.679688 19.394531 C 12.523438 19.378906 12.75 19.328125 13.304688 19.019531 C 14 18.636719 14.664062 17.875 14.882812 17.210938 C 14.96875 16.949219 15.09375 16.800781 15.230469 16.800781 C 15.347656 16.800781 15.773438 16.632812 16.175781 16.433594 C 17.378906 15.832031 18.015625 14.820312 18.019531 13.511719 C 18.023438 13.109375 18.003906 12.722656 17.980469 12.652344 C 17.957031 12.585938 18.140625 12.351562 18.386719 12.136719 C 19.472656 11.179688 19.800781 9.558594 19.171875 8.277344 C 18.78125 7.476562 18.363281 7.058594 17.53125 6.625 C 16.929688 6.3125 16.882812 6.253906 16.449219 5.21875 C 15.820312 3.707031 15.574219 3.238281 15.429688 3.246094 C 15.359375 3.25 14.96875 3.445312 14.566406 3.683594 M 15.464844 8.453125 C 15.117188 8.648438 14.757812 9.300781 14.761719 9.738281 C 14.761719 9.894531 14.867188 10.195312 15 10.414062 C 15.464844 11.175781 15.21875 11.898438 14.417969 12.113281 C 13.71875 12.304688 13.410156 12.714844 13.347656 13.527344 C 13.269531 14.535156 13.023438 14.761719 12.003906 14.761719 C 11.027344 14.761719 10.75 14.933594 10.375 15.777344 C 9.976562 16.675781 9.613281 16.808594 8.699219 16.375 C 8.085938 16.082031 7.964844 16.0625 7.554688 16.1875 C 6.304688 16.5625 6.175781 18.1875 7.347656 18.757812 C 8.140625 19.144531 8.996094 18.746094 9.257812 17.867188 C 9.507812 17.035156 10.152344 16.820312 11.007812 17.28125 C 11.542969 17.566406 11.890625 17.582031 12.359375 17.339844 C 12.867188 17.078125 13.078125 16.703125 13.078125 16.058594 C 13.078125 15.636719 13.152344 15.410156 13.367188 15.160156 C 13.632812 14.851562 13.722656 14.824219 14.515625 14.824219 C 15.339844 14.820312 15.394531 14.800781 15.730469 14.429688 C 16.160156 13.945312 16.207031 13.214844 15.839844 12.660156 C 15.375 11.957031 15.628906 11.257812 16.4375 11.042969 C 17.957031 10.632812 17.863281 8.472656 16.316406 8.328125 C 15.980469 8.292969 15.664062 8.34375 15.464844 8.453125 "/>
</g>
</svg>
