<?xml version="1.0" encoding="UTF-8"?>
<svg xmlns="http://www.w3.org/2000/svg" xmlns:xlink="http://www.w3.org/1999/xlink" width="24px" height="24px" viewBox="0 0 24 24" version="1.1">
<g id="surface1">
<path style=" stroke:none;fill-rule:evenodd;fill:rgb(0%,0%,0%);fill-opacity:1;" d="M 17.300781 2.949219 C 10.894531 4.351562 1.707031 10.859375 0.242188 15.03125 C -0.195312 16.265625 -0.199219 16.253906 1.546875 19.019531 C 2.8125 21.027344 2.964844 21.140625 4.417969 21.21875 C 6.417969 21.324219 8.839844 20.621094 12.179688 18.96875 C 17.738281 16.21875 22.734375 11.890625 23.78125 8.910156 C 24.109375 7.976562 24.027344 7.4375 23.429688 6.539062 C 23.164062 6.144531 22.601562 5.253906 22.179688 4.558594 C 21.195312 2.9375 20.894531 2.753906 19.203125 2.773438 C 18.574219 2.777344 17.71875 2.859375 17.300781 2.949219 M 17.640625 3.832031 C 12.773438 4.867188 4.980469 9.792969 2.042969 13.695312 C 0.4375 15.828125 0.691406 16.992188 2.753906 16.96875 C 6.328125 16.921875 13.734375 13.015625 18 8.921875 C 19.410156 7.570312 20.160156 6.644531 20.582031 5.734375 C 21.429688 3.917969 20.390625 3.25 17.640625 3.832031 M 21.476562 6.007812 C 21.390625 6.214844 21.121094 6.6875 20.875 7.0625 C 17.773438 11.792969 8.390625 17.503906 3.160156 17.84375 L 2.0625 17.914062 L 2.761719 19.007812 C 3.664062 20.417969 4.074219 20.585938 5.828125 20.273438 C 11.8125 19.207031 22.046875 12.160156 22.925781 8.503906 C 23.0625 7.921875 23.0625 7.917969 22.492188 6.988281 C 21.566406 5.492188 21.65625 5.578125 21.476562 6.007812 M 12.453125 7.929688 C 10.597656 8.367188 7.917969 10.390625 7.546875 11.640625 C 7.363281 12.25 7.609375 12.671875 8.210938 12.785156 C 9.796875 13.082031 13.304688 11.027344 14.203125 9.277344 C 14.769531 8.167969 13.988281 7.566406 12.453125 7.929688 M 11.609375 9.332031 C 10.40625 9.949219 9.226562 10.796875 8.695312 11.425781 L 8.363281 11.820312 L 8.691406 11.859375 C 9.058594 11.902344 10.390625 11.308594 11.464844 10.621094 C 12.179688 10.164062 13.441406 9.042969 13.441406 8.863281 C 13.441406 8.601562 12.628906 8.808594 11.609375 9.332031 "/>
</g>
</svg>
