<?xml version="1.0" encoding="UTF-8"?>
<svg xmlns="http://www.w3.org/2000/svg" xmlns:xlink="http://www.w3.org/1999/xlink" width="100px" height="100px" viewBox="0 0 100 100" version="1.1">
<g id="surface1">
<path style=" stroke:none;fill-rule:evenodd;fill:rgb(0%,0%,0%);fill-opacity:1;" d="M 72.082031 12.292969 C 45.402344 18.132812 7.109375 45.246094 1.003906 62.625 C -0.808594 67.78125 -0.828125 67.726562 6.441406 79.25 C 11.71875 87.609375 12.347656 88.09375 18.40625 88.410156 C 26.742188 88.847656 36.832031 85.921875 50.75 79.039062 C 73.90625 67.582031 94.71875 49.535156 99.085938 37.128906 C 100.453125 33.242188 100.117188 30.984375 97.617188 27.25 C 96.511719 25.601562 94.171875 21.886719 92.421875 19 C 88.316406 12.234375 87.054688 11.476562 80.019531 11.550781 C 77.394531 11.578125 73.824219 11.914062 72.082031 12.292969 M 73.5 15.972656 C 53.222656 20.28125 20.757812 40.808594 8.507812 57.070312 C 1.820312 65.941406 2.878906 70.800781 11.472656 70.695312 C 26.367188 70.515625 57.234375 54.226562 74.996094 37.179688 C 80.871094 31.542969 83.992188 27.6875 85.757812 23.894531 C 89.28125 16.324219 84.964844 13.535156 73.5 15.972656 M 89.488281 25.03125 C 89.132812 25.886719 88.007812 27.863281 86.984375 29.421875 C 74.054688 49.132812 34.953125 72.929688 13.171875 74.34375 L 8.589844 74.640625 L 11.507812 79.195312 C 15.273438 85.070312 16.976562 85.773438 24.28125 84.472656 C 49.210938 80.027344 91.863281 50.664062 95.515625 35.425781 C 96.097656 33 96.097656 32.988281 93.714844 29.121094 C 89.863281 22.878906 90.230469 23.234375 89.488281 25.03125 M 51.886719 33.039062 C 44.15625 34.863281 33 43.300781 31.441406 48.503906 C 30.679688 51.039062 31.707031 52.804688 34.210938 53.277344 C 40.816406 54.515625 55.445312 45.945312 59.179688 38.648438 C 61.539062 34.039062 58.28125 31.53125 51.886719 33.039062 M 48.378906 38.882812 C 43.363281 41.453125 38.445312 44.984375 36.226562 47.609375 L 34.84375 49.25 L 36.210938 49.410156 C 37.746094 49.59375 43.292969 47.121094 47.765625 44.261719 C 50.75 42.351562 56 37.675781 56 36.925781 C 56 35.84375 52.621094 36.710938 48.378906 38.882812 "/>
</g>
</svg>
