<?xml version="1.0" encoding="UTF-8"?>
<svg xmlns="http://www.w3.org/2000/svg" xmlns:xlink="http://www.w3.org/1999/xlink" width="100px" height="100px" viewBox="0 0 100 100" version="1.1">
<g id="surface1">
<path style=" stroke:none;fill-rule:evenodd;fill:rgb(0%,0%,0%);fill-opacity:1;" d="M 28.742188 0.707031 C 27.148438 1.886719 28.34375 3.175781 31.445312 3.625 C 34.433594 4.054688 37.113281 5.332031 39.242188 7.339844 L 40.738281 8.75 L 39.242188 8.910156 C 38.421875 8.996094 36.046875 9.496094 33.964844 10.019531 C 10.363281 15.96875 -4.464844 40.71875 1.476562 64.25 C 4.617188 76.691406 13.660156 87.832031 25.25 93.546875 C 32.300781 97.023438 36.734375 98.082031 45 98.265625 C 48.746094 98.347656 53.640625 98.792969 56 99.269531 C 68.773438 101.839844 82.613281 97.460938 92.273438 87.796875 C 99.066406 81 101.007812 75.300781 98.800781 68.65625 C 97.765625 65.535156 94.839844 62.082031 91.910156 60.53125 L 89.75 59.382812 L 89.703125 53.316406 C 89.609375 41.148438 85.167969 30.242188 77.046875 22.25 C 73.917969 19.167969 73.496094 18.5 74.683594 18.5 C 77.160156 18.5 87.5 11.464844 87.5 9.78125 C 87.5 8.980469 83.371094 5.101562 80.925781 3.597656 C 72.152344 -1.78125 60.054688 -0.789062 51.203125 6.035156 C 49.074219 7.679688 48.277344 8 46.3125 8 C 44.269531 8 43.777344 7.78125 42.460938 6.28125 C 40.519531 4.070312 36.804688 1.613281 34.53125 1.035156 C 30.539062 0.0195312 29.726562 -0.0273438 28.742188 0.707031 M 62.554688 3.789062 C 61.074219 4.1875 58.496094 5.242188 56.824219 6.132812 L 53.789062 7.75 L 63.09375 7.886719 C 70.53125 7.996094 72.515625 8.167969 73.003906 8.753906 C 73.339844 9.15625 73.480469 9.828125 73.320312 10.242188 C 73.074219 10.882812 71.488281 11 62.953125 11 C 51.90625 11 51.726562 11.070312 56.175781 13.679688 C 59.746094 15.773438 63.648438 16.640625 68.449219 16.40625 C 73.273438 16.171875 76.738281 14.878906 81.082031 11.691406 L 83.554688 9.875 L 82.554688 8.808594 C 80.855469 7 76.394531 4.578125 73.269531 3.769531 C 69.621094 2.828125 66.113281 2.832031 62.554688 3.789062 M 34.75 13.054688 C 23.074219 15.917969 12.730469 24.335938 7.503906 35.210938 C 4.320312 41.84375 3.761719 44.617188 3.769531 53.75 C 3.773438 61.472656 3.832031 61.914062 5.410156 66.5 C 10.402344 81.023438 21.78125 91.152344 36.601562 94.269531 C 38.507812 94.671875 40.777344 95 41.652344 95 C 43.21875 95 43.207031 94.980469 40.492188 93.175781 C 36.296875 90.382812 30.351562 84.046875 28.554688 80.453125 C 23.765625 70.867188 30.152344 59.476562 40.792969 58.621094 C 46.257812 58.179688 51.324219 60.664062 54.777344 65.472656 C 59.191406 71.617188 67.316406 71.589844 71.878906 65.414062 C 75.109375 61.039062 79.699219 58.5 84.378906 58.5 L 86.628906 58.5 L 86.390625 51.875 C 86.183594 46.125 85.941406 44.625 84.550781 40.5 C 83.050781 36.054688 80.347656 30.882812 78.019531 28 L 77.007812 26.75 L 77.378906 28.5 C 77.582031 29.460938 77.75 32.273438 77.75 34.75 L 77.75 39.25 L 75.960938 39.398438 C 73.351562 39.617188 67.191406 38.210938 64.011719 36.664062 C 57.367188 33.4375 51.640625 25.339844 50.460938 17.5 C 49.742188 12.742188 49.496094 12.285156 47.558594 12.09375 C 46.03125 11.941406 45.980469 11.992188 46.34375 13.34375 C 47 15.761719 46.8125 18.089844 45.917969 18.660156 C 44.695312 19.441406 43.5 18.234375 43.5 16.222656 C 43.5 15.308594 43.28125 13.988281 43.011719 13.28125 C 42.601562 12.207031 42.21875 12.007812 40.636719 12.035156 C 39.597656 12.054688 36.949219 12.515625 34.75 13.054688 M 53.5 16.300781 C 53.5 17.535156 55.101562 22.738281 56.058594 24.617188 C 57.789062 28.007812 62.160156 32.210938 65.527344 33.722656 C 68.460938 35.039062 74.246094 36.421875 74.746094 35.921875 C 74.882812 35.785156 74.777344 33.886719 74.507812 31.710938 C 74.148438 28.789062 73.527344 26.765625 72.136719 24 L 70.25 20.25 L 66.625 20 C 64.628906 19.863281 63 19.871094 63 20.015625 C 63 20.164062 64.238281 21.507812 65.75 23 C 68.574219 25.789062 69.238281 27.609375 67.65625 28.21875 C 67.035156 28.453125 65.453125 27.21875 61.78125 23.632812 C 55.207031 17.21875 53.5 15.707031 53.5 16.300781 M 37.746094 19.503906 C 37.113281 20.53125 37.996094 23.308594 39.382812 24.628906 C 41.242188 26.40625 43.296875 27.144531 44.53125 26.484375 C 46.261719 25.558594 45.351562 23.5 43.210938 23.5 C 41.945312 23.5 41.320312 22.828125 40.652344 20.75 C 40.15625 19.195312 38.402344 18.445312 37.746094 19.503906 M 20.070312 28.546875 C 17.808594 30.71875 17.429688 32.582031 19.179688 32.917969 C 20.414062 33.152344 24 29.640625 24 28.203125 C 24 27.339844 23.167969 26.5 22.308594 26.5 C 22.25 26.5 21.242188 27.421875 20.070312 28.546875 M 12.53125 39.125 C 9.941406 44.871094 8.667969 53.1875 10.1875 54.449219 C 11.652344 55.664062 12.332031 54.558594 12.886719 50.039062 C 13.203125 47.476562 14.074219 43.976562 14.964844 41.6875 C 16.726562 37.160156 16.785156 36.71875 15.710938 36.304688 C 14.230469 35.738281 13.9375 35.996094 12.53125 39.125 M 36.75 62.941406 C 30.800781 65.667969 28.34375 72.496094 31.238281 78.277344 C 34.796875 85.398438 42.867188 91.941406 51.785156 94.929688 C 61.578125 98.21875 73.636719 96.871094 82.824219 91.460938 C 86.996094 89.003906 93.492188 82.398438 95.226562 78.847656 C 97.746094 73.683594 96.8125 68.128906 92.847656 64.738281 C 90.507812 62.730469 88.328125 62.007812 84.636719 62.003906 C 80.59375 62 78.445312 63.136719 74.792969 67.21875 L 71.546875 70.847656 L 73.292969 72.539062 C 74.367188 73.582031 74.984375 74.621094 74.894531 75.238281 C 74.636719 77.015625 73.015625 76.722656 70.738281 74.488281 C 68.808594 72.59375 68.453125 72.433594 67.171875 72.855469 C 65.957031 73.257812 65.714844 73.652344 65.5 75.539062 C 65.277344 77.496094 65.105469 77.75 64 77.75 C 62.890625 77.75 62.734375 77.515625 62.597656 75.679688 C 62.453125 73.703125 62.351562 73.585938 60.347656 73.074219 C 58.292969 72.550781 58.207031 72.582031 56.230469 74.519531 C 52.628906 78.050781 49.78125 76.550781 53.28125 72.964844 L 55.199219 71.003906 L 53.679688 69.375 C 52.84375 68.480469 51.671875 67.039062 51.074219 66.167969 C 48.542969 62.46875 41.324219 60.839844 36.75 62.941406 "/>
</g>
</svg>
