<?xml version="1.0" encoding="UTF-8"?>
<svg xmlns="http://www.w3.org/2000/svg" xmlns:xlink="http://www.w3.org/1999/xlink" width="24px" height="24px" viewBox="0 0 24 24" version="1.1">
<g id="surface1">
<path style=" stroke:none;fill-rule:evenodd;fill:rgb(0%,0%,0%);fill-opacity:1;" d="M 6.898438 0.167969 C 6.515625 0.453125 6.800781 0.761719 7.546875 0.871094 C 8.265625 0.972656 8.90625 1.28125 9.417969 1.761719 L 9.777344 2.101562 L 9.417969 2.136719 C 9.222656 2.160156 8.652344 2.277344 8.152344 2.40625 C 2.488281 3.832031 -1.070312 9.773438 0.355469 15.421875 C 1.109375 18.40625 3.277344 21.078125 6.058594 22.453125 C 7.753906 23.285156 8.816406 23.539062 10.800781 23.582031 C 11.699219 23.601562 12.875 23.710938 13.441406 23.824219 C 16.507812 24.441406 19.828125 23.390625 22.144531 21.070312 C 23.777344 19.441406 24.242188 18.074219 23.710938 16.476562 C 23.464844 15.730469 22.761719 14.898438 22.058594 14.527344 L 21.539062 14.25 L 21.527344 12.796875 C 21.507812 9.875 20.441406 7.257812 18.492188 5.339844 C 17.742188 4.601562 17.640625 4.441406 17.925781 4.441406 C 18.519531 4.441406 21 2.75 21 2.347656 C 21 2.15625 20.007812 1.222656 19.421875 0.863281 C 17.316406 -0.425781 14.414062 -0.1875 12.289062 1.449219 C 11.777344 1.84375 11.585938 1.921875 11.117188 1.921875 C 10.625 1.921875 10.507812 1.867188 10.191406 1.507812 C 9.726562 0.976562 8.832031 0.386719 8.285156 0.25 C 7.328125 0.00390625 7.132812 -0.0078125 6.898438 0.167969 M 15.011719 0.910156 C 14.65625 1.003906 14.039062 1.257812 13.636719 1.472656 L 12.910156 1.859375 L 15.140625 1.894531 C 16.929688 1.917969 17.402344 1.960938 17.519531 2.101562 C 17.601562 2.199219 17.636719 2.359375 17.597656 2.457031 C 17.539062 2.613281 17.15625 2.640625 15.109375 2.640625 C 12.457031 2.640625 12.414062 2.65625 13.480469 3.28125 C 14.339844 3.785156 15.273438 3.992188 16.429688 3.9375 C 17.585938 3.882812 18.417969 3.570312 19.460938 2.804688 L 20.054688 2.371094 L 19.8125 2.113281 C 19.40625 1.679688 18.335938 1.097656 17.585938 0.90625 C 16.710938 0.679688 15.867188 0.679688 15.011719 0.910156 M 8.339844 3.132812 C 5.539062 3.820312 3.054688 5.839844 1.800781 8.449219 C 1.035156 10.042969 0.902344 10.707031 0.90625 12.898438 C 0.90625 14.753906 0.917969 14.859375 1.296875 15.960938 C 2.496094 19.445312 5.226562 21.875 8.785156 22.625 C 9.242188 22.722656 9.785156 22.800781 9.996094 22.800781 C 10.371094 22.800781 10.371094 22.796875 9.71875 22.363281 C 8.710938 21.691406 7.285156 20.171875 6.851562 19.308594 C 5.703125 17.007812 7.234375 14.273438 9.789062 14.070312 C 11.101562 13.964844 12.316406 14.558594 13.148438 15.714844 C 14.207031 17.1875 16.15625 17.179688 17.25 15.699219 C 18.027344 14.648438 19.128906 14.039062 20.25 14.039062 L 20.792969 14.039062 L 20.734375 12.449219 C 20.683594 11.070312 20.625 10.710938 20.292969 9.71875 C 19.933594 8.652344 19.285156 7.410156 18.722656 6.71875 L 18.480469 6.421875 L 18.570312 6.839844 C 18.621094 7.070312 18.660156 7.746094 18.660156 8.339844 L 18.660156 9.421875 L 18.230469 9.457031 C 17.605469 9.507812 16.125 9.171875 15.363281 8.800781 C 13.769531 8.023438 12.394531 6.082031 12.109375 4.199219 C 11.9375 3.058594 11.878906 2.949219 11.414062 2.902344 C 11.046875 2.867188 11.035156 2.878906 11.121094 3.203125 C 11.28125 3.78125 11.234375 4.339844 11.019531 4.476562 C 10.726562 4.664062 10.441406 4.375 10.441406 3.894531 C 10.441406 3.675781 10.386719 3.355469 10.324219 3.1875 C 10.226562 2.929688 10.132812 2.882812 9.753906 2.886719 C 9.503906 2.894531 8.867188 3.003906 8.339844 3.132812 M 12.839844 3.914062 C 12.839844 4.207031 13.222656 5.457031 13.453125 5.910156 C 13.871094 6.722656 14.917969 7.730469 15.726562 8.09375 C 16.429688 8.410156 17.820312 8.742188 17.9375 8.621094 C 17.972656 8.589844 17.945312 8.132812 17.882812 7.609375 C 17.796875 6.910156 17.644531 6.421875 17.3125 5.761719 L 16.859375 4.859375 L 15.988281 4.800781 C 15.511719 4.765625 15.121094 4.769531 15.121094 4.804688 C 15.121094 4.839844 15.417969 5.160156 15.78125 5.519531 C 16.457031 6.1875 16.617188 6.625 16.238281 6.773438 C 16.089844 6.828125 15.707031 6.53125 14.828125 5.671875 C 13.25 4.132812 12.839844 3.769531 12.839844 3.914062 M 9.058594 4.679688 C 8.90625 4.929688 9.117188 5.59375 9.453125 5.910156 C 9.898438 6.335938 10.390625 6.515625 10.6875 6.355469 C 11.101562 6.132812 10.882812 5.640625 10.371094 5.640625 C 10.066406 5.640625 9.917969 5.480469 9.757812 4.980469 C 9.636719 4.605469 9.214844 4.425781 9.058594 4.679688 M 4.816406 6.851562 C 4.273438 7.371094 4.183594 7.820312 4.601562 7.898438 C 4.898438 7.957031 5.761719 7.113281 5.761719 6.769531 C 5.761719 6.5625 5.558594 6.359375 5.355469 6.359375 C 5.339844 6.359375 5.097656 6.582031 4.816406 6.851562 M 3.007812 9.390625 C 2.386719 10.769531 2.082031 12.765625 2.445312 13.066406 C 2.796875 13.359375 2.960938 13.09375 3.09375 12.007812 C 3.167969 11.394531 3.378906 10.554688 3.589844 10.003906 C 4.015625 8.917969 4.027344 8.8125 3.769531 8.710938 C 3.414062 8.578125 3.34375 8.640625 3.007812 9.390625 M 8.820312 15.105469 C 7.390625 15.761719 6.804688 17.398438 7.496094 18.785156 C 8.351562 20.496094 10.289062 22.066406 12.429688 22.785156 C 14.777344 23.570312 17.671875 23.25 19.878906 21.949219 C 20.878906 21.359375 22.4375 19.777344 22.855469 18.921875 C 23.460938 17.683594 23.234375 16.351562 22.285156 15.535156 C 21.722656 15.054688 21.199219 14.882812 20.3125 14.878906 C 19.34375 14.878906 18.828125 15.152344 17.949219 16.132812 L 17.171875 17.003906 L 17.589844 17.410156 C 17.847656 17.660156 17.996094 17.910156 17.976562 18.058594 C 17.914062 18.484375 17.523438 18.414062 16.976562 17.878906 C 16.515625 17.421875 16.429688 17.382812 16.121094 17.484375 C 15.828125 17.582031 15.769531 17.675781 15.71875 18.128906 C 15.667969 18.597656 15.625 18.660156 15.359375 18.660156 C 15.09375 18.660156 15.054688 18.601562 15.023438 18.164062 C 14.988281 17.6875 14.964844 17.660156 14.484375 17.539062 C 13.992188 17.414062 13.96875 17.417969 13.496094 17.886719 C 12.632812 18.730469 11.949219 18.371094 12.789062 17.511719 L 13.246094 17.039062 L 12.882812 16.648438 C 12.683594 16.4375 12.402344 16.089844 12.257812 15.878906 C 11.652344 14.992188 9.917969 14.601562 8.820312 15.105469 "/>
</g>
</svg>
