<?xml version="1.0" encoding="UTF-8"?>
<svg xmlns="http://www.w3.org/2000/svg" xmlns:xlink="http://www.w3.org/1999/xlink" width="100px" height="100px" viewBox="0 0 100 100" version="1.1">
<g id="surface1">
<path style=" stroke:none;fill-rule:evenodd;fill:rgb(0%,0%,0%);fill-opacity:1;" d="M 29.464844 1.0625 C 29.046875 1.84375 29.042969 2.449219 29.449219 3.335938 C 30.175781 4.933594 30.289062 4.734375 27.863281 6.15625 C 23.277344 8.84375 18.496094 14.609375 16.433594 19.949219 C 14.179688 25.769531 14.851562 36.910156 17.503906 37.753906 C 18.148438 37.957031 22.214844 36.613281 29.003906 33.953125 C 34.777344 31.6875 39.617188 29.949219 39.753906 30.085938 C 39.890625 30.226562 41.628906 34.367188 43.613281 39.292969 L 47.222656 48.25 L 47.550781 80.5 L 22.730469 80.5 L 13.238281 64.457031 C 8.019531 55.628906 3.371094 48.207031 2.910156 47.957031 C 1.742188 47.324219 0.542969 47.898438 0.203125 49.253906 C -0.015625 50.132812 2.230469 54.3125 9.773438 67.074219 C 15.195312 76.246094 19.835938 83.976562 20.089844 84.25 C 20.339844 84.523438 22.3125 84.863281 24.472656 85 L 28.398438 85.25 L 24.207031 91 C 19.929688 96.875 19.3125 98.5625 21.058594 99.652344 C 21.5 99.933594 22.210938 100.027344 22.636719 99.863281 C 23.058594 99.699219 25.734375 96.296875 28.578125 92.296875 L 33.75 85.023438 L 47.5 85 L 47.5 93.5 L 43.25 93.5 C 39.617188 93.5 38.847656 93.652344 37.964844 94.535156 C 37.03125 95.46875 37 95.683594 37.648438 96.660156 C 38.355469 97.726562 38.613281 97.75 50 97.75 C 61.386719 97.75 61.644531 97.726562 62.351562 96.660156 C 63 95.683594 62.96875 95.46875 62.035156 94.535156 C 61.132812 93.632812 60.390625 93.5 56.25 93.5 L 51.5 93.5 L 51.5 85 L 86.351562 85 L 91.300781 92.085938 C 94.023438 95.980469 96.644531 99.410156 97.125 99.707031 C 98.214844 100.378906 99.683594 99.578125 99.894531 98.195312 C 100.035156 97.273438 89.683594 81.742188 88.375 80.914062 C 88.03125 80.695312 79.59375 80.511719 69.625 80.507812 L 51.5 80.5 L 51.5 47.933594 L 47.75 38.332031 C 45.6875 33.050781 44 28.585938 44 28.414062 C 44 28.238281 48.949219 26.144531 55.003906 23.761719 C 61.878906 21.050781 66.1875 19.085938 66.492188 18.519531 C 67.277344 17.046875 64.449219 12.023438 61.078125 8.90625 C 55.675781 3.914062 49.320312 1.722656 41.527344 2.160156 C 38.898438 2.308594 36.148438 2.582031 35.414062 2.765625 C 34.269531 3.054688 33.960938 2.878906 33.277344 1.550781 C 32.308594 -0.324219 30.34375 -0.574219 29.464844 1.0625 M 44.355469 7.960938 C 47.605469 10.152344 50.898438 13.859375 52.613281 17.25 C 53.167969 18.351562 53.679688 19.316406 53.746094 19.394531 C 53.945312 19.625 60.699219 17 61.199219 16.5 C 61.808594 15.890625 58.871094 12.121094 56.179688 10.058594 C 53.230469 7.792969 49.414062 6.453125 45 6.136719 L 41.25 5.867188 L 44.355469 7.960938 M 32.933594 10.617188 C 32.210938 11.789062 31.320312 13.648438 30.960938 14.75 C 30.144531 17.214844 30.121094 23.535156 30.914062 26.3125 L 31.503906 28.378906 L 40.378906 24.886719 C 45.257812 22.964844 49.355469 21.292969 49.484375 21.171875 C 49.984375 20.695312 47.160156 16.21875 44.894531 13.894531 C 42.585938 11.519531 38.792969 9.402344 35.75 8.785156 C 34.394531 8.511719 34.121094 8.691406 32.933594 10.617188 M 24.792969 14.003906 C 23.496094 15.390625 21.71875 18.039062 20.84375 19.886719 C 19.414062 22.90625 19.25 23.71875 19.25 27.832031 C 19.25 30.351562 19.382812 32.546875 19.546875 32.710938 C 19.777344 32.941406 26.804688 30.363281 27.300781 29.863281 C 27.367188 29.800781 27.097656 28.519531 26.710938 27.015625 C 25.792969 23.476562 25.800781 17.316406 26.730469 14.226562 C 27.132812 12.890625 27.394531 11.726562 27.308594 11.640625 C 27.222656 11.554688 26.089844 12.617188 24.792969 14.003906 "/>
</g>
</svg>
