<?xml version="1.0" encoding="UTF-8"?>
<svg xmlns="http://www.w3.org/2000/svg" xmlns:xlink="http://www.w3.org/1999/xlink" width="24px" height="24px" viewBox="0 0 24 24" version="1.1">
<g id="surface1">
<path style=" stroke:none;fill-rule:evenodd;fill:rgb(0%,0%,0%);fill-opacity:1;" d="M 7.070312 0.253906 C 6.972656 0.441406 6.96875 0.585938 7.066406 0.800781 C 7.242188 1.183594 7.269531 1.136719 6.6875 1.476562 C 5.585938 2.121094 4.441406 3.507812 3.945312 4.789062 C 3.402344 6.183594 3.5625 8.859375 4.203125 9.058594 C 4.355469 9.109375 5.332031 8.789062 6.960938 8.148438 C 8.347656 7.605469 9.507812 7.1875 9.539062 7.222656 C 9.574219 7.253906 9.992188 8.25 10.46875 9.429688 L 11.332031 11.578125 L 11.371094 15.449219 L 11.414062 19.320312 L 5.453125 19.320312 L 3.175781 15.46875 C 1.925781 13.351562 0.808594 11.570312 0.699219 11.507812 C 0.417969 11.359375 0.128906 11.496094 0.0507812 11.820312 C -0.00390625 12.03125 0.535156 13.035156 2.347656 16.097656 C 3.648438 18.300781 4.761719 20.152344 4.820312 20.21875 C 4.882812 20.285156 5.355469 20.367188 5.871094 20.398438 L 6.816406 20.460938 L 5.808594 21.839844 C 4.78125 23.25 4.636719 23.65625 5.054688 23.917969 C 5.160156 23.984375 5.332031 24.007812 5.433594 23.96875 C 5.535156 23.929688 6.175781 23.109375 6.859375 22.152344 L 8.101562 20.40625 L 11.398438 20.398438 L 11.398438 22.441406 L 10.378906 22.441406 C 9.507812 22.441406 9.324219 22.476562 9.109375 22.6875 C 8.886719 22.914062 8.878906 22.964844 9.035156 23.199219 C 9.207031 23.453125 9.265625 23.460938 12 23.460938 C 14.734375 23.460938 14.792969 23.453125 14.964844 23.199219 C 15.121094 22.964844 15.113281 22.914062 14.890625 22.6875 C 14.671875 22.472656 14.492188 22.441406 13.5 22.441406 L 12.359375 22.441406 L 12.359375 20.398438 L 20.726562 20.398438 L 21.914062 22.101562 C 22.566406 23.035156 23.195312 23.859375 23.308594 23.929688 C 23.570312 24.089844 23.925781 23.898438 23.972656 23.566406 C 24.007812 23.34375 21.523438 19.617188 21.210938 19.417969 C 21.128906 19.367188 19.101562 19.324219 16.710938 19.320312 L 12.359375 19.320312 L 12.359375 11.503906 L 11.460938 9.199219 C 10.964844 7.933594 10.558594 6.859375 10.558594 6.820312 C 10.558594 6.777344 11.75 6.273438 13.199219 5.703125 C 14.851562 5.050781 15.886719 4.582031 15.957031 4.445312 C 16.148438 4.089844 15.46875 2.886719 14.660156 2.136719 C 13.363281 0.941406 11.835938 0.414062 9.964844 0.519531 C 9.335938 0.554688 8.675781 0.621094 8.5 0.664062 C 8.226562 0.734375 8.152344 0.691406 7.988281 0.371094 C 7.753906 -0.078125 7.28125 -0.136719 7.070312 0.253906 M 10.644531 1.910156 C 11.425781 2.4375 12.214844 3.328125 12.628906 4.140625 C 12.761719 4.402344 12.882812 4.636719 12.898438 4.65625 C 12.945312 4.710938 14.566406 4.082031 14.6875 3.960938 C 14.832031 3.8125 14.128906 2.910156 13.484375 2.414062 C 12.773438 1.871094 11.859375 1.550781 10.800781 1.472656 L 9.898438 1.40625 L 10.644531 1.910156 M 7.902344 2.546875 C 7.730469 2.828125 7.515625 3.277344 7.429688 3.539062 C 7.234375 4.132812 7.230469 5.648438 7.417969 6.316406 L 7.5625 6.8125 L 9.691406 5.972656 C 10.863281 5.511719 11.84375 5.109375 11.875 5.082031 C 11.996094 4.96875 11.320312 3.890625 10.773438 3.335938 C 10.21875 2.765625 9.3125 2.257812 8.578125 2.109375 C 8.253906 2.042969 8.1875 2.085938 7.902344 2.546875 M 5.949219 3.359375 C 5.640625 3.695312 5.210938 4.328125 5.003906 4.773438 C 4.660156 5.496094 4.621094 5.691406 4.621094 6.679688 C 4.621094 7.285156 4.652344 7.8125 4.691406 7.851562 C 4.746094 7.90625 6.433594 7.289062 6.550781 7.167969 C 6.566406 7.152344 6.503906 6.84375 6.410156 6.484375 C 6.191406 5.632812 6.191406 4.15625 6.414062 3.414062 C 6.511719 3.09375 6.574219 2.8125 6.554688 2.792969 C 6.53125 2.773438 6.261719 3.027344 5.949219 3.359375 "/>
</g>
</svg>
