<?xml version="1.0" encoding="UTF-8"?>
<svg xmlns="http://www.w3.org/2000/svg" xmlns:xlink="http://www.w3.org/1999/xlink" width="24px" height="24px" viewBox="0 0 24 24" version="1.1">
<g id="surface1">
<path style=" stroke:none;fill-rule:evenodd;fill:rgb(0%,0%,0%);fill-opacity:1;" d="M 7.226562 2.070312 C 7.074219 2.25 1.921875 21.445312 1.921875 21.820312 C 1.921875 22.082031 2.101562 22.152344 2.363281 21.984375 C 2.441406 21.933594 2.949219 20.234375 3.496094 18.207031 L 4.484375 14.519531 L 11.761719 14.519531 C 18.546875 14.519531 19.054688 14.503906 19.21875 14.308594 C 19.457031 14.03125 22.136719 3.925781 22.042969 3.675781 C 21.972656 3.496094 21.304688 3.480469 14.703125 3.480469 C 10.707031 3.480469 7.441406 3.460938 7.441406 3.441406 C 7.441406 3.421875 7.523438 3.121094 7.625 2.777344 C 7.726562 2.4375 7.777344 2.101562 7.738281 2.039062 C 7.636719 1.875 7.375 1.890625 7.226562 2.070312 M 6.375 7.46875 C 5.898438 9.269531 5.480469 10.828125 5.449219 10.941406 C 5.414062 11.0625 7.769531 9.796875 11.410156 7.734375 C 14.71875 5.863281 17.457031 4.300781 17.492188 4.265625 C 17.53125 4.230469 15.238281 4.199219 12.402344 4.199219 L 7.246094 4.199219 L 6.375 7.46875 M 12.058594 8.105469 L 5.21875 11.984375 L 5.027344 12.5625 C 4.925781 12.878906 4.800781 13.289062 4.757812 13.46875 L 4.675781 13.800781 L 6.15625 13.800781 L 13.1875 9.816406 C 21.65625 5.023438 21.070312 5.378906 21.15625 4.960938 C 21.191406 4.773438 21.261719 4.527344 21.304688 4.410156 C 21.378906 4.21875 21.28125 4.199219 20.144531 4.210938 L 18.898438 4.222656 L 12.058594 8.105469 M 14.339844 9.914062 C 10.90625 11.863281 7.964844 13.53125 7.800781 13.625 C 7.542969 13.769531 8.273438 13.789062 13.144531 13.796875 L 18.785156 13.800781 L 19.734375 10.230469 C 20.257812 8.265625 20.707031 6.59375 20.734375 6.511719 C 20.761719 6.425781 20.738281 6.359375 20.683594 6.363281 C 20.625 6.363281 17.773438 7.960938 14.339844 9.914062 "/>
</g>
</svg>
