<?xml version="1.0" encoding="UTF-8"?>
<svg xmlns="http://www.w3.org/2000/svg" xmlns:xlink="http://www.w3.org/1999/xlink" width="100px" height="100px" viewBox="0 0 100 100" version="1.1">
<g id="surface1">
<path style=" stroke:none;fill-rule:evenodd;fill:rgb(0%,0%,0%);fill-opacity:1;" d="M 30.101562 8.625 C 29.484375 9.375 8 89.351562 8 90.914062 C 8 92.011719 8.757812 92.296875 9.84375 91.605469 C 10.171875 91.398438 12.292969 84.3125 14.558594 75.863281 L 18.675781 60.5 L 49.011719 60.5 C 77.285156 60.5 79.394531 60.441406 80.085938 59.625 C 81.070312 58.460938 92.242188 16.355469 91.84375 15.3125 C 91.558594 14.574219 88.765625 14.5 61.265625 14.5 C 44.621094 14.5 31 14.429688 31 14.339844 C 31 14.253906 31.347656 13.011719 31.773438 11.578125 C 32.199219 10.148438 32.410156 8.757812 32.242188 8.488281 C 31.824219 7.808594 30.722656 7.878906 30.101562 8.625 M 26.5625 31.125 C 24.570312 38.617188 22.832031 45.125 22.699219 45.582031 C 22.554688 46.085938 32.367188 40.8125 47.535156 32.234375 C 61.328125 24.433594 72.738281 17.929688 72.890625 17.777344 C 73.042969 17.625 63.496094 17.5 51.675781 17.5 L 30.183594 17.5 L 26.5625 31.125 M 50.25 33.765625 L 21.75 49.941406 L 20.953125 52.347656 C 20.515625 53.667969 20.007812 55.367188 19.820312 56.125 L 19.480469 57.5 L 25.652344 57.5 L 54.949219 40.910156 C 90.242188 20.921875 87.789062 22.417969 88.144531 20.664062 C 88.300781 19.886719 88.582031 18.855469 88.769531 18.375 C 89.078125 17.574219 88.664062 17.503906 83.929688 17.546875 L 78.75 17.59375 L 50.25 33.765625 M 59.75 41.300781 C 45.449219 49.425781 33.1875 56.386719 32.5 56.769531 C 31.421875 57.367188 34.46875 57.460938 54.761719 57.480469 L 78.273438 57.5 L 82.226562 42.625 C 84.402344 34.445312 86.277344 27.46875 86.394531 27.125 C 86.511719 26.78125 86.414062 26.503906 86.179688 26.511719 C 85.941406 26.519531 74.050781 33.175781 59.75 41.300781 "/>
</g>
</svg>
