<?xml version="1.0" encoding="UTF-8"?>
<svg xmlns="http://www.w3.org/2000/svg" xmlns:xlink="http://www.w3.org/1999/xlink" width="100px" height="100px" viewBox="0 0 100 100" version="1.1">
<g id="surface1">
<path style=" stroke:none;fill-rule:evenodd;fill:rgb(0%,0%,0%);fill-opacity:1;" d="M 48.832031 4.832031 C 47.949219 5.71875 48.738281 6.882812 51.125 8.210938 C 54.914062 10.324219 60.546875 16.128906 62.433594 19.871094 C 65.621094 26.179688 66.328125 33.246094 64.355469 39.027344 C 62.875 43.375 60.546875 47.125 56.273438 52.046875 C 52.261719 56.664062 52.300781 56.601562 49.339844 63 C 48.132812 65.613281 46.226562 69.097656 45.109375 70.746094 C 43.988281 72.390625 43.15625 73.820312 43.253906 73.921875 C 43.558594 74.226562 58.230469 70.078125 63.199219 68.28125 C 79.1875 62.492188 89.765625 55.339844 93.371094 47.878906 C 98.753906 36.742188 92.535156 24.292969 77 15.105469 C 71.375 11.777344 62.328125 8.011719 55.054688 5.96875 C 49.3125 4.355469 49.3125 4.355469 48.832031 4.832031 M 66.921875 19.015625 C 66.40625 19.316406 66.191406 19.878906 66.355469 20.507812 C 66.703125 21.835938 67.199219 22.09375 68.683594 21.722656 C 69.804688 21.441406 69.871094 21.277344 69.410156 19.957031 C 68.878906 18.429688 68.296875 18.210938 66.921875 19.015625 M 31.25 21.234375 C 29.601562 21.59375 26.445312 22.585938 24.238281 23.4375 C 19.695312 25.191406 12.5 29.691406 12.5 30.777344 C 12.5 31.75 12.5 31.75 17.597656 29.710938 C 24.269531 27.039062 28.800781 26.242188 33.195312 26.953125 C 35.152344 27.269531 37.875 28.066406 39.25 28.722656 C 41.300781 29.699219 42.734375 29.945312 47.25 30.09375 C 52.234375 30.257812 53.042969 30.421875 55.886719 31.855469 L 59.027344 33.433594 L 57.664062 30.933594 C 55.722656 27.359375 50.707031 22.835938 47.265625 21.546875 C 43.953125 20.308594 36.1875 20.15625 31.25 21.234375 M 68.339844 25.375 C 68.21875 25.582031 68.332031 27.304688 68.589844 29.207031 C 69.296875 34.367188 68.40625 38.679688 65.429688 44.484375 C 63.179688 48.875 63.054688 49.300781 63.847656 49.882812 C 65.125 50.820312 65.570312 50.480469 67.574219 47.054688 C 70.292969 42.398438 71.691406 37.558594 71.699219 32.769531 C 71.710938 26.878906 71.242188 25 69.757812 25 C 69.097656 25 68.460938 25.167969 68.339844 25.375 M 36.25 34.238281 C 33.773438 34.890625 29.492188 36.570312 26.730469 37.964844 C 17.1875 42.789062 15.800781 45.609375 24.582031 42.332031 C 32.101562 39.527344 36.773438 38.707031 41.28125 39.410156 C 46.886719 40.28125 49.683594 41.96875 51.546875 45.605469 C 52.070312 46.625 52.503906 47.976562 52.507812 48.605469 C 52.523438 51.050781 53.269531 51.136719 55.097656 48.898438 C 57.496094 45.96875 60.5 41.207031 60.5 40.335938 C 60.5 39.109375 56.539062 35.472656 53.835938 34.214844 C 50.207031 32.523438 42.695312 32.535156 36.25 34.238281 M 39.082031 45.375 C 36.8125 48.707031 34.839844 51.09375 29.09375 57.457031 C 25.480469 61.460938 24.960938 62.265625 25.09375 63.652344 C 25.265625 65.414062 25.003906 65.363281 30.566406 64.714844 C 33.066406 64.421875 33.511719 64.511719 34.507812 65.507812 C 35.507812 66.507812 35.589844 66.925781 35.265625 69.4375 C 34.585938 74.761719 34.582031 74.734375 36.3125 74.902344 C 38.121094 75.078125 38.636719 74.640625 41.699219 70.339844 C 49.902344 58.800781 51.980469 48.296875 46.808594 44.5 C 45.566406 43.589844 43.0625 42.589844 41.894531 42.539062 C 41.386719 42.515625 40.238281 43.675781 39.082031 45.375 M 82 51.828125 C 79.289062 54.070312 70.265625 59.003906 64.664062 61.304688 C 63.695312 61.703125 63.640625 61.898438 64.164062 63.113281 L 64.75 64.480469 L 69.777344 62.304688 C 75.394531 59.878906 80.953125 56.640625 84.554688 53.703125 C 87.199219 51.546875 87.417969 51.015625 86.125 49.898438 C 85.324219 49.207031 84.96875 49.371094 82 51.828125 M 17.601562 64.171875 C 12.296875 69.582031 11.023438 71.921875 11.023438 76.25 C 11.023438 83.476562 16.535156 89 23.75 89 C 28.113281 89 30.808594 87.484375 36.25 81.96875 L 40.75 77.40625 L 38.101562 77.753906 C 33.566406 78.347656 31.027344 76.433594 31.683594 72.914062 C 32.699219 67.484375 32.699219 67.5 31.574219 67.5 C 30.992188 67.5 29.527344 67.765625 28.320312 68.085938 C 23.953125 69.253906 21.578125 66.882812 22.246094 62.023438 C 22.4375 60.636719 22.5 59.5 22.390625 59.5 C 22.277344 59.5 20.121094 61.601562 17.601562 64.171875 M 58.355469 63.347656 C 57.699219 63.519531 57.546875 63.871094 57.785156 64.664062 C 58.257812 66.234375 58.632812 66.503906 59.882812 66.175781 C 61.015625 65.878906 61.242188 65.214844 60.695312 63.789062 C 60.390625 62.996094 60 62.921875 58.355469 63.347656 M 52.097656 65.429688 C 51.667969 65.703125 51.558594 66.308594 51.777344 67.1875 C 52.050781 68.273438 52.320312 68.46875 53.183594 68.210938 C 54.734375 67.742188 55.003906 67.367188 54.675781 66.117188 C 54.378906 64.976562 53.273438 64.683594 52.097656 65.429688 M 6.613281 89.136719 C 4.484375 91.28125 3 93.195312 3 93.800781 C 3 95.074219 4.980469 97 6.292969 97 C 6.851562 97 8.886719 95.378906 10.996094 93.253906 L 14.714844 89.511719 L 12.753906 87.503906 C 11.679688 86.402344 10.667969 85.5 10.511719 85.5 C 10.351562 85.5 8.597656 87.136719 6.613281 89.136719 "/>
</g>
</svg>
