<?xml version="1.0" encoding="UTF-8"?>
<svg xmlns="http://www.w3.org/2000/svg" xmlns:xlink="http://www.w3.org/1999/xlink" width="24px" height="24px" viewBox="0 0 24 24" version="1.1">
<g id="surface1">
<path style=" stroke:none;fill-rule:evenodd;fill:rgb(0%,0%,0%);fill-opacity:1;" d="M 11.71875 1.160156 C 11.507812 1.371094 11.695312 1.652344 12.269531 1.972656 C 13.179688 2.476562 14.53125 3.871094 14.984375 4.769531 C 15.75 6.285156 15.917969 7.980469 15.445312 9.367188 C 15.089844 10.410156 14.53125 11.308594 13.503906 12.492188 C 12.542969 13.597656 12.550781 13.585938 11.84375 15.121094 C 11.550781 15.746094 11.09375 16.582031 10.824219 16.980469 C 10.558594 17.375 10.355469 17.71875 10.378906 17.742188 C 10.453125 17.816406 13.976562 16.820312 15.167969 16.386719 C 19.003906 15 21.542969 13.28125 22.410156 11.492188 C 23.699219 8.816406 22.207031 5.832031 18.480469 3.625 C 17.128906 2.828125 14.957031 1.921875 13.214844 1.433594 C 11.835938 1.046875 11.835938 1.046875 11.71875 1.160156 M 16.0625 4.5625 C 15.9375 4.636719 15.886719 4.769531 15.925781 4.921875 C 16.007812 5.242188 16.128906 5.300781 16.484375 5.214844 C 16.753906 5.144531 16.769531 5.105469 16.660156 4.789062 C 16.53125 4.421875 16.390625 4.371094 16.0625 4.5625 M 7.5 5.097656 C 7.105469 5.183594 6.347656 5.421875 5.816406 5.625 C 4.726562 6.046875 3 7.125 3 7.386719 C 3 7.621094 3 7.621094 4.222656 7.128906 C 5.824219 6.488281 6.914062 6.296875 7.96875 6.46875 C 8.4375 6.542969 9.089844 6.734375 9.421875 6.894531 C 9.914062 7.128906 10.257812 7.1875 11.339844 7.222656 C 12.535156 7.261719 12.730469 7.300781 13.414062 7.644531 L 14.167969 8.023438 L 13.839844 7.421875 C 13.375 6.566406 12.167969 5.480469 11.34375 5.171875 C 10.546875 4.875 8.683594 4.835938 7.5 5.097656 M 16.402344 6.089844 C 16.371094 6.140625 16.398438 6.554688 16.460938 7.007812 C 16.632812 8.25 16.417969 9.28125 15.703125 10.675781 C 15.164062 11.730469 15.132812 11.832031 15.324219 11.972656 C 15.628906 12.195312 15.738281 12.117188 16.21875 11.292969 C 16.871094 10.175781 17.207031 9.015625 17.207031 7.863281 C 17.210938 6.449219 17.097656 6 16.742188 6 C 16.582031 6 16.429688 6.039062 16.402344 6.089844 M 8.699219 8.21875 C 8.105469 8.375 7.078125 8.777344 6.414062 9.113281 C 4.125 10.269531 3.792969 10.945312 5.898438 10.160156 C 7.703125 9.484375 8.824219 9.289062 9.90625 9.457031 C 11.253906 9.667969 11.925781 10.070312 12.371094 10.945312 C 12.496094 11.191406 12.601562 11.515625 12.601562 11.664062 C 12.605469 12.253906 12.785156 12.273438 13.222656 11.734375 C 13.796875 11.03125 14.519531 9.890625 14.519531 9.679688 C 14.519531 9.386719 13.570312 8.511719 12.921875 8.210938 C 12.050781 7.804688 10.246094 7.808594 8.699219 8.21875 M 9.378906 10.890625 C 8.835938 11.691406 8.363281 12.261719 6.984375 13.789062 C 6.113281 14.75 5.992188 14.945312 6.023438 15.277344 C 6.0625 15.699219 6 15.6875 7.335938 15.53125 C 7.933594 15.460938 8.042969 15.484375 8.28125 15.722656 C 8.523438 15.960938 8.542969 16.0625 8.464844 16.664062 C 8.300781 17.941406 8.300781 17.9375 8.714844 17.976562 C 9.148438 18.019531 9.273438 17.914062 10.007812 16.882812 C 11.976562 14.113281 12.476562 11.589844 11.234375 10.679688 C 10.9375 10.460938 10.335938 10.222656 10.054688 10.210938 C 9.933594 10.203125 9.65625 10.480469 9.378906 10.890625 M 19.679688 12.4375 C 19.03125 12.976562 16.863281 14.160156 15.519531 14.714844 C 15.285156 14.808594 15.273438 14.855469 15.398438 15.148438 L 15.539062 15.476562 L 16.746094 14.953125 C 18.09375 14.371094 19.429688 13.59375 20.292969 12.890625 C 20.925781 12.371094 20.980469 12.242188 20.671875 11.976562 C 20.476562 11.808594 20.394531 11.847656 19.679688 12.4375 M 4.222656 15.402344 C 2.953125 16.699219 2.644531 17.261719 2.644531 18.300781 C 2.644531 20.035156 3.96875 21.359375 5.699219 21.359375 C 6.746094 21.359375 7.394531 20.996094 8.699219 19.671875 L 9.78125 18.578125 L 9.144531 18.660156 C 8.054688 18.804688 7.445312 18.34375 7.605469 17.5 C 7.847656 16.195312 7.847656 16.199219 7.578125 16.199219 C 7.4375 16.199219 7.085938 16.261719 6.796875 16.339844 C 5.75 16.621094 5.179688 16.050781 5.339844 14.886719 C 5.386719 14.550781 5.398438 14.28125 5.375 14.28125 C 5.347656 14.28125 4.828125 14.785156 4.222656 15.402344 M 14.003906 15.203125 C 13.847656 15.246094 13.8125 15.328125 13.867188 15.519531 C 13.980469 15.894531 14.070312 15.960938 14.371094 15.882812 C 14.644531 15.8125 14.699219 15.652344 14.566406 15.308594 C 14.492188 15.117188 14.398438 15.101562 14.003906 15.203125 M 12.503906 15.703125 C 12.402344 15.769531 12.375 15.914062 12.425781 16.125 C 12.492188 16.386719 12.558594 16.433594 12.765625 16.371094 C 13.136719 16.257812 13.199219 16.167969 13.121094 15.867188 C 13.050781 15.59375 12.785156 15.523438 12.503906 15.703125 M 1.585938 21.394531 C 1.074219 21.90625 0.71875 22.367188 0.71875 22.511719 C 0.71875 22.816406 1.195312 23.28125 1.511719 23.28125 C 1.644531 23.28125 2.132812 22.890625 2.640625 22.382812 L 3.53125 21.484375 L 3.0625 21 C 2.804688 20.738281 2.558594 20.519531 2.523438 20.519531 C 2.484375 20.519531 2.0625 20.914062 1.585938 21.394531 "/>
</g>
</svg>
