<?xml version="1.0" encoding="UTF-8"?>
<svg xmlns="http://www.w3.org/2000/svg" xmlns:xlink="http://www.w3.org/1999/xlink" width="100px" height="100px" viewBox="0 0 100 100" version="1.1">
<g id="surface1">
<path style=" stroke:none;fill-rule:evenodd;fill:rgb(0%,0%,0%);fill-opacity:1;" d="M 58.375 0.539062 C 57.121094 1.269531 57.296875 2.863281 58.824219 4.679688 C 60.792969 7.011719 61.5 9.109375 61.496094 12.609375 C 61.496094 15.910156 60.957031 18.582031 59.703125 21.507812 C 59.078125 22.980469 58.335938 23.542969 55.203125 24.957031 C 51.699219 26.53125 51.21875 26.621094 47.851562 26.320312 C 45.871094 26.144531 42.113281 25.480469 39.5 24.847656 L 34.75 23.695312 L 34.433594 20.972656 C 34.039062 17.597656 33.472656 16.136719 31.753906 14.097656 C 30.363281 12.445312 28.664062 12.035156 27.601562 13.101562 C 26.746094 13.953125 26.851562 14.746094 27.722656 14.023438 C 29.992188 12.136719 33 16.015625 33 20.828125 L 33 23.5 L 30.125 23.535156 C 25.863281 23.585938 24.421875 24.417969 28.5 24.472656 C 30.289062 24.496094 31.996094 24.679688 32.292969 24.882812 C 32.96875 25.339844 34.085938 28.5 33.570312 28.5 C 33.363281 28.5 31.183594 27.664062 28.722656 26.644531 C 22.984375 24.261719 18.863281 24.160156 12.75 26.253906 C 10.550781 27.007812 8.472656 27.84375 8.132812 28.113281 C 7.371094 28.726562 6.429688 31.984375 6.832031 32.632812 C 7.234375 33.285156 7.984375 32.003906 7.992188 30.636719 C 7.996094 30.023438 8.507812 29.195312 9.125 28.796875 C 10.253906 28.070312 17.023438 26.5 19.035156 26.5 L 20.109375 26.5 L 18.980469 27.414062 C 18.105469 28.125 17.925781 28.632812 18.183594 29.664062 C 18.367188 30.398438 18.742188 31 19.019531 31 C 19.292969 31 19.386719 30.476562 19.226562 29.839844 C 18.578125 27.246094 20.96875 27.121094 27.417969 29.414062 L 30.085938 30.367188 L 26.84375 32.179688 C 14.894531 38.863281 9.179688 49.621094 10.519531 62.914062 C 12.21875 79.757812 21.792969 92.441406 36.613281 97.480469 C 47.746094 101.269531 59.542969 100.601562 70.140625 95.589844 C 75.820312 92.90625 79.921875 89.710938 83.5625 85.136719 C 89.136719 78.140625 91.875 70.542969 92.355469 60.75 C 92.832031 51.066406 90.457031 44.839844 83.742188 38.171875 C 80.300781 34.753906 78.796875 33.679688 74.445312 31.546875 C 71.59375 30.144531 68.875 29 68.40625 29 C 66.945312 29 66.996094 28.21875 68.519531 27.316406 C 70.550781 26.117188 72.207031 23.074219 74.441406 16.429688 C 76.488281 10.347656 78.394531 6.226562 80.367188 3.640625 C 81.042969 2.757812 81.496094 1.742188 81.375 1.390625 C 80.980469 0.230469 75.171875 9.789062 73.554688 14.257812 C 71.136719 20.9375 69.601562 23.84375 67.628906 25.46875 C 65.5 27.226562 63.707031 27.707031 61.011719 27.25 C 59.203125 26.945312 59.089844 26.839844 59.644531 25.921875 C 59.976562 25.371094 61.757812 24.035156 63.601562 22.953125 C 67.195312 20.84375 68.46875 19.632812 66.4375 20.261719 C 65.785156 20.460938 64.609375 20.953125 63.828125 21.351562 C 62.011719 22.277344 61.808594 22.027344 62.460938 19.671875 C 63.179688 17.082031 63.144531 9.882812 62.402344 8.148438 C 62.074219 7.378906 61.039062 5.785156 60.105469 4.609375 C 58.425781 2.492188 58.257812 1 59.703125 1 C 60.109375 1 60.578125 0.773438 60.75 0.5 C 61.148438 -0.148438 59.507812 -0.121094 58.375 0.539062 M 35 26.214844 C 35 27.714844 36.363281 28.425781 38.359375 27.960938 C 39.398438 27.722656 40.476562 27.5 40.75 27.472656 C 41.34375 27.414062 36.527344 25.59375 35.625 25.539062 C 35.28125 25.515625 35 25.820312 35 26.214844 M 62.75 30.058594 C 61.925781 30.316406 59.011719 30.546875 56.277344 30.566406 C 53.542969 30.582031 50.75 30.808594 50.070312 31.070312 C 48.195312 31.78125 38.117188 32.015625 34.933594 31.417969 C 32.273438 30.921875 31.9375 30.980469 28.878906 32.4375 C 20.140625 36.609375 14.25 43.636719 12.199219 52.34375 C 11.140625 56.832031 11.507812 65.28125 12.984375 70.5 C 14.980469 77.539062 17.710938 82.246094 22.730469 87.292969 C 27.84375 92.433594 30.726562 94.242188 37.511719 96.566406 C 41.8125 98.035156 42.925781 98.207031 49.558594 98.398438 C 58.007812 98.636719 62.511719 97.789062 68.957031 94.730469 C 82.566406 88.273438 90.261719 76.761719 91.292969 61.320312 C 92.222656 47.421875 84.460938 36.066406 70.570312 30.996094 C 66.253906 29.421875 65.183594 29.292969 62.75 30.058594 "/>
</g>
</svg>
