<?xml version="1.0" encoding="UTF-8"?>
<svg xmlns="http://www.w3.org/2000/svg" xmlns:xlink="http://www.w3.org/1999/xlink" width="100px" height="100px" viewBox="0 0 100 100" version="1.1">
<g id="surface1">
<path style=" stroke:none;fill-rule:evenodd;fill:rgb(0%,0%,0%);fill-opacity:1;" d="M 27.308594 12.023438 C 21.519531 13.476562 15.625 18.511719 12.851562 24.371094 C 11.367188 27.503906 11.25 28.128906 11.25 33 C 11.25 37.871094 11.367188 38.496094 12.851562 41.628906 C 14.632812 45.394531 18.546875 49.847656 21.6875 51.683594 C 28.738281 55.808594 38.671875 55.300781 45.070312 50.492188 C 48.410156 47.984375 50.433594 45.4375 52.285156 41.410156 C 53.597656 38.5625 53.742188 37.734375 53.746094 33 C 53.75 28.125 53.636719 27.507812 52.148438 24.371094 C 49.953125 19.730469 46.214844 15.90625 41.691406 13.671875 C 38.511719 12.101562 37.515625 11.855469 33.65625 11.707031 C 31.234375 11.613281 28.375 11.757812 27.308594 12.023438 M 27.511719 14.269531 C 16.097656 17.46875 10.351562 29.027344 14.566406 40.320312 C 15.382812 42.515625 16.484375 44.078125 18.953125 46.546875 C 23.257812 50.851562 26.449219 52.175781 32.5 52.175781 C 38.550781 52.175781 41.742188 50.851562 46.046875 46.546875 C 50.351562 42.242188 51.675781 39.050781 51.675781 33 C 51.675781 26.949219 50.351562 23.757812 46.046875 19.453125 C 43.550781 16.957031 42.023438 15.886719 39.75 15.039062 C 35.84375 13.582031 31.042969 13.28125 27.511719 14.269531 M 31.191406 16.722656 C 29.128906 17.613281 28.394531 19.671875 29.25 22.160156 C 30.046875 24.480469 32.40625 27.613281 33.171875 27.367188 C 34.144531 27.054688 37 21.878906 37 20.425781 C 37 18.898438 35.28125 16.722656 33.75 16.3125 C 33.199219 16.167969 32.050781 16.351562 31.191406 16.722656 M 31.003906 19.492188 C 30.59375 20.261719 30.703125 20.941406 31.503906 22.511719 C 32.074219 23.625 32.714844 24.425781 32.933594 24.292969 C 33.148438 24.15625 33.734375 23.140625 34.234375 22.035156 C 34.972656 20.394531 35.023438 19.882812 34.507812 19.261719 C 33.613281 18.183594 31.636719 18.3125 31.003906 19.492188 M 21.394531 20.441406 C 18.050781 22.144531 18.507812 26.40625 22.214844 28.023438 C 24.042969 28.824219 26.117188 29.203125 27.875 29.054688 C 29.253906 28.9375 28.070312 23.011719 26.265625 21.019531 C 25.09375 19.722656 23.242188 19.503906 21.394531 20.441406 M 39.132812 21.125 C 37.859375 22.503906 36.851562 25.753906 37.082031 27.757812 C 37.234375 29.125 37.394531 29.238281 39 29.125 C 41.523438 28.945312 44.929688 27.5625 45.503906 26.488281 C 46.398438 24.820312 46.085938 22.253906 44.84375 21.085938 C 43.273438 19.613281 40.515625 19.628906 39.132812 21.125 M 21.515625 22.96875 C 20.734375 24.429688 21.601562 25.792969 23.78125 26.511719 C 24.761719 26.835938 25.710938 26.957031 25.886719 26.78125 C 26.0625 26.605469 25.878906 25.511719 25.476562 24.355469 C 24.894531 22.667969 24.484375 22.21875 23.410156 22.09375 C 22.464844 21.984375 21.90625 22.246094 21.515625 22.96875 M 40.296875 23.125 C 39.894531 23.742188 39.414062 24.867188 39.230469 25.625 C 38.953125 26.753906 39.058594 27 39.820312 26.996094 C 41.277344 26.996094 44 25.113281 44 24.109375 C 44 21.949219 41.488281 21.28125 40.296875 23.125 M 17.582031 29.785156 C 16.109375 30.40625 15 32.105469 15 33.742188 C 15 34.117188 15.582031 35.117188 16.292969 35.960938 C 17.84375 37.800781 19.664062 37.964844 22.394531 36.511719 C 26.625 34.257812 26.976562 33.160156 24.085938 31.246094 C 21.296875 29.402344 19.472656 28.992188 17.582031 29.785156 M 43.589844 29.757812 C 41.074219 30.851562 39 32.476562 39 33.355469 C 39 34.796875 43.519531 37.5 45.933594 37.5 C 47.460938 37.5 50 35.152344 50 33.742188 C 50 32.035156 48.890625 30.402344 47.269531 29.726562 C 45.226562 28.871094 45.640625 28.867188 43.589844 29.757812 M 17.5 32.5 C 16.777344 33.847656 17.683594 35.5 19.140625 35.496094 C 19.75 35.496094 21.027344 35.023438 21.980469 34.441406 L 23.710938 33.386719 L 21.980469 32.464844 C 19.707031 31.253906 18.160156 31.265625 17.5 32.5 M 42.859375 32.28125 C 41.1875 33.203125 41.34375 33.550781 43.964844 34.734375 C 45.636719 35.488281 46.109375 35.53125 46.765625 34.988281 C 47.207031 34.621094 47.484375 33.769531 47.402344 33.042969 C 47.28125 32.003906 46.953125 31.726562 45.75 31.632812 C 44.925781 31.566406 43.625 31.859375 42.859375 32.28125 M 36.6875 37.738281 C 36.125 39.203125 37.460938 43.824219 38.84375 45.207031 C 41.207031 47.570312 44.992188 46.453125 45.820312 43.144531 C 46.511719 40.394531 43.765625 37.875 39.382812 37.234375 C 37.410156 36.945312 36.957031 37.03125 36.6875 37.738281 M 25.25 37.746094 C 24.976562 37.835938 24.148438 38.042969 23.414062 38.207031 C 21.050781 38.726562 19 40.867188 19 42.816406 C 19 45.035156 20.855469 47 22.949219 47 C 25.359375 47 27.050781 45.136719 27.746094 41.714844 C 28.078125 40.082031 28.246094 38.46875 28.121094 38.125 C 27.910156 37.546875 26.429688 37.351562 25.25 37.746094 M 30.601562 41.351562 C 28.550781 44.566406 28.238281 46.046875 29.21875 47.9375 C 30.023438 49.492188 31.792969 50.328125 33.75 50.074219 C 35.195312 49.886719 37 47.667969 37 46.074219 C 37 44.390625 34.046875 39.320312 32.941406 39.109375 C 32.433594 39.011719 31.570312 39.839844 30.601562 41.351562 M 39.199219 41.125 C 39.632812 43.28125 41.078125 44.699219 42.414062 44.277344 C 44.636719 43.570312 44.300781 40.878906 41.886719 40.035156 C 39.269531 39.121094 38.835938 39.296875 39.199219 41.125 M 23.15625 40.503906 C 21.382812 41.21875 20.855469 42.710938 21.914062 44.015625 C 23.101562 45.488281 24.738281 44.972656 25.457031 42.90625 C 26.464844 40.015625 25.882812 39.40625 23.15625 40.503906 M 31.816406 43.21875 C 31.3125 43.988281 31.007812 45.234375 31.09375 46.152344 C 31.222656 47.449219 31.492188 47.777344 32.542969 47.902344 C 35.089844 48.195312 35.664062 45.546875 33.601562 43.003906 L 32.695312 41.878906 L 31.816406 43.21875 M 59.429688 47.65625 C 51.609375 50.324219 46.472656 56.347656 44.941406 64.65625 C 43.511719 72.4375 47.3125 81.140625 54.175781 85.78125 C 68.351562 95.375 87.589844 85.171875 87.589844 68.0625 C 87.589844 60.726562 84.703125 54.996094 78.828125 50.664062 C 73.261719 46.5625 65.960938 45.429688 59.429688 47.65625 M 62.589844 49.011719 C 56.648438 50.246094 51.386719 54.324219 48.71875 59.757812 C 47.375 62.492188 47.25 63.203125 47.25 68.007812 C 47.25 72.9375 47.351562 73.472656 48.886719 76.59375 C 50.925781 80.738281 54.871094 84.480469 58.875 86.066406 C 61.097656 86.949219 62.777344 87.210938 66.277344 87.226562 C 70.523438 87.25 71.035156 87.132812 74.617188 85.363281 C 81.414062 82.007812 85.027344 76.507812 85.375 69 C 85.609375 63.9375 84.554688 60.324219 81.710938 56.449219 C 77.554688 50.78125 69.367188 47.597656 62.589844 49.011719 M 65.5 51.351562 C 62.140625 52.582031 61.578125 56.027344 64.125 59.789062 C 65.019531 61.109375 66.011719 62.269531 66.328125 62.371094 C 67.09375 62.613281 69.453125 59.476562 70.25 57.160156 C 71.128906 54.609375 70.375 52.605469 68.199219 51.695312 C 67.28125 51.3125 66.46875 51.019531 66.390625 51.039062 C 66.3125 51.0625 65.914062 51.203125 65.5 51.351562 M 64.832031 53.832031 C 64.1875 54.480469 64.515625 56.765625 65.464844 58.203125 L 66.421875 59.652344 L 67.457031 57.953125 C 68.640625 56.011719 68.761719 54.960938 67.898438 54.101562 C 67.253906 53.453125 65.375 53.289062 64.832031 53.832031 M 54.160156 56.125 C 52.660156 57.792969 52.433594 58.871094 53.195312 60.699219 C 54 62.617188 56.851562 64 60.011719 64 C 61.953125 64 62 63.960938 62 62.234375 C 62 60.265625 60.886719 57.253906 59.652344 55.894531 C 58.46875 54.582031 55.433594 54.710938 54.160156 56.125 M 72.753906 56.296875 C 71.460938 57.691406 70.15625 62.382812 70.679688 63.75 C 71.378906 65.566406 78.292969 63.203125 79.402344 60.765625 C 80.261719 58.882812 80.160156 58.265625 78.707031 56.539062 C 77 54.511719 74.5 54.410156 72.753906 56.296875 M 55.617188 57.582031 C 54.378906 58.820312 54.890625 60.503906 56.734375 61.277344 C 59.296875 62.347656 60.136719 62.234375 59.730469 60.875 C 58.695312 57.425781 57.074219 56.128906 55.617188 57.582031 M 74.132812 57.625 C 73.425781 58.53125 72.449219 61.613281 72.765625 61.933594 C 72.917969 62.082031 73.988281 61.878906 75.144531 61.476562 C 76.691406 60.945312 77.292969 60.445312 77.414062 59.597656 C 77.710938 57.5 75.34375 56.078125 74.132812 57.625 M 51.152344 64.757812 C 49.351562 65.515625 48.304688 67.914062 48.988281 69.71875 C 49.570312 71.246094 51.378906 72.5 53.007812 72.5 C 54.636719 72.5 59.75 69.480469 59.75 68.519531 C 59.75 67.625 56.285156 65.148438 54.210938 64.558594 C 53.171875 64.261719 52.175781 64.328125 51.152344 64.757812 M 76.75 64.976562 C 73.433594 66.5625 72.15625 67.808594 72.792969 68.835938 C 73.765625 70.40625 78.597656 72.710938 80.117188 72.328125 C 83.617188 71.449219 84.640625 67.546875 81.960938 65.292969 C 80.132812 63.757812 79.398438 63.710938 76.75 64.976562 M 51.332031 66.832031 C 50.789062 67.375 50.953125 69.253906 51.601562 69.898438 C 52.460938 70.761719 53.511719 70.640625 55.453125 69.457031 L 57.152344 68.421875 L 55.703125 67.464844 C 54.265625 66.515625 51.980469 66.1875 51.332031 66.832031 M 76.507812 67.476562 C 75.113281 68.546875 75.117188 68.550781 77.398438 69.710938 C 79.304688 70.679688 80.8125 70.382812 81.265625 68.949219 C 81.996094 66.652344 78.847656 65.679688 76.507812 67.476562 M 70.246094 72.507812 C 70.074219 72.785156 70.195312 74.289062 70.519531 75.851562 C 71.578125 80.9375 75.417969 83.128906 78.273438 80.273438 C 80.070312 78.476562 79.949219 75.96875 77.984375 74.3125 C 75.722656 72.410156 70.988281 71.304688 70.246094 72.507812 M 56.878906 73.289062 C 52.875 74.539062 51.496094 78.507812 54.246094 80.875 C 57.578125 83.742188 61.488281 80.683594 61.671875 75.070312 C 61.742188 72.933594 61.652344 72.742188 60.5 72.648438 C 59.8125 72.59375 58.183594 72.882812 56.878906 73.289062 M 64.738281 75.722656 C 61.707031 79.695312 61.652344 83.484375 64.609375 84.726562 C 67.863281 86.09375 70.804688 83.824219 70.335938 80.304688 C 70.085938 78.441406 67.703125 74.484375 66.613281 74.121094 C 66.324219 74.023438 65.480469 74.746094 64.738281 75.722656 M 72.5 74.859375 C 72.5 76.132812 73.703125 78.574219 74.550781 79.027344 C 76.664062 80.15625 78.644531 77.074219 76.792969 75.535156 C 75.855469 74.757812 72.5 74.226562 72.5 74.859375 M 56.625 75.746094 C 55.433594 76.265625 55 76.773438 55 77.664062 C 55 79.183594 56.148438 80.179688 57.429688 79.773438 C 58.207031 79.527344 60 76.363281 60 75.238281 C 60 74.78125 58.238281 75.042969 56.625 75.746094 M 65.316406 78.375 C 63.96875 80.972656 64.507812 83 66.539062 83 C 68.679688 83 68.964844 80.300781 67.070312 77.964844 L 66.128906 76.800781 L 65.316406 78.375 "/>
</g>
</svg>
