<?xml version="1.0" encoding="UTF-8"?>
<svg xmlns="http://www.w3.org/2000/svg" xmlns:xlink="http://www.w3.org/1999/xlink" width="24px" height="24px" viewBox="0 0 24 24" version="1.1">
<g id="surface1">
<path style=" stroke:none;fill-rule:evenodd;fill:rgb(0%,0%,0%);fill-opacity:1;" d="M 11.167969 1.71875 C 11.066406 1.980469 11.210938 3.128906 11.511719 4.457031 C 11.566406 4.710938 11.601562 4.921875 11.589844 4.921875 C 11.574219 4.921875 11.160156 4.785156 10.671875 4.617188 C 7.734375 3.613281 5.238281 4.09375 3.300781 6.035156 C 2.453125 6.882812 1.984375 7.621094 1.683594 8.578125 C 1.601562 8.84375 1.378906 9.304688 1.195312 9.601562 C 0.171875 11.238281 -0.28125 13.984375 0.179688 15.753906 C 1.128906 19.410156 5.160156 21.960938 10.921875 22.558594 C 14.234375 22.902344 16.957031 22.507812 19.3125 21.34375 C 22.226562 19.910156 23.769531 17.320312 23.777344 13.863281 C 23.78125 12.597656 23.6875 12.035156 23.285156 10.871094 C 23.148438 10.480469 23.039062 10.042969 23.039062 9.898438 C 23.039062 9.445312 22.214844 7.957031 21.582031 7.265625 C 20.734375 6.335938 19.683594 5.574219 18.363281 4.933594 C 16.898438 4.222656 16.21875 4.195312 14.539062 4.785156 C 13.921875 5 13.394531 5.15625 13.367188 5.125 C 13.339844 5.097656 13.535156 4.460938 13.804688 3.710938 C 14.070312 2.960938 14.273438 2.214844 14.253906 2.046875 C 14.203125 1.589844 13.769531 1.445312 12.445312 1.441406 C 11.328125 1.441406 11.269531 1.453125 11.167969 1.71875 M 6.933594 7.558594 C 5.292969 7.902344 2.421875 8.933594 2.015625 9.324219 C 0.859375 10.429688 0.136719 13.769531 0.644531 15.660156 C 1.472656 18.765625 4.679688 21.027344 9.511719 21.917969 C 11.113281 22.210938 14.824219 22.214844 16.175781 21.925781 C 19.066406 21.300781 21.082031 20.023438 22.257812 18.058594 C 23.347656 16.238281 23.648438 13.417969 22.972656 11.375 L 22.78125 10.808594 L 19.472656 9.183594 C 17.652344 8.289062 16.144531 7.574219 16.125 7.59375 C 16.105469 7.613281 15.925781 8.253906 15.730469 9.015625 C 15.109375 11.425781 14.496094 12.480469 13.71875 12.480469 C 13.355469 12.480469 13.179688 12.363281 12.488281 11.671875 C 11.800781 10.976562 9.757812 8.113281 9.53125 7.515625 C 9.425781 7.25 8.3125 7.265625 6.933594 7.558594 "/>
</g>
</svg>
