<?xml version="1.0" encoding="UTF-8"?>
<svg xmlns="http://www.w3.org/2000/svg" xmlns:xlink="http://www.w3.org/1999/xlink" width="100px" height="100px" viewBox="0 0 100 100" version="1.1">
<g id="surface1">
<path style=" stroke:none;fill-rule:evenodd;fill:rgb(0%,0%,0%);fill-opacity:1;" d="M 46.53125 7.167969 C 46.117188 8.253906 46.71875 13.042969 47.960938 18.578125 C 48.199219 19.632812 48.34375 20.5 48.285156 20.5 C 48.222656 20.5 46.503906 19.929688 44.460938 19.234375 C 32.21875 15.0625 21.824219 17.0625 13.75 25.140625 C 10.214844 28.675781 8.261719 31.75 7.011719 35.75 C 6.667969 36.851562 5.753906 38.761719 4.976562 40 C 0.710938 46.824219 -1.179688 58.265625 0.746094 65.648438 C 4.710938 80.871094 21.5 91.503906 45.5 93.992188 C 59.304688 95.421875 70.648438 93.78125 80.472656 88.9375 C 92.609375 82.953125 99.042969 72.167969 99.074219 57.765625 C 99.082031 52.492188 98.695312 50.140625 97.019531 45.296875 C 96.460938 43.671875 96 41.847656 96 41.238281 C 96 39.359375 92.5625 33.152344 89.929688 30.269531 C 86.394531 26.402344 82.011719 23.226562 76.507812 20.554688 C 70.414062 17.59375 67.574219 17.484375 60.578125 19.9375 C 58.011719 20.839844 55.8125 21.480469 55.695312 21.359375 C 55.574219 21.242188 56.394531 18.589844 57.511719 15.464844 C 58.628906 12.34375 59.480469 9.222656 59.398438 8.53125 C 59.171875 6.617188 57.375 6.015625 51.863281 6.007812 C 47.195312 6 46.953125 6.054688 46.53125 7.167969 M 28.894531 31.488281 C 22.046875 32.933594 10.089844 37.226562 8.390625 38.851562 C 3.582031 43.460938 0.574219 57.367188 2.679688 65.25 C 6.136719 78.1875 19.496094 87.613281 39.632812 91.320312 C 46.308594 92.550781 61.765625 92.570312 67.402344 91.351562 C 79.449219 88.757812 87.839844 83.425781 92.738281 75.25 C 97.285156 67.664062 98.539062 55.910156 95.710938 47.390625 L 94.929688 45.03125 L 81.136719 38.261719 C 73.546875 34.539062 67.273438 31.5625 67.1875 31.644531 C 67.101562 31.730469 66.363281 34.394531 65.546875 37.566406 C 62.957031 47.613281 60.40625 52 57.152344 52 C 55.648438 52 54.914062 51.515625 52.035156 48.625 C 49.164062 45.742188 40.660156 33.804688 39.707031 31.3125 C 39.28125 30.203125 34.628906 30.28125 28.894531 31.488281 "/>
</g>
</svg>
