<?xml version="1.0" encoding="UTF-8"?>
<svg xmlns="http://www.w3.org/2000/svg" xmlns:xlink="http://www.w3.org/1999/xlink" width="24px" height="24px" viewBox="0 0 24 24" version="1.1">
<g id="surface1">
<path style=" stroke:none;fill-rule:evenodd;fill:rgb(0%,0%,0%);fill-opacity:1;" d="M 6.554688 2.886719 C 5.164062 3.234375 3.75 4.441406 3.085938 5.847656 C 2.726562 6.601562 2.699219 6.75 2.699219 7.921875 C 2.699219 9.089844 2.726562 9.238281 3.085938 9.992188 C 3.511719 10.894531 4.453125 11.964844 5.203125 12.402344 C 6.898438 13.394531 9.28125 13.273438 10.816406 12.117188 C 11.617188 11.515625 12.105469 10.90625 12.546875 9.9375 C 12.863281 9.253906 12.898438 9.054688 12.898438 7.921875 C 12.898438 6.75 12.871094 6.601562 12.515625 5.847656 C 11.988281 4.734375 11.089844 3.816406 10.007812 3.28125 C 9.242188 2.902344 9.003906 2.84375 8.078125 2.808594 C 7.496094 2.789062 6.808594 2.820312 6.554688 2.886719 M 6.601562 3.425781 C 3.863281 4.191406 2.484375 6.964844 3.496094 9.675781 C 3.691406 10.203125 3.957031 10.578125 4.550781 11.171875 C 5.582031 12.203125 6.347656 12.523438 7.800781 12.523438 C 9.253906 12.523438 10.019531 12.203125 11.050781 11.171875 C 12.085938 10.136719 12.402344 9.371094 12.402344 7.921875 C 12.402344 6.46875 12.085938 5.703125 11.050781 4.667969 C 10.453125 4.070312 10.085938 3.8125 9.539062 3.609375 C 8.601562 3.261719 7.449219 3.1875 6.601562 3.425781 M 7.484375 4.011719 C 6.992188 4.226562 6.816406 4.722656 7.019531 5.316406 C 7.210938 5.875 7.777344 6.628906 7.960938 6.566406 C 8.195312 6.492188 8.878906 5.25 8.878906 4.902344 C 8.878906 4.535156 8.46875 4.011719 8.101562 3.914062 C 7.96875 3.878906 7.691406 3.925781 7.484375 4.011719 M 7.441406 4.679688 C 7.34375 4.863281 7.367188 5.027344 7.5625 5.402344 C 7.699219 5.667969 7.851562 5.863281 7.902344 5.832031 C 7.957031 5.796875 8.097656 5.554688 8.214844 5.289062 C 8.394531 4.894531 8.40625 4.773438 8.28125 4.621094 C 8.066406 4.363281 7.59375 4.394531 7.441406 4.679688 M 5.136719 4.90625 C 4.332031 5.316406 4.441406 6.335938 5.332031 6.726562 C 5.769531 6.917969 6.269531 7.007812 6.691406 6.972656 C 7.019531 6.945312 6.738281 5.523438 6.304688 5.042969 C 6.023438 4.734375 5.578125 4.679688 5.136719 4.90625 M 9.390625 5.070312 C 9.085938 5.402344 8.84375 6.179688 8.898438 6.664062 C 8.9375 6.992188 8.976562 7.015625 9.359375 6.988281 C 9.964844 6.945312 10.785156 6.617188 10.921875 6.359375 C 11.136719 5.957031 11.058594 5.339844 10.761719 5.0625 C 10.386719 4.707031 9.722656 4.710938 9.390625 5.070312 M 5.164062 5.511719 C 4.976562 5.863281 5.183594 6.191406 5.707031 6.363281 C 5.941406 6.441406 6.171875 6.46875 6.210938 6.425781 C 6.253906 6.386719 6.210938 6.125 6.113281 5.84375 C 5.976562 5.441406 5.875 5.332031 5.617188 5.304688 C 5.390625 5.277344 5.257812 5.339844 5.164062 5.511719 M 9.671875 5.550781 C 9.574219 5.699219 9.460938 5.96875 9.414062 6.148438 C 9.347656 6.421875 9.375 6.480469 9.558594 6.480469 C 9.90625 6.480469 10.558594 6.027344 10.558594 5.785156 C 10.558594 5.269531 9.957031 5.109375 9.671875 5.550781 M 4.21875 7.148438 C 3.867188 7.296875 3.601562 7.707031 3.601562 8.097656 C 3.601562 8.1875 3.738281 8.425781 3.910156 8.628906 C 4.28125 9.074219 4.71875 9.113281 5.375 8.761719 C 6.390625 8.222656 6.472656 7.957031 5.78125 7.5 C 5.109375 7.054688 4.671875 6.957031 4.21875 7.148438 M 10.460938 7.140625 C 9.859375 7.40625 9.359375 7.792969 9.359375 8.003906 C 9.359375 8.351562 10.445312 9 11.023438 9 C 11.390625 9 12 8.4375 12 8.097656 C 12 7.6875 11.734375 7.296875 11.34375 7.132812 C 10.855469 6.929688 10.953125 6.929688 10.460938 7.140625 M 4.199219 7.800781 C 4.027344 8.125 4.242188 8.519531 4.59375 8.519531 C 4.742188 8.519531 5.046875 8.40625 5.277344 8.265625 L 5.691406 8.011719 L 5.277344 7.792969 C 4.730469 7.5 4.359375 7.503906 4.199219 7.800781 M 10.285156 7.746094 C 9.882812 7.96875 9.921875 8.050781 10.550781 8.335938 C 10.953125 8.515625 11.066406 8.527344 11.222656 8.398438 C 11.328125 8.308594 11.394531 8.105469 11.375 7.929688 C 11.347656 7.679688 11.269531 7.613281 10.980469 7.59375 C 10.78125 7.578125 10.46875 7.644531 10.285156 7.746094 M 8.804688 9.058594 C 8.667969 9.410156 8.988281 10.515625 9.324219 10.851562 C 9.890625 11.417969 10.796875 11.148438 10.996094 10.355469 C 11.164062 9.695312 10.503906 9.089844 9.453125 8.9375 C 8.980469 8.867188 8.871094 8.886719 8.804688 9.058594 M 6.058594 9.058594 C 5.992188 9.082031 5.796875 9.128906 5.621094 9.167969 C 5.050781 9.292969 4.558594 9.808594 4.558594 10.277344 C 4.558594 10.808594 5.003906 11.28125 5.507812 11.28125 C 6.085938 11.28125 6.492188 10.832031 6.660156 10.011719 C 6.738281 9.621094 6.777344 9.234375 6.75 9.148438 C 6.699219 9.011719 6.34375 8.964844 6.058594 9.058594 M 7.34375 9.925781 C 6.851562 10.695312 6.777344 11.050781 7.011719 11.503906 C 7.207031 11.878906 7.628906 12.078125 8.101562 12.019531 C 8.445312 11.972656 8.878906 11.441406 8.878906 11.058594 C 8.878906 10.652344 8.171875 9.4375 7.90625 9.386719 C 7.785156 9.363281 7.578125 9.5625 7.34375 9.925781 M 9.40625 9.871094 C 9.511719 10.386719 9.859375 10.726562 10.179688 10.625 C 10.714844 10.457031 10.632812 9.8125 10.050781 9.609375 C 9.425781 9.390625 9.320312 9.429688 9.40625 9.871094 M 5.558594 9.722656 C 5.132812 9.890625 5.003906 10.25 5.257812 10.5625 C 5.542969 10.917969 5.9375 10.792969 6.109375 10.296875 C 6.351562 9.601562 6.210938 9.457031 5.558594 9.722656 M 7.636719 10.371094 C 7.515625 10.558594 7.441406 10.855469 7.464844 11.078125 C 7.492188 11.386719 7.558594 11.46875 7.808594 11.496094 C 8.421875 11.566406 8.558594 10.929688 8.066406 10.320312 L 7.847656 10.050781 L 7.636719 10.371094 M 14.261719 11.4375 C 12.386719 12.078125 11.152344 13.523438 10.785156 15.515625 C 10.441406 17.382812 11.355469 19.472656 13.003906 20.589844 C 16.40625 22.890625 21.019531 20.441406 21.019531 16.335938 C 21.019531 14.574219 20.328125 13.199219 18.917969 12.160156 C 17.582031 11.175781 15.832031 10.902344 14.261719 11.4375 M 15.019531 11.761719 C 13.59375 12.058594 12.332031 13.039062 11.691406 14.339844 C 11.371094 15 11.339844 15.167969 11.339844 16.320312 C 11.339844 17.503906 11.363281 17.632812 11.734375 18.382812 C 12.222656 19.378906 13.167969 20.273438 14.128906 20.65625 C 14.664062 20.867188 15.066406 20.929688 15.90625 20.933594 C 16.925781 20.941406 17.046875 20.914062 17.910156 20.488281 C 19.539062 19.679688 20.40625 18.363281 20.492188 16.558594 C 20.546875 15.34375 20.292969 14.476562 19.609375 13.546875 C 18.613281 12.1875 16.648438 11.421875 15.019531 11.761719 M 15.71875 12.324219 C 14.914062 12.621094 14.777344 13.445312 15.390625 14.347656 C 15.605469 14.667969 15.84375 14.945312 15.917969 14.96875 C 16.101562 15.027344 16.667969 14.273438 16.859375 13.71875 C 17.070312 13.105469 16.890625 12.625 16.367188 12.40625 C 16.148438 12.316406 15.953125 12.246094 15.933594 12.25 C 15.914062 12.253906 15.820312 12.289062 15.71875 12.324219 M 15.558594 12.921875 C 15.40625 13.074219 15.484375 13.625 15.710938 13.96875 L 15.941406 14.316406 L 16.191406 13.910156 C 16.472656 13.441406 16.503906 13.191406 16.296875 12.984375 C 16.140625 12.828125 15.691406 12.789062 15.558594 12.921875 M 13 13.46875 C 12.636719 13.871094 12.582031 14.128906 12.765625 14.566406 C 12.960938 15.027344 13.644531 15.359375 14.402344 15.359375 C 14.867188 15.359375 14.878906 15.351562 14.878906 14.9375 C 14.878906 14.464844 14.613281 13.742188 14.316406 13.414062 C 14.03125 13.101562 13.304688 13.128906 13 13.46875 M 17.460938 13.511719 C 17.148438 13.84375 16.835938 14.972656 16.964844 15.300781 C 17.128906 15.734375 18.789062 15.167969 19.054688 14.582031 C 19.261719 14.132812 19.238281 13.984375 18.890625 13.570312 C 18.480469 13.082031 17.878906 13.058594 17.460938 13.511719 M 13.347656 13.820312 C 13.050781 14.117188 13.171875 14.519531 13.617188 14.707031 C 14.230469 14.964844 14.433594 14.9375 14.335938 14.609375 C 14.085938 13.78125 13.699219 13.46875 13.347656 13.820312 M 17.792969 13.828125 C 17.621094 14.046875 17.386719 14.789062 17.464844 14.863281 C 17.5 14.898438 17.757812 14.851562 18.035156 14.753906 C 18.40625 14.625 18.550781 14.507812 18.578125 14.304688 C 18.652344 13.800781 18.082031 13.457031 17.792969 13.828125 M 12.277344 15.542969 C 11.84375 15.722656 11.59375 16.300781 11.757812 16.734375 C 11.898438 17.097656 12.332031 17.398438 12.722656 17.398438 C 13.113281 17.398438 14.339844 16.675781 14.339844 16.445312 C 14.339844 16.230469 13.507812 15.636719 13.011719 15.492188 C 12.761719 15.421875 12.523438 15.4375 12.277344 15.542969 M 18.421875 15.59375 C 17.625 15.976562 17.316406 16.273438 17.46875 16.519531 C 17.703125 16.898438 18.863281 17.449219 19.226562 17.359375 C 20.066406 17.148438 20.3125 16.210938 19.671875 15.671875 C 19.230469 15.300781 19.054688 15.289062 18.421875 15.59375 M 12.320312 16.039062 C 12.191406 16.171875 12.230469 16.621094 12.382812 16.777344 C 12.589844 16.984375 12.84375 16.953125 13.308594 16.671875 L 13.71875 16.421875 L 13.367188 16.191406 C 13.023438 15.964844 12.476562 15.886719 12.320312 16.039062 M 18.363281 16.195312 C 18.027344 16.453125 18.027344 16.453125 18.574219 16.730469 C 19.03125 16.964844 19.394531 16.890625 19.503906 16.546875 C 19.679688 15.996094 18.921875 15.761719 18.363281 16.195312 M 16.859375 17.402344 C 16.816406 17.46875 16.847656 17.828125 16.925781 18.203125 C 17.179688 19.425781 18.101562 19.949219 18.785156 19.265625 C 19.21875 18.835938 19.1875 18.230469 18.714844 17.835938 C 18.171875 17.378906 17.039062 17.113281 16.859375 17.402344 M 13.652344 17.589844 C 12.691406 17.890625 12.359375 18.84375 13.019531 19.410156 C 13.820312 20.097656 14.757812 19.363281 14.800781 18.015625 C 14.820312 17.503906 14.796875 17.457031 14.519531 17.4375 C 14.355469 17.421875 13.964844 17.492188 13.652344 17.589844 M 15.535156 18.171875 C 14.808594 19.125 14.796875 20.035156 15.507812 20.335938 C 16.289062 20.664062 16.992188 20.117188 16.878906 19.273438 C 16.820312 18.828125 16.25 17.875 15.988281 17.789062 C 15.917969 17.765625 15.714844 17.9375 15.535156 18.171875 M 17.398438 17.964844 C 17.398438 18.273438 17.6875 18.859375 17.894531 18.964844 C 18.398438 19.238281 18.875 18.496094 18.429688 18.128906 C 18.207031 17.941406 17.398438 17.816406 17.398438 17.964844 M 13.589844 18.179688 C 13.304688 18.304688 13.199219 18.425781 13.199219 18.640625 C 13.199219 19.003906 13.476562 19.242188 13.78125 19.144531 C 13.96875 19.085938 14.398438 18.328125 14.398438 18.058594 C 14.398438 17.945312 13.976562 18.011719 13.589844 18.179688 M 15.675781 18.808594 C 15.351562 19.433594 15.480469 19.921875 15.96875 19.921875 C 16.484375 19.921875 16.550781 19.273438 16.097656 18.710938 L 15.871094 18.433594 L 15.675781 18.808594 "/>
</g>
</svg>
