<?xml version="1.0" encoding="UTF-8"?>
<svg xmlns="http://www.w3.org/2000/svg" xmlns:xlink="http://www.w3.org/1999/xlink" width="24px" height="24px" viewBox="0 0 24 24" version="1.1">
<g id="surface1">
<path style=" stroke:none;fill-rule:evenodd;fill:rgb(0%,0%,0%);fill-opacity:1;" d="M 14.011719 0.128906 C 13.710938 0.304688 13.75 0.6875 14.117188 1.121094 C 14.589844 1.683594 14.761719 2.1875 14.757812 3.027344 C 14.757812 3.820312 14.628906 4.460938 14.328125 5.164062 C 14.179688 5.515625 14 5.652344 13.25 5.988281 C 12.40625 6.367188 12.292969 6.390625 11.484375 6.316406 C 11.007812 6.273438 10.105469 6.117188 9.480469 5.964844 L 8.339844 5.6875 L 8.265625 5.035156 C 8.167969 4.222656 8.035156 3.875 7.621094 3.382812 C 7.289062 2.988281 6.878906 2.886719 6.625 3.144531 C 6.417969 3.347656 6.445312 3.539062 6.652344 3.367188 C 7.199219 2.914062 7.921875 3.84375 7.921875 5 L 7.921875 5.640625 L 7.230469 5.648438 C 6.207031 5.660156 5.859375 5.859375 6.839844 5.875 C 7.269531 5.878906 7.679688 5.921875 7.75 5.972656 C 7.914062 6.082031 8.179688 6.839844 8.058594 6.839844 C 8.007812 6.839844 7.484375 6.640625 6.894531 6.394531 C 5.515625 5.824219 4.527344 5.800781 3.058594 6.300781 C 2.53125 6.480469 2.035156 6.683594 1.953125 6.746094 C 1.769531 6.894531 1.542969 7.675781 1.640625 7.832031 C 1.738281 7.988281 1.914062 7.679688 1.917969 7.351562 C 1.917969 7.207031 2.042969 7.007812 2.191406 6.910156 C 2.460938 6.738281 4.085938 6.359375 4.566406 6.359375 L 4.828125 6.359375 L 4.554688 6.578125 C 4.34375 6.75 4.300781 6.871094 4.363281 7.121094 C 4.410156 7.296875 4.5 7.441406 4.566406 7.441406 C 4.628906 7.441406 4.652344 7.316406 4.613281 7.160156 C 4.457031 6.539062 5.03125 6.507812 6.582031 7.058594 L 7.21875 7.289062 L 6.441406 7.722656 C 3.574219 9.328125 2.203125 11.910156 2.523438 15.101562 C 2.933594 19.140625 5.230469 22.1875 8.789062 23.394531 C 11.460938 24.304688 14.289062 24.144531 16.835938 22.941406 C 18.195312 22.296875 19.179688 21.53125 20.054688 20.433594 C 21.390625 18.753906 22.050781 16.929688 22.164062 14.578125 C 22.28125 12.253906 21.710938 10.761719 20.097656 9.160156 C 19.273438 8.339844 18.910156 8.082031 17.867188 7.570312 C 17.183594 7.234375 16.53125 6.960938 16.417969 6.960938 C 16.066406 6.960938 16.078125 6.773438 16.445312 6.554688 C 16.933594 6.269531 17.328125 5.539062 17.867188 3.941406 C 18.355469 2.484375 18.816406 1.496094 19.289062 0.875 C 19.449219 0.660156 19.558594 0.417969 19.53125 0.332031 C 19.433594 0.0546875 18.042969 2.347656 17.652344 3.421875 C 17.074219 5.023438 16.703125 5.722656 16.230469 6.113281 C 15.71875 6.535156 15.289062 6.648438 14.640625 6.539062 C 14.207031 6.46875 14.183594 6.441406 14.316406 6.222656 C 14.394531 6.089844 14.820312 5.769531 15.265625 5.507812 C 16.125 5.003906 16.433594 4.710938 15.945312 4.863281 C 15.789062 4.910156 15.507812 5.027344 15.320312 5.125 C 14.882812 5.347656 14.832031 5.285156 14.992188 4.722656 C 15.164062 4.101562 15.15625 2.371094 14.976562 1.957031 C 14.898438 1.769531 14.648438 1.390625 14.425781 1.105469 C 14.023438 0.597656 13.980469 0.238281 14.328125 0.238281 C 14.425781 0.238281 14.539062 0.1875 14.578125 0.121094 C 14.675781 -0.0351562 14.28125 -0.0273438 14.011719 0.128906 M 8.398438 6.292969 C 8.398438 6.652344 8.726562 6.820312 9.207031 6.710938 C 9.457031 6.652344 9.714844 6.601562 9.78125 6.59375 C 9.921875 6.578125 8.765625 6.144531 8.550781 6.128906 C 8.46875 6.125 8.398438 6.195312 8.398438 6.292969 M 15.058594 7.214844 C 14.863281 7.277344 14.164062 7.332031 13.507812 7.335938 C 12.851562 7.339844 12.179688 7.394531 12.015625 7.457031 C 11.566406 7.628906 9.148438 7.683594 8.382812 7.539062 C 7.746094 7.421875 7.664062 7.433594 6.929688 7.785156 C 4.832031 8.785156 3.417969 10.472656 2.925781 12.5625 C 2.671875 13.640625 2.761719 15.667969 3.117188 16.921875 C 3.59375 18.609375 4.25 19.738281 5.457031 20.949219 C 6.683594 22.183594 7.375 22.617188 9.003906 23.175781 C 10.035156 23.527344 10.300781 23.570312 11.894531 23.613281 C 13.921875 23.671875 15.003906 23.46875 16.550781 22.734375 C 19.816406 21.1875 21.664062 18.421875 21.910156 14.714844 C 22.132812 11.382812 20.269531 8.65625 16.9375 7.4375 C 15.902344 7.0625 15.644531 7.03125 15.058594 7.214844 "/>
</g>
</svg>
