<?xml version="1.0" encoding="UTF-8"?>
<svg xmlns="http://www.w3.org/2000/svg" xmlns:xlink="http://www.w3.org/1999/xlink" width="24px" height="24px" viewBox="0 0 24 24" version="1.1">
<g id="surface1">
<path style=" stroke:none;fill-rule:evenodd;fill:rgb(0%,0%,0%);fill-opacity:1;" d="M 15.167969 1.679688 C 13.351562 1.945312 12.359375 2.664062 12.359375 3.710938 C 12.359375 4.164062 12.640625 4.253906 13.78125 4.171875 C 15.417969 4.054688 16.539062 3.234375 16.972656 1.828125 C 17.050781 1.570312 17.027344 1.5625 16.417969 1.574219 C 16.066406 1.582031 15.503906 1.628906 15.167969 1.679688 M 11.84375 4.691406 C 11.738281 5.113281 11.621094 5.601562 11.585938 5.777344 L 11.523438 6.09375 L 11.074219 5.867188 C 10.472656 5.558594 10.078125 5.566406 10.078125 5.886719 C 10.078125 6.023438 10.128906 6.105469 10.1875 6.070312 C 10.355469 5.964844 10.894531 6.457031 11.222656 7.015625 C 11.722656 7.867188 12.558594 10.378906 13.015625 12.417969 C 13.097656 12.769531 13.097656 12.769531 12.851562 12.550781 C 12.632812 12.351562 12.597656 12.347656 12.53125 12.519531 C 12.492188 12.625 12.5625 12.863281 12.695312 13.046875 C 13.363281 13.996094 14.253906 16.1875 14.027344 16.328125 C 13.917969 16.394531 13.929688 16.527344 14.074219 16.890625 C 14.28125 17.40625 14.808594 19.828125 14.941406 20.878906 C 15.039062 21.632812 15.164062 21.941406 15.289062 21.738281 C 15.332031 21.667969 15.28125 21 15.167969 20.253906 C 15.027344 19.28125 14.988281 18.5 15.039062 17.488281 C 15.105469 16.164062 15.09375 16.078125 14.882812 16.078125 C 14.714844 16.078125 14.644531 16.183594 14.613281 16.46875 C 14.578125 16.808594 14.527344 16.722656 14.238281 15.839844 C 13.734375 14.300781 13.691406 13.210938 14.101562 12.210938 C 14.164062 12.050781 14.128906 12 13.945312 12 C 13.683594 12 13.5625 12.210938 13.554688 12.699219 C 13.542969 13.167969 12.886719 11.359375 12.535156 9.898438 C 12.019531 7.753906 11.9375 5.917969 12.304688 4.621094 C 12.339844 4.488281 12.296875 4.277344 12.203125 4.152344 C 12.050781 3.941406 12.019531 3.988281 11.84375 4.691406 M 6.359375 5.199219 C 5.953125 5.324219 4.800781 6.351562 4.800781 6.582031 C 4.800781 6.730469 5.050781 6.820312 6.039062 7.027344 C 6.996094 7.230469 8.039062 7.25 8.660156 7.078125 C 9.234375 6.917969 9.867188 6.210938 9.816406 5.78125 C 9.785156 5.515625 9.679688 5.433594 9.121094 5.261719 C 8.375 5.027344 6.996094 4.996094 6.359375 5.199219 M 16.75 5.953125 C 14.144531 6.523438 12.832031 7.960938 13.164062 9.886719 C 13.234375 10.300781 13.40625 10.898438 13.542969 11.207031 L 13.792969 11.777344 L 14.367188 11.699219 C 16.589844 11.410156 17.703125 10.777344 18.277344 9.488281 C 18.582031 8.800781 18.664062 7.378906 18.453125 6.480469 C 18.308594 5.871094 18.269531 5.816406 17.9375 5.796875 C 17.742188 5.785156 17.207031 5.855469 16.75 5.953125 M 7.800781 10.066406 C 6.878906 10.363281 6.019531 11.003906 5.339844 11.894531 L 4.871094 12.511719 L 5.527344 13.089844 C 6.894531 14.296875 8.421875 14.976562 9.457031 14.832031 C 10.5 14.691406 11.457031 13.910156 12.070312 12.699219 L 12.382812 12.085938 L 11.628906 11.382812 C 10.660156 10.472656 9.78125 10.039062 8.824219 10 C 8.425781 9.980469 7.964844 10.011719 7.800781 10.066406 M 16.980469 11.71875 C 15.011719 12.144531 14.042969 13.078125 14.199219 14.402344 C 14.253906 14.859375 14.503906 15.570312 14.691406 15.808594 C 14.703125 15.820312 15.054688 15.777344 15.472656 15.710938 C 17.285156 15.421875 18.132812 14.398438 17.957031 12.710938 C 17.84375 11.625 17.769531 11.550781 16.980469 11.71875 M 10.070312 15.347656 C 9.316406 15.761719 8.28125 17.125 8.28125 17.703125 C 8.28125 17.960938 9.695312 18.597656 10.621094 18.75 C 11.992188 18.980469 13.050781 18.367188 13.484375 17.089844 C 13.808594 16.144531 13.769531 16.042969 12.9375 15.597656 C 11.976562 15.085938 10.746094 14.980469 10.070312 15.347656 M 15.992188 17.15625 C 15.296875 17.472656 15.019531 18.03125 15.222656 18.714844 C 15.351562 19.140625 15.414062 19.199219 15.730469 19.199219 C 16.230469 19.199219 16.851562 18.917969 17.085938 18.585938 C 17.210938 18.40625 17.28125 18.058594 17.28125 17.613281 L 17.28125 16.921875 L 16.890625 16.921875 C 16.675781 16.925781 16.269531 17.027344 15.992188 17.15625 M 12.726562 19.582031 C 12.152344 19.746094 11.359375 20.339844 10.859375 20.980469 C 10.628906 21.277344 10.441406 21.5625 10.441406 21.617188 C 10.441406 21.671875 10.664062 21.832031 10.941406 21.96875 C 12.023438 22.523438 13.238281 22.078125 14.113281 20.808594 C 14.546875 20.179688 14.554688 20.15625 14.339844 19.921875 C 14.160156 19.722656 13.414062 19.414062 13.199219 19.453125 C 13.167969 19.457031 12.953125 19.515625 12.726562 19.582031 "/>
</g>
</svg>
