<?xml version="1.0" encoding="UTF-8"?>
<svg xmlns="http://www.w3.org/2000/svg" xmlns:xlink="http://www.w3.org/1999/xlink" width="100px" height="100px" viewBox="0 0 100 100" version="1.1">
<g id="surface1">
<path style=" stroke:none;fill-rule:evenodd;fill:rgb(0%,0%,0%);fill-opacity:1;" d="M 63.195312 7 C 55.632812 8.109375 51.5 11.101562 51.5 15.464844 C 51.5 17.347656 52.667969 17.730469 57.421875 17.390625 C 64.238281 16.902344 68.914062 13.46875 70.71875 7.625 C 71.050781 6.550781 70.945312 6.503906 68.410156 6.5625 C 66.945312 6.597656 64.597656 6.792969 63.195312 7 M 49.347656 19.550781 C 48.90625 21.308594 48.425781 23.34375 48.277344 24.074219 L 48.007812 25.394531 L 46.148438 24.449219 C 43.632812 23.164062 42 23.195312 42 24.53125 C 42 25.09375 42.199219 25.4375 42.441406 25.285156 C 43.152344 24.847656 45.398438 26.898438 46.765625 29.230469 C 48.847656 32.78125 52.320312 43.25 54.238281 51.738281 C 54.570312 53.210938 54.566406 53.214844 53.546875 52.292969 C 52.632812 51.464844 52.488281 51.449219 52.214844 52.164062 C 52.046875 52.605469 52.347656 53.589844 52.890625 54.359375 C 55.679688 58.3125 59.394531 67.445312 58.453125 68.03125 C 57.996094 68.3125 58.039062 68.871094 58.640625 70.375 C 59.503906 72.527344 61.699219 82.613281 62.257812 87 C 62.660156 90.128906 63.179688 91.421875 63.699219 90.578125 C 63.886719 90.277344 63.664062 87.492188 63.207031 84.390625 C 62.609375 80.34375 62.453125 77.089844 62.660156 72.875 C 62.933594 67.347656 62.894531 67 62.007812 67 C 61.308594 67 61.019531 67.425781 60.894531 68.625 C 60.75 70.03125 60.539062 69.679688 59.328125 66 C 57.21875 59.589844 57.042969 55.046875 58.75 50.875 C 59.019531 50.214844 58.863281 50 58.105469 50 C 57.007812 50 56.515625 50.878906 56.472656 52.914062 C 56.429688 54.867188 53.6875 47.328125 52.226562 41.25 C 50.078125 32.308594 49.746094 24.65625 51.265625 19.25 C 51.421875 18.699219 51.234375 17.820312 50.851562 17.300781 C 50.210938 16.425781 50.085938 16.617188 49.347656 19.550781 M 26.5 21.65625 C 24.8125 22.191406 20 26.460938 20 27.421875 C 20 28.039062 21.042969 28.417969 25.15625 29.28125 C 29.144531 30.121094 33.5 30.203125 36.085938 29.484375 C 38.476562 28.820312 41.113281 25.871094 40.902344 24.089844 C 40.773438 22.980469 40.328125 22.648438 38 21.921875 C 34.894531 20.949219 29.148438 20.816406 26.5 21.65625 M 69.792969 24.8125 C 58.933594 27.175781 53.46875 33.164062 54.84375 41.191406 C 55.140625 42.925781 55.851562 45.40625 56.429688 46.703125 L 57.472656 49.066406 L 59.863281 48.75 C 69.121094 47.535156 73.761719 44.910156 76.152344 39.535156 C 77.425781 36.675781 77.769531 30.75 76.882812 27 C 76.28125 24.464844 76.117188 24.242188 74.742188 24.15625 C 73.921875 24.101562 71.695312 24.398438 69.792969 24.8125 M 32.496094 41.941406 C 28.660156 43.1875 25.082031 45.851562 22.246094 49.566406 L 20.296875 52.128906 L 23.023438 54.535156 C 28.730469 59.570312 35.097656 62.398438 39.410156 61.804688 C 43.757812 61.210938 47.738281 57.953125 50.296875 52.910156 L 51.589844 50.355469 L 48.460938 47.421875 C 44.410156 43.628906 40.75 41.824219 36.773438 41.660156 C 35.109375 41.589844 33.1875 41.71875 32.496094 41.941406 M 70.75 48.832031 C 62.546875 50.597656 58.503906 54.496094 59.160156 60.015625 C 59.382812 61.917969 60.429688 64.882812 61.21875 65.863281 C 61.269531 65.925781 62.730469 65.746094 64.464844 65.46875 C 72.019531 64.25 75.550781 59.984375 74.820312 52.957031 C 74.351562 48.429688 74.046875 48.121094 70.75 48.832031 M 41.964844 63.957031 C 38.824219 65.671875 34.5 71.355469 34.5 73.761719 C 34.5 74.839844 40.402344 77.488281 44.25 78.132812 C 49.960938 79.089844 54.375 76.527344 56.1875 71.203125 C 57.53125 67.261719 57.378906 66.839844 53.902344 64.988281 C 49.90625 62.859375 44.78125 62.414062 41.964844 63.957031 M 66.628906 71.484375 C 63.734375 72.800781 62.582031 75.136719 63.433594 77.984375 C 63.964844 79.753906 64.222656 80 65.535156 80 C 67.621094 80 70.214844 78.824219 71.183594 77.441406 C 71.710938 76.691406 72 75.25 72 73.386719 L 72 70.5 L 70.375 70.511719 C 69.480469 70.515625 67.796875 70.953125 66.628906 71.484375 M 53.027344 81.585938 C 50.632812 82.273438 47.328125 84.746094 45.253906 87.414062 C 44.289062 88.652344 43.5 89.847656 43.5 90.070312 C 43.5 90.296875 44.441406 90.960938 45.585938 91.542969 C 50.097656 93.84375 55.164062 91.988281 58.804688 86.703125 C 60.609375 84.078125 60.636719 83.980469 59.753906 83.007812 C 59.003906 82.175781 55.898438 80.894531 55 81.046875 C 54.863281 81.070312 53.972656 81.3125 53.027344 81.585938 "/>
</g>
</svg>
