<?xml version="1.0" encoding="UTF-8"?>
<svg xmlns="http://www.w3.org/2000/svg" xmlns:xlink="http://www.w3.org/1999/xlink" width="100px" height="100px" viewBox="0 0 100 100" version="1.1">
<g id="surface1">
<path style=" stroke:none;fill-rule:evenodd;fill:rgb(0%,0%,0%);fill-opacity:1;" d="M 51.65625 0.664062 C 48.277344 1.910156 45.667969 4.285156 44.0625 7.574219 C 42.152344 11.492188 41.695312 15.1875 42.460938 20.445312 C 42.976562 23.957031 44.566406 30.140625 45.753906 33.25 C 45.964844 33.800781 45.382812 33.125 44.464844 31.75 C 41.796875 27.753906 35.582031 21.832031 32.5 20.34375 C 29.238281 18.765625 25.132812 17.90625 22.875 18.328125 C 20.605469 18.746094 16.523438 20.816406 14.8125 22.410156 C 11.648438 25.359375 10.625 30.757812 12.304688 35.683594 L 13.109375 38.046875 L 10.382812 40.902344 C 8.882812 42.476562 7.355469 44.65625 6.984375 45.757812 C 6.003906 48.667969 6.1875 52.398438 7.457031 55.269531 C 8.84375 58.410156 10.585938 60.246094 13.75 61.90625 C 15.914062 63.039062 16.855469 63.214844 20.75 63.207031 C 27.066406 63.195312 33.636719 60.910156 42.910156 55.492188 L 45.570312 53.941406 L 43.71875 56.84375 C 40.425781 62.015625 35.40625 68.097656 28.664062 75.097656 C 22.21875 81.789062 15.046875 90.039062 14.03125 91.9375 C 12.914062 94.027344 18.523438 98.988281 22.941406 99.820312 C 24.507812 100.113281 24.847656 99.964844 26.128906 98.449219 C 30.578125 93.167969 41.535156 75.671875 46.59375 65.765625 L 49.648438 59.78125 L 50.519531 64.015625 C 52.632812 74.28125 57.503906 81.789062 63.894531 84.617188 C 67.179688 86.070312 72.96875 85.699219 76.152344 83.835938 C 79.914062 81.628906 82 77.695312 82 72.796875 L 82 70.21875 L 84.125 69.582031 C 88.84375 68.167969 93.027344 63.535156 93.628906 59.0625 C 94.226562 54.589844 92.085938 49.328125 88.484375 46.425781 C 85.207031 43.785156 81.554688 42.851562 73.539062 42.605469 L 66.328125 42.382812 L 69.855469 40.75 C 77.078125 37.40625 82.140625 33.035156 84.917969 27.75 C 87.453125 22.921875 86.378906 15.546875 82.582031 11.703125 C 80.1875 9.277344 77.425781 8.402344 72.699219 8.5625 L 68.480469 8.710938 L 66.800781 6.230469 C 65.878906 4.867188 64.410156 3.230469 63.542969 2.597656 C 60.207031 0.160156 55.222656 -0.652344 51.65625 0.664062 "/>
</g>
</svg>
