<?xml version="1.0" encoding="UTF-8"?>
<svg xmlns="http://www.w3.org/2000/svg" xmlns:xlink="http://www.w3.org/1999/xlink" width="24px" height="24px" viewBox="0 0 24 24" version="1.1">
<g id="surface1">
<path style=" stroke:none;fill-rule:evenodd;fill:rgb(0%,0%,0%);fill-opacity:1;" d="M 12.398438 0.160156 C 11.585938 0.457031 10.960938 1.027344 10.574219 1.816406 C 10.117188 2.757812 10.007812 3.644531 10.191406 4.90625 C 10.3125 5.75 10.695312 7.234375 10.980469 7.980469 C 11.03125 8.113281 10.890625 7.949219 10.671875 7.621094 C 10.03125 6.660156 8.539062 5.238281 7.800781 4.882812 C 7.015625 4.503906 6.03125 4.296875 5.488281 4.398438 C 4.945312 4.5 3.964844 4.996094 3.554688 5.378906 C 2.796875 6.085938 2.550781 7.382812 2.953125 8.5625 L 3.144531 9.128906 L 2.492188 9.816406 C 2.132812 10.195312 1.765625 10.71875 1.675781 10.980469 C 1.441406 11.679688 1.484375 12.574219 1.789062 13.265625 C 2.121094 14.019531 2.539062 14.457031 3.300781 14.855469 C 3.820312 15.128906 4.046875 15.171875 4.980469 15.167969 C 6.496094 15.167969 8.074219 14.617188 10.296875 13.320312 L 10.9375 12.945312 L 10.492188 13.644531 C 9.703125 14.882812 8.496094 16.34375 6.878906 18.023438 C 5.332031 19.628906 3.613281 21.609375 3.367188 22.066406 C 3.097656 22.566406 4.445312 23.757812 5.507812 23.957031 C 5.882812 24.027344 5.964844 23.992188 6.269531 23.628906 C 7.339844 22.359375 9.96875 18.160156 11.183594 15.785156 L 11.914062 14.347656 L 12.125 15.363281 C 12.632812 17.828125 13.800781 19.628906 15.335938 20.308594 C 16.125 20.65625 17.511719 20.566406 18.277344 20.121094 C 19.179688 19.589844 19.679688 18.648438 19.679688 17.472656 L 19.679688 16.851562 L 20.191406 16.699219 C 21.324219 16.359375 22.328125 15.25 22.472656 14.175781 C 22.613281 13.101562 22.101562 11.839844 21.234375 11.140625 C 20.449219 10.507812 19.574219 10.285156 17.648438 10.226562 L 15.917969 10.171875 L 16.765625 9.78125 C 18.5 8.976562 19.714844 7.929688 20.378906 6.660156 C 20.988281 5.5 20.730469 3.730469 19.820312 2.808594 C 19.246094 2.226562 18.582031 2.015625 17.449219 2.054688 L 16.4375 2.089844 L 16.03125 1.496094 C 15.8125 1.167969 15.457031 0.777344 15.25 0.621094 C 14.449219 0.0390625 13.253906 -0.15625 12.398438 0.160156 "/>
</g>
</svg>
