<?xml version="1.0" encoding="UTF-8"?>
<svg xmlns="http://www.w3.org/2000/svg" xmlns:xlink="http://www.w3.org/1999/xlink" width="24px" height="24px" viewBox="0 0 24 24" version="1.1">
<g id="surface1">
<path style=" stroke:none;fill-rule:evenodd;fill:rgb(0%,0%,0%);fill-opacity:1;" d="M 10.261719 0.320312 C 9.535156 0.699219 9 1.378906 9 1.910156 C 9 2.046875 9.46875 2.679688 10.070312 3.347656 L 11.140625 4.542969 L 12.289062 3.289062 C 12.921875 2.601562 13.441406 1.980469 13.441406 1.914062 C 13.441406 1.703125 12.996094 0.910156 12.757812 0.695312 C 12.148438 0.140625 10.941406 -0.0390625 10.261719 0.320312 M 12.242188 5.101562 L 11.109375 6.355469 L 10.566406 5.726562 C 10.269531 5.382812 9.765625 4.828125 9.453125 4.5 L 8.886719 3.898438 L 8.882812 4.867188 L 8.878906 5.832031 L 9.96875 7.054688 C 10.566406 7.730469 11.097656 8.28125 11.144531 8.28125 C 11.195312 8.28125 11.730469 7.734375 12.335938 7.066406 L 13.441406 5.851562 L 13.441406 4.847656 C 13.441406 4.292969 13.425781 3.839844 13.410156 3.84375 C 13.394531 3.84375 12.867188 4.410156 12.242188 5.101562 M 12.296875 8.878906 C 11.703125 9.535156 11.164062 10.070312 11.101562 10.066406 C 11.035156 10.0625 10.546875 9.554688 10.019531 8.9375 C 9.492188 8.320312 9.019531 7.8125 8.96875 7.808594 C 8.921875 7.804688 8.878906 8.21875 8.882812 8.730469 L 8.882812 9.660156 L 9.976562 10.894531 C 10.578125 11.574219 11.113281 12.113281 11.167969 12.09375 C 11.222656 12.074219 11.753906 11.519531 12.351562 10.863281 L 13.441406 9.664062 L 13.441406 8.671875 C 13.441406 8.125 13.425781 7.679688 13.40625 7.679688 C 13.386719 7.679688 12.886719 8.21875 12.296875 8.878906 M 12.304688 12.691406 C 11.71875 13.332031 11.199219 13.875 11.152344 13.894531 C 11.105469 13.914062 10.617188 13.429688 10.070312 12.816406 C 9.519531 12.203125 9.03125 11.683594 8.976562 11.660156 C 8.921875 11.636719 8.882812 12.042969 8.882812 12.558594 L 8.886719 13.5 L 9.953125 14.699219 C 10.542969 15.359375 11.074219 15.898438 11.132812 15.898438 C 11.195312 15.898438 11.742188 15.359375 12.34375 14.699219 L 13.4375 13.5 L 13.4375 12.511719 C 13.441406 11.964844 13.425781 11.519531 13.40625 11.519531 C 13.386719 11.519531 12.890625 12.046875 12.304688 12.691406 M 8.882812 16.300781 L 8.878906 17.304688 L 9.539062 18.054688 C 9.902344 18.46875 10.199219 18.851562 10.199219 18.910156 C 10.199219 18.964844 9.890625 19.324219 9.515625 19.707031 L 8.828125 20.398438 L 10.558594 20.398438 L 10.558594 24 L 11.640625 24 L 11.640625 20.398438 L 13.613281 20.398438 L 12.847656 19.625 L 12.078125 18.851562 L 12.757812 18.078125 L 13.441406 17.304688 L 13.4375 16.300781 L 13.433594 15.300781 L 12.933594 15.839844 C 12.660156 16.136719 12.140625 16.695312 11.777344 17.085938 L 11.113281 17.789062 L 10.625 17.265625 C 10.359375 16.976562 9.855469 16.414062 9.511719 16.019531 L 8.882812 15.300781 L 8.882812 16.300781 "/>
</g>
</svg>
