<?xml version="1.0" encoding="UTF-8"?>
<svg xmlns="http://www.w3.org/2000/svg" xmlns:xlink="http://www.w3.org/1999/xlink" width="100px" height="100px" viewBox="0 0 100 100" version="1.1">
<g id="surface1">
<path style=" stroke:none;fill-rule:evenodd;fill:rgb(0%,0%,0%);fill-opacity:1;" d="M 42.75 1.332031 C 39.734375 2.921875 37.5 5.742188 37.5 7.960938 C 37.5 8.53125 39.457031 11.160156 41.957031 13.953125 L 46.414062 18.929688 L 51.207031 13.707031 C 53.84375 10.835938 56 8.253906 56 7.972656 C 56 7.09375 54.152344 3.792969 53.160156 2.894531 C 50.613281 0.589844 45.585938 -0.164062 42.75 1.332031 M 51.015625 21.253906 L 46.28125 26.484375 L 44.023438 23.867188 C 42.78125 22.429688 40.699219 20.125 39.394531 18.75 L 37.023438 16.25 L 37 24.304688 L 41.535156 29.402344 C 44.027344 32.207031 46.234375 34.5 46.441406 34.5 C 46.644531 34.5 48.878906 32.222656 51.40625 29.441406 L 56 24.386719 L 56 20.191406 C 56 17.886719 55.945312 16.007812 55.875 16.011719 C 55.804688 16.019531 53.621094 18.378906 51.015625 21.253906 M 51.230469 36.988281 C 48.765625 39.734375 46.523438 41.964844 46.25 41.949219 C 45.976562 41.933594 43.949219 39.816406 41.75 37.246094 C 39.550781 34.671875 37.582031 32.554688 37.375 32.535156 C 37.167969 32.515625 37.003906 34.242188 37.003906 36.375 L 37.007812 40.25 L 41.570312 45.394531 C 44.074219 48.226562 46.3125 50.476562 46.535156 50.394531 C 46.757812 50.316406 48.980469 48.003906 51.472656 45.257812 L 56 40.269531 L 56 36.132812 C 56 33.859375 55.933594 32 55.855469 32 C 55.777344 32 53.695312 34.246094 51.230469 36.988281 M 51.269531 52.875 C 48.828125 55.554688 46.667969 57.816406 46.46875 57.898438 C 46.269531 57.980469 44.238281 55.957031 41.953125 53.398438 C 39.671875 50.84375 37.621094 48.675781 37.402344 48.582031 C 37.179688 48.492188 37.007812 50.179688 37.015625 52.332031 L 37.027344 56.25 L 41.476562 61.25 C 43.921875 64 46.132812 66.25 46.394531 66.25 C 46.652344 66.25 48.921875 64 51.429688 61.25 L 55.992188 56.25 L 55.996094 52.125 C 56 49.855469 55.933594 48 55.851562 48 C 55.773438 48 53.707031 50.195312 51.269531 52.875 M 37.007812 67.921875 L 37 72.097656 L 39.75 75.226562 C 41.261719 76.953125 42.5 78.554688 42.5 78.789062 C 42.5 79.027344 41.214844 80.523438 39.640625 82.109375 L 36.78125 85 L 44 85 L 44 100 L 48.5 100 L 48.5 85 L 56.722656 85 L 50.332031 78.554688 L 53.164062 75.324219 L 56 72.097656 L 55.988281 67.921875 L 55.976562 63.75 L 53.898438 66 C 52.757812 67.238281 50.582031 69.570312 49.066406 71.1875 L 46.3125 74.121094 L 44.277344 71.9375 C 43.160156 70.734375 41.066406 68.398438 39.628906 66.75 L 37.015625 63.75 L 37.007812 67.921875 "/>
</g>
</svg>
