<?xml version="1.0" encoding="UTF-8"?>
<svg xmlns="http://www.w3.org/2000/svg" xmlns:xlink="http://www.w3.org/1999/xlink" width="100px" height="100px" viewBox="0 0 100 100" version="1.1">
<g id="surface1">
<path style=" stroke:none;fill-rule:evenodd;fill:rgb(0%,0%,0%);fill-opacity:1;" d="M 9 5.742188 C 9 9.871094 14.425781 15.75 21.773438 19.585938 C 32.789062 25.335938 49.109375 29.292969 68.75 30.976562 C 76.132812 31.609375 88.5 31.660156 88.5 31.058594 C 88.5 30.429688 78.707031 27.792969 65.199219 24.785156 L 53.648438 22.214844 L 56.71875 18.386719 C 59.425781 15.011719 63.410156 8.699219 64.246094 6.464844 C 64.441406 5.941406 64.117188 5.484375 63.28125 5.105469 C 62.074219 4.554688 61.945312 4.667969 59.941406 8.140625 C 57.226562 12.84375 53.382812 18.0625 51.269531 19.917969 L 49.589844 21.390625 L 42.335938 19.726562 C 23.679688 15.449219 14.59375 11.785156 11.21875 7.175781 C 9.0625 4.238281 9 4.199219 9 5.742188 M 28.398438 34.519531 C 23.933594 35.277344 20.5 39.453125 20.5 44.125 C 20.5 46.996094 21.175781 48.832031 22.90625 50.6875 C 27.777344 55.902344 36.101562 54.648438 39.054688 48.25 C 42.40625 40.992188 36.339844 33.171875 28.398438 34.519531 M 72.15625 37.1875 C 68.382812 38.988281 66.75 41.636719 66.75 45.964844 C 66.75 48.539062 67.003906 49.65625 67.917969 51.128906 C 69.230469 53.238281 72.347656 55.261719 75.046875 55.753906 C 79.535156 56.574219 84.433594 53.351562 85.789062 48.6875 C 86.5 46.242188 86.5 45.753906 85.773438 43.261719 C 84.035156 37.273438 77.800781 34.492188 72.15625 37.1875 M 51.605469 37.355469 C 49.722656 37.714844 46.664062 41.019531 46.03125 43.375 C 44.484375 49.140625 49.488281 54.640625 55.472656 53.742188 C 57.207031 53.484375 58.210938 52.921875 59.820312 51.3125 C 63.171875 47.960938 63.382812 43.609375 60.359375 40.164062 C 57.957031 37.429688 55.4375 36.621094 51.605469 37.355469 M 38.394531 52.472656 C 36.21875 53.164062 34.183594 54.851562 33.3125 56.691406 C 32.113281 59.214844 32.257812 62.992188 33.625 65.003906 C 35.601562 67.910156 37.199219 68.75 40.75 68.75 C 44.316406 68.75 45.886719 67.917969 47.917969 64.953125 C 49.476562 62.683594 49.300781 58.03125 47.570312 55.597656 C 45.652344 52.90625 41.492188 51.488281 38.394531 52.472656 M 60.75 56.601562 C 56.410156 58.121094 53.726562 62.214844 54.105469 66.75 C 54.546875 72.070312 58.527344 75.675781 64.003906 75.714844 C 69.097656 75.75 73.03125 72.148438 73.394531 67.113281 C 73.691406 63.007812 72.886719 60.539062 70.675781 58.789062 C 67.460938 56.234375 63.988281 55.472656 60.75 56.601562 M 43.09375 70.511719 C 39.914062 72.453125 39.152344 77.242188 41.605469 79.867188 C 43.023438 81.386719 45.105469 82.5 46.523438 82.5 C 48.351562 82.5 50.9375 80.96875 51.992188 79.261719 C 55.519531 73.554688 48.855469 67 43.09375 70.511719 M 55.578125 80.492188 C 54.660156 80.710938 53.136719 81.640625 52.195312 82.554688 C 45.078125 89.453125 54.972656 100.507812 62.554688 94.128906 C 68.945312 88.75 63.726562 78.542969 55.578125 80.492188 "/>
</g>
</svg>
