<?xml version="1.0" encoding="UTF-8"?>
<svg xmlns="http://www.w3.org/2000/svg" xmlns:xlink="http://www.w3.org/1999/xlink" width="24px" height="24px" viewBox="0 0 24 24" version="1.1">
<g id="surface1">
<path style=" stroke:none;fill-rule:evenodd;fill:rgb(0%,0%,0%);fill-opacity:1;" d="M 2.160156 1.378906 C 2.160156 2.367188 3.460938 3.78125 5.226562 4.699219 C 7.871094 6.082031 11.785156 7.03125 16.5 7.433594 C 18.273438 7.585938 21.238281 7.597656 21.238281 7.453125 C 21.238281 7.304688 18.890625 6.671875 15.648438 5.949219 L 12.875 5.332031 L 13.613281 4.414062 C 14.261719 3.601562 15.21875 2.085938 15.417969 1.550781 C 15.464844 1.425781 15.386719 1.316406 15.1875 1.226562 C 14.898438 1.09375 14.867188 1.121094 14.386719 1.953125 C 13.734375 3.082031 12.8125 4.335938 12.304688 4.78125 L 11.902344 5.132812 L 10.160156 4.734375 C 5.683594 3.707031 3.503906 2.828125 2.691406 1.722656 C 2.175781 1.015625 2.160156 1.007812 2.160156 1.378906 M 6.816406 8.285156 C 5.742188 8.46875 4.921875 9.46875 4.921875 10.589844 C 4.921875 11.277344 5.082031 11.71875 5.496094 12.164062 C 6.667969 13.417969 8.664062 13.113281 9.375 11.578125 C 10.175781 9.835938 8.722656 7.960938 6.816406 8.285156 M 17.316406 8.925781 C 16.410156 9.355469 16.019531 9.992188 16.019531 11.03125 C 16.019531 11.648438 16.082031 11.917969 16.300781 12.269531 C 16.613281 12.777344 17.363281 13.261719 18.011719 13.378906 C 19.089844 13.578125 20.265625 12.804688 20.589844 11.683594 C 20.761719 11.097656 20.757812 10.980469 20.585938 10.382812 C 20.167969 8.945312 18.671875 8.277344 17.316406 8.925781 M 12.386719 8.964844 C 11.933594 9.050781 11.199219 9.84375 11.046875 10.410156 C 10.675781 11.792969 11.878906 13.113281 13.3125 12.898438 C 13.730469 12.835938 13.96875 12.703125 14.355469 12.316406 C 15.160156 11.511719 15.210938 10.464844 14.484375 9.640625 C 13.910156 8.984375 13.304688 8.789062 12.386719 8.964844 M 9.214844 12.59375 C 8.691406 12.757812 8.203125 13.164062 7.996094 13.605469 C 7.707031 14.210938 7.742188 15.117188 8.070312 15.601562 C 8.542969 16.296875 8.925781 16.5 9.78125 16.5 C 10.636719 16.5 11.011719 16.300781 11.5 15.589844 C 11.875 15.042969 11.832031 13.925781 11.417969 13.34375 C 10.957031 12.699219 9.957031 12.355469 9.214844 12.59375 M 14.578125 13.585938 C 13.539062 13.949219 12.894531 14.929688 12.984375 16.019531 C 13.089844 17.296875 14.046875 18.164062 15.359375 18.171875 C 16.582031 18.179688 17.527344 17.316406 17.613281 16.105469 C 17.6875 15.121094 17.492188 14.53125 16.960938 14.109375 C 16.191406 13.496094 15.359375 13.3125 14.578125 13.585938 M 10.34375 16.921875 C 9.578125 17.386719 9.394531 18.539062 9.984375 19.167969 C 10.324219 19.53125 10.824219 19.800781 11.164062 19.800781 C 11.605469 19.800781 12.226562 19.433594 12.476562 19.023438 C 13.324219 17.652344 11.726562 16.082031 10.34375 16.921875 M 13.339844 19.316406 C 13.117188 19.371094 12.753906 19.59375 12.527344 19.8125 C 10.820312 21.46875 13.191406 24.121094 15.011719 22.589844 C 16.546875 21.300781 15.292969 18.851562 13.339844 19.316406 "/>
</g>
</svg>
