<?xml version="1.0" encoding="UTF-8"?>
<svg xmlns="http://www.w3.org/2000/svg" xmlns:xlink="http://www.w3.org/1999/xlink" width="100px" height="100px" viewBox="0 0 100 100" version="1.1">
<g id="surface1">
<path style=" stroke:none;fill-rule:evenodd;fill:rgb(0%,0%,0%);fill-opacity:1;" d="M 93.929688 10.164062 C 88.726562 14.710938 84.828125 19.074219 83.445312 21.894531 C 82.476562 23.863281 82.421875 24.53125 82.753906 30.078125 L 83.117188 36.117188 L 81.515625 34.933594 C 79.324219 33.3125 74.261719 33.238281 72.160156 34.796875 C 69.535156 36.742188 68.402344 38.964844 68.621094 41.75 C 68.726562 43.125 68.996094 44.648438 69.214844 45.132812 C 69.570312 45.917969 69.460938 45.960938 68.273438 45.507812 C 64.9375 44.238281 60.304688 45.554688 57.855469 48.46875 C 56.203125 50.429688 55.847656 51.722656 56.074219 54.929688 L 56.25 57.394531 L 54.488281 56.496094 C 48.824219 53.601562 41.617188 55.84375 38.96875 61.316406 C 36.617188 66.175781 38.640625 72.285156 43.492188 74.964844 L 45.691406 76.179688 L 43.96875 76.800781 C 41.390625 77.734375 41.253906 77.675781 40.632812 75.355469 C 39.886719 72.566406 38.398438 70.722656 35.832031 69.414062 C 31.511719 67.210938 26.402344 68.34375 23.277344 72.207031 C 21.933594 73.867188 21.753906 74.460938 21.78125 77.171875 C 21.796875 78.863281 21.972656 80.699219 22.175781 81.25 C 22.511719 82.160156 22.085938 82.371094 17.398438 83.632812 C 14.566406 84.394531 12.078125 85.011719 11.867188 85.007812 C 11.289062 84.996094 19.234375 75.03125 27.980469 64.796875 C 37.585938 53.554688 47.824219 43.035156 51.667969 40.46875 C 55.074219 38.191406 61.128906 36.148438 70.300781 34.179688 C 76.695312 32.804688 76.886719 32.726562 78.210938 30.886719 C 78.953125 29.847656 79.363281 29 79.117188 29 C 78.03125 29 60.859375 32.625 56.292969 33.816406 C 46.984375 36.246094 42.632812 38.859375 35.484375 46.320312 C 27.675781 54.464844 23.34375 60.898438 15.769531 75.605469 L 10.433594 85.964844 L 5.84375 86.105469 L 1.25 86.25 L 8.25 87.855469 C 23.929688 91.449219 28.882812 91.707031 39.5 89.492188 C 51.742188 86.933594 62.75 83.164062 73.75 77.753906 C 82.332031 73.535156 87.328125 69.933594 90.066406 65.992188 C 93.898438 60.472656 96.5 50.640625 96.5 41.667969 C 96.5 37.269531 96.355469 36.597656 94.25 31.277344 C 92.929688 27.9375 92 24.777344 92 23.621094 C 92 21.128906 93.277344 17.417969 96.179688 11.484375 C 97.4375 8.910156 98.394531 6.726562 98.304688 6.640625 C 98.21875 6.550781 96.25 8.136719 93.929688 10.164062 M 73.679688 49.902344 C 74.8125 52.152344 75.054688 53.941406 74.5 55.996094 C 73.054688 61.367188 66.828125 64.402344 61.671875 62.25 C 60.683594 61.835938 59.8125 61.5 59.730469 61.5 C 59.648438 61.5 59.808594 62.324219 60.085938 63.328125 C 60.363281 64.332031 60.441406 66.15625 60.257812 67.382812 L 59.921875 69.609375 L 62.023438 68.429688 C 68.082031 65.027344 76.730469 56.460938 79.800781 50.816406 C 80.992188 48.625 81.039062 48.378906 80.199219 48.710938 C 78.304688 49.457031 76.03125 49.609375 74.53125 49.085938 L 73 48.550781 L 73.679688 49.902344 "/>
</g>
</svg>
