<?xml version="1.0" encoding="UTF-8"?>
<svg xmlns="http://www.w3.org/2000/svg" xmlns:xlink="http://www.w3.org/1999/xlink" width="24px" height="24px" viewBox="0 0 24 24" version="1.1">
<g id="surface1">
<path style=" stroke:none;fill-rule:evenodd;fill:rgb(0%,0%,0%);fill-opacity:1;" d="M 22.542969 2.4375 C 21.292969 3.53125 20.359375 4.578125 20.027344 5.253906 C 19.792969 5.726562 19.78125 5.886719 19.859375 7.21875 L 19.949219 8.667969 L 19.5625 8.382812 C 19.039062 7.996094 17.824219 7.976562 17.320312 8.351562 C 16.6875 8.816406 16.417969 9.351562 16.46875 10.019531 C 16.496094 10.351562 16.558594 10.714844 16.613281 10.832031 C 16.695312 11.019531 16.671875 11.03125 16.386719 10.921875 C 15.585938 10.617188 14.472656 10.933594 13.886719 11.632812 C 13.488281 12.101562 13.402344 12.414062 13.457031 13.183594 L 13.5 13.773438 L 13.078125 13.558594 C 11.71875 12.863281 9.988281 13.402344 9.351562 14.714844 C 8.789062 15.882812 9.273438 17.347656 10.4375 17.992188 L 10.964844 18.285156 L 10.554688 18.433594 C 9.933594 18.65625 9.902344 18.640625 9.753906 18.085938 C 9.574219 17.414062 9.214844 16.972656 8.601562 16.660156 C 7.5625 16.128906 6.335938 16.402344 5.585938 17.328125 C 5.265625 17.726562 5.222656 17.871094 5.226562 18.519531 C 5.230469 18.925781 5.273438 19.367188 5.324219 19.5 C 5.402344 19.71875 5.300781 19.769531 4.175781 20.070312 C 3.496094 20.253906 2.898438 20.402344 2.847656 20.402344 C 2.710938 20.398438 4.617188 18.007812 6.714844 15.550781 C 9.019531 12.851562 11.476562 10.328125 12.398438 9.710938 C 13.21875 9.167969 14.671875 8.675781 16.871094 8.203125 C 18.40625 7.875 18.453125 7.855469 18.769531 7.414062 C 18.949219 7.164062 19.046875 6.960938 18.988281 6.960938 C 18.726562 6.960938 14.605469 7.828125 13.511719 8.117188 C 11.277344 8.699219 10.230469 9.328125 8.515625 11.117188 C 6.640625 13.070312 5.601562 14.617188 3.785156 18.144531 L 2.503906 20.632812 L 1.402344 20.664062 L 0.300781 20.699219 L 1.980469 21.085938 C 5.742188 21.949219 6.933594 22.007812 9.480469 21.476562 C 12.417969 20.863281 15.058594 19.960938 17.699219 18.660156 C 19.757812 17.648438 20.960938 16.785156 21.617188 15.839844 C 22.535156 14.511719 23.160156 12.152344 23.160156 10 C 23.160156 8.945312 23.125 8.78125 22.621094 7.507812 C 22.304688 6.707031 22.078125 5.945312 22.078125 5.667969 C 22.078125 5.070312 22.386719 4.179688 23.082031 2.757812 C 23.386719 2.136719 23.613281 1.613281 23.59375 1.59375 C 23.570312 1.570312 23.101562 1.953125 22.542969 2.4375 M 17.683594 11.976562 C 17.957031 12.515625 18.011719 12.945312 17.878906 13.4375 C 17.53125 14.726562 16.039062 15.457031 14.800781 14.941406 C 14.566406 14.839844 14.355469 14.761719 14.335938 14.761719 C 14.316406 14.761719 14.355469 14.957031 14.421875 15.199219 C 14.488281 15.441406 14.503906 15.878906 14.460938 16.171875 L 14.382812 16.707031 L 14.886719 16.421875 C 16.339844 15.605469 18.414062 13.550781 19.152344 12.195312 C 19.4375 11.671875 19.449219 11.609375 19.25 11.691406 C 18.792969 11.871094 18.246094 11.90625 17.886719 11.78125 L 17.519531 11.652344 L 17.683594 11.976562 "/>
</g>
</svg>
