<?xml version="1.0" encoding="UTF-8"?>
<svg xmlns="http://www.w3.org/2000/svg" xmlns:xlink="http://www.w3.org/1999/xlink" width="24px" height="24px" viewBox="0 0 24 24" version="1.1">
<g id="surface1">
<path style=" stroke:none;fill-rule:nonzero;fill:rgb(0%,0%,0%);fill-opacity:1;" d="M 14.640625 12.289062 C 12.695312 12.191406 11.113281 13.105469 10.078125 14.113281 C 8.710938 15.503906 8.089844 17.089844 8.089844 17.089844 C 7.886719 17.453125 7.914062 17.902344 8.160156 18.242188 C 8.40625 18.578125 8.824219 18.746094 9.234375 18.667969 C 9.644531 18.589844 9.972656 18.285156 10.078125 17.878906 C 10.078125 17.878906 10.609375 16.632812 11.59375 15.625 C 12.601562 14.617188 13.800781 13.894531 15.839844 14.710938 C 17.902344 15.550781 18.289062 16.921875 18.335938 18.335938 C 18.382812 19.777344 17.902344 21.046875 17.902344 21.046875 C 17.683594 21.605469 17.960938 22.234375 18.515625 22.453125 C 19.074219 22.671875 19.703125 22.398438 19.921875 21.839844 C 19.921875 21.839844 20.566406 20.230469 20.519531 18.289062 C 20.449219 16.367188 19.511719 13.871094 16.65625 12.742188 C 15.960938 12.457031 15.289062 12.3125 14.640625 12.289062 Z M 14.640625 12.289062 "/>
<path style=" stroke:none;fill-rule:nonzero;fill:rgb(0%,0%,0%);fill-opacity:1;" d="M 20.664062 1.558594 C 20.234375 1.578125 19.855469 1.851562 19.703125 2.257812 L 15.457031 12.886719 C 15.238281 13.445312 15.511719 14.074219 16.066406 14.292969 C 16.625 14.511719 17.253906 14.238281 17.472656 13.679688 L 21.695312 3.070312 C 21.84375 2.730469 21.808594 2.335938 21.597656 2.03125 C 21.390625 1.722656 21.035156 1.546875 20.664062 1.558594 Z M 20.664062 1.558594 "/>
<path style=" stroke:none;fill-rule:nonzero;fill:rgb(0%,0%,0%);fill-opacity:1;" d="M 12.625 12.769531 C 12.28125 12.796875 11.96875 12.984375 11.789062 13.28125 C 11.609375 13.574219 11.582031 13.9375 11.710938 14.257812 C 11.710938 14.257812 11.953125 14.785156 12.457031 15.289062 C 12.960938 15.792969 13.777344 16.367188 15.023438 16.871094 C 16.273438 17.375 17.183594 17.519531 17.855469 17.519531 C 18.191406 17.519531 18.457031 17.496094 18.648438 17.449219 C 18.839844 17.398438 19.078125 17.304688 19.078125 17.304688 C 19.625 17.046875 19.855469 16.394531 19.597656 15.851562 C 19.335938 15.308594 18.6875 15.078125 18.144531 15.335938 C 18.121094 15.335938 18.023438 15.359375 17.855469 15.359375 C 17.519531 15.359375 16.871094 15.289062 15.816406 14.855469 C 14.785156 14.449219 14.257812 14.015625 13.96875 13.726562 C 13.679688 13.441406 13.703125 13.441406 13.703125 13.441406 C 13.527344 13.003906 13.089844 12.734375 12.625 12.769531 Z M 12.625 12.769531 "/>
<path style=" stroke:none;fill-rule:nonzero;fill:rgb(0%,0%,0%);fill-opacity:1;" d="M 13.992188 13.847656 C 13.5625 13.867188 13.183594 14.140625 13.03125 14.542969 L 11.472656 18.457031 C 11.253906 19.011719 11.527344 19.640625 12.085938 19.859375 C 12.640625 20.078125 13.269531 19.804688 13.488281 19.246094 L 15.046875 15.359375 C 15.1875 15.023438 15.144531 14.636719 14.9375 14.335938 C 14.726562 14.035156 14.382812 13.859375 14.015625 13.871094 Z M 13.992188 13.847656 "/>
<path style=" stroke:none;fill-rule:nonzero;fill:rgb(0%,0%,0%);fill-opacity:1;" d="M 16.96875 15.382812 C 16.527344 15.394531 16.140625 15.667969 15.984375 16.078125 L 14.542969 19.679688 C 14.34375 20.046875 14.371094 20.496094 14.617188 20.832031 C 14.863281 21.171875 15.28125 21.335938 15.691406 21.261719 C 16.101562 21.183594 16.429688 20.875 16.535156 20.472656 L 17.976562 16.871094 C 18.113281 16.535156 18.070312 16.148438 17.863281 15.847656 C 17.65625 15.546875 17.308594 15.375 16.945312 15.382812 Z M 16.96875 15.382812 "/>
<path style=" stroke:none;fill-rule:nonzero;fill:rgb(0%,0%,0%);fill-opacity:1;" d="M 13.894531 12.769531 C 13.390625 12.808594 12.984375 13.195312 12.914062 13.695312 C 12.847656 14.199219 13.132812 14.679688 13.609375 14.855469 L 17.039062 16.246094 C 17.40625 16.449219 17.855469 16.421875 18.195312 16.175781 C 18.53125 15.929688 18.699219 15.511719 18.621094 15.101562 C 18.542969 14.691406 18.234375 14.363281 17.832031 14.257812 L 14.398438 12.863281 C 14.242188 12.792969 14.070312 12.757812 13.894531 12.769531 Z M 13.894531 12.769531 "/>
<path style=" stroke:none;fill-rule:nonzero;fill:rgb(0%,0%,0%);fill-opacity:1;" d="M 2.351562 18.382812 L 3.839844 18.382812 L 3.839844 19.871094 L 2.351562 19.871094 Z M 2.351562 18.382812 "/>
<path style=" stroke:none;fill-rule:nonzero;fill:rgb(0%,0%,0%);fill-opacity:1;" d="M 8.832031 20.015625 L 9.574219 20.015625 L 9.574219 20.761719 L 8.832031 20.761719 Z M 8.832031 20.015625 "/>
<path style=" stroke:none;fill-rule:nonzero;fill:rgb(0%,0%,0%);fill-opacity:1;" d="M 5.351562 19.972656 L 6.824219 20.195312 L 6.597656 21.667969 L 5.125 21.441406 Z M 5.351562 19.972656 "/>
</g>
</svg>
