<?xml version="1.0" encoding="UTF-8"?>
<svg xmlns="http://www.w3.org/2000/svg" xmlns:xlink="http://www.w3.org/1999/xlink" width="100px" height="100px" viewBox="0 0 100 100" version="1.1">
<g id="surface1">
<path style=" stroke:none;fill-rule:nonzero;fill:rgb(0%,0%,0%);fill-opacity:1;" d="M 61 51.199219 C 52.898438 50.800781 46.300781 54.601562 42 58.800781 C 36.300781 64.601562 33.699219 71.199219 33.699219 71.199219 C 32.863281 72.726562 32.980469 74.597656 34.003906 76.007812 C 35.027344 77.414062 36.769531 78.109375 38.480469 77.785156 C 40.1875 77.464844 41.558594 76.183594 42 74.5 C 42 74.5 44.199219 69.300781 48.300781 65.101562 C 52.5 60.898438 57.5 57.898438 66 61.300781 C 74.601562 64.800781 76.199219 70.5 76.398438 76.398438 C 76.601562 82.398438 74.601562 87.699219 74.601562 87.699219 C 73.6875 90.019531 74.832031 92.640625 77.148438 93.550781 C 79.46875 94.460938 82.089844 93.320312 83 91 C 83 91 85.699219 84.300781 85.5 76.199219 C 85.199219 68.199219 81.300781 57.800781 69.398438 53.101562 C 66.5 51.898438 63.699219 51.300781 61 51.199219 Z M 61 51.199219 "/>
<path style=" stroke:none;fill-rule:nonzero;fill:rgb(0%,0%,0%);fill-opacity:1;" d="M 86.101562 6.5 C 84.308594 6.582031 82.734375 7.722656 82.101562 9.398438 L 64.398438 53.699219 C 63.488281 56.019531 64.628906 58.640625 66.949219 59.550781 C 69.269531 60.460938 71.890625 59.320312 72.800781 57 L 90.398438 12.800781 C 91.019531 11.378906 90.867188 9.738281 89.992188 8.460938 C 89.121094 7.179688 87.648438 6.4375 86.101562 6.5 Z M 86.101562 6.5 "/>
<path style=" stroke:none;fill-rule:nonzero;fill:rgb(0%,0%,0%);fill-opacity:1;" d="M 52.601562 53.199219 C 51.167969 53.316406 49.875 54.109375 49.125 55.335938 C 48.371094 56.558594 48.253906 58.070312 48.800781 59.398438 C 48.800781 59.398438 49.800781 61.601562 51.898438 63.699219 C 54 65.800781 57.398438 68.199219 62.601562 70.300781 C 67.800781 72.398438 71.601562 73 74.398438 73 C 75.800781 73 76.898438 72.898438 77.699219 72.699219 C 78.5 72.5 79.5 72.101562 79.5 72.101562 C 81.765625 71.023438 82.726562 68.3125 81.648438 66.050781 C 80.574219 63.785156 77.863281 62.824219 75.601562 63.898438 C 75.5 63.898438 75.101562 64 74.398438 64 C 73 64 70.300781 63.699219 65.898438 61.898438 C 61.601562 60.199219 59.398438 58.398438 58.199219 57.199219 C 57 56 57.101562 56 57.101562 56 C 56.367188 54.1875 54.550781 53.058594 52.601562 53.199219 Z M 52.601562 53.199219 "/>
<path style=" stroke:none;fill-rule:nonzero;fill:rgb(0%,0%,0%);fill-opacity:1;" d="M 58.300781 57.699219 C 56.507812 57.78125 54.9375 58.921875 54.300781 60.601562 L 47.800781 76.898438 C 46.890625 79.21875 48.03125 81.839844 50.351562 82.75 C 52.667969 83.660156 55.289062 82.519531 56.199219 80.199219 L 62.699219 64 C 63.277344 62.589844 63.101562 60.984375 62.230469 59.734375 C 61.363281 58.480469 59.921875 57.753906 58.398438 57.800781 Z M 58.300781 57.699219 "/>
<path style=" stroke:none;fill-rule:nonzero;fill:rgb(0%,0%,0%);fill-opacity:1;" d="M 70.699219 64.101562 C 68.871094 64.144531 67.25 65.289062 66.601562 67 L 60.601562 82 C 59.761719 83.527344 59.882812 85.398438 60.902344 86.804688 C 61.925781 88.214844 63.667969 88.90625 65.378906 88.585938 C 67.089844 88.261719 68.460938 86.984375 68.898438 85.300781 L 74.898438 70.300781 C 75.476562 68.890625 75.300781 67.285156 74.433594 66.035156 C 73.5625 64.78125 72.121094 64.054688 70.601562 64.101562 Z M 70.699219 64.101562 "/>
<path style=" stroke:none;fill-rule:nonzero;fill:rgb(0%,0%,0%);fill-opacity:1;" d="M 57.898438 53.199219 C 55.800781 53.375 54.105469 54.984375 53.816406 57.070312 C 53.527344 59.15625 54.726562 61.164062 56.699219 61.898438 L 71 67.699219 C 72.527344 68.535156 74.398438 68.417969 75.804688 67.394531 C 77.214844 66.375 77.90625 64.632812 77.585938 62.921875 C 77.261719 61.210938 75.984375 59.839844 74.300781 59.398438 L 60 53.601562 C 59.34375 53.300781 58.621094 53.164062 57.898438 53.199219 Z M 57.898438 53.199219 "/>
<path style=" stroke:none;fill-rule:nonzero;fill:rgb(0%,0%,0%);fill-opacity:1;" d="M 9.800781 76.601562 L 16 76.601562 L 16 82.800781 L 9.800781 82.800781 Z M 9.800781 76.601562 "/>
<path style=" stroke:none;fill-rule:nonzero;fill:rgb(0%,0%,0%);fill-opacity:1;" d="M 36.800781 83.398438 L 39.898438 83.398438 L 39.898438 86.5 L 36.800781 86.5 Z M 36.800781 83.398438 "/>
<path style=" stroke:none;fill-rule:nonzero;fill:rgb(0%,0%,0%);fill-opacity:1;" d="M 22.296875 83.21875 L 28.425781 84.152344 L 27.492188 90.28125 L 21.363281 89.347656 Z M 22.296875 83.21875 "/>
</g>
</svg>
