<?xml version="1.0" encoding="UTF-8"?>
<svg xmlns="http://www.w3.org/2000/svg" xmlns:xlink="http://www.w3.org/1999/xlink" width="100px" height="100px" viewBox="0 0 100 100" version="1.1">
<g id="surface1">
<path style=" stroke:none;fill-rule:evenodd;fill:rgb(0%,0%,0%);fill-opacity:1;" d="M 39.40625 14.222656 C 31.886719 17.347656 26.5 22.800781 26.5 27.285156 C 26.5 28.226562 25.523438 29.652344 23.117188 32.230469 C 21.253906 34.222656 19.285156 36.777344 18.742188 37.910156 C 17.574219 40.332031 17.574219 40.332031 8.855469 40.789062 C 0.9375 41.203125 -0.0429688 41.714844 0.917969 44.925781 C 3.101562 52.214844 12.503906 65.597656 21.449219 74.144531 C 24.953125 77.496094 26.296875 79.492188 27.457031 83.085938 C 28.449219 86.15625 28.679688 86.21875 36.386719 85.527344 C 50.742188 84.242188 66.203125 81.503906 77.597656 78.222656 C 86.074219 75.78125 86.085938 75.773438 88.695312 70.335938 C 91.5 64.496094 94.21875 61.003906 96.914062 59.789062 C 99.042969 58.828125 99.800781 57.644531 99.253906 56.125 C 99.082031 55.644531 96.800781 53.449219 94.183594 51.25 C 91.570312 49.050781 86.855469 44.589844 83.707031 41.339844 C 79.367188 36.863281 77.710938 35.460938 76.867188 35.558594 C 76.058594 35.648438 74.703125 34.644531 71.949219 31.902344 C 68.910156 28.882812 67.136719 27.617188 63.113281 25.605469 C 60.046875 24.070312 56.554688 22.761719 54.164062 22.253906 C 48.476562 21.039062 46.882812 20.5 45.632812 19.359375 C 44.699219 18.507812 44.566406 18.011719 44.832031 16.34375 C 45.089844 14.742188 44.96875 14.214844 44.230469 13.675781 C 43.03125 12.796875 42.769531 12.824219 39.40625 14.222656 M 33.640625 23.601562 C 31.207031 26.121094 30.734375 27.945312 31.742188 30.976562 C 33.6875 36.835938 41.488281 40.484375 52.089844 40.496094 C 55.769531 40.5 57 41.195312 57 43.269531 C 57 44.886719 55.648438 45.5 52.097656 45.5 C 42.257812 45.5 32.222656 41.460938 28.964844 36.191406 L 27.871094 34.421875 L 25.910156 36.335938 C 21.304688 40.832031 20.191406 46.984375 23.292969 50.8125 C 25.125 53.074219 30.09375 56.101562 34.425781 57.601562 C 37.253906 58.578125 38.757812 58.75 44.5 58.75 C 51.949219 58.75 55.296875 58.082031 62 55.261719 C 67.371094 53.003906 69.84375 51.28125 71.523438 48.628906 C 76.777344 40.351562 67.296875 30.082031 51.148438 26.558594 C 46.308594 25.503906 43.972656 24.542969 42.128906 22.855469 C 40.800781 21.644531 40.734375 21.691406 40.296875 24.105469 C 40.03125 25.574219 40.164062 26.164062 40.933594 26.933594 C 41.886719 27.886719 42.914062 28.164062 51.464844 29.773438 C 55.9375 30.617188 58.023438 31.457031 59.921875 33.183594 C 63.347656 36.300781 63.355469 41.410156 59.933594 40.914062 C 59.222656 40.808594 58.433594 40.027344 57.78125 38.773438 C 56.347656 36.023438 54.648438 35.214844 47.761719 34 C 37.816406 32.25 35.953125 30.898438 35.5 25.117188 L 35.25 21.933594 L 33.640625 23.601562 M 27.601562 40.101562 C 26.625 41.078125 26.851562 46.753906 27.957031 48.894531 C 31.542969 55.851562 41.152344 58.617188 51.871094 55.785156 C 59.164062 53.855469 64.378906 49.082031 61.898438 46.601562 C 60.976562 45.675781 59.257812 45.886719 58.203125 47.050781 C 54.746094 50.871094 44.875 53.105469 38.75 51.457031 C 34.144531 50.214844 31.085938 46.621094 31.726562 43.207031 C 32.152344 40.933594 31.324219 39.5 29.582031 39.5 C 28.820312 39.5 27.929688 39.769531 27.601562 40.101562 M 77.996094 44.785156 C 77.984375 49.730469 73.570312 55.144531 66.902344 58.390625 C 52.875 65.226562 39.613281 65.855469 28.148438 60.234375 C 21.601562 57.023438 16.519531 51.105469 16.503906 46.679688 L 16.5 45.109375 L 12.125 45.367188 C 9.71875 45.511719 7.476562 45.773438 7.140625 45.949219 C 5.707031 46.707031 14.175781 59.394531 20.839844 66.480469 L 24.933594 70.828125 L 31.089844 70.171875 C 52.707031 67.875 75.203125 63.097656 88.457031 57.988281 L 92.628906 56.378906 L 89.4375 53.582031 C 87.683594 52.042969 84.394531 48.992188 82.125 46.800781 L 78 42.824219 L 77.996094 44.785156 M 80.46875 65.75 C 69.421875 69.195312 52.726562 72.539062 38 74.253906 C 34.011719 74.71875 30.476562 75.179688 30.136719 75.277344 C 29.703125 75.40625 29.867188 76.191406 30.707031 78.007812 C 31.355469 79.40625 32.011719 80.679688 32.164062 80.832031 C 32.554688 81.21875 45.835938 79.6875 54.75 78.222656 C 64.035156 76.695312 71.800781 74.953125 78 73.003906 L 82.75 71.511719 L 84.519531 67.753906 C 85.492188 65.691406 86.164062 64.023438 86.019531 64.050781 C 85.871094 64.082031 83.375 64.84375 80.46875 65.75 "/>
</g>
</svg>
