<?xml version="1.0" encoding="UTF-8"?>
<svg xmlns="http://www.w3.org/2000/svg" xmlns:xlink="http://www.w3.org/1999/xlink" width="24px" height="24px" viewBox="0 0 24 24" version="1.1">
<g id="surface1">
<path style=" stroke:none;fill-rule:evenodd;fill:rgb(0%,0%,0%);fill-opacity:1;" d="M 9.457031 3.414062 C 7.652344 4.164062 6.359375 5.472656 6.359375 6.550781 C 6.359375 6.773438 6.125 7.117188 5.546875 7.734375 C 5.101562 8.214844 4.628906 8.828125 4.496094 9.097656 C 4.21875 9.679688 4.21875 9.679688 2.125 9.789062 C 0.226562 9.886719 -0.0117188 10.011719 0.21875 10.78125 C 0.746094 12.53125 3 15.742188 5.148438 17.792969 C 5.988281 18.597656 6.3125 19.078125 6.589844 19.941406 C 6.828125 20.675781 6.882812 20.691406 8.734375 20.527344 C 12.179688 20.21875 15.886719 19.558594 18.625 18.773438 C 20.65625 18.1875 20.660156 18.183594 21.289062 16.878906 C 21.960938 15.480469 22.613281 14.640625 23.257812 14.347656 C 23.769531 14.117188 23.953125 13.835938 23.820312 13.46875 C 23.78125 13.355469 23.230469 12.828125 22.605469 12.300781 C 21.976562 11.773438 20.84375 10.703125 20.089844 9.921875 C 19.046875 8.847656 18.652344 8.511719 18.449219 8.535156 C 18.253906 8.554688 17.929688 8.3125 17.269531 7.65625 C 16.539062 6.933594 16.113281 6.628906 15.148438 6.144531 C 14.410156 5.777344 13.574219 5.460938 13 5.339844 C 11.632812 5.050781 11.253906 4.917969 10.953125 4.644531 C 10.726562 4.441406 10.695312 4.324219 10.761719 3.921875 C 10.820312 3.539062 10.792969 3.410156 10.617188 3.28125 C 10.328125 3.070312 10.265625 3.078125 9.457031 3.414062 M 8.074219 5.664062 C 7.488281 6.269531 7.375 6.707031 7.617188 7.433594 C 8.085938 8.839844 9.957031 9.714844 12.5 9.71875 C 13.382812 9.71875 13.679688 9.886719 13.679688 10.382812 C 13.679688 10.773438 13.355469 10.921875 12.503906 10.921875 C 10.140625 10.921875 7.734375 9.949219 6.953125 8.6875 L 6.6875 8.261719 L 6.21875 8.722656 C 5.113281 9.800781 4.847656 11.277344 5.589844 12.195312 C 6.03125 12.738281 7.222656 13.464844 8.261719 13.824219 C 8.941406 14.058594 9.300781 14.101562 10.679688 14.101562 C 12.46875 14.101562 13.269531 13.941406 14.878906 13.261719 C 16.167969 12.722656 16.761719 12.308594 17.164062 11.671875 C 18.425781 9.683594 16.152344 7.21875 12.273438 6.375 C 11.113281 6.121094 10.554688 5.890625 10.109375 5.484375 C 9.792969 5.195312 9.777344 5.207031 9.671875 5.785156 C 9.609375 6.136719 9.640625 6.28125 9.824219 6.464844 C 10.054688 6.691406 10.300781 6.757812 12.351562 7.144531 C 13.425781 7.347656 13.925781 7.550781 14.382812 7.964844 C 15.203125 8.710938 15.207031 9.9375 14.382812 9.820312 C 14.214844 9.792969 14.023438 9.605469 13.867188 9.304688 C 13.523438 8.644531 13.113281 8.453125 11.460938 8.160156 C 9.078125 7.738281 8.628906 7.414062 8.519531 6.027344 L 8.460938 5.265625 L 8.074219 5.664062 M 6.625 9.625 C 6.390625 9.859375 6.445312 11.222656 6.710938 11.734375 C 7.570312 13.402344 9.875 14.070312 12.449219 13.386719 C 14.199219 12.925781 15.453125 11.78125 14.855469 11.183594 C 14.632812 10.960938 14.222656 11.011719 13.96875 11.292969 C 13.140625 12.210938 10.769531 12.746094 9.300781 12.347656 C 8.195312 12.050781 7.460938 11.1875 7.613281 10.371094 C 7.714844 9.824219 7.515625 9.480469 7.101562 9.480469 C 6.917969 9.480469 6.703125 9.542969 6.625 9.625 M 18.71875 10.75 C 18.714844 11.933594 17.65625 13.234375 16.054688 14.015625 C 12.691406 15.65625 9.507812 15.804688 6.753906 14.457031 C 5.183594 13.6875 3.964844 12.265625 3.960938 11.203125 L 3.960938 10.828125 L 2.910156 10.886719 C 2.332031 10.921875 1.792969 10.984375 1.714844 11.027344 C 1.371094 11.210938 3.402344 14.253906 5 15.957031 L 5.984375 17 L 7.460938 16.839844 C 12.648438 16.289062 18.050781 15.144531 21.230469 13.917969 L 22.230469 13.53125 L 21.464844 12.859375 C 21.042969 12.488281 20.253906 11.757812 19.710938 11.234375 L 18.71875 10.277344 L 18.71875 10.75 M 19.3125 15.78125 C 16.660156 16.605469 12.65625 17.410156 9.121094 17.820312 C 8.164062 17.933594 7.3125 18.042969 7.234375 18.066406 C 7.128906 18.097656 7.167969 18.285156 7.371094 18.722656 C 7.527344 19.058594 7.683594 19.363281 7.71875 19.398438 C 7.8125 19.492188 11 19.125 13.140625 18.773438 C 15.367188 18.40625 17.230469 17.988281 18.71875 17.519531 L 19.859375 17.164062 L 20.285156 16.261719 C 20.519531 15.765625 20.679688 15.367188 20.644531 15.371094 C 20.609375 15.378906 20.007812 15.5625 19.3125 15.78125 "/>
</g>
</svg>
