<?xml version="1.0" encoding="UTF-8"?>
<svg xmlns="http://www.w3.org/2000/svg" xmlns:xlink="http://www.w3.org/1999/xlink" width="24px" height="24px" viewBox="0 0 24 24" version="1.1">
<g id="surface1">
<path style=" stroke:none;fill-rule:evenodd;fill:rgb(0%,0%,0%);fill-opacity:1;" d="M 11.039062 0.792969 C 10.050781 1.222656 9.550781 2.066406 9.621094 3.195312 C 9.664062 3.816406 9.734375 4.03125 10.03125 4.398438 C 10.695312 5.21875 10.953125 5.339844 12 5.339844 C 13.046875 5.339844 13.304688 5.21875 13.964844 4.402344 C 14.59375 3.621094 14.53125 2.261719 13.824219 1.417969 C 13.199219 0.675781 11.957031 0.394531 11.039062 0.792969 M 10.40625 6.132812 C 10.289062 6.199219 9.4375 7.09375 8.515625 8.117188 C 7.09375 9.699219 6.839844 10.035156 6.839844 10.363281 C 6.839844 10.828125 7.039062 11.027344 9.390625 12.949219 C 11.265625 14.480469 11.648438 14.640625 12.171875 14.121094 C 12.472656 13.820312 12.570312 13.332031 12.410156 12.921875 C 12.375 12.820312 11.671875 12.191406 10.851562 11.515625 C 10.03125 10.84375 9.359375 10.269531 9.359375 10.238281 C 9.359375 10.082031 10.25 9.121094 10.394531 9.121094 C 10.644531 9.121094 10.597656 9.257812 10.1875 9.757812 C 9.980469 10.007812 9.832031 10.226562 9.855469 10.246094 C 9.878906 10.265625 10.351562 10.640625 10.902344 11.078125 C 11.453125 11.519531 11.949219 11.878906 12 11.878906 C 12.175781 11.878906 14.039062 10.296875 14.039062 10.148438 C 14.039062 10.066406 13.90625 9.875 13.738281 9.71875 C 13.417969 9.417969 13.34375 9.117188 13.589844 9.125 C 13.769531 9.132812 14.523438 10.046875 14.515625 10.242188 C 14.511719 10.316406 14.003906 10.785156 13.390625 11.28125 L 12.273438 12.179688 L 12.503906 12.4375 C 12.835938 12.800781 12.914062 13.550781 12.671875 14.019531 C 12.320312 14.695312 12.683594 14.488281 14.699219 12.859375 C 16.945312 11.046875 17.160156 10.828125 17.160156 10.355469 C 17.160156 10.015625 16.921875 9.699219 15.472656 8.101562 C 14.546875 7.078125 13.6875 6.1875 13.5625 6.121094 C 13.265625 5.960938 10.683594 5.972656 10.40625 6.132812 M 8.128906 14.441406 C 7.148438 16.085938 7.082031 16.609375 7.808594 16.984375 C 7.996094 17.082031 8.421875 17.160156 8.753906 17.160156 C 9.328125 17.160156 9.359375 17.175781 9.359375 17.472656 C 9.359375 17.644531 8.953125 18.726562 8.460938 19.871094 C 7.964844 21.019531 7.558594 22.125 7.558594 22.328125 C 7.558594 22.578125 7.675781 22.8125 7.910156 23.050781 C 8.382812 23.519531 8.980469 23.53125 9.460938 23.070312 C 9.917969 22.636719 11.5 18.964844 11.675781 17.925781 C 11.792969 17.257812 11.84375 17.160156 12.070312 17.160156 C 12.292969 17.160156 12.347656 17.25 12.417969 17.730469 C 12.550781 18.632812 14.234375 22.8125 14.589844 23.128906 C 15.277344 23.742188 16.441406 23.210938 16.441406 22.28125 C 16.441406 22.054688 16.089844 20.988281 15.660156 19.902344 C 15.230469 18.824219 14.847656 17.765625 14.808594 17.550781 L 14.734375 17.160156 L 15.410156 17.160156 C 15.972656 17.160156 16.140625 17.109375 16.386719 16.867188 C 16.871094 16.378906 16.78125 15.949219 15.886719 14.460938 C 15.453125 13.734375 15.082031 13.125 15.0625 13.105469 C 15.046875 13.085938 14.585938 13.4375 14.042969 13.878906 L 13.050781 14.6875 L 12.15625 14.722656 C 11.105469 14.761719 10.902344 14.679688 9.796875 13.742188 C 9.367188 13.378906 9 13.082031 8.980469 13.082031 C 8.957031 13.085938 8.574219 13.699219 8.128906 14.441406 "/>
</g>
</svg>
