<?xml version="1.0" encoding="UTF-8"?>
<svg xmlns="http://www.w3.org/2000/svg" xmlns:xlink="http://www.w3.org/1999/xlink" width="100px" height="100px" viewBox="0 0 100 100" version="1.1">
<g id="surface1">
<path style=" stroke:none;fill-rule:evenodd;fill:rgb(0%,0%,0%);fill-opacity:1;" d="M 46.003906 3.296875 C 41.875 5.085938 39.796875 8.613281 40.09375 13.316406 C 40.257812 15.898438 40.566406 16.796875 41.800781 18.324219 C 44.566406 21.742188 45.628906 22.25 50 22.25 C 54.363281 22.25 55.433594 21.738281 58.179688 18.347656 C 60.8125 15.09375 60.546875 9.417969 57.601562 5.914062 C 54.992188 2.8125 49.816406 1.644531 46.003906 3.296875 M 43.363281 25.546875 C 42.875 25.832031 39.328125 29.554688 35.488281 33.816406 C 29.550781 40.40625 28.5 41.8125 28.5 43.183594 C 28.5 45.113281 29.328125 45.953125 39.125 53.949219 C 46.945312 60.335938 48.539062 61.007812 50.714844 58.832031 C 51.964844 57.582031 52.371094 55.546875 51.714844 53.835938 C 51.554688 53.421875 48.628906 50.792969 45.214844 47.988281 C 41.796875 45.1875 39 42.785156 39 42.65625 C 39 42.007812 42.710938 38 43.308594 38 C 44.347656 38 44.15625 38.582031 42.441406 40.660156 C 41.585938 41.699219 40.96875 42.613281 41.066406 42.691406 C 41.167969 42.765625 43.128906 44.332031 45.425781 46.164062 C 47.722656 48 49.78125 49.5 50.003906 49.5 C 50.738281 49.5 58.5 42.90625 58.5 42.28125 C 58.5 41.949219 57.9375 41.144531 57.25 40.5 C 55.914062 39.246094 55.597656 37.984375 56.625 38.027344 C 57.367188 38.054688 60.511719 41.855469 60.476562 42.679688 C 60.464844 42.992188 58.355469 44.9375 55.792969 47 L 51.132812 50.75 L 52.109375 51.824219 C 53.480469 53.339844 53.804688 56.460938 52.792969 58.417969 C 51.339844 61.230469 52.84375 60.371094 61.246094 53.582031 C 70.605469 46.027344 71.5 45.117188 71.5 43.152344 C 71.5 41.738281 70.515625 40.421875 64.476562 33.757812 C 60.613281 29.496094 57.027344 25.78125 56.507812 25.503906 C 55.273438 24.84375 44.507812 24.878906 43.363281 25.546875 M 33.875 60.179688 C 29.785156 67.023438 29.511719 69.203125 32.535156 70.769531 C 33.3125 71.171875 35.085938 71.5 36.476562 71.5 C 38.863281 71.5 39 71.570312 39 72.804688 C 39 73.523438 37.3125 78.023438 35.25 82.800781 C 33.1875 87.574219 31.5 92.179688 31.5 93.03125 C 31.5 94.074219 31.976562 95.054688 32.960938 96.039062 C 34.929688 98.007812 37.417969 98.039062 39.429688 96.125 C 41.328125 94.316406 47.914062 79.015625 48.65625 74.691406 C 49.132812 71.910156 49.34375 71.5 50.296875 71.5 C 51.214844 71.5 51.441406 71.875 51.738281 73.875 C 52.296875 77.632812 59.304688 95.054688 60.789062 96.375 C 63.65625 98.921875 68.5 96.707031 68.5 92.847656 C 68.5 91.890625 67.046875 87.457031 65.25 82.933594 C 63.464844 78.433594 61.863281 74.019531 61.695312 73.125 L 61.386719 71.5 L 64.21875 71.5 C 66.554688 71.5 67.257812 71.285156 68.273438 70.273438 C 70.292969 68.25 69.921875 66.457031 66.199219 60.25 C 64.386719 57.226562 62.839844 54.6875 62.765625 54.609375 C 62.691406 54.53125 60.777344 55.980469 58.507812 57.835938 L 54.378906 61.207031 L 50.65625 61.347656 C 46.277344 61.515625 45.425781 61.160156 40.820312 57.253906 C 39.035156 55.738281 37.5 54.507812 37.410156 54.515625 C 37.324219 54.523438 35.730469 57.074219 33.875 60.179688 "/>
</g>
</svg>
